<?xml version="1.0" encoding="utf-8" standalone="no"?>
<!DOCTYPE svg PUBLIC "-//W3C//DTD SVG 1.1//EN"
  "http://www.w3.org/Graphics/SVG/1.1/DTD/svg11.dtd">
<svg xmlns:xlink="http://www.w3.org/1999/xlink" width="312.747544pt" height="216.150625pt" viewBox="0 0 312.747544 216.150625" xmlns="http://www.w3.org/2000/svg" version="1.1">
 <metadata>
  <rdf:RDF xmlns:dc="http://purl.org/dc/elements/1.1/" xmlns:cc="http://creativecommons.org/ns#" xmlns:rdf="http://www.w3.org/1999/02/22-rdf-syntax-ns#">
   <cc:Work>
    <dc:type rdf:resource="http://purl.org/dc/dcmitype/StillImage"/>
    <dc:date>2026-04-28T10:28:04.058146</dc:date>
    <dc:format>image/svg+xml</dc:format>
    <dc:creator>
     <cc:Agent>
      <dc:title>Matplotlib v3.10.7, https://matplotlib.org/</dc:title>
     </cc:Agent>
    </dc:creator>
   </cc:Work>
  </rdf:RDF>
 </metadata>
 <defs>
  <style type="text/css">*{stroke-linejoin: round; stroke-linecap: butt}</style>
 </defs>
 <g id="figure_1">
  <g id="patch_1">
   <path d="M 0 216.150625 
L 312.747544 216.150625 
L 312.747544 0 
L 0 0 
z
" style="fill: #ffffff"/>
  </g>
  <g id="axes_1">
   <g id="patch_2">
    <path d="M 30.904375 185.56 
L 305.547544 185.56 
L 305.547544 7.2 
L 30.904375 7.2 
z
" style="fill: #ffffff"/>
   </g>
   <g id="matplotlib.axis_1">
    <g id="xtick_1">
     <g id="line2d_1">
      <defs>
       <path id="m6dc07be40e" d="M 0 0 
L 0 3.5 
" style="stroke: #000000; stroke-width: 0.8"/>
      </defs>
      <g>
       <use xlink:href="#m6dc07be40e" x="43.388155" y="185.56" style="stroke: #000000; stroke-width: 0.8"/>
      </g>
     </g>
     <g id="text_1">
      <!-- 1989 -->
      <g transform="translate(37.46503 197.06) scale(0.06 -0.06)">
       <defs>
        <path id="RobotoCondensed-Regular-31" d="M 2013 4575 
L 2013 0 
L 1459 0 
L 1459 3853 
L 503 3428 
L 503 3950 
L 1928 4575 
L 2013 4575 
z
" transform="scale(0.015625)"/>
        <path id="RobotoCondensed-Regular-39" d="M 2744 2563 
Q 2744 2119 2687 1667 
Q 2631 1216 2450 836 
Q 2269 456 1903 225 
Q 1538 -6 869 -6 
L 866 484 
Q 1428 484 1698 690 
Q 1969 897 2072 1233 
Q 2175 1569 2191 1950 
Q 1859 1522 1413 1522 
Q 1025 1522 786 1747 
Q 547 1972 436 2320 
Q 325 2669 325 3041 
Q 325 3691 623 4152 
Q 922 4613 1522 4613 
Q 1969 4613 2237 4344 
Q 2506 4075 2625 3653 
Q 2744 3231 2744 2772 
L 2744 2563 
z
M 866 3072 
Q 866 2666 1020 2334 
Q 1175 2003 1506 2003 
Q 1716 2003 1906 2179 
Q 2097 2356 2194 2616 
L 2194 2850 
Q 2194 3472 1983 3803 
Q 1772 4134 1522 4134 
Q 1206 4134 1036 3829 
Q 866 3525 866 3072 
z
" transform="scale(0.015625)"/>
        <path id="RobotoCondensed-Regular-38" d="M 2794 1231 
Q 2794 606 2445 271 
Q 2097 -63 1578 -63 
Q 1063 -63 714 273 
Q 366 609 366 1231 
Q 366 1613 536 1905 
Q 706 2197 1000 2347 
Q 450 2666 450 3366 
Q 450 3963 769 4288 
Q 1088 4613 1581 4613 
Q 2075 4613 2392 4288 
Q 2709 3963 2709 3366 
Q 2709 3028 2557 2761 
Q 2406 2494 2150 2344 
Q 2444 2194 2619 1901 
Q 2794 1609 2794 1231 
z
M 2156 3356 
Q 2156 3697 2000 3917 
Q 1844 4138 1581 4138 
Q 1319 4138 1161 3927 
Q 1003 3716 1003 3356 
Q 1003 3003 1159 2790 
Q 1316 2578 1581 2578 
Q 1844 2578 2000 2790 
Q 2156 3003 2156 3356 
z
M 2244 1244 
Q 2244 1625 2061 1865 
Q 1878 2106 1575 2106 
Q 1266 2106 1091 1865 
Q 916 1625 916 1244 
Q 916 850 1089 631 
Q 1263 413 1578 413 
Q 1897 413 2070 631 
Q 2244 850 2244 1244 
z
" transform="scale(0.015625)"/>
       </defs>
       <use xlink:href="#RobotoCondensed-Regular-31"/>
       <use xlink:href="#RobotoCondensed-Regular-39" transform="translate(49.365234 0)"/>
       <use xlink:href="#RobotoCondensed-Regular-38" transform="translate(98.730469 0)"/>
       <use xlink:href="#RobotoCondensed-Regular-39" transform="translate(148.095703 0)"/>
      </g>
     </g>
    </g>
    <g id="xtick_2">
     <g id="line2d_2">
      <g>
       <use xlink:href="#m6dc07be40e" x="68.355716" y="185.56" style="stroke: #000000; stroke-width: 0.8"/>
      </g>
     </g>
     <g id="text_2">
      <!-- 1991 -->
      <g transform="translate(62.432591 197.06) scale(0.06 -0.06)">
       <use xlink:href="#RobotoCondensed-Regular-31"/>
       <use xlink:href="#RobotoCondensed-Regular-39" transform="translate(49.365234 0)"/>
       <use xlink:href="#RobotoCondensed-Regular-39" transform="translate(98.730469 0)"/>
       <use xlink:href="#RobotoCondensed-Regular-31" transform="translate(148.095703 0)"/>
      </g>
     </g>
    </g>
    <g id="xtick_3">
     <g id="line2d_3">
      <g>
       <use xlink:href="#m6dc07be40e" x="93.323277" y="185.56" style="stroke: #000000; stroke-width: 0.8"/>
      </g>
     </g>
     <g id="text_3">
      <!-- 1993 -->
      <g transform="translate(87.400152 197.06) scale(0.06 -0.06)">
       <defs>
        <path id="RobotoCondensed-Regular-33" d="M 1075 2084 
L 1075 2559 
L 1431 2559 
Q 1788 2559 1961 2781 
Q 2134 3003 2134 3338 
Q 2134 4138 1519 4138 
Q 1228 4138 1054 3927 
Q 881 3716 881 3359 
L 331 3359 
Q 331 3881 653 4247 
Q 975 4613 1519 4613 
Q 2038 4613 2363 4286 
Q 2688 3959 2688 3325 
Q 2688 3072 2550 2786 
Q 2413 2500 2100 2338 
Q 2484 2194 2612 1886 
Q 2741 1578 2741 1269 
Q 2741 631 2389 284 
Q 2038 -63 1516 -63 
Q 1006 -63 656 267 
Q 306 597 306 1203 
L 859 1203 
Q 859 844 1032 628 
Q 1206 413 1516 413 
Q 1822 413 2005 622 
Q 2188 831 2188 1256 
Q 2188 2084 1403 2084 
L 1075 2084 
z
" transform="scale(0.015625)"/>
       </defs>
       <use xlink:href="#RobotoCondensed-Regular-31"/>
       <use xlink:href="#RobotoCondensed-Regular-39" transform="translate(49.365234 0)"/>
       <use xlink:href="#RobotoCondensed-Regular-39" transform="translate(98.730469 0)"/>
       <use xlink:href="#RobotoCondensed-Regular-33" transform="translate(148.095703 0)"/>
      </g>
     </g>
    </g>
    <g id="xtick_4">
     <g id="line2d_4">
      <g>
       <use xlink:href="#m6dc07be40e" x="118.290838" y="185.56" style="stroke: #000000; stroke-width: 0.8"/>
      </g>
     </g>
     <g id="text_4">
      <!-- 1995 -->
      <g transform="translate(112.367713 197.06) scale(0.06 -0.06)">
       <defs>
        <path id="RobotoCondensed-Regular-35" d="M 1034 2166 
L 594 2284 
L 788 4550 
L 2769 4550 
L 2769 4016 
L 1253 4016 
L 1147 2778 
Q 1438 2975 1753 2975 
Q 2288 2975 2591 2561 
Q 2894 2147 2894 1450 
Q 2894 797 2584 367 
Q 2275 -63 1656 -63 
Q 1194 -63 850 248 
Q 506 559 453 1197 
L 975 1197 
Q 1066 413 1656 413 
Q 1978 413 2159 691 
Q 2341 969 2341 1444 
Q 2341 1872 2153 2164 
Q 1966 2456 1619 2456 
Q 1384 2456 1273 2378 
Q 1163 2300 1034 2166 
z
" transform="scale(0.015625)"/>
       </defs>
       <use xlink:href="#RobotoCondensed-Regular-31"/>
       <use xlink:href="#RobotoCondensed-Regular-39" transform="translate(49.365234 0)"/>
       <use xlink:href="#RobotoCondensed-Regular-39" transform="translate(98.730469 0)"/>
       <use xlink:href="#RobotoCondensed-Regular-35" transform="translate(148.095703 0)"/>
      </g>
     </g>
    </g>
    <g id="xtick_5">
     <g id="line2d_5">
      <g>
       <use xlink:href="#m6dc07be40e" x="143.258399" y="185.56" style="stroke: #000000; stroke-width: 0.8"/>
      </g>
     </g>
     <g id="text_5">
      <!-- 1997 -->
      <g transform="translate(137.335274 197.06) scale(0.06 -0.06)">
       <defs>
        <path id="RobotoCondensed-Regular-37" d="M 2878 4550 
L 2878 4225 
L 1313 0 
L 731 0 
L 2297 4075 
L 269 4075 
L 269 4550 
L 2878 4550 
z
" transform="scale(0.015625)"/>
       </defs>
       <use xlink:href="#RobotoCondensed-Regular-31"/>
       <use xlink:href="#RobotoCondensed-Regular-39" transform="translate(49.365234 0)"/>
       <use xlink:href="#RobotoCondensed-Regular-39" transform="translate(98.730469 0)"/>
       <use xlink:href="#RobotoCondensed-Regular-37" transform="translate(148.095703 0)"/>
      </g>
     </g>
    </g>
    <g id="xtick_6">
     <g id="line2d_6">
      <g>
       <use xlink:href="#m6dc07be40e" x="168.22596" y="185.56" style="stroke: #000000; stroke-width: 0.8"/>
      </g>
     </g>
     <g id="text_6">
      <!-- 1999 -->
      <g transform="translate(162.302835 197.06) scale(0.06 -0.06)">
       <use xlink:href="#RobotoCondensed-Regular-31"/>
       <use xlink:href="#RobotoCondensed-Regular-39" transform="translate(49.365234 0)"/>
       <use xlink:href="#RobotoCondensed-Regular-39" transform="translate(98.730469 0)"/>
       <use xlink:href="#RobotoCondensed-Regular-39" transform="translate(148.095703 0)"/>
      </g>
     </g>
    </g>
    <g id="xtick_7">
     <g id="line2d_7">
      <g>
       <use xlink:href="#m6dc07be40e" x="193.19352" y="185.56" style="stroke: #000000; stroke-width: 0.8"/>
      </g>
     </g>
     <g id="text_7">
      <!-- 2001 -->
      <g transform="translate(187.270395 197.06) scale(0.06 -0.06)">
       <defs>
        <path id="RobotoCondensed-Regular-32" d="M 2909 475 
L 2909 0 
L 366 0 
L 366 416 
L 1628 2088 
Q 1966 2541 2077 2802 
Q 2188 3063 2188 3328 
Q 2188 3663 2027 3900 
Q 1866 4138 1575 4138 
Q 1194 4138 1022 3878 
Q 850 3619 850 3213 
L 297 3213 
Q 297 3788 617 4200 
Q 938 4613 1575 4613 
Q 2125 4613 2433 4278 
Q 2741 3944 2741 3397 
Q 2741 2997 2541 2594 
Q 2341 2191 2047 1809 
L 1028 475 
L 2909 475 
z
" transform="scale(0.015625)"/>
        <path id="RobotoCondensed-Regular-30" d="M 2797 1944 
Q 2797 825 2467 381 
Q 2138 -63 1581 -63 
Q 1038 -63 703 370 
Q 369 803 359 1878 
L 359 2638 
Q 359 3753 695 4183 
Q 1031 4613 1578 4613 
Q 2131 4613 2461 4189 
Q 2791 3766 2797 2681 
L 2797 1944 
z
M 2247 2734 
Q 2247 3503 2073 3822 
Q 1900 4141 1578 4141 
Q 1266 4141 1092 3833 
Q 919 3525 913 2791 
L 913 1850 
Q 913 1088 1089 750 
Q 1266 413 1581 413 
Q 1903 413 2072 738 
Q 2241 1063 2247 1794 
L 2247 2734 
z
" transform="scale(0.015625)"/>
       </defs>
       <use xlink:href="#RobotoCondensed-Regular-32"/>
       <use xlink:href="#RobotoCondensed-Regular-30" transform="translate(49.365234 0)"/>
       <use xlink:href="#RobotoCondensed-Regular-30" transform="translate(98.730469 0)"/>
       <use xlink:href="#RobotoCondensed-Regular-31" transform="translate(148.095703 0)"/>
      </g>
     </g>
    </g>
    <g id="xtick_8">
     <g id="line2d_8">
      <g>
       <use xlink:href="#m6dc07be40e" x="218.161081" y="185.56" style="stroke: #000000; stroke-width: 0.8"/>
      </g>
     </g>
     <g id="text_8">
      <!-- 2003 -->
      <g transform="translate(212.237956 197.06) scale(0.06 -0.06)">
       <use xlink:href="#RobotoCondensed-Regular-32"/>
       <use xlink:href="#RobotoCondensed-Regular-30" transform="translate(49.365234 0)"/>
       <use xlink:href="#RobotoCondensed-Regular-30" transform="translate(98.730469 0)"/>
       <use xlink:href="#RobotoCondensed-Regular-33" transform="translate(148.095703 0)"/>
      </g>
     </g>
    </g>
    <g id="xtick_9">
     <g id="line2d_9">
      <g>
       <use xlink:href="#m6dc07be40e" x="243.128642" y="185.56" style="stroke: #000000; stroke-width: 0.8"/>
      </g>
     </g>
     <g id="text_9">
      <!-- 2005 -->
      <g transform="translate(237.205517 197.06) scale(0.06 -0.06)">
       <use xlink:href="#RobotoCondensed-Regular-32"/>
       <use xlink:href="#RobotoCondensed-Regular-30" transform="translate(49.365234 0)"/>
       <use xlink:href="#RobotoCondensed-Regular-30" transform="translate(98.730469 0)"/>
       <use xlink:href="#RobotoCondensed-Regular-35" transform="translate(148.095703 0)"/>
      </g>
     </g>
    </g>
    <g id="xtick_10">
     <g id="line2d_10">
      <g>
       <use xlink:href="#m6dc07be40e" x="268.096203" y="185.56" style="stroke: #000000; stroke-width: 0.8"/>
      </g>
     </g>
     <g id="text_10">
      <!-- 2007 -->
      <g transform="translate(262.173078 197.06) scale(0.06 -0.06)">
       <use xlink:href="#RobotoCondensed-Regular-32"/>
       <use xlink:href="#RobotoCondensed-Regular-30" transform="translate(49.365234 0)"/>
       <use xlink:href="#RobotoCondensed-Regular-30" transform="translate(98.730469 0)"/>
       <use xlink:href="#RobotoCondensed-Regular-37" transform="translate(148.095703 0)"/>
      </g>
     </g>
    </g>
    <g id="xtick_11">
     <g id="line2d_11">
      <g>
       <use xlink:href="#m6dc07be40e" x="293.063764" y="185.56" style="stroke: #000000; stroke-width: 0.8"/>
      </g>
     </g>
     <g id="text_11">
      <!-- 2009 -->
      <g transform="translate(287.140639 197.06) scale(0.06 -0.06)">
       <use xlink:href="#RobotoCondensed-Regular-32"/>
       <use xlink:href="#RobotoCondensed-Regular-30" transform="translate(49.365234 0)"/>
       <use xlink:href="#RobotoCondensed-Regular-30" transform="translate(98.730469 0)"/>
       <use xlink:href="#RobotoCondensed-Regular-39" transform="translate(148.095703 0)"/>
      </g>
     </g>
    </g>
    <g id="text_12">
     <!-- Year -->
     <g transform="translate(162.005257 207.52875) scale(0.07 -0.07)">
      <defs>
       <path id="RobotoCondensed-Regular-59" d="M 747 4550 
L 1675 2266 
L 2606 4550 
L 3256 4550 
L 1963 1700 
L 1963 0 
L 1388 0 
L 1388 1700 
L 94 4550 
L 747 4550 
z
" transform="scale(0.015625)"/>
       <path id="RobotoCondensed-Regular-65" d="M 2722 447 
Q 2584 253 2323 95 
Q 2063 -63 1625 -63 
Q 1019 -63 666 301 
Q 313 666 309 1431 
L 309 1828 
Q 309 2722 696 3083 
Q 1084 3444 1563 3444 
Q 2197 3444 2472 3034 
Q 2747 2625 2747 1850 
L 2747 1528 
L 863 1528 
L 863 1447 
Q 863 906 1067 657 
Q 1272 409 1656 409 
Q 1934 409 2114 517 
Q 2294 625 2431 794 
L 2722 447 
z
M 1563 2969 
Q 1275 2969 1084 2770 
Q 894 2572 866 2000 
L 2194 2000 
L 2194 2078 
Q 2172 2469 2048 2719 
Q 1925 2969 1563 2969 
z
" transform="scale(0.015625)"/>
       <path id="RobotoCondensed-Regular-61" d="M 2156 0 
Q 2103 122 2081 366 
Q 1966 194 1775 65 
Q 1584 -63 1334 -63 
Q 891 -63 623 187 
Q 356 438 356 922 
Q 356 1409 690 1729 
Q 1025 2050 1691 2050 
L 2072 2050 
L 2072 2413 
Q 2072 2713 1936 2841 
Q 1800 2969 1528 2969 
Q 1263 2969 1114 2812 
Q 966 2656 966 2444 
L 413 2444 
Q 413 2806 722 3125 
Q 1031 3444 1556 3444 
Q 2025 3444 2325 3209 
Q 2625 2975 2625 2406 
L 2625 794 
Q 2625 316 2728 50 
L 2728 0 
L 2156 0 
z
M 1419 441 
Q 1653 441 1825 562 
Q 1997 684 2072 834 
L 2072 1644 
L 1781 1644 
Q 1384 1644 1146 1475 
Q 909 1306 909 991 
Q 909 688 1036 564 
Q 1163 441 1419 441 
z
" transform="scale(0.015625)"/>
       <path id="RobotoCondensed-Regular-72" d="M 1563 2888 
Q 1138 2888 969 2425 
L 969 0 
L 416 0 
L 416 3381 
L 950 3381 
L 963 3041 
Q 1184 3444 1591 3444 
Q 1738 3444 1809 3400 
L 1813 2863 
Q 1691 2888 1563 2888 
z
" transform="scale(0.015625)"/>
      </defs>
      <use xlink:href="#RobotoCondensed-Regular-59"/>
      <use xlink:href="#RobotoCondensed-Regular-65" transform="translate(52.490234 0)"/>
      <use xlink:href="#RobotoCondensed-Regular-61" transform="translate(99.365234 0)"/>
      <use xlink:href="#RobotoCondensed-Regular-72" transform="translate(147.265625 0)"/>
     </g>
    </g>
   </g>
   <g id="matplotlib.axis_2">
    <g id="ytick_1">
     <g id="line2d_12">
      <path d="M 30.904375 185.56 
L 305.547544 185.56 
" clip-path="url(#p4026459764)" style="fill: none; stroke: #b0b0b0; stroke-opacity: 0.3; stroke-width: 0.8; stroke-linecap: square"/>
     </g>
     <g id="line2d_13">
      <defs>
       <path id="mdd3b770e3b" d="M 0 0 
L -3.5 0 
" style="stroke: #000000; stroke-width: 0.8"/>
      </defs>
      <g>
       <use xlink:href="#mdd3b770e3b" x="30.904375" y="185.56" style="stroke: #000000; stroke-width: 0.8"/>
      </g>
     </g>
     <g id="text_13">
      <!-- 0 -->
      <g transform="translate(20.942813 187.81) scale(0.06 -0.06)">
       <use xlink:href="#RobotoCondensed-Regular-30"/>
      </g>
     </g>
    </g>
    <g id="ytick_2">
     <g id="line2d_14">
      <path d="M 30.904375 161.593018 
L 305.547544 161.593018 
" clip-path="url(#p4026459764)" style="fill: none; stroke: #b0b0b0; stroke-opacity: 0.3; stroke-width: 0.8; stroke-linecap: square"/>
     </g>
     <g id="line2d_15">
      <g>
       <use xlink:href="#mdd3b770e3b" x="30.904375" y="161.593018" style="stroke: #000000; stroke-width: 0.8"/>
      </g>
     </g>
     <g id="text_14">
      <!-- 5 -->
      <g transform="translate(20.942813 163.843018) scale(0.06 -0.06)">
       <use xlink:href="#RobotoCondensed-Regular-35"/>
      </g>
     </g>
    </g>
    <g id="ytick_3">
     <g id="line2d_16">
      <path d="M 30.904375 137.626035 
L 305.547544 137.626035 
" clip-path="url(#p4026459764)" style="fill: none; stroke: #b0b0b0; stroke-opacity: 0.3; stroke-width: 0.8; stroke-linecap: square"/>
     </g>
     <g id="line2d_17">
      <g>
       <use xlink:href="#mdd3b770e3b" x="30.904375" y="137.626035" style="stroke: #000000; stroke-width: 0.8"/>
      </g>
     </g>
     <g id="text_15">
      <!-- 10 -->
      <g transform="translate(17.98125 139.876035) scale(0.06 -0.06)">
       <use xlink:href="#RobotoCondensed-Regular-31"/>
       <use xlink:href="#RobotoCondensed-Regular-30" transform="translate(49.365234 0)"/>
      </g>
     </g>
    </g>
    <g id="ytick_4">
     <g id="line2d_18">
      <path d="M 30.904375 113.659053 
L 305.547544 113.659053 
" clip-path="url(#p4026459764)" style="fill: none; stroke: #b0b0b0; stroke-opacity: 0.3; stroke-width: 0.8; stroke-linecap: square"/>
     </g>
     <g id="line2d_19">
      <g>
       <use xlink:href="#mdd3b770e3b" x="30.904375" y="113.659053" style="stroke: #000000; stroke-width: 0.8"/>
      </g>
     </g>
     <g id="text_16">
      <!-- 15 -->
      <g transform="translate(17.98125 115.909053) scale(0.06 -0.06)">
       <use xlink:href="#RobotoCondensed-Regular-31"/>
       <use xlink:href="#RobotoCondensed-Regular-35" transform="translate(49.365234 0)"/>
      </g>
     </g>
    </g>
    <g id="ytick_5">
     <g id="line2d_20">
      <path d="M 30.904375 89.692071 
L 305.547544 89.692071 
" clip-path="url(#p4026459764)" style="fill: none; stroke: #b0b0b0; stroke-opacity: 0.3; stroke-width: 0.8; stroke-linecap: square"/>
     </g>
     <g id="line2d_21">
      <g>
       <use xlink:href="#mdd3b770e3b" x="30.904375" y="89.692071" style="stroke: #000000; stroke-width: 0.8"/>
      </g>
     </g>
     <g id="text_17">
      <!-- 20 -->
      <g transform="translate(17.98125 91.942071) scale(0.06 -0.06)">
       <use xlink:href="#RobotoCondensed-Regular-32"/>
       <use xlink:href="#RobotoCondensed-Regular-30" transform="translate(49.365234 0)"/>
      </g>
     </g>
    </g>
    <g id="ytick_6">
     <g id="line2d_22">
      <path d="M 30.904375 65.725088 
L 305.547544 65.725088 
" clip-path="url(#p4026459764)" style="fill: none; stroke: #b0b0b0; stroke-opacity: 0.3; stroke-width: 0.8; stroke-linecap: square"/>
     </g>
     <g id="line2d_23">
      <g>
       <use xlink:href="#mdd3b770e3b" x="30.904375" y="65.725088" style="stroke: #000000; stroke-width: 0.8"/>
      </g>
     </g>
     <g id="text_18">
      <!-- 25 -->
      <g transform="translate(17.98125 67.975088) scale(0.06 -0.06)">
       <use xlink:href="#RobotoCondensed-Regular-32"/>
       <use xlink:href="#RobotoCondensed-Regular-35" transform="translate(49.365234 0)"/>
      </g>
     </g>
    </g>
    <g id="ytick_7">
     <g id="line2d_24">
      <path d="M 30.904375 41.758106 
L 305.547544 41.758106 
" clip-path="url(#p4026459764)" style="fill: none; stroke: #b0b0b0; stroke-opacity: 0.3; stroke-width: 0.8; stroke-linecap: square"/>
     </g>
     <g id="line2d_25">
      <g>
       <use xlink:href="#mdd3b770e3b" x="30.904375" y="41.758106" style="stroke: #000000; stroke-width: 0.8"/>
      </g>
     </g>
     <g id="text_19">
      <!-- 30 -->
      <g transform="translate(17.98125 44.008106) scale(0.06 -0.06)">
       <use xlink:href="#RobotoCondensed-Regular-33"/>
       <use xlink:href="#RobotoCondensed-Regular-30" transform="translate(49.365234 0)"/>
      </g>
     </g>
    </g>
    <g id="ytick_8">
     <g id="line2d_26">
      <path d="M 30.904375 17.791124 
L 305.547544 17.791124 
" clip-path="url(#p4026459764)" style="fill: none; stroke: #b0b0b0; stroke-opacity: 0.3; stroke-width: 0.8; stroke-linecap: square"/>
     </g>
     <g id="line2d_27">
      <g>
       <use xlink:href="#mdd3b770e3b" x="30.904375" y="17.791124" style="stroke: #000000; stroke-width: 0.8"/>
      </g>
     </g>
     <g id="text_20">
      <!-- 35 -->
      <g transform="translate(17.98125 20.041124) scale(0.06 -0.06)">
       <use xlink:href="#RobotoCondensed-Regular-33"/>
       <use xlink:href="#RobotoCondensed-Regular-35" transform="translate(49.365234 0)"/>
      </g>
     </g>
    </g>
    <g id="text_21">
     <!-- Number of Overlapping Names -->
     <g transform="translate(12.522188 138.766641) rotate(-90) scale(0.07 -0.07)">
      <defs>
       <path id="RobotoCondensed-Regular-4e" d="M 3466 4550 
L 3466 0 
L 2888 0 
L 1066 3509 
L 1066 0 
L 491 0 
L 491 4550 
L 1066 4550 
L 2897 1031 
L 2897 4550 
L 3466 4550 
z
" transform="scale(0.015625)"/>
       <path id="RobotoCondensed-Regular-75" d="M 2153 0 
L 2144 297 
Q 1863 -63 1338 -63 
Q 919 -63 662 231 
Q 406 525 406 1200 
L 406 3381 
L 956 3381 
L 956 1178 
Q 959 731 1107 579 
Q 1256 428 1431 428 
Q 1931 428 2125 881 
L 2125 3381 
L 2678 3381 
L 2678 0 
L 2153 0 
z
" transform="scale(0.015625)"/>
       <path id="RobotoCondensed-Regular-6d" d="M 1556 2956 
Q 1141 2956 969 2544 
L 969 0 
L 419 0 
L 419 3381 
L 938 3381 
L 953 3075 
Q 1256 3444 1766 3444 
Q 2325 3444 2553 2953 
Q 2872 3444 3441 3444 
Q 3903 3444 4151 3153 
Q 4400 2863 4400 2222 
L 4400 0 
L 3847 0 
L 3847 2228 
Q 3847 2653 3692 2804 
Q 3538 2956 3272 2956 
Q 3016 2956 2864 2757 
Q 2713 2559 2684 2272 
L 2684 0 
L 2131 0 
L 2131 2272 
Q 2116 2956 1556 2956 
z
" transform="scale(0.015625)"/>
       <path id="RobotoCondensed-Regular-62" d="M 2866 1528 
Q 2866 725 2575 331 
Q 2284 -63 1753 -63 
Q 1219 -63 950 400 
L 922 0 
L 416 0 
L 416 4800 
L 969 4800 
L 969 3016 
Q 1234 3444 1750 3444 
Q 2278 3444 2567 3073 
Q 2856 2703 2866 1897 
L 2866 1528 
z
M 1606 2956 
Q 1181 2956 969 2497 
L 969 884 
Q 1181 428 1609 428 
Q 1984 428 2146 690 
Q 2309 953 2313 1506 
L 2313 1844 
Q 2313 2406 2159 2681 
Q 2006 2956 1606 2956 
z
" transform="scale(0.015625)"/>
       <path id="RobotoCondensed-Regular-20" transform="scale(0.015625)"/>
       <path id="RobotoCondensed-Regular-6f" d="M 300 1850 
Q 300 2641 678 3042 
Q 1056 3444 1603 3444 
Q 2156 3444 2536 3042 
Q 2916 2641 2916 1850 
L 2916 1528 
Q 2916 738 2536 337 
Q 2156 -63 1609 -63 
Q 1059 -63 679 337 
Q 300 738 300 1528 
L 300 1850 
z
M 853 1528 
Q 853 969 1068 689 
Q 1284 409 1609 409 
Q 2341 409 2363 1466 
L 2363 1850 
Q 2363 2403 2145 2686 
Q 1928 2969 1603 2969 
Q 1281 2969 1067 2686 
Q 853 2403 853 1850 
L 853 1528 
z
" transform="scale(0.015625)"/>
       <path id="RobotoCondensed-Regular-66" d="M 1788 2938 
L 1213 2938 
L 1213 0 
L 659 0 
L 659 2938 
L 219 2938 
L 219 3381 
L 659 3381 
L 659 3763 
Q 666 4297 923 4581 
Q 1181 4866 1628 4866 
Q 1794 4866 1963 4816 
L 1938 4344 
Q 1834 4372 1684 4372 
Q 1222 4372 1213 3763 
L 1213 3381 
L 1788 3381 
L 1788 2938 
z
" transform="scale(0.015625)"/>
       <path id="RobotoCondensed-Regular-4f" d="M 3450 1878 
Q 3450 913 3040 425 
Q 2631 -63 1925 -63 
Q 1253 -63 829 412 
Q 406 888 394 1822 
L 394 2669 
Q 394 3631 816 4122 
Q 1238 4613 1922 4613 
Q 2622 4613 3031 4131 
Q 3441 3650 3450 2713 
L 3450 1878 
z
M 2881 2675 
Q 2881 3425 2634 3762 
Q 2388 4100 1922 4100 
Q 1478 4100 1220 3762 
Q 963 3425 963 2675 
L 963 1878 
Q 963 1125 1223 786 
Q 1484 447 1925 447 
Q 2394 447 2636 781 
Q 2878 1116 2881 1859 
L 2881 2675 
z
" transform="scale(0.015625)"/>
       <path id="RobotoCondensed-Regular-76" d="M 2578 3381 
L 1575 0 
L 1159 0 
L 144 3381 
L 706 3381 
L 1372 847 
L 2016 3381 
L 2578 3381 
z
" transform="scale(0.015625)"/>
       <path id="RobotoCondensed-Regular-6c" d="M 1009 4800 
L 1009 0 
L 459 0 
L 459 4800 
L 1009 4800 
z
" transform="scale(0.015625)"/>
       <path id="RobotoCondensed-Regular-70" d="M 1750 -63 
Q 1244 -63 969 325 
L 969 -1300 
L 416 -1300 
L 416 3381 
L 919 3381 
L 947 3013 
Q 1222 3444 1744 3444 
Q 2275 3444 2562 3073 
Q 2850 2703 2859 1897 
L 2859 1528 
Q 2859 725 2570 331 
Q 2281 -63 1750 -63 
z
M 1572 2956 
Q 1181 2956 969 2559 
L 969 797 
Q 1178 409 1578 409 
Q 2288 409 2306 1472 
L 2306 1844 
Q 2306 2956 1572 2956 
z
" transform="scale(0.015625)"/>
       <path id="RobotoCondensed-Regular-69" d="M 428 4278 
Q 428 4419 506 4516 
Q 584 4613 741 4613 
Q 894 4613 975 4516 
Q 1056 4419 1056 4278 
Q 1056 4144 975 4048 
Q 894 3953 741 3953 
Q 584 3953 506 4048 
Q 428 4144 428 4278 
z
M 1009 3381 
L 1009 0 
L 459 0 
L 459 3381 
L 1009 3381 
z
" transform="scale(0.015625)"/>
       <path id="RobotoCondensed-Regular-6e" d="M 1603 2956 
Q 1400 2956 1236 2818 
Q 1072 2681 969 2459 
L 969 0 
L 416 0 
L 416 3381 
L 938 3381 
L 953 3022 
Q 1275 3444 1775 3444 
Q 2191 3444 2437 3162 
Q 2684 2881 2684 2216 
L 2684 0 
L 2131 0 
L 2131 2222 
Q 2131 2619 2000 2787 
Q 1869 2956 1603 2956 
z
" transform="scale(0.015625)"/>
       <path id="RobotoCondensed-Regular-67" d="M 1525 -1334 
Q 1331 -1334 1007 -1229 
Q 684 -1125 497 -906 
L 725 -522 
Q 1056 -859 1484 -859 
Q 1806 -859 2000 -679 
Q 2194 -500 2194 -56 
L 2194 338 
Q 1925 -63 1428 -63 
Q 919 -63 611 331 
Q 303 725 303 1528 
L 303 1844 
Q 303 2678 608 3061 
Q 913 3444 1434 3444 
Q 1953 3444 2219 3006 
L 2247 3381 
L 2744 3381 
L 2744 -41 
Q 2741 -703 2402 -1018 
Q 2063 -1334 1525 -1334 
z
M 856 1528 
Q 856 963 1025 695 
Q 1194 428 1572 428 
Q 1988 428 2194 853 
L 2194 2541 
Q 1978 2956 1578 2956 
Q 1197 2956 1028 2687 
Q 859 2419 856 1866 
L 856 1528 
z
" transform="scale(0.015625)"/>
       <path id="RobotoCondensed-Regular-73" d="M 2056 866 
Q 2056 1059 1907 1190 
Q 1759 1322 1340 1500 
Q 922 1678 681 1863 
Q 409 2072 409 2484 
Q 409 2888 703 3166 
Q 997 3444 1481 3444 
Q 2000 3444 2287 3150 
Q 2575 2856 2575 2419 
L 2025 2419 
Q 2025 2628 1884 2798 
Q 1744 2969 1481 2969 
Q 1203 2969 1083 2828 
Q 963 2688 963 2503 
Q 963 2319 1081 2217 
Q 1200 2116 1553 1959 
Q 2066 1756 2337 1537 
Q 2609 1319 2609 909 
Q 2609 463 2303 200 
Q 1997 -63 1494 -63 
Q 919 -63 616 265 
Q 313 594 313 1013 
L 866 1013 
Q 881 653 1081 533 
Q 1281 413 1494 413 
Q 2056 413 2056 866 
z
" transform="scale(0.015625)"/>
      </defs>
      <use xlink:href="#RobotoCondensed-Regular-4e"/>
      <use xlink:href="#RobotoCondensed-Regular-75" transform="translate(61.962891 0)"/>
      <use xlink:href="#RobotoCondensed-Regular-6d" transform="translate(110.302734 0)"/>
      <use xlink:href="#RobotoCondensed-Regular-62" transform="translate(185.595703 0)"/>
      <use xlink:href="#RobotoCondensed-Regular-65" transform="translate(234.912109 0)"/>
      <use xlink:href="#RobotoCondensed-Regular-72" transform="translate(281.787109 0)"/>
      <use xlink:href="#RobotoCondensed-Regular-20" transform="translate(312.255859 0)"/>
      <use xlink:href="#RobotoCondensed-Regular-6f" transform="translate(335.205078 0)"/>
      <use xlink:href="#RobotoCondensed-Regular-66" transform="translate(385.400391 0)"/>
      <use xlink:href="#RobotoCondensed-Regular-20" transform="translate(417.041016 0)"/>
      <use xlink:href="#RobotoCondensed-Regular-4f" transform="translate(439.990234 0)"/>
      <use xlink:href="#RobotoCondensed-Regular-76" transform="translate(500.097656 0)"/>
      <use xlink:href="#RobotoCondensed-Regular-65" transform="translate(542.871094 0)"/>
      <use xlink:href="#RobotoCondensed-Regular-72" transform="translate(589.746094 0)"/>
      <use xlink:href="#RobotoCondensed-Regular-6c" transform="translate(620.214844 0)"/>
      <use xlink:href="#RobotoCondensed-Regular-61" transform="translate(643.164062 0)"/>
      <use xlink:href="#RobotoCondensed-Regular-70" transform="translate(691.064453 0)"/>
      <use xlink:href="#RobotoCondensed-Regular-70" transform="translate(740.380859 0)"/>
      <use xlink:href="#RobotoCondensed-Regular-69" transform="translate(789.697266 0)"/>
      <use xlink:href="#RobotoCondensed-Regular-6e" transform="translate(812.646484 0)"/>
      <use xlink:href="#RobotoCondensed-Regular-67" transform="translate(861.083984 0)"/>
      <use xlink:href="#RobotoCondensed-Regular-20" transform="translate(910.400391 0)"/>
      <use xlink:href="#RobotoCondensed-Regular-4e" transform="translate(933.349609 0)"/>
      <use xlink:href="#RobotoCondensed-Regular-61" transform="translate(995.3125 0)"/>
      <use xlink:href="#RobotoCondensed-Regular-6d" transform="translate(1043.212891 0)"/>
      <use xlink:href="#RobotoCondensed-Regular-65" transform="translate(1118.505859 0)"/>
      <use xlink:href="#RobotoCondensed-Regular-73" transform="translate(1165.380859 0)"/>
     </g>
    </g>
   </g>
   <g id="line2d_28">
    <path d="M 43.388155 137.626035 
L 46.728297 143.259631 
L 49.233404 146.987751 
L 50.903475 149.042795 
L 52.573546 150.633041 
L 53.408581 151.221587 
L 54.243617 151.6552 
L 55.078652 151.920969 
L 56.748723 152.006225 
L 69.274255 151.968254 
L 70.944326 151.718439 
L 72.614397 151.264629 
L 75.119504 150.276738 
L 77.62461 149.023525 
L 80.964752 147.137813 
L 81.799787 146.499382 
L 82.634823 145.648134 
L 84.304894 143.462117 
L 90.150142 134.801091 
L 90.985178 133.951994 
L 91.820213 133.316146 
L 92.655249 132.932278 
L 93.490284 132.83519 
L 95.160355 133.113495 
L 96.830426 133.755032 
L 99.335533 135.097137 
L 101.840639 136.48185 
L 103.51071 137.199132 
L 105.180781 137.591054 
L 106.015816 137.618082 
L 106.850852 137.43618 
L 107.685887 137.039953 
L 108.520923 136.463833 
L 110.190994 134.909627 
L 115.201207 129.510217 
L 116.036242 128.864376 
L 116.871278 128.382937 
L 117.706313 128.100328 
L 119.376384 128.039242 
L 131.066881 128.013278 
L 131.901916 127.666024 
L 132.736952 126.947935 
L 133.571987 125.902049 
L 134.407023 124.571401 
L 136.077094 121.227972 
L 137.747165 117.261942 
L 141.922342 106.882426 
L 143.592413 103.429148 
L 155.28291 80.896112 
L 157.788016 76.836465 
L 161.128158 72.089349 
L 164.4683 67.337133 
L 166.138371 64.694804 
L 167.808442 61.734031 
L 168.643477 60.05914 
L 169.478513 58.004358 
L 171.148584 52.924467 
L 173.65369 44.029075 
L 176.158797 35.443432 
L 177.828868 30.914204 
L 178.663903 29.238003 
L 179.498939 28.056322 
L 180.333974 27.445844 
L 181.16901 27.548787 
L 182.004045 28.672954 
L 182.839081 30.715098 
L 183.674116 33.520286 
L 185.344187 40.800065 
L 189.519364 61.507487 
L 190.3544 64.839447 
L 191.189435 67.540056 
L 192.024471 69.45438 
L 192.859506 70.427488 
L 193.694542 70.457958 
L 194.529577 70.10276 
L 195.364613 69.459501 
L 196.199648 68.562612 
L 197.869719 66.14566 
L 199.53979 63.127338 
L 205.385038 51.804042 
L 207.055109 49.020973 
L 209.560216 44.103232 
L 212.065322 39.082202 
L 213.735393 36.136527 
L 215.405464 33.833536 
L 216.2405 33.009121 
L 217.075535 32.448666 
L 217.910571 32.1866 
L 218.745606 32.293483 
L 219.580642 32.858701 
L 220.415677 33.82158 
L 221.250713 35.113261 
L 222.920784 38.407593 
L 227.095961 47.577323 
L 227.930996 49.020494 
L 228.766032 50.172735 
L 229.601067 50.965188 
L 230.436103 51.328993 
L 236.281351 51.344899 
L 255.487167 51.344899 
L 256.322203 51.12128 
L 257.157238 50.334709 
L 257.992274 49.063973 
L 258.827309 47.395145 
L 260.49738 43.207511 
L 264.672558 31.796993 
L 265.507593 30.042091 
L 266.342629 28.663762 
L 267.177664 27.748081 
L 268.012699 27.381119 
L 268.847735 27.427941 
L 270.517806 27.849042 
L 272.187877 28.585174 
L 278.033125 31.654193 
L 279.703196 32.103699 
L 281.373267 32.171313 
L 293.063764 32.171313 
L 293.063764 32.171313 
" clip-path="url(#p4026459764)" style="fill: none; stroke: #000000; stroke-width: 1.5; stroke-linecap: square"/>
   </g>
   <g id="line2d_29">
    <path d="M 43.388155 155.969596 
L 293.063764 14.284266 
" clip-path="url(#p4026459764)" style="fill: none; stroke: #000000; stroke-width: 1.5; stroke-linecap: square"/>
   </g>
   <g id="patch_3">
    <path d="M 30.904375 185.56 
L 30.904375 7.2 
" style="fill: none; stroke: #000000; stroke-width: 0.8; stroke-linejoin: miter; stroke-linecap: square"/>
   </g>
   <g id="patch_4">
    <path d="M 30.904375 185.56 
L 305.547544 185.56 
" style="fill: none; stroke: #000000; stroke-width: 0.8; stroke-linejoin: miter; stroke-linecap: square"/>
   </g>
   <g id="PathCollection_1">
    <defs>
     <path id="m6c8db4b0fc" d="M 0 2.5 
C 0.663008 2.5 1.29895 2.236584 1.767767 1.767767 
C 2.236584 1.29895 2.5 0.663008 2.5 0 
C 2.5 -0.663008 2.236584 -1.29895 1.767767 -1.767767 
C 1.29895 -2.236584 0.663008 -2.5 0 -2.5 
C -0.663008 -2.5 -1.29895 -2.236584 -1.767767 -1.767767 
C -2.236584 -1.29895 -2.5 -0.663008 -2.5 0 
C -2.5 0.663008 -2.236584 1.29895 -1.767767 1.767767 
C -1.29895 2.236584 -0.663008 2.5 0 2.5 
z
" style="stroke: #000000"/>
    </defs>
    <g clip-path="url(#p4026459764)">
     <use xlink:href="#m6c8db4b0fc" x="43.388155" y="137.626035" style="stroke: #000000"/>
     <use xlink:href="#m6c8db4b0fc" x="55.871936" y="152.006225" style="stroke: #000000"/>
     <use xlink:href="#m6c8db4b0fc" x="68.355716" y="152.006225" style="stroke: #000000"/>
     <use xlink:href="#m6c8db4b0fc" x="80.839497" y="147.212828" style="stroke: #000000"/>
     <use xlink:href="#m6c8db4b0fc" x="93.323277" y="132.832639" style="stroke: #000000"/>
     <use xlink:href="#m6c8db4b0fc" x="105.807058" y="137.626035" style="stroke: #000000"/>
     <use xlink:href="#m6c8db4b0fc" x="118.290838" y="128.039242" style="stroke: #000000"/>
     <use xlink:href="#m6c8db4b0fc" x="130.774618" y="128.039242" style="stroke: #000000"/>
     <use xlink:href="#m6c8db4b0fc" x="143.258399" y="104.07226" style="stroke: #000000"/>
     <use xlink:href="#m6c8db4b0fc" x="155.742179" y="80.105278" style="stroke: #000000"/>
     <use xlink:href="#m6c8db4b0fc" x="168.22596" y="60.931692" style="stroke: #000000"/>
     <use xlink:href="#m6c8db4b0fc" x="180.70974" y="27.377917" style="stroke: #000000"/>
     <use xlink:href="#m6c8db4b0fc" x="193.19352" y="70.518485" style="stroke: #000000"/>
     <use xlink:href="#m6c8db4b0fc" x="205.677301" y="51.344899" style="stroke: #000000"/>
     <use xlink:href="#m6c8db4b0fc" x="218.161081" y="32.171313" style="stroke: #000000"/>
     <use xlink:href="#m6c8db4b0fc" x="230.644862" y="51.344899" style="stroke: #000000"/>
     <use xlink:href="#m6c8db4b0fc" x="243.128642" y="51.344899" style="stroke: #000000"/>
     <use xlink:href="#m6c8db4b0fc" x="255.612423" y="51.344899" style="stroke: #000000"/>
     <use xlink:href="#m6c8db4b0fc" x="268.096203" y="27.377917" style="stroke: #000000"/>
     <use xlink:href="#m6c8db4b0fc" x="280.579983" y="32.171313" style="stroke: #000000"/>
     <use xlink:href="#m6c8db4b0fc" x="293.063764" y="32.171313" style="stroke: #000000"/>
    </g>
   </g>
  </g>
 </g>
 <defs>
  <clipPath id="p4026459764">
   <rect x="30.904375" y="7.2" width="274.643169" height="178.36"/>
  </clipPath>
 </defs>
</svg>
