<?xml version="1.0" encoding="utf-8" standalone="no"?>
<!DOCTYPE svg PUBLIC "-//W3C//DTD SVG 1.1//EN"
  "http://www.w3.org/Graphics/SVG/1.1/DTD/svg11.dtd">
<svg xmlns:xlink="http://www.w3.org/1999/xlink" width="313.477544pt" height="216.91875pt" viewBox="0 0 313.477544 216.91875" xmlns="http://www.w3.org/2000/svg" version="1.1">
 <metadata>
  <rdf:RDF xmlns:dc="http://purl.org/dc/elements/1.1/" xmlns:cc="http://creativecommons.org/ns#" xmlns:rdf="http://www.w3.org/1999/02/22-rdf-syntax-ns#">
   <cc:Work>
    <dc:type rdf:resource="http://purl.org/dc/dcmitype/StillImage"/>
    <dc:date>2026-04-28T10:06:31.155445</dc:date>
    <dc:format>image/svg+xml</dc:format>
    <dc:creator>
     <cc:Agent>
      <dc:title>Matplotlib v3.10.7, https://matplotlib.org/</dc:title>
     </cc:Agent>
    </dc:creator>
   </cc:Work>
  </rdf:RDF>
 </metadata>
 <defs>
  <style type="text/css">*{stroke-linejoin: round; stroke-linecap: butt}</style>
 </defs>
 <g id="figure_1">
  <g id="patch_1">
   <path d="M 0 216.91875 
L 313.477544 216.91875 
L 313.477544 0 
L 0 0 
z
" style="fill: #ffffff"/>
  </g>
  <g id="axes_1">
   <g id="patch_2">
    <path d="M 27.62875 197 
L 300.354419 197 
L 300.354419 19.2 
L 27.62875 19.2 
z
" style="fill: #ffffff"/>
   </g>
   <g id="matplotlib.axis_1">
    <g id="xtick_1">
     <g id="line2d_1">
      <defs>
       <path id="ma9953f734d" d="M 0 0 
L 0 3.5 
" style="stroke: #000000; stroke-width: 0.8"/>
      </defs>
      <g>
       <use xlink:href="#ma9953f734d" x="40.025371" y="197" style="stroke: #000000; stroke-width: 0.8"/>
      </g>
     </g>
     <g id="text_1">
      <!-- 1989 -->
      <g transform="translate(34.102246 208.5) scale(0.06 -0.06)">
       <defs>
        <path id="RobotoCondensed-Regular-31" d="M 2013 4575 
L 2013 0 
L 1459 0 
L 1459 3853 
L 503 3428 
L 503 3950 
L 1928 4575 
L 2013 4575 
z
" transform="scale(0.015625)"/>
        <path id="RobotoCondensed-Regular-39" d="M 2744 2563 
Q 2744 2119 2687 1667 
Q 2631 1216 2450 836 
Q 2269 456 1903 225 
Q 1538 -6 869 -6 
L 866 484 
Q 1428 484 1698 690 
Q 1969 897 2072 1233 
Q 2175 1569 2191 1950 
Q 1859 1522 1413 1522 
Q 1025 1522 786 1747 
Q 547 1972 436 2320 
Q 325 2669 325 3041 
Q 325 3691 623 4152 
Q 922 4613 1522 4613 
Q 1969 4613 2237 4344 
Q 2506 4075 2625 3653 
Q 2744 3231 2744 2772 
L 2744 2563 
z
M 866 3072 
Q 866 2666 1020 2334 
Q 1175 2003 1506 2003 
Q 1716 2003 1906 2179 
Q 2097 2356 2194 2616 
L 2194 2850 
Q 2194 3472 1983 3803 
Q 1772 4134 1522 4134 
Q 1206 4134 1036 3829 
Q 866 3525 866 3072 
z
" transform="scale(0.015625)"/>
        <path id="RobotoCondensed-Regular-38" d="M 2794 1231 
Q 2794 606 2445 271 
Q 2097 -63 1578 -63 
Q 1063 -63 714 273 
Q 366 609 366 1231 
Q 366 1613 536 1905 
Q 706 2197 1000 2347 
Q 450 2666 450 3366 
Q 450 3963 769 4288 
Q 1088 4613 1581 4613 
Q 2075 4613 2392 4288 
Q 2709 3963 2709 3366 
Q 2709 3028 2557 2761 
Q 2406 2494 2150 2344 
Q 2444 2194 2619 1901 
Q 2794 1609 2794 1231 
z
M 2156 3356 
Q 2156 3697 2000 3917 
Q 1844 4138 1581 4138 
Q 1319 4138 1161 3927 
Q 1003 3716 1003 3356 
Q 1003 3003 1159 2790 
Q 1316 2578 1581 2578 
Q 1844 2578 2000 2790 
Q 2156 3003 2156 3356 
z
M 2244 1244 
Q 2244 1625 2061 1865 
Q 1878 2106 1575 2106 
Q 1266 2106 1091 1865 
Q 916 1625 916 1244 
Q 916 850 1089 631 
Q 1263 413 1578 413 
Q 1897 413 2070 631 
Q 2244 850 2244 1244 
z
" transform="scale(0.015625)"/>
       </defs>
       <use xlink:href="#RobotoCondensed-Regular-31"/>
       <use xlink:href="#RobotoCondensed-Regular-39" transform="translate(49.365234 0)"/>
       <use xlink:href="#RobotoCondensed-Regular-38" transform="translate(98.730469 0)"/>
       <use xlink:href="#RobotoCondensed-Regular-39" transform="translate(148.095703 0)"/>
      </g>
     </g>
    </g>
    <g id="xtick_2">
     <g id="line2d_2">
      <g>
       <use xlink:href="#ma9953f734d" x="77.215235" y="197" style="stroke: #000000; stroke-width: 0.8"/>
      </g>
     </g>
     <g id="text_2">
      <!-- 1992 -->
      <g transform="translate(71.29211 208.5) scale(0.06 -0.06)">
       <defs>
        <path id="RobotoCondensed-Regular-32" d="M 2909 475 
L 2909 0 
L 366 0 
L 366 416 
L 1628 2088 
Q 1966 2541 2077 2802 
Q 2188 3063 2188 3328 
Q 2188 3663 2027 3900 
Q 1866 4138 1575 4138 
Q 1194 4138 1022 3878 
Q 850 3619 850 3213 
L 297 3213 
Q 297 3788 617 4200 
Q 938 4613 1575 4613 
Q 2125 4613 2433 4278 
Q 2741 3944 2741 3397 
Q 2741 2997 2541 2594 
Q 2341 2191 2047 1809 
L 1028 475 
L 2909 475 
z
" transform="scale(0.015625)"/>
       </defs>
       <use xlink:href="#RobotoCondensed-Regular-31"/>
       <use xlink:href="#RobotoCondensed-Regular-39" transform="translate(49.365234 0)"/>
       <use xlink:href="#RobotoCondensed-Regular-39" transform="translate(98.730469 0)"/>
       <use xlink:href="#RobotoCondensed-Regular-32" transform="translate(148.095703 0)"/>
      </g>
     </g>
    </g>
    <g id="xtick_3">
     <g id="line2d_3">
      <g>
       <use xlink:href="#ma9953f734d" x="114.405099" y="197" style="stroke: #000000; stroke-width: 0.8"/>
      </g>
     </g>
     <g id="text_3">
      <!-- 1995 -->
      <g transform="translate(108.481974 208.5) scale(0.06 -0.06)">
       <defs>
        <path id="RobotoCondensed-Regular-35" d="M 1034 2166 
L 594 2284 
L 788 4550 
L 2769 4550 
L 2769 4016 
L 1253 4016 
L 1147 2778 
Q 1438 2975 1753 2975 
Q 2288 2975 2591 2561 
Q 2894 2147 2894 1450 
Q 2894 797 2584 367 
Q 2275 -63 1656 -63 
Q 1194 -63 850 248 
Q 506 559 453 1197 
L 975 1197 
Q 1066 413 1656 413 
Q 1978 413 2159 691 
Q 2341 969 2341 1444 
Q 2341 1872 2153 2164 
Q 1966 2456 1619 2456 
Q 1384 2456 1273 2378 
Q 1163 2300 1034 2166 
z
" transform="scale(0.015625)"/>
       </defs>
       <use xlink:href="#RobotoCondensed-Regular-31"/>
       <use xlink:href="#RobotoCondensed-Regular-39" transform="translate(49.365234 0)"/>
       <use xlink:href="#RobotoCondensed-Regular-39" transform="translate(98.730469 0)"/>
       <use xlink:href="#RobotoCondensed-Regular-35" transform="translate(148.095703 0)"/>
      </g>
     </g>
    </g>
    <g id="xtick_4">
     <g id="line2d_4">
      <g>
       <use xlink:href="#ma9953f734d" x="151.594963" y="197" style="stroke: #000000; stroke-width: 0.8"/>
      </g>
     </g>
     <g id="text_4">
      <!-- 1998 -->
      <g transform="translate(145.671838 208.5) scale(0.06 -0.06)">
       <use xlink:href="#RobotoCondensed-Regular-31"/>
       <use xlink:href="#RobotoCondensed-Regular-39" transform="translate(49.365234 0)"/>
       <use xlink:href="#RobotoCondensed-Regular-39" transform="translate(98.730469 0)"/>
       <use xlink:href="#RobotoCondensed-Regular-38" transform="translate(148.095703 0)"/>
      </g>
     </g>
    </g>
    <g id="xtick_5">
     <g id="line2d_5">
      <g>
       <use xlink:href="#ma9953f734d" x="188.784827" y="197" style="stroke: #000000; stroke-width: 0.8"/>
      </g>
     </g>
     <g id="text_5">
      <!-- 2001 -->
      <g transform="translate(182.861702 208.5) scale(0.06 -0.06)">
       <defs>
        <path id="RobotoCondensed-Regular-30" d="M 2797 1944 
Q 2797 825 2467 381 
Q 2138 -63 1581 -63 
Q 1038 -63 703 370 
Q 369 803 359 1878 
L 359 2638 
Q 359 3753 695 4183 
Q 1031 4613 1578 4613 
Q 2131 4613 2461 4189 
Q 2791 3766 2797 2681 
L 2797 1944 
z
M 2247 2734 
Q 2247 3503 2073 3822 
Q 1900 4141 1578 4141 
Q 1266 4141 1092 3833 
Q 919 3525 913 2791 
L 913 1850 
Q 913 1088 1089 750 
Q 1266 413 1581 413 
Q 1903 413 2072 738 
Q 2241 1063 2247 1794 
L 2247 2734 
z
" transform="scale(0.015625)"/>
       </defs>
       <use xlink:href="#RobotoCondensed-Regular-32"/>
       <use xlink:href="#RobotoCondensed-Regular-30" transform="translate(49.365234 0)"/>
       <use xlink:href="#RobotoCondensed-Regular-30" transform="translate(98.730469 0)"/>
       <use xlink:href="#RobotoCondensed-Regular-31" transform="translate(148.095703 0)"/>
      </g>
     </g>
    </g>
    <g id="xtick_6">
     <g id="line2d_6">
      <g>
       <use xlink:href="#ma9953f734d" x="225.974691" y="197" style="stroke: #000000; stroke-width: 0.8"/>
      </g>
     </g>
     <g id="text_6">
      <!-- 2004 -->
      <g transform="translate(220.051566 208.5) scale(0.06 -0.06)">
       <defs>
        <path id="RobotoCondensed-Regular-34" d="M 188 1397 
L 1878 4550 
L 2463 4550 
L 2463 1531 
L 2969 1531 
L 2969 1056 
L 2463 1056 
L 2463 0 
L 1909 0 
L 1909 1056 
L 188 1056 
L 188 1397 
z
M 803 1531 
L 1909 1531 
L 1909 3703 
L 1878 3638 
L 803 1531 
z
" transform="scale(0.015625)"/>
       </defs>
       <use xlink:href="#RobotoCondensed-Regular-32"/>
       <use xlink:href="#RobotoCondensed-Regular-30" transform="translate(49.365234 0)"/>
       <use xlink:href="#RobotoCondensed-Regular-30" transform="translate(98.730469 0)"/>
       <use xlink:href="#RobotoCondensed-Regular-34" transform="translate(148.095703 0)"/>
      </g>
     </g>
    </g>
    <g id="xtick_7">
     <g id="line2d_7">
      <g>
       <use xlink:href="#ma9953f734d" x="263.164555" y="197" style="stroke: #000000; stroke-width: 0.8"/>
      </g>
     </g>
     <g id="text_7">
      <!-- 2007 -->
      <g transform="translate(257.24143 208.5) scale(0.06 -0.06)">
       <defs>
        <path id="RobotoCondensed-Regular-37" d="M 2878 4550 
L 2878 4225 
L 1313 0 
L 731 0 
L 2297 4075 
L 269 4075 
L 269 4550 
L 2878 4550 
z
" transform="scale(0.015625)"/>
       </defs>
       <use xlink:href="#RobotoCondensed-Regular-32"/>
       <use xlink:href="#RobotoCondensed-Regular-30" transform="translate(49.365234 0)"/>
       <use xlink:href="#RobotoCondensed-Regular-30" transform="translate(98.730469 0)"/>
       <use xlink:href="#RobotoCondensed-Regular-37" transform="translate(148.095703 0)"/>
      </g>
     </g>
    </g>
    <g id="xtick_8">
     <g id="line2d_8">
      <g>
       <use xlink:href="#ma9953f734d" x="300.354419" y="197" style="stroke: #000000; stroke-width: 0.8"/>
      </g>
     </g>
     <g id="text_8">
      <!-- 2010 -->
      <g transform="translate(294.431294 208.5) scale(0.06 -0.06)">
       <use xlink:href="#RobotoCondensed-Regular-32"/>
       <use xlink:href="#RobotoCondensed-Regular-30" transform="translate(49.365234 0)"/>
       <use xlink:href="#RobotoCondensed-Regular-31" transform="translate(98.730469 0)"/>
       <use xlink:href="#RobotoCondensed-Regular-30" transform="translate(148.095703 0)"/>
      </g>
     </g>
    </g>
   </g>
   <g id="matplotlib.axis_2">
    <g id="ytick_1">
     <g id="line2d_9">
      <defs>
       <path id="mb894f30812" d="M 0 0 
L -3.5 0 
" style="stroke: #000000; stroke-width: 0.8"/>
      </defs>
      <g>
       <use xlink:href="#mb894f30812" x="27.62875" y="196.48598" style="stroke: #000000; stroke-width: 0.8"/>
      </g>
     </g>
     <g id="text_9">
      <!-- 0.050 -->
      <g transform="translate(7.2 198.73598) scale(0.06 -0.06)">
       <defs>
        <path id="RobotoCondensed-Regular-2e" d="M 450 306 
Q 450 453 542 554 
Q 634 656 809 656 
Q 984 656 1076 554 
Q 1169 453 1169 306 
Q 1169 163 1076 62 
Q 984 -38 809 -38 
Q 634 -38 542 62 
Q 450 163 450 306 
z
" transform="scale(0.015625)"/>
       </defs>
       <use xlink:href="#RobotoCondensed-Regular-30"/>
       <use xlink:href="#RobotoCondensed-Regular-2e" transform="translate(49.365234 0)"/>
       <use xlink:href="#RobotoCondensed-Regular-30" transform="translate(75.732422 0)"/>
       <use xlink:href="#RobotoCondensed-Regular-35" transform="translate(125.097656 0)"/>
       <use xlink:href="#RobotoCondensed-Regular-30" transform="translate(174.462891 0)"/>
      </g>
     </g>
    </g>
    <g id="ytick_2">
     <g id="line2d_10">
      <g>
       <use xlink:href="#mb894f30812" x="27.62875" y="173.509213" style="stroke: #000000; stroke-width: 0.8"/>
      </g>
     </g>
     <g id="text_10">
      <!-- 0.075 -->
      <g transform="translate(7.2 175.759213) scale(0.06 -0.06)">
       <use xlink:href="#RobotoCondensed-Regular-30"/>
       <use xlink:href="#RobotoCondensed-Regular-2e" transform="translate(49.365234 0)"/>
       <use xlink:href="#RobotoCondensed-Regular-30" transform="translate(75.732422 0)"/>
       <use xlink:href="#RobotoCondensed-Regular-37" transform="translate(125.097656 0)"/>
       <use xlink:href="#RobotoCondensed-Regular-35" transform="translate(174.462891 0)"/>
      </g>
     </g>
    </g>
    <g id="ytick_3">
     <g id="line2d_11">
      <g>
       <use xlink:href="#mb894f30812" x="27.62875" y="150.532447" style="stroke: #000000; stroke-width: 0.8"/>
      </g>
     </g>
     <g id="text_11">
      <!-- 0.100 -->
      <g transform="translate(7.2 152.782447) scale(0.06 -0.06)">
       <use xlink:href="#RobotoCondensed-Regular-30"/>
       <use xlink:href="#RobotoCondensed-Regular-2e" transform="translate(49.365234 0)"/>
       <use xlink:href="#RobotoCondensed-Regular-31" transform="translate(75.732422 0)"/>
       <use xlink:href="#RobotoCondensed-Regular-30" transform="translate(125.097656 0)"/>
       <use xlink:href="#RobotoCondensed-Regular-30" transform="translate(174.462891 0)"/>
      </g>
     </g>
    </g>
    <g id="ytick_4">
     <g id="line2d_12">
      <g>
       <use xlink:href="#mb894f30812" x="27.62875" y="127.55568" style="stroke: #000000; stroke-width: 0.8"/>
      </g>
     </g>
     <g id="text_12">
      <!-- 0.125 -->
      <g transform="translate(7.2 129.80568) scale(0.06 -0.06)">
       <use xlink:href="#RobotoCondensed-Regular-30"/>
       <use xlink:href="#RobotoCondensed-Regular-2e" transform="translate(49.365234 0)"/>
       <use xlink:href="#RobotoCondensed-Regular-31" transform="translate(75.732422 0)"/>
       <use xlink:href="#RobotoCondensed-Regular-32" transform="translate(125.097656 0)"/>
       <use xlink:href="#RobotoCondensed-Regular-35" transform="translate(174.462891 0)"/>
      </g>
     </g>
    </g>
    <g id="ytick_5">
     <g id="line2d_13">
      <g>
       <use xlink:href="#mb894f30812" x="27.62875" y="104.578914" style="stroke: #000000; stroke-width: 0.8"/>
      </g>
     </g>
     <g id="text_13">
      <!-- 0.150 -->
      <g transform="translate(7.2 106.828914) scale(0.06 -0.06)">
       <use xlink:href="#RobotoCondensed-Regular-30"/>
       <use xlink:href="#RobotoCondensed-Regular-2e" transform="translate(49.365234 0)"/>
       <use xlink:href="#RobotoCondensed-Regular-31" transform="translate(75.732422 0)"/>
       <use xlink:href="#RobotoCondensed-Regular-35" transform="translate(125.097656 0)"/>
       <use xlink:href="#RobotoCondensed-Regular-30" transform="translate(174.462891 0)"/>
      </g>
     </g>
    </g>
    <g id="ytick_6">
     <g id="line2d_14">
      <g>
       <use xlink:href="#mb894f30812" x="27.62875" y="81.602147" style="stroke: #000000; stroke-width: 0.8"/>
      </g>
     </g>
     <g id="text_14">
      <!-- 0.175 -->
      <g transform="translate(7.2 83.852147) scale(0.06 -0.06)">
       <use xlink:href="#RobotoCondensed-Regular-30"/>
       <use xlink:href="#RobotoCondensed-Regular-2e" transform="translate(49.365234 0)"/>
       <use xlink:href="#RobotoCondensed-Regular-31" transform="translate(75.732422 0)"/>
       <use xlink:href="#RobotoCondensed-Regular-37" transform="translate(125.097656 0)"/>
       <use xlink:href="#RobotoCondensed-Regular-35" transform="translate(174.462891 0)"/>
      </g>
     </g>
    </g>
    <g id="ytick_7">
     <g id="line2d_15">
      <g>
       <use xlink:href="#mb894f30812" x="27.62875" y="58.625381" style="stroke: #000000; stroke-width: 0.8"/>
      </g>
     </g>
     <g id="text_15">
      <!-- 0.200 -->
      <g transform="translate(7.2 60.875381) scale(0.06 -0.06)">
       <use xlink:href="#RobotoCondensed-Regular-30"/>
       <use xlink:href="#RobotoCondensed-Regular-2e" transform="translate(49.365234 0)"/>
       <use xlink:href="#RobotoCondensed-Regular-32" transform="translate(75.732422 0)"/>
       <use xlink:href="#RobotoCondensed-Regular-30" transform="translate(125.097656 0)"/>
       <use xlink:href="#RobotoCondensed-Regular-30" transform="translate(174.462891 0)"/>
      </g>
     </g>
    </g>
    <g id="ytick_8">
     <g id="line2d_16">
      <g>
       <use xlink:href="#mb894f30812" x="27.62875" y="35.648614" style="stroke: #000000; stroke-width: 0.8"/>
      </g>
     </g>
     <g id="text_16">
      <!-- 0.225 -->
      <g transform="translate(7.2 37.898614) scale(0.06 -0.06)">
       <use xlink:href="#RobotoCondensed-Regular-30"/>
       <use xlink:href="#RobotoCondensed-Regular-2e" transform="translate(49.365234 0)"/>
       <use xlink:href="#RobotoCondensed-Regular-32" transform="translate(75.732422 0)"/>
       <use xlink:href="#RobotoCondensed-Regular-32" transform="translate(125.097656 0)"/>
       <use xlink:href="#RobotoCondensed-Regular-35" transform="translate(174.462891 0)"/>
      </g>
     </g>
    </g>
   </g>
   <g id="line2d_17">
    <path d="M 40.025371 163.37719 
L 41.683782 163.104248 
L 43.342193 162.613304 
L 45.000604 161.93519 
L 47.48822 160.634522 
L 50.805042 158.532973 
L 53.292658 156.742877 
L 54.951069 155.081416 
L 56.60948 153.047504 
L 59.097096 149.578027 
L 63.243124 143.744939 
L 71.535178 133.502086 
L 73.193589 131.783954 
L 74.852 130.509045 
L 75.681205 130.085312 
L 76.510411 129.8294 
L 77.339616 129.760106 
L 78.168822 129.87566 
L 78.998027 130.151586 
L 80.656438 131.093063 
L 82.314849 132.401554 
L 87.290081 136.6993 
L 88.948492 137.646033 
L 91.436109 138.388326 
L 95.582136 139.393112 
L 98.898958 139.933319 
L 101.386574 140.111773 
L 103.044985 140.038633 
L 104.703396 139.613701 
L 106.361807 138.909179 
L 108.849423 137.53749 
L 112.166245 135.62312 
L 113.824656 134.844618 
L 122.945915 131.589104 
L 124.604326 131.241265 
L 126.262737 131.068288 
L 127.091943 131.107251 
L 127.921148 131.777887 
L 128.750353 133.138789 
L 129.579559 135.077258 
L 130.408764 137.4806 
L 132.067175 143.231114 
L 135.383997 155.351972 
L 136.213202 157.853922 
L 137.042408 159.919175 
L 137.871613 161.435034 
L 138.700819 162.288802 
L 139.530024 162.432898 
L 142.01764 162.219214 
L 145.334462 161.623953 
L 148.651284 161.021583 
L 151.1389 160.793235 
L 152.797311 160.887578 
L 154.455722 161.303322 
L 156.943338 162.306942 
L 160.26016 163.778002 
L 161.918571 164.323445 
L 163.576982 164.595766 
L 165.235393 164.563878 
L 167.723009 164.22648 
L 170.210625 163.597694 
L 172.698242 162.72553 
L 176.015064 161.267041 
L 176.844269 160.802366 
L 177.673474 159.995037 
L 178.50268 158.859051 
L 180.161091 155.822647 
L 181.819502 152.136229 
L 185.136323 144.58565 
L 186.794734 141.607638 
L 187.62394 140.511796 
L 188.453145 139.751909 
L 190.111556 138.966299 
L 192.599172 138.172015 
L 196.7452 137.265589 
L 199.232816 136.644432 
L 200.891227 136.073978 
L 203.378843 134.968039 
L 205.866459 133.617447 
L 207.52487 132.529037 
L 209.183281 131.252925 
L 210.841692 129.75715 
L 212.500103 128.009749 
L 213.329308 127.0317 
L 214.158514 125.794569 
L 214.987719 123.816638 
L 215.816925 121.17471 
L 217.475336 114.348379 
L 219.962952 101.938384 
L 222.450568 89.62089 
L 224.108979 82.959006 
L 224.938185 80.430135 
L 225.76739 78.585817 
L 227.425801 76.156925 
L 229.084212 74.049768 
L 230.742623 72.214962 
L 232.401033 70.626088 
L 234.059444 69.256731 
L 236.547061 67.5565 
L 239.034677 66.209545 
L 241.522293 65.249317 
L 245.668321 64.087853 
L 248.155937 63.30692 
L 249.814348 62.619684 
L 251.472759 61.685683 
L 253.131169 60.192918 
L 254.78958 58.226114 
L 257.277197 54.759865 
L 260.594018 50.069592 
L 262.252429 48.078484 
L 263.91084 46.51014 
L 266.398457 44.536385 
L 269.715278 42.242046 
L 274.690511 38.809455 
L 278.007333 36.147945 
L 282.982565 31.864044 
L 287.957798 27.281818 
L 287.957798 27.281818 
" clip-path="url(#p44118a1448)" style="fill: none; stroke: #ffa500; stroke-width: 2; stroke-linecap: square"/>
   </g>
   <g id="line2d_18">
    <path d="M 40.025371 177.359244 
L 52.421993 171.560231 
L 64.818614 165.761218 
L 77.215235 159.962204 
L 89.611857 154.163191 
L 102.008478 148.364178 
L 114.405099 142.565165 
L 126.801721 136.766152 
L 139.198342 130.967138 
L 151.594963 125.168125 
L 163.991585 119.369112 
L 176.388206 113.570099 
L 188.784827 107.771085 
L 201.181449 101.972072 
L 213.57807 96.173059 
L 225.974691 90.374046 
L 238.371313 84.575032 
L 250.767934 78.776019 
L 263.164555 72.977006 
L 275.561177 67.177993 
L 287.957798 61.37898 
" clip-path="url(#p44118a1448)" style="fill: none; stroke: #ffa500; stroke-opacity: 0.7; stroke-linecap: square"/>
   </g>
   <g id="line2d_19">
    <path d="M 40.025371 179.832537 
L 42.512988 179.107543 
L 45.000604 178.16091 
L 48.317426 176.617626 
L 52.463453 174.359465 
L 54.121864 173.301933 
L 56.60948 171.409191 
L 59.926302 168.509614 
L 66.559945 162.273115 
L 69.047562 159.271851 
L 71.535178 156.238641 
L 73.193589 154.493918 
L 74.852 153.177746 
L 75.681205 152.73571 
L 76.510411 152.467224 
L 77.339616 152.393551 
L 78.168822 152.479319 
L 79.827232 152.989288 
L 81.485643 153.833902 
L 84.802465 155.967382 
L 86.460876 156.976406 
L 88.119287 157.76039 
L 89.777698 158.181821 
L 95.582136 158.890884 
L 99.728163 159.173582 
L 102.215779 159.216377 
L 103.87419 159.05223 
L 105.532601 158.66549 
L 108.020217 157.785466 
L 116.312272 154.216104 
L 123.775121 150.479634 
L 125.433532 150.042538 
L 126.262737 149.938615 
L 127.091943 149.964532 
L 127.921148 150.569976 
L 128.750353 151.798584 
L 129.579559 153.548615 
L 130.408764 155.718328 
L 132.067175 160.909834 
L 135.383997 171.852423 
L 136.213202 174.111159 
L 137.042408 175.975649 
L 137.871613 177.344151 
L 138.700819 178.114924 
L 139.530024 178.245183 
L 142.01764 178.062721 
L 146.163668 177.413769 
L 149.480489 176.948486 
L 151.968106 176.843267 
L 154.455722 177.029708 
L 158.601749 177.679811 
L 161.918571 178.141536 
L 164.406187 178.241949 
L 166.893804 178.038958 
L 169.38142 177.568235 
L 171.869036 176.877462 
L 175.185858 175.696544 
L 176.844269 174.984062 
L 177.673474 174.356324 
L 178.50268 173.494391 
L 180.161091 171.230494 
L 182.648707 167.094162 
L 185.136323 163.044594 
L 186.794734 160.934943 
L 187.62394 160.179054 
L 188.453145 159.676642 
L 190.111556 159.213193 
L 192.599172 158.757621 
L 201.720432 157.387499 
L 205.037254 156.464278 
L 207.52487 155.562824 
L 210.012487 154.400743 
L 212.500103 152.904725 
L 213.329308 152.319174 
L 214.158514 151.549803 
L 214.987719 150.23967 
L 215.816925 148.441845 
L 216.64613 146.235577 
L 218.304541 140.914716 
L 223.279774 123.391569 
L 224.108979 121.075593 
L 224.938185 119.14368 
L 225.76739 117.67508 
L 227.425801 115.605435 
L 229.913417 112.951255 
L 232.401033 110.753924 
L 234.88865 108.950755 
L 237.376266 107.479063 
L 239.863882 106.313347 
L 242.351499 105.484749 
L 248.155937 103.811577 
L 249.814348 103.132362 
L 251.472759 102.208896 
L 252.301964 101.524519 
L 253.960375 99.734801 
L 255.618786 97.546282 
L 260.594018 90.53775 
L 262.252429 88.703859 
L 263.91084 87.392145 
L 266.398457 85.831416 
L 269.715278 84.115369 
L 275.519716 81.252322 
L 286.299387 75.150815 
L 287.957798 74.189131 
L 287.957798 74.189131 
" clip-path="url(#p44118a1448)" style="fill: none; stroke: #800080; stroke-width: 2; stroke-linecap: square"/>
   </g>
   <g id="line2d_20">
    <path d="M 40.025371 188.918182 
L 52.421993 184.50782 
L 64.818614 180.097459 
L 77.215235 175.687097 
L 89.611857 171.276736 
L 102.008478 166.866374 
L 114.405099 162.456013 
L 126.801721 158.045651 
L 139.198342 153.63529 
L 151.594963 149.224928 
L 163.991585 144.814567 
L 176.388206 140.404205 
L 188.784827 135.993844 
L 201.181449 131.583482 
L 213.57807 127.17312 
L 225.974691 122.762759 
L 238.371313 118.352397 
L 250.767934 113.942036 
L 263.164555 109.531674 
L 275.561177 105.121313 
L 287.957798 100.710951 
" clip-path="url(#p44118a1448)" style="fill: none; stroke: #800080; stroke-opacity: 0.7; stroke-linecap: square"/>
   </g>
   <g id="text_17">
    <!-- TTR -->
    <g transform="translate(157.429085 13.2) scale(0.08 -0.08)">
     <defs>
      <path id="RobotoCondensed-Bold-54" d="M 163 3784 
L 163 4550 
L 3316 4550 
L 3316 3784 
L 2188 3784 
L 2188 0 
L 1269 0 
L 1269 3784 
L 163 3784 
z
" transform="scale(0.015625)"/>
      <path id="RobotoCondensed-Bold-52" d="M 2431 0 
L 1747 1663 
L 1291 1663 
L 1291 0 
L 369 0 
L 369 4550 
L 1834 4550 
Q 2516 4550 2897 4198 
Q 3278 3847 3278 3175 
Q 3278 2681 3103 2378 
Q 2928 2075 2619 1909 
L 3419 44 
L 3419 0 
L 2431 0 
z
M 1291 3784 
L 1291 2428 
L 1809 2428 
Q 2084 2428 2221 2611 
Q 2359 2794 2359 3100 
Q 2359 3772 1853 3784 
L 1291 3784 
z
" transform="scale(0.015625)"/>
     </defs>
     <use xlink:href="#RobotoCondensed-Bold-54"/>
     <use xlink:href="#RobotoCondensed-Bold-54" transform="translate(54.345703 0)"/>
     <use xlink:href="#RobotoCondensed-Bold-52" transform="translate(108.691406 0)"/>
    </g>
   </g>
   <g id="PathCollection_1">
    <defs>
     <path id="mf1d7721d38" d="M 0 3 
C 0.795609 3 1.55874 2.683901 2.12132 2.12132 
C 2.683901 1.55874 3 0.795609 3 0 
C 3 -0.795609 2.683901 -1.55874 2.12132 -2.12132 
C 1.55874 -2.683901 0.795609 -3 0 -3 
C -0.795609 -3 -1.55874 -2.683901 -2.12132 -2.12132 
C -2.683901 -1.55874 -3 -0.795609 -3 0 
C -3 0.795609 -2.683901 1.55874 -2.12132 2.12132 
C -1.55874 2.683901 -0.795609 3 0 3 
z
" style="stroke: #ffa500"/>
    </defs>
    <g clip-path="url(#p44118a1448)">
     <use xlink:href="#mf1d7721d38" x="40.025371" y="163.37719" style="fill: #ffa500; stroke: #ffa500"/>
     <use xlink:href="#mf1d7721d38" x="52.421993" y="157.42296" style="fill: #ffa500; stroke: #ffa500"/>
     <use xlink:href="#mf1d7721d38" x="64.818614" y="141.857551" style="fill: #ffa500; stroke: #ffa500"/>
     <use xlink:href="#mf1d7721d38" x="77.215235" y="129.758019" style="fill: #ffa500; stroke: #ffa500"/>
     <use xlink:href="#mf1d7721d38" x="89.611857" y="137.881563" style="fill: #ffa500; stroke: #ffa500"/>
     <use xlink:href="#mf1d7721d38" x="102.008478" y="140.119717" style="fill: #ffa500; stroke: #ffa500"/>
     <use xlink:href="#mf1d7721d38" x="114.405099" y="134.62553" style="fill: #ffa500; stroke: #ffa500"/>
     <use xlink:href="#mf1d7721d38" x="126.801721" y="131.056459" style="fill: #ffa500; stroke: #ffa500"/>
     <use xlink:href="#mf1d7721d38" x="139.198342" y="162.436378" style="fill: #ffa500; stroke: #ffa500"/>
     <use xlink:href="#mf1d7721d38" x="151.594963" y="160.786701" style="fill: #ffa500; stroke: #ffa500"/>
     <use xlink:href="#mf1d7721d38" x="163.991585" y="164.608304" style="fill: #ffa500; stroke: #ffa500"/>
     <use xlink:href="#mf1d7721d38" x="176.388206" y="161.086241" style="fill: #ffa500; stroke: #ffa500"/>
     <use xlink:href="#mf1d7721d38" x="188.784827" y="139.554428" style="fill: #ffa500; stroke: #ffa500"/>
     <use xlink:href="#mf1d7721d38" x="201.181449" y="135.955826" style="fill: #ffa500; stroke: #ffa500"/>
     <use xlink:href="#mf1d7721d38" x="213.57807" y="126.723863" style="fill: #ffa500; stroke: #ffa500"/>
     <use xlink:href="#mf1d7721d38" x="225.974691" y="78.244868" style="fill: #ffa500; stroke: #ffa500"/>
     <use xlink:href="#mf1d7721d38" x="238.371313" y="66.534166" style="fill: #ffa500; stroke: #ffa500"/>
     <use xlink:href="#mf1d7721d38" x="250.767934" y="62.134851" style="fill: #ffa500; stroke: #ffa500"/>
     <use xlink:href="#mf1d7721d38" x="263.164555" y="47.169934" style="fill: #ffa500; stroke: #ffa500"/>
     <use xlink:href="#mf1d7721d38" x="275.561177" y="38.134982" style="fill: #ffa500; stroke: #ffa500"/>
     <use xlink:href="#mf1d7721d38" x="287.957798" y="27.281818" style="fill: #ffa500; stroke: #ffa500"/>
    </g>
   </g>
   <g id="PathCollection_2">
    <defs>
     <path id="m0cae082613" d="M -3 3 
L 3 3 
L 3 -3 
L -3 -3 
z
" style="stroke: #800080"/>
    </defs>
    <g clip-path="url(#p44118a1448)">
     <use xlink:href="#m0cae082613" x="40.025371" y="179.832537" style="fill: #800080; stroke: #800080"/>
     <use xlink:href="#m0cae082613" x="52.421993" y="174.383406" style="fill: #800080; stroke: #800080"/>
     <use xlink:href="#m0cae082613" x="64.818614" y="164.034915" style="fill: #800080; stroke: #800080"/>
     <use xlink:href="#m0cae082613" x="77.215235" y="152.392" style="fill: #800080; stroke: #800080"/>
     <use xlink:href="#m0cae082613" x="89.611857" y="158.157924" style="fill: #800080; stroke: #800080"/>
     <use xlink:href="#m0cae082613" x="102.008478" y="159.218571" style="fill: #800080; stroke: #800080"/>
     <use xlink:href="#m0cae082613" x="114.405099" y="155.049783" style="fill: #800080; stroke: #800080"/>
     <use xlink:href="#m0cae082613" x="126.801721" y="149.918678" style="fill: #800080; stroke: #800080"/>
     <use xlink:href="#m0cae082613" x="139.198342" y="178.248154" style="fill: #800080; stroke: #800080"/>
     <use xlink:href="#m0cae082613" x="151.594963" y="176.839519" style="fill: #800080; stroke: #800080"/>
     <use xlink:href="#m0cae082613" x="163.991585" y="178.246404" style="fill: #800080; stroke: #800080"/>
     <use xlink:href="#m0cae082613" x="176.388206" y="175.214767" style="fill: #800080; stroke: #800080"/>
     <use xlink:href="#m0cae082613" x="188.784827" y="159.555754" style="fill: #800080; stroke: #800080"/>
     <use xlink:href="#m0cae082613" x="201.181449" y="157.517899" style="fill: #800080; stroke: #800080"/>
     <use xlink:href="#m0cae082613" x="213.57807" y="152.13428" style="fill: #800080; stroke: #800080"/>
     <use xlink:href="#m0cae082613" x="225.974691" y="117.38961" style="fill: #800080; stroke: #800080"/>
     <use xlink:href="#m0cae082613" x="238.371313" y="106.969158" style="fill: #800080; stroke: #800080"/>
     <use xlink:href="#m0cae082613" x="250.767934" y="102.655695" style="fill: #800080; stroke: #800080"/>
     <use xlink:href="#m0cae082613" x="263.164555" y="87.928321" style="fill: #800080; stroke: #800080"/>
     <use xlink:href="#m0cae082613" x="275.561177" y="81.229393" style="fill: #800080; stroke: #800080"/>
     <use xlink:href="#m0cae082613" x="287.957798" y="74.189131" style="fill: #800080; stroke: #800080"/>
    </g>
   </g>
   <g id="legend_1">
    <g id="patch_3">
     <path d="M 30.62875 41.499375 
L 66.7525 41.499375 
L 66.7525 22.2 
L 30.62875 22.2 
z
" style="fill: #ffffff; opacity: 0.8"/>
    </g>
    <g id="line2d_21">
     <path d="M 33.02875 27 
L 40.52875 27 
L 48.02875 27 
" style="fill: none; stroke: #ffa500; stroke-width: 2; stroke-linecap: square"/>
     <g>
      <use xlink:href="#mf1d7721d38" x="40.52875" y="27" style="fill: #ffa500; stroke: #ffa500"/>
     </g>
    </g>
    <g id="text_18">
     <!-- Boys -->
     <g transform="translate(52.82875 29.1) scale(0.06 -0.06)">
      <defs>
       <path id="RobotoCondensed-Regular-42" d="M 3125 1313 
Q 3125 675 2776 337 
Q 2428 0 1847 0 
L 491 0 
L 491 4550 
L 1791 4550 
Q 2375 4550 2706 4261 
Q 3038 3972 3038 3338 
Q 3038 3025 2880 2779 
Q 2722 2534 2453 2400 
Q 2781 2297 2953 1998 
Q 3125 1700 3125 1313 
z
M 1066 4056 
L 1066 2613 
L 1797 2613 
Q 2088 2613 2275 2806 
Q 2463 3000 2463 3344 
Q 2463 4041 1819 4056 
L 1066 4056 
z
M 2550 1306 
Q 2550 2106 1906 2128 
L 1066 2128 
L 1066 491 
L 1847 491 
Q 2181 491 2365 711 
Q 2550 931 2550 1306 
z
" transform="scale(0.015625)"/>
       <path id="RobotoCondensed-Regular-6f" d="M 300 1850 
Q 300 2641 678 3042 
Q 1056 3444 1603 3444 
Q 2156 3444 2536 3042 
Q 2916 2641 2916 1850 
L 2916 1528 
Q 2916 738 2536 337 
Q 2156 -63 1609 -63 
Q 1059 -63 679 337 
Q 300 738 300 1528 
L 300 1850 
z
M 853 1528 
Q 853 969 1068 689 
Q 1284 409 1609 409 
Q 2341 409 2363 1466 
L 2363 1850 
Q 2363 2403 2145 2686 
Q 1928 2969 1603 2969 
Q 1281 2969 1067 2686 
Q 853 2403 853 1850 
L 853 1528 
z
" transform="scale(0.015625)"/>
       <path id="RobotoCondensed-Regular-79" d="M 1425 -522 
Q 1153 -1366 563 -1366 
Q 409 -1366 278 -1316 
L 278 -847 
Q 328 -859 397 -859 
Q 631 -859 770 -746 
Q 909 -634 997 -338 
L 1106 31 
L 109 3381 
L 713 3381 
L 1341 922 
L 1953 3381 
L 2541 3381 
L 1425 -522 
z
" transform="scale(0.015625)"/>
       <path id="RobotoCondensed-Regular-73" d="M 2056 866 
Q 2056 1059 1907 1190 
Q 1759 1322 1340 1500 
Q 922 1678 681 1863 
Q 409 2072 409 2484 
Q 409 2888 703 3166 
Q 997 3444 1481 3444 
Q 2000 3444 2287 3150 
Q 2575 2856 2575 2419 
L 2025 2419 
Q 2025 2628 1884 2798 
Q 1744 2969 1481 2969 
Q 1203 2969 1083 2828 
Q 963 2688 963 2503 
Q 963 2319 1081 2217 
Q 1200 2116 1553 1959 
Q 2066 1756 2337 1537 
Q 2609 1319 2609 909 
Q 2609 463 2303 200 
Q 1997 -63 1494 -63 
Q 919 -63 616 265 
Q 313 594 313 1013 
L 866 1013 
Q 881 653 1081 533 
Q 1281 413 1494 413 
Q 2056 413 2056 866 
z
" transform="scale(0.015625)"/>
      </defs>
      <use xlink:href="#RobotoCondensed-Regular-42"/>
      <use xlink:href="#RobotoCondensed-Regular-6f" transform="translate(54.589844 0)"/>
      <use xlink:href="#RobotoCondensed-Regular-79" transform="translate(104.785156 0)"/>
      <use xlink:href="#RobotoCondensed-Regular-73" transform="translate(146.435547 0)"/>
     </g>
    </g>
    <g id="line2d_22">
     <path d="M 33.02875 35.780625 
L 40.52875 35.780625 
L 48.02875 35.780625 
" style="fill: none; stroke: #800080; stroke-width: 2; stroke-linecap: square"/>
     <defs>
      <path id="mc91e743293" d="M -3 3 
L 3 3 
L 3 -3 
L -3 -3 
z
" style="stroke: #800080; stroke-linejoin: miter"/>
     </defs>
     <g>
      <use xlink:href="#mc91e743293" x="40.52875" y="35.780625" style="fill: #800080; stroke: #800080; stroke-linejoin: miter"/>
     </g>
    </g>
    <g id="text_19">
     <!-- Girls -->
     <g transform="translate(52.82875 37.880625) scale(0.06 -0.06)">
      <defs>
       <path id="RobotoCondensed-Regular-47" d="M 3341 2266 
L 3341 569 
Q 3266 469 3114 319 
Q 2963 169 2691 53 
Q 2419 -63 1978 -63 
Q 1272 -63 830 412 
Q 388 888 388 1850 
L 388 2703 
Q 388 3656 770 4134 
Q 1153 4613 1919 4613 
Q 2581 4613 2943 4244 
Q 3306 3875 3341 3219 
L 2766 3219 
Q 2731 3641 2529 3880 
Q 2328 4119 1919 4119 
Q 1400 4119 1183 3773 
Q 966 3428 963 2731 
L 963 1850 
Q 963 1125 1239 776 
Q 1516 428 1981 428 
Q 2378 428 2537 547 
Q 2697 666 2769 728 
L 2769 1778 
L 1934 1778 
L 1934 2266 
L 3341 2266 
z
" transform="scale(0.015625)"/>
       <path id="RobotoCondensed-Regular-69" d="M 428 4278 
Q 428 4419 506 4516 
Q 584 4613 741 4613 
Q 894 4613 975 4516 
Q 1056 4419 1056 4278 
Q 1056 4144 975 4048 
Q 894 3953 741 3953 
Q 584 3953 506 4048 
Q 428 4144 428 4278 
z
M 1009 3381 
L 1009 0 
L 459 0 
L 459 3381 
L 1009 3381 
z
" transform="scale(0.015625)"/>
       <path id="RobotoCondensed-Regular-72" d="M 1563 2888 
Q 1138 2888 969 2425 
L 969 0 
L 416 0 
L 416 3381 
L 950 3381 
L 963 3041 
Q 1184 3444 1591 3444 
Q 1738 3444 1809 3400 
L 1813 2863 
Q 1691 2888 1563 2888 
z
" transform="scale(0.015625)"/>
       <path id="RobotoCondensed-Regular-6c" d="M 1009 4800 
L 1009 0 
L 459 0 
L 459 4800 
L 1009 4800 
z
" transform="scale(0.015625)"/>
      </defs>
      <use xlink:href="#RobotoCondensed-Regular-47"/>
      <use xlink:href="#RobotoCondensed-Regular-69" transform="translate(59.082031 0)"/>
      <use xlink:href="#RobotoCondensed-Regular-72" transform="translate(82.03125 0)"/>
      <use xlink:href="#RobotoCondensed-Regular-6c" transform="translate(112.5 0)"/>
      <use xlink:href="#RobotoCondensed-Regular-73" transform="translate(135.449219 0)"/>
     </g>
    </g>
   </g>
  </g>
 </g>
 <defs>
  <clipPath id="p44118a1448">
   <rect x="27.62875" y="19.2" width="272.725669" height="177.8"/>
  </clipPath>
 </defs>
</svg>
