<?xml version="1.0" encoding="utf-8" standalone="no"?>
<!DOCTYPE svg PUBLIC "-//W3C//DTD SVG 1.1//EN"
  "http://www.w3.org/Graphics/SVG/1.1/DTD/svg11.dtd">
<svg xmlns:xlink="http://www.w3.org/1999/xlink" width="711.825313pt" height="422.567656pt" viewBox="0 0 711.825313 422.567656" xmlns="http://www.w3.org/2000/svg" version="1.1">
 <metadata>
  <rdf:RDF xmlns:dc="http://purl.org/dc/elements/1.1/" xmlns:cc="http://creativecommons.org/ns#" xmlns:rdf="http://www.w3.org/1999/02/22-rdf-syntax-ns#">
   <cc:Work>
    <dc:type rdf:resource="http://purl.org/dc/dcmitype/StillImage"/>
    <dc:date>2026-04-25T15:46:06.784967</dc:date>
    <dc:format>image/svg+xml</dc:format>
    <dc:creator>
     <cc:Agent>
      <dc:title>Matplotlib v3.10.7, https://matplotlib.org/</dc:title>
     </cc:Agent>
    </dc:creator>
   </cc:Work>
  </rdf:RDF>
 </metadata>
 <defs>
  <style type="text/css">*{stroke-linejoin: round; stroke-linecap: butt}</style>
 </defs>
 <g id="figure_1">
  <g id="patch_1">
   <path d="M 0 422.567656 
L 711.825313 422.567656 
L 711.825313 0 
L 0 0 
z
" style="fill: #ffffff"/>
  </g>
  <g id="axes_1">
   <g id="patch_2">
    <path d="M 51.815313 381.817656 
L 692.415313 381.817656 
L 692.415313 11.577656 
L 51.815313 11.577656 
z
" style="fill: #ffffff"/>
   </g>
   <g id="matplotlib.axis_1">
    <g id="xtick_1">
     <g id="text_1">
      <!-- 2004 -->
      <g transform="translate(68.723494 397.572969) scale(0.11 -0.11)">
       <defs>
        <path id="NotoSansCJKjp-Regular-32" d="M 282 0 
L 3232 0 
L 3232 506 
L 1933 506 
C 1696 506 1408 480 1165 461 
C 2266 1504 3002 2458 3002 3392 
C 3002 4230 2477 4781 1638 4781 
C 1043 4781 640 4506 256 4090 
L 595 3757 
C 851 4064 1184 4301 1568 4301 
C 2150 4301 2432 3910 2432 3373 
C 2432 2566 1754 1632 282 346 
L 282 0 
z
" transform="scale(0.015625)"/>
        <path id="NotoSansCJKjp-Regular-30" d="M 1779 -83 
C 2669 -83 3238 730 3238 2362 
C 3238 3987 2669 4781 1779 4781 
C 883 4781 314 3994 314 2362 
C 314 730 883 -83 1779 -83 
z
M 1779 384 
C 1242 384 883 979 883 2362 
C 883 3731 1242 4314 1779 4314 
C 2310 4314 2669 3731 2669 2362 
C 2669 979 2310 384 1779 384 
z
" transform="scale(0.015625)"/>
        <path id="NotoSansCJKjp-Regular-34" d="M 736 1760 
L 1805 3360 
C 1939 3590 2067 3821 2182 4051 
L 2208 4051 
C 2195 3808 2176 3430 2176 3200 
L 2176 1760 
L 736 1760 
z
M 2176 0 
L 2726 0 
L 2726 1293 
L 3347 1293 
L 3347 1760 
L 2726 1760 
L 2726 4698 
L 2080 4698 
L 128 1677 
L 128 1293 
L 2176 1293 
L 2176 0 
z
" transform="scale(0.015625)"/>
       </defs>
       <use xlink:href="#NotoSansCJKjp-Regular-32"/>
       <use xlink:href="#NotoSansCJKjp-Regular-30" transform="translate(55.499985 0)"/>
       <use xlink:href="#NotoSansCJKjp-Regular-30" transform="translate(110.999969 0)"/>
       <use xlink:href="#NotoSansCJKjp-Regular-34" transform="translate(166.499954 0)"/>
      </g>
     </g>
    </g>
    <g id="xtick_2">
     <g id="text_2">
      <!-- 2007 -->
      <g transform="translate(156.07804 397.572969) scale(0.11 -0.11)">
       <defs>
        <path id="NotoSansCJKjp-Regular-37" d="M 1267 0 
L 1875 0 
C 1946 1837 2150 2931 3251 4339 
L 3251 4698 
L 314 4698 
L 314 4192 
L 2586 4192 
C 1670 2912 1344 1779 1267 0 
z
" transform="scale(0.015625)"/>
       </defs>
       <use xlink:href="#NotoSansCJKjp-Regular-32"/>
       <use xlink:href="#NotoSansCJKjp-Regular-30" transform="translate(55.499985 0)"/>
       <use xlink:href="#NotoSansCJKjp-Regular-30" transform="translate(110.999969 0)"/>
       <use xlink:href="#NotoSansCJKjp-Regular-37" transform="translate(166.499954 0)"/>
      </g>
     </g>
    </g>
    <g id="xtick_3">
     <g id="text_3">
      <!-- 2010 -->
      <g transform="translate(243.432585 397.572969) scale(0.11 -0.11)">
       <defs>
        <path id="NotoSansCJKjp-Regular-31" d="M 563 0 
L 3136 0 
L 3136 486 
L 2195 486 
L 2195 4698 
L 1747 4698 
C 1491 4544 1190 4435 774 4358 
L 774 3987 
L 1606 3987 
L 1606 486 
L 563 486 
L 563 0 
z
" transform="scale(0.015625)"/>
       </defs>
       <use xlink:href="#NotoSansCJKjp-Regular-32"/>
       <use xlink:href="#NotoSansCJKjp-Regular-30" transform="translate(55.499985 0)"/>
       <use xlink:href="#NotoSansCJKjp-Regular-31" transform="translate(110.999969 0)"/>
       <use xlink:href="#NotoSansCJKjp-Regular-30" transform="translate(166.499954 0)"/>
      </g>
     </g>
    </g>
    <g id="xtick_4">
     <g id="text_4">
      <!-- 2013 -->
      <g transform="translate(330.787131 397.572969) scale(0.11 -0.11)">
       <defs>
        <path id="NotoSansCJKjp-Regular-33" d="M 1690 -83 
C 2522 -83 3194 416 3194 1254 
C 3194 1894 2752 2317 2202 2445 
L 2202 2470 
C 2694 2656 3034 3034 3034 3603 
C 3034 4346 2458 4781 1670 4781 
C 1126 4781 710 4544 358 4218 
L 672 3846 
C 934 4115 1267 4301 1645 4301 
C 2131 4301 2438 4006 2438 3558 
C 2438 3053 2106 2662 1139 2662 
L 1139 2214 
C 2221 2214 2598 1837 2598 1280 
C 2598 736 2202 403 1645 403 
C 1114 403 755 653 480 941 
L 186 557 
C 493 224 954 -83 1690 -83 
z
" transform="scale(0.015625)"/>
       </defs>
       <use xlink:href="#NotoSansCJKjp-Regular-32"/>
       <use xlink:href="#NotoSansCJKjp-Regular-30" transform="translate(55.499985 0)"/>
       <use xlink:href="#NotoSansCJKjp-Regular-31" transform="translate(110.999969 0)"/>
       <use xlink:href="#NotoSansCJKjp-Regular-33" transform="translate(166.499954 0)"/>
      </g>
     </g>
    </g>
    <g id="xtick_5">
     <g id="text_5">
      <!-- 2016 -->
      <g transform="translate(418.141676 397.572969) scale(0.11 -0.11)">
       <defs>
        <path id="NotoSansCJKjp-Regular-36" d="M 1875 2477 
C 2445 2477 2726 2074 2726 1440 
C 2726 800 2374 371 1926 371 
C 1338 371 986 902 915 1875 
C 1203 2304 1581 2477 1875 2477 
z
M 1926 -83 
C 2656 -83 3270 531 3270 1440 
C 3270 2419 2765 2912 1971 2912 
C 1600 2912 1190 2694 902 2342 
C 928 3802 1472 4294 2112 4294 
C 2400 4294 2682 4160 2867 3936 
L 3187 4301 
C 2931 4576 2579 4781 2093 4781 
C 1184 4781 358 4077 358 2240 
C 358 691 1024 -83 1926 -83 
z
" transform="scale(0.015625)"/>
       </defs>
       <use xlink:href="#NotoSansCJKjp-Regular-32"/>
       <use xlink:href="#NotoSansCJKjp-Regular-30" transform="translate(55.499985 0)"/>
       <use xlink:href="#NotoSansCJKjp-Regular-31" transform="translate(110.999969 0)"/>
       <use xlink:href="#NotoSansCJKjp-Regular-36" transform="translate(166.499954 0)"/>
      </g>
     </g>
    </g>
    <g id="xtick_6">
     <g id="text_6">
      <!-- 2019 -->
      <g transform="translate(505.496222 397.572969) scale(0.11 -0.11)">
       <defs>
        <path id="NotoSansCJKjp-Regular-39" d="M 832 3258 
C 832 3898 1178 4320 1626 4320 
C 2227 4320 2586 3808 2650 2842 
C 2349 2400 1990 2214 1670 2214 
C 1114 2214 832 2624 832 3258 
z
M 1498 -83 
C 2381 -83 3200 646 3200 2547 
C 3200 4038 2528 4781 1626 4781 
C 896 4781 282 4166 282 3258 
C 282 2285 794 1779 1574 1779 
C 1965 1779 2368 2003 2656 2355 
C 2611 902 2086 403 1478 403 
C 1178 403 890 538 698 762 
L 371 397 
C 634 122 992 -83 1498 -83 
z
" transform="scale(0.015625)"/>
       </defs>
       <use xlink:href="#NotoSansCJKjp-Regular-32"/>
       <use xlink:href="#NotoSansCJKjp-Regular-30" transform="translate(55.499985 0)"/>
       <use xlink:href="#NotoSansCJKjp-Regular-31" transform="translate(110.999969 0)"/>
       <use xlink:href="#NotoSansCJKjp-Regular-39" transform="translate(166.499954 0)"/>
      </g>
     </g>
    </g>
    <g id="xtick_7">
     <g id="text_7">
      <!-- 2022 -->
      <g transform="translate(592.850767 397.572969) scale(0.11 -0.11)">
       <use xlink:href="#NotoSansCJKjp-Regular-32"/>
       <use xlink:href="#NotoSansCJKjp-Regular-30" transform="translate(55.499985 0)"/>
       <use xlink:href="#NotoSansCJKjp-Regular-32" transform="translate(110.999969 0)"/>
       <use xlink:href="#NotoSansCJKjp-Regular-32" transform="translate(166.499954 0)"/>
      </g>
     </g>
    </g>
    <g id="xtick_8">
     <g id="text_8">
      <!-- 2025 -->
      <g transform="translate(680.205313 397.572969) scale(0.11 -0.11)">
       <defs>
        <path id="NotoSansCJKjp-Regular-35" d="M 1670 -83 
C 2464 -83 3206 499 3206 1530 
C 3206 2560 2573 3021 1792 3021 
C 1510 3021 1306 2950 1094 2835 
L 1210 4192 
L 2982 4192 
L 2982 4698 
L 698 4698 
L 550 2496 
L 864 2304 
C 1133 2483 1331 2579 1645 2579 
C 2234 2579 2618 2182 2618 1510 
C 2618 826 2170 403 1619 403 
C 1075 403 736 653 467 922 
L 179 538 
C 493 224 941 -83 1670 -83 
z
" transform="scale(0.015625)"/>
       </defs>
       <use xlink:href="#NotoSansCJKjp-Regular-32"/>
       <use xlink:href="#NotoSansCJKjp-Regular-30" transform="translate(55.499985 0)"/>
       <use xlink:href="#NotoSansCJKjp-Regular-32" transform="translate(110.999969 0)"/>
       <use xlink:href="#NotoSansCJKjp-Regular-35" transform="translate(166.499954 0)"/>
      </g>
     </g>
    </g>
    <g id="text_9">
     <!-- Year -->
     <g transform="translate(360.911641 412.847969) scale(0.11 -0.11)">
      <defs>
       <path id="NotoSansCJKjp-Regular-59" d="M 1402 0 
L 1997 0 
L 1997 1824 
L 3405 4698 
L 2790 4698 
L 2182 3366 
C 2042 3021 1882 2694 1715 2342 
L 1690 2342 
C 1523 2694 1382 3021 1229 3366 
L 627 4698 
L -6 4698 
L 1402 1824 
L 1402 0 
z
" transform="scale(0.015625)"/>
       <path id="NotoSansCJKjp-Regular-65" d="M 1990 -83 
C 2464 -83 2835 77 3142 275 
L 2931 659 
C 2675 486 2400 384 2061 384 
C 1402 384 947 858 909 1600 
L 3251 1600 
C 3264 1683 3277 1805 3277 1933 
C 3277 2925 2778 3565 1894 3565 
C 1088 3565 326 2861 326 1734 
C 326 589 1069 -83 1990 -83 
z
M 902 2022 
C 973 2701 1408 3098 1901 3098 
C 2445 3098 2765 2720 2765 2022 
L 902 2022 
z
" transform="scale(0.015625)"/>
       <path id="NotoSansCJKjp-Regular-61" d="M 1389 -83 
C 1818 -83 2208 141 2541 416 
L 2560 416 
L 2611 0 
L 3091 0 
L 3091 2138 
C 3091 2995 2733 3565 1888 3565 
C 1331 3565 838 3315 518 3110 
L 749 2707 
C 1024 2893 1389 3078 1792 3078 
C 2362 3078 2509 2650 2509 2202 
C 1030 2035 371 1658 371 902 
C 371 275 806 -83 1389 -83 
z
M 1555 384 
C 1210 384 941 544 941 941 
C 941 1389 1338 1677 2509 1818 
L 2509 845 
C 2170 544 1894 384 1555 384 
z
" transform="scale(0.015625)"/>
       <path id="NotoSansCJKjp-Regular-72" d="M 589 0 
L 1171 0 
L 1171 2234 
C 1402 2829 1760 3034 2048 3034 
C 2189 3034 2272 3021 2387 2976 
L 2496 3488 
C 2387 3546 2278 3565 2125 3565 
C 1734 3565 1382 3283 1139 2842 
L 1120 2842 
L 1069 3475 
L 589 3475 
L 589 0 
z
" transform="scale(0.015625)"/>
      </defs>
      <use xlink:href="#NotoSansCJKjp-Regular-59"/>
      <use xlink:href="#NotoSansCJKjp-Regular-65" transform="translate(53.099991 0)"/>
      <use xlink:href="#NotoSansCJKjp-Regular-61" transform="translate(108.499985 0)"/>
      <use xlink:href="#NotoSansCJKjp-Regular-72" transform="translate(164.899979 0)"/>
     </g>
    </g>
   </g>
   <g id="matplotlib.axis_2">
    <g id="ytick_1">
     <g id="line2d_1">
      <path d="M 51.815313 381.817656 
L 692.415313 381.817656 
" clip-path="url(#p57801be2c7)" style="fill: none; stroke: #808080; stroke-opacity: 0.3; stroke-width: 0.5; stroke-linecap: round"/>
     </g>
     <g id="text_10">
      <!-- 0% -->
      <g transform="translate(28.58 386.195312) scale(0.11 -0.11)">
       <defs>
        <path id="NotoSansCJKjp-Regular-25" d="M 1312 1818 
C 1958 1818 2381 2362 2381 3309 
C 2381 4250 1958 4781 1312 4781 
C 672 4781 250 4250 250 3309 
C 250 2362 672 1818 1312 1818 
z
M 1312 2182 
C 947 2182 691 2560 691 3309 
C 691 4058 947 4422 1312 4422 
C 1683 4422 1939 4058 1939 3309 
C 1939 2560 1683 2182 1312 2182 
z
M 1453 -83 
L 1843 -83 
L 4435 4781 
L 4038 4781 
L 1453 -83 
z
M 4582 -83 
C 5222 -83 5645 454 5645 1402 
C 5645 2342 5222 2874 4582 2874 
C 3942 2874 3514 2342 3514 1402 
C 3514 454 3942 -83 4582 -83 
z
M 4582 275 
C 4211 275 3962 653 3962 1402 
C 3962 2150 4211 2515 4582 2515 
C 4947 2515 5203 2150 5203 1402 
C 5203 653 4947 275 4582 275 
z
" transform="scale(0.015625)"/>
       </defs>
       <use xlink:href="#NotoSansCJKjp-Regular-30"/>
       <use xlink:href="#NotoSansCJKjp-Regular-25" transform="translate(55.499985 0)"/>
      </g>
     </g>
    </g>
    <g id="ytick_2">
     <g id="line2d_2">
      <path d="M 51.815313 289.257656 
L 692.415313 289.257656 
" clip-path="url(#p57801be2c7)" style="fill: none; stroke: #808080; stroke-opacity: 0.3; stroke-width: 0.5; stroke-linecap: round"/>
     </g>
     <g id="text_11">
      <!-- 5% -->
      <g transform="translate(28.58 293.635312) scale(0.11 -0.11)">
       <use xlink:href="#NotoSansCJKjp-Regular-35"/>
       <use xlink:href="#NotoSansCJKjp-Regular-25" transform="translate(55.499985 0)"/>
      </g>
     </g>
    </g>
    <g id="ytick_3">
     <g id="line2d_3">
      <path d="M 51.815313 196.697656 
L 692.415313 196.697656 
" clip-path="url(#p57801be2c7)" style="fill: none; stroke: #808080; stroke-opacity: 0.3; stroke-width: 0.5; stroke-linecap: round"/>
     </g>
     <g id="text_12">
      <!-- 10% -->
      <g transform="translate(22.475 201.075312) scale(0.11 -0.11)">
       <use xlink:href="#NotoSansCJKjp-Regular-31"/>
       <use xlink:href="#NotoSansCJKjp-Regular-30" transform="translate(55.499985 0)"/>
       <use xlink:href="#NotoSansCJKjp-Regular-25" transform="translate(110.999969 0)"/>
      </g>
     </g>
    </g>
    <g id="ytick_4">
     <g id="line2d_4">
      <path d="M 51.815313 104.137656 
L 692.415313 104.137656 
" clip-path="url(#p57801be2c7)" style="fill: none; stroke: #808080; stroke-opacity: 0.3; stroke-width: 0.5; stroke-linecap: round"/>
     </g>
     <g id="text_13">
      <!-- 15% -->
      <g transform="translate(22.475 108.515312) scale(0.11 -0.11)">
       <use xlink:href="#NotoSansCJKjp-Regular-31"/>
       <use xlink:href="#NotoSansCJKjp-Regular-35" transform="translate(55.499985 0)"/>
       <use xlink:href="#NotoSansCJKjp-Regular-25" transform="translate(110.999969 0)"/>
      </g>
     </g>
    </g>
    <g id="ytick_5">
     <g id="line2d_5">
      <path d="M 51.815313 11.577656 
L 692.415313 11.577656 
" clip-path="url(#p57801be2c7)" style="fill: none; stroke: #808080; stroke-opacity: 0.3; stroke-width: 0.5; stroke-linecap: round"/>
     </g>
     <g id="text_14">
      <!-- 20% -->
      <g transform="translate(22.475 15.955312) scale(0.11 -0.11)">
       <use xlink:href="#NotoSansCJKjp-Regular-32"/>
       <use xlink:href="#NotoSansCJKjp-Regular-30" transform="translate(55.499985 0)"/>
       <use xlink:href="#NotoSansCJKjp-Regular-25" transform="translate(110.999969 0)"/>
      </g>
     </g>
    </g>
    <g id="text_15">
     <!-- Proportion -->
     <g transform="translate(15.955313 224.795781) rotate(-90) scale(0.11 -0.11)">
      <defs>
       <path id="NotoSansCJKjp-Regular-50" d="M 640 0 
L 1235 0 
L 1235 1862 
L 2010 1862 
C 3040 1862 3738 2323 3738 3315 
C 3738 4339 3034 4698 1984 4698 
L 640 4698 
L 640 0 
z
M 1235 2342 
L 1235 4211 
L 1907 4211 
C 2733 4211 3149 3994 3149 3315 
C 3149 2643 2758 2342 1933 2342 
L 1235 2342 
z
" transform="scale(0.015625)"/>
       <path id="NotoSansCJKjp-Regular-6f" d="M 1939 -83 
C 2790 -83 3552 582 3552 1734 
C 3552 2893 2790 3565 1939 3565 
C 1088 3565 326 2893 326 1734 
C 326 582 1088 -83 1939 -83 
z
M 1939 403 
C 1338 403 934 934 934 1734 
C 934 2534 1338 3078 1939 3078 
C 2541 3078 2950 2534 2950 1734 
C 2950 934 2541 403 1939 403 
z
" transform="scale(0.015625)"/>
       <path id="NotoSansCJKjp-Regular-70" d="M 589 -1466 
L 1171 -1466 
L 1171 -288 
L 1158 320 
C 1472 64 1805 -83 2118 -83 
C 2918 -83 3629 602 3629 1792 
C 3629 2861 3142 3565 2246 3565 
C 1843 3565 1453 3334 1139 3078 
L 1120 3078 
L 1069 3475 
L 589 3475 
L 589 -1466 
z
M 2022 403 
C 1792 403 1485 499 1171 768 
L 1171 2592 
C 1510 2906 1811 3072 2106 3072 
C 2765 3072 3021 2554 3021 1786 
C 3021 922 2598 403 2022 403 
z
" transform="scale(0.015625)"/>
       <path id="NotoSansCJKjp-Regular-74" d="M 1683 -83 
C 1894 -83 2125 -19 2323 45 
L 2208 480 
C 2093 435 1933 390 1811 390 
C 1408 390 1274 634 1274 1062 
L 1274 3002 
L 2214 3002 
L 2214 3475 
L 1274 3475 
L 1274 4454 
L 787 4454 
L 717 3475 
L 173 3443 
L 173 3002 
L 691 3002 
L 691 1075 
C 691 384 941 -83 1683 -83 
z
" transform="scale(0.015625)"/>
       <path id="NotoSansCJKjp-Regular-69" d="M 589 0 
L 1171 0 
L 1171 3475 
L 589 3475 
L 589 0 
z
M 883 4192 
C 1114 4192 1274 4346 1274 4582 
C 1274 4806 1114 4960 883 4960 
C 653 4960 493 4806 493 4582 
C 493 4346 653 4192 883 4192 
z
" transform="scale(0.015625)"/>
       <path id="NotoSansCJKjp-Regular-6e" d="M 589 0 
L 1171 0 
L 1171 2522 
C 1523 2874 1766 3053 2125 3053 
C 2586 3053 2784 2778 2784 2125 
L 2784 0 
L 3366 0 
L 3366 2202 
C 3366 3091 3034 3565 2304 3565 
C 1830 3565 1472 3302 1139 2976 
L 1120 2976 
L 1069 3475 
L 589 3475 
L 589 0 
z
" transform="scale(0.015625)"/>
      </defs>
      <use xlink:href="#NotoSansCJKjp-Regular-50"/>
      <use xlink:href="#NotoSansCJKjp-Regular-72" transform="translate(63.199997 0)"/>
      <use xlink:href="#NotoSansCJKjp-Regular-6f" transform="translate(101.999985 0)"/>
      <use xlink:href="#NotoSansCJKjp-Regular-70" transform="translate(162.599976 0)"/>
      <use xlink:href="#NotoSansCJKjp-Regular-6f" transform="translate(224.59996 0)"/>
      <use xlink:href="#NotoSansCJKjp-Regular-72" transform="translate(285.199951 0)"/>
      <use xlink:href="#NotoSansCJKjp-Regular-74" transform="translate(323.999939 0)"/>
      <use xlink:href="#NotoSansCJKjp-Regular-69" transform="translate(361.699936 0)"/>
      <use xlink:href="#NotoSansCJKjp-Regular-6f" transform="translate(389.199921 0)"/>
      <use xlink:href="#NotoSansCJKjp-Regular-6e" transform="translate(449.799911 0)"/>
     </g>
    </g>
   </g>
   <g id="FillBetweenPolyCollection_1">
    <path d="M 80.933494 365.419231 
L 80.933494 381.817656 
L 82.881199 381.817656 
L 84.828903 381.817656 
L 86.776608 381.817656 
L 88.724312 381.817656 
L 90.672017 381.817656 
L 92.619721 381.817656 
L 94.567426 381.817656 
L 96.51513 381.817656 
L 98.462835 381.817656 
L 100.410539 381.817656 
L 102.358243 381.817656 
L 104.305948 381.817656 
L 106.253652 381.817656 
L 108.201357 381.817656 
L 110.149061 381.817656 
L 112.096766 381.817656 
L 114.04447 381.817656 
L 115.992175 381.817656 
L 117.939879 381.817656 
L 119.887584 381.817656 
L 121.835288 381.817656 
L 123.782993 381.817656 
L 125.730697 381.817656 
L 127.678402 381.817656 
L 129.626106 381.817656 
L 131.573811 381.817656 
L 133.521515 381.817656 
L 135.469219 381.817656 
L 137.416924 381.817656 
L 139.364628 381.817656 
L 141.312333 381.817656 
L 143.260037 381.817656 
L 145.207742 381.817656 
L 147.155446 381.817656 
L 149.103151 381.817656 
L 151.050855 381.817656 
L 152.99856 381.817656 
L 154.946264 381.817656 
L 156.893969 381.817656 
L 158.841673 381.817656 
L 160.789378 381.817656 
L 162.737082 381.817656 
L 164.684787 381.817656 
L 166.632491 381.817656 
L 168.580195 381.817656 
L 170.5279 381.817656 
L 172.475604 381.817656 
L 174.423309 381.817656 
L 176.371013 381.817656 
L 178.318718 381.817656 
L 180.266422 381.817656 
L 182.214127 381.817656 
L 184.161831 381.817656 
L 186.109536 381.817656 
L 188.05724 381.817656 
L 190.004945 381.817656 
L 191.952649 381.817656 
L 193.900354 381.817656 
L 195.848058 381.817656 
L 197.795762 381.817656 
L 199.743467 381.817656 
L 201.691171 381.817656 
L 203.638876 381.817656 
L 205.58658 381.817656 
L 207.534285 381.817656 
L 209.481989 381.817656 
L 211.429694 381.817656 
L 213.377398 381.817656 
L 215.325103 381.817656 
L 217.272807 381.817656 
L 219.220512 381.817656 
L 221.168216 381.817656 
L 223.115921 381.817656 
L 225.063625 381.817656 
L 227.01133 381.817656 
L 228.959034 381.817656 
L 230.906738 381.817656 
L 232.854443 381.817656 
L 234.802147 381.817656 
L 236.749852 381.817656 
L 238.697556 381.817656 
L 240.645261 381.817656 
L 242.592965 381.817656 
L 244.54067 381.817656 
L 246.488374 381.817656 
L 248.436079 381.817656 
L 250.383783 381.817656 
L 252.331488 381.817656 
L 254.279192 381.817656 
L 256.226897 381.817656 
L 258.174601 381.817656 
L 260.122306 381.817656 
L 262.07001 381.817656 
L 264.017714 381.817656 
L 265.965419 381.817656 
L 267.913123 381.817656 
L 269.860828 381.817656 
L 271.808532 381.817656 
L 273.756237 381.817656 
L 275.703941 381.817656 
L 277.651646 381.817656 
L 279.59935 381.817656 
L 281.547055 381.817656 
L 283.494759 381.817656 
L 285.442464 381.817656 
L 287.390168 381.817656 
L 289.337873 381.817656 
L 291.285577 381.817656 
L 293.233281 381.817656 
L 295.180986 381.817656 
L 297.12869 381.817656 
L 299.076395 381.817656 
L 301.024099 381.817656 
L 302.971804 381.817656 
L 304.919508 381.817656 
L 306.867213 381.817656 
L 308.814917 381.817656 
L 310.762622 381.817656 
L 312.710326 381.817656 
L 314.658031 381.817656 
L 316.605735 381.817656 
L 318.55344 381.817656 
L 320.501144 381.817656 
L 322.448849 381.817656 
L 324.396553 381.817656 
L 326.344257 381.817656 
L 328.291962 381.817656 
L 330.239666 381.817656 
L 332.187371 381.817656 
L 334.135075 381.817656 
L 336.08278 381.817656 
L 338.030484 381.817656 
L 339.978189 381.817656 
L 341.925893 381.817656 
L 343.873598 381.817656 
L 345.821302 381.817656 
L 347.769007 381.817656 
L 349.716711 381.817656 
L 351.664416 381.817656 
L 353.61212 381.817656 
L 355.559825 381.817656 
L 357.507529 381.817656 
L 359.455233 381.817656 
L 361.402938 381.817656 
L 363.350642 381.817656 
L 365.298347 381.817656 
L 367.246051 381.817656 
L 369.193756 381.817656 
L 371.14146 381.817656 
L 373.089165 381.817656 
L 375.036869 381.817656 
L 376.984574 381.817656 
L 378.932278 381.817656 
L 380.879983 381.817656 
L 382.827687 381.817656 
L 384.775392 381.817656 
L 386.723096 381.817656 
L 388.6708 381.817656 
L 390.618505 381.817656 
L 392.566209 381.817656 
L 394.513914 381.817656 
L 396.461618 381.817656 
L 398.409323 381.817656 
L 400.357027 381.817656 
L 402.304732 381.817656 
L 404.252436 381.817656 
L 406.200141 381.817656 
L 408.147845 381.817656 
L 410.09555 381.817656 
L 412.043254 381.817656 
L 413.990959 381.817656 
L 415.938663 381.817656 
L 417.886368 381.817656 
L 419.834072 381.817656 
L 421.781776 381.817656 
L 423.729481 381.817656 
L 425.677185 381.817656 
L 427.62489 381.817656 
L 429.572594 381.817656 
L 431.520299 381.817656 
L 433.468003 381.817656 
L 435.415708 381.817656 
L 437.363412 381.817656 
L 439.311117 381.817656 
L 441.258821 381.817656 
L 443.206526 381.817656 
L 445.15423 381.817656 
L 447.101935 381.817656 
L 449.049639 381.817656 
L 450.997344 381.817656 
L 452.945048 381.817656 
L 454.892752 381.817656 
L 456.840457 381.817656 
L 458.788161 381.817656 
L 460.735866 381.817656 
L 462.68357 381.817656 
L 464.631275 381.817656 
L 466.578979 381.817656 
L 468.526684 381.817656 
L 470.474388 381.817656 
L 472.422093 381.817656 
L 474.369797 381.817656 
L 476.317502 381.817656 
L 478.265206 381.817656 
L 480.212911 381.817656 
L 482.160615 381.817656 
L 484.108319 381.817656 
L 486.056024 381.817656 
L 488.003728 381.817656 
L 489.951433 381.817656 
L 491.899137 381.817656 
L 493.846842 381.817656 
L 495.794546 381.817656 
L 497.742251 381.817656 
L 499.689955 381.817656 
L 501.63766 381.817656 
L 503.585364 381.817656 
L 505.533069 381.817656 
L 507.480773 381.817656 
L 509.428478 381.817656 
L 511.376182 381.817656 
L 513.323887 381.817656 
L 515.271591 381.817656 
L 517.219295 381.817656 
L 519.167 381.817656 
L 521.114704 381.817656 
L 523.062409 381.817656 
L 525.010113 381.817656 
L 526.957818 381.817656 
L 528.905522 381.817656 
L 530.853227 381.817656 
L 532.800931 381.817656 
L 534.748636 381.817656 
L 536.69634 381.817656 
L 538.644045 381.817656 
L 540.591749 381.817656 
L 542.539454 381.817656 
L 544.487158 381.817656 
L 546.434863 381.817656 
L 548.382567 381.817656 
L 550.330271 381.817656 
L 552.277976 381.817656 
L 554.22568 381.817656 
L 556.173385 381.817656 
L 558.121089 381.817656 
L 560.068794 381.817656 
L 562.016498 381.817656 
L 563.964203 381.817656 
L 565.911907 381.817656 
L 567.859612 381.817656 
L 569.807316 381.817656 
L 571.755021 381.817656 
L 573.702725 381.817656 
L 575.65043 381.817656 
L 577.598134 381.817656 
L 579.545838 381.817656 
L 581.493543 381.817656 
L 583.441247 381.817656 
L 585.388952 381.817656 
L 587.336656 381.817656 
L 589.284361 381.817656 
L 591.232065 381.817656 
L 593.17977 381.817656 
L 595.127474 381.817656 
L 597.075179 381.817656 
L 599.022883 381.817656 
L 600.970588 381.817656 
L 602.918292 381.817656 
L 604.865997 381.817656 
L 606.813701 381.817656 
L 608.761406 381.817656 
L 610.70911 381.817656 
L 612.656814 381.817656 
L 614.604519 381.817656 
L 616.552223 381.817656 
L 618.499928 381.817656 
L 620.447632 381.817656 
L 622.395337 381.817656 
L 624.343041 381.817656 
L 626.290746 381.817656 
L 628.23845 381.817656 
L 630.186155 381.817656 
L 632.133859 381.817656 
L 634.081564 381.817656 
L 636.029268 381.817656 
L 637.976973 381.817656 
L 639.924677 381.817656 
L 641.872382 381.817656 
L 643.820086 381.817656 
L 645.76779 381.817656 
L 647.715495 381.817656 
L 649.663199 381.817656 
L 651.610904 381.817656 
L 653.558608 381.817656 
L 655.506313 381.817656 
L 657.454017 381.817656 
L 659.401722 381.817656 
L 661.349426 381.817656 
L 663.297131 381.817656 
L 663.297131 350.208451 
L 663.297131 350.208451 
L 661.349426 351.936942 
L 659.401722 353.583354 
L 657.454017 355.142104 
L 655.506313 356.607606 
L 653.558608 357.974275 
L 651.610904 359.236528 
L 649.663199 360.38878 
L 647.715495 361.425445 
L 645.76779 362.34094 
L 643.820086 363.12968 
L 641.872382 363.78608 
L 639.924677 364.304555 
L 637.976973 364.679521 
L 636.029268 364.905394 
L 634.081564 364.976502 
L 632.133859 364.85621 
L 630.186155 364.538671 
L 628.23845 364.054586 
L 626.290746 363.434653 
L 624.343041 362.709574 
L 622.395337 361.910047 
L 620.447632 361.066773 
L 618.499928 360.210451 
L 616.552223 359.371782 
L 614.604519 358.581466 
L 612.656814 357.870201 
L 610.70911 357.268689 
L 608.761406 356.807628 
L 606.813701 356.517719 
L 604.865997 356.428856 
L 602.918292 356.469116 
L 600.970588 356.571415 
L 599.022883 356.728824 
L 597.075179 356.934413 
L 595.127474 357.181254 
L 593.17977 357.462418 
L 591.232065 357.770975 
L 589.284361 358.099998 
L 587.336656 358.442557 
L 585.388952 358.791723 
L 583.441247 359.140567 
L 581.493543 359.482161 
L 579.545838 359.809575 
L 577.598134 360.11588 
L 575.65043 360.394953 
L 573.702725 360.684624 
L 571.755021 361.003365 
L 569.807316 361.343753 
L 567.859612 361.698369 
L 565.911907 362.059792 
L 563.964203 362.420602 
L 562.016498 362.773377 
L 560.068794 363.110697 
L 558.121089 363.425142 
L 556.173385 363.70929 
L 554.22568 363.955722 
L 552.277976 364.157016 
L 550.330271 364.305752 
L 548.382567 364.394509 
L 546.434863 364.416207 
L 544.487158 364.378296 
L 542.539454 364.292284 
L 540.591749 364.165839 
L 538.644045 364.006623 
L 536.69634 363.822304 
L 534.748636 363.620546 
L 532.800931 363.409015 
L 530.853227 363.195376 
L 528.905522 362.987295 
L 526.957818 362.792436 
L 525.010113 362.618465 
L 523.062409 362.473047 
L 521.114704 362.363848 
L 519.167 362.298533 
L 517.219295 362.284048 
L 515.271591 362.308984 
L 513.323887 362.363302 
L 511.376182 362.44228 
L 509.428478 362.541201 
L 507.480773 362.655342 
L 505.533069 362.779985 
L 503.585364 362.910411 
L 501.63766 363.041898 
L 499.689955 363.169727 
L 497.742251 363.289178 
L 495.794546 363.395532 
L 493.846842 363.484069 
L 491.899137 363.550068 
L 489.951433 363.58881 
L 488.003728 363.596948 
L 486.056024 363.592789 
L 484.108319 363.583546 
L 482.160615 363.569358 
L 480.212911 363.550358 
L 478.265206 363.526685 
L 476.317502 363.498474 
L 474.369797 363.465862 
L 472.422093 363.428985 
L 470.474388 363.38798 
L 468.526684 363.342982 
L 466.578979 363.294129 
L 464.631275 363.241557 
L 462.68357 363.185402 
L 460.735866 363.1258 
L 458.788161 363.053771 
L 456.840457 362.867575 
L 454.892752 362.555522 
L 452.945048 362.138852 
L 450.997344 361.638805 
L 449.049639 361.076623 
L 447.101935 360.473546 
L 445.15423 359.850814 
L 443.206526 359.229669 
L 441.258821 358.631349 
L 439.311117 358.077097 
L 437.363412 357.588152 
L 435.415708 357.185754 
L 433.468003 356.891146 
L 431.520299 356.725566 
L 429.572594 356.701328 
L 427.62489 356.748653 
L 425.677185 356.844413 
L 423.729481 356.984016 
L 421.781776 357.162872 
L 419.834072 357.37639 
L 417.886368 357.619978 
L 415.938663 357.889046 
L 413.990959 358.179003 
L 412.043254 358.485258 
L 410.09555 358.803219 
L 408.147845 359.128296 
L 406.200141 359.455899 
L 404.252436 359.781435 
L 402.304732 360.100314 
L 400.357027 360.418312 
L 398.409323 360.803792 
L 396.461618 361.257948 
L 394.513914 361.765971 
L 392.566209 362.313053 
L 390.618505 362.884385 
L 388.6708 363.46516 
L 386.723096 364.040568 
L 384.775392 364.595803 
L 382.827687 365.116055 
L 380.879983 365.586516 
L 378.932278 365.992378 
L 376.984574 366.318833 
L 375.036869 366.551072 
L 373.089165 366.674287 
L 371.14146 366.679415 
L 369.193756 366.594869 
L 367.246051 366.433947 
L 365.298347 366.205179 
L 363.350642 365.91709 
L 361.402938 365.578208 
L 359.455233 365.19706 
L 357.507529 364.782174 
L 355.559825 364.342077 
L 353.61212 363.885297 
L 351.664416 363.42036 
L 349.716711 362.955793 
L 347.769007 362.500125 
L 345.821302 362.061881 
L 343.873598 361.649591 
L 341.925893 361.256128 
L 339.978189 360.814139 
L 338.030484 360.325232 
L 336.08278 359.801616 
L 334.135075 359.255501 
L 332.187371 358.699096 
L 330.239666 358.144613 
L 328.291962 357.604259 
L 326.344257 357.090246 
L 324.396553 356.614782 
L 322.448849 356.190077 
L 320.501144 355.828342 
L 318.55344 355.541786 
L 316.605735 355.342619 
L 314.658031 355.243049 
L 312.710326 355.269915 
L 310.762622 355.478593 
L 308.814917 355.8491 
L 306.867213 356.35389 
L 304.919508 356.965417 
L 302.971804 357.656138 
L 301.024099 358.398505 
L 299.076395 359.164975 
L 297.12869 359.928002 
L 295.180986 360.66004 
L 293.233281 361.333545 
L 291.285577 361.92097 
L 289.337873 362.394772 
L 287.390168 362.727404 
L 285.442464 362.891321 
L 283.494759 362.897737 
L 281.547055 362.86686 
L 279.59935 362.813197 
L 277.651646 362.74066 
L 275.703941 362.65316 
L 273.756237 362.554609 
L 271.808532 362.448919 
L 269.860828 362.340002 
L 267.913123 362.23177 
L 265.965419 362.128134 
L 264.017714 362.033006 
L 262.07001 361.950298 
L 260.122306 361.883922 
L 258.174601 361.837789 
L 256.226897 361.815811 
L 254.279192 361.843979 
L 252.331488 361.980306 
L 250.383783 362.212546 
L 248.436079 362.52409 
L 246.488374 362.898331 
L 244.54067 363.31866 
L 242.592965 363.768469 
L 240.645261 364.231149 
L 238.697556 364.690092 
L 236.749852 365.12869 
L 234.802147 365.530335 
L 232.854443 365.878417 
L 230.906738 366.15633 
L 228.959034 366.347464 
L 227.01133 366.435211 
L 225.063625 366.378997 
L 223.115921 366.127191 
L 221.168216 365.706201 
L 219.220512 365.145577 
L 217.272807 364.474874 
L 215.325103 363.723641 
L 213.377398 362.921432 
L 211.429694 362.097797 
L 209.481989 361.28229 
L 207.534285 360.504461 
L 205.58658 359.793862 
L 203.638876 359.180046 
L 201.691171 358.692563 
L 199.743467 358.360967 
L 197.795762 358.214808 
L 195.848058 358.219837 
L 193.900354 358.257455 
L 191.952649 358.322769 
L 190.004945 358.41467 
L 188.05724 358.532048 
L 186.109536 358.673795 
L 184.161831 358.838801 
L 182.214127 359.025956 
L 180.266422 359.234151 
L 178.318718 359.462277 
L 176.371013 359.709224 
L 174.423309 359.973883 
L 172.475604 360.255145 
L 170.5279 360.551899 
L 168.580195 360.863037 
L 166.632491 361.34785 
L 164.684787 362.246548 
L 162.737082 363.497879 
L 160.789378 365.035347 
L 158.841673 366.792457 
L 156.893969 368.702715 
L 154.946264 370.699627 
L 152.99856 372.716697 
L 151.050855 374.687431 
L 149.103151 376.545334 
L 147.155446 378.223912 
L 145.207742 379.656669 
L 143.260037 380.777112 
L 141.312333 381.518746 
L 139.364628 381.815075 
L 137.416924 381.642426 
L 135.469219 381.072973 
L 133.521515 380.167336 
L 131.573811 378.985817 
L 129.626106 377.588718 
L 127.678402 376.036341 
L 125.730697 374.388988 
L 123.782993 372.706962 
L 121.835288 371.050564 
L 119.887584 369.480096 
L 117.939879 368.055861 
L 115.992175 366.838161 
L 114.04447 365.887297 
L 112.096766 365.263572 
L 110.149061 365.027289 
L 108.201357 365.026827 
L 106.253652 365.027598 
L 104.305948 365.029742 
L 102.358243 365.033966 
L 100.410539 365.040974 
L 98.462835 365.051471 
L 96.51513 365.066161 
L 94.567426 365.08575 
L 92.619721 365.110942 
L 90.672017 365.142442 
L 88.724312 365.180955 
L 86.776608 365.227185 
L 84.828903 365.281838 
L 82.881199 365.345619 
L 80.933494 365.419231 
z
" clip-path="url(#p57801be2c7)" style="fill: url(#h057220a28f)"/>
   </g>
   <g id="FillBetweenPolyCollection_2">
    <path d="M 80.933494 299.82553 
L 80.933494 365.419231 
L 82.881199 365.345619 
L 84.828903 365.281838 
L 86.776608 365.227185 
L 88.724312 365.180955 
L 90.672017 365.142442 
L 92.619721 365.110942 
L 94.567426 365.08575 
L 96.51513 365.066161 
L 98.462835 365.051471 
L 100.410539 365.040974 
L 102.358243 365.033966 
L 104.305948 365.029742 
L 106.253652 365.027598 
L 108.201357 365.026827 
L 110.149061 365.027289 
L 112.096766 365.263572 
L 114.04447 365.887297 
L 115.992175 366.838161 
L 117.939879 368.055861 
L 119.887584 369.480096 
L 121.835288 371.050564 
L 123.782993 372.706962 
L 125.730697 374.388988 
L 127.678402 376.036341 
L 129.626106 377.588718 
L 131.573811 378.985817 
L 133.521515 380.167336 
L 135.469219 381.072973 
L 137.416924 381.642426 
L 139.364628 381.815075 
L 141.312333 381.518746 
L 143.260037 380.777112 
L 145.207742 379.656669 
L 147.155446 378.223912 
L 149.103151 376.545334 
L 151.050855 374.687431 
L 152.99856 372.716697 
L 154.946264 370.699627 
L 156.893969 368.702715 
L 158.841673 366.792457 
L 160.789378 365.035347 
L 162.737082 363.497879 
L 164.684787 362.246548 
L 166.632491 361.34785 
L 168.580195 360.863037 
L 170.5279 360.551899 
L 172.475604 360.255145 
L 174.423309 359.973883 
L 176.371013 359.709224 
L 178.318718 359.462277 
L 180.266422 359.234151 
L 182.214127 359.025956 
L 184.161831 358.838801 
L 186.109536 358.673795 
L 188.05724 358.532048 
L 190.004945 358.41467 
L 191.952649 358.322769 
L 193.900354 358.257455 
L 195.848058 358.219837 
L 197.795762 358.214808 
L 199.743467 358.360967 
L 201.691171 358.692563 
L 203.638876 359.180046 
L 205.58658 359.793862 
L 207.534285 360.504461 
L 209.481989 361.28229 
L 211.429694 362.097797 
L 213.377398 362.921432 
L 215.325103 363.723641 
L 217.272807 364.474874 
L 219.220512 365.145577 
L 221.168216 365.706201 
L 223.115921 366.127191 
L 225.063625 366.378997 
L 227.01133 366.435211 
L 228.959034 366.347464 
L 230.906738 366.15633 
L 232.854443 365.878417 
L 234.802147 365.530335 
L 236.749852 365.12869 
L 238.697556 364.690092 
L 240.645261 364.231149 
L 242.592965 363.768469 
L 244.54067 363.31866 
L 246.488374 362.898331 
L 248.436079 362.52409 
L 250.383783 362.212546 
L 252.331488 361.980306 
L 254.279192 361.843979 
L 256.226897 361.815811 
L 258.174601 361.837789 
L 260.122306 361.883922 
L 262.07001 361.950298 
L 264.017714 362.033006 
L 265.965419 362.128134 
L 267.913123 362.23177 
L 269.860828 362.340002 
L 271.808532 362.448919 
L 273.756237 362.554609 
L 275.703941 362.65316 
L 277.651646 362.74066 
L 279.59935 362.813197 
L 281.547055 362.86686 
L 283.494759 362.897737 
L 285.442464 362.891321 
L 287.390168 362.727404 
L 289.337873 362.394772 
L 291.285577 361.92097 
L 293.233281 361.333545 
L 295.180986 360.66004 
L 297.12869 359.928002 
L 299.076395 359.164975 
L 301.024099 358.398505 
L 302.971804 357.656138 
L 304.919508 356.965417 
L 306.867213 356.35389 
L 308.814917 355.8491 
L 310.762622 355.478593 
L 312.710326 355.269915 
L 314.658031 355.243049 
L 316.605735 355.342619 
L 318.55344 355.541786 
L 320.501144 355.828342 
L 322.448849 356.190077 
L 324.396553 356.614782 
L 326.344257 357.090246 
L 328.291962 357.604259 
L 330.239666 358.144613 
L 332.187371 358.699096 
L 334.135075 359.255501 
L 336.08278 359.801616 
L 338.030484 360.325232 
L 339.978189 360.814139 
L 341.925893 361.256128 
L 343.873598 361.649591 
L 345.821302 362.061881 
L 347.769007 362.500125 
L 349.716711 362.955793 
L 351.664416 363.42036 
L 353.61212 363.885297 
L 355.559825 364.342077 
L 357.507529 364.782174 
L 359.455233 365.19706 
L 361.402938 365.578208 
L 363.350642 365.91709 
L 365.298347 366.205179 
L 367.246051 366.433947 
L 369.193756 366.594869 
L 371.14146 366.679415 
L 373.089165 366.674287 
L 375.036869 366.551072 
L 376.984574 366.318833 
L 378.932278 365.992378 
L 380.879983 365.586516 
L 382.827687 365.116055 
L 384.775392 364.595803 
L 386.723096 364.040568 
L 388.6708 363.46516 
L 390.618505 362.884385 
L 392.566209 362.313053 
L 394.513914 361.765971 
L 396.461618 361.257948 
L 398.409323 360.803792 
L 400.357027 360.418312 
L 402.304732 360.100314 
L 404.252436 359.781435 
L 406.200141 359.455899 
L 408.147845 359.128296 
L 410.09555 358.803219 
L 412.043254 358.485258 
L 413.990959 358.179003 
L 415.938663 357.889046 
L 417.886368 357.619978 
L 419.834072 357.37639 
L 421.781776 357.162872 
L 423.729481 356.984016 
L 425.677185 356.844413 
L 427.62489 356.748653 
L 429.572594 356.701328 
L 431.520299 356.725566 
L 433.468003 356.891146 
L 435.415708 357.185754 
L 437.363412 357.588152 
L 439.311117 358.077097 
L 441.258821 358.631349 
L 443.206526 359.229669 
L 445.15423 359.850814 
L 447.101935 360.473546 
L 449.049639 361.076623 
L 450.997344 361.638805 
L 452.945048 362.138852 
L 454.892752 362.555522 
L 456.840457 362.867575 
L 458.788161 363.053771 
L 460.735866 363.1258 
L 462.68357 363.185402 
L 464.631275 363.241557 
L 466.578979 363.294129 
L 468.526684 363.342982 
L 470.474388 363.38798 
L 472.422093 363.428985 
L 474.369797 363.465862 
L 476.317502 363.498474 
L 478.265206 363.526685 
L 480.212911 363.550358 
L 482.160615 363.569358 
L 484.108319 363.583546 
L 486.056024 363.592789 
L 488.003728 363.596948 
L 489.951433 363.58881 
L 491.899137 363.550068 
L 493.846842 363.484069 
L 495.794546 363.395532 
L 497.742251 363.289178 
L 499.689955 363.169727 
L 501.63766 363.041898 
L 503.585364 362.910411 
L 505.533069 362.779985 
L 507.480773 362.655342 
L 509.428478 362.541201 
L 511.376182 362.44228 
L 513.323887 362.363302 
L 515.271591 362.308984 
L 517.219295 362.284048 
L 519.167 362.298533 
L 521.114704 362.363848 
L 523.062409 362.473047 
L 525.010113 362.618465 
L 526.957818 362.792436 
L 528.905522 362.987295 
L 530.853227 363.195376 
L 532.800931 363.409015 
L 534.748636 363.620546 
L 536.69634 363.822304 
L 538.644045 364.006623 
L 540.591749 364.165839 
L 542.539454 364.292284 
L 544.487158 364.378296 
L 546.434863 364.416207 
L 548.382567 364.394509 
L 550.330271 364.305752 
L 552.277976 364.157016 
L 554.22568 363.955722 
L 556.173385 363.70929 
L 558.121089 363.425142 
L 560.068794 363.110697 
L 562.016498 362.773377 
L 563.964203 362.420602 
L 565.911907 362.059792 
L 567.859612 361.698369 
L 569.807316 361.343753 
L 571.755021 361.003365 
L 573.702725 360.684624 
L 575.65043 360.394953 
L 577.598134 360.11588 
L 579.545838 359.809575 
L 581.493543 359.482161 
L 583.441247 359.140567 
L 585.388952 358.791723 
L 587.336656 358.442557 
L 589.284361 358.099998 
L 591.232065 357.770975 
L 593.17977 357.462418 
L 595.127474 357.181254 
L 597.075179 356.934413 
L 599.022883 356.728824 
L 600.970588 356.571415 
L 602.918292 356.469116 
L 604.865997 356.428856 
L 606.813701 356.517719 
L 608.761406 356.807628 
L 610.70911 357.268689 
L 612.656814 357.870201 
L 614.604519 358.581466 
L 616.552223 359.371782 
L 618.499928 360.210451 
L 620.447632 361.066773 
L 622.395337 361.910047 
L 624.343041 362.709574 
L 626.290746 363.434653 
L 628.23845 364.054586 
L 630.186155 364.538671 
L 632.133859 364.85621 
L 634.081564 364.976502 
L 636.029268 364.905394 
L 637.976973 364.679521 
L 639.924677 364.304555 
L 641.872382 363.78608 
L 643.820086 363.12968 
L 645.76779 362.34094 
L 647.715495 361.425445 
L 649.663199 360.38878 
L 651.610904 359.236528 
L 653.558608 357.974275 
L 655.506313 356.607606 
L 657.454017 355.142104 
L 659.401722 353.583354 
L 661.349426 351.936942 
L 663.297131 350.208451 
L 663.297131 170.17341 
L 663.297131 170.17341 
L 661.349426 176.251653 
L 659.401722 182.120639 
L 657.454017 187.748923 
L 655.506313 193.105059 
L 653.558608 198.157601 
L 651.610904 202.875103 
L 649.663199 207.226118 
L 647.715495 211.179201 
L 645.76779 214.702907 
L 643.820086 217.765789 
L 641.872382 220.3364 
L 639.924677 222.383296 
L 637.976973 223.875031 
L 636.029268 224.780157 
L 634.081564 225.067376 
L 632.133859 224.787756 
L 630.186155 224.049634 
L 628.23845 222.924373 
L 626.290746 221.483336 
L 624.343041 219.797883 
L 622.395337 217.939377 
L 620.447632 215.979181 
L 618.499928 213.988655 
L 616.552223 212.039163 
L 614.604519 210.202065 
L 612.656814 208.548726 
L 610.70911 207.150505 
L 608.761406 206.078766 
L 606.813701 205.40487 
L 604.865997 205.199491 
L 602.918292 205.429375 
L 600.970588 206.009983 
L 599.022883 206.896945 
L 597.075179 208.045892 
L 595.127474 209.412455 
L 593.17977 210.952263 
L 591.232065 212.620947 
L 589.284361 214.374137 
L 587.336656 216.167463 
L 585.388952 217.956556 
L 583.441247 219.697046 
L 581.493543 221.344563 
L 579.545838 222.854738 
L 577.598134 224.1832 
L 575.65043 225.289283 
L 573.702725 226.341054 
L 571.755021 227.436778 
L 569.807316 228.559098 
L 567.859612 229.690658 
L 565.911907 230.814103 
L 563.964203 231.912077 
L 562.016498 232.967224 
L 560.068794 233.962187 
L 558.121089 234.879611 
L 556.173385 235.702141 
L 554.22568 236.412419 
L 552.277976 236.993091 
L 550.330271 237.426799 
L 548.382567 237.69619 
L 546.434863 237.786666 
L 544.487158 237.777988 
L 542.539454 237.719306 
L 540.591749 237.618264 
L 538.644045 237.482505 
L 536.69634 237.319673 
L 534.748636 237.137408 
L 532.800931 236.943356 
L 530.853227 236.745158 
L 528.905522 236.550458 
L 526.957818 236.366898 
L 525.010113 236.202121 
L 523.062409 236.063771 
L 521.114704 235.959489 
L 519.167 235.89692 
L 517.219295 235.873793 
L 515.271591 235.686909 
L 513.323887 235.279831 
L 511.376182 234.687932 
L 509.428478 233.946585 
L 507.480773 233.091161 
L 505.533069 232.157033 
L 503.585364 231.179575 
L 501.63766 230.194157 
L 499.689955 229.236154 
L 497.742251 228.340936 
L 495.794546 227.543877 
L 493.846842 226.880349 
L 491.899137 226.385724 
L 489.951433 226.095375 
L 488.003728 226.037427 
L 486.056024 226.118701 
L 484.108319 226.28879 
L 482.160615 226.532623 
L 480.212911 226.835131 
L 478.265206 227.181245 
L 476.317502 227.555894 
L 474.369797 227.944009 
L 472.422093 228.330521 
L 470.474388 228.700359 
L 468.526684 229.038454 
L 466.578979 229.329736 
L 464.631275 229.559136 
L 462.68357 229.711583 
L 460.735866 229.772008 
L 458.788161 229.714221 
L 456.840457 229.405405 
L 454.892752 228.836018 
L 452.945048 228.038198 
L 450.997344 227.044079 
L 449.049639 225.8858 
L 447.101935 224.595496 
L 445.15423 223.205305 
L 443.206526 221.747362 
L 441.258821 220.253805 
L 439.311117 218.75677 
L 437.363412 217.288394 
L 435.415708 215.880813 
L 433.468003 214.566164 
L 431.520299 213.376583 
L 429.572594 212.299407 
L 427.62489 210.962676 
L 425.677185 209.327406 
L 423.729481 207.457311 
L 421.781776 205.416104 
L 419.834072 203.267498 
L 417.886368 201.075207 
L 415.938663 198.902943 
L 413.990959 196.81442 
L 412.043254 194.873352 
L 410.09555 193.143451 
L 408.147845 191.68843 
L 406.200141 190.572004 
L 404.252436 189.857884 
L 402.304732 189.609786 
L 400.357027 189.903661 
L 398.409323 190.837019 
L 396.461618 192.338568 
L 394.513914 194.310593 
L 392.566209 196.655378 
L 390.618505 199.275207 
L 388.6708 202.072366 
L 386.723096 204.949138 
L 384.775392 207.807809 
L 382.827687 210.550663 
L 380.879983 213.079985 
L 378.932278 215.298059 
L 376.984574 217.107169 
L 375.036869 218.409601 
L 373.089165 219.107639 
L 371.14146 219.162303 
L 369.193756 218.878889 
L 367.246051 218.34772 
L 365.298347 217.606007 
L 363.350642 216.690959 
L 361.402938 215.639787 
L 359.455233 214.489701 
L 357.507529 213.277911 
L 355.559825 212.041627 
L 353.61212 210.818059 
L 351.664416 209.644417 
L 349.716711 208.557911 
L 347.769007 207.595752 
L 345.821302 206.795149 
L 343.873598 206.193313 
L 341.925893 205.957786 
L 339.978189 206.695934 
L 338.030484 208.353711 
L 336.08278 210.783593 
L 334.135075 213.838052 
L 332.187371 217.369563 
L 330.239666 221.230598 
L 328.291962 225.273631 
L 326.344257 229.351137 
L 324.396553 233.315589 
L 322.448849 237.01946 
L 320.501144 240.315224 
L 318.55344 243.055354 
L 316.605735 245.092325 
L 314.658031 246.27861 
L 312.710326 246.688456 
L 310.762622 247.140468 
L 308.814917 247.709785 
L 306.867213 248.376376 
L 304.919508 249.120211 
L 302.971804 249.921262 
L 301.024099 250.7595 
L 299.076395 251.614894 
L 297.12869 252.467415 
L 295.180986 253.297035 
L 293.233281 254.083723 
L 291.285577 254.80745 
L 289.337873 255.448187 
L 287.390168 255.985905 
L 285.442464 256.400574 
L 283.494759 256.856212 
L 281.547055 257.931446 
L 279.59935 259.583689 
L 277.651646 261.715407 
L 275.703941 264.229069 
L 273.756237 267.027142 
L 271.808532 270.012094 
L 269.860828 273.086392 
L 267.913123 276.152505 
L 265.965419 279.112898 
L 264.017714 281.870041 
L 262.07001 284.326401 
L 260.122306 286.384445 
L 258.174601 287.94664 
L 256.226897 288.915455 
L 254.279192 289.39997 
L 252.331488 289.939803 
L 250.383783 290.553893 
L 248.436079 291.224424 
L 246.488374 291.933582 
L 244.54067 292.663552 
L 242.592965 293.396518 
L 240.645261 294.114665 
L 238.697556 294.800179 
L 236.749852 295.435243 
L 234.802147 296.002043 
L 232.854443 296.482764 
L 230.906738 296.85959 
L 228.959034 297.114707 
L 227.01133 297.2303 
L 225.063625 296.804537 
L 223.115921 294.998195 
L 221.168216 291.978204 
L 219.220512 287.956555 
L 217.272807 283.145238 
L 215.325103 277.756246 
L 213.377398 272.001568 
L 211.429694 266.093197 
L 209.481989 260.243124 
L 207.534285 254.663339 
L 205.58658 249.565835 
L 203.638876 245.162601 
L 201.691171 241.66563 
L 199.743467 239.286912 
L 197.795762 238.238439 
L 195.848058 238.706717 
L 193.900354 240.621322 
L 191.952649 243.769841 
L 190.004945 247.938615 
L 188.05724 252.913985 
L 186.109536 258.482293 
L 184.161831 264.429879 
L 182.214127 270.543086 
L 180.266422 276.608255 
L 178.318718 282.411726 
L 176.371013 287.739841 
L 174.423309 292.378942 
L 172.475604 296.11537 
L 170.5279 298.735465 
L 168.580195 300.02557 
L 166.632491 300.328759 
L 164.684787 300.526154 
L 162.737082 300.644501 
L 160.789378 300.694048 
L 158.841673 300.685044 
L 156.893969 300.627738 
L 154.946264 300.532377 
L 152.99856 300.409211 
L 151.050855 300.268487 
L 149.103151 300.120453 
L 147.155446 299.97536 
L 145.207742 299.843454 
L 143.260037 299.734984 
L 141.312333 299.660199 
L 139.364628 299.629347 
L 137.416924 299.763969 
L 135.469219 300.202345 
L 133.521515 300.899523 
L 131.573811 301.80908 
L 129.626106 302.884595 
L 127.678402 304.079647 
L 125.730697 305.347812 
L 123.782993 306.64267 
L 121.835288 307.917799 
L 119.887584 309.126777 
L 117.939879 310.223182 
L 115.992175 311.160592 
L 114.04447 311.892587 
L 112.096766 312.372742 
L 110.149061 312.554638 
L 108.201357 312.533561 
L 106.253652 312.455447 
L 104.305948 312.306481 
L 102.358243 312.072467 
L 100.410539 311.739212 
L 98.462835 311.29252 
L 96.51513 310.718198 
L 94.567426 310.002049 
L 92.619721 309.12988 
L 90.672017 308.087495 
L 88.724312 306.860701 
L 86.776608 305.435302 
L 84.828903 303.797104 
L 82.881199 301.931911 
L 80.933494 299.82553 
z
" clip-path="url(#p57801be2c7)" style="fill: url(#hde300b7826)"/>
   </g>
   <g id="FillBetweenPolyCollection_3">
    <path d="M 80.933494 299.82553 
L 80.933494 299.82553 
L 82.881199 301.931911 
L 84.828903 303.797104 
L 86.776608 305.435302 
L 88.724312 306.860701 
L 90.672017 308.087495 
L 92.619721 309.12988 
L 94.567426 310.002049 
L 96.51513 310.718198 
L 98.462835 311.29252 
L 100.410539 311.739212 
L 102.358243 312.072467 
L 104.305948 312.306481 
L 106.253652 312.455447 
L 108.201357 312.533561 
L 110.149061 312.554638 
L 112.096766 312.372742 
L 114.04447 311.892587 
L 115.992175 311.160592 
L 117.939879 310.223182 
L 119.887584 309.126777 
L 121.835288 307.917799 
L 123.782993 306.64267 
L 125.730697 305.347812 
L 127.678402 304.079647 
L 129.626106 302.884595 
L 131.573811 301.80908 
L 133.521515 300.899523 
L 135.469219 300.202345 
L 137.416924 299.763969 
L 139.364628 299.629347 
L 141.312333 299.660199 
L 143.260037 299.734984 
L 145.207742 299.843454 
L 147.155446 299.97536 
L 149.103151 300.120453 
L 151.050855 300.268487 
L 152.99856 300.409211 
L 154.946264 300.532377 
L 156.893969 300.627738 
L 158.841673 300.685044 
L 160.789378 300.694048 
L 162.737082 300.644501 
L 164.684787 300.526154 
L 166.632491 300.328759 
L 168.580195 300.02557 
L 170.5279 298.735465 
L 172.475604 296.11537 
L 174.423309 292.378942 
L 176.371013 287.739841 
L 178.318718 282.411726 
L 180.266422 276.608255 
L 182.214127 270.543086 
L 184.161831 264.429879 
L 186.109536 258.482293 
L 188.05724 252.913985 
L 190.004945 247.938615 
L 191.952649 243.769841 
L 193.900354 240.621322 
L 195.848058 238.706717 
L 197.795762 238.238439 
L 199.743467 239.286912 
L 201.691171 241.66563 
L 203.638876 245.162601 
L 205.58658 249.565835 
L 207.534285 254.663339 
L 209.481989 260.243124 
L 211.429694 266.093197 
L 213.377398 272.001568 
L 215.325103 277.756246 
L 217.272807 283.145238 
L 219.220512 287.956555 
L 221.168216 291.978204 
L 223.115921 294.998195 
L 225.063625 296.804537 
L 227.01133 297.2303 
L 228.959034 297.114707 
L 230.906738 296.85959 
L 232.854443 296.482764 
L 234.802147 296.002043 
L 236.749852 295.435243 
L 238.697556 294.800179 
L 240.645261 294.114665 
L 242.592965 293.396518 
L 244.54067 292.663552 
L 246.488374 291.933582 
L 248.436079 291.224424 
L 250.383783 290.553893 
L 252.331488 289.939803 
L 254.279192 289.39997 
L 256.226897 288.915455 
L 258.174601 287.94664 
L 260.122306 286.384445 
L 262.07001 284.326401 
L 264.017714 281.870041 
L 265.965419 279.112898 
L 267.913123 276.152505 
L 269.860828 273.086392 
L 271.808532 270.012094 
L 273.756237 267.027142 
L 275.703941 264.229069 
L 277.651646 261.715407 
L 279.59935 259.583689 
L 281.547055 257.931446 
L 283.494759 256.856212 
L 285.442464 256.400574 
L 287.390168 255.985905 
L 289.337873 255.448187 
L 291.285577 254.80745 
L 293.233281 254.083723 
L 295.180986 253.297035 
L 297.12869 252.467415 
L 299.076395 251.614894 
L 301.024099 250.7595 
L 302.971804 249.921262 
L 304.919508 249.120211 
L 306.867213 248.376376 
L 308.814917 247.709785 
L 310.762622 247.140468 
L 312.710326 246.688456 
L 314.658031 246.27861 
L 316.605735 245.092325 
L 318.55344 243.055354 
L 320.501144 240.315224 
L 322.448849 237.01946 
L 324.396553 233.315589 
L 326.344257 229.351137 
L 328.291962 225.273631 
L 330.239666 221.230598 
L 332.187371 217.369563 
L 334.135075 213.838052 
L 336.08278 210.783593 
L 338.030484 208.353711 
L 339.978189 206.695934 
L 341.925893 205.957786 
L 343.873598 206.193313 
L 345.821302 206.795149 
L 347.769007 207.595752 
L 349.716711 208.557911 
L 351.664416 209.644417 
L 353.61212 210.818059 
L 355.559825 212.041627 
L 357.507529 213.277911 
L 359.455233 214.489701 
L 361.402938 215.639787 
L 363.350642 216.690959 
L 365.298347 217.606007 
L 367.246051 218.34772 
L 369.193756 218.878889 
L 371.14146 219.162303 
L 373.089165 219.107639 
L 375.036869 218.409601 
L 376.984574 217.107169 
L 378.932278 215.298059 
L 380.879983 213.079985 
L 382.827687 210.550663 
L 384.775392 207.807809 
L 386.723096 204.949138 
L 388.6708 202.072366 
L 390.618505 199.275207 
L 392.566209 196.655378 
L 394.513914 194.310593 
L 396.461618 192.338568 
L 398.409323 190.837019 
L 400.357027 189.903661 
L 402.304732 189.609786 
L 404.252436 189.857884 
L 406.200141 190.572004 
L 408.147845 191.68843 
L 410.09555 193.143451 
L 412.043254 194.873352 
L 413.990959 196.81442 
L 415.938663 198.902943 
L 417.886368 201.075207 
L 419.834072 203.267498 
L 421.781776 205.416104 
L 423.729481 207.457311 
L 425.677185 209.327406 
L 427.62489 210.962676 
L 429.572594 212.299407 
L 431.520299 213.376583 
L 433.468003 214.566164 
L 435.415708 215.880813 
L 437.363412 217.288394 
L 439.311117 218.75677 
L 441.258821 220.253805 
L 443.206526 221.747362 
L 445.15423 223.205305 
L 447.101935 224.595496 
L 449.049639 225.8858 
L 450.997344 227.044079 
L 452.945048 228.038198 
L 454.892752 228.836018 
L 456.840457 229.405405 
L 458.788161 229.714221 
L 460.735866 229.772008 
L 462.68357 229.711583 
L 464.631275 229.559136 
L 466.578979 229.329736 
L 468.526684 229.038454 
L 470.474388 228.700359 
L 472.422093 228.330521 
L 474.369797 227.944009 
L 476.317502 227.555894 
L 478.265206 227.181245 
L 480.212911 226.835131 
L 482.160615 226.532623 
L 484.108319 226.28879 
L 486.056024 226.118701 
L 488.003728 226.037427 
L 489.951433 226.095375 
L 491.899137 226.385724 
L 493.846842 226.880349 
L 495.794546 227.543877 
L 497.742251 228.340936 
L 499.689955 229.236154 
L 501.63766 230.194157 
L 503.585364 231.179575 
L 505.533069 232.157033 
L 507.480773 233.091161 
L 509.428478 233.946585 
L 511.376182 234.687932 
L 513.323887 235.279831 
L 515.271591 235.686909 
L 517.219295 235.873793 
L 519.167 235.89692 
L 521.114704 235.959489 
L 523.062409 236.063771 
L 525.010113 236.202121 
L 526.957818 236.366898 
L 528.905522 236.550458 
L 530.853227 236.745158 
L 532.800931 236.943356 
L 534.748636 237.137408 
L 536.69634 237.319673 
L 538.644045 237.482505 
L 540.591749 237.618264 
L 542.539454 237.719306 
L 544.487158 237.777988 
L 546.434863 237.786666 
L 548.382567 237.69619 
L 550.330271 237.426799 
L 552.277976 236.993091 
L 554.22568 236.412419 
L 556.173385 235.702141 
L 558.121089 234.879611 
L 560.068794 233.962187 
L 562.016498 232.967224 
L 563.964203 231.912077 
L 565.911907 230.814103 
L 567.859612 229.690658 
L 569.807316 228.559098 
L 571.755021 227.436778 
L 573.702725 226.341054 
L 575.65043 225.289283 
L 577.598134 224.1832 
L 579.545838 222.854738 
L 581.493543 221.344563 
L 583.441247 219.697046 
L 585.388952 217.956556 
L 587.336656 216.167463 
L 589.284361 214.374137 
L 591.232065 212.620947 
L 593.17977 210.952263 
L 595.127474 209.412455 
L 597.075179 208.045892 
L 599.022883 206.896945 
L 600.970588 206.009983 
L 602.918292 205.429375 
L 604.865997 205.199491 
L 606.813701 205.40487 
L 608.761406 206.078766 
L 610.70911 207.150505 
L 612.656814 208.548726 
L 614.604519 210.202065 
L 616.552223 212.039163 
L 618.499928 213.988655 
L 620.447632 215.979181 
L 622.395337 217.939377 
L 624.343041 219.797883 
L 626.290746 221.483336 
L 628.23845 222.924373 
L 630.186155 224.049634 
L 632.133859 224.787756 
L 634.081564 225.067376 
L 636.029268 224.780157 
L 637.976973 223.875031 
L 639.924677 222.383296 
L 641.872382 220.3364 
L 643.820086 217.765789 
L 645.76779 214.702907 
L 647.715495 211.179201 
L 649.663199 207.226118 
L 651.610904 202.875103 
L 653.558608 198.157601 
L 655.506313 193.105059 
L 657.454017 187.748923 
L 659.401722 182.120639 
L 661.349426 176.251653 
L 663.297131 170.17341 
L 663.297131 170.17341 
L 663.297131 170.17341 
L 661.349426 176.251653 
L 659.401722 182.120639 
L 657.454017 187.748923 
L 655.506313 193.105059 
L 653.558608 198.157601 
L 651.610904 202.875103 
L 649.663199 207.226118 
L 647.715495 211.179201 
L 645.76779 214.702907 
L 643.820086 217.765789 
L 641.872382 220.3364 
L 639.924677 222.383296 
L 637.976973 223.875031 
L 636.029268 224.780157 
L 634.081564 225.067376 
L 632.133859 224.787756 
L 630.186155 224.049634 
L 628.23845 222.924373 
L 626.290746 221.483336 
L 624.343041 219.797883 
L 622.395337 217.939377 
L 620.447632 215.979181 
L 618.499928 213.988655 
L 616.552223 212.039163 
L 614.604519 210.202065 
L 612.656814 208.548726 
L 610.70911 207.150505 
L 608.761406 206.078766 
L 606.813701 205.40487 
L 604.865997 205.199491 
L 602.918292 205.429375 
L 600.970588 206.009983 
L 599.022883 206.896945 
L 597.075179 208.045892 
L 595.127474 209.412455 
L 593.17977 210.952263 
L 591.232065 212.620947 
L 589.284361 214.374137 
L 587.336656 216.167463 
L 585.388952 217.956556 
L 583.441247 219.697046 
L 581.493543 221.344563 
L 579.545838 222.854738 
L 577.598134 224.1832 
L 575.65043 225.289283 
L 573.702725 226.341054 
L 571.755021 227.436778 
L 569.807316 228.559098 
L 567.859612 229.690658 
L 565.911907 230.814103 
L 563.964203 231.912077 
L 562.016498 232.967224 
L 560.068794 233.962187 
L 558.121089 234.879611 
L 556.173385 235.702141 
L 554.22568 236.412419 
L 552.277976 236.993091 
L 550.330271 237.426799 
L 548.382567 237.69619 
L 546.434863 237.786666 
L 544.487158 237.777988 
L 542.539454 237.719306 
L 540.591749 237.618264 
L 538.644045 237.482505 
L 536.69634 237.319673 
L 534.748636 237.137408 
L 532.800931 236.943356 
L 530.853227 236.745158 
L 528.905522 236.550458 
L 526.957818 236.366898 
L 525.010113 236.202121 
L 523.062409 236.063771 
L 521.114704 235.959489 
L 519.167 235.89692 
L 517.219295 235.873793 
L 515.271591 235.686909 
L 513.323887 235.279831 
L 511.376182 234.687932 
L 509.428478 233.946585 
L 507.480773 233.091161 
L 505.533069 232.157033 
L 503.585364 231.179575 
L 501.63766 230.194157 
L 499.689955 229.236154 
L 497.742251 228.340936 
L 495.794546 227.543877 
L 493.846842 226.880349 
L 491.899137 226.385724 
L 489.951433 226.095375 
L 488.003728 226.037427 
L 486.056024 226.118701 
L 484.108319 226.28879 
L 482.160615 226.532623 
L 480.212911 226.835131 
L 478.265206 227.181245 
L 476.317502 227.555894 
L 474.369797 227.944009 
L 472.422093 228.330521 
L 470.474388 228.700359 
L 468.526684 229.038454 
L 466.578979 229.329736 
L 464.631275 229.559136 
L 462.68357 229.711583 
L 460.735866 229.772008 
L 458.788161 229.714221 
L 456.840457 229.405405 
L 454.892752 228.836018 
L 452.945048 228.038198 
L 450.997344 227.044079 
L 449.049639 225.8858 
L 447.101935 224.595496 
L 445.15423 223.205305 
L 443.206526 221.747362 
L 441.258821 220.253805 
L 439.311117 218.75677 
L 437.363412 217.288394 
L 435.415708 215.880813 
L 433.468003 214.566164 
L 431.520299 213.376583 
L 429.572594 212.299407 
L 427.62489 210.962676 
L 425.677185 209.327406 
L 423.729481 207.457311 
L 421.781776 205.416104 
L 419.834072 203.267498 
L 417.886368 201.075207 
L 415.938663 198.902943 
L 413.990959 196.81442 
L 412.043254 194.873352 
L 410.09555 193.143451 
L 408.147845 191.68843 
L 406.200141 190.572004 
L 404.252436 189.857884 
L 402.304732 189.609786 
L 400.357027 189.903661 
L 398.409323 190.837019 
L 396.461618 192.338568 
L 394.513914 194.310593 
L 392.566209 196.655378 
L 390.618505 199.275207 
L 388.6708 202.072366 
L 386.723096 204.949138 
L 384.775392 207.807809 
L 382.827687 210.550663 
L 380.879983 213.079985 
L 378.932278 215.298059 
L 376.984574 217.107169 
L 375.036869 218.409601 
L 373.089165 219.107639 
L 371.14146 219.162303 
L 369.193756 218.878889 
L 367.246051 218.34772 
L 365.298347 217.606007 
L 363.350642 216.690959 
L 361.402938 215.639787 
L 359.455233 214.489701 
L 357.507529 213.277911 
L 355.559825 212.041627 
L 353.61212 210.818059 
L 351.664416 209.644417 
L 349.716711 208.557911 
L 347.769007 207.595752 
L 345.821302 206.795149 
L 343.873598 206.193313 
L 341.925893 205.957786 
L 339.978189 206.695934 
L 338.030484 208.353711 
L 336.08278 210.783593 
L 334.135075 213.838052 
L 332.187371 217.369563 
L 330.239666 221.230598 
L 328.291962 225.273631 
L 326.344257 229.351137 
L 324.396553 233.315589 
L 322.448849 237.01946 
L 320.501144 240.315224 
L 318.55344 243.055354 
L 316.605735 245.092325 
L 314.658031 246.27861 
L 312.710326 246.688456 
L 310.762622 247.140468 
L 308.814917 247.709785 
L 306.867213 248.376376 
L 304.919508 249.120211 
L 302.971804 249.921262 
L 301.024099 250.7595 
L 299.076395 251.614894 
L 297.12869 252.467415 
L 295.180986 253.297035 
L 293.233281 254.083723 
L 291.285577 254.80745 
L 289.337873 255.448187 
L 287.390168 255.985905 
L 285.442464 256.400574 
L 283.494759 256.856212 
L 281.547055 257.931446 
L 279.59935 259.583689 
L 277.651646 261.715407 
L 275.703941 264.229069 
L 273.756237 267.027142 
L 271.808532 270.012094 
L 269.860828 273.086392 
L 267.913123 276.152505 
L 265.965419 279.112898 
L 264.017714 281.870041 
L 262.07001 284.326401 
L 260.122306 286.384445 
L 258.174601 287.94664 
L 256.226897 288.915455 
L 254.279192 289.39997 
L 252.331488 289.939803 
L 250.383783 290.553893 
L 248.436079 291.224424 
L 246.488374 291.933582 
L 244.54067 292.663552 
L 242.592965 293.396518 
L 240.645261 294.114665 
L 238.697556 294.800179 
L 236.749852 295.435243 
L 234.802147 296.002043 
L 232.854443 296.482764 
L 230.906738 296.85959 
L 228.959034 297.114707 
L 227.01133 297.2303 
L 225.063625 296.804537 
L 223.115921 294.998195 
L 221.168216 291.978204 
L 219.220512 287.956555 
L 217.272807 283.145238 
L 215.325103 277.756246 
L 213.377398 272.001568 
L 211.429694 266.093197 
L 209.481989 260.243124 
L 207.534285 254.663339 
L 205.58658 249.565835 
L 203.638876 245.162601 
L 201.691171 241.66563 
L 199.743467 239.286912 
L 197.795762 238.238439 
L 195.848058 238.706717 
L 193.900354 240.621322 
L 191.952649 243.769841 
L 190.004945 247.938615 
L 188.05724 252.913985 
L 186.109536 258.482293 
L 184.161831 264.429879 
L 182.214127 270.543086 
L 180.266422 276.608255 
L 178.318718 282.411726 
L 176.371013 287.739841 
L 174.423309 292.378942 
L 172.475604 296.11537 
L 170.5279 298.735465 
L 168.580195 300.02557 
L 166.632491 300.328759 
L 164.684787 300.526154 
L 162.737082 300.644501 
L 160.789378 300.694048 
L 158.841673 300.685044 
L 156.893969 300.627738 
L 154.946264 300.532377 
L 152.99856 300.409211 
L 151.050855 300.268487 
L 149.103151 300.120453 
L 147.155446 299.97536 
L 145.207742 299.843454 
L 143.260037 299.734984 
L 141.312333 299.660199 
L 139.364628 299.629347 
L 137.416924 299.763969 
L 135.469219 300.202345 
L 133.521515 300.899523 
L 131.573811 301.80908 
L 129.626106 302.884595 
L 127.678402 304.079647 
L 125.730697 305.347812 
L 123.782993 306.64267 
L 121.835288 307.917799 
L 119.887584 309.126777 
L 117.939879 310.223182 
L 115.992175 311.160592 
L 114.04447 311.892587 
L 112.096766 312.372742 
L 110.149061 312.554638 
L 108.201357 312.533561 
L 106.253652 312.455447 
L 104.305948 312.306481 
L 102.358243 312.072467 
L 100.410539 311.739212 
L 98.462835 311.29252 
L 96.51513 310.718198 
L 94.567426 310.002049 
L 92.619721 309.12988 
L 90.672017 308.087495 
L 88.724312 306.860701 
L 86.776608 305.435302 
L 84.828903 303.797104 
L 82.881199 301.931911 
L 80.933494 299.82553 
z
" clip-path="url(#p57801be2c7)" style="fill: url(#h9d928dbe83)"/>
   </g>
   <g id="FillBetweenPolyCollection_4">
    <path d="M 80.933494 283.427105 
L 80.933494 299.82553 
L 82.881199 301.931911 
L 84.828903 303.797104 
L 86.776608 305.435302 
L 88.724312 306.860701 
L 90.672017 308.087495 
L 92.619721 309.12988 
L 94.567426 310.002049 
L 96.51513 310.718198 
L 98.462835 311.29252 
L 100.410539 311.739212 
L 102.358243 312.072467 
L 104.305948 312.306481 
L 106.253652 312.455447 
L 108.201357 312.533561 
L 110.149061 312.554638 
L 112.096766 312.372742 
L 114.04447 311.892587 
L 115.992175 311.160592 
L 117.939879 310.223182 
L 119.887584 309.126777 
L 121.835288 307.917799 
L 123.782993 306.64267 
L 125.730697 305.347812 
L 127.678402 304.079647 
L 129.626106 302.884595 
L 131.573811 301.80908 
L 133.521515 300.899523 
L 135.469219 300.202345 
L 137.416924 299.763969 
L 139.364628 299.629347 
L 141.312333 299.660199 
L 143.260037 299.734984 
L 145.207742 299.843454 
L 147.155446 299.97536 
L 149.103151 300.120453 
L 151.050855 300.268487 
L 152.99856 300.409211 
L 154.946264 300.532377 
L 156.893969 300.627738 
L 158.841673 300.685044 
L 160.789378 300.694048 
L 162.737082 300.644501 
L 164.684787 300.526154 
L 166.632491 300.328759 
L 168.580195 300.02557 
L 170.5279 298.735465 
L 172.475604 296.11537 
L 174.423309 292.378942 
L 176.371013 287.739841 
L 178.318718 282.411726 
L 180.266422 276.608255 
L 182.214127 270.543086 
L 184.161831 264.429879 
L 186.109536 258.482293 
L 188.05724 252.913985 
L 190.004945 247.938615 
L 191.952649 243.769841 
L 193.900354 240.621322 
L 195.848058 238.706717 
L 197.795762 238.238439 
L 199.743467 239.286912 
L 201.691171 241.66563 
L 203.638876 245.162601 
L 205.58658 249.565835 
L 207.534285 254.663339 
L 209.481989 260.243124 
L 211.429694 266.093197 
L 213.377398 272.001568 
L 215.325103 277.756246 
L 217.272807 283.145238 
L 219.220512 287.956555 
L 221.168216 291.978204 
L 223.115921 294.998195 
L 225.063625 296.804537 
L 227.01133 297.2303 
L 228.959034 297.114707 
L 230.906738 296.85959 
L 232.854443 296.482764 
L 234.802147 296.002043 
L 236.749852 295.435243 
L 238.697556 294.800179 
L 240.645261 294.114665 
L 242.592965 293.396518 
L 244.54067 292.663552 
L 246.488374 291.933582 
L 248.436079 291.224424 
L 250.383783 290.553893 
L 252.331488 289.939803 
L 254.279192 289.39997 
L 256.226897 288.915455 
L 258.174601 287.94664 
L 260.122306 286.384445 
L 262.07001 284.326401 
L 264.017714 281.870041 
L 265.965419 279.112898 
L 267.913123 276.152505 
L 269.860828 273.086392 
L 271.808532 270.012094 
L 273.756237 267.027142 
L 275.703941 264.229069 
L 277.651646 261.715407 
L 279.59935 259.583689 
L 281.547055 257.931446 
L 283.494759 256.856212 
L 285.442464 256.400574 
L 287.390168 255.985905 
L 289.337873 255.448187 
L 291.285577 254.80745 
L 293.233281 254.083723 
L 295.180986 253.297035 
L 297.12869 252.467415 
L 299.076395 251.614894 
L 301.024099 250.7595 
L 302.971804 249.921262 
L 304.919508 249.120211 
L 306.867213 248.376376 
L 308.814917 247.709785 
L 310.762622 247.140468 
L 312.710326 246.688456 
L 314.658031 246.27861 
L 316.605735 245.092325 
L 318.55344 243.055354 
L 320.501144 240.315224 
L 322.448849 237.01946 
L 324.396553 233.315589 
L 326.344257 229.351137 
L 328.291962 225.273631 
L 330.239666 221.230598 
L 332.187371 217.369563 
L 334.135075 213.838052 
L 336.08278 210.783593 
L 338.030484 208.353711 
L 339.978189 206.695934 
L 341.925893 205.957786 
L 343.873598 206.193313 
L 345.821302 206.795149 
L 347.769007 207.595752 
L 349.716711 208.557911 
L 351.664416 209.644417 
L 353.61212 210.818059 
L 355.559825 212.041627 
L 357.507529 213.277911 
L 359.455233 214.489701 
L 361.402938 215.639787 
L 363.350642 216.690959 
L 365.298347 217.606007 
L 367.246051 218.34772 
L 369.193756 218.878889 
L 371.14146 219.162303 
L 373.089165 219.107639 
L 375.036869 218.409601 
L 376.984574 217.107169 
L 378.932278 215.298059 
L 380.879983 213.079985 
L 382.827687 210.550663 
L 384.775392 207.807809 
L 386.723096 204.949138 
L 388.6708 202.072366 
L 390.618505 199.275207 
L 392.566209 196.655378 
L 394.513914 194.310593 
L 396.461618 192.338568 
L 398.409323 190.837019 
L 400.357027 189.903661 
L 402.304732 189.609786 
L 404.252436 189.857884 
L 406.200141 190.572004 
L 408.147845 191.68843 
L 410.09555 193.143451 
L 412.043254 194.873352 
L 413.990959 196.81442 
L 415.938663 198.902943 
L 417.886368 201.075207 
L 419.834072 203.267498 
L 421.781776 205.416104 
L 423.729481 207.457311 
L 425.677185 209.327406 
L 427.62489 210.962676 
L 429.572594 212.299407 
L 431.520299 213.376583 
L 433.468003 214.566164 
L 435.415708 215.880813 
L 437.363412 217.288394 
L 439.311117 218.75677 
L 441.258821 220.253805 
L 443.206526 221.747362 
L 445.15423 223.205305 
L 447.101935 224.595496 
L 449.049639 225.8858 
L 450.997344 227.044079 
L 452.945048 228.038198 
L 454.892752 228.836018 
L 456.840457 229.405405 
L 458.788161 229.714221 
L 460.735866 229.772008 
L 462.68357 229.711583 
L 464.631275 229.559136 
L 466.578979 229.329736 
L 468.526684 229.038454 
L 470.474388 228.700359 
L 472.422093 228.330521 
L 474.369797 227.944009 
L 476.317502 227.555894 
L 478.265206 227.181245 
L 480.212911 226.835131 
L 482.160615 226.532623 
L 484.108319 226.28879 
L 486.056024 226.118701 
L 488.003728 226.037427 
L 489.951433 226.095375 
L 491.899137 226.385724 
L 493.846842 226.880349 
L 495.794546 227.543877 
L 497.742251 228.340936 
L 499.689955 229.236154 
L 501.63766 230.194157 
L 503.585364 231.179575 
L 505.533069 232.157033 
L 507.480773 233.091161 
L 509.428478 233.946585 
L 511.376182 234.687932 
L 513.323887 235.279831 
L 515.271591 235.686909 
L 517.219295 235.873793 
L 519.167 235.89692 
L 521.114704 235.959489 
L 523.062409 236.063771 
L 525.010113 236.202121 
L 526.957818 236.366898 
L 528.905522 236.550458 
L 530.853227 236.745158 
L 532.800931 236.943356 
L 534.748636 237.137408 
L 536.69634 237.319673 
L 538.644045 237.482505 
L 540.591749 237.618264 
L 542.539454 237.719306 
L 544.487158 237.777988 
L 546.434863 237.786666 
L 548.382567 237.69619 
L 550.330271 237.426799 
L 552.277976 236.993091 
L 554.22568 236.412419 
L 556.173385 235.702141 
L 558.121089 234.879611 
L 560.068794 233.962187 
L 562.016498 232.967224 
L 563.964203 231.912077 
L 565.911907 230.814103 
L 567.859612 229.690658 
L 569.807316 228.559098 
L 571.755021 227.436778 
L 573.702725 226.341054 
L 575.65043 225.289283 
L 577.598134 224.1832 
L 579.545838 222.854738 
L 581.493543 221.344563 
L 583.441247 219.697046 
L 585.388952 217.956556 
L 587.336656 216.167463 
L 589.284361 214.374137 
L 591.232065 212.620947 
L 593.17977 210.952263 
L 595.127474 209.412455 
L 597.075179 208.045892 
L 599.022883 206.896945 
L 600.970588 206.009983 
L 602.918292 205.429375 
L 604.865997 205.199491 
L 606.813701 205.40487 
L 608.761406 206.078766 
L 610.70911 207.150505 
L 612.656814 208.548726 
L 614.604519 210.202065 
L 616.552223 212.039163 
L 618.499928 213.988655 
L 620.447632 215.979181 
L 622.395337 217.939377 
L 624.343041 219.797883 
L 626.290746 221.483336 
L 628.23845 222.924373 
L 630.186155 224.049634 
L 632.133859 224.787756 
L 634.081564 225.067376 
L 636.029268 224.780157 
L 637.976973 223.875031 
L 639.924677 222.383296 
L 641.872382 220.3364 
L 643.820086 217.765789 
L 645.76779 214.702907 
L 647.715495 211.179201 
L 649.663199 207.226118 
L 651.610904 202.875103 
L 653.558608 198.157601 
L 655.506313 193.105059 
L 657.454017 187.748923 
L 659.401722 182.120639 
L 661.349426 176.251653 
L 663.297131 170.17341 
L 663.297131 101.457745 
L 663.297131 101.457745 
L 661.349426 110.2815 
L 659.401722 118.867555 
L 657.454017 127.160429 
L 655.506313 135.104645 
L 653.558608 142.644721 
L 651.610904 149.725179 
L 649.663199 156.290539 
L 647.715495 162.285321 
L 645.76779 167.654045 
L 643.820086 172.341233 
L 641.872382 176.291404 
L 639.924677 179.449079 
L 637.976973 181.758778 
L 636.029268 183.165023 
L 634.081564 183.612926 
L 632.133859 183.330599 
L 630.186155 182.584927 
L 628.23845 181.447382 
L 626.290746 179.989437 
L 624.343041 178.282564 
L 622.395337 176.398235 
L 620.447632 174.407922 
L 618.499928 172.383098 
L 616.552223 170.395236 
L 614.604519 168.515807 
L 612.656814 166.816283 
L 610.70911 165.368138 
L 608.761406 164.242843 
L 606.813701 163.511871 
L 604.865997 163.245113 
L 602.918292 163.309151 
L 600.970588 163.568793 
L 599.022883 164.004652 
L 597.075179 164.59734 
L 595.127474 165.327466 
L 593.17977 166.175644 
L 591.232065 167.122484 
L 589.284361 168.148597 
L 587.336656 169.234596 
L 585.388952 170.361091 
L 583.441247 171.508693 
L 581.493543 172.658015 
L 579.545838 173.789667 
L 577.598134 174.884262 
L 575.65043 175.924065 
L 573.702725 176.982456 
L 571.755021 178.094824 
L 569.807316 179.243605 
L 567.859612 180.411236 
L 565.911907 181.580151 
L 563.964203 182.732788 
L 562.016498 183.851581 
L 560.068794 184.918968 
L 558.121089 185.917383 
L 556.173385 186.829262 
L 554.22568 187.637042 
L 552.277976 188.323158 
L 550.330271 188.870046 
L 548.382567 189.260142 
L 546.434863 189.487019 
L 544.487158 189.892584 
L 542.539454 190.607567 
L 540.591749 191.580945 
L 538.644045 192.761694 
L 536.69634 194.098793 
L 534.748636 195.541216 
L 532.800931 197.037943 
L 530.853227 198.537948 
L 528.905522 199.99021 
L 526.957818 201.343706 
L 525.010113 202.547412 
L 523.062409 203.550305 
L 521.114704 204.301363 
L 519.167 204.749561 
L 517.219295 204.839068 
L 515.271591 204.445717 
L 513.323887 203.588907 
L 511.376182 202.343088 
L 509.428478 200.782712 
L 507.480773 198.982231 
L 505.533069 197.016096 
L 503.585364 194.958758 
L 501.63766 192.884669 
L 499.689955 190.868279 
L 497.742251 188.98404 
L 495.794546 187.306404 
L 493.846842 185.909821 
L 491.899137 184.868744 
L 489.951433 184.257622 
L 488.003728 184.146142 
L 486.056024 184.494919 
L 484.108319 185.226518 
L 482.160615 186.278257 
L 480.212911 187.587453 
L 478.265206 189.091424 
L 476.317502 190.727488 
L 474.369797 192.432963 
L 472.422093 194.145167 
L 470.474388 195.801416 
L 468.526684 197.33903 
L 466.578979 198.695325 
L 464.631275 199.80762 
L 462.68357 200.613232 
L 460.735866 201.049479 
L 458.788161 201.057625 
L 456.840457 200.654452 
L 454.892752 199.890603 
L 452.945048 198.810661 
L 450.997344 197.459212 
L 449.049639 195.880838 
L 447.101935 194.120123 
L 445.15423 192.221651 
L 443.206526 190.230006 
L 441.258821 188.189773 
L 439.311117 186.145533 
L 437.363412 184.141873 
L 435.415708 182.223375 
L 433.468003 180.434623 
L 431.520299 178.820201 
L 429.572594 177.376967 
L 427.62489 175.712352 
L 425.677185 173.775959 
L 423.729481 171.62557 
L 421.781776 169.318964 
L 419.834072 166.913922 
L 417.886368 164.468222 
L 415.938663 162.039645 
L 413.990959 159.685971 
L 412.043254 157.464979 
L 410.09555 155.434451 
L 408.147845 153.652165 
L 406.200141 152.175902 
L 404.252436 151.063441 
L 402.304732 150.372563 
L 400.357027 150.14615 
L 398.409323 150.294531 
L 396.461618 150.751686 
L 394.513914 151.468459 
L 392.566209 152.395692 
L 390.618505 153.48423 
L 388.6708 154.684915 
L 386.723096 155.94859 
L 384.775392 157.226098 
L 382.827687 158.468283 
L 380.879983 159.625988 
L 378.932278 160.650057 
L 376.984574 161.491331 
L 375.036869 162.100654 
L 373.089165 162.42887 
L 371.14146 162.523274 
L 369.193756 162.912145 
L 367.246051 163.63952 
L 365.298347 164.652844 
L 363.350642 165.899561 
L 361.402938 167.327113 
L 359.455233 168.882945 
L 357.507529 170.514501 
L 355.559825 172.169225 
L 353.61212 173.794561 
L 351.664416 175.337952 
L 349.716711 176.746842 
L 347.769007 177.968675 
L 345.821302 178.950895 
L 343.873598 179.640946 
L 341.925893 180.199896 
L 339.978189 181.596932 
L 338.030484 183.840421 
L 336.08278 186.792859 
L 334.135075 190.31674 
L 332.187371 194.274559 
L 330.239666 198.52881 
L 328.291962 202.94199 
L 326.344257 207.376592 
L 324.396553 211.695113 
L 322.448849 215.760045 
L 320.501144 219.433886 
L 318.55344 222.579129 
L 316.605735 225.05827 
L 314.658031 226.733803 
L 312.710326 227.699611 
L 310.762622 228.810622 
L 308.814917 230.126092 
L 306.867213 231.605012 
L 304.919508 233.20637 
L 302.971804 234.889158 
L 301.024099 236.612365 
L 299.076395 238.334982 
L 297.12869 240.015999 
L 295.180986 241.614406 
L 293.233281 243.089193 
L 291.285577 244.399351 
L 289.337873 245.503868 
L 287.390168 246.361737 
L 285.442464 246.931946 
L 283.494759 247.394592 
L 281.547055 248.445322 
L 279.59935 250.053723 
L 277.651646 252.124163 
L 275.703941 254.561005 
L 273.756237 257.268616 
L 271.808532 260.151362 
L 269.860828 263.113608 
L 267.913123 266.059719 
L 265.965419 268.894062 
L 264.017714 271.521002 
L 262.07001 273.844905 
L 260.122306 275.770135 
L 258.174601 277.20106 
L 256.226897 278.042044 
L 254.279192 278.403008 
L 252.331488 278.820649 
L 250.383783 279.312031 
L 248.436079 279.857602 
L 246.488374 280.437811 
L 244.54067 281.033105 
L 242.592965 281.623934 
L 240.645261 282.190746 
L 238.697556 282.71399 
L 236.749852 283.174115 
L 234.802147 283.551568 
L 232.854443 283.826799 
L 230.906738 283.980255 
L 228.959034 283.992387 
L 227.01133 283.843641 
L 225.063625 283.0694 
L 223.115921 280.69871 
L 221.168216 276.927289 
L 219.220512 272.003095 
L 217.272807 266.174084 
L 215.325103 259.688214 
L 213.377398 252.793442 
L 211.429694 245.737726 
L 209.481989 238.769021 
L 207.534285 232.135286 
L 205.58658 226.084477 
L 203.638876 220.864552 
L 201.691171 216.723467 
L 199.743467 213.909181 
L 197.795762 212.66965 
L 195.848058 213.174606 
L 193.900354 215.252961 
L 191.952649 218.67373 
L 190.004945 223.207634 
L 188.05724 228.625394 
L 186.109536 234.697731 
L 184.161831 241.195368 
L 182.214127 247.889025 
L 180.266422 254.549424 
L 178.318718 260.947286 
L 176.371013 266.853334 
L 174.423309 272.038287 
L 172.475604 276.272868 
L 170.5279 279.327799 
L 168.580195 280.9738 
L 166.632491 281.578321 
L 164.684787 282.082925 
L 162.737082 282.511496 
L 160.789378 282.870216 
L 158.841673 283.165267 
L 156.893969 283.402832 
L 154.946264 283.589093 
L 152.99856 283.730232 
L 151.050855 283.832432 
L 149.103151 283.901875 
L 147.155446 283.944745 
L 145.207742 283.967222 
L 143.260037 283.97549 
L 141.312333 283.975731 
L 139.364628 283.974128 
L 137.416924 283.812396 
L 135.469219 283.286886 
L 133.521515 282.451135 
L 131.573811 281.36079 
L 129.626106 280.071501 
L 127.678402 278.638916 
L 125.730697 277.118685 
L 123.782993 275.566455 
L 121.835288 274.037876 
L 119.887584 272.588597 
L 117.939879 271.274266 
L 115.992175 270.150532 
L 114.04447 269.273044 
L 112.096766 268.69745 
L 110.149061 268.4794 
L 108.201357 268.567727 
L 106.253652 268.844646 
L 104.305948 269.296359 
L 102.358243 269.909342 
L 100.410539 270.670066 
L 98.462835 271.565004 
L 96.51513 272.58063 
L 94.567426 273.703415 
L 92.619721 274.919833 
L 90.672017 276.216357 
L 88.724312 277.579458 
L 86.776608 278.995611 
L 84.828903 280.451288 
L 82.881199 281.932962 
L 80.933494 283.427105 
z
" clip-path="url(#p57801be2c7)" style="fill: url(#hd3520117a5)"/>
   </g>
   <g id="legend_1">
    <g id="patch_3">
     <path d="M 60.815313 28.537031 
L 80.815313 28.537031 
L 80.815313 21.537031 
L 60.815313 21.537031 
z
" style="fill: url(#h057220a28f)"/>
    </g>
    <g id="text_16">
     <!-- Solo -->
     <g transform="translate(88.815313 28.537031) scale(0.1 -0.1)">
      <defs>
       <path id="NotoSansCJKjp-Regular-53" d="M 1946 -83 
C 2925 -83 3539 506 3539 1248 
C 3539 1946 3117 2266 2573 2502 
L 1901 2790 
C 1536 2944 1126 3117 1126 3571 
C 1126 3994 1472 4262 2003 4262 
C 2438 4262 2784 4090 3072 3821 
L 3386 4198 
C 3053 4544 2560 4781 2003 4781 
C 1152 4781 525 4256 525 3533 
C 525 2848 1043 2515 1478 2330 
L 2157 2035 
C 2598 1837 2938 1683 2938 1203 
C 2938 742 2566 435 1952 435 
C 1466 435 992 666 659 1018 
L 301 614 
C 710 186 1280 -83 1946 -83 
z
" transform="scale(0.015625)"/>
       <path id="NotoSansCJKjp-Regular-6c" d="M 1203 -83 
C 1363 -83 1459 -64 1542 -32 
L 1459 416 
C 1395 403 1370 403 1338 403 
C 1248 403 1171 474 1171 653 
L 1171 5094 
L 589 5094 
L 589 691 
C 589 198 768 -83 1203 -83 
z
" transform="scale(0.015625)"/>
      </defs>
      <use xlink:href="#NotoSansCJKjp-Regular-53"/>
      <use xlink:href="#NotoSansCJKjp-Regular-6f" transform="translate(59.699997 0)"/>
      <use xlink:href="#NotoSansCJKjp-Regular-6c" transform="translate(120.299988 0)"/>
      <use xlink:href="#NotoSansCJKjp-Regular-6f" transform="translate(148.799973 0)"/>
     </g>
    </g>
    <g id="patch_4">
     <path d="M 60.815313 43.787031 
L 80.815313 43.787031 
L 80.815313 36.787031 
L 60.815313 36.787031 
z
" style="fill: url(#hde300b7826)"/>
    </g>
    <g id="text_17">
     <!-- Initial -->
     <g transform="translate(88.815313 43.787031) scale(0.1 -0.1)">
      <defs>
       <path id="NotoSansCJKjp-Regular-49" d="M 640 0 
L 1235 0 
L 1235 4698 
L 640 4698 
L 640 0 
z
" transform="scale(0.015625)"/>
      </defs>
      <use xlink:href="#NotoSansCJKjp-Regular-49"/>
      <use xlink:href="#NotoSansCJKjp-Regular-6e" transform="translate(29.299988 0)"/>
      <use xlink:href="#NotoSansCJKjp-Regular-69" transform="translate(90.399979 0)"/>
      <use xlink:href="#NotoSansCJKjp-Regular-74" transform="translate(117.899963 0)"/>
      <use xlink:href="#NotoSansCJKjp-Regular-69" transform="translate(155.59996 0)"/>
      <use xlink:href="#NotoSansCJKjp-Regular-61" transform="translate(183.099945 0)"/>
      <use xlink:href="#NotoSansCJKjp-Regular-6c" transform="translate(239.499939 0)"/>
     </g>
    </g>
    <g id="patch_5">
     <path d="M 60.815313 59.037031 
L 80.815313 59.037031 
L 80.815313 52.037031 
L 60.815313 52.037031 
z
" style="fill: url(#h9d928dbe83)"/>
    </g>
    <g id="text_18">
     <!-- Middle -->
     <g transform="translate(88.815313 59.037031) scale(0.1 -0.1)">
      <defs>
       <path id="NotoSansCJKjp-Regular-4d" d="M 640 0 
L 1178 0 
L 1178 2598 
C 1178 3002 1133 3571 1107 3981 
L 1133 3981 
L 1504 2912 
L 2394 474 
L 2790 474 
L 3680 2912 
L 4051 3981 
L 4077 3981 
C 4045 3571 4000 3002 4000 2598 
L 4000 0 
L 4557 0 
L 4557 4698 
L 3840 4698 
L 2944 2182 
C 2835 1856 2733 1530 2624 1203 
L 2592 1203 
C 2477 1530 2368 1856 2259 2182 
L 1357 4698 
L 640 4698 
L 640 0 
z
" transform="scale(0.015625)"/>
       <path id="NotoSansCJKjp-Regular-64" d="M 1773 -83 
C 2189 -83 2554 141 2829 410 
L 2848 410 
L 2899 0 
L 3373 0 
L 3373 5094 
L 2797 5094 
L 2797 3757 
L 2822 3155 
C 2515 3411 2253 3565 1843 3565 
C 1050 3565 339 2861 339 1734 
C 339 576 902 -83 1773 -83 
z
M 1901 403 
C 1286 403 941 902 941 1741 
C 941 2534 1382 3072 1946 3072 
C 2234 3072 2496 2970 2797 2707 
L 2797 883 
C 2502 563 2221 403 1901 403 
z
" transform="scale(0.015625)"/>
      </defs>
      <use xlink:href="#NotoSansCJKjp-Regular-4d"/>
      <use xlink:href="#NotoSansCJKjp-Regular-69" transform="translate(81.199982 0)"/>
      <use xlink:href="#NotoSansCJKjp-Regular-64" transform="translate(108.699966 0)"/>
      <use xlink:href="#NotoSansCJKjp-Regular-64" transform="translate(170.699951 0)"/>
      <use xlink:href="#NotoSansCJKjp-Regular-6c" transform="translate(232.699936 0)"/>
      <use xlink:href="#NotoSansCJKjp-Regular-65" transform="translate(261.199921 0)"/>
     </g>
    </g>
    <g id="patch_6">
     <path d="M 60.815313 74.287031 
L 80.815313 74.287031 
L 80.815313 67.287031 
L 60.815313 67.287031 
z
" style="fill: url(#hd3520117a5)"/>
    </g>
    <g id="text_19">
     <!-- End -->
     <g transform="translate(88.815313 74.287031) scale(0.1 -0.1)">
      <defs>
       <path id="NotoSansCJKjp-Regular-45" d="M 640 0 
L 3418 0 
L 3418 506 
L 1235 506 
L 1235 2214 
L 3014 2214 
L 3014 2720 
L 1235 2720 
L 1235 4192 
L 3347 4192 
L 3347 4698 
L 640 4698 
L 640 0 
z
" transform="scale(0.015625)"/>
      </defs>
      <use xlink:href="#NotoSansCJKjp-Regular-45"/>
      <use xlink:href="#NotoSansCJKjp-Regular-6e" transform="translate(58.799988 0)"/>
      <use xlink:href="#NotoSansCJKjp-Regular-64" transform="translate(119.899979 0)"/>
     </g>
    </g>
   </g>
  </g>
 </g>
 <defs>
  <clipPath id="p57801be2c7">
   <rect x="51.815313" y="11.577656" width="640.6" height="370.24"/>
  </clipPath>
 </defs>
 <defs>
  <pattern id="h057220a28f" patternUnits="userSpaceOnUse" x="0" y="0" width="72" height="72">
   <rect x="0" y="0" width="73" height="73" fill="#e6e6e6"/>
   <path d="M -36 36 
L 36 -36 
M -33 39 
L 39 -33 
M -30 42 
L 42 -30 
M -27 45 
L 45 -27 
M -24 48 
L 48 -24 
M -21 51 
L 51 -21 
M -18 54 
L 54 -18 
M -15 57 
L 57 -15 
M -12 60 
L 60 -12 
M -9 63 
L 63 -9 
M -6 66 
L 66 -6 
M -3 69 
L 69 -3 
M 0 72 
L 72 0 
M 3 75 
L 75 3 
M 6 78 
L 78 6 
M 9 81 
L 81 9 
M 12 84 
L 84 12 
M 15 87 
L 87 15 
M 18 90 
L 90 18 
M 21 93 
L 93 21 
M 24 96 
L 96 24 
M 27 99 
L 99 27 
M 30 102 
L 102 30 
M 33 105 
L 105 33 
M 36 108 
L 108 36 
" style="fill: #000000; stroke: #000000; stroke-width: 1.5; stroke-linecap: butt; stroke-linejoin: miter"/>
  </pattern>
  <pattern id="hde300b7826" patternUnits="userSpaceOnUse" x="0" y="0" width="72" height="72">
   <rect x="0" y="0" width="73" height="73" fill="#adadad"/>
   <path d="M -36 36 
L 36 108 
M -30 30 
L 42 102 
M -24 24 
L 48 96 
M -18 18 
L 54 90 
M -12 12 
L 60 84 
M -6 6 
L 66 78 
M 0 0 
L 72 72 
M 6 -6 
L 78 66 
M 12 -12 
L 84 60 
M 18 -18 
L 90 54 
M 24 -24 
L 96 48 
M 30 -30 
L 102 42 
M 36 -36 
L 108 36 
" style="fill: #000000; stroke: #000000; stroke-width: 1.5; stroke-linecap: butt; stroke-linejoin: miter"/>
  </pattern>
  <pattern id="h9d928dbe83" patternUnits="userSpaceOnUse" x="0" y="0" width="72" height="72">
   <rect x="0" y="0" width="73" height="73" fill="#737373"/>
   <path d="M -36 36 
L 36 -36 
M -33 39 
L 39 -33 
M -30 42 
L 42 -30 
M -27 45 
L 45 -27 
M -24 48 
L 48 -24 
M -21 51 
L 51 -21 
M -18 54 
L 54 -18 
M -15 57 
L 57 -15 
M -12 60 
L 60 -12 
M -9 63 
L 63 -9 
M -6 66 
L 66 -6 
M -3 69 
L 69 -3 
M 0 72 
L 72 0 
M 3 75 
L 75 3 
M 6 78 
L 78 6 
M 9 81 
L 81 9 
M 12 84 
L 84 12 
M 15 87 
L 87 15 
M 18 90 
L 90 18 
M 21 93 
L 93 21 
M 24 96 
L 96 24 
M 27 99 
L 99 27 
M 30 102 
L 102 30 
M 33 105 
L 105 33 
M 36 108 
L 108 36 
M -36 36 
L 36 108 
M -33 33 
L 39 105 
M -30 30 
L 42 102 
M -27 27 
L 45 99 
M -24 24 
L 48 96 
M -21 21 
L 51 93 
M -18 18 
L 54 90 
M -15 15 
L 57 87 
M -12 12 
L 60 84 
M -9 9 
L 63 81 
M -6 6 
L 66 78 
M -3 3 
L 69 75 
M 0 0 
L 72 72 
M 3 -3 
L 75 69 
M 6 -6 
L 78 66 
M 9 -9 
L 81 63 
M 12 -12 
L 84 60 
M 15 -15 
L 87 57 
M 18 -18 
L 90 54 
M 21 -21 
L 93 51 
M 24 -24 
L 96 48 
M 27 -27 
L 99 45 
M 30 -30 
L 102 42 
M 33 -33 
L 105 39 
M 36 -36 
L 108 36 
" style="fill: #000000; stroke: #000000; stroke-width: 1.5; stroke-linecap: butt; stroke-linejoin: miter"/>
  </pattern>
  <pattern id="hd3520117a5" patternUnits="userSpaceOnUse" x="0" y="0" width="72" height="72">
   <rect x="0" y="0" width="73" height="73" fill="#383838"/>
   <path d="M 0 70.5 
L 72 70.5 
M 0 67.5 
L 72 67.5 
M 0 64.5 
L 72 64.5 
M 0 61.5 
L 72 61.5 
M 0 58.5 
L 72 58.5 
M 0 55.5 
L 72 55.5 
M 0 52.5 
L 72 52.5 
M 0 49.5 
L 72 49.5 
M 0 46.5 
L 72 46.5 
M 0 43.5 
L 72 43.5 
M 0 40.5 
L 72 40.5 
M 0 37.5 
L 72 37.5 
M 0 34.5 
L 72 34.5 
M 0 31.5 
L 72 31.5 
M 0 28.5 
L 72 28.5 
M 0 25.5 
L 72 25.5 
M 0 22.5 
L 72 22.5 
M 0 19.5 
L 72 19.5 
M 0 16.5 
L 72 16.5 
M 0 13.5 
L 72 13.5 
M 0 10.5 
L 72 10.5 
M 0 7.5 
L 72 7.5 
M 0 4.5 
L 72 4.5 
M 0 1.5 
L 72 1.5 
" style="fill: #000000; stroke: #000000; stroke-width: 1.5; stroke-linecap: butt; stroke-linejoin: miter"/>
  </pattern>
 </defs>
</svg>
