<?xml version="1.0" encoding="utf-8" standalone="no"?>
<!DOCTYPE svg PUBLIC "-//W3C//DTD SVG 1.1//EN"
  "http://www.w3.org/Graphics/SVG/1.1/DTD/svg11.dtd">
<svg xmlns:xlink="http://www.w3.org/1999/xlink" width="313.290669pt" height="216.390625pt" viewBox="0 0 313.290669 216.390625" xmlns="http://www.w3.org/2000/svg" version="1.1">
 <metadata>
  <rdf:RDF xmlns:dc="http://purl.org/dc/elements/1.1/" xmlns:cc="http://creativecommons.org/ns#" xmlns:rdf="http://www.w3.org/1999/02/22-rdf-syntax-ns#">
   <cc:Work>
    <dc:type rdf:resource="http://purl.org/dc/dcmitype/StillImage"/>
    <dc:date>2026-04-28T10:19:35.058944</dc:date>
    <dc:format>image/svg+xml</dc:format>
    <dc:creator>
     <cc:Agent>
      <dc:title>Matplotlib v3.10.7, https://matplotlib.org/</dc:title>
     </cc:Agent>
    </dc:creator>
   </cc:Work>
  </rdf:RDF>
 </metadata>
 <defs>
  <style type="text/css">*{stroke-linejoin: round; stroke-linecap: butt}</style>
 </defs>
 <g id="figure_1">
  <g id="patch_1">
   <path d="M 0 216.390625 
L 313.290669 216.390625 
L 313.290669 0 
L 0 0 
z
" style="fill: #ffffff"/>
  </g>
  <g id="axes_1">
   <g id="patch_2">
    <path d="M 30.795 185.8 
L 306.090669 185.8 
L 306.090669 19.2 
L 30.795 19.2 
z
" style="fill: #ffffff"/>
   </g>
   <g id="matplotlib.axis_1">
    <g id="xtick_1">
     <g id="line2d_1">
      <path d="M 43.30844 185.8 
L 43.30844 19.2 
" clip-path="url(#p6a00f37faf)" style="fill: none; stroke-dasharray: 2.96,1.28; stroke-dashoffset: 0; stroke: #b0b0b0; stroke-opacity: 0.3; stroke-width: 0.8"/>
     </g>
     <g id="line2d_2">
      <defs>
       <path id="me8025bc70e" d="M 0 0 
L 0 3.5 
" style="stroke: #000000; stroke-width: 0.8"/>
      </defs>
      <g>
       <use xlink:href="#me8025bc70e" x="43.30844" y="185.8" style="stroke: #000000; stroke-width: 0.8"/>
      </g>
     </g>
     <g id="text_1">
      <!-- 2004 -->
      <g transform="translate(37.385315 197.3) scale(0.06 -0.06)">
       <defs>
        <path id="RobotoCondensed-Regular-32" d="M 2909 475 
L 2909 0 
L 366 0 
L 366 416 
L 1628 2088 
Q 1966 2541 2077 2802 
Q 2188 3063 2188 3328 
Q 2188 3663 2027 3900 
Q 1866 4138 1575 4138 
Q 1194 4138 1022 3878 
Q 850 3619 850 3213 
L 297 3213 
Q 297 3788 617 4200 
Q 938 4613 1575 4613 
Q 2125 4613 2433 4278 
Q 2741 3944 2741 3397 
Q 2741 2997 2541 2594 
Q 2341 2191 2047 1809 
L 1028 475 
L 2909 475 
z
" transform="scale(0.015625)"/>
        <path id="RobotoCondensed-Regular-30" d="M 2797 1944 
Q 2797 825 2467 381 
Q 2138 -63 1581 -63 
Q 1038 -63 703 370 
Q 369 803 359 1878 
L 359 2638 
Q 359 3753 695 4183 
Q 1031 4613 1578 4613 
Q 2131 4613 2461 4189 
Q 2791 3766 2797 2681 
L 2797 1944 
z
M 2247 2734 
Q 2247 3503 2073 3822 
Q 1900 4141 1578 4141 
Q 1266 4141 1092 3833 
Q 919 3525 913 2791 
L 913 1850 
Q 913 1088 1089 750 
Q 1266 413 1581 413 
Q 1903 413 2072 738 
Q 2241 1063 2247 1794 
L 2247 2734 
z
" transform="scale(0.015625)"/>
        <path id="RobotoCondensed-Regular-34" d="M 188 1397 
L 1878 4550 
L 2463 4550 
L 2463 1531 
L 2969 1531 
L 2969 1056 
L 2463 1056 
L 2463 0 
L 1909 0 
L 1909 1056 
L 188 1056 
L 188 1397 
z
M 803 1531 
L 1909 1531 
L 1909 3703 
L 1878 3638 
L 803 1531 
z
" transform="scale(0.015625)"/>
       </defs>
       <use xlink:href="#RobotoCondensed-Regular-32"/>
       <use xlink:href="#RobotoCondensed-Regular-30" transform="translate(49.365234 0)"/>
       <use xlink:href="#RobotoCondensed-Regular-30" transform="translate(98.730469 0)"/>
       <use xlink:href="#RobotoCondensed-Regular-34" transform="translate(148.095703 0)"/>
      </g>
     </g>
    </g>
    <g id="xtick_2">
     <g id="line2d_3">
      <path d="M 93.362198 185.8 
L 93.362198 19.2 
" clip-path="url(#p6a00f37faf)" style="fill: none; stroke-dasharray: 2.96,1.28; stroke-dashoffset: 0; stroke: #b0b0b0; stroke-opacity: 0.3; stroke-width: 0.8"/>
     </g>
     <g id="line2d_4">
      <g>
       <use xlink:href="#me8025bc70e" x="93.362198" y="185.8" style="stroke: #000000; stroke-width: 0.8"/>
      </g>
     </g>
     <g id="text_2">
      <!-- 2005 -->
      <g transform="translate(87.439073 197.3) scale(0.06 -0.06)">
       <defs>
        <path id="RobotoCondensed-Regular-35" d="M 1034 2166 
L 594 2284 
L 788 4550 
L 2769 4550 
L 2769 4016 
L 1253 4016 
L 1147 2778 
Q 1438 2975 1753 2975 
Q 2288 2975 2591 2561 
Q 2894 2147 2894 1450 
Q 2894 797 2584 367 
Q 2275 -63 1656 -63 
Q 1194 -63 850 248 
Q 506 559 453 1197 
L 975 1197 
Q 1066 413 1656 413 
Q 1978 413 2159 691 
Q 2341 969 2341 1444 
Q 2341 1872 2153 2164 
Q 1966 2456 1619 2456 
Q 1384 2456 1273 2378 
Q 1163 2300 1034 2166 
z
" transform="scale(0.015625)"/>
       </defs>
       <use xlink:href="#RobotoCondensed-Regular-32"/>
       <use xlink:href="#RobotoCondensed-Regular-30" transform="translate(49.365234 0)"/>
       <use xlink:href="#RobotoCondensed-Regular-30" transform="translate(98.730469 0)"/>
       <use xlink:href="#RobotoCondensed-Regular-35" transform="translate(148.095703 0)"/>
      </g>
     </g>
    </g>
    <g id="xtick_3">
     <g id="line2d_5">
      <path d="M 143.415956 185.8 
L 143.415956 19.2 
" clip-path="url(#p6a00f37faf)" style="fill: none; stroke-dasharray: 2.96,1.28; stroke-dashoffset: 0; stroke: #b0b0b0; stroke-opacity: 0.3; stroke-width: 0.8"/>
     </g>
     <g id="line2d_6">
      <g>
       <use xlink:href="#me8025bc70e" x="143.415956" y="185.8" style="stroke: #000000; stroke-width: 0.8"/>
      </g>
     </g>
     <g id="text_3">
      <!-- 2006 -->
      <g transform="translate(137.492831 197.3) scale(0.06 -0.06)">
       <defs>
        <path id="RobotoCondensed-Regular-36" d="M 2847 1484 
Q 2847 838 2544 387 
Q 2241 -63 1641 -63 
Q 1216 -63 944 198 
Q 672 459 542 861 
Q 413 1263 413 1684 
L 413 1956 
Q 413 2438 481 2900 
Q 550 3363 742 3738 
Q 934 4113 1296 4334 
Q 1659 4556 2291 4556 
L 2291 4066 
Q 1775 4066 1508 3859 
Q 1241 3653 1122 3318 
Q 1003 2984 978 2606 
Q 1272 2984 1750 2984 
Q 2138 2984 2380 2765 
Q 2622 2547 2734 2201 
Q 2847 1856 2847 1484 
z
M 969 1666 
Q 969 1059 1180 737 
Q 1391 416 1641 416 
Q 1959 416 2129 708 
Q 2300 1000 2300 1456 
Q 2300 1863 2144 2184 
Q 1988 2506 1659 2506 
Q 1425 2506 1236 2329 
Q 1047 2153 969 1900 
L 969 1666 
z
" transform="scale(0.015625)"/>
       </defs>
       <use xlink:href="#RobotoCondensed-Regular-32"/>
       <use xlink:href="#RobotoCondensed-Regular-30" transform="translate(49.365234 0)"/>
       <use xlink:href="#RobotoCondensed-Regular-30" transform="translate(98.730469 0)"/>
       <use xlink:href="#RobotoCondensed-Regular-36" transform="translate(148.095703 0)"/>
      </g>
     </g>
    </g>
    <g id="xtick_4">
     <g id="line2d_7">
      <path d="M 193.469714 185.8 
L 193.469714 19.2 
" clip-path="url(#p6a00f37faf)" style="fill: none; stroke-dasharray: 2.96,1.28; stroke-dashoffset: 0; stroke: #b0b0b0; stroke-opacity: 0.3; stroke-width: 0.8"/>
     </g>
     <g id="line2d_8">
      <g>
       <use xlink:href="#me8025bc70e" x="193.469714" y="185.8" style="stroke: #000000; stroke-width: 0.8"/>
      </g>
     </g>
     <g id="text_4">
      <!-- 2007 -->
      <g transform="translate(187.546589 197.3) scale(0.06 -0.06)">
       <defs>
        <path id="RobotoCondensed-Regular-37" d="M 2878 4550 
L 2878 4225 
L 1313 0 
L 731 0 
L 2297 4075 
L 269 4075 
L 269 4550 
L 2878 4550 
z
" transform="scale(0.015625)"/>
       </defs>
       <use xlink:href="#RobotoCondensed-Regular-32"/>
       <use xlink:href="#RobotoCondensed-Regular-30" transform="translate(49.365234 0)"/>
       <use xlink:href="#RobotoCondensed-Regular-30" transform="translate(98.730469 0)"/>
       <use xlink:href="#RobotoCondensed-Regular-37" transform="translate(148.095703 0)"/>
      </g>
     </g>
    </g>
    <g id="xtick_5">
     <g id="line2d_9">
      <path d="M 243.523472 185.8 
L 243.523472 19.2 
" clip-path="url(#p6a00f37faf)" style="fill: none; stroke-dasharray: 2.96,1.28; stroke-dashoffset: 0; stroke: #b0b0b0; stroke-opacity: 0.3; stroke-width: 0.8"/>
     </g>
     <g id="line2d_10">
      <g>
       <use xlink:href="#me8025bc70e" x="243.523472" y="185.8" style="stroke: #000000; stroke-width: 0.8"/>
      </g>
     </g>
     <g id="text_5">
      <!-- 2008 -->
      <g transform="translate(237.600347 197.3) scale(0.06 -0.06)">
       <defs>
        <path id="RobotoCondensed-Regular-38" d="M 2794 1231 
Q 2794 606 2445 271 
Q 2097 -63 1578 -63 
Q 1063 -63 714 273 
Q 366 609 366 1231 
Q 366 1613 536 1905 
Q 706 2197 1000 2347 
Q 450 2666 450 3366 
Q 450 3963 769 4288 
Q 1088 4613 1581 4613 
Q 2075 4613 2392 4288 
Q 2709 3963 2709 3366 
Q 2709 3028 2557 2761 
Q 2406 2494 2150 2344 
Q 2444 2194 2619 1901 
Q 2794 1609 2794 1231 
z
M 2156 3356 
Q 2156 3697 2000 3917 
Q 1844 4138 1581 4138 
Q 1319 4138 1161 3927 
Q 1003 3716 1003 3356 
Q 1003 3003 1159 2790 
Q 1316 2578 1581 2578 
Q 1844 2578 2000 2790 
Q 2156 3003 2156 3356 
z
M 2244 1244 
Q 2244 1625 2061 1865 
Q 1878 2106 1575 2106 
Q 1266 2106 1091 1865 
Q 916 1625 916 1244 
Q 916 850 1089 631 
Q 1263 413 1578 413 
Q 1897 413 2070 631 
Q 2244 850 2244 1244 
z
" transform="scale(0.015625)"/>
       </defs>
       <use xlink:href="#RobotoCondensed-Regular-32"/>
       <use xlink:href="#RobotoCondensed-Regular-30" transform="translate(49.365234 0)"/>
       <use xlink:href="#RobotoCondensed-Regular-30" transform="translate(98.730469 0)"/>
       <use xlink:href="#RobotoCondensed-Regular-38" transform="translate(148.095703 0)"/>
      </g>
     </g>
    </g>
    <g id="xtick_6">
     <g id="line2d_11">
      <path d="M 293.57723 185.8 
L 293.57723 19.2 
" clip-path="url(#p6a00f37faf)" style="fill: none; stroke-dasharray: 2.96,1.28; stroke-dashoffset: 0; stroke: #b0b0b0; stroke-opacity: 0.3; stroke-width: 0.8"/>
     </g>
     <g id="line2d_12">
      <g>
       <use xlink:href="#me8025bc70e" x="293.57723" y="185.8" style="stroke: #000000; stroke-width: 0.8"/>
      </g>
     </g>
     <g id="text_6">
      <!-- 2009 -->
      <g transform="translate(287.654105 197.3) scale(0.06 -0.06)">
       <defs>
        <path id="RobotoCondensed-Regular-39" d="M 2744 2563 
Q 2744 2119 2687 1667 
Q 2631 1216 2450 836 
Q 2269 456 1903 225 
Q 1538 -6 869 -6 
L 866 484 
Q 1428 484 1698 690 
Q 1969 897 2072 1233 
Q 2175 1569 2191 1950 
Q 1859 1522 1413 1522 
Q 1025 1522 786 1747 
Q 547 1972 436 2320 
Q 325 2669 325 3041 
Q 325 3691 623 4152 
Q 922 4613 1522 4613 
Q 1969 4613 2237 4344 
Q 2506 4075 2625 3653 
Q 2744 3231 2744 2772 
L 2744 2563 
z
M 866 3072 
Q 866 2666 1020 2334 
Q 1175 2003 1506 2003 
Q 1716 2003 1906 2179 
Q 2097 2356 2194 2616 
L 2194 2850 
Q 2194 3472 1983 3803 
Q 1772 4134 1522 4134 
Q 1206 4134 1036 3829 
Q 866 3525 866 3072 
z
" transform="scale(0.015625)"/>
       </defs>
       <use xlink:href="#RobotoCondensed-Regular-32"/>
       <use xlink:href="#RobotoCondensed-Regular-30" transform="translate(49.365234 0)"/>
       <use xlink:href="#RobotoCondensed-Regular-30" transform="translate(98.730469 0)"/>
       <use xlink:href="#RobotoCondensed-Regular-39" transform="translate(148.095703 0)"/>
      </g>
     </g>
    </g>
    <g id="text_7">
     <!-- Year -->
     <g transform="translate(162.222132 207.76875) scale(0.07 -0.07)">
      <defs>
       <path id="RobotoCondensed-Regular-59" d="M 747 4550 
L 1675 2266 
L 2606 4550 
L 3256 4550 
L 1963 1700 
L 1963 0 
L 1388 0 
L 1388 1700 
L 94 4550 
L 747 4550 
z
" transform="scale(0.015625)"/>
       <path id="RobotoCondensed-Regular-65" d="M 2722 447 
Q 2584 253 2323 95 
Q 2063 -63 1625 -63 
Q 1019 -63 666 301 
Q 313 666 309 1431 
L 309 1828 
Q 309 2722 696 3083 
Q 1084 3444 1563 3444 
Q 2197 3444 2472 3034 
Q 2747 2625 2747 1850 
L 2747 1528 
L 863 1528 
L 863 1447 
Q 863 906 1067 657 
Q 1272 409 1656 409 
Q 1934 409 2114 517 
Q 2294 625 2431 794 
L 2722 447 
z
M 1563 2969 
Q 1275 2969 1084 2770 
Q 894 2572 866 2000 
L 2194 2000 
L 2194 2078 
Q 2172 2469 2048 2719 
Q 1925 2969 1563 2969 
z
" transform="scale(0.015625)"/>
       <path id="RobotoCondensed-Regular-61" d="M 2156 0 
Q 2103 122 2081 366 
Q 1966 194 1775 65 
Q 1584 -63 1334 -63 
Q 891 -63 623 187 
Q 356 438 356 922 
Q 356 1409 690 1729 
Q 1025 2050 1691 2050 
L 2072 2050 
L 2072 2413 
Q 2072 2713 1936 2841 
Q 1800 2969 1528 2969 
Q 1263 2969 1114 2812 
Q 966 2656 966 2444 
L 413 2444 
Q 413 2806 722 3125 
Q 1031 3444 1556 3444 
Q 2025 3444 2325 3209 
Q 2625 2975 2625 2406 
L 2625 794 
Q 2625 316 2728 50 
L 2728 0 
L 2156 0 
z
M 1419 441 
Q 1653 441 1825 562 
Q 1997 684 2072 834 
L 2072 1644 
L 1781 1644 
Q 1384 1644 1146 1475 
Q 909 1306 909 991 
Q 909 688 1036 564 
Q 1163 441 1419 441 
z
" transform="scale(0.015625)"/>
       <path id="RobotoCondensed-Regular-72" d="M 1563 2888 
Q 1138 2888 969 2425 
L 969 0 
L 416 0 
L 416 3381 
L 950 3381 
L 963 3041 
Q 1184 3444 1591 3444 
Q 1738 3444 1809 3400 
L 1813 2863 
Q 1691 2888 1563 2888 
z
" transform="scale(0.015625)"/>
      </defs>
      <use xlink:href="#RobotoCondensed-Regular-59"/>
      <use xlink:href="#RobotoCondensed-Regular-65" transform="translate(52.490234 0)"/>
      <use xlink:href="#RobotoCondensed-Regular-61" transform="translate(99.365234 0)"/>
      <use xlink:href="#RobotoCondensed-Regular-72" transform="translate(147.265625 0)"/>
     </g>
    </g>
   </g>
   <g id="matplotlib.axis_2">
    <g id="ytick_1">
     <g id="line2d_13">
      <path d="M 30.795 185.8 
L 306.090669 185.8 
" clip-path="url(#p6a00f37faf)" style="fill: none; stroke-dasharray: 2.96,1.28; stroke-dashoffset: 0; stroke: #b0b0b0; stroke-opacity: 0.3; stroke-width: 0.8"/>
     </g>
     <g id="line2d_14">
      <defs>
       <path id="mde03acd2e2" d="M 0 0 
L -3.5 0 
" style="stroke: #000000; stroke-width: 0.8"/>
      </defs>
      <g>
       <use xlink:href="#mde03acd2e2" x="30.795" y="185.8" style="stroke: #000000; stroke-width: 0.8"/>
      </g>
     </g>
     <g id="text_8">
      <!-- 0 -->
      <g transform="translate(20.833438 188.05) scale(0.06 -0.06)">
       <use xlink:href="#RobotoCondensed-Regular-30"/>
      </g>
     </g>
    </g>
    <g id="ytick_2">
     <g id="line2d_15">
      <path d="M 30.795 164.844025 
L 306.090669 164.844025 
" clip-path="url(#p6a00f37faf)" style="fill: none; stroke-dasharray: 2.96,1.28; stroke-dashoffset: 0; stroke: #b0b0b0; stroke-opacity: 0.3; stroke-width: 0.8"/>
     </g>
     <g id="line2d_16">
      <g>
       <use xlink:href="#mde03acd2e2" x="30.795" y="164.844025" style="stroke: #000000; stroke-width: 0.8"/>
      </g>
     </g>
     <g id="text_9">
      <!-- 10 -->
      <g transform="translate(17.871875 167.094025) scale(0.06 -0.06)">
       <defs>
        <path id="RobotoCondensed-Regular-31" d="M 2013 4575 
L 2013 0 
L 1459 0 
L 1459 3853 
L 503 3428 
L 503 3950 
L 1928 4575 
L 2013 4575 
z
" transform="scale(0.015625)"/>
       </defs>
       <use xlink:href="#RobotoCondensed-Regular-31"/>
       <use xlink:href="#RobotoCondensed-Regular-30" transform="translate(49.365234 0)"/>
      </g>
     </g>
    </g>
    <g id="ytick_3">
     <g id="line2d_17">
      <path d="M 30.795 143.88805 
L 306.090669 143.88805 
" clip-path="url(#p6a00f37faf)" style="fill: none; stroke-dasharray: 2.96,1.28; stroke-dashoffset: 0; stroke: #b0b0b0; stroke-opacity: 0.3; stroke-width: 0.8"/>
     </g>
     <g id="line2d_18">
      <g>
       <use xlink:href="#mde03acd2e2" x="30.795" y="143.88805" style="stroke: #000000; stroke-width: 0.8"/>
      </g>
     </g>
     <g id="text_10">
      <!-- 20 -->
      <g transform="translate(17.871875 146.13805) scale(0.06 -0.06)">
       <use xlink:href="#RobotoCondensed-Regular-32"/>
       <use xlink:href="#RobotoCondensed-Regular-30" transform="translate(49.365234 0)"/>
      </g>
     </g>
    </g>
    <g id="ytick_4">
     <g id="line2d_19">
      <path d="M 30.795 122.932075 
L 306.090669 122.932075 
" clip-path="url(#p6a00f37faf)" style="fill: none; stroke-dasharray: 2.96,1.28; stroke-dashoffset: 0; stroke: #b0b0b0; stroke-opacity: 0.3; stroke-width: 0.8"/>
     </g>
     <g id="line2d_20">
      <g>
       <use xlink:href="#mde03acd2e2" x="30.795" y="122.932075" style="stroke: #000000; stroke-width: 0.8"/>
      </g>
     </g>
     <g id="text_11">
      <!-- 30 -->
      <g transform="translate(17.871875 125.182075) scale(0.06 -0.06)">
       <defs>
        <path id="RobotoCondensed-Regular-33" d="M 1075 2084 
L 1075 2559 
L 1431 2559 
Q 1788 2559 1961 2781 
Q 2134 3003 2134 3338 
Q 2134 4138 1519 4138 
Q 1228 4138 1054 3927 
Q 881 3716 881 3359 
L 331 3359 
Q 331 3881 653 4247 
Q 975 4613 1519 4613 
Q 2038 4613 2363 4286 
Q 2688 3959 2688 3325 
Q 2688 3072 2550 2786 
Q 2413 2500 2100 2338 
Q 2484 2194 2612 1886 
Q 2741 1578 2741 1269 
Q 2741 631 2389 284 
Q 2038 -63 1516 -63 
Q 1006 -63 656 267 
Q 306 597 306 1203 
L 859 1203 
Q 859 844 1032 628 
Q 1206 413 1516 413 
Q 1822 413 2005 622 
Q 2188 831 2188 1256 
Q 2188 2084 1403 2084 
L 1075 2084 
z
" transform="scale(0.015625)"/>
       </defs>
       <use xlink:href="#RobotoCondensed-Regular-33"/>
       <use xlink:href="#RobotoCondensed-Regular-30" transform="translate(49.365234 0)"/>
      </g>
     </g>
    </g>
    <g id="ytick_5">
     <g id="line2d_21">
      <path d="M 30.795 101.976101 
L 306.090669 101.976101 
" clip-path="url(#p6a00f37faf)" style="fill: none; stroke-dasharray: 2.96,1.28; stroke-dashoffset: 0; stroke: #b0b0b0; stroke-opacity: 0.3; stroke-width: 0.8"/>
     </g>
     <g id="line2d_22">
      <g>
       <use xlink:href="#mde03acd2e2" x="30.795" y="101.976101" style="stroke: #000000; stroke-width: 0.8"/>
      </g>
     </g>
     <g id="text_12">
      <!-- 40 -->
      <g transform="translate(17.871875 104.226101) scale(0.06 -0.06)">
       <use xlink:href="#RobotoCondensed-Regular-34"/>
       <use xlink:href="#RobotoCondensed-Regular-30" transform="translate(49.365234 0)"/>
      </g>
     </g>
    </g>
    <g id="ytick_6">
     <g id="line2d_23">
      <path d="M 30.795 81.020126 
L 306.090669 81.020126 
" clip-path="url(#p6a00f37faf)" style="fill: none; stroke-dasharray: 2.96,1.28; stroke-dashoffset: 0; stroke: #b0b0b0; stroke-opacity: 0.3; stroke-width: 0.8"/>
     </g>
     <g id="line2d_24">
      <g>
       <use xlink:href="#mde03acd2e2" x="30.795" y="81.020126" style="stroke: #000000; stroke-width: 0.8"/>
      </g>
     </g>
     <g id="text_13">
      <!-- 50 -->
      <g transform="translate(17.871875 83.270126) scale(0.06 -0.06)">
       <use xlink:href="#RobotoCondensed-Regular-35"/>
       <use xlink:href="#RobotoCondensed-Regular-30" transform="translate(49.365234 0)"/>
      </g>
     </g>
    </g>
    <g id="ytick_7">
     <g id="line2d_25">
      <path d="M 30.795 60.064151 
L 306.090669 60.064151 
" clip-path="url(#p6a00f37faf)" style="fill: none; stroke-dasharray: 2.96,1.28; stroke-dashoffset: 0; stroke: #b0b0b0; stroke-opacity: 0.3; stroke-width: 0.8"/>
     </g>
     <g id="line2d_26">
      <g>
       <use xlink:href="#mde03acd2e2" x="30.795" y="60.064151" style="stroke: #000000; stroke-width: 0.8"/>
      </g>
     </g>
     <g id="text_14">
      <!-- 60 -->
      <g transform="translate(17.871875 62.314151) scale(0.06 -0.06)">
       <use xlink:href="#RobotoCondensed-Regular-36"/>
       <use xlink:href="#RobotoCondensed-Regular-30" transform="translate(49.365234 0)"/>
      </g>
     </g>
    </g>
    <g id="ytick_8">
     <g id="line2d_27">
      <path d="M 30.795 39.108176 
L 306.090669 39.108176 
" clip-path="url(#p6a00f37faf)" style="fill: none; stroke-dasharray: 2.96,1.28; stroke-dashoffset: 0; stroke: #b0b0b0; stroke-opacity: 0.3; stroke-width: 0.8"/>
     </g>
     <g id="line2d_28">
      <g>
       <use xlink:href="#mde03acd2e2" x="30.795" y="39.108176" style="stroke: #000000; stroke-width: 0.8"/>
      </g>
     </g>
     <g id="text_15">
      <!-- 70 -->
      <g transform="translate(17.871875 41.358176) scale(0.06 -0.06)">
       <use xlink:href="#RobotoCondensed-Regular-37"/>
       <use xlink:href="#RobotoCondensed-Regular-30" transform="translate(49.365234 0)"/>
      </g>
     </g>
    </g>
    <g id="text_16">
     <!-- Common Names Count -->
     <g transform="translate(12.45 134.453359) rotate(-90) scale(0.07 -0.07)">
      <defs>
       <path id="RobotoCondensed-Regular-43" d="M 2769 1447 
L 3344 1447 
Q 3313 744 2950 340 
Q 2588 -63 1878 -63 
Q 1194 -63 792 457 
Q 391 978 391 1856 
L 391 2697 
Q 391 3572 798 4092 
Q 1206 4613 1931 4613 
Q 2594 4613 2953 4219 
Q 3313 3825 3344 3091 
L 2769 3091 
Q 2734 3628 2543 3873 
Q 2353 4119 1931 4119 
Q 1431 4119 1198 3731 
Q 966 3344 966 2703 
L 966 1856 
Q 966 1259 1170 843 
Q 1375 428 1878 428 
Q 2350 428 2537 665 
Q 2725 903 2769 1447 
z
" transform="scale(0.015625)"/>
       <path id="RobotoCondensed-Regular-6f" d="M 300 1850 
Q 300 2641 678 3042 
Q 1056 3444 1603 3444 
Q 2156 3444 2536 3042 
Q 2916 2641 2916 1850 
L 2916 1528 
Q 2916 738 2536 337 
Q 2156 -63 1609 -63 
Q 1059 -63 679 337 
Q 300 738 300 1528 
L 300 1850 
z
M 853 1528 
Q 853 969 1068 689 
Q 1284 409 1609 409 
Q 2341 409 2363 1466 
L 2363 1850 
Q 2363 2403 2145 2686 
Q 1928 2969 1603 2969 
Q 1281 2969 1067 2686 
Q 853 2403 853 1850 
L 853 1528 
z
" transform="scale(0.015625)"/>
       <path id="RobotoCondensed-Regular-6d" d="M 1556 2956 
Q 1141 2956 969 2544 
L 969 0 
L 419 0 
L 419 3381 
L 938 3381 
L 953 3075 
Q 1256 3444 1766 3444 
Q 2325 3444 2553 2953 
Q 2872 3444 3441 3444 
Q 3903 3444 4151 3153 
Q 4400 2863 4400 2222 
L 4400 0 
L 3847 0 
L 3847 2228 
Q 3847 2653 3692 2804 
Q 3538 2956 3272 2956 
Q 3016 2956 2864 2757 
Q 2713 2559 2684 2272 
L 2684 0 
L 2131 0 
L 2131 2272 
Q 2116 2956 1556 2956 
z
" transform="scale(0.015625)"/>
       <path id="RobotoCondensed-Regular-6e" d="M 1603 2956 
Q 1400 2956 1236 2818 
Q 1072 2681 969 2459 
L 969 0 
L 416 0 
L 416 3381 
L 938 3381 
L 953 3022 
Q 1275 3444 1775 3444 
Q 2191 3444 2437 3162 
Q 2684 2881 2684 2216 
L 2684 0 
L 2131 0 
L 2131 2222 
Q 2131 2619 2000 2787 
Q 1869 2956 1603 2956 
z
" transform="scale(0.015625)"/>
       <path id="RobotoCondensed-Regular-20" transform="scale(0.015625)"/>
       <path id="RobotoCondensed-Regular-4e" d="M 3466 4550 
L 3466 0 
L 2888 0 
L 1066 3509 
L 1066 0 
L 491 0 
L 491 4550 
L 1066 4550 
L 2897 1031 
L 2897 4550 
L 3466 4550 
z
" transform="scale(0.015625)"/>
       <path id="RobotoCondensed-Regular-73" d="M 2056 866 
Q 2056 1059 1907 1190 
Q 1759 1322 1340 1500 
Q 922 1678 681 1863 
Q 409 2072 409 2484 
Q 409 2888 703 3166 
Q 997 3444 1481 3444 
Q 2000 3444 2287 3150 
Q 2575 2856 2575 2419 
L 2025 2419 
Q 2025 2628 1884 2798 
Q 1744 2969 1481 2969 
Q 1203 2969 1083 2828 
Q 963 2688 963 2503 
Q 963 2319 1081 2217 
Q 1200 2116 1553 1959 
Q 2066 1756 2337 1537 
Q 2609 1319 2609 909 
Q 2609 463 2303 200 
Q 1997 -63 1494 -63 
Q 919 -63 616 265 
Q 313 594 313 1013 
L 866 1013 
Q 881 653 1081 533 
Q 1281 413 1494 413 
Q 2056 413 2056 866 
z
" transform="scale(0.015625)"/>
       <path id="RobotoCondensed-Regular-75" d="M 2153 0 
L 2144 297 
Q 1863 -63 1338 -63 
Q 919 -63 662 231 
Q 406 525 406 1200 
L 406 3381 
L 956 3381 
L 956 1178 
Q 959 731 1107 579 
Q 1256 428 1431 428 
Q 1931 428 2125 881 
L 2125 3381 
L 2678 3381 
L 2678 0 
L 2153 0 
z
" transform="scale(0.015625)"/>
       <path id="RobotoCondensed-Regular-74" d="M 1647 0 
Q 1488 -63 1259 -63 
Q 991 -63 789 134 
Q 588 331 588 841 
L 588 2938 
L 72 2938 
L 72 3381 
L 588 3381 
L 588 4203 
L 1141 4203 
L 1141 3381 
L 1650 3381 
L 1650 2938 
L 1141 2938 
L 1141 838 
Q 1141 578 1230 506 
Q 1319 434 1431 434 
Q 1550 434 1650 472 
L 1647 0 
z
" transform="scale(0.015625)"/>
      </defs>
      <use xlink:href="#RobotoCondensed-Regular-43"/>
      <use xlink:href="#RobotoCondensed-Regular-6f" transform="translate(56.689453 0)"/>
      <use xlink:href="#RobotoCondensed-Regular-6d" transform="translate(106.884766 0)"/>
      <use xlink:href="#RobotoCondensed-Regular-6d" transform="translate(182.177734 0)"/>
      <use xlink:href="#RobotoCondensed-Regular-6f" transform="translate(257.470703 0)"/>
      <use xlink:href="#RobotoCondensed-Regular-6e" transform="translate(307.666016 0)"/>
      <use xlink:href="#RobotoCondensed-Regular-20" transform="translate(356.103516 0)"/>
      <use xlink:href="#RobotoCondensed-Regular-4e" transform="translate(379.052734 0)"/>
      <use xlink:href="#RobotoCondensed-Regular-61" transform="translate(441.015625 0)"/>
      <use xlink:href="#RobotoCondensed-Regular-6d" transform="translate(488.916016 0)"/>
      <use xlink:href="#RobotoCondensed-Regular-65" transform="translate(564.208984 0)"/>
      <use xlink:href="#RobotoCondensed-Regular-73" transform="translate(611.083984 0)"/>
      <use xlink:href="#RobotoCondensed-Regular-20" transform="translate(656.689453 0)"/>
      <use xlink:href="#RobotoCondensed-Regular-43" transform="translate(679.638672 0)"/>
      <use xlink:href="#RobotoCondensed-Regular-6f" transform="translate(736.328125 0)"/>
      <use xlink:href="#RobotoCondensed-Regular-75" transform="translate(786.523438 0)"/>
      <use xlink:href="#RobotoCondensed-Regular-6e" transform="translate(834.863281 0)"/>
      <use xlink:href="#RobotoCondensed-Regular-74" transform="translate(883.300781 0)"/>
     </g>
    </g>
   </g>
   <g id="line2d_29">
    <path d="M 43.30844 39.108176 
L 50.004594 39.841722 
L 57.537769 40.435465 
L 65.907962 40.857973 
L 75.952195 41.115589 
L 89.344505 41.20269 
L 96.04066 41.099613 
L 99.388737 40.700847 
L 102.736814 40.04582 
L 106.084892 39.179687 
L 110.269989 37.868948 
L 116.129124 35.766222 
L 127.010376 31.796953 
L 131.195473 30.512672 
L 134.54355 29.675327 
L 137.891628 29.05586 
L 141.239705 28.699428 
L 144.587783 28.632459 
L 152.957976 28.767986 
L 163.839228 29.185608 
L 183.090674 30.219827 
L 224.941642 32.350982 
L 235.822894 32.729815 
L 244.193087 32.819888 
L 250.052223 32.683422 
L 255.911358 32.339713 
L 262.607513 31.719004 
L 269.303668 30.884054 
L 276.836842 29.726134 
L 285.207036 28.218362 
L 293.57723 26.534591 
L 293.57723 26.534591 
" clip-path="url(#p6a00f37faf)" style="fill: none; stroke-dasharray: 0.9,1.485; stroke-dashoffset: 0; stroke: #000000; stroke-width: 0.9"/>
   </g>
   <g id="line2d_30">
    <path d="M 43.30844 24.438994 
L 106.084892 27.168229 
L 129.521434 28.352052 
L 139.565667 28.606343 
L 147.098841 28.586478 
L 153.794996 28.307137 
L 161.32817 27.748788 
L 171.372402 26.745522 
L 193.134906 24.467215 
L 202.342119 23.587727 
L 229.126739 20.841532 
L 236.659913 20.394606 
L 242.519048 20.25114 
L 246.704145 20.326843 
L 250.889242 20.66222 
L 255.074339 21.243613 
L 259.259436 22.052649 
L 263.444533 23.070953 
L 268.466649 24.543282 
L 273.488765 26.258748 
L 279.347901 28.525066 
L 285.207036 31.028687 
L 292.74021 34.515178 
L 293.57723 34.916981 
L 293.57723 34.916981 
" clip-path="url(#p6a00f37faf)" style="fill: none; stroke-dasharray: 5.76,1.44,0.9,1.44; stroke-dashoffset: 0; stroke: #000000; stroke-width: 0.9"/>
   </g>
   <g id="patch_3">
    <path d="M 30.795 185.8 
L 30.795 19.2 
" style="fill: none; stroke: #000000; stroke-width: 0.8; stroke-linejoin: miter; stroke-linecap: square"/>
   </g>
   <g id="patch_4">
    <path d="M 30.795 185.8 
L 306.090669 185.8 
" style="fill: none; stroke: #000000; stroke-width: 0.8; stroke-linejoin: miter; stroke-linecap: square"/>
   </g>
   <g id="text_17">
    <!-- Common Names Count Over Time -->
    <g transform="translate(114.59971 13.2) scale(0.08 -0.08)">
     <defs>
      <path id="RobotoCondensed-Bold-43" d="M 2531 1519 
L 3450 1519 
Q 3419 744 3012 340 
Q 2606 -63 1875 -63 
Q 1125 -63 709 428 
Q 294 919 284 1844 
L 284 2659 
Q 284 3613 714 4114 
Q 1144 4616 1887 4616 
Q 2631 4616 3018 4198 
Q 3406 3781 3456 3006 
L 2538 3006 
Q 2522 3494 2384 3673 
Q 2247 3853 1888 3853 
Q 1534 3853 1371 3600 
Q 1209 3347 1203 2716 
L 1203 1888 
Q 1203 1244 1343 972 
Q 1484 700 1875 700 
Q 2216 700 2366 862 
Q 2516 1025 2531 1519 
z
" transform="scale(0.015625)"/>
      <path id="RobotoCondensed-Bold-6f" d="M 222 1800 
Q 222 2597 592 3020 
Q 963 3444 1588 3444 
Q 2219 3444 2589 3020 
Q 2959 2597 2959 1800 
L 2959 1578 
Q 2959 781 2589 359 
Q 2219 -63 1594 -63 
Q 966 -63 594 359 
Q 222 781 222 1578 
L 222 1800 
z
M 1106 1578 
Q 1106 672 1594 672 
Q 2059 672 2075 1522 
L 2075 1800 
Q 2075 2709 1588 2709 
Q 1122 2709 1106 1856 
L 1106 1578 
z
" transform="scale(0.015625)"/>
      <path id="RobotoCondensed-Bold-6d" d="M 1572 2706 
Q 1341 2706 1213 2466 
L 1213 0 
L 328 0 
L 328 3381 
L 1156 3381 
L 1181 3069 
Q 1475 3444 1963 3444 
Q 2466 3444 2681 2991 
Q 2972 3444 3506 3444 
Q 3916 3444 4166 3153 
Q 4416 2863 4416 2153 
L 4416 0 
L 3531 0 
L 3531 2153 
Q 3531 2491 3437 2598 
Q 3344 2706 3175 2706 
Q 2925 2706 2809 2400 
L 2813 0 
L 1931 0 
L 1931 2147 
Q 1931 2481 1837 2593 
Q 1744 2706 1572 2706 
z
" transform="scale(0.015625)"/>
      <path id="RobotoCondensed-Bold-6e" d="M 1563 2706 
Q 1322 2706 1188 2456 
L 1188 0 
L 303 0 
L 303 3381 
L 1131 3381 
L 1156 3050 
Q 1459 3444 1944 3444 
Q 2341 3444 2589 3156 
Q 2838 2869 2838 2150 
L 2838 0 
L 1953 0 
L 1953 2156 
Q 1953 2478 1854 2592 
Q 1756 2706 1563 2706 
z
" transform="scale(0.015625)"/>
      <path id="RobotoCondensed-Bold-20" transform="scale(0.015625)"/>
      <path id="RobotoCondensed-Bold-4e" d="M 3550 4550 
L 3550 0 
L 2631 0 
L 1288 2984 
L 1288 0 
L 366 0 
L 366 4550 
L 1288 4550 
L 2631 1563 
L 2631 4550 
L 3550 4550 
z
" transform="scale(0.015625)"/>
      <path id="RobotoCondensed-Bold-61" d="M 1928 0 
Q 1881 106 1853 263 
Q 1613 -63 1209 -63 
Q 800 -63 514 212 
Q 228 488 228 947 
Q 228 1463 559 1764 
Q 891 2066 1572 2066 
L 1809 2066 
L 1809 2338 
Q 1809 2753 1503 2753 
Q 1172 2753 1172 2366 
L 288 2366 
Q 288 2809 623 3126 
Q 959 3444 1528 3444 
Q 2031 3444 2364 3181 
Q 2697 2919 2697 2325 
L 2697 738 
Q 2703 288 2819 53 
L 2819 0 
L 1928 0 
z
M 1409 634 
Q 1553 634 1656 693 
Q 1759 753 1809 834 
L 1809 1538 
L 1600 1538 
Q 1350 1538 1231 1384 
Q 1113 1231 1113 1009 
Q 1113 634 1409 634 
z
" transform="scale(0.015625)"/>
      <path id="RobotoCondensed-Bold-65" d="M 2834 444 
Q 2700 263 2411 100 
Q 2122 -63 1688 -63 
Q 997 -63 620 350 
Q 244 763 244 1497 
L 244 1775 
Q 244 2597 601 3020 
Q 959 3444 1596 3444 
Q 2234 3444 2556 3041 
Q 2878 2638 2884 1831 
L 2884 1397 
L 1131 1397 
Q 1147 994 1305 833 
Q 1463 672 1747 672 
Q 2194 672 2484 978 
L 2834 444 
z
M 1594 2709 
Q 1363 2709 1258 2545 
Q 1153 2381 1134 2016 
L 2019 2016 
L 2019 2094 
Q 2013 2400 1919 2554 
Q 1825 2709 1594 2709 
z
" transform="scale(0.015625)"/>
      <path id="RobotoCondensed-Bold-73" d="M 1819 906 
Q 1819 1038 1684 1138 
Q 1550 1238 1234 1375 
Q 772 1556 523 1787 
Q 275 2019 275 2425 
Q 275 2847 584 3145 
Q 894 3444 1444 3444 
Q 2013 3444 2341 3151 
Q 2669 2859 2669 2384 
L 1784 2384 
Q 1784 2800 1441 2800 
Q 1122 2800 1122 2469 
Q 1122 2338 1245 2247 
Q 1369 2156 1694 2022 
Q 2200 1831 2439 1597 
Q 2678 1363 2678 944 
Q 2678 494 2343 215 
Q 2009 -63 1444 -63 
Q 831 -63 507 285 
Q 184 634 184 1047 
L 1022 1047 
Q 1028 772 1150 678 
Q 1272 584 1463 584 
Q 1819 584 1819 906 
z
" transform="scale(0.015625)"/>
      <path id="RobotoCondensed-Bold-75" d="M 2009 0 
L 1988 313 
Q 1713 -63 1247 -63 
Q 828 -63 565 231 
Q 303 525 303 1194 
L 303 3381 
L 1188 3381 
L 1188 1194 
Q 1188 678 1513 678 
Q 1819 678 1953 941 
L 1953 3381 
L 2841 3381 
L 2841 0 
L 2009 0 
z
" transform="scale(0.015625)"/>
      <path id="RobotoCondensed-Bold-74" d="M 1822 22 
Q 1606 -63 1331 -63 
Q 938 -63 703 168 
Q 469 400 469 941 
L 469 2716 
L 75 2716 
L 75 3381 
L 469 3381 
L 469 4216 
L 1350 4216 
L 1350 3381 
L 1803 3381 
L 1803 2716 
L 1350 2716 
L 1350 1038 
Q 1350 825 1411 756 
Q 1472 688 1616 688 
Q 1738 688 1825 713 
L 1822 22 
z
" transform="scale(0.015625)"/>
      <path id="RobotoCondensed-Bold-4f" d="M 3569 1869 
Q 3569 906 3119 421 
Q 2669 -63 1934 -63 
Q 1203 -63 747 421 
Q 291 906 291 1869 
L 291 2625 
Q 291 3609 744 4111 
Q 1197 4613 1928 4613 
Q 2663 4613 3116 4111 
Q 3569 3609 3569 2625 
L 3569 1869 
z
M 2650 2631 
Q 2650 3281 2465 3562 
Q 2281 3844 1928 3844 
Q 1578 3844 1395 3567 
Q 1213 3291 1209 2656 
L 1209 1869 
Q 1209 1250 1395 976 
Q 1581 703 1934 703 
Q 2284 703 2465 972 
Q 2647 1241 2650 1847 
L 2650 2631 
z
" transform="scale(0.015625)"/>
      <path id="RobotoCondensed-Bold-76" d="M 2784 3381 
L 1856 0 
L 1009 0 
L 81 3381 
L 1006 3381 
L 1438 1253 
L 1863 3381 
L 2784 3381 
z
" transform="scale(0.015625)"/>
      <path id="RobotoCondensed-Bold-72" d="M 1700 2553 
Q 1331 2553 1206 2238 
L 1206 0 
L 322 0 
L 322 3381 
L 1156 3381 
L 1181 3016 
Q 1394 3444 1759 3444 
Q 1903 3444 2000 3406 
L 1991 2528 
Q 1834 2553 1700 2553 
z
" transform="scale(0.015625)"/>
      <path id="RobotoCondensed-Bold-54" d="M 163 3784 
L 163 4550 
L 3316 4550 
L 3316 3784 
L 2188 3784 
L 2188 0 
L 1269 0 
L 1269 3784 
L 163 3784 
z
" transform="scale(0.015625)"/>
      <path id="RobotoCondensed-Bold-69" d="M 322 4256 
Q 322 4463 453 4595 
Q 584 4728 806 4728 
Q 1025 4728 1156 4595 
Q 1288 4463 1288 4256 
Q 1288 4053 1156 3920 
Q 1025 3788 806 3788 
Q 584 3788 453 3920 
Q 322 4053 322 4256 
z
M 1250 3381 
L 1250 0 
L 363 0 
L 363 3381 
L 1250 3381 
z
" transform="scale(0.015625)"/>
     </defs>
     <use xlink:href="#RobotoCondensed-Bold-43"/>
     <use xlink:href="#RobotoCondensed-Bold-6f" transform="translate(57.03125 0)"/>
     <use xlink:href="#RobotoCondensed-Bold-6d" transform="translate(106.787109 0)"/>
     <use xlink:href="#RobotoCondensed-Bold-6d" transform="translate(180.957031 0)"/>
     <use xlink:href="#RobotoCondensed-Bold-6f" transform="translate(255.126953 0)"/>
     <use xlink:href="#RobotoCondensed-Bold-6e" transform="translate(304.882812 0)"/>
     <use xlink:href="#RobotoCondensed-Bold-20" transform="translate(354.101562 0)"/>
     <use xlink:href="#RobotoCondensed-Bold-4e" transform="translate(377.148438 0)"/>
     <use xlink:href="#RobotoCondensed-Bold-61" transform="translate(438.378906 0)"/>
     <use xlink:href="#RobotoCondensed-Bold-6d" transform="translate(485.498047 0)"/>
     <use xlink:href="#RobotoCondensed-Bold-65" transform="translate(559.667969 0)"/>
     <use xlink:href="#RobotoCondensed-Bold-73" transform="translate(607.568359 0)"/>
     <use xlink:href="#RobotoCondensed-Bold-20" transform="translate(652.978516 0)"/>
     <use xlink:href="#RobotoCondensed-Bold-43" transform="translate(676.025391 0)"/>
     <use xlink:href="#RobotoCondensed-Bold-6f" transform="translate(733.056641 0)"/>
     <use xlink:href="#RobotoCondensed-Bold-75" transform="translate(782.8125 0)"/>
     <use xlink:href="#RobotoCondensed-Bold-6e" transform="translate(832.03125 0)"/>
     <use xlink:href="#RobotoCondensed-Bold-74" transform="translate(881.25 0)"/>
     <use xlink:href="#RobotoCondensed-Bold-20" transform="translate(911.962891 0)"/>
     <use xlink:href="#RobotoCondensed-Bold-4f" transform="translate(935.009766 0)"/>
     <use xlink:href="#RobotoCondensed-Bold-76" transform="translate(995.361328 0)"/>
     <use xlink:href="#RobotoCondensed-Bold-65" transform="translate(1040.283203 0)"/>
     <use xlink:href="#RobotoCondensed-Bold-72" transform="translate(1088.183594 0)"/>
     <use xlink:href="#RobotoCondensed-Bold-20" transform="translate(1121.337891 0)"/>
     <use xlink:href="#RobotoCondensed-Bold-54" transform="translate(1144.384766 0)"/>
     <use xlink:href="#RobotoCondensed-Bold-69" transform="translate(1198.730469 0)"/>
     <use xlink:href="#RobotoCondensed-Bold-6d" transform="translate(1223.974609 0)"/>
     <use xlink:href="#RobotoCondensed-Bold-65" transform="translate(1298.144531 0)"/>
    </g>
   </g>
   <g id="PathCollection_1">
    <defs>
     <path id="m05827a7398" d="M -0 2.474874 
L 2.474874 0 
L 0 -2.474874 
L -2.474874 -0 
z
" style="stroke: #000000"/>
    </defs>
    <g clip-path="url(#p6a00f37faf)">
     <use xlink:href="#m05827a7398" x="43.30844" y="39.108176" style="stroke: #000000"/>
     <use xlink:href="#m05827a7398" x="93.362198" y="41.203774" style="stroke: #000000"/>
     <use xlink:href="#m05827a7398" x="143.415956" y="28.630189" style="stroke: #000000"/>
     <use xlink:href="#m05827a7398" x="193.469714" y="30.725786" style="stroke: #000000"/>
     <use xlink:href="#m05827a7398" x="243.523472" y="32.821384" style="stroke: #000000"/>
     <use xlink:href="#m05827a7398" x="293.57723" y="26.534591" style="stroke: #000000"/>
    </g>
   </g>
   <g id="PathCollection_2">
    <defs>
     <path id="mc25100b074" d="M 0 1.75 
C 0.464105 1.75 0.909265 1.565609 1.237437 1.237437 
C 1.565609 0.909265 1.75 0.464105 1.75 0 
C 1.75 -0.464105 1.565609 -0.909265 1.237437 -1.237437 
C 0.909265 -1.565609 0.464105 -1.75 0 -1.75 
C -0.464105 -1.75 -0.909265 -1.565609 -1.237437 -1.237437 
C -1.565609 -0.909265 -1.75 -0.464105 -1.75 0 
C -1.75 0.464105 -1.565609 0.909265 -1.237437 1.237437 
C -0.909265 1.565609 -0.464105 1.75 0 1.75 
z
" style="stroke: #000000"/>
    </defs>
    <g clip-path="url(#p6a00f37faf)">
     <use xlink:href="#mc25100b074" x="43.30844" y="24.438994" style="stroke: #000000"/>
     <use xlink:href="#mc25100b074" x="93.362198" y="26.534591" style="stroke: #000000"/>
     <use xlink:href="#mc25100b074" x="143.415956" y="28.630189" style="stroke: #000000"/>
     <use xlink:href="#mc25100b074" x="193.469714" y="24.438994" style="stroke: #000000"/>
     <use xlink:href="#mc25100b074" x="243.523472" y="20.247799" style="stroke: #000000"/>
     <use xlink:href="#mc25100b074" x="293.57723" y="34.916981" style="stroke: #000000"/>
    </g>
   </g>
   <g id="legend_1">
    <g id="line2d_31">
     <path d="M 36.195 168.300625 
L 42.195 168.300625 
L 48.195 168.300625 
" style="fill: none; stroke-dasharray: 0.9,1.485; stroke-dashoffset: 0; stroke: #000000; stroke-width: 0.9"/>
    </g>
    <g id="text_18">
     <!-- Boys -->
     <g transform="translate(52.995 170.400625) scale(0.06 -0.06)">
      <defs>
       <path id="RobotoCondensed-Regular-42" d="M 3125 1313 
Q 3125 675 2776 337 
Q 2428 0 1847 0 
L 491 0 
L 491 4550 
L 1791 4550 
Q 2375 4550 2706 4261 
Q 3038 3972 3038 3338 
Q 3038 3025 2880 2779 
Q 2722 2534 2453 2400 
Q 2781 2297 2953 1998 
Q 3125 1700 3125 1313 
z
M 1066 4056 
L 1066 2613 
L 1797 2613 
Q 2088 2613 2275 2806 
Q 2463 3000 2463 3344 
Q 2463 4041 1819 4056 
L 1066 4056 
z
M 2550 1306 
Q 2550 2106 1906 2128 
L 1066 2128 
L 1066 491 
L 1847 491 
Q 2181 491 2365 711 
Q 2550 931 2550 1306 
z
" transform="scale(0.015625)"/>
       <path id="RobotoCondensed-Regular-79" d="M 1425 -522 
Q 1153 -1366 563 -1366 
Q 409 -1366 278 -1316 
L 278 -847 
Q 328 -859 397 -859 
Q 631 -859 770 -746 
Q 909 -634 997 -338 
L 1106 31 
L 109 3381 
L 713 3381 
L 1341 922 
L 1953 3381 
L 2541 3381 
L 1425 -522 
z
" transform="scale(0.015625)"/>
      </defs>
      <use xlink:href="#RobotoCondensed-Regular-42"/>
      <use xlink:href="#RobotoCondensed-Regular-6f" transform="translate(54.589844 0)"/>
      <use xlink:href="#RobotoCondensed-Regular-79" transform="translate(104.785156 0)"/>
      <use xlink:href="#RobotoCondensed-Regular-73" transform="translate(146.435547 0)"/>
     </g>
    </g>
    <g id="line2d_32">
     <path d="M 36.195 177.08125 
L 42.195 177.08125 
L 48.195 177.08125 
" style="fill: none; stroke-dasharray: 5.76,1.44,0.9,1.44; stroke-dashoffset: 0; stroke: #000000; stroke-width: 0.9"/>
    </g>
    <g id="text_19">
     <!-- Girls -->
     <g transform="translate(52.995 179.18125) scale(0.06 -0.06)">
      <defs>
       <path id="RobotoCondensed-Regular-47" d="M 3341 2266 
L 3341 569 
Q 3266 469 3114 319 
Q 2963 169 2691 53 
Q 2419 -63 1978 -63 
Q 1272 -63 830 412 
Q 388 888 388 1850 
L 388 2703 
Q 388 3656 770 4134 
Q 1153 4613 1919 4613 
Q 2581 4613 2943 4244 
Q 3306 3875 3341 3219 
L 2766 3219 
Q 2731 3641 2529 3880 
Q 2328 4119 1919 4119 
Q 1400 4119 1183 3773 
Q 966 3428 963 2731 
L 963 1850 
Q 963 1125 1239 776 
Q 1516 428 1981 428 
Q 2378 428 2537 547 
Q 2697 666 2769 728 
L 2769 1778 
L 1934 1778 
L 1934 2266 
L 3341 2266 
z
" transform="scale(0.015625)"/>
       <path id="RobotoCondensed-Regular-69" d="M 428 4278 
Q 428 4419 506 4516 
Q 584 4613 741 4613 
Q 894 4613 975 4516 
Q 1056 4419 1056 4278 
Q 1056 4144 975 4048 
Q 894 3953 741 3953 
Q 584 3953 506 4048 
Q 428 4144 428 4278 
z
M 1009 3381 
L 1009 0 
L 459 0 
L 459 3381 
L 1009 3381 
z
" transform="scale(0.015625)"/>
       <path id="RobotoCondensed-Regular-6c" d="M 1009 4800 
L 1009 0 
L 459 0 
L 459 4800 
L 1009 4800 
z
" transform="scale(0.015625)"/>
      </defs>
      <use xlink:href="#RobotoCondensed-Regular-47"/>
      <use xlink:href="#RobotoCondensed-Regular-69" transform="translate(59.082031 0)"/>
      <use xlink:href="#RobotoCondensed-Regular-72" transform="translate(82.03125 0)"/>
      <use xlink:href="#RobotoCondensed-Regular-6c" transform="translate(112.5 0)"/>
      <use xlink:href="#RobotoCondensed-Regular-73" transform="translate(135.449219 0)"/>
     </g>
    </g>
   </g>
  </g>
 </g>
 <defs>
  <clipPath id="p6a00f37faf">
   <rect x="30.795" y="19.2" width="275.295669" height="166.6"/>
  </clipPath>
 </defs>
</svg>
