<?xml version="1.0" encoding="utf-8" standalone="no"?>
<!DOCTYPE svg PUBLIC "-//W3C//DTD SVG 1.1//EN"
  "http://www.w3.org/Graphics/SVG/1.1/DTD/svg11.dtd">
<svg xmlns:xlink="http://www.w3.org/1999/xlink" width="711.924375pt" height="424.024687pt" viewBox="0 0 711.924375 424.024687" xmlns="http://www.w3.org/2000/svg" version="1.1">
 <metadata>
  <rdf:RDF xmlns:dc="http://purl.org/dc/elements/1.1/" xmlns:cc="http://creativecommons.org/ns#" xmlns:rdf="http://www.w3.org/1999/02/22-rdf-syntax-ns#">
   <cc:Work>
    <dc:type rdf:resource="http://purl.org/dc/dcmitype/StillImage"/>
    <dc:date>2026-04-11T21:39:33.375383</dc:date>
    <dc:format>image/svg+xml</dc:format>
    <dc:creator>
     <cc:Agent>
      <dc:title>Matplotlib v3.10.7, https://matplotlib.org/</dc:title>
     </cc:Agent>
    </dc:creator>
   </cc:Work>
  </rdf:RDF>
 </metadata>
 <defs>
  <style type="text/css">*{stroke-linejoin: round; stroke-linecap: butt}</style>
 </defs>
 <g id="figure_1">
  <g id="patch_1">
   <path d="M 0 424.024687 
L 711.924375 424.024687 
L 711.924375 0 
L 0 0 
z
" style="fill: #ffffff"/>
  </g>
  <g id="axes_1">
   <g id="patch_2">
    <path d="M 49.784375 384.299687 
L 693.624375 384.299687 
L 693.624375 11.179688 
L 49.784375 11.179688 
z
" style="fill: #ffffff"/>
   </g>
   <g id="matplotlib.axis_1">
    <g id="xtick_1">
     <g id="text_1">
      <!-- 1989 -->
      <g transform="translate(67.94983 399.259062) scale(0.1 -0.1)">
       <defs>
        <path id="NotoSansCJKjp-Regular-31" d="M 563 0 
L 3136 0 
L 3136 486 
L 2195 486 
L 2195 4698 
L 1747 4698 
C 1491 4544 1190 4435 774 4358 
L 774 3987 
L 1606 3987 
L 1606 486 
L 563 486 
L 563 0 
z
" transform="scale(0.015625)"/>
        <path id="NotoSansCJKjp-Regular-39" d="M 832 3258 
C 832 3898 1178 4320 1626 4320 
C 2227 4320 2586 3808 2650 2842 
C 2349 2400 1990 2214 1670 2214 
C 1114 2214 832 2624 832 3258 
z
M 1498 -83 
C 2381 -83 3200 646 3200 2547 
C 3200 4038 2528 4781 1626 4781 
C 896 4781 282 4166 282 3258 
C 282 2285 794 1779 1574 1779 
C 1965 1779 2368 2003 2656 2355 
C 2611 902 2086 403 1478 403 
C 1178 403 890 538 698 762 
L 371 397 
C 634 122 992 -83 1498 -83 
z
" transform="scale(0.015625)"/>
        <path id="NotoSansCJKjp-Regular-38" d="M 1786 -83 
C 2669 -83 3258 448 3258 1133 
C 3258 1773 2874 2125 2464 2362 
L 2464 2394 
C 2746 2611 3091 3034 3091 3526 
C 3091 4250 2605 4762 1805 4762 
C 1075 4762 518 4288 518 3571 
C 518 3078 806 2726 1152 2490 
L 1152 2458 
C 723 2227 288 1792 288 1165 
C 288 442 922 -83 1786 -83 
z
M 2106 2547 
C 1555 2765 1050 3008 1050 3571 
C 1050 4026 1363 4333 1798 4333 
C 2304 4333 2592 3955 2592 3494 
C 2592 3149 2426 2829 2106 2547 
z
M 1798 352 
C 1235 352 819 717 819 1216 
C 819 1664 1082 2035 1459 2278 
C 2125 2010 2701 1773 2701 1146 
C 2701 678 2336 352 1798 352 
z
" transform="scale(0.015625)"/>
       </defs>
       <use xlink:href="#NotoSansCJKjp-Regular-31"/>
       <use xlink:href="#NotoSansCJKjp-Regular-39" transform="translate(55.499985 0)"/>
       <use xlink:href="#NotoSansCJKjp-Regular-38" transform="translate(110.999969 0)"/>
       <use xlink:href="#NotoSansCJKjp-Regular-39" transform="translate(166.499954 0)"/>
      </g>
     </g>
    </g>
    <g id="xtick_2">
     <g id="text_2">
      <!-- 1992 -->
      <g transform="translate(155.746193 399.259062) scale(0.1 -0.1)">
       <defs>
        <path id="NotoSansCJKjp-Regular-32" d="M 282 0 
L 3232 0 
L 3232 506 
L 1933 506 
C 1696 506 1408 480 1165 461 
C 2266 1504 3002 2458 3002 3392 
C 3002 4230 2477 4781 1638 4781 
C 1043 4781 640 4506 256 4090 
L 595 3757 
C 851 4064 1184 4301 1568 4301 
C 2150 4301 2432 3910 2432 3373 
C 2432 2566 1754 1632 282 346 
L 282 0 
z
" transform="scale(0.015625)"/>
       </defs>
       <use xlink:href="#NotoSansCJKjp-Regular-31"/>
       <use xlink:href="#NotoSansCJKjp-Regular-39" transform="translate(55.499985 0)"/>
       <use xlink:href="#NotoSansCJKjp-Regular-39" transform="translate(110.999969 0)"/>
       <use xlink:href="#NotoSansCJKjp-Regular-32" transform="translate(166.499954 0)"/>
      </g>
     </g>
    </g>
    <g id="xtick_3">
     <g id="text_3">
      <!-- 1995 -->
      <g transform="translate(243.542557 399.259062) scale(0.1 -0.1)">
       <defs>
        <path id="NotoSansCJKjp-Regular-35" d="M 1670 -83 
C 2464 -83 3206 499 3206 1530 
C 3206 2560 2573 3021 1792 3021 
C 1510 3021 1306 2950 1094 2835 
L 1210 4192 
L 2982 4192 
L 2982 4698 
L 698 4698 
L 550 2496 
L 864 2304 
C 1133 2483 1331 2579 1645 2579 
C 2234 2579 2618 2182 2618 1510 
C 2618 826 2170 403 1619 403 
C 1075 403 736 653 467 922 
L 179 538 
C 493 224 941 -83 1670 -83 
z
" transform="scale(0.015625)"/>
       </defs>
       <use xlink:href="#NotoSansCJKjp-Regular-31"/>
       <use xlink:href="#NotoSansCJKjp-Regular-39" transform="translate(55.499985 0)"/>
       <use xlink:href="#NotoSansCJKjp-Regular-39" transform="translate(110.999969 0)"/>
       <use xlink:href="#NotoSansCJKjp-Regular-35" transform="translate(166.499954 0)"/>
      </g>
     </g>
    </g>
    <g id="xtick_4">
     <g id="text_4">
      <!-- 1998 -->
      <g transform="translate(331.33892 399.259062) scale(0.1 -0.1)">
       <use xlink:href="#NotoSansCJKjp-Regular-31"/>
       <use xlink:href="#NotoSansCJKjp-Regular-39" transform="translate(55.499985 0)"/>
       <use xlink:href="#NotoSansCJKjp-Regular-39" transform="translate(110.999969 0)"/>
       <use xlink:href="#NotoSansCJKjp-Regular-38" transform="translate(166.499954 0)"/>
      </g>
     </g>
    </g>
    <g id="xtick_5">
     <g id="text_5">
      <!-- 2001 -->
      <g transform="translate(419.135284 399.259062) scale(0.1 -0.1)">
       <defs>
        <path id="NotoSansCJKjp-Regular-30" d="M 1779 -83 
C 2669 -83 3238 730 3238 2362 
C 3238 3987 2669 4781 1779 4781 
C 883 4781 314 3994 314 2362 
C 314 730 883 -83 1779 -83 
z
M 1779 384 
C 1242 384 883 979 883 2362 
C 883 3731 1242 4314 1779 4314 
C 2310 4314 2669 3731 2669 2362 
C 2669 979 2310 384 1779 384 
z
" transform="scale(0.015625)"/>
       </defs>
       <use xlink:href="#NotoSansCJKjp-Regular-32"/>
       <use xlink:href="#NotoSansCJKjp-Regular-30" transform="translate(55.499985 0)"/>
       <use xlink:href="#NotoSansCJKjp-Regular-30" transform="translate(110.999969 0)"/>
       <use xlink:href="#NotoSansCJKjp-Regular-31" transform="translate(166.499954 0)"/>
      </g>
     </g>
    </g>
    <g id="xtick_6">
     <g id="text_6">
      <!-- 2004 -->
      <g transform="translate(506.931648 399.259062) scale(0.1 -0.1)">
       <defs>
        <path id="NotoSansCJKjp-Regular-34" d="M 736 1760 
L 1805 3360 
C 1939 3590 2067 3821 2182 4051 
L 2208 4051 
C 2195 3808 2176 3430 2176 3200 
L 2176 1760 
L 736 1760 
z
M 2176 0 
L 2726 0 
L 2726 1293 
L 3347 1293 
L 3347 1760 
L 2726 1760 
L 2726 4698 
L 2080 4698 
L 128 1677 
L 128 1293 
L 2176 1293 
L 2176 0 
z
" transform="scale(0.015625)"/>
       </defs>
       <use xlink:href="#NotoSansCJKjp-Regular-32"/>
       <use xlink:href="#NotoSansCJKjp-Regular-30" transform="translate(55.499985 0)"/>
       <use xlink:href="#NotoSansCJKjp-Regular-30" transform="translate(110.999969 0)"/>
       <use xlink:href="#NotoSansCJKjp-Regular-34" transform="translate(166.499954 0)"/>
      </g>
     </g>
    </g>
    <g id="xtick_7">
     <g id="text_7">
      <!-- 2007 -->
      <g transform="translate(594.728011 399.259062) scale(0.1 -0.1)">
       <defs>
        <path id="NotoSansCJKjp-Regular-37" d="M 1267 0 
L 1875 0 
C 1946 1837 2150 2931 3251 4339 
L 3251 4698 
L 314 4698 
L 314 4192 
L 2586 4192 
C 1670 2912 1344 1779 1267 0 
z
" transform="scale(0.015625)"/>
       </defs>
       <use xlink:href="#NotoSansCJKjp-Regular-32"/>
       <use xlink:href="#NotoSansCJKjp-Regular-30" transform="translate(55.499985 0)"/>
       <use xlink:href="#NotoSansCJKjp-Regular-30" transform="translate(110.999969 0)"/>
       <use xlink:href="#NotoSansCJKjp-Regular-37" transform="translate(166.499954 0)"/>
      </g>
     </g>
    </g>
    <g id="xtick_8">
     <g id="text_8">
      <!-- 2010 -->
      <g transform="translate(682.524375 399.259062) scale(0.1 -0.1)">
       <use xlink:href="#NotoSansCJKjp-Regular-32"/>
       <use xlink:href="#NotoSansCJKjp-Regular-30" transform="translate(55.499985 0)"/>
       <use xlink:href="#NotoSansCJKjp-Regular-31" transform="translate(110.999969 0)"/>
       <use xlink:href="#NotoSansCJKjp-Regular-30" transform="translate(166.499954 0)"/>
      </g>
     </g>
    </g>
    <g id="text_9">
     <!-- Year -->
     <g transform="translate(360.500703 414.305) scale(0.11 -0.11)">
      <defs>
       <path id="NotoSansCJKjp-Regular-59" d="M 1402 0 
L 1997 0 
L 1997 1824 
L 3405 4698 
L 2790 4698 
L 2182 3366 
C 2042 3021 1882 2694 1715 2342 
L 1690 2342 
C 1523 2694 1382 3021 1229 3366 
L 627 4698 
L -6 4698 
L 1402 1824 
L 1402 0 
z
" transform="scale(0.015625)"/>
       <path id="NotoSansCJKjp-Regular-65" d="M 1990 -83 
C 2464 -83 2835 77 3142 275 
L 2931 659 
C 2675 486 2400 384 2061 384 
C 1402 384 947 858 909 1600 
L 3251 1600 
C 3264 1683 3277 1805 3277 1933 
C 3277 2925 2778 3565 1894 3565 
C 1088 3565 326 2861 326 1734 
C 326 589 1069 -83 1990 -83 
z
M 902 2022 
C 973 2701 1408 3098 1901 3098 
C 2445 3098 2765 2720 2765 2022 
L 902 2022 
z
" transform="scale(0.015625)"/>
       <path id="NotoSansCJKjp-Regular-61" d="M 1389 -83 
C 1818 -83 2208 141 2541 416 
L 2560 416 
L 2611 0 
L 3091 0 
L 3091 2138 
C 3091 2995 2733 3565 1888 3565 
C 1331 3565 838 3315 518 3110 
L 749 2707 
C 1024 2893 1389 3078 1792 3078 
C 2362 3078 2509 2650 2509 2202 
C 1030 2035 371 1658 371 902 
C 371 275 806 -83 1389 -83 
z
M 1555 384 
C 1210 384 941 544 941 941 
C 941 1389 1338 1677 2509 1818 
L 2509 845 
C 2170 544 1894 384 1555 384 
z
" transform="scale(0.015625)"/>
       <path id="NotoSansCJKjp-Regular-72" d="M 589 0 
L 1171 0 
L 1171 2234 
C 1402 2829 1760 3034 2048 3034 
C 2189 3034 2272 3021 2387 2976 
L 2496 3488 
C 2387 3546 2278 3565 2125 3565 
C 1734 3565 1382 3283 1139 2842 
L 1120 2842 
L 1069 3475 
L 589 3475 
L 589 0 
z
" transform="scale(0.015625)"/>
      </defs>
      <use xlink:href="#NotoSansCJKjp-Regular-59"/>
      <use xlink:href="#NotoSansCJKjp-Regular-65" transform="translate(53.099991 0)"/>
      <use xlink:href="#NotoSansCJKjp-Regular-61" transform="translate(108.499985 0)"/>
      <use xlink:href="#NotoSansCJKjp-Regular-72" transform="translate(164.899979 0)"/>
     </g>
    </g>
   </g>
   <g id="matplotlib.axis_2">
    <g id="ytick_1">
     <g id="line2d_1">
      <path d="M 49.784375 384.299687 
L 693.624375 384.299687 
" clip-path="url(#p691f99d53c)" style="fill: none; stroke: #808080; stroke-opacity: 0.3; stroke-width: 0.5; stroke-linecap: round"/>
     </g>
     <g id="text_10">
      <!-- 0% -->
      <g transform="translate(28.025 388.279375) scale(0.1 -0.1)">
       <defs>
        <path id="NotoSansCJKjp-Regular-25" d="M 1312 1818 
C 1958 1818 2381 2362 2381 3309 
C 2381 4250 1958 4781 1312 4781 
C 672 4781 250 4250 250 3309 
C 250 2362 672 1818 1312 1818 
z
M 1312 2182 
C 947 2182 691 2560 691 3309 
C 691 4058 947 4422 1312 4422 
C 1683 4422 1939 4058 1939 3309 
C 1939 2560 1683 2182 1312 2182 
z
M 1453 -83 
L 1843 -83 
L 4435 4781 
L 4038 4781 
L 1453 -83 
z
M 4582 -83 
C 5222 -83 5645 454 5645 1402 
C 5645 2342 5222 2874 4582 2874 
C 3942 2874 3514 2342 3514 1402 
C 3514 454 3942 -83 4582 -83 
z
M 4582 275 
C 4211 275 3962 653 3962 1402 
C 3962 2150 4211 2515 4582 2515 
C 4947 2515 5203 2150 5203 1402 
C 5203 653 4947 275 4582 275 
z
" transform="scale(0.015625)"/>
       </defs>
       <use xlink:href="#NotoSansCJKjp-Regular-30"/>
       <use xlink:href="#NotoSansCJKjp-Regular-25" transform="translate(55.499985 0)"/>
      </g>
     </g>
    </g>
    <g id="ytick_2">
     <g id="line2d_2">
      <path d="M 49.784375 309.675687 
L 693.624375 309.675687 
" clip-path="url(#p691f99d53c)" style="fill: none; stroke: #808080; stroke-opacity: 0.3; stroke-width: 0.5; stroke-linecap: round"/>
     </g>
     <g id="text_11">
      <!-- 2% -->
      <g transform="translate(28.025 313.655375) scale(0.1 -0.1)">
       <use xlink:href="#NotoSansCJKjp-Regular-32"/>
       <use xlink:href="#NotoSansCJKjp-Regular-25" transform="translate(55.499985 0)"/>
      </g>
     </g>
    </g>
    <g id="ytick_3">
     <g id="line2d_3">
      <path d="M 49.784375 235.051687 
L 693.624375 235.051687 
" clip-path="url(#p691f99d53c)" style="fill: none; stroke: #808080; stroke-opacity: 0.3; stroke-width: 0.5; stroke-linecap: round"/>
     </g>
     <g id="text_12">
      <!-- 4% -->
      <g transform="translate(28.025 239.031375) scale(0.1 -0.1)">
       <use xlink:href="#NotoSansCJKjp-Regular-34"/>
       <use xlink:href="#NotoSansCJKjp-Regular-25" transform="translate(55.499985 0)"/>
      </g>
     </g>
    </g>
    <g id="ytick_4">
     <g id="line2d_4">
      <path d="M 49.784375 160.427687 
L 693.624375 160.427687 
" clip-path="url(#p691f99d53c)" style="fill: none; stroke: #808080; stroke-opacity: 0.3; stroke-width: 0.5; stroke-linecap: round"/>
     </g>
     <g id="text_13">
      <!-- 6% -->
      <g transform="translate(28.025 164.407375) scale(0.1 -0.1)">
       <defs>
        <path id="NotoSansCJKjp-Regular-36" d="M 1875 2477 
C 2445 2477 2726 2074 2726 1440 
C 2726 800 2374 371 1926 371 
C 1338 371 986 902 915 1875 
C 1203 2304 1581 2477 1875 2477 
z
M 1926 -83 
C 2656 -83 3270 531 3270 1440 
C 3270 2419 2765 2912 1971 2912 
C 1600 2912 1190 2694 902 2342 
C 928 3802 1472 4294 2112 4294 
C 2400 4294 2682 4160 2867 3936 
L 3187 4301 
C 2931 4576 2579 4781 2093 4781 
C 1184 4781 358 4077 358 2240 
C 358 691 1024 -83 1926 -83 
z
" transform="scale(0.015625)"/>
       </defs>
       <use xlink:href="#NotoSansCJKjp-Regular-36"/>
       <use xlink:href="#NotoSansCJKjp-Regular-25" transform="translate(55.499985 0)"/>
      </g>
     </g>
    </g>
    <g id="ytick_5">
     <g id="line2d_5">
      <path d="M 49.784375 85.803687 
L 693.624375 85.803687 
" clip-path="url(#p691f99d53c)" style="fill: none; stroke: #808080; stroke-opacity: 0.3; stroke-width: 0.5; stroke-linecap: round"/>
     </g>
     <g id="text_14">
      <!-- 8% -->
      <g transform="translate(28.025 89.783375) scale(0.1 -0.1)">
       <use xlink:href="#NotoSansCJKjp-Regular-38"/>
       <use xlink:href="#NotoSansCJKjp-Regular-25" transform="translate(55.499985 0)"/>
      </g>
     </g>
    </g>
    <g id="ytick_6">
     <g id="line2d_6">
      <path d="M 49.784375 11.179688 
L 693.624375 11.179688 
" clip-path="url(#p691f99d53c)" style="fill: none; stroke: #808080; stroke-opacity: 0.3; stroke-width: 0.5; stroke-linecap: round"/>
     </g>
     <g id="text_15">
      <!-- 10% -->
      <g transform="translate(22.475 15.159375) scale(0.1 -0.1)">
       <use xlink:href="#NotoSansCJKjp-Regular-31"/>
       <use xlink:href="#NotoSansCJKjp-Regular-30" transform="translate(55.499985 0)"/>
       <use xlink:href="#NotoSansCJKjp-Regular-25" transform="translate(110.999969 0)"/>
      </g>
     </g>
    </g>
    <g id="text_16">
     <!-- Proportion -->
     <g transform="translate(15.955312 225.837812) rotate(-90) scale(0.11 -0.11)">
      <defs>
       <path id="NotoSansCJKjp-Regular-50" d="M 640 0 
L 1235 0 
L 1235 1862 
L 2010 1862 
C 3040 1862 3738 2323 3738 3315 
C 3738 4339 3034 4698 1984 4698 
L 640 4698 
L 640 0 
z
M 1235 2342 
L 1235 4211 
L 1907 4211 
C 2733 4211 3149 3994 3149 3315 
C 3149 2643 2758 2342 1933 2342 
L 1235 2342 
z
" transform="scale(0.015625)"/>
       <path id="NotoSansCJKjp-Regular-6f" d="M 1939 -83 
C 2790 -83 3552 582 3552 1734 
C 3552 2893 2790 3565 1939 3565 
C 1088 3565 326 2893 326 1734 
C 326 582 1088 -83 1939 -83 
z
M 1939 403 
C 1338 403 934 934 934 1734 
C 934 2534 1338 3078 1939 3078 
C 2541 3078 2950 2534 2950 1734 
C 2950 934 2541 403 1939 403 
z
" transform="scale(0.015625)"/>
       <path id="NotoSansCJKjp-Regular-70" d="M 589 -1466 
L 1171 -1466 
L 1171 -288 
L 1158 320 
C 1472 64 1805 -83 2118 -83 
C 2918 -83 3629 602 3629 1792 
C 3629 2861 3142 3565 2246 3565 
C 1843 3565 1453 3334 1139 3078 
L 1120 3078 
L 1069 3475 
L 589 3475 
L 589 -1466 
z
M 2022 403 
C 1792 403 1485 499 1171 768 
L 1171 2592 
C 1510 2906 1811 3072 2106 3072 
C 2765 3072 3021 2554 3021 1786 
C 3021 922 2598 403 2022 403 
z
" transform="scale(0.015625)"/>
       <path id="NotoSansCJKjp-Regular-74" d="M 1683 -83 
C 1894 -83 2125 -19 2323 45 
L 2208 480 
C 2093 435 1933 390 1811 390 
C 1408 390 1274 634 1274 1062 
L 1274 3002 
L 2214 3002 
L 2214 3475 
L 1274 3475 
L 1274 4454 
L 787 4454 
L 717 3475 
L 173 3443 
L 173 3002 
L 691 3002 
L 691 1075 
C 691 384 941 -83 1683 -83 
z
" transform="scale(0.015625)"/>
       <path id="NotoSansCJKjp-Regular-69" d="M 589 0 
L 1171 0 
L 1171 3475 
L 589 3475 
L 589 0 
z
M 883 4192 
C 1114 4192 1274 4346 1274 4582 
C 1274 4806 1114 4960 883 4960 
C 653 4960 493 4806 493 4582 
C 493 4346 653 4192 883 4192 
z
" transform="scale(0.015625)"/>
       <path id="NotoSansCJKjp-Regular-6e" d="M 589 0 
L 1171 0 
L 1171 2522 
C 1523 2874 1766 3053 2125 3053 
C 2586 3053 2784 2778 2784 2125 
L 2784 0 
L 3366 0 
L 3366 2202 
C 3366 3091 3034 3565 2304 3565 
C 1830 3565 1472 3302 1139 2976 
L 1120 2976 
L 1069 3475 
L 589 3475 
L 589 0 
z
" transform="scale(0.015625)"/>
      </defs>
      <use xlink:href="#NotoSansCJKjp-Regular-50"/>
      <use xlink:href="#NotoSansCJKjp-Regular-72" transform="translate(63.199997 0)"/>
      <use xlink:href="#NotoSansCJKjp-Regular-6f" transform="translate(101.999985 0)"/>
      <use xlink:href="#NotoSansCJKjp-Regular-70" transform="translate(162.599976 0)"/>
      <use xlink:href="#NotoSansCJKjp-Regular-6f" transform="translate(224.59996 0)"/>
      <use xlink:href="#NotoSansCJKjp-Regular-72" transform="translate(285.199951 0)"/>
      <use xlink:href="#NotoSansCJKjp-Regular-74" transform="translate(323.999939 0)"/>
      <use xlink:href="#NotoSansCJKjp-Regular-69" transform="translate(361.699936 0)"/>
      <use xlink:href="#NotoSansCJKjp-Regular-6f" transform="translate(389.199921 0)"/>
      <use xlink:href="#NotoSansCJKjp-Regular-6e" transform="translate(449.799911 0)"/>
     </g>
    </g>
   </g>
   <g id="FillBetweenPolyCollection_1">
    <defs>
     <path id="mda2d1fa06d" d="M 79.04983 -63.426145 
L 79.04983 -39.725 
L 81.007385 -39.725 
L 82.964941 -39.725 
L 84.922496 -39.725 
L 86.880051 -39.725 
L 88.837607 -39.725 
L 90.795162 -39.725 
L 92.752718 -39.725 
L 94.710273 -39.725 
L 96.667829 -39.725 
L 98.625384 -39.725 
L 100.58294 -39.725 
L 102.540495 -39.725 
L 104.498051 -39.725 
L 106.455606 -39.725 
L 108.413162 -39.725 
L 110.370717 -39.725 
L 112.328273 -39.725 
L 114.285828 -39.725 
L 116.243384 -39.725 
L 118.200939 -39.725 
L 120.158495 -39.725 
L 122.11605 -39.725 
L 124.073606 -39.725 
L 126.031161 -39.725 
L 127.988717 -39.725 
L 129.946272 -39.725 
L 131.903828 -39.725 
L 133.861383 -39.725 
L 135.818939 -39.725 
L 137.776494 -39.725 
L 139.73405 -39.725 
L 141.691605 -39.725 
L 143.649161 -39.725 
L 145.606716 -39.725 
L 147.564272 -39.725 
L 149.521827 -39.725 
L 151.479383 -39.725 
L 153.436938 -39.725 
L 155.394494 -39.725 
L 157.352049 -39.725 
L 159.309605 -39.725 
L 161.26716 -39.725 
L 163.224716 -39.725 
L 165.182271 -39.725 
L 167.139827 -39.725 
L 169.097382 -39.725 
L 171.054937 -39.725 
L 173.012493 -39.725 
L 174.970048 -39.725 
L 176.927604 -39.725 
L 178.885159 -39.725 
L 180.842715 -39.725 
L 182.80027 -39.725 
L 184.757826 -39.725 
L 186.715381 -39.725 
L 188.672937 -39.725 
L 190.630492 -39.725 
L 192.588048 -39.725 
L 194.545603 -39.725 
L 196.503159 -39.725 
L 198.460714 -39.725 
L 200.41827 -39.725 
L 202.375825 -39.725 
L 204.333381 -39.725 
L 206.290936 -39.725 
L 208.248492 -39.725 
L 210.206047 -39.725 
L 212.163603 -39.725 
L 214.121158 -39.725 
L 216.078714 -39.725 
L 218.036269 -39.725 
L 219.993825 -39.725 
L 221.95138 -39.725 
L 223.908936 -39.725 
L 225.866491 -39.725 
L 227.824047 -39.725 
L 229.781602 -39.725 
L 231.739158 -39.725 
L 233.696713 -39.725 
L 235.654269 -39.725 
L 237.611824 -39.725 
L 239.56938 -39.725 
L 241.526935 -39.725 
L 243.484491 -39.725 
L 245.442046 -39.725 
L 247.399602 -39.725 
L 249.357157 -39.725 
L 251.314712 -39.725 
L 253.272268 -39.725 
L 255.229823 -39.725 
L 257.187379 -39.725 
L 259.144934 -39.725 
L 261.10249 -39.725 
L 263.060045 -39.725 
L 265.017601 -39.725 
L 266.975156 -39.725 
L 268.932712 -39.725 
L 270.890267 -39.725 
L 272.847823 -39.725 
L 274.805378 -39.725 
L 276.762934 -39.725 
L 278.720489 -39.725 
L 280.678045 -39.725 
L 282.6356 -39.725 
L 284.593156 -39.725 
L 286.550711 -39.725 
L 288.508267 -39.725 
L 290.465822 -39.725 
L 292.423378 -39.725 
L 294.380933 -39.725 
L 296.338489 -39.725 
L 298.296044 -39.725 
L 300.2536 -39.725 
L 302.211155 -39.725 
L 304.168711 -39.725 
L 306.126266 -39.725 
L 308.083822 -39.725 
L 310.041377 -39.725 
L 311.998933 -39.725 
L 313.956488 -39.725 
L 315.914044 -39.725 
L 317.871599 -39.725 
L 319.829155 -39.725 
L 321.78671 -39.725 
L 323.744266 -39.725 
L 325.701821 -39.725 
L 327.659377 -39.725 
L 329.616932 -39.725 
L 331.574487 -39.725 
L 333.532043 -39.725 
L 335.489598 -39.725 
L 337.447154 -39.725 
L 339.404709 -39.725 
L 341.362265 -39.725 
L 343.31982 -39.725 
L 345.277376 -39.725 
L 347.234931 -39.725 
L 349.192487 -39.725 
L 351.150042 -39.725 
L 353.107598 -39.725 
L 355.065153 -39.725 
L 357.022709 -39.725 
L 358.980264 -39.725 
L 360.93782 -39.725 
L 362.895375 -39.725 
L 364.852931 -39.725 
L 366.810486 -39.725 
L 368.768042 -39.725 
L 370.725597 -39.725 
L 372.683153 -39.725 
L 374.640708 -39.725 
L 376.598264 -39.725 
L 378.555819 -39.725 
L 380.513375 -39.725 
L 382.47093 -39.725 
L 384.428486 -39.725 
L 386.386041 -39.725 
L 388.343597 -39.725 
L 390.301152 -39.725 
L 392.258708 -39.725 
L 394.216263 -39.725 
L 396.173819 -39.725 
L 398.131374 -39.725 
L 400.08893 -39.725 
L 402.046485 -39.725 
L 404.004041 -39.725 
L 405.961596 -39.725 
L 407.919152 -39.725 
L 409.876707 -39.725 
L 411.834263 -39.725 
L 413.791818 -39.725 
L 415.749373 -39.725 
L 417.706929 -39.725 
L 419.664484 -39.725 
L 421.62204 -39.725 
L 423.579595 -39.725 
L 425.537151 -39.725 
L 427.494706 -39.725 
L 429.452262 -39.725 
L 431.409817 -39.725 
L 433.367373 -39.725 
L 435.324928 -39.725 
L 437.282484 -39.725 
L 439.240039 -39.725 
L 441.197595 -39.725 
L 443.15515 -39.725 
L 445.112706 -39.725 
L 447.070261 -39.725 
L 449.027817 -39.725 
L 450.985372 -39.725 
L 452.942928 -39.725 
L 454.900483 -39.725 
L 456.858039 -39.725 
L 458.815594 -39.725 
L 460.77315 -39.725 
L 462.730705 -39.725 
L 464.688261 -39.725 
L 466.645816 -39.725 
L 468.603372 -39.725 
L 470.560927 -39.725 
L 472.518483 -39.725 
L 474.476038 -39.725 
L 476.433594 -39.725 
L 478.391149 -39.725 
L 480.348705 -39.725 
L 482.30626 -39.725 
L 484.263816 -39.725 
L 486.221371 -39.725 
L 488.178927 -39.725 
L 490.136482 -39.725 
L 492.094038 -39.725 
L 494.051593 -39.725 
L 496.009148 -39.725 
L 497.966704 -39.725 
L 499.924259 -39.725 
L 501.881815 -39.725 
L 503.83937 -39.725 
L 505.796926 -39.725 
L 507.754481 -39.725 
L 509.712037 -39.725 
L 511.669592 -39.725 
L 513.627148 -39.725 
L 515.584703 -39.725 
L 517.542259 -39.725 
L 519.499814 -39.725 
L 521.45737 -39.725 
L 523.414925 -39.725 
L 525.372481 -39.725 
L 527.330036 -39.725 
L 529.287592 -39.725 
L 531.245147 -39.725 
L 533.202703 -39.725 
L 535.160258 -39.725 
L 537.117814 -39.725 
L 539.075369 -39.725 
L 541.032925 -39.725 
L 542.99048 -39.725 
L 544.948036 -39.725 
L 546.905591 -39.725 
L 548.863147 -39.725 
L 550.820702 -39.725 
L 552.778258 -39.725 
L 554.735813 -39.725 
L 556.693369 -39.725 
L 558.650924 -39.725 
L 560.60848 -39.725 
L 562.566035 -39.725 
L 564.523591 -39.725 
L 566.481146 -39.725 
L 568.438702 -39.725 
L 570.396257 -39.725 
L 572.353813 -39.725 
L 574.311368 -39.725 
L 576.268923 -39.725 
L 578.226479 -39.725 
L 580.184034 -39.725 
L 582.14159 -39.725 
L 584.099145 -39.725 
L 586.056701 -39.725 
L 588.014256 -39.725 
L 589.971812 -39.725 
L 591.929367 -39.725 
L 593.886923 -39.725 
L 595.844478 -39.725 
L 597.802034 -39.725 
L 599.759589 -39.725 
L 601.717145 -39.725 
L 603.6747 -39.725 
L 605.632256 -39.725 
L 607.589811 -39.725 
L 609.547367 -39.725 
L 611.504922 -39.725 
L 613.462478 -39.725 
L 615.420033 -39.725 
L 617.377589 -39.725 
L 619.335144 -39.725 
L 621.2927 -39.725 
L 623.250255 -39.725 
L 625.207811 -39.725 
L 627.165366 -39.725 
L 629.122922 -39.725 
L 631.080477 -39.725 
L 633.038033 -39.725 
L 634.995588 -39.725 
L 636.953144 -39.725 
L 638.910699 -39.725 
L 640.868255 -39.725 
L 642.82581 -39.725 
L 644.783366 -39.725 
L 646.740921 -39.725 
L 648.698477 -39.725 
L 650.656032 -39.725 
L 652.613588 -39.725 
L 654.571143 -39.725 
L 656.528699 -39.725 
L 658.486254 -39.725 
L 660.443809 -39.725 
L 662.401365 -39.725 
L 664.35892 -39.725 
L 664.35892 -51.826331 
L 664.35892 -51.826331 
L 662.401365 -51.700112 
L 660.443809 -51.582094 
L 658.486254 -51.472357 
L 656.528699 -51.370978 
L 654.571143 -51.278038 
L 652.613588 -51.193617 
L 650.656032 -51.117794 
L 648.698477 -51.050648 
L 646.740921 -50.992259 
L 644.783366 -50.942707 
L 642.82581 -50.90207 
L 640.868255 -50.870429 
L 638.910699 -50.847863 
L 636.953144 -50.834451 
L 634.995588 -50.830292 
L 633.038033 -50.843063 
L 631.080477 -50.876774 
L 629.122922 -50.928167 
L 627.165366 -50.993981 
L 625.207811 -51.070959 
L 623.250255 -51.15584 
L 621.2927 -51.245366 
L 619.335144 -51.336277 
L 617.377589 -51.425313 
L 615.420033 -51.509217 
L 613.462478 -51.584728 
L 611.504922 -51.648587 
L 609.547367 -51.697535 
L 607.589811 -51.728313 
L 605.632256 -51.737708 
L 603.6747 -51.728955 
L 601.717145 -51.707114 
L 599.759589 -51.674238 
L 597.802034 -51.632379 
L 595.844478 -51.583592 
L 593.886923 -51.529929 
L 591.929367 -51.473443 
L 589.971812 -51.416186 
L 588.014256 -51.360213 
L 586.056701 -51.307577 
L 584.099145 -51.260329 
L 582.14159 -51.220524 
L 580.184034 -51.190214 
L 578.226479 -51.171453 
L 576.268923 -51.166324 
L 574.311368 -51.177808 
L 572.353813 -51.205776 
L 570.396257 -51.248672 
L 568.438702 -51.304939 
L 566.481146 -51.37302 
L 564.523591 -51.451359 
L 562.566035 -51.5384 
L 560.60848 -51.632585 
L 558.650924 -51.732359 
L 556.693369 -51.836164 
L 554.735813 -51.942445 
L 552.778258 -52.049645 
L 550.820702 -52.156207 
L 548.863147 -52.260575 
L 546.905591 -52.361413 
L 544.948036 -52.464755 
L 542.99048 -52.573746 
L 541.032925 -52.688141 
L 539.075369 -52.807697 
L 537.117814 -52.93217 
L 535.160258 -53.061315 
L 533.202703 -53.19489 
L 531.245147 -53.332651 
L 529.287592 -53.474353 
L 527.330036 -53.619753 
L 525.372481 -53.768607 
L 523.414925 -53.920672 
L 521.45737 -54.075703 
L 519.499814 -54.233456 
L 517.542259 -54.393908 
L 515.584703 -54.561498 
L 513.627148 -54.737424 
L 511.669592 -54.920849 
L 509.712037 -55.110937 
L 507.754481 -55.30685 
L 505.796926 -55.507752 
L 503.83937 -55.712806 
L 501.881815 -55.921175 
L 499.924259 -56.132023 
L 497.966704 -56.344513 
L 496.009148 -56.557808 
L 494.051593 -56.771072 
L 492.094038 -56.983467 
L 490.136482 -57.194158 
L 488.178927 -57.403825 
L 486.221371 -57.634141 
L 484.263816 -57.887774 
L 482.30626 -58.1587 
L 480.348705 -58.440895 
L 478.391149 -58.728334 
L 476.433594 -59.014991 
L 474.476038 -59.294843 
L 472.518483 -59.561864 
L 470.560927 -59.810031 
L 468.603372 -60.033318 
L 466.645816 -60.225701 
L 464.688261 -60.381155 
L 462.730705 -60.493655 
L 460.77315 -60.557177 
L 458.815594 -60.568514 
L 456.858039 -60.557508 
L 454.900483 -60.535173 
L 452.942928 -60.503359 
L 450.985372 -60.463915 
L 449.027817 -60.418692 
L 447.070261 -60.369539 
L 445.112706 -60.318304 
L 443.15515 -60.266839 
L 441.197595 -60.216991 
L 439.240039 -60.170612 
L 437.282484 -60.12955 
L 435.324928 -60.095656 
L 433.367373 -60.070778 
L 431.409817 -60.056766 
L 429.452262 -60.058646 
L 427.494706 -60.104655 
L 425.537151 -60.195165 
L 423.579595 -60.322851 
L 421.62204 -60.480387 
L 419.664484 -60.660449 
L 417.706929 -60.85571 
L 415.749373 -61.058847 
L 413.791818 -61.262532 
L 411.834263 -61.459442 
L 409.876707 -61.642251 
L 407.919152 -61.803633 
L 405.961596 -61.936263 
L 404.004041 -62.032816 
L 402.046485 -62.085968 
L 400.08893 -62.0898 
L 398.131374 -62.051465 
L 396.173819 -61.976778 
L 394.216263 -61.870039 
L 392.258708 -61.735544 
L 390.301152 -61.577592 
L 388.343597 -61.40048 
L 386.386041 -61.208507 
L 384.428486 -61.00597 
L 382.47093 -60.797167 
L 380.513375 -60.586397 
L 378.555819 -60.377956 
L 376.598264 -60.176144 
L 374.640708 -59.985257 
L 372.683153 -59.809594 
L 370.725597 -59.648218 
L 368.768042 -59.473945 
L 366.810486 -59.285646 
L 364.852931 -59.087418 
L 362.895375 -58.883359 
L 360.93782 -58.677567 
L 358.980264 -58.474138 
L 357.022709 -58.27717 
L 355.065153 -58.090761 
L 353.107598 -57.919009 
L 351.150042 -57.766009 
L 349.192487 -57.635861 
L 347.234931 -57.532661 
L 345.277376 -57.460507 
L 343.31982 -57.423496 
L 341.362265 -57.441027 
L 339.404709 -57.583318 
L 337.447154 -57.841802 
L 335.489598 -58.196868 
L 333.532043 -58.628905 
L 331.574487 -59.118304 
L 329.616932 -59.645453 
L 327.659377 -60.190741 
L 325.701821 -60.734559 
L 323.744266 -61.257296 
L 321.78671 -61.73934 
L 319.829155 -62.161082 
L 317.871599 -62.502911 
L 315.914044 -62.745216 
L 313.956488 -62.868387 
L 311.998933 -62.862519 
L 310.041377 -62.761585 
L 308.083822 -62.581506 
L 306.126266 -62.334743 
L 304.168711 -62.03376 
L 302.211155 -61.691017 
L 300.2536 -61.318978 
L 298.296044 -60.930103 
L 296.338489 -60.536854 
L 294.380933 -60.151695 
L 292.423378 -59.787086 
L 290.465822 -59.45549 
L 288.508267 -59.169369 
L 286.550711 -58.941184 
L 284.593156 -58.783398 
L 282.6356 -58.690032 
L 280.678045 -58.604595 
L 278.720489 -58.522442 
L 276.762934 -58.444025 
L 274.805378 -58.3698 
L 272.847823 -58.300222 
L 270.890267 -58.235745 
L 268.932712 -58.176824 
L 266.975156 -58.123914 
L 265.017601 -58.077469 
L 263.060045 -58.037943 
L 261.10249 -58.005793 
L 259.144934 -57.981471 
L 257.187379 -57.965433 
L 255.229823 -57.958134 
L 253.272268 -57.966794 
L 251.314712 -58.009413 
L 249.357157 -58.083462 
L 247.399602 -58.185109 
L 245.442046 -58.31052 
L 243.484491 -58.455862 
L 241.526935 -58.617301 
L 239.56938 -58.791003 
L 237.611824 -58.973135 
L 235.654269 -59.159863 
L 233.696713 -59.347354 
L 231.739158 -59.531774 
L 229.781602 -59.70929 
L 227.824047 -59.876068 
L 225.866491 -60.028275 
L 223.908936 -60.17255 
L 221.95138 -60.330771 
L 219.993825 -60.50047 
L 218.036269 -60.678018 
L 216.078714 -60.859789 
L 214.121158 -61.042155 
L 212.163603 -61.221486 
L 210.206047 -61.394155 
L 208.248492 -61.556533 
L 206.290936 -61.704994 
L 204.333381 -61.835908 
L 202.375825 -61.945648 
L 200.41827 -62.030586 
L 198.460714 -62.087093 
L 196.503159 -62.111542 
L 194.545603 -62.106423 
L 192.588048 -62.084057 
L 190.630492 -62.047317 
L 188.672937 -61.998737 
L 186.715381 -61.940849 
L 184.757826 -61.876185 
L 182.80027 -61.80728 
L 180.842715 -61.736665 
L 178.885159 -61.666873 
L 176.927604 -61.600436 
L 174.970048 -61.539889 
L 173.012493 -61.487763 
L 171.054937 -61.446591 
L 169.097382 -61.418906 
L 167.139827 -61.40724 
L 165.182271 -61.437244 
L 163.224716 -61.543526 
L 161.26716 -61.715227 
L 159.309605 -61.940719 
L 157.352049 -62.20837 
L 155.394494 -62.506551 
L 153.436938 -62.823632 
L 151.479383 -63.147981 
L 149.521827 -63.467968 
L 147.564272 -63.771965 
L 145.606716 -64.048339 
L 143.649161 -64.285461 
L 141.691605 -64.4717 
L 139.73405 -64.595427 
L 137.776494 -64.645011 
L 135.818939 -64.644659 
L 133.861383 -64.641998 
L 131.903828 -64.637537 
L 129.946272 -64.631362 
L 127.988717 -64.623561 
L 126.031161 -64.61422 
L 124.073606 -64.603425 
L 122.11605 -64.591262 
L 120.158495 -64.577819 
L 118.200939 -64.563181 
L 116.243384 -64.547435 
L 114.285828 -64.530667 
L 112.328273 -64.512964 
L 110.370717 -64.494413 
L 108.413162 -64.475099 
L 106.455606 -64.451166 
L 104.498051 -64.41822 
L 102.540495 -64.376814 
L 100.58294 -64.327516 
L 98.625384 -64.270891 
L 96.667829 -64.207504 
L 94.710273 -64.137922 
L 92.752718 -64.062711 
L 90.795162 -63.982437 
L 88.837607 -63.897664 
L 86.880051 -63.80896 
L 84.922496 -63.716891 
L 82.964941 -63.622021 
L 81.007385 -63.524917 
L 79.04983 -63.426145 
z
" style="stroke: #d62728; stroke-opacity: 0.7"/>
    </defs>
    <g clip-path="url(#p691f99d53c)">
     <use xlink:href="#mda2d1fa06d" x="0" y="424.024687" style="fill: #d62728; fill-opacity: 0.7; stroke: #d62728; stroke-opacity: 0.7"/>
    </g>
   </g>
   <g id="FillBetweenPolyCollection_2">
    <defs>
     <path id="m5835789523" d="M 79.04983 -150.364739 
L 79.04983 -63.426145 
L 81.007385 -63.524917 
L 82.964941 -63.622021 
L 84.922496 -63.716891 
L 86.880051 -63.80896 
L 88.837607 -63.897664 
L 90.795162 -63.982437 
L 92.752718 -64.062711 
L 94.710273 -64.137922 
L 96.667829 -64.207504 
L 98.625384 -64.270891 
L 100.58294 -64.327516 
L 102.540495 -64.376814 
L 104.498051 -64.41822 
L 106.455606 -64.451166 
L 108.413162 -64.475099 
L 110.370717 -64.494413 
L 112.328273 -64.512964 
L 114.285828 -64.530667 
L 116.243384 -64.547435 
L 118.200939 -64.563181 
L 120.158495 -64.577819 
L 122.11605 -64.591262 
L 124.073606 -64.603425 
L 126.031161 -64.61422 
L 127.988717 -64.623561 
L 129.946272 -64.631362 
L 131.903828 -64.637537 
L 133.861383 -64.641998 
L 135.818939 -64.644659 
L 137.776494 -64.645011 
L 139.73405 -64.595427 
L 141.691605 -64.4717 
L 143.649161 -64.285461 
L 145.606716 -64.048339 
L 147.564272 -63.771965 
L 149.521827 -63.467968 
L 151.479383 -63.147981 
L 153.436938 -62.823632 
L 155.394494 -62.506551 
L 157.352049 -62.20837 
L 159.309605 -61.940719 
L 161.26716 -61.715227 
L 163.224716 -61.543526 
L 165.182271 -61.437244 
L 167.139827 -61.40724 
L 169.097382 -61.418906 
L 171.054937 -61.446591 
L 173.012493 -61.487763 
L 174.970048 -61.539889 
L 176.927604 -61.600436 
L 178.885159 -61.666873 
L 180.842715 -61.736665 
L 182.80027 -61.80728 
L 184.757826 -61.876185 
L 186.715381 -61.940849 
L 188.672937 -61.998737 
L 190.630492 -62.047317 
L 192.588048 -62.084057 
L 194.545603 -62.106423 
L 196.503159 -62.111542 
L 198.460714 -62.087093 
L 200.41827 -62.030586 
L 202.375825 -61.945648 
L 204.333381 -61.835908 
L 206.290936 -61.704994 
L 208.248492 -61.556533 
L 210.206047 -61.394155 
L 212.163603 -61.221486 
L 214.121158 -61.042155 
L 216.078714 -60.859789 
L 218.036269 -60.678018 
L 219.993825 -60.50047 
L 221.95138 -60.330771 
L 223.908936 -60.17255 
L 225.866491 -60.028275 
L 227.824047 -59.876068 
L 229.781602 -59.70929 
L 231.739158 -59.531774 
L 233.696713 -59.347354 
L 235.654269 -59.159863 
L 237.611824 -58.973135 
L 239.56938 -58.791003 
L 241.526935 -58.617301 
L 243.484491 -58.455862 
L 245.442046 -58.31052 
L 247.399602 -58.185109 
L 249.357157 -58.083462 
L 251.314712 -58.009413 
L 253.272268 -57.966794 
L 255.229823 -57.958134 
L 257.187379 -57.965433 
L 259.144934 -57.981471 
L 261.10249 -58.005793 
L 263.060045 -58.037943 
L 265.017601 -58.077469 
L 266.975156 -58.123914 
L 268.932712 -58.176824 
L 270.890267 -58.235745 
L 272.847823 -58.300222 
L 274.805378 -58.3698 
L 276.762934 -58.444025 
L 278.720489 -58.522442 
L 280.678045 -58.604595 
L 282.6356 -58.690032 
L 284.593156 -58.783398 
L 286.550711 -58.941184 
L 288.508267 -59.169369 
L 290.465822 -59.45549 
L 292.423378 -59.787086 
L 294.380933 -60.151695 
L 296.338489 -60.536854 
L 298.296044 -60.930103 
L 300.2536 -61.318978 
L 302.211155 -61.691017 
L 304.168711 -62.03376 
L 306.126266 -62.334743 
L 308.083822 -62.581506 
L 310.041377 -62.761585 
L 311.998933 -62.862519 
L 313.956488 -62.868387 
L 315.914044 -62.745216 
L 317.871599 -62.502911 
L 319.829155 -62.161082 
L 321.78671 -61.73934 
L 323.744266 -61.257296 
L 325.701821 -60.734559 
L 327.659377 -60.190741 
L 329.616932 -59.645453 
L 331.574487 -59.118304 
L 333.532043 -58.628905 
L 335.489598 -58.196868 
L 337.447154 -57.841802 
L 339.404709 -57.583318 
L 341.362265 -57.441027 
L 343.31982 -57.423496 
L 345.277376 -57.460507 
L 347.234931 -57.532661 
L 349.192487 -57.635861 
L 351.150042 -57.766009 
L 353.107598 -57.919009 
L 355.065153 -58.090761 
L 357.022709 -58.27717 
L 358.980264 -58.474138 
L 360.93782 -58.677567 
L 362.895375 -58.883359 
L 364.852931 -59.087418 
L 366.810486 -59.285646 
L 368.768042 -59.473945 
L 370.725597 -59.648218 
L 372.683153 -59.809594 
L 374.640708 -59.985257 
L 376.598264 -60.176144 
L 378.555819 -60.377956 
L 380.513375 -60.586397 
L 382.47093 -60.797167 
L 384.428486 -61.00597 
L 386.386041 -61.208507 
L 388.343597 -61.40048 
L 390.301152 -61.577592 
L 392.258708 -61.735544 
L 394.216263 -61.870039 
L 396.173819 -61.976778 
L 398.131374 -62.051465 
L 400.08893 -62.0898 
L 402.046485 -62.085968 
L 404.004041 -62.032816 
L 405.961596 -61.936263 
L 407.919152 -61.803633 
L 409.876707 -61.642251 
L 411.834263 -61.459442 
L 413.791818 -61.262532 
L 415.749373 -61.058847 
L 417.706929 -60.85571 
L 419.664484 -60.660449 
L 421.62204 -60.480387 
L 423.579595 -60.322851 
L 425.537151 -60.195165 
L 427.494706 -60.104655 
L 429.452262 -60.058646 
L 431.409817 -60.056766 
L 433.367373 -60.070778 
L 435.324928 -60.095656 
L 437.282484 -60.12955 
L 439.240039 -60.170612 
L 441.197595 -60.216991 
L 443.15515 -60.266839 
L 445.112706 -60.318304 
L 447.070261 -60.369539 
L 449.027817 -60.418692 
L 450.985372 -60.463915 
L 452.942928 -60.503359 
L 454.900483 -60.535173 
L 456.858039 -60.557508 
L 458.815594 -60.568514 
L 460.77315 -60.557177 
L 462.730705 -60.493655 
L 464.688261 -60.381155 
L 466.645816 -60.225701 
L 468.603372 -60.033318 
L 470.560927 -59.810031 
L 472.518483 -59.561864 
L 474.476038 -59.294843 
L 476.433594 -59.014991 
L 478.391149 -58.728334 
L 480.348705 -58.440895 
L 482.30626 -58.1587 
L 484.263816 -57.887774 
L 486.221371 -57.634141 
L 488.178927 -57.403825 
L 490.136482 -57.194158 
L 492.094038 -56.983467 
L 494.051593 -56.771072 
L 496.009148 -56.557808 
L 497.966704 -56.344513 
L 499.924259 -56.132023 
L 501.881815 -55.921175 
L 503.83937 -55.712806 
L 505.796926 -55.507752 
L 507.754481 -55.30685 
L 509.712037 -55.110937 
L 511.669592 -54.920849 
L 513.627148 -54.737424 
L 515.584703 -54.561498 
L 517.542259 -54.393908 
L 519.499814 -54.233456 
L 521.45737 -54.075703 
L 523.414925 -53.920672 
L 525.372481 -53.768607 
L 527.330036 -53.619753 
L 529.287592 -53.474353 
L 531.245147 -53.332651 
L 533.202703 -53.19489 
L 535.160258 -53.061315 
L 537.117814 -52.93217 
L 539.075369 -52.807697 
L 541.032925 -52.688141 
L 542.99048 -52.573746 
L 544.948036 -52.464755 
L 546.905591 -52.361413 
L 548.863147 -52.260575 
L 550.820702 -52.156207 
L 552.778258 -52.049645 
L 554.735813 -51.942445 
L 556.693369 -51.836164 
L 558.650924 -51.732359 
L 560.60848 -51.632585 
L 562.566035 -51.5384 
L 564.523591 -51.451359 
L 566.481146 -51.37302 
L 568.438702 -51.304939 
L 570.396257 -51.248672 
L 572.353813 -51.205776 
L 574.311368 -51.177808 
L 576.268923 -51.166324 
L 578.226479 -51.171453 
L 580.184034 -51.190214 
L 582.14159 -51.220524 
L 584.099145 -51.260329 
L 586.056701 -51.307577 
L 588.014256 -51.360213 
L 589.971812 -51.416186 
L 591.929367 -51.473443 
L 593.886923 -51.529929 
L 595.844478 -51.583592 
L 597.802034 -51.632379 
L 599.759589 -51.674238 
L 601.717145 -51.707114 
L 603.6747 -51.728955 
L 605.632256 -51.737708 
L 607.589811 -51.728313 
L 609.547367 -51.697535 
L 611.504922 -51.648587 
L 613.462478 -51.584728 
L 615.420033 -51.509217 
L 617.377589 -51.425313 
L 619.335144 -51.336277 
L 621.2927 -51.245366 
L 623.250255 -51.15584 
L 625.207811 -51.070959 
L 627.165366 -50.993981 
L 629.122922 -50.928167 
L 631.080477 -50.876774 
L 633.038033 -50.843063 
L 634.995588 -50.830292 
L 636.953144 -50.834451 
L 638.910699 -50.847863 
L 640.868255 -50.870429 
L 642.82581 -50.90207 
L 644.783366 -50.942707 
L 646.740921 -50.992259 
L 648.698477 -51.050648 
L 650.656032 -51.117794 
L 652.613588 -51.193617 
L 654.571143 -51.278038 
L 656.528699 -51.370978 
L 658.486254 -51.472357 
L 660.443809 -51.582094 
L 662.401365 -51.700112 
L 664.35892 -51.826331 
L 664.35892 -107.001857 
L 664.35892 -107.001857 
L 662.401365 -106.959045 
L 660.443809 -106.92651 
L 658.486254 -106.904283 
L 656.528699 -106.892395 
L 654.571143 -106.890877 
L 652.613588 -106.899761 
L 650.656032 -106.919078 
L 648.698477 -106.94886 
L 646.740921 -106.989137 
L 644.783366 -107.039941 
L 642.82581 -107.101303 
L 640.868255 -107.173256 
L 638.910699 -107.255829 
L 636.953144 -107.349054 
L 634.995588 -107.453006 
L 633.038033 -107.58528 
L 631.080477 -107.755452 
L 629.122922 -107.956493 
L 627.165366 -108.181371 
L 625.207811 -108.423055 
L 623.250255 -108.674517 
L 621.2927 -108.928724 
L 619.335144 -109.178646 
L 617.377589 -109.417254 
L 615.420033 -109.637515 
L 613.462478 -109.832401 
L 611.504922 -109.994879 
L 609.547367 -110.117921 
L 607.589811 -110.194494 
L 605.632256 -110.217495 
L 603.6747 -110.174579 
L 601.717145 -110.067491 
L 599.759589 -109.906298 
L 597.802034 -109.701065 
L 595.844478 -109.461858 
L 593.886923 -109.198744 
L 591.929367 -108.921789 
L 589.971812 -108.641059 
L 588.014256 -108.366621 
L 586.056701 -108.10854 
L 584.099145 -107.876883 
L 582.14159 -107.681716 
L 580.184034 -107.533105 
L 578.226479 -107.441116 
L 576.268923 -107.416679 
L 574.311368 -107.511861 
L 572.353813 -107.740114 
L 570.396257 -108.083875 
L 568.438702 -108.525584 
L 566.481146 -109.047678 
L 564.523591 -109.632595 
L 562.566035 -110.262773 
L 560.60848 -110.920651 
L 558.650924 -111.588666 
L 556.693369 -112.249256 
L 554.735813 -112.884859 
L 552.778258 -113.477914 
L 550.820702 -114.010859 
L 548.863147 -114.466131 
L 546.905591 -114.828185 
L 544.948036 -115.150462 
L 542.99048 -115.464246 
L 541.032925 -115.770534 
L 539.075369 -116.070326 
L 537.117814 -116.364619 
L 535.160258 -116.654412 
L 533.202703 -116.940704 
L 531.245147 -117.224492 
L 529.287592 -117.506774 
L 527.330036 -117.78855 
L 525.372481 -118.070818 
L 523.414925 -118.354575 
L 521.45737 -118.64082 
L 519.499814 -118.930551 
L 517.542259 -119.224483 
L 515.584703 -119.517453 
L 513.627148 -119.808216 
L 511.669592 -120.098121 
L 509.712037 -120.388513 
L 507.754481 -120.68074 
L 505.796926 -120.976149 
L 503.83937 -121.276087 
L 501.881815 -121.5819 
L 499.924259 -121.894936 
L 497.966704 -122.216541 
L 496.009148 -122.548062 
L 494.051593 -122.890847 
L 492.094038 -123.246242 
L 490.136482 -123.615594 
L 488.178927 -124.005778 
L 486.221371 -124.498657 
L 484.263816 -125.103871 
L 482.30626 -125.799027 
L 480.348705 -126.561731 
L 478.391149 -127.369592 
L 476.433594 -128.200215 
L 474.476038 -129.031209 
L 472.518483 -129.84018 
L 470.560927 -130.604735 
L 468.603372 -131.302483 
L 466.645816 -131.911029 
L 464.688261 -132.407982 
L 462.730705 -132.770948 
L 460.77315 -132.977534 
L 458.815594 -133.008061 
L 456.858039 -132.884943 
L 454.900483 -132.633667 
L 452.942928 -132.273284 
L 450.985372 -131.822844 
L 449.027817 -131.301396 
L 447.070261 -130.727991 
L 445.112706 -130.121679 
L 443.15515 -129.501509 
L 441.197595 -128.886531 
L 439.240039 -128.295797 
L 437.282484 -127.748355 
L 435.324928 -127.263255 
L 433.367373 -126.859548 
L 431.409817 -126.556284 
L 429.452262 -126.367997 
L 427.494706 -126.262351 
L 425.537151 -126.220568 
L 423.579595 -126.232266 
L 421.62204 -126.287059 
L 419.664484 -126.374565 
L 417.706929 -126.484399 
L 415.749373 -126.606179 
L 413.791818 -126.72952 
L 411.834263 -126.844039 
L 409.876707 -126.939353 
L 407.919152 -127.005076 
L 405.961596 -127.030827 
L 404.004041 -127.006221 
L 402.046485 -126.920875 
L 400.08893 -126.764896 
L 398.131374 -126.537594 
L 396.173819 -126.245743 
L 394.216263 -125.896254 
L 392.258708 -125.496039 
L 390.301152 -125.052009 
L 388.343597 -124.571076 
L 386.386041 -124.060151 
L 384.428486 -123.526146 
L 382.47093 -122.975971 
L 380.513375 -122.416539 
L 378.555819 -121.854761 
L 376.598264 -121.297549 
L 374.640708 -120.751813 
L 372.683153 -120.224466 
L 370.725597 -119.707722 
L 368.768042 -119.123945 
L 366.810486 -118.474626 
L 364.852931 -117.776359 
L 362.895375 -117.045737 
L 360.93782 -116.299352 
L 358.980264 -115.553797 
L 357.022709 -114.825666 
L 355.065153 -114.13155 
L 353.107598 -113.488043 
L 351.150042 -112.911737 
L 349.192487 -112.419226 
L 347.234931 -112.027101 
L 345.277376 -111.751957 
L 343.31982 -111.610385 
L 341.362265 -111.627438 
L 339.404709 -111.844157 
L 337.447154 -112.24091 
L 335.489598 -112.790937 
L 333.532043 -113.467481 
L 331.574487 -114.243783 
L 329.616932 -115.093085 
L 327.659377 -115.988627 
L 325.701821 -116.903653 
L 323.744266 -117.811402 
L 321.78671 -118.685118 
L 319.829155 -119.49804 
L 317.871599 -120.223411 
L 315.914044 -120.834473 
L 313.956488 -121.304466 
L 311.998933 -121.629965 
L 310.041377 -121.893485 
L 308.083822 -122.109103 
L 306.126266 -122.281358 
L 304.168711 -122.41479 
L 302.211155 -122.513939 
L 300.2536 -122.583345 
L 298.296044 -122.627548 
L 296.338489 -122.651089 
L 294.380933 -122.658506 
L 292.423378 -122.65434 
L 290.465822 -122.643131 
L 288.508267 -122.62942 
L 286.550711 -122.617745 
L 284.593156 -122.612647 
L 282.6356 -122.613124 
L 280.678045 -122.603717 
L 278.720489 -122.585397 
L 276.762934 -122.560698 
L 274.805378 -122.532156 
L 272.847823 -122.502306 
L 270.890267 -122.473684 
L 268.932712 -122.448825 
L 266.975156 -122.430265 
L 265.017601 -122.420538 
L 263.060045 -122.422181 
L 261.10249 -122.437728 
L 259.144934 -122.469716 
L 257.187379 -122.520679 
L 255.229823 -122.593153 
L 253.272268 -122.705721 
L 251.314712 -122.902045 
L 249.357157 -123.176611 
L 247.399602 -123.520787 
L 245.442046 -123.925943 
L 243.484491 -124.383447 
L 241.526935 -124.884668 
L 239.56938 -125.420976 
L 237.611824 -125.98374 
L 235.654269 -126.564328 
L 233.696713 -127.154111 
L 231.739158 -127.744456 
L 229.781602 -128.326734 
L 227.824047 -128.892313 
L 225.866491 -129.432562 
L 223.908936 -129.97599 
L 221.95138 -130.600094 
L 219.993825 -131.291339 
L 218.036269 -132.03197 
L 216.078714 -132.804231 
L 214.121158 -133.590365 
L 212.163603 -134.372617 
L 210.206047 -135.13323 
L 208.248492 -135.854449 
L 206.290936 -136.518517 
L 204.333381 -137.107679 
L 202.375825 -137.604178 
L 200.41827 -137.990259 
L 198.460714 -138.248166 
L 196.503159 -138.360142 
L 194.545603 -138.333439 
L 192.588048 -138.218492 
L 190.630492 -138.029677 
L 188.672937 -137.780009 
L 186.715381 -137.482506 
L 184.757826 -137.150184 
L 182.80027 -136.796059 
L 180.842715 -136.433148 
L 178.885159 -136.074467 
L 176.927604 -135.733033 
L 174.970048 -135.421862 
L 173.012493 -135.153972 
L 171.054937 -134.942378 
L 169.097382 -134.800096 
L 167.139827 -134.740144 
L 165.182271 -134.948768 
L 163.224716 -135.686419 
L 161.26716 -136.878123 
L 159.309605 -138.443159 
L 157.352049 -140.300808 
L 155.394494 -142.370347 
L 153.436938 -144.571058 
L 151.479383 -146.822219 
L 149.521827 -149.043109 
L 147.564272 -151.153009 
L 145.606716 -153.071198 
L 143.649161 -154.716955 
L 141.691605 -156.009559 
L 139.73405 -156.868291 
L 137.776494 -157.212429 
L 135.818939 -157.171359 
L 133.861383 -157.027423 
L 131.903828 -156.797044 
L 129.946272 -156.49421 
L 127.988717 -156.132911 
L 126.031161 -155.727134 
L 124.073606 -155.290866 
L 122.11605 -154.838097 
L 120.158495 -154.382814 
L 118.200939 -153.939006 
L 116.243384 -153.52066 
L 114.285828 -153.141766 
L 112.328273 -152.81631 
L 110.370717 -152.558281 
L 108.413162 -152.381667 
L 106.455606 -152.252171 
L 104.498051 -152.117064 
L 102.540495 -151.977376 
L 100.58294 -151.834262 
L 98.625384 -151.688878 
L 96.667829 -151.542383 
L 94.710273 -151.395933 
L 92.752718 -151.250684 
L 90.795162 -151.107792 
L 88.837607 -150.968416 
L 86.880051 -150.833711 
L 84.922496 -150.704834 
L 82.964941 -150.582942 
L 81.007385 -150.469192 
L 79.04983 -150.364739 
z
" style="stroke: #1f77b4; stroke-opacity: 0.7"/>
    </defs>
    <g clip-path="url(#p691f99d53c)">
     <use xlink:href="#m5835789523" x="0" y="424.024687" style="fill: #1f77b4; fill-opacity: 0.7; stroke: #1f77b4; stroke-opacity: 0.7"/>
    </g>
   </g>
   <g id="FillBetweenPolyCollection_3">
    <defs>
     <path id="m2df18f1c09" d="M 79.04983 -150.404427 
L 79.04983 -150.364739 
L 81.007385 -150.469192 
L 82.964941 -150.582942 
L 84.922496 -150.704834 
L 86.880051 -150.833711 
L 88.837607 -150.968416 
L 90.795162 -151.107792 
L 92.752718 -151.250684 
L 94.710273 -151.395933 
L 96.667829 -151.542383 
L 98.625384 -151.688878 
L 100.58294 -151.834262 
L 102.540495 -151.977376 
L 104.498051 -152.117064 
L 106.455606 -152.252171 
L 108.413162 -152.381667 
L 110.370717 -152.558281 
L 112.328273 -152.81631 
L 114.285828 -153.141766 
L 116.243384 -153.52066 
L 118.200939 -153.939006 
L 120.158495 -154.382814 
L 122.11605 -154.838097 
L 124.073606 -155.290866 
L 126.031161 -155.727134 
L 127.988717 -156.132911 
L 129.946272 -156.49421 
L 131.903828 -156.797044 
L 133.861383 -157.027423 
L 135.818939 -157.171359 
L 137.776494 -157.212429 
L 139.73405 -156.868291 
L 141.691605 -156.009559 
L 143.649161 -154.716955 
L 145.606716 -153.071198 
L 147.564272 -151.153009 
L 149.521827 -149.043109 
L 151.479383 -146.822219 
L 153.436938 -144.571058 
L 155.394494 -142.370347 
L 157.352049 -140.300808 
L 159.309605 -138.443159 
L 161.26716 -136.878123 
L 163.224716 -135.686419 
L 165.182271 -134.948768 
L 167.139827 -134.740144 
L 169.097382 -134.800096 
L 171.054937 -134.942378 
L 173.012493 -135.153972 
L 174.970048 -135.421862 
L 176.927604 -135.733033 
L 178.885159 -136.074467 
L 180.842715 -136.433148 
L 182.80027 -136.796059 
L 184.757826 -137.150184 
L 186.715381 -137.482506 
L 188.672937 -137.780009 
L 190.630492 -138.029677 
L 192.588048 -138.218492 
L 194.545603 -138.333439 
L 196.503159 -138.360142 
L 198.460714 -138.248166 
L 200.41827 -137.990259 
L 202.375825 -137.604178 
L 204.333381 -137.107679 
L 206.290936 -136.518517 
L 208.248492 -135.854449 
L 210.206047 -135.13323 
L 212.163603 -134.372617 
L 214.121158 -133.590365 
L 216.078714 -132.804231 
L 218.036269 -132.03197 
L 219.993825 -131.291339 
L 221.95138 -130.600094 
L 223.908936 -129.97599 
L 225.866491 -129.432562 
L 227.824047 -128.892313 
L 229.781602 -128.326734 
L 231.739158 -127.744456 
L 233.696713 -127.154111 
L 235.654269 -126.564328 
L 237.611824 -125.98374 
L 239.56938 -125.420976 
L 241.526935 -124.884668 
L 243.484491 -124.383447 
L 245.442046 -123.925943 
L 247.399602 -123.520787 
L 249.357157 -123.176611 
L 251.314712 -122.902045 
L 253.272268 -122.705721 
L 255.229823 -122.593153 
L 257.187379 -122.520679 
L 259.144934 -122.469716 
L 261.10249 -122.437728 
L 263.060045 -122.422181 
L 265.017601 -122.420538 
L 266.975156 -122.430265 
L 268.932712 -122.448825 
L 270.890267 -122.473684 
L 272.847823 -122.502306 
L 274.805378 -122.532156 
L 276.762934 -122.560698 
L 278.720489 -122.585397 
L 280.678045 -122.603717 
L 282.6356 -122.613124 
L 284.593156 -122.612647 
L 286.550711 -122.617745 
L 288.508267 -122.62942 
L 290.465822 -122.643131 
L 292.423378 -122.65434 
L 294.380933 -122.658506 
L 296.338489 -122.651089 
L 298.296044 -122.627548 
L 300.2536 -122.583345 
L 302.211155 -122.513939 
L 304.168711 -122.41479 
L 306.126266 -122.281358 
L 308.083822 -122.109103 
L 310.041377 -121.893485 
L 311.998933 -121.629965 
L 313.956488 -121.304466 
L 315.914044 -120.834473 
L 317.871599 -120.223411 
L 319.829155 -119.49804 
L 321.78671 -118.685118 
L 323.744266 -117.811402 
L 325.701821 -116.903653 
L 327.659377 -115.988627 
L 329.616932 -115.093085 
L 331.574487 -114.243783 
L 333.532043 -113.467481 
L 335.489598 -112.790937 
L 337.447154 -112.24091 
L 339.404709 -111.844157 
L 341.362265 -111.627438 
L 343.31982 -111.610385 
L 345.277376 -111.751957 
L 347.234931 -112.027101 
L 349.192487 -112.419226 
L 351.150042 -112.911737 
L 353.107598 -113.488043 
L 355.065153 -114.13155 
L 357.022709 -114.825666 
L 358.980264 -115.553797 
L 360.93782 -116.299352 
L 362.895375 -117.045737 
L 364.852931 -117.776359 
L 366.810486 -118.474626 
L 368.768042 -119.123945 
L 370.725597 -119.707722 
L 372.683153 -120.224466 
L 374.640708 -120.751813 
L 376.598264 -121.297549 
L 378.555819 -121.854761 
L 380.513375 -122.416539 
L 382.47093 -122.975971 
L 384.428486 -123.526146 
L 386.386041 -124.060151 
L 388.343597 -124.571076 
L 390.301152 -125.052009 
L 392.258708 -125.496039 
L 394.216263 -125.896254 
L 396.173819 -126.245743 
L 398.131374 -126.537594 
L 400.08893 -126.764896 
L 402.046485 -126.920875 
L 404.004041 -127.006221 
L 405.961596 -127.030827 
L 407.919152 -127.005076 
L 409.876707 -126.939353 
L 411.834263 -126.844039 
L 413.791818 -126.72952 
L 415.749373 -126.606179 
L 417.706929 -126.484399 
L 419.664484 -126.374565 
L 421.62204 -126.287059 
L 423.579595 -126.232266 
L 425.537151 -126.220568 
L 427.494706 -126.262351 
L 429.452262 -126.367997 
L 431.409817 -126.556284 
L 433.367373 -126.859548 
L 435.324928 -127.263255 
L 437.282484 -127.748355 
L 439.240039 -128.295797 
L 441.197595 -128.886531 
L 443.15515 -129.501509 
L 445.112706 -130.121679 
L 447.070261 -130.727991 
L 449.027817 -131.301396 
L 450.985372 -131.822844 
L 452.942928 -132.273284 
L 454.900483 -132.633667 
L 456.858039 -132.884943 
L 458.815594 -133.008061 
L 460.77315 -132.977534 
L 462.730705 -132.770948 
L 464.688261 -132.407982 
L 466.645816 -131.911029 
L 468.603372 -131.302483 
L 470.560927 -130.604735 
L 472.518483 -129.84018 
L 474.476038 -129.031209 
L 476.433594 -128.200215 
L 478.391149 -127.369592 
L 480.348705 -126.561731 
L 482.30626 -125.799027 
L 484.263816 -125.103871 
L 486.221371 -124.498657 
L 488.178927 -124.005778 
L 490.136482 -123.615594 
L 492.094038 -123.246242 
L 494.051593 -122.890847 
L 496.009148 -122.548062 
L 497.966704 -122.216541 
L 499.924259 -121.894936 
L 501.881815 -121.5819 
L 503.83937 -121.276087 
L 505.796926 -120.976149 
L 507.754481 -120.68074 
L 509.712037 -120.388513 
L 511.669592 -120.098121 
L 513.627148 -119.808216 
L 515.584703 -119.517453 
L 517.542259 -119.224483 
L 519.499814 -118.930551 
L 521.45737 -118.64082 
L 523.414925 -118.354575 
L 525.372481 -118.070818 
L 527.330036 -117.78855 
L 529.287592 -117.506774 
L 531.245147 -117.224492 
L 533.202703 -116.940704 
L 535.160258 -116.654412 
L 537.117814 -116.364619 
L 539.075369 -116.070326 
L 541.032925 -115.770534 
L 542.99048 -115.464246 
L 544.948036 -115.150462 
L 546.905591 -114.828185 
L 548.863147 -114.466131 
L 550.820702 -114.010859 
L 552.778258 -113.477914 
L 554.735813 -112.884859 
L 556.693369 -112.249256 
L 558.650924 -111.588666 
L 560.60848 -110.920651 
L 562.566035 -110.262773 
L 564.523591 -109.632595 
L 566.481146 -109.047678 
L 568.438702 -108.525584 
L 570.396257 -108.083875 
L 572.353813 -107.740114 
L 574.311368 -107.511861 
L 576.268923 -107.416679 
L 578.226479 -107.441116 
L 580.184034 -107.533105 
L 582.14159 -107.681716 
L 584.099145 -107.876883 
L 586.056701 -108.10854 
L 588.014256 -108.366621 
L 589.971812 -108.641059 
L 591.929367 -108.921789 
L 593.886923 -109.198744 
L 595.844478 -109.461858 
L 597.802034 -109.701065 
L 599.759589 -109.906298 
L 601.717145 -110.067491 
L 603.6747 -110.174579 
L 605.632256 -110.217495 
L 607.589811 -110.194494 
L 609.547367 -110.117921 
L 611.504922 -109.994879 
L 613.462478 -109.832401 
L 615.420033 -109.637515 
L 617.377589 -109.417254 
L 619.335144 -109.178646 
L 621.2927 -108.928724 
L 623.250255 -108.674517 
L 625.207811 -108.423055 
L 627.165366 -108.181371 
L 629.122922 -107.956493 
L 631.080477 -107.755452 
L 633.038033 -107.58528 
L 634.995588 -107.453006 
L 636.953144 -107.349054 
L 638.910699 -107.255829 
L 640.868255 -107.173256 
L 642.82581 -107.101303 
L 644.783366 -107.039941 
L 646.740921 -106.989137 
L 648.698477 -106.94886 
L 650.656032 -106.919078 
L 652.613588 -106.899761 
L 654.571143 -106.890877 
L 656.528699 -106.892395 
L 658.486254 -106.904283 
L 660.443809 -106.92651 
L 662.401365 -106.959045 
L 664.35892 -107.001857 
L 664.35892 -107.034563 
L 664.35892 -107.034563 
L 662.401365 -106.996399 
L 660.443809 -106.96842 
L 658.486254 -106.950639 
L 656.528699 -106.943068 
L 654.571143 -106.945719 
L 652.613588 -106.958602 
L 650.656032 -106.98173 
L 648.698477 -107.015114 
L 646.740921 -107.058765 
L 644.783366 -107.112697 
L 642.82581 -107.176919 
L 640.868255 -107.251444 
L 638.910699 -107.336284 
L 636.953144 -107.43145 
L 634.995588 -107.536997 
L 633.038033 -107.670691 
L 631.080477 -107.842253 
L 629.122922 -108.044643 
L 627.165366 -108.270819 
L 625.207811 -108.513741 
L 623.250255 -108.766369 
L 621.2927 -109.021661 
L 619.335144 -109.272577 
L 617.377589 -109.512076 
L 615.420033 -109.733117 
L 613.462478 -109.92866 
L 611.504922 -110.091664 
L 609.547367 -110.215089 
L 607.589811 -110.291892 
L 605.632256 -110.314954 
L 603.6747 -110.271156 
L 601.717145 -110.161868 
L 599.759589 -109.997362 
L 597.802034 -109.787911 
L 595.844478 -109.543788 
L 593.886923 -109.275267 
L 591.929367 -108.99262 
L 589.971812 -108.706121 
L 588.014256 -108.426042 
L 586.056701 -108.162658 
L 584.099145 -107.92624 
L 582.14159 -107.727062 
L 580.184034 -107.575397 
L 578.226479 -107.481518 
L 576.268923 -107.456556 
L 574.311368 -107.552468 
L 572.353813 -107.782469 
L 570.396257 -108.128858 
L 568.438702 -108.573935 
L 566.481146 -109.100002 
L 564.523591 -109.689356 
L 562.566035 -110.324299 
L 560.60848 -110.98713 
L 558.650924 -111.66015 
L 556.693369 -112.325657 
L 554.735813 -112.965953 
L 552.778258 -113.563337 
L 550.820702 -114.100109 
L 548.863147 -114.558569 
L 546.905591 -114.923046 
L 544.948036 -115.247319 
L 542.99048 -115.562897 
L 541.032925 -115.870808 
L 539.075369 -116.172083 
L 537.117814 -116.467751 
L 535.160258 -116.758842 
L 533.202703 -117.046386 
L 531.245147 -117.331411 
L 529.287592 -117.614949 
L 527.330036 -117.898028 
L 525.372481 -118.181679 
L 523.414925 -118.466931 
L 521.45737 -118.754813 
L 519.499814 -119.046355 
L 517.542259 -119.342319 
L 515.584703 -119.637872 
L 513.627148 -119.931807 
L 511.669592 -120.225354 
L 509.712037 -120.519743 
L 507.754481 -120.816205 
L 505.796926 -121.11597 
L 503.83937 -121.420267 
L 501.881815 -121.730328 
L 499.924259 -122.047383 
L 497.966704 -122.372661 
L 496.009148 -122.707393 
L 494.051593 -123.05281 
L 492.094038 -123.410141 
L 490.136482 -123.780617 
L 488.178927 -124.171019 
L 486.221371 -124.663517 
L 484.263816 -125.267907 
L 482.30626 -125.961834 
L 480.348705 -126.722949 
L 478.391149 -127.528896 
L 476.433594 -128.357325 
L 474.476038 -129.185882 
L 472.518483 -129.992215 
L 470.560927 -130.753971 
L 468.603372 -131.448798 
L 466.645816 -132.054343 
L 464.688261 -132.548254 
L 462.730705 -132.908178 
L 460.77315 -133.111762 
L 458.815594 -133.139304 
L 456.858039 -133.012542 
L 454.900483 -132.75689 
L 452.942928 -132.391549 
L 450.985372 -131.93572 
L 449.027817 -131.408606 
L 447.070261 -130.829407 
L 445.112706 -130.217325 
L 443.15515 -129.591561 
L 441.197595 -128.971316 
L 439.240039 -128.375793 
L 437.282484 -127.824192 
L 435.324928 -127.335715 
L 433.367373 -126.929563 
L 431.409817 -126.624938 
L 429.452262 -126.436467 
L 427.494706 -126.33136 
L 425.537151 -126.290638 
L 423.579595 -126.30383 
L 421.62204 -126.360469 
L 419.664484 -126.450083 
L 417.706929 -126.562204 
L 415.749373 -126.686363 
L 413.791818 -126.812089 
L 411.834263 -126.928914 
L 409.876707 -127.026368 
L 407.919152 -127.093982 
L 405.961596 -127.121286 
L 404.004041 -127.097811 
L 402.046485 -127.013087 
L 400.08893 -126.857172 
L 398.131374 -126.629586 
L 396.173819 -126.337185 
L 394.216263 -125.986915 
L 392.258708 -125.585724 
L 390.301152 -125.140559 
L 388.343597 -124.658365 
L 386.386041 -124.14609 
L 384.428486 -123.61068 
L 382.47093 -123.059083 
L 380.513375 -122.498245 
L 378.555819 -121.935113 
L 376.598264 -121.376633 
L 374.640708 -120.829753 
L 372.683153 -120.301419 
L 370.725597 -119.783864 
L 368.768042 -119.199355 
L 366.810486 -118.54936 
L 364.852931 -117.850462 
L 362.895375 -117.119244 
L 360.93782 -116.37229 
L 358.980264 -115.626181 
L 357.022709 -114.897502 
L 355.065153 -114.202835 
L 353.107598 -113.558765 
L 351.150042 -112.981872 
L 349.192487 -112.488742 
L 347.234931 -112.095957 
L 345.277376 -111.8201 
L 343.31982 -111.677755 
L 341.362265 -111.693935 
L 339.404709 -111.909556 
L 337.447154 -112.305007 
L 335.489598 -112.853575 
L 333.532043 -113.528544 
L 331.574487 -114.3032 
L 329.616932 -115.150827 
L 327.659377 -116.044712 
L 325.701821 -116.958138 
L 323.744266 -117.864392 
L 321.78671 -118.736759 
L 319.829155 -119.548523 
L 317.871599 -120.27297 
L 315.914044 -120.883385 
L 313.956488 -121.353054 
L 311.998933 -121.678527 
L 310.041377 -121.942077 
L 308.083822 -122.157747 
L 306.126266 -122.330073 
L 304.168711 -122.46359 
L 302.211155 -122.562836 
L 300.2536 -122.632347 
L 298.296044 -122.676657 
L 296.338489 -122.700305 
L 294.380933 -122.707825 
L 292.423378 -122.703754 
L 290.465822 -122.692627 
L 288.508267 -122.678982 
L 286.550711 -122.667354 
L 284.593156 -122.662279 
L 282.6356 -122.662546 
L 280.678045 -122.652053 
L 278.720489 -122.631844 
L 276.762934 -122.604592 
L 274.805378 -122.57297 
L 272.847823 -122.539652 
L 270.890267 -122.50731 
L 268.932712 -122.478617 
L 266.975156 -122.456247 
L 265.017601 -122.442873 
L 263.060045 -122.441168 
L 261.10249 -122.453804 
L 259.144934 -122.483456 
L 257.187379 -122.532795 
L 255.229823 -122.604495 
L 253.272268 -122.717688 
L 251.314712 -122.917119 
L 249.357157 -123.196975 
L 247.399602 -123.548248 
L 245.442046 -123.961929 
L 243.484491 -124.429008 
L 241.526935 -124.940476 
L 239.56938 -125.487324 
L 237.611824 -126.060543 
L 235.654269 -126.651123 
L 233.696713 -127.250055 
L 231.739158 -127.848329 
L 229.781602 -128.436938 
L 227.824047 -129.006871 
L 225.866491 -129.549119 
L 223.908936 -130.09236 
L 221.95138 -130.715299 
L 219.993825 -131.404566 
L 218.036269 -132.142515 
L 216.078714 -132.911497 
L 214.121158 -133.693866 
L 212.163603 -134.471975 
L 210.206047 -135.228176 
L 208.248492 -135.944822 
L 206.290936 -136.604266 
L 204.333381 -137.188861 
L 202.375825 -137.680959 
L 200.41827 -138.062914 
L 198.460714 -138.317077 
L 196.503159 -138.425803 
L 194.545603 -138.396242 
L 192.588048 -138.278457 
L 190.630492 -138.086823 
L 188.672937 -137.834368 
L 186.715381 -137.53412 
L 184.757826 -137.199107 
L 182.80027 -136.842358 
L 180.842715 -136.476901 
L 178.885159 -136.115764 
L 176.927604 -135.771976 
L 174.970048 -135.458564 
L 173.012493 -135.188557 
L 171.054937 -134.974984 
L 169.097382 -134.830873 
L 167.139827 -134.769251 
L 165.182271 -134.976299 
L 163.224716 -135.71235 
L 161.26716 -136.902446 
L 159.309605 -138.465887 
L 157.352049 -140.321972 
L 155.394494 -142.39 
L 153.436938 -144.589272 
L 151.479383 -146.839085 
L 149.521827 -149.05874 
L 147.564272 -151.167537 
L 145.606716 -153.084773 
L 143.649161 -154.729749 
L 141.691605 -156.021764 
L 139.73405 -156.880117 
L 137.776494 -157.224109 
L 135.818939 -157.183472 
L 133.861383 -157.040947 
L 131.903828 -156.812813 
L 129.946272 -156.512908 
L 127.988717 -156.155072 
L 126.031161 -155.753142 
L 124.073606 -155.320959 
L 122.11605 -154.872359 
L 120.158495 -154.421182 
L 118.200939 -153.981267 
L 116.243384 -153.566452 
L 114.285828 -153.190576 
L 112.328273 -152.867477 
L 110.370717 -152.610994 
L 108.413162 -152.434966 
L 106.455606 -152.305468 
L 104.498051 -152.170335 
L 102.540495 -152.030571 
L 100.58294 -151.887311 
L 98.625384 -151.741685 
L 96.667829 -151.594825 
L 94.710273 -151.447865 
L 92.752718 -151.301937 
L 90.795162 -151.158172 
L 88.837607 -151.017703 
L 86.880051 -150.881662 
L 84.922496 -150.751182 
L 82.964941 -150.627394 
L 81.007385 -150.511432 
L 79.04983 -150.404427 
z
" style="stroke: #2ca02c; stroke-opacity: 0.7"/>
    </defs>
    <g clip-path="url(#p691f99d53c)">
     <use xlink:href="#m2df18f1c09" x="0" y="424.024687" style="fill: #2ca02c; fill-opacity: 0.7; stroke: #2ca02c; stroke-opacity: 0.7"/>
    </g>
   </g>
   <g id="FillBetweenPolyCollection_4">
    <defs>
     <path id="me73b27c477" d="M 79.04983 -154.373138 
L 79.04983 -150.404427 
L 81.007385 -150.511432 
L 82.964941 -150.627394 
L 84.922496 -150.751182 
L 86.880051 -150.881662 
L 88.837607 -151.017703 
L 90.795162 -151.158172 
L 92.752718 -151.301937 
L 94.710273 -151.447865 
L 96.667829 -151.594825 
L 98.625384 -151.741685 
L 100.58294 -151.887311 
L 102.540495 -152.030571 
L 104.498051 -152.170335 
L 106.455606 -152.305468 
L 108.413162 -152.434966 
L 110.370717 -152.610994 
L 112.328273 -152.867477 
L 114.285828 -153.190576 
L 116.243384 -153.566452 
L 118.200939 -153.981267 
L 120.158495 -154.421182 
L 122.11605 -154.872359 
L 124.073606 -155.320959 
L 126.031161 -155.753142 
L 127.988717 -156.155072 
L 129.946272 -156.512908 
L 131.903828 -156.812813 
L 133.861383 -157.040947 
L 135.818939 -157.183472 
L 137.776494 -157.224109 
L 139.73405 -156.880117 
L 141.691605 -156.021764 
L 143.649161 -154.729749 
L 145.606716 -153.084773 
L 147.564272 -151.167537 
L 149.521827 -149.05874 
L 151.479383 -146.839085 
L 153.436938 -144.589272 
L 155.394494 -142.39 
L 157.352049 -140.321972 
L 159.309605 -138.465887 
L 161.26716 -136.902446 
L 163.224716 -135.71235 
L 165.182271 -134.976299 
L 167.139827 -134.769251 
L 169.097382 -134.830873 
L 171.054937 -134.974984 
L 173.012493 -135.188557 
L 174.970048 -135.458564 
L 176.927604 -135.771976 
L 178.885159 -136.115764 
L 180.842715 -136.476901 
L 182.80027 -136.842358 
L 184.757826 -137.199107 
L 186.715381 -137.53412 
L 188.672937 -137.834368 
L 190.630492 -138.086823 
L 192.588048 -138.278457 
L 194.545603 -138.396242 
L 196.503159 -138.425803 
L 198.460714 -138.317077 
L 200.41827 -138.062914 
L 202.375825 -137.680959 
L 204.333381 -137.188861 
L 206.290936 -136.604266 
L 208.248492 -135.944822 
L 210.206047 -135.228176 
L 212.163603 -134.471975 
L 214.121158 -133.693866 
L 216.078714 -132.911497 
L 218.036269 -132.142515 
L 219.993825 -131.404566 
L 221.95138 -130.715299 
L 223.908936 -130.09236 
L 225.866491 -129.549119 
L 227.824047 -129.006871 
L 229.781602 -128.436938 
L 231.739158 -127.848329 
L 233.696713 -127.250055 
L 235.654269 -126.651123 
L 237.611824 -126.060543 
L 239.56938 -125.487324 
L 241.526935 -124.940476 
L 243.484491 -124.429008 
L 245.442046 -123.961929 
L 247.399602 -123.548248 
L 249.357157 -123.196975 
L 251.314712 -122.917119 
L 253.272268 -122.717688 
L 255.229823 -122.604495 
L 257.187379 -122.532795 
L 259.144934 -122.483456 
L 261.10249 -122.453804 
L 263.060045 -122.441168 
L 265.017601 -122.442873 
L 266.975156 -122.456247 
L 268.932712 -122.478617 
L 270.890267 -122.50731 
L 272.847823 -122.539652 
L 274.805378 -122.57297 
L 276.762934 -122.604592 
L 278.720489 -122.631844 
L 280.678045 -122.652053 
L 282.6356 -122.662546 
L 284.593156 -122.662279 
L 286.550711 -122.667354 
L 288.508267 -122.678982 
L 290.465822 -122.692627 
L 292.423378 -122.703754 
L 294.380933 -122.707825 
L 296.338489 -122.700305 
L 298.296044 -122.676657 
L 300.2536 -122.632347 
L 302.211155 -122.562836 
L 304.168711 -122.46359 
L 306.126266 -122.330073 
L 308.083822 -122.157747 
L 310.041377 -121.942077 
L 311.998933 -121.678527 
L 313.956488 -121.353054 
L 315.914044 -120.883385 
L 317.871599 -120.27297 
L 319.829155 -119.548523 
L 321.78671 -118.736759 
L 323.744266 -117.864392 
L 325.701821 -116.958138 
L 327.659377 -116.044712 
L 329.616932 -115.150827 
L 331.574487 -114.3032 
L 333.532043 -113.528544 
L 335.489598 -112.853575 
L 337.447154 -112.305007 
L 339.404709 -111.909556 
L 341.362265 -111.693935 
L 343.31982 -111.677755 
L 345.277376 -111.8201 
L 347.234931 -112.095957 
L 349.192487 -112.488742 
L 351.150042 -112.981872 
L 353.107598 -113.558765 
L 355.065153 -114.202835 
L 357.022709 -114.897502 
L 358.980264 -115.626181 
L 360.93782 -116.37229 
L 362.895375 -117.119244 
L 364.852931 -117.850462 
L 366.810486 -118.54936 
L 368.768042 -119.199355 
L 370.725597 -119.783864 
L 372.683153 -120.301419 
L 374.640708 -120.829753 
L 376.598264 -121.376633 
L 378.555819 -121.935113 
L 380.513375 -122.498245 
L 382.47093 -123.059083 
L 384.428486 -123.61068 
L 386.386041 -124.14609 
L 388.343597 -124.658365 
L 390.301152 -125.140559 
L 392.258708 -125.585724 
L 394.216263 -125.986915 
L 396.173819 -126.337185 
L 398.131374 -126.629586 
L 400.08893 -126.857172 
L 402.046485 -127.013087 
L 404.004041 -127.097811 
L 405.961596 -127.121286 
L 407.919152 -127.093982 
L 409.876707 -127.026368 
L 411.834263 -126.928914 
L 413.791818 -126.812089 
L 415.749373 -126.686363 
L 417.706929 -126.562204 
L 419.664484 -126.450083 
L 421.62204 -126.360469 
L 423.579595 -126.30383 
L 425.537151 -126.290638 
L 427.494706 -126.33136 
L 429.452262 -126.436467 
L 431.409817 -126.624938 
L 433.367373 -126.929563 
L 435.324928 -127.335715 
L 437.282484 -127.824192 
L 439.240039 -128.375793 
L 441.197595 -128.971316 
L 443.15515 -129.591561 
L 445.112706 -130.217325 
L 447.070261 -130.829407 
L 449.027817 -131.408606 
L 450.985372 -131.93572 
L 452.942928 -132.391549 
L 454.900483 -132.75689 
L 456.858039 -133.012542 
L 458.815594 -133.139304 
L 460.77315 -133.111762 
L 462.730705 -132.908178 
L 464.688261 -132.548254 
L 466.645816 -132.054343 
L 468.603372 -131.448798 
L 470.560927 -130.753971 
L 472.518483 -129.992215 
L 474.476038 -129.185882 
L 476.433594 -128.357325 
L 478.391149 -127.528896 
L 480.348705 -126.722949 
L 482.30626 -125.961834 
L 484.263816 -125.267907 
L 486.221371 -124.663517 
L 488.178927 -124.171019 
L 490.136482 -123.780617 
L 492.094038 -123.410141 
L 494.051593 -123.05281 
L 496.009148 -122.707393 
L 497.966704 -122.372661 
L 499.924259 -122.047383 
L 501.881815 -121.730328 
L 503.83937 -121.420267 
L 505.796926 -121.11597 
L 507.754481 -120.816205 
L 509.712037 -120.519743 
L 511.669592 -120.225354 
L 513.627148 -119.931807 
L 515.584703 -119.637872 
L 517.542259 -119.342319 
L 519.499814 -119.046355 
L 521.45737 -118.754813 
L 523.414925 -118.466931 
L 525.372481 -118.181679 
L 527.330036 -117.898028 
L 529.287592 -117.614949 
L 531.245147 -117.331411 
L 533.202703 -117.046386 
L 535.160258 -116.758842 
L 537.117814 -116.467751 
L 539.075369 -116.172083 
L 541.032925 -115.870808 
L 542.99048 -115.562897 
L 544.948036 -115.247319 
L 546.905591 -114.923046 
L 548.863147 -114.558569 
L 550.820702 -114.100109 
L 552.778258 -113.563337 
L 554.735813 -112.965953 
L 556.693369 -112.325657 
L 558.650924 -111.66015 
L 560.60848 -110.98713 
L 562.566035 -110.324299 
L 564.523591 -109.689356 
L 566.481146 -109.100002 
L 568.438702 -108.573935 
L 570.396257 -108.128858 
L 572.353813 -107.782469 
L 574.311368 -107.552468 
L 576.268923 -107.456556 
L 578.226479 -107.481518 
L 580.184034 -107.575397 
L 582.14159 -107.727062 
L 584.099145 -107.92624 
L 586.056701 -108.162658 
L 588.014256 -108.426042 
L 589.971812 -108.706121 
L 591.929367 -108.99262 
L 593.886923 -109.275267 
L 595.844478 -109.543788 
L 597.802034 -109.787911 
L 599.759589 -109.997362 
L 601.717145 -110.161868 
L 603.6747 -110.271156 
L 605.632256 -110.314954 
L 607.589811 -110.291892 
L 609.547367 -110.215089 
L 611.504922 -110.091664 
L 613.462478 -109.92866 
L 615.420033 -109.733117 
L 617.377589 -109.512076 
L 619.335144 -109.272577 
L 621.2927 -109.021661 
L 623.250255 -108.766369 
L 625.207811 -108.513741 
L 627.165366 -108.270819 
L 629.122922 -108.044643 
L 631.080477 -107.842253 
L 633.038033 -107.670691 
L 634.995588 -107.536997 
L 636.953144 -107.43145 
L 638.910699 -107.336284 
L 640.868255 -107.251444 
L 642.82581 -107.176919 
L 644.783366 -107.112697 
L 646.740921 -107.058765 
L 648.698477 -107.015114 
L 650.656032 -106.98173 
L 652.613588 -106.958602 
L 654.571143 -106.945719 
L 656.528699 -106.943068 
L 658.486254 -106.950639 
L 660.443809 -106.96842 
L 662.401365 -106.996399 
L 664.35892 -107.034563 
L 664.35892 -234.883486 
L 664.35892 -234.883486 
L 662.401365 -234.841862 
L 660.443809 -234.803619 
L 658.486254 -234.768941 
L 656.528699 -234.738012 
L 654.571143 -234.711015 
L 652.613588 -234.688135 
L 650.656032 -234.669554 
L 648.698477 -234.655456 
L 646.740921 -234.646026 
L 644.783366 -234.641445 
L 642.82581 -234.641899 
L 640.868255 -234.647571 
L 638.910699 -234.658643 
L 636.953144 -234.675301 
L 634.995588 -234.697599 
L 633.038033 -234.670671 
L 631.080477 -234.55445 
L 629.122922 -234.356452 
L 627.165366 -234.084193 
L 625.207811 -233.745188 
L 623.250255 -233.346954 
L 621.2927 -232.897006 
L 619.335144 -232.402861 
L 617.377589 -231.872034 
L 615.420033 -231.312042 
L 613.462478 -230.730401 
L 611.504922 -230.134626 
L 609.547367 -229.532233 
L 607.589811 -228.930739 
L 605.632256 -228.337163 
L 603.6747 -227.70139 
L 601.717145 -226.99483 
L 599.759589 -226.229758 
L 597.802034 -225.418445 
L 595.844478 -224.573164 
L 593.886923 -223.706189 
L 591.929367 -222.829791 
L 589.971812 -221.956243 
L 588.014256 -221.097818 
L 586.056701 -220.266789 
L 584.099145 -219.475429 
L 582.14159 -218.736009 
L 580.184034 -218.060804 
L 578.226479 -217.462084 
L 576.268923 -216.95271 
L 574.311368 -216.571497 
L 572.353813 -216.325061 
L 570.396257 -216.197855 
L 568.438702 -216.174333 
L 566.481146 -216.23895 
L 564.523591 -216.376159 
L 562.566035 -216.570416 
L 560.60848 -216.806172 
L 558.650924 -217.067884 
L 556.693369 -217.340004 
L 554.735813 -217.606987 
L 552.778258 -217.853287 
L 550.820702 -218.063358 
L 548.863147 -218.221654 
L 546.905591 -218.314757 
L 544.948036 -218.400023 
L 542.99048 -218.506 
L 541.032925 -218.628397 
L 539.075369 -218.762925 
L 537.117814 -218.905293 
L 535.160258 -219.051211 
L 533.202703 -219.19639 
L 531.245147 -219.336539 
L 529.287592 -219.467368 
L 527.330036 -219.584587 
L 525.372481 -219.683906 
L 523.414925 -219.761035 
L 521.45737 -219.811684 
L 519.499814 -219.831564 
L 517.542259 -219.812525 
L 515.584703 -219.670717 
L 513.627148 -219.385606 
L 511.669592 -218.973292 
L 509.712037 -218.449872 
L 507.754481 -217.831447 
L 505.796926 -217.134114 
L 503.83937 -216.373972 
L 501.881815 -215.56712 
L 499.924259 -214.729657 
L 497.966704 -213.877681 
L 496.009148 -213.027291 
L 494.051593 -212.194586 
L 492.094038 -211.395665 
L 490.136482 -210.646625 
L 488.178927 -209.964724 
L 486.221371 -209.37461 
L 484.263816 -208.86705 
L 482.30626 -208.423701 
L 480.348705 -208.026219 
L 478.391149 -207.656259 
L 476.433594 -207.295477 
L 474.476038 -206.92553 
L 472.518483 -206.528073 
L 470.560927 -206.084762 
L 468.603372 -205.577254 
L 466.645816 -204.987203 
L 464.688261 -204.296266 
L 462.730705 -203.4861 
L 460.77315 -202.538359 
L 458.815594 -201.43603 
L 456.858039 -200.188014 
L 454.900483 -198.815596 
L 452.942928 -197.338131 
L 450.985372 -195.774972 
L 449.027817 -194.145471 
L 447.070261 -192.468984 
L 445.112706 -190.764863 
L 443.15515 -189.052462 
L 441.197595 -187.351134 
L 439.240039 -185.680234 
L 437.282484 -184.059113 
L 435.324928 -182.507127 
L 433.367373 -181.043629 
L 431.409817 -179.687972 
L 429.452262 -178.456838 
L 427.494706 -177.333445 
L 425.537151 -176.298257 
L 423.579595 -175.335652 
L 421.62204 -174.430007 
L 419.664484 -173.5657 
L 417.706929 -172.727107 
L 415.749373 -171.898606 
L 413.791818 -171.064574 
L 411.834263 -170.209389 
L 409.876707 -169.317427 
L 407.919152 -168.373065 
L 405.961596 -167.360682 
L 404.004041 -166.264654 
L 402.046485 -165.069358 
L 400.08893 -163.747318 
L 398.131374 -162.213559 
L 396.173819 -160.48398 
L 394.216263 -158.5948 
L 392.258708 -156.582237 
L 390.301152 -154.482513 
L 388.343597 -152.331845 
L 386.386041 -150.166454 
L 384.428486 -148.022559 
L 382.47093 -145.93638 
L 380.513375 -143.944135 
L 378.555819 -142.082044 
L 376.598264 -140.386328 
L 374.640708 -138.893204 
L 372.683153 -137.638893 
L 370.725597 -136.61721 
L 368.768042 -135.600845 
L 366.810486 -134.56034 
L 364.852931 -133.507631 
L 362.895375 -132.454653 
L 360.93782 -131.41334 
L 358.980264 -130.395629 
L 357.022709 -129.413453 
L 355.065153 -128.478749 
L 353.107598 -127.603451 
L 351.150042 -126.799495 
L 349.192487 -126.078815 
L 347.234931 -125.453347 
L 345.277376 -124.935026 
L 343.31982 -124.535786 
L 341.362265 -124.279322 
L 339.404709 -124.220356 
L 337.447154 -124.341715 
L 335.489598 -124.617065 
L 333.532043 -125.02007 
L 331.574487 -125.524395 
L 329.616932 -126.103706 
L 327.659377 -126.731668 
L 325.701821 -127.381945 
L 323.744266 -128.028202 
L 321.78671 -128.644104 
L 319.829155 -129.203316 
L 317.871599 -129.679504 
L 315.914044 -130.046331 
L 313.956488 -130.277464 
L 311.998933 -130.364983 
L 310.041377 -130.373599 
L 308.083822 -130.320152 
L 306.126266 -130.214251 
L 304.168711 -130.065508 
L 302.211155 -129.883534 
L 300.2536 -129.677939 
L 298.296044 -129.458335 
L 296.338489 -129.234333 
L 294.380933 -129.015544 
L 292.423378 -128.811578 
L 290.465822 -128.632047 
L 288.508267 -128.486562 
L 286.550711 -128.384733 
L 284.593156 -128.336173 
L 282.6356 -128.3378 
L 280.678045 -128.351011 
L 278.720489 -128.371998 
L 276.762934 -128.400433 
L 274.805378 -128.435985 
L 272.847823 -128.478324 
L 270.890267 -128.52712 
L 268.932712 -128.582043 
L 266.975156 -128.642763 
L 265.017601 -128.70895 
L 263.060045 -128.780274 
L 261.10249 -128.856405 
L 259.144934 -128.937014 
L 257.187379 -129.021769 
L 255.229823 -129.110341 
L 253.272268 -129.219703 
L 251.314712 -129.396435 
L 249.357157 -129.636788 
L 247.399602 -129.933731 
L 245.442046 -130.280234 
L 243.484491 -130.669268 
L 241.526935 -131.093803 
L 239.56938 -131.546809 
L 237.611824 -132.021257 
L 235.654269 -132.510116 
L 233.696713 -133.006358 
L 231.739158 -133.502952 
L 229.781602 -133.992868 
L 227.824047 -134.469077 
L 225.866491 -134.924549 
L 223.908936 -135.383888 
L 221.95138 -135.913169 
L 219.993825 -136.500698 
L 218.036269 -137.131176 
L 216.078714 -137.789308 
L 214.121158 -138.459796 
L 212.163603 -139.127343 
L 210.206047 -139.776654 
L 208.248492 -140.39243 
L 206.290936 -140.959376 
L 204.333381 -141.462194 
L 202.375825 -141.885587 
L 200.41827 -142.214259 
L 198.460714 -142.432913 
L 196.503159 -142.526252 
L 194.545603 -142.498497 
L 192.588048 -142.389434 
L 190.630492 -142.212257 
L 188.672937 -141.979126 
L 186.715381 -141.702199 
L 184.757826 -141.393635 
L 182.80027 -141.065592 
L 180.842715 -140.73023 
L 178.885159 -140.399707 
L 176.927604 -140.086181 
L 174.970048 -139.801812 
L 173.012493 -139.558757 
L 171.054937 -139.369176 
L 169.097382 -139.245228 
L 167.139827 -139.19907 
L 165.182271 -139.418181 
L 163.224716 -140.166217 
L 161.26716 -141.368165 
L 159.309605 -142.943208 
L 157.352049 -144.810524 
L 155.394494 -146.889294 
L 153.436938 -149.098699 
L 151.479383 -151.35792 
L 149.521827 -153.586136 
L 147.564272 -155.702528 
L 145.606716 -157.626277 
L 143.649161 -159.276563 
L 141.691605 -160.572566 
L 139.73405 -161.433466 
L 137.776494 -161.778445 
L 135.818939 -161.733573 
L 133.861383 -161.577188 
L 131.903828 -161.326864 
L 129.946272 -160.997784 
L 127.988717 -160.605129 
L 126.031161 -160.164082 
L 124.073606 -159.689823 
L 122.11605 -159.197535 
L 120.158495 -158.7024 
L 118.200939 -158.219599 
L 116.243384 -157.764313 
L 114.285828 -157.351725 
L 112.328273 -156.997016 
L 110.370717 -156.715369 
L 108.413162 -156.521964 
L 106.455606 -156.379983 
L 104.498051 -156.232665 
L 102.540495 -156.08109 
L 100.58294 -155.926475 
L 98.625384 -155.770036 
L 96.667829 -155.612991 
L 94.710273 -155.456557 
L 92.752718 -155.301951 
L 90.795162 -155.150391 
L 88.837607 -155.003093 
L 86.880051 -154.861274 
L 84.922496 -154.726152 
L 82.964941 -154.598944 
L 81.007385 -154.480867 
L 79.04983 -154.373138 
z
" style="stroke: #ff7f0e; stroke-opacity: 0.7"/>
    </defs>
    <g clip-path="url(#p691f99d53c)">
     <use xlink:href="#me73b27c477" x="0" y="424.024687" style="fill: #ff7f0e; fill-opacity: 0.7; stroke: #ff7f0e; stroke-opacity: 0.7"/>
    </g>
   </g>
   <g id="legend_1">
    <g id="patch_3">
     <path d="M 58.784375 28.139063 
L 78.784375 28.139063 
L 78.784375 21.139063 
L 58.784375 21.139063 
z
" style="fill: #d62728; fill-opacity: 0.7; stroke: #d62728; stroke-opacity: 0.7; stroke-linejoin: miter"/>
    </g>
    <g id="text_17">
     <!-- Solo -->
     <g transform="translate(86.784375 28.139063) scale(0.1 -0.1)">
      <defs>
       <path id="NotoSansCJKjp-Regular-53" d="M 1946 -83 
C 2925 -83 3539 506 3539 1248 
C 3539 1946 3117 2266 2573 2502 
L 1901 2790 
C 1536 2944 1126 3117 1126 3571 
C 1126 3994 1472 4262 2003 4262 
C 2438 4262 2784 4090 3072 3821 
L 3386 4198 
C 3053 4544 2560 4781 2003 4781 
C 1152 4781 525 4256 525 3533 
C 525 2848 1043 2515 1478 2330 
L 2157 2035 
C 2598 1837 2938 1683 2938 1203 
C 2938 742 2566 435 1952 435 
C 1466 435 992 666 659 1018 
L 301 614 
C 710 186 1280 -83 1946 -83 
z
" transform="scale(0.015625)"/>
       <path id="NotoSansCJKjp-Regular-6c" d="M 1203 -83 
C 1363 -83 1459 -64 1542 -32 
L 1459 416 
C 1395 403 1370 403 1338 403 
C 1248 403 1171 474 1171 653 
L 1171 5094 
L 589 5094 
L 589 691 
C 589 198 768 -83 1203 -83 
z
" transform="scale(0.015625)"/>
      </defs>
      <use xlink:href="#NotoSansCJKjp-Regular-53"/>
      <use xlink:href="#NotoSansCJKjp-Regular-6f" transform="translate(59.699997 0)"/>
      <use xlink:href="#NotoSansCJKjp-Regular-6c" transform="translate(120.299988 0)"/>
      <use xlink:href="#NotoSansCJKjp-Regular-6f" transform="translate(148.799973 0)"/>
     </g>
    </g>
    <g id="patch_4">
     <path d="M 58.784375 43.389063 
L 78.784375 43.389063 
L 78.784375 36.389063 
L 58.784375 36.389063 
z
" style="fill: #1f77b4; fill-opacity: 0.7; stroke: #1f77b4; stroke-opacity: 0.7; stroke-linejoin: miter"/>
    </g>
    <g id="text_18">
     <!-- Initial -->
     <g transform="translate(86.784375 43.389063) scale(0.1 -0.1)">
      <defs>
       <path id="NotoSansCJKjp-Regular-49" d="M 640 0 
L 1235 0 
L 1235 4698 
L 640 4698 
L 640 0 
z
" transform="scale(0.015625)"/>
      </defs>
      <use xlink:href="#NotoSansCJKjp-Regular-49"/>
      <use xlink:href="#NotoSansCJKjp-Regular-6e" transform="translate(29.299988 0)"/>
      <use xlink:href="#NotoSansCJKjp-Regular-69" transform="translate(90.399979 0)"/>
      <use xlink:href="#NotoSansCJKjp-Regular-74" transform="translate(117.899963 0)"/>
      <use xlink:href="#NotoSansCJKjp-Regular-69" transform="translate(155.59996 0)"/>
      <use xlink:href="#NotoSansCJKjp-Regular-61" transform="translate(183.099945 0)"/>
      <use xlink:href="#NotoSansCJKjp-Regular-6c" transform="translate(239.499939 0)"/>
     </g>
    </g>
    <g id="patch_5">
     <path d="M 58.784375 58.639063 
L 78.784375 58.639063 
L 78.784375 51.639063 
L 58.784375 51.639063 
z
" style="fill: #2ca02c; fill-opacity: 0.7; stroke: #2ca02c; stroke-opacity: 0.7; stroke-linejoin: miter"/>
    </g>
    <g id="text_19">
     <!-- Middle -->
     <g transform="translate(86.784375 58.639063) scale(0.1 -0.1)">
      <defs>
       <path id="NotoSansCJKjp-Regular-4d" d="M 640 0 
L 1178 0 
L 1178 2598 
C 1178 3002 1133 3571 1107 3981 
L 1133 3981 
L 1504 2912 
L 2394 474 
L 2790 474 
L 3680 2912 
L 4051 3981 
L 4077 3981 
C 4045 3571 4000 3002 4000 2598 
L 4000 0 
L 4557 0 
L 4557 4698 
L 3840 4698 
L 2944 2182 
C 2835 1856 2733 1530 2624 1203 
L 2592 1203 
C 2477 1530 2368 1856 2259 2182 
L 1357 4698 
L 640 4698 
L 640 0 
z
" transform="scale(0.015625)"/>
       <path id="NotoSansCJKjp-Regular-64" d="M 1773 -83 
C 2189 -83 2554 141 2829 410 
L 2848 410 
L 2899 0 
L 3373 0 
L 3373 5094 
L 2797 5094 
L 2797 3757 
L 2822 3155 
C 2515 3411 2253 3565 1843 3565 
C 1050 3565 339 2861 339 1734 
C 339 576 902 -83 1773 -83 
z
M 1901 403 
C 1286 403 941 902 941 1741 
C 941 2534 1382 3072 1946 3072 
C 2234 3072 2496 2970 2797 2707 
L 2797 883 
C 2502 563 2221 403 1901 403 
z
" transform="scale(0.015625)"/>
      </defs>
      <use xlink:href="#NotoSansCJKjp-Regular-4d"/>
      <use xlink:href="#NotoSansCJKjp-Regular-69" transform="translate(81.199982 0)"/>
      <use xlink:href="#NotoSansCJKjp-Regular-64" transform="translate(108.699966 0)"/>
      <use xlink:href="#NotoSansCJKjp-Regular-64" transform="translate(170.699951 0)"/>
      <use xlink:href="#NotoSansCJKjp-Regular-6c" transform="translate(232.699936 0)"/>
      <use xlink:href="#NotoSansCJKjp-Regular-65" transform="translate(261.199921 0)"/>
     </g>
    </g>
    <g id="patch_6">
     <path d="M 58.784375 73.889063 
L 78.784375 73.889063 
L 78.784375 66.889063 
L 58.784375 66.889063 
z
" style="fill: #ff7f0e; fill-opacity: 0.7; stroke: #ff7f0e; stroke-opacity: 0.7; stroke-linejoin: miter"/>
    </g>
    <g id="text_20">
     <!-- End -->
     <g transform="translate(86.784375 73.889063) scale(0.1 -0.1)">
      <defs>
       <path id="NotoSansCJKjp-Regular-45" d="M 640 0 
L 3418 0 
L 3418 506 
L 1235 506 
L 1235 2214 
L 3014 2214 
L 3014 2720 
L 1235 2720 
L 1235 4192 
L 3347 4192 
L 3347 4698 
L 640 4698 
L 640 0 
z
" transform="scale(0.015625)"/>
      </defs>
      <use xlink:href="#NotoSansCJKjp-Regular-45"/>
      <use xlink:href="#NotoSansCJKjp-Regular-6e" transform="translate(58.799988 0)"/>
      <use xlink:href="#NotoSansCJKjp-Regular-64" transform="translate(119.899979 0)"/>
     </g>
    </g>
   </g>
  </g>
 </g>
 <defs>
  <clipPath id="p691f99d53c">
   <rect x="49.784375" y="11.179688" width="643.84" height="373.12"/>
  </clipPath>
 </defs>
</svg>
