<?xml version="1.0" encoding="utf-8" standalone="no"?>
<!DOCTYPE svg PUBLIC "-//W3C//DTD SVG 1.1//EN"
  "http://www.w3.org/Graphics/SVG/1.1/DTD/svg11.dtd">
<svg xmlns:xlink="http://www.w3.org/1999/xlink" width="711.825313pt" height="422.567656pt" viewBox="0 0 711.825313 422.567656" xmlns="http://www.w3.org/2000/svg" version="1.1">
 <metadata>
  <rdf:RDF xmlns:dc="http://purl.org/dc/elements/1.1/" xmlns:cc="http://creativecommons.org/ns#" xmlns:rdf="http://www.w3.org/1999/02/22-rdf-syntax-ns#">
   <cc:Work>
    <dc:type rdf:resource="http://purl.org/dc/dcmitype/StillImage"/>
    <dc:date>2026-04-25T15:46:06.991942</dc:date>
    <dc:format>image/svg+xml</dc:format>
    <dc:creator>
     <cc:Agent>
      <dc:title>Matplotlib v3.10.7, https://matplotlib.org/</dc:title>
     </cc:Agent>
    </dc:creator>
   </cc:Work>
  </rdf:RDF>
 </metadata>
 <defs>
  <style type="text/css">*{stroke-linejoin: round; stroke-linecap: butt}</style>
 </defs>
 <g id="figure_1">
  <g id="patch_1">
   <path d="M 0 422.567656 
L 711.825313 422.567656 
L 711.825313 0 
L 0 0 
z
" style="fill: #ffffff"/>
  </g>
  <g id="axes_1">
   <g id="patch_2">
    <path d="M 51.815313 381.817656 
L 692.415313 381.817656 
L 692.415313 11.577656 
L 51.815313 11.577656 
z
" style="fill: #ffffff"/>
   </g>
   <g id="matplotlib.axis_1">
    <g id="xtick_1">
     <g id="text_1">
      <!-- 2004 -->
      <g transform="translate(68.723494 397.572969) scale(0.11 -0.11)">
       <defs>
        <path id="NotoSansCJKjp-Regular-32" d="M 282 0 
L 3232 0 
L 3232 506 
L 1933 506 
C 1696 506 1408 480 1165 461 
C 2266 1504 3002 2458 3002 3392 
C 3002 4230 2477 4781 1638 4781 
C 1043 4781 640 4506 256 4090 
L 595 3757 
C 851 4064 1184 4301 1568 4301 
C 2150 4301 2432 3910 2432 3373 
C 2432 2566 1754 1632 282 346 
L 282 0 
z
" transform="scale(0.015625)"/>
        <path id="NotoSansCJKjp-Regular-30" d="M 1779 -83 
C 2669 -83 3238 730 3238 2362 
C 3238 3987 2669 4781 1779 4781 
C 883 4781 314 3994 314 2362 
C 314 730 883 -83 1779 -83 
z
M 1779 384 
C 1242 384 883 979 883 2362 
C 883 3731 1242 4314 1779 4314 
C 2310 4314 2669 3731 2669 2362 
C 2669 979 2310 384 1779 384 
z
" transform="scale(0.015625)"/>
        <path id="NotoSansCJKjp-Regular-34" d="M 736 1760 
L 1805 3360 
C 1939 3590 2067 3821 2182 4051 
L 2208 4051 
C 2195 3808 2176 3430 2176 3200 
L 2176 1760 
L 736 1760 
z
M 2176 0 
L 2726 0 
L 2726 1293 
L 3347 1293 
L 3347 1760 
L 2726 1760 
L 2726 4698 
L 2080 4698 
L 128 1677 
L 128 1293 
L 2176 1293 
L 2176 0 
z
" transform="scale(0.015625)"/>
       </defs>
       <use xlink:href="#NotoSansCJKjp-Regular-32"/>
       <use xlink:href="#NotoSansCJKjp-Regular-30" transform="translate(55.499985 0)"/>
       <use xlink:href="#NotoSansCJKjp-Regular-30" transform="translate(110.999969 0)"/>
       <use xlink:href="#NotoSansCJKjp-Regular-34" transform="translate(166.499954 0)"/>
      </g>
     </g>
    </g>
    <g id="xtick_2">
     <g id="text_2">
      <!-- 2007 -->
      <g transform="translate(156.07804 397.572969) scale(0.11 -0.11)">
       <defs>
        <path id="NotoSansCJKjp-Regular-37" d="M 1267 0 
L 1875 0 
C 1946 1837 2150 2931 3251 4339 
L 3251 4698 
L 314 4698 
L 314 4192 
L 2586 4192 
C 1670 2912 1344 1779 1267 0 
z
" transform="scale(0.015625)"/>
       </defs>
       <use xlink:href="#NotoSansCJKjp-Regular-32"/>
       <use xlink:href="#NotoSansCJKjp-Regular-30" transform="translate(55.499985 0)"/>
       <use xlink:href="#NotoSansCJKjp-Regular-30" transform="translate(110.999969 0)"/>
       <use xlink:href="#NotoSansCJKjp-Regular-37" transform="translate(166.499954 0)"/>
      </g>
     </g>
    </g>
    <g id="xtick_3">
     <g id="text_3">
      <!-- 2010 -->
      <g transform="translate(243.432585 397.572969) scale(0.11 -0.11)">
       <defs>
        <path id="NotoSansCJKjp-Regular-31" d="M 563 0 
L 3136 0 
L 3136 486 
L 2195 486 
L 2195 4698 
L 1747 4698 
C 1491 4544 1190 4435 774 4358 
L 774 3987 
L 1606 3987 
L 1606 486 
L 563 486 
L 563 0 
z
" transform="scale(0.015625)"/>
       </defs>
       <use xlink:href="#NotoSansCJKjp-Regular-32"/>
       <use xlink:href="#NotoSansCJKjp-Regular-30" transform="translate(55.499985 0)"/>
       <use xlink:href="#NotoSansCJKjp-Regular-31" transform="translate(110.999969 0)"/>
       <use xlink:href="#NotoSansCJKjp-Regular-30" transform="translate(166.499954 0)"/>
      </g>
     </g>
    </g>
    <g id="xtick_4">
     <g id="text_4">
      <!-- 2013 -->
      <g transform="translate(330.787131 397.572969) scale(0.11 -0.11)">
       <defs>
        <path id="NotoSansCJKjp-Regular-33" d="M 1690 -83 
C 2522 -83 3194 416 3194 1254 
C 3194 1894 2752 2317 2202 2445 
L 2202 2470 
C 2694 2656 3034 3034 3034 3603 
C 3034 4346 2458 4781 1670 4781 
C 1126 4781 710 4544 358 4218 
L 672 3846 
C 934 4115 1267 4301 1645 4301 
C 2131 4301 2438 4006 2438 3558 
C 2438 3053 2106 2662 1139 2662 
L 1139 2214 
C 2221 2214 2598 1837 2598 1280 
C 2598 736 2202 403 1645 403 
C 1114 403 755 653 480 941 
L 186 557 
C 493 224 954 -83 1690 -83 
z
" transform="scale(0.015625)"/>
       </defs>
       <use xlink:href="#NotoSansCJKjp-Regular-32"/>
       <use xlink:href="#NotoSansCJKjp-Regular-30" transform="translate(55.499985 0)"/>
       <use xlink:href="#NotoSansCJKjp-Regular-31" transform="translate(110.999969 0)"/>
       <use xlink:href="#NotoSansCJKjp-Regular-33" transform="translate(166.499954 0)"/>
      </g>
     </g>
    </g>
    <g id="xtick_5">
     <g id="text_5">
      <!-- 2016 -->
      <g transform="translate(418.141676 397.572969) scale(0.11 -0.11)">
       <defs>
        <path id="NotoSansCJKjp-Regular-36" d="M 1875 2477 
C 2445 2477 2726 2074 2726 1440 
C 2726 800 2374 371 1926 371 
C 1338 371 986 902 915 1875 
C 1203 2304 1581 2477 1875 2477 
z
M 1926 -83 
C 2656 -83 3270 531 3270 1440 
C 3270 2419 2765 2912 1971 2912 
C 1600 2912 1190 2694 902 2342 
C 928 3802 1472 4294 2112 4294 
C 2400 4294 2682 4160 2867 3936 
L 3187 4301 
C 2931 4576 2579 4781 2093 4781 
C 1184 4781 358 4077 358 2240 
C 358 691 1024 -83 1926 -83 
z
" transform="scale(0.015625)"/>
       </defs>
       <use xlink:href="#NotoSansCJKjp-Regular-32"/>
       <use xlink:href="#NotoSansCJKjp-Regular-30" transform="translate(55.499985 0)"/>
       <use xlink:href="#NotoSansCJKjp-Regular-31" transform="translate(110.999969 0)"/>
       <use xlink:href="#NotoSansCJKjp-Regular-36" transform="translate(166.499954 0)"/>
      </g>
     </g>
    </g>
    <g id="xtick_6">
     <g id="text_6">
      <!-- 2019 -->
      <g transform="translate(505.496222 397.572969) scale(0.11 -0.11)">
       <defs>
        <path id="NotoSansCJKjp-Regular-39" d="M 832 3258 
C 832 3898 1178 4320 1626 4320 
C 2227 4320 2586 3808 2650 2842 
C 2349 2400 1990 2214 1670 2214 
C 1114 2214 832 2624 832 3258 
z
M 1498 -83 
C 2381 -83 3200 646 3200 2547 
C 3200 4038 2528 4781 1626 4781 
C 896 4781 282 4166 282 3258 
C 282 2285 794 1779 1574 1779 
C 1965 1779 2368 2003 2656 2355 
C 2611 902 2086 403 1478 403 
C 1178 403 890 538 698 762 
L 371 397 
C 634 122 992 -83 1498 -83 
z
" transform="scale(0.015625)"/>
       </defs>
       <use xlink:href="#NotoSansCJKjp-Regular-32"/>
       <use xlink:href="#NotoSansCJKjp-Regular-30" transform="translate(55.499985 0)"/>
       <use xlink:href="#NotoSansCJKjp-Regular-31" transform="translate(110.999969 0)"/>
       <use xlink:href="#NotoSansCJKjp-Regular-39" transform="translate(166.499954 0)"/>
      </g>
     </g>
    </g>
    <g id="xtick_7">
     <g id="text_7">
      <!-- 2022 -->
      <g transform="translate(592.850767 397.572969) scale(0.11 -0.11)">
       <use xlink:href="#NotoSansCJKjp-Regular-32"/>
       <use xlink:href="#NotoSansCJKjp-Regular-30" transform="translate(55.499985 0)"/>
       <use xlink:href="#NotoSansCJKjp-Regular-32" transform="translate(110.999969 0)"/>
       <use xlink:href="#NotoSansCJKjp-Regular-32" transform="translate(166.499954 0)"/>
      </g>
     </g>
    </g>
    <g id="xtick_8">
     <g id="text_8">
      <!-- 2025 -->
      <g transform="translate(680.205313 397.572969) scale(0.11 -0.11)">
       <defs>
        <path id="NotoSansCJKjp-Regular-35" d="M 1670 -83 
C 2464 -83 3206 499 3206 1530 
C 3206 2560 2573 3021 1792 3021 
C 1510 3021 1306 2950 1094 2835 
L 1210 4192 
L 2982 4192 
L 2982 4698 
L 698 4698 
L 550 2496 
L 864 2304 
C 1133 2483 1331 2579 1645 2579 
C 2234 2579 2618 2182 2618 1510 
C 2618 826 2170 403 1619 403 
C 1075 403 736 653 467 922 
L 179 538 
C 493 224 941 -83 1670 -83 
z
" transform="scale(0.015625)"/>
       </defs>
       <use xlink:href="#NotoSansCJKjp-Regular-32"/>
       <use xlink:href="#NotoSansCJKjp-Regular-30" transform="translate(55.499985 0)"/>
       <use xlink:href="#NotoSansCJKjp-Regular-32" transform="translate(110.999969 0)"/>
       <use xlink:href="#NotoSansCJKjp-Regular-35" transform="translate(166.499954 0)"/>
      </g>
     </g>
    </g>
    <g id="text_9">
     <!-- Year -->
     <g transform="translate(360.911641 412.847969) scale(0.11 -0.11)">
      <defs>
       <path id="NotoSansCJKjp-Regular-59" d="M 1402 0 
L 1997 0 
L 1997 1824 
L 3405 4698 
L 2790 4698 
L 2182 3366 
C 2042 3021 1882 2694 1715 2342 
L 1690 2342 
C 1523 2694 1382 3021 1229 3366 
L 627 4698 
L -6 4698 
L 1402 1824 
L 1402 0 
z
" transform="scale(0.015625)"/>
       <path id="NotoSansCJKjp-Regular-65" d="M 1990 -83 
C 2464 -83 2835 77 3142 275 
L 2931 659 
C 2675 486 2400 384 2061 384 
C 1402 384 947 858 909 1600 
L 3251 1600 
C 3264 1683 3277 1805 3277 1933 
C 3277 2925 2778 3565 1894 3565 
C 1088 3565 326 2861 326 1734 
C 326 589 1069 -83 1990 -83 
z
M 902 2022 
C 973 2701 1408 3098 1901 3098 
C 2445 3098 2765 2720 2765 2022 
L 902 2022 
z
" transform="scale(0.015625)"/>
       <path id="NotoSansCJKjp-Regular-61" d="M 1389 -83 
C 1818 -83 2208 141 2541 416 
L 2560 416 
L 2611 0 
L 3091 0 
L 3091 2138 
C 3091 2995 2733 3565 1888 3565 
C 1331 3565 838 3315 518 3110 
L 749 2707 
C 1024 2893 1389 3078 1792 3078 
C 2362 3078 2509 2650 2509 2202 
C 1030 2035 371 1658 371 902 
C 371 275 806 -83 1389 -83 
z
M 1555 384 
C 1210 384 941 544 941 941 
C 941 1389 1338 1677 2509 1818 
L 2509 845 
C 2170 544 1894 384 1555 384 
z
" transform="scale(0.015625)"/>
       <path id="NotoSansCJKjp-Regular-72" d="M 589 0 
L 1171 0 
L 1171 2234 
C 1402 2829 1760 3034 2048 3034 
C 2189 3034 2272 3021 2387 2976 
L 2496 3488 
C 2387 3546 2278 3565 2125 3565 
C 1734 3565 1382 3283 1139 2842 
L 1120 2842 
L 1069 3475 
L 589 3475 
L 589 0 
z
" transform="scale(0.015625)"/>
      </defs>
      <use xlink:href="#NotoSansCJKjp-Regular-59"/>
      <use xlink:href="#NotoSansCJKjp-Regular-65" transform="translate(53.099991 0)"/>
      <use xlink:href="#NotoSansCJKjp-Regular-61" transform="translate(108.499985 0)"/>
      <use xlink:href="#NotoSansCJKjp-Regular-72" transform="translate(164.899979 0)"/>
     </g>
    </g>
   </g>
   <g id="matplotlib.axis_2">
    <g id="ytick_1">
     <g id="line2d_1">
      <path d="M 51.815313 381.817656 
L 692.415313 381.817656 
" clip-path="url(#p7c0523dca8)" style="fill: none; stroke: #808080; stroke-opacity: 0.3; stroke-width: 0.5; stroke-linecap: round"/>
     </g>
     <g id="text_10">
      <!-- 0% -->
      <g transform="translate(28.58 386.195312) scale(0.11 -0.11)">
       <defs>
        <path id="NotoSansCJKjp-Regular-25" d="M 1312 1818 
C 1958 1818 2381 2362 2381 3309 
C 2381 4250 1958 4781 1312 4781 
C 672 4781 250 4250 250 3309 
C 250 2362 672 1818 1312 1818 
z
M 1312 2182 
C 947 2182 691 2560 691 3309 
C 691 4058 947 4422 1312 4422 
C 1683 4422 1939 4058 1939 3309 
C 1939 2560 1683 2182 1312 2182 
z
M 1453 -83 
L 1843 -83 
L 4435 4781 
L 4038 4781 
L 1453 -83 
z
M 4582 -83 
C 5222 -83 5645 454 5645 1402 
C 5645 2342 5222 2874 4582 2874 
C 3942 2874 3514 2342 3514 1402 
C 3514 454 3942 -83 4582 -83 
z
M 4582 275 
C 4211 275 3962 653 3962 1402 
C 3962 2150 4211 2515 4582 2515 
C 4947 2515 5203 2150 5203 1402 
C 5203 653 4947 275 4582 275 
z
" transform="scale(0.015625)"/>
       </defs>
       <use xlink:href="#NotoSansCJKjp-Regular-30"/>
       <use xlink:href="#NotoSansCJKjp-Regular-25" transform="translate(55.499985 0)"/>
      </g>
     </g>
    </g>
    <g id="ytick_2">
     <g id="line2d_2">
      <path d="M 51.815313 307.769656 
L 692.415313 307.769656 
" clip-path="url(#p7c0523dca8)" style="fill: none; stroke: #808080; stroke-opacity: 0.3; stroke-width: 0.5; stroke-linecap: round"/>
     </g>
     <g id="text_11">
      <!-- 2% -->
      <g transform="translate(28.58 312.147312) scale(0.11 -0.11)">
       <use xlink:href="#NotoSansCJKjp-Regular-32"/>
       <use xlink:href="#NotoSansCJKjp-Regular-25" transform="translate(55.499985 0)"/>
      </g>
     </g>
    </g>
    <g id="ytick_3">
     <g id="line2d_3">
      <path d="M 51.815313 233.721656 
L 692.415313 233.721656 
" clip-path="url(#p7c0523dca8)" style="fill: none; stroke: #808080; stroke-opacity: 0.3; stroke-width: 0.5; stroke-linecap: round"/>
     </g>
     <g id="text_12">
      <!-- 4% -->
      <g transform="translate(28.58 238.099312) scale(0.11 -0.11)">
       <use xlink:href="#NotoSansCJKjp-Regular-34"/>
       <use xlink:href="#NotoSansCJKjp-Regular-25" transform="translate(55.499985 0)"/>
      </g>
     </g>
    </g>
    <g id="ytick_4">
     <g id="line2d_4">
      <path d="M 51.815313 159.673656 
L 692.415313 159.673656 
" clip-path="url(#p7c0523dca8)" style="fill: none; stroke: #808080; stroke-opacity: 0.3; stroke-width: 0.5; stroke-linecap: round"/>
     </g>
     <g id="text_13">
      <!-- 6% -->
      <g transform="translate(28.58 164.051312) scale(0.11 -0.11)">
       <use xlink:href="#NotoSansCJKjp-Regular-36"/>
       <use xlink:href="#NotoSansCJKjp-Regular-25" transform="translate(55.499985 0)"/>
      </g>
     </g>
    </g>
    <g id="ytick_5">
     <g id="line2d_5">
      <path d="M 51.815313 85.625656 
L 692.415313 85.625656 
" clip-path="url(#p7c0523dca8)" style="fill: none; stroke: #808080; stroke-opacity: 0.3; stroke-width: 0.5; stroke-linecap: round"/>
     </g>
     <g id="text_14">
      <!-- 8% -->
      <g transform="translate(28.58 90.003312) scale(0.11 -0.11)">
       <defs>
        <path id="NotoSansCJKjp-Regular-38" d="M 1786 -83 
C 2669 -83 3258 448 3258 1133 
C 3258 1773 2874 2125 2464 2362 
L 2464 2394 
C 2746 2611 3091 3034 3091 3526 
C 3091 4250 2605 4762 1805 4762 
C 1075 4762 518 4288 518 3571 
C 518 3078 806 2726 1152 2490 
L 1152 2458 
C 723 2227 288 1792 288 1165 
C 288 442 922 -83 1786 -83 
z
M 2106 2547 
C 1555 2765 1050 3008 1050 3571 
C 1050 4026 1363 4333 1798 4333 
C 2304 4333 2592 3955 2592 3494 
C 2592 3149 2426 2829 2106 2547 
z
M 1798 352 
C 1235 352 819 717 819 1216 
C 819 1664 1082 2035 1459 2278 
C 2125 2010 2701 1773 2701 1146 
C 2701 678 2336 352 1798 352 
z
" transform="scale(0.015625)"/>
       </defs>
       <use xlink:href="#NotoSansCJKjp-Regular-38"/>
       <use xlink:href="#NotoSansCJKjp-Regular-25" transform="translate(55.499985 0)"/>
      </g>
     </g>
    </g>
    <g id="ytick_6">
     <g id="line2d_6">
      <path d="M 51.815313 11.577656 
L 692.415313 11.577656 
" clip-path="url(#p7c0523dca8)" style="fill: none; stroke: #808080; stroke-opacity: 0.3; stroke-width: 0.5; stroke-linecap: round"/>
     </g>
     <g id="text_15">
      <!-- 10% -->
      <g transform="translate(22.475 15.955312) scale(0.11 -0.11)">
       <use xlink:href="#NotoSansCJKjp-Regular-31"/>
       <use xlink:href="#NotoSansCJKjp-Regular-30" transform="translate(55.499985 0)"/>
       <use xlink:href="#NotoSansCJKjp-Regular-25" transform="translate(110.999969 0)"/>
      </g>
     </g>
    </g>
    <g id="text_16">
     <!-- Proportion -->
     <g transform="translate(15.955313 224.795781) rotate(-90) scale(0.11 -0.11)">
      <defs>
       <path id="NotoSansCJKjp-Regular-50" d="M 640 0 
L 1235 0 
L 1235 1862 
L 2010 1862 
C 3040 1862 3738 2323 3738 3315 
C 3738 4339 3034 4698 1984 4698 
L 640 4698 
L 640 0 
z
M 1235 2342 
L 1235 4211 
L 1907 4211 
C 2733 4211 3149 3994 3149 3315 
C 3149 2643 2758 2342 1933 2342 
L 1235 2342 
z
" transform="scale(0.015625)"/>
       <path id="NotoSansCJKjp-Regular-6f" d="M 1939 -83 
C 2790 -83 3552 582 3552 1734 
C 3552 2893 2790 3565 1939 3565 
C 1088 3565 326 2893 326 1734 
C 326 582 1088 -83 1939 -83 
z
M 1939 403 
C 1338 403 934 934 934 1734 
C 934 2534 1338 3078 1939 3078 
C 2541 3078 2950 2534 2950 1734 
C 2950 934 2541 403 1939 403 
z
" transform="scale(0.015625)"/>
       <path id="NotoSansCJKjp-Regular-70" d="M 589 -1466 
L 1171 -1466 
L 1171 -288 
L 1158 320 
C 1472 64 1805 -83 2118 -83 
C 2918 -83 3629 602 3629 1792 
C 3629 2861 3142 3565 2246 3565 
C 1843 3565 1453 3334 1139 3078 
L 1120 3078 
L 1069 3475 
L 589 3475 
L 589 -1466 
z
M 2022 403 
C 1792 403 1485 499 1171 768 
L 1171 2592 
C 1510 2906 1811 3072 2106 3072 
C 2765 3072 3021 2554 3021 1786 
C 3021 922 2598 403 2022 403 
z
" transform="scale(0.015625)"/>
       <path id="NotoSansCJKjp-Regular-74" d="M 1683 -83 
C 1894 -83 2125 -19 2323 45 
L 2208 480 
C 2093 435 1933 390 1811 390 
C 1408 390 1274 634 1274 1062 
L 1274 3002 
L 2214 3002 
L 2214 3475 
L 1274 3475 
L 1274 4454 
L 787 4454 
L 717 3475 
L 173 3443 
L 173 3002 
L 691 3002 
L 691 1075 
C 691 384 941 -83 1683 -83 
z
" transform="scale(0.015625)"/>
       <path id="NotoSansCJKjp-Regular-69" d="M 589 0 
L 1171 0 
L 1171 3475 
L 589 3475 
L 589 0 
z
M 883 4192 
C 1114 4192 1274 4346 1274 4582 
C 1274 4806 1114 4960 883 4960 
C 653 4960 493 4806 493 4582 
C 493 4346 653 4192 883 4192 
z
" transform="scale(0.015625)"/>
       <path id="NotoSansCJKjp-Regular-6e" d="M 589 0 
L 1171 0 
L 1171 2522 
C 1523 2874 1766 3053 2125 3053 
C 2586 3053 2784 2778 2784 2125 
L 2784 0 
L 3366 0 
L 3366 2202 
C 3366 3091 3034 3565 2304 3565 
C 1830 3565 1472 3302 1139 2976 
L 1120 2976 
L 1069 3475 
L 589 3475 
L 589 0 
z
" transform="scale(0.015625)"/>
      </defs>
      <use xlink:href="#NotoSansCJKjp-Regular-50"/>
      <use xlink:href="#NotoSansCJKjp-Regular-72" transform="translate(63.199997 0)"/>
      <use xlink:href="#NotoSansCJKjp-Regular-6f" transform="translate(101.999985 0)"/>
      <use xlink:href="#NotoSansCJKjp-Regular-70" transform="translate(162.599976 0)"/>
      <use xlink:href="#NotoSansCJKjp-Regular-6f" transform="translate(224.59996 0)"/>
      <use xlink:href="#NotoSansCJKjp-Regular-72" transform="translate(285.199951 0)"/>
      <use xlink:href="#NotoSansCJKjp-Regular-74" transform="translate(323.999939 0)"/>
      <use xlink:href="#NotoSansCJKjp-Regular-69" transform="translate(361.699936 0)"/>
      <use xlink:href="#NotoSansCJKjp-Regular-6f" transform="translate(389.199921 0)"/>
      <use xlink:href="#NotoSansCJKjp-Regular-6e" transform="translate(449.799911 0)"/>
     </g>
    </g>
   </g>
   <g id="FillBetweenPolyCollection_1">
    <path d="M 80.933494 381.817656 
L 80.933494 381.817656 
L 82.881199 381.817656 
L 84.828903 381.817656 
L 86.776608 381.817656 
L 88.724312 381.817656 
L 90.672017 381.817656 
L 92.619721 381.817656 
L 94.567426 381.817656 
L 96.51513 381.817656 
L 98.462835 381.817656 
L 100.410539 381.817656 
L 102.358243 381.817656 
L 104.305948 381.817656 
L 106.253652 381.817656 
L 108.201357 381.817656 
L 110.149061 381.817656 
L 112.096766 381.817656 
L 114.04447 381.817656 
L 115.992175 381.817656 
L 117.939879 381.817656 
L 119.887584 381.817656 
L 121.835288 381.817656 
L 123.782993 381.817656 
L 125.730697 381.817656 
L 127.678402 381.817656 
L 129.626106 381.817656 
L 131.573811 381.817656 
L 133.521515 381.817656 
L 135.469219 381.817656 
L 137.416924 381.817656 
L 139.364628 381.817656 
L 141.312333 381.817656 
L 143.260037 381.817656 
L 145.207742 381.817656 
L 147.155446 381.817656 
L 149.103151 381.817656 
L 151.050855 381.817656 
L 152.99856 381.817656 
L 154.946264 381.817656 
L 156.893969 381.817656 
L 158.841673 381.817656 
L 160.789378 381.817656 
L 162.737082 381.817656 
L 164.684787 381.817656 
L 166.632491 381.817656 
L 168.580195 381.817656 
L 170.5279 381.817656 
L 172.475604 381.817656 
L 174.423309 381.817656 
L 176.371013 381.817656 
L 178.318718 381.817656 
L 180.266422 381.817656 
L 182.214127 381.817656 
L 184.161831 381.817656 
L 186.109536 381.817656 
L 188.05724 381.817656 
L 190.004945 381.817656 
L 191.952649 381.817656 
L 193.900354 381.817656 
L 195.848058 381.817656 
L 197.795762 381.817656 
L 199.743467 381.817656 
L 201.691171 381.817656 
L 203.638876 381.817656 
L 205.58658 381.817656 
L 207.534285 381.817656 
L 209.481989 381.817656 
L 211.429694 381.817656 
L 213.377398 381.817656 
L 215.325103 381.817656 
L 217.272807 381.817656 
L 219.220512 381.817656 
L 221.168216 381.817656 
L 223.115921 381.817656 
L 225.063625 381.817656 
L 227.01133 381.817656 
L 228.959034 381.817656 
L 230.906738 381.817656 
L 232.854443 381.817656 
L 234.802147 381.817656 
L 236.749852 381.817656 
L 238.697556 381.817656 
L 240.645261 381.817656 
L 242.592965 381.817656 
L 244.54067 381.817656 
L 246.488374 381.817656 
L 248.436079 381.817656 
L 250.383783 381.817656 
L 252.331488 381.817656 
L 254.279192 381.817656 
L 256.226897 381.817656 
L 258.174601 381.817656 
L 260.122306 381.817656 
L 262.07001 381.817656 
L 264.017714 381.817656 
L 265.965419 381.817656 
L 267.913123 381.817656 
L 269.860828 381.817656 
L 271.808532 381.817656 
L 273.756237 381.817656 
L 275.703941 381.817656 
L 277.651646 381.817656 
L 279.59935 381.817656 
L 281.547055 381.817656 
L 283.494759 381.817656 
L 285.442464 381.817656 
L 287.390168 381.817656 
L 289.337873 381.817656 
L 291.285577 381.817656 
L 293.233281 381.817656 
L 295.180986 381.817656 
L 297.12869 381.817656 
L 299.076395 381.817656 
L 301.024099 381.817656 
L 302.971804 381.817656 
L 304.919508 381.817656 
L 306.867213 381.817656 
L 308.814917 381.817656 
L 310.762622 381.817656 
L 312.710326 381.817656 
L 314.658031 381.817656 
L 316.605735 381.817656 
L 318.55344 381.817656 
L 320.501144 381.817656 
L 322.448849 381.817656 
L 324.396553 381.817656 
L 326.344257 381.817656 
L 328.291962 381.817656 
L 330.239666 381.817656 
L 332.187371 381.817656 
L 334.135075 381.817656 
L 336.08278 381.817656 
L 338.030484 381.817656 
L 339.978189 381.817656 
L 341.925893 381.817656 
L 343.873598 381.817656 
L 345.821302 381.817656 
L 347.769007 381.817656 
L 349.716711 381.817656 
L 351.664416 381.817656 
L 353.61212 381.817656 
L 355.559825 381.817656 
L 357.507529 381.817656 
L 359.455233 381.817656 
L 361.402938 381.817656 
L 363.350642 381.817656 
L 365.298347 381.817656 
L 367.246051 381.817656 
L 369.193756 381.817656 
L 371.14146 381.817656 
L 373.089165 381.817656 
L 375.036869 381.817656 
L 376.984574 381.817656 
L 378.932278 381.817656 
L 380.879983 381.817656 
L 382.827687 381.817656 
L 384.775392 381.817656 
L 386.723096 381.817656 
L 388.6708 381.817656 
L 390.618505 381.817656 
L 392.566209 381.817656 
L 394.513914 381.817656 
L 396.461618 381.817656 
L 398.409323 381.817656 
L 400.357027 381.817656 
L 402.304732 381.817656 
L 404.252436 381.817656 
L 406.200141 381.817656 
L 408.147845 381.817656 
L 410.09555 381.817656 
L 412.043254 381.817656 
L 413.990959 381.817656 
L 415.938663 381.817656 
L 417.886368 381.817656 
L 419.834072 381.817656 
L 421.781776 381.817656 
L 423.729481 381.817656 
L 425.677185 381.817656 
L 427.62489 381.817656 
L 429.572594 381.817656 
L 431.520299 381.817656 
L 433.468003 381.817656 
L 435.415708 381.817656 
L 437.363412 381.817656 
L 439.311117 381.817656 
L 441.258821 381.817656 
L 443.206526 381.817656 
L 445.15423 381.817656 
L 447.101935 381.817656 
L 449.049639 381.817656 
L 450.997344 381.817656 
L 452.945048 381.817656 
L 454.892752 381.817656 
L 456.840457 381.817656 
L 458.788161 381.817656 
L 460.735866 381.817656 
L 462.68357 381.817656 
L 464.631275 381.817656 
L 466.578979 381.817656 
L 468.526684 381.817656 
L 470.474388 381.817656 
L 472.422093 381.817656 
L 474.369797 381.817656 
L 476.317502 381.817656 
L 478.265206 381.817656 
L 480.212911 381.817656 
L 482.160615 381.817656 
L 484.108319 381.817656 
L 486.056024 381.817656 
L 488.003728 381.817656 
L 489.951433 381.817656 
L 491.899137 381.817656 
L 493.846842 381.817656 
L 495.794546 381.817656 
L 497.742251 381.817656 
L 499.689955 381.817656 
L 501.63766 381.817656 
L 503.585364 381.817656 
L 505.533069 381.817656 
L 507.480773 381.817656 
L 509.428478 381.817656 
L 511.376182 381.817656 
L 513.323887 381.817656 
L 515.271591 381.817656 
L 517.219295 381.817656 
L 519.167 381.817656 
L 521.114704 381.817656 
L 523.062409 381.817656 
L 525.010113 381.817656 
L 526.957818 381.817656 
L 528.905522 381.817656 
L 530.853227 381.817656 
L 532.800931 381.817656 
L 534.748636 381.817656 
L 536.69634 381.817656 
L 538.644045 381.817656 
L 540.591749 381.817656 
L 542.539454 381.817656 
L 544.487158 381.817656 
L 546.434863 381.817656 
L 548.382567 381.817656 
L 550.330271 381.817656 
L 552.277976 381.817656 
L 554.22568 381.817656 
L 556.173385 381.817656 
L 558.121089 381.817656 
L 560.068794 381.817656 
L 562.016498 381.817656 
L 563.964203 381.817656 
L 565.911907 381.817656 
L 567.859612 381.817656 
L 569.807316 381.817656 
L 571.755021 381.817656 
L 573.702725 381.817656 
L 575.65043 381.817656 
L 577.598134 381.817656 
L 579.545838 381.817656 
L 581.493543 381.817656 
L 583.441247 381.817656 
L 585.388952 381.817656 
L 587.336656 381.817656 
L 589.284361 381.817656 
L 591.232065 381.817656 
L 593.17977 381.817656 
L 595.127474 381.817656 
L 597.075179 381.817656 
L 599.022883 381.817656 
L 600.970588 381.817656 
L 602.918292 381.817656 
L 604.865997 381.817656 
L 606.813701 381.817656 
L 608.761406 381.817656 
L 610.70911 381.817656 
L 612.656814 381.817656 
L 614.604519 381.817656 
L 616.552223 381.817656 
L 618.499928 381.817656 
L 620.447632 381.817656 
L 622.395337 381.817656 
L 624.343041 381.817656 
L 626.290746 381.817656 
L 628.23845 381.817656 
L 630.186155 381.817656 
L 632.133859 381.817656 
L 634.081564 381.817656 
L 636.029268 381.817656 
L 637.976973 381.817656 
L 639.924677 381.817656 
L 641.872382 381.817656 
L 643.820086 381.817656 
L 645.76779 381.817656 
L 647.715495 381.817656 
L 649.663199 381.817656 
L 651.610904 381.817656 
L 653.558608 381.817656 
L 655.506313 381.817656 
L 657.454017 381.817656 
L 659.401722 381.817656 
L 661.349426 381.817656 
L 663.297131 381.817656 
L 663.297131 361.885489 
L 663.297131 361.885489 
L 661.349426 364.513892 
L 659.401722 366.949814 
L 657.454017 369.194828 
L 655.506313 371.25051 
L 653.558608 373.118435 
L 651.610904 374.800176 
L 649.663199 376.297309 
L 647.715495 377.611409 
L 645.76779 378.74405 
L 643.820086 379.696807 
L 641.872382 380.471254 
L 639.924677 381.068967 
L 637.976973 381.491519 
L 636.029268 381.740486 
L 634.081564 381.81693 
L 632.133859 381.511762 
L 630.186155 380.7062 
L 628.23845 379.478128 
L 626.290746 377.905427 
L 624.343041 376.06598 
L 622.395337 374.037669 
L 620.447632 371.898375 
L 618.499928 369.725981 
L 616.552223 367.59837 
L 614.604519 365.593423 
L 612.656814 363.789023 
L 610.70911 362.263051 
L 608.761406 361.093391 
L 606.813701 360.357923 
L 604.865997 360.131642 
L 602.918292 360.135824 
L 600.970588 360.146911 
L 599.022883 360.164814 
L 597.075179 360.189444 
L 595.127474 360.220712 
L 593.17977 360.258529 
L 591.232065 360.302806 
L 589.284361 360.353454 
L 587.336656 360.410384 
L 585.388952 360.473507 
L 583.441247 360.542734 
L 581.493543 360.617977 
L 579.545838 360.699145 
L 577.598134 360.786151 
L 575.65043 360.884843 
L 573.702725 361.310344 
L 571.755021 362.189373 
L 569.807316 363.449225 
L 567.859612 365.017193 
L 565.911907 366.82057 
L 563.964203 368.786652 
L 562.016498 370.842732 
L 560.068794 372.916104 
L 558.121089 374.934061 
L 556.173385 376.823898 
L 554.22568 378.512908 
L 552.277976 379.928386 
L 550.330271 380.997625 
L 548.382567 381.647919 
L 546.434863 381.807363 
L 544.487158 381.463775 
L 542.539454 380.68426 
L 540.591749 379.53829 
L 538.644045 378.095334 
L 536.69634 376.424863 
L 534.748636 374.596348 
L 532.800931 372.679257 
L 530.853227 370.743063 
L 528.905522 368.857234 
L 526.957818 367.091241 
L 525.010113 365.514555 
L 523.062409 364.196646 
L 521.114704 363.206984 
L 519.167 362.615039 
L 517.219295 362.489921 
L 515.271591 362.856955 
L 513.323887 363.656442 
L 511.376182 364.818912 
L 509.428478 366.274893 
L 507.480773 367.954916 
L 505.533069 369.789511 
L 503.585364 371.709206 
L 501.63766 373.644532 
L 499.689955 375.526019 
L 497.742251 377.284196 
L 495.794546 378.849593 
L 493.846842 380.15274 
L 491.899137 381.124166 
L 489.951433 381.694401 
L 488.003728 381.817656 
L 486.056024 381.817656 
L 484.108319 381.817656 
L 482.160615 381.817656 
L 480.212911 381.817656 
L 478.265206 381.817656 
L 476.317502 381.817656 
L 474.369797 381.817656 
L 472.422093 381.817656 
L 470.474388 381.817656 
L 468.526684 381.817656 
L 466.578979 381.817656 
L 464.631275 381.817656 
L 462.68357 381.817656 
L 460.735866 381.817656 
L 458.788161 381.817656 
L 456.840457 381.817656 
L 454.892752 381.817656 
L 452.945048 381.817656 
L 450.997344 381.817656 
L 449.049639 381.817656 
L 447.101935 381.817656 
L 445.15423 381.817656 
L 443.206526 381.817656 
L 441.258821 381.817656 
L 439.311117 381.817656 
L 437.363412 381.817656 
L 435.415708 381.817656 
L 433.468003 381.817656 
L 431.520299 381.817656 
L 429.572594 381.817656 
L 427.62489 381.817656 
L 425.677185 381.817656 
L 423.729481 381.817656 
L 421.781776 381.817656 
L 419.834072 381.817656 
L 417.886368 381.817656 
L 415.938663 381.817656 
L 413.990959 381.817656 
L 412.043254 381.817656 
L 410.09555 381.817656 
L 408.147845 381.817656 
L 406.200141 381.817656 
L 404.252436 381.817656 
L 402.304732 381.817656 
L 400.357027 381.817656 
L 398.409323 381.817656 
L 396.461618 381.817656 
L 394.513914 381.817656 
L 392.566209 381.817656 
L 390.618505 381.817656 
L 388.6708 381.817656 
L 386.723096 381.817656 
L 384.775392 381.817656 
L 382.827687 381.817656 
L 380.879983 381.817656 
L 378.932278 381.817656 
L 376.984574 381.817656 
L 375.036869 381.817656 
L 373.089165 381.817656 
L 371.14146 381.817656 
L 369.193756 381.817656 
L 367.246051 381.817656 
L 365.298347 381.817656 
L 363.350642 381.817656 
L 361.402938 381.817656 
L 359.455233 381.817656 
L 357.507529 381.817656 
L 355.559825 381.817656 
L 353.61212 381.817656 
L 351.664416 381.817656 
L 349.716711 381.817656 
L 347.769007 381.817656 
L 345.821302 381.817656 
L 343.873598 381.817656 
L 341.925893 381.817656 
L 339.978189 381.817656 
L 338.030484 381.817656 
L 336.08278 381.817656 
L 334.135075 381.817656 
L 332.187371 381.817656 
L 330.239666 381.817656 
L 328.291962 381.817656 
L 326.344257 381.817656 
L 324.396553 381.817656 
L 322.448849 381.817656 
L 320.501144 381.817656 
L 318.55344 381.817656 
L 316.605735 381.817656 
L 314.658031 381.817656 
L 312.710326 381.817656 
L 310.762622 381.817656 
L 308.814917 381.817656 
L 306.867213 381.817656 
L 304.919508 381.817656 
L 302.971804 381.817656 
L 301.024099 381.817656 
L 299.076395 381.817656 
L 297.12869 381.817656 
L 295.180986 381.817656 
L 293.233281 381.817656 
L 291.285577 381.817656 
L 289.337873 381.817656 
L 287.390168 381.817656 
L 285.442464 381.817656 
L 283.494759 381.817656 
L 281.547055 381.817656 
L 279.59935 381.817656 
L 277.651646 381.817656 
L 275.703941 381.817656 
L 273.756237 381.817656 
L 271.808532 381.817656 
L 269.860828 381.817656 
L 267.913123 381.817656 
L 265.965419 381.817656 
L 264.017714 381.817656 
L 262.07001 381.817656 
L 260.122306 381.817656 
L 258.174601 381.817656 
L 256.226897 381.817656 
L 254.279192 381.817656 
L 252.331488 381.817656 
L 250.383783 381.817656 
L 248.436079 381.817656 
L 246.488374 381.817656 
L 244.54067 381.817656 
L 242.592965 381.817656 
L 240.645261 381.817656 
L 238.697556 381.817656 
L 236.749852 381.817656 
L 234.802147 381.817656 
L 232.854443 381.817656 
L 230.906738 381.817656 
L 228.959034 381.817656 
L 227.01133 381.817656 
L 225.063625 381.817656 
L 223.115921 381.817656 
L 221.168216 381.817656 
L 219.220512 381.817656 
L 217.272807 381.817656 
L 215.325103 381.817656 
L 213.377398 381.817656 
L 211.429694 381.817656 
L 209.481989 381.817656 
L 207.534285 381.817656 
L 205.58658 381.817656 
L 203.638876 381.817656 
L 201.691171 381.817656 
L 199.743467 381.817656 
L 197.795762 381.817656 
L 195.848058 381.817656 
L 193.900354 381.817656 
L 191.952649 381.817656 
L 190.004945 381.817656 
L 188.05724 381.817656 
L 186.109536 381.817656 
L 184.161831 381.817656 
L 182.214127 381.817656 
L 180.266422 381.817656 
L 178.318718 381.817656 
L 176.371013 381.817656 
L 174.423309 381.817656 
L 172.475604 381.817656 
L 170.5279 381.817656 
L 168.580195 381.817656 
L 166.632491 381.817656 
L 164.684787 381.817656 
L 162.737082 381.817656 
L 160.789378 381.817656 
L 158.841673 381.817656 
L 156.893969 381.817656 
L 154.946264 381.817656 
L 152.99856 381.817656 
L 151.050855 381.817656 
L 149.103151 381.817656 
L 147.155446 381.817656 
L 145.207742 381.817656 
L 143.260037 381.817656 
L 141.312333 381.817656 
L 139.364628 381.817656 
L 137.416924 381.817656 
L 135.469219 381.817656 
L 133.521515 381.817656 
L 131.573811 381.817656 
L 129.626106 381.817656 
L 127.678402 381.817656 
L 125.730697 381.817656 
L 123.782993 381.817656 
L 121.835288 381.817656 
L 119.887584 381.817656 
L 117.939879 381.817656 
L 115.992175 381.817656 
L 114.04447 381.817656 
L 112.096766 381.817656 
L 110.149061 381.817656 
L 108.201357 381.817656 
L 106.253652 381.817656 
L 104.305948 381.817656 
L 102.358243 381.817656 
L 100.410539 381.817656 
L 98.462835 381.817656 
L 96.51513 381.817656 
L 94.567426 381.817656 
L 92.619721 381.817656 
L 90.672017 381.817656 
L 88.724312 381.817656 
L 86.776608 381.817656 
L 84.828903 381.817656 
L 82.881199 381.817656 
L 80.933494 381.817656 
z
" clip-path="url(#p7c0523dca8)" style="fill: url(#h16a8d50509)"/>
   </g>
   <g id="FillBetweenPolyCollection_2">
    <path d="M 80.933494 252.664168 
L 80.933494 381.817656 
L 82.881199 381.817656 
L 84.828903 381.817656 
L 86.776608 381.817656 
L 88.724312 381.817656 
L 90.672017 381.817656 
L 92.619721 381.817656 
L 94.567426 381.817656 
L 96.51513 381.817656 
L 98.462835 381.817656 
L 100.410539 381.817656 
L 102.358243 381.817656 
L 104.305948 381.817656 
L 106.253652 381.817656 
L 108.201357 381.817656 
L 110.149061 381.817656 
L 112.096766 381.817656 
L 114.04447 381.817656 
L 115.992175 381.817656 
L 117.939879 381.817656 
L 119.887584 381.817656 
L 121.835288 381.817656 
L 123.782993 381.817656 
L 125.730697 381.817656 
L 127.678402 381.817656 
L 129.626106 381.817656 
L 131.573811 381.817656 
L 133.521515 381.817656 
L 135.469219 381.817656 
L 137.416924 381.817656 
L 139.364628 381.817656 
L 141.312333 381.817656 
L 143.260037 381.817656 
L 145.207742 381.817656 
L 147.155446 381.817656 
L 149.103151 381.817656 
L 151.050855 381.817656 
L 152.99856 381.817656 
L 154.946264 381.817656 
L 156.893969 381.817656 
L 158.841673 381.817656 
L 160.789378 381.817656 
L 162.737082 381.817656 
L 164.684787 381.817656 
L 166.632491 381.817656 
L 168.580195 381.817656 
L 170.5279 381.817656 
L 172.475604 381.817656 
L 174.423309 381.817656 
L 176.371013 381.817656 
L 178.318718 381.817656 
L 180.266422 381.817656 
L 182.214127 381.817656 
L 184.161831 381.817656 
L 186.109536 381.817656 
L 188.05724 381.817656 
L 190.004945 381.817656 
L 191.952649 381.817656 
L 193.900354 381.817656 
L 195.848058 381.817656 
L 197.795762 381.817656 
L 199.743467 381.817656 
L 201.691171 381.817656 
L 203.638876 381.817656 
L 205.58658 381.817656 
L 207.534285 381.817656 
L 209.481989 381.817656 
L 211.429694 381.817656 
L 213.377398 381.817656 
L 215.325103 381.817656 
L 217.272807 381.817656 
L 219.220512 381.817656 
L 221.168216 381.817656 
L 223.115921 381.817656 
L 225.063625 381.817656 
L 227.01133 381.817656 
L 228.959034 381.817656 
L 230.906738 381.817656 
L 232.854443 381.817656 
L 234.802147 381.817656 
L 236.749852 381.817656 
L 238.697556 381.817656 
L 240.645261 381.817656 
L 242.592965 381.817656 
L 244.54067 381.817656 
L 246.488374 381.817656 
L 248.436079 381.817656 
L 250.383783 381.817656 
L 252.331488 381.817656 
L 254.279192 381.817656 
L 256.226897 381.817656 
L 258.174601 381.817656 
L 260.122306 381.817656 
L 262.07001 381.817656 
L 264.017714 381.817656 
L 265.965419 381.817656 
L 267.913123 381.817656 
L 269.860828 381.817656 
L 271.808532 381.817656 
L 273.756237 381.817656 
L 275.703941 381.817656 
L 277.651646 381.817656 
L 279.59935 381.817656 
L 281.547055 381.817656 
L 283.494759 381.817656 
L 285.442464 381.817656 
L 287.390168 381.817656 
L 289.337873 381.817656 
L 291.285577 381.817656 
L 293.233281 381.817656 
L 295.180986 381.817656 
L 297.12869 381.817656 
L 299.076395 381.817656 
L 301.024099 381.817656 
L 302.971804 381.817656 
L 304.919508 381.817656 
L 306.867213 381.817656 
L 308.814917 381.817656 
L 310.762622 381.817656 
L 312.710326 381.817656 
L 314.658031 381.817656 
L 316.605735 381.817656 
L 318.55344 381.817656 
L 320.501144 381.817656 
L 322.448849 381.817656 
L 324.396553 381.817656 
L 326.344257 381.817656 
L 328.291962 381.817656 
L 330.239666 381.817656 
L 332.187371 381.817656 
L 334.135075 381.817656 
L 336.08278 381.817656 
L 338.030484 381.817656 
L 339.978189 381.817656 
L 341.925893 381.817656 
L 343.873598 381.817656 
L 345.821302 381.817656 
L 347.769007 381.817656 
L 349.716711 381.817656 
L 351.664416 381.817656 
L 353.61212 381.817656 
L 355.559825 381.817656 
L 357.507529 381.817656 
L 359.455233 381.817656 
L 361.402938 381.817656 
L 363.350642 381.817656 
L 365.298347 381.817656 
L 367.246051 381.817656 
L 369.193756 381.817656 
L 371.14146 381.817656 
L 373.089165 381.817656 
L 375.036869 381.817656 
L 376.984574 381.817656 
L 378.932278 381.817656 
L 380.879983 381.817656 
L 382.827687 381.817656 
L 384.775392 381.817656 
L 386.723096 381.817656 
L 388.6708 381.817656 
L 390.618505 381.817656 
L 392.566209 381.817656 
L 394.513914 381.817656 
L 396.461618 381.817656 
L 398.409323 381.817656 
L 400.357027 381.817656 
L 402.304732 381.817656 
L 404.252436 381.817656 
L 406.200141 381.817656 
L 408.147845 381.817656 
L 410.09555 381.817656 
L 412.043254 381.817656 
L 413.990959 381.817656 
L 415.938663 381.817656 
L 417.886368 381.817656 
L 419.834072 381.817656 
L 421.781776 381.817656 
L 423.729481 381.817656 
L 425.677185 381.817656 
L 427.62489 381.817656 
L 429.572594 381.817656 
L 431.520299 381.817656 
L 433.468003 381.817656 
L 435.415708 381.817656 
L 437.363412 381.817656 
L 439.311117 381.817656 
L 441.258821 381.817656 
L 443.206526 381.817656 
L 445.15423 381.817656 
L 447.101935 381.817656 
L 449.049639 381.817656 
L 450.997344 381.817656 
L 452.945048 381.817656 
L 454.892752 381.817656 
L 456.840457 381.817656 
L 458.788161 381.817656 
L 460.735866 381.817656 
L 462.68357 381.817656 
L 464.631275 381.817656 
L 466.578979 381.817656 
L 468.526684 381.817656 
L 470.474388 381.817656 
L 472.422093 381.817656 
L 474.369797 381.817656 
L 476.317502 381.817656 
L 478.265206 381.817656 
L 480.212911 381.817656 
L 482.160615 381.817656 
L 484.108319 381.817656 
L 486.056024 381.817656 
L 488.003728 381.817656 
L 489.951433 381.694401 
L 491.899137 381.124166 
L 493.846842 380.15274 
L 495.794546 378.849593 
L 497.742251 377.284196 
L 499.689955 375.526019 
L 501.63766 373.644532 
L 503.585364 371.709206 
L 505.533069 369.789511 
L 507.480773 367.954916 
L 509.428478 366.274893 
L 511.376182 364.818912 
L 513.323887 363.656442 
L 515.271591 362.856955 
L 517.219295 362.489921 
L 519.167 362.615039 
L 521.114704 363.206984 
L 523.062409 364.196646 
L 525.010113 365.514555 
L 526.957818 367.091241 
L 528.905522 368.857234 
L 530.853227 370.743063 
L 532.800931 372.679257 
L 534.748636 374.596348 
L 536.69634 376.424863 
L 538.644045 378.095334 
L 540.591749 379.53829 
L 542.539454 380.68426 
L 544.487158 381.463775 
L 546.434863 381.807363 
L 548.382567 381.647919 
L 550.330271 380.997625 
L 552.277976 379.928386 
L 554.22568 378.512908 
L 556.173385 376.823898 
L 558.121089 374.934061 
L 560.068794 372.916104 
L 562.016498 370.842732 
L 563.964203 368.786652 
L 565.911907 366.82057 
L 567.859612 365.017193 
L 569.807316 363.449225 
L 571.755021 362.189373 
L 573.702725 361.310344 
L 575.65043 360.884843 
L 577.598134 360.786151 
L 579.545838 360.699145 
L 581.493543 360.617977 
L 583.441247 360.542734 
L 585.388952 360.473507 
L 587.336656 360.410384 
L 589.284361 360.353454 
L 591.232065 360.302806 
L 593.17977 360.258529 
L 595.127474 360.220712 
L 597.075179 360.189444 
L 599.022883 360.164814 
L 600.970588 360.146911 
L 602.918292 360.135824 
L 604.865997 360.131642 
L 606.813701 360.357923 
L 608.761406 361.093391 
L 610.70911 362.263051 
L 612.656814 363.789023 
L 614.604519 365.593423 
L 616.552223 367.59837 
L 618.499928 369.725981 
L 620.447632 371.898375 
L 622.395337 374.037669 
L 624.343041 376.06598 
L 626.290746 377.905427 
L 628.23845 379.478128 
L 630.186155 380.7062 
L 632.133859 381.511762 
L 634.081564 381.81693 
L 636.029268 381.740486 
L 637.976973 381.491519 
L 639.924677 381.068967 
L 641.872382 380.471254 
L 643.820086 379.696807 
L 645.76779 378.74405 
L 647.715495 377.611409 
L 649.663199 376.297309 
L 651.610904 374.800176 
L 653.558608 373.118435 
L 655.506313 371.25051 
L 657.454017 369.194828 
L 659.401722 366.949814 
L 661.349426 364.513892 
L 663.297131 361.885489 
L 663.297131 160.0723 
L 663.297131 160.0723 
L 661.349426 162.629114 
L 659.401722 164.855732 
L 657.454017 166.761928 
L 655.506313 168.357473 
L 653.558608 169.652139 
L 651.610904 170.655697 
L 649.663199 171.377921 
L 647.715495 171.828582 
L 645.76779 172.017451 
L 643.820086 171.954302 
L 641.872382 171.648906 
L 639.924677 171.111035 
L 637.976973 170.350461 
L 636.029268 169.376956 
L 634.081564 168.198602 
L 632.133859 166.123165 
L 630.186155 162.727637 
L 628.23845 158.230652 
L 626.290746 152.850846 
L 624.343041 146.806851 
L 622.395337 140.317304 
L 620.447632 133.600839 
L 618.499928 126.87609 
L 616.552223 120.361691 
L 614.604519 114.276277 
L 612.656814 108.838483 
L 610.70911 104.266942 
L 608.761406 100.780291 
L 606.813701 98.597162 
L 604.865997 97.931083 
L 602.918292 98.336124 
L 600.970588 99.352359 
L 599.022883 100.892354 
L 597.075179 102.868676 
L 595.127474 105.193892 
L 593.17977 107.780569 
L 591.232065 110.541273 
L 589.284361 113.38857 
L 587.336656 116.235028 
L 585.388952 118.993214 
L 583.441247 121.575693 
L 581.493543 123.895034 
L 579.545838 125.863801 
L 577.598134 127.394563 
L 575.65043 128.411346 
L 573.702725 129.4729 
L 571.755021 130.887352 
L 569.807316 132.598566 
L 567.859612 134.550404 
L 565.911907 136.686729 
L 563.964203 138.951404 
L 562.016498 141.288293 
L 560.068794 143.641259 
L 558.121089 145.954163 
L 556.173385 148.170871 
L 554.22568 150.235243 
L 552.277976 152.091144 
L 550.330271 153.682437 
L 548.382567 154.952984 
L 546.434863 155.867844 
L 544.487158 157.062901 
L 542.539454 158.793567 
L 540.591749 160.97284 
L 538.644045 163.513723 
L 536.69634 166.329215 
L 534.748636 169.332317 
L 532.800931 172.43603 
L 530.853227 175.553354 
L 528.905522 178.59729 
L 526.957818 181.480838 
L 525.010113 184.117 
L 523.062409 186.418775 
L 521.114704 188.299164 
L 519.167 189.671168 
L 517.219295 190.483773 
L 515.271591 191.445821 
L 513.323887 192.808659 
L 511.376182 194.501266 
L 509.428478 196.452619 
L 507.480773 198.591696 
L 505.533069 200.847472 
L 503.585364 203.148927 
L 501.63766 205.425038 
L 499.689955 207.604781 
L 497.742251 209.617134 
L 495.794546 211.391075 
L 493.846842 212.85558 
L 491.899137 213.939628 
L 489.951433 214.572195 
L 488.003728 214.652356 
L 486.056024 213.704802 
L 484.108319 211.71581 
L 482.160615 208.854034 
L 480.212911 205.288128 
L 478.265206 201.186746 
L 476.317502 196.718541 
L 474.369797 192.052168 
L 472.422093 187.356281 
L 470.474388 182.799533 
L 468.526684 178.550578 
L 466.578979 174.778071 
L 464.631275 171.650665 
L 462.68357 169.337014 
L 460.735866 168.005773 
L 458.788161 167.860223 
L 456.840457 169.352914 
L 454.892752 172.381983 
L 452.945048 176.696592 
L 450.997344 182.045906 
L 449.049639 188.179085 
L 447.101935 194.845294 
L 445.15423 201.793695 
L 443.206526 208.77345 
L 441.258821 215.533723 
L 439.311117 221.823675 
L 437.363412 227.392471 
L 435.415708 231.989273 
L 433.468003 235.363243 
L 431.520299 237.263544 
L 429.572594 237.49026 
L 427.62489 236.401593 
L 425.677185 234.258424 
L 423.729481 231.232416 
L 421.781776 227.495229 
L 419.834072 223.218522 
L 417.886368 218.573958 
L 415.938663 213.733195 
L 413.990959 208.867896 
L 412.043254 204.149721 
L 410.09555 199.750329 
L 408.147845 195.841382 
L 406.200141 192.59454 
L 404.252436 190.181464 
L 402.304732 188.773815 
L 400.357027 188.412992 
L 398.409323 188.248874 
L 396.461618 188.095649 
L 394.513914 187.953445 
L 392.566209 187.82239 
L 390.618505 187.702612 
L 388.6708 187.594237 
L 386.723096 187.497394 
L 384.775392 187.412211 
L 382.827687 187.338815 
L 380.879983 187.277333 
L 378.932278 187.227893 
L 376.984574 187.190623 
L 375.036869 187.165651 
L 373.089165 187.153103 
L 371.14146 187.262872 
L 369.193756 188.107915 
L 367.246051 189.681197 
L 365.298347 191.860837 
L 363.350642 194.524955 
L 361.402938 197.55167 
L 359.455233 200.819099 
L 357.507529 204.205363 
L 355.559825 207.58858 
L 353.61212 210.846868 
L 351.664416 213.858347 
L 349.716711 216.501136 
L 347.769007 218.653354 
L 345.821302 220.193118 
L 343.873598 220.998549 
L 341.925893 220.987414 
L 339.978189 220.319445 
L 338.030484 219.106023 
L 336.08278 217.439208 
L 334.135075 215.411058 
L 332.187371 213.113634 
L 330.239666 210.638996 
L 328.291962 208.079202 
L 326.344257 205.526313 
L 324.396553 203.072388 
L 322.448849 200.809487 
L 320.501144 198.829669 
L 318.55344 197.224994 
L 316.605735 196.087521 
L 314.658031 195.50931 
L 312.710326 195.472706 
L 310.762622 195.577345 
L 308.814917 195.77213 
L 306.867213 196.05214 
L 304.919508 196.412455 
L 302.971804 196.848154 
L 301.024099 197.354316 
L 299.076395 197.92602 
L 297.12869 198.558347 
L 295.180986 199.246375 
L 293.233281 199.985184 
L 291.285577 200.769852 
L 289.337873 201.595461 
L 287.390168 202.457087 
L 285.442464 203.349812 
L 283.494759 204.362275 
L 281.547055 205.792888 
L 279.59935 207.623126 
L 277.651646 209.806487 
L 275.703941 212.296469 
L 273.756237 215.04657 
L 271.808532 218.010287 
L 269.860828 221.141119 
L 267.913123 224.392564 
L 265.965419 227.718121 
L 264.017714 231.071286 
L 262.07001 234.405558 
L 260.122306 237.674435 
L 258.174601 240.831415 
L 256.226897 243.829996 
L 254.279192 246.778529 
L 252.331488 250.06227 
L 250.383783 253.628396 
L 248.436079 257.395109 
L 246.488374 261.280615 
L 244.54067 265.203116 
L 242.592965 269.080818 
L 240.645261 272.831923 
L 238.697556 276.374637 
L 236.749852 279.627163 
L 234.802147 282.507704 
L 232.854443 284.934466 
L 230.906738 286.825652 
L 228.959034 288.099466 
L 227.01133 288.674113 
L 225.063625 288.346519 
L 223.115921 286.868709 
L 221.168216 284.397985 
L 219.220512 281.107781 
L 217.272807 277.171531 
L 215.325103 272.762672 
L 213.377398 268.054638 
L 211.429694 263.220863 
L 209.481989 258.434783 
L 207.534285 253.869832 
L 205.58658 249.699446 
L 203.638876 246.097059 
L 201.691171 243.236106 
L 199.743467 241.290022 
L 197.795762 240.432242 
L 195.848058 240.660378 
L 193.900354 241.632152 
L 191.952649 243.228422 
L 190.004945 245.339144 
L 188.05724 247.854275 
L 186.109536 250.663772 
L 184.161831 253.657592 
L 182.214127 256.725691 
L 180.266422 259.758026 
L 178.318718 262.644553 
L 176.371013 265.27523 
L 174.423309 267.540012 
L 172.475604 269.328858 
L 170.5279 270.531723 
L 168.580195 271.038564 
L 166.632491 270.605312 
L 164.684787 269.049034 
L 162.737082 266.534805 
L 160.789378 263.232928 
L 158.841673 259.313705 
L 156.893969 254.947439 
L 154.946264 250.304432 
L 152.99856 245.554985 
L 151.050855 240.869403 
L 149.103151 236.417985 
L 147.155446 232.371036 
L 145.207742 228.898857 
L 143.260037 226.17175 
L 141.312333 224.360018 
L 139.364628 223.633962 
L 137.416924 224.212615 
L 135.469219 226.113677 
L 133.521515 229.137056 
L 131.573811 233.081441 
L 129.626106 237.745518 
L 127.678402 242.927975 
L 125.730697 248.427499 
L 123.782993 254.042778 
L 121.835288 259.572499 
L 119.887584 264.81535 
L 117.939879 269.570018 
L 115.992175 273.63519 
L 114.04447 276.809554 
L 112.096766 278.891797 
L 110.149061 279.680607 
L 108.201357 279.628284 
L 106.253652 279.4376 
L 104.305948 279.084224 
L 102.358243 278.542085 
L 100.410539 277.785113 
L 98.462835 276.787238 
L 96.51513 275.52239 
L 94.567426 273.964499 
L 92.619721 272.087495 
L 90.672017 269.865308 
L 88.724312 267.271867 
L 86.776608 264.281103 
L 84.828903 260.866945 
L 82.881199 257.003323 
L 80.933494 252.664168 
z
" clip-path="url(#p7c0523dca8)" style="fill: url(#h16ded6dea3)"/>
   </g>
   <g id="FillBetweenPolyCollection_3">
    <path d="M 80.933494 252.664168 
L 80.933494 252.664168 
L 82.881199 257.003323 
L 84.828903 260.866945 
L 86.776608 264.281103 
L 88.724312 267.271867 
L 90.672017 269.865308 
L 92.619721 272.087495 
L 94.567426 273.964499 
L 96.51513 275.52239 
L 98.462835 276.787238 
L 100.410539 277.785113 
L 102.358243 278.542085 
L 104.305948 279.084224 
L 106.253652 279.4376 
L 108.201357 279.628284 
L 110.149061 279.680607 
L 112.096766 278.891797 
L 114.04447 276.809554 
L 115.992175 273.63519 
L 117.939879 269.570018 
L 119.887584 264.81535 
L 121.835288 259.572499 
L 123.782993 254.042778 
L 125.730697 248.427499 
L 127.678402 242.927975 
L 129.626106 237.745518 
L 131.573811 233.081441 
L 133.521515 229.137056 
L 135.469219 226.113677 
L 137.416924 224.212615 
L 139.364628 223.633962 
L 141.312333 224.360018 
L 143.260037 226.17175 
L 145.207742 228.898857 
L 147.155446 232.371036 
L 149.103151 236.417985 
L 151.050855 240.869403 
L 152.99856 245.554985 
L 154.946264 250.304432 
L 156.893969 254.947439 
L 158.841673 259.313705 
L 160.789378 263.232928 
L 162.737082 266.534805 
L 164.684787 269.049034 
L 166.632491 270.605312 
L 168.580195 271.038564 
L 170.5279 270.531723 
L 172.475604 269.328858 
L 174.423309 267.540012 
L 176.371013 265.27523 
L 178.318718 262.644553 
L 180.266422 259.758026 
L 182.214127 256.725691 
L 184.161831 253.657592 
L 186.109536 250.663772 
L 188.05724 247.854275 
L 190.004945 245.339144 
L 191.952649 243.228422 
L 193.900354 241.632152 
L 195.848058 240.660378 
L 197.795762 240.432242 
L 199.743467 241.290022 
L 201.691171 243.236106 
L 203.638876 246.097059 
L 205.58658 249.699446 
L 207.534285 253.869832 
L 209.481989 258.434783 
L 211.429694 263.220863 
L 213.377398 268.054638 
L 215.325103 272.762672 
L 217.272807 277.171531 
L 219.220512 281.107781 
L 221.168216 284.397985 
L 223.115921 286.868709 
L 225.063625 288.346519 
L 227.01133 288.674113 
L 228.959034 288.099466 
L 230.906738 286.825652 
L 232.854443 284.934466 
L 234.802147 282.507704 
L 236.749852 279.627163 
L 238.697556 276.374637 
L 240.645261 272.831923 
L 242.592965 269.080818 
L 244.54067 265.203116 
L 246.488374 261.280615 
L 248.436079 257.395109 
L 250.383783 253.628396 
L 252.331488 250.06227 
L 254.279192 246.778529 
L 256.226897 243.829996 
L 258.174601 240.831415 
L 260.122306 237.674435 
L 262.07001 234.405558 
L 264.017714 231.071286 
L 265.965419 227.718121 
L 267.913123 224.392564 
L 269.860828 221.141119 
L 271.808532 218.010287 
L 273.756237 215.04657 
L 275.703941 212.296469 
L 277.651646 209.806487 
L 279.59935 207.623126 
L 281.547055 205.792888 
L 283.494759 204.362275 
L 285.442464 203.349812 
L 287.390168 202.457087 
L 289.337873 201.595461 
L 291.285577 200.769852 
L 293.233281 199.985184 
L 295.180986 199.246375 
L 297.12869 198.558347 
L 299.076395 197.92602 
L 301.024099 197.354316 
L 302.971804 196.848154 
L 304.919508 196.412455 
L 306.867213 196.05214 
L 308.814917 195.77213 
L 310.762622 195.577345 
L 312.710326 195.472706 
L 314.658031 195.50931 
L 316.605735 196.087521 
L 318.55344 197.224994 
L 320.501144 198.829669 
L 322.448849 200.809487 
L 324.396553 203.072388 
L 326.344257 205.526313 
L 328.291962 208.079202 
L 330.239666 210.638996 
L 332.187371 213.113634 
L 334.135075 215.411058 
L 336.08278 217.439208 
L 338.030484 219.106023 
L 339.978189 220.319445 
L 341.925893 220.987414 
L 343.873598 220.998549 
L 345.821302 220.193118 
L 347.769007 218.653354 
L 349.716711 216.501136 
L 351.664416 213.858347 
L 353.61212 210.846868 
L 355.559825 207.58858 
L 357.507529 204.205363 
L 359.455233 200.819099 
L 361.402938 197.55167 
L 363.350642 194.524955 
L 365.298347 191.860837 
L 367.246051 189.681197 
L 369.193756 188.107915 
L 371.14146 187.262872 
L 373.089165 187.153103 
L 375.036869 187.165651 
L 376.984574 187.190623 
L 378.932278 187.227893 
L 380.879983 187.277333 
L 382.827687 187.338815 
L 384.775392 187.412211 
L 386.723096 187.497394 
L 388.6708 187.594237 
L 390.618505 187.702612 
L 392.566209 187.82239 
L 394.513914 187.953445 
L 396.461618 188.095649 
L 398.409323 188.248874 
L 400.357027 188.412992 
L 402.304732 188.773815 
L 404.252436 190.181464 
L 406.200141 192.59454 
L 408.147845 195.841382 
L 410.09555 199.750329 
L 412.043254 204.149721 
L 413.990959 208.867896 
L 415.938663 213.733195 
L 417.886368 218.573958 
L 419.834072 223.218522 
L 421.781776 227.495229 
L 423.729481 231.232416 
L 425.677185 234.258424 
L 427.62489 236.401593 
L 429.572594 237.49026 
L 431.520299 237.263544 
L 433.468003 235.363243 
L 435.415708 231.989273 
L 437.363412 227.392471 
L 439.311117 221.823675 
L 441.258821 215.533723 
L 443.206526 208.77345 
L 445.15423 201.793695 
L 447.101935 194.845294 
L 449.049639 188.179085 
L 450.997344 182.045906 
L 452.945048 176.696592 
L 454.892752 172.381983 
L 456.840457 169.352914 
L 458.788161 167.860223 
L 460.735866 168.005773 
L 462.68357 169.337014 
L 464.631275 171.650665 
L 466.578979 174.778071 
L 468.526684 178.550578 
L 470.474388 182.799533 
L 472.422093 187.356281 
L 474.369797 192.052168 
L 476.317502 196.718541 
L 478.265206 201.186746 
L 480.212911 205.288128 
L 482.160615 208.854034 
L 484.108319 211.71581 
L 486.056024 213.704802 
L 488.003728 214.652356 
L 489.951433 214.572195 
L 491.899137 213.939628 
L 493.846842 212.85558 
L 495.794546 211.391075 
L 497.742251 209.617134 
L 499.689955 207.604781 
L 501.63766 205.425038 
L 503.585364 203.148927 
L 505.533069 200.847472 
L 507.480773 198.591696 
L 509.428478 196.452619 
L 511.376182 194.501266 
L 513.323887 192.808659 
L 515.271591 191.445821 
L 517.219295 190.483773 
L 519.167 189.671168 
L 521.114704 188.299164 
L 523.062409 186.418775 
L 525.010113 184.117 
L 526.957818 181.480838 
L 528.905522 178.59729 
L 530.853227 175.553354 
L 532.800931 172.43603 
L 534.748636 169.332317 
L 536.69634 166.329215 
L 538.644045 163.513723 
L 540.591749 160.97284 
L 542.539454 158.793567 
L 544.487158 157.062901 
L 546.434863 155.867844 
L 548.382567 154.952984 
L 550.330271 153.682437 
L 552.277976 152.091144 
L 554.22568 150.235243 
L 556.173385 148.170871 
L 558.121089 145.954163 
L 560.068794 143.641259 
L 562.016498 141.288293 
L 563.964203 138.951404 
L 565.911907 136.686729 
L 567.859612 134.550404 
L 569.807316 132.598566 
L 571.755021 130.887352 
L 573.702725 129.4729 
L 575.65043 128.411346 
L 577.598134 127.394563 
L 579.545838 125.863801 
L 581.493543 123.895034 
L 583.441247 121.575693 
L 585.388952 118.993214 
L 587.336656 116.235028 
L 589.284361 113.38857 
L 591.232065 110.541273 
L 593.17977 107.780569 
L 595.127474 105.193892 
L 597.075179 102.868676 
L 599.022883 100.892354 
L 600.970588 99.352359 
L 602.918292 98.336124 
L 604.865997 97.931083 
L 606.813701 98.597162 
L 608.761406 100.780291 
L 610.70911 104.266942 
L 612.656814 108.838483 
L 614.604519 114.276277 
L 616.552223 120.361691 
L 618.499928 126.87609 
L 620.447632 133.600839 
L 622.395337 140.317304 
L 624.343041 146.806851 
L 626.290746 152.850846 
L 628.23845 158.230652 
L 630.186155 162.727637 
L 632.133859 166.123165 
L 634.081564 168.198602 
L 636.029268 169.376956 
L 637.976973 170.350461 
L 639.924677 171.111035 
L 641.872382 171.648906 
L 643.820086 171.954302 
L 645.76779 172.017451 
L 647.715495 171.828582 
L 649.663199 171.377921 
L 651.610904 170.655697 
L 653.558608 169.652139 
L 655.506313 168.357473 
L 657.454017 166.761928 
L 659.401722 164.855732 
L 661.349426 162.629114 
L 663.297131 160.0723 
L 663.297131 160.0723 
L 663.297131 160.0723 
L 661.349426 162.629114 
L 659.401722 164.855732 
L 657.454017 166.761928 
L 655.506313 168.357473 
L 653.558608 169.652139 
L 651.610904 170.655697 
L 649.663199 171.377921 
L 647.715495 171.828582 
L 645.76779 172.017451 
L 643.820086 171.954302 
L 641.872382 171.648906 
L 639.924677 171.111035 
L 637.976973 170.350461 
L 636.029268 169.376956 
L 634.081564 168.198602 
L 632.133859 166.123165 
L 630.186155 162.727637 
L 628.23845 158.230652 
L 626.290746 152.850846 
L 624.343041 146.806851 
L 622.395337 140.317304 
L 620.447632 133.600839 
L 618.499928 126.87609 
L 616.552223 120.361691 
L 614.604519 114.276277 
L 612.656814 108.838483 
L 610.70911 104.266942 
L 608.761406 100.780291 
L 606.813701 98.597162 
L 604.865997 97.931083 
L 602.918292 98.336124 
L 600.970588 99.352359 
L 599.022883 100.892354 
L 597.075179 102.868676 
L 595.127474 105.193892 
L 593.17977 107.780569 
L 591.232065 110.541273 
L 589.284361 113.38857 
L 587.336656 116.235028 
L 585.388952 118.993214 
L 583.441247 121.575693 
L 581.493543 123.895034 
L 579.545838 125.863801 
L 577.598134 127.394563 
L 575.65043 128.411346 
L 573.702725 129.4729 
L 571.755021 130.887352 
L 569.807316 132.598566 
L 567.859612 134.550404 
L 565.911907 136.686729 
L 563.964203 138.951404 
L 562.016498 141.288293 
L 560.068794 143.641259 
L 558.121089 145.954163 
L 556.173385 148.170871 
L 554.22568 150.235243 
L 552.277976 152.091144 
L 550.330271 153.682437 
L 548.382567 154.952984 
L 546.434863 155.867844 
L 544.487158 157.062901 
L 542.539454 158.793567 
L 540.591749 160.97284 
L 538.644045 163.513723 
L 536.69634 166.329215 
L 534.748636 169.332317 
L 532.800931 172.43603 
L 530.853227 175.553354 
L 528.905522 178.59729 
L 526.957818 181.480838 
L 525.010113 184.117 
L 523.062409 186.418775 
L 521.114704 188.299164 
L 519.167 189.671168 
L 517.219295 190.483773 
L 515.271591 191.445821 
L 513.323887 192.808659 
L 511.376182 194.501266 
L 509.428478 196.452619 
L 507.480773 198.591696 
L 505.533069 200.847472 
L 503.585364 203.148927 
L 501.63766 205.425038 
L 499.689955 207.604781 
L 497.742251 209.617134 
L 495.794546 211.391075 
L 493.846842 212.85558 
L 491.899137 213.939628 
L 489.951433 214.572195 
L 488.003728 214.652356 
L 486.056024 213.704802 
L 484.108319 211.71581 
L 482.160615 208.854034 
L 480.212911 205.288128 
L 478.265206 201.186746 
L 476.317502 196.718541 
L 474.369797 192.052168 
L 472.422093 187.356281 
L 470.474388 182.799533 
L 468.526684 178.550578 
L 466.578979 174.778071 
L 464.631275 171.650665 
L 462.68357 169.337014 
L 460.735866 168.005773 
L 458.788161 167.860223 
L 456.840457 169.352914 
L 454.892752 172.381983 
L 452.945048 176.696592 
L 450.997344 182.045906 
L 449.049639 188.179085 
L 447.101935 194.845294 
L 445.15423 201.793695 
L 443.206526 208.77345 
L 441.258821 215.533723 
L 439.311117 221.823675 
L 437.363412 227.392471 
L 435.415708 231.989273 
L 433.468003 235.363243 
L 431.520299 237.263544 
L 429.572594 237.49026 
L 427.62489 236.401593 
L 425.677185 234.258424 
L 423.729481 231.232416 
L 421.781776 227.495229 
L 419.834072 223.218522 
L 417.886368 218.573958 
L 415.938663 213.733195 
L 413.990959 208.867896 
L 412.043254 204.149721 
L 410.09555 199.750329 
L 408.147845 195.841382 
L 406.200141 192.59454 
L 404.252436 190.181464 
L 402.304732 188.773815 
L 400.357027 188.412992 
L 398.409323 188.248874 
L 396.461618 188.095649 
L 394.513914 187.953445 
L 392.566209 187.82239 
L 390.618505 187.702612 
L 388.6708 187.594237 
L 386.723096 187.497394 
L 384.775392 187.412211 
L 382.827687 187.338815 
L 380.879983 187.277333 
L 378.932278 187.227893 
L 376.984574 187.190623 
L 375.036869 187.165651 
L 373.089165 187.153103 
L 371.14146 187.262872 
L 369.193756 188.107915 
L 367.246051 189.681197 
L 365.298347 191.860837 
L 363.350642 194.524955 
L 361.402938 197.55167 
L 359.455233 200.819099 
L 357.507529 204.205363 
L 355.559825 207.58858 
L 353.61212 210.846868 
L 351.664416 213.858347 
L 349.716711 216.501136 
L 347.769007 218.653354 
L 345.821302 220.193118 
L 343.873598 220.998549 
L 341.925893 220.987414 
L 339.978189 220.319445 
L 338.030484 219.106023 
L 336.08278 217.439208 
L 334.135075 215.411058 
L 332.187371 213.113634 
L 330.239666 210.638996 
L 328.291962 208.079202 
L 326.344257 205.526313 
L 324.396553 203.072388 
L 322.448849 200.809487 
L 320.501144 198.829669 
L 318.55344 197.224994 
L 316.605735 196.087521 
L 314.658031 195.50931 
L 312.710326 195.472706 
L 310.762622 195.577345 
L 308.814917 195.77213 
L 306.867213 196.05214 
L 304.919508 196.412455 
L 302.971804 196.848154 
L 301.024099 197.354316 
L 299.076395 197.92602 
L 297.12869 198.558347 
L 295.180986 199.246375 
L 293.233281 199.985184 
L 291.285577 200.769852 
L 289.337873 201.595461 
L 287.390168 202.457087 
L 285.442464 203.349812 
L 283.494759 204.362275 
L 281.547055 205.792888 
L 279.59935 207.623126 
L 277.651646 209.806487 
L 275.703941 212.296469 
L 273.756237 215.04657 
L 271.808532 218.010287 
L 269.860828 221.141119 
L 267.913123 224.392564 
L 265.965419 227.718121 
L 264.017714 231.071286 
L 262.07001 234.405558 
L 260.122306 237.674435 
L 258.174601 240.831415 
L 256.226897 243.829996 
L 254.279192 246.778529 
L 252.331488 250.06227 
L 250.383783 253.628396 
L 248.436079 257.395109 
L 246.488374 261.280615 
L 244.54067 265.203116 
L 242.592965 269.080818 
L 240.645261 272.831923 
L 238.697556 276.374637 
L 236.749852 279.627163 
L 234.802147 282.507704 
L 232.854443 284.934466 
L 230.906738 286.825652 
L 228.959034 288.099466 
L 227.01133 288.674113 
L 225.063625 288.346519 
L 223.115921 286.868709 
L 221.168216 284.397985 
L 219.220512 281.107781 
L 217.272807 277.171531 
L 215.325103 272.762672 
L 213.377398 268.054638 
L 211.429694 263.220863 
L 209.481989 258.434783 
L 207.534285 253.869832 
L 205.58658 249.699446 
L 203.638876 246.097059 
L 201.691171 243.236106 
L 199.743467 241.290022 
L 197.795762 240.432242 
L 195.848058 240.660378 
L 193.900354 241.632152 
L 191.952649 243.228422 
L 190.004945 245.339144 
L 188.05724 247.854275 
L 186.109536 250.663772 
L 184.161831 253.657592 
L 182.214127 256.725691 
L 180.266422 259.758026 
L 178.318718 262.644553 
L 176.371013 265.27523 
L 174.423309 267.540012 
L 172.475604 269.328858 
L 170.5279 270.531723 
L 168.580195 271.038564 
L 166.632491 270.605312 
L 164.684787 269.049034 
L 162.737082 266.534805 
L 160.789378 263.232928 
L 158.841673 259.313705 
L 156.893969 254.947439 
L 154.946264 250.304432 
L 152.99856 245.554985 
L 151.050855 240.869403 
L 149.103151 236.417985 
L 147.155446 232.371036 
L 145.207742 228.898857 
L 143.260037 226.17175 
L 141.312333 224.360018 
L 139.364628 223.633962 
L 137.416924 224.212615 
L 135.469219 226.113677 
L 133.521515 229.137056 
L 131.573811 233.081441 
L 129.626106 237.745518 
L 127.678402 242.927975 
L 125.730697 248.427499 
L 123.782993 254.042778 
L 121.835288 259.572499 
L 119.887584 264.81535 
L 117.939879 269.570018 
L 115.992175 273.63519 
L 114.04447 276.809554 
L 112.096766 278.891797 
L 110.149061 279.680607 
L 108.201357 279.628284 
L 106.253652 279.4376 
L 104.305948 279.084224 
L 102.358243 278.542085 
L 100.410539 277.785113 
L 98.462835 276.787238 
L 96.51513 275.52239 
L 94.567426 273.964499 
L 92.619721 272.087495 
L 90.672017 269.865308 
L 88.724312 267.271867 
L 86.776608 264.281103 
L 84.828903 260.866945 
L 82.881199 257.003323 
L 80.933494 252.664168 
z
" clip-path="url(#p7c0523dca8)" style="fill: url(#h572097f6f5)"/>
   </g>
   <g id="FillBetweenPolyCollection_4">
    <path d="M 80.933494 252.664168 
L 80.933494 252.664168 
L 82.881199 257.003323 
L 84.828903 260.866945 
L 86.776608 264.281103 
L 88.724312 267.271867 
L 90.672017 269.865308 
L 92.619721 272.087495 
L 94.567426 273.964499 
L 96.51513 275.52239 
L 98.462835 276.787238 
L 100.410539 277.785113 
L 102.358243 278.542085 
L 104.305948 279.084224 
L 106.253652 279.4376 
L 108.201357 279.628284 
L 110.149061 279.680607 
L 112.096766 278.891797 
L 114.04447 276.809554 
L 115.992175 273.63519 
L 117.939879 269.570018 
L 119.887584 264.81535 
L 121.835288 259.572499 
L 123.782993 254.042778 
L 125.730697 248.427499 
L 127.678402 242.927975 
L 129.626106 237.745518 
L 131.573811 233.081441 
L 133.521515 229.137056 
L 135.469219 226.113677 
L 137.416924 224.212615 
L 139.364628 223.633962 
L 141.312333 224.360018 
L 143.260037 226.17175 
L 145.207742 228.898857 
L 147.155446 232.371036 
L 149.103151 236.417985 
L 151.050855 240.869403 
L 152.99856 245.554985 
L 154.946264 250.304432 
L 156.893969 254.947439 
L 158.841673 259.313705 
L 160.789378 263.232928 
L 162.737082 266.534805 
L 164.684787 269.049034 
L 166.632491 270.605312 
L 168.580195 271.038564 
L 170.5279 270.531723 
L 172.475604 269.328858 
L 174.423309 267.540012 
L 176.371013 265.27523 
L 178.318718 262.644553 
L 180.266422 259.758026 
L 182.214127 256.725691 
L 184.161831 253.657592 
L 186.109536 250.663772 
L 188.05724 247.854275 
L 190.004945 245.339144 
L 191.952649 243.228422 
L 193.900354 241.632152 
L 195.848058 240.660378 
L 197.795762 240.432242 
L 199.743467 241.290022 
L 201.691171 243.236106 
L 203.638876 246.097059 
L 205.58658 249.699446 
L 207.534285 253.869832 
L 209.481989 258.434783 
L 211.429694 263.220863 
L 213.377398 268.054638 
L 215.325103 272.762672 
L 217.272807 277.171531 
L 219.220512 281.107781 
L 221.168216 284.397985 
L 223.115921 286.868709 
L 225.063625 288.346519 
L 227.01133 288.674113 
L 228.959034 288.099466 
L 230.906738 286.825652 
L 232.854443 284.934466 
L 234.802147 282.507704 
L 236.749852 279.627163 
L 238.697556 276.374637 
L 240.645261 272.831923 
L 242.592965 269.080818 
L 244.54067 265.203116 
L 246.488374 261.280615 
L 248.436079 257.395109 
L 250.383783 253.628396 
L 252.331488 250.06227 
L 254.279192 246.778529 
L 256.226897 243.829996 
L 258.174601 240.831415 
L 260.122306 237.674435 
L 262.07001 234.405558 
L 264.017714 231.071286 
L 265.965419 227.718121 
L 267.913123 224.392564 
L 269.860828 221.141119 
L 271.808532 218.010287 
L 273.756237 215.04657 
L 275.703941 212.296469 
L 277.651646 209.806487 
L 279.59935 207.623126 
L 281.547055 205.792888 
L 283.494759 204.362275 
L 285.442464 203.349812 
L 287.390168 202.457087 
L 289.337873 201.595461 
L 291.285577 200.769852 
L 293.233281 199.985184 
L 295.180986 199.246375 
L 297.12869 198.558347 
L 299.076395 197.92602 
L 301.024099 197.354316 
L 302.971804 196.848154 
L 304.919508 196.412455 
L 306.867213 196.05214 
L 308.814917 195.77213 
L 310.762622 195.577345 
L 312.710326 195.472706 
L 314.658031 195.50931 
L 316.605735 196.087521 
L 318.55344 197.224994 
L 320.501144 198.829669 
L 322.448849 200.809487 
L 324.396553 203.072388 
L 326.344257 205.526313 
L 328.291962 208.079202 
L 330.239666 210.638996 
L 332.187371 213.113634 
L 334.135075 215.411058 
L 336.08278 217.439208 
L 338.030484 219.106023 
L 339.978189 220.319445 
L 341.925893 220.987414 
L 343.873598 220.998549 
L 345.821302 220.193118 
L 347.769007 218.653354 
L 349.716711 216.501136 
L 351.664416 213.858347 
L 353.61212 210.846868 
L 355.559825 207.58858 
L 357.507529 204.205363 
L 359.455233 200.819099 
L 361.402938 197.55167 
L 363.350642 194.524955 
L 365.298347 191.860837 
L 367.246051 189.681197 
L 369.193756 188.107915 
L 371.14146 187.262872 
L 373.089165 187.153103 
L 375.036869 187.165651 
L 376.984574 187.190623 
L 378.932278 187.227893 
L 380.879983 187.277333 
L 382.827687 187.338815 
L 384.775392 187.412211 
L 386.723096 187.497394 
L 388.6708 187.594237 
L 390.618505 187.702612 
L 392.566209 187.82239 
L 394.513914 187.953445 
L 396.461618 188.095649 
L 398.409323 188.248874 
L 400.357027 188.412992 
L 402.304732 188.773815 
L 404.252436 190.181464 
L 406.200141 192.59454 
L 408.147845 195.841382 
L 410.09555 199.750329 
L 412.043254 204.149721 
L 413.990959 208.867896 
L 415.938663 213.733195 
L 417.886368 218.573958 
L 419.834072 223.218522 
L 421.781776 227.495229 
L 423.729481 231.232416 
L 425.677185 234.258424 
L 427.62489 236.401593 
L 429.572594 237.49026 
L 431.520299 237.263544 
L 433.468003 235.363243 
L 435.415708 231.989273 
L 437.363412 227.392471 
L 439.311117 221.823675 
L 441.258821 215.533723 
L 443.206526 208.77345 
L 445.15423 201.793695 
L 447.101935 194.845294 
L 449.049639 188.179085 
L 450.997344 182.045906 
L 452.945048 176.696592 
L 454.892752 172.381983 
L 456.840457 169.352914 
L 458.788161 167.860223 
L 460.735866 168.005773 
L 462.68357 169.337014 
L 464.631275 171.650665 
L 466.578979 174.778071 
L 468.526684 178.550578 
L 470.474388 182.799533 
L 472.422093 187.356281 
L 474.369797 192.052168 
L 476.317502 196.718541 
L 478.265206 201.186746 
L 480.212911 205.288128 
L 482.160615 208.854034 
L 484.108319 211.71581 
L 486.056024 213.704802 
L 488.003728 214.652356 
L 489.951433 214.572195 
L 491.899137 213.939628 
L 493.846842 212.85558 
L 495.794546 211.391075 
L 497.742251 209.617134 
L 499.689955 207.604781 
L 501.63766 205.425038 
L 503.585364 203.148927 
L 505.533069 200.847472 
L 507.480773 198.591696 
L 509.428478 196.452619 
L 511.376182 194.501266 
L 513.323887 192.808659 
L 515.271591 191.445821 
L 517.219295 190.483773 
L 519.167 189.671168 
L 521.114704 188.299164 
L 523.062409 186.418775 
L 525.010113 184.117 
L 526.957818 181.480838 
L 528.905522 178.59729 
L 530.853227 175.553354 
L 532.800931 172.43603 
L 534.748636 169.332317 
L 536.69634 166.329215 
L 538.644045 163.513723 
L 540.591749 160.97284 
L 542.539454 158.793567 
L 544.487158 157.062901 
L 546.434863 155.867844 
L 548.382567 154.952984 
L 550.330271 153.682437 
L 552.277976 152.091144 
L 554.22568 150.235243 
L 556.173385 148.170871 
L 558.121089 145.954163 
L 560.068794 143.641259 
L 562.016498 141.288293 
L 563.964203 138.951404 
L 565.911907 136.686729 
L 567.859612 134.550404 
L 569.807316 132.598566 
L 571.755021 130.887352 
L 573.702725 129.4729 
L 575.65043 128.411346 
L 577.598134 127.394563 
L 579.545838 125.863801 
L 581.493543 123.895034 
L 583.441247 121.575693 
L 585.388952 118.993214 
L 587.336656 116.235028 
L 589.284361 113.38857 
L 591.232065 110.541273 
L 593.17977 107.780569 
L 595.127474 105.193892 
L 597.075179 102.868676 
L 599.022883 100.892354 
L 600.970588 99.352359 
L 602.918292 98.336124 
L 604.865997 97.931083 
L 606.813701 98.597162 
L 608.761406 100.780291 
L 610.70911 104.266942 
L 612.656814 108.838483 
L 614.604519 114.276277 
L 616.552223 120.361691 
L 618.499928 126.87609 
L 620.447632 133.600839 
L 622.395337 140.317304 
L 624.343041 146.806851 
L 626.290746 152.850846 
L 628.23845 158.230652 
L 630.186155 162.727637 
L 632.133859 166.123165 
L 634.081564 168.198602 
L 636.029268 169.376956 
L 637.976973 170.350461 
L 639.924677 171.111035 
L 641.872382 171.648906 
L 643.820086 171.954302 
L 645.76779 172.017451 
L 647.715495 171.828582 
L 649.663199 171.377921 
L 651.610904 170.655697 
L 653.558608 169.652139 
L 655.506313 168.357473 
L 657.454017 166.761928 
L 659.401722 164.855732 
L 661.349426 162.629114 
L 663.297131 160.0723 
L 663.297131 102.76732 
L 663.297131 102.76732 
L 661.349426 107.616843 
L 659.401722 112.073494 
L 657.454017 116.132766 
L 655.506313 119.790152 
L 653.558608 123.041143 
L 651.610904 125.881234 
L 649.663199 128.305915 
L 647.715495 130.31068 
L 645.76779 131.89102 
L 643.820086 133.04243 
L 641.872382 133.7604 
L 639.924677 134.040424 
L 637.976973 133.877994 
L 636.029268 133.268603 
L 634.081564 132.206198 
L 632.133859 130.054653 
L 630.186155 126.458221 
L 628.23845 121.65496 
L 626.290746 115.882928 
L 624.343041 109.380183 
L 622.395337 102.384783 
L 620.447632 95.134786 
L 618.499928 87.86825 
L 616.552223 80.823233 
L 614.604519 74.237793 
L 612.656814 68.349989 
L 610.70911 63.397877 
L 608.761406 59.619517 
L 606.813701 57.252966 
L 604.865997 56.530916 
L 602.918292 56.990843 
L 600.970588 58.147148 
L 599.022883 59.903781 
L 597.075179 62.164694 
L 595.127474 64.833837 
L 593.17977 67.815162 
L 591.232065 71.01262 
L 589.284361 74.330162 
L 587.336656 77.671739 
L 585.388952 80.941303 
L 583.441247 84.042804 
L 581.493543 86.880193 
L 579.545838 89.357423 
L 577.598134 91.378443 
L 575.65043 92.860145 
L 573.702725 94.433251 
L 571.755021 96.437267 
L 569.807316 98.79894 
L 567.859612 101.445013 
L 565.911907 104.302232 
L 563.964203 107.297341 
L 562.016498 110.357086 
L 560.068794 113.408212 
L 558.121089 116.377463 
L 556.173385 119.191584 
L 554.22568 121.77732 
L 552.277976 124.061417 
L 550.330271 125.970618 
L 548.382567 127.431669 
L 546.434863 128.38973 
L 544.487158 129.385577 
L 542.539454 130.664284 
L 540.591749 132.17913 
L 538.644045 133.883395 
L 536.69634 135.730357 
L 534.748636 137.673296 
L 532.800931 139.66549 
L 530.853227 141.660219 
L 528.905522 143.610762 
L 526.957818 145.470398 
L 525.010113 147.192405 
L 523.062409 148.730064 
L 521.114704 150.036652 
L 519.167 151.06545 
L 517.219295 151.797791 
L 515.271591 152.796764 
L 513.323887 154.242391 
L 511.376182 156.059536 
L 509.428478 158.173062 
L 507.480773 160.507833 
L 505.533069 162.988712 
L 503.585364 165.540562 
L 501.63766 168.088248 
L 499.689955 170.556633 
L 497.742251 172.87058 
L 495.794546 174.954953 
L 493.846842 176.734615 
L 491.899137 178.13443 
L 489.951433 179.079261 
L 488.003728 179.467348 
L 486.056024 178.869715 
L 484.108319 177.28222 
L 482.160615 174.864882 
L 480.212911 171.777718 
L 478.265206 168.180747 
L 476.317502 164.233986 
L 474.369797 160.097453 
L 472.422093 155.931167 
L 470.474388 151.895144 
L 468.526684 148.149404 
L 466.578979 144.853963 
L 464.631275 142.168841 
L 462.68357 140.254054 
L 460.735866 139.269621 
L 458.788161 139.411801 
L 456.840457 141.148189 
L 454.892752 144.387736 
L 452.945048 148.88591 
L 450.997344 154.398182 
L 449.049639 160.680018 
L 447.101935 167.486889 
L 445.15423 174.574263 
L 443.206526 181.697609 
L 441.258821 188.612395 
L 439.311117 195.07409 
L 437.363412 200.838163 
L 435.415708 205.660083 
L 433.468003 209.295318 
L 431.520299 211.499338 
L 429.572594 212.120624 
L 427.62489 211.884134 
L 425.677185 211.068572 
L 423.729481 209.763405 
L 421.781776 208.058097 
L 419.834072 206.042113 
L 417.886368 203.804918 
L 415.938663 201.435977 
L 413.990959 199.024754 
L 412.043254 196.660716 
L 410.09555 194.433325 
L 408.147845 192.432049 
L 406.200141 190.74635 
L 404.252436 189.465695 
L 402.304732 188.679548 
L 400.357027 188.353335 
L 398.409323 187.657612 
L 396.461618 186.487989 
L 394.513914 184.924913 
L 392.566209 183.048833 
L 390.618505 180.940197 
L 388.6708 178.679452 
L 386.723096 176.347047 
L 384.775392 174.02343 
L 382.827687 171.789048 
L 380.879983 169.72435 
L 378.932278 167.909783 
L 376.984574 166.425795 
L 375.036869 165.352836 
L 373.089165 164.771351 
L 371.14146 164.795046 
L 369.193756 165.628029 
L 367.246051 167.190107 
L 365.298347 169.359399 
L 363.350642 172.014026 
L 361.402938 175.03211 
L 359.455233 178.291769 
L 357.507529 181.671124 
L 355.559825 185.048296 
L 353.61212 188.301406 
L 351.664416 191.308572 
L 349.716711 193.947917 
L 347.769007 196.09756 
L 345.821302 197.635622 
L 343.873598 198.440222 
L 341.925893 198.518347 
L 339.978189 198.43821 
L 338.030484 198.292636 
L 336.08278 198.092667 
L 334.135075 197.849349 
L 332.187371 197.573726 
L 330.239666 197.276842 
L 328.291962 196.969743 
L 326.344257 196.663472 
L 324.396553 196.369073 
L 322.448849 196.097592 
L 320.501144 195.860072 
L 318.55344 195.667558 
L 316.605735 195.531095 
L 314.658031 195.461727 
L 312.710326 195.308787 
L 310.762622 194.465103 
L 308.814917 192.976149 
L 306.867213 190.96218 
L 304.919508 188.543454 
L 302.971804 185.840228 
L 301.024099 182.972757 
L 299.076395 180.061298 
L 297.12869 177.226109 
L 295.180986 174.587446 
L 293.233281 172.265565 
L 291.285577 170.380723 
L 289.337873 169.053177 
L 287.390168 168.403184 
L 285.442464 168.550999 
L 283.494759 169.568152 
L 281.547055 171.318208 
L 279.59935 173.715412 
L 277.651646 176.684138 
L 275.703941 180.148761 
L 273.756237 184.033656 
L 271.808532 188.263195 
L 269.860828 192.761755 
L 267.913123 197.453708 
L 265.965419 202.26343 
L 264.017714 207.115295 
L 262.07001 211.933676 
L 260.122306 216.64295 
L 258.174601 221.167489 
L 256.226897 225.431668 
L 254.279192 229.591068 
L 252.331488 234.220962 
L 250.383783 239.249072 
L 248.436079 244.560061 
L 246.488374 250.038588 
L 244.54067 255.569316 
L 242.592965 261.036904 
L 240.645261 266.326015 
L 238.697556 271.321308 
L 236.749852 275.907446 
L 234.802147 279.969088 
L 232.854443 283.390897 
L 230.906738 286.057533 
L 228.959034 287.853658 
L 227.01133 288.663931 
L 225.063625 288.346519 
L 223.115921 286.868709 
L 221.168216 284.397985 
L 219.220512 281.107781 
L 217.272807 277.171531 
L 215.325103 272.762672 
L 213.377398 268.054638 
L 211.429694 263.220863 
L 209.481989 258.434783 
L 207.534285 253.869832 
L 205.58658 249.699446 
L 203.638876 246.097059 
L 201.691171 243.236106 
L 199.743467 241.290022 
L 197.795762 240.432242 
L 195.848058 240.660378 
L 193.900354 241.632152 
L 191.952649 243.228422 
L 190.004945 245.339144 
L 188.05724 247.854275 
L 186.109536 250.663772 
L 184.161831 253.657592 
L 182.214127 256.725691 
L 180.266422 259.758026 
L 178.318718 262.644553 
L 176.371013 265.27523 
L 174.423309 267.540012 
L 172.475604 269.328858 
L 170.5279 270.531723 
L 168.580195 271.038564 
L 166.632491 270.605312 
L 164.684787 269.049034 
L 162.737082 266.534805 
L 160.789378 263.232928 
L 158.841673 259.313705 
L 156.893969 254.947439 
L 154.946264 250.304432 
L 152.99856 245.554985 
L 151.050855 240.869403 
L 149.103151 236.417985 
L 147.155446 232.371036 
L 145.207742 228.898857 
L 143.260037 226.17175 
L 141.312333 224.360018 
L 139.364628 223.633962 
L 137.416924 224.212615 
L 135.469219 226.113677 
L 133.521515 229.137056 
L 131.573811 233.081441 
L 129.626106 237.745518 
L 127.678402 242.927975 
L 125.730697 248.427499 
L 123.782993 254.042778 
L 121.835288 259.572499 
L 119.887584 264.81535 
L 117.939879 269.570018 
L 115.992175 273.63519 
L 114.04447 276.809554 
L 112.096766 278.891797 
L 110.149061 279.680607 
L 108.201357 279.628284 
L 106.253652 279.4376 
L 104.305948 279.084224 
L 102.358243 278.542085 
L 100.410539 277.785113 
L 98.462835 276.787238 
L 96.51513 275.52239 
L 94.567426 273.964499 
L 92.619721 272.087495 
L 90.672017 269.865308 
L 88.724312 267.271867 
L 86.776608 264.281103 
L 84.828903 260.866945 
L 82.881199 257.003323 
L 80.933494 252.664168 
z
" clip-path="url(#p7c0523dca8)" style="fill: url(#h715fdf8676)"/>
   </g>
   <g id="legend_1">
    <g id="patch_3">
     <path d="M 60.815313 28.537031 
L 80.815313 28.537031 
L 80.815313 21.537031 
L 60.815313 21.537031 
z
" style="fill: url(#h16a8d50509)"/>
    </g>
    <g id="text_17">
     <!-- Solo -->
     <g transform="translate(88.815313 28.537031) scale(0.1 -0.1)">
      <defs>
       <path id="NotoSansCJKjp-Regular-53" d="M 1946 -83 
C 2925 -83 3539 506 3539 1248 
C 3539 1946 3117 2266 2573 2502 
L 1901 2790 
C 1536 2944 1126 3117 1126 3571 
C 1126 3994 1472 4262 2003 4262 
C 2438 4262 2784 4090 3072 3821 
L 3386 4198 
C 3053 4544 2560 4781 2003 4781 
C 1152 4781 525 4256 525 3533 
C 525 2848 1043 2515 1478 2330 
L 2157 2035 
C 2598 1837 2938 1683 2938 1203 
C 2938 742 2566 435 1952 435 
C 1466 435 992 666 659 1018 
L 301 614 
C 710 186 1280 -83 1946 -83 
z
" transform="scale(0.015625)"/>
       <path id="NotoSansCJKjp-Regular-6c" d="M 1203 -83 
C 1363 -83 1459 -64 1542 -32 
L 1459 416 
C 1395 403 1370 403 1338 403 
C 1248 403 1171 474 1171 653 
L 1171 5094 
L 589 5094 
L 589 691 
C 589 198 768 -83 1203 -83 
z
" transform="scale(0.015625)"/>
      </defs>
      <use xlink:href="#NotoSansCJKjp-Regular-53"/>
      <use xlink:href="#NotoSansCJKjp-Regular-6f" transform="translate(59.699997 0)"/>
      <use xlink:href="#NotoSansCJKjp-Regular-6c" transform="translate(120.299988 0)"/>
      <use xlink:href="#NotoSansCJKjp-Regular-6f" transform="translate(148.799973 0)"/>
     </g>
    </g>
    <g id="patch_4">
     <path d="M 60.815313 43.787031 
L 80.815313 43.787031 
L 80.815313 36.787031 
L 60.815313 36.787031 
z
" style="fill: url(#h16ded6dea3)"/>
    </g>
    <g id="text_18">
     <!-- Initial -->
     <g transform="translate(88.815313 43.787031) scale(0.1 -0.1)">
      <defs>
       <path id="NotoSansCJKjp-Regular-49" d="M 640 0 
L 1235 0 
L 1235 4698 
L 640 4698 
L 640 0 
z
" transform="scale(0.015625)"/>
      </defs>
      <use xlink:href="#NotoSansCJKjp-Regular-49"/>
      <use xlink:href="#NotoSansCJKjp-Regular-6e" transform="translate(29.299988 0)"/>
      <use xlink:href="#NotoSansCJKjp-Regular-69" transform="translate(90.399979 0)"/>
      <use xlink:href="#NotoSansCJKjp-Regular-74" transform="translate(117.899963 0)"/>
      <use xlink:href="#NotoSansCJKjp-Regular-69" transform="translate(155.59996 0)"/>
      <use xlink:href="#NotoSansCJKjp-Regular-61" transform="translate(183.099945 0)"/>
      <use xlink:href="#NotoSansCJKjp-Regular-6c" transform="translate(239.499939 0)"/>
     </g>
    </g>
    <g id="patch_5">
     <path d="M 60.815313 59.037031 
L 80.815313 59.037031 
L 80.815313 52.037031 
L 60.815313 52.037031 
z
" style="fill: url(#h572097f6f5)"/>
    </g>
    <g id="text_19">
     <!-- Middle -->
     <g transform="translate(88.815313 59.037031) scale(0.1 -0.1)">
      <defs>
       <path id="NotoSansCJKjp-Regular-4d" d="M 640 0 
L 1178 0 
L 1178 2598 
C 1178 3002 1133 3571 1107 3981 
L 1133 3981 
L 1504 2912 
L 2394 474 
L 2790 474 
L 3680 2912 
L 4051 3981 
L 4077 3981 
C 4045 3571 4000 3002 4000 2598 
L 4000 0 
L 4557 0 
L 4557 4698 
L 3840 4698 
L 2944 2182 
C 2835 1856 2733 1530 2624 1203 
L 2592 1203 
C 2477 1530 2368 1856 2259 2182 
L 1357 4698 
L 640 4698 
L 640 0 
z
" transform="scale(0.015625)"/>
       <path id="NotoSansCJKjp-Regular-64" d="M 1773 -83 
C 2189 -83 2554 141 2829 410 
L 2848 410 
L 2899 0 
L 3373 0 
L 3373 5094 
L 2797 5094 
L 2797 3757 
L 2822 3155 
C 2515 3411 2253 3565 1843 3565 
C 1050 3565 339 2861 339 1734 
C 339 576 902 -83 1773 -83 
z
M 1901 403 
C 1286 403 941 902 941 1741 
C 941 2534 1382 3072 1946 3072 
C 2234 3072 2496 2970 2797 2707 
L 2797 883 
C 2502 563 2221 403 1901 403 
z
" transform="scale(0.015625)"/>
      </defs>
      <use xlink:href="#NotoSansCJKjp-Regular-4d"/>
      <use xlink:href="#NotoSansCJKjp-Regular-69" transform="translate(81.199982 0)"/>
      <use xlink:href="#NotoSansCJKjp-Regular-64" transform="translate(108.699966 0)"/>
      <use xlink:href="#NotoSansCJKjp-Regular-64" transform="translate(170.699951 0)"/>
      <use xlink:href="#NotoSansCJKjp-Regular-6c" transform="translate(232.699936 0)"/>
      <use xlink:href="#NotoSansCJKjp-Regular-65" transform="translate(261.199921 0)"/>
     </g>
    </g>
    <g id="patch_6">
     <path d="M 60.815313 74.287031 
L 80.815313 74.287031 
L 80.815313 67.287031 
L 60.815313 67.287031 
z
" style="fill: url(#h715fdf8676)"/>
    </g>
    <g id="text_20">
     <!-- End -->
     <g transform="translate(88.815313 74.287031) scale(0.1 -0.1)">
      <defs>
       <path id="NotoSansCJKjp-Regular-45" d="M 640 0 
L 3418 0 
L 3418 506 
L 1235 506 
L 1235 2214 
L 3014 2214 
L 3014 2720 
L 1235 2720 
L 1235 4192 
L 3347 4192 
L 3347 4698 
L 640 4698 
L 640 0 
z
" transform="scale(0.015625)"/>
      </defs>
      <use xlink:href="#NotoSansCJKjp-Regular-45"/>
      <use xlink:href="#NotoSansCJKjp-Regular-6e" transform="translate(58.799988 0)"/>
      <use xlink:href="#NotoSansCJKjp-Regular-64" transform="translate(119.899979 0)"/>
     </g>
    </g>
   </g>
  </g>
 </g>
 <defs>
  <clipPath id="p7c0523dca8">
   <rect x="51.815313" y="11.577656" width="640.6" height="370.24"/>
  </clipPath>
 </defs>
 <defs>
  <pattern id="h16a8d50509" patternUnits="userSpaceOnUse" x="0" y="0" width="72" height="72">
   <rect x="0" y="0" width="73" height="73" fill="#e6e6e6"/>
   <path d="M -36 36 
L 36 -36 
M -33 39 
L 39 -33 
M -30 42 
L 42 -30 
M -27 45 
L 45 -27 
M -24 48 
L 48 -24 
M -21 51 
L 51 -21 
M -18 54 
L 54 -18 
M -15 57 
L 57 -15 
M -12 60 
L 60 -12 
M -9 63 
L 63 -9 
M -6 66 
L 66 -6 
M -3 69 
L 69 -3 
M 0 72 
L 72 0 
M 3 75 
L 75 3 
M 6 78 
L 78 6 
M 9 81 
L 81 9 
M 12 84 
L 84 12 
M 15 87 
L 87 15 
M 18 90 
L 90 18 
M 21 93 
L 93 21 
M 24 96 
L 96 24 
M 27 99 
L 99 27 
M 30 102 
L 102 30 
M 33 105 
L 105 33 
M 36 108 
L 108 36 
" style="fill: #000000; stroke: #000000; stroke-width: 1.5; stroke-linecap: butt; stroke-linejoin: miter"/>
  </pattern>
  <pattern id="h16ded6dea3" patternUnits="userSpaceOnUse" x="0" y="0" width="72" height="72">
   <rect x="0" y="0" width="73" height="73" fill="#adadad"/>
   <path d="M -36 36 
L 36 108 
M -30 30 
L 42 102 
M -24 24 
L 48 96 
M -18 18 
L 54 90 
M -12 12 
L 60 84 
M -6 6 
L 66 78 
M 0 0 
L 72 72 
M 6 -6 
L 78 66 
M 12 -12 
L 84 60 
M 18 -18 
L 90 54 
M 24 -24 
L 96 48 
M 30 -30 
L 102 42 
M 36 -36 
L 108 36 
" style="fill: #000000; stroke: #000000; stroke-width: 1.5; stroke-linecap: butt; stroke-linejoin: miter"/>
  </pattern>
  <pattern id="h572097f6f5" patternUnits="userSpaceOnUse" x="0" y="0" width="72" height="72">
   <rect x="0" y="0" width="73" height="73" fill="#737373"/>
   <path d="M -36 36 
L 36 -36 
M -33 39 
L 39 -33 
M -30 42 
L 42 -30 
M -27 45 
L 45 -27 
M -24 48 
L 48 -24 
M -21 51 
L 51 -21 
M -18 54 
L 54 -18 
M -15 57 
L 57 -15 
M -12 60 
L 60 -12 
M -9 63 
L 63 -9 
M -6 66 
L 66 -6 
M -3 69 
L 69 -3 
M 0 72 
L 72 0 
M 3 75 
L 75 3 
M 6 78 
L 78 6 
M 9 81 
L 81 9 
M 12 84 
L 84 12 
M 15 87 
L 87 15 
M 18 90 
L 90 18 
M 21 93 
L 93 21 
M 24 96 
L 96 24 
M 27 99 
L 99 27 
M 30 102 
L 102 30 
M 33 105 
L 105 33 
M 36 108 
L 108 36 
M -36 36 
L 36 108 
M -33 33 
L 39 105 
M -30 30 
L 42 102 
M -27 27 
L 45 99 
M -24 24 
L 48 96 
M -21 21 
L 51 93 
M -18 18 
L 54 90 
M -15 15 
L 57 87 
M -12 12 
L 60 84 
M -9 9 
L 63 81 
M -6 6 
L 66 78 
M -3 3 
L 69 75 
M 0 0 
L 72 72 
M 3 -3 
L 75 69 
M 6 -6 
L 78 66 
M 9 -9 
L 81 63 
M 12 -12 
L 84 60 
M 15 -15 
L 87 57 
M 18 -18 
L 90 54 
M 21 -21 
L 93 51 
M 24 -24 
L 96 48 
M 27 -27 
L 99 45 
M 30 -30 
L 102 42 
M 33 -33 
L 105 39 
M 36 -36 
L 108 36 
" style="fill: #000000; stroke: #000000; stroke-width: 1.5; stroke-linecap: butt; stroke-linejoin: miter"/>
  </pattern>
  <pattern id="h715fdf8676" patternUnits="userSpaceOnUse" x="0" y="0" width="72" height="72">
   <rect x="0" y="0" width="73" height="73" fill="#383838"/>
   <path d="M 0 70.5 
L 72 70.5 
M 0 67.5 
L 72 67.5 
M 0 64.5 
L 72 64.5 
M 0 61.5 
L 72 61.5 
M 0 58.5 
L 72 58.5 
M 0 55.5 
L 72 55.5 
M 0 52.5 
L 72 52.5 
M 0 49.5 
L 72 49.5 
M 0 46.5 
L 72 46.5 
M 0 43.5 
L 72 43.5 
M 0 40.5 
L 72 40.5 
M 0 37.5 
L 72 37.5 
M 0 34.5 
L 72 34.5 
M 0 31.5 
L 72 31.5 
M 0 28.5 
L 72 28.5 
M 0 25.5 
L 72 25.5 
M 0 22.5 
L 72 22.5 
M 0 19.5 
L 72 19.5 
M 0 16.5 
L 72 16.5 
M 0 13.5 
L 72 13.5 
M 0 10.5 
L 72 10.5 
M 0 7.5 
L 72 7.5 
M 0 4.5 
L 72 4.5 
M 0 1.5 
L 72 1.5 
" style="fill: #000000; stroke: #000000; stroke-width: 1.5; stroke-linecap: butt; stroke-linejoin: miter"/>
  </pattern>
 </defs>
</svg>
