<?xml version="1.0" encoding="utf-8" standalone="no"?>
<!DOCTYPE svg PUBLIC "-//W3C//DTD SVG 1.1//EN"
  "http://www.w3.org/Graphics/SVG/1.1/DTD/svg11.dtd">
<svg xmlns:xlink="http://www.w3.org/1999/xlink" width="711.924375pt" height="424.024687pt" viewBox="0 0 711.924375 424.024687" xmlns="http://www.w3.org/2000/svg" version="1.1">
 <metadata>
  <rdf:RDF xmlns:dc="http://purl.org/dc/elements/1.1/" xmlns:cc="http://creativecommons.org/ns#" xmlns:rdf="http://www.w3.org/1999/02/22-rdf-syntax-ns#">
   <cc:Work>
    <dc:type rdf:resource="http://purl.org/dc/dcmitype/StillImage"/>
    <dc:date>2026-04-25T15:05:28.183869</dc:date>
    <dc:format>image/svg+xml</dc:format>
    <dc:creator>
     <cc:Agent>
      <dc:title>Matplotlib v3.10.7, https://matplotlib.org/</dc:title>
     </cc:Agent>
    </dc:creator>
   </cc:Work>
  </rdf:RDF>
 </metadata>
 <defs>
  <style type="text/css">*{stroke-linejoin: round; stroke-linecap: butt}</style>
 </defs>
 <g id="figure_1">
  <g id="patch_1">
   <path d="M 0 424.024687 
L 711.924375 424.024687 
L 711.924375 0 
L 0 0 
z
" style="fill: #ffffff"/>
  </g>
  <g id="axes_1">
   <g id="patch_2">
    <path d="M 49.784375 384.299687 
L 693.624375 384.299687 
L 693.624375 11.179688 
L 49.784375 11.179688 
z
" style="fill: #ffffff"/>
   </g>
   <g id="matplotlib.axis_1">
    <g id="xtick_1">
     <g id="line2d_1">
      <defs>
       <path id="mcc9441a42b" d="M 0 0 
L 0 3.5 
" style="stroke: #000000; stroke-width: 0.8"/>
      </defs>
      <g>
       <use xlink:href="#mcc9441a42b" x="79.04983" y="384.299687" style="stroke: #000000; stroke-width: 0.8"/>
      </g>
     </g>
     <g id="text_1">
      <!-- 1989 -->
      <g transform="translate(67.94983 399.259062) scale(0.1 -0.1)">
       <defs>
        <path id="NotoSansCJKjp-Regular-31" d="M 563 0 
L 3136 0 
L 3136 486 
L 2195 486 
L 2195 4698 
L 1747 4698 
C 1491 4544 1190 4435 774 4358 
L 774 3987 
L 1606 3987 
L 1606 486 
L 563 486 
L 563 0 
z
" transform="scale(0.015625)"/>
        <path id="NotoSansCJKjp-Regular-39" d="M 832 3258 
C 832 3898 1178 4320 1626 4320 
C 2227 4320 2586 3808 2650 2842 
C 2349 2400 1990 2214 1670 2214 
C 1114 2214 832 2624 832 3258 
z
M 1498 -83 
C 2381 -83 3200 646 3200 2547 
C 3200 4038 2528 4781 1626 4781 
C 896 4781 282 4166 282 3258 
C 282 2285 794 1779 1574 1779 
C 1965 1779 2368 2003 2656 2355 
C 2611 902 2086 403 1478 403 
C 1178 403 890 538 698 762 
L 371 397 
C 634 122 992 -83 1498 -83 
z
" transform="scale(0.015625)"/>
        <path id="NotoSansCJKjp-Regular-38" d="M 1786 -83 
C 2669 -83 3258 448 3258 1133 
C 3258 1773 2874 2125 2464 2362 
L 2464 2394 
C 2746 2611 3091 3034 3091 3526 
C 3091 4250 2605 4762 1805 4762 
C 1075 4762 518 4288 518 3571 
C 518 3078 806 2726 1152 2490 
L 1152 2458 
C 723 2227 288 1792 288 1165 
C 288 442 922 -83 1786 -83 
z
M 2106 2547 
C 1555 2765 1050 3008 1050 3571 
C 1050 4026 1363 4333 1798 4333 
C 2304 4333 2592 3955 2592 3494 
C 2592 3149 2426 2829 2106 2547 
z
M 1798 352 
C 1235 352 819 717 819 1216 
C 819 1664 1082 2035 1459 2278 
C 2125 2010 2701 1773 2701 1146 
C 2701 678 2336 352 1798 352 
z
" transform="scale(0.015625)"/>
       </defs>
       <use xlink:href="#NotoSansCJKjp-Regular-31"/>
       <use xlink:href="#NotoSansCJKjp-Regular-39" transform="translate(55.499985 0)"/>
       <use xlink:href="#NotoSansCJKjp-Regular-38" transform="translate(110.999969 0)"/>
       <use xlink:href="#NotoSansCJKjp-Regular-39" transform="translate(166.499954 0)"/>
      </g>
     </g>
    </g>
    <g id="xtick_2">
     <g id="line2d_2">
      <g>
       <use xlink:href="#mcc9441a42b" x="166.846193" y="384.299687" style="stroke: #000000; stroke-width: 0.8"/>
      </g>
     </g>
     <g id="text_2">
      <!-- 1992 -->
      <g transform="translate(155.746193 399.259062) scale(0.1 -0.1)">
       <defs>
        <path id="NotoSansCJKjp-Regular-32" d="M 282 0 
L 3232 0 
L 3232 506 
L 1933 506 
C 1696 506 1408 480 1165 461 
C 2266 1504 3002 2458 3002 3392 
C 3002 4230 2477 4781 1638 4781 
C 1043 4781 640 4506 256 4090 
L 595 3757 
C 851 4064 1184 4301 1568 4301 
C 2150 4301 2432 3910 2432 3373 
C 2432 2566 1754 1632 282 346 
L 282 0 
z
" transform="scale(0.015625)"/>
       </defs>
       <use xlink:href="#NotoSansCJKjp-Regular-31"/>
       <use xlink:href="#NotoSansCJKjp-Regular-39" transform="translate(55.499985 0)"/>
       <use xlink:href="#NotoSansCJKjp-Regular-39" transform="translate(110.999969 0)"/>
       <use xlink:href="#NotoSansCJKjp-Regular-32" transform="translate(166.499954 0)"/>
      </g>
     </g>
    </g>
    <g id="xtick_3">
     <g id="line2d_3">
      <g>
       <use xlink:href="#mcc9441a42b" x="254.642557" y="384.299687" style="stroke: #000000; stroke-width: 0.8"/>
      </g>
     </g>
     <g id="text_3">
      <!-- 1995 -->
      <g transform="translate(243.542557 399.259062) scale(0.1 -0.1)">
       <defs>
        <path id="NotoSansCJKjp-Regular-35" d="M 1670 -83 
C 2464 -83 3206 499 3206 1530 
C 3206 2560 2573 3021 1792 3021 
C 1510 3021 1306 2950 1094 2835 
L 1210 4192 
L 2982 4192 
L 2982 4698 
L 698 4698 
L 550 2496 
L 864 2304 
C 1133 2483 1331 2579 1645 2579 
C 2234 2579 2618 2182 2618 1510 
C 2618 826 2170 403 1619 403 
C 1075 403 736 653 467 922 
L 179 538 
C 493 224 941 -83 1670 -83 
z
" transform="scale(0.015625)"/>
       </defs>
       <use xlink:href="#NotoSansCJKjp-Regular-31"/>
       <use xlink:href="#NotoSansCJKjp-Regular-39" transform="translate(55.499985 0)"/>
       <use xlink:href="#NotoSansCJKjp-Regular-39" transform="translate(110.999969 0)"/>
       <use xlink:href="#NotoSansCJKjp-Regular-35" transform="translate(166.499954 0)"/>
      </g>
     </g>
    </g>
    <g id="xtick_4">
     <g id="line2d_4">
      <g>
       <use xlink:href="#mcc9441a42b" x="342.43892" y="384.299687" style="stroke: #000000; stroke-width: 0.8"/>
      </g>
     </g>
     <g id="text_4">
      <!-- 1998 -->
      <g transform="translate(331.33892 399.259062) scale(0.1 -0.1)">
       <use xlink:href="#NotoSansCJKjp-Regular-31"/>
       <use xlink:href="#NotoSansCJKjp-Regular-39" transform="translate(55.499985 0)"/>
       <use xlink:href="#NotoSansCJKjp-Regular-39" transform="translate(110.999969 0)"/>
       <use xlink:href="#NotoSansCJKjp-Regular-38" transform="translate(166.499954 0)"/>
      </g>
     </g>
    </g>
    <g id="xtick_5">
     <g id="line2d_5">
      <g>
       <use xlink:href="#mcc9441a42b" x="430.235284" y="384.299687" style="stroke: #000000; stroke-width: 0.8"/>
      </g>
     </g>
     <g id="text_5">
      <!-- 2001 -->
      <g transform="translate(419.135284 399.259062) scale(0.1 -0.1)">
       <defs>
        <path id="NotoSansCJKjp-Regular-30" d="M 1779 -83 
C 2669 -83 3238 730 3238 2362 
C 3238 3987 2669 4781 1779 4781 
C 883 4781 314 3994 314 2362 
C 314 730 883 -83 1779 -83 
z
M 1779 384 
C 1242 384 883 979 883 2362 
C 883 3731 1242 4314 1779 4314 
C 2310 4314 2669 3731 2669 2362 
C 2669 979 2310 384 1779 384 
z
" transform="scale(0.015625)"/>
       </defs>
       <use xlink:href="#NotoSansCJKjp-Regular-32"/>
       <use xlink:href="#NotoSansCJKjp-Regular-30" transform="translate(55.499985 0)"/>
       <use xlink:href="#NotoSansCJKjp-Regular-30" transform="translate(110.999969 0)"/>
       <use xlink:href="#NotoSansCJKjp-Regular-31" transform="translate(166.499954 0)"/>
      </g>
     </g>
    </g>
    <g id="xtick_6">
     <g id="line2d_6">
      <g>
       <use xlink:href="#mcc9441a42b" x="518.031648" y="384.299687" style="stroke: #000000; stroke-width: 0.8"/>
      </g>
     </g>
     <g id="text_6">
      <!-- 2004 -->
      <g transform="translate(506.931648 399.259062) scale(0.1 -0.1)">
       <defs>
        <path id="NotoSansCJKjp-Regular-34" d="M 736 1760 
L 1805 3360 
C 1939 3590 2067 3821 2182 4051 
L 2208 4051 
C 2195 3808 2176 3430 2176 3200 
L 2176 1760 
L 736 1760 
z
M 2176 0 
L 2726 0 
L 2726 1293 
L 3347 1293 
L 3347 1760 
L 2726 1760 
L 2726 4698 
L 2080 4698 
L 128 1677 
L 128 1293 
L 2176 1293 
L 2176 0 
z
" transform="scale(0.015625)"/>
       </defs>
       <use xlink:href="#NotoSansCJKjp-Regular-32"/>
       <use xlink:href="#NotoSansCJKjp-Regular-30" transform="translate(55.499985 0)"/>
       <use xlink:href="#NotoSansCJKjp-Regular-30" transform="translate(110.999969 0)"/>
       <use xlink:href="#NotoSansCJKjp-Regular-34" transform="translate(166.499954 0)"/>
      </g>
     </g>
    </g>
    <g id="xtick_7">
     <g id="line2d_7">
      <g>
       <use xlink:href="#mcc9441a42b" x="605.828011" y="384.299687" style="stroke: #000000; stroke-width: 0.8"/>
      </g>
     </g>
     <g id="text_7">
      <!-- 2007 -->
      <g transform="translate(594.728011 399.259062) scale(0.1 -0.1)">
       <defs>
        <path id="NotoSansCJKjp-Regular-37" d="M 1267 0 
L 1875 0 
C 1946 1837 2150 2931 3251 4339 
L 3251 4698 
L 314 4698 
L 314 4192 
L 2586 4192 
C 1670 2912 1344 1779 1267 0 
z
" transform="scale(0.015625)"/>
       </defs>
       <use xlink:href="#NotoSansCJKjp-Regular-32"/>
       <use xlink:href="#NotoSansCJKjp-Regular-30" transform="translate(55.499985 0)"/>
       <use xlink:href="#NotoSansCJKjp-Regular-30" transform="translate(110.999969 0)"/>
       <use xlink:href="#NotoSansCJKjp-Regular-37" transform="translate(166.499954 0)"/>
      </g>
     </g>
    </g>
    <g id="xtick_8">
     <g id="line2d_8">
      <g>
       <use xlink:href="#mcc9441a42b" x="693.624375" y="384.299687" style="stroke: #000000; stroke-width: 0.8"/>
      </g>
     </g>
     <g id="text_8">
      <!-- 2010 -->
      <g transform="translate(682.524375 399.259062) scale(0.1 -0.1)">
       <use xlink:href="#NotoSansCJKjp-Regular-32"/>
       <use xlink:href="#NotoSansCJKjp-Regular-30" transform="translate(55.499985 0)"/>
       <use xlink:href="#NotoSansCJKjp-Regular-31" transform="translate(110.999969 0)"/>
       <use xlink:href="#NotoSansCJKjp-Regular-30" transform="translate(166.499954 0)"/>
      </g>
     </g>
    </g>
    <g id="text_9">
     <!-- Year -->
     <g transform="translate(360.500703 414.305) scale(0.11 -0.11)">
      <defs>
       <path id="NotoSansCJKjp-Regular-59" d="M 1402 0 
L 1997 0 
L 1997 1824 
L 3405 4698 
L 2790 4698 
L 2182 3366 
C 2042 3021 1882 2694 1715 2342 
L 1690 2342 
C 1523 2694 1382 3021 1229 3366 
L 627 4698 
L -6 4698 
L 1402 1824 
L 1402 0 
z
" transform="scale(0.015625)"/>
       <path id="NotoSansCJKjp-Regular-65" d="M 1990 -83 
C 2464 -83 2835 77 3142 275 
L 2931 659 
C 2675 486 2400 384 2061 384 
C 1402 384 947 858 909 1600 
L 3251 1600 
C 3264 1683 3277 1805 3277 1933 
C 3277 2925 2778 3565 1894 3565 
C 1088 3565 326 2861 326 1734 
C 326 589 1069 -83 1990 -83 
z
M 902 2022 
C 973 2701 1408 3098 1901 3098 
C 2445 3098 2765 2720 2765 2022 
L 902 2022 
z
" transform="scale(0.015625)"/>
       <path id="NotoSansCJKjp-Regular-61" d="M 1389 -83 
C 1818 -83 2208 141 2541 416 
L 2560 416 
L 2611 0 
L 3091 0 
L 3091 2138 
C 3091 2995 2733 3565 1888 3565 
C 1331 3565 838 3315 518 3110 
L 749 2707 
C 1024 2893 1389 3078 1792 3078 
C 2362 3078 2509 2650 2509 2202 
C 1030 2035 371 1658 371 902 
C 371 275 806 -83 1389 -83 
z
M 1555 384 
C 1210 384 941 544 941 941 
C 941 1389 1338 1677 2509 1818 
L 2509 845 
C 2170 544 1894 384 1555 384 
z
" transform="scale(0.015625)"/>
       <path id="NotoSansCJKjp-Regular-72" d="M 589 0 
L 1171 0 
L 1171 2234 
C 1402 2829 1760 3034 2048 3034 
C 2189 3034 2272 3021 2387 2976 
L 2496 3488 
C 2387 3546 2278 3565 2125 3565 
C 1734 3565 1382 3283 1139 2842 
L 1120 2842 
L 1069 3475 
L 589 3475 
L 589 0 
z
" transform="scale(0.015625)"/>
      </defs>
      <use xlink:href="#NotoSansCJKjp-Regular-59"/>
      <use xlink:href="#NotoSansCJKjp-Regular-65" transform="translate(53.099991 0)"/>
      <use xlink:href="#NotoSansCJKjp-Regular-61" transform="translate(108.499985 0)"/>
      <use xlink:href="#NotoSansCJKjp-Regular-72" transform="translate(164.899979 0)"/>
     </g>
    </g>
   </g>
   <g id="matplotlib.axis_2">
    <g id="ytick_1">
     <g id="line2d_9">
      <path d="M 49.784375 384.299687 
L 693.624375 384.299687 
" clip-path="url(#pc2424306ac)" style="fill: none; stroke: #808080; stroke-opacity: 0.3; stroke-width: 0.5; stroke-linecap: square"/>
     </g>
     <g id="line2d_10">
      <defs>
       <path id="mee7a72138d" d="M 0 0 
L -3.5 0 
" style="stroke: #000000; stroke-width: 0.8"/>
      </defs>
      <g>
       <use xlink:href="#mee7a72138d" x="49.784375" y="384.299687" style="stroke: #000000; stroke-width: 0.8"/>
      </g>
     </g>
     <g id="text_10">
      <!-- 0% -->
      <g transform="translate(28.025 388.279375) scale(0.1 -0.1)">
       <defs>
        <path id="NotoSansCJKjp-Regular-25" d="M 1312 1818 
C 1958 1818 2381 2362 2381 3309 
C 2381 4250 1958 4781 1312 4781 
C 672 4781 250 4250 250 3309 
C 250 2362 672 1818 1312 1818 
z
M 1312 2182 
C 947 2182 691 2560 691 3309 
C 691 4058 947 4422 1312 4422 
C 1683 4422 1939 4058 1939 3309 
C 1939 2560 1683 2182 1312 2182 
z
M 1453 -83 
L 1843 -83 
L 4435 4781 
L 4038 4781 
L 1453 -83 
z
M 4582 -83 
C 5222 -83 5645 454 5645 1402 
C 5645 2342 5222 2874 4582 2874 
C 3942 2874 3514 2342 3514 1402 
C 3514 454 3942 -83 4582 -83 
z
M 4582 275 
C 4211 275 3962 653 3962 1402 
C 3962 2150 4211 2515 4582 2515 
C 4947 2515 5203 2150 5203 1402 
C 5203 653 4947 275 4582 275 
z
" transform="scale(0.015625)"/>
       </defs>
       <use xlink:href="#NotoSansCJKjp-Regular-30"/>
       <use xlink:href="#NotoSansCJKjp-Regular-25" transform="translate(55.499985 0)"/>
      </g>
     </g>
    </g>
    <g id="ytick_2">
     <g id="line2d_11">
      <path d="M 49.784375 309.675687 
L 693.624375 309.675687 
" clip-path="url(#pc2424306ac)" style="fill: none; stroke: #808080; stroke-opacity: 0.3; stroke-width: 0.5; stroke-linecap: square"/>
     </g>
     <g id="line2d_12">
      <g>
       <use xlink:href="#mee7a72138d" x="49.784375" y="309.675687" style="stroke: #000000; stroke-width: 0.8"/>
      </g>
     </g>
     <g id="text_11">
      <!-- 2% -->
      <g transform="translate(28.025 313.655375) scale(0.1 -0.1)">
       <use xlink:href="#NotoSansCJKjp-Regular-32"/>
       <use xlink:href="#NotoSansCJKjp-Regular-25" transform="translate(55.499985 0)"/>
      </g>
     </g>
    </g>
    <g id="ytick_3">
     <g id="line2d_13">
      <path d="M 49.784375 235.051687 
L 693.624375 235.051687 
" clip-path="url(#pc2424306ac)" style="fill: none; stroke: #808080; stroke-opacity: 0.3; stroke-width: 0.5; stroke-linecap: square"/>
     </g>
     <g id="line2d_14">
      <g>
       <use xlink:href="#mee7a72138d" x="49.784375" y="235.051687" style="stroke: #000000; stroke-width: 0.8"/>
      </g>
     </g>
     <g id="text_12">
      <!-- 4% -->
      <g transform="translate(28.025 239.031375) scale(0.1 -0.1)">
       <use xlink:href="#NotoSansCJKjp-Regular-34"/>
       <use xlink:href="#NotoSansCJKjp-Regular-25" transform="translate(55.499985 0)"/>
      </g>
     </g>
    </g>
    <g id="ytick_4">
     <g id="line2d_15">
      <path d="M 49.784375 160.427687 
L 693.624375 160.427687 
" clip-path="url(#pc2424306ac)" style="fill: none; stroke: #808080; stroke-opacity: 0.3; stroke-width: 0.5; stroke-linecap: square"/>
     </g>
     <g id="line2d_16">
      <g>
       <use xlink:href="#mee7a72138d" x="49.784375" y="160.427687" style="stroke: #000000; stroke-width: 0.8"/>
      </g>
     </g>
     <g id="text_13">
      <!-- 6% -->
      <g transform="translate(28.025 164.407375) scale(0.1 -0.1)">
       <defs>
        <path id="NotoSansCJKjp-Regular-36" d="M 1875 2477 
C 2445 2477 2726 2074 2726 1440 
C 2726 800 2374 371 1926 371 
C 1338 371 986 902 915 1875 
C 1203 2304 1581 2477 1875 2477 
z
M 1926 -83 
C 2656 -83 3270 531 3270 1440 
C 3270 2419 2765 2912 1971 2912 
C 1600 2912 1190 2694 902 2342 
C 928 3802 1472 4294 2112 4294 
C 2400 4294 2682 4160 2867 3936 
L 3187 4301 
C 2931 4576 2579 4781 2093 4781 
C 1184 4781 358 4077 358 2240 
C 358 691 1024 -83 1926 -83 
z
" transform="scale(0.015625)"/>
       </defs>
       <use xlink:href="#NotoSansCJKjp-Regular-36"/>
       <use xlink:href="#NotoSansCJKjp-Regular-25" transform="translate(55.499985 0)"/>
      </g>
     </g>
    </g>
    <g id="ytick_5">
     <g id="line2d_17">
      <path d="M 49.784375 85.803687 
L 693.624375 85.803687 
" clip-path="url(#pc2424306ac)" style="fill: none; stroke: #808080; stroke-opacity: 0.3; stroke-width: 0.5; stroke-linecap: square"/>
     </g>
     <g id="line2d_18">
      <g>
       <use xlink:href="#mee7a72138d" x="49.784375" y="85.803687" style="stroke: #000000; stroke-width: 0.8"/>
      </g>
     </g>
     <g id="text_14">
      <!-- 8% -->
      <g transform="translate(28.025 89.783375) scale(0.1 -0.1)">
       <use xlink:href="#NotoSansCJKjp-Regular-38"/>
       <use xlink:href="#NotoSansCJKjp-Regular-25" transform="translate(55.499985 0)"/>
      </g>
     </g>
    </g>
    <g id="ytick_6">
     <g id="line2d_19">
      <path d="M 49.784375 11.179688 
L 693.624375 11.179688 
" clip-path="url(#pc2424306ac)" style="fill: none; stroke: #808080; stroke-opacity: 0.3; stroke-width: 0.5; stroke-linecap: square"/>
     </g>
     <g id="line2d_20">
      <g>
       <use xlink:href="#mee7a72138d" x="49.784375" y="11.179688" style="stroke: #000000; stroke-width: 0.8"/>
      </g>
     </g>
     <g id="text_15">
      <!-- 10% -->
      <g transform="translate(22.475 15.159375) scale(0.1 -0.1)">
       <use xlink:href="#NotoSansCJKjp-Regular-31"/>
       <use xlink:href="#NotoSansCJKjp-Regular-30" transform="translate(55.499985 0)"/>
       <use xlink:href="#NotoSansCJKjp-Regular-25" transform="translate(110.999969 0)"/>
      </g>
     </g>
    </g>
    <g id="text_16">
     <!-- Proportion -->
     <g transform="translate(15.955312 225.837812) rotate(-90) scale(0.11 -0.11)">
      <defs>
       <path id="NotoSansCJKjp-Regular-50" d="M 640 0 
L 1235 0 
L 1235 1862 
L 2010 1862 
C 3040 1862 3738 2323 3738 3315 
C 3738 4339 3034 4698 1984 4698 
L 640 4698 
L 640 0 
z
M 1235 2342 
L 1235 4211 
L 1907 4211 
C 2733 4211 3149 3994 3149 3315 
C 3149 2643 2758 2342 1933 2342 
L 1235 2342 
z
" transform="scale(0.015625)"/>
       <path id="NotoSansCJKjp-Regular-6f" d="M 1939 -83 
C 2790 -83 3552 582 3552 1734 
C 3552 2893 2790 3565 1939 3565 
C 1088 3565 326 2893 326 1734 
C 326 582 1088 -83 1939 -83 
z
M 1939 403 
C 1338 403 934 934 934 1734 
C 934 2534 1338 3078 1939 3078 
C 2541 3078 2950 2534 2950 1734 
C 2950 934 2541 403 1939 403 
z
" transform="scale(0.015625)"/>
       <path id="NotoSansCJKjp-Regular-70" d="M 589 -1466 
L 1171 -1466 
L 1171 -288 
L 1158 320 
C 1472 64 1805 -83 2118 -83 
C 2918 -83 3629 602 3629 1792 
C 3629 2861 3142 3565 2246 3565 
C 1843 3565 1453 3334 1139 3078 
L 1120 3078 
L 1069 3475 
L 589 3475 
L 589 -1466 
z
M 2022 403 
C 1792 403 1485 499 1171 768 
L 1171 2592 
C 1510 2906 1811 3072 2106 3072 
C 2765 3072 3021 2554 3021 1786 
C 3021 922 2598 403 2022 403 
z
" transform="scale(0.015625)"/>
       <path id="NotoSansCJKjp-Regular-74" d="M 1683 -83 
C 1894 -83 2125 -19 2323 45 
L 2208 480 
C 2093 435 1933 390 1811 390 
C 1408 390 1274 634 1274 1062 
L 1274 3002 
L 2214 3002 
L 2214 3475 
L 1274 3475 
L 1274 4454 
L 787 4454 
L 717 3475 
L 173 3443 
L 173 3002 
L 691 3002 
L 691 1075 
C 691 384 941 -83 1683 -83 
z
" transform="scale(0.015625)"/>
       <path id="NotoSansCJKjp-Regular-69" d="M 589 0 
L 1171 0 
L 1171 3475 
L 589 3475 
L 589 0 
z
M 883 4192 
C 1114 4192 1274 4346 1274 4582 
C 1274 4806 1114 4960 883 4960 
C 653 4960 493 4806 493 4582 
C 493 4346 653 4192 883 4192 
z
" transform="scale(0.015625)"/>
       <path id="NotoSansCJKjp-Regular-6e" d="M 589 0 
L 1171 0 
L 1171 2522 
C 1523 2874 1766 3053 2125 3053 
C 2586 3053 2784 2778 2784 2125 
L 2784 0 
L 3366 0 
L 3366 2202 
C 3366 3091 3034 3565 2304 3565 
C 1830 3565 1472 3302 1139 2976 
L 1120 2976 
L 1069 3475 
L 589 3475 
L 589 0 
z
" transform="scale(0.015625)"/>
      </defs>
      <use xlink:href="#NotoSansCJKjp-Regular-50"/>
      <use xlink:href="#NotoSansCJKjp-Regular-72" transform="translate(63.199997 0)"/>
      <use xlink:href="#NotoSansCJKjp-Regular-6f" transform="translate(101.999985 0)"/>
      <use xlink:href="#NotoSansCJKjp-Regular-70" transform="translate(162.599976 0)"/>
      <use xlink:href="#NotoSansCJKjp-Regular-6f" transform="translate(224.59996 0)"/>
      <use xlink:href="#NotoSansCJKjp-Regular-72" transform="translate(285.199951 0)"/>
      <use xlink:href="#NotoSansCJKjp-Regular-74" transform="translate(323.999939 0)"/>
      <use xlink:href="#NotoSansCJKjp-Regular-69" transform="translate(361.699936 0)"/>
      <use xlink:href="#NotoSansCJKjp-Regular-6f" transform="translate(389.199921 0)"/>
      <use xlink:href="#NotoSansCJKjp-Regular-6e" transform="translate(449.799911 0)"/>
     </g>
    </g>
   </g>
   <g id="FillBetweenPolyCollection_1">
    <defs>
     <path id="mf4b6309a18" d="M 79.04983 -39.740875 
L 79.04983 -39.725 
L 81.007385 -39.725 
L 82.964941 -39.725 
L 84.922496 -39.725 
L 86.880051 -39.725 
L 88.837607 -39.725 
L 90.795162 -39.725 
L 92.752718 -39.725 
L 94.710273 -39.725 
L 96.667829 -39.725 
L 98.625384 -39.725 
L 100.58294 -39.725 
L 102.540495 -39.725 
L 104.498051 -39.725 
L 106.455606 -39.725 
L 108.413162 -39.725 
L 110.370717 -39.725 
L 112.328273 -39.725 
L 114.285828 -39.725 
L 116.243384 -39.725 
L 118.200939 -39.725 
L 120.158495 -39.725 
L 122.11605 -39.725 
L 124.073606 -39.725 
L 126.031161 -39.725 
L 127.988717 -39.725 
L 129.946272 -39.725 
L 131.903828 -39.725 
L 133.861383 -39.725 
L 135.818939 -39.725 
L 137.776494 -39.725 
L 139.73405 -39.725 
L 141.691605 -39.725 
L 143.649161 -39.725 
L 145.606716 -39.725 
L 147.564272 -39.725 
L 149.521827 -39.725 
L 151.479383 -39.725 
L 153.436938 -39.725 
L 155.394494 -39.725 
L 157.352049 -39.725 
L 159.309605 -39.725 
L 161.26716 -39.725 
L 163.224716 -39.725 
L 165.182271 -39.725 
L 167.139827 -39.725 
L 169.097382 -39.725 
L 171.054937 -39.725 
L 173.012493 -39.725 
L 174.970048 -39.725 
L 176.927604 -39.725 
L 178.885159 -39.725 
L 180.842715 -39.725 
L 182.80027 -39.725 
L 184.757826 -39.725 
L 186.715381 -39.725 
L 188.672937 -39.725 
L 190.630492 -39.725 
L 192.588048 -39.725 
L 194.545603 -39.725 
L 196.503159 -39.725 
L 198.460714 -39.725 
L 200.41827 -39.725 
L 202.375825 -39.725 
L 204.333381 -39.725 
L 206.290936 -39.725 
L 208.248492 -39.725 
L 210.206047 -39.725 
L 212.163603 -39.725 
L 214.121158 -39.725 
L 216.078714 -39.725 
L 218.036269 -39.725 
L 219.993825 -39.725 
L 221.95138 -39.725 
L 223.908936 -39.725 
L 225.866491 -39.725 
L 227.824047 -39.725 
L 229.781602 -39.725 
L 231.739158 -39.725 
L 233.696713 -39.725 
L 235.654269 -39.725 
L 237.611824 -39.725 
L 239.56938 -39.725 
L 241.526935 -39.725 
L 243.484491 -39.725 
L 245.442046 -39.725 
L 247.399602 -39.725 
L 249.357157 -39.725 
L 251.314712 -39.725 
L 253.272268 -39.725 
L 255.229823 -39.725 
L 257.187379 -39.725 
L 259.144934 -39.725 
L 261.10249 -39.725 
L 263.060045 -39.725 
L 265.017601 -39.725 
L 266.975156 -39.725 
L 268.932712 -39.725 
L 270.890267 -39.725 
L 272.847823 -39.725 
L 274.805378 -39.725 
L 276.762934 -39.725 
L 278.720489 -39.725 
L 280.678045 -39.725 
L 282.6356 -39.725 
L 284.593156 -39.725 
L 286.550711 -39.725 
L 288.508267 -39.725 
L 290.465822 -39.725 
L 292.423378 -39.725 
L 294.380933 -39.725 
L 296.338489 -39.725 
L 298.296044 -39.725 
L 300.2536 -39.725 
L 302.211155 -39.725 
L 304.168711 -39.725 
L 306.126266 -39.725 
L 308.083822 -39.725 
L 310.041377 -39.725 
L 311.998933 -39.725 
L 313.956488 -39.725 
L 315.914044 -39.725 
L 317.871599 -39.725 
L 319.829155 -39.725 
L 321.78671 -39.725 
L 323.744266 -39.725 
L 325.701821 -39.725 
L 327.659377 -39.725 
L 329.616932 -39.725 
L 331.574487 -39.725 
L 333.532043 -39.725 
L 335.489598 -39.725 
L 337.447154 -39.725 
L 339.404709 -39.725 
L 341.362265 -39.725 
L 343.31982 -39.725 
L 345.277376 -39.725 
L 347.234931 -39.725 
L 349.192487 -39.725 
L 351.150042 -39.725 
L 353.107598 -39.725 
L 355.065153 -39.725 
L 357.022709 -39.725 
L 358.980264 -39.725 
L 360.93782 -39.725 
L 362.895375 -39.725 
L 364.852931 -39.725 
L 366.810486 -39.725 
L 368.768042 -39.725 
L 370.725597 -39.725 
L 372.683153 -39.725 
L 374.640708 -39.725 
L 376.598264 -39.725 
L 378.555819 -39.725 
L 380.513375 -39.725 
L 382.47093 -39.725 
L 384.428486 -39.725 
L 386.386041 -39.725 
L 388.343597 -39.725 
L 390.301152 -39.725 
L 392.258708 -39.725 
L 394.216263 -39.725 
L 396.173819 -39.725 
L 398.131374 -39.725 
L 400.08893 -39.725 
L 402.046485 -39.725 
L 404.004041 -39.725 
L 405.961596 -39.725 
L 407.919152 -39.725 
L 409.876707 -39.725 
L 411.834263 -39.725 
L 413.791818 -39.725 
L 415.749373 -39.725 
L 417.706929 -39.725 
L 419.664484 -39.725 
L 421.62204 -39.725 
L 423.579595 -39.725 
L 425.537151 -39.725 
L 427.494706 -39.725 
L 429.452262 -39.725 
L 431.409817 -39.725 
L 433.367373 -39.725 
L 435.324928 -39.725 
L 437.282484 -39.725 
L 439.240039 -39.725 
L 441.197595 -39.725 
L 443.15515 -39.725 
L 445.112706 -39.725 
L 447.070261 -39.725 
L 449.027817 -39.725 
L 450.985372 -39.725 
L 452.942928 -39.725 
L 454.900483 -39.725 
L 456.858039 -39.725 
L 458.815594 -39.725 
L 460.77315 -39.725 
L 462.730705 -39.725 
L 464.688261 -39.725 
L 466.645816 -39.725 
L 468.603372 -39.725 
L 470.560927 -39.725 
L 472.518483 -39.725 
L 474.476038 -39.725 
L 476.433594 -39.725 
L 478.391149 -39.725 
L 480.348705 -39.725 
L 482.30626 -39.725 
L 484.263816 -39.725 
L 486.221371 -39.725 
L 488.178927 -39.725 
L 490.136482 -39.725 
L 492.094038 -39.725 
L 494.051593 -39.725 
L 496.009148 -39.725 
L 497.966704 -39.725 
L 499.924259 -39.725 
L 501.881815 -39.725 
L 503.83937 -39.725 
L 505.796926 -39.725 
L 507.754481 -39.725 
L 509.712037 -39.725 
L 511.669592 -39.725 
L 513.627148 -39.725 
L 515.584703 -39.725 
L 517.542259 -39.725 
L 519.499814 -39.725 
L 521.45737 -39.725 
L 523.414925 -39.725 
L 525.372481 -39.725 
L 527.330036 -39.725 
L 529.287592 -39.725 
L 531.245147 -39.725 
L 533.202703 -39.725 
L 535.160258 -39.725 
L 537.117814 -39.725 
L 539.075369 -39.725 
L 541.032925 -39.725 
L 542.99048 -39.725 
L 544.948036 -39.725 
L 546.905591 -39.725 
L 548.863147 -39.725 
L 550.820702 -39.725 
L 552.778258 -39.725 
L 554.735813 -39.725 
L 556.693369 -39.725 
L 558.650924 -39.725 
L 560.60848 -39.725 
L 562.566035 -39.725 
L 564.523591 -39.725 
L 566.481146 -39.725 
L 568.438702 -39.725 
L 570.396257 -39.725 
L 572.353813 -39.725 
L 574.311368 -39.725 
L 576.268923 -39.725 
L 578.226479 -39.725 
L 580.184034 -39.725 
L 582.14159 -39.725 
L 584.099145 -39.725 
L 586.056701 -39.725 
L 588.014256 -39.725 
L 589.971812 -39.725 
L 591.929367 -39.725 
L 593.886923 -39.725 
L 595.844478 -39.725 
L 597.802034 -39.725 
L 599.759589 -39.725 
L 601.717145 -39.725 
L 603.6747 -39.725 
L 605.632256 -39.725 
L 607.589811 -39.725 
L 609.547367 -39.725 
L 611.504922 -39.725 
L 613.462478 -39.725 
L 615.420033 -39.725 
L 617.377589 -39.725 
L 619.335144 -39.725 
L 621.2927 -39.725 
L 623.250255 -39.725 
L 625.207811 -39.725 
L 627.165366 -39.725 
L 629.122922 -39.725 
L 631.080477 -39.725 
L 633.038033 -39.725 
L 634.995588 -39.725 
L 636.953144 -39.725 
L 638.910699 -39.725 
L 640.868255 -39.725 
L 642.82581 -39.725 
L 644.783366 -39.725 
L 646.740921 -39.725 
L 648.698477 -39.725 
L 650.656032 -39.725 
L 652.613588 -39.725 
L 654.571143 -39.725 
L 656.528699 -39.725 
L 658.486254 -39.725 
L 660.443809 -39.725 
L 662.401365 -39.725 
L 664.35892 -39.725 
L 664.35892 -39.757706 
L 664.35892 -39.757706 
L 662.401365 -39.757354 
L 660.443809 -39.757007 
L 658.486254 -39.756664 
L 656.528699 -39.756325 
L 654.571143 -39.755992 
L 652.613588 -39.755664 
L 650.656032 -39.755341 
L 648.698477 -39.755023 
L 646.740921 -39.754711 
L 644.783366 -39.754404 
L 642.82581 -39.754103 
L 640.868255 -39.753808 
L 638.910699 -39.753519 
L 636.953144 -39.753236 
L 634.995588 -39.752959 
L 633.038033 -39.752692 
L 631.080477 -39.752435 
L 629.122922 -39.752187 
L 627.165366 -39.751946 
L 625.207811 -39.751711 
L 623.250255 -39.75148 
L 621.2927 -39.751252 
L 619.335144 -39.751025 
L 617.377589 -39.750798 
L 615.420033 -39.750569 
L 613.462478 -39.750336 
L 611.504922 -39.750098 
L 609.547367 -39.749854 
L 607.589811 -39.749602 
L 605.632256 -39.74934 
L 603.6747 -39.749083 
L 601.717145 -39.748839 
L 599.759589 -39.748603 
L 597.802034 -39.74837 
L 595.844478 -39.748138 
L 593.886923 -39.747901 
L 591.929367 -39.747655 
L 589.971812 -39.747395 
L 588.014256 -39.747119 
L 586.056701 -39.746821 
L 584.099145 -39.746497 
L 582.14159 -39.746143 
L 580.184034 -39.745755 
L 578.226479 -39.745328 
L 576.268923 -39.744855 
L 574.311368 -39.744121 
L 572.353813 -39.743049 
L 570.396257 -39.741698 
L 568.438702 -39.740126 
L 566.481146 -39.738392 
L 564.523591 -39.736554 
L 562.566035 -39.734671 
L 560.60848 -39.732802 
L 558.650924 -39.731004 
L 556.693369 -39.729337 
L 554.735813 -39.727859 
L 552.778258 -39.726629 
L 550.820702 -39.725705 
L 548.863147 -39.725145 
L 546.905591 -39.725006 
L 544.948036 -39.725194 
L 542.99048 -39.72563 
L 541.032925 -39.726288 
L 539.075369 -39.727142 
L 537.117814 -39.728167 
L 535.160258 -39.729336 
L 533.202703 -39.730623 
L 531.245147 -39.732003 
L 529.287592 -39.733449 
L 527.330036 -39.734936 
L 525.372481 -39.736438 
L 523.414925 -39.737928 
L 521.45737 -39.739381 
L 519.499814 -39.740771 
L 517.542259 -39.742083 
L 515.584703 -39.743534 
L 513.627148 -39.745181 
L 511.669592 -39.746979 
L 509.712037 -39.748882 
L 507.754481 -39.750846 
L 505.796926 -39.752826 
L 503.83937 -39.754775 
L 501.881815 -39.756649 
L 499.924259 -39.758403 
L 497.966704 -39.759992 
L 496.009148 -39.761369 
L 494.051593 -39.762491 
L 492.094038 -39.763311 
L 490.136482 -39.763784 
L 488.178927 -39.76386 
L 486.221371 -39.763432 
L 484.263816 -39.762532 
L 482.30626 -39.761237 
L 480.348705 -39.759624 
L 478.391149 -39.757769 
L 476.433594 -39.755748 
L 474.476038 -39.753637 
L 472.518483 -39.751513 
L 470.560927 -39.749451 
L 468.603372 -39.747529 
L 466.645816 -39.745823 
L 464.688261 -39.744408 
L 462.730705 -39.743361 
L 460.77315 -39.742759 
L 458.815594 -39.742655 
L 456.858039 -39.742827 
L 454.900483 -39.743174 
L 452.942928 -39.743669 
L 450.985372 -39.744283 
L 449.027817 -39.744987 
L 447.070261 -39.745752 
L 445.112706 -39.746549 
L 443.15515 -39.74735 
L 441.197595 -39.748126 
L 439.240039 -39.748848 
L 437.282484 -39.749487 
L 435.324928 -39.750015 
L 433.367373 -39.750402 
L 431.409817 -39.75062 
L 429.452262 -39.750603 
L 427.494706 -39.750025 
L 425.537151 -39.748886 
L 423.579595 -39.74728 
L 421.62204 -39.745298 
L 419.664484 -39.743033 
L 417.706929 -39.740577 
L 415.749373 -39.738022 
L 413.791818 -39.73546 
L 411.834263 -39.732983 
L 409.876707 -39.730683 
L 407.919152 -39.728653 
L 405.961596 -39.726985 
L 404.004041 -39.72577 
L 402.046485 -39.725102 
L 400.08893 -39.725014 
L 398.131374 -39.725143 
L 396.173819 -39.725401 
L 394.216263 -39.725781 
L 392.258708 -39.726277 
L 390.301152 -39.726882 
L 388.343597 -39.72759 
L 386.386041 -39.728392 
L 384.428486 -39.729284 
L 382.47093 -39.730257 
L 380.513375 -39.731306 
L 378.555819 -39.732423 
L 376.598264 -39.733602 
L 374.640708 -39.734835 
L 372.683153 -39.736117 
L 370.725597 -39.737595 
L 368.768042 -39.740126 
L 366.810486 -39.743684 
L 364.852931 -39.748084 
L 362.895375 -39.753138 
L 360.93782 -39.758659 
L 358.980264 -39.764461 
L 357.022709 -39.770357 
L 355.065153 -39.776159 
L 353.107598 -39.781681 
L 351.150042 -39.786736 
L 349.192487 -39.791138 
L 347.234931 -39.794699 
L 345.277376 -39.797232 
L 343.31982 -39.798551 
L 341.362265 -39.798565 
L 339.404709 -39.797679 
L 337.447154 -39.796061 
L 335.489598 -39.793821 
L 333.532043 -39.791072 
L 331.574487 -39.787925 
L 329.616932 -39.784493 
L 327.659377 -39.780886 
L 325.701821 -39.777218 
L 323.744266 -39.773599 
L 321.78671 -39.770142 
L 319.829155 -39.766958 
L 317.871599 -39.764159 
L 315.914044 -39.761858 
L 313.956488 -39.760165 
L 311.998933 -39.759055 
L 310.041377 -39.758025 
L 308.083822 -39.757023 
L 306.126266 -39.756057 
L 304.168711 -39.755133 
L 302.211155 -39.75426 
L 300.2536 -39.753443 
L 298.296044 -39.752691 
L 296.338489 -39.75201 
L 294.380933 -39.751408 
L 292.423378 -39.750891 
L 290.465822 -39.750467 
L 288.508267 -39.750144 
L 286.550711 -39.749927 
L 284.593156 -39.749824 
L 282.6356 -39.749929 
L 280.678045 -39.750506 
L 278.720489 -39.75151 
L 276.762934 -39.752867 
L 274.805378 -39.754503 
L 272.847823 -39.756346 
L 270.890267 -39.758322 
L 268.932712 -39.760359 
L 266.975156 -39.762383 
L 265.017601 -39.764321 
L 263.060045 -39.7661 
L 261.10249 -39.767647 
L 259.144934 -39.768888 
L 257.187379 -39.769751 
L 255.229823 -39.770162 
L 253.272268 -39.770125 
L 251.314712 -39.769839 
L 249.357157 -39.769343 
L 247.399602 -39.768665 
L 245.442046 -39.767833 
L 243.484491 -39.766873 
L 241.526935 -39.765813 
L 239.56938 -39.76468 
L 237.611824 -39.763501 
L 235.654269 -39.762305 
L 233.696713 -39.761118 
L 231.739158 -39.759968 
L 229.781602 -39.758881 
L 227.824047 -39.757886 
L 225.866491 -39.75701 
L 223.908936 -39.75625 
L 221.95138 -39.755544 
L 219.993825 -39.754881 
L 218.036269 -39.75425 
L 216.078714 -39.753643 
L 214.121158 -39.753051 
L 212.163603 -39.752465 
L 210.206047 -39.751874 
L 208.248492 -39.751272 
L 206.290936 -39.750647 
L 204.333381 -39.749991 
L 202.375825 -39.749295 
L 200.41827 -39.74855 
L 198.460714 -39.747747 
L 196.503159 -39.746876 
L 194.545603 -39.745852 
L 192.588048 -39.74454 
L 190.630492 -39.742988 
L 188.672937 -39.74125 
L 186.715381 -39.739378 
L 184.757826 -39.737426 
L 182.80027 -39.735446 
L 180.842715 -39.733493 
L 178.885159 -39.731618 
L 176.927604 -39.729876 
L 174.970048 -39.728319 
L 173.012493 -39.727 
L 171.054937 -39.725973 
L 169.097382 -39.72529 
L 167.139827 -39.725005 
L 165.182271 -39.725 
L 163.224716 -39.725 
L 161.26716 -39.725 
L 159.309605 -39.725 
L 157.352049 -39.725 
L 155.394494 -39.725 
L 153.436938 -39.725 
L 151.479383 -39.725 
L 149.521827 -39.725 
L 147.564272 -39.725 
L 145.606716 -39.725 
L 143.649161 -39.725 
L 141.691605 -39.725 
L 139.73405 -39.725 
L 137.776494 -39.725 
L 135.818939 -39.725 
L 133.861383 -39.725 
L 131.903828 -39.725 
L 129.946272 -39.725 
L 127.988717 -39.725 
L 126.031161 -39.725 
L 124.073606 -39.725 
L 122.11605 -39.725 
L 120.158495 -39.725 
L 118.200939 -39.725 
L 116.243384 -39.725 
L 114.285828 -39.725 
L 112.328273 -39.725 
L 110.370717 -39.725 
L 108.413162 -39.725 
L 106.455606 -39.725094 
L 104.498051 -39.725388 
L 102.540495 -39.725866 
L 100.58294 -39.726516 
L 98.625384 -39.727322 
L 96.667829 -39.728271 
L 94.710273 -39.729349 
L 92.752718 -39.73054 
L 90.795162 -39.731831 
L 88.837607 -39.733208 
L 86.880051 -39.734656 
L 84.922496 -39.736161 
L 82.964941 -39.737708 
L 81.007385 -39.739284 
L 79.04983 -39.740875 
z
" style="stroke: #d62728; stroke-opacity: 0.7"/>
    </defs>
    <g clip-path="url(#pc2424306ac)">
     <use xlink:href="#mf4b6309a18" x="0" y="424.024687" style="fill: #d62728; fill-opacity: 0.7; stroke: #d62728; stroke-opacity: 0.7"/>
    </g>
   </g>
   <g id="FillBetweenPolyCollection_2">
    <defs>
     <path id="m69c44c36a4" d="M 79.04983 -40.010747 
L 79.04983 -39.740875 
L 81.007385 -39.739284 
L 82.964941 -39.737708 
L 84.922496 -39.736161 
L 86.880051 -39.734656 
L 88.837607 -39.733208 
L 90.795162 -39.731831 
L 92.752718 -39.73054 
L 94.710273 -39.729349 
L 96.667829 -39.728271 
L 98.625384 -39.727322 
L 100.58294 -39.726516 
L 102.540495 -39.725866 
L 104.498051 -39.725388 
L 106.455606 -39.725094 
L 108.413162 -39.725 
L 110.370717 -39.725 
L 112.328273 -39.725 
L 114.285828 -39.725 
L 116.243384 -39.725 
L 118.200939 -39.725 
L 120.158495 -39.725 
L 122.11605 -39.725 
L 124.073606 -39.725 
L 126.031161 -39.725 
L 127.988717 -39.725 
L 129.946272 -39.725 
L 131.903828 -39.725 
L 133.861383 -39.725 
L 135.818939 -39.725 
L 137.776494 -39.725 
L 139.73405 -39.725 
L 141.691605 -39.725 
L 143.649161 -39.725 
L 145.606716 -39.725 
L 147.564272 -39.725 
L 149.521827 -39.725 
L 151.479383 -39.725 
L 153.436938 -39.725 
L 155.394494 -39.725 
L 157.352049 -39.725 
L 159.309605 -39.725 
L 161.26716 -39.725 
L 163.224716 -39.725 
L 165.182271 -39.725 
L 167.139827 -39.725005 
L 169.097382 -39.72529 
L 171.054937 -39.725973 
L 173.012493 -39.727 
L 174.970048 -39.728319 
L 176.927604 -39.729876 
L 178.885159 -39.731618 
L 180.842715 -39.733493 
L 182.80027 -39.735446 
L 184.757826 -39.737426 
L 186.715381 -39.739378 
L 188.672937 -39.74125 
L 190.630492 -39.742988 
L 192.588048 -39.74454 
L 194.545603 -39.745852 
L 196.503159 -39.746876 
L 198.460714 -39.747747 
L 200.41827 -39.74855 
L 202.375825 -39.749295 
L 204.333381 -39.749991 
L 206.290936 -39.750647 
L 208.248492 -39.751272 
L 210.206047 -39.751874 
L 212.163603 -39.752465 
L 214.121158 -39.753051 
L 216.078714 -39.753643 
L 218.036269 -39.75425 
L 219.993825 -39.754881 
L 221.95138 -39.755544 
L 223.908936 -39.75625 
L 225.866491 -39.75701 
L 227.824047 -39.757886 
L 229.781602 -39.758881 
L 231.739158 -39.759968 
L 233.696713 -39.761118 
L 235.654269 -39.762305 
L 237.611824 -39.763501 
L 239.56938 -39.76468 
L 241.526935 -39.765813 
L 243.484491 -39.766873 
L 245.442046 -39.767833 
L 247.399602 -39.768665 
L 249.357157 -39.769343 
L 251.314712 -39.769839 
L 253.272268 -39.770125 
L 255.229823 -39.770162 
L 257.187379 -39.769751 
L 259.144934 -39.768888 
L 261.10249 -39.767647 
L 263.060045 -39.7661 
L 265.017601 -39.764321 
L 266.975156 -39.762383 
L 268.932712 -39.760359 
L 270.890267 -39.758322 
L 272.847823 -39.756346 
L 274.805378 -39.754503 
L 276.762934 -39.752867 
L 278.720489 -39.75151 
L 280.678045 -39.750506 
L 282.6356 -39.749929 
L 284.593156 -39.749824 
L 286.550711 -39.749927 
L 288.508267 -39.750144 
L 290.465822 -39.750467 
L 292.423378 -39.750891 
L 294.380933 -39.751408 
L 296.338489 -39.75201 
L 298.296044 -39.752691 
L 300.2536 -39.753443 
L 302.211155 -39.75426 
L 304.168711 -39.755133 
L 306.126266 -39.756057 
L 308.083822 -39.757023 
L 310.041377 -39.758025 
L 311.998933 -39.759055 
L 313.956488 -39.760165 
L 315.914044 -39.761858 
L 317.871599 -39.764159 
L 319.829155 -39.766958 
L 321.78671 -39.770142 
L 323.744266 -39.773599 
L 325.701821 -39.777218 
L 327.659377 -39.780886 
L 329.616932 -39.784493 
L 331.574487 -39.787925 
L 333.532043 -39.791072 
L 335.489598 -39.793821 
L 337.447154 -39.796061 
L 339.404709 -39.797679 
L 341.362265 -39.798565 
L 343.31982 -39.798551 
L 345.277376 -39.797232 
L 347.234931 -39.794699 
L 349.192487 -39.791138 
L 351.150042 -39.786736 
L 353.107598 -39.781681 
L 355.065153 -39.776159 
L 357.022709 -39.770357 
L 358.980264 -39.764461 
L 360.93782 -39.758659 
L 362.895375 -39.753138 
L 364.852931 -39.748084 
L 366.810486 -39.743684 
L 368.768042 -39.740126 
L 370.725597 -39.737595 
L 372.683153 -39.736117 
L 374.640708 -39.734835 
L 376.598264 -39.733602 
L 378.555819 -39.732423 
L 380.513375 -39.731306 
L 382.47093 -39.730257 
L 384.428486 -39.729284 
L 386.386041 -39.728392 
L 388.343597 -39.72759 
L 390.301152 -39.726882 
L 392.258708 -39.726277 
L 394.216263 -39.725781 
L 396.173819 -39.725401 
L 398.131374 -39.725143 
L 400.08893 -39.725014 
L 402.046485 -39.725102 
L 404.004041 -39.72577 
L 405.961596 -39.726985 
L 407.919152 -39.728653 
L 409.876707 -39.730683 
L 411.834263 -39.732983 
L 413.791818 -39.73546 
L 415.749373 -39.738022 
L 417.706929 -39.740577 
L 419.664484 -39.743033 
L 421.62204 -39.745298 
L 423.579595 -39.74728 
L 425.537151 -39.748886 
L 427.494706 -39.750025 
L 429.452262 -39.750603 
L 431.409817 -39.75062 
L 433.367373 -39.750402 
L 435.324928 -39.750015 
L 437.282484 -39.749487 
L 439.240039 -39.748848 
L 441.197595 -39.748126 
L 443.15515 -39.74735 
L 445.112706 -39.746549 
L 447.070261 -39.745752 
L 449.027817 -39.744987 
L 450.985372 -39.744283 
L 452.942928 -39.743669 
L 454.900483 -39.743174 
L 456.858039 -39.742827 
L 458.815594 -39.742655 
L 460.77315 -39.742759 
L 462.730705 -39.743361 
L 464.688261 -39.744408 
L 466.645816 -39.745823 
L 468.603372 -39.747529 
L 470.560927 -39.749451 
L 472.518483 -39.751513 
L 474.476038 -39.753637 
L 476.433594 -39.755748 
L 478.391149 -39.757769 
L 480.348705 -39.759624 
L 482.30626 -39.761237 
L 484.263816 -39.762532 
L 486.221371 -39.763432 
L 488.178927 -39.76386 
L 490.136482 -39.763784 
L 492.094038 -39.763311 
L 494.051593 -39.762491 
L 496.009148 -39.761369 
L 497.966704 -39.759992 
L 499.924259 -39.758403 
L 501.881815 -39.756649 
L 503.83937 -39.754775 
L 505.796926 -39.752826 
L 507.754481 -39.750846 
L 509.712037 -39.748882 
L 511.669592 -39.746979 
L 513.627148 -39.745181 
L 515.584703 -39.743534 
L 517.542259 -39.742083 
L 519.499814 -39.740771 
L 521.45737 -39.739381 
L 523.414925 -39.737928 
L 525.372481 -39.736438 
L 527.330036 -39.734936 
L 529.287592 -39.733449 
L 531.245147 -39.732003 
L 533.202703 -39.730623 
L 535.160258 -39.729336 
L 537.117814 -39.728167 
L 539.075369 -39.727142 
L 541.032925 -39.726288 
L 542.99048 -39.72563 
L 544.948036 -39.725194 
L 546.905591 -39.725006 
L 548.863147 -39.725145 
L 550.820702 -39.725705 
L 552.778258 -39.726629 
L 554.735813 -39.727859 
L 556.693369 -39.729337 
L 558.650924 -39.731004 
L 560.60848 -39.732802 
L 562.566035 -39.734671 
L 564.523591 -39.736554 
L 566.481146 -39.738392 
L 568.438702 -39.740126 
L 570.396257 -39.741698 
L 572.353813 -39.743049 
L 574.311368 -39.744121 
L 576.268923 -39.744855 
L 578.226479 -39.745328 
L 580.184034 -39.745755 
L 582.14159 -39.746143 
L 584.099145 -39.746497 
L 586.056701 -39.746821 
L 588.014256 -39.747119 
L 589.971812 -39.747395 
L 591.929367 -39.747655 
L 593.886923 -39.747901 
L 595.844478 -39.748138 
L 597.802034 -39.74837 
L 599.759589 -39.748603 
L 601.717145 -39.748839 
L 603.6747 -39.749083 
L 605.632256 -39.74934 
L 607.589811 -39.749602 
L 609.547367 -39.749854 
L 611.504922 -39.750098 
L 613.462478 -39.750336 
L 615.420033 -39.750569 
L 617.377589 -39.750798 
L 619.335144 -39.751025 
L 621.2927 -39.751252 
L 623.250255 -39.75148 
L 625.207811 -39.751711 
L 627.165366 -39.751946 
L 629.122922 -39.752187 
L 631.080477 -39.752435 
L 633.038033 -39.752692 
L 634.995588 -39.752959 
L 636.953144 -39.753236 
L 638.910699 -39.753519 
L 640.868255 -39.753808 
L 642.82581 -39.754103 
L 644.783366 -39.754404 
L 646.740921 -39.754711 
L 648.698477 -39.755023 
L 650.656032 -39.755341 
L 652.613588 -39.755664 
L 654.571143 -39.755992 
L 656.528699 -39.756325 
L 658.486254 -39.756664 
L 660.443809 -39.757007 
L 662.401365 -39.757354 
L 664.35892 -39.757706 
L 664.35892 -47.083917 
L 664.35892 -47.083917 
L 662.401365 -47.105057 
L 660.443809 -47.12333 
L 658.486254 -47.138943 
L 656.528699 -47.152103 
L 654.571143 -47.163013 
L 652.613588 -47.171882 
L 650.656032 -47.178914 
L 648.698477 -47.184315 
L 646.740921 -47.188291 
L 644.783366 -47.191049 
L 642.82581 -47.192794 
L 640.868255 -47.193732 
L 638.910699 -47.194069 
L 636.953144 -47.194011 
L 634.995588 -47.19372 
L 633.038033 -47.174814 
L 631.080477 -47.124599 
L 629.122922 -47.046747 
L 627.165366 -46.94493 
L 625.207811 -46.822821 
L 623.250255 -46.684091 
L 621.2927 -46.532413 
L 619.335144 -46.371458 
L 617.377589 -46.2049 
L 615.420033 -46.036411 
L 613.462478 -45.869661 
L 611.504922 -45.708325 
L 609.547367 -45.556073 
L 607.589811 -45.416578 
L 605.632256 -45.293354 
L 603.6747 -45.171246 
L 601.717145 -45.040225 
L 599.759589 -44.902898 
L 597.802034 -44.761871 
L 595.844478 -44.61975 
L 593.886923 -44.47914 
L 591.929367 -44.342649 
L 589.971812 -44.212881 
L 588.014256 -44.092444 
L 586.056701 -43.983942 
L 584.099145 -43.889983 
L 582.14159 -43.813171 
L 580.184034 -43.756114 
L 578.226479 -43.721418 
L 576.268923 -43.711478 
L 574.311368 -43.71644 
L 572.353813 -43.729077 
L 570.396257 -43.748458 
L 568.438702 -43.773653 
L 566.481146 -43.803732 
L 564.523591 -43.837766 
L 562.566035 -43.874824 
L 560.60848 -43.913977 
L 558.650924 -43.954294 
L 556.693369 -43.994846 
L 554.735813 -44.034702 
L 552.778258 -44.072933 
L 550.820702 -44.10861 
L 548.863147 -44.140801 
L 546.905591 -44.168727 
L 544.948036 -44.196488 
L 542.99048 -44.225904 
L 541.032925 -44.256444 
L 539.075369 -44.287579 
L 537.117814 -44.318776 
L 535.160258 -44.349506 
L 533.202703 -44.379238 
L 531.245147 -44.407441 
L 529.287592 -44.433585 
L 527.330036 -44.45714 
L 525.372481 -44.477574 
L 523.414925 -44.494357 
L 521.45737 -44.506959 
L 519.499814 -44.514849 
L 517.542259 -44.517356 
L 515.584703 -44.511273 
L 513.627148 -44.496237 
L 511.669592 -44.473296 
L 509.712037 -44.443499 
L 507.754481 -44.407894 
L 505.796926 -44.367529 
L 503.83937 -44.323452 
L 501.881815 -44.276712 
L 499.924259 -44.228356 
L 497.966704 -44.179433 
L 496.009148 -44.13099 
L 494.051593 -44.084077 
L 492.094038 -44.039741 
L 490.136482 -43.999031 
L 488.178927 -43.96277 
L 486.221371 -43.928156 
L 484.263816 -43.893978 
L 482.30626 -43.860157 
L 480.348705 -43.826612 
L 478.391149 -43.79326 
L 476.433594 -43.76002 
L 474.476038 -43.726812 
L 472.518483 -43.693554 
L 470.560927 -43.660165 
L 468.603372 -43.626564 
L 466.645816 -43.592669 
L 464.688261 -43.558399 
L 462.730705 -43.523673 
L 460.77315 -43.48841 
L 458.815594 -43.452193 
L 456.858039 -43.411338 
L 454.900483 -43.365765 
L 452.942928 -43.316637 
L 450.985372 -43.265118 
L 449.027817 -43.212369 
L 447.070261 -43.159556 
L 445.112706 -43.10784 
L 443.15515 -43.058386 
L 441.197595 -43.012356 
L 439.240039 -42.970913 
L 437.282484 -42.935222 
L 435.324928 -42.906444 
L 433.367373 -42.885744 
L 431.409817 -42.874284 
L 429.452262 -42.872387 
L 427.494706 -42.873019 
L 425.537151 -42.874263 
L 423.579595 -42.876018 
L 421.62204 -42.878183 
L 419.664484 -42.880657 
L 417.706929 -42.883341 
L 415.749373 -42.886132 
L 413.791818 -42.888931 
L 411.834263 -42.891637 
L 409.876707 -42.89415 
L 407.919152 -42.896367 
L 405.961596 -42.89819 
L 404.004041 -42.899517 
L 402.046485 -42.900247 
L 400.08893 -42.899112 
L 398.131374 -42.888009 
L 396.173819 -42.866795 
L 394.216263 -42.837163 
L 392.258708 -42.800806 
L 390.301152 -42.759416 
L 388.343597 -42.714687 
L 386.386041 -42.668311 
L 384.428486 -42.621981 
L 382.47093 -42.577391 
L 380.513375 -42.536232 
L 378.555819 -42.500198 
L 376.598264 -42.470982 
L 374.640708 -42.450276 
L 372.683153 -42.439774 
L 370.725597 -42.441957 
L 368.768042 -42.46162 
L 366.810486 -42.497075 
L 364.852931 -42.545664 
L 362.895375 -42.604729 
L 360.93782 -42.671613 
L 358.980264 -42.743658 
L 357.022709 -42.818206 
L 355.065153 -42.892598 
L 353.107598 -42.964178 
L 351.150042 -43.030288 
L 349.192487 -43.088268 
L 347.234931 -43.135463 
L 345.277376 -43.169213 
L 343.31982 -43.186861 
L 341.362265 -43.181452 
L 339.404709 -43.132783 
L 337.447154 -43.044216 
L 335.489598 -42.922306 
L 333.532043 -42.773602 
L 331.574487 -42.604657 
L 329.616932 -42.422023 
L 327.659377 -42.232251 
L 325.701821 -42.041894 
L 323.744266 -41.857503 
L 321.78671 -41.68563 
L 319.829155 -41.532826 
L 317.871599 -41.405644 
L 315.914044 -41.310636 
L 313.956488 -41.254353 
L 311.998933 -41.234934 
L 310.041377 -41.22142 
L 308.083822 -41.209945 
L 306.126266 -41.200201 
L 304.168711 -41.19188 
L 302.211155 -41.184673 
L 300.2536 -41.178273 
L 298.296044 -41.172369 
L 296.338489 -41.166655 
L 294.380933 -41.160821 
L 292.423378 -41.154559 
L 290.465822 -41.147561 
L 288.508267 -41.139518 
L 286.550711 -41.130121 
L 284.593156 -41.119063 
L 282.6356 -41.104763 
L 280.678045 -41.083234 
L 278.720489 -41.055319 
L 276.762934 -41.02226 
L 274.805378 -40.985299 
L 272.847823 -40.945678 
L 270.890267 -40.904639 
L 268.932712 -40.863425 
L 266.975156 -40.823278 
L 265.017601 -40.78544 
L 263.060045 -40.751153 
L 261.10249 -40.72166 
L 259.144934 -40.698203 
L 257.187379 -40.682024 
L 255.229823 -40.674365 
L 253.272268 -40.674244 
L 251.314712 -40.675763 
L 249.357157 -40.678342 
L 247.399602 -40.68179 
L 245.442046 -40.685914 
L 243.484491 -40.69052 
L 241.526935 -40.695417 
L 239.56938 -40.700411 
L 237.611824 -40.70531 
L 235.654269 -40.709922 
L 233.696713 -40.714054 
L 231.739158 -40.717513 
L 229.781602 -40.720107 
L 227.824047 -40.721643 
L 225.866491 -40.721929 
L 223.908936 -40.719469 
L 221.95138 -40.711358 
L 219.993825 -40.698176 
L 218.036269 -40.680656 
L 216.078714 -40.659529 
L 214.121158 -40.63553 
L 212.163603 -40.609391 
L 210.206047 -40.581845 
L 208.248492 -40.553625 
L 206.290936 -40.525464 
L 204.333381 -40.498095 
L 202.375825 -40.47225 
L 200.41827 -40.448664 
L 198.460714 -40.428068 
L 196.503159 -40.411195 
L 194.545603 -40.397128 
L 192.588048 -40.382882 
L 190.630492 -40.368517 
L 188.672937 -40.354194 
L 186.715381 -40.340071 
L 184.757826 -40.326309 
L 182.80027 -40.313067 
L 180.842715 -40.300505 
L 178.885159 -40.288782 
L 176.927604 -40.278059 
L 174.970048 -40.268493 
L 173.012493 -40.260246 
L 171.054937 -40.253477 
L 169.097382 -40.248346 
L 167.139827 -40.245011 
L 165.182271 -40.243031 
L 163.224716 -40.241399 
L 161.26716 -40.240047 
L 159.309605 -40.238925 
L 157.352049 -40.237981 
L 155.394494 -40.237167 
L 153.436938 -40.236432 
L 151.479383 -40.235725 
L 149.521827 -40.234997 
L 147.564272 -40.234197 
L 145.606716 -40.233274 
L 143.649161 -40.232179 
L 141.691605 -40.230861 
L 139.73405 -40.229271 
L 137.776494 -40.227357 
L 135.818939 -40.223942 
L 133.861383 -40.217608 
L 131.903828 -40.208748 
L 129.946272 -40.197772 
L 127.988717 -40.185086 
L 126.031161 -40.171098 
L 124.073606 -40.156218 
L 122.11605 -40.140852 
L 120.158495 -40.125409 
L 118.200939 -40.110297 
L 116.243384 -40.095924 
L 114.285828 -40.082698 
L 112.328273 -40.071027 
L 110.370717 -40.061319 
L 108.413162 -40.053983 
L 106.455606 -40.048208 
L 104.498051 -40.04269 
L 102.540495 -40.037464 
L 100.58294 -40.032565 
L 98.625384 -40.02803 
L 96.667829 -40.023896 
L 94.710273 -40.020199 
L 92.752718 -40.016976 
L 90.795162 -40.014263 
L 88.837607 -40.012097 
L 86.880051 -40.010514 
L 84.922496 -40.009551 
L 82.964941 -40.009244 
L 81.007385 -40.009631 
L 79.04983 -40.010747 
z
" style="stroke: #1f77b4; stroke-opacity: 0.7"/>
    </defs>
    <g clip-path="url(#pc2424306ac)">
     <use xlink:href="#m69c44c36a4" x="0" y="424.024687" style="fill: #1f77b4; fill-opacity: 0.7; stroke: #1f77b4; stroke-opacity: 0.7"/>
    </g>
   </g>
   <g id="FillBetweenPolyCollection_3">
    <defs>
     <path id="mbc12a35fcc" d="M 79.04983 -40.201245 
L 79.04983 -40.010747 
L 81.007385 -40.009631 
L 82.964941 -40.009244 
L 84.922496 -40.009551 
L 86.880051 -40.010514 
L 88.837607 -40.012097 
L 90.795162 -40.014263 
L 92.752718 -40.016976 
L 94.710273 -40.020199 
L 96.667829 -40.023896 
L 98.625384 -40.02803 
L 100.58294 -40.032565 
L 102.540495 -40.037464 
L 104.498051 -40.04269 
L 106.455606 -40.048208 
L 108.413162 -40.053983 
L 110.370717 -40.061319 
L 112.328273 -40.071027 
L 114.285828 -40.082698 
L 116.243384 -40.095924 
L 118.200939 -40.110297 
L 120.158495 -40.125409 
L 122.11605 -40.140852 
L 124.073606 -40.156218 
L 126.031161 -40.171098 
L 127.988717 -40.185086 
L 129.946272 -40.197772 
L 131.903828 -40.208748 
L 133.861383 -40.217608 
L 135.818939 -40.223942 
L 137.776494 -40.227357 
L 139.73405 -40.229271 
L 141.691605 -40.230861 
L 143.649161 -40.232179 
L 145.606716 -40.233274 
L 147.564272 -40.234197 
L 149.521827 -40.234997 
L 151.479383 -40.235725 
L 153.436938 -40.236432 
L 155.394494 -40.237167 
L 157.352049 -40.237981 
L 159.309605 -40.238925 
L 161.26716 -40.240047 
L 163.224716 -40.241399 
L 165.182271 -40.243031 
L 167.139827 -40.245011 
L 169.097382 -40.248346 
L 171.054937 -40.253477 
L 173.012493 -40.260246 
L 174.970048 -40.268493 
L 176.927604 -40.278059 
L 178.885159 -40.288782 
L 180.842715 -40.300505 
L 182.80027 -40.313067 
L 184.757826 -40.326309 
L 186.715381 -40.340071 
L 188.672937 -40.354194 
L 190.630492 -40.368517 
L 192.588048 -40.382882 
L 194.545603 -40.397128 
L 196.503159 -40.411195 
L 198.460714 -40.428068 
L 200.41827 -40.448664 
L 202.375825 -40.47225 
L 204.333381 -40.498095 
L 206.290936 -40.525464 
L 208.248492 -40.553625 
L 210.206047 -40.581845 
L 212.163603 -40.609391 
L 214.121158 -40.63553 
L 216.078714 -40.659529 
L 218.036269 -40.680656 
L 219.993825 -40.698176 
L 221.95138 -40.711358 
L 223.908936 -40.719469 
L 225.866491 -40.721929 
L 227.824047 -40.721643 
L 229.781602 -40.720107 
L 231.739158 -40.717513 
L 233.696713 -40.714054 
L 235.654269 -40.709922 
L 237.611824 -40.70531 
L 239.56938 -40.700411 
L 241.526935 -40.695417 
L 243.484491 -40.69052 
L 245.442046 -40.685914 
L 247.399602 -40.68179 
L 249.357157 -40.678342 
L 251.314712 -40.675763 
L 253.272268 -40.674244 
L 255.229823 -40.674365 
L 257.187379 -40.682024 
L 259.144934 -40.698203 
L 261.10249 -40.72166 
L 263.060045 -40.751153 
L 265.017601 -40.78544 
L 266.975156 -40.823278 
L 268.932712 -40.863425 
L 270.890267 -40.904639 
L 272.847823 -40.945678 
L 274.805378 -40.985299 
L 276.762934 -41.02226 
L 278.720489 -41.055319 
L 280.678045 -41.083234 
L 282.6356 -41.104763 
L 284.593156 -41.119063 
L 286.550711 -41.130121 
L 288.508267 -41.139518 
L 290.465822 -41.147561 
L 292.423378 -41.154559 
L 294.380933 -41.160821 
L 296.338489 -41.166655 
L 298.296044 -41.172369 
L 300.2536 -41.178273 
L 302.211155 -41.184673 
L 304.168711 -41.19188 
L 306.126266 -41.200201 
L 308.083822 -41.209945 
L 310.041377 -41.22142 
L 311.998933 -41.234934 
L 313.956488 -41.254353 
L 315.914044 -41.310636 
L 317.871599 -41.405644 
L 319.829155 -41.532826 
L 321.78671 -41.68563 
L 323.744266 -41.857503 
L 325.701821 -42.041894 
L 327.659377 -42.232251 
L 329.616932 -42.422023 
L 331.574487 -42.604657 
L 333.532043 -42.773602 
L 335.489598 -42.922306 
L 337.447154 -43.044216 
L 339.404709 -43.132783 
L 341.362265 -43.181452 
L 343.31982 -43.186861 
L 345.277376 -43.169213 
L 347.234931 -43.135463 
L 349.192487 -43.088268 
L 351.150042 -43.030288 
L 353.107598 -42.964178 
L 355.065153 -42.892598 
L 357.022709 -42.818206 
L 358.980264 -42.743658 
L 360.93782 -42.671613 
L 362.895375 -42.604729 
L 364.852931 -42.545664 
L 366.810486 -42.497075 
L 368.768042 -42.46162 
L 370.725597 -42.441957 
L 372.683153 -42.439774 
L 374.640708 -42.450276 
L 376.598264 -42.470982 
L 378.555819 -42.500198 
L 380.513375 -42.536232 
L 382.47093 -42.577391 
L 384.428486 -42.621981 
L 386.386041 -42.668311 
L 388.343597 -42.714687 
L 390.301152 -42.759416 
L 392.258708 -42.800806 
L 394.216263 -42.837163 
L 396.173819 -42.866795 
L 398.131374 -42.888009 
L 400.08893 -42.899112 
L 402.046485 -42.900247 
L 404.004041 -42.899517 
L 405.961596 -42.89819 
L 407.919152 -42.896367 
L 409.876707 -42.89415 
L 411.834263 -42.891637 
L 413.791818 -42.888931 
L 415.749373 -42.886132 
L 417.706929 -42.883341 
L 419.664484 -42.880657 
L 421.62204 -42.878183 
L 423.579595 -42.876018 
L 425.537151 -42.874263 
L 427.494706 -42.873019 
L 429.452262 -42.872387 
L 431.409817 -42.874284 
L 433.367373 -42.885744 
L 435.324928 -42.906444 
L 437.282484 -42.935222 
L 439.240039 -42.970913 
L 441.197595 -43.012356 
L 443.15515 -43.058386 
L 445.112706 -43.10784 
L 447.070261 -43.159556 
L 449.027817 -43.212369 
L 450.985372 -43.265118 
L 452.942928 -43.316637 
L 454.900483 -43.365765 
L 456.858039 -43.411338 
L 458.815594 -43.452193 
L 460.77315 -43.48841 
L 462.730705 -43.523673 
L 464.688261 -43.558399 
L 466.645816 -43.592669 
L 468.603372 -43.626564 
L 470.560927 -43.660165 
L 472.518483 -43.693554 
L 474.476038 -43.726812 
L 476.433594 -43.76002 
L 478.391149 -43.79326 
L 480.348705 -43.826612 
L 482.30626 -43.860157 
L 484.263816 -43.893978 
L 486.221371 -43.928156 
L 488.178927 -43.96277 
L 490.136482 -43.999031 
L 492.094038 -44.039741 
L 494.051593 -44.084077 
L 496.009148 -44.13099 
L 497.966704 -44.179433 
L 499.924259 -44.228356 
L 501.881815 -44.276712 
L 503.83937 -44.323452 
L 505.796926 -44.367529 
L 507.754481 -44.407894 
L 509.712037 -44.443499 
L 511.669592 -44.473296 
L 513.627148 -44.496237 
L 515.584703 -44.511273 
L 517.542259 -44.517356 
L 519.499814 -44.514849 
L 521.45737 -44.506959 
L 523.414925 -44.494357 
L 525.372481 -44.477574 
L 527.330036 -44.45714 
L 529.287592 -44.433585 
L 531.245147 -44.407441 
L 533.202703 -44.379238 
L 535.160258 -44.349506 
L 537.117814 -44.318776 
L 539.075369 -44.287579 
L 541.032925 -44.256444 
L 542.99048 -44.225904 
L 544.948036 -44.196488 
L 546.905591 -44.168727 
L 548.863147 -44.140801 
L 550.820702 -44.10861 
L 552.778258 -44.072933 
L 554.735813 -44.034702 
L 556.693369 -43.994846 
L 558.650924 -43.954294 
L 560.60848 -43.913977 
L 562.566035 -43.874824 
L 564.523591 -43.837766 
L 566.481146 -43.803732 
L 568.438702 -43.773653 
L 570.396257 -43.748458 
L 572.353813 -43.729077 
L 574.311368 -43.71644 
L 576.268923 -43.711478 
L 578.226479 -43.721418 
L 580.184034 -43.756114 
L 582.14159 -43.813171 
L 584.099145 -43.889983 
L 586.056701 -43.983942 
L 588.014256 -44.092444 
L 589.971812 -44.212881 
L 591.929367 -44.342649 
L 593.886923 -44.47914 
L 595.844478 -44.61975 
L 597.802034 -44.761871 
L 599.759589 -44.902898 
L 601.717145 -45.040225 
L 603.6747 -45.171246 
L 605.632256 -45.293354 
L 607.589811 -45.416578 
L 609.547367 -45.556073 
L 611.504922 -45.708325 
L 613.462478 -45.869661 
L 615.420033 -46.036411 
L 617.377589 -46.2049 
L 619.335144 -46.371458 
L 621.2927 -46.532413 
L 623.250255 -46.684091 
L 625.207811 -46.822821 
L 627.165366 -46.94493 
L 629.122922 -47.046747 
L 631.080477 -47.124599 
L 633.038033 -47.174814 
L 634.995588 -47.19372 
L 636.953144 -47.194011 
L 638.910699 -47.194069 
L 640.868255 -47.193732 
L 642.82581 -47.192794 
L 644.783366 -47.191049 
L 646.740921 -47.188291 
L 648.698477 -47.184315 
L 650.656032 -47.178914 
L 652.613588 -47.171882 
L 654.571143 -47.163013 
L 656.528699 -47.152103 
L 658.486254 -47.138943 
L 660.443809 -47.12333 
L 662.401365 -47.105057 
L 664.35892 -47.083917 
L 664.35892 -47.280155 
L 664.35892 -47.280155 
L 662.401365 -47.316524 
L 660.443809 -47.349554 
L 658.486254 -47.379363 
L 656.528699 -47.406072 
L 654.571143 -47.4298 
L 652.613588 -47.450667 
L 650.656032 -47.468792 
L 648.698477 -47.484295 
L 646.740921 -47.497295 
L 644.783366 -47.507912 
L 642.82581 -47.516266 
L 640.868255 -47.522476 
L 638.910699 -47.526661 
L 636.953144 -47.528942 
L 634.995588 -47.529395 
L 633.038033 -47.510052 
L 631.080477 -47.458667 
L 629.122922 -47.379 
L 627.165366 -47.274812 
L 625.207811 -47.149861 
L 623.250255 -47.007909 
L 621.2927 -46.852715 
L 619.335144 -46.68804 
L 617.377589 -46.517642 
L 615.420033 -46.345283 
L 613.462478 -46.174722 
L 611.504922 -46.00972 
L 609.547367 -45.854036 
L 607.589811 -45.711431 
L 605.632256 -45.585502 
L 603.6747 -45.460756 
L 601.717145 -45.326935 
L 599.759589 -45.186697 
L 597.802034 -45.0427 
L 595.844478 -44.897601 
L 593.886923 -44.75406 
L 591.929367 -44.614733 
L 589.971812 -44.482279 
L 588.014256 -44.359356 
L 586.056701 -44.248622 
L 584.099145 -44.152734 
L 582.14159 -44.074351 
L 580.184034 -44.016132 
L 578.226479 -43.980733 
L 576.268923 -43.970636 
L 574.311368 -43.977757 
L 572.353813 -43.995555 
L 570.396257 -44.022681 
L 568.438702 -44.057787 
L 566.481146 -44.099525 
L 564.523591 -44.146548 
L 562.566035 -44.197506 
L 560.60848 -44.251052 
L 558.650924 -44.305839 
L 556.693369 -44.360517 
L 554.735813 -44.413739 
L 552.778258 -44.464156 
L 550.820702 -44.510421 
L 548.863147 -44.551186 
L 546.905591 -44.585296 
L 544.948036 -44.618036 
L 542.99048 -44.651957 
L 541.032925 -44.686591 
L 539.075369 -44.721471 
L 537.117814 -44.75613 
L 535.160258 -44.790101 
L 533.202703 -44.822915 
L 531.245147 -44.854106 
L 529.287592 -44.883207 
L 527.330036 -44.90975 
L 525.372481 -44.933267 
L 523.414925 -44.953292 
L 521.45737 -44.969357 
L 519.499814 -44.980995 
L 517.542259 -44.987607 
L 515.584703 -44.986216 
L 513.627148 -44.976441 
L 511.669592 -44.959208 
L 509.712037 -44.935444 
L 507.754481 -44.906073 
L 505.796926 -44.872022 
L 503.83937 -44.834218 
L 501.881815 -44.793584 
L 499.924259 -44.751049 
L 497.966704 -44.707537 
L 496.009148 -44.663974 
L 494.051593 -44.621287 
L 492.094038 -44.580402 
L 490.136482 -44.542243 
L 488.178927 -44.507562 
L 486.221371 -44.474224 
L 484.263816 -44.441269 
L 482.30626 -44.408609 
L 480.348705 -44.376159 
L 478.391149 -44.343831 
L 476.433594 -44.311539 
L 474.476038 -44.279197 
L 472.518483 -44.246718 
L 470.560927 -44.214015 
L 468.603372 -44.181001 
L 466.645816 -44.147591 
L 464.688261 -44.113698 
L 462.730705 -44.079235 
L 460.77315 -44.044115 
L 458.815594 -44.007853 
L 456.858039 -43.966029 
L 454.900483 -43.918436 
L 452.942928 -43.866337 
L 450.985372 -43.810995 
L 449.027817 -43.753673 
L 447.070261 -43.695636 
L 445.112706 -43.638147 
L 443.15515 -43.582469 
L 441.197595 -43.529866 
L 439.240039 -43.481602 
L 437.282484 -43.43894 
L 435.324928 -43.403143 
L 433.367373 -43.375475 
L 431.409817 -43.3572 
L 429.452262 -43.348568 
L 427.494706 -43.34113 
L 425.537151 -43.332875 
L 423.579595 -43.324011 
L 421.62204 -43.314744 
L 419.664484 -43.305279 
L 417.706929 -43.295824 
L 415.749373 -43.286584 
L 413.791818 -43.277766 
L 411.834263 -43.269575 
L 409.876707 -43.262219 
L 407.919152 -43.255904 
L 405.961596 -43.250836 
L 404.004041 -43.24722 
L 402.046485 -43.245265 
L 400.08893 -43.244077 
L 398.131374 -43.236112 
L 396.173819 -43.220897 
L 394.216263 -43.199651 
L 392.258708 -43.173591 
L 390.301152 -43.143935 
L 388.343597 -43.1119 
L 386.386041 -43.078707 
L 384.428486 -43.045571 
L 382.47093 -43.013711 
L 380.513375 -42.984345 
L 378.555819 -42.958691 
L 376.598264 -42.937968 
L 374.640708 -42.923392 
L 372.683153 -42.916182 
L 370.725597 -42.918555 
L 368.768042 -42.93634 
L 366.810486 -42.968236 
L 364.852931 -43.01179 
L 362.895375 -43.064547 
L 360.93782 -43.124055 
L 358.980264 -43.187859 
L 357.022709 -43.253506 
L 355.065153 -43.318544 
L 353.107598 -43.380517 
L 351.150042 -43.436973 
L 349.192487 -43.485459 
L 347.234931 -43.52352 
L 345.277376 -43.548704 
L 343.31982 -43.558557 
L 341.362265 -43.546046 
L 339.404709 -43.489765 
L 337.447154 -43.393059 
L 335.489598 -43.262645 
L 333.532043 -43.105243 
L 331.574487 -42.927571 
L 329.616932 -42.73635 
L 327.659377 -42.538296 
L 325.701821 -42.34013 
L 323.744266 -42.14857 
L 321.78671 -41.970335 
L 319.829155 -41.812144 
L 317.871599 -41.680715 
L 315.914044 -41.582768 
L 313.956488 -41.525022 
L 311.998933 -41.506121 
L 310.041377 -41.496387 
L 308.083822 -41.491624 
L 306.126266 -41.491025 
L 304.168711 -41.493782 
L 302.211155 -41.499088 
L 300.2536 -41.506136 
L 298.296044 -41.514117 
L 296.338489 -41.522226 
L 294.380933 -41.529653 
L 292.423378 -41.535592 
L 290.465822 -41.539235 
L 288.508267 -41.539775 
L 286.550711 -41.536405 
L 284.593156 -41.528316 
L 282.6356 -41.514163 
L 280.678045 -41.492235 
L 278.720489 -41.463625 
L 276.762934 -41.429627 
L 274.805378 -41.391534 
L 272.847823 -41.350637 
L 270.890267 -41.308231 
L 268.932712 -41.265607 
L 266.975156 -41.224059 
L 265.017601 -41.18488 
L 263.060045 -41.149362 
L 261.10249 -41.118799 
L 259.144934 -41.094482 
L 257.187379 -41.077706 
L 255.229823 -41.069763 
L 253.272268 -41.069758 
L 251.314712 -41.071901 
L 249.357157 -41.07556 
L 247.399602 -41.080482 
L 245.442046 -41.086415 
L 243.484491 -41.093106 
L 241.526935 -41.100301 
L 239.56938 -41.107748 
L 237.611824 -41.115194 
L 235.654269 -41.122385 
L 233.696713 -41.12907 
L 231.739158 -41.134994 
L 229.781602 -41.139906 
L 227.824047 -41.143552 
L 225.866491 -41.14568 
L 223.908936 -41.144866 
L 221.95138 -41.138488 
L 219.993825 -41.127106 
L 218.036269 -41.111423 
L 216.078714 -41.092142 
L 214.121158 -41.069965 
L 212.163603 -41.045593 
L 210.206047 -41.01973 
L 208.248492 -40.993077 
L 206.290936 -40.966336 
L 204.333381 -40.94021 
L 202.375825 -40.915401 
L 200.41827 -40.892611 
L 198.460714 -40.872542 
L 196.503159 -40.855897 
L 194.545603 -40.840186 
L 192.588048 -40.819622 
L 190.630492 -40.79488 
L 188.672937 -40.766834 
L 186.715381 -40.736359 
L 184.757826 -40.704331 
L 182.80027 -40.671622 
L 180.842715 -40.639109 
L 178.885159 -40.607667 
L 176.927604 -40.57817 
L 174.970048 -40.551492 
L 173.012493 -40.528509 
L 171.054937 -40.510096 
L 169.097382 -40.497127 
L 167.139827 -40.490477 
L 165.182271 -40.488416 
L 163.224716 -40.486767 
L 161.26716 -40.485401 
L 159.309605 -40.484268 
L 157.352049 -40.483316 
L 155.394494 -40.482495 
L 153.436938 -40.481754 
L 151.479383 -40.481041 
L 149.521827 -40.480307 
L 147.564272 -40.4795 
L 145.606716 -40.478569 
L 143.649161 -40.477464 
L 141.691605 -40.476134 
L 139.73405 -40.474527 
L 137.776494 -40.472593 
L 135.818939 -40.468669 
L 133.861383 -40.460727 
L 131.903828 -40.449318 
L 129.946272 -40.435011 
L 127.988717 -40.418376 
L 126.031161 -40.399984 
L 124.073606 -40.380405 
L 122.11605 -40.360208 
L 120.158495 -40.339965 
L 118.200939 -40.320245 
L 116.243384 -40.301618 
L 114.285828 -40.284655 
L 112.328273 -40.269926 
L 110.370717 -40.258 
L 108.413162 -40.249449 
L 106.455606 -40.243084 
L 104.498051 -40.237009 
L 102.540495 -40.231256 
L 100.58294 -40.225863 
L 98.625384 -40.220869 
L 96.667829 -40.216312 
L 94.710273 -40.212229 
L 92.752718 -40.20866 
L 90.795162 -40.205642 
L 88.837607 -40.203213 
L 86.880051 -40.201412 
L 84.922496 -40.200276 
L 82.964941 -40.199845 
L 81.007385 -40.200155 
L 79.04983 -40.201245 
z
" style="stroke: #2ca02c; stroke-opacity: 0.7"/>
    </defs>
    <g clip-path="url(#pc2424306ac)">
     <use xlink:href="#mbc12a35fcc" x="0" y="424.024687" style="fill: #2ca02c; fill-opacity: 0.7; stroke: #2ca02c; stroke-opacity: 0.7"/>
    </g>
   </g>
   <g id="FillBetweenPolyCollection_4">
    <defs>
     <path id="m66dfe99d7a" d="M 79.04983 -57.719138 
L 79.04983 -40.201245 
L 81.007385 -40.200155 
L 82.964941 -40.199845 
L 84.922496 -40.200276 
L 86.880051 -40.201412 
L 88.837607 -40.203213 
L 90.795162 -40.205642 
L 92.752718 -40.20866 
L 94.710273 -40.212229 
L 96.667829 -40.216312 
L 98.625384 -40.220869 
L 100.58294 -40.225863 
L 102.540495 -40.231256 
L 104.498051 -40.237009 
L 106.455606 -40.243084 
L 108.413162 -40.249449 
L 110.370717 -40.258 
L 112.328273 -40.269926 
L 114.285828 -40.284655 
L 116.243384 -40.301618 
L 118.200939 -40.320245 
L 120.158495 -40.339965 
L 122.11605 -40.360208 
L 124.073606 -40.380405 
L 126.031161 -40.399984 
L 127.988717 -40.418376 
L 129.946272 -40.435011 
L 131.903828 -40.449318 
L 133.861383 -40.460727 
L 135.818939 -40.468669 
L 137.776494 -40.472593 
L 139.73405 -40.474527 
L 141.691605 -40.476134 
L 143.649161 -40.477464 
L 145.606716 -40.478569 
L 147.564272 -40.4795 
L 149.521827 -40.480307 
L 151.479383 -40.481041 
L 153.436938 -40.481754 
L 155.394494 -40.482495 
L 157.352049 -40.483316 
L 159.309605 -40.484268 
L 161.26716 -40.485401 
L 163.224716 -40.486767 
L 165.182271 -40.488416 
L 167.139827 -40.490477 
L 169.097382 -40.497127 
L 171.054937 -40.510096 
L 173.012493 -40.528509 
L 174.970048 -40.551492 
L 176.927604 -40.57817 
L 178.885159 -40.607667 
L 180.842715 -40.639109 
L 182.80027 -40.671622 
L 184.757826 -40.704331 
L 186.715381 -40.736359 
L 188.672937 -40.766834 
L 190.630492 -40.79488 
L 192.588048 -40.819622 
L 194.545603 -40.840186 
L 196.503159 -40.855897 
L 198.460714 -40.872542 
L 200.41827 -40.892611 
L 202.375825 -40.915401 
L 204.333381 -40.94021 
L 206.290936 -40.966336 
L 208.248492 -40.993077 
L 210.206047 -41.01973 
L 212.163603 -41.045593 
L 214.121158 -41.069965 
L 216.078714 -41.092142 
L 218.036269 -41.111423 
L 219.993825 -41.127106 
L 221.95138 -41.138488 
L 223.908936 -41.144866 
L 225.866491 -41.14568 
L 227.824047 -41.143552 
L 229.781602 -41.139906 
L 231.739158 -41.134994 
L 233.696713 -41.12907 
L 235.654269 -41.122385 
L 237.611824 -41.115194 
L 239.56938 -41.107748 
L 241.526935 -41.100301 
L 243.484491 -41.093106 
L 245.442046 -41.086415 
L 247.399602 -41.080482 
L 249.357157 -41.07556 
L 251.314712 -41.071901 
L 253.272268 -41.069758 
L 255.229823 -41.069763 
L 257.187379 -41.077706 
L 259.144934 -41.094482 
L 261.10249 -41.118799 
L 263.060045 -41.149362 
L 265.017601 -41.18488 
L 266.975156 -41.224059 
L 268.932712 -41.265607 
L 270.890267 -41.308231 
L 272.847823 -41.350637 
L 274.805378 -41.391534 
L 276.762934 -41.429627 
L 278.720489 -41.463625 
L 280.678045 -41.492235 
L 282.6356 -41.514163 
L 284.593156 -41.528316 
L 286.550711 -41.536405 
L 288.508267 -41.539775 
L 290.465822 -41.539235 
L 292.423378 -41.535592 
L 294.380933 -41.529653 
L 296.338489 -41.522226 
L 298.296044 -41.514117 
L 300.2536 -41.506136 
L 302.211155 -41.499088 
L 304.168711 -41.493782 
L 306.126266 -41.491025 
L 308.083822 -41.491624 
L 310.041377 -41.496387 
L 311.998933 -41.506121 
L 313.956488 -41.525022 
L 315.914044 -41.582768 
L 317.871599 -41.680715 
L 319.829155 -41.812144 
L 321.78671 -41.970335 
L 323.744266 -42.14857 
L 325.701821 -42.34013 
L 327.659377 -42.538296 
L 329.616932 -42.73635 
L 331.574487 -42.927571 
L 333.532043 -43.105243 
L 335.489598 -43.262645 
L 337.447154 -43.393059 
L 339.404709 -43.489765 
L 341.362265 -43.546046 
L 343.31982 -43.558557 
L 345.277376 -43.548704 
L 347.234931 -43.52352 
L 349.192487 -43.485459 
L 351.150042 -43.436973 
L 353.107598 -43.380517 
L 355.065153 -43.318544 
L 357.022709 -43.253506 
L 358.980264 -43.187859 
L 360.93782 -43.124055 
L 362.895375 -43.064547 
L 364.852931 -43.01179 
L 366.810486 -42.968236 
L 368.768042 -42.93634 
L 370.725597 -42.918555 
L 372.683153 -42.916182 
L 374.640708 -42.923392 
L 376.598264 -42.937968 
L 378.555819 -42.958691 
L 380.513375 -42.984345 
L 382.47093 -43.013711 
L 384.428486 -43.045571 
L 386.386041 -43.078707 
L 388.343597 -43.1119 
L 390.301152 -43.143935 
L 392.258708 -43.173591 
L 394.216263 -43.199651 
L 396.173819 -43.220897 
L 398.131374 -43.236112 
L 400.08893 -43.244077 
L 402.046485 -43.245265 
L 404.004041 -43.24722 
L 405.961596 -43.250836 
L 407.919152 -43.255904 
L 409.876707 -43.262219 
L 411.834263 -43.269575 
L 413.791818 -43.277766 
L 415.749373 -43.286584 
L 417.706929 -43.295824 
L 419.664484 -43.305279 
L 421.62204 -43.314744 
L 423.579595 -43.324011 
L 425.537151 -43.332875 
L 427.494706 -43.34113 
L 429.452262 -43.348568 
L 431.409817 -43.3572 
L 433.367373 -43.375475 
L 435.324928 -43.403143 
L 437.282484 -43.43894 
L 439.240039 -43.481602 
L 441.197595 -43.529866 
L 443.15515 -43.582469 
L 445.112706 -43.638147 
L 447.070261 -43.695636 
L 449.027817 -43.753673 
L 450.985372 -43.810995 
L 452.942928 -43.866337 
L 454.900483 -43.918436 
L 456.858039 -43.966029 
L 458.815594 -44.007853 
L 460.77315 -44.044115 
L 462.730705 -44.079235 
L 464.688261 -44.113698 
L 466.645816 -44.147591 
L 468.603372 -44.181001 
L 470.560927 -44.214015 
L 472.518483 -44.246718 
L 474.476038 -44.279197 
L 476.433594 -44.311539 
L 478.391149 -44.343831 
L 480.348705 -44.376159 
L 482.30626 -44.408609 
L 484.263816 -44.441269 
L 486.221371 -44.474224 
L 488.178927 -44.507562 
L 490.136482 -44.542243 
L 492.094038 -44.580402 
L 494.051593 -44.621287 
L 496.009148 -44.663974 
L 497.966704 -44.707537 
L 499.924259 -44.751049 
L 501.881815 -44.793584 
L 503.83937 -44.834218 
L 505.796926 -44.872022 
L 507.754481 -44.906073 
L 509.712037 -44.935444 
L 511.669592 -44.959208 
L 513.627148 -44.976441 
L 515.584703 -44.986216 
L 517.542259 -44.987607 
L 519.499814 -44.980995 
L 521.45737 -44.969357 
L 523.414925 -44.953292 
L 525.372481 -44.933267 
L 527.330036 -44.90975 
L 529.287592 -44.883207 
L 531.245147 -44.854106 
L 533.202703 -44.822915 
L 535.160258 -44.790101 
L 537.117814 -44.75613 
L 539.075369 -44.721471 
L 541.032925 -44.686591 
L 542.99048 -44.651957 
L 544.948036 -44.618036 
L 546.905591 -44.585296 
L 548.863147 -44.551186 
L 550.820702 -44.510421 
L 552.778258 -44.464156 
L 554.735813 -44.413739 
L 556.693369 -44.360517 
L 558.650924 -44.305839 
L 560.60848 -44.251052 
L 562.566035 -44.197506 
L 564.523591 -44.146548 
L 566.481146 -44.099525 
L 568.438702 -44.057787 
L 570.396257 -44.022681 
L 572.353813 -43.995555 
L 574.311368 -43.977757 
L 576.268923 -43.970636 
L 578.226479 -43.980733 
L 580.184034 -44.016132 
L 582.14159 -44.074351 
L 584.099145 -44.152734 
L 586.056701 -44.248622 
L 588.014256 -44.359356 
L 589.971812 -44.482279 
L 591.929367 -44.614733 
L 593.886923 -44.75406 
L 595.844478 -44.897601 
L 597.802034 -45.0427 
L 599.759589 -45.186697 
L 601.717145 -45.326935 
L 603.6747 -45.460756 
L 605.632256 -45.585502 
L 607.589811 -45.711431 
L 609.547367 -45.854036 
L 611.504922 -46.00972 
L 613.462478 -46.174722 
L 615.420033 -46.345283 
L 617.377589 -46.517642 
L 619.335144 -46.68804 
L 621.2927 -46.852715 
L 623.250255 -47.007909 
L 625.207811 -47.149861 
L 627.165366 -47.274812 
L 629.122922 -47.379 
L 631.080477 -47.458667 
L 633.038033 -47.510052 
L 634.995588 -47.529395 
L 636.953144 -47.528942 
L 638.910699 -47.526661 
L 640.868255 -47.522476 
L 642.82581 -47.516266 
L 644.783366 -47.507912 
L 646.740921 -47.497295 
L 648.698477 -47.484295 
L 650.656032 -47.468792 
L 652.613588 -47.450667 
L 654.571143 -47.4298 
L 656.528699 -47.406072 
L 658.486254 -47.379363 
L 660.443809 -47.349554 
L 662.401365 -47.316524 
L 664.35892 -47.280155 
L 664.35892 -212.708615 
L 664.35892 -212.708615 
L 662.401365 -213.217097 
L 660.443809 -213.688519 
L 658.486254 -214.123158 
L 656.528699 -214.521289 
L 654.571143 -214.883188 
L 652.613588 -215.209128 
L 650.656032 -215.499387 
L 648.698477 -215.754239 
L 646.740921 -215.973959 
L 644.783366 -216.158823 
L 642.82581 -216.309107 
L 640.868255 -216.425085 
L 638.910699 -216.507032 
L 636.953144 -216.555225 
L 634.995588 -216.569815 
L 633.038033 -216.499552 
L 631.080477 -216.313527 
L 629.122922 -216.028172 
L 627.165366 -215.65992 
L 625.207811 -215.225203 
L 623.250255 -214.740455 
L 621.2927 -214.222108 
L 619.335144 -213.686593 
L 617.377589 -213.150345 
L 615.420033 -212.629795 
L 613.462478 -212.141376 
L 611.504922 -211.701521 
L 609.547367 -211.326662 
L 607.589811 -211.033233 
L 605.632256 -210.837048 
L 603.6747 -210.679024 
L 601.717145 -210.513795 
L 599.759589 -210.344087 
L 597.802034 -210.172625 
L 595.844478 -210.002134 
L 593.886923 -209.83534 
L 591.929367 -209.674967 
L 589.971812 -209.523741 
L 588.014256 -209.384387 
L 586.056701 -209.25963 
L 584.099145 -209.152195 
L 582.14159 -209.064808 
L 580.184034 -209.000194 
L 578.226479 -208.961077 
L 576.268923 -208.952058 
L 574.311368 -209.074394 
L 572.353813 -209.366917 
L 570.396257 -209.804958 
L 568.438702 -210.363849 
L 566.481146 -211.018924 
L 564.523591 -211.745514 
L 562.566035 -212.51895 
L 560.60848 -213.314567 
L 558.650924 -214.107694 
L 556.693369 -214.873666 
L 554.735813 -215.587814 
L 552.778258 -216.225469 
L 550.820702 -216.761965 
L 548.863147 -217.172633 
L 546.905591 -217.436186 
L 544.948036 -217.645033 
L 542.99048 -217.849304 
L 541.032925 -218.047533 
L 539.075369 -218.238256 
L 537.117814 -218.42001 
L 535.160258 -218.59133 
L 533.202703 -218.750753 
L 531.245147 -218.896814 
L 529.287592 -219.028049 
L 527.330036 -219.142995 
L 525.372481 -219.240186 
L 523.414925 -219.31816 
L 521.45737 -219.375452 
L 519.499814 -219.410598 
L 517.542259 -219.414627 
L 515.584703 -219.23055 
L 513.627148 -218.822841 
L 511.669592 -218.227006 
L 509.712037 -217.478547 
L 507.754481 -216.612968 
L 505.796926 -215.665773 
L 503.83937 -214.672466 
L 501.881815 -213.668551 
L 499.924259 -212.689532 
L 497.966704 -211.770911 
L 496.009148 -210.948194 
L 494.051593 -210.256884 
L 492.094038 -209.732484 
L 490.136482 -209.410499 
L 488.178927 -209.316244 
L 486.221371 -209.312954 
L 484.263816 -209.343071 
L 482.30626 -209.401161 
L 480.348705 -209.481788 
L 478.391149 -209.579519 
L 476.433594 -209.688917 
L 474.476038 -209.804549 
L 472.518483 -209.92098 
L 470.560927 -210.032775 
L 468.603372 -210.1345 
L 466.645816 -210.220719 
L 464.688261 -210.285998 
L 462.730705 -210.324903 
L 460.77315 -210.331997 
L 458.815594 -210.299359 
L 456.858039 -210.195626 
L 454.900483 -210.017921 
L 452.942928 -209.772796 
L 450.985372 -209.466802 
L 449.027817 -209.106492 
L 447.070261 -208.698417 
L 445.112706 -208.249129 
L 443.15515 -207.765181 
L 441.197595 -207.253124 
L 439.240039 -206.719509 
L 437.282484 -206.17089 
L 435.324928 -205.613817 
L 433.367373 -205.054843 
L 431.409817 -204.50052 
L 429.452262 -203.941382 
L 427.494706 -203.241943 
L 425.537151 -202.390324 
L 423.579595 -201.411805 
L 421.62204 -200.331666 
L 419.664484 -199.175189 
L 417.706929 -197.967654 
L 415.749373 -196.734343 
L 413.791818 -195.500536 
L 411.834263 -194.291515 
L 409.876707 -193.132559 
L 407.919152 -192.04895 
L 405.961596 -191.065969 
L 404.004041 -190.208897 
L 402.046485 -189.503014 
L 400.08893 -188.960056 
L 398.131374 -188.493478 
L 396.173819 -188.076296 
L 394.216263 -187.700063 
L 392.258708 -187.356331 
L 390.301152 -187.03665 
L 388.343597 -186.732574 
L 386.386041 -186.435653 
L 384.428486 -186.13744 
L 382.47093 -185.829487 
L 380.513375 -185.503344 
L 378.555819 -185.150564 
L 376.598264 -184.762699 
L 374.640708 -184.331301 
L 372.683153 -183.847921 
L 370.725597 -183.298495 
L 368.768042 -182.646358 
L 366.810486 -181.891435 
L 364.852931 -181.039874 
L 362.895375 -180.097823 
L 360.93782 -179.071431 
L 358.980264 -177.966846 
L 357.022709 -176.790217 
L 355.065153 -175.547691 
L 353.107598 -174.245417 
L 351.150042 -172.889544 
L 349.192487 -171.48622 
L 347.234931 -170.041593 
L 345.277376 -168.561812 
L 343.31982 -167.053024 
L 341.362265 -165.47987 
L 339.404709 -163.657445 
L 337.447154 -161.598112 
L 335.489598 -159.343209 
L 333.532043 -156.934073 
L 331.574487 -154.412042 
L 329.616932 -151.818454 
L 327.659377 -149.194647 
L 325.701821 -146.581957 
L 323.744266 -144.021724 
L 321.78671 -141.555284 
L 319.829155 -139.223975 
L 317.871599 -137.069135 
L 315.914044 -135.132102 
L 313.956488 -133.454213 
L 311.998933 -132.035696 
L 310.041377 -130.726995 
L 308.083822 -129.501255 
L 306.126266 -128.348523 
L 304.168711 -127.258845 
L 302.211155 -126.222268 
L 300.2536 -125.228839 
L 298.296044 -124.268606 
L 296.338489 -123.331615 
L 294.380933 -122.407914 
L 292.423378 -121.487548 
L 290.465822 -120.560566 
L 288.508267 -119.617014 
L 286.550711 -118.646939 
L 284.593156 -117.640388 
L 282.6356 -116.578755 
L 280.678045 -115.43557 
L 278.720489 -114.227048 
L 276.762934 -112.972511 
L 274.805378 -111.69128 
L 272.847823 -110.402677 
L 270.890267 -109.126024 
L 268.932712 -107.880643 
L 266.975156 -106.685854 
L 265.017601 -105.56098 
L 263.060045 -104.525342 
L 261.10249 -103.598262 
L 259.144934 -102.799062 
L 257.187379 -102.147063 
L 255.229823 -101.661587 
L 253.272268 -101.326756 
L 251.314712 -101.047167 
L 249.357157 -100.809674 
L 247.399602 -100.607198 
L 245.442046 -100.432662 
L 243.484491 -100.278987 
L 241.526935 -100.139095 
L 239.56938 -100.005909 
L 237.611824 -99.87235 
L 235.654269 -99.731341 
L 233.696713 -99.575803 
L 231.739158 -99.398659 
L 229.781602 -99.19283 
L 227.824047 -98.951239 
L 225.866491 -98.666807 
L 223.908936 -98.310841 
L 221.95138 -97.834326 
L 219.993825 -97.248907 
L 218.036269 -96.568858 
L 216.078714 -95.808449 
L 214.121158 -94.981953 
L 212.163603 -94.103641 
L 210.206047 -93.187785 
L 208.248492 -92.248656 
L 206.290936 -91.300526 
L 204.333381 -90.357668 
L 202.375825 -89.434352 
L 200.41827 -88.54485 
L 198.460714 -87.703435 
L 196.503159 -86.924377 
L 194.545603 -86.179724 
L 192.588048 -85.395116 
L 190.630492 -84.579343 
L 188.672937 -83.743815 
L 186.715381 -82.899945 
L 184.757826 -82.059142 
L 182.80027 -81.232818 
L 180.842715 -80.432383 
L 178.885159 -79.669249 
L 176.927604 -78.954825 
L 174.970048 -78.300524 
L 173.012493 -77.717755 
L 171.054937 -77.21793 
L 169.097382 -76.81246 
L 167.139827 -76.512755 
L 165.182271 -76.297671 
L 163.224716 -76.113137 
L 161.26716 -75.953952 
L 159.309605 -75.815869 
L 157.352049 -75.69464 
L 155.394494 -75.586019 
L 153.436938 -75.485758 
L 151.479383 -75.38961 
L 149.521827 -75.293329 
L 147.564272 -75.192667 
L 145.606716 -75.083378 
L 143.649161 -74.961214 
L 141.691605 -74.821928 
L 139.73405 -74.661273 
L 137.776494 -74.475002 
L 135.818939 -74.254097 
L 133.861383 -73.991783 
L 131.903828 -73.691099 
L 129.946272 -73.355157 
L 127.988717 -72.987065 
L 126.031161 -72.589934 
L 124.073606 -72.166873 
L 122.11605 -71.720994 
L 120.158495 -71.255406 
L 118.200939 -70.773219 
L 116.243384 -70.277543 
L 114.285828 -69.771488 
L 112.328273 -69.258165 
L 110.370717 -68.740683 
L 108.413162 -68.222152 
L 106.455606 -67.690899 
L 104.498051 -67.130818 
L 102.540495 -66.54296 
L 100.58294 -65.928415 
L 98.625384 -65.288275 
L 96.667829 -64.62363 
L 94.710273 -63.935572 
L 92.752718 -63.225191 
L 90.795162 -62.493578 
L 88.837607 -61.741826 
L 86.880051 -60.971023 
L 84.922496 -60.182262 
L 82.964941 -59.376634 
L 81.007385 -58.555229 
L 79.04983 -57.719138 
z
" style="stroke: #ff7f0e; stroke-opacity: 0.7"/>
    </defs>
    <g clip-path="url(#pc2424306ac)">
     <use xlink:href="#m66dfe99d7a" x="0" y="424.024687" style="fill: #ff7f0e; fill-opacity: 0.7; stroke: #ff7f0e; stroke-opacity: 0.7"/>
    </g>
   </g>
   <g id="patch_3">
    <path d="M 49.784375 384.299687 
L 49.784375 11.179688 
" style="fill: none; stroke: #808080; stroke-width: 0.5; stroke-linejoin: miter; stroke-linecap: square"/>
   </g>
   <g id="patch_4">
    <path d="M 49.784375 384.299687 
L 693.624375 384.299687 
" style="fill: none; stroke: #808080; stroke-width: 0.5; stroke-linejoin: miter; stroke-linecap: square"/>
   </g>
   <g id="legend_1">
    <g id="patch_5">
     <path d="M 58.784375 28.139063 
L 78.784375 28.139063 
L 78.784375 21.139063 
L 58.784375 21.139063 
z
" style="fill: #d62728; fill-opacity: 0.7; stroke: #d62728; stroke-opacity: 0.7; stroke-linejoin: miter"/>
    </g>
    <g id="text_17">
     <!-- Solo -->
     <g transform="translate(86.784375 28.139063) scale(0.1 -0.1)">
      <defs>
       <path id="NotoSansCJKjp-Regular-53" d="M 1946 -83 
C 2925 -83 3539 506 3539 1248 
C 3539 1946 3117 2266 2573 2502 
L 1901 2790 
C 1536 2944 1126 3117 1126 3571 
C 1126 3994 1472 4262 2003 4262 
C 2438 4262 2784 4090 3072 3821 
L 3386 4198 
C 3053 4544 2560 4781 2003 4781 
C 1152 4781 525 4256 525 3533 
C 525 2848 1043 2515 1478 2330 
L 2157 2035 
C 2598 1837 2938 1683 2938 1203 
C 2938 742 2566 435 1952 435 
C 1466 435 992 666 659 1018 
L 301 614 
C 710 186 1280 -83 1946 -83 
z
" transform="scale(0.015625)"/>
       <path id="NotoSansCJKjp-Regular-6c" d="M 1203 -83 
C 1363 -83 1459 -64 1542 -32 
L 1459 416 
C 1395 403 1370 403 1338 403 
C 1248 403 1171 474 1171 653 
L 1171 5094 
L 589 5094 
L 589 691 
C 589 198 768 -83 1203 -83 
z
" transform="scale(0.015625)"/>
      </defs>
      <use xlink:href="#NotoSansCJKjp-Regular-53"/>
      <use xlink:href="#NotoSansCJKjp-Regular-6f" transform="translate(59.699997 0)"/>
      <use xlink:href="#NotoSansCJKjp-Regular-6c" transform="translate(120.299988 0)"/>
      <use xlink:href="#NotoSansCJKjp-Regular-6f" transform="translate(148.799973 0)"/>
     </g>
    </g>
    <g id="patch_6">
     <path d="M 58.784375 43.389063 
L 78.784375 43.389063 
L 78.784375 36.389063 
L 58.784375 36.389063 
z
" style="fill: #1f77b4; fill-opacity: 0.7; stroke: #1f77b4; stroke-opacity: 0.7; stroke-linejoin: miter"/>
    </g>
    <g id="text_18">
     <!-- Initial -->
     <g transform="translate(86.784375 43.389063) scale(0.1 -0.1)">
      <defs>
       <path id="NotoSansCJKjp-Regular-49" d="M 640 0 
L 1235 0 
L 1235 4698 
L 640 4698 
L 640 0 
z
" transform="scale(0.015625)"/>
      </defs>
      <use xlink:href="#NotoSansCJKjp-Regular-49"/>
      <use xlink:href="#NotoSansCJKjp-Regular-6e" transform="translate(29.299988 0)"/>
      <use xlink:href="#NotoSansCJKjp-Regular-69" transform="translate(90.399979 0)"/>
      <use xlink:href="#NotoSansCJKjp-Regular-74" transform="translate(117.899963 0)"/>
      <use xlink:href="#NotoSansCJKjp-Regular-69" transform="translate(155.59996 0)"/>
      <use xlink:href="#NotoSansCJKjp-Regular-61" transform="translate(183.099945 0)"/>
      <use xlink:href="#NotoSansCJKjp-Regular-6c" transform="translate(239.499939 0)"/>
     </g>
    </g>
    <g id="patch_7">
     <path d="M 58.784375 58.639063 
L 78.784375 58.639063 
L 78.784375 51.639063 
L 58.784375 51.639063 
z
" style="fill: #2ca02c; fill-opacity: 0.7; stroke: #2ca02c; stroke-opacity: 0.7; stroke-linejoin: miter"/>
    </g>
    <g id="text_19">
     <!-- Middle -->
     <g transform="translate(86.784375 58.639063) scale(0.1 -0.1)">
      <defs>
       <path id="NotoSansCJKjp-Regular-4d" d="M 640 0 
L 1178 0 
L 1178 2598 
C 1178 3002 1133 3571 1107 3981 
L 1133 3981 
L 1504 2912 
L 2394 474 
L 2790 474 
L 3680 2912 
L 4051 3981 
L 4077 3981 
C 4045 3571 4000 3002 4000 2598 
L 4000 0 
L 4557 0 
L 4557 4698 
L 3840 4698 
L 2944 2182 
C 2835 1856 2733 1530 2624 1203 
L 2592 1203 
C 2477 1530 2368 1856 2259 2182 
L 1357 4698 
L 640 4698 
L 640 0 
z
" transform="scale(0.015625)"/>
       <path id="NotoSansCJKjp-Regular-64" d="M 1773 -83 
C 2189 -83 2554 141 2829 410 
L 2848 410 
L 2899 0 
L 3373 0 
L 3373 5094 
L 2797 5094 
L 2797 3757 
L 2822 3155 
C 2515 3411 2253 3565 1843 3565 
C 1050 3565 339 2861 339 1734 
C 339 576 902 -83 1773 -83 
z
M 1901 403 
C 1286 403 941 902 941 1741 
C 941 2534 1382 3072 1946 3072 
C 2234 3072 2496 2970 2797 2707 
L 2797 883 
C 2502 563 2221 403 1901 403 
z
" transform="scale(0.015625)"/>
      </defs>
      <use xlink:href="#NotoSansCJKjp-Regular-4d"/>
      <use xlink:href="#NotoSansCJKjp-Regular-69" transform="translate(81.199982 0)"/>
      <use xlink:href="#NotoSansCJKjp-Regular-64" transform="translate(108.699966 0)"/>
      <use xlink:href="#NotoSansCJKjp-Regular-64" transform="translate(170.699951 0)"/>
      <use xlink:href="#NotoSansCJKjp-Regular-6c" transform="translate(232.699936 0)"/>
      <use xlink:href="#NotoSansCJKjp-Regular-65" transform="translate(261.199921 0)"/>
     </g>
    </g>
    <g id="patch_8">
     <path d="M 58.784375 73.889063 
L 78.784375 73.889063 
L 78.784375 66.889063 
L 58.784375 66.889063 
z
" style="fill: #ff7f0e; fill-opacity: 0.7; stroke: #ff7f0e; stroke-opacity: 0.7; stroke-linejoin: miter"/>
    </g>
    <g id="text_20">
     <!-- End -->
     <g transform="translate(86.784375 73.889063) scale(0.1 -0.1)">
      <defs>
       <path id="NotoSansCJKjp-Regular-45" d="M 640 0 
L 3418 0 
L 3418 506 
L 1235 506 
L 1235 2214 
L 3014 2214 
L 3014 2720 
L 1235 2720 
L 1235 4192 
L 3347 4192 
L 3347 4698 
L 640 4698 
L 640 0 
z
" transform="scale(0.015625)"/>
      </defs>
      <use xlink:href="#NotoSansCJKjp-Regular-45"/>
      <use xlink:href="#NotoSansCJKjp-Regular-6e" transform="translate(58.799988 0)"/>
      <use xlink:href="#NotoSansCJKjp-Regular-64" transform="translate(119.899979 0)"/>
     </g>
    </g>
   </g>
  </g>
 </g>
 <defs>
  <clipPath id="pc2424306ac">
   <rect x="49.784375" y="11.179688" width="643.84" height="373.12"/>
  </clipPath>
 </defs>
</svg>
