<?xml version="1.0" encoding="utf-8" standalone="no"?>
<!DOCTYPE svg PUBLIC "-//W3C//DTD SVG 1.1//EN"
  "http://www.w3.org/Graphics/SVG/1.1/DTD/svg11.dtd">
<svg xmlns:xlink="http://www.w3.org/1999/xlink" width="313.485982pt" height="216.6575pt" viewBox="0 0 313.485982 216.6575" xmlns="http://www.w3.org/2000/svg" version="1.1">
 <metadata>
  <rdf:RDF xmlns:dc="http://purl.org/dc/elements/1.1/" xmlns:cc="http://creativecommons.org/ns#" xmlns:rdf="http://www.w3.org/1999/02/22-rdf-syntax-ns#">
   <cc:Work>
    <dc:type rdf:resource="http://purl.org/dc/dcmitype/StillImage"/>
    <dc:date>2026-04-28T10:03:30.043437</dc:date>
    <dc:format>image/svg+xml</dc:format>
    <dc:creator>
     <cc:Agent>
      <dc:title>Matplotlib v3.10.7, https://matplotlib.org/</dc:title>
     </cc:Agent>
    </dc:creator>
   </cc:Work>
  </rdf:RDF>
 </metadata>
 <defs>
  <style type="text/css">*{stroke-linejoin: round; stroke-linecap: butt}</style>
 </defs>
 <g id="figure_1">
  <g id="patch_1">
   <path d="M -0 216.6575 
L 313.485982 216.6575 
L 313.485982 -0 
L -0 -0 
z
" style="fill: #ffffff"/>
  </g>
  <g id="axes_1">
   <g id="patch_2">
    <path d="M 24.667188 196.73875 
L 300.362857 196.73875 
L 300.362857 19.5125 
L 24.667188 19.5125 
z
" style="fill: #ffffff"/>
   </g>
   <g id="matplotlib.axis_1">
    <g id="xtick_1">
     <g id="line2d_1">
      <defs>
       <path id="m662f9ec95a" d="M 0 0 
L 0 3.5 
" style="stroke: #000000; stroke-width: 0.8"/>
      </defs>
      <g>
       <use xlink:href="#m662f9ec95a" x="37.198809" y="196.73875" style="stroke: #000000; stroke-width: 0.8"/>
      </g>
     </g>
     <g id="text_1">
      <!-- 1989 -->
      <g transform="translate(31.275684 208.23875) scale(0.06 -0.06)">
       <defs>
        <path id="RobotoCondensed-Regular-31" d="M 2013 4575 
L 2013 0 
L 1459 0 
L 1459 3853 
L 503 3428 
L 503 3950 
L 1928 4575 
L 2013 4575 
z
" transform="scale(0.015625)"/>
        <path id="RobotoCondensed-Regular-39" d="M 2744 2563 
Q 2744 2119 2687 1667 
Q 2631 1216 2450 836 
Q 2269 456 1903 225 
Q 1538 -6 869 -6 
L 866 484 
Q 1428 484 1698 690 
Q 1969 897 2072 1233 
Q 2175 1569 2191 1950 
Q 1859 1522 1413 1522 
Q 1025 1522 786 1747 
Q 547 1972 436 2320 
Q 325 2669 325 3041 
Q 325 3691 623 4152 
Q 922 4613 1522 4613 
Q 1969 4613 2237 4344 
Q 2506 4075 2625 3653 
Q 2744 3231 2744 2772 
L 2744 2563 
z
M 866 3072 
Q 866 2666 1020 2334 
Q 1175 2003 1506 2003 
Q 1716 2003 1906 2179 
Q 2097 2356 2194 2616 
L 2194 2850 
Q 2194 3472 1983 3803 
Q 1772 4134 1522 4134 
Q 1206 4134 1036 3829 
Q 866 3525 866 3072 
z
" transform="scale(0.015625)"/>
        <path id="RobotoCondensed-Regular-38" d="M 2794 1231 
Q 2794 606 2445 271 
Q 2097 -63 1578 -63 
Q 1063 -63 714 273 
Q 366 609 366 1231 
Q 366 1613 536 1905 
Q 706 2197 1000 2347 
Q 450 2666 450 3366 
Q 450 3963 769 4288 
Q 1088 4613 1581 4613 
Q 2075 4613 2392 4288 
Q 2709 3963 2709 3366 
Q 2709 3028 2557 2761 
Q 2406 2494 2150 2344 
Q 2444 2194 2619 1901 
Q 2794 1609 2794 1231 
z
M 2156 3356 
Q 2156 3697 2000 3917 
Q 1844 4138 1581 4138 
Q 1319 4138 1161 3927 
Q 1003 3716 1003 3356 
Q 1003 3003 1159 2790 
Q 1316 2578 1581 2578 
Q 1844 2578 2000 2790 
Q 2156 3003 2156 3356 
z
M 2244 1244 
Q 2244 1625 2061 1865 
Q 1878 2106 1575 2106 
Q 1266 2106 1091 1865 
Q 916 1625 916 1244 
Q 916 850 1089 631 
Q 1263 413 1578 413 
Q 1897 413 2070 631 
Q 2244 850 2244 1244 
z
" transform="scale(0.015625)"/>
       </defs>
       <use xlink:href="#RobotoCondensed-Regular-31"/>
       <use xlink:href="#RobotoCondensed-Regular-39" transform="translate(49.365234 0)"/>
       <use xlink:href="#RobotoCondensed-Regular-38" transform="translate(98.730469 0)"/>
       <use xlink:href="#RobotoCondensed-Regular-39" transform="translate(148.095703 0)"/>
      </g>
     </g>
    </g>
    <g id="xtick_2">
     <g id="line2d_2">
      <g>
       <use xlink:href="#m662f9ec95a" x="74.793673" y="196.73875" style="stroke: #000000; stroke-width: 0.8"/>
      </g>
     </g>
     <g id="text_2">
      <!-- 1992 -->
      <g transform="translate(68.870548 208.23875) scale(0.06 -0.06)">
       <defs>
        <path id="RobotoCondensed-Regular-32" d="M 2909 475 
L 2909 0 
L 366 0 
L 366 416 
L 1628 2088 
Q 1966 2541 2077 2802 
Q 2188 3063 2188 3328 
Q 2188 3663 2027 3900 
Q 1866 4138 1575 4138 
Q 1194 4138 1022 3878 
Q 850 3619 850 3213 
L 297 3213 
Q 297 3788 617 4200 
Q 938 4613 1575 4613 
Q 2125 4613 2433 4278 
Q 2741 3944 2741 3397 
Q 2741 2997 2541 2594 
Q 2341 2191 2047 1809 
L 1028 475 
L 2909 475 
z
" transform="scale(0.015625)"/>
       </defs>
       <use xlink:href="#RobotoCondensed-Regular-31"/>
       <use xlink:href="#RobotoCondensed-Regular-39" transform="translate(49.365234 0)"/>
       <use xlink:href="#RobotoCondensed-Regular-39" transform="translate(98.730469 0)"/>
       <use xlink:href="#RobotoCondensed-Regular-32" transform="translate(148.095703 0)"/>
      </g>
     </g>
    </g>
    <g id="xtick_3">
     <g id="line2d_3">
      <g>
       <use xlink:href="#m662f9ec95a" x="112.388537" y="196.73875" style="stroke: #000000; stroke-width: 0.8"/>
      </g>
     </g>
     <g id="text_3">
      <!-- 1995 -->
      <g transform="translate(106.465412 208.23875) scale(0.06 -0.06)">
       <defs>
        <path id="RobotoCondensed-Regular-35" d="M 1034 2166 
L 594 2284 
L 788 4550 
L 2769 4550 
L 2769 4016 
L 1253 4016 
L 1147 2778 
Q 1438 2975 1753 2975 
Q 2288 2975 2591 2561 
Q 2894 2147 2894 1450 
Q 2894 797 2584 367 
Q 2275 -63 1656 -63 
Q 1194 -63 850 248 
Q 506 559 453 1197 
L 975 1197 
Q 1066 413 1656 413 
Q 1978 413 2159 691 
Q 2341 969 2341 1444 
Q 2341 1872 2153 2164 
Q 1966 2456 1619 2456 
Q 1384 2456 1273 2378 
Q 1163 2300 1034 2166 
z
" transform="scale(0.015625)"/>
       </defs>
       <use xlink:href="#RobotoCondensed-Regular-31"/>
       <use xlink:href="#RobotoCondensed-Regular-39" transform="translate(49.365234 0)"/>
       <use xlink:href="#RobotoCondensed-Regular-39" transform="translate(98.730469 0)"/>
       <use xlink:href="#RobotoCondensed-Regular-35" transform="translate(148.095703 0)"/>
      </g>
     </g>
    </g>
    <g id="xtick_4">
     <g id="line2d_4">
      <g>
       <use xlink:href="#m662f9ec95a" x="149.983401" y="196.73875" style="stroke: #000000; stroke-width: 0.8"/>
      </g>
     </g>
     <g id="text_4">
      <!-- 1998 -->
      <g transform="translate(144.060276 208.23875) scale(0.06 -0.06)">
       <use xlink:href="#RobotoCondensed-Regular-31"/>
       <use xlink:href="#RobotoCondensed-Regular-39" transform="translate(49.365234 0)"/>
       <use xlink:href="#RobotoCondensed-Regular-39" transform="translate(98.730469 0)"/>
       <use xlink:href="#RobotoCondensed-Regular-38" transform="translate(148.095703 0)"/>
      </g>
     </g>
    </g>
    <g id="xtick_5">
     <g id="line2d_5">
      <g>
       <use xlink:href="#m662f9ec95a" x="187.578265" y="196.73875" style="stroke: #000000; stroke-width: 0.8"/>
      </g>
     </g>
     <g id="text_5">
      <!-- 2001 -->
      <g transform="translate(181.65514 208.23875) scale(0.06 -0.06)">
       <defs>
        <path id="RobotoCondensed-Regular-30" d="M 2797 1944 
Q 2797 825 2467 381 
Q 2138 -63 1581 -63 
Q 1038 -63 703 370 
Q 369 803 359 1878 
L 359 2638 
Q 359 3753 695 4183 
Q 1031 4613 1578 4613 
Q 2131 4613 2461 4189 
Q 2791 3766 2797 2681 
L 2797 1944 
z
M 2247 2734 
Q 2247 3503 2073 3822 
Q 1900 4141 1578 4141 
Q 1266 4141 1092 3833 
Q 919 3525 913 2791 
L 913 1850 
Q 913 1088 1089 750 
Q 1266 413 1581 413 
Q 1903 413 2072 738 
Q 2241 1063 2247 1794 
L 2247 2734 
z
" transform="scale(0.015625)"/>
       </defs>
       <use xlink:href="#RobotoCondensed-Regular-32"/>
       <use xlink:href="#RobotoCondensed-Regular-30" transform="translate(49.365234 0)"/>
       <use xlink:href="#RobotoCondensed-Regular-30" transform="translate(98.730469 0)"/>
       <use xlink:href="#RobotoCondensed-Regular-31" transform="translate(148.095703 0)"/>
      </g>
     </g>
    </g>
    <g id="xtick_6">
     <g id="line2d_6">
      <g>
       <use xlink:href="#m662f9ec95a" x="225.173129" y="196.73875" style="stroke: #000000; stroke-width: 0.8"/>
      </g>
     </g>
     <g id="text_6">
      <!-- 2004 -->
      <g transform="translate(219.250004 208.23875) scale(0.06 -0.06)">
       <defs>
        <path id="RobotoCondensed-Regular-34" d="M 188 1397 
L 1878 4550 
L 2463 4550 
L 2463 1531 
L 2969 1531 
L 2969 1056 
L 2463 1056 
L 2463 0 
L 1909 0 
L 1909 1056 
L 188 1056 
L 188 1397 
z
M 803 1531 
L 1909 1531 
L 1909 3703 
L 1878 3638 
L 803 1531 
z
" transform="scale(0.015625)"/>
       </defs>
       <use xlink:href="#RobotoCondensed-Regular-32"/>
       <use xlink:href="#RobotoCondensed-Regular-30" transform="translate(49.365234 0)"/>
       <use xlink:href="#RobotoCondensed-Regular-30" transform="translate(98.730469 0)"/>
       <use xlink:href="#RobotoCondensed-Regular-34" transform="translate(148.095703 0)"/>
      </g>
     </g>
    </g>
    <g id="xtick_7">
     <g id="line2d_7">
      <g>
       <use xlink:href="#m662f9ec95a" x="262.767993" y="196.73875" style="stroke: #000000; stroke-width: 0.8"/>
      </g>
     </g>
     <g id="text_7">
      <!-- 2007 -->
      <g transform="translate(256.844868 208.23875) scale(0.06 -0.06)">
       <defs>
        <path id="RobotoCondensed-Regular-37" d="M 2878 4550 
L 2878 4225 
L 1313 0 
L 731 0 
L 2297 4075 
L 269 4075 
L 269 4550 
L 2878 4550 
z
" transform="scale(0.015625)"/>
       </defs>
       <use xlink:href="#RobotoCondensed-Regular-32"/>
       <use xlink:href="#RobotoCondensed-Regular-30" transform="translate(49.365234 0)"/>
       <use xlink:href="#RobotoCondensed-Regular-30" transform="translate(98.730469 0)"/>
       <use xlink:href="#RobotoCondensed-Regular-37" transform="translate(148.095703 0)"/>
      </g>
     </g>
    </g>
    <g id="xtick_8">
     <g id="line2d_8">
      <g>
       <use xlink:href="#m662f9ec95a" x="300.362857" y="196.73875" style="stroke: #000000; stroke-width: 0.8"/>
      </g>
     </g>
     <g id="text_8">
      <!-- 2010 -->
      <g transform="translate(294.439732 208.23875) scale(0.06 -0.06)">
       <use xlink:href="#RobotoCondensed-Regular-32"/>
       <use xlink:href="#RobotoCondensed-Regular-30" transform="translate(49.365234 0)"/>
       <use xlink:href="#RobotoCondensed-Regular-31" transform="translate(98.730469 0)"/>
       <use xlink:href="#RobotoCondensed-Regular-30" transform="translate(148.095703 0)"/>
      </g>
     </g>
    </g>
   </g>
   <g id="matplotlib.axis_2">
    <g id="ytick_1">
     <g id="line2d_9">
      <defs>
       <path id="m990bddd44d" d="M 0 0 
L -3.5 0 
" style="stroke: #000000; stroke-width: 0.8"/>
      </defs>
      <g>
       <use xlink:href="#m990bddd44d" x="24.667188" y="186.888053" style="stroke: #000000; stroke-width: 0.8"/>
      </g>
     </g>
     <g id="text_9">
      <!-- 0.80 -->
      <g transform="translate(7.2 189.138053) scale(0.06 -0.06)">
       <defs>
        <path id="RobotoCondensed-Regular-2e" d="M 450 306 
Q 450 453 542 554 
Q 634 656 809 656 
Q 984 656 1076 554 
Q 1169 453 1169 306 
Q 1169 163 1076 62 
Q 984 -38 809 -38 
Q 634 -38 542 62 
Q 450 163 450 306 
z
" transform="scale(0.015625)"/>
       </defs>
       <use xlink:href="#RobotoCondensed-Regular-30"/>
       <use xlink:href="#RobotoCondensed-Regular-2e" transform="translate(49.365234 0)"/>
       <use xlink:href="#RobotoCondensed-Regular-38" transform="translate(75.732422 0)"/>
       <use xlink:href="#RobotoCondensed-Regular-30" transform="translate(125.097656 0)"/>
      </g>
     </g>
    </g>
    <g id="ytick_2">
     <g id="line2d_10">
      <g>
       <use xlink:href="#m990bddd44d" x="24.667188" y="147.581653" style="stroke: #000000; stroke-width: 0.8"/>
      </g>
     </g>
     <g id="text_10">
      <!-- 0.82 -->
      <g transform="translate(7.2 149.831653) scale(0.06 -0.06)">
       <use xlink:href="#RobotoCondensed-Regular-30"/>
       <use xlink:href="#RobotoCondensed-Regular-2e" transform="translate(49.365234 0)"/>
       <use xlink:href="#RobotoCondensed-Regular-38" transform="translate(75.732422 0)"/>
       <use xlink:href="#RobotoCondensed-Regular-32" transform="translate(125.097656 0)"/>
      </g>
     </g>
    </g>
    <g id="ytick_3">
     <g id="line2d_11">
      <g>
       <use xlink:href="#m990bddd44d" x="24.667188" y="108.275253" style="stroke: #000000; stroke-width: 0.8"/>
      </g>
     </g>
     <g id="text_11">
      <!-- 0.84 -->
      <g transform="translate(7.2 110.525253) scale(0.06 -0.06)">
       <use xlink:href="#RobotoCondensed-Regular-30"/>
       <use xlink:href="#RobotoCondensed-Regular-2e" transform="translate(49.365234 0)"/>
       <use xlink:href="#RobotoCondensed-Regular-38" transform="translate(75.732422 0)"/>
       <use xlink:href="#RobotoCondensed-Regular-34" transform="translate(125.097656 0)"/>
      </g>
     </g>
    </g>
    <g id="ytick_4">
     <g id="line2d_12">
      <g>
       <use xlink:href="#m990bddd44d" x="24.667188" y="68.968853" style="stroke: #000000; stroke-width: 0.8"/>
      </g>
     </g>
     <g id="text_12">
      <!-- 0.86 -->
      <g transform="translate(7.2 71.218853) scale(0.06 -0.06)">
       <defs>
        <path id="RobotoCondensed-Regular-36" d="M 2847 1484 
Q 2847 838 2544 387 
Q 2241 -63 1641 -63 
Q 1216 -63 944 198 
Q 672 459 542 861 
Q 413 1263 413 1684 
L 413 1956 
Q 413 2438 481 2900 
Q 550 3363 742 3738 
Q 934 4113 1296 4334 
Q 1659 4556 2291 4556 
L 2291 4066 
Q 1775 4066 1508 3859 
Q 1241 3653 1122 3318 
Q 1003 2984 978 2606 
Q 1272 2984 1750 2984 
Q 2138 2984 2380 2765 
Q 2622 2547 2734 2201 
Q 2847 1856 2847 1484 
z
M 969 1666 
Q 969 1059 1180 737 
Q 1391 416 1641 416 
Q 1959 416 2129 708 
Q 2300 1000 2300 1456 
Q 2300 1863 2144 2184 
Q 1988 2506 1659 2506 
Q 1425 2506 1236 2329 
Q 1047 2153 969 1900 
L 969 1666 
z
" transform="scale(0.015625)"/>
       </defs>
       <use xlink:href="#RobotoCondensed-Regular-30"/>
       <use xlink:href="#RobotoCondensed-Regular-2e" transform="translate(49.365234 0)"/>
       <use xlink:href="#RobotoCondensed-Regular-38" transform="translate(75.732422 0)"/>
       <use xlink:href="#RobotoCondensed-Regular-36" transform="translate(125.097656 0)"/>
      </g>
     </g>
    </g>
    <g id="ytick_5">
     <g id="line2d_13">
      <g>
       <use xlink:href="#m990bddd44d" x="24.667188" y="29.662453" style="stroke: #000000; stroke-width: 0.8"/>
      </g>
     </g>
     <g id="text_13">
      <!-- 0.88 -->
      <g transform="translate(7.2 31.912453) scale(0.06 -0.06)">
       <use xlink:href="#RobotoCondensed-Regular-30"/>
       <use xlink:href="#RobotoCondensed-Regular-2e" transform="translate(49.365234 0)"/>
       <use xlink:href="#RobotoCondensed-Regular-38" transform="translate(75.732422 0)"/>
       <use xlink:href="#RobotoCondensed-Regular-38" transform="translate(125.097656 0)"/>
      </g>
     </g>
    </g>
   </g>
   <g id="line2d_14">
    <path d="M 37.198809 150.425215 
L 45.581164 148.940368 
L 51.448813 148.061737 
L 60.669404 146.959761 
L 62.345875 146.606696 
L 63.184111 146.308358 
L 64.022346 145.853763 
L 65.698817 144.545587 
L 67.375288 142.821749 
L 69.889995 139.761954 
L 73.242937 135.530145 
L 77.434115 130.5754 
L 82.463528 123.821356 
L 84.139999 122.101242 
L 84.978235 121.448799 
L 85.81647 120.966767 
L 86.654706 120.679147 
L 87.492941 120.609528 
L 88.331177 120.755375 
L 89.169412 121.086265 
L 90.845883 122.18522 
L 92.522355 123.670479 
L 95.875297 126.856266 
L 97.551768 128.084972 
L 98.390003 128.505066 
L 99.228239 128.756336 
L 100.066474 128.806223 
L 100.90471 128.576674 
L 101.742945 128.076663 
L 102.581181 127.349637 
L 104.257652 125.388333 
L 109.287065 118.57464 
L 110.125301 117.759632 
L 110.963536 117.152088 
L 111.801772 116.795454 
L 113.478243 116.757097 
L 115.99295 117.094515 
L 119.345892 117.883498 
L 124.375305 119.124687 
L 135.272367 121.002828 
L 136.948838 121.094195 
L 137.787074 121.064934 
L 138.625309 120.690907 
L 139.463545 119.948592 
L 140.30178 118.890323 
L 141.140016 117.568437 
L 142.816487 114.343155 
L 147.8459 103.78339 
L 148.684136 102.444049 
L 149.522371 101.364446 
L 151.198842 99.885384 
L 152.875313 98.699605 
L 155.39002 97.236485 
L 160.419433 94.525196 
L 162.095904 93.412225 
L 163.772375 92.088914 
L 166.287082 89.784227 
L 170.47826 85.479498 
L 174.669437 81.222363 
L 176.345909 79.552413 
L 178.860615 76.648812 
L 182.213557 72.809525 
L 183.890028 71.251916 
L 185.5665 70.142029 
L 186.404735 69.803349 
L 187.242971 69.634639 
L 188.919442 69.746337 
L 190.595913 70.201442 
L 193.110619 71.264529 
L 196.463562 72.790586 
L 198.140033 73.342365 
L 199.816504 73.600543 
L 200.654739 73.536773 
L 201.492975 73.171646 
L 202.33121 72.528301 
L 203.169446 71.644559 
L 204.845917 69.307159 
L 206.522388 66.461998 
L 209.87533 60.458613 
L 211.551801 57.905496 
L 213.228272 56.004738 
L 216.581215 52.834619 
L 219.934157 50.028114 
L 223.287099 47.493461 
L 228.316512 43.987571 
L 232.50769 41.308664 
L 235.860632 39.470604 
L 240.05181 37.579345 
L 244.242987 35.783026 
L 246.757694 34.970172 
L 248.434165 34.626227 
L 250.110636 34.489688 
L 250.948872 34.598756 
L 251.787107 34.984887 
L 252.625343 35.608697 
L 254.301814 37.400338 
L 256.81652 40.81404 
L 258.492992 43.081038 
L 260.169463 44.946624 
L 261.007698 45.623251 
L 261.845934 46.072763 
L 262.684169 46.252906 
L 264.36064 46.103256 
L 266.037111 45.679416 
L 268.551818 44.745937 
L 271.90476 43.459867 
L 273.581231 43.019496 
L 275.257702 42.844854 
L 277.772409 42.960617 
L 280.287116 43.321055 
L 282.801822 43.933591 
L 285.316529 44.805728 
L 287.831235 45.944968 
L 287.831235 45.944968 
" clip-path="url(#p6f360c01b1)" style="fill: none; stroke: #ffa500; stroke-width: 2; stroke-linecap: square"/>
   </g>
   <g id="line2d_15">
    <path d="M 37.198809 154.774796 
L 49.73043 148.414468 
L 62.262051 142.05414 
L 74.793673 135.693812 
L 87.325294 129.333484 
L 99.856915 122.973157 
L 112.388537 116.612829 
L 124.920158 110.252501 
L 137.451779 103.892173 
L 149.983401 97.531845 
L 162.515022 91.171517 
L 175.046643 84.811189 
L 187.578265 78.450862 
L 200.109886 72.090534 
L 212.641507 65.730206 
L 225.173129 59.369878 
L 237.70475 53.00955 
L 250.236371 46.649222 
L 262.767993 40.288894 
L 275.299614 33.928566 
L 287.831235 27.568239 
" clip-path="url(#p6f360c01b1)" style="fill: none; stroke: #ffa500; stroke-opacity: 0.7; stroke-linecap: square"/>
   </g>
   <g id="line2d_16">
    <path d="M 37.198809 188.683011 
L 39.713515 186.195573 
L 43.066458 182.499698 
L 46.4194 178.420019 
L 49.772342 174.010679 
L 52.287049 170.365448 
L 55.639991 164.974984 
L 65.698817 147.849547 
L 76.595879 128.85645 
L 82.463528 116.950071 
L 84.139999 114.365606 
L 84.978235 113.378953 
L 85.81647 112.64118 
L 86.654706 112.186159 
L 88.331177 112.007603 
L 95.875297 111.86879 
L 100.066474 111.746709 
L 101.742945 111.462822 
L 103.419417 110.913041 
L 105.934123 109.801376 
L 109.287065 108.291177 
L 110.963536 107.741691 
L 112.640007 107.454898 
L 116.831185 107.179321 
L 124.375305 106.779637 
L 126.051776 106.517179 
L 127.728247 105.930033 
L 130.242954 104.66568 
L 133.595896 102.895022 
L 135.272367 102.24387 
L 136.948838 101.909155 
L 139.463545 101.935624 
L 144.492958 102.29339 
L 148.684136 102.551578 
L 150.360607 102.559184 
L 152.037078 102.213435 
L 153.713549 101.468809 
L 155.39002 100.422222 
L 157.904727 98.498159 
L 162.095904 95.154523 
L 165.448847 92.679881 
L 170.47826 88.567216 
L 174.669437 85.213573 
L 176.345909 83.888746 
L 179.698851 80.820966 
L 182.213557 78.606088 
L 183.890028 77.393422 
L 185.5665 76.53064 
L 186.404735 76.267619 
L 187.242971 76.136667 
L 188.081206 76.148634 
L 189.757677 76.534627 
L 191.434148 77.278589 
L 193.948855 78.744468 
L 196.463562 80.189696 
L 198.140033 80.896943 
L 199.816504 81.227864 
L 202.33121 81.155131 
L 205.684152 80.778405 
L 209.87533 80.03231 
L 214.066508 79.114546 
L 216.581215 78.221796 
L 224.125334 75.212965 
L 226.640041 74.640099 
L 231.669454 73.754308 
L 236.698867 73.099071 
L 245.919458 72.195136 
L 250.110636 72.032205 
L 251.787107 72.18757 
L 253.463578 72.656976 
L 255.140049 73.362617 
L 257.654756 74.69177 
L 261.845934 76.97268 
L 265.198876 78.364961 
L 273.581231 81.704276 
L 276.934173 83.286824 
L 281.125351 85.528387 
L 285.316529 88.019375 
L 287.831235 89.618016 
L 287.831235 89.618016 
" clip-path="url(#p6f360c01b1)" style="fill: none; stroke: #800080; stroke-width: 2; stroke-linecap: square"/>
   </g>
   <g id="line2d_17">
    <path d="M 37.198809 149.421983 
L 49.73043 144.847342 
L 62.262051 140.272701 
L 74.793673 135.69806 
L 87.325294 131.123419 
L 99.856915 126.548778 
L 112.388537 121.974137 
L 124.920158 117.399497 
L 137.451779 112.824856 
L 149.983401 108.250215 
L 162.515022 103.675574 
L 175.046643 99.100933 
L 187.578265 94.526292 
L 200.109886 89.951651 
L 212.641507 85.37701 
L 225.173129 80.80237 
L 237.70475 76.227729 
L 250.236371 71.653088 
L 262.767993 67.078447 
L 275.299614 62.503806 
L 287.831235 57.929165 
" clip-path="url(#p6f360c01b1)" style="fill: none; stroke: #800080; stroke-opacity: 0.7; stroke-linecap: square"/>
   </g>
   <g id="text_14">
    <!-- Berger-Parker (50) -->
    <g transform="translate(132.115647 13.5125) scale(0.08 -0.08)">
     <defs>
      <path id="RobotoCondensed-Bold-42" d="M 3294 1341 
Q 3294 675 2942 339 
Q 2591 3 1884 0 
L 366 0 
L 366 4550 
L 1772 4550 
Q 2453 4550 2839 4245 
Q 3225 3941 3225 3303 
Q 3225 2994 3089 2734 
Q 2953 2475 2653 2344 
Q 3003 2244 3148 1956 
Q 3294 1669 3294 1341 
z
M 1288 3784 
L 1288 2647 
L 1763 2647 
Q 2303 2647 2303 3206 
Q 2303 3772 1794 3784 
L 1288 3784 
z
M 2375 1350 
Q 2375 1963 1941 1981 
L 1288 1981 
L 1288 763 
L 1872 763 
Q 2141 763 2258 930 
Q 2375 1097 2375 1350 
z
" transform="scale(0.015625)"/>
      <path id="RobotoCondensed-Bold-65" d="M 2834 444 
Q 2700 263 2411 100 
Q 2122 -63 1688 -63 
Q 997 -63 620 350 
Q 244 763 244 1497 
L 244 1775 
Q 244 2597 601 3020 
Q 959 3444 1596 3444 
Q 2234 3444 2556 3041 
Q 2878 2638 2884 1831 
L 2884 1397 
L 1131 1397 
Q 1147 994 1305 833 
Q 1463 672 1747 672 
Q 2194 672 2484 978 
L 2834 444 
z
M 1594 2709 
Q 1363 2709 1258 2545 
Q 1153 2381 1134 2016 
L 2019 2016 
L 2019 2094 
Q 2013 2400 1919 2554 
Q 1825 2709 1594 2709 
z
" transform="scale(0.015625)"/>
      <path id="RobotoCondensed-Bold-72" d="M 1700 2553 
Q 1331 2553 1206 2238 
L 1206 0 
L 322 0 
L 322 3381 
L 1156 3381 
L 1181 3016 
Q 1394 3444 1759 3444 
Q 1903 3444 2000 3406 
L 1991 2528 
Q 1834 2553 1700 2553 
z
" transform="scale(0.015625)"/>
      <path id="RobotoCondensed-Bold-67" d="M 1494 -1331 
Q 1259 -1331 945 -1232 
Q 631 -1134 453 -941 
L 750 -328 
Q 872 -450 1067 -536 
Q 1263 -622 1456 -622 
Q 1725 -622 1869 -489 
Q 2013 -356 2013 -3 
L 2013 269 
Q 1756 -63 1353 -63 
Q 819 -63 517 357 
Q 216 778 216 1572 
L 216 1794 
Q 216 2625 517 3034 
Q 819 3444 1359 3444 
Q 1819 3444 2066 3084 
L 2100 3381 
L 2900 3381 
L 2900 0 
Q 2900 -697 2512 -1014 
Q 2125 -1331 1494 -1331 
z
M 1100 1572 
Q 1100 678 1609 678 
Q 1881 678 2013 875 
L 2013 2494 
Q 1878 2706 1615 2706 
Q 1353 2706 1226 2490 
Q 1100 2275 1100 1794 
L 1100 1572 
z
" transform="scale(0.015625)"/>
      <path id="RobotoCondensed-Bold-2d" d="M 1913 2319 
L 1913 1584 
L 384 1584 
L 384 2319 
L 1913 2319 
z
" transform="scale(0.015625)"/>
      <path id="RobotoCondensed-Bold-50" d="M 1288 1600 
L 1288 0 
L 366 0 
L 366 4550 
L 1919 4550 
Q 2606 4550 3001 4123 
Q 3397 3697 3397 3044 
Q 3397 2384 3005 1993 
Q 2613 1603 1928 1600 
L 1288 1600 
z
M 1288 3784 
L 1288 2366 
L 1919 2366 
Q 2206 2366 2336 2555 
Q 2466 2744 2466 3037 
Q 2466 3331 2336 3557 
Q 2206 3784 1919 3784 
L 1288 3784 
z
" transform="scale(0.015625)"/>
      <path id="RobotoCondensed-Bold-61" d="M 1928 0 
Q 1881 106 1853 263 
Q 1613 -63 1209 -63 
Q 800 -63 514 212 
Q 228 488 228 947 
Q 228 1463 559 1764 
Q 891 2066 1572 2066 
L 1809 2066 
L 1809 2338 
Q 1809 2753 1503 2753 
Q 1172 2753 1172 2366 
L 288 2366 
Q 288 2809 623 3126 
Q 959 3444 1528 3444 
Q 2031 3444 2364 3181 
Q 2697 2919 2697 2325 
L 2697 738 
Q 2703 288 2819 53 
L 2819 0 
L 1928 0 
z
M 1409 634 
Q 1553 634 1656 693 
Q 1759 753 1809 834 
L 1809 1538 
L 1600 1538 
Q 1350 1538 1231 1384 
Q 1113 1231 1113 1009 
Q 1113 634 1409 634 
z
" transform="scale(0.015625)"/>
      <path id="RobotoCondensed-Bold-6b" d="M 2063 0 
L 1447 1309 
L 1206 1041 
L 1206 0 
L 322 0 
L 322 4803 
L 1206 4803 
L 1206 2209 
L 1316 2369 
L 1931 3381 
L 2984 3381 
L 2003 1991 
L 3075 0 
L 2063 0 
z
" transform="scale(0.015625)"/>
      <path id="RobotoCondensed-Bold-20" transform="scale(0.015625)"/>
      <path id="RobotoCondensed-Bold-28" d="M 378 1850 
Q 378 2731 592 3390 
Q 806 4050 1118 4472 
Q 1431 4894 1728 5050 
L 1894 4559 
Q 1619 4300 1372 3661 
Q 1125 3022 1119 1919 
L 1119 1772 
Q 1119 628 1367 -23 
Q 1616 -675 1894 -941 
L 1728 -1422 
Q 1431 -1266 1118 -845 
Q 806 -425 592 236 
Q 378 897 378 1850 
z
" transform="scale(0.015625)"/>
      <path id="RobotoCondensed-Bold-35" d="M 1091 2059 
L 388 2238 
L 616 4550 
L 2816 4550 
L 2816 3794 
L 1341 3794 
L 1256 2822 
Q 1500 2991 1784 2991 
Q 2350 2991 2654 2587 
Q 2959 2184 2959 1463 
Q 2959 856 2629 396 
Q 2300 -63 1625 -63 
Q 1122 -63 712 287 
Q 303 638 297 1269 
L 1172 1269 
Q 1216 672 1622 672 
Q 1872 672 1973 917 
Q 2075 1163 2075 1516 
Q 2075 1872 1945 2090 
Q 1816 2309 1538 2309 
Q 1347 2309 1250 2229 
Q 1153 2150 1091 2059 
z
" transform="scale(0.015625)"/>
      <path id="RobotoCondensed-Bold-30" d="M 2941 1881 
Q 2941 859 2572 398 
Q 2203 -63 1622 -63 
Q 1044 -63 673 392 
Q 303 847 297 1847 
L 297 2675 
Q 297 3700 665 4156 
Q 1034 4613 1619 4613 
Q 2194 4613 2562 4166 
Q 2931 3719 2941 2731 
L 2941 1881 
z
M 2056 2803 
Q 2056 3403 1937 3640 
Q 1819 3878 1619 3878 
Q 1422 3878 1303 3647 
Q 1184 3416 1181 2838 
L 1181 1763 
Q 1181 1156 1300 914 
Q 1419 672 1622 672 
Q 1822 672 1937 908 
Q 2053 1144 2056 1728 
L 2056 2803 
z
" transform="scale(0.015625)"/>
      <path id="RobotoCondensed-Bold-29" d="M 1741 1778 
Q 1741 931 1520 265 
Q 1300 -400 975 -833 
Q 650 -1266 341 -1422 
L 175 -941 
Q 447 -681 695 -37 
Q 944 606 950 1709 
L 950 1856 
Q 950 3000 695 3653 
Q 441 4306 175 4569 
L 341 5050 
Q 650 4894 975 4459 
Q 1300 4025 1520 3364 
Q 1741 2703 1741 1778 
z
" transform="scale(0.015625)"/>
     </defs>
     <use xlink:href="#RobotoCondensed-Bold-42"/>
     <use xlink:href="#RobotoCondensed-Bold-65" transform="translate(56.152344 0)"/>
     <use xlink:href="#RobotoCondensed-Bold-72" transform="translate(104.052734 0)"/>
     <use xlink:href="#RobotoCondensed-Bold-67" transform="translate(137.207031 0)"/>
     <use xlink:href="#RobotoCondensed-Bold-65" transform="translate(187.548828 0)"/>
     <use xlink:href="#RobotoCondensed-Bold-72" transform="translate(235.449219 0)"/>
     <use xlink:href="#RobotoCondensed-Bold-2d" transform="translate(268.603516 0)"/>
     <use xlink:href="#RobotoCondensed-Bold-50" transform="translate(304.931641 0)"/>
     <use xlink:href="#RobotoCondensed-Bold-61" transform="translate(361.816406 0)"/>
     <use xlink:href="#RobotoCondensed-Bold-72" transform="translate(408.935547 0)"/>
     <use xlink:href="#RobotoCondensed-Bold-6b" transform="translate(442.089844 0)"/>
     <use xlink:href="#RobotoCondensed-Bold-65" transform="translate(489.941406 0)"/>
     <use xlink:href="#RobotoCondensed-Bold-72" transform="translate(537.841797 0)"/>
     <use xlink:href="#RobotoCondensed-Bold-20" transform="translate(570.996094 0)"/>
     <use xlink:href="#RobotoCondensed-Bold-28" transform="translate(594.042969 0)"/>
     <use xlink:href="#RobotoCondensed-Bold-35" transform="translate(626.367188 0)"/>
     <use xlink:href="#RobotoCondensed-Bold-30" transform="translate(676.953125 0)"/>
     <use xlink:href="#RobotoCondensed-Bold-29" transform="translate(727.539062 0)"/>
    </g>
   </g>
   <g id="PathCollection_1">
    <defs>
     <path id="m6dadf5fdcf" d="M 0 3 
C 0.795609 3 1.55874 2.683901 2.12132 2.12132 
C 2.683901 1.55874 3 0.795609 3 0 
C 3 -0.795609 2.683901 -1.55874 2.12132 -2.12132 
C 1.55874 -2.683901 0.795609 -3 0 -3 
C -0.795609 -3 -1.55874 -2.683901 -2.12132 -2.12132 
C -2.683901 -1.55874 -3 -0.795609 -3 0 
C -3 0.795609 -2.683901 1.55874 -2.12132 2.12132 
C -1.55874 2.683901 -0.795609 3 0 3 
z
" style="stroke: #ffa500"/>
    </defs>
    <g clip-path="url(#p6f360c01b1)">
     <use xlink:href="#m6dadf5fdcf" x="37.198809" y="150.425215" style="fill: #ffa500; stroke: #ffa500"/>
     <use xlink:href="#m6dadf5fdcf" x="49.73043" y="148.290071" style="fill: #ffa500; stroke: #ffa500"/>
     <use xlink:href="#m6dadf5fdcf" x="62.262051" y="146.627263" style="fill: #ffa500; stroke: #ffa500"/>
     <use xlink:href="#m6dadf5fdcf" x="74.793673" y="133.792669" style="fill: #ffa500; stroke: #ffa500"/>
     <use xlink:href="#m6dadf5fdcf" x="87.325294" y="120.605158" style="fill: #ffa500; stroke: #ffa500"/>
     <use xlink:href="#m6dadf5fdcf" x="99.856915" y="128.816259" style="fill: #ffa500; stroke: #ffa500"/>
     <use xlink:href="#m6dadf5fdcf" x="112.388537" y="116.718369" style="fill: #ffa500; stroke: #ffa500"/>
     <use xlink:href="#m6dadf5fdcf" x="124.920158" y="119.223828" style="fill: #ffa500; stroke: #ffa500"/>
     <use xlink:href="#m6dadf5fdcf" x="137.451779" y="121.0997" style="fill: #ffa500; stroke: #ffa500"/>
     <use xlink:href="#m6dadf5fdcf" x="149.983401" y="100.900341" style="fill: #ffa500; stroke: #ffa500"/>
     <use xlink:href="#m6dadf5fdcf" x="162.515022" y="93.101163" style="fill: #ffa500; stroke: #ffa500"/>
     <use xlink:href="#m6dadf5fdcf" x="175.046643" y="80.86628" style="fill: #ffa500; stroke: #ffa500"/>
     <use xlink:href="#m6dadf5fdcf" x="187.578265" y="69.619081" style="fill: #ffa500; stroke: #ffa500"/>
     <use xlink:href="#m6dadf5fdcf" x="200.109886" y="73.606998" style="fill: #ffa500; stroke: #ffa500"/>
     <use xlink:href="#m6dadf5fdcf" x="212.641507" y="56.603733" style="fill: #ffa500; stroke: #ffa500"/>
     <use xlink:href="#m6dadf5fdcf" x="225.173129" y="46.152741" style="fill: #ffa500; stroke: #ffa500"/>
     <use xlink:href="#m6dadf5fdcf" x="237.70475" y="38.619828" style="fill: #ffa500; stroke: #ffa500"/>
     <use xlink:href="#m6dadf5fdcf" x="250.236371" y="34.48898" style="fill: #ffa500; stroke: #ffa500"/>
     <use xlink:href="#m6dadf5fdcf" x="262.767993" y="46.254479" style="fill: #ffa500; stroke: #ffa500"/>
     <use xlink:href="#m6dadf5fdcf" x="275.299614" y="42.84474" style="fill: #ffa500; stroke: #ffa500"/>
     <use xlink:href="#m6dadf5fdcf" x="287.831235" y="45.944968" style="fill: #ffa500; stroke: #ffa500"/>
    </g>
   </g>
   <g id="PathCollection_2">
    <defs>
     <path id="md9d4b8e257" d="M -3 3 
L 3 3 
L 3 -3 
L -3 -3 
z
" style="stroke: #800080"/>
    </defs>
    <g clip-path="url(#p6f360c01b1)">
     <use xlink:href="#md9d4b8e257" x="37.198809" y="188.683011" style="fill: #800080; stroke: #800080"/>
     <use xlink:href="#md9d4b8e257" x="49.73043" y="174.067655" style="fill: #800080; stroke: #800080"/>
     <use xlink:href="#md9d4b8e257" x="62.262051" y="153.709363" style="fill: #800080; stroke: #800080"/>
     <use xlink:href="#md9d4b8e257" x="74.793673" y="132.168465" style="fill: #800080; stroke: #800080"/>
     <use xlink:href="#md9d4b8e257" x="87.325294" y="112.048484" style="fill: #800080; stroke: #800080"/>
     <use xlink:href="#md9d4b8e257" x="99.856915" y="111.758682" style="fill: #800080; stroke: #800080"/>
     <use xlink:href="#md9d4b8e257" x="112.388537" y="107.479989" style="fill: #800080; stroke: #800080"/>
     <use xlink:href="#md9d4b8e257" x="124.920158" y="106.725898" style="fill: #800080; stroke: #800080"/>
     <use xlink:href="#md9d4b8e257" x="137.451779" y="101.888423" style="fill: #800080; stroke: #800080"/>
     <use xlink:href="#md9d4b8e257" x="149.983401" y="102.572101" style="fill: #800080; stroke: #800080"/>
     <use xlink:href="#md9d4b8e257" x="162.515022" y="94.857945" style="fill: #800080; stroke: #800080"/>
     <use xlink:href="#md9d4b8e257" x="175.046643" y="84.930489" style="fill: #800080; stroke: #800080"/>
     <use xlink:href="#md9d4b8e257" x="187.578265" y="76.124595" style="fill: #800080; stroke: #800080"/>
     <use xlink:href="#md9d4b8e257" x="200.109886" y="81.236138" style="fill: #800080; stroke: #800080"/>
     <use xlink:href="#md9d4b8e257" x="212.641507" y="79.472172" style="fill: #800080; stroke: #800080"/>
     <use xlink:href="#md9d4b8e257" x="225.173129" y="74.947868" style="fill: #800080; stroke: #800080"/>
     <use xlink:href="#md9d4b8e257" x="237.70475" y="72.99203" style="fill: #800080; stroke: #800080"/>
     <use xlink:href="#md9d4b8e257" x="250.236371" y="72.032045" style="fill: #800080; stroke: #800080"/>
     <use xlink:href="#md9d4b8e257" x="262.767993" y="77.385326" style="fill: #800080; stroke: #800080"/>
     <use xlink:href="#md9d4b8e257" x="275.299614" y="82.488357" style="fill: #800080; stroke: #800080"/>
     <use xlink:href="#md9d4b8e257" x="287.831235" y="89.618016" style="fill: #800080; stroke: #800080"/>
    </g>
   </g>
   <g id="legend_1">
    <g id="patch_3">
     <path d="M 27.667188 41.811875 
L 63.790938 41.811875 
L 63.790938 22.5125 
L 27.667188 22.5125 
z
" style="fill: #ffffff; opacity: 0.8"/>
    </g>
    <g id="line2d_18">
     <path d="M 30.067188 27.3125 
L 37.567188 27.3125 
L 45.067188 27.3125 
" style="fill: none; stroke: #ffa500; stroke-width: 2; stroke-linecap: square"/>
     <g>
      <use xlink:href="#m6dadf5fdcf" x="37.567188" y="27.3125" style="fill: #ffa500; stroke: #ffa500"/>
     </g>
    </g>
    <g id="text_15">
     <!-- Boys -->
     <g transform="translate(49.867188 29.4125) scale(0.06 -0.06)">
      <defs>
       <path id="RobotoCondensed-Regular-42" d="M 3125 1313 
Q 3125 675 2776 337 
Q 2428 0 1847 0 
L 491 0 
L 491 4550 
L 1791 4550 
Q 2375 4550 2706 4261 
Q 3038 3972 3038 3338 
Q 3038 3025 2880 2779 
Q 2722 2534 2453 2400 
Q 2781 2297 2953 1998 
Q 3125 1700 3125 1313 
z
M 1066 4056 
L 1066 2613 
L 1797 2613 
Q 2088 2613 2275 2806 
Q 2463 3000 2463 3344 
Q 2463 4041 1819 4056 
L 1066 4056 
z
M 2550 1306 
Q 2550 2106 1906 2128 
L 1066 2128 
L 1066 491 
L 1847 491 
Q 2181 491 2365 711 
Q 2550 931 2550 1306 
z
" transform="scale(0.015625)"/>
       <path id="RobotoCondensed-Regular-6f" d="M 300 1850 
Q 300 2641 678 3042 
Q 1056 3444 1603 3444 
Q 2156 3444 2536 3042 
Q 2916 2641 2916 1850 
L 2916 1528 
Q 2916 738 2536 337 
Q 2156 -63 1609 -63 
Q 1059 -63 679 337 
Q 300 738 300 1528 
L 300 1850 
z
M 853 1528 
Q 853 969 1068 689 
Q 1284 409 1609 409 
Q 2341 409 2363 1466 
L 2363 1850 
Q 2363 2403 2145 2686 
Q 1928 2969 1603 2969 
Q 1281 2969 1067 2686 
Q 853 2403 853 1850 
L 853 1528 
z
" transform="scale(0.015625)"/>
       <path id="RobotoCondensed-Regular-79" d="M 1425 -522 
Q 1153 -1366 563 -1366 
Q 409 -1366 278 -1316 
L 278 -847 
Q 328 -859 397 -859 
Q 631 -859 770 -746 
Q 909 -634 997 -338 
L 1106 31 
L 109 3381 
L 713 3381 
L 1341 922 
L 1953 3381 
L 2541 3381 
L 1425 -522 
z
" transform="scale(0.015625)"/>
       <path id="RobotoCondensed-Regular-73" d="M 2056 866 
Q 2056 1059 1907 1190 
Q 1759 1322 1340 1500 
Q 922 1678 681 1863 
Q 409 2072 409 2484 
Q 409 2888 703 3166 
Q 997 3444 1481 3444 
Q 2000 3444 2287 3150 
Q 2575 2856 2575 2419 
L 2025 2419 
Q 2025 2628 1884 2798 
Q 1744 2969 1481 2969 
Q 1203 2969 1083 2828 
Q 963 2688 963 2503 
Q 963 2319 1081 2217 
Q 1200 2116 1553 1959 
Q 2066 1756 2337 1537 
Q 2609 1319 2609 909 
Q 2609 463 2303 200 
Q 1997 -63 1494 -63 
Q 919 -63 616 265 
Q 313 594 313 1013 
L 866 1013 
Q 881 653 1081 533 
Q 1281 413 1494 413 
Q 2056 413 2056 866 
z
" transform="scale(0.015625)"/>
      </defs>
      <use xlink:href="#RobotoCondensed-Regular-42"/>
      <use xlink:href="#RobotoCondensed-Regular-6f" transform="translate(54.589844 0)"/>
      <use xlink:href="#RobotoCondensed-Regular-79" transform="translate(104.785156 0)"/>
      <use xlink:href="#RobotoCondensed-Regular-73" transform="translate(146.435547 0)"/>
     </g>
    </g>
    <g id="line2d_19">
     <path d="M 30.067188 36.093125 
L 37.567188 36.093125 
L 45.067188 36.093125 
" style="fill: none; stroke: #800080; stroke-width: 2; stroke-linecap: square"/>
     <defs>
      <path id="me484bcbeb4" d="M -3 3 
L 3 3 
L 3 -3 
L -3 -3 
z
" style="stroke: #800080; stroke-linejoin: miter"/>
     </defs>
     <g>
      <use xlink:href="#me484bcbeb4" x="37.567188" y="36.093125" style="fill: #800080; stroke: #800080; stroke-linejoin: miter"/>
     </g>
    </g>
    <g id="text_16">
     <!-- Girls -->
     <g transform="translate(49.867188 38.193125) scale(0.06 -0.06)">
      <defs>
       <path id="RobotoCondensed-Regular-47" d="M 3341 2266 
L 3341 569 
Q 3266 469 3114 319 
Q 2963 169 2691 53 
Q 2419 -63 1978 -63 
Q 1272 -63 830 412 
Q 388 888 388 1850 
L 388 2703 
Q 388 3656 770 4134 
Q 1153 4613 1919 4613 
Q 2581 4613 2943 4244 
Q 3306 3875 3341 3219 
L 2766 3219 
Q 2731 3641 2529 3880 
Q 2328 4119 1919 4119 
Q 1400 4119 1183 3773 
Q 966 3428 963 2731 
L 963 1850 
Q 963 1125 1239 776 
Q 1516 428 1981 428 
Q 2378 428 2537 547 
Q 2697 666 2769 728 
L 2769 1778 
L 1934 1778 
L 1934 2266 
L 3341 2266 
z
" transform="scale(0.015625)"/>
       <path id="RobotoCondensed-Regular-69" d="M 428 4278 
Q 428 4419 506 4516 
Q 584 4613 741 4613 
Q 894 4613 975 4516 
Q 1056 4419 1056 4278 
Q 1056 4144 975 4048 
Q 894 3953 741 3953 
Q 584 3953 506 4048 
Q 428 4144 428 4278 
z
M 1009 3381 
L 1009 0 
L 459 0 
L 459 3381 
L 1009 3381 
z
" transform="scale(0.015625)"/>
       <path id="RobotoCondensed-Regular-72" d="M 1563 2888 
Q 1138 2888 969 2425 
L 969 0 
L 416 0 
L 416 3381 
L 950 3381 
L 963 3041 
Q 1184 3444 1591 3444 
Q 1738 3444 1809 3400 
L 1813 2863 
Q 1691 2888 1563 2888 
z
" transform="scale(0.015625)"/>
       <path id="RobotoCondensed-Regular-6c" d="M 1009 4800 
L 1009 0 
L 459 0 
L 459 4800 
L 1009 4800 
z
" transform="scale(0.015625)"/>
      </defs>
      <use xlink:href="#RobotoCondensed-Regular-47"/>
      <use xlink:href="#RobotoCondensed-Regular-69" transform="translate(59.082031 0)"/>
      <use xlink:href="#RobotoCondensed-Regular-72" transform="translate(82.03125 0)"/>
      <use xlink:href="#RobotoCondensed-Regular-6c" transform="translate(112.5 0)"/>
      <use xlink:href="#RobotoCondensed-Regular-73" transform="translate(135.449219 0)"/>
     </g>
    </g>
   </g>
  </g>
 </g>
 <defs>
  <clipPath id="p6f360c01b1">
   <rect x="24.667188" y="19.5125" width="275.695669" height="177.22625"/>
  </clipPath>
 </defs>
</svg>
