<?xml version="1.0" encoding="utf-8" standalone="no"?>
<!DOCTYPE svg PUBLIC "-//W3C//DTD SVG 1.1//EN"
  "http://www.w3.org/Graphics/SVG/1.1/DTD/svg11.dtd">
<svg xmlns:xlink="http://www.w3.org/1999/xlink" width="314.133169pt" height="217.533125pt" viewBox="0 0 314.133169 217.533125" xmlns="http://www.w3.org/2000/svg" version="1.1">
 <metadata>
  <rdf:RDF xmlns:dc="http://purl.org/dc/elements/1.1/" xmlns:cc="http://creativecommons.org/ns#" xmlns:rdf="http://www.w3.org/1999/02/22-rdf-syntax-ns#">
   <cc:Work>
    <dc:type rdf:resource="http://purl.org/dc/dcmitype/StillImage"/>
    <dc:date>2026-04-28T10:28:05.470688</dc:date>
    <dc:format>image/svg+xml</dc:format>
    <dc:creator>
     <cc:Agent>
      <dc:title>Matplotlib v3.10.7, https://matplotlib.org/</dc:title>
     </cc:Agent>
    </dc:creator>
   </cc:Work>
  </rdf:RDF>
 </metadata>
 <defs>
  <style type="text/css">*{stroke-linejoin: round; stroke-linecap: butt}</style>
 </defs>
 <g id="figure_1">
  <g id="patch_1">
   <path d="M -0 217.533125 
L 314.133169 217.533125 
L 314.133169 -0 
L -0 -0 
z
" style="fill: #ffffff"/>
  </g>
  <g id="axes_1">
   <g id="patch_2">
    <path d="M 38.404375 183.13 
L 301.010044 183.13 
L 301.010044 9.45 
L 38.404375 9.45 
z
" style="fill: #ffffff"/>
   </g>
   <g id="matplotlib.axis_1">
    <g id="xtick_1">
     <g id="line2d_1">
      <defs>
       <path id="m2e09bdd4ad" d="M 0 0 
L 0 3.5 
" style="stroke: #000000; stroke-width: 0.8"/>
      </defs>
      <g>
       <use xlink:href="#m2e09bdd4ad" x="50.340996" y="183.13" style="stroke: #000000; stroke-width: 0.8"/>
      </g>
     </g>
     <g id="text_1">
      <!-- 1989 -->
      <g transform="translate(44.417871 194.63) scale(0.06 -0.06)">
       <defs>
        <path id="RobotoCondensed-Regular-31" d="M 2013 4575 
L 2013 0 
L 1459 0 
L 1459 3853 
L 503 3428 
L 503 3950 
L 1928 4575 
L 2013 4575 
z
" transform="scale(0.015625)"/>
        <path id="RobotoCondensed-Regular-39" d="M 2744 2563 
Q 2744 2119 2687 1667 
Q 2631 1216 2450 836 
Q 2269 456 1903 225 
Q 1538 -6 869 -6 
L 866 484 
Q 1428 484 1698 690 
Q 1969 897 2072 1233 
Q 2175 1569 2191 1950 
Q 1859 1522 1413 1522 
Q 1025 1522 786 1747 
Q 547 1972 436 2320 
Q 325 2669 325 3041 
Q 325 3691 623 4152 
Q 922 4613 1522 4613 
Q 1969 4613 2237 4344 
Q 2506 4075 2625 3653 
Q 2744 3231 2744 2772 
L 2744 2563 
z
M 866 3072 
Q 866 2666 1020 2334 
Q 1175 2003 1506 2003 
Q 1716 2003 1906 2179 
Q 2097 2356 2194 2616 
L 2194 2850 
Q 2194 3472 1983 3803 
Q 1772 4134 1522 4134 
Q 1206 4134 1036 3829 
Q 866 3525 866 3072 
z
" transform="scale(0.015625)"/>
        <path id="RobotoCondensed-Regular-38" d="M 2794 1231 
Q 2794 606 2445 271 
Q 2097 -63 1578 -63 
Q 1063 -63 714 273 
Q 366 609 366 1231 
Q 366 1613 536 1905 
Q 706 2197 1000 2347 
Q 450 2666 450 3366 
Q 450 3963 769 4288 
Q 1088 4613 1581 4613 
Q 2075 4613 2392 4288 
Q 2709 3963 2709 3366 
Q 2709 3028 2557 2761 
Q 2406 2494 2150 2344 
Q 2444 2194 2619 1901 
Q 2794 1609 2794 1231 
z
M 2156 3356 
Q 2156 3697 2000 3917 
Q 1844 4138 1581 4138 
Q 1319 4138 1161 3927 
Q 1003 3716 1003 3356 
Q 1003 3003 1159 2790 
Q 1316 2578 1581 2578 
Q 1844 2578 2000 2790 
Q 2156 3003 2156 3356 
z
M 2244 1244 
Q 2244 1625 2061 1865 
Q 1878 2106 1575 2106 
Q 1266 2106 1091 1865 
Q 916 1625 916 1244 
Q 916 850 1089 631 
Q 1263 413 1578 413 
Q 1897 413 2070 631 
Q 2244 850 2244 1244 
z
" transform="scale(0.015625)"/>
       </defs>
       <use xlink:href="#RobotoCondensed-Regular-31"/>
       <use xlink:href="#RobotoCondensed-Regular-39" transform="translate(49.365234 0)"/>
       <use xlink:href="#RobotoCondensed-Regular-38" transform="translate(98.730469 0)"/>
       <use xlink:href="#RobotoCondensed-Regular-39" transform="translate(148.095703 0)"/>
      </g>
     </g>
    </g>
    <g id="xtick_2">
     <g id="line2d_2">
      <g>
       <use xlink:href="#m2e09bdd4ad" x="86.15086" y="183.13" style="stroke: #000000; stroke-width: 0.8"/>
      </g>
     </g>
     <g id="text_2">
      <!-- 1992 -->
      <g transform="translate(80.227735 194.63) scale(0.06 -0.06)">
       <defs>
        <path id="RobotoCondensed-Regular-32" d="M 2909 475 
L 2909 0 
L 366 0 
L 366 416 
L 1628 2088 
Q 1966 2541 2077 2802 
Q 2188 3063 2188 3328 
Q 2188 3663 2027 3900 
Q 1866 4138 1575 4138 
Q 1194 4138 1022 3878 
Q 850 3619 850 3213 
L 297 3213 
Q 297 3788 617 4200 
Q 938 4613 1575 4613 
Q 2125 4613 2433 4278 
Q 2741 3944 2741 3397 
Q 2741 2997 2541 2594 
Q 2341 2191 2047 1809 
L 1028 475 
L 2909 475 
z
" transform="scale(0.015625)"/>
       </defs>
       <use xlink:href="#RobotoCondensed-Regular-31"/>
       <use xlink:href="#RobotoCondensed-Regular-39" transform="translate(49.365234 0)"/>
       <use xlink:href="#RobotoCondensed-Regular-39" transform="translate(98.730469 0)"/>
       <use xlink:href="#RobotoCondensed-Regular-32" transform="translate(148.095703 0)"/>
      </g>
     </g>
    </g>
    <g id="xtick_3">
     <g id="line2d_3">
      <g>
       <use xlink:href="#m2e09bdd4ad" x="121.960724" y="183.13" style="stroke: #000000; stroke-width: 0.8"/>
      </g>
     </g>
     <g id="text_3">
      <!-- 1995 -->
      <g transform="translate(116.037599 194.63) scale(0.06 -0.06)">
       <defs>
        <path id="RobotoCondensed-Regular-35" d="M 1034 2166 
L 594 2284 
L 788 4550 
L 2769 4550 
L 2769 4016 
L 1253 4016 
L 1147 2778 
Q 1438 2975 1753 2975 
Q 2288 2975 2591 2561 
Q 2894 2147 2894 1450 
Q 2894 797 2584 367 
Q 2275 -63 1656 -63 
Q 1194 -63 850 248 
Q 506 559 453 1197 
L 975 1197 
Q 1066 413 1656 413 
Q 1978 413 2159 691 
Q 2341 969 2341 1444 
Q 2341 1872 2153 2164 
Q 1966 2456 1619 2456 
Q 1384 2456 1273 2378 
Q 1163 2300 1034 2166 
z
" transform="scale(0.015625)"/>
       </defs>
       <use xlink:href="#RobotoCondensed-Regular-31"/>
       <use xlink:href="#RobotoCondensed-Regular-39" transform="translate(49.365234 0)"/>
       <use xlink:href="#RobotoCondensed-Regular-39" transform="translate(98.730469 0)"/>
       <use xlink:href="#RobotoCondensed-Regular-35" transform="translate(148.095703 0)"/>
      </g>
     </g>
    </g>
    <g id="xtick_4">
     <g id="line2d_4">
      <g>
       <use xlink:href="#m2e09bdd4ad" x="157.770588" y="183.13" style="stroke: #000000; stroke-width: 0.8"/>
      </g>
     </g>
     <g id="text_4">
      <!-- 1998 -->
      <g transform="translate(151.847463 194.63) scale(0.06 -0.06)">
       <use xlink:href="#RobotoCondensed-Regular-31"/>
       <use xlink:href="#RobotoCondensed-Regular-39" transform="translate(49.365234 0)"/>
       <use xlink:href="#RobotoCondensed-Regular-39" transform="translate(98.730469 0)"/>
       <use xlink:href="#RobotoCondensed-Regular-38" transform="translate(148.095703 0)"/>
      </g>
     </g>
    </g>
    <g id="xtick_5">
     <g id="line2d_5">
      <g>
       <use xlink:href="#m2e09bdd4ad" x="193.580452" y="183.13" style="stroke: #000000; stroke-width: 0.8"/>
      </g>
     </g>
     <g id="text_5">
      <!-- 2001 -->
      <g transform="translate(187.657327 194.63) scale(0.06 -0.06)">
       <defs>
        <path id="RobotoCondensed-Regular-30" d="M 2797 1944 
Q 2797 825 2467 381 
Q 2138 -63 1581 -63 
Q 1038 -63 703 370 
Q 369 803 359 1878 
L 359 2638 
Q 359 3753 695 4183 
Q 1031 4613 1578 4613 
Q 2131 4613 2461 4189 
Q 2791 3766 2797 2681 
L 2797 1944 
z
M 2247 2734 
Q 2247 3503 2073 3822 
Q 1900 4141 1578 4141 
Q 1266 4141 1092 3833 
Q 919 3525 913 2791 
L 913 1850 
Q 913 1088 1089 750 
Q 1266 413 1581 413 
Q 1903 413 2072 738 
Q 2241 1063 2247 1794 
L 2247 2734 
z
" transform="scale(0.015625)"/>
       </defs>
       <use xlink:href="#RobotoCondensed-Regular-32"/>
       <use xlink:href="#RobotoCondensed-Regular-30" transform="translate(49.365234 0)"/>
       <use xlink:href="#RobotoCondensed-Regular-30" transform="translate(98.730469 0)"/>
       <use xlink:href="#RobotoCondensed-Regular-31" transform="translate(148.095703 0)"/>
      </g>
     </g>
    </g>
    <g id="xtick_6">
     <g id="line2d_6">
      <g>
       <use xlink:href="#m2e09bdd4ad" x="229.390316" y="183.13" style="stroke: #000000; stroke-width: 0.8"/>
      </g>
     </g>
     <g id="text_6">
      <!-- 2004 -->
      <g transform="translate(223.467191 194.63) scale(0.06 -0.06)">
       <defs>
        <path id="RobotoCondensed-Regular-34" d="M 188 1397 
L 1878 4550 
L 2463 4550 
L 2463 1531 
L 2969 1531 
L 2969 1056 
L 2463 1056 
L 2463 0 
L 1909 0 
L 1909 1056 
L 188 1056 
L 188 1397 
z
M 803 1531 
L 1909 1531 
L 1909 3703 
L 1878 3638 
L 803 1531 
z
" transform="scale(0.015625)"/>
       </defs>
       <use xlink:href="#RobotoCondensed-Regular-32"/>
       <use xlink:href="#RobotoCondensed-Regular-30" transform="translate(49.365234 0)"/>
       <use xlink:href="#RobotoCondensed-Regular-30" transform="translate(98.730469 0)"/>
       <use xlink:href="#RobotoCondensed-Regular-34" transform="translate(148.095703 0)"/>
      </g>
     </g>
    </g>
    <g id="xtick_7">
     <g id="line2d_7">
      <g>
       <use xlink:href="#m2e09bdd4ad" x="265.20018" y="183.13" style="stroke: #000000; stroke-width: 0.8"/>
      </g>
     </g>
     <g id="text_7">
      <!-- 2007 -->
      <g transform="translate(259.277055 194.63) scale(0.06 -0.06)">
       <defs>
        <path id="RobotoCondensed-Regular-37" d="M 2878 4550 
L 2878 4225 
L 1313 0 
L 731 0 
L 2297 4075 
L 269 4075 
L 269 4550 
L 2878 4550 
z
" transform="scale(0.015625)"/>
       </defs>
       <use xlink:href="#RobotoCondensed-Regular-32"/>
       <use xlink:href="#RobotoCondensed-Regular-30" transform="translate(49.365234 0)"/>
       <use xlink:href="#RobotoCondensed-Regular-30" transform="translate(98.730469 0)"/>
       <use xlink:href="#RobotoCondensed-Regular-37" transform="translate(148.095703 0)"/>
      </g>
     </g>
    </g>
    <g id="xtick_8">
     <g id="line2d_8">
      <g>
       <use xlink:href="#m2e09bdd4ad" x="301.010044" y="183.13" style="stroke: #000000; stroke-width: 0.8"/>
      </g>
     </g>
     <g id="text_8">
      <!-- 2010 -->
      <g transform="translate(295.086919 194.63) scale(0.06 -0.06)">
       <use xlink:href="#RobotoCondensed-Regular-32"/>
       <use xlink:href="#RobotoCondensed-Regular-30" transform="translate(49.365234 0)"/>
       <use xlink:href="#RobotoCondensed-Regular-31" transform="translate(98.730469 0)"/>
       <use xlink:href="#RobotoCondensed-Regular-30" transform="translate(148.095703 0)"/>
      </g>
     </g>
    </g>
    <g id="text_9">
     <!-- Year -->
     <g transform="translate(159.931819 208.09875) scale(0.11 -0.11)">
      <defs>
       <path id="RobotoCondensed-Regular-59" d="M 747 4550 
L 1675 2266 
L 2606 4550 
L 3256 4550 
L 1963 1700 
L 1963 0 
L 1388 0 
L 1388 1700 
L 94 4550 
L 747 4550 
z
" transform="scale(0.015625)"/>
       <path id="RobotoCondensed-Regular-65" d="M 2722 447 
Q 2584 253 2323 95 
Q 2063 -63 1625 -63 
Q 1019 -63 666 301 
Q 313 666 309 1431 
L 309 1828 
Q 309 2722 696 3083 
Q 1084 3444 1563 3444 
Q 2197 3444 2472 3034 
Q 2747 2625 2747 1850 
L 2747 1528 
L 863 1528 
L 863 1447 
Q 863 906 1067 657 
Q 1272 409 1656 409 
Q 1934 409 2114 517 
Q 2294 625 2431 794 
L 2722 447 
z
M 1563 2969 
Q 1275 2969 1084 2770 
Q 894 2572 866 2000 
L 2194 2000 
L 2194 2078 
Q 2172 2469 2048 2719 
Q 1925 2969 1563 2969 
z
" transform="scale(0.015625)"/>
       <path id="RobotoCondensed-Regular-61" d="M 2156 0 
Q 2103 122 2081 366 
Q 1966 194 1775 65 
Q 1584 -63 1334 -63 
Q 891 -63 623 187 
Q 356 438 356 922 
Q 356 1409 690 1729 
Q 1025 2050 1691 2050 
L 2072 2050 
L 2072 2413 
Q 2072 2713 1936 2841 
Q 1800 2969 1528 2969 
Q 1263 2969 1114 2812 
Q 966 2656 966 2444 
L 413 2444 
Q 413 2806 722 3125 
Q 1031 3444 1556 3444 
Q 2025 3444 2325 3209 
Q 2625 2975 2625 2406 
L 2625 794 
Q 2625 316 2728 50 
L 2728 0 
L 2156 0 
z
M 1419 441 
Q 1653 441 1825 562 
Q 1997 684 2072 834 
L 2072 1644 
L 1781 1644 
Q 1384 1644 1146 1475 
Q 909 1306 909 991 
Q 909 688 1036 564 
Q 1163 441 1419 441 
z
" transform="scale(0.015625)"/>
       <path id="RobotoCondensed-Regular-72" d="M 1563 2888 
Q 1138 2888 969 2425 
L 969 0 
L 416 0 
L 416 3381 
L 950 3381 
L 963 3041 
Q 1184 3444 1591 3444 
Q 1738 3444 1809 3400 
L 1813 2863 
Q 1691 2888 1563 2888 
z
" transform="scale(0.015625)"/>
      </defs>
      <use xlink:href="#RobotoCondensed-Regular-59"/>
      <use xlink:href="#RobotoCondensed-Regular-65" transform="translate(52.490234 0)"/>
      <use xlink:href="#RobotoCondensed-Regular-61" transform="translate(99.365234 0)"/>
      <use xlink:href="#RobotoCondensed-Regular-72" transform="translate(147.265625 0)"/>
     </g>
    </g>
   </g>
   <g id="matplotlib.axis_2">
    <g id="ytick_1">
     <g id="line2d_9">
      <path d="M 38.404375 183.13 
L 301.010044 183.13 
" clip-path="url(#p425fb23d0e)" style="fill: none; stroke: #808080; stroke-opacity: 0.3; stroke-width: 0.5; stroke-linecap: square"/>
     </g>
     <g id="line2d_10">
      <defs>
       <path id="m373d75fe43" d="M 0 0 
L -3.5 0 
" style="stroke: #000000; stroke-width: 0.8"/>
      </defs>
      <g>
       <use xlink:href="#m373d75fe43" x="38.404375" y="183.13" style="stroke: #000000; stroke-width: 0.8"/>
      </g>
     </g>
     <g id="text_10">
      <!-- 0% -->
      <g transform="translate(24.645937 185.38) scale(0.06 -0.06)">
       <defs>
        <path id="RobotoCondensed-Regular-25" d="M 334 3675 
Q 334 4063 545 4339 
Q 756 4616 1128 4616 
Q 1506 4616 1717 4339 
Q 1928 4063 1928 3675 
L 1928 3434 
Q 1928 3053 1718 2776 
Q 1509 2500 1134 2500 
Q 759 2500 546 2776 
Q 334 3053 334 3434 
L 334 3675 
z
M 741 3434 
Q 741 3219 836 3047 
Q 931 2875 1134 2875 
Q 1331 2875 1426 3045 
Q 1522 3216 1522 3434 
L 1522 3675 
Q 1522 3894 1425 4067 
Q 1328 4241 1128 4241 
Q 931 4241 836 4067 
Q 741 3894 741 3675 
L 741 3434 
z
M 3116 3903 
L 1250 347 
L 944 553 
L 2813 4109 
L 3116 3903 
z
M 2172 1116 
Q 2172 1500 2384 1776 
Q 2597 2053 2969 2053 
Q 3344 2053 3555 1776 
Q 3766 1500 3766 1116 
L 3766 872 
Q 3766 488 3555 211 
Q 3344 -66 2972 -66 
Q 2597 -66 2384 211 
Q 2172 488 2172 872 
L 2172 1116 
z
M 2578 872 
Q 2578 653 2675 481 
Q 2772 309 2972 309 
Q 3169 309 3264 479 
Q 3359 650 3359 872 
L 3359 1116 
Q 3359 1338 3262 1508 
Q 3166 1678 2969 1678 
Q 2772 1678 2675 1508 
Q 2578 1338 2578 1116 
L 2578 872 
z
" transform="scale(0.015625)"/>
       </defs>
       <use xlink:href="#RobotoCondensed-Regular-30"/>
       <use xlink:href="#RobotoCondensed-Regular-25" transform="translate(49.365234 0)"/>
      </g>
     </g>
    </g>
    <g id="ytick_2">
     <g id="line2d_11">
      <path d="M 38.404375 148.394 
L 301.010044 148.394 
" clip-path="url(#p425fb23d0e)" style="fill: none; stroke: #808080; stroke-opacity: 0.3; stroke-width: 0.5; stroke-linecap: square"/>
     </g>
     <g id="line2d_12">
      <g>
       <use xlink:href="#m373d75fe43" x="38.404375" y="148.394" style="stroke: #000000; stroke-width: 0.8"/>
      </g>
     </g>
     <g id="text_11">
      <!-- 2% -->
      <g transform="translate(24.645937 150.644) scale(0.06 -0.06)">
       <use xlink:href="#RobotoCondensed-Regular-32"/>
       <use xlink:href="#RobotoCondensed-Regular-25" transform="translate(49.365234 0)"/>
      </g>
     </g>
    </g>
    <g id="ytick_3">
     <g id="line2d_13">
      <path d="M 38.404375 113.658 
L 301.010044 113.658 
" clip-path="url(#p425fb23d0e)" style="fill: none; stroke: #808080; stroke-opacity: 0.3; stroke-width: 0.5; stroke-linecap: square"/>
     </g>
     <g id="line2d_14">
      <g>
       <use xlink:href="#m373d75fe43" x="38.404375" y="113.658" style="stroke: #000000; stroke-width: 0.8"/>
      </g>
     </g>
     <g id="text_12">
      <!-- 4% -->
      <g transform="translate(24.645937 115.908) scale(0.06 -0.06)">
       <use xlink:href="#RobotoCondensed-Regular-34"/>
       <use xlink:href="#RobotoCondensed-Regular-25" transform="translate(49.365234 0)"/>
      </g>
     </g>
    </g>
    <g id="ytick_4">
     <g id="line2d_15">
      <path d="M 38.404375 78.922 
L 301.010044 78.922 
" clip-path="url(#p425fb23d0e)" style="fill: none; stroke: #808080; stroke-opacity: 0.3; stroke-width: 0.5; stroke-linecap: square"/>
     </g>
     <g id="line2d_16">
      <g>
       <use xlink:href="#m373d75fe43" x="38.404375" y="78.922" style="stroke: #000000; stroke-width: 0.8"/>
      </g>
     </g>
     <g id="text_13">
      <!-- 6% -->
      <g transform="translate(24.645937 81.172) scale(0.06 -0.06)">
       <defs>
        <path id="RobotoCondensed-Regular-36" d="M 2847 1484 
Q 2847 838 2544 387 
Q 2241 -63 1641 -63 
Q 1216 -63 944 198 
Q 672 459 542 861 
Q 413 1263 413 1684 
L 413 1956 
Q 413 2438 481 2900 
Q 550 3363 742 3738 
Q 934 4113 1296 4334 
Q 1659 4556 2291 4556 
L 2291 4066 
Q 1775 4066 1508 3859 
Q 1241 3653 1122 3318 
Q 1003 2984 978 2606 
Q 1272 2984 1750 2984 
Q 2138 2984 2380 2765 
Q 2622 2547 2734 2201 
Q 2847 1856 2847 1484 
z
M 969 1666 
Q 969 1059 1180 737 
Q 1391 416 1641 416 
Q 1959 416 2129 708 
Q 2300 1000 2300 1456 
Q 2300 1863 2144 2184 
Q 1988 2506 1659 2506 
Q 1425 2506 1236 2329 
Q 1047 2153 969 1900 
L 969 1666 
z
" transform="scale(0.015625)"/>
       </defs>
       <use xlink:href="#RobotoCondensed-Regular-36"/>
       <use xlink:href="#RobotoCondensed-Regular-25" transform="translate(49.365234 0)"/>
      </g>
     </g>
    </g>
    <g id="ytick_5">
     <g id="line2d_17">
      <path d="M 38.404375 44.186 
L 301.010044 44.186 
" clip-path="url(#p425fb23d0e)" style="fill: none; stroke: #808080; stroke-opacity: 0.3; stroke-width: 0.5; stroke-linecap: square"/>
     </g>
     <g id="line2d_18">
      <g>
       <use xlink:href="#m373d75fe43" x="38.404375" y="44.186" style="stroke: #000000; stroke-width: 0.8"/>
      </g>
     </g>
     <g id="text_14">
      <!-- 8% -->
      <g transform="translate(24.645937 46.436) scale(0.06 -0.06)">
       <use xlink:href="#RobotoCondensed-Regular-38"/>
       <use xlink:href="#RobotoCondensed-Regular-25" transform="translate(49.365234 0)"/>
      </g>
     </g>
    </g>
    <g id="ytick_6">
     <g id="line2d_19">
      <path d="M 38.404375 9.45 
L 301.010044 9.45 
" clip-path="url(#p425fb23d0e)" style="fill: none; stroke: #808080; stroke-opacity: 0.3; stroke-width: 0.5; stroke-linecap: square"/>
     </g>
     <g id="line2d_20">
      <g>
       <use xlink:href="#m373d75fe43" x="38.404375" y="9.45" style="stroke: #000000; stroke-width: 0.8"/>
      </g>
     </g>
     <g id="text_15">
      <!-- 10% -->
      <g transform="translate(21.684375 11.7) scale(0.06 -0.06)">
       <use xlink:href="#RobotoCondensed-Regular-31"/>
       <use xlink:href="#RobotoCondensed-Regular-30" transform="translate(49.365234 0)"/>
       <use xlink:href="#RobotoCondensed-Regular-25" transform="translate(98.730469 0)"/>
      </g>
     </g>
    </g>
    <g id="text_16">
     <!-- Proportion -->
     <g transform="translate(15.45 119.239609) rotate(-90) scale(0.11 -0.11)">
      <defs>
       <path id="RobotoCondensed-Regular-50" d="M 1066 1784 
L 1066 0 
L 491 0 
L 491 4550 
L 1941 4550 
Q 2600 4550 2951 4159 
Q 3303 3769 3303 3163 
Q 3303 2506 2954 2147 
Q 2606 1788 1950 1784 
L 1066 1784 
z
M 1066 4056 
L 1066 2275 
L 1941 2275 
Q 2359 2275 2543 2522 
Q 2728 2769 2728 3156 
Q 2728 3506 2543 3781 
Q 2359 4056 1941 4056 
L 1066 4056 
z
" transform="scale(0.015625)"/>
       <path id="RobotoCondensed-Regular-6f" d="M 300 1850 
Q 300 2641 678 3042 
Q 1056 3444 1603 3444 
Q 2156 3444 2536 3042 
Q 2916 2641 2916 1850 
L 2916 1528 
Q 2916 738 2536 337 
Q 2156 -63 1609 -63 
Q 1059 -63 679 337 
Q 300 738 300 1528 
L 300 1850 
z
M 853 1528 
Q 853 969 1068 689 
Q 1284 409 1609 409 
Q 2341 409 2363 1466 
L 2363 1850 
Q 2363 2403 2145 2686 
Q 1928 2969 1603 2969 
Q 1281 2969 1067 2686 
Q 853 2403 853 1850 
L 853 1528 
z
" transform="scale(0.015625)"/>
       <path id="RobotoCondensed-Regular-70" d="M 1750 -63 
Q 1244 -63 969 325 
L 969 -1300 
L 416 -1300 
L 416 3381 
L 919 3381 
L 947 3013 
Q 1222 3444 1744 3444 
Q 2275 3444 2562 3073 
Q 2850 2703 2859 1897 
L 2859 1528 
Q 2859 725 2570 331 
Q 2281 -63 1750 -63 
z
M 1572 2956 
Q 1181 2956 969 2559 
L 969 797 
Q 1178 409 1578 409 
Q 2288 409 2306 1472 
L 2306 1844 
Q 2306 2956 1572 2956 
z
" transform="scale(0.015625)"/>
       <path id="RobotoCondensed-Regular-74" d="M 1647 0 
Q 1488 -63 1259 -63 
Q 991 -63 789 134 
Q 588 331 588 841 
L 588 2938 
L 72 2938 
L 72 3381 
L 588 3381 
L 588 4203 
L 1141 4203 
L 1141 3381 
L 1650 3381 
L 1650 2938 
L 1141 2938 
L 1141 838 
Q 1141 578 1230 506 
Q 1319 434 1431 434 
Q 1550 434 1650 472 
L 1647 0 
z
" transform="scale(0.015625)"/>
       <path id="RobotoCondensed-Regular-69" d="M 428 4278 
Q 428 4419 506 4516 
Q 584 4613 741 4613 
Q 894 4613 975 4516 
Q 1056 4419 1056 4278 
Q 1056 4144 975 4048 
Q 894 3953 741 3953 
Q 584 3953 506 4048 
Q 428 4144 428 4278 
z
M 1009 3381 
L 1009 0 
L 459 0 
L 459 3381 
L 1009 3381 
z
" transform="scale(0.015625)"/>
       <path id="RobotoCondensed-Regular-6e" d="M 1603 2956 
Q 1400 2956 1236 2818 
Q 1072 2681 969 2459 
L 969 0 
L 416 0 
L 416 3381 
L 938 3381 
L 953 3022 
Q 1275 3444 1775 3444 
Q 2191 3444 2437 3162 
Q 2684 2881 2684 2216 
L 2684 0 
L 2131 0 
L 2131 2222 
Q 2131 2619 2000 2787 
Q 1869 2956 1603 2956 
z
" transform="scale(0.015625)"/>
      </defs>
      <use xlink:href="#RobotoCondensed-Regular-50"/>
      <use xlink:href="#RobotoCondensed-Regular-72" transform="translate(55.419922 0)"/>
      <use xlink:href="#RobotoCondensed-Regular-6f" transform="translate(85.888672 0)"/>
      <use xlink:href="#RobotoCondensed-Regular-70" transform="translate(136.083984 0)"/>
      <use xlink:href="#RobotoCondensed-Regular-6f" transform="translate(185.400391 0)"/>
      <use xlink:href="#RobotoCondensed-Regular-72" transform="translate(235.595703 0)"/>
      <use xlink:href="#RobotoCondensed-Regular-74" transform="translate(266.064453 0)"/>
      <use xlink:href="#RobotoCondensed-Regular-69" transform="translate(295.654297 0)"/>
      <use xlink:href="#RobotoCondensed-Regular-6f" transform="translate(318.603516 0)"/>
      <use xlink:href="#RobotoCondensed-Regular-6e" transform="translate(368.798828 0)"/>
     </g>
    </g>
   </g>
   <g id="FillBetweenPolyCollection_1">
    <path d="M 50.340996 183.122611 
L 50.340996 183.13 
L 51.139433 183.13 
L 51.937869 183.13 
L 52.736305 183.13 
L 53.534741 183.13 
L 54.333177 183.13 
L 55.131614 183.13 
L 55.93005 183.13 
L 56.728486 183.13 
L 57.526922 183.13 
L 58.325358 183.13 
L 59.123795 183.13 
L 59.922231 183.13 
L 60.720667 183.13 
L 61.519103 183.13 
L 62.317539 183.13 
L 63.115976 183.13 
L 63.914412 183.13 
L 64.712848 183.13 
L 65.511284 183.13 
L 66.309721 183.13 
L 67.108157 183.13 
L 67.906593 183.13 
L 68.705029 183.13 
L 69.503465 183.13 
L 70.301902 183.13 
L 71.100338 183.13 
L 71.898774 183.13 
L 72.69721 183.13 
L 73.495646 183.13 
L 74.294083 183.13 
L 75.092519 183.13 
L 75.890955 183.13 
L 76.689391 183.13 
L 77.487827 183.13 
L 78.286264 183.13 
L 79.0847 183.13 
L 79.883136 183.13 
L 80.681572 183.13 
L 81.480009 183.13 
L 82.278445 183.13 
L 83.076881 183.13 
L 83.875317 183.13 
L 84.673753 183.13 
L 85.47219 183.13 
L 86.270626 183.13 
L 87.069062 183.13 
L 87.867498 183.13 
L 88.665934 183.13 
L 89.464371 183.13 
L 90.262807 183.13 
L 91.061243 183.13 
L 91.859679 183.13 
L 92.658115 183.13 
L 93.456552 183.13 
L 94.254988 183.13 
L 95.053424 183.13 
L 95.85186 183.13 
L 96.650296 183.13 
L 97.448733 183.13 
L 98.247169 183.13 
L 99.045605 183.13 
L 99.844041 183.13 
L 100.642478 183.13 
L 101.440914 183.13 
L 102.23935 183.13 
L 103.037786 183.13 
L 103.836222 183.13 
L 104.634659 183.13 
L 105.433095 183.13 
L 106.231531 183.13 
L 107.029967 183.13 
L 107.828403 183.13 
L 108.62684 183.13 
L 109.425276 183.13 
L 110.223712 183.13 
L 111.022148 183.13 
L 111.820584 183.13 
L 112.619021 183.13 
L 113.417457 183.13 
L 114.215893 183.13 
L 115.014329 183.13 
L 115.812766 183.13 
L 116.611202 183.13 
L 117.409638 183.13 
L 118.208074 183.13 
L 119.00651 183.13 
L 119.804947 183.13 
L 120.603383 183.13 
L 121.401819 183.13 
L 122.200255 183.13 
L 122.998691 183.13 
L 123.797128 183.13 
L 124.595564 183.13 
L 125.394 183.13 
L 126.192436 183.13 
L 126.990872 183.13 
L 127.789309 183.13 
L 128.587745 183.13 
L 129.386181 183.13 
L 130.184617 183.13 
L 130.983053 183.13 
L 131.78149 183.13 
L 132.579926 183.13 
L 133.378362 183.13 
L 134.176798 183.13 
L 134.975235 183.13 
L 135.773671 183.13 
L 136.572107 183.13 
L 137.370543 183.13 
L 138.168979 183.13 
L 138.967416 183.13 
L 139.765852 183.13 
L 140.564288 183.13 
L 141.362724 183.13 
L 142.16116 183.13 
L 142.959597 183.13 
L 143.758033 183.13 
L 144.556469 183.13 
L 145.354905 183.13 
L 146.153341 183.13 
L 146.951778 183.13 
L 147.750214 183.13 
L 148.54865 183.13 
L 149.347086 183.13 
L 150.145523 183.13 
L 150.943959 183.13 
L 151.742395 183.13 
L 152.540831 183.13 
L 153.339267 183.13 
L 154.137704 183.13 
L 154.93614 183.13 
L 155.734576 183.13 
L 156.533012 183.13 
L 157.331448 183.13 
L 158.129885 183.13 
L 158.928321 183.13 
L 159.726757 183.13 
L 160.525193 183.13 
L 161.323629 183.13 
L 162.122066 183.13 
L 162.920502 183.13 
L 163.718938 183.13 
L 164.517374 183.13 
L 165.31581 183.13 
L 166.114247 183.13 
L 166.912683 183.13 
L 167.711119 183.13 
L 168.509555 183.13 
L 169.307992 183.13 
L 170.106428 183.13 
L 170.904864 183.13 
L 171.7033 183.13 
L 172.501736 183.13 
L 173.300173 183.13 
L 174.098609 183.13 
L 174.897045 183.13 
L 175.695481 183.13 
L 176.493917 183.13 
L 177.292354 183.13 
L 178.09079 183.13 
L 178.889226 183.13 
L 179.687662 183.13 
L 180.486098 183.13 
L 181.284535 183.13 
L 182.082971 183.13 
L 182.881407 183.13 
L 183.679843 183.13 
L 184.47828 183.13 
L 185.276716 183.13 
L 186.075152 183.13 
L 186.873588 183.13 
L 187.672024 183.13 
L 188.470461 183.13 
L 189.268897 183.13 
L 190.067333 183.13 
L 190.865769 183.13 
L 191.664205 183.13 
L 192.462642 183.13 
L 193.261078 183.13 
L 194.059514 183.13 
L 194.85795 183.13 
L 195.656386 183.13 
L 196.454823 183.13 
L 197.253259 183.13 
L 198.051695 183.13 
L 198.850131 183.13 
L 199.648568 183.13 
L 200.447004 183.13 
L 201.24544 183.13 
L 202.043876 183.13 
L 202.842312 183.13 
L 203.640749 183.13 
L 204.439185 183.13 
L 205.237621 183.13 
L 206.036057 183.13 
L 206.834493 183.13 
L 207.63293 183.13 
L 208.431366 183.13 
L 209.229802 183.13 
L 210.028238 183.13 
L 210.826674 183.13 
L 211.625111 183.13 
L 212.423547 183.13 
L 213.221983 183.13 
L 214.020419 183.13 
L 214.818855 183.13 
L 215.617292 183.13 
L 216.415728 183.13 
L 217.214164 183.13 
L 218.0126 183.13 
L 218.811037 183.13 
L 219.609473 183.13 
L 220.407909 183.13 
L 221.206345 183.13 
L 222.004781 183.13 
L 222.803218 183.13 
L 223.601654 183.13 
L 224.40009 183.13 
L 225.198526 183.13 
L 225.996962 183.13 
L 226.795399 183.13 
L 227.593835 183.13 
L 228.392271 183.13 
L 229.190707 183.13 
L 229.989143 183.13 
L 230.78758 183.13 
L 231.586016 183.13 
L 232.384452 183.13 
L 233.182888 183.13 
L 233.981325 183.13 
L 234.779761 183.13 
L 235.578197 183.13 
L 236.376633 183.13 
L 237.175069 183.13 
L 237.973506 183.13 
L 238.771942 183.13 
L 239.570378 183.13 
L 240.368814 183.13 
L 241.16725 183.13 
L 241.965687 183.13 
L 242.764123 183.13 
L 243.562559 183.13 
L 244.360995 183.13 
L 245.159431 183.13 
L 245.957868 183.13 
L 246.756304 183.13 
L 247.55474 183.13 
L 248.353176 183.13 
L 249.151612 183.13 
L 249.950049 183.13 
L 250.748485 183.13 
L 251.546921 183.13 
L 252.345357 183.13 
L 253.143794 183.13 
L 253.94223 183.13 
L 254.740666 183.13 
L 255.539102 183.13 
L 256.337538 183.13 
L 257.135975 183.13 
L 257.934411 183.13 
L 258.732847 183.13 
L 259.531283 183.13 
L 260.329719 183.13 
L 261.128156 183.13 
L 261.926592 183.13 
L 262.725028 183.13 
L 263.523464 183.13 
L 264.3219 183.13 
L 265.120337 183.13 
L 265.918773 183.13 
L 266.717209 183.13 
L 267.515645 183.13 
L 268.314082 183.13 
L 269.112518 183.13 
L 269.910954 183.13 
L 270.70939 183.13 
L 271.507826 183.13 
L 272.306263 183.13 
L 273.104699 183.13 
L 273.903135 183.13 
L 274.701571 183.13 
L 275.500007 183.13 
L 276.298444 183.13 
L 277.09688 183.13 
L 277.895316 183.13 
L 278.693752 183.13 
L 279.492188 183.13 
L 280.290625 183.13 
L 281.089061 183.13 
L 281.887497 183.13 
L 282.685933 183.13 
L 283.484369 183.13 
L 284.282806 183.13 
L 285.081242 183.13 
L 285.879678 183.13 
L 286.678114 183.13 
L 287.476551 183.13 
L 288.274987 183.13 
L 289.073423 183.13 
L 289.073423 183.114776 
L 289.073423 183.114776 
L 288.274987 183.11494 
L 287.476551 183.115102 
L 286.678114 183.115261 
L 285.879678 183.115419 
L 285.081242 183.115574 
L 284.282806 183.115727 
L 283.484369 183.115877 
L 282.685933 183.116025 
L 281.887497 183.11617 
L 281.089061 183.116313 
L 280.290625 183.116453 
L 279.492188 183.11659 
L 278.693752 183.116725 
L 277.895316 183.116857 
L 277.09688 183.116986 
L 276.298444 183.11711 
L 275.500007 183.11723 
L 274.701571 183.117345 
L 273.903135 183.117457 
L 273.104699 183.117567 
L 272.306263 183.117674 
L 271.507826 183.11778 
L 270.70939 183.117886 
L 269.910954 183.117992 
L 269.112518 183.118098 
L 268.314082 183.118207 
L 267.515645 183.118317 
L 266.717209 183.118431 
L 265.918773 183.118548 
L 265.120337 183.11867 
L 264.3219 183.11879 
L 263.523464 183.118903 
L 262.725028 183.119013 
L 261.926592 183.119121 
L 261.128156 183.11923 
L 260.329719 183.11934 
L 259.531283 183.119455 
L 258.732847 183.119575 
L 257.934411 183.119704 
L 257.135975 183.119843 
L 256.337538 183.119994 
L 255.539102 183.120158 
L 254.740666 183.120339 
L 253.94223 183.120538 
L 253.143794 183.120758 
L 252.345357 183.1211 
L 251.546921 183.121598 
L 250.748485 183.122227 
L 249.950049 183.122959 
L 249.151612 183.123766 
L 248.353176 183.124622 
L 247.55474 183.125498 
L 246.756304 183.126368 
L 245.957868 183.127205 
L 245.159431 183.127981 
L 244.360995 183.128669 
L 243.562559 183.129242 
L 242.764123 183.129672 
L 241.965687 183.129932 
L 241.16725 183.129997 
L 240.368814 183.12991 
L 239.570378 183.129707 
L 238.771942 183.129401 
L 237.973506 183.129003 
L 237.175069 183.128526 
L 236.376633 183.127982 
L 235.578197 183.127383 
L 234.779761 183.12674 
L 233.981325 183.126067 
L 233.182888 183.125375 
L 232.384452 183.124676 
L 231.586016 183.123982 
L 230.78758 183.123306 
L 229.989143 183.122659 
L 229.190707 183.122048 
L 228.392271 183.121373 
L 227.593835 183.120606 
L 226.795399 183.119769 
L 225.996962 183.118883 
L 225.198526 183.117969 
L 224.40009 183.117048 
L 223.601654 183.11614 
L 222.803218 183.115268 
L 222.004781 183.114451 
L 221.206345 183.113712 
L 220.407909 183.113071 
L 219.609473 183.112549 
L 218.811037 183.112167 
L 218.0126 183.111947 
L 217.214164 183.111911 
L 216.415728 183.112111 
L 215.617292 183.11253 
L 214.818855 183.113132 
L 214.020419 183.113883 
L 213.221983 183.114747 
L 212.423547 183.115688 
L 211.625111 183.11667 
L 210.826674 183.117659 
L 210.028238 183.118618 
L 209.229802 183.119513 
L 208.431366 183.120307 
L 207.63293 183.120966 
L 206.834493 183.121453 
L 206.036057 183.121733 
L 205.237621 183.121782 
L 204.439185 183.121702 
L 203.640749 183.12154 
L 202.842312 183.12131 
L 202.043876 183.121024 
L 201.24544 183.120696 
L 200.447004 183.12034 
L 199.648568 183.119969 
L 198.850131 183.119596 
L 198.051695 183.119235 
L 197.253259 183.118899 
L 196.454823 183.118602 
L 195.656386 183.118356 
L 194.85795 183.118176 
L 194.059514 183.118074 
L 193.261078 183.118082 
L 192.462642 183.118351 
L 191.664205 183.118881 
L 190.865769 183.119629 
L 190.067333 183.120552 
L 189.268897 183.121606 
L 188.470461 183.122749 
L 187.672024 183.123939 
L 186.873588 183.125131 
L 186.075152 183.126284 
L 185.276716 183.127355 
L 184.47828 183.1283 
L 183.679843 183.129076 
L 182.881407 183.129641 
L 182.082971 183.129953 
L 181.284535 183.129993 
L 180.486098 183.129934 
L 179.687662 183.129813 
L 178.889226 183.129636 
L 178.09079 183.129405 
L 177.292354 183.129124 
L 176.493917 183.128795 
L 175.695481 183.128421 
L 174.897045 183.128006 
L 174.098609 183.127553 
L 173.300173 183.127065 
L 172.501736 183.126545 
L 171.7033 183.125996 
L 170.904864 183.125422 
L 170.106428 183.124825 
L 169.307992 183.124137 
L 168.509555 183.122959 
L 167.711119 183.121303 
L 166.912683 183.119255 
L 166.114247 183.116902 
L 165.31581 183.114332 
L 164.517374 183.111632 
L 163.718938 183.108887 
L 162.920502 183.106187 
L 162.122066 183.103616 
L 161.323629 183.101263 
L 160.525193 183.099214 
L 159.726757 183.097557 
L 158.928321 183.096377 
L 158.129885 183.095763 
L 157.331448 183.095757 
L 156.533012 183.096169 
L 155.734576 183.096923 
L 154.93614 183.097965 
L 154.137704 183.099245 
L 153.339267 183.10071 
L 152.540831 183.102307 
L 151.742395 183.103986 
L 150.943959 183.105694 
L 150.145523 183.107378 
L 149.347086 183.108987 
L 148.54865 183.110469 
L 147.750214 183.111772 
L 146.951778 183.112843 
L 146.153341 183.113631 
L 145.354905 183.114148 
L 144.556469 183.114628 
L 143.758033 183.115094 
L 142.959597 183.115544 
L 142.16116 183.115973 
L 141.362724 183.11638 
L 140.564288 183.11676 
L 139.765852 183.11711 
L 138.967416 183.117427 
L 138.168979 183.117708 
L 137.370543 183.117948 
L 136.572107 183.118145 
L 135.773671 183.118296 
L 134.975235 183.118397 
L 134.176798 183.118445 
L 133.378362 183.118396 
L 132.579926 183.118127 
L 131.78149 183.11766 
L 130.983053 183.117029 
L 130.184617 183.116267 
L 129.386181 183.115409 
L 128.587745 183.114489 
L 127.789309 183.113541 
L 126.990872 183.112599 
L 126.192436 183.111697 
L 125.394 183.110869 
L 124.595564 183.110149 
L 123.797128 183.109571 
L 122.998691 183.109169 
L 122.200255 183.108978 
L 121.401819 183.108995 
L 120.603383 183.109128 
L 119.804947 183.109359 
L 119.00651 183.109675 
L 118.208074 183.110062 
L 117.409638 183.110509 
L 116.611202 183.111003 
L 115.812766 183.11153 
L 115.014329 183.112078 
L 114.215893 183.112635 
L 113.417457 183.113188 
L 112.619021 183.113723 
L 111.820584 183.114229 
L 111.022148 183.114692 
L 110.223712 183.1151 
L 109.425276 183.115454 
L 108.62684 183.115782 
L 107.828403 183.116091 
L 107.029967 183.116385 
L 106.231531 183.116667 
L 105.433095 183.116943 
L 104.634659 183.117216 
L 103.836222 183.11749 
L 103.037786 183.117771 
L 102.23935 183.118062 
L 101.440914 183.118367 
L 100.642478 183.118691 
L 99.844041 183.119038 
L 99.045605 183.119412 
L 98.247169 183.119817 
L 97.448733 183.120294 
L 96.650296 183.120905 
L 95.85186 183.121627 
L 95.053424 183.122436 
L 94.254988 183.123307 
L 93.456552 183.124216 
L 92.658115 183.125137 
L 91.859679 183.126047 
L 91.061243 183.126919 
L 90.262807 183.12773 
L 89.464371 183.128455 
L 88.665934 183.129069 
L 87.867498 183.129547 
L 87.069062 183.129865 
L 86.270626 183.129998 
L 85.47219 183.13 
L 84.673753 183.13 
L 83.875317 183.13 
L 83.076881 183.13 
L 82.278445 183.13 
L 81.480009 183.13 
L 80.681572 183.13 
L 79.883136 183.13 
L 79.0847 183.13 
L 78.286264 183.13 
L 77.487827 183.13 
L 76.689391 183.13 
L 75.890955 183.13 
L 75.092519 183.13 
L 74.294083 183.13 
L 73.495646 183.13 
L 72.69721 183.13 
L 71.898774 183.13 
L 71.100338 183.13 
L 70.301902 183.13 
L 69.503465 183.13 
L 68.705029 183.13 
L 67.906593 183.13 
L 67.108157 183.13 
L 66.309721 183.13 
L 65.511284 183.13 
L 64.712848 183.13 
L 63.914412 183.13 
L 63.115976 183.13 
L 62.317539 183.13 
L 61.519103 183.129956 
L 60.720667 183.12982 
L 59.922231 183.129597 
L 59.123795 183.129294 
L 58.325358 183.128919 
L 57.526922 183.128477 
L 56.728486 183.127976 
L 55.93005 183.127421 
L 55.131614 183.12682 
L 54.333177 183.126179 
L 53.534741 183.125505 
L 52.736305 183.124805 
L 51.937869 183.124085 
L 51.139433 183.123351 
L 50.340996 183.122611 
z
" clip-path="url(#p425fb23d0e)" style="fill: url(#hd69db5d09d)"/>
   </g>
   <g id="FillBetweenPolyCollection_2">
    <path d="M 50.340996 182.99699 
L 50.340996 183.122611 
L 51.139433 183.123351 
L 51.937869 183.124085 
L 52.736305 183.124805 
L 53.534741 183.125505 
L 54.333177 183.126179 
L 55.131614 183.12682 
L 55.93005 183.127421 
L 56.728486 183.127976 
L 57.526922 183.128477 
L 58.325358 183.128919 
L 59.123795 183.129294 
L 59.922231 183.129597 
L 60.720667 183.12982 
L 61.519103 183.129956 
L 62.317539 183.13 
L 63.115976 183.13 
L 63.914412 183.13 
L 64.712848 183.13 
L 65.511284 183.13 
L 66.309721 183.13 
L 67.108157 183.13 
L 67.906593 183.13 
L 68.705029 183.13 
L 69.503465 183.13 
L 70.301902 183.13 
L 71.100338 183.13 
L 71.898774 183.13 
L 72.69721 183.13 
L 73.495646 183.13 
L 74.294083 183.13 
L 75.092519 183.13 
L 75.890955 183.13 
L 76.689391 183.13 
L 77.487827 183.13 
L 78.286264 183.13 
L 79.0847 183.13 
L 79.883136 183.13 
L 80.681572 183.13 
L 81.480009 183.13 
L 82.278445 183.13 
L 83.076881 183.13 
L 83.875317 183.13 
L 84.673753 183.13 
L 85.47219 183.13 
L 86.270626 183.129998 
L 87.069062 183.129865 
L 87.867498 183.129547 
L 88.665934 183.129069 
L 89.464371 183.128455 
L 90.262807 183.12773 
L 91.061243 183.126919 
L 91.859679 183.126047 
L 92.658115 183.125137 
L 93.456552 183.124216 
L 94.254988 183.123307 
L 95.053424 183.122436 
L 95.85186 183.121627 
L 96.650296 183.120905 
L 97.448733 183.120294 
L 98.247169 183.119817 
L 99.045605 183.119412 
L 99.844041 183.119038 
L 100.642478 183.118691 
L 101.440914 183.118367 
L 102.23935 183.118062 
L 103.037786 183.117771 
L 103.836222 183.11749 
L 104.634659 183.117216 
L 105.433095 183.116943 
L 106.231531 183.116667 
L 107.029967 183.116385 
L 107.828403 183.116091 
L 108.62684 183.115782 
L 109.425276 183.115454 
L 110.223712 183.1151 
L 111.022148 183.114692 
L 111.820584 183.114229 
L 112.619021 183.113723 
L 113.417457 183.113188 
L 114.215893 183.112635 
L 115.014329 183.112078 
L 115.812766 183.11153 
L 116.611202 183.111003 
L 117.409638 183.110509 
L 118.208074 183.110062 
L 119.00651 183.109675 
L 119.804947 183.109359 
L 120.603383 183.109128 
L 121.401819 183.108995 
L 122.200255 183.108978 
L 122.998691 183.109169 
L 123.797128 183.109571 
L 124.595564 183.110149 
L 125.394 183.110869 
L 126.192436 183.111697 
L 126.990872 183.112599 
L 127.789309 183.113541 
L 128.587745 183.114489 
L 129.386181 183.115409 
L 130.184617 183.116267 
L 130.983053 183.117029 
L 131.78149 183.11766 
L 132.579926 183.118127 
L 133.378362 183.118396 
L 134.176798 183.118445 
L 134.975235 183.118397 
L 135.773671 183.118296 
L 136.572107 183.118145 
L 137.370543 183.117948 
L 138.168979 183.117708 
L 138.967416 183.117427 
L 139.765852 183.11711 
L 140.564288 183.11676 
L 141.362724 183.11638 
L 142.16116 183.115973 
L 142.959597 183.115544 
L 143.758033 183.115094 
L 144.556469 183.114628 
L 145.354905 183.114148 
L 146.153341 183.113631 
L 146.951778 183.112843 
L 147.750214 183.111772 
L 148.54865 183.110469 
L 149.347086 183.108987 
L 150.145523 183.107378 
L 150.943959 183.105694 
L 151.742395 183.103986 
L 152.540831 183.102307 
L 153.339267 183.10071 
L 154.137704 183.099245 
L 154.93614 183.097965 
L 155.734576 183.096923 
L 156.533012 183.096169 
L 157.331448 183.095757 
L 158.129885 183.095763 
L 158.928321 183.096377 
L 159.726757 183.097557 
L 160.525193 183.099214 
L 161.323629 183.101263 
L 162.122066 183.103616 
L 162.920502 183.106187 
L 163.718938 183.108887 
L 164.517374 183.111632 
L 165.31581 183.114332 
L 166.114247 183.116902 
L 166.912683 183.119255 
L 167.711119 183.121303 
L 168.509555 183.122959 
L 169.307992 183.124137 
L 170.106428 183.124825 
L 170.904864 183.125422 
L 171.7033 183.125996 
L 172.501736 183.126545 
L 173.300173 183.127065 
L 174.098609 183.127553 
L 174.897045 183.128006 
L 175.695481 183.128421 
L 176.493917 183.128795 
L 177.292354 183.129124 
L 178.09079 183.129405 
L 178.889226 183.129636 
L 179.687662 183.129813 
L 180.486098 183.129934 
L 181.284535 183.129993 
L 182.082971 183.129953 
L 182.881407 183.129641 
L 183.679843 183.129076 
L 184.47828 183.1283 
L 185.276716 183.127355 
L 186.075152 183.126284 
L 186.873588 183.125131 
L 187.672024 183.123939 
L 188.470461 183.122749 
L 189.268897 183.121606 
L 190.067333 183.120552 
L 190.865769 183.119629 
L 191.664205 183.118881 
L 192.462642 183.118351 
L 193.261078 183.118082 
L 194.059514 183.118074 
L 194.85795 183.118176 
L 195.656386 183.118356 
L 196.454823 183.118602 
L 197.253259 183.118899 
L 198.051695 183.119235 
L 198.850131 183.119596 
L 199.648568 183.119969 
L 200.447004 183.12034 
L 201.24544 183.120696 
L 202.043876 183.121024 
L 202.842312 183.12131 
L 203.640749 183.12154 
L 204.439185 183.121702 
L 205.237621 183.121782 
L 206.036057 183.121733 
L 206.834493 183.121453 
L 207.63293 183.120966 
L 208.431366 183.120307 
L 209.229802 183.119513 
L 210.028238 183.118618 
L 210.826674 183.117659 
L 211.625111 183.11667 
L 212.423547 183.115688 
L 213.221983 183.114747 
L 214.020419 183.113883 
L 214.818855 183.113132 
L 215.617292 183.11253 
L 216.415728 183.112111 
L 217.214164 183.111911 
L 218.0126 183.111947 
L 218.811037 183.112167 
L 219.609473 183.112549 
L 220.407909 183.113071 
L 221.206345 183.113712 
L 222.004781 183.114451 
L 222.803218 183.115268 
L 223.601654 183.11614 
L 224.40009 183.117048 
L 225.198526 183.117969 
L 225.996962 183.118883 
L 226.795399 183.119769 
L 227.593835 183.120606 
L 228.392271 183.121373 
L 229.190707 183.122048 
L 229.989143 183.122659 
L 230.78758 183.123306 
L 231.586016 183.123982 
L 232.384452 183.124676 
L 233.182888 183.125375 
L 233.981325 183.126067 
L 234.779761 183.12674 
L 235.578197 183.127383 
L 236.376633 183.127982 
L 237.175069 183.128526 
L 237.973506 183.129003 
L 238.771942 183.129401 
L 239.570378 183.129707 
L 240.368814 183.12991 
L 241.16725 183.129997 
L 241.965687 183.129932 
L 242.764123 183.129672 
L 243.562559 183.129242 
L 244.360995 183.128669 
L 245.159431 183.127981 
L 245.957868 183.127205 
L 246.756304 183.126368 
L 247.55474 183.125498 
L 248.353176 183.124622 
L 249.151612 183.123766 
L 249.950049 183.122959 
L 250.748485 183.122227 
L 251.546921 183.121598 
L 252.345357 183.1211 
L 253.143794 183.120758 
L 253.94223 183.120538 
L 254.740666 183.120339 
L 255.539102 183.120158 
L 256.337538 183.119994 
L 257.135975 183.119843 
L 257.934411 183.119704 
L 258.732847 183.119575 
L 259.531283 183.119455 
L 260.329719 183.11934 
L 261.128156 183.11923 
L 261.926592 183.119121 
L 262.725028 183.119013 
L 263.523464 183.118903 
L 264.3219 183.11879 
L 265.120337 183.11867 
L 265.918773 183.118548 
L 266.717209 183.118431 
L 267.515645 183.118317 
L 268.314082 183.118207 
L 269.112518 183.118098 
L 269.910954 183.117992 
L 270.70939 183.117886 
L 271.507826 183.11778 
L 272.306263 183.117674 
L 273.104699 183.117567 
L 273.903135 183.117457 
L 274.701571 183.117345 
L 275.500007 183.11723 
L 276.298444 183.11711 
L 277.09688 183.116986 
L 277.895316 183.116857 
L 278.693752 183.116725 
L 279.492188 183.11659 
L 280.290625 183.116453 
L 281.089061 183.116313 
L 281.887497 183.11617 
L 282.685933 183.116025 
L 283.484369 183.115877 
L 284.282806 183.115727 
L 285.081242 183.115574 
L 285.879678 183.115419 
L 286.678114 183.115261 
L 287.476551 183.115102 
L 288.274987 183.11494 
L 289.073423 183.114776 
L 289.073423 179.704569 
L 289.073423 179.704569 
L 288.274987 179.694729 
L 287.476551 179.686223 
L 286.678114 179.678956 
L 285.879678 179.67283 
L 285.081242 179.667752 
L 284.282806 179.663623 
L 283.484369 179.66035 
L 282.685933 179.657836 
L 281.887497 179.655985 
L 281.089061 179.654701 
L 280.290625 179.653889 
L 279.492188 179.653452 
L 278.693752 179.653295 
L 277.895316 179.653323 
L 277.09688 179.653458 
L 276.298444 179.662258 
L 275.500007 179.685633 
L 274.701571 179.721871 
L 273.903135 179.769265 
L 273.104699 179.826105 
L 272.306263 179.890681 
L 271.507826 179.961284 
L 270.70939 180.036205 
L 269.910954 180.113734 
L 269.112518 180.192163 
L 268.314082 180.269781 
L 267.515645 180.34488 
L 266.717209 180.415751 
L 265.918773 180.480683 
L 265.120337 180.538041 
L 264.3219 180.59488 
L 263.523464 180.655868 
L 262.725028 180.719791 
L 261.926592 180.785436 
L 261.128156 180.851591 
L 260.329719 180.917042 
L 259.531283 180.980576 
L 258.732847 181.04098 
L 257.934411 181.097041 
L 257.135975 181.147546 
L 256.337538 181.191283 
L 255.539102 181.227037 
L 254.740666 181.253596 
L 253.94223 181.269746 
L 253.143794 181.274373 
L 252.345357 181.272063 
L 251.546921 181.266181 
L 250.748485 181.25716 
L 249.950049 181.245432 
L 249.151612 181.231431 
L 248.353176 181.215589 
L 247.55474 181.198339 
L 246.756304 181.180114 
L 245.957868 181.161347 
L 245.159431 181.142471 
L 244.360995 181.123919 
L 243.562559 181.106123 
L 242.764123 181.089516 
L 241.965687 181.074532 
L 241.16725 181.061533 
L 240.368814 181.048611 
L 239.570378 181.034918 
L 238.771942 181.020702 
L 237.973506 181.00621 
L 237.175069 180.991688 
L 236.376633 180.977384 
L 235.578197 180.963544 
L 234.779761 180.950416 
L 233.981325 180.938246 
L 233.182888 180.927282 
L 232.384452 180.917771 
L 231.586016 180.909958 
L 230.78758 180.904092 
L 229.989143 180.90042 
L 229.190707 180.899253 
L 228.392271 180.902085 
L 227.593835 180.909083 
L 226.795399 180.919762 
L 225.996962 180.933632 
L 225.198526 180.950205 
L 224.40009 180.968994 
L 223.601654 180.989511 
L 222.803218 181.011268 
L 222.004781 181.033777 
L 221.206345 181.056549 
L 220.407909 181.079098 
L 219.609473 181.100936 
L 218.811037 181.121573 
L 218.0126 181.140523 
L 217.214164 181.157402 
L 216.415728 181.173514 
L 215.617292 181.189423 
L 214.818855 181.205166 
L 214.020419 181.220781 
L 213.221983 181.236305 
L 212.423547 181.251778 
L 211.625111 181.267235 
L 210.826674 181.282716 
L 210.028238 181.298258 
L 209.229802 181.313899 
L 208.431366 181.329676 
L 207.63293 181.345628 
L 206.834493 181.361793 
L 206.036057 181.378207 
L 205.237621 181.395065 
L 204.439185 181.414082 
L 203.640749 181.435296 
L 202.842312 181.458164 
L 202.043876 181.482145 
L 201.24544 181.506698 
L 200.447004 181.531282 
L 199.648568 181.555355 
L 198.850131 181.578375 
L 198.051695 181.599801 
L 197.253259 181.619091 
L 196.454823 181.635705 
L 195.656386 181.6491 
L 194.85795 181.658736 
L 194.059514 181.66407 
L 193.261078 181.664953 
L 192.462642 181.664659 
L 191.664205 181.66408 
L 190.865769 181.663263 
L 190.067333 181.662256 
L 189.268897 181.661104 
L 188.470461 181.659855 
L 187.672024 181.658555 
L 186.873588 181.657252 
L 186.075152 181.655993 
L 185.276716 181.654823 
L 184.47828 181.653791 
L 183.679843 181.652943 
L 182.881407 181.652325 
L 182.082971 181.651985 
L 181.284535 181.652514 
L 180.486098 181.657682 
L 179.687662 181.667556 
L 178.889226 181.68135 
L 178.09079 181.698273 
L 177.292354 181.717539 
L 176.493917 181.73836 
L 175.695481 181.759947 
L 174.897045 181.781512 
L 174.098609 181.802268 
L 173.300173 181.821427 
L 172.501736 181.8382 
L 171.7033 181.8518 
L 170.904864 181.861438 
L 170.106428 181.866326 
L 169.307992 181.86531 
L 168.509555 181.856158 
L 167.711119 181.839654 
L 166.912683 181.817037 
L 166.114247 181.789543 
L 165.31581 181.75841 
L 164.517374 181.724874 
L 163.718938 181.690174 
L 162.920502 181.655545 
L 162.122066 181.622226 
L 161.323629 181.591454 
L 160.525193 181.564465 
L 159.726757 181.542497 
L 158.928321 181.526787 
L 158.129885 181.518572 
L 157.331448 181.52109 
L 156.533012 181.543744 
L 155.734576 181.58497 
L 154.93614 181.641717 
L 154.137704 181.710936 
L 153.339267 181.789577 
L 152.540831 181.874589 
L 151.742395 181.962924 
L 150.943959 182.051532 
L 150.145523 182.137362 
L 149.347086 182.217366 
L 148.54865 182.288493 
L 147.750214 182.347693 
L 146.951778 182.391918 
L 146.153341 182.418116 
L 145.354905 182.427155 
L 144.556469 182.433446 
L 143.758033 182.438787 
L 142.959597 182.443323 
L 142.16116 182.447196 
L 141.362724 182.450551 
L 140.564288 182.45353 
L 139.765852 182.456278 
L 138.967416 182.458938 
L 138.168979 182.461654 
L 137.370543 182.464569 
L 136.572107 182.467826 
L 135.773671 182.47157 
L 134.975235 182.475944 
L 134.176798 182.481091 
L 133.378362 182.487748 
L 132.579926 182.497769 
L 131.78149 182.510763 
L 130.983053 182.526151 
L 130.184617 182.543356 
L 129.386181 182.561799 
L 128.587745 182.580901 
L 127.789309 182.600086 
L 126.990872 182.618773 
L 126.192436 182.636386 
L 125.394 182.652346 
L 124.595564 182.666074 
L 123.797128 182.676993 
L 122.998691 182.684524 
L 122.200255 182.688089 
L 121.401819 182.688146 
L 120.603383 182.687439 
L 119.804947 182.686238 
L 119.00651 182.684633 
L 118.208074 182.682714 
L 117.409638 182.680569 
L 116.611202 182.67829 
L 115.812766 182.675965 
L 115.014329 182.673685 
L 114.215893 182.671538 
L 113.417457 182.669615 
L 112.619021 182.668005 
L 111.820584 182.666797 
L 111.022148 182.666082 
L 110.223712 182.665949 
L 109.425276 182.667094 
L 108.62684 182.67087 
L 107.828403 182.677006 
L 107.029967 182.685161 
L 106.231531 182.694995 
L 105.433095 182.706166 
L 104.634659 182.718333 
L 103.836222 182.731156 
L 103.037786 182.744291 
L 102.23935 182.7574 
L 101.440914 182.77014 
L 100.642478 182.78217 
L 99.844041 182.793149 
L 99.045605 182.802736 
L 98.247169 182.81059 
L 97.448733 182.817138 
L 96.650296 182.823769 
L 95.85186 182.830455 
L 95.053424 182.837123 
L 94.254988 182.843696 
L 93.456552 182.850102 
L 92.658115 182.856266 
L 91.859679 182.862114 
L 91.061243 182.86757 
L 90.262807 182.872562 
L 89.464371 182.877015 
L 88.665934 182.880853 
L 87.867498 182.884004 
L 87.069062 182.886393 
L 86.270626 182.887945 
L 85.47219 182.888867 
L 84.673753 182.889626 
L 83.875317 182.890256 
L 83.076881 182.890778 
L 82.278445 182.891217 
L 81.480009 182.891596 
L 80.681572 182.891938 
L 79.883136 182.892267 
L 79.0847 182.892606 
L 78.286264 182.892979 
L 77.487827 182.893408 
L 76.689391 182.893918 
L 75.890955 182.894531 
L 75.092519 182.895272 
L 74.294083 182.896163 
L 73.495646 182.897752 
L 72.69721 182.900701 
L 71.898774 182.904825 
L 71.100338 182.909934 
L 70.301902 182.915839 
L 69.503465 182.92235 
L 68.705029 182.929277 
L 67.906593 182.936429 
L 67.108157 182.943617 
L 66.309721 182.950652 
L 65.511284 182.957342 
L 64.712848 182.963499 
L 63.914412 182.968931 
L 63.115976 182.97345 
L 62.317539 182.976865 
L 61.519103 182.979553 
L 60.720667 182.982121 
L 59.922231 182.984554 
L 59.123795 182.986834 
L 58.325358 182.988945 
L 57.526922 182.99087 
L 56.728486 182.992591 
L 55.93005 182.994091 
L 55.131614 182.995354 
L 54.333177 182.996362 
L 53.534741 182.997099 
L 52.736305 182.997547 
L 51.937869 182.99769 
L 51.139433 182.99751 
L 50.340996 182.99699 
z
" clip-path="url(#p425fb23d0e)" style="fill: url(#hf2e5af400e)"/>
   </g>
   <g id="FillBetweenPolyCollection_3">
    <path d="M 50.340996 182.908317 
L 50.340996 182.99699 
L 51.139433 182.99751 
L 51.937869 182.99769 
L 52.736305 182.997547 
L 53.534741 182.997099 
L 54.333177 182.996362 
L 55.131614 182.995354 
L 55.93005 182.994091 
L 56.728486 182.992591 
L 57.526922 182.99087 
L 58.325358 182.988945 
L 59.123795 182.986834 
L 59.922231 182.984554 
L 60.720667 182.982121 
L 61.519103 182.979553 
L 62.317539 182.976865 
L 63.115976 182.97345 
L 63.914412 182.968931 
L 64.712848 182.963499 
L 65.511284 182.957342 
L 66.309721 182.950652 
L 67.108157 182.943617 
L 67.906593 182.936429 
L 68.705029 182.929277 
L 69.503465 182.92235 
L 70.301902 182.915839 
L 71.100338 182.909934 
L 71.898774 182.904825 
L 72.69721 182.900701 
L 73.495646 182.897752 
L 74.294083 182.896163 
L 75.092519 182.895272 
L 75.890955 182.894531 
L 76.689391 182.893918 
L 77.487827 182.893408 
L 78.286264 182.892979 
L 79.0847 182.892606 
L 79.883136 182.892267 
L 80.681572 182.891938 
L 81.480009 182.891596 
L 82.278445 182.891217 
L 83.076881 182.890778 
L 83.875317 182.890256 
L 84.673753 182.889626 
L 85.47219 182.888867 
L 86.270626 182.887945 
L 87.069062 182.886393 
L 87.867498 182.884004 
L 88.665934 182.880853 
L 89.464371 182.877015 
L 90.262807 182.872562 
L 91.061243 182.86757 
L 91.859679 182.862114 
L 92.658115 182.856266 
L 93.456552 182.850102 
L 94.254988 182.843696 
L 95.053424 182.837123 
L 95.85186 182.830455 
L 96.650296 182.823769 
L 97.448733 182.817138 
L 98.247169 182.81059 
L 99.045605 182.802736 
L 99.844041 182.793149 
L 100.642478 182.78217 
L 101.440914 182.77014 
L 102.23935 182.7574 
L 103.037786 182.744291 
L 103.836222 182.731156 
L 104.634659 182.718333 
L 105.433095 182.706166 
L 106.231531 182.694995 
L 107.029967 182.685161 
L 107.828403 182.677006 
L 108.62684 182.67087 
L 109.425276 182.667094 
L 110.223712 182.665949 
L 111.022148 182.666082 
L 111.820584 182.666797 
L 112.619021 182.668005 
L 113.417457 182.669615 
L 114.215893 182.671538 
L 115.014329 182.673685 
L 115.812766 182.675965 
L 116.611202 182.67829 
L 117.409638 182.680569 
L 118.208074 182.682714 
L 119.00651 182.684633 
L 119.804947 182.686238 
L 120.603383 182.687439 
L 121.401819 182.688146 
L 122.200255 182.688089 
L 122.998691 182.684524 
L 123.797128 182.676993 
L 124.595564 182.666074 
L 125.394 182.652346 
L 126.192436 182.636386 
L 126.990872 182.618773 
L 127.789309 182.600086 
L 128.587745 182.580901 
L 129.386181 182.561799 
L 130.184617 182.543356 
L 130.983053 182.526151 
L 131.78149 182.510763 
L 132.579926 182.497769 
L 133.378362 182.487748 
L 134.176798 182.481091 
L 134.975235 182.475944 
L 135.773671 182.47157 
L 136.572107 182.467826 
L 137.370543 182.464569 
L 138.168979 182.461654 
L 138.967416 182.458938 
L 139.765852 182.456278 
L 140.564288 182.45353 
L 141.362724 182.450551 
L 142.16116 182.447196 
L 142.959597 182.443323 
L 143.758033 182.438787 
L 144.556469 182.433446 
L 145.354905 182.427155 
L 146.153341 182.418116 
L 146.951778 182.391918 
L 147.750214 182.347693 
L 148.54865 182.288493 
L 149.347086 182.217366 
L 150.145523 182.137362 
L 150.943959 182.051532 
L 151.742395 181.962924 
L 152.540831 181.874589 
L 153.339267 181.789577 
L 154.137704 181.710936 
L 154.93614 181.641717 
L 155.734576 181.58497 
L 156.533012 181.543744 
L 157.331448 181.52109 
L 158.129885 181.518572 
L 158.928321 181.526787 
L 159.726757 181.542497 
L 160.525193 181.564465 
L 161.323629 181.591454 
L 162.122066 181.622226 
L 162.920502 181.655545 
L 163.718938 181.690174 
L 164.517374 181.724874 
L 165.31581 181.75841 
L 166.114247 181.789543 
L 166.912683 181.817037 
L 167.711119 181.839654 
L 168.509555 181.856158 
L 169.307992 181.86531 
L 170.106428 181.866326 
L 170.904864 181.861438 
L 171.7033 181.8518 
L 172.501736 181.8382 
L 173.300173 181.821427 
L 174.098609 181.802268 
L 174.897045 181.781512 
L 175.695481 181.759947 
L 176.493917 181.73836 
L 177.292354 181.717539 
L 178.09079 181.698273 
L 178.889226 181.68135 
L 179.687662 181.667556 
L 180.486098 181.657682 
L 181.284535 181.652514 
L 182.082971 181.651985 
L 182.881407 181.652325 
L 183.679843 181.652943 
L 184.47828 181.653791 
L 185.276716 181.654823 
L 186.075152 181.655993 
L 186.873588 181.657252 
L 187.672024 181.658555 
L 188.470461 181.659855 
L 189.268897 181.661104 
L 190.067333 181.662256 
L 190.865769 181.663263 
L 191.664205 181.66408 
L 192.462642 181.664659 
L 193.261078 181.664953 
L 194.059514 181.66407 
L 194.85795 181.658736 
L 195.656386 181.6491 
L 196.454823 181.635705 
L 197.253259 181.619091 
L 198.051695 181.599801 
L 198.850131 181.578375 
L 199.648568 181.555355 
L 200.447004 181.531282 
L 201.24544 181.506698 
L 202.043876 181.482145 
L 202.842312 181.458164 
L 203.640749 181.435296 
L 204.439185 181.414082 
L 205.237621 181.395065 
L 206.036057 181.378207 
L 206.834493 181.361793 
L 207.63293 181.345628 
L 208.431366 181.329676 
L 209.229802 181.313899 
L 210.028238 181.298258 
L 210.826674 181.282716 
L 211.625111 181.267235 
L 212.423547 181.251778 
L 213.221983 181.236305 
L 214.020419 181.220781 
L 214.818855 181.205166 
L 215.617292 181.189423 
L 216.415728 181.173514 
L 217.214164 181.157402 
L 218.0126 181.140523 
L 218.811037 181.121573 
L 219.609473 181.100936 
L 220.407909 181.079098 
L 221.206345 181.056549 
L 222.004781 181.033777 
L 222.803218 181.011268 
L 223.601654 180.989511 
L 224.40009 180.968994 
L 225.198526 180.950205 
L 225.996962 180.933632 
L 226.795399 180.919762 
L 227.593835 180.909083 
L 228.392271 180.902085 
L 229.190707 180.899253 
L 229.989143 180.90042 
L 230.78758 180.904092 
L 231.586016 180.909958 
L 232.384452 180.917771 
L 233.182888 180.927282 
L 233.981325 180.938246 
L 234.779761 180.950416 
L 235.578197 180.963544 
L 236.376633 180.977384 
L 237.175069 180.991688 
L 237.973506 181.00621 
L 238.771942 181.020702 
L 239.570378 181.034918 
L 240.368814 181.048611 
L 241.16725 181.061533 
L 241.965687 181.074532 
L 242.764123 181.089516 
L 243.562559 181.106123 
L 244.360995 181.123919 
L 245.159431 181.142471 
L 245.957868 181.161347 
L 246.756304 181.180114 
L 247.55474 181.198339 
L 248.353176 181.215589 
L 249.151612 181.231431 
L 249.950049 181.245432 
L 250.748485 181.25716 
L 251.546921 181.266181 
L 252.345357 181.272063 
L 253.143794 181.274373 
L 253.94223 181.269746 
L 254.740666 181.253596 
L 255.539102 181.227037 
L 256.337538 181.191283 
L 257.135975 181.147546 
L 257.934411 181.097041 
L 258.732847 181.04098 
L 259.531283 180.980576 
L 260.329719 180.917042 
L 261.128156 180.851591 
L 261.926592 180.785436 
L 262.725028 180.719791 
L 263.523464 180.655868 
L 264.3219 180.59488 
L 265.120337 180.538041 
L 265.918773 180.480683 
L 266.717209 180.415751 
L 267.515645 180.34488 
L 268.314082 180.269781 
L 269.112518 180.192163 
L 269.910954 180.113734 
L 270.70939 180.036205 
L 271.507826 179.961284 
L 272.306263 179.890681 
L 273.104699 179.826105 
L 273.903135 179.769265 
L 274.701571 179.721871 
L 275.500007 179.685633 
L 276.298444 179.662258 
L 277.09688 179.653458 
L 277.895316 179.653323 
L 278.693752 179.653295 
L 279.492188 179.653452 
L 280.290625 179.653889 
L 281.089061 179.654701 
L 281.887497 179.655985 
L 282.685933 179.657836 
L 283.484369 179.66035 
L 284.282806 179.663623 
L 285.081242 179.667752 
L 285.879678 179.67283 
L 286.678114 179.678956 
L 287.476551 179.686223 
L 288.274987 179.694729 
L 289.073423 179.704569 
L 289.073423 179.613224 
L 289.073423 179.613224 
L 288.274987 179.596295 
L 287.476551 179.580921 
L 286.678114 179.567045 
L 285.879678 179.554612 
L 285.081242 179.543567 
L 284.282806 179.533854 
L 283.484369 179.525417 
L 282.685933 179.518201 
L 281.887497 179.51215 
L 281.089061 179.507208 
L 280.290625 179.503319 
L 279.492188 179.500429 
L 278.693752 179.498481 
L 277.895316 179.497419 
L 277.09688 179.497208 
L 276.298444 179.506212 
L 275.500007 179.530131 
L 274.701571 179.567214 
L 273.903135 179.615712 
L 273.104699 179.673874 
L 272.306263 179.739949 
L 271.507826 179.812189 
L 270.70939 179.888842 
L 269.910954 179.968159 
L 269.112518 180.048389 
L 268.314082 180.127781 
L 267.515645 180.204587 
L 266.717209 180.277055 
L 265.918773 180.343435 
L 265.120337 180.402052 
L 264.3219 180.460119 
L 263.523464 180.52241 
L 262.725028 180.587688 
L 261.926592 180.654716 
L 261.128156 180.722256 
L 260.329719 180.789072 
L 259.531283 180.853926 
L 258.732847 180.91558 
L 257.934411 180.972799 
L 257.135975 181.024343 
L 256.337538 181.068977 
L 255.539102 181.105463 
L 254.740666 181.132563 
L 253.94223 181.14904 
L 253.143794 181.15374 
L 252.345357 181.150425 
L 251.546921 181.142141 
L 250.748485 181.129514 
L 249.950049 181.113173 
L 249.151612 181.093745 
L 248.353176 181.071857 
L 247.55474 181.048137 
L 246.756304 181.023212 
L 245.957868 180.99771 
L 245.159431 180.972258 
L 244.360995 180.947485 
L 243.562559 180.924016 
L 242.764123 180.902481 
L 241.965687 180.883506 
L 241.16725 180.867628 
L 240.368814 180.852388 
L 239.570378 180.836599 
L 238.771942 180.820477 
L 237.973506 180.804241 
L 237.175069 180.788108 
L 236.376633 180.772296 
L 235.578197 180.757021 
L 234.779761 180.742502 
L 233.981325 180.728956 
L 233.182888 180.716601 
L 232.384452 180.705654 
L 231.586016 180.696333 
L 230.78758 180.688855 
L 229.989143 180.683438 
L 229.190707 180.68036 
L 228.392271 180.681008 
L 227.593835 180.685558 
L 226.795399 180.693579 
L 225.996962 180.704641 
L 225.198526 180.718313 
L 224.40009 180.734163 
L 223.601654 180.75176 
L 222.803218 180.770674 
L 222.004781 180.790473 
L 221.206345 180.810727 
L 220.407909 180.831005 
L 219.609473 180.850875 
L 218.811037 180.869906 
L 218.0126 180.887668 
L 217.214164 180.903812 
L 216.415728 180.91933 
L 215.617292 180.93467 
L 214.818855 180.949872 
L 214.020419 180.964977 
L 213.221983 180.980025 
L 212.423547 180.995056 
L 211.625111 181.010111 
L 210.826674 181.02523 
L 210.028238 181.040452 
L 209.229802 181.055819 
L 208.431366 181.071371 
L 207.63293 181.087148 
L 206.834493 181.10319 
L 206.036057 181.119537 
L 205.237621 181.136417 
L 204.439185 181.155884 
L 203.640749 181.178038 
L 202.842312 181.202289 
L 202.043876 181.22805 
L 201.24544 181.254732 
L 200.447004 181.281747 
L 199.648568 181.308507 
L 198.850131 181.334424 
L 198.051695 181.35891 
L 197.253259 181.381376 
L 196.454823 181.401234 
L 195.656386 181.417897 
L 194.85795 181.430776 
L 194.059514 181.439283 
L 193.261078 181.4433 
L 192.462642 181.446763 
L 191.664205 181.450605 
L 190.865769 181.454731 
L 190.067333 181.459045 
L 189.268897 181.463451 
L 188.470461 181.467852 
L 187.672024 181.472153 
L 186.873588 181.476258 
L 186.075152 181.48007 
L 185.276716 181.483494 
L 184.47828 181.486434 
L 183.679843 181.488793 
L 182.881407 181.490476 
L 182.082971 181.491386 
L 181.284535 181.491939 
L 180.486098 181.495647 
L 179.687662 181.502729 
L 178.889226 181.512619 
L 178.09079 181.524749 
L 177.292354 181.538553 
L 176.493917 181.553465 
L 175.695481 181.568916 
L 174.897045 181.58434 
L 174.098609 181.59917 
L 173.300173 181.612839 
L 172.501736 181.62478 
L 171.7033 181.634427 
L 170.904864 181.641212 
L 170.106428 181.644568 
L 169.307992 181.643463 
L 168.509555 181.635184 
L 167.711119 181.620337 
L 166.912683 181.600064 
L 166.114247 181.575507 
L 165.31581 181.547807 
L 164.517374 181.518108 
L 163.718938 181.48755 
L 162.920502 181.457276 
L 162.122066 181.428429 
L 161.323629 181.40215 
L 160.525193 181.37958 
L 159.726757 181.361864 
L 158.928321 181.350141 
L 158.129885 181.345555 
L 157.331448 181.351378 
L 156.533012 181.377576 
L 155.734576 181.422591 
L 154.93614 181.483296 
L 154.137704 181.556564 
L 153.339267 181.639266 
L 152.540831 181.728276 
L 151.742395 181.820466 
L 150.943959 181.912708 
L 150.145523 182.001876 
L 149.347086 182.084841 
L 148.54865 182.158476 
L 147.750214 182.219653 
L 146.951778 182.265246 
L 146.153341 182.292125 
L 145.354905 182.300923 
L 144.556469 182.305454 
L 143.758033 182.307671 
L 142.959597 182.30795 
L 142.16116 182.306667 
L 141.362724 182.304197 
L 140.564288 182.300916 
L 139.765852 182.297201 
L 138.967416 182.293427 
L 138.168979 182.28997 
L 137.370543 182.287205 
L 136.572107 182.285509 
L 135.773671 182.285258 
L 134.975235 182.286827 
L 134.176798 182.290592 
L 133.378362 182.29718 
L 132.579926 182.307387 
L 131.78149 182.320704 
L 130.983053 182.33653 
L 130.184617 182.354262 
L 129.386181 182.373298 
L 128.587745 182.393037 
L 127.789309 182.412878 
L 126.990872 182.432218 
L 126.192436 182.450455 
L 125.394 182.466988 
L 124.595564 182.481214 
L 123.797128 182.492533 
L 122.998691 182.500342 
L 122.200255 182.504039 
L 121.401819 182.504042 
L 120.603383 182.503044 
L 119.804947 182.501341 
L 119.00651 182.49905 
L 118.208074 182.496288 
L 117.409638 182.493174 
L 116.611202 182.489824 
L 115.812766 182.486358 
L 115.014329 182.482892 
L 114.215893 182.479545 
L 113.417457 182.476433 
L 112.619021 182.473675 
L 111.820584 182.471389 
L 111.022148 182.469692 
L 110.223712 182.468701 
L 109.425276 182.46908 
L 108.62684 182.472049 
L 107.828403 182.477347 
L 107.029967 182.484647 
L 106.231531 182.493622 
L 105.433095 182.503945 
L 104.634659 182.51529 
L 103.836222 182.527329 
L 103.037786 182.539735 
L 102.23935 182.552183 
L 101.440914 182.564344 
L 100.642478 182.575892 
L 99.844041 182.5865 
L 99.045605 182.595842 
L 98.247169 182.60359 
L 97.448733 182.610903 
L 96.650296 182.620475 
L 95.85186 182.631992 
L 95.053424 182.645047 
L 94.254988 182.659232 
L 93.456552 182.674141 
L 92.658115 182.689366 
L 91.859679 182.7045 
L 91.061243 182.719136 
L 90.262807 182.732866 
L 89.464371 182.745284 
L 88.665934 182.755982 
L 87.867498 182.764553 
L 87.069062 182.77059 
L 86.270626 182.773686 
L 85.47219 182.774645 
L 84.673753 182.775413 
L 83.875317 182.776048 
L 83.076881 182.776576 
L 82.278445 182.777019 
L 81.480009 182.777401 
L 80.681572 182.777746 
L 79.883136 182.778078 
L 79.0847 182.778419 
L 78.286264 182.778795 
L 77.487827 182.779228 
L 76.689391 182.779743 
L 75.890955 182.780362 
L 75.092519 182.78111 
L 74.294083 182.78201 
L 73.495646 182.783837 
L 72.69721 182.787534 
L 71.898774 182.792844 
L 71.100338 182.799504 
L 70.301902 182.807247 
L 69.503465 182.815808 
L 68.705029 182.824922 
L 67.906593 182.834323 
L 67.108157 182.843746 
L 66.309721 182.852925 
L 65.511284 182.861596 
L 64.712848 182.869492 
L 63.914412 182.876348 
L 63.115976 182.881899 
L 62.317539 182.88588 
L 61.519103 182.888842 
L 60.720667 182.89167 
L 59.922231 182.894348 
L 59.123795 182.896858 
L 58.325358 182.899183 
L 57.526922 182.901304 
L 56.728486 182.903204 
L 55.93005 182.904866 
L 55.131614 182.906271 
L 54.333177 182.907401 
L 53.534741 182.90824 
L 52.736305 182.908768 
L 51.937869 182.908969 
L 51.139433 182.908825 
L 50.340996 182.908317 
z
" clip-path="url(#p425fb23d0e)" style="fill: url(#h65d061abeb)"/>
   </g>
   <g id="FillBetweenPolyCollection_4">
    <path d="M 50.340996 174.754084 
L 50.340996 182.908317 
L 51.139433 182.908825 
L 51.937869 182.908969 
L 52.736305 182.908768 
L 53.534741 182.90824 
L 54.333177 182.907401 
L 55.131614 182.906271 
L 55.93005 182.904866 
L 56.728486 182.903204 
L 57.526922 182.901304 
L 58.325358 182.899183 
L 59.123795 182.896858 
L 59.922231 182.894348 
L 60.720667 182.89167 
L 61.519103 182.888842 
L 62.317539 182.88588 
L 63.115976 182.881899 
L 63.914412 182.876348 
L 64.712848 182.869492 
L 65.511284 182.861596 
L 66.309721 182.852925 
L 67.108157 182.843746 
L 67.906593 182.834323 
L 68.705029 182.824922 
L 69.503465 182.815808 
L 70.301902 182.807247 
L 71.100338 182.799504 
L 71.898774 182.792844 
L 72.69721 182.787534 
L 73.495646 182.783837 
L 74.294083 182.78201 
L 75.092519 182.78111 
L 75.890955 182.780362 
L 76.689391 182.779743 
L 77.487827 182.779228 
L 78.286264 182.778795 
L 79.0847 182.778419 
L 79.883136 182.778078 
L 80.681572 182.777746 
L 81.480009 182.777401 
L 82.278445 182.777019 
L 83.076881 182.776576 
L 83.875317 182.776048 
L 84.673753 182.775413 
L 85.47219 182.774645 
L 86.270626 182.773686 
L 87.069062 182.77059 
L 87.867498 182.764553 
L 88.665934 182.755982 
L 89.464371 182.745284 
L 90.262807 182.732866 
L 91.061243 182.719136 
L 91.859679 182.7045 
L 92.658115 182.689366 
L 93.456552 182.674141 
L 94.254988 182.659232 
L 95.053424 182.645047 
L 95.85186 182.631992 
L 96.650296 182.620475 
L 97.448733 182.610903 
L 98.247169 182.60359 
L 99.045605 182.595842 
L 99.844041 182.5865 
L 100.642478 182.575892 
L 101.440914 182.564344 
L 102.23935 182.552183 
L 103.037786 182.539735 
L 103.836222 182.527329 
L 104.634659 182.51529 
L 105.433095 182.503945 
L 106.231531 182.493622 
L 107.029967 182.484647 
L 107.828403 182.477347 
L 108.62684 182.472049 
L 109.425276 182.46908 
L 110.223712 182.468701 
L 111.022148 182.469692 
L 111.820584 182.471389 
L 112.619021 182.473675 
L 113.417457 182.476433 
L 114.215893 182.479545 
L 115.014329 182.482892 
L 115.812766 182.486358 
L 116.611202 182.489824 
L 117.409638 182.493174 
L 118.208074 182.496288 
L 119.00651 182.49905 
L 119.804947 182.501341 
L 120.603383 182.503044 
L 121.401819 182.504042 
L 122.200255 182.504039 
L 122.998691 182.500342 
L 123.797128 182.492533 
L 124.595564 182.481214 
L 125.394 182.466988 
L 126.192436 182.450455 
L 126.990872 182.432218 
L 127.789309 182.412878 
L 128.587745 182.393037 
L 129.386181 182.373298 
L 130.184617 182.354262 
L 130.983053 182.33653 
L 131.78149 182.320704 
L 132.579926 182.307387 
L 133.378362 182.29718 
L 134.176798 182.290592 
L 134.975235 182.286827 
L 135.773671 182.285258 
L 136.572107 182.285509 
L 137.370543 182.287205 
L 138.168979 182.28997 
L 138.967416 182.293427 
L 139.765852 182.297201 
L 140.564288 182.300916 
L 141.362724 182.304197 
L 142.16116 182.306667 
L 142.959597 182.30795 
L 143.758033 182.307671 
L 144.556469 182.305454 
L 145.354905 182.300923 
L 146.153341 182.292125 
L 146.951778 182.265246 
L 147.750214 182.219653 
L 148.54865 182.158476 
L 149.347086 182.084841 
L 150.145523 182.001876 
L 150.943959 181.912708 
L 151.742395 181.820466 
L 152.540831 181.728276 
L 153.339267 181.639266 
L 154.137704 181.556564 
L 154.93614 181.483296 
L 155.734576 181.422591 
L 156.533012 181.377576 
L 157.331448 181.351378 
L 158.129885 181.345555 
L 158.928321 181.350141 
L 159.726757 181.361864 
L 160.525193 181.37958 
L 161.323629 181.40215 
L 162.122066 181.428429 
L 162.920502 181.457276 
L 163.718938 181.48755 
L 164.517374 181.518108 
L 165.31581 181.547807 
L 166.114247 181.575507 
L 166.912683 181.600064 
L 167.711119 181.620337 
L 168.509555 181.635184 
L 169.307992 181.643463 
L 170.106428 181.644568 
L 170.904864 181.641212 
L 171.7033 181.634427 
L 172.501736 181.62478 
L 173.300173 181.612839 
L 174.098609 181.59917 
L 174.897045 181.58434 
L 175.695481 181.568916 
L 176.493917 181.553465 
L 177.292354 181.538553 
L 178.09079 181.524749 
L 178.889226 181.512619 
L 179.687662 181.502729 
L 180.486098 181.495647 
L 181.284535 181.491939 
L 182.082971 181.491386 
L 182.881407 181.490476 
L 183.679843 181.488793 
L 184.47828 181.486434 
L 185.276716 181.483494 
L 186.075152 181.48007 
L 186.873588 181.476258 
L 187.672024 181.472153 
L 188.470461 181.467852 
L 189.268897 181.463451 
L 190.067333 181.459045 
L 190.865769 181.454731 
L 191.664205 181.450605 
L 192.462642 181.446763 
L 193.261078 181.4433 
L 194.059514 181.439283 
L 194.85795 181.430776 
L 195.656386 181.417897 
L 196.454823 181.401234 
L 197.253259 181.381376 
L 198.051695 181.35891 
L 198.850131 181.334424 
L 199.648568 181.308507 
L 200.447004 181.281747 
L 201.24544 181.254732 
L 202.043876 181.22805 
L 202.842312 181.202289 
L 203.640749 181.178038 
L 204.439185 181.155884 
L 205.237621 181.136417 
L 206.036057 181.119537 
L 206.834493 181.10319 
L 207.63293 181.087148 
L 208.431366 181.071371 
L 209.229802 181.055819 
L 210.028238 181.040452 
L 210.826674 181.02523 
L 211.625111 181.010111 
L 212.423547 180.995056 
L 213.221983 180.980025 
L 214.020419 180.964977 
L 214.818855 180.949872 
L 215.617292 180.93467 
L 216.415728 180.91933 
L 217.214164 180.903812 
L 218.0126 180.887668 
L 218.811037 180.869906 
L 219.609473 180.850875 
L 220.407909 180.831005 
L 221.206345 180.810727 
L 222.004781 180.790473 
L 222.803218 180.770674 
L 223.601654 180.75176 
L 224.40009 180.734163 
L 225.198526 180.718313 
L 225.996962 180.704641 
L 226.795399 180.693579 
L 227.593835 180.685558 
L 228.392271 180.681008 
L 229.190707 180.68036 
L 229.989143 180.683438 
L 230.78758 180.688855 
L 231.586016 180.696333 
L 232.384452 180.705654 
L 233.182888 180.716601 
L 233.981325 180.728956 
L 234.779761 180.742502 
L 235.578197 180.757021 
L 236.376633 180.772296 
L 237.175069 180.788108 
L 237.973506 180.804241 
L 238.771942 180.820477 
L 239.570378 180.836599 
L 240.368814 180.852388 
L 241.16725 180.867628 
L 241.965687 180.883506 
L 242.764123 180.902481 
L 243.562559 180.924016 
L 244.360995 180.947485 
L 245.159431 180.972258 
L 245.957868 180.99771 
L 246.756304 181.023212 
L 247.55474 181.048137 
L 248.353176 181.071857 
L 249.151612 181.093745 
L 249.950049 181.113173 
L 250.748485 181.129514 
L 251.546921 181.142141 
L 252.345357 181.150425 
L 253.143794 181.15374 
L 253.94223 181.14904 
L 254.740666 181.132563 
L 255.539102 181.105463 
L 256.337538 181.068977 
L 257.135975 181.024343 
L 257.934411 180.972799 
L 258.732847 180.91558 
L 259.531283 180.853926 
L 260.329719 180.789072 
L 261.128156 180.722256 
L 261.926592 180.654716 
L 262.725028 180.587688 
L 263.523464 180.52241 
L 264.3219 180.460119 
L 265.120337 180.402052 
L 265.918773 180.343435 
L 266.717209 180.277055 
L 267.515645 180.204587 
L 268.314082 180.127781 
L 269.112518 180.048389 
L 269.910954 179.968159 
L 270.70939 179.888842 
L 271.507826 179.812189 
L 272.306263 179.739949 
L 273.104699 179.673874 
L 273.903135 179.615712 
L 274.701571 179.567214 
L 275.500007 179.530131 
L 276.298444 179.506212 
L 277.09688 179.497208 
L 277.895316 179.497419 
L 278.693752 179.498481 
L 279.492188 179.500429 
L 280.290625 179.503319 
L 281.089061 179.507208 
L 281.887497 179.51215 
L 282.685933 179.518201 
L 283.484369 179.525417 
L 284.282806 179.533854 
L 285.081242 179.543567 
L 285.879678 179.554612 
L 286.678114 179.567045 
L 287.476551 179.580921 
L 288.274987 179.596295 
L 289.073423 179.613224 
L 289.073423 102.609539 
L 289.073423 102.609539 
L 288.274987 102.372851 
L 287.476551 102.153413 
L 286.678114 101.951097 
L 285.879678 101.765775 
L 285.081242 101.597319 
L 284.282806 101.4456 
L 283.484369 101.31049 
L 282.685933 101.191862 
L 281.887497 101.089586 
L 281.089061 101.003536 
L 280.290625 100.933582 
L 279.492188 100.879596 
L 278.693752 100.841451 
L 277.895316 100.819018 
L 277.09688 100.812227 
L 276.298444 100.844933 
L 275.500007 100.931524 
L 274.701571 101.064351 
L 273.903135 101.235765 
L 273.104699 101.438117 
L 272.306263 101.663758 
L 271.507826 101.905038 
L 270.70939 102.15431 
L 269.910954 102.403923 
L 269.112518 102.646229 
L 268.314082 102.873578 
L 267.515645 103.078322 
L 266.717209 103.252811 
L 265.918773 103.389397 
L 265.120337 103.480717 
L 264.3219 103.554274 
L 263.523464 103.631185 
L 262.725028 103.710181 
L 261.926592 103.789993 
L 261.128156 103.869353 
L 260.329719 103.946992 
L 259.531283 104.021643 
L 258.732847 104.092035 
L 257.934411 104.156902 
L 257.135975 104.214974 
L 256.337538 104.264983 
L 255.539102 104.30566 
L 254.740666 104.335736 
L 253.94223 104.353944 
L 253.143794 104.358143 
L 252.345357 104.301197 
L 251.546921 104.165034 
L 250.748485 103.961135 
L 249.950049 103.700982 
L 249.151612 103.396057 
L 248.353176 103.057844 
L 247.55474 102.697825 
L 246.756304 102.327481 
L 245.957868 101.958296 
L 245.159431 101.601751 
L 244.360995 101.269329 
L 243.562559 100.972513 
L 242.764123 100.722785 
L 241.965687 100.531627 
L 241.16725 100.408949 
L 240.368814 100.311734 
L 239.570378 100.21665 
L 238.771942 100.124378 
L 237.973506 100.0356 
L 237.175069 99.950998 
L 236.376633 99.871251 
L 235.578197 99.797043 
L 234.779761 99.729055 
L 233.981325 99.667967 
L 233.182888 99.614463 
L 232.384452 99.569222 
L 231.586016 99.532926 
L 230.78758 99.506258 
L 229.989143 99.489898 
L 229.190707 99.488023 
L 228.392271 99.573707 
L 227.593835 99.763488 
L 226.795399 100.040837 
L 225.996962 100.38923 
L 225.198526 100.79214 
L 224.40009 101.233041 
L 223.601654 101.695405 
L 222.803218 102.162708 
L 222.004781 102.618422 
L 221.206345 103.046022 
L 220.407909 103.428981 
L 219.609473 103.750772 
L 218.811037 103.99487 
L 218.0126 104.144747 
L 217.214164 104.188621 
L 216.415728 104.190153 
L 215.617292 104.176134 
L 214.818855 104.149094 
L 214.020419 104.111564 
L 213.221983 104.066072 
L 212.423547 104.015149 
L 211.625111 103.961325 
L 210.826674 103.907128 
L 210.028238 103.85509 
L 209.229802 103.807739 
L 208.431366 103.767606 
L 207.63293 103.73722 
L 206.834493 103.719111 
L 206.036057 103.715808 
L 205.237621 103.731001 
L 204.439185 103.779286 
L 203.640749 103.862004 
L 202.842312 103.976105 
L 202.043876 104.11854 
L 201.24544 104.286257 
L 200.447004 104.476208 
L 199.648568 104.685342 
L 198.850131 104.91061 
L 198.051695 105.148963 
L 197.253259 105.39735 
L 196.454823 105.652721 
L 195.656386 105.912028 
L 194.85795 106.172219 
L 194.059514 106.430246 
L 193.261078 106.690514 
L 192.462642 107.016088 
L 191.664205 107.4125 
L 190.865769 107.867982 
L 190.067333 108.370765 
L 189.268897 108.909082 
L 188.470461 109.471166 
L 187.672024 110.045248 
L 186.873588 110.619561 
L 186.075152 111.182336 
L 185.276716 111.721807 
L 184.47828 112.226206 
L 183.679843 112.683764 
L 182.881407 113.082714 
L 182.082971 113.411289 
L 181.284535 113.664025 
L 180.486098 113.881208 
L 179.687662 114.075398 
L 178.889226 114.250527 
L 178.09079 114.410528 
L 177.292354 114.559333 
L 176.493917 114.700874 
L 175.695481 114.839085 
L 174.897045 114.977897 
L 174.098609 115.121243 
L 173.300173 115.273056 
L 172.501736 115.437268 
L 171.7033 115.617812 
L 170.904864 115.818619 
L 170.106428 116.043623 
L 169.307992 116.29937 
L 168.509555 116.602927 
L 167.711119 116.954329 
L 166.912683 117.350714 
L 166.114247 117.78922 
L 165.31581 118.266985 
L 164.517374 118.781147 
L 163.718938 119.328845 
L 162.920502 119.907217 
L 162.122066 120.513399 
L 161.323629 121.144531 
L 160.525193 121.797751 
L 159.726757 122.470197 
L 158.928321 123.159006 
L 158.129885 123.861316 
L 157.331448 124.593589 
L 156.533012 125.441891 
L 155.734576 126.40047 
L 154.93614 127.450083 
L 154.137704 128.571489 
L 153.339267 129.745444 
L 152.540831 130.952708 
L 151.742395 132.174039 
L 150.943959 133.390194 
L 150.145523 134.581932 
L 149.347086 135.730011 
L 148.54865 136.81519 
L 147.750214 137.818225 
L 146.951778 138.719876 
L 146.153341 139.5009 
L 145.354905 140.161192 
L 144.556469 140.770366 
L 143.758033 141.340924 
L 142.959597 141.877498 
L 142.16116 142.384722 
L 141.362724 142.867228 
L 140.564288 143.329649 
L 139.765852 143.776619 
L 138.967416 144.21277 
L 138.168979 144.642735 
L 137.370543 145.071147 
L 136.572107 145.502639 
L 135.773671 145.941844 
L 134.975235 146.393394 
L 134.176798 146.861924 
L 133.378362 147.356093 
L 132.579926 147.888223 
L 131.78149 148.450766 
L 130.983053 149.034729 
L 130.184617 149.631116 
L 129.386181 150.230935 
L 128.587745 150.825192 
L 127.789309 151.404893 
L 126.990872 151.961043 
L 126.192436 152.48465 
L 125.394 152.966719 
L 124.595564 153.398256 
L 123.797128 153.770268 
L 122.998691 154.073761 
L 122.200255 154.29974 
L 121.401819 154.455598 
L 120.603383 154.585741 
L 119.804947 154.696289 
L 119.00651 154.790538 
L 118.208074 154.871781 
L 117.409638 154.943314 
L 116.611202 155.00843 
L 115.812766 155.070426 
L 115.014329 155.132595 
L 114.215893 155.198232 
L 113.417457 155.270632 
L 112.619021 155.353089 
L 111.820584 155.448898 
L 111.022148 155.561354 
L 110.223712 155.693752 
L 109.425276 155.859447 
L 108.62684 156.081255 
L 107.828403 156.353756 
L 107.029967 156.670305 
L 106.231531 157.024261 
L 105.433095 157.408978 
L 104.634659 157.817815 
L 103.836222 158.244128 
L 103.037786 158.681274 
L 102.23935 159.12261 
L 101.440914 159.561492 
L 100.642478 159.991277 
L 99.844041 160.405323 
L 99.045605 160.796985 
L 98.247169 161.159621 
L 97.448733 161.506242 
L 96.650296 161.871462 
L 95.85186 162.251188 
L 95.053424 162.64011 
L 94.254988 163.032915 
L 93.456552 163.424292 
L 92.658115 163.80893 
L 91.859679 164.181516 
L 91.061243 164.53674 
L 90.262807 164.86929 
L 89.464371 165.173855 
L 88.665934 165.445122 
L 87.867498 165.677781 
L 87.069062 165.866519 
L 86.270626 166.006026 
L 85.47219 166.106143 
L 84.673753 166.19204 
L 83.875317 166.266137 
L 83.076881 166.330412 
L 82.278445 166.386842 
L 81.480009 166.437403 
L 80.681572 166.484073 
L 79.883136 166.528827 
L 79.0847 166.573644 
L 78.286264 166.620501 
L 77.487827 166.671373 
L 76.689391 166.728238 
L 75.890955 166.793073 
L 75.092519 166.867854 
L 74.294083 166.954559 
L 73.495646 167.057387 
L 72.69721 167.179489 
L 71.898774 167.319451 
L 71.100338 167.475826 
L 70.301902 167.647165 
L 69.503465 167.832022 
L 68.705029 168.028948 
L 67.906593 168.236496 
L 67.108157 168.453218 
L 66.309721 168.677667 
L 65.511284 168.908394 
L 64.712848 169.143952 
L 63.914412 169.382894 
L 63.115976 169.623772 
L 62.317539 169.865138 
L 61.519103 170.112426 
L 60.720667 170.373132 
L 59.922231 170.646769 
L 59.123795 170.932827 
L 58.325358 171.2308 
L 57.526922 171.540179 
L 56.728486 171.860457 
L 55.93005 172.191125 
L 55.131614 172.531676 
L 54.333177 172.881602 
L 53.534741 173.240395 
L 52.736305 173.607548 
L 51.937869 173.982552 
L 51.139433 174.3649 
L 50.340996 174.754084 
z
" clip-path="url(#p425fb23d0e)" style="fill: url(#hd9d0429c2e)"/>
   </g>
   <g id="patch_3">
    <path d="M 38.404375 183.13 
L 38.404375 9.45 
" style="fill: none; stroke: #000000; stroke-width: 0.5; stroke-linejoin: miter; stroke-linecap: square"/>
   </g>
   <g id="patch_4">
    <path d="M 38.404375 183.13 
L 301.010044 183.13 
" style="fill: none; stroke: #000000; stroke-width: 0.5; stroke-linejoin: miter; stroke-linecap: square"/>
   </g>
   <g id="legend_1">
    <g id="patch_5">
     <path d="M 47.404375 25.95 
L 67.404375 25.95 
L 67.404375 18.95 
L 47.404375 18.95 
z
" style="fill: url(#hd69db5d09d)"/>
    </g>
    <g id="text_17">
     <!-- Solo -->
     <g transform="translate(75.404375 25.95) scale(0.1 -0.1)">
      <defs>
       <path id="RobotoCondensed-Regular-53" d="M 2481 1150 
Q 2481 1469 2312 1656 
Q 2144 1844 1591 2042 
Q 1038 2241 713 2547 
Q 388 2853 388 3375 
Q 388 3906 741 4259 
Q 1094 4613 1691 4613 
Q 2356 4613 2706 4191 
Q 3056 3769 3056 3238 
L 2481 3238 
Q 2481 3619 2293 3869 
Q 2106 4119 1691 4119 
Q 1313 4119 1139 3908 
Q 966 3697 966 3381 
Q 966 3094 1170 2903 
Q 1375 2713 1806 2556 
Q 2475 2338 2765 2013 
Q 3056 1688 3056 1156 
Q 3056 600 2695 268 
Q 2334 -63 1719 -63 
Q 1363 -63 1028 93 
Q 694 250 480 558 
Q 266 866 266 1319 
L 841 1319 
Q 841 853 1098 640 
Q 1356 428 1719 428 
Q 2094 428 2287 623 
Q 2481 819 2481 1150 
z
" transform="scale(0.015625)"/>
       <path id="RobotoCondensed-Regular-6c" d="M 1009 4800 
L 1009 0 
L 459 0 
L 459 4800 
L 1009 4800 
z
" transform="scale(0.015625)"/>
      </defs>
      <use xlink:href="#RobotoCondensed-Regular-53"/>
      <use xlink:href="#RobotoCondensed-Regular-6f" transform="translate(51.855469 0)"/>
      <use xlink:href="#RobotoCondensed-Regular-6c" transform="translate(102.050781 0)"/>
      <use xlink:href="#RobotoCondensed-Regular-6f" transform="translate(125 0)"/>
     </g>
    </g>
    <g id="patch_6">
     <path d="M 47.404375 40.48125 
L 67.404375 40.48125 
L 67.404375 33.48125 
L 47.404375 33.48125 
z
" style="fill: url(#hf2e5af400e)"/>
    </g>
    <g id="text_18">
     <!-- Initial -->
     <g transform="translate(75.404375 40.48125) scale(0.1 -0.1)">
      <defs>
       <path id="RobotoCondensed-Regular-49" d="M 1091 4550 
L 1091 0 
L 516 0 
L 516 4550 
L 1091 4550 
z
" transform="scale(0.015625)"/>
      </defs>
      <use xlink:href="#RobotoCondensed-Regular-49"/>
      <use xlink:href="#RobotoCondensed-Regular-6e" transform="translate(25 0)"/>
      <use xlink:href="#RobotoCondensed-Regular-69" transform="translate(73.4375 0)"/>
      <use xlink:href="#RobotoCondensed-Regular-74" transform="translate(96.386719 0)"/>
      <use xlink:href="#RobotoCondensed-Regular-69" transform="translate(125.976562 0)"/>
      <use xlink:href="#RobotoCondensed-Regular-61" transform="translate(148.925781 0)"/>
      <use xlink:href="#RobotoCondensed-Regular-6c" transform="translate(196.826172 0)"/>
     </g>
    </g>
    <g id="patch_7">
     <path d="M 47.404375 55.0125 
L 67.404375 55.0125 
L 67.404375 48.0125 
L 47.404375 48.0125 
z
" style="fill: url(#h65d061abeb)"/>
    </g>
    <g id="text_19">
     <!-- Middle -->
     <g transform="translate(75.404375 55.0125) scale(0.1 -0.1)">
      <defs>
       <path id="RobotoCondensed-Regular-4d" d="M 2419 841 
L 3606 4550 
L 4341 4550 
L 4341 0 
L 3769 0 
L 3769 1775 
L 3822 3538 
L 2634 0 
L 2197 0 
L 1009 3544 
L 1063 1775 
L 1063 0 
L 491 0 
L 491 4550 
L 1228 4550 
L 2419 841 
z
" transform="scale(0.015625)"/>
       <path id="RobotoCondensed-Regular-64" d="M 2234 0 
L 2209 366 
Q 1941 -63 1425 -63 
Q 925 -63 611 331 
Q 297 725 297 1528 
L 297 1844 
Q 297 2678 609 3061 
Q 922 3444 1431 3444 
Q 1922 3444 2188 3050 
L 2188 4800 
L 2738 4800 
L 2738 0 
L 2234 0 
z
M 850 1528 
Q 850 963 1019 695 
Q 1188 428 1569 428 
Q 1981 428 2188 847 
L 2188 2544 
Q 1972 2956 1575 2956 
Q 1194 2956 1023 2687 
Q 853 2419 850 1866 
L 850 1528 
z
" transform="scale(0.015625)"/>
      </defs>
      <use xlink:href="#RobotoCondensed-Regular-4d"/>
      <use xlink:href="#RobotoCondensed-Regular-69" transform="translate(75.537109 0)"/>
      <use xlink:href="#RobotoCondensed-Regular-64" transform="translate(98.486328 0)"/>
      <use xlink:href="#RobotoCondensed-Regular-64" transform="translate(148.095703 0)"/>
      <use xlink:href="#RobotoCondensed-Regular-6c" transform="translate(197.705078 0)"/>
      <use xlink:href="#RobotoCondensed-Regular-65" transform="translate(220.654297 0)"/>
     </g>
    </g>
    <g id="patch_8">
     <path d="M 47.404375 69.54375 
L 67.404375 69.54375 
L 67.404375 62.54375 
L 47.404375 62.54375 
z
" style="fill: url(#hd9d0429c2e)"/>
    </g>
    <g id="text_20">
     <!-- End -->
     <g transform="translate(75.404375 69.54375) scale(0.1 -0.1)">
      <defs>
       <path id="RobotoCondensed-Regular-45" d="M 491 0 
L 491 4550 
L 2906 4550 
L 2906 4056 
L 1066 4056 
L 1066 2594 
L 2672 2594 
L 2672 2103 
L 1066 2103 
L 1066 491 
L 2938 491 
L 2938 0 
L 491 0 
z
" transform="scale(0.015625)"/>
      </defs>
      <use xlink:href="#RobotoCondensed-Regular-45"/>
      <use xlink:href="#RobotoCondensed-Regular-6e" transform="translate(49.707031 0)"/>
      <use xlink:href="#RobotoCondensed-Regular-64" transform="translate(98.144531 0)"/>
     </g>
    </g>
   </g>
  </g>
 </g>
 <defs>
  <clipPath id="p425fb23d0e">
   <rect x="38.404375" y="9.45" width="262.605669" height="173.68"/>
  </clipPath>
 </defs>
 <defs>
  <pattern id="hd69db5d09d" patternUnits="userSpaceOnUse" x="0" y="0" width="72" height="72">
   <rect x="0" y="0" width="73" height="73" fill="#e6e6e6"/>
   <path d="M -36 36 
L 36 -36 
M -33 39 
L 39 -33 
M -30 42 
L 42 -30 
M -27 45 
L 45 -27 
M -24 48 
L 48 -24 
M -21 51 
L 51 -21 
M -18 54 
L 54 -18 
M -15 57 
L 57 -15 
M -12 60 
L 60 -12 
M -9 63 
L 63 -9 
M -6 66 
L 66 -6 
M -3 69 
L 69 -3 
M 0 72 
L 72 0 
M 3 75 
L 75 3 
M 6 78 
L 78 6 
M 9 81 
L 81 9 
M 12 84 
L 84 12 
M 15 87 
L 87 15 
M 18 90 
L 90 18 
M 21 93 
L 93 21 
M 24 96 
L 96 24 
M 27 99 
L 99 27 
M 30 102 
L 102 30 
M 33 105 
L 105 33 
M 36 108 
L 108 36 
" style="fill: #000000; stroke: #000000; stroke-width: 1.5; stroke-linecap: butt; stroke-linejoin: miter"/>
  </pattern>
  <pattern id="hf2e5af400e" patternUnits="userSpaceOnUse" x="0" y="0" width="72" height="72">
   <rect x="0" y="0" width="73" height="73" fill="#adadad"/>
   <path d="M -36 36 
L 36 108 
M -30 30 
L 42 102 
M -24 24 
L 48 96 
M -18 18 
L 54 90 
M -12 12 
L 60 84 
M -6 6 
L 66 78 
M 0 0 
L 72 72 
M 6 -6 
L 78 66 
M 12 -12 
L 84 60 
M 18 -18 
L 90 54 
M 24 -24 
L 96 48 
M 30 -30 
L 102 42 
M 36 -36 
L 108 36 
" style="fill: #000000; stroke: #000000; stroke-width: 1.5; stroke-linecap: butt; stroke-linejoin: miter"/>
  </pattern>
  <pattern id="h65d061abeb" patternUnits="userSpaceOnUse" x="0" y="0" width="72" height="72">
   <rect x="0" y="0" width="73" height="73" fill="#737373"/>
   <path d="M -36 36 
L 36 -36 
M -33 39 
L 39 -33 
M -30 42 
L 42 -30 
M -27 45 
L 45 -27 
M -24 48 
L 48 -24 
M -21 51 
L 51 -21 
M -18 54 
L 54 -18 
M -15 57 
L 57 -15 
M -12 60 
L 60 -12 
M -9 63 
L 63 -9 
M -6 66 
L 66 -6 
M -3 69 
L 69 -3 
M 0 72 
L 72 0 
M 3 75 
L 75 3 
M 6 78 
L 78 6 
M 9 81 
L 81 9 
M 12 84 
L 84 12 
M 15 87 
L 87 15 
M 18 90 
L 90 18 
M 21 93 
L 93 21 
M 24 96 
L 96 24 
M 27 99 
L 99 27 
M 30 102 
L 102 30 
M 33 105 
L 105 33 
M 36 108 
L 108 36 
M -36 36 
L 36 108 
M -33 33 
L 39 105 
M -30 30 
L 42 102 
M -27 27 
L 45 99 
M -24 24 
L 48 96 
M -21 21 
L 51 93 
M -18 18 
L 54 90 
M -15 15 
L 57 87 
M -12 12 
L 60 84 
M -9 9 
L 63 81 
M -6 6 
L 66 78 
M -3 3 
L 69 75 
M 0 0 
L 72 72 
M 3 -3 
L 75 69 
M 6 -6 
L 78 66 
M 9 -9 
L 81 63 
M 12 -12 
L 84 60 
M 15 -15 
L 87 57 
M 18 -18 
L 90 54 
M 21 -21 
L 93 51 
M 24 -24 
L 96 48 
M 27 -27 
L 99 45 
M 30 -30 
L 102 42 
M 33 -33 
L 105 39 
M 36 -36 
L 108 36 
" style="fill: #000000; stroke: #000000; stroke-width: 1.5; stroke-linecap: butt; stroke-linejoin: miter"/>
  </pattern>
  <pattern id="hd9d0429c2e" patternUnits="userSpaceOnUse" x="0" y="0" width="72" height="72">
   <rect x="0" y="0" width="73" height="73" fill="#383838"/>
   <path d="M 0 70.5 
L 72 70.5 
M 0 67.5 
L 72 67.5 
M 0 64.5 
L 72 64.5 
M 0 61.5 
L 72 61.5 
M 0 58.5 
L 72 58.5 
M 0 55.5 
L 72 55.5 
M 0 52.5 
L 72 52.5 
M 0 49.5 
L 72 49.5 
M 0 46.5 
L 72 46.5 
M 0 43.5 
L 72 43.5 
M 0 40.5 
L 72 40.5 
M 0 37.5 
L 72 37.5 
M 0 34.5 
L 72 34.5 
M 0 31.5 
L 72 31.5 
M 0 28.5 
L 72 28.5 
M 0 25.5 
L 72 25.5 
M 0 22.5 
L 72 22.5 
M 0 19.5 
L 72 19.5 
M 0 16.5 
L 72 16.5 
M 0 13.5 
L 72 13.5 
M 0 10.5 
L 72 10.5 
M 0 7.5 
L 72 7.5 
M 0 4.5 
L 72 4.5 
M 0 1.5 
L 72 1.5 
" style="fill: #000000; stroke: #000000; stroke-width: 1.5; stroke-linecap: butt; stroke-linejoin: miter"/>
  </pattern>
 </defs>
</svg>
