<?xml version="1.0" encoding="utf-8" standalone="no"?>
<!DOCTYPE svg PUBLIC "-//W3C//DTD SVG 1.1//EN"
  "http://www.w3.org/Graphics/SVG/1.1/DTD/svg11.dtd">
<svg xmlns:xlink="http://www.w3.org/1999/xlink" width="711.879375pt" height="424.024687pt" viewBox="0 0 711.879375 424.024687" xmlns="http://www.w3.org/2000/svg" version="1.1">
 <metadata>
  <rdf:RDF xmlns:dc="http://purl.org/dc/elements/1.1/" xmlns:cc="http://creativecommons.org/ns#" xmlns:rdf="http://www.w3.org/1999/02/22-rdf-syntax-ns#">
   <cc:Work>
    <dc:type rdf:resource="http://purl.org/dc/dcmitype/StillImage"/>
    <dc:date>2026-04-11T21:39:34.513989</dc:date>
    <dc:format>image/svg+xml</dc:format>
    <dc:creator>
     <cc:Agent>
      <dc:title>Matplotlib v3.10.7, https://matplotlib.org/</dc:title>
     </cc:Agent>
    </dc:creator>
   </cc:Work>
  </rdf:RDF>
 </metadata>
 <defs>
  <style type="text/css">*{stroke-linejoin: round; stroke-linecap: butt}</style>
 </defs>
 <g id="figure_1">
  <g id="patch_1">
   <path d="M 0 424.024687 
L 711.879375 424.024687 
L 711.879375 0 
L 0 0 
z
" style="fill: #ffffff"/>
  </g>
  <g id="axes_1">
   <g id="patch_2">
    <path d="M 49.784375 384.299687 
L 693.579375 384.299687 
L 693.579375 11.179688 
L 49.784375 11.179688 
z
" style="fill: #ffffff"/>
   </g>
   <g id="matplotlib.axis_1">
    <g id="xtick_1">
     <g id="text_1">
      <!-- 2004 -->
      <g transform="translate(67.947784 399.259062) scale(0.1 -0.1)">
       <defs>
        <path id="NotoSansCJKjp-Regular-32" d="M 282 0 
L 3232 0 
L 3232 506 
L 1933 506 
C 1696 506 1408 480 1165 461 
C 2266 1504 3002 2458 3002 3392 
C 3002 4230 2477 4781 1638 4781 
C 1043 4781 640 4506 256 4090 
L 595 3757 
C 851 4064 1184 4301 1568 4301 
C 2150 4301 2432 3910 2432 3373 
C 2432 2566 1754 1632 282 346 
L 282 0 
z
" transform="scale(0.015625)"/>
        <path id="NotoSansCJKjp-Regular-30" d="M 1779 -83 
C 2669 -83 3238 730 3238 2362 
C 3238 3987 2669 4781 1779 4781 
C 883 4781 314 3994 314 2362 
C 314 730 883 -83 1779 -83 
z
M 1779 384 
C 1242 384 883 979 883 2362 
C 883 3731 1242 4314 1779 4314 
C 2310 4314 2669 3731 2669 2362 
C 2669 979 2310 384 1779 384 
z
" transform="scale(0.015625)"/>
        <path id="NotoSansCJKjp-Regular-34" d="M 736 1760 
L 1805 3360 
C 1939 3590 2067 3821 2182 4051 
L 2208 4051 
C 2195 3808 2176 3430 2176 3200 
L 2176 1760 
L 736 1760 
z
M 2176 0 
L 2726 0 
L 2726 1293 
L 3347 1293 
L 3347 1760 
L 2726 1760 
L 2726 4698 
L 2080 4698 
L 128 1677 
L 128 1293 
L 2176 1293 
L 2176 0 
z
" transform="scale(0.015625)"/>
       </defs>
       <use xlink:href="#NotoSansCJKjp-Regular-32"/>
       <use xlink:href="#NotoSansCJKjp-Regular-30" transform="translate(55.499985 0)"/>
       <use xlink:href="#NotoSansCJKjp-Regular-30" transform="translate(110.999969 0)"/>
       <use xlink:href="#NotoSansCJKjp-Regular-34" transform="translate(166.499954 0)"/>
      </g>
     </g>
    </g>
    <g id="xtick_2">
     <g id="text_2">
      <!-- 2007 -->
      <g transform="translate(155.738011 399.259062) scale(0.1 -0.1)">
       <defs>
        <path id="NotoSansCJKjp-Regular-37" d="M 1267 0 
L 1875 0 
C 1946 1837 2150 2931 3251 4339 
L 3251 4698 
L 314 4698 
L 314 4192 
L 2586 4192 
C 1670 2912 1344 1779 1267 0 
z
" transform="scale(0.015625)"/>
       </defs>
       <use xlink:href="#NotoSansCJKjp-Regular-32"/>
       <use xlink:href="#NotoSansCJKjp-Regular-30" transform="translate(55.499985 0)"/>
       <use xlink:href="#NotoSansCJKjp-Regular-30" transform="translate(110.999969 0)"/>
       <use xlink:href="#NotoSansCJKjp-Regular-37" transform="translate(166.499954 0)"/>
      </g>
     </g>
    </g>
    <g id="xtick_3">
     <g id="text_3">
      <!-- 2010 -->
      <g transform="translate(243.528239 399.259062) scale(0.1 -0.1)">
       <defs>
        <path id="NotoSansCJKjp-Regular-31" d="M 563 0 
L 3136 0 
L 3136 486 
L 2195 486 
L 2195 4698 
L 1747 4698 
C 1491 4544 1190 4435 774 4358 
L 774 3987 
L 1606 3987 
L 1606 486 
L 563 486 
L 563 0 
z
" transform="scale(0.015625)"/>
       </defs>
       <use xlink:href="#NotoSansCJKjp-Regular-32"/>
       <use xlink:href="#NotoSansCJKjp-Regular-30" transform="translate(55.499985 0)"/>
       <use xlink:href="#NotoSansCJKjp-Regular-31" transform="translate(110.999969 0)"/>
       <use xlink:href="#NotoSansCJKjp-Regular-30" transform="translate(166.499954 0)"/>
      </g>
     </g>
    </g>
    <g id="xtick_4">
     <g id="text_4">
      <!-- 2013 -->
      <g transform="translate(331.318466 399.259062) scale(0.1 -0.1)">
       <defs>
        <path id="NotoSansCJKjp-Regular-33" d="M 1690 -83 
C 2522 -83 3194 416 3194 1254 
C 3194 1894 2752 2317 2202 2445 
L 2202 2470 
C 2694 2656 3034 3034 3034 3603 
C 3034 4346 2458 4781 1670 4781 
C 1126 4781 710 4544 358 4218 
L 672 3846 
C 934 4115 1267 4301 1645 4301 
C 2131 4301 2438 4006 2438 3558 
C 2438 3053 2106 2662 1139 2662 
L 1139 2214 
C 2221 2214 2598 1837 2598 1280 
C 2598 736 2202 403 1645 403 
C 1114 403 755 653 480 941 
L 186 557 
C 493 224 954 -83 1690 -83 
z
" transform="scale(0.015625)"/>
       </defs>
       <use xlink:href="#NotoSansCJKjp-Regular-32"/>
       <use xlink:href="#NotoSansCJKjp-Regular-30" transform="translate(55.499985 0)"/>
       <use xlink:href="#NotoSansCJKjp-Regular-31" transform="translate(110.999969 0)"/>
       <use xlink:href="#NotoSansCJKjp-Regular-33" transform="translate(166.499954 0)"/>
      </g>
     </g>
    </g>
    <g id="xtick_5">
     <g id="text_5">
      <!-- 2016 -->
      <g transform="translate(419.108693 399.259062) scale(0.1 -0.1)">
       <defs>
        <path id="NotoSansCJKjp-Regular-36" d="M 1875 2477 
C 2445 2477 2726 2074 2726 1440 
C 2726 800 2374 371 1926 371 
C 1338 371 986 902 915 1875 
C 1203 2304 1581 2477 1875 2477 
z
M 1926 -83 
C 2656 -83 3270 531 3270 1440 
C 3270 2419 2765 2912 1971 2912 
C 1600 2912 1190 2694 902 2342 
C 928 3802 1472 4294 2112 4294 
C 2400 4294 2682 4160 2867 3936 
L 3187 4301 
C 2931 4576 2579 4781 2093 4781 
C 1184 4781 358 4077 358 2240 
C 358 691 1024 -83 1926 -83 
z
" transform="scale(0.015625)"/>
       </defs>
       <use xlink:href="#NotoSansCJKjp-Regular-32"/>
       <use xlink:href="#NotoSansCJKjp-Regular-30" transform="translate(55.499985 0)"/>
       <use xlink:href="#NotoSansCJKjp-Regular-31" transform="translate(110.999969 0)"/>
       <use xlink:href="#NotoSansCJKjp-Regular-36" transform="translate(166.499954 0)"/>
      </g>
     </g>
    </g>
    <g id="xtick_6">
     <g id="text_6">
      <!-- 2019 -->
      <g transform="translate(506.89892 399.259062) scale(0.1 -0.1)">
       <defs>
        <path id="NotoSansCJKjp-Regular-39" d="M 832 3258 
C 832 3898 1178 4320 1626 4320 
C 2227 4320 2586 3808 2650 2842 
C 2349 2400 1990 2214 1670 2214 
C 1114 2214 832 2624 832 3258 
z
M 1498 -83 
C 2381 -83 3200 646 3200 2547 
C 3200 4038 2528 4781 1626 4781 
C 896 4781 282 4166 282 3258 
C 282 2285 794 1779 1574 1779 
C 1965 1779 2368 2003 2656 2355 
C 2611 902 2086 403 1478 403 
C 1178 403 890 538 698 762 
L 371 397 
C 634 122 992 -83 1498 -83 
z
" transform="scale(0.015625)"/>
       </defs>
       <use xlink:href="#NotoSansCJKjp-Regular-32"/>
       <use xlink:href="#NotoSansCJKjp-Regular-30" transform="translate(55.499985 0)"/>
       <use xlink:href="#NotoSansCJKjp-Regular-31" transform="translate(110.999969 0)"/>
       <use xlink:href="#NotoSansCJKjp-Regular-39" transform="translate(166.499954 0)"/>
      </g>
     </g>
    </g>
    <g id="xtick_7">
     <g id="text_7">
      <!-- 2022 -->
      <g transform="translate(594.689148 399.259062) scale(0.1 -0.1)">
       <use xlink:href="#NotoSansCJKjp-Regular-32"/>
       <use xlink:href="#NotoSansCJKjp-Regular-30" transform="translate(55.499985 0)"/>
       <use xlink:href="#NotoSansCJKjp-Regular-32" transform="translate(110.999969 0)"/>
       <use xlink:href="#NotoSansCJKjp-Regular-32" transform="translate(166.499954 0)"/>
      </g>
     </g>
    </g>
    <g id="xtick_8">
     <g id="text_8">
      <!-- 2025 -->
      <g transform="translate(682.479375 399.259062) scale(0.1 -0.1)">
       <defs>
        <path id="NotoSansCJKjp-Regular-35" d="M 1670 -83 
C 2464 -83 3206 499 3206 1530 
C 3206 2560 2573 3021 1792 3021 
C 1510 3021 1306 2950 1094 2835 
L 1210 4192 
L 2982 4192 
L 2982 4698 
L 698 4698 
L 550 2496 
L 864 2304 
C 1133 2483 1331 2579 1645 2579 
C 2234 2579 2618 2182 2618 1510 
C 2618 826 2170 403 1619 403 
C 1075 403 736 653 467 922 
L 179 538 
C 493 224 941 -83 1670 -83 
z
" transform="scale(0.015625)"/>
       </defs>
       <use xlink:href="#NotoSansCJKjp-Regular-32"/>
       <use xlink:href="#NotoSansCJKjp-Regular-30" transform="translate(55.499985 0)"/>
       <use xlink:href="#NotoSansCJKjp-Regular-32" transform="translate(110.999969 0)"/>
       <use xlink:href="#NotoSansCJKjp-Regular-35" transform="translate(166.499954 0)"/>
      </g>
     </g>
    </g>
    <g id="text_9">
     <!-- Year -->
     <g transform="translate(360.478203 414.305) scale(0.11 -0.11)">
      <defs>
       <path id="NotoSansCJKjp-Regular-59" d="M 1402 0 
L 1997 0 
L 1997 1824 
L 3405 4698 
L 2790 4698 
L 2182 3366 
C 2042 3021 1882 2694 1715 2342 
L 1690 2342 
C 1523 2694 1382 3021 1229 3366 
L 627 4698 
L -6 4698 
L 1402 1824 
L 1402 0 
z
" transform="scale(0.015625)"/>
       <path id="NotoSansCJKjp-Regular-65" d="M 1990 -83 
C 2464 -83 2835 77 3142 275 
L 2931 659 
C 2675 486 2400 384 2061 384 
C 1402 384 947 858 909 1600 
L 3251 1600 
C 3264 1683 3277 1805 3277 1933 
C 3277 2925 2778 3565 1894 3565 
C 1088 3565 326 2861 326 1734 
C 326 589 1069 -83 1990 -83 
z
M 902 2022 
C 973 2701 1408 3098 1901 3098 
C 2445 3098 2765 2720 2765 2022 
L 902 2022 
z
" transform="scale(0.015625)"/>
       <path id="NotoSansCJKjp-Regular-61" d="M 1389 -83 
C 1818 -83 2208 141 2541 416 
L 2560 416 
L 2611 0 
L 3091 0 
L 3091 2138 
C 3091 2995 2733 3565 1888 3565 
C 1331 3565 838 3315 518 3110 
L 749 2707 
C 1024 2893 1389 3078 1792 3078 
C 2362 3078 2509 2650 2509 2202 
C 1030 2035 371 1658 371 902 
C 371 275 806 -83 1389 -83 
z
M 1555 384 
C 1210 384 941 544 941 941 
C 941 1389 1338 1677 2509 1818 
L 2509 845 
C 2170 544 1894 384 1555 384 
z
" transform="scale(0.015625)"/>
       <path id="NotoSansCJKjp-Regular-72" d="M 589 0 
L 1171 0 
L 1171 2234 
C 1402 2829 1760 3034 2048 3034 
C 2189 3034 2272 3021 2387 2976 
L 2496 3488 
C 2387 3546 2278 3565 2125 3565 
C 1734 3565 1382 3283 1139 2842 
L 1120 2842 
L 1069 3475 
L 589 3475 
L 589 0 
z
" transform="scale(0.015625)"/>
      </defs>
      <use xlink:href="#NotoSansCJKjp-Regular-59"/>
      <use xlink:href="#NotoSansCJKjp-Regular-65" transform="translate(53.099991 0)"/>
      <use xlink:href="#NotoSansCJKjp-Regular-61" transform="translate(108.499985 0)"/>
      <use xlink:href="#NotoSansCJKjp-Regular-72" transform="translate(164.899979 0)"/>
     </g>
    </g>
   </g>
   <g id="matplotlib.axis_2">
    <g id="ytick_1">
     <g id="line2d_1">
      <path d="M 49.784375 384.299687 
L 693.579375 384.299687 
" clip-path="url(#pb2e59a195b)" style="fill: none; stroke: #808080; stroke-opacity: 0.3; stroke-width: 0.5; stroke-linecap: round"/>
     </g>
     <g id="text_10">
      <!-- 0% -->
      <g transform="translate(28.025 388.279375) scale(0.1 -0.1)">
       <defs>
        <path id="NotoSansCJKjp-Regular-25" d="M 1312 1818 
C 1958 1818 2381 2362 2381 3309 
C 2381 4250 1958 4781 1312 4781 
C 672 4781 250 4250 250 3309 
C 250 2362 672 1818 1312 1818 
z
M 1312 2182 
C 947 2182 691 2560 691 3309 
C 691 4058 947 4422 1312 4422 
C 1683 4422 1939 4058 1939 3309 
C 1939 2560 1683 2182 1312 2182 
z
M 1453 -83 
L 1843 -83 
L 4435 4781 
L 4038 4781 
L 1453 -83 
z
M 4582 -83 
C 5222 -83 5645 454 5645 1402 
C 5645 2342 5222 2874 4582 2874 
C 3942 2874 3514 2342 3514 1402 
C 3514 454 3942 -83 4582 -83 
z
M 4582 275 
C 4211 275 3962 653 3962 1402 
C 3962 2150 4211 2515 4582 2515 
C 4947 2515 5203 2150 5203 1402 
C 5203 653 4947 275 4582 275 
z
" transform="scale(0.015625)"/>
       </defs>
       <use xlink:href="#NotoSansCJKjp-Regular-30"/>
       <use xlink:href="#NotoSansCJKjp-Regular-25" transform="translate(55.499985 0)"/>
      </g>
     </g>
    </g>
    <g id="ytick_2">
     <g id="line2d_2">
      <path d="M 49.784375 309.675687 
L 693.579375 309.675687 
" clip-path="url(#pb2e59a195b)" style="fill: none; stroke: #808080; stroke-opacity: 0.3; stroke-width: 0.5; stroke-linecap: round"/>
     </g>
     <g id="text_11">
      <!-- 2% -->
      <g transform="translate(28.025 313.655375) scale(0.1 -0.1)">
       <use xlink:href="#NotoSansCJKjp-Regular-32"/>
       <use xlink:href="#NotoSansCJKjp-Regular-25" transform="translate(55.499985 0)"/>
      </g>
     </g>
    </g>
    <g id="ytick_3">
     <g id="line2d_3">
      <path d="M 49.784375 235.051687 
L 693.579375 235.051687 
" clip-path="url(#pb2e59a195b)" style="fill: none; stroke: #808080; stroke-opacity: 0.3; stroke-width: 0.5; stroke-linecap: round"/>
     </g>
     <g id="text_12">
      <!-- 4% -->
      <g transform="translate(28.025 239.031375) scale(0.1 -0.1)">
       <use xlink:href="#NotoSansCJKjp-Regular-34"/>
       <use xlink:href="#NotoSansCJKjp-Regular-25" transform="translate(55.499985 0)"/>
      </g>
     </g>
    </g>
    <g id="ytick_4">
     <g id="line2d_4">
      <path d="M 49.784375 160.427687 
L 693.579375 160.427687 
" clip-path="url(#pb2e59a195b)" style="fill: none; stroke: #808080; stroke-opacity: 0.3; stroke-width: 0.5; stroke-linecap: round"/>
     </g>
     <g id="text_13">
      <!-- 6% -->
      <g transform="translate(28.025 164.407375) scale(0.1 -0.1)">
       <use xlink:href="#NotoSansCJKjp-Regular-36"/>
       <use xlink:href="#NotoSansCJKjp-Regular-25" transform="translate(55.499985 0)"/>
      </g>
     </g>
    </g>
    <g id="ytick_5">
     <g id="line2d_5">
      <path d="M 49.784375 85.803687 
L 693.579375 85.803687 
" clip-path="url(#pb2e59a195b)" style="fill: none; stroke: #808080; stroke-opacity: 0.3; stroke-width: 0.5; stroke-linecap: round"/>
     </g>
     <g id="text_14">
      <!-- 8% -->
      <g transform="translate(28.025 89.783375) scale(0.1 -0.1)">
       <defs>
        <path id="NotoSansCJKjp-Regular-38" d="M 1786 -83 
C 2669 -83 3258 448 3258 1133 
C 3258 1773 2874 2125 2464 2362 
L 2464 2394 
C 2746 2611 3091 3034 3091 3526 
C 3091 4250 2605 4762 1805 4762 
C 1075 4762 518 4288 518 3571 
C 518 3078 806 2726 1152 2490 
L 1152 2458 
C 723 2227 288 1792 288 1165 
C 288 442 922 -83 1786 -83 
z
M 2106 2547 
C 1555 2765 1050 3008 1050 3571 
C 1050 4026 1363 4333 1798 4333 
C 2304 4333 2592 3955 2592 3494 
C 2592 3149 2426 2829 2106 2547 
z
M 1798 352 
C 1235 352 819 717 819 1216 
C 819 1664 1082 2035 1459 2278 
C 2125 2010 2701 1773 2701 1146 
C 2701 678 2336 352 1798 352 
z
" transform="scale(0.015625)"/>
       </defs>
       <use xlink:href="#NotoSansCJKjp-Regular-38"/>
       <use xlink:href="#NotoSansCJKjp-Regular-25" transform="translate(55.499985 0)"/>
      </g>
     </g>
    </g>
    <g id="ytick_6">
     <g id="line2d_6">
      <path d="M 49.784375 11.179688 
L 693.579375 11.179688 
" clip-path="url(#pb2e59a195b)" style="fill: none; stroke: #808080; stroke-opacity: 0.3; stroke-width: 0.5; stroke-linecap: round"/>
     </g>
     <g id="text_15">
      <!-- 10% -->
      <g transform="translate(22.475 15.159375) scale(0.1 -0.1)">
       <use xlink:href="#NotoSansCJKjp-Regular-31"/>
       <use xlink:href="#NotoSansCJKjp-Regular-30" transform="translate(55.499985 0)"/>
       <use xlink:href="#NotoSansCJKjp-Regular-25" transform="translate(110.999969 0)"/>
      </g>
     </g>
    </g>
    <g id="text_16">
     <!-- Proportion -->
     <g transform="translate(15.955312 225.837812) rotate(-90) scale(0.11 -0.11)">
      <defs>
       <path id="NotoSansCJKjp-Regular-50" d="M 640 0 
L 1235 0 
L 1235 1862 
L 2010 1862 
C 3040 1862 3738 2323 3738 3315 
C 3738 4339 3034 4698 1984 4698 
L 640 4698 
L 640 0 
z
M 1235 2342 
L 1235 4211 
L 1907 4211 
C 2733 4211 3149 3994 3149 3315 
C 3149 2643 2758 2342 1933 2342 
L 1235 2342 
z
" transform="scale(0.015625)"/>
       <path id="NotoSansCJKjp-Regular-6f" d="M 1939 -83 
C 2790 -83 3552 582 3552 1734 
C 3552 2893 2790 3565 1939 3565 
C 1088 3565 326 2893 326 1734 
C 326 582 1088 -83 1939 -83 
z
M 1939 403 
C 1338 403 934 934 934 1734 
C 934 2534 1338 3078 1939 3078 
C 2541 3078 2950 2534 2950 1734 
C 2950 934 2541 403 1939 403 
z
" transform="scale(0.015625)"/>
       <path id="NotoSansCJKjp-Regular-70" d="M 589 -1466 
L 1171 -1466 
L 1171 -288 
L 1158 320 
C 1472 64 1805 -83 2118 -83 
C 2918 -83 3629 602 3629 1792 
C 3629 2861 3142 3565 2246 3565 
C 1843 3565 1453 3334 1139 3078 
L 1120 3078 
L 1069 3475 
L 589 3475 
L 589 -1466 
z
M 2022 403 
C 1792 403 1485 499 1171 768 
L 1171 2592 
C 1510 2906 1811 3072 2106 3072 
C 2765 3072 3021 2554 3021 1786 
C 3021 922 2598 403 2022 403 
z
" transform="scale(0.015625)"/>
       <path id="NotoSansCJKjp-Regular-74" d="M 1683 -83 
C 1894 -83 2125 -19 2323 45 
L 2208 480 
C 2093 435 1933 390 1811 390 
C 1408 390 1274 634 1274 1062 
L 1274 3002 
L 2214 3002 
L 2214 3475 
L 1274 3475 
L 1274 4454 
L 787 4454 
L 717 3475 
L 173 3443 
L 173 3002 
L 691 3002 
L 691 1075 
C 691 384 941 -83 1683 -83 
z
" transform="scale(0.015625)"/>
       <path id="NotoSansCJKjp-Regular-69" d="M 589 0 
L 1171 0 
L 1171 3475 
L 589 3475 
L 589 0 
z
M 883 4192 
C 1114 4192 1274 4346 1274 4582 
C 1274 4806 1114 4960 883 4960 
C 653 4960 493 4806 493 4582 
C 493 4346 653 4192 883 4192 
z
" transform="scale(0.015625)"/>
       <path id="NotoSansCJKjp-Regular-6e" d="M 589 0 
L 1171 0 
L 1171 2522 
C 1523 2874 1766 3053 2125 3053 
C 2586 3053 2784 2778 2784 2125 
L 2784 0 
L 3366 0 
L 3366 2202 
C 3366 3091 3034 3565 2304 3565 
C 1830 3565 1472 3302 1139 2976 
L 1120 2976 
L 1069 3475 
L 589 3475 
L 589 0 
z
" transform="scale(0.015625)"/>
      </defs>
      <use xlink:href="#NotoSansCJKjp-Regular-50"/>
      <use xlink:href="#NotoSansCJKjp-Regular-72" transform="translate(63.199997 0)"/>
      <use xlink:href="#NotoSansCJKjp-Regular-6f" transform="translate(101.999985 0)"/>
      <use xlink:href="#NotoSansCJKjp-Regular-70" transform="translate(162.599976 0)"/>
      <use xlink:href="#NotoSansCJKjp-Regular-6f" transform="translate(224.59996 0)"/>
      <use xlink:href="#NotoSansCJKjp-Regular-72" transform="translate(285.199951 0)"/>
      <use xlink:href="#NotoSansCJKjp-Regular-74" transform="translate(323.999939 0)"/>
      <use xlink:href="#NotoSansCJKjp-Regular-69" transform="translate(361.699936 0)"/>
      <use xlink:href="#NotoSansCJKjp-Regular-6f" transform="translate(389.199921 0)"/>
      <use xlink:href="#NotoSansCJKjp-Regular-6e" transform="translate(449.799911 0)"/>
     </g>
    </g>
   </g>
   <g id="FillBetweenPolyCollection_1">
    <defs>
     <path id="mb59922bfb9" d="M 79.047784 -39.725 
L 79.047784 -39.725 
L 81.005203 -39.725 
L 82.962621 -39.725 
L 84.92004 -39.725 
L 86.877459 -39.725 
L 88.834877 -39.725 
L 90.792296 -39.725 
L 92.749715 -39.725 
L 94.707133 -39.725 
L 96.664552 -39.725 
L 98.621971 -39.725 
L 100.579389 -39.725 
L 102.536808 -39.725 
L 104.494227 -39.725 
L 106.451645 -39.725 
L 108.409064 -39.725 
L 110.366483 -39.725 
L 112.323901 -39.725 
L 114.28132 -39.725 
L 116.238739 -39.725 
L 118.196157 -39.725 
L 120.153576 -39.725 
L 122.110995 -39.725 
L 124.068413 -39.725 
L 126.025832 -39.725 
L 127.983251 -39.725 
L 129.940669 -39.725 
L 131.898088 -39.725 
L 133.855507 -39.725 
L 135.812925 -39.725 
L 137.770344 -39.725 
L 139.727763 -39.725 
L 141.685181 -39.725 
L 143.6426 -39.725 
L 145.600019 -39.725 
L 147.557437 -39.725 
L 149.514856 -39.725 
L 151.472275 -39.725 
L 153.429693 -39.725 
L 155.387112 -39.725 
L 157.344531 -39.725 
L 159.301949 -39.725 
L 161.259368 -39.725 
L 163.216787 -39.725 
L 165.174205 -39.725 
L 167.131624 -39.725 
L 169.089043 -39.725 
L 171.046462 -39.725 
L 173.00388 -39.725 
L 174.961299 -39.725 
L 176.918718 -39.725 
L 178.876136 -39.725 
L 180.833555 -39.725 
L 182.790974 -39.725 
L 184.748392 -39.725 
L 186.705811 -39.725 
L 188.66323 -39.725 
L 190.620648 -39.725 
L 192.578067 -39.725 
L 194.535486 -39.725 
L 196.492904 -39.725 
L 198.450323 -39.725 
L 200.407742 -39.725 
L 202.36516 -39.725 
L 204.322579 -39.725 
L 206.279998 -39.725 
L 208.237416 -39.725 
L 210.194835 -39.725 
L 212.152254 -39.725 
L 214.109672 -39.725 
L 216.067091 -39.725 
L 218.02451 -39.725 
L 219.981928 -39.725 
L 221.939347 -39.725 
L 223.896766 -39.725 
L 225.854184 -39.725 
L 227.811603 -39.725 
L 229.769022 -39.725 
L 231.72644 -39.725 
L 233.683859 -39.725 
L 235.641278 -39.725 
L 237.598696 -39.725 
L 239.556115 -39.725 
L 241.513534 -39.725 
L 243.470952 -39.725 
L 245.428371 -39.725 
L 247.38579 -39.725 
L 249.343208 -39.725 
L 251.300627 -39.725 
L 253.258046 -39.725 
L 255.215464 -39.725 
L 257.172883 -39.725 
L 259.130302 -39.725 
L 261.08772 -39.725 
L 263.045139 -39.725 
L 265.002558 -39.725 
L 266.959976 -39.725 
L 268.917395 -39.725 
L 270.874814 -39.725 
L 272.832232 -39.725 
L 274.789651 -39.725 
L 276.74707 -39.725 
L 278.704488 -39.725 
L 280.661907 -39.725 
L 282.619326 -39.725 
L 284.576744 -39.725 
L 286.534163 -39.725 
L 288.491582 -39.725 
L 290.449 -39.725 
L 292.406419 -39.725 
L 294.363838 -39.725 
L 296.321256 -39.725 
L 298.278675 -39.725 
L 300.236094 -39.725 
L 302.193512 -39.725 
L 304.150931 -39.725 
L 306.10835 -39.725 
L 308.065768 -39.725 
L 310.023187 -39.725 
L 311.980606 -39.725 
L 313.938024 -39.725 
L 315.895443 -39.725 
L 317.852862 -39.725 
L 319.81028 -39.725 
L 321.767699 -39.725 
L 323.725118 -39.725 
L 325.682536 -39.725 
L 327.639955 -39.725 
L 329.597374 -39.725 
L 331.554792 -39.725 
L 333.512211 -39.725 
L 335.46963 -39.725 
L 337.427048 -39.725 
L 339.384467 -39.725 
L 341.341886 -39.725 
L 343.299304 -39.725 
L 345.256723 -39.725 
L 347.214142 -39.725 
L 349.17156 -39.725 
L 351.128979 -39.725 
L 353.086398 -39.725 
L 355.043816 -39.725 
L 357.001235 -39.725 
L 358.958654 -39.725 
L 360.916072 -39.725 
L 362.873491 -39.725 
L 364.83091 -39.725 
L 366.788328 -39.725 
L 368.745747 -39.725 
L 370.703166 -39.725 
L 372.660584 -39.725 
L 374.618003 -39.725 
L 376.575422 -39.725 
L 378.53284 -39.725 
L 380.490259 -39.725 
L 382.447678 -39.725 
L 384.405096 -39.725 
L 386.362515 -39.725 
L 388.319934 -39.725 
L 390.277352 -39.725 
L 392.234771 -39.725 
L 394.19219 -39.725 
L 396.149608 -39.725 
L 398.107027 -39.725 
L 400.064446 -39.725 
L 402.021864 -39.725 
L 403.979283 -39.725 
L 405.936702 -39.725 
L 407.89412 -39.725 
L 409.851539 -39.725 
L 411.808958 -39.725 
L 413.766376 -39.725 
L 415.723795 -39.725 
L 417.681214 -39.725 
L 419.638632 -39.725 
L 421.596051 -39.725 
L 423.55347 -39.725 
L 425.510888 -39.725 
L 427.468307 -39.725 
L 429.425726 -39.725 
L 431.383144 -39.725 
L 433.340563 -39.725 
L 435.297982 -39.725 
L 437.2554 -39.725 
L 439.212819 -39.725 
L 441.170238 -39.725 
L 443.127656 -39.725 
L 445.085075 -39.725 
L 447.042494 -39.725 
L 448.999912 -39.725 
L 450.957331 -39.725 
L 452.91475 -39.725 
L 454.872168 -39.725 
L 456.829587 -39.725 
L 458.787006 -39.725 
L 460.744424 -39.725 
L 462.701843 -39.725 
L 464.659262 -39.725 
L 466.61668 -39.725 
L 468.574099 -39.725 
L 470.531518 -39.725 
L 472.488936 -39.725 
L 474.446355 -39.725 
L 476.403774 -39.725 
L 478.361192 -39.725 
L 480.318611 -39.725 
L 482.27603 -39.725 
L 484.233448 -39.725 
L 486.190867 -39.725 
L 488.148286 -39.725 
L 490.105704 -39.725 
L 492.063123 -39.725 
L 494.020542 -39.725 
L 495.97796 -39.725 
L 497.935379 -39.725 
L 499.892798 -39.725 
L 501.850216 -39.725 
L 503.807635 -39.725 
L 505.765054 -39.725 
L 507.722472 -39.725 
L 509.679891 -39.725 
L 511.63731 -39.725 
L 513.594728 -39.725 
L 515.552147 -39.725 
L 517.509566 -39.725 
L 519.466984 -39.725 
L 521.424403 -39.725 
L 523.381822 -39.725 
L 525.33924 -39.725 
L 527.296659 -39.725 
L 529.254078 -39.725 
L 531.211496 -39.725 
L 533.168915 -39.725 
L 535.126334 -39.725 
L 537.083752 -39.725 
L 539.041171 -39.725 
L 540.99859 -39.725 
L 542.956008 -39.725 
L 544.913427 -39.725 
L 546.870846 -39.725 
L 548.828264 -39.725 
L 550.785683 -39.725 
L 552.743102 -39.725 
L 554.70052 -39.725 
L 556.657939 -39.725 
L 558.615358 -39.725 
L 560.572776 -39.725 
L 562.530195 -39.725 
L 564.487614 -39.725 
L 566.445032 -39.725 
L 568.402451 -39.725 
L 570.35987 -39.725 
L 572.317288 -39.725 
L 574.274707 -39.725 
L 576.232126 -39.725 
L 578.189545 -39.725 
L 580.146963 -39.725 
L 582.104382 -39.725 
L 584.061801 -39.725 
L 586.019219 -39.725 
L 587.976638 -39.725 
L 589.934057 -39.725 
L 591.891475 -39.725 
L 593.848894 -39.725 
L 595.806313 -39.725 
L 597.763731 -39.725 
L 599.72115 -39.725 
L 601.678569 -39.725 
L 603.635987 -39.725 
L 605.593406 -39.725 
L 607.550825 -39.725 
L 609.508243 -39.725 
L 611.465662 -39.725 
L 613.423081 -39.725 
L 615.380499 -39.725 
L 617.337918 -39.725 
L 619.295337 -39.725 
L 621.252755 -39.725 
L 623.210174 -39.725 
L 625.167593 -39.725 
L 627.125011 -39.725 
L 629.08243 -39.725 
L 631.039849 -39.725 
L 632.997267 -39.725 
L 634.954686 -39.725 
L 636.912105 -39.725 
L 638.869523 -39.725 
L 640.826942 -39.725 
L 642.784361 -39.725 
L 644.741779 -39.725 
L 646.699198 -39.725 
L 648.656617 -39.725 
L 650.614035 -39.725 
L 652.571454 -39.725 
L 654.528873 -39.725 
L 656.486291 -39.725 
L 658.44371 -39.725 
L 660.401129 -39.725 
L 662.358547 -39.725 
L 664.315966 -39.725 
L 664.315966 -59.812214 
L 664.315966 -59.812214 
L 662.358547 -57.163365 
L 660.401129 -54.708495 
L 658.44371 -52.446018 
L 656.486291 -50.374345 
L 654.528873 -48.491891 
L 652.571454 -46.797067 
L 650.614035 -45.288288 
L 648.656617 -43.963966 
L 646.699198 -42.822515 
L 644.741779 -41.862347 
L 642.784361 -41.081876 
L 640.826942 -40.479513 
L 638.869523 -40.053674 
L 636.912105 -39.80277 
L 634.954686 -39.725732 
L 632.997267 -40.033274 
L 631.039849 -40.845102 
L 629.08243 -42.082727 
L 627.125011 -43.667661 
L 625.167593 -45.521417 
L 623.210174 -47.565506 
L 621.252755 -49.721441 
L 619.295337 -51.910733 
L 617.337918 -54.054894 
L 615.380499 -56.075437 
L 613.423081 -57.893874 
L 611.465662 -59.431715 
L 609.508243 -60.610474 
L 607.550825 -61.351663 
L 605.593406 -61.579704 
L 603.635987 -61.575489 
L 601.678569 -61.564316 
L 599.72115 -61.546274 
L 597.763731 -61.521452 
L 595.806313 -61.489941 
L 593.848894 -61.45183 
L 591.891475 -61.407209 
L 589.934057 -61.356167 
L 587.976638 -61.298794 
L 586.019219 -61.23518 
L 584.061801 -61.165414 
L 582.104382 -61.089586 
L 580.146963 -61.007787 
L 578.189545 -60.920104 
L 576.232126 -60.820644 
L 574.274707 -60.391834 
L 572.317288 -59.505966 
L 570.35987 -58.236315 
L 568.402451 -56.65615 
L 566.445032 -54.838744 
L 564.487614 -52.857369 
L 562.530195 -50.785295 
L 560.572776 -48.695795 
L 558.615358 -46.662141 
L 556.657939 -44.757604 
L 554.70052 -43.055455 
L 552.743102 -41.628966 
L 550.785683 -40.55141 
L 548.828264 -39.896057 
L 546.870846 -39.735373 
L 544.913427 -40.081634 
L 542.956008 -40.867212 
L 540.99859 -42.022097 
L 539.041171 -43.476277 
L 537.083752 -45.159742 
L 535.126334 -47.002481 
L 533.168915 -48.934484 
L 531.211496 -50.88574 
L 529.254078 -52.786238 
L 527.296659 -54.565968 
L 525.33924 -56.154918 
L 523.381822 -57.483079 
L 521.424403 -58.48044 
L 519.466984 -59.076989 
L 517.509566 -59.203081 
L 515.552147 -58.833191 
L 513.594728 -58.027485 
L 511.63731 -56.855973 
L 509.679891 -55.388666 
L 507.722472 -53.695575 
L 505.765054 -51.846709 
L 503.807635 -49.912081 
L 501.850216 -47.9617 
L 499.892798 -46.065578 
L 497.935379 -44.293725 
L 495.97796 -42.716151 
L 494.020542 -41.402867 
L 492.063123 -40.423884 
L 490.105704 -39.849214 
L 488.148286 -39.725 
L 486.190867 -39.725 
L 484.233448 -39.725 
L 482.27603 -39.725 
L 480.318611 -39.725 
L 478.361192 -39.725 
L 476.403774 -39.725 
L 474.446355 -39.725 
L 472.488936 -39.725 
L 470.531518 -39.725 
L 468.574099 -39.725 
L 466.61668 -39.725 
L 464.659262 -39.725 
L 462.701843 -39.725 
L 460.744424 -39.725 
L 458.787006 -39.725 
L 456.829587 -39.725 
L 454.872168 -39.725 
L 452.91475 -39.725 
L 450.957331 -39.725 
L 448.999912 -39.725 
L 447.042494 -39.725 
L 445.085075 -39.725 
L 443.127656 -39.725 
L 441.170238 -39.725 
L 439.212819 -39.725 
L 437.2554 -39.725 
L 435.297982 -39.725 
L 433.340563 -39.725 
L 431.383144 -39.725 
L 429.425726 -39.725 
L 427.468307 -39.725 
L 425.510888 -39.725 
L 423.55347 -39.725 
L 421.596051 -39.725 
L 419.638632 -39.725 
L 417.681214 -39.725 
L 415.723795 -39.725 
L 413.766376 -39.725 
L 411.808958 -39.725 
L 409.851539 -39.725 
L 407.89412 -39.725 
L 405.936702 -39.725 
L 403.979283 -39.725 
L 402.021864 -39.725 
L 400.064446 -39.725 
L 398.107027 -39.725 
L 396.149608 -39.725 
L 394.19219 -39.725 
L 392.234771 -39.725 
L 390.277352 -39.725 
L 388.319934 -39.725 
L 386.362515 -39.725 
L 384.405096 -39.725 
L 382.447678 -39.725 
L 380.490259 -39.725 
L 378.53284 -39.725 
L 376.575422 -39.725 
L 374.618003 -39.725 
L 372.660584 -39.725 
L 370.703166 -39.725 
L 368.745747 -39.725 
L 366.788328 -39.725 
L 364.83091 -39.725 
L 362.873491 -39.725 
L 360.916072 -39.725 
L 358.958654 -39.725 
L 357.001235 -39.725 
L 355.043816 -39.725 
L 353.086398 -39.725 
L 351.128979 -39.725 
L 349.17156 -39.725 
L 347.214142 -39.725 
L 345.256723 -39.725 
L 343.299304 -39.725 
L 341.341886 -39.725 
L 339.384467 -39.725 
L 337.427048 -39.725 
L 335.46963 -39.725 
L 333.512211 -39.725 
L 331.554792 -39.725 
L 329.597374 -39.725 
L 327.639955 -39.725 
L 325.682536 -39.725 
L 323.725118 -39.725 
L 321.767699 -39.725 
L 319.81028 -39.725 
L 317.852862 -39.725 
L 315.895443 -39.725 
L 313.938024 -39.725 
L 311.980606 -39.725 
L 310.023187 -39.725 
L 308.065768 -39.725 
L 306.10835 -39.725 
L 304.150931 -39.725 
L 302.193512 -39.725 
L 300.236094 -39.725 
L 298.278675 -39.725 
L 296.321256 -39.725 
L 294.363838 -39.725 
L 292.406419 -39.725 
L 290.449 -39.725 
L 288.491582 -39.725 
L 286.534163 -39.725 
L 284.576744 -39.725 
L 282.619326 -39.725 
L 280.661907 -39.725 
L 278.704488 -39.725 
L 276.74707 -39.725 
L 274.789651 -39.725 
L 272.832232 -39.725 
L 270.874814 -39.725 
L 268.917395 -39.725 
L 266.959976 -39.725 
L 265.002558 -39.725 
L 263.045139 -39.725 
L 261.08772 -39.725 
L 259.130302 -39.725 
L 257.172883 -39.725 
L 255.215464 -39.725 
L 253.258046 -39.725 
L 251.300627 -39.725 
L 249.343208 -39.725 
L 247.38579 -39.725 
L 245.428371 -39.725 
L 243.470952 -39.725 
L 241.513534 -39.725 
L 239.556115 -39.725 
L 237.598696 -39.725 
L 235.641278 -39.725 
L 233.683859 -39.725 
L 231.72644 -39.725 
L 229.769022 -39.725 
L 227.811603 -39.725 
L 225.854184 -39.725 
L 223.896766 -39.725 
L 221.939347 -39.725 
L 219.981928 -39.725 
L 218.02451 -39.725 
L 216.067091 -39.725 
L 214.109672 -39.725 
L 212.152254 -39.725 
L 210.194835 -39.725 
L 208.237416 -39.725 
L 206.279998 -39.725 
L 204.322579 -39.725 
L 202.36516 -39.725 
L 200.407742 -39.725 
L 198.450323 -39.725 
L 196.492904 -39.725 
L 194.535486 -39.725 
L 192.578067 -39.725 
L 190.620648 -39.725 
L 188.66323 -39.725 
L 186.705811 -39.725 
L 184.748392 -39.725 
L 182.790974 -39.725 
L 180.833555 -39.725 
L 178.876136 -39.725 
L 176.918718 -39.725 
L 174.961299 -39.725 
L 173.00388 -39.725 
L 171.046462 -39.725 
L 169.089043 -39.725 
L 167.131624 -39.725 
L 165.174205 -39.725 
L 163.216787 -39.725 
L 161.259368 -39.725 
L 159.301949 -39.725 
L 157.344531 -39.725 
L 155.387112 -39.725 
L 153.429693 -39.725 
L 151.472275 -39.725 
L 149.514856 -39.725 
L 147.557437 -39.725 
L 145.600019 -39.725 
L 143.6426 -39.725 
L 141.685181 -39.725 
L 139.727763 -39.725 
L 137.770344 -39.725 
L 135.812925 -39.725 
L 133.855507 -39.725 
L 131.898088 -39.725 
L 129.940669 -39.725 
L 127.983251 -39.725 
L 126.025832 -39.725 
L 124.068413 -39.725 
L 122.110995 -39.725 
L 120.153576 -39.725 
L 118.196157 -39.725 
L 116.238739 -39.725 
L 114.28132 -39.725 
L 112.323901 -39.725 
L 110.366483 -39.725 
L 108.409064 -39.725 
L 106.451645 -39.725 
L 104.494227 -39.725 
L 102.536808 -39.725 
L 100.579389 -39.725 
L 98.621971 -39.725 
L 96.664552 -39.725 
L 94.707133 -39.725 
L 92.749715 -39.725 
L 90.792296 -39.725 
L 88.834877 -39.725 
L 86.877459 -39.725 
L 84.92004 -39.725 
L 82.962621 -39.725 
L 81.005203 -39.725 
L 79.047784 -39.725 
z
" style="stroke: #d62728; stroke-opacity: 0.7"/>
    </defs>
    <g clip-path="url(#pb2e59a195b)">
     <use xlink:href="#mb59922bfb9" x="0" y="424.024687" style="fill: #d62728; fill-opacity: 0.7; stroke: #d62728; stroke-opacity: 0.7"/>
    </g>
   </g>
   <g id="FillBetweenPolyCollection_2">
    <defs>
     <path id="m81f6789d6e" d="M 79.047784 -169.88314 
L 79.047784 -39.725 
L 81.005203 -39.725 
L 82.962621 -39.725 
L 84.92004 -39.725 
L 86.877459 -39.725 
L 88.834877 -39.725 
L 90.792296 -39.725 
L 92.749715 -39.725 
L 94.707133 -39.725 
L 96.664552 -39.725 
L 98.621971 -39.725 
L 100.579389 -39.725 
L 102.536808 -39.725 
L 104.494227 -39.725 
L 106.451645 -39.725 
L 108.409064 -39.725 
L 110.366483 -39.725 
L 112.323901 -39.725 
L 114.28132 -39.725 
L 116.238739 -39.725 
L 118.196157 -39.725 
L 120.153576 -39.725 
L 122.110995 -39.725 
L 124.068413 -39.725 
L 126.025832 -39.725 
L 127.983251 -39.725 
L 129.940669 -39.725 
L 131.898088 -39.725 
L 133.855507 -39.725 
L 135.812925 -39.725 
L 137.770344 -39.725 
L 139.727763 -39.725 
L 141.685181 -39.725 
L 143.6426 -39.725 
L 145.600019 -39.725 
L 147.557437 -39.725 
L 149.514856 -39.725 
L 151.472275 -39.725 
L 153.429693 -39.725 
L 155.387112 -39.725 
L 157.344531 -39.725 
L 159.301949 -39.725 
L 161.259368 -39.725 
L 163.216787 -39.725 
L 165.174205 -39.725 
L 167.131624 -39.725 
L 169.089043 -39.725 
L 171.046462 -39.725 
L 173.00388 -39.725 
L 174.961299 -39.725 
L 176.918718 -39.725 
L 178.876136 -39.725 
L 180.833555 -39.725 
L 182.790974 -39.725 
L 184.748392 -39.725 
L 186.705811 -39.725 
L 188.66323 -39.725 
L 190.620648 -39.725 
L 192.578067 -39.725 
L 194.535486 -39.725 
L 196.492904 -39.725 
L 198.450323 -39.725 
L 200.407742 -39.725 
L 202.36516 -39.725 
L 204.322579 -39.725 
L 206.279998 -39.725 
L 208.237416 -39.725 
L 210.194835 -39.725 
L 212.152254 -39.725 
L 214.109672 -39.725 
L 216.067091 -39.725 
L 218.02451 -39.725 
L 219.981928 -39.725 
L 221.939347 -39.725 
L 223.896766 -39.725 
L 225.854184 -39.725 
L 227.811603 -39.725 
L 229.769022 -39.725 
L 231.72644 -39.725 
L 233.683859 -39.725 
L 235.641278 -39.725 
L 237.598696 -39.725 
L 239.556115 -39.725 
L 241.513534 -39.725 
L 243.470952 -39.725 
L 245.428371 -39.725 
L 247.38579 -39.725 
L 249.343208 -39.725 
L 251.300627 -39.725 
L 253.258046 -39.725 
L 255.215464 -39.725 
L 257.172883 -39.725 
L 259.130302 -39.725 
L 261.08772 -39.725 
L 263.045139 -39.725 
L 265.002558 -39.725 
L 266.959976 -39.725 
L 268.917395 -39.725 
L 270.874814 -39.725 
L 272.832232 -39.725 
L 274.789651 -39.725 
L 276.74707 -39.725 
L 278.704488 -39.725 
L 280.661907 -39.725 
L 282.619326 -39.725 
L 284.576744 -39.725 
L 286.534163 -39.725 
L 288.491582 -39.725 
L 290.449 -39.725 
L 292.406419 -39.725 
L 294.363838 -39.725 
L 296.321256 -39.725 
L 298.278675 -39.725 
L 300.236094 -39.725 
L 302.193512 -39.725 
L 304.150931 -39.725 
L 306.10835 -39.725 
L 308.065768 -39.725 
L 310.023187 -39.725 
L 311.980606 -39.725 
L 313.938024 -39.725 
L 315.895443 -39.725 
L 317.852862 -39.725 
L 319.81028 -39.725 
L 321.767699 -39.725 
L 323.725118 -39.725 
L 325.682536 -39.725 
L 327.639955 -39.725 
L 329.597374 -39.725 
L 331.554792 -39.725 
L 333.512211 -39.725 
L 335.46963 -39.725 
L 337.427048 -39.725 
L 339.384467 -39.725 
L 341.341886 -39.725 
L 343.299304 -39.725 
L 345.256723 -39.725 
L 347.214142 -39.725 
L 349.17156 -39.725 
L 351.128979 -39.725 
L 353.086398 -39.725 
L 355.043816 -39.725 
L 357.001235 -39.725 
L 358.958654 -39.725 
L 360.916072 -39.725 
L 362.873491 -39.725 
L 364.83091 -39.725 
L 366.788328 -39.725 
L 368.745747 -39.725 
L 370.703166 -39.725 
L 372.660584 -39.725 
L 374.618003 -39.725 
L 376.575422 -39.725 
L 378.53284 -39.725 
L 380.490259 -39.725 
L 382.447678 -39.725 
L 384.405096 -39.725 
L 386.362515 -39.725 
L 388.319934 -39.725 
L 390.277352 -39.725 
L 392.234771 -39.725 
L 394.19219 -39.725 
L 396.149608 -39.725 
L 398.107027 -39.725 
L 400.064446 -39.725 
L 402.021864 -39.725 
L 403.979283 -39.725 
L 405.936702 -39.725 
L 407.89412 -39.725 
L 409.851539 -39.725 
L 411.808958 -39.725 
L 413.766376 -39.725 
L 415.723795 -39.725 
L 417.681214 -39.725 
L 419.638632 -39.725 
L 421.596051 -39.725 
L 423.55347 -39.725 
L 425.510888 -39.725 
L 427.468307 -39.725 
L 429.425726 -39.725 
L 431.383144 -39.725 
L 433.340563 -39.725 
L 435.297982 -39.725 
L 437.2554 -39.725 
L 439.212819 -39.725 
L 441.170238 -39.725 
L 443.127656 -39.725 
L 445.085075 -39.725 
L 447.042494 -39.725 
L 448.999912 -39.725 
L 450.957331 -39.725 
L 452.91475 -39.725 
L 454.872168 -39.725 
L 456.829587 -39.725 
L 458.787006 -39.725 
L 460.744424 -39.725 
L 462.701843 -39.725 
L 464.659262 -39.725 
L 466.61668 -39.725 
L 468.574099 -39.725 
L 470.531518 -39.725 
L 472.488936 -39.725 
L 474.446355 -39.725 
L 476.403774 -39.725 
L 478.361192 -39.725 
L 480.318611 -39.725 
L 482.27603 -39.725 
L 484.233448 -39.725 
L 486.190867 -39.725 
L 488.148286 -39.725 
L 490.105704 -39.849214 
L 492.063123 -40.423884 
L 494.020542 -41.402867 
L 495.97796 -42.716151 
L 497.935379 -44.293725 
L 499.892798 -46.065578 
L 501.850216 -47.9617 
L 503.807635 -49.912081 
L 505.765054 -51.846709 
L 507.722472 -53.695575 
L 509.679891 -55.388666 
L 511.63731 -56.855973 
L 513.594728 -58.027485 
L 515.552147 -58.833191 
L 517.509566 -59.203081 
L 519.466984 -59.076989 
L 521.424403 -58.48044 
L 523.381822 -57.483079 
L 525.33924 -56.154918 
L 527.296659 -54.565968 
L 529.254078 -52.786238 
L 531.211496 -50.88574 
L 533.168915 -48.934484 
L 535.126334 -47.002481 
L 537.083752 -45.159742 
L 539.041171 -43.476277 
L 540.99859 -42.022097 
L 542.956008 -40.867212 
L 544.913427 -40.081634 
L 546.870846 -39.735373 
L 548.828264 -39.896057 
L 550.785683 -40.55141 
L 552.743102 -41.628966 
L 554.70052 -43.055455 
L 556.657939 -44.757604 
L 558.615358 -46.662141 
L 560.572776 -48.695795 
L 562.530195 -50.785295 
L 564.487614 -52.857369 
L 566.445032 -54.838744 
L 568.402451 -56.65615 
L 570.35987 -58.236315 
L 572.317288 -59.505966 
L 574.274707 -60.391834 
L 576.232126 -60.820644 
L 578.189545 -60.920104 
L 580.146963 -61.007787 
L 582.104382 -61.089586 
L 584.061801 -61.165414 
L 586.019219 -61.23518 
L 587.976638 -61.298794 
L 589.934057 -61.356167 
L 591.891475 -61.407209 
L 593.848894 -61.45183 
L 595.806313 -61.489941 
L 597.763731 -61.521452 
L 599.72115 -61.546274 
L 601.678569 -61.564316 
L 603.635987 -61.575489 
L 605.593406 -61.579704 
L 607.550825 -61.351663 
L 609.508243 -60.610474 
L 611.465662 -59.431715 
L 613.423081 -57.893874 
L 615.380499 -56.075437 
L 617.337918 -54.054894 
L 619.295337 -51.910733 
L 621.252755 -49.721441 
L 623.210174 -47.565506 
L 625.167593 -45.521417 
L 627.125011 -43.667661 
L 629.08243 -42.082727 
L 631.039849 -40.845102 
L 632.997267 -40.033274 
L 634.954686 -39.725732 
L 636.912105 -39.80277 
L 638.869523 -40.053674 
L 640.826942 -40.479513 
L 642.784361 -41.081876 
L 644.741779 -41.862347 
L 646.699198 -42.822515 
L 648.656617 -43.963966 
L 650.614035 -45.288288 
L 652.571454 -46.797067 
L 654.528873 -48.491891 
L 656.486291 -50.374345 
L 658.44371 -52.446018 
L 660.401129 -54.708495 
L 662.358547 -57.163365 
L 664.315966 -59.812214 
L 664.315966 -263.195256 
L 664.315966 -263.195256 
L 662.358547 -260.618553 
L 660.401129 -258.374614 
L 658.44371 -256.45359 
L 656.486291 -254.845634 
L 654.528873 -253.540898 
L 652.571454 -252.529533 
L 650.614035 -251.801691 
L 648.656617 -251.347525 
L 646.699198 -251.157186 
L 644.741779 -251.220826 
L 642.784361 -251.528598 
L 640.826942 -252.070653 
L 638.869523 -252.837143 
L 636.912105 -253.81822 
L 634.954686 -255.005741 
L 632.997267 -257.097322 
L 631.039849 -260.519263 
L 629.08243 -265.051229 
L 627.125011 -270.472884 
L 625.167593 -276.563892 
L 623.210174 -283.10392 
L 621.252755 -289.872631 
L 619.295337 -296.64969 
L 617.337918 -303.214763 
L 615.380499 -309.347514 
L 613.423081 -314.827607 
L 611.465662 -319.434708 
L 609.508243 -322.948481 
L 607.550825 -325.148592 
L 605.593406 -325.819853 
L 603.635987 -325.411661 
L 601.678569 -324.387521 
L 599.72115 -322.835547 
L 597.763731 -320.843851 
L 595.806313 -318.500548 
L 593.848894 -315.89375 
L 591.891475 -313.111572 
L 589.934057 -310.242126 
L 587.976638 -307.373526 
L 586.019219 -304.593885 
L 584.061801 -301.991317 
L 582.104382 -299.653935 
L 580.146963 -297.669853 
L 578.189545 -296.127184 
L 576.232126 -295.102491 
L 574.274707 -294.03268 
L 572.317288 -292.607225 
L 570.35987 -290.8827 
L 568.402451 -288.91568 
L 566.445032 -286.762737 
L 564.487614 -284.480445 
L 562.530195 -282.125378 
L 560.572776 -279.754109 
L 558.615358 -277.423213 
L 556.657939 -275.189263 
L 554.70052 -273.108832 
L 552.743102 -271.238494 
L 550.785683 -269.634823 
L 548.828264 -268.354393 
L 546.870846 -267.432417 
L 544.913427 -266.228063 
L 542.956008 -264.483936 
L 540.99859 -262.28771 
L 539.041171 -259.727063 
L 537.083752 -256.88967 
L 535.126334 -253.863207 
L 533.168915 -250.735351 
L 531.211496 -247.593778 
L 529.254078 -244.526164 
L 527.296659 -241.620186 
L 525.33924 -238.963518 
L 523.381822 -236.643838 
L 521.424403 -234.748822 
L 519.466984 -233.366145 
L 517.509566 -232.547219 
L 515.552147 -231.577688 
L 513.594728 -230.204249 
L 511.63731 -228.498475 
L 509.679891 -226.531943 
L 507.722472 -224.376227 
L 505.765054 -222.102903 
L 503.807635 -219.783546 
L 501.850216 -217.48973 
L 499.892798 -215.293032 
L 497.935379 -213.265025 
L 495.97796 -211.477285 
L 494.020542 -210.001388 
L 492.063123 -208.908908 
L 490.105704 -208.27142 
L 488.148286 -208.190635 
L 486.190867 -209.14556 
L 484.233448 -211.150024 
L 482.27603 -214.034061 
L 480.318611 -217.627705 
L 478.361192 -221.760991 
L 476.403774 -226.263953 
L 474.446355 -230.966624 
L 472.488936 -235.69904 
L 470.531518 -240.291233 
L 468.574099 -244.573239 
L 466.61668 -248.375092 
L 464.659262 -251.526825 
L 462.701843 -253.858473 
L 460.744424 -255.20007 
L 458.787006 -255.346752 
L 456.829587 -253.84245 
L 454.872168 -250.789819 
L 452.91475 -246.441647 
L 450.957331 -241.050723 
L 448.999912 -234.869835 
L 447.042494 -228.151771 
L 445.085075 -221.149321 
L 443.127656 -214.115272 
L 441.170238 -207.302413 
L 439.212819 -200.963532 
L 437.2554 -195.351418 
L 435.297982 -190.718859 
L 433.340563 -187.318644 
L 431.383144 -185.403561 
L 429.425726 -185.175081 
L 427.468307 -186.272217 
L 425.510888 -188.432057 
L 423.55347 -191.481603 
L 421.596051 -195.247861 
L 419.638632 -199.557835 
L 417.681214 -204.238529 
L 415.723795 -209.116946 
L 413.766376 -214.020091 
L 411.808958 -218.774968 
L 409.851539 -223.208581 
L 407.89412 -227.147935 
L 405.936702 -230.420033 
L 403.979283 -232.85188 
L 402.021864 -234.270479 
L 400.064446 -234.634108 
L 398.107027 -234.799503 
L 396.149608 -234.95392 
L 394.19219 -235.09723 
L 392.234771 -235.229305 
L 390.277352 -235.350015 
L 388.319934 -235.459232 
L 386.362515 -235.556828 
L 384.405096 -235.642674 
L 382.447678 -235.716642 
L 380.490259 -235.778602 
L 378.53284 -235.828426 
L 376.575422 -235.865986 
L 374.618003 -235.891153 
L 372.660584 -235.903798 
L 370.703166 -235.793175 
L 368.745747 -234.941559 
L 366.788328 -233.356039 
L 364.83091 -231.159443 
L 362.873491 -228.474602 
L 360.916072 -225.424343 
L 358.958654 -222.131497 
L 357.001235 -218.718893 
L 355.043816 -215.309359 
L 353.086398 -212.025725 
L 351.128979 -208.99082 
L 349.17156 -206.327474 
L 347.214142 -204.158515 
L 345.256723 -202.606773 
L 343.299304 -201.795076 
L 341.341886 -201.806298 
L 339.384467 -202.479463 
L 337.427048 -203.702324 
L 335.46963 -205.382106 
L 333.512211 -207.426032 
L 331.554792 -209.741326 
L 329.597374 -212.235214 
L 327.639955 -214.81492 
L 325.682536 -217.387667 
L 323.725118 -219.86068 
L 321.767699 -222.141184 
L 319.81028 -224.136403 
L 317.852862 -225.753561 
L 315.895443 -226.899882 
L 313.938024 -227.48259 
L 311.980606 -227.519478 
L 310.023187 -227.414026 
L 308.065768 -227.217726 
L 306.10835 -226.935537 
L 304.150931 -226.57242 
L 302.193512 -226.133332 
L 300.236094 -225.623233 
L 298.278675 -225.047081 
L 296.321256 -224.409835 
L 294.363838 -223.716455 
L 292.406419 -222.9719 
L 290.449 -222.181127 
L 288.491582 -221.349097 
L 286.534163 -220.480768 
L 284.576744 -219.581099 
L 282.619326 -218.56076 
L 280.661907 -217.119019 
L 278.704488 -215.274544 
L 276.74707 -213.074199 
L 274.789651 -210.564848 
L 272.832232 -207.793355 
L 270.874814 -204.806584 
L 268.917395 -201.651398 
L 266.959976 -198.37466 
L 265.002558 -195.023236 
L 263.045139 -191.643987 
L 261.08772 -188.283779 
L 259.130302 -184.989474 
L 257.172883 -181.807937 
L 255.215464 -178.78603 
L 253.258046 -175.814561 
L 251.300627 -172.505276 
L 249.343208 -168.911411 
L 247.38579 -165.115397 
L 245.428371 -161.199668 
L 243.470952 -157.246654 
L 241.513534 -153.338789 
L 239.556115 -149.558505 
L 237.598696 -145.988233 
L 235.641278 -142.710407 
L 233.683859 -139.807458 
L 231.72644 -137.361819 
L 229.769022 -135.455922 
L 227.811603 -134.172199 
L 225.854184 -133.593083 
L 223.896766 -133.923225 
L 221.939347 -135.41253 
L 219.981928 -137.902474 
L 218.02451 -141.218271 
L 216.067091 -145.18514 
L 214.109672 -149.628294 
L 212.152254 -154.372951 
L 210.194835 -159.244327 
L 208.237416 -164.067636 
L 206.279998 -168.668096 
L 204.322579 -172.870923 
L 202.36516 -176.501332 
L 200.407742 -179.38454 
L 198.450323 -181.345761 
L 196.492904 -182.210214 
L 194.535486 -181.980303 
L 192.578067 -181.00097 
L 190.620648 -179.392284 
L 188.66323 -177.265143 
L 186.705811 -174.730447 
L 184.748392 -171.899095 
L 182.790974 -168.881988 
L 180.833555 -165.790023 
L 178.876136 -162.734101 
L 176.918718 -159.82512 
L 174.961299 -157.17398 
L 173.00388 -154.89158 
L 171.046462 -153.088819 
L 169.089043 -151.876598 
L 167.131624 -151.365814 
L 165.174205 -151.802435 
L 163.216787 -153.37082 
L 161.259368 -155.904607 
L 159.301949 -159.232168 
L 157.344531 -163.181877 
L 155.387112 -167.582108 
L 153.429693 -172.261232 
L 151.472275 -177.047622 
L 149.514856 -181.769653 
L 147.557437 -186.255697 
L 145.600019 -190.334126 
L 143.6426 -193.833315 
L 141.685181 -196.581635 
L 139.727763 -198.40746 
L 137.770344 -199.139163 
L 135.812925 -198.55601 
L 133.855507 -196.64016 
L 131.898088 -193.593262 
L 129.940669 -189.618195 
L 127.983251 -184.917838 
L 126.025832 -179.695068 
L 124.068413 -174.152764 
L 122.110995 -168.493805 
L 120.153576 -162.92107 
L 118.196157 -157.637436 
L 116.238739 -152.845783 
L 114.28132 -148.748989 
L 112.323901 -145.549933 
L 110.366483 -143.451492 
L 108.409064 -142.656547 
L 106.451645 -142.709277 
L 104.494227 -142.901444 
L 102.536808 -143.257569 
L 100.579389 -143.803925 
L 98.621971 -144.566785 
L 96.664552 -145.572422 
L 94.707133 -146.847109 
L 92.749715 -148.417118 
L 90.792296 -150.308723 
L 88.834877 -152.548196 
L 86.877459 -155.161811 
L 84.92004 -158.17584 
L 82.962621 -161.616555 
L 81.005203 -165.510231 
L 79.047784 -169.88314 
z
" style="stroke: #1f77b4; stroke-opacity: 0.7"/>
    </defs>
    <g clip-path="url(#pb2e59a195b)">
     <use xlink:href="#m81f6789d6e" x="0" y="424.024687" style="fill: #1f77b4; fill-opacity: 0.7; stroke: #1f77b4; stroke-opacity: 0.7"/>
    </g>
   </g>
   <g id="FillBetweenPolyCollection_3">
    <defs>
     <path id="m084fc05ce3" d="M 79.047784 -169.88314 
L 79.047784 -169.88314 
L 81.005203 -165.510231 
L 82.962621 -161.616555 
L 84.92004 -158.17584 
L 86.877459 -155.161811 
L 88.834877 -152.548196 
L 90.792296 -150.308723 
L 92.749715 -148.417118 
L 94.707133 -146.847109 
L 96.664552 -145.572422 
L 98.621971 -144.566785 
L 100.579389 -143.803925 
L 102.536808 -143.257569 
L 104.494227 -142.901444 
L 106.451645 -142.709277 
L 108.409064 -142.656547 
L 110.366483 -143.451492 
L 112.323901 -145.549933 
L 114.28132 -148.748989 
L 116.238739 -152.845783 
L 118.196157 -157.637436 
L 120.153576 -162.92107 
L 122.110995 -168.493805 
L 124.068413 -174.152764 
L 126.025832 -179.695068 
L 127.983251 -184.917838 
L 129.940669 -189.618195 
L 131.898088 -193.593262 
L 133.855507 -196.64016 
L 135.812925 -198.55601 
L 137.770344 -199.139163 
L 139.727763 -198.40746 
L 141.685181 -196.581635 
L 143.6426 -193.833315 
L 145.600019 -190.334126 
L 147.557437 -186.255697 
L 149.514856 -181.769653 
L 151.472275 -177.047622 
L 153.429693 -172.261232 
L 155.387112 -167.582108 
L 157.344531 -163.181877 
L 159.301949 -159.232168 
L 161.259368 -155.904607 
L 163.216787 -153.37082 
L 165.174205 -151.802435 
L 167.131624 -151.365814 
L 169.089043 -151.876598 
L 171.046462 -153.088819 
L 173.00388 -154.89158 
L 174.961299 -157.17398 
L 176.918718 -159.82512 
L 178.876136 -162.734101 
L 180.833555 -165.790023 
L 182.790974 -168.881988 
L 184.748392 -171.899095 
L 186.705811 -174.730447 
L 188.66323 -177.265143 
L 190.620648 -179.392284 
L 192.578067 -181.00097 
L 194.535486 -181.980303 
L 196.492904 -182.210214 
L 198.450323 -181.345761 
L 200.407742 -179.38454 
L 202.36516 -176.501332 
L 204.322579 -172.870923 
L 206.279998 -168.668096 
L 208.237416 -164.067636 
L 210.194835 -159.244327 
L 212.152254 -154.372951 
L 214.109672 -149.628294 
L 216.067091 -145.18514 
L 218.02451 -141.218271 
L 219.981928 -137.902474 
L 221.939347 -135.41253 
L 223.896766 -133.923225 
L 225.854184 -133.593083 
L 227.811603 -134.172199 
L 229.769022 -135.455922 
L 231.72644 -137.361819 
L 233.683859 -139.807458 
L 235.641278 -142.710407 
L 237.598696 -145.988233 
L 239.556115 -149.558505 
L 241.513534 -153.338789 
L 243.470952 -157.246654 
L 245.428371 -161.199668 
L 247.38579 -165.115397 
L 249.343208 -168.911411 
L 251.300627 -172.505276 
L 253.258046 -175.814561 
L 255.215464 -178.78603 
L 257.172883 -181.807937 
L 259.130302 -184.989474 
L 261.08772 -188.283779 
L 263.045139 -191.643987 
L 265.002558 -195.023236 
L 266.959976 -198.37466 
L 268.917395 -201.651398 
L 270.874814 -204.806584 
L 272.832232 -207.793355 
L 274.789651 -210.564848 
L 276.74707 -213.074199 
L 278.704488 -215.274544 
L 280.661907 -217.119019 
L 282.619326 -218.56076 
L 284.576744 -219.581099 
L 286.534163 -220.480768 
L 288.491582 -221.349097 
L 290.449 -222.181127 
L 292.406419 -222.9719 
L 294.363838 -223.716455 
L 296.321256 -224.409835 
L 298.278675 -225.047081 
L 300.236094 -225.623233 
L 302.193512 -226.133332 
L 304.150931 -226.57242 
L 306.10835 -226.935537 
L 308.065768 -227.217726 
L 310.023187 -227.414026 
L 311.980606 -227.519478 
L 313.938024 -227.48259 
L 315.895443 -226.899882 
L 317.852862 -225.753561 
L 319.81028 -224.136403 
L 321.767699 -222.141184 
L 323.725118 -219.86068 
L 325.682536 -217.387667 
L 327.639955 -214.81492 
L 329.597374 -212.235214 
L 331.554792 -209.741326 
L 333.512211 -207.426032 
L 335.46963 -205.382106 
L 337.427048 -203.702324 
L 339.384467 -202.479463 
L 341.341886 -201.806298 
L 343.299304 -201.795076 
L 345.256723 -202.606773 
L 347.214142 -204.158515 
L 349.17156 -206.327474 
L 351.128979 -208.99082 
L 353.086398 -212.025725 
L 355.043816 -215.309359 
L 357.001235 -218.718893 
L 358.958654 -222.131497 
L 360.916072 -225.424343 
L 362.873491 -228.474602 
L 364.83091 -231.159443 
L 366.788328 -233.356039 
L 368.745747 -234.941559 
L 370.703166 -235.793175 
L 372.660584 -235.903798 
L 374.618003 -235.891153 
L 376.575422 -235.865986 
L 378.53284 -235.828426 
L 380.490259 -235.778602 
L 382.447678 -235.716642 
L 384.405096 -235.642674 
L 386.362515 -235.556828 
L 388.319934 -235.459232 
L 390.277352 -235.350015 
L 392.234771 -235.229305 
L 394.19219 -235.09723 
L 396.149608 -234.95392 
L 398.107027 -234.799503 
L 400.064446 -234.634108 
L 402.021864 -234.270479 
L 403.979283 -232.85188 
L 405.936702 -230.420033 
L 407.89412 -227.147935 
L 409.851539 -223.208581 
L 411.808958 -218.774968 
L 413.766376 -214.020091 
L 415.723795 -209.116946 
L 417.681214 -204.238529 
L 419.638632 -199.557835 
L 421.596051 -195.247861 
L 423.55347 -191.481603 
L 425.510888 -188.432057 
L 427.468307 -186.272217 
L 429.425726 -185.175081 
L 431.383144 -185.403561 
L 433.340563 -187.318644 
L 435.297982 -190.718859 
L 437.2554 -195.351418 
L 439.212819 -200.963532 
L 441.170238 -207.302413 
L 443.127656 -214.115272 
L 445.085075 -221.149321 
L 447.042494 -228.151771 
L 448.999912 -234.869835 
L 450.957331 -241.050723 
L 452.91475 -246.441647 
L 454.872168 -250.789819 
L 456.829587 -253.84245 
L 458.787006 -255.346752 
L 460.744424 -255.20007 
L 462.701843 -253.858473 
L 464.659262 -251.526825 
L 466.61668 -248.375092 
L 468.574099 -244.573239 
L 470.531518 -240.291233 
L 472.488936 -235.69904 
L 474.446355 -230.966624 
L 476.403774 -226.263953 
L 478.361192 -221.760991 
L 480.318611 -217.627705 
L 482.27603 -214.034061 
L 484.233448 -211.150024 
L 486.190867 -209.14556 
L 488.148286 -208.190635 
L 490.105704 -208.27142 
L 492.063123 -208.908908 
L 494.020542 -210.001388 
L 495.97796 -211.477285 
L 497.935379 -213.265025 
L 499.892798 -215.293032 
L 501.850216 -217.48973 
L 503.807635 -219.783546 
L 505.765054 -222.102903 
L 507.722472 -224.376227 
L 509.679891 -226.531943 
L 511.63731 -228.498475 
L 513.594728 -230.204249 
L 515.552147 -231.577688 
L 517.509566 -232.547219 
L 519.466984 -233.366145 
L 521.424403 -234.748822 
L 523.381822 -236.643838 
L 525.33924 -238.963518 
L 527.296659 -241.620186 
L 529.254078 -244.526164 
L 531.211496 -247.593778 
L 533.168915 -250.735351 
L 535.126334 -253.863207 
L 537.083752 -256.88967 
L 539.041171 -259.727063 
L 540.99859 -262.28771 
L 542.956008 -264.483936 
L 544.913427 -266.228063 
L 546.870846 -267.432417 
L 548.828264 -268.354393 
L 550.785683 -269.634823 
L 552.743102 -271.238494 
L 554.70052 -273.108832 
L 556.657939 -275.189263 
L 558.615358 -277.423213 
L 560.572776 -279.754109 
L 562.530195 -282.125378 
L 564.487614 -284.480445 
L 566.445032 -286.762737 
L 568.402451 -288.91568 
L 570.35987 -290.8827 
L 572.317288 -292.607225 
L 574.274707 -294.03268 
L 576.232126 -295.102491 
L 578.189545 -296.127184 
L 580.146963 -297.669853 
L 582.104382 -299.653935 
L 584.061801 -301.991317 
L 586.019219 -304.593885 
L 587.976638 -307.373526 
L 589.934057 -310.242126 
L 591.891475 -313.111572 
L 593.848894 -315.89375 
L 595.806313 -318.500548 
L 597.763731 -320.843851 
L 599.72115 -322.835547 
L 601.678569 -324.387521 
L 603.635987 -325.411661 
L 605.593406 -325.819853 
L 607.550825 -325.148592 
L 609.508243 -322.948481 
L 611.465662 -319.434708 
L 613.423081 -314.827607 
L 615.380499 -309.347514 
L 617.337918 -303.214763 
L 619.295337 -296.64969 
L 621.252755 -289.872631 
L 623.210174 -283.10392 
L 625.167593 -276.563892 
L 627.125011 -270.472884 
L 629.08243 -265.051229 
L 631.039849 -260.519263 
L 632.997267 -257.097322 
L 634.954686 -255.005741 
L 636.912105 -253.81822 
L 638.869523 -252.837143 
L 640.826942 -252.070653 
L 642.784361 -251.528598 
L 644.741779 -251.220826 
L 646.699198 -251.157186 
L 648.656617 -251.347525 
L 650.614035 -251.801691 
L 652.571454 -252.529533 
L 654.528873 -253.540898 
L 656.486291 -254.845634 
L 658.44371 -256.45359 
L 660.401129 -258.374614 
L 662.358547 -260.618553 
L 664.315966 -263.195256 
L 664.315966 -263.195256 
L 664.315966 -263.195256 
L 662.358547 -260.618553 
L 660.401129 -258.374614 
L 658.44371 -256.45359 
L 656.486291 -254.845634 
L 654.528873 -253.540898 
L 652.571454 -252.529533 
L 650.614035 -251.801691 
L 648.656617 -251.347525 
L 646.699198 -251.157186 
L 644.741779 -251.220826 
L 642.784361 -251.528598 
L 640.826942 -252.070653 
L 638.869523 -252.837143 
L 636.912105 -253.81822 
L 634.954686 -255.005741 
L 632.997267 -257.097322 
L 631.039849 -260.519263 
L 629.08243 -265.051229 
L 627.125011 -270.472884 
L 625.167593 -276.563892 
L 623.210174 -283.10392 
L 621.252755 -289.872631 
L 619.295337 -296.64969 
L 617.337918 -303.214763 
L 615.380499 -309.347514 
L 613.423081 -314.827607 
L 611.465662 -319.434708 
L 609.508243 -322.948481 
L 607.550825 -325.148592 
L 605.593406 -325.819853 
L 603.635987 -325.411661 
L 601.678569 -324.387521 
L 599.72115 -322.835547 
L 597.763731 -320.843851 
L 595.806313 -318.500548 
L 593.848894 -315.89375 
L 591.891475 -313.111572 
L 589.934057 -310.242126 
L 587.976638 -307.373526 
L 586.019219 -304.593885 
L 584.061801 -301.991317 
L 582.104382 -299.653935 
L 580.146963 -297.669853 
L 578.189545 -296.127184 
L 576.232126 -295.102491 
L 574.274707 -294.03268 
L 572.317288 -292.607225 
L 570.35987 -290.8827 
L 568.402451 -288.91568 
L 566.445032 -286.762737 
L 564.487614 -284.480445 
L 562.530195 -282.125378 
L 560.572776 -279.754109 
L 558.615358 -277.423213 
L 556.657939 -275.189263 
L 554.70052 -273.108832 
L 552.743102 -271.238494 
L 550.785683 -269.634823 
L 548.828264 -268.354393 
L 546.870846 -267.432417 
L 544.913427 -266.228063 
L 542.956008 -264.483936 
L 540.99859 -262.28771 
L 539.041171 -259.727063 
L 537.083752 -256.88967 
L 535.126334 -253.863207 
L 533.168915 -250.735351 
L 531.211496 -247.593778 
L 529.254078 -244.526164 
L 527.296659 -241.620186 
L 525.33924 -238.963518 
L 523.381822 -236.643838 
L 521.424403 -234.748822 
L 519.466984 -233.366145 
L 517.509566 -232.547219 
L 515.552147 -231.577688 
L 513.594728 -230.204249 
L 511.63731 -228.498475 
L 509.679891 -226.531943 
L 507.722472 -224.376227 
L 505.765054 -222.102903 
L 503.807635 -219.783546 
L 501.850216 -217.48973 
L 499.892798 -215.293032 
L 497.935379 -213.265025 
L 495.97796 -211.477285 
L 494.020542 -210.001388 
L 492.063123 -208.908908 
L 490.105704 -208.27142 
L 488.148286 -208.190635 
L 486.190867 -209.14556 
L 484.233448 -211.150024 
L 482.27603 -214.034061 
L 480.318611 -217.627705 
L 478.361192 -221.760991 
L 476.403774 -226.263953 
L 474.446355 -230.966624 
L 472.488936 -235.69904 
L 470.531518 -240.291233 
L 468.574099 -244.573239 
L 466.61668 -248.375092 
L 464.659262 -251.526825 
L 462.701843 -253.858473 
L 460.744424 -255.20007 
L 458.787006 -255.346752 
L 456.829587 -253.84245 
L 454.872168 -250.789819 
L 452.91475 -246.441647 
L 450.957331 -241.050723 
L 448.999912 -234.869835 
L 447.042494 -228.151771 
L 445.085075 -221.149321 
L 443.127656 -214.115272 
L 441.170238 -207.302413 
L 439.212819 -200.963532 
L 437.2554 -195.351418 
L 435.297982 -190.718859 
L 433.340563 -187.318644 
L 431.383144 -185.403561 
L 429.425726 -185.175081 
L 427.468307 -186.272217 
L 425.510888 -188.432057 
L 423.55347 -191.481603 
L 421.596051 -195.247861 
L 419.638632 -199.557835 
L 417.681214 -204.238529 
L 415.723795 -209.116946 
L 413.766376 -214.020091 
L 411.808958 -218.774968 
L 409.851539 -223.208581 
L 407.89412 -227.147935 
L 405.936702 -230.420033 
L 403.979283 -232.85188 
L 402.021864 -234.270479 
L 400.064446 -234.634108 
L 398.107027 -234.799503 
L 396.149608 -234.95392 
L 394.19219 -235.09723 
L 392.234771 -235.229305 
L 390.277352 -235.350015 
L 388.319934 -235.459232 
L 386.362515 -235.556828 
L 384.405096 -235.642674 
L 382.447678 -235.716642 
L 380.490259 -235.778602 
L 378.53284 -235.828426 
L 376.575422 -235.865986 
L 374.618003 -235.891153 
L 372.660584 -235.903798 
L 370.703166 -235.793175 
L 368.745747 -234.941559 
L 366.788328 -233.356039 
L 364.83091 -231.159443 
L 362.873491 -228.474602 
L 360.916072 -225.424343 
L 358.958654 -222.131497 
L 357.001235 -218.718893 
L 355.043816 -215.309359 
L 353.086398 -212.025725 
L 351.128979 -208.99082 
L 349.17156 -206.327474 
L 347.214142 -204.158515 
L 345.256723 -202.606773 
L 343.299304 -201.795076 
L 341.341886 -201.806298 
L 339.384467 -202.479463 
L 337.427048 -203.702324 
L 335.46963 -205.382106 
L 333.512211 -207.426032 
L 331.554792 -209.741326 
L 329.597374 -212.235214 
L 327.639955 -214.81492 
L 325.682536 -217.387667 
L 323.725118 -219.86068 
L 321.767699 -222.141184 
L 319.81028 -224.136403 
L 317.852862 -225.753561 
L 315.895443 -226.899882 
L 313.938024 -227.48259 
L 311.980606 -227.519478 
L 310.023187 -227.414026 
L 308.065768 -227.217726 
L 306.10835 -226.935537 
L 304.150931 -226.57242 
L 302.193512 -226.133332 
L 300.236094 -225.623233 
L 298.278675 -225.047081 
L 296.321256 -224.409835 
L 294.363838 -223.716455 
L 292.406419 -222.9719 
L 290.449 -222.181127 
L 288.491582 -221.349097 
L 286.534163 -220.480768 
L 284.576744 -219.581099 
L 282.619326 -218.56076 
L 280.661907 -217.119019 
L 278.704488 -215.274544 
L 276.74707 -213.074199 
L 274.789651 -210.564848 
L 272.832232 -207.793355 
L 270.874814 -204.806584 
L 268.917395 -201.651398 
L 266.959976 -198.37466 
L 265.002558 -195.023236 
L 263.045139 -191.643987 
L 261.08772 -188.283779 
L 259.130302 -184.989474 
L 257.172883 -181.807937 
L 255.215464 -178.78603 
L 253.258046 -175.814561 
L 251.300627 -172.505276 
L 249.343208 -168.911411 
L 247.38579 -165.115397 
L 245.428371 -161.199668 
L 243.470952 -157.246654 
L 241.513534 -153.338789 
L 239.556115 -149.558505 
L 237.598696 -145.988233 
L 235.641278 -142.710407 
L 233.683859 -139.807458 
L 231.72644 -137.361819 
L 229.769022 -135.455922 
L 227.811603 -134.172199 
L 225.854184 -133.593083 
L 223.896766 -133.923225 
L 221.939347 -135.41253 
L 219.981928 -137.902474 
L 218.02451 -141.218271 
L 216.067091 -145.18514 
L 214.109672 -149.628294 
L 212.152254 -154.372951 
L 210.194835 -159.244327 
L 208.237416 -164.067636 
L 206.279998 -168.668096 
L 204.322579 -172.870923 
L 202.36516 -176.501332 
L 200.407742 -179.38454 
L 198.450323 -181.345761 
L 196.492904 -182.210214 
L 194.535486 -181.980303 
L 192.578067 -181.00097 
L 190.620648 -179.392284 
L 188.66323 -177.265143 
L 186.705811 -174.730447 
L 184.748392 -171.899095 
L 182.790974 -168.881988 
L 180.833555 -165.790023 
L 178.876136 -162.734101 
L 176.918718 -159.82512 
L 174.961299 -157.17398 
L 173.00388 -154.89158 
L 171.046462 -153.088819 
L 169.089043 -151.876598 
L 167.131624 -151.365814 
L 165.174205 -151.802435 
L 163.216787 -153.37082 
L 161.259368 -155.904607 
L 159.301949 -159.232168 
L 157.344531 -163.181877 
L 155.387112 -167.582108 
L 153.429693 -172.261232 
L 151.472275 -177.047622 
L 149.514856 -181.769653 
L 147.557437 -186.255697 
L 145.600019 -190.334126 
L 143.6426 -193.833315 
L 141.685181 -196.581635 
L 139.727763 -198.40746 
L 137.770344 -199.139163 
L 135.812925 -198.55601 
L 133.855507 -196.64016 
L 131.898088 -193.593262 
L 129.940669 -189.618195 
L 127.983251 -184.917838 
L 126.025832 -179.695068 
L 124.068413 -174.152764 
L 122.110995 -168.493805 
L 120.153576 -162.92107 
L 118.196157 -157.637436 
L 116.238739 -152.845783 
L 114.28132 -148.748989 
L 112.323901 -145.549933 
L 110.366483 -143.451492 
L 108.409064 -142.656547 
L 106.451645 -142.709277 
L 104.494227 -142.901444 
L 102.536808 -143.257569 
L 100.579389 -143.803925 
L 98.621971 -144.566785 
L 96.664552 -145.572422 
L 94.707133 -146.847109 
L 92.749715 -148.417118 
L 90.792296 -150.308723 
L 88.834877 -152.548196 
L 86.877459 -155.161811 
L 84.92004 -158.17584 
L 82.962621 -161.616555 
L 81.005203 -165.510231 
L 79.047784 -169.88314 
z
" style="stroke: #2ca02c; stroke-opacity: 0.7"/>
    </defs>
    <g clip-path="url(#pb2e59a195b)">
     <use xlink:href="#m084fc05ce3" x="0" y="424.024687" style="fill: #2ca02c; fill-opacity: 0.7; stroke: #2ca02c; stroke-opacity: 0.7"/>
    </g>
   </g>
   <g id="FillBetweenPolyCollection_4">
    <defs>
     <path id="mbbb4572c3c" d="M 79.047784 -169.88314 
L 79.047784 -169.88314 
L 81.005203 -165.510231 
L 82.962621 -161.616555 
L 84.92004 -158.17584 
L 86.877459 -155.161811 
L 88.834877 -152.548196 
L 90.792296 -150.308723 
L 92.749715 -148.417118 
L 94.707133 -146.847109 
L 96.664552 -145.572422 
L 98.621971 -144.566785 
L 100.579389 -143.803925 
L 102.536808 -143.257569 
L 104.494227 -142.901444 
L 106.451645 -142.709277 
L 108.409064 -142.656547 
L 110.366483 -143.451492 
L 112.323901 -145.549933 
L 114.28132 -148.748989 
L 116.238739 -152.845783 
L 118.196157 -157.637436 
L 120.153576 -162.92107 
L 122.110995 -168.493805 
L 124.068413 -174.152764 
L 126.025832 -179.695068 
L 127.983251 -184.917838 
L 129.940669 -189.618195 
L 131.898088 -193.593262 
L 133.855507 -196.64016 
L 135.812925 -198.55601 
L 137.770344 -199.139163 
L 139.727763 -198.40746 
L 141.685181 -196.581635 
L 143.6426 -193.833315 
L 145.600019 -190.334126 
L 147.557437 -186.255697 
L 149.514856 -181.769653 
L 151.472275 -177.047622 
L 153.429693 -172.261232 
L 155.387112 -167.582108 
L 157.344531 -163.181877 
L 159.301949 -159.232168 
L 161.259368 -155.904607 
L 163.216787 -153.37082 
L 165.174205 -151.802435 
L 167.131624 -151.365814 
L 169.089043 -151.876598 
L 171.046462 -153.088819 
L 173.00388 -154.89158 
L 174.961299 -157.17398 
L 176.918718 -159.82512 
L 178.876136 -162.734101 
L 180.833555 -165.790023 
L 182.790974 -168.881988 
L 184.748392 -171.899095 
L 186.705811 -174.730447 
L 188.66323 -177.265143 
L 190.620648 -179.392284 
L 192.578067 -181.00097 
L 194.535486 -181.980303 
L 196.492904 -182.210214 
L 198.450323 -181.345761 
L 200.407742 -179.38454 
L 202.36516 -176.501332 
L 204.322579 -172.870923 
L 206.279998 -168.668096 
L 208.237416 -164.067636 
L 210.194835 -159.244327 
L 212.152254 -154.372951 
L 214.109672 -149.628294 
L 216.067091 -145.18514 
L 218.02451 -141.218271 
L 219.981928 -137.902474 
L 221.939347 -135.41253 
L 223.896766 -133.923225 
L 225.854184 -133.593083 
L 227.811603 -134.172199 
L 229.769022 -135.455922 
L 231.72644 -137.361819 
L 233.683859 -139.807458 
L 235.641278 -142.710407 
L 237.598696 -145.988233 
L 239.556115 -149.558505 
L 241.513534 -153.338789 
L 243.470952 -157.246654 
L 245.428371 -161.199668 
L 247.38579 -165.115397 
L 249.343208 -168.911411 
L 251.300627 -172.505276 
L 253.258046 -175.814561 
L 255.215464 -178.78603 
L 257.172883 -181.807937 
L 259.130302 -184.989474 
L 261.08772 -188.283779 
L 263.045139 -191.643987 
L 265.002558 -195.023236 
L 266.959976 -198.37466 
L 268.917395 -201.651398 
L 270.874814 -204.806584 
L 272.832232 -207.793355 
L 274.789651 -210.564848 
L 276.74707 -213.074199 
L 278.704488 -215.274544 
L 280.661907 -217.119019 
L 282.619326 -218.56076 
L 284.576744 -219.581099 
L 286.534163 -220.480768 
L 288.491582 -221.349097 
L 290.449 -222.181127 
L 292.406419 -222.9719 
L 294.363838 -223.716455 
L 296.321256 -224.409835 
L 298.278675 -225.047081 
L 300.236094 -225.623233 
L 302.193512 -226.133332 
L 304.150931 -226.57242 
L 306.10835 -226.935537 
L 308.065768 -227.217726 
L 310.023187 -227.414026 
L 311.980606 -227.519478 
L 313.938024 -227.48259 
L 315.895443 -226.899882 
L 317.852862 -225.753561 
L 319.81028 -224.136403 
L 321.767699 -222.141184 
L 323.725118 -219.86068 
L 325.682536 -217.387667 
L 327.639955 -214.81492 
L 329.597374 -212.235214 
L 331.554792 -209.741326 
L 333.512211 -207.426032 
L 335.46963 -205.382106 
L 337.427048 -203.702324 
L 339.384467 -202.479463 
L 341.341886 -201.806298 
L 343.299304 -201.795076 
L 345.256723 -202.606773 
L 347.214142 -204.158515 
L 349.17156 -206.327474 
L 351.128979 -208.99082 
L 353.086398 -212.025725 
L 355.043816 -215.309359 
L 357.001235 -218.718893 
L 358.958654 -222.131497 
L 360.916072 -225.424343 
L 362.873491 -228.474602 
L 364.83091 -231.159443 
L 366.788328 -233.356039 
L 368.745747 -234.941559 
L 370.703166 -235.793175 
L 372.660584 -235.903798 
L 374.618003 -235.891153 
L 376.575422 -235.865986 
L 378.53284 -235.828426 
L 380.490259 -235.778602 
L 382.447678 -235.716642 
L 384.405096 -235.642674 
L 386.362515 -235.556828 
L 388.319934 -235.459232 
L 390.277352 -235.350015 
L 392.234771 -235.229305 
L 394.19219 -235.09723 
L 396.149608 -234.95392 
L 398.107027 -234.799503 
L 400.064446 -234.634108 
L 402.021864 -234.270479 
L 403.979283 -232.85188 
L 405.936702 -230.420033 
L 407.89412 -227.147935 
L 409.851539 -223.208581 
L 411.808958 -218.774968 
L 413.766376 -214.020091 
L 415.723795 -209.116946 
L 417.681214 -204.238529 
L 419.638632 -199.557835 
L 421.596051 -195.247861 
L 423.55347 -191.481603 
L 425.510888 -188.432057 
L 427.468307 -186.272217 
L 429.425726 -185.175081 
L 431.383144 -185.403561 
L 433.340563 -187.318644 
L 435.297982 -190.718859 
L 437.2554 -195.351418 
L 439.212819 -200.963532 
L 441.170238 -207.302413 
L 443.127656 -214.115272 
L 445.085075 -221.149321 
L 447.042494 -228.151771 
L 448.999912 -234.869835 
L 450.957331 -241.050723 
L 452.91475 -246.441647 
L 454.872168 -250.789819 
L 456.829587 -253.84245 
L 458.787006 -255.346752 
L 460.744424 -255.20007 
L 462.701843 -253.858473 
L 464.659262 -251.526825 
L 466.61668 -248.375092 
L 468.574099 -244.573239 
L 470.531518 -240.291233 
L 472.488936 -235.69904 
L 474.446355 -230.966624 
L 476.403774 -226.263953 
L 478.361192 -221.760991 
L 480.318611 -217.627705 
L 482.27603 -214.034061 
L 484.233448 -211.150024 
L 486.190867 -209.14556 
L 488.148286 -208.190635 
L 490.105704 -208.27142 
L 492.063123 -208.908908 
L 494.020542 -210.001388 
L 495.97796 -211.477285 
L 497.935379 -213.265025 
L 499.892798 -215.293032 
L 501.850216 -217.48973 
L 503.807635 -219.783546 
L 505.765054 -222.102903 
L 507.722472 -224.376227 
L 509.679891 -226.531943 
L 511.63731 -228.498475 
L 513.594728 -230.204249 
L 515.552147 -231.577688 
L 517.509566 -232.547219 
L 519.466984 -233.366145 
L 521.424403 -234.748822 
L 523.381822 -236.643838 
L 525.33924 -238.963518 
L 527.296659 -241.620186 
L 529.254078 -244.526164 
L 531.211496 -247.593778 
L 533.168915 -250.735351 
L 535.126334 -253.863207 
L 537.083752 -256.88967 
L 539.041171 -259.727063 
L 540.99859 -262.28771 
L 542.956008 -264.483936 
L 544.913427 -266.228063 
L 546.870846 -267.432417 
L 548.828264 -268.354393 
L 550.785683 -269.634823 
L 552.743102 -271.238494 
L 554.70052 -273.108832 
L 556.657939 -275.189263 
L 558.615358 -277.423213 
L 560.572776 -279.754109 
L 562.530195 -282.125378 
L 564.487614 -284.480445 
L 566.445032 -286.762737 
L 568.402451 -288.91568 
L 570.35987 -290.8827 
L 572.317288 -292.607225 
L 574.274707 -294.03268 
L 576.232126 -295.102491 
L 578.189545 -296.127184 
L 580.146963 -297.669853 
L 582.104382 -299.653935 
L 584.061801 -301.991317 
L 586.019219 -304.593885 
L 587.976638 -307.373526 
L 589.934057 -310.242126 
L 591.891475 -313.111572 
L 593.848894 -315.89375 
L 595.806313 -318.500548 
L 597.763731 -320.843851 
L 599.72115 -322.835547 
L 601.678569 -324.387521 
L 603.635987 -325.411661 
L 605.593406 -325.819853 
L 607.550825 -325.148592 
L 609.508243 -322.948481 
L 611.465662 -319.434708 
L 613.423081 -314.827607 
L 615.380499 -309.347514 
L 617.337918 -303.214763 
L 619.295337 -296.64969 
L 621.252755 -289.872631 
L 623.210174 -283.10392 
L 625.167593 -276.563892 
L 627.125011 -270.472884 
L 629.08243 -265.051229 
L 631.039849 -260.519263 
L 632.997267 -257.097322 
L 634.954686 -255.005741 
L 636.912105 -253.81822 
L 638.869523 -252.837143 
L 640.826942 -252.070653 
L 642.784361 -251.528598 
L 644.741779 -251.220826 
L 646.699198 -251.157186 
L 648.656617 -251.347525 
L 650.614035 -251.801691 
L 652.571454 -252.529533 
L 654.528873 -253.540898 
L 656.486291 -254.845634 
L 658.44371 -256.45359 
L 660.401129 -258.374614 
L 662.358547 -260.618553 
L 664.315966 -263.195256 
L 664.315966 -320.945996 
L 664.315966 -320.945996 
L 662.358547 -316.05875 
L 660.401129 -311.567432 
L 658.44371 -307.476583 
L 656.486291 -303.790748 
L 654.528873 -300.514468 
L 652.571454 -297.652285 
L 650.614035 -295.208743 
L 648.656617 -293.188384 
L 646.699198 -291.59575 
L 644.741779 -290.435384 
L 642.784361 -289.711829 
L 640.826942 -289.429627 
L 638.869523 -289.59332 
L 636.912105 -290.207452 
L 634.954686 -291.27812 
L 632.997267 -293.446401 
L 631.039849 -297.070809 
L 629.08243 -301.911434 
L 627.125011 -307.728365 
L 625.167593 -314.281693 
L 623.210174 -321.331508 
L 621.252755 -328.637901 
L 619.295337 -335.960962 
L 617.337918 -343.06078 
L 615.380499 -349.697446 
L 613.423081 -355.63105 
L 611.465662 -360.621683 
L 609.508243 -364.429434 
L 607.550825 -366.814394 
L 605.593406 -367.542061 
L 603.635987 -367.078556 
L 601.678569 -365.913256 
L 599.72115 -364.142959 
L 597.763731 -361.864459 
L 595.806313 -359.174553 
L 593.848894 -356.170037 
L 591.891475 -352.947707 
L 589.934057 -349.604359 
L 587.976638 -346.236788 
L 586.019219 -342.941792 
L 584.061801 -339.816165 
L 582.104382 -336.956704 
L 580.146963 -334.460205 
L 578.189545 -332.423464 
L 576.232126 -330.930236 
L 574.274707 -329.344894 
L 572.317288 -327.325288 
L 570.35987 -324.945245 
L 568.402451 -322.278589 
L 566.445032 -319.399144 
L 564.487614 -316.380737 
L 562.530195 -313.297191 
L 560.572776 -310.222331 
L 558.615358 -307.229983 
L 556.657939 -304.393972 
L 554.70052 -301.788122 
L 552.743102 -299.486258 
L 550.785683 -297.562205 
L 548.828264 -296.089789 
L 546.870846 -295.124276 
L 544.913427 -294.120683 
L 542.956008 -292.832029 
L 540.99859 -291.305399 
L 539.041171 -289.587877 
L 537.083752 -287.726548 
L 535.126334 -285.768496 
L 533.168915 -283.760805 
L 531.211496 -281.750559 
L 529.254078 -279.784843 
L 527.296659 -277.910742 
L 525.33924 -276.17534 
L 523.381822 -274.62572 
L 521.424403 -273.308968 
L 519.466984 -272.272167 
L 517.509566 -271.534129 
L 515.552147 -270.527386 
L 513.594728 -269.070514 
L 511.63731 -267.239234 
L 509.679891 -265.109267 
L 507.722472 -262.756335 
L 505.765054 -260.256158 
L 503.807635 -257.684457 
L 501.850216 -255.116953 
L 499.892798 -252.629367 
L 497.935379 -250.297421 
L 495.97796 -248.196834 
L 494.020542 -246.403328 
L 492.063123 -244.992625 
L 490.105704 -244.040444 
L 488.148286 -243.649338 
L 486.190867 -244.25162 
L 484.233448 -245.851464 
L 482.27603 -248.287606 
L 480.318611 -251.398784 
L 478.361192 -255.023735 
L 476.403774 -259.001197 
L 474.446355 -263.169906 
L 472.488936 -267.368601 
L 470.531518 -271.436019 
L 468.574099 -275.210897 
L 466.61668 -278.531971 
L 464.659262 -281.237981 
L 462.701843 -283.167662 
L 460.744424 -284.159753 
L 458.787006 -284.016467 
L 456.829587 -282.266572 
L 454.872168 -279.001826 
L 452.91475 -274.468661 
L 450.957331 -268.913511 
L 448.999912 -262.58281 
L 447.042494 -255.72299 
L 445.085075 -248.580485 
L 443.127656 -241.401729 
L 441.170238 -234.433155 
L 439.212819 -227.921196 
L 437.2554 -222.112286 
L 435.297982 -217.252857 
L 433.340563 -213.589344 
L 431.383144 -211.36818 
L 429.425726 -210.742061 
L 427.468307 -210.980391 
L 425.510888 -211.802297 
L 423.55347 -213.117616 
L 421.596051 -214.836189 
L 419.638632 -216.867855 
L 417.681214 -219.122453 
L 415.723795 -221.509821 
L 413.766376 -223.9398 
L 411.808958 -226.322228 
L 409.851539 -228.566945 
L 407.89412 -230.583789 
L 405.936702 -232.2826 
L 403.979283 -233.573217 
L 402.021864 -234.365479 
L 400.064446 -234.69423 
L 398.107027 -235.395365 
L 396.149608 -236.574086 
L 394.19219 -238.14932 
L 392.234771 -240.039994 
L 390.277352 -242.165032 
L 388.319934 -244.443363 
L 386.362515 -246.793911 
L 384.405096 -249.135603 
L 382.447678 -251.387366 
L 380.490259 -253.468125 
L 378.53284 -255.296807 
L 376.575422 -256.792338 
L 374.618003 -257.873644 
L 372.660584 -258.459651 
L 370.703166 -258.435772 
L 368.745747 -257.596309 
L 366.788328 -256.022081 
L 364.83091 -253.835914 
L 362.873491 -251.160637 
L 360.916072 -248.119077 
L 358.958654 -244.834062 
L 357.001235 -241.42842 
L 355.043816 -238.024977 
L 353.086398 -234.746563 
L 351.128979 -231.716004 
L 349.17156 -229.056129 
L 347.214142 -226.889764 
L 345.256723 -225.339738 
L 343.299304 -224.528879 
L 341.341886 -224.450147 
L 339.384467 -224.530906 
L 337.427048 -224.677614 
L 335.46963 -224.879138 
L 333.512211 -225.124349 
L 331.554792 -225.402116 
L 329.597374 -225.701308 
L 327.639955 -226.010797 
L 325.682536 -226.319451 
L 323.725118 -226.616139 
L 321.767699 -226.889732 
L 319.81028 -227.1291 
L 317.852862 -227.323111 
L 315.895443 -227.460635 
L 313.938024 -227.530543 
L 311.980606 -227.684673 
L 310.023187 -228.53492 
L 308.065768 -230.035456 
L 306.10835 -232.065091 
L 304.150931 -234.502631 
L 302.193512 -237.226886 
L 300.236094 -240.116662 
L 298.278675 -243.050768 
L 296.321256 -245.908011 
L 294.363838 -248.5672 
L 292.406419 -250.907142 
L 290.449 -252.806646 
L 288.491582 -254.144518 
L 286.534163 -254.799568 
L 284.576744 -254.650602 
L 282.619326 -253.625537 
L 280.661907 -251.861868 
L 278.704488 -249.446017 
L 276.74707 -246.454198 
L 274.789651 -242.962624 
L 272.832232 -239.047511 
L 270.874814 -234.78507 
L 268.917395 -230.251518 
L 266.959976 -225.523067 
L 265.002558 -220.675932 
L 263.045139 -215.786326 
L 261.08772 -210.930463 
L 259.130302 -206.184557 
L 257.172883 -201.624823 
L 255.215464 -197.327474 
L 253.258046 -193.135719 
L 251.300627 -188.469811 
L 249.343208 -183.402588 
L 247.38579 -178.050286 
L 245.428371 -172.529143 
L 243.470952 -166.955393 
L 241.513534 -161.445274 
L 239.556115 -156.115021 
L 237.598696 -151.08087 
L 235.641278 -146.459058 
L 233.683859 -142.365821 
L 231.72644 -138.917395 
L 229.769022 -136.230016 
L 227.811603 -134.41992 
L 225.854184 -133.603344 
L 223.896766 -133.923225 
L 221.939347 -135.41253 
L 219.981928 -137.902474 
L 218.02451 -141.218271 
L 216.067091 -145.18514 
L 214.109672 -149.628294 
L 212.152254 -154.372951 
L 210.194835 -159.244327 
L 208.237416 -164.067636 
L 206.279998 -168.668096 
L 204.322579 -172.870923 
L 202.36516 -176.501332 
L 200.407742 -179.38454 
L 198.450323 -181.345761 
L 196.492904 -182.210214 
L 194.535486 -181.980303 
L 192.578067 -181.00097 
L 190.620648 -179.392284 
L 188.66323 -177.265143 
L 186.705811 -174.730447 
L 184.748392 -171.899095 
L 182.790974 -168.881988 
L 180.833555 -165.790023 
L 178.876136 -162.734101 
L 176.918718 -159.82512 
L 174.961299 -157.17398 
L 173.00388 -154.89158 
L 171.046462 -153.088819 
L 169.089043 -151.876598 
L 167.131624 -151.365814 
L 165.174205 -151.802435 
L 163.216787 -153.37082 
L 161.259368 -155.904607 
L 159.301949 -159.232168 
L 157.344531 -163.181877 
L 155.387112 -167.582108 
L 153.429693 -172.261232 
L 151.472275 -177.047622 
L 149.514856 -181.769653 
L 147.557437 -186.255697 
L 145.600019 -190.334126 
L 143.6426 -193.833315 
L 141.685181 -196.581635 
L 139.727763 -198.40746 
L 137.770344 -199.139163 
L 135.812925 -198.55601 
L 133.855507 -196.64016 
L 131.898088 -193.593262 
L 129.940669 -189.618195 
L 127.983251 -184.917838 
L 126.025832 -179.695068 
L 124.068413 -174.152764 
L 122.110995 -168.493805 
L 120.153576 -162.92107 
L 118.196157 -157.637436 
L 116.238739 -152.845783 
L 114.28132 -148.748989 
L 112.323901 -145.549933 
L 110.366483 -143.451492 
L 108.409064 -142.656547 
L 106.451645 -142.709277 
L 104.494227 -142.901444 
L 102.536808 -143.257569 
L 100.579389 -143.803925 
L 98.621971 -144.566785 
L 96.664552 -145.572422 
L 94.707133 -146.847109 
L 92.749715 -148.417118 
L 90.792296 -150.308723 
L 88.834877 -152.548196 
L 86.877459 -155.161811 
L 84.92004 -158.17584 
L 82.962621 -161.616555 
L 81.005203 -165.510231 
L 79.047784 -169.88314 
z
" style="stroke: #ff7f0e; stroke-opacity: 0.7"/>
    </defs>
    <g clip-path="url(#pb2e59a195b)">
     <use xlink:href="#mbbb4572c3c" x="0" y="424.024687" style="fill: #ff7f0e; fill-opacity: 0.7; stroke: #ff7f0e; stroke-opacity: 0.7"/>
    </g>
   </g>
   <g id="legend_1">
    <g id="patch_3">
     <path d="M 58.784375 28.139063 
L 78.784375 28.139063 
L 78.784375 21.139063 
L 58.784375 21.139063 
z
" style="fill: #d62728; fill-opacity: 0.7; stroke: #d62728; stroke-opacity: 0.7; stroke-linejoin: miter"/>
    </g>
    <g id="text_17">
     <!-- Solo -->
     <g transform="translate(86.784375 28.139063) scale(0.1 -0.1)">
      <defs>
       <path id="NotoSansCJKjp-Regular-53" d="M 1946 -83 
C 2925 -83 3539 506 3539 1248 
C 3539 1946 3117 2266 2573 2502 
L 1901 2790 
C 1536 2944 1126 3117 1126 3571 
C 1126 3994 1472 4262 2003 4262 
C 2438 4262 2784 4090 3072 3821 
L 3386 4198 
C 3053 4544 2560 4781 2003 4781 
C 1152 4781 525 4256 525 3533 
C 525 2848 1043 2515 1478 2330 
L 2157 2035 
C 2598 1837 2938 1683 2938 1203 
C 2938 742 2566 435 1952 435 
C 1466 435 992 666 659 1018 
L 301 614 
C 710 186 1280 -83 1946 -83 
z
" transform="scale(0.015625)"/>
       <path id="NotoSansCJKjp-Regular-6c" d="M 1203 -83 
C 1363 -83 1459 -64 1542 -32 
L 1459 416 
C 1395 403 1370 403 1338 403 
C 1248 403 1171 474 1171 653 
L 1171 5094 
L 589 5094 
L 589 691 
C 589 198 768 -83 1203 -83 
z
" transform="scale(0.015625)"/>
      </defs>
      <use xlink:href="#NotoSansCJKjp-Regular-53"/>
      <use xlink:href="#NotoSansCJKjp-Regular-6f" transform="translate(59.699997 0)"/>
      <use xlink:href="#NotoSansCJKjp-Regular-6c" transform="translate(120.299988 0)"/>
      <use xlink:href="#NotoSansCJKjp-Regular-6f" transform="translate(148.799973 0)"/>
     </g>
    </g>
    <g id="patch_4">
     <path d="M 58.784375 43.389063 
L 78.784375 43.389063 
L 78.784375 36.389063 
L 58.784375 36.389063 
z
" style="fill: #1f77b4; fill-opacity: 0.7; stroke: #1f77b4; stroke-opacity: 0.7; stroke-linejoin: miter"/>
    </g>
    <g id="text_18">
     <!-- Initial -->
     <g transform="translate(86.784375 43.389063) scale(0.1 -0.1)">
      <defs>
       <path id="NotoSansCJKjp-Regular-49" d="M 640 0 
L 1235 0 
L 1235 4698 
L 640 4698 
L 640 0 
z
" transform="scale(0.015625)"/>
      </defs>
      <use xlink:href="#NotoSansCJKjp-Regular-49"/>
      <use xlink:href="#NotoSansCJKjp-Regular-6e" transform="translate(29.299988 0)"/>
      <use xlink:href="#NotoSansCJKjp-Regular-69" transform="translate(90.399979 0)"/>
      <use xlink:href="#NotoSansCJKjp-Regular-74" transform="translate(117.899963 0)"/>
      <use xlink:href="#NotoSansCJKjp-Regular-69" transform="translate(155.59996 0)"/>
      <use xlink:href="#NotoSansCJKjp-Regular-61" transform="translate(183.099945 0)"/>
      <use xlink:href="#NotoSansCJKjp-Regular-6c" transform="translate(239.499939 0)"/>
     </g>
    </g>
    <g id="patch_5">
     <path d="M 58.784375 58.639063 
L 78.784375 58.639063 
L 78.784375 51.639063 
L 58.784375 51.639063 
z
" style="fill: #2ca02c; fill-opacity: 0.7; stroke: #2ca02c; stroke-opacity: 0.7; stroke-linejoin: miter"/>
    </g>
    <g id="text_19">
     <!-- Middle -->
     <g transform="translate(86.784375 58.639063) scale(0.1 -0.1)">
      <defs>
       <path id="NotoSansCJKjp-Regular-4d" d="M 640 0 
L 1178 0 
L 1178 2598 
C 1178 3002 1133 3571 1107 3981 
L 1133 3981 
L 1504 2912 
L 2394 474 
L 2790 474 
L 3680 2912 
L 4051 3981 
L 4077 3981 
C 4045 3571 4000 3002 4000 2598 
L 4000 0 
L 4557 0 
L 4557 4698 
L 3840 4698 
L 2944 2182 
C 2835 1856 2733 1530 2624 1203 
L 2592 1203 
C 2477 1530 2368 1856 2259 2182 
L 1357 4698 
L 640 4698 
L 640 0 
z
" transform="scale(0.015625)"/>
       <path id="NotoSansCJKjp-Regular-64" d="M 1773 -83 
C 2189 -83 2554 141 2829 410 
L 2848 410 
L 2899 0 
L 3373 0 
L 3373 5094 
L 2797 5094 
L 2797 3757 
L 2822 3155 
C 2515 3411 2253 3565 1843 3565 
C 1050 3565 339 2861 339 1734 
C 339 576 902 -83 1773 -83 
z
M 1901 403 
C 1286 403 941 902 941 1741 
C 941 2534 1382 3072 1946 3072 
C 2234 3072 2496 2970 2797 2707 
L 2797 883 
C 2502 563 2221 403 1901 403 
z
" transform="scale(0.015625)"/>
      </defs>
      <use xlink:href="#NotoSansCJKjp-Regular-4d"/>
      <use xlink:href="#NotoSansCJKjp-Regular-69" transform="translate(81.199982 0)"/>
      <use xlink:href="#NotoSansCJKjp-Regular-64" transform="translate(108.699966 0)"/>
      <use xlink:href="#NotoSansCJKjp-Regular-64" transform="translate(170.699951 0)"/>
      <use xlink:href="#NotoSansCJKjp-Regular-6c" transform="translate(232.699936 0)"/>
      <use xlink:href="#NotoSansCJKjp-Regular-65" transform="translate(261.199921 0)"/>
     </g>
    </g>
    <g id="patch_6">
     <path d="M 58.784375 73.889063 
L 78.784375 73.889063 
L 78.784375 66.889063 
L 58.784375 66.889063 
z
" style="fill: #ff7f0e; fill-opacity: 0.7; stroke: #ff7f0e; stroke-opacity: 0.7; stroke-linejoin: miter"/>
    </g>
    <g id="text_20">
     <!-- End -->
     <g transform="translate(86.784375 73.889063) scale(0.1 -0.1)">
      <defs>
       <path id="NotoSansCJKjp-Regular-45" d="M 640 0 
L 3418 0 
L 3418 506 
L 1235 506 
L 1235 2214 
L 3014 2214 
L 3014 2720 
L 1235 2720 
L 1235 4192 
L 3347 4192 
L 3347 4698 
L 640 4698 
L 640 0 
z
" transform="scale(0.015625)"/>
      </defs>
      <use xlink:href="#NotoSansCJKjp-Regular-45"/>
      <use xlink:href="#NotoSansCJKjp-Regular-6e" transform="translate(58.799988 0)"/>
      <use xlink:href="#NotoSansCJKjp-Regular-64" transform="translate(119.899979 0)"/>
     </g>
    </g>
   </g>
  </g>
 </g>
 <defs>
  <clipPath id="pb2e59a195b">
   <rect x="49.784375" y="11.179688" width="643.795" height="373.12"/>
  </clipPath>
 </defs>
</svg>
