<?xml version="1.0" encoding="utf-8" standalone="no"?>
<!DOCTYPE svg PUBLIC "-//W3C//DTD SVG 1.1//EN"
  "http://www.w3.org/Graphics/SVG/1.1/DTD/svg11.dtd">
<svg xmlns:xlink="http://www.w3.org/1999/xlink" width="314.141607pt" height="217.083125pt" viewBox="0 0 314.141607 217.083125" xmlns="http://www.w3.org/2000/svg" version="1.1">
 <metadata>
  <rdf:RDF xmlns:dc="http://purl.org/dc/elements/1.1/" xmlns:cc="http://creativecommons.org/ns#" xmlns:rdf="http://www.w3.org/1999/02/22-rdf-syntax-ns#">
   <cc:Work>
    <dc:type rdf:resource="http://purl.org/dc/dcmitype/StillImage"/>
    <dc:date>2026-04-28T10:28:07.514311</dc:date>
    <dc:format>image/svg+xml</dc:format>
    <dc:creator>
     <cc:Agent>
      <dc:title>Matplotlib v3.10.7, https://matplotlib.org/</dc:title>
     </cc:Agent>
    </dc:creator>
   </cc:Work>
  </rdf:RDF>
 </metadata>
 <defs>
  <style type="text/css">*{stroke-linejoin: round; stroke-linecap: butt}</style>
 </defs>
 <g id="figure_1">
  <g id="patch_1">
   <path d="M 0 217.083125 
L 314.141607 217.083125 
L 314.141607 0 
L 0 0 
z
" style="fill: #ffffff"/>
  </g>
  <g id="axes_1">
   <g id="patch_2">
    <path d="M 35.442813 182.68 
L 301.018482 182.68 
L 301.018482 7.2 
L 35.442813 7.2 
z
" style="fill: #ffffff"/>
   </g>
   <g id="matplotlib.axis_1">
    <g id="xtick_1">
     <g id="line2d_1">
      <defs>
       <path id="m2f27e542a1" d="M 0 0 
L 0 3.5 
" style="stroke: #000000; stroke-width: 0.8"/>
      </defs>
      <g>
       <use xlink:href="#m2f27e542a1" x="47.514434" y="182.68" style="stroke: #000000; stroke-width: 0.8"/>
      </g>
     </g>
     <g id="text_1">
      <!-- 1989 -->
      <g transform="translate(41.591309 194.18) scale(0.06 -0.06)">
       <defs>
        <path id="RobotoCondensed-Regular-31" d="M 2013 4575 
L 2013 0 
L 1459 0 
L 1459 3853 
L 503 3428 
L 503 3950 
L 1928 4575 
L 2013 4575 
z
" transform="scale(0.015625)"/>
        <path id="RobotoCondensed-Regular-39" d="M 2744 2563 
Q 2744 2119 2687 1667 
Q 2631 1216 2450 836 
Q 2269 456 1903 225 
Q 1538 -6 869 -6 
L 866 484 
Q 1428 484 1698 690 
Q 1969 897 2072 1233 
Q 2175 1569 2191 1950 
Q 1859 1522 1413 1522 
Q 1025 1522 786 1747 
Q 547 1972 436 2320 
Q 325 2669 325 3041 
Q 325 3691 623 4152 
Q 922 4613 1522 4613 
Q 1969 4613 2237 4344 
Q 2506 4075 2625 3653 
Q 2744 3231 2744 2772 
L 2744 2563 
z
M 866 3072 
Q 866 2666 1020 2334 
Q 1175 2003 1506 2003 
Q 1716 2003 1906 2179 
Q 2097 2356 2194 2616 
L 2194 2850 
Q 2194 3472 1983 3803 
Q 1772 4134 1522 4134 
Q 1206 4134 1036 3829 
Q 866 3525 866 3072 
z
" transform="scale(0.015625)"/>
        <path id="RobotoCondensed-Regular-38" d="M 2794 1231 
Q 2794 606 2445 271 
Q 2097 -63 1578 -63 
Q 1063 -63 714 273 
Q 366 609 366 1231 
Q 366 1613 536 1905 
Q 706 2197 1000 2347 
Q 450 2666 450 3366 
Q 450 3963 769 4288 
Q 1088 4613 1581 4613 
Q 2075 4613 2392 4288 
Q 2709 3963 2709 3366 
Q 2709 3028 2557 2761 
Q 2406 2494 2150 2344 
Q 2444 2194 2619 1901 
Q 2794 1609 2794 1231 
z
M 2156 3356 
Q 2156 3697 2000 3917 
Q 1844 4138 1581 4138 
Q 1319 4138 1161 3927 
Q 1003 3716 1003 3356 
Q 1003 3003 1159 2790 
Q 1316 2578 1581 2578 
Q 1844 2578 2000 2790 
Q 2156 3003 2156 3356 
z
M 2244 1244 
Q 2244 1625 2061 1865 
Q 1878 2106 1575 2106 
Q 1266 2106 1091 1865 
Q 916 1625 916 1244 
Q 916 850 1089 631 
Q 1263 413 1578 413 
Q 1897 413 2070 631 
Q 2244 850 2244 1244 
z
" transform="scale(0.015625)"/>
       </defs>
       <use xlink:href="#RobotoCondensed-Regular-31"/>
       <use xlink:href="#RobotoCondensed-Regular-39" transform="translate(49.365234 0)"/>
       <use xlink:href="#RobotoCondensed-Regular-38" transform="translate(98.730469 0)"/>
       <use xlink:href="#RobotoCondensed-Regular-39" transform="translate(148.095703 0)"/>
      </g>
     </g>
    </g>
    <g id="xtick_2">
     <g id="line2d_2">
      <g>
       <use xlink:href="#m2f27e542a1" x="83.729298" y="182.68" style="stroke: #000000; stroke-width: 0.8"/>
      </g>
     </g>
     <g id="text_2">
      <!-- 1992 -->
      <g transform="translate(77.806173 194.18) scale(0.06 -0.06)">
       <defs>
        <path id="RobotoCondensed-Regular-32" d="M 2909 475 
L 2909 0 
L 366 0 
L 366 416 
L 1628 2088 
Q 1966 2541 2077 2802 
Q 2188 3063 2188 3328 
Q 2188 3663 2027 3900 
Q 1866 4138 1575 4138 
Q 1194 4138 1022 3878 
Q 850 3619 850 3213 
L 297 3213 
Q 297 3788 617 4200 
Q 938 4613 1575 4613 
Q 2125 4613 2433 4278 
Q 2741 3944 2741 3397 
Q 2741 2997 2541 2594 
Q 2341 2191 2047 1809 
L 1028 475 
L 2909 475 
z
" transform="scale(0.015625)"/>
       </defs>
       <use xlink:href="#RobotoCondensed-Regular-31"/>
       <use xlink:href="#RobotoCondensed-Regular-39" transform="translate(49.365234 0)"/>
       <use xlink:href="#RobotoCondensed-Regular-39" transform="translate(98.730469 0)"/>
       <use xlink:href="#RobotoCondensed-Regular-32" transform="translate(148.095703 0)"/>
      </g>
     </g>
    </g>
    <g id="xtick_3">
     <g id="line2d_3">
      <g>
       <use xlink:href="#m2f27e542a1" x="119.944162" y="182.68" style="stroke: #000000; stroke-width: 0.8"/>
      </g>
     </g>
     <g id="text_3">
      <!-- 1995 -->
      <g transform="translate(114.021037 194.18) scale(0.06 -0.06)">
       <defs>
        <path id="RobotoCondensed-Regular-35" d="M 1034 2166 
L 594 2284 
L 788 4550 
L 2769 4550 
L 2769 4016 
L 1253 4016 
L 1147 2778 
Q 1438 2975 1753 2975 
Q 2288 2975 2591 2561 
Q 2894 2147 2894 1450 
Q 2894 797 2584 367 
Q 2275 -63 1656 -63 
Q 1194 -63 850 248 
Q 506 559 453 1197 
L 975 1197 
Q 1066 413 1656 413 
Q 1978 413 2159 691 
Q 2341 969 2341 1444 
Q 2341 1872 2153 2164 
Q 1966 2456 1619 2456 
Q 1384 2456 1273 2378 
Q 1163 2300 1034 2166 
z
" transform="scale(0.015625)"/>
       </defs>
       <use xlink:href="#RobotoCondensed-Regular-31"/>
       <use xlink:href="#RobotoCondensed-Regular-39" transform="translate(49.365234 0)"/>
       <use xlink:href="#RobotoCondensed-Regular-39" transform="translate(98.730469 0)"/>
       <use xlink:href="#RobotoCondensed-Regular-35" transform="translate(148.095703 0)"/>
      </g>
     </g>
    </g>
    <g id="xtick_4">
     <g id="line2d_4">
      <g>
       <use xlink:href="#m2f27e542a1" x="156.159026" y="182.68" style="stroke: #000000; stroke-width: 0.8"/>
      </g>
     </g>
     <g id="text_4">
      <!-- 1998 -->
      <g transform="translate(150.235901 194.18) scale(0.06 -0.06)">
       <use xlink:href="#RobotoCondensed-Regular-31"/>
       <use xlink:href="#RobotoCondensed-Regular-39" transform="translate(49.365234 0)"/>
       <use xlink:href="#RobotoCondensed-Regular-39" transform="translate(98.730469 0)"/>
       <use xlink:href="#RobotoCondensed-Regular-38" transform="translate(148.095703 0)"/>
      </g>
     </g>
    </g>
    <g id="xtick_5">
     <g id="line2d_5">
      <g>
       <use xlink:href="#m2f27e542a1" x="192.37389" y="182.68" style="stroke: #000000; stroke-width: 0.8"/>
      </g>
     </g>
     <g id="text_5">
      <!-- 2001 -->
      <g transform="translate(186.450765 194.18) scale(0.06 -0.06)">
       <defs>
        <path id="RobotoCondensed-Regular-30" d="M 2797 1944 
Q 2797 825 2467 381 
Q 2138 -63 1581 -63 
Q 1038 -63 703 370 
Q 369 803 359 1878 
L 359 2638 
Q 359 3753 695 4183 
Q 1031 4613 1578 4613 
Q 2131 4613 2461 4189 
Q 2791 3766 2797 2681 
L 2797 1944 
z
M 2247 2734 
Q 2247 3503 2073 3822 
Q 1900 4141 1578 4141 
Q 1266 4141 1092 3833 
Q 919 3525 913 2791 
L 913 1850 
Q 913 1088 1089 750 
Q 1266 413 1581 413 
Q 1903 413 2072 738 
Q 2241 1063 2247 1794 
L 2247 2734 
z
" transform="scale(0.015625)"/>
       </defs>
       <use xlink:href="#RobotoCondensed-Regular-32"/>
       <use xlink:href="#RobotoCondensed-Regular-30" transform="translate(49.365234 0)"/>
       <use xlink:href="#RobotoCondensed-Regular-30" transform="translate(98.730469 0)"/>
       <use xlink:href="#RobotoCondensed-Regular-31" transform="translate(148.095703 0)"/>
      </g>
     </g>
    </g>
    <g id="xtick_6">
     <g id="line2d_6">
      <g>
       <use xlink:href="#m2f27e542a1" x="228.588754" y="182.68" style="stroke: #000000; stroke-width: 0.8"/>
      </g>
     </g>
     <g id="text_6">
      <!-- 2004 -->
      <g transform="translate(222.665629 194.18) scale(0.06 -0.06)">
       <defs>
        <path id="RobotoCondensed-Regular-34" d="M 188 1397 
L 1878 4550 
L 2463 4550 
L 2463 1531 
L 2969 1531 
L 2969 1056 
L 2463 1056 
L 2463 0 
L 1909 0 
L 1909 1056 
L 188 1056 
L 188 1397 
z
M 803 1531 
L 1909 1531 
L 1909 3703 
L 1878 3638 
L 803 1531 
z
" transform="scale(0.015625)"/>
       </defs>
       <use xlink:href="#RobotoCondensed-Regular-32"/>
       <use xlink:href="#RobotoCondensed-Regular-30" transform="translate(49.365234 0)"/>
       <use xlink:href="#RobotoCondensed-Regular-30" transform="translate(98.730469 0)"/>
       <use xlink:href="#RobotoCondensed-Regular-34" transform="translate(148.095703 0)"/>
      </g>
     </g>
    </g>
    <g id="xtick_7">
     <g id="line2d_7">
      <g>
       <use xlink:href="#m2f27e542a1" x="264.803618" y="182.68" style="stroke: #000000; stroke-width: 0.8"/>
      </g>
     </g>
     <g id="text_7">
      <!-- 2007 -->
      <g transform="translate(258.880493 194.18) scale(0.06 -0.06)">
       <defs>
        <path id="RobotoCondensed-Regular-37" d="M 2878 4550 
L 2878 4225 
L 1313 0 
L 731 0 
L 2297 4075 
L 269 4075 
L 269 4550 
L 2878 4550 
z
" transform="scale(0.015625)"/>
       </defs>
       <use xlink:href="#RobotoCondensed-Regular-32"/>
       <use xlink:href="#RobotoCondensed-Regular-30" transform="translate(49.365234 0)"/>
       <use xlink:href="#RobotoCondensed-Regular-30" transform="translate(98.730469 0)"/>
       <use xlink:href="#RobotoCondensed-Regular-37" transform="translate(148.095703 0)"/>
      </g>
     </g>
    </g>
    <g id="xtick_8">
     <g id="line2d_8">
      <g>
       <use xlink:href="#m2f27e542a1" x="301.018482" y="182.68" style="stroke: #000000; stroke-width: 0.8"/>
      </g>
     </g>
     <g id="text_8">
      <!-- 2010 -->
      <g transform="translate(295.095357 194.18) scale(0.06 -0.06)">
       <use xlink:href="#RobotoCondensed-Regular-32"/>
       <use xlink:href="#RobotoCondensed-Regular-30" transform="translate(49.365234 0)"/>
       <use xlink:href="#RobotoCondensed-Regular-31" transform="translate(98.730469 0)"/>
       <use xlink:href="#RobotoCondensed-Regular-30" transform="translate(148.095703 0)"/>
      </g>
     </g>
    </g>
    <g id="text_9">
     <!-- Year -->
     <g transform="translate(158.455257 207.64875) scale(0.11 -0.11)">
      <defs>
       <path id="RobotoCondensed-Regular-59" d="M 747 4550 
L 1675 2266 
L 2606 4550 
L 3256 4550 
L 1963 1700 
L 1963 0 
L 1388 0 
L 1388 1700 
L 94 4550 
L 747 4550 
z
" transform="scale(0.015625)"/>
       <path id="RobotoCondensed-Regular-65" d="M 2722 447 
Q 2584 253 2323 95 
Q 2063 -63 1625 -63 
Q 1019 -63 666 301 
Q 313 666 309 1431 
L 309 1828 
Q 309 2722 696 3083 
Q 1084 3444 1563 3444 
Q 2197 3444 2472 3034 
Q 2747 2625 2747 1850 
L 2747 1528 
L 863 1528 
L 863 1447 
Q 863 906 1067 657 
Q 1272 409 1656 409 
Q 1934 409 2114 517 
Q 2294 625 2431 794 
L 2722 447 
z
M 1563 2969 
Q 1275 2969 1084 2770 
Q 894 2572 866 2000 
L 2194 2000 
L 2194 2078 
Q 2172 2469 2048 2719 
Q 1925 2969 1563 2969 
z
" transform="scale(0.015625)"/>
       <path id="RobotoCondensed-Regular-61" d="M 2156 0 
Q 2103 122 2081 366 
Q 1966 194 1775 65 
Q 1584 -63 1334 -63 
Q 891 -63 623 187 
Q 356 438 356 922 
Q 356 1409 690 1729 
Q 1025 2050 1691 2050 
L 2072 2050 
L 2072 2413 
Q 2072 2713 1936 2841 
Q 1800 2969 1528 2969 
Q 1263 2969 1114 2812 
Q 966 2656 966 2444 
L 413 2444 
Q 413 2806 722 3125 
Q 1031 3444 1556 3444 
Q 2025 3444 2325 3209 
Q 2625 2975 2625 2406 
L 2625 794 
Q 2625 316 2728 50 
L 2728 0 
L 2156 0 
z
M 1419 441 
Q 1653 441 1825 562 
Q 1997 684 2072 834 
L 2072 1644 
L 1781 1644 
Q 1384 1644 1146 1475 
Q 909 1306 909 991 
Q 909 688 1036 564 
Q 1163 441 1419 441 
z
" transform="scale(0.015625)"/>
       <path id="RobotoCondensed-Regular-72" d="M 1563 2888 
Q 1138 2888 969 2425 
L 969 0 
L 416 0 
L 416 3381 
L 950 3381 
L 963 3041 
Q 1184 3444 1591 3444 
Q 1738 3444 1809 3400 
L 1813 2863 
Q 1691 2888 1563 2888 
z
" transform="scale(0.015625)"/>
      </defs>
      <use xlink:href="#RobotoCondensed-Regular-59"/>
      <use xlink:href="#RobotoCondensed-Regular-65" transform="translate(52.490234 0)"/>
      <use xlink:href="#RobotoCondensed-Regular-61" transform="translate(99.365234 0)"/>
      <use xlink:href="#RobotoCondensed-Regular-72" transform="translate(147.265625 0)"/>
     </g>
    </g>
   </g>
   <g id="matplotlib.axis_2">
    <g id="ytick_1">
     <g id="line2d_9">
      <path d="M 35.442813 182.68 
L 301.018482 182.68 
" clip-path="url(#p022d9cf300)" style="fill: none; stroke: #808080; stroke-opacity: 0.3; stroke-width: 0.5; stroke-linecap: square"/>
     </g>
     <g id="line2d_10">
      <defs>
       <path id="mcffad56b30" d="M 0 0 
L -3.5 0 
" style="stroke: #000000; stroke-width: 0.8"/>
      </defs>
      <g>
       <use xlink:href="#mcffad56b30" x="35.442813" y="182.68" style="stroke: #000000; stroke-width: 0.8"/>
      </g>
     </g>
     <g id="text_10">
      <!-- 0% -->
      <g transform="translate(21.684375 184.93) scale(0.06 -0.06)">
       <defs>
        <path id="RobotoCondensed-Regular-25" d="M 334 3675 
Q 334 4063 545 4339 
Q 756 4616 1128 4616 
Q 1506 4616 1717 4339 
Q 1928 4063 1928 3675 
L 1928 3434 
Q 1928 3053 1718 2776 
Q 1509 2500 1134 2500 
Q 759 2500 546 2776 
Q 334 3053 334 3434 
L 334 3675 
z
M 741 3434 
Q 741 3219 836 3047 
Q 931 2875 1134 2875 
Q 1331 2875 1426 3045 
Q 1522 3216 1522 3434 
L 1522 3675 
Q 1522 3894 1425 4067 
Q 1328 4241 1128 4241 
Q 931 4241 836 4067 
Q 741 3894 741 3675 
L 741 3434 
z
M 3116 3903 
L 1250 347 
L 944 553 
L 2813 4109 
L 3116 3903 
z
M 2172 1116 
Q 2172 1500 2384 1776 
Q 2597 2053 2969 2053 
Q 3344 2053 3555 1776 
Q 3766 1500 3766 1116 
L 3766 872 
Q 3766 488 3555 211 
Q 3344 -66 2972 -66 
Q 2597 -66 2384 211 
Q 2172 488 2172 872 
L 2172 1116 
z
M 2578 872 
Q 2578 653 2675 481 
Q 2772 309 2972 309 
Q 3169 309 3264 479 
Q 3359 650 3359 872 
L 3359 1116 
Q 3359 1338 3262 1508 
Q 3166 1678 2969 1678 
Q 2772 1678 2675 1508 
Q 2578 1338 2578 1116 
L 2578 872 
z
" transform="scale(0.015625)"/>
       </defs>
       <use xlink:href="#RobotoCondensed-Regular-30"/>
       <use xlink:href="#RobotoCondensed-Regular-25" transform="translate(49.365234 0)"/>
      </g>
     </g>
    </g>
    <g id="ytick_2">
     <g id="line2d_11">
      <path d="M 35.442813 112.488 
L 301.018482 112.488 
" clip-path="url(#p022d9cf300)" style="fill: none; stroke: #808080; stroke-opacity: 0.3; stroke-width: 0.5; stroke-linecap: square"/>
     </g>
     <g id="line2d_12">
      <g>
       <use xlink:href="#mcffad56b30" x="35.442813" y="112.488" style="stroke: #000000; stroke-width: 0.8"/>
      </g>
     </g>
     <g id="text_11">
      <!-- 2% -->
      <g transform="translate(21.684375 114.738) scale(0.06 -0.06)">
       <use xlink:href="#RobotoCondensed-Regular-32"/>
       <use xlink:href="#RobotoCondensed-Regular-25" transform="translate(49.365234 0)"/>
      </g>
     </g>
    </g>
    <g id="ytick_3">
     <g id="line2d_13">
      <path d="M 35.442813 42.296 
L 301.018482 42.296 
" clip-path="url(#p022d9cf300)" style="fill: none; stroke: #808080; stroke-opacity: 0.3; stroke-width: 0.5; stroke-linecap: square"/>
     </g>
     <g id="line2d_14">
      <g>
       <use xlink:href="#mcffad56b30" x="35.442813" y="42.296" style="stroke: #000000; stroke-width: 0.8"/>
      </g>
     </g>
     <g id="text_12">
      <!-- 4% -->
      <g transform="translate(21.684375 44.546) scale(0.06 -0.06)">
       <use xlink:href="#RobotoCondensed-Regular-34"/>
       <use xlink:href="#RobotoCondensed-Regular-25" transform="translate(49.365234 0)"/>
      </g>
     </g>
    </g>
    <g id="text_13">
     <!-- Proportion -->
     <g transform="translate(15.45 117.889609) rotate(-90) scale(0.11 -0.11)">
      <defs>
       <path id="RobotoCondensed-Regular-50" d="M 1066 1784 
L 1066 0 
L 491 0 
L 491 4550 
L 1941 4550 
Q 2600 4550 2951 4159 
Q 3303 3769 3303 3163 
Q 3303 2506 2954 2147 
Q 2606 1788 1950 1784 
L 1066 1784 
z
M 1066 4056 
L 1066 2275 
L 1941 2275 
Q 2359 2275 2543 2522 
Q 2728 2769 2728 3156 
Q 2728 3506 2543 3781 
Q 2359 4056 1941 4056 
L 1066 4056 
z
" transform="scale(0.015625)"/>
       <path id="RobotoCondensed-Regular-6f" d="M 300 1850 
Q 300 2641 678 3042 
Q 1056 3444 1603 3444 
Q 2156 3444 2536 3042 
Q 2916 2641 2916 1850 
L 2916 1528 
Q 2916 738 2536 337 
Q 2156 -63 1609 -63 
Q 1059 -63 679 337 
Q 300 738 300 1528 
L 300 1850 
z
M 853 1528 
Q 853 969 1068 689 
Q 1284 409 1609 409 
Q 2341 409 2363 1466 
L 2363 1850 
Q 2363 2403 2145 2686 
Q 1928 2969 1603 2969 
Q 1281 2969 1067 2686 
Q 853 2403 853 1850 
L 853 1528 
z
" transform="scale(0.015625)"/>
       <path id="RobotoCondensed-Regular-70" d="M 1750 -63 
Q 1244 -63 969 325 
L 969 -1300 
L 416 -1300 
L 416 3381 
L 919 3381 
L 947 3013 
Q 1222 3444 1744 3444 
Q 2275 3444 2562 3073 
Q 2850 2703 2859 1897 
L 2859 1528 
Q 2859 725 2570 331 
Q 2281 -63 1750 -63 
z
M 1572 2956 
Q 1181 2956 969 2559 
L 969 797 
Q 1178 409 1578 409 
Q 2288 409 2306 1472 
L 2306 1844 
Q 2306 2956 1572 2956 
z
" transform="scale(0.015625)"/>
       <path id="RobotoCondensed-Regular-74" d="M 1647 0 
Q 1488 -63 1259 -63 
Q 991 -63 789 134 
Q 588 331 588 841 
L 588 2938 
L 72 2938 
L 72 3381 
L 588 3381 
L 588 4203 
L 1141 4203 
L 1141 3381 
L 1650 3381 
L 1650 2938 
L 1141 2938 
L 1141 838 
Q 1141 578 1230 506 
Q 1319 434 1431 434 
Q 1550 434 1650 472 
L 1647 0 
z
" transform="scale(0.015625)"/>
       <path id="RobotoCondensed-Regular-69" d="M 428 4278 
Q 428 4419 506 4516 
Q 584 4613 741 4613 
Q 894 4613 975 4516 
Q 1056 4419 1056 4278 
Q 1056 4144 975 4048 
Q 894 3953 741 3953 
Q 584 3953 506 4048 
Q 428 4144 428 4278 
z
M 1009 3381 
L 1009 0 
L 459 0 
L 459 3381 
L 1009 3381 
z
" transform="scale(0.015625)"/>
       <path id="RobotoCondensed-Regular-6e" d="M 1603 2956 
Q 1400 2956 1236 2818 
Q 1072 2681 969 2459 
L 969 0 
L 416 0 
L 416 3381 
L 938 3381 
L 953 3022 
Q 1275 3444 1775 3444 
Q 2191 3444 2437 3162 
Q 2684 2881 2684 2216 
L 2684 0 
L 2131 0 
L 2131 2222 
Q 2131 2619 2000 2787 
Q 1869 2956 1603 2956 
z
" transform="scale(0.015625)"/>
      </defs>
      <use xlink:href="#RobotoCondensed-Regular-50"/>
      <use xlink:href="#RobotoCondensed-Regular-72" transform="translate(55.419922 0)"/>
      <use xlink:href="#RobotoCondensed-Regular-6f" transform="translate(85.888672 0)"/>
      <use xlink:href="#RobotoCondensed-Regular-70" transform="translate(136.083984 0)"/>
      <use xlink:href="#RobotoCondensed-Regular-6f" transform="translate(185.400391 0)"/>
      <use xlink:href="#RobotoCondensed-Regular-72" transform="translate(235.595703 0)"/>
      <use xlink:href="#RobotoCondensed-Regular-74" transform="translate(266.064453 0)"/>
      <use xlink:href="#RobotoCondensed-Regular-69" transform="translate(295.654297 0)"/>
      <use xlink:href="#RobotoCondensed-Regular-6f" transform="translate(318.603516 0)"/>
      <use xlink:href="#RobotoCondensed-Regular-6e" transform="translate(368.798828 0)"/>
     </g>
    </g>
   </g>
   <g id="FillBetweenPolyCollection_1">
    <path d="M 47.514434 182.65568 
L 47.514434 182.68 
L 48.3219 182.68 
L 49.129366 182.68 
L 49.936833 182.68 
L 50.744299 182.68 
L 51.551765 182.68 
L 52.359232 182.68 
L 53.166698 182.68 
L 53.974164 182.68 
L 54.781631 182.68 
L 55.589097 182.68 
L 56.396563 182.68 
L 57.20403 182.68 
L 58.011496 182.68 
L 58.818962 182.68 
L 59.626428 182.68 
L 60.433895 182.68 
L 61.241361 182.68 
L 62.048827 182.68 
L 62.856294 182.68 
L 63.66376 182.68 
L 64.471226 182.68 
L 65.278693 182.68 
L 66.086159 182.68 
L 66.893625 182.68 
L 67.701092 182.68 
L 68.508558 182.68 
L 69.316024 182.68 
L 70.123491 182.68 
L 70.930957 182.68 
L 71.738423 182.68 
L 72.545889 182.68 
L 73.353356 182.68 
L 74.160822 182.68 
L 74.968288 182.68 
L 75.775755 182.68 
L 76.583221 182.68 
L 77.390687 182.68 
L 78.198154 182.68 
L 79.00562 182.68 
L 79.813086 182.68 
L 80.620553 182.68 
L 81.428019 182.68 
L 82.235485 182.68 
L 83.042951 182.68 
L 83.850418 182.68 
L 84.657884 182.68 
L 85.46535 182.68 
L 86.272817 182.68 
L 87.080283 182.68 
L 87.887749 182.68 
L 88.695216 182.68 
L 89.502682 182.68 
L 90.310148 182.68 
L 91.117615 182.68 
L 91.925081 182.68 
L 92.732547 182.68 
L 93.540013 182.68 
L 94.34748 182.68 
L 95.154946 182.68 
L 95.962412 182.68 
L 96.769879 182.68 
L 97.577345 182.68 
L 98.384811 182.68 
L 99.192278 182.68 
L 99.999744 182.68 
L 100.80721 182.68 
L 101.614677 182.68 
L 102.422143 182.68 
L 103.229609 182.68 
L 104.037076 182.68 
L 104.844542 182.68 
L 105.652008 182.68 
L 106.459474 182.68 
L 107.266941 182.68 
L 108.074407 182.68 
L 108.881873 182.68 
L 109.68934 182.68 
L 110.496806 182.68 
L 111.304272 182.68 
L 112.111739 182.68 
L 112.919205 182.68 
L 113.726671 182.68 
L 114.534138 182.68 
L 115.341604 182.68 
L 116.14907 182.68 
L 116.956536 182.68 
L 117.764003 182.68 
L 118.571469 182.68 
L 119.378935 182.68 
L 120.186402 182.68 
L 120.993868 182.68 
L 121.801334 182.68 
L 122.608801 182.68 
L 123.416267 182.68 
L 124.223733 182.68 
L 125.0312 182.68 
L 125.838666 182.68 
L 126.646132 182.68 
L 127.453599 182.68 
L 128.261065 182.68 
L 129.068531 182.68 
L 129.875997 182.68 
L 130.683464 182.68 
L 131.49093 182.68 
L 132.298396 182.68 
L 133.105863 182.68 
L 133.913329 182.68 
L 134.720795 182.68 
L 135.528262 182.68 
L 136.335728 182.68 
L 137.143194 182.68 
L 137.950661 182.68 
L 138.758127 182.68 
L 139.565593 182.68 
L 140.373059 182.68 
L 141.180526 182.68 
L 141.987992 182.68 
L 142.795458 182.68 
L 143.602925 182.68 
L 144.410391 182.68 
L 145.217857 182.68 
L 146.025324 182.68 
L 146.83279 182.68 
L 147.640256 182.68 
L 148.447723 182.68 
L 149.255189 182.68 
L 150.062655 182.68 
L 150.870121 182.68 
L 151.677588 182.68 
L 152.485054 182.68 
L 153.29252 182.68 
L 154.099987 182.68 
L 154.907453 182.68 
L 155.714919 182.68 
L 156.522386 182.68 
L 157.329852 182.68 
L 158.137318 182.68 
L 158.944785 182.68 
L 159.752251 182.68 
L 160.559717 182.68 
L 161.367184 182.68 
L 162.17465 182.68 
L 162.982116 182.68 
L 163.789582 182.68 
L 164.597049 182.68 
L 165.404515 182.68 
L 166.211981 182.68 
L 167.019448 182.68 
L 167.826914 182.68 
L 168.63438 182.68 
L 169.441847 182.68 
L 170.249313 182.68 
L 171.056779 182.68 
L 171.864246 182.68 
L 172.671712 182.68 
L 173.479178 182.68 
L 174.286644 182.68 
L 175.094111 182.68 
L 175.901577 182.68 
L 176.709043 182.68 
L 177.51651 182.68 
L 178.323976 182.68 
L 179.131442 182.68 
L 179.938909 182.68 
L 180.746375 182.68 
L 181.553841 182.68 
L 182.361308 182.68 
L 183.168774 182.68 
L 183.97624 182.68 
L 184.783706 182.68 
L 185.591173 182.68 
L 186.398639 182.68 
L 187.206105 182.68 
L 188.013572 182.68 
L 188.821038 182.68 
L 189.628504 182.68 
L 190.435971 182.68 
L 191.243437 182.68 
L 192.050903 182.68 
L 192.85837 182.68 
L 193.665836 182.68 
L 194.473302 182.68 
L 195.280769 182.68 
L 196.088235 182.68 
L 196.895701 182.68 
L 197.703167 182.68 
L 198.510634 182.68 
L 199.3181 182.68 
L 200.125566 182.68 
L 200.933033 182.68 
L 201.740499 182.68 
L 202.547965 182.68 
L 203.355432 182.68 
L 204.162898 182.68 
L 204.970364 182.68 
L 205.777831 182.68 
L 206.585297 182.68 
L 207.392763 182.68 
L 208.200229 182.68 
L 209.007696 182.68 
L 209.815162 182.68 
L 210.622628 182.68 
L 211.430095 182.68 
L 212.237561 182.68 
L 213.045027 182.68 
L 213.852494 182.68 
L 214.65996 182.68 
L 215.467426 182.68 
L 216.274893 182.68 
L 217.082359 182.68 
L 217.889825 182.68 
L 218.697292 182.68 
L 219.504758 182.68 
L 220.312224 182.68 
L 221.11969 182.68 
L 221.927157 182.68 
L 222.734623 182.68 
L 223.542089 182.68 
L 224.349556 182.68 
L 225.157022 182.68 
L 225.964488 182.68 
L 226.771955 182.68 
L 227.579421 182.68 
L 228.386887 182.68 
L 229.194354 182.68 
L 230.00182 182.68 
L 230.809286 182.68 
L 231.616752 182.68 
L 232.424219 182.68 
L 233.231685 182.68 
L 234.039151 182.68 
L 234.846618 182.68 
L 235.654084 182.68 
L 236.46155 182.68 
L 237.269017 182.68 
L 238.076483 182.68 
L 238.883949 182.68 
L 239.691416 182.68 
L 240.498882 182.68 
L 241.306348 182.68 
L 242.113814 182.68 
L 242.921281 182.68 
L 243.728747 182.68 
L 244.536213 182.68 
L 245.34368 182.68 
L 246.151146 182.68 
L 246.958612 182.68 
L 247.766079 182.68 
L 248.573545 182.68 
L 249.381011 182.68 
L 250.188478 182.68 
L 250.995944 182.68 
L 251.80341 182.68 
L 252.610877 182.68 
L 253.418343 182.68 
L 254.225809 182.68 
L 255.033275 182.68 
L 255.840742 182.68 
L 256.648208 182.68 
L 257.455674 182.68 
L 258.263141 182.68 
L 259.070607 182.68 
L 259.878073 182.68 
L 260.68554 182.68 
L 261.493006 182.68 
L 262.300472 182.68 
L 263.107939 182.68 
L 263.915405 182.68 
L 264.722871 182.68 
L 265.530337 182.68 
L 266.337804 182.68 
L 267.14527 182.68 
L 267.952736 182.68 
L 268.760203 182.68 
L 269.567669 182.68 
L 270.375135 182.68 
L 271.182602 182.68 
L 271.990068 182.68 
L 272.797534 182.68 
L 273.605001 182.68 
L 274.412467 182.68 
L 275.219933 182.68 
L 276.0274 182.68 
L 276.834866 182.68 
L 277.642332 182.68 
L 278.449798 182.68 
L 279.257265 182.68 
L 280.064731 182.68 
L 280.872197 182.68 
L 281.679664 182.68 
L 282.48713 182.68 
L 283.294596 182.68 
L 284.102063 182.68 
L 284.909529 182.68 
L 285.716995 182.68 
L 286.524462 182.68 
L 287.331928 182.68 
L 288.139394 182.68 
L 288.94686 182.68 
L 288.94686 167.630684 
L 288.94686 167.630684 
L 288.139394 167.849985 
L 287.331928 168.062323 
L 286.524462 168.266475 
L 285.716995 168.461221 
L 284.909529 168.645339 
L 284.102063 168.817606 
L 283.294596 168.9768 
L 282.48713 169.121701 
L 281.679664 169.251085 
L 280.872197 169.363732 
L 280.064731 169.458418 
L 279.257265 169.533923 
L 278.449798 169.589025 
L 277.642332 169.622501 
L 276.834866 169.633138 
L 276.0274 169.62411 
L 275.219933 169.600277 
L 274.412467 169.563944 
L 273.605001 169.517416 
L 272.797534 169.462995 
L 271.990068 169.402987 
L 271.182602 169.339696 
L 270.375135 169.275425 
L 269.567669 169.212479 
L 268.760203 169.153162 
L 267.952736 169.099779 
L 267.14527 169.054632 
L 266.337804 169.020028 
L 265.530337 168.998269 
L 264.722871 168.991969 
L 263.915405 169.037367 
L 263.107939 169.150952 
L 262.300472 169.32249 
L 261.493006 169.541746 
L 260.68554 169.798487 
L 259.878073 170.082479 
L 259.070607 170.383487 
L 258.263141 170.691278 
L 257.455674 170.995616 
L 256.648208 171.286269 
L 255.840742 171.553002 
L 255.033275 171.785581 
L 254.225809 171.973771 
L 253.418343 172.10734 
L 252.610877 172.176806 
L 251.80341 172.216454 
L 250.995944 172.250056 
L 250.188478 172.278512 
L 249.381011 172.302717 
L 248.573545 172.323569 
L 247.766079 172.341967 
L 246.958612 172.358808 
L 246.151146 172.374988 
L 245.34368 172.391406 
L 244.536213 172.408959 
L 243.728747 172.428545 
L 242.921281 172.451062 
L 242.113814 172.477405 
L 241.306348 172.508475 
L 240.498882 172.545544 
L 239.691416 172.600861 
L 238.883949 172.677204 
L 238.076483 172.770813 
L 237.269017 172.877925 
L 236.46155 172.99478 
L 235.654084 173.117616 
L 234.846618 173.242672 
L 234.039151 173.366185 
L 233.231685 173.484396 
L 232.424219 173.593541 
L 231.616752 173.68986 
L 230.809286 173.769591 
L 230.00182 173.828973 
L 229.194354 173.864244 
L 228.386887 173.872184 
L 227.579421 173.862192 
L 226.771955 173.839771 
L 225.964488 173.806011 
L 225.157022 173.762005 
L 224.349556 173.708842 
L 223.542089 173.647614 
L 222.734623 173.579411 
L 221.927157 173.505324 
L 221.11969 173.426444 
L 220.312224 173.343862 
L 219.504758 173.258669 
L 218.697292 173.171956 
L 217.889825 173.084813 
L 217.082359 172.998332 
L 216.274893 172.91218 
L 215.467426 172.806024 
L 214.65996 172.676521 
L 213.852494 172.528363 
L 213.045027 172.366246 
L 212.237561 172.194863 
L 211.430095 172.018909 
L 210.622628 171.843078 
L 209.815162 171.672064 
L 209.007696 171.510561 
L 208.200229 171.363262 
L 207.392763 171.234863 
L 206.585297 171.130058 
L 205.777831 171.05354 
L 204.970364 171.010003 
L 204.162898 171.010273 
L 203.355432 171.124832 
L 202.547965 171.358027 
L 201.740499 171.691435 
L 200.933033 172.106633 
L 200.125566 172.585197 
L 199.3181 173.108705 
L 198.510634 173.658732 
L 197.703167 174.216855 
L 196.895701 174.764651 
L 196.088235 175.283697 
L 195.280769 175.755568 
L 194.473302 176.161843 
L 193.665836 176.484097 
L 192.85837 176.703906 
L 192.050903 176.812637 
L 191.243437 176.888893 
L 190.435971 176.954943 
L 189.628504 177.012222 
L 188.821038 177.062165 
L 188.013572 177.106209 
L 187.206105 177.145788 
L 186.398639 177.18234 
L 185.591173 177.217299 
L 184.783706 177.2521 
L 183.97624 177.288181 
L 183.168774 177.326976 
L 182.361308 177.369921 
L 181.553841 177.418451 
L 180.746375 177.474003 
L 179.938909 177.537848 
L 179.131442 177.609434 
L 178.323976 177.687847 
L 177.51651 177.772305 
L 176.709043 177.862029 
L 175.901577 177.956236 
L 175.094111 178.054146 
L 174.286644 178.154979 
L 173.479178 178.257953 
L 172.671712 178.362288 
L 171.864246 178.467202 
L 171.056779 178.571915 
L 170.249313 178.675646 
L 169.441847 178.777614 
L 168.63438 178.877038 
L 167.826914 178.974023 
L 167.019448 179.073151 
L 166.211981 179.174669 
L 165.404515 179.277942 
L 164.597049 179.382337 
L 163.789582 179.487219 
L 162.982116 179.591955 
L 162.17465 179.695911 
L 161.367184 179.798452 
L 160.559717 179.898945 
L 159.752251 179.996756 
L 158.944785 180.091251 
L 158.137318 180.181796 
L 157.329852 180.267758 
L 156.522386 180.348501 
L 155.714919 180.424977 
L 154.907453 180.504124 
L 154.099987 180.585756 
L 153.29252 180.668605 
L 152.485054 180.751401 
L 151.677588 180.832876 
L 150.870121 180.911762 
L 150.062655 180.986789 
L 149.255189 181.05669 
L 148.447723 181.120194 
L 147.640256 181.176035 
L 146.83279 181.222942 
L 146.025324 181.259648 
L 145.217857 181.284884 
L 144.410391 181.297381 
L 143.602925 181.297017 
L 142.795458 181.288275 
L 141.987992 181.272753 
L 141.180526 181.251606 
L 140.373059 181.225988 
L 139.565593 181.197051 
L 138.758127 181.165951 
L 137.950661 181.133842 
L 137.143194 181.101876 
L 136.335728 181.071209 
L 135.528262 181.042994 
L 134.720795 181.018385 
L 133.913329 180.998536 
L 133.105863 180.984601 
L 132.298396 180.977734 
L 131.49093 180.977325 
L 130.683464 180.977925 
L 129.875997 180.979033 
L 129.068531 180.980636 
L 128.261065 180.982722 
L 127.453599 180.985277 
L 126.646132 180.988287 
L 125.838666 180.991742 
L 125.0312 180.995626 
L 124.223733 180.999928 
L 123.416267 181.004635 
L 122.608801 181.009732 
L 121.801334 181.015208 
L 120.993868 181.02105 
L 120.186402 181.027244 
L 119.378935 181.036653 
L 118.571469 181.05692 
L 117.764003 181.087183 
L 116.956536 181.126029 
L 116.14907 181.172045 
L 115.341604 181.223819 
L 114.534138 181.279938 
L 113.726671 181.33899 
L 112.919205 181.399562 
L 112.111739 181.460241 
L 111.304272 181.519616 
L 110.496806 181.576273 
L 109.68934 181.6288 
L 108.881873 181.675785 
L 108.074407 181.715815 
L 107.266941 181.750092 
L 106.459474 181.784191 
L 105.652008 181.818139 
L 104.844542 181.851683 
L 104.037076 181.884571 
L 103.229609 181.916553 
L 102.422143 181.947375 
L 101.614677 181.976785 
L 100.80721 182.004533 
L 99.999744 182.030366 
L 99.192278 182.054033 
L 98.384811 182.075281 
L 97.577345 182.093858 
L 96.769879 182.109513 
L 95.962412 182.121994 
L 95.154946 182.13193 
L 94.34748 182.141055 
L 93.540013 182.14948 
L 92.732547 182.157261 
L 91.925081 182.164456 
L 91.117615 182.171121 
L 90.310148 182.177314 
L 89.502682 182.183092 
L 88.695216 182.188513 
L 87.887749 182.193633 
L 87.080283 182.198509 
L 86.272817 182.203199 
L 85.46535 182.20776 
L 84.657884 182.212249 
L 83.850418 182.216723 
L 83.042951 182.221066 
L 82.235485 182.225033 
L 81.428019 182.228681 
L 80.620553 182.232069 
L 79.813086 182.235257 
L 79.00562 182.238305 
L 78.198154 182.241274 
L 77.390687 182.244224 
L 76.583221 182.247215 
L 75.775755 182.250307 
L 74.968288 182.25356 
L 74.160822 182.257035 
L 73.353356 182.260792 
L 72.545889 182.26489 
L 71.738423 182.26939 
L 70.930957 182.274275 
L 70.123491 182.279464 
L 69.316024 182.28497 
L 68.508558 182.290804 
L 67.701092 182.296981 
L 66.893625 182.303514 
L 66.086159 182.310415 
L 65.278693 182.317697 
L 64.471226 182.325374 
L 63.66376 182.333458 
L 62.856294 182.341964 
L 62.048827 182.350903 
L 61.241361 182.360289 
L 60.433895 182.370135 
L 59.626428 182.380453 
L 58.818962 182.391638 
L 58.011496 182.404115 
L 57.20403 182.417823 
L 56.396563 182.4327 
L 55.589097 182.448684 
L 54.781631 182.465712 
L 53.974164 182.483721 
L 53.166698 182.502651 
L 52.359232 182.522438 
L 51.551765 182.54302 
L 50.744299 182.564335 
L 49.936833 182.586321 
L 49.129366 182.608915 
L 48.3219 182.632056 
L 47.514434 182.65568 
z
" clip-path="url(#p022d9cf300)" style="fill: url(#h21785880af)"/>
   </g>
   <g id="FillBetweenPolyCollection_2">
    <path d="M 47.514434 182.63136 
L 47.514434 182.65568 
L 48.3219 182.632056 
L 49.129366 182.608915 
L 49.936833 182.586321 
L 50.744299 182.564335 
L 51.551765 182.54302 
L 52.359232 182.522438 
L 53.166698 182.502651 
L 53.974164 182.483721 
L 54.781631 182.465712 
L 55.589097 182.448684 
L 56.396563 182.4327 
L 57.20403 182.417823 
L 58.011496 182.404115 
L 58.818962 182.391638 
L 59.626428 182.380453 
L 60.433895 182.370135 
L 61.241361 182.360289 
L 62.048827 182.350903 
L 62.856294 182.341964 
L 63.66376 182.333458 
L 64.471226 182.325374 
L 65.278693 182.317697 
L 66.086159 182.310415 
L 66.893625 182.303514 
L 67.701092 182.296981 
L 68.508558 182.290804 
L 69.316024 182.28497 
L 70.123491 182.279464 
L 70.930957 182.274275 
L 71.738423 182.26939 
L 72.545889 182.26489 
L 73.353356 182.260792 
L 74.160822 182.257035 
L 74.968288 182.25356 
L 75.775755 182.250307 
L 76.583221 182.247215 
L 77.390687 182.244224 
L 78.198154 182.241274 
L 79.00562 182.238305 
L 79.813086 182.235257 
L 80.620553 182.232069 
L 81.428019 182.228681 
L 82.235485 182.225033 
L 83.042951 182.221066 
L 83.850418 182.216723 
L 84.657884 182.212249 
L 85.46535 182.20776 
L 86.272817 182.203199 
L 87.080283 182.198509 
L 87.887749 182.193633 
L 88.695216 182.188513 
L 89.502682 182.183092 
L 90.310148 182.177314 
L 91.117615 182.171121 
L 91.925081 182.164456 
L 92.732547 182.157261 
L 93.540013 182.14948 
L 94.34748 182.141055 
L 95.154946 182.13193 
L 95.962412 182.121994 
L 96.769879 182.109513 
L 97.577345 182.093858 
L 98.384811 182.075281 
L 99.192278 182.054033 
L 99.999744 182.030366 
L 100.80721 182.004533 
L 101.614677 181.976785 
L 102.422143 181.947375 
L 103.229609 181.916553 
L 104.037076 181.884571 
L 104.844542 181.851683 
L 105.652008 181.818139 
L 106.459474 181.784191 
L 107.266941 181.750092 
L 108.074407 181.715815 
L 108.881873 181.675785 
L 109.68934 181.6288 
L 110.496806 181.576273 
L 111.304272 181.519616 
L 112.111739 181.460241 
L 112.919205 181.399562 
L 113.726671 181.33899 
L 114.534138 181.279938 
L 115.341604 181.223819 
L 116.14907 181.172045 
L 116.956536 181.126029 
L 117.764003 181.087183 
L 118.571469 181.05692 
L 119.378935 181.036653 
L 120.186402 181.027244 
L 120.993868 181.02105 
L 121.801334 181.015208 
L 122.608801 181.009732 
L 123.416267 181.004635 
L 124.223733 180.999928 
L 125.0312 180.995626 
L 125.838666 180.991742 
L 126.646132 180.988287 
L 127.453599 180.985277 
L 128.261065 180.982722 
L 129.068531 180.980636 
L 129.875997 180.979033 
L 130.683464 180.977925 
L 131.49093 180.977325 
L 132.298396 180.977734 
L 133.105863 180.984601 
L 133.913329 180.998536 
L 134.720795 181.018385 
L 135.528262 181.042994 
L 136.335728 181.071209 
L 137.143194 181.101876 
L 137.950661 181.133842 
L 138.758127 181.165951 
L 139.565593 181.197051 
L 140.373059 181.225988 
L 141.180526 181.251606 
L 141.987992 181.272753 
L 142.795458 181.288275 
L 143.602925 181.297017 
L 144.410391 181.297381 
L 145.217857 181.284884 
L 146.025324 181.259648 
L 146.83279 181.222942 
L 147.640256 181.176035 
L 148.447723 181.120194 
L 149.255189 181.05669 
L 150.062655 180.986789 
L 150.870121 180.911762 
L 151.677588 180.832876 
L 152.485054 180.751401 
L 153.29252 180.668605 
L 154.099987 180.585756 
L 154.907453 180.504124 
L 155.714919 180.424977 
L 156.522386 180.348501 
L 157.329852 180.267758 
L 158.137318 180.181796 
L 158.944785 180.091251 
L 159.752251 179.996756 
L 160.559717 179.898945 
L 161.367184 179.798452 
L 162.17465 179.695911 
L 162.982116 179.591955 
L 163.789582 179.487219 
L 164.597049 179.382337 
L 165.404515 179.277942 
L 166.211981 179.174669 
L 167.019448 179.073151 
L 167.826914 178.974023 
L 168.63438 178.877038 
L 169.441847 178.777614 
L 170.249313 178.675646 
L 171.056779 178.571915 
L 171.864246 178.467202 
L 172.671712 178.362288 
L 173.479178 178.257953 
L 174.286644 178.154979 
L 175.094111 178.054146 
L 175.901577 177.956236 
L 176.709043 177.862029 
L 177.51651 177.772305 
L 178.323976 177.687847 
L 179.131442 177.609434 
L 179.938909 177.537848 
L 180.746375 177.474003 
L 181.553841 177.418451 
L 182.361308 177.369921 
L 183.168774 177.326976 
L 183.97624 177.288181 
L 184.783706 177.2521 
L 185.591173 177.217299 
L 186.398639 177.18234 
L 187.206105 177.145788 
L 188.013572 177.106209 
L 188.821038 177.062165 
L 189.628504 177.012222 
L 190.435971 176.954943 
L 191.243437 176.888893 
L 192.050903 176.812637 
L 192.85837 176.703906 
L 193.665836 176.484097 
L 194.473302 176.161843 
L 195.280769 175.755568 
L 196.088235 175.283697 
L 196.895701 174.764651 
L 197.703167 174.216855 
L 198.510634 173.658732 
L 199.3181 173.108705 
L 200.125566 172.585197 
L 200.933033 172.106633 
L 201.740499 171.691435 
L 202.547965 171.358027 
L 203.355432 171.124832 
L 204.162898 171.010273 
L 204.970364 171.010003 
L 205.777831 171.05354 
L 206.585297 171.130058 
L 207.392763 171.234863 
L 208.200229 171.363262 
L 209.007696 171.510561 
L 209.815162 171.672064 
L 210.622628 171.843078 
L 211.430095 172.018909 
L 212.237561 172.194863 
L 213.045027 172.366246 
L 213.852494 172.528363 
L 214.65996 172.676521 
L 215.467426 172.806024 
L 216.274893 172.91218 
L 217.082359 172.998332 
L 217.889825 173.084813 
L 218.697292 173.171956 
L 219.504758 173.258669 
L 220.312224 173.343862 
L 221.11969 173.426444 
L 221.927157 173.505324 
L 222.734623 173.579411 
L 223.542089 173.647614 
L 224.349556 173.708842 
L 225.157022 173.762005 
L 225.964488 173.806011 
L 226.771955 173.839771 
L 227.579421 173.862192 
L 228.386887 173.872184 
L 229.194354 173.864244 
L 230.00182 173.828973 
L 230.809286 173.769591 
L 231.616752 173.68986 
L 232.424219 173.593541 
L 233.231685 173.484396 
L 234.039151 173.366185 
L 234.846618 173.242672 
L 235.654084 173.117616 
L 236.46155 172.99478 
L 237.269017 172.877925 
L 238.076483 172.770813 
L 238.883949 172.677204 
L 239.691416 172.600861 
L 240.498882 172.545544 
L 241.306348 172.508475 
L 242.113814 172.477405 
L 242.921281 172.451062 
L 243.728747 172.428545 
L 244.536213 172.408959 
L 245.34368 172.391406 
L 246.151146 172.374988 
L 246.958612 172.358808 
L 247.766079 172.341967 
L 248.573545 172.323569 
L 249.381011 172.302717 
L 250.188478 172.278512 
L 250.995944 172.250056 
L 251.80341 172.216454 
L 252.610877 172.176806 
L 253.418343 172.10734 
L 254.225809 171.973771 
L 255.033275 171.785581 
L 255.840742 171.553002 
L 256.648208 171.286269 
L 257.455674 170.995616 
L 258.263141 170.691278 
L 259.070607 170.383487 
L 259.878073 170.082479 
L 260.68554 169.798487 
L 261.493006 169.541746 
L 262.300472 169.32249 
L 263.107939 169.150952 
L 263.915405 169.037367 
L 264.722871 168.991969 
L 265.530337 168.998269 
L 266.337804 169.020028 
L 267.14527 169.054632 
L 267.952736 169.099779 
L 268.760203 169.153162 
L 269.567669 169.212479 
L 270.375135 169.275425 
L 271.182602 169.339696 
L 271.990068 169.402987 
L 272.797534 169.462995 
L 273.605001 169.517416 
L 274.412467 169.563944 
L 275.219933 169.600277 
L 276.0274 169.62411 
L 276.834866 169.633138 
L 277.642332 169.622501 
L 278.449798 169.589025 
L 279.257265 169.533923 
L 280.064731 169.458418 
L 280.872197 169.363732 
L 281.679664 169.251085 
L 282.48713 169.121701 
L 283.294596 168.9768 
L 284.102063 168.817606 
L 284.909529 168.645339 
L 285.716995 168.461221 
L 286.524462 168.266475 
L 287.331928 168.062323 
L 288.139394 167.849985 
L 288.94686 167.630684 
L 288.94686 146.207174 
L 288.94686 146.207174 
L 288.139394 146.657576 
L 287.331928 147.098078 
L 286.524462 147.527369 
L 285.716995 147.944139 
L 284.909529 148.347077 
L 284.102063 148.734873 
L 283.294596 149.106216 
L 282.48713 149.459796 
L 281.679664 149.794303 
L 280.872197 150.108426 
L 280.064731 150.400855 
L 279.257265 150.67028 
L 278.449798 150.915389 
L 277.642332 151.134873 
L 276.834866 151.327422 
L 276.0274 151.493039 
L 275.219933 151.635073 
L 274.412467 151.757335 
L 273.605001 151.863639 
L 272.797534 151.957794 
L 271.990068 152.043613 
L 271.182602 152.124909 
L 270.375135 152.205492 
L 269.567669 152.289175 
L 268.760203 152.379768 
L 267.952736 152.481085 
L 267.14527 152.596937 
L 266.337804 152.731136 
L 265.530337 152.887493 
L 264.722871 153.070248 
L 263.915405 153.329661 
L 263.107939 153.687018 
L 262.300472 154.1263 
L 261.493006 154.631486 
L 260.68554 155.186557 
L 259.878073 155.775494 
L 259.070607 156.382275 
L 258.263141 156.990881 
L 257.455674 157.585293 
L 256.648208 158.14949 
L 255.840742 158.667453 
L 255.033275 159.123161 
L 254.225809 159.500596 
L 253.418343 159.783736 
L 252.610877 159.957731 
L 251.80341 160.075898 
L 250.995944 160.176272 
L 250.188478 160.26162 
L 249.381011 160.334707 
L 248.573545 160.398301 
L 247.766079 160.455165 
L 246.958612 160.508067 
L 246.151146 160.559772 
L 245.34368 160.613047 
L 244.536213 160.670656 
L 243.728747 160.735367 
L 242.921281 160.809945 
L 242.113814 160.897155 
L 241.306348 160.999765 
L 240.498882 161.122207 
L 239.691416 161.318043 
L 238.883949 161.600929 
L 238.076483 161.95595 
L 237.269017 162.368193 
L 236.46155 162.822741 
L 235.654084 163.304681 
L 234.846618 163.799099 
L 234.039151 164.291078 
L 233.231685 164.765705 
L 232.424219 165.208065 
L 231.616752 165.603244 
L 230.809286 165.936326 
L 230.00182 166.192396 
L 229.194354 166.356542 
L 228.386887 166.417096 
L 227.579421 166.434775 
L 226.771955 166.43837 
L 225.964488 166.428928 
L 225.157022 166.407494 
L 224.349556 166.375115 
L 223.542089 166.332837 
L 222.734623 166.281707 
L 221.927157 166.222771 
L 221.11969 166.157075 
L 220.312224 166.085666 
L 219.504758 166.009591 
L 218.697292 165.929894 
L 217.889825 165.847624 
L 217.082359 165.763827 
L 216.274893 165.676368 
L 215.467426 165.538732 
L 214.65996 165.343149 
L 213.852494 165.099917 
L 213.045027 164.819332 
L 212.237561 164.511691 
L 211.430095 164.187293 
L 210.622628 163.856433 
L 209.815162 163.52941 
L 209.007696 163.216521 
L 208.200229 162.928062 
L 207.392763 162.674332 
L 206.585297 162.465626 
L 205.777831 162.312243 
L 204.970364 162.22448 
L 204.162898 162.22326 
L 203.355432 162.431659 
L 202.547965 162.855479 
L 201.740499 163.46075 
L 200.933033 164.213504 
L 200.125566 165.079772 
L 199.3181 166.025587 
L 198.510634 167.01698 
L 197.703167 168.019981 
L 196.895701 169.000624 
L 196.088235 169.924939 
L 195.280769 170.758958 
L 194.473302 171.468712 
L 193.665836 172.020233 
L 192.85837 172.379553 
L 192.050903 172.53149 
L 191.243437 172.6276 
L 190.435971 172.709993 
L 189.628504 172.780661 
L 188.821038 172.841603 
L 188.013572 172.894811 
L 187.206105 172.942283 
L 186.398639 172.986013 
L 185.591173 173.027997 
L 184.783706 173.070229 
L 183.97624 173.114706 
L 183.168774 173.163423 
L 182.361308 173.218375 
L 181.553841 173.281557 
L 180.746375 173.354965 
L 179.938909 173.442558 
L 179.131442 173.558804 
L 178.323976 173.703147 
L 177.51651 173.871804 
L 176.709043 174.060994 
L 175.901577 174.266936 
L 175.094111 174.485849 
L 174.286644 174.713949 
L 173.479178 174.947457 
L 172.671712 175.18259 
L 171.864246 175.415567 
L 171.056779 175.642606 
L 170.249313 175.859926 
L 169.441847 176.063746 
L 168.63438 176.250282 
L 167.826914 176.418804 
L 167.019448 176.58502 
L 166.211981 176.751252 
L 165.404515 176.916908 
L 164.597049 177.081394 
L 163.789582 177.244118 
L 162.982116 177.404487 
L 162.17465 177.561908 
L 161.367184 177.715787 
L 160.559717 177.865532 
L 159.752251 178.01055 
L 158.944785 178.150248 
L 158.137318 178.284032 
L 157.329852 178.41131 
L 156.522386 178.531489 
L 155.714919 178.645752 
L 154.907453 178.761965 
L 154.099987 178.879955 
L 153.29252 178.998333 
L 152.485054 179.115708 
L 151.677588 179.230692 
L 150.870121 179.341894 
L 150.062655 179.447925 
L 149.255189 179.547395 
L 148.447723 179.638915 
L 147.640256 179.721095 
L 146.83279 179.792546 
L 146.025324 179.851878 
L 145.217857 179.897701 
L 144.410391 179.928626 
L 143.602925 179.944481 
L 142.795458 179.950079 
L 141.987992 179.947312 
L 141.180526 179.937604 
L 140.373059 179.92238 
L 139.565593 179.903064 
L 138.758127 179.881081 
L 137.950661 179.857855 
L 137.143194 179.834812 
L 136.335728 179.813375 
L 135.528262 179.794969 
L 134.720795 179.781019 
L 133.913329 179.77295 
L 133.105863 179.772185 
L 132.298396 179.78015 
L 131.49093 179.797061 
L 130.683464 179.819248 
L 129.875997 179.845772 
L 129.068531 179.876003 
L 128.261065 179.909309 
L 127.453599 179.945059 
L 126.646132 179.982623 
L 125.838666 180.021369 
L 125.0312 180.060667 
L 124.223733 180.099886 
L 123.416267 180.138394 
L 122.608801 180.175562 
L 121.801334 180.210758 
L 120.993868 180.243351 
L 120.186402 180.27271 
L 119.378935 180.302032 
L 118.571469 180.341399 
L 117.764003 180.390111 
L 116.956536 180.446753 
L 116.14907 180.509908 
L 115.341604 180.578163 
L 114.534138 180.6501 
L 113.726671 180.724306 
L 112.919205 180.799364 
L 112.111739 180.873859 
L 111.304272 180.946376 
L 110.496806 181.0155 
L 109.68934 181.079814 
L 108.881873 181.137904 
L 108.074407 181.188355 
L 107.266941 181.232547 
L 106.459474 181.276466 
L 105.652008 181.320097 
L 104.844542 181.363126 
L 104.037076 181.405242 
L 103.229609 181.446131 
L 102.422143 181.485479 
L 101.614677 181.522974 
L 100.80721 181.558302 
L 99.999744 181.591151 
L 99.192278 181.621207 
L 98.384811 181.648157 
L 97.577345 181.671688 
L 96.769879 181.691486 
L 95.962412 181.707239 
L 95.154946 181.719686 
L 94.34748 181.730914 
L 93.540013 181.741106 
L 92.732547 181.750382 
L 91.925081 181.758859 
L 91.117615 181.766659 
L 90.310148 181.773899 
L 89.502682 181.780698 
L 88.695216 181.787177 
L 87.887749 181.793453 
L 87.080283 181.799647 
L 86.272817 181.805877 
L 85.46535 181.812262 
L 84.657884 181.818922 
L 83.850418 181.825975 
L 83.042951 181.834777 
L 82.235485 181.847211 
L 81.428019 181.86277 
L 80.620553 181.880903 
L 79.813086 181.901063 
L 79.00562 181.922699 
L 78.198154 181.945264 
L 77.390687 181.968206 
L 76.583221 181.990979 
L 75.775755 182.013032 
L 74.968288 182.033816 
L 74.160822 182.052782 
L 73.353356 182.069381 
L 72.545889 182.083064 
L 71.738423 182.093282 
L 70.930957 182.101117 
L 70.123491 182.108776 
L 69.316024 182.116359 
L 68.508558 182.123947 
L 67.701092 182.13162 
L 66.893625 182.139458 
L 66.086159 182.147544 
L 65.278693 182.155957 
L 64.471226 182.164778 
L 63.66376 182.174088 
L 62.856294 182.183968 
L 62.048827 182.194499 
L 61.241361 182.20576 
L 60.433895 182.217834 
L 59.626428 182.2308 
L 58.818962 182.245341 
L 58.011496 182.262139 
L 57.20403 182.281076 
L 56.396563 182.302031 
L 55.589097 182.324884 
L 54.781631 182.349516 
L 53.974164 182.375805 
L 53.166698 182.403632 
L 52.359232 182.432875 
L 51.551765 182.463416 
L 50.744299 182.495133 
L 49.936833 182.527906 
L 49.129366 182.561615 
L 48.3219 182.59614 
L 47.514434 182.63136 
z
" clip-path="url(#p022d9cf300)" style="fill: url(#h25254d53b7)"/>
   </g>
   <g id="FillBetweenPolyCollection_3">
    <path d="M 47.514434 182.63136 
L 47.514434 182.63136 
L 48.3219 182.59614 
L 49.129366 182.561615 
L 49.936833 182.527906 
L 50.744299 182.495133 
L 51.551765 182.463416 
L 52.359232 182.432875 
L 53.166698 182.403632 
L 53.974164 182.375805 
L 54.781631 182.349516 
L 55.589097 182.324884 
L 56.396563 182.302031 
L 57.20403 182.281076 
L 58.011496 182.262139 
L 58.818962 182.245341 
L 59.626428 182.2308 
L 60.433895 182.217834 
L 61.241361 182.20576 
L 62.048827 182.194499 
L 62.856294 182.183968 
L 63.66376 182.174088 
L 64.471226 182.164778 
L 65.278693 182.155957 
L 66.086159 182.147544 
L 66.893625 182.139458 
L 67.701092 182.13162 
L 68.508558 182.123947 
L 69.316024 182.116359 
L 70.123491 182.108776 
L 70.930957 182.101117 
L 71.738423 182.093282 
L 72.545889 182.083064 
L 73.353356 182.069381 
L 74.160822 182.052782 
L 74.968288 182.033816 
L 75.775755 182.013032 
L 76.583221 181.990979 
L 77.390687 181.968206 
L 78.198154 181.945264 
L 79.00562 181.922699 
L 79.813086 181.901063 
L 80.620553 181.880903 
L 81.428019 181.86277 
L 82.235485 181.847211 
L 83.042951 181.834777 
L 83.850418 181.825975 
L 84.657884 181.818922 
L 85.46535 181.812262 
L 86.272817 181.805877 
L 87.080283 181.799647 
L 87.887749 181.793453 
L 88.695216 181.787177 
L 89.502682 181.780698 
L 90.310148 181.773899 
L 91.117615 181.766659 
L 91.925081 181.758859 
L 92.732547 181.750382 
L 93.540013 181.741106 
L 94.34748 181.730914 
L 95.154946 181.719686 
L 95.962412 181.707239 
L 96.769879 181.691486 
L 97.577345 181.671688 
L 98.384811 181.648157 
L 99.192278 181.621207 
L 99.999744 181.591151 
L 100.80721 181.558302 
L 101.614677 181.522974 
L 102.422143 181.485479 
L 103.229609 181.446131 
L 104.037076 181.405242 
L 104.844542 181.363126 
L 105.652008 181.320097 
L 106.459474 181.276466 
L 107.266941 181.232547 
L 108.074407 181.188355 
L 108.881873 181.137904 
L 109.68934 181.079814 
L 110.496806 181.0155 
L 111.304272 180.946376 
L 112.111739 180.873859 
L 112.919205 180.799364 
L 113.726671 180.724306 
L 114.534138 180.6501 
L 115.341604 180.578163 
L 116.14907 180.509908 
L 116.956536 180.446753 
L 117.764003 180.390111 
L 118.571469 180.341399 
L 119.378935 180.302032 
L 120.186402 180.27271 
L 120.993868 180.243351 
L 121.801334 180.210758 
L 122.608801 180.175562 
L 123.416267 180.138394 
L 124.223733 180.099886 
L 125.0312 180.060667 
L 125.838666 180.021369 
L 126.646132 179.982623 
L 127.453599 179.945059 
L 128.261065 179.909309 
L 129.068531 179.876003 
L 129.875997 179.845772 
L 130.683464 179.819248 
L 131.49093 179.797061 
L 132.298396 179.78015 
L 133.105863 179.772185 
L 133.913329 179.77295 
L 134.720795 179.781019 
L 135.528262 179.794969 
L 136.335728 179.813375 
L 137.143194 179.834812 
L 137.950661 179.857855 
L 138.758127 179.881081 
L 139.565593 179.903064 
L 140.373059 179.92238 
L 141.180526 179.937604 
L 141.987992 179.947312 
L 142.795458 179.950079 
L 143.602925 179.944481 
L 144.410391 179.928626 
L 145.217857 179.897701 
L 146.025324 179.851878 
L 146.83279 179.792546 
L 147.640256 179.721095 
L 148.447723 179.638915 
L 149.255189 179.547395 
L 150.062655 179.447925 
L 150.870121 179.341894 
L 151.677588 179.230692 
L 152.485054 179.115708 
L 153.29252 178.998333 
L 154.099987 178.879955 
L 154.907453 178.761965 
L 155.714919 178.645752 
L 156.522386 178.531489 
L 157.329852 178.41131 
L 158.137318 178.284032 
L 158.944785 178.150248 
L 159.752251 178.01055 
L 160.559717 177.865532 
L 161.367184 177.715787 
L 162.17465 177.561908 
L 162.982116 177.404487 
L 163.789582 177.244118 
L 164.597049 177.081394 
L 165.404515 176.916908 
L 166.211981 176.751252 
L 167.019448 176.58502 
L 167.826914 176.418804 
L 168.63438 176.250282 
L 169.441847 176.063746 
L 170.249313 175.859926 
L 171.056779 175.642606 
L 171.864246 175.415567 
L 172.671712 175.18259 
L 173.479178 174.947457 
L 174.286644 174.713949 
L 175.094111 174.485849 
L 175.901577 174.266936 
L 176.709043 174.060994 
L 177.51651 173.871804 
L 178.323976 173.703147 
L 179.131442 173.558804 
L 179.938909 173.442558 
L 180.746375 173.354965 
L 181.553841 173.281557 
L 182.361308 173.218375 
L 183.168774 173.163423 
L 183.97624 173.114706 
L 184.783706 173.070229 
L 185.591173 173.027997 
L 186.398639 172.986013 
L 187.206105 172.942283 
L 188.013572 172.894811 
L 188.821038 172.841603 
L 189.628504 172.780661 
L 190.435971 172.709993 
L 191.243437 172.6276 
L 192.050903 172.53149 
L 192.85837 172.379553 
L 193.665836 172.020233 
L 194.473302 171.468712 
L 195.280769 170.758958 
L 196.088235 169.924939 
L 196.895701 169.000624 
L 197.703167 168.019981 
L 198.510634 167.01698 
L 199.3181 166.025587 
L 200.125566 165.079772 
L 200.933033 164.213504 
L 201.740499 163.46075 
L 202.547965 162.855479 
L 203.355432 162.431659 
L 204.162898 162.22326 
L 204.970364 162.22448 
L 205.777831 162.312243 
L 206.585297 162.465626 
L 207.392763 162.674332 
L 208.200229 162.928062 
L 209.007696 163.216521 
L 209.815162 163.52941 
L 210.622628 163.856433 
L 211.430095 164.187293 
L 212.237561 164.511691 
L 213.045027 164.819332 
L 213.852494 165.099917 
L 214.65996 165.343149 
L 215.467426 165.538732 
L 216.274893 165.676368 
L 217.082359 165.763827 
L 217.889825 165.847624 
L 218.697292 165.929894 
L 219.504758 166.009591 
L 220.312224 166.085666 
L 221.11969 166.157075 
L 221.927157 166.222771 
L 222.734623 166.281707 
L 223.542089 166.332837 
L 224.349556 166.375115 
L 225.157022 166.407494 
L 225.964488 166.428928 
L 226.771955 166.43837 
L 227.579421 166.434775 
L 228.386887 166.417096 
L 229.194354 166.356542 
L 230.00182 166.192396 
L 230.809286 165.936326 
L 231.616752 165.603244 
L 232.424219 165.208065 
L 233.231685 164.765705 
L 234.039151 164.291078 
L 234.846618 163.799099 
L 235.654084 163.304681 
L 236.46155 162.822741 
L 237.269017 162.368193 
L 238.076483 161.95595 
L 238.883949 161.600929 
L 239.691416 161.318043 
L 240.498882 161.122207 
L 241.306348 160.999765 
L 242.113814 160.897155 
L 242.921281 160.809945 
L 243.728747 160.735367 
L 244.536213 160.670656 
L 245.34368 160.613047 
L 246.151146 160.559772 
L 246.958612 160.508067 
L 247.766079 160.455165 
L 248.573545 160.398301 
L 249.381011 160.334707 
L 250.188478 160.26162 
L 250.995944 160.176272 
L 251.80341 160.075898 
L 252.610877 159.957731 
L 253.418343 159.783736 
L 254.225809 159.500596 
L 255.033275 159.123161 
L 255.840742 158.667453 
L 256.648208 158.14949 
L 257.455674 157.585293 
L 258.263141 156.990881 
L 259.070607 156.382275 
L 259.878073 155.775494 
L 260.68554 155.186557 
L 261.493006 154.631486 
L 262.300472 154.1263 
L 263.107939 153.687018 
L 263.915405 153.329661 
L 264.722871 153.070248 
L 265.530337 152.887493 
L 266.337804 152.731136 
L 267.14527 152.596937 
L 267.952736 152.481085 
L 268.760203 152.379768 
L 269.567669 152.289175 
L 270.375135 152.205492 
L 271.182602 152.124909 
L 271.990068 152.043613 
L 272.797534 151.957794 
L 273.605001 151.863639 
L 274.412467 151.757335 
L 275.219933 151.635073 
L 276.0274 151.493039 
L 276.834866 151.327422 
L 277.642332 151.134873 
L 278.449798 150.915389 
L 279.257265 150.67028 
L 280.064731 150.400855 
L 280.872197 150.108426 
L 281.679664 149.794303 
L 282.48713 149.459796 
L 283.294596 149.106216 
L 284.102063 148.734873 
L 284.909529 148.347077 
L 285.716995 147.944139 
L 286.524462 147.527369 
L 287.331928 147.098078 
L 288.139394 146.657576 
L 288.94686 146.207174 
L 288.94686 146.051706 
L 288.94686 146.051706 
L 288.139394 146.490234 
L 287.331928 146.918997 
L 286.524462 147.336785 
L 285.716995 147.74239 
L 284.909529 148.134605 
L 284.102063 148.512221 
L 283.294596 148.87403 
L 282.48713 149.218825 
L 281.679664 149.545396 
L 280.872197 149.852535 
L 280.064731 150.139035 
L 279.257265 150.403687 
L 278.449798 150.645284 
L 277.642332 150.862616 
L 276.834866 151.054475 
L 276.0274 151.220111 
L 275.219933 151.362197 
L 274.412467 151.484544 
L 273.605001 151.590965 
L 272.797534 151.685271 
L 271.990068 151.771273 
L 271.182602 151.852782 
L 270.375135 151.93361 
L 269.567669 152.017569 
L 268.760203 152.10847 
L 267.952736 152.210125 
L 267.14527 152.326344 
L 266.337804 152.46094 
L 265.530337 152.617724 
L 264.722871 152.800946 
L 263.915405 153.062277 
L 263.107939 153.423765 
L 262.300472 153.869109 
L 261.493006 154.382009 
L 260.68554 154.946163 
L 259.878073 155.545272 
L 259.070607 156.163034 
L 258.263141 156.783149 
L 257.455674 157.389315 
L 256.648208 157.965233 
L 255.840742 158.494601 
L 255.033275 158.961119 
L 254.225809 159.348485 
L 253.418343 159.6404 
L 252.610877 159.821751 
L 251.80341 159.946727 
L 250.995944 160.053926 
L 250.188478 160.146063 
L 249.381011 160.225856 
L 248.573545 160.296024 
L 247.766079 160.359282 
L 246.958612 160.418349 
L 246.151146 160.475942 
L 245.34368 160.534778 
L 244.536213 160.597575 
L 243.728747 160.667051 
L 242.921281 160.745921 
L 242.113814 160.836905 
L 241.306348 160.942719 
L 240.498882 161.067761 
L 239.691416 161.265969 
L 238.883949 161.551178 
L 238.076483 161.908458 
L 237.269017 162.322876 
L 236.46155 162.779498 
L 235.654084 163.263392 
L 234.846618 163.759626 
L 234.039151 164.253267 
L 233.231685 164.729382 
L 232.424219 165.173039 
L 231.616752 165.569305 
L 230.809286 165.903248 
L 230.00182 166.159935 
L 229.194354 166.324433 
L 228.386887 166.385048 
L 227.579421 166.402245 
L 226.771955 166.404778 
L 225.964488 166.393768 
L 225.157022 166.37034 
L 224.349556 166.335615 
L 223.542089 166.290717 
L 222.734623 166.236769 
L 221.927157 166.174892 
L 221.11969 166.106211 
L 220.312224 166.031847 
L 219.504758 165.952924 
L 218.697292 165.870565 
L 217.889825 165.785892 
L 217.082359 165.700028 
L 216.274893 165.610892 
L 215.467426 165.471646 
L 214.65996 165.274415 
L 213.852494 165.02952 
L 213.045027 164.747281 
L 212.237561 164.438017 
L 211.430095 164.11205 
L 210.622628 163.7797 
L 209.815162 163.451286 
L 209.007696 163.13713 
L 208.200229 162.847551 
L 207.392763 162.59287 
L 206.585297 162.383407 
L 205.777831 162.229483 
L 204.970364 162.141417 
L 204.162898 162.140222 
L 203.355432 162.349706 
L 202.547965 162.775726 
L 201.740499 163.384131 
L 200.933033 164.140771 
L 200.125566 165.011496 
L 199.3181 165.962153 
L 198.510634 166.958594 
L 197.703167 167.966666 
L 196.895701 168.95222 
L 196.088235 169.881105 
L 195.280769 170.719169 
L 194.473302 171.432263 
L 193.665836 171.986235 
L 192.85837 172.346936 
L 192.050903 172.499082 
L 191.243437 172.594881 
L 190.435971 172.676657 
L 189.628504 172.746452 
L 188.821038 172.806308 
L 188.013572 172.858266 
L 187.206105 172.904367 
L 186.398639 172.946655 
L 185.591173 172.98717 
L 184.783706 173.027954 
L 183.97624 173.071048 
L 183.168774 173.118495 
L 182.361308 173.172336 
L 181.553841 173.234613 
L 180.746375 173.307368 
L 179.938909 173.394573 
L 179.131442 173.510487 
L 178.323976 173.65451 
L 177.51651 173.822861 
L 176.709043 174.011761 
L 175.901577 174.21743 
L 175.094111 174.436089 
L 174.286644 174.663956 
L 173.479178 174.897254 
L 172.671712 175.132202 
L 171.864246 175.365019 
L 171.056779 175.591928 
L 170.249313 175.809147 
L 169.441847 176.012897 
L 168.63438 176.199398 
L 167.826914 176.367916 
L 167.019448 176.534137 
L 166.211981 176.700379 
L 165.404515 176.866051 
L 164.597049 177.030558 
L 163.789582 177.193307 
L 162.982116 177.353706 
L 162.17465 177.511162 
L 161.367184 177.665081 
L 160.559717 177.81487 
L 159.752251 177.959937 
L 158.944785 178.099687 
L 158.137318 178.233528 
L 157.329852 178.360868 
L 156.522386 178.481112 
L 155.714919 178.595486 
L 154.907453 178.712048 
L 154.099987 178.830615 
L 153.29252 178.949757 
L 152.485054 179.068047 
L 151.677588 179.184054 
L 150.870121 179.296351 
L 150.062655 179.403508 
L 149.255189 179.504098 
L 148.447723 179.59669 
L 147.640256 179.679856 
L 146.83279 179.752168 
L 146.025324 179.812197 
L 145.217857 179.858513 
L 144.410391 179.889688 
L 143.602925 179.905463 
L 142.795458 179.910466 
L 141.987992 179.906641 
L 141.180526 179.895492 
L 140.373059 179.878521 
L 139.565593 179.857233 
L 138.758127 179.833131 
L 137.950661 179.807717 
L 137.143194 179.782494 
L 136.335728 179.758967 
L 135.528262 179.738639 
L 134.720795 179.723011 
L 133.913329 179.713589 
L 133.105863 179.711875 
L 132.298396 179.719372 
L 131.49093 179.736521 
L 130.683464 179.76012 
L 129.875997 179.789099 
L 129.068531 179.822646 
L 128.261065 179.859953 
L 127.453599 179.90021 
L 126.646132 179.942607 
L 125.838666 179.986334 
L 125.0312 180.030581 
L 124.223733 180.074539 
L 123.416267 180.117398 
L 122.608801 180.158347 
L 121.801334 180.196578 
L 120.993868 180.231281 
L 120.186402 180.261645 
L 119.378935 180.290835 
L 118.571469 180.329317 
L 117.764003 180.37652 
L 116.956536 180.431133 
L 116.14907 180.491846 
L 115.341604 180.557351 
L 114.534138 180.626338 
L 113.726671 180.697497 
L 112.919205 180.769519 
L 112.111739 180.841094 
L 111.304272 180.910913 
L 110.496806 180.977666 
L 109.68934 181.040043 
L 108.881873 181.096735 
L 108.074407 181.146433 
L 107.266941 181.190401 
L 106.459474 181.23413 
L 105.652008 181.277583 
L 104.844542 181.320448 
L 104.037076 181.362411 
L 103.229609 181.40316 
L 102.422143 181.442382 
L 101.614677 181.479764 
L 100.80721 181.514993 
L 99.999744 181.547757 
L 99.192278 181.577741 
L 98.384811 181.604635 
L 97.577345 181.628124 
L 96.769879 181.647896 
L 95.962412 181.663639 
L 95.154946 181.676274 
L 94.34748 181.688232 
L 93.540013 181.699638 
L 92.732547 181.710541 
L 91.925081 181.72099 
L 91.117615 181.731034 
L 90.310148 181.740722 
L 89.502682 181.750103 
L 88.695216 181.759227 
L 87.887749 181.768143 
L 87.080283 181.7769 
L 86.272817 181.785547 
L 85.46535 181.794133 
L 84.657884 181.802708 
L 83.850418 181.81132 
L 83.042951 181.821433 
L 82.235485 181.835201 
L 81.428019 181.852103 
L 80.620553 181.871573 
L 79.813086 181.893045 
L 79.00562 181.915953 
L 78.198154 181.93973 
L 77.390687 181.963811 
L 76.583221 181.987627 
L 75.775755 182.010614 
L 74.968288 182.032205 
L 74.160822 182.051833 
L 73.353356 182.068933 
L 72.545889 182.082938 
L 71.738423 182.093281 
L 70.930957 182.100842 
L 70.123491 182.107606 
L 69.316024 182.113766 
L 68.508558 182.119497 
L 67.701092 182.124975 
L 66.893625 182.130374 
L 66.086159 182.135871 
L 65.278693 182.141641 
L 64.471226 182.14786 
L 63.66376 182.154702 
L 62.856294 182.162344 
L 62.048827 182.170961 
L 61.241361 182.180729 
L 60.433895 182.191822 
L 59.626428 182.204417 
L 58.818962 182.219063 
L 58.011496 182.236204 
L 57.20403 182.255719 
L 56.396563 182.277489 
L 55.589097 182.301393 
L 54.781631 182.327311 
L 53.974164 182.355123 
L 53.166698 182.384709 
L 52.359232 182.415947 
L 51.551765 182.448719 
L 50.744299 182.482903 
L 49.936833 182.51838 
L 49.129366 182.555028 
L 48.3219 182.592728 
L 47.514434 182.63136 
z
" clip-path="url(#p022d9cf300)" style="fill: url(#h3f496d3130)"/>
   </g>
   <g id="FillBetweenPolyCollection_4">
    <path d="M 47.514434 182.615147 
L 47.514434 182.63136 
L 48.3219 182.592728 
L 49.129366 182.555028 
L 49.936833 182.51838 
L 50.744299 182.482903 
L 51.551765 182.448719 
L 52.359232 182.415947 
L 53.166698 182.384709 
L 53.974164 182.355123 
L 54.781631 182.327311 
L 55.589097 182.301393 
L 56.396563 182.277489 
L 57.20403 182.255719 
L 58.011496 182.236204 
L 58.818962 182.219063 
L 59.626428 182.204417 
L 60.433895 182.191822 
L 61.241361 182.180729 
L 62.048827 182.170961 
L 62.856294 182.162344 
L 63.66376 182.154702 
L 64.471226 182.14786 
L 65.278693 182.141641 
L 66.086159 182.135871 
L 66.893625 182.130374 
L 67.701092 182.124975 
L 68.508558 182.119497 
L 69.316024 182.113766 
L 70.123491 182.107606 
L 70.930957 182.100842 
L 71.738423 182.093281 
L 72.545889 182.082938 
L 73.353356 182.068933 
L 74.160822 182.051833 
L 74.968288 182.032205 
L 75.775755 182.010614 
L 76.583221 181.987627 
L 77.390687 181.963811 
L 78.198154 181.93973 
L 79.00562 181.915953 
L 79.813086 181.893045 
L 80.620553 181.871573 
L 81.428019 181.852103 
L 82.235485 181.835201 
L 83.042951 181.821433 
L 83.850418 181.81132 
L 84.657884 181.802708 
L 85.46535 181.794133 
L 86.272817 181.785547 
L 87.080283 181.7769 
L 87.887749 181.768143 
L 88.695216 181.759227 
L 89.502682 181.750103 
L 90.310148 181.740722 
L 91.117615 181.731034 
L 91.925081 181.72099 
L 92.732547 181.710541 
L 93.540013 181.699638 
L 94.34748 181.688232 
L 95.154946 181.676274 
L 95.962412 181.663639 
L 96.769879 181.647896 
L 97.577345 181.628124 
L 98.384811 181.604635 
L 99.192278 181.577741 
L 99.999744 181.547757 
L 100.80721 181.514993 
L 101.614677 181.479764 
L 102.422143 181.442382 
L 103.229609 181.40316 
L 104.037076 181.362411 
L 104.844542 181.320448 
L 105.652008 181.277583 
L 106.459474 181.23413 
L 107.266941 181.190401 
L 108.074407 181.146433 
L 108.881873 181.096735 
L 109.68934 181.040043 
L 110.496806 180.977666 
L 111.304272 180.910913 
L 112.111739 180.841094 
L 112.919205 180.769519 
L 113.726671 180.697497 
L 114.534138 180.626338 
L 115.341604 180.557351 
L 116.14907 180.491846 
L 116.956536 180.431133 
L 117.764003 180.37652 
L 118.571469 180.329317 
L 119.378935 180.290835 
L 120.186402 180.261645 
L 120.993868 180.231281 
L 121.801334 180.196578 
L 122.608801 180.158347 
L 123.416267 180.117398 
L 124.223733 180.074539 
L 125.0312 180.030581 
L 125.838666 179.986334 
L 126.646132 179.942607 
L 127.453599 179.90021 
L 128.261065 179.859953 
L 129.068531 179.822646 
L 129.875997 179.789099 
L 130.683464 179.76012 
L 131.49093 179.736521 
L 132.298396 179.719372 
L 133.105863 179.711875 
L 133.913329 179.713589 
L 134.720795 179.723011 
L 135.528262 179.738639 
L 136.335728 179.758967 
L 137.143194 179.782494 
L 137.950661 179.807717 
L 138.758127 179.833131 
L 139.565593 179.857233 
L 140.373059 179.878521 
L 141.180526 179.895492 
L 141.987992 179.906641 
L 142.795458 179.910466 
L 143.602925 179.905463 
L 144.410391 179.889688 
L 145.217857 179.858513 
L 146.025324 179.812197 
L 146.83279 179.752168 
L 147.640256 179.679856 
L 148.447723 179.59669 
L 149.255189 179.504098 
L 150.062655 179.403508 
L 150.870121 179.296351 
L 151.677588 179.184054 
L 152.485054 179.068047 
L 153.29252 178.949757 
L 154.099987 178.830615 
L 154.907453 178.712048 
L 155.714919 178.595486 
L 156.522386 178.481112 
L 157.329852 178.360868 
L 158.137318 178.233528 
L 158.944785 178.099687 
L 159.752251 177.959937 
L 160.559717 177.81487 
L 161.367184 177.665081 
L 162.17465 177.511162 
L 162.982116 177.353706 
L 163.789582 177.193307 
L 164.597049 177.030558 
L 165.404515 176.866051 
L 166.211981 176.700379 
L 167.019448 176.534137 
L 167.826914 176.367916 
L 168.63438 176.199398 
L 169.441847 176.012897 
L 170.249313 175.809147 
L 171.056779 175.591928 
L 171.864246 175.365019 
L 172.671712 175.132202 
L 173.479178 174.897254 
L 174.286644 174.663956 
L 175.094111 174.436089 
L 175.901577 174.21743 
L 176.709043 174.011761 
L 177.51651 173.822861 
L 178.323976 173.65451 
L 179.131442 173.510487 
L 179.938909 173.394573 
L 180.746375 173.307368 
L 181.553841 173.234613 
L 182.361308 173.172336 
L 183.168774 173.118495 
L 183.97624 173.071048 
L 184.783706 173.027954 
L 185.591173 172.98717 
L 186.398639 172.946655 
L 187.206105 172.904367 
L 188.013572 172.858266 
L 188.821038 172.806308 
L 189.628504 172.746452 
L 190.435971 172.676657 
L 191.243437 172.594881 
L 192.050903 172.499082 
L 192.85837 172.346936 
L 193.665836 171.986235 
L 194.473302 171.432263 
L 195.280769 170.719169 
L 196.088235 169.881105 
L 196.895701 168.95222 
L 197.703167 167.966666 
L 198.510634 166.958594 
L 199.3181 165.962153 
L 200.125566 165.011496 
L 200.933033 164.140771 
L 201.740499 163.384131 
L 202.547965 162.775726 
L 203.355432 162.349706 
L 204.162898 162.140222 
L 204.970364 162.141417 
L 205.777831 162.229483 
L 206.585297 162.383407 
L 207.392763 162.59287 
L 208.200229 162.847551 
L 209.007696 163.13713 
L 209.815162 163.451286 
L 210.622628 163.7797 
L 211.430095 164.11205 
L 212.237561 164.438017 
L 213.045027 164.747281 
L 213.852494 165.02952 
L 214.65996 165.274415 
L 215.467426 165.471646 
L 216.274893 165.610892 
L 217.082359 165.700028 
L 217.889825 165.785892 
L 218.697292 165.870565 
L 219.504758 165.952924 
L 220.312224 166.031847 
L 221.11969 166.106211 
L 221.927157 166.174892 
L 222.734623 166.236769 
L 223.542089 166.290717 
L 224.349556 166.335615 
L 225.157022 166.37034 
L 225.964488 166.393768 
L 226.771955 166.404778 
L 227.579421 166.402245 
L 228.386887 166.385048 
L 229.194354 166.324433 
L 230.00182 166.159935 
L 230.809286 165.903248 
L 231.616752 165.569305 
L 232.424219 165.173039 
L 233.231685 164.729382 
L 234.039151 164.253267 
L 234.846618 163.759626 
L 235.654084 163.263392 
L 236.46155 162.779498 
L 237.269017 162.322876 
L 238.076483 161.908458 
L 238.883949 161.551178 
L 239.691416 161.265969 
L 240.498882 161.067761 
L 241.306348 160.942719 
L 242.113814 160.836905 
L 242.921281 160.745921 
L 243.728747 160.667051 
L 244.536213 160.597575 
L 245.34368 160.534778 
L 246.151146 160.475942 
L 246.958612 160.418349 
L 247.766079 160.359282 
L 248.573545 160.296024 
L 249.381011 160.225856 
L 250.188478 160.146063 
L 250.995944 160.053926 
L 251.80341 159.946727 
L 252.610877 159.821751 
L 253.418343 159.6404 
L 254.225809 159.348485 
L 255.033275 158.961119 
L 255.840742 158.494601 
L 256.648208 157.965233 
L 257.455674 157.389315 
L 258.263141 156.783149 
L 259.070607 156.163034 
L 259.878073 155.545272 
L 260.68554 154.946163 
L 261.493006 154.382009 
L 262.300472 153.869109 
L 263.107939 153.423765 
L 263.915405 153.062277 
L 264.722871 152.800946 
L 265.530337 152.617724 
L 266.337804 152.46094 
L 267.14527 152.326344 
L 267.952736 152.210125 
L 268.760203 152.10847 
L 269.567669 152.017569 
L 270.375135 151.93361 
L 271.182602 151.852782 
L 271.990068 151.771273 
L 272.797534 151.685271 
L 273.605001 151.590965 
L 274.412467 151.484544 
L 275.219933 151.362197 
L 276.0274 151.220111 
L 276.834866 151.054475 
L 277.642332 150.862616 
L 278.449798 150.645284 
L 279.257265 150.403687 
L 280.064731 150.139035 
L 280.872197 149.852535 
L 281.679664 149.545396 
L 282.48713 149.218825 
L 283.294596 148.87403 
L 284.102063 148.512221 
L 284.909529 148.134605 
L 285.716995 147.74239 
L 286.524462 147.336785 
L 287.331928 146.918997 
L 288.139394 146.490234 
L 288.94686 146.051706 
L 288.94686 138.309393 
L 288.94686 138.309393 
L 288.139394 138.705556 
L 287.331928 139.092639 
L 286.524462 139.46969 
L 285.716995 139.835759 
L 284.909529 140.189894 
L 284.102063 140.531145 
L 283.294596 140.858561 
L 282.48713 141.171191 
L 281.679664 141.468084 
L 280.872197 141.748289 
L 280.064731 142.010855 
L 279.257265 142.254832 
L 278.449798 142.479268 
L 277.642332 142.683213 
L 276.834866 142.865709 
L 276.0274 143.024035 
L 275.219933 143.159127 
L 274.412467 143.274825 
L 273.605001 143.374969 
L 272.797534 143.463399 
L 271.990068 143.543956 
L 271.182602 143.620478 
L 270.375135 143.696808 
L 269.567669 143.776784 
L 268.760203 143.864247 
L 267.952736 143.963038 
L 267.14527 144.076995 
L 266.337804 144.209961 
L 265.530337 144.365773 
L 264.722871 144.548831 
L 263.915405 144.824117 
L 263.107939 145.220846 
L 262.300472 145.720015 
L 261.493006 146.302625 
L 260.68554 146.949672 
L 259.878073 147.642155 
L 259.070607 148.361074 
L 258.263141 149.087425 
L 257.455674 149.802208 
L 256.648208 150.486421 
L 255.840742 151.121063 
L 255.033275 151.687131 
L 254.225809 152.165624 
L 253.418343 152.537541 
L 252.610877 152.785191 
L 251.80341 152.96766 
L 250.995944 153.127822 
L 250.188478 153.269156 
L 249.381011 153.395141 
L 248.573545 153.509256 
L 247.766079 153.61498 
L 246.958612 153.715792 
L 246.151146 153.815172 
L 245.34368 153.916598 
L 244.536213 154.023548 
L 243.728747 154.139504 
L 242.921281 154.267942 
L 242.113814 154.412343 
L 241.306348 154.576185 
L 240.498882 154.76491 
L 239.691416 155.0416 
L 238.883949 155.421831 
L 238.076483 155.88746 
L 237.269017 156.420341 
L 236.46155 157.002333 
L 235.654084 157.61529 
L 234.846618 158.24107 
L 234.039151 158.861528 
L 233.231685 159.45852 
L 232.424219 160.013904 
L 231.616752 160.509534 
L 230.809286 160.927268 
L 230.00182 161.248962 
L 229.194354 161.456471 
L 228.386887 161.535705 
L 227.579421 161.562742 
L 226.771955 161.573574 
L 225.964488 161.569548 
L 225.157022 161.552012 
L 224.349556 161.522315 
L 223.542089 161.481804 
L 222.734623 161.431829 
L 221.927157 161.373737 
L 221.11969 161.308876 
L 220.312224 161.238594 
L 219.504758 161.16424 
L 218.697292 161.087162 
L 217.889825 161.008708 
L 217.082359 160.930226 
L 216.274893 160.849834 
L 215.467426 160.720471 
L 214.65996 160.534215 
L 213.852494 160.301471 
L 213.045027 160.032641 
L 212.237561 159.738131 
L 211.430095 159.428343 
L 210.622628 159.113681 
L 209.815162 158.80455 
L 209.007696 158.511352 
L 208.200229 158.244492 
L 207.392763 158.014373 
L 206.585297 157.8314 
L 205.777831 157.705975 
L 204.970364 157.648503 
L 204.162898 157.682032 
L 203.355432 157.952123 
L 202.547965 158.466784 
L 201.740499 159.186926 
L 200.933033 160.07346 
L 200.125566 161.087296 
L 199.3181 162.189345 
L 198.510634 163.340519 
L 197.703167 164.501728 
L 196.895701 165.633884 
L 196.088235 166.697896 
L 195.280769 167.654676 
L 194.473302 168.465135 
L 193.665836 169.090183 
L 192.85837 169.490732 
L 192.050903 169.648855 
L 191.243437 169.735152 
L 190.435971 169.798236 
L 189.628504 169.841662 
L 188.821038 169.868984 
L 188.013572 169.883756 
L 187.206105 169.889532 
L 186.398639 169.889869 
L 185.591173 169.888319 
L 184.783706 169.888437 
L 183.97624 169.893779 
L 183.168774 169.907898 
L 182.361308 169.934348 
L 181.553841 169.976685 
L 180.746375 170.038463 
L 179.938909 170.127485 
L 179.131442 170.274455 
L 178.323976 170.477847 
L 177.51651 170.729182 
L 176.709043 171.01998 
L 175.901577 171.341764 
L 175.094111 171.686053 
L 174.286644 172.044368 
L 173.479178 172.408231 
L 172.671712 172.769162 
L 171.864246 173.118682 
L 171.056779 173.448311 
L 170.249313 173.749571 
L 169.441847 174.013983 
L 168.63438 174.233067 
L 167.826914 174.405171 
L 167.019448 174.566028 
L 166.211981 174.722284 
L 165.404515 174.874119 
L 164.597049 175.021715 
L 163.789582 175.165252 
L 162.982116 175.30491 
L 162.17465 175.440871 
L 161.367184 175.573314 
L 160.559717 175.70242 
L 159.752251 175.82837 
L 158.944785 175.951345 
L 158.137318 176.071525 
L 157.329852 176.18909 
L 156.522386 176.304222 
L 155.714919 176.418778 
L 154.907453 176.540394 
L 154.099987 176.66836 
L 153.29252 176.800771 
L 152.485054 176.935722 
L 151.677588 177.07131 
L 150.870121 177.205629 
L 150.062655 177.336776 
L 149.255189 177.462847 
L 148.447723 177.581936 
L 147.640256 177.692139 
L 146.83279 177.791552 
L 146.025324 177.878271 
L 145.217857 177.950391 
L 144.410391 178.006008 
L 143.602925 178.045068 
L 142.795458 178.07462 
L 141.987992 178.096649 
L 141.180526 178.112404 
L 140.373059 178.123132 
L 139.565593 178.13008 
L 138.758127 178.134497 
L 137.950661 178.137631 
L 137.143194 178.140728 
L 136.335728 178.145037 
L 135.528262 178.151805 
L 134.720795 178.16228 
L 133.913329 178.17771 
L 133.105863 178.199342 
L 132.298396 178.228424 
L 131.49093 178.265821 
L 130.683464 178.310381 
L 129.875997 178.360904 
L 129.068531 178.41625 
L 128.261065 178.475281 
L 127.453599 178.536859 
L 126.646132 178.599847 
L 125.838666 178.663104 
L 125.0312 178.725493 
L 124.223733 178.785876 
L 123.416267 178.843114 
L 122.608801 178.896069 
L 121.801334 178.943602 
L 120.993868 178.984575 
L 120.186402 179.01785 
L 119.378935 179.046236 
L 118.571469 179.080215 
L 117.764003 179.119745 
L 116.956536 179.164066 
L 116.14907 179.212416 
L 115.341604 179.264036 
L 114.534138 179.318163 
L 113.726671 179.374038 
L 112.919205 179.430898 
L 112.111739 179.487984 
L 111.304272 179.544534 
L 110.496806 179.599788 
L 109.68934 179.652985 
L 108.881873 179.703363 
L 108.074407 179.750162 
L 107.266941 179.796885 
L 106.459474 179.852795 
L 105.652008 179.916826 
L 104.844542 179.987427 
L 104.037076 180.063051 
L 103.229609 180.142149 
L 102.422143 180.223172 
L 101.614677 180.304572 
L 100.80721 180.384799 
L 99.999744 180.462304 
L 99.192278 180.535541 
L 98.384811 180.602958 
L 97.577345 180.663009 
L 96.769879 180.714143 
L 95.962412 180.754813 
L 95.154946 180.786767 
L 94.34748 180.816244 
L 93.540013 180.843709 
L 92.732547 180.869432 
L 91.925081 180.893683 
L 91.117615 180.916736 
L 90.310148 180.938859 
L 89.502682 180.960324 
L 88.695216 180.981403 
L 87.887749 181.002365 
L 87.080283 181.023483 
L 86.272817 181.045026 
L 85.46535 181.067267 
L 84.657884 181.090475 
L 83.850418 181.114922 
L 83.042951 181.14304 
L 82.235485 181.178002 
L 81.428019 181.218659 
L 80.620553 181.263793 
L 79.813086 181.312181 
L 79.00562 181.362604 
L 78.198154 181.41384 
L 77.390687 181.46467 
L 76.583221 181.513872 
L 75.775755 181.560226 
L 74.968288 181.602511 
L 74.160822 181.639507 
L 73.353356 181.669993 
L 72.545889 181.692748 
L 71.738423 181.706552 
L 70.930957 181.713865 
L 70.123491 181.719725 
L 69.316024 181.724448 
L 68.508558 181.728304 
L 67.701092 181.731564 
L 66.893625 181.734499 
L 66.086159 181.737382 
L 65.278693 181.740482 
L 64.471226 181.744072 
L 63.66376 181.748422 
L 62.856294 181.753803 
L 62.048827 181.760488 
L 61.241361 181.768746 
L 60.433895 181.77885 
L 59.626428 181.791069 
L 58.818962 181.808019 
L 58.011496 181.832352 
L 57.20403 181.863623 
L 56.396563 181.901379 
L 55.589097 181.945166 
L 54.781631 181.994533 
L 53.974164 182.049025 
L 53.166698 182.10819 
L 52.359232 182.171576 
L 51.551765 182.238728 
L 50.744299 182.309195 
L 49.936833 182.382523 
L 49.129366 182.45826 
L 48.3219 182.535952 
L 47.514434 182.615147 
z
" clip-path="url(#p022d9cf300)" style="fill: url(#h5601700b09)"/>
   </g>
   <g id="patch_3">
    <path d="M 35.442813 182.68 
L 35.442813 7.2 
" style="fill: none; stroke: #000000; stroke-width: 0.5; stroke-linejoin: miter; stroke-linecap: square"/>
   </g>
   <g id="patch_4">
    <path d="M 35.442813 182.68 
L 301.018482 182.68 
" style="fill: none; stroke: #000000; stroke-width: 0.5; stroke-linejoin: miter; stroke-linecap: square"/>
   </g>
   <g id="legend_1">
    <g id="patch_5">
     <path d="M 44.442813 23.7 
L 64.442813 23.7 
L 64.442813 16.7 
L 44.442813 16.7 
z
" style="fill: url(#h21785880af)"/>
    </g>
    <g id="text_14">
     <!-- Solo -->
     <g transform="translate(72.442813 23.7) scale(0.1 -0.1)">
      <defs>
       <path id="RobotoCondensed-Regular-53" d="M 2481 1150 
Q 2481 1469 2312 1656 
Q 2144 1844 1591 2042 
Q 1038 2241 713 2547 
Q 388 2853 388 3375 
Q 388 3906 741 4259 
Q 1094 4613 1691 4613 
Q 2356 4613 2706 4191 
Q 3056 3769 3056 3238 
L 2481 3238 
Q 2481 3619 2293 3869 
Q 2106 4119 1691 4119 
Q 1313 4119 1139 3908 
Q 966 3697 966 3381 
Q 966 3094 1170 2903 
Q 1375 2713 1806 2556 
Q 2475 2338 2765 2013 
Q 3056 1688 3056 1156 
Q 3056 600 2695 268 
Q 2334 -63 1719 -63 
Q 1363 -63 1028 93 
Q 694 250 480 558 
Q 266 866 266 1319 
L 841 1319 
Q 841 853 1098 640 
Q 1356 428 1719 428 
Q 2094 428 2287 623 
Q 2481 819 2481 1150 
z
" transform="scale(0.015625)"/>
       <path id="RobotoCondensed-Regular-6c" d="M 1009 4800 
L 1009 0 
L 459 0 
L 459 4800 
L 1009 4800 
z
" transform="scale(0.015625)"/>
      </defs>
      <use xlink:href="#RobotoCondensed-Regular-53"/>
      <use xlink:href="#RobotoCondensed-Regular-6f" transform="translate(51.855469 0)"/>
      <use xlink:href="#RobotoCondensed-Regular-6c" transform="translate(102.050781 0)"/>
      <use xlink:href="#RobotoCondensed-Regular-6f" transform="translate(125 0)"/>
     </g>
    </g>
    <g id="patch_6">
     <path d="M 44.442813 38.23125 
L 64.442813 38.23125 
L 64.442813 31.23125 
L 44.442813 31.23125 
z
" style="fill: url(#h25254d53b7)"/>
    </g>
    <g id="text_15">
     <!-- Initial -->
     <g transform="translate(72.442813 38.23125) scale(0.1 -0.1)">
      <defs>
       <path id="RobotoCondensed-Regular-49" d="M 1091 4550 
L 1091 0 
L 516 0 
L 516 4550 
L 1091 4550 
z
" transform="scale(0.015625)"/>
      </defs>
      <use xlink:href="#RobotoCondensed-Regular-49"/>
      <use xlink:href="#RobotoCondensed-Regular-6e" transform="translate(25 0)"/>
      <use xlink:href="#RobotoCondensed-Regular-69" transform="translate(73.4375 0)"/>
      <use xlink:href="#RobotoCondensed-Regular-74" transform="translate(96.386719 0)"/>
      <use xlink:href="#RobotoCondensed-Regular-69" transform="translate(125.976562 0)"/>
      <use xlink:href="#RobotoCondensed-Regular-61" transform="translate(148.925781 0)"/>
      <use xlink:href="#RobotoCondensed-Regular-6c" transform="translate(196.826172 0)"/>
     </g>
    </g>
    <g id="patch_7">
     <path d="M 44.442813 52.7625 
L 64.442813 52.7625 
L 64.442813 45.7625 
L 44.442813 45.7625 
z
" style="fill: url(#h3f496d3130)"/>
    </g>
    <g id="text_16">
     <!-- Middle -->
     <g transform="translate(72.442813 52.7625) scale(0.1 -0.1)">
      <defs>
       <path id="RobotoCondensed-Regular-4d" d="M 2419 841 
L 3606 4550 
L 4341 4550 
L 4341 0 
L 3769 0 
L 3769 1775 
L 3822 3538 
L 2634 0 
L 2197 0 
L 1009 3544 
L 1063 1775 
L 1063 0 
L 491 0 
L 491 4550 
L 1228 4550 
L 2419 841 
z
" transform="scale(0.015625)"/>
       <path id="RobotoCondensed-Regular-64" d="M 2234 0 
L 2209 366 
Q 1941 -63 1425 -63 
Q 925 -63 611 331 
Q 297 725 297 1528 
L 297 1844 
Q 297 2678 609 3061 
Q 922 3444 1431 3444 
Q 1922 3444 2188 3050 
L 2188 4800 
L 2738 4800 
L 2738 0 
L 2234 0 
z
M 850 1528 
Q 850 963 1019 695 
Q 1188 428 1569 428 
Q 1981 428 2188 847 
L 2188 2544 
Q 1972 2956 1575 2956 
Q 1194 2956 1023 2687 
Q 853 2419 850 1866 
L 850 1528 
z
" transform="scale(0.015625)"/>
      </defs>
      <use xlink:href="#RobotoCondensed-Regular-4d"/>
      <use xlink:href="#RobotoCondensed-Regular-69" transform="translate(75.537109 0)"/>
      <use xlink:href="#RobotoCondensed-Regular-64" transform="translate(98.486328 0)"/>
      <use xlink:href="#RobotoCondensed-Regular-64" transform="translate(148.095703 0)"/>
      <use xlink:href="#RobotoCondensed-Regular-6c" transform="translate(197.705078 0)"/>
      <use xlink:href="#RobotoCondensed-Regular-65" transform="translate(220.654297 0)"/>
     </g>
    </g>
    <g id="patch_8">
     <path d="M 44.442813 67.29375 
L 64.442813 67.29375 
L 64.442813 60.29375 
L 44.442813 60.29375 
z
" style="fill: url(#h5601700b09)"/>
    </g>
    <g id="text_17">
     <!-- End -->
     <g transform="translate(72.442813 67.29375) scale(0.1 -0.1)">
      <defs>
       <path id="RobotoCondensed-Regular-45" d="M 491 0 
L 491 4550 
L 2906 4550 
L 2906 4056 
L 1066 4056 
L 1066 2594 
L 2672 2594 
L 2672 2103 
L 1066 2103 
L 1066 491 
L 2938 491 
L 2938 0 
L 491 0 
z
" transform="scale(0.015625)"/>
      </defs>
      <use xlink:href="#RobotoCondensed-Regular-45"/>
      <use xlink:href="#RobotoCondensed-Regular-6e" transform="translate(49.707031 0)"/>
      <use xlink:href="#RobotoCondensed-Regular-64" transform="translate(98.144531 0)"/>
     </g>
    </g>
   </g>
  </g>
 </g>
 <defs>
  <clipPath id="p022d9cf300">
   <rect x="35.442813" y="7.2" width="265.575669" height="175.48"/>
  </clipPath>
 </defs>
 <defs>
  <pattern id="h21785880af" patternUnits="userSpaceOnUse" x="0" y="0" width="72" height="72">
   <rect x="0" y="0" width="73" height="73" fill="#e6e6e6"/>
   <path d="M -36 36 
L 36 -36 
M -33 39 
L 39 -33 
M -30 42 
L 42 -30 
M -27 45 
L 45 -27 
M -24 48 
L 48 -24 
M -21 51 
L 51 -21 
M -18 54 
L 54 -18 
M -15 57 
L 57 -15 
M -12 60 
L 60 -12 
M -9 63 
L 63 -9 
M -6 66 
L 66 -6 
M -3 69 
L 69 -3 
M 0 72 
L 72 0 
M 3 75 
L 75 3 
M 6 78 
L 78 6 
M 9 81 
L 81 9 
M 12 84 
L 84 12 
M 15 87 
L 87 15 
M 18 90 
L 90 18 
M 21 93 
L 93 21 
M 24 96 
L 96 24 
M 27 99 
L 99 27 
M 30 102 
L 102 30 
M 33 105 
L 105 33 
M 36 108 
L 108 36 
" style="fill: #000000; stroke: #000000; stroke-width: 1.5; stroke-linecap: butt; stroke-linejoin: miter"/>
  </pattern>
  <pattern id="h25254d53b7" patternUnits="userSpaceOnUse" x="0" y="0" width="72" height="72">
   <rect x="0" y="0" width="73" height="73" fill="#adadad"/>
   <path d="M -36 36 
L 36 108 
M -30 30 
L 42 102 
M -24 24 
L 48 96 
M -18 18 
L 54 90 
M -12 12 
L 60 84 
M -6 6 
L 66 78 
M 0 0 
L 72 72 
M 6 -6 
L 78 66 
M 12 -12 
L 84 60 
M 18 -18 
L 90 54 
M 24 -24 
L 96 48 
M 30 -30 
L 102 42 
M 36 -36 
L 108 36 
" style="fill: #000000; stroke: #000000; stroke-width: 1.5; stroke-linecap: butt; stroke-linejoin: miter"/>
  </pattern>
  <pattern id="h3f496d3130" patternUnits="userSpaceOnUse" x="0" y="0" width="72" height="72">
   <rect x="0" y="0" width="73" height="73" fill="#737373"/>
   <path d="M -36 36 
L 36 -36 
M -33 39 
L 39 -33 
M -30 42 
L 42 -30 
M -27 45 
L 45 -27 
M -24 48 
L 48 -24 
M -21 51 
L 51 -21 
M -18 54 
L 54 -18 
M -15 57 
L 57 -15 
M -12 60 
L 60 -12 
M -9 63 
L 63 -9 
M -6 66 
L 66 -6 
M -3 69 
L 69 -3 
M 0 72 
L 72 0 
M 3 75 
L 75 3 
M 6 78 
L 78 6 
M 9 81 
L 81 9 
M 12 84 
L 84 12 
M 15 87 
L 87 15 
M 18 90 
L 90 18 
M 21 93 
L 93 21 
M 24 96 
L 96 24 
M 27 99 
L 99 27 
M 30 102 
L 102 30 
M 33 105 
L 105 33 
M 36 108 
L 108 36 
M -36 36 
L 36 108 
M -33 33 
L 39 105 
M -30 30 
L 42 102 
M -27 27 
L 45 99 
M -24 24 
L 48 96 
M -21 21 
L 51 93 
M -18 18 
L 54 90 
M -15 15 
L 57 87 
M -12 12 
L 60 84 
M -9 9 
L 63 81 
M -6 6 
L 66 78 
M -3 3 
L 69 75 
M 0 0 
L 72 72 
M 3 -3 
L 75 69 
M 6 -6 
L 78 66 
M 9 -9 
L 81 63 
M 12 -12 
L 84 60 
M 15 -15 
L 87 57 
M 18 -18 
L 90 54 
M 21 -21 
L 93 51 
M 24 -24 
L 96 48 
M 27 -27 
L 99 45 
M 30 -30 
L 102 42 
M 33 -33 
L 105 39 
M 36 -36 
L 108 36 
" style="fill: #000000; stroke: #000000; stroke-width: 1.5; stroke-linecap: butt; stroke-linejoin: miter"/>
  </pattern>
  <pattern id="h5601700b09" patternUnits="userSpaceOnUse" x="0" y="0" width="72" height="72">
   <rect x="0" y="0" width="73" height="73" fill="#383838"/>
   <path d="M 0 70.5 
L 72 70.5 
M 0 67.5 
L 72 67.5 
M 0 64.5 
L 72 64.5 
M 0 61.5 
L 72 61.5 
M 0 58.5 
L 72 58.5 
M 0 55.5 
L 72 55.5 
M 0 52.5 
L 72 52.5 
M 0 49.5 
L 72 49.5 
M 0 46.5 
L 72 46.5 
M 0 43.5 
L 72 43.5 
M 0 40.5 
L 72 40.5 
M 0 37.5 
L 72 37.5 
M 0 34.5 
L 72 34.5 
M 0 31.5 
L 72 31.5 
M 0 28.5 
L 72 28.5 
M 0 25.5 
L 72 25.5 
M 0 22.5 
L 72 22.5 
M 0 19.5 
L 72 19.5 
M 0 16.5 
L 72 16.5 
M 0 13.5 
L 72 13.5 
M 0 10.5 
L 72 10.5 
M 0 7.5 
L 72 7.5 
M 0 4.5 
L 72 4.5 
M 0 1.5 
L 72 1.5 
" style="fill: #000000; stroke: #000000; stroke-width: 1.5; stroke-linecap: butt; stroke-linejoin: miter"/>
  </pattern>
 </defs>
</svg>
