<?xml version="1.0" encoding="utf-8" standalone="no"?>
<!DOCTYPE svg PUBLIC "-//W3C//DTD SVG 1.1//EN"
  "http://www.w3.org/Graphics/SVG/1.1/DTD/svg11.dtd">
<svg xmlns:xlink="http://www.w3.org/1999/xlink" width="312.994419pt" height="216.150625pt" viewBox="0 0 312.994419 216.150625" xmlns="http://www.w3.org/2000/svg" version="1.1">
 <metadata>
  <rdf:RDF xmlns:dc="http://purl.org/dc/elements/1.1/" xmlns:cc="http://creativecommons.org/ns#" xmlns:rdf="http://www.w3.org/1999/02/22-rdf-syntax-ns#">
   <cc:Work>
    <dc:type rdf:resource="http://purl.org/dc/dcmitype/StillImage"/>
    <dc:date>2026-04-28T10:28:08.258277</dc:date>
    <dc:format>image/svg+xml</dc:format>
    <dc:creator>
     <cc:Agent>
      <dc:title>Matplotlib v3.10.7, https://matplotlib.org/</dc:title>
     </cc:Agent>
    </dc:creator>
   </cc:Work>
  </rdf:RDF>
 </metadata>
 <defs>
  <style type="text/css">*{stroke-linejoin: round; stroke-linecap: butt}</style>
 </defs>
 <g id="figure_1">
  <g id="patch_1">
   <path d="M -0 216.150625 
L 312.994419 216.150625 
L 312.994419 0 
L -0 0 
z
" style="fill: #ffffff"/>
  </g>
  <g id="axes_1">
   <g id="patch_2">
    <path d="M 38.300625 185.56 
L 299.871294 185.56 
L 299.871294 7.2 
L 38.300625 7.2 
z
" style="fill: #ffffff"/>
   </g>
   <g id="matplotlib.axis_1">
    <g id="xtick_1">
     <g id="line2d_1">
      <defs>
       <path id="m701fd91fd2" d="M 0 0 
L 0 3.5 
" style="stroke: #000000; stroke-width: 0.8"/>
      </defs>
      <g>
       <use xlink:href="#m701fd91fd2" x="62.079777" y="185.56" style="stroke: #000000; stroke-width: 0.8"/>
      </g>
     </g>
     <g id="text_1">
      <!-- 2005 -->
      <g transform="translate(56.156652 197.06) scale(0.06 -0.06)">
       <defs>
        <path id="RobotoCondensed-Regular-32" d="M 2909 475 
L 2909 0 
L 366 0 
L 366 416 
L 1628 2088 
Q 1966 2541 2077 2802 
Q 2188 3063 2188 3328 
Q 2188 3663 2027 3900 
Q 1866 4138 1575 4138 
Q 1194 4138 1022 3878 
Q 850 3619 850 3213 
L 297 3213 
Q 297 3788 617 4200 
Q 938 4613 1575 4613 
Q 2125 4613 2433 4278 
Q 2741 3944 2741 3397 
Q 2741 2997 2541 2594 
Q 2341 2191 2047 1809 
L 1028 475 
L 2909 475 
z
" transform="scale(0.015625)"/>
        <path id="RobotoCondensed-Regular-30" d="M 2797 1944 
Q 2797 825 2467 381 
Q 2138 -63 1581 -63 
Q 1038 -63 703 370 
Q 369 803 359 1878 
L 359 2638 
Q 359 3753 695 4183 
Q 1031 4613 1578 4613 
Q 2131 4613 2461 4189 
Q 2791 3766 2797 2681 
L 2797 1944 
z
M 2247 2734 
Q 2247 3503 2073 3822 
Q 1900 4141 1578 4141 
Q 1266 4141 1092 3833 
Q 919 3525 913 2791 
L 913 1850 
Q 913 1088 1089 750 
Q 1266 413 1581 413 
Q 1903 413 2072 738 
Q 2241 1063 2247 1794 
L 2247 2734 
z
" transform="scale(0.015625)"/>
        <path id="RobotoCondensed-Regular-35" d="M 1034 2166 
L 594 2284 
L 788 4550 
L 2769 4550 
L 2769 4016 
L 1253 4016 
L 1147 2778 
Q 1438 2975 1753 2975 
Q 2288 2975 2591 2561 
Q 2894 2147 2894 1450 
Q 2894 797 2584 367 
Q 2275 -63 1656 -63 
Q 1194 -63 850 248 
Q 506 559 453 1197 
L 975 1197 
Q 1066 413 1656 413 
Q 1978 413 2159 691 
Q 2341 969 2341 1444 
Q 2341 1872 2153 2164 
Q 1966 2456 1619 2456 
Q 1384 2456 1273 2378 
Q 1163 2300 1034 2166 
z
" transform="scale(0.015625)"/>
       </defs>
       <use xlink:href="#RobotoCondensed-Regular-32"/>
       <use xlink:href="#RobotoCondensed-Regular-30" transform="translate(49.365234 0)"/>
       <use xlink:href="#RobotoCondensed-Regular-30" transform="translate(98.730469 0)"/>
       <use xlink:href="#RobotoCondensed-Regular-35" transform="translate(148.095703 0)"/>
      </g>
     </g>
    </g>
    <g id="xtick_2">
     <g id="line2d_2">
      <g>
       <use xlink:href="#m701fd91fd2" x="91.803716" y="185.56" style="stroke: #000000; stroke-width: 0.8"/>
      </g>
     </g>
     <g id="text_2">
      <!-- 2007 -->
      <g transform="translate(85.880591 197.06) scale(0.06 -0.06)">
       <defs>
        <path id="RobotoCondensed-Regular-37" d="M 2878 4550 
L 2878 4225 
L 1313 0 
L 731 0 
L 2297 4075 
L 269 4075 
L 269 4550 
L 2878 4550 
z
" transform="scale(0.015625)"/>
       </defs>
       <use xlink:href="#RobotoCondensed-Regular-32"/>
       <use xlink:href="#RobotoCondensed-Regular-30" transform="translate(49.365234 0)"/>
       <use xlink:href="#RobotoCondensed-Regular-30" transform="translate(98.730469 0)"/>
       <use xlink:href="#RobotoCondensed-Regular-37" transform="translate(148.095703 0)"/>
      </g>
     </g>
    </g>
    <g id="xtick_3">
     <g id="line2d_3">
      <g>
       <use xlink:href="#m701fd91fd2" x="121.527656" y="185.56" style="stroke: #000000; stroke-width: 0.8"/>
      </g>
     </g>
     <g id="text_3">
      <!-- 2010 -->
      <g transform="translate(115.604531 197.06) scale(0.06 -0.06)">
       <defs>
        <path id="RobotoCondensed-Regular-31" d="M 2013 4575 
L 2013 0 
L 1459 0 
L 1459 3853 
L 503 3428 
L 503 3950 
L 1928 4575 
L 2013 4575 
z
" transform="scale(0.015625)"/>
       </defs>
       <use xlink:href="#RobotoCondensed-Regular-32"/>
       <use xlink:href="#RobotoCondensed-Regular-30" transform="translate(49.365234 0)"/>
       <use xlink:href="#RobotoCondensed-Regular-31" transform="translate(98.730469 0)"/>
       <use xlink:href="#RobotoCondensed-Regular-30" transform="translate(148.095703 0)"/>
      </g>
     </g>
    </g>
    <g id="xtick_4">
     <g id="line2d_4">
      <g>
       <use xlink:href="#m701fd91fd2" x="151.251596" y="185.56" style="stroke: #000000; stroke-width: 0.8"/>
      </g>
     </g>
     <g id="text_4">
      <!-- 2012 -->
      <g transform="translate(145.328471 197.06) scale(0.06 -0.06)">
       <use xlink:href="#RobotoCondensed-Regular-32"/>
       <use xlink:href="#RobotoCondensed-Regular-30" transform="translate(49.365234 0)"/>
       <use xlink:href="#RobotoCondensed-Regular-31" transform="translate(98.730469 0)"/>
       <use xlink:href="#RobotoCondensed-Regular-32" transform="translate(148.095703 0)"/>
      </g>
     </g>
    </g>
    <g id="xtick_5">
     <g id="line2d_5">
      <g>
       <use xlink:href="#m701fd91fd2" x="180.975536" y="185.56" style="stroke: #000000; stroke-width: 0.8"/>
      </g>
     </g>
     <g id="text_5">
      <!-- 2015 -->
      <g transform="translate(175.052411 197.06) scale(0.06 -0.06)">
       <use xlink:href="#RobotoCondensed-Regular-32"/>
       <use xlink:href="#RobotoCondensed-Regular-30" transform="translate(49.365234 0)"/>
       <use xlink:href="#RobotoCondensed-Regular-31" transform="translate(98.730469 0)"/>
       <use xlink:href="#RobotoCondensed-Regular-35" transform="translate(148.095703 0)"/>
      </g>
     </g>
    </g>
    <g id="xtick_6">
     <g id="line2d_6">
      <g>
       <use xlink:href="#m701fd91fd2" x="210.699475" y="185.56" style="stroke: #000000; stroke-width: 0.8"/>
      </g>
     </g>
     <g id="text_6">
      <!-- 2017 -->
      <g transform="translate(204.77635 197.06) scale(0.06 -0.06)">
       <use xlink:href="#RobotoCondensed-Regular-32"/>
       <use xlink:href="#RobotoCondensed-Regular-30" transform="translate(49.365234 0)"/>
       <use xlink:href="#RobotoCondensed-Regular-31" transform="translate(98.730469 0)"/>
       <use xlink:href="#RobotoCondensed-Regular-37" transform="translate(148.095703 0)"/>
      </g>
     </g>
    </g>
    <g id="xtick_7">
     <g id="line2d_7">
      <g>
       <use xlink:href="#m701fd91fd2" x="240.423415" y="185.56" style="stroke: #000000; stroke-width: 0.8"/>
      </g>
     </g>
     <g id="text_7">
      <!-- 2020 -->
      <g transform="translate(234.50029 197.06) scale(0.06 -0.06)">
       <use xlink:href="#RobotoCondensed-Regular-32"/>
       <use xlink:href="#RobotoCondensed-Regular-30" transform="translate(49.365234 0)"/>
       <use xlink:href="#RobotoCondensed-Regular-32" transform="translate(98.730469 0)"/>
       <use xlink:href="#RobotoCondensed-Regular-30" transform="translate(148.095703 0)"/>
      </g>
     </g>
    </g>
    <g id="xtick_8">
     <g id="line2d_8">
      <g>
       <use xlink:href="#m701fd91fd2" x="270.147355" y="185.56" style="stroke: #000000; stroke-width: 0.8"/>
      </g>
     </g>
     <g id="text_8">
      <!-- 2022 -->
      <g transform="translate(264.22423 197.06) scale(0.06 -0.06)">
       <use xlink:href="#RobotoCondensed-Regular-32"/>
       <use xlink:href="#RobotoCondensed-Regular-30" transform="translate(49.365234 0)"/>
       <use xlink:href="#RobotoCondensed-Regular-32" transform="translate(98.730469 0)"/>
       <use xlink:href="#RobotoCondensed-Regular-32" transform="translate(148.095703 0)"/>
      </g>
     </g>
    </g>
    <g id="xtick_9">
     <g id="line2d_9">
      <g>
       <use xlink:href="#m701fd91fd2" x="299.871294" y="185.56" style="stroke: #000000; stroke-width: 0.8"/>
      </g>
     </g>
     <g id="text_9">
      <!-- 2025 -->
      <g transform="translate(293.948169 197.06) scale(0.06 -0.06)">
       <use xlink:href="#RobotoCondensed-Regular-32"/>
       <use xlink:href="#RobotoCondensed-Regular-30" transform="translate(49.365234 0)"/>
       <use xlink:href="#RobotoCondensed-Regular-32" transform="translate(98.730469 0)"/>
       <use xlink:href="#RobotoCondensed-Regular-35" transform="translate(148.095703 0)"/>
      </g>
     </g>
    </g>
    <g id="text_10">
     <!-- Year -->
     <g transform="translate(162.865257 207.52875) scale(0.07 -0.07)">
      <defs>
       <path id="RobotoCondensed-Regular-59" d="M 747 4550 
L 1675 2266 
L 2606 4550 
L 3256 4550 
L 1963 1700 
L 1963 0 
L 1388 0 
L 1388 1700 
L 94 4550 
L 747 4550 
z
" transform="scale(0.015625)"/>
       <path id="RobotoCondensed-Regular-65" d="M 2722 447 
Q 2584 253 2323 95 
Q 2063 -63 1625 -63 
Q 1019 -63 666 301 
Q 313 666 309 1431 
L 309 1828 
Q 309 2722 696 3083 
Q 1084 3444 1563 3444 
Q 2197 3444 2472 3034 
Q 2747 2625 2747 1850 
L 2747 1528 
L 863 1528 
L 863 1447 
Q 863 906 1067 657 
Q 1272 409 1656 409 
Q 1934 409 2114 517 
Q 2294 625 2431 794 
L 2722 447 
z
M 1563 2969 
Q 1275 2969 1084 2770 
Q 894 2572 866 2000 
L 2194 2000 
L 2194 2078 
Q 2172 2469 2048 2719 
Q 1925 2969 1563 2969 
z
" transform="scale(0.015625)"/>
       <path id="RobotoCondensed-Regular-61" d="M 2156 0 
Q 2103 122 2081 366 
Q 1966 194 1775 65 
Q 1584 -63 1334 -63 
Q 891 -63 623 187 
Q 356 438 356 922 
Q 356 1409 690 1729 
Q 1025 2050 1691 2050 
L 2072 2050 
L 2072 2413 
Q 2072 2713 1936 2841 
Q 1800 2969 1528 2969 
Q 1263 2969 1114 2812 
Q 966 2656 966 2444 
L 413 2444 
Q 413 2806 722 3125 
Q 1031 3444 1556 3444 
Q 2025 3444 2325 3209 
Q 2625 2975 2625 2406 
L 2625 794 
Q 2625 316 2728 50 
L 2728 0 
L 2156 0 
z
M 1419 441 
Q 1653 441 1825 562 
Q 1997 684 2072 834 
L 2072 1644 
L 1781 1644 
Q 1384 1644 1146 1475 
Q 909 1306 909 991 
Q 909 688 1036 564 
Q 1163 441 1419 441 
z
" transform="scale(0.015625)"/>
       <path id="RobotoCondensed-Regular-72" d="M 1563 2888 
Q 1138 2888 969 2425 
L 969 0 
L 416 0 
L 416 3381 
L 950 3381 
L 963 3041 
Q 1184 3444 1591 3444 
Q 1738 3444 1809 3400 
L 1813 2863 
Q 1691 2888 1563 2888 
z
" transform="scale(0.015625)"/>
      </defs>
      <use xlink:href="#RobotoCondensed-Regular-59"/>
      <use xlink:href="#RobotoCondensed-Regular-65" transform="translate(52.490234 0)"/>
      <use xlink:href="#RobotoCondensed-Regular-61" transform="translate(99.365234 0)"/>
      <use xlink:href="#RobotoCondensed-Regular-72" transform="translate(147.265625 0)"/>
     </g>
    </g>
   </g>
   <g id="matplotlib.axis_2">
    <g id="ytick_1">
     <g id="line2d_10">
      <path d="M 38.300625 168.912898 
L 299.871294 168.912898 
" clip-path="url(#p23bde7a134)" style="fill: none; stroke: #808080; stroke-opacity: 0.3; stroke-width: 0.4; stroke-linecap: square"/>
     </g>
     <g id="line2d_11">
      <defs>
       <path id="mefc4f1edfc" d="M 0 0 
L -3.5 0 
" style="stroke: #000000; stroke-width: 0.8"/>
      </defs>
      <g>
       <use xlink:href="#mefc4f1edfc" x="38.300625" y="168.912898" style="stroke: #000000; stroke-width: 0.8"/>
      </g>
     </g>
     <g id="text_11">
      <!-- 0.075 -->
      <g transform="translate(17.871875 171.162898) scale(0.06 -0.06)">
       <defs>
        <path id="RobotoCondensed-Regular-2e" d="M 450 306 
Q 450 453 542 554 
Q 634 656 809 656 
Q 984 656 1076 554 
Q 1169 453 1169 306 
Q 1169 163 1076 62 
Q 984 -38 809 -38 
Q 634 -38 542 62 
Q 450 163 450 306 
z
" transform="scale(0.015625)"/>
       </defs>
       <use xlink:href="#RobotoCondensed-Regular-30"/>
       <use xlink:href="#RobotoCondensed-Regular-2e" transform="translate(49.365234 0)"/>
       <use xlink:href="#RobotoCondensed-Regular-30" transform="translate(75.732422 0)"/>
       <use xlink:href="#RobotoCondensed-Regular-37" transform="translate(125.097656 0)"/>
       <use xlink:href="#RobotoCondensed-Regular-35" transform="translate(174.462891 0)"/>
      </g>
     </g>
    </g>
    <g id="ytick_2">
     <g id="line2d_12">
      <path d="M 38.300625 144.155783 
L 299.871294 144.155783 
" clip-path="url(#p23bde7a134)" style="fill: none; stroke: #808080; stroke-opacity: 0.3; stroke-width: 0.4; stroke-linecap: square"/>
     </g>
     <g id="line2d_13">
      <g>
       <use xlink:href="#mefc4f1edfc" x="38.300625" y="144.155783" style="stroke: #000000; stroke-width: 0.8"/>
      </g>
     </g>
     <g id="text_12">
      <!-- 0.100 -->
      <g transform="translate(17.871875 146.405783) scale(0.06 -0.06)">
       <use xlink:href="#RobotoCondensed-Regular-30"/>
       <use xlink:href="#RobotoCondensed-Regular-2e" transform="translate(49.365234 0)"/>
       <use xlink:href="#RobotoCondensed-Regular-31" transform="translate(75.732422 0)"/>
       <use xlink:href="#RobotoCondensed-Regular-30" transform="translate(125.097656 0)"/>
       <use xlink:href="#RobotoCondensed-Regular-30" transform="translate(174.462891 0)"/>
      </g>
     </g>
    </g>
    <g id="ytick_3">
     <g id="line2d_14">
      <path d="M 38.300625 119.398668 
L 299.871294 119.398668 
" clip-path="url(#p23bde7a134)" style="fill: none; stroke: #808080; stroke-opacity: 0.3; stroke-width: 0.4; stroke-linecap: square"/>
     </g>
     <g id="line2d_15">
      <g>
       <use xlink:href="#mefc4f1edfc" x="38.300625" y="119.398668" style="stroke: #000000; stroke-width: 0.8"/>
      </g>
     </g>
     <g id="text_13">
      <!-- 0.125 -->
      <g transform="translate(17.871875 121.648668) scale(0.06 -0.06)">
       <use xlink:href="#RobotoCondensed-Regular-30"/>
       <use xlink:href="#RobotoCondensed-Regular-2e" transform="translate(49.365234 0)"/>
       <use xlink:href="#RobotoCondensed-Regular-31" transform="translate(75.732422 0)"/>
       <use xlink:href="#RobotoCondensed-Regular-32" transform="translate(125.097656 0)"/>
       <use xlink:href="#RobotoCondensed-Regular-35" transform="translate(174.462891 0)"/>
      </g>
     </g>
    </g>
    <g id="ytick_4">
     <g id="line2d_16">
      <path d="M 38.300625 94.641553 
L 299.871294 94.641553 
" clip-path="url(#p23bde7a134)" style="fill: none; stroke: #808080; stroke-opacity: 0.3; stroke-width: 0.4; stroke-linecap: square"/>
     </g>
     <g id="line2d_17">
      <g>
       <use xlink:href="#mefc4f1edfc" x="38.300625" y="94.641553" style="stroke: #000000; stroke-width: 0.8"/>
      </g>
     </g>
     <g id="text_14">
      <!-- 0.150 -->
      <g transform="translate(17.871875 96.891553) scale(0.06 -0.06)">
       <use xlink:href="#RobotoCondensed-Regular-30"/>
       <use xlink:href="#RobotoCondensed-Regular-2e" transform="translate(49.365234 0)"/>
       <use xlink:href="#RobotoCondensed-Regular-31" transform="translate(75.732422 0)"/>
       <use xlink:href="#RobotoCondensed-Regular-35" transform="translate(125.097656 0)"/>
       <use xlink:href="#RobotoCondensed-Regular-30" transform="translate(174.462891 0)"/>
      </g>
     </g>
    </g>
    <g id="ytick_5">
     <g id="line2d_18">
      <path d="M 38.300625 69.884438 
L 299.871294 69.884438 
" clip-path="url(#p23bde7a134)" style="fill: none; stroke: #808080; stroke-opacity: 0.3; stroke-width: 0.4; stroke-linecap: square"/>
     </g>
     <g id="line2d_19">
      <g>
       <use xlink:href="#mefc4f1edfc" x="38.300625" y="69.884438" style="stroke: #000000; stroke-width: 0.8"/>
      </g>
     </g>
     <g id="text_15">
      <!-- 0.175 -->
      <g transform="translate(17.871875 72.134438) scale(0.06 -0.06)">
       <use xlink:href="#RobotoCondensed-Regular-30"/>
       <use xlink:href="#RobotoCondensed-Regular-2e" transform="translate(49.365234 0)"/>
       <use xlink:href="#RobotoCondensed-Regular-31" transform="translate(75.732422 0)"/>
       <use xlink:href="#RobotoCondensed-Regular-37" transform="translate(125.097656 0)"/>
       <use xlink:href="#RobotoCondensed-Regular-35" transform="translate(174.462891 0)"/>
      </g>
     </g>
    </g>
    <g id="ytick_6">
     <g id="line2d_20">
      <path d="M 38.300625 45.127322 
L 299.871294 45.127322 
" clip-path="url(#p23bde7a134)" style="fill: none; stroke: #808080; stroke-opacity: 0.3; stroke-width: 0.4; stroke-linecap: square"/>
     </g>
     <g id="line2d_21">
      <g>
       <use xlink:href="#mefc4f1edfc" x="38.300625" y="45.127322" style="stroke: #000000; stroke-width: 0.8"/>
      </g>
     </g>
     <g id="text_16">
      <!-- 0.200 -->
      <g transform="translate(17.871875 47.377322) scale(0.06 -0.06)">
       <use xlink:href="#RobotoCondensed-Regular-30"/>
       <use xlink:href="#RobotoCondensed-Regular-2e" transform="translate(49.365234 0)"/>
       <use xlink:href="#RobotoCondensed-Regular-32" transform="translate(75.732422 0)"/>
       <use xlink:href="#RobotoCondensed-Regular-30" transform="translate(125.097656 0)"/>
       <use xlink:href="#RobotoCondensed-Regular-30" transform="translate(174.462891 0)"/>
      </g>
     </g>
    </g>
    <g id="ytick_7">
     <g id="line2d_22">
      <path d="M 38.300625 20.370207 
L 299.871294 20.370207 
" clip-path="url(#p23bde7a134)" style="fill: none; stroke: #808080; stroke-opacity: 0.3; stroke-width: 0.4; stroke-linecap: square"/>
     </g>
     <g id="line2d_23">
      <g>
       <use xlink:href="#mefc4f1edfc" x="38.300625" y="20.370207" style="stroke: #000000; stroke-width: 0.8"/>
      </g>
     </g>
     <g id="text_17">
      <!-- 0.225 -->
      <g transform="translate(17.871875 22.620207) scale(0.06 -0.06)">
       <use xlink:href="#RobotoCondensed-Regular-30"/>
       <use xlink:href="#RobotoCondensed-Regular-2e" transform="translate(49.365234 0)"/>
       <use xlink:href="#RobotoCondensed-Regular-32" transform="translate(75.732422 0)"/>
       <use xlink:href="#RobotoCondensed-Regular-32" transform="translate(125.097656 0)"/>
       <use xlink:href="#RobotoCondensed-Regular-35" transform="translate(174.462891 0)"/>
      </g>
     </g>
    </g>
    <g id="text_18">
     <!-- Genderedness -->
     <g transform="translate(12.45 116.132578) rotate(-90) scale(0.07 -0.07)">
      <defs>
       <path id="RobotoCondensed-Regular-47" d="M 3341 2266 
L 3341 569 
Q 3266 469 3114 319 
Q 2963 169 2691 53 
Q 2419 -63 1978 -63 
Q 1272 -63 830 412 
Q 388 888 388 1850 
L 388 2703 
Q 388 3656 770 4134 
Q 1153 4613 1919 4613 
Q 2581 4613 2943 4244 
Q 3306 3875 3341 3219 
L 2766 3219 
Q 2731 3641 2529 3880 
Q 2328 4119 1919 4119 
Q 1400 4119 1183 3773 
Q 966 3428 963 2731 
L 963 1850 
Q 963 1125 1239 776 
Q 1516 428 1981 428 
Q 2378 428 2537 547 
Q 2697 666 2769 728 
L 2769 1778 
L 1934 1778 
L 1934 2266 
L 3341 2266 
z
" transform="scale(0.015625)"/>
       <path id="RobotoCondensed-Regular-6e" d="M 1603 2956 
Q 1400 2956 1236 2818 
Q 1072 2681 969 2459 
L 969 0 
L 416 0 
L 416 3381 
L 938 3381 
L 953 3022 
Q 1275 3444 1775 3444 
Q 2191 3444 2437 3162 
Q 2684 2881 2684 2216 
L 2684 0 
L 2131 0 
L 2131 2222 
Q 2131 2619 2000 2787 
Q 1869 2956 1603 2956 
z
" transform="scale(0.015625)"/>
       <path id="RobotoCondensed-Regular-64" d="M 2234 0 
L 2209 366 
Q 1941 -63 1425 -63 
Q 925 -63 611 331 
Q 297 725 297 1528 
L 297 1844 
Q 297 2678 609 3061 
Q 922 3444 1431 3444 
Q 1922 3444 2188 3050 
L 2188 4800 
L 2738 4800 
L 2738 0 
L 2234 0 
z
M 850 1528 
Q 850 963 1019 695 
Q 1188 428 1569 428 
Q 1981 428 2188 847 
L 2188 2544 
Q 1972 2956 1575 2956 
Q 1194 2956 1023 2687 
Q 853 2419 850 1866 
L 850 1528 
z
" transform="scale(0.015625)"/>
       <path id="RobotoCondensed-Regular-73" d="M 2056 866 
Q 2056 1059 1907 1190 
Q 1759 1322 1340 1500 
Q 922 1678 681 1863 
Q 409 2072 409 2484 
Q 409 2888 703 3166 
Q 997 3444 1481 3444 
Q 2000 3444 2287 3150 
Q 2575 2856 2575 2419 
L 2025 2419 
Q 2025 2628 1884 2798 
Q 1744 2969 1481 2969 
Q 1203 2969 1083 2828 
Q 963 2688 963 2503 
Q 963 2319 1081 2217 
Q 1200 2116 1553 1959 
Q 2066 1756 2337 1537 
Q 2609 1319 2609 909 
Q 2609 463 2303 200 
Q 1997 -63 1494 -63 
Q 919 -63 616 265 
Q 313 594 313 1013 
L 866 1013 
Q 881 653 1081 533 
Q 1281 413 1494 413 
Q 2056 413 2056 866 
z
" transform="scale(0.015625)"/>
      </defs>
      <use xlink:href="#RobotoCondensed-Regular-47"/>
      <use xlink:href="#RobotoCondensed-Regular-65" transform="translate(59.082031 0)"/>
      <use xlink:href="#RobotoCondensed-Regular-6e" transform="translate(105.957031 0)"/>
      <use xlink:href="#RobotoCondensed-Regular-64" transform="translate(154.394531 0)"/>
      <use xlink:href="#RobotoCondensed-Regular-65" transform="translate(204.003906 0)"/>
      <use xlink:href="#RobotoCondensed-Regular-72" transform="translate(250.878906 0)"/>
      <use xlink:href="#RobotoCondensed-Regular-65" transform="translate(281.347656 0)"/>
      <use xlink:href="#RobotoCondensed-Regular-64" transform="translate(328.222656 0)"/>
      <use xlink:href="#RobotoCondensed-Regular-6e" transform="translate(377.832031 0)"/>
      <use xlink:href="#RobotoCondensed-Regular-65" transform="translate(426.269531 0)"/>
      <use xlink:href="#RobotoCondensed-Regular-73" transform="translate(473.144531 0)"/>
      <use xlink:href="#RobotoCondensed-Regular-73" transform="translate(518.75 0)"/>
     </g>
    </g>
   </g>
   <g id="line2d_24">
    <path d="M 50.190201 141.278876 
L 53.371358 136.923646 
L 55.757226 134.025169 
L 57.347805 132.345267 
L 58.938384 130.915336 
L 60.528963 129.776552 
L 62.119541 128.969982 
L 66.095988 127.500334 
L 68.481856 126.797859 
L 70.867724 126.297379 
L 73.253592 126.054129 
L 74.048882 126.04185 
L 74.844171 126.303834 
L 75.63946 126.960774 
L 76.43475 127.955607 
L 77.230039 129.231272 
L 78.820618 132.396859 
L 82.797064 141.231138 
L 84.387643 143.934695 
L 85.182933 144.88034 
L 85.978222 145.483506 
L 89.159379 147.22434 
L 91.545247 148.307949 
L 93.931115 149.118868 
L 95.521694 149.471369 
L 97.112273 149.647748 
L 98.702852 149.633859 
L 101.08872 149.346351 
L 109.041613 148.025056 
L 109.836903 148.028665 
L 110.632192 148.386809 
L 111.427481 149.166929 
L 112.222771 150.301239 
L 113.813349 153.361276 
L 118.585086 163.992039 
L 119.380375 165.263618 
L 120.175664 166.211512 
L 120.970954 166.767934 
L 121.766243 166.853021 
L 122.561532 166.257413 
L 123.356822 165.007186 
L 124.152111 163.20835 
L 124.9474 160.966916 
L 126.537979 155.580302 
L 129.719137 144.160404 
L 130.514426 141.789106 
L 131.309715 139.823302 
L 132.105005 138.369003 
L 132.900294 137.53222 
L 133.695583 137.434549 
L 134.490873 138.291185 
L 135.286162 140.029529 
L 136.081451 142.505628 
L 136.876741 145.57553 
L 138.467319 152.920934 
L 141.648477 168.40348 
L 142.443766 171.59934 
L 143.239056 174.237385 
L 144.034345 176.173663 
L 144.829634 177.264222 
L 145.624924 177.422536 
L 146.420213 177.095486 
L 147.215502 176.439911 
L 148.010792 175.494392 
L 148.806081 174.297508 
L 150.39666 171.303966 
L 152.782528 165.892916 
L 155.963685 158.579825 
L 159.940132 150.499826 
L 163.916579 141.50109 
L 165.507158 138.55418 
L 166.302447 137.368604 
L 167.097736 136.424293 
L 167.893026 135.758256 
L 168.688315 135.407504 
L 170.278894 135.378313 
L 173.460051 135.561858 
L 178.231787 136.102325 
L 183.003523 136.816135 
L 186.184681 137.529472 
L 189.365838 138.485427 
L 192.546996 139.694298 
L 193.342285 140.068647 
L 194.137574 140.607518 
L 195.728153 142.105481 
L 198.114021 144.962042 
L 200.499889 147.844641 
L 202.090468 149.388893 
L 202.885757 149.959588 
L 203.681047 150.3568 
L 204.476336 150.551134 
L 205.271625 150.509491 
L 206.066915 150.214874 
L 206.862204 149.691126 
L 207.657493 148.964291 
L 209.248072 147.005549 
L 210.838651 144.547017 
L 217.200966 133.83811 
L 219.586834 130.048612 
L 226.744438 118.219882 
L 228.335017 115.956291 
L 229.925595 113.996839 
L 232.311463 111.55514 
L 236.28791 107.765382 
L 237.878489 105.979791 
L 239.469068 103.851044 
L 240.264357 102.618602 
L 241.059646 101.171088 
L 241.854936 99.358537 
L 243.445514 94.817567 
L 245.036093 89.381961 
L 250.603119 68.969097 
L 252.193697 64.3565 
L 254.579565 58.771875 
L 256.965434 53.805192 
L 260.94188 46.23573 
L 264.123038 40.170439 
L 265.713616 36.751727 
L 268.894774 28.947424 
L 271.280642 23.353788 
L 272.871221 20.275344 
L 273.66651 19.036722 
L 274.461799 18.045348 
L 275.257089 17.336357 
L 276.052378 16.944884 
L 279.233535 16.218753 
L 282.414693 15.688955 
L 285.59585 15.379686 
L 287.981718 15.307273 
L 287.981718 15.307273 
" clip-path="url(#p23bde7a134)" style="fill: none; stroke-dasharray: 0.9,1.485; stroke-dashoffset: 0; stroke: #000000; stroke-width: 0.9"/>
   </g>
   <g id="line2d_25">
    <path d="M 50.190201 130.284067 
L 53.371358 130.95572 
L 57.347805 132.062438 
L 62.119541 133.678103 
L 63.71012 134.407971 
L 66.095988 135.877594 
L 69.277145 137.965506 
L 70.867724 138.819675 
L 72.458303 139.402241 
L 73.253592 139.557669 
L 74.048882 139.59958 
L 74.844171 138.978681 
L 75.63946 137.429347 
L 76.43475 135.097214 
L 77.230039 132.127919 
L 78.820618 124.860393 
L 82.001775 109.087425 
L 82.797064 105.735833 
L 83.592354 102.912176 
L 84.387643 100.762089 
L 85.182933 99.43121 
L 85.978222 99.064569 
L 86.773511 99.710954 
L 87.568801 101.244992 
L 88.36409 103.526342 
L 89.159379 106.414664 
L 90.749958 113.450865 
L 93.931115 128.631955 
L 94.726405 131.839552 
L 95.521694 134.531398 
L 96.316984 136.567153 
L 97.112273 137.806475 
L 97.907562 138.129514 
L 100.29343 137.975768 
L 103.474588 137.480369 
L 109.041613 136.500801 
L 113.813349 136.05671 
L 122.561532 135.284577 
L 126.537979 134.576364 
L 130.514426 133.897346 
L 132.900294 133.705134 
L 134.490873 133.737933 
L 136.876741 134.053639 
L 144.034345 135.379771 
L 146.420213 135.419976 
L 149.60137 135.222025 
L 153.577817 134.706646 
L 157.554264 133.955805 
L 158.349553 133.628985 
L 159.940132 132.550333 
L 161.530711 131.083478 
L 165.507158 127.123492 
L 167.097736 125.984573 
L 167.893026 125.617575 
L 168.688315 125.421248 
L 170.278894 125.447022 
L 171.869472 125.664977 
L 174.25534 126.266859 
L 176.641209 127.13258 
L 179.822366 128.568769 
L 181.412945 129.398978 
L 182.208234 130.070079 
L 183.003523 130.960294 
L 184.594102 133.23216 
L 189.365838 140.992997 
L 190.161128 141.988824 
L 190.956417 142.789007 
L 191.751706 143.352071 
L 192.546996 143.636539 
L 193.342285 143.642872 
L 194.932864 143.313308 
L 196.523442 142.658485 
L 198.909311 141.29005 
L 202.885757 138.831509 
L 204.476336 138.084073 
L 206.862204 137.340774 
L 210.838651 136.460237 
L 214.019808 135.640069 
L 215.610387 135.058537 
L 216.405676 134.703772 
L 217.200966 134.192713 
L 217.996255 133.250287 
L 218.791544 131.926551 
L 220.382123 128.417542 
L 222.767991 122.059163 
L 224.35857 117.913978 
L 225.949149 114.502697 
L 226.744438 113.248767 
L 227.539727 112.390107 
L 228.335017 111.997317 
L 229.130306 112.072522 
L 229.925595 112.459718 
L 230.720885 113.107063 
L 231.516174 113.969118 
L 233.106753 116.15559 
L 237.0832 122.198302 
L 237.878489 123.142151 
L 238.673778 123.891739 
L 239.469068 124.401625 
L 240.264357 124.626369 
L 241.854936 124.48564 
L 243.445514 124.026071 
L 245.036093 123.335827 
L 248.217251 121.596884 
L 250.603119 120.307384 
L 252.193697 119.611083 
L 255.374855 118.548894 
L 264.123038 115.820359 
L 265.713616 115.12245 
L 268.099485 113.778609 
L 271.280642 111.908536 
L 272.871221 111.144275 
L 274.461799 110.614947 
L 276.052378 110.411362 
L 280.824114 110.503044 
L 283.209982 110.72371 
L 285.59585 111.155029 
L 287.981718 111.867611 
L 287.981718 111.867611 
" clip-path="url(#p23bde7a134)" style="fill: none; stroke-dasharray: 5.76,1.44,0.9,1.44; stroke-dashoffset: 0; stroke: #000000; stroke-width: 0.9"/>
   </g>
   <g id="line2d_26">
    <path d="M 50.190201 174.376423 
L 287.981718 66.438537 
" clip-path="url(#p23bde7a134)" style="fill: none; stroke: #000000; stroke-opacity: 0.85; stroke-width: 1.5; stroke-linecap: square"/>
   </g>
   <g id="line2d_27">
    <path d="M 50.190201 135.74031 
L 287.981718 119.571552 
" clip-path="url(#p23bde7a134)" style="fill: none; stroke-dasharray: 5.55,2.4; stroke-dashoffset: 0; stroke: #000000; stroke-opacity: 0.55; stroke-width: 1.5"/>
   </g>
   <g id="patch_3">
    <path d="M 38.300625 185.56 
L 38.300625 7.2 
" style="fill: none; stroke: #000000; stroke-width: 0.8; stroke-linejoin: miter; stroke-linecap: square"/>
   </g>
   <g id="patch_4">
    <path d="M 38.300625 185.56 
L 299.871294 185.56 
" style="fill: none; stroke: #000000; stroke-width: 0.8; stroke-linejoin: miter; stroke-linecap: square"/>
   </g>
   <g id="PathCollection_1">
    <defs>
     <path id="C0_0_1436c32a47" d="M -0 3 
L 3 -0 
L 0 -3 
L -3 -0 
z
"/>
    </defs>
    <g clip-path="url(#p23bde7a134)">
     <use xlink:href="#C0_0_1436c32a47" x="50.190201" y="141.278876" style="fill: none; stroke: #000000; stroke-width: 1.2"/>
    </g>
    <g clip-path="url(#p23bde7a134)">
     <use xlink:href="#C0_0_1436c32a47" x="62.079777" y="128.985872" style="fill: none; stroke: #000000; stroke-width: 1.2"/>
    </g>
    <g clip-path="url(#p23bde7a134)">
     <use xlink:href="#C0_0_1436c32a47" x="73.969353" y="126.039571" style="fill: none; stroke: #000000; stroke-width: 1.2"/>
    </g>
    <g clip-path="url(#p23bde7a134)">
     <use xlink:href="#C0_0_1436c32a47" x="85.858929" y="145.41368" style="fill: none; stroke: #000000; stroke-width: 1.2"/>
    </g>
    <g clip-path="url(#p23bde7a134)">
     <use xlink:href="#C0_0_1436c32a47" x="97.748504" y="149.664064" style="fill: none; stroke: #000000; stroke-width: 1.2"/>
    </g>
    <g clip-path="url(#p23bde7a134)">
     <use xlink:href="#C0_0_1436c32a47" x="109.63808" y="148.013007" style="fill: none; stroke: #000000; stroke-width: 1.2"/>
    </g>
    <g clip-path="url(#p23bde7a134)">
     <use xlink:href="#C0_0_1436c32a47" x="121.527656" y="166.888203" style="fill: none; stroke: #000000; stroke-width: 1.2"/>
    </g>
    <g clip-path="url(#p23bde7a134)">
     <use xlink:href="#C0_0_1436c32a47" x="133.417232" y="137.36967" style="fill: none; stroke: #000000; stroke-width: 1.2"/>
    </g>
    <g clip-path="url(#p23bde7a134)">
     <use xlink:href="#C0_0_1436c32a47" x="145.306808" y="177.452727" style="fill: none; stroke: #000000; stroke-width: 1.2"/>
    </g>
    <g clip-path="url(#p23bde7a134)">
     <use xlink:href="#C0_0_1436c32a47" x="157.196384" y="156.188718" style="fill: none; stroke: #000000; stroke-width: 1.2"/>
    </g>
    <g clip-path="url(#p23bde7a134)">
     <use xlink:href="#C0_0_1436c32a47" x="169.08596" y="135.361925" style="fill: none; stroke: #000000; stroke-width: 1.2"/>
    </g>
    <g clip-path="url(#p23bde7a134)">
     <use xlink:href="#C0_0_1436c32a47" x="180.975536" y="136.483294" style="fill: none; stroke: #000000; stroke-width: 1.2"/>
    </g>
    <g clip-path="url(#p23bde7a134)">
     <use xlink:href="#C0_0_1436c32a47" x="192.865111" y="139.829492" style="fill: none; stroke: #000000; stroke-width: 1.2"/>
    </g>
    <g clip-path="url(#p23bde7a134)">
     <use xlink:href="#C0_0_1436c32a47" x="204.754687" y="150.565781" style="fill: none; stroke: #000000; stroke-width: 1.2"/>
    </g>
    <g clip-path="url(#p23bde7a134)">
     <use xlink:href="#C0_0_1436c32a47" x="216.644263" y="134.662295" style="fill: none; stroke: #000000; stroke-width: 1.2"/>
    </g>
    <g clip-path="url(#p23bde7a134)">
     <use xlink:href="#C0_0_1436c32a47" x="228.533839" y="115.692101" style="fill: none; stroke: #000000; stroke-width: 1.2"/>
    </g>
    <g clip-path="url(#p23bde7a134)">
     <use xlink:href="#C0_0_1436c32a47" x="240.423415" y="102.356651" style="fill: none; stroke: #000000; stroke-width: 1.2"/>
    </g>
    <g clip-path="url(#p23bde7a134)">
     <use xlink:href="#C0_0_1436c32a47" x="252.312991" y="64.056495" style="fill: none; stroke: #000000; stroke-width: 1.2"/>
    </g>
    <g clip-path="url(#p23bde7a134)">
     <use xlink:href="#C0_0_1436c32a47" x="264.202567" y="40.013106" style="fill: none; stroke: #000000; stroke-width: 1.2"/>
    </g>
    <g clip-path="url(#p23bde7a134)">
     <use xlink:href="#C0_0_1436c32a47" x="276.092143" y="16.934275" style="fill: none; stroke: #000000; stroke-width: 1.2"/>
    </g>
    <g clip-path="url(#p23bde7a134)">
     <use xlink:href="#C0_0_1436c32a47" x="287.981718" y="15.307273" style="fill: none; stroke: #000000; stroke-width: 1.2"/>
    </g>
   </g>
   <g id="PathCollection_2">
    <defs>
     <path id="m46a8c38cf3" d="M 0 2.12132 
C 0.562581 2.12132 1.102195 1.897805 1.5 1.5 
C 1.897805 1.102195 2.12132 0.562581 2.12132 0 
C 2.12132 -0.562581 1.897805 -1.102195 1.5 -1.5 
C 1.102195 -1.897805 0.562581 -2.12132 0 -2.12132 
C -0.562581 -2.12132 -1.102195 -1.897805 -1.5 -1.5 
C -1.897805 -1.102195 -2.12132 -0.562581 -2.12132 0 
C -2.12132 0.562581 -1.897805 1.102195 -1.5 1.5 
C -1.102195 1.897805 -0.562581 2.12132 0 2.12132 
z
" style="stroke: #000000; stroke-width: 1.2"/>
    </defs>
    <g clip-path="url(#p23bde7a134)">
     <use xlink:href="#m46a8c38cf3" x="50.190201" y="130.284067" style="stroke: #000000; stroke-width: 1.2"/>
     <use xlink:href="#m46a8c38cf3" x="62.079777" y="133.663591" style="stroke: #000000; stroke-width: 1.2"/>
     <use xlink:href="#m46a8c38cf3" x="73.969353" y="139.604999" style="stroke: #000000; stroke-width: 1.2"/>
     <use xlink:href="#m46a8c38cf3" x="85.858929" y="99.052847" style="stroke: #000000; stroke-width: 1.2"/>
     <use xlink:href="#m46a8c38cf3" x="97.748504" y="138.130194" style="stroke: #000000; stroke-width: 1.2"/>
     <use xlink:href="#m46a8c38cf3" x="109.63808" y="136.430808" style="stroke: #000000; stroke-width: 1.2"/>
     <use xlink:href="#m46a8c38cf3" x="121.527656" y="135.413818" style="stroke: #000000; stroke-width: 1.2"/>
     <use xlink:href="#m46a8c38cf3" x="133.417232" y="133.697995" style="stroke: #000000; stroke-width: 1.2"/>
     <use xlink:href="#m46a8c38cf3" x="145.306808" y="135.435206" style="stroke: #000000; stroke-width: 1.2"/>
     <use xlink:href="#m46a8c38cf3" x="157.196384" y="134.046609" style="stroke: #000000; stroke-width: 1.2"/>
     <use xlink:href="#m46a8c38cf3" x="169.08596" y="125.395452" style="stroke: #000000; stroke-width: 1.2"/>
     <use xlink:href="#m46a8c38cf3" x="180.975536" y="129.138295" style="stroke: #000000; stroke-width: 1.2"/>
     <use xlink:href="#m46a8c38cf3" x="192.865111" y="143.66303" style="stroke: #000000; stroke-width: 1.2"/>
     <use xlink:href="#m46a8c38cf3" x="204.754687" y="137.980012" style="stroke: #000000; stroke-width: 1.2"/>
     <use xlink:href="#m46a8c38cf3" x="216.644263" y="134.587727" style="stroke: #000000; stroke-width: 1.2"/>
     <use xlink:href="#m46a8c38cf3" x="228.533839" y="111.980185" style="stroke: #000000; stroke-width: 1.2"/>
     <use xlink:href="#m46a8c38cf3" x="240.423415" y="124.633102" style="stroke: #000000; stroke-width: 1.2"/>
     <use xlink:href="#m46a8c38cf3" x="252.312991" y="119.567014" style="stroke: #000000; stroke-width: 1.2"/>
     <use xlink:href="#m46a8c38cf3" x="264.202567" y="115.79076" style="stroke: #000000; stroke-width: 1.2"/>
     <use xlink:href="#m46a8c38cf3" x="276.092143" y="110.411232" style="stroke: #000000; stroke-width: 1.2"/>
     <use xlink:href="#m46a8c38cf3" x="287.981718" y="111.867611" style="stroke: #000000; stroke-width: 1.2"/>
    </g>
   </g>
   <g id="legend_1">
    <g id="line2d_28">
     <path d="M 43.700625 15 
L 49.700625 15 
L 55.700625 15 
" style="fill: none; stroke-dasharray: 0.9,1.485; stroke-dashoffset: 0; stroke: #000000; stroke-width: 0.9"/>
    </g>
    <g id="text_19">
     <!-- Boys -->
     <g transform="translate(60.500625 17.1) scale(0.06 -0.06)">
      <defs>
       <path id="RobotoCondensed-Regular-42" d="M 3125 1313 
Q 3125 675 2776 337 
Q 2428 0 1847 0 
L 491 0 
L 491 4550 
L 1791 4550 
Q 2375 4550 2706 4261 
Q 3038 3972 3038 3338 
Q 3038 3025 2880 2779 
Q 2722 2534 2453 2400 
Q 2781 2297 2953 1998 
Q 3125 1700 3125 1313 
z
M 1066 4056 
L 1066 2613 
L 1797 2613 
Q 2088 2613 2275 2806 
Q 2463 3000 2463 3344 
Q 2463 4041 1819 4056 
L 1066 4056 
z
M 2550 1306 
Q 2550 2106 1906 2128 
L 1066 2128 
L 1066 491 
L 1847 491 
Q 2181 491 2365 711 
Q 2550 931 2550 1306 
z
" transform="scale(0.015625)"/>
       <path id="RobotoCondensed-Regular-6f" d="M 300 1850 
Q 300 2641 678 3042 
Q 1056 3444 1603 3444 
Q 2156 3444 2536 3042 
Q 2916 2641 2916 1850 
L 2916 1528 
Q 2916 738 2536 337 
Q 2156 -63 1609 -63 
Q 1059 -63 679 337 
Q 300 738 300 1528 
L 300 1850 
z
M 853 1528 
Q 853 969 1068 689 
Q 1284 409 1609 409 
Q 2341 409 2363 1466 
L 2363 1850 
Q 2363 2403 2145 2686 
Q 1928 2969 1603 2969 
Q 1281 2969 1067 2686 
Q 853 2403 853 1850 
L 853 1528 
z
" transform="scale(0.015625)"/>
       <path id="RobotoCondensed-Regular-79" d="M 1425 -522 
Q 1153 -1366 563 -1366 
Q 409 -1366 278 -1316 
L 278 -847 
Q 328 -859 397 -859 
Q 631 -859 770 -746 
Q 909 -634 997 -338 
L 1106 31 
L 109 3381 
L 713 3381 
L 1341 922 
L 1953 3381 
L 2541 3381 
L 1425 -522 
z
" transform="scale(0.015625)"/>
      </defs>
      <use xlink:href="#RobotoCondensed-Regular-42"/>
      <use xlink:href="#RobotoCondensed-Regular-6f" transform="translate(54.589844 0)"/>
      <use xlink:href="#RobotoCondensed-Regular-79" transform="translate(104.785156 0)"/>
      <use xlink:href="#RobotoCondensed-Regular-73" transform="translate(146.435547 0)"/>
     </g>
    </g>
    <g id="line2d_29">
     <path d="M 43.700625 23.780625 
L 49.700625 23.780625 
L 55.700625 23.780625 
" style="fill: none; stroke-dasharray: 5.76,1.44,0.9,1.44; stroke-dashoffset: 0; stroke: #000000; stroke-width: 0.9"/>
    </g>
    <g id="text_20">
     <!-- Girls -->
     <g transform="translate(60.500625 25.880625) scale(0.06 -0.06)">
      <defs>
       <path id="RobotoCondensed-Regular-69" d="M 428 4278 
Q 428 4419 506 4516 
Q 584 4613 741 4613 
Q 894 4613 975 4516 
Q 1056 4419 1056 4278 
Q 1056 4144 975 4048 
Q 894 3953 741 3953 
Q 584 3953 506 4048 
Q 428 4144 428 4278 
z
M 1009 3381 
L 1009 0 
L 459 0 
L 459 3381 
L 1009 3381 
z
" transform="scale(0.015625)"/>
       <path id="RobotoCondensed-Regular-6c" d="M 1009 4800 
L 1009 0 
L 459 0 
L 459 4800 
L 1009 4800 
z
" transform="scale(0.015625)"/>
      </defs>
      <use xlink:href="#RobotoCondensed-Regular-47"/>
      <use xlink:href="#RobotoCondensed-Regular-69" transform="translate(59.082031 0)"/>
      <use xlink:href="#RobotoCondensed-Regular-72" transform="translate(82.03125 0)"/>
      <use xlink:href="#RobotoCondensed-Regular-6c" transform="translate(112.5 0)"/>
      <use xlink:href="#RobotoCondensed-Regular-73" transform="translate(135.449219 0)"/>
     </g>
    </g>
   </g>
  </g>
 </g>
 <defs>
  <clipPath id="p23bde7a134">
   <rect x="38.300625" y="7.2" width="261.570669" height="178.36"/>
  </clipPath>
 </defs>
</svg>
