<svg width="940" height="400" style="font-family: &quot;Noto Sans CJK JP&quot;, &quot;Noto Sans CJK SC&quot;, &quot;DejaVu Sans&quot;, sans-serif;"><g transform="translate(60,40)"><path fill="purple" opacity="0.7" d="M0,132.5C20.238,141.25,40.476,150,60.714,150C80.952,150,101.19,150,121.429,150C141.667,150,161.905,150,182.143,150C202.381,150,222.619,150,242.857,150C263.095,150,283.333,150,303.571,150C323.81,150,344.048,150,364.286,150C384.524,150,404.762,150,425,150C445.238,150,465.476,150,485.714,150C505.952,150,526.19,150,546.429,150C566.667,150,586.905,115,607.143,115C627.381,115,647.619,150,667.857,150C688.095,150,708.333,150,728.571,150C748.81,150,769.048,150,789.286,150C809.524,150,829.762,132.5,850,115L850,150C829.762,150,809.524,150,789.286,150C769.048,150,748.81,150,728.571,150C708.333,150,688.095,150,667.857,150C647.619,150,627.381,150,607.143,150C586.905,150,566.667,150,546.429,150C526.19,150,505.952,150,485.714,150C465.476,150,445.238,150,425,150C404.762,150,384.524,150,364.286,150C344.048,150,323.81,150,303.571,150C283.333,150,263.095,150,242.857,150C222.619,150,202.381,150,182.143,150C161.905,150,141.667,150,121.429,150C101.19,150,80.952,150,60.714,150C40.476,150,20.238,150,0,150Z"></path><path fill="orange" opacity="0.7" d="M0,237.5C20.238,246.25,40.476,255,60.714,255C80.952,255,101.19,255,121.429,255C141.667,255,161.905,220,182.143,220C202.381,220,222.619,220,242.857,220C263.095,220,283.333,167.5,303.571,167.5C323.81,167.5,344.048,185,364.286,185C384.524,185,404.762,167.5,425,167.5C445.238,167.5,465.476,237.5,485.714,237.5C505.952,237.5,526.19,220,546.429,220C566.667,220,586.905,290,607.143,290C627.381,290,647.619,237.5,667.857,237.5C688.095,237.5,708.333,237.5,728.571,237.5C748.81,237.5,769.048,237.5,789.286,237.5C809.524,237.5,829.762,202.5,850,167.5L850,150C829.762,150,809.524,150,789.286,150C769.048,150,748.81,150,728.571,150C708.333,150,688.095,150,667.857,150C647.619,150,627.381,150,607.143,150C586.905,150,566.667,150,546.429,150C526.19,150,505.952,150,485.714,150C465.476,150,445.238,150,425,150C404.762,150,384.524,150,364.286,150C344.048,150,323.81,150,303.571,150C283.333,150,263.095,150,242.857,150C222.619,150,202.381,150,182.143,150C161.905,150,141.667,150,121.429,150C101.19,150,80.952,150,60.714,150C40.476,150,20.238,150,0,150Z"></path><line x1="0" x2="850" y1="150" y2="150" stroke="#666" stroke-width="1" stroke-dasharray="3,3"></line><g transform="translate(0,300)" fill="none" font-size="10" font-family="sans-serif" text-anchor="middle" style="font-size: 10px;"><path class="domain" stroke="currentColor" d="M0.5,6V0.5H850.5V6" style="stroke-width: 0.5px; stroke: gray;"></path><g class="tick" opacity="1" transform="translate(0.5,0)"><line stroke="currentColor" y2="6"></line><text fill="currentColor" y="9" dy="0.71em">2008</text></g><g class="tick" opacity="1" transform="translate(61.21428571428571,0)"><line stroke="currentColor" y2="6"></line><text fill="currentColor" y="9" dy="0.71em">2009</text></g><g class="tick" opacity="1" transform="translate(121.92857142857142,0)"><line stroke="currentColor" y2="6"></line><text fill="currentColor" y="9" dy="0.71em">2010</text></g><g class="tick" opacity="1" transform="translate(182.64285714285714,0)"><line stroke="currentColor" y2="6"></line><text fill="currentColor" y="9" dy="0.71em">2011</text></g><g class="tick" opacity="1" transform="translate(243.35714285714283,0)"><line stroke="currentColor" y2="6"></line><text fill="currentColor" y="9" dy="0.71em">2012</text></g><g class="tick" opacity="1" transform="translate(304.07142857142856,0)"><line stroke="currentColor" y2="6"></line><text fill="currentColor" y="9" dy="0.71em">2013</text></g><g class="tick" opacity="1" transform="translate(364.7857142857143,0)"><line stroke="currentColor" y2="6"></line><text fill="currentColor" y="9" dy="0.71em">2014</text></g><g class="tick" opacity="1" transform="translate(425.5,0)"><line stroke="currentColor" y2="6"></line><text fill="currentColor" y="9" dy="0.71em">2015</text></g><g class="tick" opacity="1" transform="translate(486.21428571428567,0)"><line stroke="currentColor" y2="6"></line><text fill="currentColor" y="9" dy="0.71em">2016</text></g><g class="tick" opacity="1" transform="translate(546.9285714285714,0)"><line stroke="currentColor" y2="6"></line><text fill="currentColor" y="9" dy="0.71em">2017</text></g><g class="tick" opacity="1" transform="translate(607.6428571428571,0)"><line stroke="currentColor" y2="6"></line><text fill="currentColor" y="9" dy="0.71em">2018</text></g><g class="tick" opacity="1" transform="translate(668.3571428571429,0)"><line stroke="currentColor" y2="6"></line><text fill="currentColor" y="9" dy="0.71em">2019</text></g><g class="tick" opacity="1" transform="translate(729.0714285714286,0)"><line stroke="currentColor" y2="6"></line><text fill="currentColor" y="9" dy="0.71em">2020</text></g><g class="tick" opacity="1" transform="translate(789.7857142857143,0)"><line stroke="currentColor" y2="6"></line><text fill="currentColor" y="9" dy="0.71em">2021</text></g><g class="tick" opacity="1" transform="translate(850.5,0)"><line stroke="currentColor" y2="6"></line><text fill="currentColor" y="9" dy="0.71em">2022</text></g></g><g fill="none" font-size="10" font-family="sans-serif" text-anchor="end" style="font-size: 10px;"><path class="domain" stroke="currentColor" d="M-6,150.5H0.5V0.5H-6" style="stroke-width: 0.5px; stroke: gray;"></path><g class="tick" opacity="1" transform="translate(0,150.5)"><line stroke="currentColor" x2="-6"></line><text fill="currentColor" x="-9" dy="0.32em">0</text></g><g class="tick" opacity="1" transform="translate(0,75.5)"><line stroke="currentColor" x2="-6"></line><text fill="currentColor" x="-9" dy="0.32em">8</text></g><g class="tick" opacity="1" transform="translate(0,0.5)"><line stroke="currentColor" x2="-6"></line><text fill="currentColor" x="-9" dy="0.32em">16</text></g></g><g fill="none" font-size="10" font-family="sans-serif" text-anchor="end" style="font-size: 10px;"><path class="domain" stroke="currentColor" d="M-6,150.5H0.5V300.5H-6" style="stroke-width: 0.5px; stroke: gray;"></path><g class="tick" opacity="1" transform="translate(0,150.5)"><line stroke="currentColor" x2="-6"></line><text fill="currentColor" x="-9" dy="0.32em">0</text></g><g class="tick" opacity="1" transform="translate(0,225.5)"><line stroke="currentColor" x2="-6"></line><text fill="currentColor" x="-9" dy="0.32em">8</text></g><g class="tick" opacity="1" transform="translate(0,300.5)"><line stroke="currentColor" x2="-6"></line><text fill="currentColor" x="-9" dy="0.32em">16</text></g></g><line x1="0" x2="850" y1="80" y2="80" stroke="gray" stroke-width="0.5" stroke-opacity="0.3"></line><line x1="0" x2="850" y1="220" y2="220" stroke="gray" stroke-width="0.5" stroke-opacity="0.3"></line><line x1="0" x2="850" y1="10" y2="10" stroke="gray" stroke-width="0.5" stroke-opacity="0.3"></line><line x1="0" x2="850" y1="290" y2="290" stroke="gray" stroke-width="0.5" stroke-opacity="0.3"></line><text x="425" y="350" text-anchor="middle" style="font-size: 11px;">Year</text><text transform="rotate(-90)" x="-150" y="-45" text-anchor="middle" style="font-size: 11px;">Frequency</text><g transform="translate(750, 10)"><rect width="15" height="15" fill="purple" opacity="0.7"></rect><text x="20" y="12" style="font-size: 10px;">Female</text><rect y="20" width="15" height="15" fill="orange" opacity="0.7"></rect><text x="20" y="32" style="font-size: 10px;">Male</text></g><g transform="translate(10, 260)"><text style="font-size: 10px; fill: rgb(102, 102, 102);">Total: 134 (M: 124, F: 10, F-ratio: 0.07)</text></g></g></svg>