<?xml version="1.0" encoding="utf-8" standalone="no"?>
<!DOCTYPE svg PUBLIC "-//W3C//DTD SVG 1.1//EN"
  "http://www.w3.org/Graphics/SVG/1.1/DTD/svg11.dtd">
<svg xmlns:xlink="http://www.w3.org/1999/xlink" width="711.864375pt" height="424.005pt" viewBox="0 0 711.864375 424.005" xmlns="http://www.w3.org/2000/svg" version="1.1">
 <metadata>
  <rdf:RDF xmlns:dc="http://purl.org/dc/elements/1.1/" xmlns:cc="http://creativecommons.org/ns#" xmlns:rdf="http://www.w3.org/1999/02/22-rdf-syntax-ns#">
   <cc:Work>
    <dc:type rdf:resource="http://purl.org/dc/dcmitype/StillImage"/>
    <dc:date>2026-04-11T21:39:35.368866</dc:date>
    <dc:format>image/svg+xml</dc:format>
    <dc:creator>
     <cc:Agent>
      <dc:title>Matplotlib v3.10.7, https://matplotlib.org/</dc:title>
     </cc:Agent>
    </dc:creator>
   </cc:Work>
  </rdf:RDF>
 </metadata>
 <defs>
  <style type="text/css">*{stroke-linejoin: round; stroke-linecap: butt}</style>
 </defs>
 <g id="figure_1">
  <g id="patch_1">
   <path d="M 0 424.005 
L 711.864375 424.005 
L 711.864375 0 
L 0 0 
z
" style="fill: #ffffff"/>
  </g>
  <g id="axes_1">
   <g id="patch_2">
    <path d="M 44.234375 384.28 
L 693.564375 384.28 
L 693.564375 7.2 
L 44.234375 7.2 
z
" style="fill: #ffffff"/>
   </g>
   <g id="matplotlib.axis_1">
    <g id="xtick_1">
     <g id="text_1">
      <!-- 1989 -->
      <g transform="translate(62.649375 399.239375) scale(0.1 -0.1)">
       <defs>
        <path id="NotoSansCJKjp-Regular-31" d="M 563 0 
L 3136 0 
L 3136 486 
L 2195 486 
L 2195 4698 
L 1747 4698 
C 1491 4544 1190 4435 774 4358 
L 774 3987 
L 1606 3987 
L 1606 486 
L 563 486 
L 563 0 
z
" transform="scale(0.015625)"/>
        <path id="NotoSansCJKjp-Regular-39" d="M 832 3258 
C 832 3898 1178 4320 1626 4320 
C 2227 4320 2586 3808 2650 2842 
C 2349 2400 1990 2214 1670 2214 
C 1114 2214 832 2624 832 3258 
z
M 1498 -83 
C 2381 -83 3200 646 3200 2547 
C 3200 4038 2528 4781 1626 4781 
C 896 4781 282 4166 282 3258 
C 282 2285 794 1779 1574 1779 
C 1965 1779 2368 2003 2656 2355 
C 2611 902 2086 403 1478 403 
C 1178 403 890 538 698 762 
L 371 397 
C 634 122 992 -83 1498 -83 
z
" transform="scale(0.015625)"/>
        <path id="NotoSansCJKjp-Regular-38" d="M 1786 -83 
C 2669 -83 3258 448 3258 1133 
C 3258 1773 2874 2125 2464 2362 
L 2464 2394 
C 2746 2611 3091 3034 3091 3526 
C 3091 4250 2605 4762 1805 4762 
C 1075 4762 518 4288 518 3571 
C 518 3078 806 2726 1152 2490 
L 1152 2458 
C 723 2227 288 1792 288 1165 
C 288 442 922 -83 1786 -83 
z
M 2106 2547 
C 1555 2765 1050 3008 1050 3571 
C 1050 4026 1363 4333 1798 4333 
C 2304 4333 2592 3955 2592 3494 
C 2592 3149 2426 2829 2106 2547 
z
M 1798 352 
C 1235 352 819 717 819 1216 
C 819 1664 1082 2035 1459 2278 
C 2125 2010 2701 1773 2701 1146 
C 2701 678 2336 352 1798 352 
z
" transform="scale(0.015625)"/>
       </defs>
       <use xlink:href="#NotoSansCJKjp-Regular-31"/>
       <use xlink:href="#NotoSansCJKjp-Regular-39" transform="translate(55.499985 0)"/>
       <use xlink:href="#NotoSansCJKjp-Regular-38" transform="translate(110.999969 0)"/>
       <use xlink:href="#NotoSansCJKjp-Regular-39" transform="translate(166.499954 0)"/>
      </g>
     </g>
    </g>
    <g id="xtick_2">
     <g id="text_2">
      <!-- 1992 -->
      <g transform="translate(151.194375 399.239375) scale(0.1 -0.1)">
       <defs>
        <path id="NotoSansCJKjp-Regular-32" d="M 282 0 
L 3232 0 
L 3232 506 
L 1933 506 
C 1696 506 1408 480 1165 461 
C 2266 1504 3002 2458 3002 3392 
C 3002 4230 2477 4781 1638 4781 
C 1043 4781 640 4506 256 4090 
L 595 3757 
C 851 4064 1184 4301 1568 4301 
C 2150 4301 2432 3910 2432 3373 
C 2432 2566 1754 1632 282 346 
L 282 0 
z
" transform="scale(0.015625)"/>
       </defs>
       <use xlink:href="#NotoSansCJKjp-Regular-31"/>
       <use xlink:href="#NotoSansCJKjp-Regular-39" transform="translate(55.499985 0)"/>
       <use xlink:href="#NotoSansCJKjp-Regular-39" transform="translate(110.999969 0)"/>
       <use xlink:href="#NotoSansCJKjp-Regular-32" transform="translate(166.499954 0)"/>
      </g>
     </g>
    </g>
    <g id="xtick_3">
     <g id="text_3">
      <!-- 1995 -->
      <g transform="translate(239.739375 399.239375) scale(0.1 -0.1)">
       <defs>
        <path id="NotoSansCJKjp-Regular-35" d="M 1670 -83 
C 2464 -83 3206 499 3206 1530 
C 3206 2560 2573 3021 1792 3021 
C 1510 3021 1306 2950 1094 2835 
L 1210 4192 
L 2982 4192 
L 2982 4698 
L 698 4698 
L 550 2496 
L 864 2304 
C 1133 2483 1331 2579 1645 2579 
C 2234 2579 2618 2182 2618 1510 
C 2618 826 2170 403 1619 403 
C 1075 403 736 653 467 922 
L 179 538 
C 493 224 941 -83 1670 -83 
z
" transform="scale(0.015625)"/>
       </defs>
       <use xlink:href="#NotoSansCJKjp-Regular-31"/>
       <use xlink:href="#NotoSansCJKjp-Regular-39" transform="translate(55.499985 0)"/>
       <use xlink:href="#NotoSansCJKjp-Regular-39" transform="translate(110.999969 0)"/>
       <use xlink:href="#NotoSansCJKjp-Regular-35" transform="translate(166.499954 0)"/>
      </g>
     </g>
    </g>
    <g id="xtick_4">
     <g id="text_4">
      <!-- 1998 -->
      <g transform="translate(328.284375 399.239375) scale(0.1 -0.1)">
       <use xlink:href="#NotoSansCJKjp-Regular-31"/>
       <use xlink:href="#NotoSansCJKjp-Regular-39" transform="translate(55.499985 0)"/>
       <use xlink:href="#NotoSansCJKjp-Regular-39" transform="translate(110.999969 0)"/>
       <use xlink:href="#NotoSansCJKjp-Regular-38" transform="translate(166.499954 0)"/>
      </g>
     </g>
    </g>
    <g id="xtick_5">
     <g id="text_5">
      <!-- 2001 -->
      <g transform="translate(416.829375 399.239375) scale(0.1 -0.1)">
       <defs>
        <path id="NotoSansCJKjp-Regular-30" d="M 1779 -83 
C 2669 -83 3238 730 3238 2362 
C 3238 3987 2669 4781 1779 4781 
C 883 4781 314 3994 314 2362 
C 314 730 883 -83 1779 -83 
z
M 1779 384 
C 1242 384 883 979 883 2362 
C 883 3731 1242 4314 1779 4314 
C 2310 4314 2669 3731 2669 2362 
C 2669 979 2310 384 1779 384 
z
" transform="scale(0.015625)"/>
       </defs>
       <use xlink:href="#NotoSansCJKjp-Regular-32"/>
       <use xlink:href="#NotoSansCJKjp-Regular-30" transform="translate(55.499985 0)"/>
       <use xlink:href="#NotoSansCJKjp-Regular-30" transform="translate(110.999969 0)"/>
       <use xlink:href="#NotoSansCJKjp-Regular-31" transform="translate(166.499954 0)"/>
      </g>
     </g>
    </g>
    <g id="xtick_6">
     <g id="text_6">
      <!-- 2004 -->
      <g transform="translate(505.374375 399.239375) scale(0.1 -0.1)">
       <defs>
        <path id="NotoSansCJKjp-Regular-34" d="M 736 1760 
L 1805 3360 
C 1939 3590 2067 3821 2182 4051 
L 2208 4051 
C 2195 3808 2176 3430 2176 3200 
L 2176 1760 
L 736 1760 
z
M 2176 0 
L 2726 0 
L 2726 1293 
L 3347 1293 
L 3347 1760 
L 2726 1760 
L 2726 4698 
L 2080 4698 
L 128 1677 
L 128 1293 
L 2176 1293 
L 2176 0 
z
" transform="scale(0.015625)"/>
       </defs>
       <use xlink:href="#NotoSansCJKjp-Regular-32"/>
       <use xlink:href="#NotoSansCJKjp-Regular-30" transform="translate(55.499985 0)"/>
       <use xlink:href="#NotoSansCJKjp-Regular-30" transform="translate(110.999969 0)"/>
       <use xlink:href="#NotoSansCJKjp-Regular-34" transform="translate(166.499954 0)"/>
      </g>
     </g>
    </g>
    <g id="xtick_7">
     <g id="text_7">
      <!-- 2007 -->
      <g transform="translate(593.919375 399.239375) scale(0.1 -0.1)">
       <defs>
        <path id="NotoSansCJKjp-Regular-37" d="M 1267 0 
L 1875 0 
C 1946 1837 2150 2931 3251 4339 
L 3251 4698 
L 314 4698 
L 314 4192 
L 2586 4192 
C 1670 2912 1344 1779 1267 0 
z
" transform="scale(0.015625)"/>
       </defs>
       <use xlink:href="#NotoSansCJKjp-Regular-32"/>
       <use xlink:href="#NotoSansCJKjp-Regular-30" transform="translate(55.499985 0)"/>
       <use xlink:href="#NotoSansCJKjp-Regular-30" transform="translate(110.999969 0)"/>
       <use xlink:href="#NotoSansCJKjp-Regular-37" transform="translate(166.499954 0)"/>
      </g>
     </g>
    </g>
    <g id="xtick_8">
     <g id="text_8">
      <!-- 2010 -->
      <g transform="translate(682.464375 399.239375) scale(0.1 -0.1)">
       <use xlink:href="#NotoSansCJKjp-Regular-32"/>
       <use xlink:href="#NotoSansCJKjp-Regular-30" transform="translate(55.499985 0)"/>
       <use xlink:href="#NotoSansCJKjp-Regular-31" transform="translate(110.999969 0)"/>
       <use xlink:href="#NotoSansCJKjp-Regular-30" transform="translate(166.499954 0)"/>
      </g>
     </g>
    </g>
    <g id="text_9">
     <!-- Year -->
     <g transform="translate(357.695703 414.285312) scale(0.11 -0.11)">
      <defs>
       <path id="NotoSansCJKjp-Regular-59" d="M 1402 0 
L 1997 0 
L 1997 1824 
L 3405 4698 
L 2790 4698 
L 2182 3366 
C 2042 3021 1882 2694 1715 2342 
L 1690 2342 
C 1523 2694 1382 3021 1229 3366 
L 627 4698 
L -6 4698 
L 1402 1824 
L 1402 0 
z
" transform="scale(0.015625)"/>
       <path id="NotoSansCJKjp-Regular-65" d="M 1990 -83 
C 2464 -83 2835 77 3142 275 
L 2931 659 
C 2675 486 2400 384 2061 384 
C 1402 384 947 858 909 1600 
L 3251 1600 
C 3264 1683 3277 1805 3277 1933 
C 3277 2925 2778 3565 1894 3565 
C 1088 3565 326 2861 326 1734 
C 326 589 1069 -83 1990 -83 
z
M 902 2022 
C 973 2701 1408 3098 1901 3098 
C 2445 3098 2765 2720 2765 2022 
L 902 2022 
z
" transform="scale(0.015625)"/>
       <path id="NotoSansCJKjp-Regular-61" d="M 1389 -83 
C 1818 -83 2208 141 2541 416 
L 2560 416 
L 2611 0 
L 3091 0 
L 3091 2138 
C 3091 2995 2733 3565 1888 3565 
C 1331 3565 838 3315 518 3110 
L 749 2707 
C 1024 2893 1389 3078 1792 3078 
C 2362 3078 2509 2650 2509 2202 
C 1030 2035 371 1658 371 902 
C 371 275 806 -83 1389 -83 
z
M 1555 384 
C 1210 384 941 544 941 941 
C 941 1389 1338 1677 2509 1818 
L 2509 845 
C 2170 544 1894 384 1555 384 
z
" transform="scale(0.015625)"/>
       <path id="NotoSansCJKjp-Regular-72" d="M 589 0 
L 1171 0 
L 1171 2234 
C 1402 2829 1760 3034 2048 3034 
C 2189 3034 2272 3021 2387 2976 
L 2496 3488 
C 2387 3546 2278 3565 2125 3565 
C 1734 3565 1382 3283 1139 2842 
L 1120 2842 
L 1069 3475 
L 589 3475 
L 589 0 
z
" transform="scale(0.015625)"/>
      </defs>
      <use xlink:href="#NotoSansCJKjp-Regular-59"/>
      <use xlink:href="#NotoSansCJKjp-Regular-65" transform="translate(53.099991 0)"/>
      <use xlink:href="#NotoSansCJKjp-Regular-61" transform="translate(108.499985 0)"/>
      <use xlink:href="#NotoSansCJKjp-Regular-72" transform="translate(164.899979 0)"/>
     </g>
    </g>
   </g>
   <g id="matplotlib.axis_2">
    <g id="ytick_1">
     <g id="line2d_1">
      <path d="M 44.234375 384.28 
L 693.564375 384.28 
" clip-path="url(#p5c36b871e4)" style="fill: none; stroke: #808080; stroke-opacity: 0.3; stroke-width: 0.5; stroke-linecap: round"/>
     </g>
     <g id="text_10">
      <!-- 0% -->
      <g transform="translate(22.475 388.259687) scale(0.1 -0.1)">
       <defs>
        <path id="NotoSansCJKjp-Regular-25" d="M 1312 1818 
C 1958 1818 2381 2362 2381 3309 
C 2381 4250 1958 4781 1312 4781 
C 672 4781 250 4250 250 3309 
C 250 2362 672 1818 1312 1818 
z
M 1312 2182 
C 947 2182 691 2560 691 3309 
C 691 4058 947 4422 1312 4422 
C 1683 4422 1939 4058 1939 3309 
C 1939 2560 1683 2182 1312 2182 
z
M 1453 -83 
L 1843 -83 
L 4435 4781 
L 4038 4781 
L 1453 -83 
z
M 4582 -83 
C 5222 -83 5645 454 5645 1402 
C 5645 2342 5222 2874 4582 2874 
C 3942 2874 3514 2342 3514 1402 
C 3514 454 3942 -83 4582 -83 
z
M 4582 275 
C 4211 275 3962 653 3962 1402 
C 3962 2150 4211 2515 4582 2515 
C 4947 2515 5203 2150 5203 1402 
C 5203 653 4947 275 4582 275 
z
" transform="scale(0.015625)"/>
       </defs>
       <use xlink:href="#NotoSansCJKjp-Regular-30"/>
       <use xlink:href="#NotoSansCJKjp-Regular-25" transform="translate(55.499985 0)"/>
      </g>
     </g>
    </g>
    <g id="ytick_2">
     <g id="line2d_2">
      <path d="M 44.234375 233.448 
L 693.564375 233.448 
" clip-path="url(#p5c36b871e4)" style="fill: none; stroke: #808080; stroke-opacity: 0.3; stroke-width: 0.5; stroke-linecap: round"/>
     </g>
     <g id="text_11">
      <!-- 2% -->
      <g transform="translate(22.475 237.427687) scale(0.1 -0.1)">
       <use xlink:href="#NotoSansCJKjp-Regular-32"/>
       <use xlink:href="#NotoSansCJKjp-Regular-25" transform="translate(55.499985 0)"/>
      </g>
     </g>
    </g>
    <g id="ytick_3">
     <g id="line2d_3">
      <path d="M 44.234375 82.616 
L 693.564375 82.616 
" clip-path="url(#p5c36b871e4)" style="fill: none; stroke: #808080; stroke-opacity: 0.3; stroke-width: 0.5; stroke-linecap: round"/>
     </g>
     <g id="text_12">
      <!-- 4% -->
      <g transform="translate(22.475 86.595687) scale(0.1 -0.1)">
       <use xlink:href="#NotoSansCJKjp-Regular-34"/>
       <use xlink:href="#NotoSansCJKjp-Regular-25" transform="translate(55.499985 0)"/>
      </g>
     </g>
    </g>
    <g id="text_13">
     <!-- Proportion -->
     <g transform="translate(15.955312 223.838125) rotate(-90) scale(0.11 -0.11)">
      <defs>
       <path id="NotoSansCJKjp-Regular-50" d="M 640 0 
L 1235 0 
L 1235 1862 
L 2010 1862 
C 3040 1862 3738 2323 3738 3315 
C 3738 4339 3034 4698 1984 4698 
L 640 4698 
L 640 0 
z
M 1235 2342 
L 1235 4211 
L 1907 4211 
C 2733 4211 3149 3994 3149 3315 
C 3149 2643 2758 2342 1933 2342 
L 1235 2342 
z
" transform="scale(0.015625)"/>
       <path id="NotoSansCJKjp-Regular-6f" d="M 1939 -83 
C 2790 -83 3552 582 3552 1734 
C 3552 2893 2790 3565 1939 3565 
C 1088 3565 326 2893 326 1734 
C 326 582 1088 -83 1939 -83 
z
M 1939 403 
C 1338 403 934 934 934 1734 
C 934 2534 1338 3078 1939 3078 
C 2541 3078 2950 2534 2950 1734 
C 2950 934 2541 403 1939 403 
z
" transform="scale(0.015625)"/>
       <path id="NotoSansCJKjp-Regular-70" d="M 589 -1466 
L 1171 -1466 
L 1171 -288 
L 1158 320 
C 1472 64 1805 -83 2118 -83 
C 2918 -83 3629 602 3629 1792 
C 3629 2861 3142 3565 2246 3565 
C 1843 3565 1453 3334 1139 3078 
L 1120 3078 
L 1069 3475 
L 589 3475 
L 589 -1466 
z
M 2022 403 
C 1792 403 1485 499 1171 768 
L 1171 2592 
C 1510 2906 1811 3072 2106 3072 
C 2765 3072 3021 2554 3021 1786 
C 3021 922 2598 403 2022 403 
z
" transform="scale(0.015625)"/>
       <path id="NotoSansCJKjp-Regular-74" d="M 1683 -83 
C 1894 -83 2125 -19 2323 45 
L 2208 480 
C 2093 435 1933 390 1811 390 
C 1408 390 1274 634 1274 1062 
L 1274 3002 
L 2214 3002 
L 2214 3475 
L 1274 3475 
L 1274 4454 
L 787 4454 
L 717 3475 
L 173 3443 
L 173 3002 
L 691 3002 
L 691 1075 
C 691 384 941 -83 1683 -83 
z
" transform="scale(0.015625)"/>
       <path id="NotoSansCJKjp-Regular-69" d="M 589 0 
L 1171 0 
L 1171 3475 
L 589 3475 
L 589 0 
z
M 883 4192 
C 1114 4192 1274 4346 1274 4582 
C 1274 4806 1114 4960 883 4960 
C 653 4960 493 4806 493 4582 
C 493 4346 653 4192 883 4192 
z
" transform="scale(0.015625)"/>
       <path id="NotoSansCJKjp-Regular-6e" d="M 589 0 
L 1171 0 
L 1171 2522 
C 1523 2874 1766 3053 2125 3053 
C 2586 3053 2784 2778 2784 2125 
L 2784 0 
L 3366 0 
L 3366 2202 
C 3366 3091 3034 3565 2304 3565 
C 1830 3565 1472 3302 1139 2976 
L 1120 2976 
L 1069 3475 
L 589 3475 
L 589 0 
z
" transform="scale(0.015625)"/>
      </defs>
      <use xlink:href="#NotoSansCJKjp-Regular-50"/>
      <use xlink:href="#NotoSansCJKjp-Regular-72" transform="translate(63.199997 0)"/>
      <use xlink:href="#NotoSansCJKjp-Regular-6f" transform="translate(101.999985 0)"/>
      <use xlink:href="#NotoSansCJKjp-Regular-70" transform="translate(162.599976 0)"/>
      <use xlink:href="#NotoSansCJKjp-Regular-6f" transform="translate(224.59996 0)"/>
      <use xlink:href="#NotoSansCJKjp-Regular-72" transform="translate(285.199951 0)"/>
      <use xlink:href="#NotoSansCJKjp-Regular-74" transform="translate(323.999939 0)"/>
      <use xlink:href="#NotoSansCJKjp-Regular-69" transform="translate(361.699936 0)"/>
      <use xlink:href="#NotoSansCJKjp-Regular-6f" transform="translate(389.199921 0)"/>
      <use xlink:href="#NotoSansCJKjp-Regular-6e" transform="translate(449.799911 0)"/>
     </g>
    </g>
   </g>
   <g id="FillBetweenPolyCollection_1">
    <defs>
     <path id="m1f8e04da47" d="M 73.749375 -39.725 
L 73.749375 -39.725 
L 75.723622 -39.725 
L 77.69787 -39.725 
L 79.672117 -39.725 
L 81.646365 -39.725 
L 83.620612 -39.725 
L 85.59486 -39.725 
L 87.569107 -39.725 
L 89.543355 -39.725 
L 91.517602 -39.725 
L 93.49185 -39.725 
L 95.466097 -39.725 
L 97.440345 -39.725 
L 99.414592 -39.725 
L 101.38884 -39.725 
L 103.363087 -39.725 
L 105.337335 -39.725 
L 107.311582 -39.725 
L 109.28583 -39.725 
L 111.260077 -39.725 
L 113.234325 -39.725 
L 115.208572 -39.725 
L 117.18282 -39.725 
L 119.157067 -39.725 
L 121.131315 -39.725 
L 123.105562 -39.725 
L 125.07981 -39.725 
L 127.054057 -39.725 
L 129.028305 -39.725 
L 131.002552 -39.725 
L 132.9768 -39.725 
L 134.951047 -39.725 
L 136.925295 -39.725 
L 138.899542 -39.725 
L 140.87379 -39.725 
L 142.848037 -39.725 
L 144.822285 -39.725 
L 146.796532 -39.725 
L 148.77078 -39.725 
L 150.745027 -39.725 
L 152.719275 -39.725 
L 154.693522 -39.725 
L 156.66777 -39.725 
L 158.642017 -39.725 
L 160.616265 -39.725 
L 162.590512 -39.725 
L 164.56476 -39.725 
L 166.539007 -39.725 
L 168.513255 -39.725 
L 170.487502 -39.725 
L 172.46175 -39.725 
L 174.435997 -39.725 
L 176.410245 -39.725 
L 178.384492 -39.725 
L 180.35874 -39.725 
L 182.332987 -39.725 
L 184.307235 -39.725 
L 186.281482 -39.725 
L 188.25573 -39.725 
L 190.229977 -39.725 
L 192.204224 -39.725 
L 194.178472 -39.725 
L 196.152719 -39.725 
L 198.126967 -39.725 
L 200.101214 -39.725 
L 202.075462 -39.725 
L 204.049709 -39.725 
L 206.023957 -39.725 
L 207.998204 -39.725 
L 209.972452 -39.725 
L 211.946699 -39.725 
L 213.920947 -39.725 
L 215.895194 -39.725 
L 217.869442 -39.725 
L 219.843689 -39.725 
L 221.817937 -39.725 
L 223.792184 -39.725 
L 225.766432 -39.725 
L 227.740679 -39.725 
L 229.714927 -39.725 
L 231.689174 -39.725 
L 233.663422 -39.725 
L 235.637669 -39.725 
L 237.611917 -39.725 
L 239.586164 -39.725 
L 241.560412 -39.725 
L 243.534659 -39.725 
L 245.508907 -39.725 
L 247.483154 -39.725 
L 249.457402 -39.725 
L 251.431649 -39.725 
L 253.405897 -39.725 
L 255.380144 -39.725 
L 257.354392 -39.725 
L 259.328639 -39.725 
L 261.302887 -39.725 
L 263.277134 -39.725 
L 265.251382 -39.725 
L 267.225629 -39.725 
L 269.199877 -39.725 
L 271.174124 -39.725 
L 273.148372 -39.725 
L 275.122619 -39.725 
L 277.096867 -39.725 
L 279.071114 -39.725 
L 281.045362 -39.725 
L 283.019609 -39.725 
L 284.993857 -39.725 
L 286.968104 -39.725 
L 288.942352 -39.725 
L 290.916599 -39.725 
L 292.890847 -39.725 
L 294.865094 -39.725 
L 296.839342 -39.725 
L 298.813589 -39.725 
L 300.787837 -39.725 
L 302.762084 -39.725 
L 304.736332 -39.725 
L 306.710579 -39.725 
L 308.684827 -39.725 
L 310.659074 -39.725 
L 312.633321 -39.725 
L 314.607569 -39.725 
L 316.581816 -39.725 
L 318.556064 -39.725 
L 320.530311 -39.725 
L 322.504559 -39.725 
L 324.478806 -39.725 
L 326.453054 -39.725 
L 328.427301 -39.725 
L 330.401549 -39.725 
L 332.375796 -39.725 
L 334.350044 -39.725 
L 336.324291 -39.725 
L 338.298539 -39.725 
L 340.272786 -39.725 
L 342.247034 -39.725 
L 344.221281 -39.725 
L 346.195529 -39.725 
L 348.169776 -39.725 
L 350.144024 -39.725 
L 352.118271 -39.725 
L 354.092519 -39.725 
L 356.066766 -39.725 
L 358.041014 -39.725 
L 360.015261 -39.725 
L 361.989509 -39.725 
L 363.963756 -39.725 
L 365.938004 -39.725 
L 367.912251 -39.725 
L 369.886499 -39.725 
L 371.860746 -39.725 
L 373.834994 -39.725 
L 375.809241 -39.725 
L 377.783489 -39.725 
L 379.757736 -39.725 
L 381.731984 -39.725 
L 383.706231 -39.725 
L 385.680479 -39.725 
L 387.654726 -39.725 
L 389.628974 -39.725 
L 391.603221 -39.725 
L 393.577469 -39.725 
L 395.551716 -39.725 
L 397.525964 -39.725 
L 399.500211 -39.725 
L 401.474459 -39.725 
L 403.448706 -39.725 
L 405.422954 -39.725 
L 407.397201 -39.725 
L 409.371449 -39.725 
L 411.345696 -39.725 
L 413.319944 -39.725 
L 415.294191 -39.725 
L 417.268439 -39.725 
L 419.242686 -39.725 
L 421.216934 -39.725 
L 423.191181 -39.725 
L 425.165429 -39.725 
L 427.139676 -39.725 
L 429.113923 -39.725 
L 431.088171 -39.725 
L 433.062418 -39.725 
L 435.036666 -39.725 
L 437.010913 -39.725 
L 438.985161 -39.725 
L 440.959408 -39.725 
L 442.933656 -39.725 
L 444.907903 -39.725 
L 446.882151 -39.725 
L 448.856398 -39.725 
L 450.830646 -39.725 
L 452.804893 -39.725 
L 454.779141 -39.725 
L 456.753388 -39.725 
L 458.727636 -39.725 
L 460.701883 -39.725 
L 462.676131 -39.725 
L 464.650378 -39.725 
L 466.624626 -39.725 
L 468.598873 -39.725 
L 470.573121 -39.725 
L 472.547368 -39.725 
L 474.521616 -39.725 
L 476.495863 -39.725 
L 478.470111 -39.725 
L 480.444358 -39.725 
L 482.418606 -39.725 
L 484.392853 -39.725 
L 486.367101 -39.725 
L 488.341348 -39.725 
L 490.315596 -39.725 
L 492.289843 -39.725 
L 494.264091 -39.725 
L 496.238338 -39.725 
L 498.212586 -39.725 
L 500.186833 -39.725 
L 502.161081 -39.725 
L 504.135328 -39.725 
L 506.109576 -39.725 
L 508.083823 -39.725 
L 510.058071 -39.725 
L 512.032318 -39.725 
L 514.006566 -39.725 
L 515.980813 -39.725 
L 517.955061 -39.725 
L 519.929308 -39.725 
L 521.903556 -39.725 
L 523.877803 -39.725 
L 525.852051 -39.725 
L 527.826298 -39.725 
L 529.800546 -39.725 
L 531.774793 -39.725 
L 533.749041 -39.725 
L 535.723288 -39.725 
L 537.697536 -39.725 
L 539.671783 -39.725 
L 541.646031 -39.725 
L 543.620278 -39.725 
L 545.594526 -39.725 
L 547.568773 -39.725 
L 549.54302 -39.725 
L 551.517268 -39.725 
L 553.491515 -39.725 
L 555.465763 -39.725 
L 557.44001 -39.725 
L 559.414258 -39.725 
L 561.388505 -39.725 
L 563.362753 -39.725 
L 565.337 -39.725 
L 567.311248 -39.725 
L 569.285495 -39.725 
L 571.259743 -39.725 
L 573.23399 -39.725 
L 575.208238 -39.725 
L 577.182485 -39.725 
L 579.156733 -39.725 
L 581.13098 -39.725 
L 583.105228 -39.725 
L 585.079475 -39.725 
L 587.053723 -39.725 
L 589.02797 -39.725 
L 591.002218 -39.725 
L 592.976465 -39.725 
L 594.950713 -39.725 
L 596.92496 -39.725 
L 598.899208 -39.725 
L 600.873455 -39.725 
L 602.847703 -39.725 
L 604.82195 -39.725 
L 606.796198 -39.725 
L 608.770445 -39.725 
L 610.744693 -39.725 
L 612.71894 -39.725 
L 614.693188 -39.725 
L 616.667435 -39.725 
L 618.641683 -39.725 
L 620.61593 -39.725 
L 622.590178 -39.725 
L 624.564425 -39.725 
L 626.538673 -39.725 
L 628.51292 -39.725 
L 630.487168 -39.725 
L 632.461415 -39.725 
L 634.435663 -39.725 
L 636.40991 -39.725 
L 638.384158 -39.725 
L 640.358405 -39.725 
L 642.332653 -39.725 
L 644.3069 -39.725 
L 646.281148 -39.725 
L 648.255395 -39.725 
L 650.229643 -39.725 
L 652.20389 -39.725 
L 654.178138 -39.725 
L 656.152385 -39.725 
L 658.126633 -39.725 
L 660.10088 -39.725 
L 662.075128 -39.725 
L 664.049375 -39.725 
L 664.049375 -43.030342 
L 664.049375 -43.030342 
L 662.075128 -43.032362 
L 660.10088 -43.038244 
L 658.126633 -43.047722 
L 656.152385 -43.060531 
L 654.178138 -43.076404 
L 652.20389 -43.095075 
L 650.229643 -43.116278 
L 648.255395 -43.139748 
L 646.281148 -43.165217 
L 644.3069 -43.192421 
L 642.332653 -43.221092 
L 640.358405 -43.250966 
L 638.384158 -43.281775 
L 636.40991 -43.313255 
L 634.435663 -43.345161 
L 632.461415 -43.386836 
L 630.487168 -43.444182 
L 628.51292 -43.514428 
L 626.538673 -43.5948 
L 624.564425 -43.682527 
L 622.590178 -43.774837 
L 620.61593 -43.868958 
L 618.641683 -43.962117 
L 616.667435 -44.051542 
L 614.693188 -44.134461 
L 612.71894 -44.208103 
L 610.744693 -44.269694 
L 608.770445 -44.316462 
L 606.796198 -44.345636 
L 604.82195 -44.35445 
L 602.847703 -44.341983 
L 600.873455 -44.310834 
L 598.899208 -44.263872 
L 596.92496 -44.203966 
L 594.950713 -44.133987 
L 592.976465 -44.056803 
L 591.002218 -43.975285 
L 589.02797 -43.8923 
L 587.053723 -43.810719 
L 585.079475 -43.733412 
L 583.105228 -43.663247 
L 581.13098 -43.603094 
L 579.156733 -43.555822 
L 577.182485 -43.524301 
L 575.208238 -43.511175 
L 573.23399 -43.506037 
L 571.259743 -43.501844 
L 569.285495 -43.498444 
L 567.311248 -43.495688 
L 565.337 -43.493426 
L 563.362753 -43.491506 
L 561.388505 -43.489781 
L 559.414258 -43.488098 
L 557.44001 -43.486308 
L 555.465763 -43.484261 
L 553.491515 -43.481807 
L 551.517268 -43.478795 
L 549.54302 -43.475076 
L 547.568773 -43.470499 
L 545.594526 -43.464348 
L 543.620278 -43.438768 
L 541.646031 -43.388279 
L 539.671783 -43.316912 
L 537.697536 -43.228699 
L 535.723288 -43.127675 
L 533.749041 -43.017871 
L 531.774793 -42.903321 
L 529.800546 -42.788057 
L 527.826298 -42.676112 
L 525.852051 -42.571519 
L 523.877803 -42.478311 
L 521.903556 -42.400521 
L 519.929308 -42.34218 
L 517.955061 -42.307323 
L 515.980813 -42.301038 
L 514.006566 -42.347611 
L 512.032318 -42.450198 
L 510.058071 -42.601379 
L 508.083823 -42.793733 
L 506.109576 -43.019838 
L 504.135328 -43.272272 
L 502.161081 -43.543615 
L 500.186833 -43.826444 
L 498.212586 -44.11334 
L 496.238338 -44.396879 
L 494.264091 -44.669642 
L 492.289843 -44.924206 
L 490.315596 -45.15315 
L 488.341348 -45.349054 
L 486.367101 -45.506835 
L 484.392853 -45.6575 
L 482.418606 -45.811265 
L 480.444358 -45.966038 
L 478.470111 -46.119726 
L 476.495863 -46.270238 
L 474.521616 -46.415483 
L 472.547368 -46.553369 
L 470.573121 -46.681803 
L 468.598873 -46.798695 
L 466.624626 -46.901952 
L 464.650378 -46.989482 
L 462.676131 -47.059194 
L 460.701883 -47.108997 
L 458.727636 -47.136797 
L 456.753388 -47.138887 
L 454.779141 -47.096747 
L 452.804893 -47.011232 
L 450.830646 -46.889426 
L 448.856398 -46.738408 
L 446.882151 -46.565261 
L 444.907903 -46.377066 
L 442.933656 -46.180904 
L 440.959408 -45.983857 
L 438.985161 -45.793006 
L 437.010913 -45.615433 
L 435.036666 -45.458219 
L 433.062418 -45.328446 
L 431.088171 -45.233194 
L 429.113923 -45.179547 
L 427.139676 -45.175159 
L 425.165429 -45.227404 
L 423.191181 -45.330182 
L 421.216934 -45.475175 
L 419.242686 -45.654065 
L 417.268439 -45.858532 
L 415.294191 -46.08026 
L 413.319944 -46.310931 
L 411.345696 -46.542225 
L 409.371449 -46.765824 
L 407.397201 -46.973412 
L 405.422954 -47.156668 
L 403.448706 -47.307276 
L 401.474459 -47.416916 
L 399.500211 -47.477272 
L 397.525964 -47.47436 
L 395.551716 -47.366457 
L 393.577469 -47.159573 
L 391.603221 -46.869387 
L 389.628974 -46.51158 
L 387.654726 -46.101831 
L 385.680479 -45.65582 
L 383.706231 -45.189227 
L 381.731984 -44.717732 
L 379.757736 -44.257014 
L 377.783489 -43.822755 
L 375.809241 -43.430633 
L 373.834994 -43.096328 
L 371.860746 -42.83552 
L 369.886499 -42.66389 
L 367.912251 -42.583376 
L 365.938004 -42.521223 
L 363.963756 -42.464066 
L 361.989509 -42.411616 
L 360.015261 -42.363584 
L 358.041014 -42.319682 
L 356.066766 -42.279619 
L 354.092519 -42.243108 
L 352.118271 -42.209859 
L 350.144024 -42.179583 
L 348.169776 -42.151991 
L 346.195529 -42.126794 
L 344.221281 -42.103704 
L 342.247034 -42.082431 
L 340.272786 -42.062685 
L 338.298539 -42.044271 
L 336.324291 -42.027395 
L 334.350044 -42.011944 
L 332.375796 -41.997745 
L 330.401549 -41.984627 
L 328.427301 -41.972418 
L 326.453054 -41.960946 
L 324.478806 -41.95004 
L 322.504559 -41.939527 
L 320.530311 -41.929236 
L 318.556064 -41.918995 
L 316.581816 -41.908633 
L 314.607569 -41.897977 
L 312.633321 -41.886855 
L 310.659074 -41.875097 
L 308.684827 -41.862927 
L 306.710579 -41.851761 
L 304.736332 -41.841503 
L 302.762084 -41.831879 
L 300.787837 -41.822613 
L 298.813589 -41.813431 
L 296.839342 -41.804057 
L 294.865094 -41.794216 
L 292.890847 -41.783634 
L 290.916599 -41.772034 
L 288.942352 -41.759143 
L 286.968104 -41.744685 
L 284.993857 -41.728384 
L 283.019609 -41.709967 
L 281.045362 -41.689157 
L 279.071114 -41.656779 
L 277.096867 -41.584932 
L 275.122619 -41.477307 
L 273.148372 -41.340311 
L 271.174124 -41.18035 
L 269.199877 -41.003831 
L 267.225629 -40.817161 
L 265.251382 -40.626747 
L 263.277134 -40.438996 
L 261.302887 -40.260315 
L 259.328639 -40.09711 
L 257.354392 -39.955789 
L 255.380144 -39.842758 
L 253.405897 -39.764425 
L 251.431649 -39.727196 
L 249.457402 -39.725947 
L 247.483154 -39.730448 
L 245.508907 -39.73839 
L 243.534659 -39.749486 
L 241.560412 -39.763446 
L 239.586164 -39.779982 
L 237.611917 -39.798803 
L 235.637669 -39.819622 
L 233.663422 -39.842149 
L 231.689174 -39.866095 
L 229.714927 -39.891171 
L 227.740679 -39.917087 
L 225.766432 -39.943556 
L 223.792184 -39.970288 
L 221.817937 -39.996993 
L 219.843689 -40.026325 
L 217.869442 -40.06453 
L 215.895194 -40.110386 
L 213.920947 -40.162328 
L 211.946699 -40.218792 
L 209.972452 -40.278213 
L 207.998204 -40.339027 
L 206.023957 -40.399669 
L 204.049709 -40.458576 
L 202.075462 -40.514183 
L 200.101214 -40.564926 
L 198.126967 -40.609241 
L 196.152719 -40.645562 
L 194.178472 -40.672327 
L 192.204224 -40.68797 
L 190.229977 -40.695106 
L 188.25573 -40.701627 
L 186.281482 -40.707768 
L 184.307235 -40.713514 
L 182.332987 -40.718849 
L 180.35874 -40.723758 
L 178.384492 -40.728225 
L 176.410245 -40.732235 
L 174.435997 -40.735772 
L 172.46175 -40.73882 
L 170.487502 -40.741365 
L 168.513255 -40.743391 
L 166.539007 -40.744882 
L 164.56476 -40.745823 
L 162.590512 -40.746199 
L 160.616265 -40.743837 
L 158.642017 -40.73547 
L 156.66777 -40.721869 
L 154.693522 -40.703878 
L 152.719275 -40.68234 
L 150.745027 -40.6581 
L 148.77078 -40.632 
L 146.796532 -40.604884 
L 144.822285 -40.577595 
L 142.848037 -40.550977 
L 140.87379 -40.525874 
L 138.899542 -40.503127 
L 136.925295 -40.483582 
L 134.951047 -40.468081 
L 132.9768 -40.457468 
L 131.002552 -40.450611 
L 129.028305 -40.444862 
L 127.054057 -40.440024 
L 125.07981 -40.435925 
L 123.105562 -40.432388 
L 121.131315 -40.429242 
L 119.157067 -40.426311 
L 117.18282 -40.423423 
L 115.208572 -40.420401 
L 113.234325 -40.417074 
L 111.260077 -40.413267 
L 109.28583 -40.408805 
L 107.311582 -40.403515 
L 105.337335 -40.397223 
L 103.363087 -40.389755 
L 101.38884 -40.378465 
L 99.414592 -40.360568 
L 97.440345 -40.336495 
L 95.466097 -40.306681 
L 93.49185 -40.271566 
L 91.517602 -40.231586 
L 89.543355 -40.187178 
L 87.569107 -40.13878 
L 85.59486 -40.086829 
L 83.620612 -40.031762 
L 81.646365 -39.974017 
L 79.672117 -39.914031 
L 77.69787 -39.852241 
L 75.723622 -39.789085 
L 73.749375 -39.725 
z
" style="stroke: #d62728; stroke-opacity: 0.7"/>
    </defs>
    <g clip-path="url(#p5c36b871e4)">
     <use xlink:href="#m1f8e04da47" x="0" y="424.005" style="fill: #d62728; fill-opacity: 0.7; stroke: #d62728; stroke-opacity: 0.7"/>
    </g>
   </g>
   <g id="FillBetweenPolyCollection_2">
    <defs>
     <path id="m93aa08974f" d="M 73.749375 -39.77313 
L 73.749375 -39.725 
L 75.723622 -39.789085 
L 77.69787 -39.852241 
L 79.672117 -39.914031 
L 81.646365 -39.974017 
L 83.620612 -40.031762 
L 85.59486 -40.086829 
L 87.569107 -40.13878 
L 89.543355 -40.187178 
L 91.517602 -40.231586 
L 93.49185 -40.271566 
L 95.466097 -40.306681 
L 97.440345 -40.336495 
L 99.414592 -40.360568 
L 101.38884 -40.378465 
L 103.363087 -40.389755 
L 105.337335 -40.397223 
L 107.311582 -40.403515 
L 109.28583 -40.408805 
L 111.260077 -40.413267 
L 113.234325 -40.417074 
L 115.208572 -40.420401 
L 117.18282 -40.423423 
L 119.157067 -40.426311 
L 121.131315 -40.429242 
L 123.105562 -40.432388 
L 125.07981 -40.435925 
L 127.054057 -40.440024 
L 129.028305 -40.444862 
L 131.002552 -40.450611 
L 132.9768 -40.457468 
L 134.951047 -40.468081 
L 136.925295 -40.483582 
L 138.899542 -40.503127 
L 140.87379 -40.525874 
L 142.848037 -40.550977 
L 144.822285 -40.577595 
L 146.796532 -40.604884 
L 148.77078 -40.632 
L 150.745027 -40.6581 
L 152.719275 -40.68234 
L 154.693522 -40.703878 
L 156.66777 -40.721869 
L 158.642017 -40.73547 
L 160.616265 -40.743837 
L 162.590512 -40.746199 
L 164.56476 -40.745823 
L 166.539007 -40.744882 
L 168.513255 -40.743391 
L 170.487502 -40.741365 
L 172.46175 -40.73882 
L 174.435997 -40.735772 
L 176.410245 -40.732235 
L 178.384492 -40.728225 
L 180.35874 -40.723758 
L 182.332987 -40.718849 
L 184.307235 -40.713514 
L 186.281482 -40.707768 
L 188.25573 -40.701627 
L 190.229977 -40.695106 
L 192.204224 -40.68797 
L 194.178472 -40.672327 
L 196.152719 -40.645562 
L 198.126967 -40.609241 
L 200.101214 -40.564926 
L 202.075462 -40.514183 
L 204.049709 -40.458576 
L 206.023957 -40.399669 
L 207.998204 -40.339027 
L 209.972452 -40.278213 
L 211.946699 -40.218792 
L 213.920947 -40.162328 
L 215.895194 -40.110386 
L 217.869442 -40.06453 
L 219.843689 -40.026325 
L 221.817937 -39.996993 
L 223.792184 -39.970288 
L 225.766432 -39.943556 
L 227.740679 -39.917087 
L 229.714927 -39.891171 
L 231.689174 -39.866095 
L 233.663422 -39.842149 
L 235.637669 -39.819622 
L 237.611917 -39.798803 
L 239.586164 -39.779982 
L 241.560412 -39.763446 
L 243.534659 -39.749486 
L 245.508907 -39.73839 
L 247.483154 -39.730448 
L 249.457402 -39.725947 
L 251.431649 -39.727196 
L 253.405897 -39.764425 
L 255.380144 -39.842758 
L 257.354392 -39.955789 
L 259.328639 -40.09711 
L 261.302887 -40.260315 
L 263.277134 -40.438996 
L 265.251382 -40.626747 
L 267.225629 -40.817161 
L 269.199877 -41.003831 
L 271.174124 -41.18035 
L 273.148372 -41.340311 
L 275.122619 -41.477307 
L 277.096867 -41.584932 
L 279.071114 -41.656779 
L 281.045362 -41.689157 
L 283.019609 -41.709967 
L 284.993857 -41.728384 
L 286.968104 -41.744685 
L 288.942352 -41.759143 
L 290.916599 -41.772034 
L 292.890847 -41.783634 
L 294.865094 -41.794216 
L 296.839342 -41.804057 
L 298.813589 -41.813431 
L 300.787837 -41.822613 
L 302.762084 -41.831879 
L 304.736332 -41.841503 
L 306.710579 -41.851761 
L 308.684827 -41.862927 
L 310.659074 -41.875097 
L 312.633321 -41.886855 
L 314.607569 -41.897977 
L 316.581816 -41.908633 
L 318.556064 -41.918995 
L 320.530311 -41.929236 
L 322.504559 -41.939527 
L 324.478806 -41.95004 
L 326.453054 -41.960946 
L 328.427301 -41.972418 
L 330.401549 -41.984627 
L 332.375796 -41.997745 
L 334.350044 -42.011944 
L 336.324291 -42.027395 
L 338.298539 -42.044271 
L 340.272786 -42.062685 
L 342.247034 -42.082431 
L 344.221281 -42.103704 
L 346.195529 -42.126794 
L 348.169776 -42.151991 
L 350.144024 -42.179583 
L 352.118271 -42.209859 
L 354.092519 -42.243108 
L 356.066766 -42.279619 
L 358.041014 -42.319682 
L 360.015261 -42.363584 
L 361.989509 -42.411616 
L 363.963756 -42.464066 
L 365.938004 -42.521223 
L 367.912251 -42.583376 
L 369.886499 -42.66389 
L 371.860746 -42.83552 
L 373.834994 -43.096328 
L 375.809241 -43.430633 
L 377.783489 -43.822755 
L 379.757736 -44.257014 
L 381.731984 -44.717732 
L 383.706231 -45.189227 
L 385.680479 -45.65582 
L 387.654726 -46.101831 
L 389.628974 -46.51158 
L 391.603221 -46.869387 
L 393.577469 -47.159573 
L 395.551716 -47.366457 
L 397.525964 -47.47436 
L 399.500211 -47.477272 
L 401.474459 -47.416916 
L 403.448706 -47.307276 
L 405.422954 -47.156668 
L 407.397201 -46.973412 
L 409.371449 -46.765824 
L 411.345696 -46.542225 
L 413.319944 -46.310931 
L 415.294191 -46.08026 
L 417.268439 -45.858532 
L 419.242686 -45.654065 
L 421.216934 -45.475175 
L 423.191181 -45.330182 
L 425.165429 -45.227404 
L 427.139676 -45.175159 
L 429.113923 -45.179547 
L 431.088171 -45.233194 
L 433.062418 -45.328446 
L 435.036666 -45.458219 
L 437.010913 -45.615433 
L 438.985161 -45.793006 
L 440.959408 -45.983857 
L 442.933656 -46.180904 
L 444.907903 -46.377066 
L 446.882151 -46.565261 
L 448.856398 -46.738408 
L 450.830646 -46.889426 
L 452.804893 -47.011232 
L 454.779141 -47.096747 
L 456.753388 -47.138887 
L 458.727636 -47.136797 
L 460.701883 -47.108997 
L 462.676131 -47.059194 
L 464.650378 -46.989482 
L 466.624626 -46.901952 
L 468.598873 -46.798695 
L 470.573121 -46.681803 
L 472.547368 -46.553369 
L 474.521616 -46.415483 
L 476.495863 -46.270238 
L 478.470111 -46.119726 
L 480.444358 -45.966038 
L 482.418606 -45.811265 
L 484.392853 -45.6575 
L 486.367101 -45.506835 
L 488.341348 -45.349054 
L 490.315596 -45.15315 
L 492.289843 -44.924206 
L 494.264091 -44.669642 
L 496.238338 -44.396879 
L 498.212586 -44.11334 
L 500.186833 -43.826444 
L 502.161081 -43.543615 
L 504.135328 -43.272272 
L 506.109576 -43.019838 
L 508.083823 -42.793733 
L 510.058071 -42.601379 
L 512.032318 -42.450198 
L 514.006566 -42.347611 
L 515.980813 -42.301038 
L 517.955061 -42.307323 
L 519.929308 -42.34218 
L 521.903556 -42.400521 
L 523.877803 -42.478311 
L 525.852051 -42.571519 
L 527.826298 -42.676112 
L 529.800546 -42.788057 
L 531.774793 -42.903321 
L 533.749041 -43.017871 
L 535.723288 -43.127675 
L 537.697536 -43.228699 
L 539.671783 -43.316912 
L 541.646031 -43.388279 
L 543.620278 -43.438768 
L 545.594526 -43.464348 
L 547.568773 -43.470499 
L 549.54302 -43.475076 
L 551.517268 -43.478795 
L 553.491515 -43.481807 
L 555.465763 -43.484261 
L 557.44001 -43.486308 
L 559.414258 -43.488098 
L 561.388505 -43.489781 
L 563.362753 -43.491506 
L 565.337 -43.493426 
L 567.311248 -43.495688 
L 569.285495 -43.498444 
L 571.259743 -43.501844 
L 573.23399 -43.506037 
L 575.208238 -43.511175 
L 577.182485 -43.524301 
L 579.156733 -43.555822 
L 581.13098 -43.603094 
L 583.105228 -43.663247 
L 585.079475 -43.733412 
L 587.053723 -43.810719 
L 589.02797 -43.8923 
L 591.002218 -43.975285 
L 592.976465 -44.056803 
L 594.950713 -44.133987 
L 596.92496 -44.203966 
L 598.899208 -44.263872 
L 600.873455 -44.310834 
L 602.847703 -44.341983 
L 604.82195 -44.35445 
L 606.796198 -44.345636 
L 608.770445 -44.316462 
L 610.744693 -44.269694 
L 612.71894 -44.208103 
L 614.693188 -44.134461 
L 616.667435 -44.051542 
L 618.641683 -43.962117 
L 620.61593 -43.868958 
L 622.590178 -43.774837 
L 624.564425 -43.682527 
L 626.538673 -43.5948 
L 628.51292 -43.514428 
L 630.487168 -43.444182 
L 632.461415 -43.386836 
L 634.435663 -43.345161 
L 636.40991 -43.313255 
L 638.384158 -43.281775 
L 640.358405 -43.250966 
L 642.332653 -43.221092 
L 644.3069 -43.192421 
L 646.281148 -43.165217 
L 648.255395 -43.139748 
L 650.229643 -43.116278 
L 652.20389 -43.095075 
L 654.178138 -43.076404 
L 656.152385 -43.060531 
L 658.126633 -43.047722 
L 660.10088 -43.038244 
L 662.075128 -43.032362 
L 664.049375 -43.030342 
L 664.049375 -67.159337 
L 664.049375 -67.159337 
L 662.075128 -67.111577 
L 660.10088 -67.068644 
L 658.126633 -67.030348 
L 656.152385 -66.996503 
L 654.178138 -66.966921 
L 652.20389 -66.941413 
L 650.229643 -66.919793 
L 648.255395 -66.901871 
L 646.281148 -66.887461 
L 644.3069 -66.876375 
L 642.332653 -66.868425 
L 640.358405 -66.863423 
L 638.384158 -66.861182 
L 636.40991 -66.861513 
L 634.435663 -66.864256 
L 632.461415 -66.879968 
L 630.487168 -66.915022 
L 628.51292 -66.965937 
L 626.538673 -67.029233 
L 624.564425 -67.10143 
L 622.590178 -67.179048 
L 620.61593 -67.258606 
L 618.641683 -67.336625 
L 616.667435 -67.409624 
L 614.693188 -67.474124 
L 612.71894 -67.526643 
L 610.744693 -67.563702 
L 608.770445 -67.581821 
L 606.796198 -67.577519 
L 604.82195 -67.546457 
L 602.847703 -67.389946 
L 600.873455 -67.061542 
L 598.899208 -66.588582 
L 596.92496 -65.998401 
L 594.950713 -65.318339 
L 592.976465 -64.57573 
L 591.002218 -63.797912 
L 589.02797 -63.012222 
L 587.053723 -62.245996 
L 585.079475 -61.526572 
L 583.105228 -60.881286 
L 581.13098 -60.337475 
L 579.156733 -59.922477 
L 577.182485 -59.663626 
L 575.208238 -59.586299 
L 573.23399 -59.601315 
L 571.259743 -59.64495 
L 569.285495 -59.71268 
L 567.311248 -59.799977 
L 565.337 -59.902317 
L 563.362753 -60.015174 
L 561.388505 -60.134022 
L 559.414258 -60.254335 
L 557.44001 -60.371587 
L 555.465763 -60.481253 
L 553.491515 -60.578807 
L 551.517268 -60.659723 
L 549.54302 -60.719475 
L 547.568773 -60.753539 
L 545.594526 -60.753847 
L 543.620278 -60.606992 
L 541.646031 -60.28136 
L 539.671783 -59.805503 
L 537.697536 -59.207974 
L 535.723288 -58.517329 
L 533.749041 -57.762119 
L 531.774793 -56.970899 
L 529.800546 -56.172222 
L 527.826298 -55.394641 
L 525.852051 -54.666711 
L 523.877803 -54.016985 
L 521.903556 -53.474016 
L 519.929308 -53.066357 
L 517.955061 -52.822563 
L 515.980813 -52.766947 
L 514.006566 -52.824848 
L 512.032318 -52.952112 
L 510.058071 -53.139174 
L 508.083823 -53.376467 
L 506.109576 -53.654427 
L 504.135328 -53.963487 
L 502.161081 -54.294083 
L 500.186833 -54.636648 
L 498.212586 -54.981616 
L 496.238338 -55.319424 
L 494.264091 -55.640503 
L 492.289843 -55.93529 
L 490.315596 -56.194218 
L 488.341348 -56.407722 
L 486.367101 -56.568689 
L 484.392853 -56.708665 
L 482.418606 -56.839282 
L 480.444358 -56.959515 
L 478.470111 -57.06834 
L 476.495863 -57.164731 
L 474.521616 -57.247663 
L 472.547368 -57.316111 
L 470.573121 -57.36905 
L 468.598873 -57.405454 
L 466.624626 -57.424299 
L 464.650378 -57.42456 
L 462.676131 -57.405211 
L 460.701883 -57.365227 
L 458.727636 -57.303583 
L 456.753388 -57.215514 
L 454.779141 -57.059609 
L 452.804893 -56.834316 
L 450.830646 -56.551923 
L 448.856398 -56.224717 
L 446.882151 -55.864985 
L 444.907903 -55.485014 
L 442.933656 -55.097092 
L 440.959408 -54.713505 
L 438.985161 -54.34654 
L 437.010913 -54.008486 
L 435.036666 -53.711628 
L 433.062418 -53.468254 
L 431.088171 -53.290652 
L 429.113923 -53.191108 
L 427.139676 -53.179254 
L 425.165429 -53.235855 
L 423.191181 -53.347201 
L 421.216934 -53.504282 
L 419.242686 -53.698085 
L 417.268439 -53.919599 
L 415.294191 -54.159812 
L 413.319944 -54.409713 
L 411.345696 -54.660289 
L 409.371449 -54.90253 
L 407.397201 -55.127424 
L 405.422954 -55.325958 
L 403.448706 -55.489122 
L 401.474459 -55.607903 
L 399.500211 -55.67329 
L 397.525964 -55.66531 
L 395.551716 -55.5052 
L 393.577469 -55.197844 
L 391.603221 -54.766105 
L 389.628974 -54.23285 
L 387.654726 -53.620942 
L 385.680479 -52.953246 
L 383.706231 -52.252627 
L 381.731984 -51.54195 
L 379.757736 -50.844079 
L 377.783489 -50.181879 
L 375.809241 -49.578214 
L 373.834994 -49.05595 
L 371.860746 -48.63795 
L 369.886499 -48.34708 
L 367.912251 -48.186337 
L 365.938004 -48.050909 
L 363.963756 -47.922136 
L 361.989509 -47.800284 
L 360.015261 -47.685621 
L 358.041014 -47.578411 
L 356.066766 -47.478921 
L 354.092519 -47.387418 
L 352.118271 -47.304168 
L 350.144024 -47.229436 
L 348.169776 -47.16349 
L 346.195529 -47.106596 
L 344.221281 -47.059019 
L 342.247034 -47.021027 
L 340.272786 -46.992884 
L 338.298539 -46.973691 
L 336.324291 -46.957751 
L 334.350044 -46.94408 
L 332.375796 -46.932459 
L 330.401549 -46.922667 
L 328.427301 -46.914487 
L 326.453054 -46.907698 
L 324.478806 -46.902081 
L 322.504559 -46.897417 
L 320.530311 -46.893486 
L 318.556064 -46.89007 
L 316.581816 -46.886949 
L 314.607569 -46.883903 
L 312.633321 -46.880713 
L 310.659074 -46.877161 
L 308.684827 -46.874691 
L 306.710579 -46.879452 
L 304.736332 -46.890863 
L 302.762084 -46.907578 
L 300.787837 -46.928247 
L 298.813589 -46.951523 
L 296.839342 -46.976057 
L 294.865094 -47.0005 
L 292.890847 -47.023504 
L 290.916599 -47.043722 
L 288.942352 -47.059804 
L 286.968104 -47.070402 
L 284.993857 -47.074167 
L 283.019609 -47.069752 
L 281.045362 -47.055808 
L 279.071114 -47.01077 
L 277.096867 -46.870964 
L 275.122619 -46.644934 
L 273.148372 -46.347412 
L 271.174124 -45.993131 
L 269.199877 -45.596825 
L 267.225629 -45.173227 
L 265.251382 -44.737069 
L 263.277134 -44.303086 
L 261.302887 -43.88601 
L 259.328639 -43.500573 
L 257.354392 -43.16151 
L 255.380144 -42.883553 
L 253.405897 -42.681435 
L 251.431649 -42.56989 
L 249.457402 -42.537964 
L 247.483154 -42.518442 
L 245.508907 -42.505984 
L 243.534659 -42.499736 
L 241.560412 -42.498843 
L 239.586164 -42.502449 
L 237.611917 -42.509698 
L 235.637669 -42.519736 
L 233.663422 -42.531708 
L 231.689174 -42.544758 
L 229.714927 -42.558031 
L 227.740679 -42.570672 
L 225.766432 -42.581825 
L 223.792184 -42.590636 
L 221.817937 -42.596248 
L 219.843689 -42.599347 
L 217.869442 -42.60311 
L 215.895194 -42.607376 
L 213.920947 -42.611815 
L 211.946699 -42.616102 
L 209.972452 -42.619909 
L 207.998204 -42.622908 
L 206.023957 -42.624771 
L 204.049709 -42.625172 
L 202.075462 -42.623783 
L 200.101214 -42.620276 
L 198.126967 -42.614323 
L 196.152719 -42.605599 
L 194.178472 -42.593774 
L 192.204224 -42.578522 
L 190.229977 -42.561188 
L 188.25573 -42.544993 
L 186.281482 -42.529897 
L 184.307235 -42.515756 
L 182.332987 -42.502427 
L 180.35874 -42.489766 
L 178.384492 -42.47763 
L 176.410245 -42.465873 
L 174.435997 -42.454354 
L 172.46175 -42.442928 
L 170.487502 -42.431451 
L 168.513255 -42.41978 
L 166.539007 -42.407771 
L 164.56476 -42.39528 
L 162.590512 -42.382164 
L 160.616265 -42.365896 
L 158.642017 -42.342901 
L 156.66777 -42.31419 
L 154.693522 -42.280854 
L 152.719275 -42.243984 
L 150.745027 -42.204671 
L 148.77078 -42.164005 
L 146.796532 -42.123078 
L 144.822285 -42.08298 
L 142.848037 -42.044803 
L 140.87379 -42.009636 
L 138.899542 -41.978572 
L 136.925295 -41.9527 
L 134.951047 -41.933112 
L 132.9768 -41.920899 
L 131.002552 -41.914121 
L 129.028305 -41.908674 
L 127.054057 -41.904318 
L 125.07981 -41.900846 
L 123.105562 -41.898052 
L 121.131315 -41.89573 
L 119.157067 -41.893675 
L 117.18282 -41.89168 
L 115.208572 -41.889539 
L 113.234325 -41.887046 
L 111.260077 -41.883995 
L 109.28583 -41.88018 
L 107.311582 -41.875395 
L 105.337335 -41.869435 
L 103.363087 -41.862092 
L 101.38884 -41.842376 
L 99.414592 -41.798206 
L 97.440345 -41.731261 
L 95.466097 -41.643249 
L 93.49185 -41.535876 
L 91.517602 -41.410852 
L 89.543355 -41.269884 
L 87.569107 -41.114681 
L 85.59486 -40.94695 
L 83.620612 -40.768399 
L 81.646365 -40.580736 
L 79.672117 -40.38567 
L 77.69787 -40.184908 
L 75.723622 -39.980159 
L 73.749375 -39.77313 
z
" style="stroke: #1f77b4; stroke-opacity: 0.7"/>
    </defs>
    <g clip-path="url(#p5c36b871e4)">
     <use xlink:href="#m93aa08974f" x="0" y="424.005" style="fill: #1f77b4; fill-opacity: 0.7; stroke: #1f77b4; stroke-opacity: 0.7"/>
    </g>
   </g>
   <g id="FillBetweenPolyCollection_3">
    <defs>
     <path id="m0896714fe2" d="M 73.749375 -39.77313 
L 73.749375 -39.77313 
L 75.723622 -39.980159 
L 77.69787 -40.184908 
L 79.672117 -40.38567 
L 81.646365 -40.580736 
L 83.620612 -40.768399 
L 85.59486 -40.94695 
L 87.569107 -41.114681 
L 89.543355 -41.269884 
L 91.517602 -41.410852 
L 93.49185 -41.535876 
L 95.466097 -41.643249 
L 97.440345 -41.731261 
L 99.414592 -41.798206 
L 101.38884 -41.842376 
L 103.363087 -41.862092 
L 105.337335 -41.869435 
L 107.311582 -41.875395 
L 109.28583 -41.88018 
L 111.260077 -41.883995 
L 113.234325 -41.887046 
L 115.208572 -41.889539 
L 117.18282 -41.89168 
L 119.157067 -41.893675 
L 121.131315 -41.89573 
L 123.105562 -41.898052 
L 125.07981 -41.900846 
L 127.054057 -41.904318 
L 129.028305 -41.908674 
L 131.002552 -41.914121 
L 132.9768 -41.920899 
L 134.951047 -41.933112 
L 136.925295 -41.9527 
L 138.899542 -41.978572 
L 140.87379 -42.009636 
L 142.848037 -42.044803 
L 144.822285 -42.08298 
L 146.796532 -42.123078 
L 148.77078 -42.164005 
L 150.745027 -42.204671 
L 152.719275 -42.243984 
L 154.693522 -42.280854 
L 156.66777 -42.31419 
L 158.642017 -42.342901 
L 160.616265 -42.365896 
L 162.590512 -42.382164 
L 164.56476 -42.39528 
L 166.539007 -42.407771 
L 168.513255 -42.41978 
L 170.487502 -42.431451 
L 172.46175 -42.442928 
L 174.435997 -42.454354 
L 176.410245 -42.465873 
L 178.384492 -42.47763 
L 180.35874 -42.489766 
L 182.332987 -42.502427 
L 184.307235 -42.515756 
L 186.281482 -42.529897 
L 188.25573 -42.544993 
L 190.229977 -42.561188 
L 192.204224 -42.578522 
L 194.178472 -42.593774 
L 196.152719 -42.605599 
L 198.126967 -42.614323 
L 200.101214 -42.620276 
L 202.075462 -42.623783 
L 204.049709 -42.625172 
L 206.023957 -42.624771 
L 207.998204 -42.622908 
L 209.972452 -42.619909 
L 211.946699 -42.616102 
L 213.920947 -42.611815 
L 215.895194 -42.607376 
L 217.869442 -42.60311 
L 219.843689 -42.599347 
L 221.817937 -42.596248 
L 223.792184 -42.590636 
L 225.766432 -42.581825 
L 227.740679 -42.570672 
L 229.714927 -42.558031 
L 231.689174 -42.544758 
L 233.663422 -42.531708 
L 235.637669 -42.519736 
L 237.611917 -42.509698 
L 239.586164 -42.502449 
L 241.560412 -42.498843 
L 243.534659 -42.499736 
L 245.508907 -42.505984 
L 247.483154 -42.518442 
L 249.457402 -42.537964 
L 251.431649 -42.56989 
L 253.405897 -42.681435 
L 255.380144 -42.883553 
L 257.354392 -43.16151 
L 259.328639 -43.500573 
L 261.302887 -43.88601 
L 263.277134 -44.303086 
L 265.251382 -44.737069 
L 267.225629 -45.173227 
L 269.199877 -45.596825 
L 271.174124 -45.993131 
L 273.148372 -46.347412 
L 275.122619 -46.644934 
L 277.096867 -46.870964 
L 279.071114 -47.01077 
L 281.045362 -47.055808 
L 283.019609 -47.069752 
L 284.993857 -47.074167 
L 286.968104 -47.070402 
L 288.942352 -47.059804 
L 290.916599 -47.043722 
L 292.890847 -47.023504 
L 294.865094 -47.0005 
L 296.839342 -46.976057 
L 298.813589 -46.951523 
L 300.787837 -46.928247 
L 302.762084 -46.907578 
L 304.736332 -46.890863 
L 306.710579 -46.879452 
L 308.684827 -46.874691 
L 310.659074 -46.877161 
L 312.633321 -46.880713 
L 314.607569 -46.883903 
L 316.581816 -46.886949 
L 318.556064 -46.89007 
L 320.530311 -46.893486 
L 322.504559 -46.897417 
L 324.478806 -46.902081 
L 326.453054 -46.907698 
L 328.427301 -46.914487 
L 330.401549 -46.922667 
L 332.375796 -46.932459 
L 334.350044 -46.94408 
L 336.324291 -46.957751 
L 338.298539 -46.973691 
L 340.272786 -46.992884 
L 342.247034 -47.021027 
L 344.221281 -47.059019 
L 346.195529 -47.106596 
L 348.169776 -47.16349 
L 350.144024 -47.229436 
L 352.118271 -47.304168 
L 354.092519 -47.387418 
L 356.066766 -47.478921 
L 358.041014 -47.578411 
L 360.015261 -47.685621 
L 361.989509 -47.800284 
L 363.963756 -47.922136 
L 365.938004 -48.050909 
L 367.912251 -48.186337 
L 369.886499 -48.34708 
L 371.860746 -48.63795 
L 373.834994 -49.05595 
L 375.809241 -49.578214 
L 377.783489 -50.181879 
L 379.757736 -50.844079 
L 381.731984 -51.54195 
L 383.706231 -52.252627 
L 385.680479 -52.953246 
L 387.654726 -53.620942 
L 389.628974 -54.23285 
L 391.603221 -54.766105 
L 393.577469 -55.197844 
L 395.551716 -55.5052 
L 397.525964 -55.66531 
L 399.500211 -55.67329 
L 401.474459 -55.607903 
L 403.448706 -55.489122 
L 405.422954 -55.325958 
L 407.397201 -55.127424 
L 409.371449 -54.90253 
L 411.345696 -54.660289 
L 413.319944 -54.409713 
L 415.294191 -54.159812 
L 417.268439 -53.919599 
L 419.242686 -53.698085 
L 421.216934 -53.504282 
L 423.191181 -53.347201 
L 425.165429 -53.235855 
L 427.139676 -53.179254 
L 429.113923 -53.191108 
L 431.088171 -53.290652 
L 433.062418 -53.468254 
L 435.036666 -53.711628 
L 437.010913 -54.008486 
L 438.985161 -54.34654 
L 440.959408 -54.713505 
L 442.933656 -55.097092 
L 444.907903 -55.485014 
L 446.882151 -55.864985 
L 448.856398 -56.224717 
L 450.830646 -56.551923 
L 452.804893 -56.834316 
L 454.779141 -57.059609 
L 456.753388 -57.215514 
L 458.727636 -57.303583 
L 460.701883 -57.365227 
L 462.676131 -57.405211 
L 464.650378 -57.42456 
L 466.624626 -57.424299 
L 468.598873 -57.405454 
L 470.573121 -57.36905 
L 472.547368 -57.316111 
L 474.521616 -57.247663 
L 476.495863 -57.164731 
L 478.470111 -57.06834 
L 480.444358 -56.959515 
L 482.418606 -56.839282 
L 484.392853 -56.708665 
L 486.367101 -56.568689 
L 488.341348 -56.407722 
L 490.315596 -56.194218 
L 492.289843 -55.93529 
L 494.264091 -55.640503 
L 496.238338 -55.319424 
L 498.212586 -54.981616 
L 500.186833 -54.636648 
L 502.161081 -54.294083 
L 504.135328 -53.963487 
L 506.109576 -53.654427 
L 508.083823 -53.376467 
L 510.058071 -53.139174 
L 512.032318 -52.952112 
L 514.006566 -52.824848 
L 515.980813 -52.766947 
L 517.955061 -52.822563 
L 519.929308 -53.066357 
L 521.903556 -53.474016 
L 523.877803 -54.016985 
L 525.852051 -54.666711 
L 527.826298 -55.394641 
L 529.800546 -56.172222 
L 531.774793 -56.970899 
L 533.749041 -57.762119 
L 535.723288 -58.517329 
L 537.697536 -59.207974 
L 539.671783 -59.805503 
L 541.646031 -60.28136 
L 543.620278 -60.606992 
L 545.594526 -60.753847 
L 547.568773 -60.753539 
L 549.54302 -60.719475 
L 551.517268 -60.659723 
L 553.491515 -60.578807 
L 555.465763 -60.481253 
L 557.44001 -60.371587 
L 559.414258 -60.254335 
L 561.388505 -60.134022 
L 563.362753 -60.015174 
L 565.337 -59.902317 
L 567.311248 -59.799977 
L 569.285495 -59.71268 
L 571.259743 -59.64495 
L 573.23399 -59.601315 
L 575.208238 -59.586299 
L 577.182485 -59.663626 
L 579.156733 -59.922477 
L 581.13098 -60.337475 
L 583.105228 -60.881286 
L 585.079475 -61.526572 
L 587.053723 -62.245996 
L 589.02797 -63.012222 
L 591.002218 -63.797912 
L 592.976465 -64.57573 
L 594.950713 -65.318339 
L 596.92496 -65.998401 
L 598.899208 -66.588582 
L 600.873455 -67.061542 
L 602.847703 -67.389946 
L 604.82195 -67.546457 
L 606.796198 -67.577519 
L 608.770445 -67.581821 
L 610.744693 -67.563702 
L 612.71894 -67.526643 
L 614.693188 -67.474124 
L 616.667435 -67.409624 
L 618.641683 -67.336625 
L 620.61593 -67.258606 
L 622.590178 -67.179048 
L 624.564425 -67.10143 
L 626.538673 -67.029233 
L 628.51292 -66.965937 
L 630.487168 -66.915022 
L 632.461415 -66.879968 
L 634.435663 -66.864256 
L 636.40991 -66.861513 
L 638.384158 -66.861182 
L 640.358405 -66.863423 
L 642.332653 -66.868425 
L 644.3069 -66.876375 
L 646.281148 -66.887461 
L 648.255395 -66.901871 
L 650.229643 -66.919793 
L 652.20389 -66.941413 
L 654.178138 -66.966921 
L 656.152385 -66.996503 
L 658.126633 -67.030348 
L 660.10088 -67.068644 
L 662.075128 -67.111577 
L 664.049375 -67.159337 
L 664.049375 -67.225444 
L 664.049375 -67.225444 
L 662.075128 -67.17763 
L 660.10088 -67.134537 
L 658.126633 -67.095981 
L 656.152385 -67.06178 
L 654.178138 -67.031751 
L 652.20389 -67.005712 
L 650.229643 -66.983479 
L 648.255395 -66.96487 
L 646.281148 -66.949701 
L 644.3069 -66.937791 
L 642.332653 -66.928956 
L 640.358405 -66.923014 
L 638.384158 -66.919782 
L 636.40991 -66.919076 
L 634.435663 -66.920739 
L 632.461415 -66.934716 
L 630.487168 -66.966993 
L 628.51292 -67.014261 
L 626.538673 -67.073216 
L 624.564425 -67.14055 
L 622.590178 -67.212956 
L 620.61593 -67.287129 
L 618.641683 -67.359762 
L 616.667435 -67.427549 
L 614.693188 -67.487182 
L 612.71894 -67.535355 
L 610.744693 -67.568763 
L 608.770445 -67.584098 
L 606.796198 -67.578053 
L 604.82195 -67.546457 
L 602.847703 -67.389946 
L 600.873455 -67.061542 
L 598.899208 -66.588582 
L 596.92496 -65.998401 
L 594.950713 -65.318339 
L 592.976465 -64.57573 
L 591.002218 -63.797912 
L 589.02797 -63.012222 
L 587.053723 -62.245996 
L 585.079475 -61.526572 
L 583.105228 -60.881286 
L 581.13098 -60.337475 
L 579.156733 -59.922477 
L 577.182485 -59.663626 
L 575.208238 -59.58631 
L 573.23399 -59.601958 
L 571.259743 -59.647092 
L 569.285495 -59.71705 
L 567.311248 -59.807169 
L 565.337 -59.912787 
L 563.362753 -60.02924 
L 561.388505 -60.151865 
L 559.414258 -60.276 
L 557.44001 -60.396982 
L 555.465763 -60.510149 
L 553.491515 -60.610836 
L 551.517268 -60.694382 
L 549.54302 -60.756123 
L 547.568773 -60.791397 
L 545.594526 -60.792001 
L 543.620278 -60.644469 
L 541.646031 -60.317298 
L 539.671783 -59.839179 
L 537.697536 -59.238803 
L 535.723288 -58.544861 
L 533.749041 -57.786043 
L 531.774793 -56.991039 
L 529.800546 -56.188541 
L 527.826298 -55.407239 
L 525.852051 -54.675824 
L 523.877803 -54.022986 
L 521.903556 -53.477415 
L 519.929308 -53.067804 
L 517.955061 -52.822842 
L 515.980813 -52.766947 
L 514.006566 -52.824848 
L 512.032318 -52.952112 
L 510.058071 -53.139174 
L 508.083823 -53.376467 
L 506.109576 -53.654427 
L 504.135328 -53.963487 
L 502.161081 -54.294083 
L 500.186833 -54.636648 
L 498.212586 -54.981616 
L 496.238338 -55.319424 
L 494.264091 -55.640503 
L 492.289843 -55.93529 
L 490.315596 -56.194218 
L 488.341348 -56.407722 
L 486.367101 -56.568774 
L 484.392853 -56.710189 
L 482.418606 -56.843827 
L 480.444358 -56.968406 
L 478.470111 -57.082646 
L 476.495863 -57.185266 
L 474.521616 -57.274983 
L 472.547368 -57.350518 
L 470.573121 -57.410588 
L 468.598873 -57.453913 
L 466.624626 -57.479211 
L 464.650378 -57.4852 
L 462.676131 -57.470601 
L 460.701883 -57.434131 
L 458.727636 -57.374509 
L 456.753388 -57.286717 
L 454.779141 -57.129287 
L 452.804893 -56.900902 
L 450.830646 -56.614103 
L 448.856398 -56.281435 
L 446.882151 -55.91544 
L 444.907903 -55.528663 
L 442.933656 -55.133645 
L 440.959408 -54.742931 
L 438.985161 -54.369064 
L 437.010913 -54.024587 
L 435.036666 -53.722043 
L 433.062418 -53.473975 
L 431.088171 -53.292928 
L 429.113923 -53.191443 
L 427.139676 -53.179254 
L 425.165429 -53.235855 
L 423.191181 -53.347201 
L 421.216934 -53.504282 
L 419.242686 -53.698085 
L 417.268439 -53.919599 
L 415.294191 -54.159812 
L 413.319944 -54.409713 
L 411.345696 -54.660289 
L 409.371449 -54.90253 
L 407.397201 -55.127424 
L 405.422954 -55.325958 
L 403.448706 -55.489122 
L 401.474459 -55.607903 
L 399.500211 -55.67329 
L 397.525964 -55.66531 
L 395.551716 -55.5052 
L 393.577469 -55.197844 
L 391.603221 -54.766105 
L 389.628974 -54.23285 
L 387.654726 -53.620942 
L 385.680479 -52.953246 
L 383.706231 -52.252627 
L 381.731984 -51.54195 
L 379.757736 -50.844079 
L 377.783489 -50.181879 
L 375.809241 -49.578214 
L 373.834994 -49.05595 
L 371.860746 -48.63795 
L 369.886499 -48.34708 
L 367.912251 -48.186337 
L 365.938004 -48.050909 
L 363.963756 -47.922136 
L 361.989509 -47.800284 
L 360.015261 -47.685621 
L 358.041014 -47.578411 
L 356.066766 -47.478921 
L 354.092519 -47.387418 
L 352.118271 -47.304168 
L 350.144024 -47.229436 
L 348.169776 -47.16349 
L 346.195529 -47.106596 
L 344.221281 -47.059019 
L 342.247034 -47.021027 
L 340.272786 -46.992884 
L 338.298539 -46.973691 
L 336.324291 -46.957751 
L 334.350044 -46.94408 
L 332.375796 -46.932459 
L 330.401549 -46.922667 
L 328.427301 -46.914487 
L 326.453054 -46.907698 
L 324.478806 -46.902081 
L 322.504559 -46.897417 
L 320.530311 -46.893486 
L 318.556064 -46.89007 
L 316.581816 -46.886949 
L 314.607569 -46.883903 
L 312.633321 -46.880713 
L 310.659074 -46.877161 
L 308.684827 -46.874691 
L 306.710579 -46.879452 
L 304.736332 -46.890863 
L 302.762084 -46.907578 
L 300.787837 -46.928247 
L 298.813589 -46.951523 
L 296.839342 -46.976057 
L 294.865094 -47.0005 
L 292.890847 -47.023504 
L 290.916599 -47.043722 
L 288.942352 -47.059804 
L 286.968104 -47.070402 
L 284.993857 -47.074167 
L 283.019609 -47.069752 
L 281.045362 -47.055808 
L 279.071114 -47.011022 
L 277.096867 -46.87251 
L 275.122619 -46.648729 
L 273.148372 -46.354249 
L 271.174124 -46.003636 
L 269.199877 -45.611462 
L 267.225629 -45.192295 
L 265.251382 -44.760704 
L 263.277134 -44.331258 
L 261.302887 -43.918527 
L 259.328639 -43.537079 
L 257.354392 -43.201483 
L 255.380144 -42.926309 
L 253.405897 -42.726125 
L 251.431649 -42.615502 
L 249.457402 -42.583523 
L 247.483154 -42.5635 
L 245.508907 -42.550172 
L 243.534659 -42.542733 
L 241.560412 -42.540371 
L 239.586164 -42.542279 
L 237.611917 -42.547647 
L 235.637669 -42.555665 
L 233.663422 -42.565526 
L 231.689174 -42.57642 
L 229.714927 -42.587538 
L 227.740679 -42.598071 
L 225.766432 -42.60721 
L 223.792184 -42.614146 
L 221.817937 -42.618069 
L 219.843689 -42.619595 
L 217.869442 -42.621656 
L 215.895194 -42.624113 
L 213.920947 -42.626677 
L 211.946699 -42.629055 
L 209.972452 -42.630956 
L 207.998204 -42.632089 
L 206.023957 -42.632161 
L 204.049709 -42.630883 
L 202.075462 -42.627963 
L 200.101214 -42.623109 
L 198.126967 -42.61603 
L 196.152719 -42.606435 
L 194.178472 -42.594032 
L 192.204224 -42.578529 
L 190.229977 -42.561188 
L 188.25573 -42.544993 
L 186.281482 -42.529897 
L 184.307235 -42.515756 
L 182.332987 -42.502427 
L 180.35874 -42.489766 
L 178.384492 -42.47763 
L 176.410245 -42.465873 
L 174.435997 -42.454354 
L 172.46175 -42.442928 
L 170.487502 -42.431451 
L 168.513255 -42.41978 
L 166.539007 -42.407771 
L 164.56476 -42.39528 
L 162.590512 -42.382164 
L 160.616265 -42.365896 
L 158.642017 -42.342901 
L 156.66777 -42.31419 
L 154.693522 -42.280854 
L 152.719275 -42.243984 
L 150.745027 -42.204671 
L 148.77078 -42.164005 
L 146.796532 -42.123078 
L 144.822285 -42.08298 
L 142.848037 -42.044803 
L 140.87379 -42.009636 
L 138.899542 -41.978572 
L 136.925295 -41.9527 
L 134.951047 -41.933112 
L 132.9768 -41.920899 
L 131.002552 -41.914121 
L 129.028305 -41.908674 
L 127.054057 -41.904318 
L 125.07981 -41.900846 
L 123.105562 -41.898052 
L 121.131315 -41.89573 
L 119.157067 -41.893675 
L 117.18282 -41.89168 
L 115.208572 -41.889539 
L 113.234325 -41.887046 
L 111.260077 -41.883995 
L 109.28583 -41.88018 
L 107.311582 -41.875395 
L 105.337335 -41.869435 
L 103.363087 -41.862092 
L 101.38884 -41.842376 
L 99.414592 -41.798206 
L 97.440345 -41.731261 
L 95.466097 -41.643249 
L 93.49185 -41.535876 
L 91.517602 -41.410852 
L 89.543355 -41.269884 
L 87.569107 -41.114681 
L 85.59486 -40.94695 
L 83.620612 -40.768399 
L 81.646365 -40.580736 
L 79.672117 -40.38567 
L 77.69787 -40.184908 
L 75.723622 -39.980159 
L 73.749375 -39.77313 
z
" style="stroke: #2ca02c; stroke-opacity: 0.7"/>
    </defs>
    <g clip-path="url(#p5c36b871e4)">
     <use xlink:href="#m0896714fe2" x="0" y="424.005" style="fill: #2ca02c; fill-opacity: 0.7; stroke: #2ca02c; stroke-opacity: 0.7"/>
    </g>
   </g>
   <g id="FillBetweenPolyCollection_4">
    <defs>
     <path id="m5f6be915d1" d="M 73.749375 -39.77313 
L 73.749375 -39.77313 
L 75.723622 -39.980159 
L 77.69787 -40.184908 
L 79.672117 -40.38567 
L 81.646365 -40.580736 
L 83.620612 -40.768399 
L 85.59486 -40.94695 
L 87.569107 -41.114681 
L 89.543355 -41.269884 
L 91.517602 -41.410852 
L 93.49185 -41.535876 
L 95.466097 -41.643249 
L 97.440345 -41.731261 
L 99.414592 -41.798206 
L 101.38884 -41.842376 
L 103.363087 -41.862092 
L 105.337335 -41.869435 
L 107.311582 -41.875395 
L 109.28583 -41.88018 
L 111.260077 -41.883995 
L 113.234325 -41.887046 
L 115.208572 -41.889539 
L 117.18282 -41.89168 
L 119.157067 -41.893675 
L 121.131315 -41.89573 
L 123.105562 -41.898052 
L 125.07981 -41.900846 
L 127.054057 -41.904318 
L 129.028305 -41.908674 
L 131.002552 -41.914121 
L 132.9768 -41.920899 
L 134.951047 -41.933112 
L 136.925295 -41.9527 
L 138.899542 -41.978572 
L 140.87379 -42.009636 
L 142.848037 -42.044803 
L 144.822285 -42.08298 
L 146.796532 -42.123078 
L 148.77078 -42.164005 
L 150.745027 -42.204671 
L 152.719275 -42.243984 
L 154.693522 -42.280854 
L 156.66777 -42.31419 
L 158.642017 -42.342901 
L 160.616265 -42.365896 
L 162.590512 -42.382164 
L 164.56476 -42.39528 
L 166.539007 -42.407771 
L 168.513255 -42.41978 
L 170.487502 -42.431451 
L 172.46175 -42.442928 
L 174.435997 -42.454354 
L 176.410245 -42.465873 
L 178.384492 -42.47763 
L 180.35874 -42.489766 
L 182.332987 -42.502427 
L 184.307235 -42.515756 
L 186.281482 -42.529897 
L 188.25573 -42.544993 
L 190.229977 -42.561188 
L 192.204224 -42.578529 
L 194.178472 -42.594032 
L 196.152719 -42.606435 
L 198.126967 -42.61603 
L 200.101214 -42.623109 
L 202.075462 -42.627963 
L 204.049709 -42.630883 
L 206.023957 -42.632161 
L 207.998204 -42.632089 
L 209.972452 -42.630956 
L 211.946699 -42.629055 
L 213.920947 -42.626677 
L 215.895194 -42.624113 
L 217.869442 -42.621656 
L 219.843689 -42.619595 
L 221.817937 -42.618069 
L 223.792184 -42.614146 
L 225.766432 -42.60721 
L 227.740679 -42.598071 
L 229.714927 -42.587538 
L 231.689174 -42.57642 
L 233.663422 -42.565526 
L 235.637669 -42.555665 
L 237.611917 -42.547647 
L 239.586164 -42.542279 
L 241.560412 -42.540371 
L 243.534659 -42.542733 
L 245.508907 -42.550172 
L 247.483154 -42.5635 
L 249.457402 -42.583523 
L 251.431649 -42.615502 
L 253.405897 -42.726125 
L 255.380144 -42.926309 
L 257.354392 -43.201483 
L 259.328639 -43.537079 
L 261.302887 -43.918527 
L 263.277134 -44.331258 
L 265.251382 -44.760704 
L 267.225629 -45.192295 
L 269.199877 -45.611462 
L 271.174124 -46.003636 
L 273.148372 -46.354249 
L 275.122619 -46.648729 
L 277.096867 -46.87251 
L 279.071114 -47.011022 
L 281.045362 -47.055808 
L 283.019609 -47.069752 
L 284.993857 -47.074167 
L 286.968104 -47.070402 
L 288.942352 -47.059804 
L 290.916599 -47.043722 
L 292.890847 -47.023504 
L 294.865094 -47.0005 
L 296.839342 -46.976057 
L 298.813589 -46.951523 
L 300.787837 -46.928247 
L 302.762084 -46.907578 
L 304.736332 -46.890863 
L 306.710579 -46.879452 
L 308.684827 -46.874691 
L 310.659074 -46.877161 
L 312.633321 -46.880713 
L 314.607569 -46.883903 
L 316.581816 -46.886949 
L 318.556064 -46.89007 
L 320.530311 -46.893486 
L 322.504559 -46.897417 
L 324.478806 -46.902081 
L 326.453054 -46.907698 
L 328.427301 -46.914487 
L 330.401549 -46.922667 
L 332.375796 -46.932459 
L 334.350044 -46.94408 
L 336.324291 -46.957751 
L 338.298539 -46.973691 
L 340.272786 -46.992884 
L 342.247034 -47.021027 
L 344.221281 -47.059019 
L 346.195529 -47.106596 
L 348.169776 -47.16349 
L 350.144024 -47.229436 
L 352.118271 -47.304168 
L 354.092519 -47.387418 
L 356.066766 -47.478921 
L 358.041014 -47.578411 
L 360.015261 -47.685621 
L 361.989509 -47.800284 
L 363.963756 -47.922136 
L 365.938004 -48.050909 
L 367.912251 -48.186337 
L 369.886499 -48.34708 
L 371.860746 -48.63795 
L 373.834994 -49.05595 
L 375.809241 -49.578214 
L 377.783489 -50.181879 
L 379.757736 -50.844079 
L 381.731984 -51.54195 
L 383.706231 -52.252627 
L 385.680479 -52.953246 
L 387.654726 -53.620942 
L 389.628974 -54.23285 
L 391.603221 -54.766105 
L 393.577469 -55.197844 
L 395.551716 -55.5052 
L 397.525964 -55.66531 
L 399.500211 -55.67329 
L 401.474459 -55.607903 
L 403.448706 -55.489122 
L 405.422954 -55.325958 
L 407.397201 -55.127424 
L 409.371449 -54.90253 
L 411.345696 -54.660289 
L 413.319944 -54.409713 
L 415.294191 -54.159812 
L 417.268439 -53.919599 
L 419.242686 -53.698085 
L 421.216934 -53.504282 
L 423.191181 -53.347201 
L 425.165429 -53.235855 
L 427.139676 -53.179254 
L 429.113923 -53.191443 
L 431.088171 -53.292928 
L 433.062418 -53.473975 
L 435.036666 -53.722043 
L 437.010913 -54.024587 
L 438.985161 -54.369064 
L 440.959408 -54.742931 
L 442.933656 -55.133645 
L 444.907903 -55.528663 
L 446.882151 -55.91544 
L 448.856398 -56.281435 
L 450.830646 -56.614103 
L 452.804893 -56.900902 
L 454.779141 -57.129287 
L 456.753388 -57.286717 
L 458.727636 -57.374509 
L 460.701883 -57.434131 
L 462.676131 -57.470601 
L 464.650378 -57.4852 
L 466.624626 -57.479211 
L 468.598873 -57.453913 
L 470.573121 -57.410588 
L 472.547368 -57.350518 
L 474.521616 -57.274983 
L 476.495863 -57.185266 
L 478.470111 -57.082646 
L 480.444358 -56.968406 
L 482.418606 -56.843827 
L 484.392853 -56.710189 
L 486.367101 -56.568774 
L 488.341348 -56.407722 
L 490.315596 -56.194218 
L 492.289843 -55.93529 
L 494.264091 -55.640503 
L 496.238338 -55.319424 
L 498.212586 -54.981616 
L 500.186833 -54.636648 
L 502.161081 -54.294083 
L 504.135328 -53.963487 
L 506.109576 -53.654427 
L 508.083823 -53.376467 
L 510.058071 -53.139174 
L 512.032318 -52.952112 
L 514.006566 -52.824848 
L 515.980813 -52.766947 
L 517.955061 -52.822842 
L 519.929308 -53.067804 
L 521.903556 -53.477415 
L 523.877803 -54.022986 
L 525.852051 -54.675824 
L 527.826298 -55.407239 
L 529.800546 -56.188541 
L 531.774793 -56.991039 
L 533.749041 -57.786043 
L 535.723288 -58.544861 
L 537.697536 -59.238803 
L 539.671783 -59.839179 
L 541.646031 -60.317298 
L 543.620278 -60.644469 
L 545.594526 -60.792001 
L 547.568773 -60.791397 
L 549.54302 -60.756123 
L 551.517268 -60.694382 
L 553.491515 -60.610836 
L 555.465763 -60.510149 
L 557.44001 -60.396982 
L 559.414258 -60.276 
L 561.388505 -60.151865 
L 563.362753 -60.02924 
L 565.337 -59.912787 
L 567.311248 -59.807169 
L 569.285495 -59.71705 
L 571.259743 -59.647092 
L 573.23399 -59.601958 
L 575.208238 -59.58631 
L 577.182485 -59.663626 
L 579.156733 -59.922477 
L 581.13098 -60.337475 
L 583.105228 -60.881286 
L 585.079475 -61.526572 
L 587.053723 -62.245996 
L 589.02797 -63.012222 
L 591.002218 -63.797912 
L 592.976465 -64.57573 
L 594.950713 -65.318339 
L 596.92496 -65.998401 
L 598.899208 -66.588582 
L 600.873455 -67.061542 
L 602.847703 -67.389946 
L 604.82195 -67.546457 
L 606.796198 -67.578053 
L 608.770445 -67.584098 
L 610.744693 -67.568763 
L 612.71894 -67.535355 
L 614.693188 -67.487182 
L 616.667435 -67.427549 
L 618.641683 -67.359762 
L 620.61593 -67.287129 
L 622.590178 -67.212956 
L 624.564425 -67.14055 
L 626.538673 -67.073216 
L 628.51292 -67.014261 
L 630.487168 -66.966993 
L 632.461415 -66.934716 
L 634.435663 -66.920739 
L 636.40991 -66.919076 
L 638.384158 -66.919782 
L 640.358405 -66.923014 
L 642.332653 -66.928956 
L 644.3069 -66.937791 
L 646.281148 -66.949701 
L 648.255395 -66.96487 
L 650.229643 -66.983479 
L 652.20389 -67.005712 
L 654.178138 -67.031751 
L 656.152385 -67.06178 
L 658.126633 -67.095981 
L 660.10088 -67.134537 
L 662.075128 -67.17763 
L 664.049375 -67.225444 
L 664.049375 -67.622085 
L 664.049375 -67.622085 
L 662.075128 -67.574109 
L 660.10088 -67.530875 
L 658.126633 -67.4922 
L 656.152385 -67.457897 
L 654.178138 -67.427784 
L 652.20389 -67.401675 
L 650.229643 -67.379387 
L 648.255395 -67.360734 
L 646.281148 -67.345534 
L 644.3069 -67.3336 
L 642.332653 -67.32475 
L 640.358405 -67.318798 
L 638.384158 -67.315561 
L 636.40991 -67.314854 
L 634.435663 -67.316533 
L 632.461415 -67.337416 
L 630.487168 -67.387922 
L 628.51292 -67.46298 
L 626.538673 -67.557523 
L 624.564425 -67.666482 
L 622.590178 -67.784787 
L 620.61593 -67.90737 
L 618.641683 -68.029162 
L 616.667435 -68.145094 
L 614.693188 -68.250098 
L 612.71894 -68.339103 
L 610.744693 -68.407042 
L 608.770445 -68.448845 
L 606.796198 -68.459443 
L 604.82195 -68.432944 
L 602.847703 -68.273643 
L 600.873455 -67.938194 
L 598.899208 -67.45447 
L 596.92496 -66.850347 
L 594.950713 -66.153701 
L 592.976465 -65.392408 
L 591.002218 -64.594342 
L 589.02797 -63.787379 
L 587.053723 -62.999395 
L 585.079475 -62.258264 
L 583.105228 -61.591862 
L 581.13098 -61.028065 
L 579.156733 -60.594748 
L 577.182485 -60.319786 
L 575.208238 -60.229063 
L 573.23399 -60.232218 
L 571.259743 -60.264667 
L 569.285495 -60.32188 
L 567.311248 -60.399328 
L 565.337 -60.492481 
L 563.362753 -60.59681 
L 561.388505 -60.707786 
L 559.414258 -60.820879 
L 557.44001 -60.931559 
L 555.465763 -61.035298 
L 553.491515 -61.127565 
L 551.517268 -61.203831 
L 549.54302 -61.259567 
L 547.568773 -61.290243 
L 545.594526 -61.287759 
L 543.620278 -61.137722 
L 541.646031 -60.808154 
L 539.671783 -60.327756 
L 537.697536 -59.725229 
L 535.723288 -59.029274 
L 533.749041 -58.268592 
L 531.774793 -57.471884 
L 529.800546 -56.667851 
L 527.826298 -55.885193 
L 525.852051 -55.152612 
L 523.877803 -54.498808 
L 521.903556 -53.952483 
L 519.929308 -53.542337 
L 517.955061 -53.297072 
L 515.980813 -53.241122 
L 514.006566 -53.299347 
L 512.032318 -53.427316 
L 510.058071 -53.615404 
L 508.083823 -53.853982 
L 506.109576 -54.133424 
L 504.135328 -54.444103 
L 502.161081 -54.776393 
L 500.186833 -55.120665 
L 498.212586 -55.467294 
L 496.238338 -55.806652 
L 494.264091 -56.129113 
L 492.289843 -56.42505 
L 490.315596 -56.684835 
L 488.341348 -56.898842 
L 486.367101 -57.05984 
L 484.392853 -57.198482 
L 482.418606 -57.326276 
L 480.444358 -57.442403 
L 478.470111 -57.546045 
L 476.495863 -57.636386 
L 474.521616 -57.712608 
L 472.547368 -57.773892 
L 470.573121 -57.819422 
L 468.598873 -57.84838 
L 466.624626 -57.859948 
L 464.650378 -57.853308 
L 462.676131 -57.827643 
L 460.701883 -57.782136 
L 458.727636 -57.715968 
L 456.753388 -57.624389 
L 454.779141 -57.463921 
L 452.804893 -57.232612 
L 450.830646 -56.943021 
L 448.856398 -56.607708 
L 446.882151 -56.239229 
L 444.907903 -55.850145 
L 442.933656 -55.453012 
L 440.959408 -55.06039 
L 438.985161 -54.684838 
L 437.010913 -54.338913 
L 435.036666 -54.035174 
L 433.062418 -53.78618 
L 431.088171 -53.604489 
L 429.113923 -53.502659 
L 427.139676 -53.490569 
L 425.165429 -53.548849 
L 423.191181 -53.663498 
L 421.216934 -53.825238 
L 419.242686 -54.024789 
L 417.268439 -54.252873 
L 415.294191 -54.500212 
L 413.319944 -54.757524 
L 411.345696 -55.015533 
L 409.371449 -55.264959 
L 407.397201 -55.496523 
L 405.422954 -55.700946 
L 403.448706 -55.868949 
L 401.474459 -55.991253 
L 399.500211 -56.05858 
L 397.525964 -56.050121 
L 395.551716 -55.883119 
L 393.577469 -55.562588 
L 391.603221 -55.112433 
L 389.628974 -54.556564 
L 387.654726 -53.918888 
L 385.680479 -53.223312 
L 383.706231 -52.493744 
L 381.731984 -51.754091 
L 379.757736 -51.028261 
L 377.783489 -50.340162 
L 375.809241 -49.713701 
L 373.834994 -49.172786 
L 371.860746 -48.741324 
L 369.886499 -48.443224 
L 367.912251 -48.282193 
L 365.938004 -48.151813 
L 363.963756 -48.032438 
L 361.989509 -47.923607 
L 360.015261 -47.824858 
L 358.041014 -47.735729 
L 356.066766 -47.655758 
L 354.092519 -47.584484 
L 352.118271 -47.521444 
L 350.144024 -47.466177 
L 348.169776 -47.41822 
L 346.195529 -47.377113 
L 344.221281 -47.342393 
L 342.247034 -47.313599 
L 340.272786 -47.290268 
L 338.298539 -47.270879 
L 336.324291 -47.250099 
L 334.350044 -47.227635 
L 332.375796 -47.203934 
L 330.401549 -47.179446 
L 328.427301 -47.154616 
L 326.453054 -47.129895 
L 324.478806 -47.105728 
L 322.504559 -47.082564 
L 320.530311 -47.060851 
L 318.556064 -47.041036 
L 316.581816 -47.023568 
L 314.607569 -47.008894 
L 312.633321 -46.997461 
L 310.659074 -46.989719 
L 308.684827 -46.987038 
L 306.710579 -46.99284 
L 304.736332 -47.006103 
L 302.762084 -47.025339 
L 300.787837 -47.049063 
L 298.813589 -47.07579 
L 296.839342 -47.104032 
L 294.865094 -47.132304 
L 292.890847 -47.15912 
L 290.916599 -47.182995 
L 288.942352 -47.202441 
L 286.968104 -47.215974 
L 284.993857 -47.222106 
L 283.019609 -47.219353 
L 281.045362 -47.206228 
L 279.071114 -47.161462 
L 277.096867 -47.022736 
L 275.122619 -46.79857 
L 273.148372 -46.503548 
L 271.174124 -46.152254 
L 269.199877 -45.759272 
L 267.225629 -45.339187 
L 265.251382 -44.906582 
L 263.277134 -44.476042 
L 261.302887 -44.06215 
L 259.328639 -43.679492 
L 257.354392 -43.342651 
L 255.380144 -43.066212 
L 253.405897 -42.864758 
L 251.431649 -42.752874 
L 249.457402 -42.719541 
L 247.483154 -42.697769 
L 245.508907 -42.682351 
L 243.534659 -42.67255 
L 241.560412 -42.667633 
L 239.586164 -42.666863 
L 237.611917 -42.669505 
L 235.637669 -42.674825 
L 233.663422 -42.682086 
L 231.689174 -42.690553 
L 229.714927 -42.699492 
L 227.740679 -42.708167 
L 225.766432 -42.715843 
L 223.792184 -42.721784 
L 221.817937 -42.725255 
L 219.843689 -42.727579 
L 217.869442 -42.733069 
L 215.895194 -42.74126 
L 213.920947 -42.751459 
L 211.946699 -42.762972 
L 209.972452 -42.775104 
L 207.998204 -42.787162 
L 206.023957 -42.798452 
L 204.049709 -42.80828 
L 202.075462 -42.815953 
L 200.101214 -42.820777 
L 198.126967 -42.822058 
L 196.152719 -42.819101 
L 194.178472 -42.811215 
L 192.204224 -42.797703 
L 190.229977 -42.77933 
L 188.25573 -42.758958 
L 186.281482 -42.737001 
L 184.307235 -42.713788 
L 182.332987 -42.689649 
L 180.35874 -42.664912 
L 178.384492 -42.639908 
L 176.410245 -42.614964 
L 174.435997 -42.590411 
L 172.46175 -42.566578 
L 170.487502 -42.543794 
L 168.513255 -42.522389 
L 166.539007 -42.502691 
L 164.56476 -42.48503 
L 162.590512 -42.469735 
L 160.616265 -42.453713 
L 158.642017 -42.431718 
L 156.66777 -42.404624 
L 154.693522 -42.37341 
L 152.719275 -42.33906 
L 150.745027 -42.302554 
L 148.77078 -42.264873 
L 146.796532 -42.226999 
L 144.822285 -42.189913 
L 142.848037 -42.154598 
L 140.87379 -42.122033 
L 138.899542 -42.093201 
L 136.925295 -42.069082 
L 134.951047 -42.050659 
L 132.9768 -42.038912 
L 131.002552 -42.031668 
L 129.028305 -42.024672 
L 127.054057 -42.017806 
L 125.07981 -42.010989 
L 123.105562 -42.004141 
L 121.131315 -41.997181 
L 119.157067 -41.990027 
L 117.18282 -41.9826 
L 115.208572 -41.974818 
L 113.234325 -41.966601 
L 111.260077 -41.957867 
L 109.28583 -41.948536 
L 107.311582 -41.938528 
L 105.337335 -41.927761 
L 103.363087 -41.916155 
L 101.38884 -41.892538 
L 99.414592 -41.844507 
L 97.440345 -41.773741 
L 95.466097 -41.681947 
L 93.49185 -41.570834 
L 91.517602 -41.442112 
L 89.543355 -41.297489 
L 87.569107 -41.138674 
L 85.59486 -40.967376 
L 83.620612 -40.785303 
L 81.646365 -40.594164 
L 79.672117 -40.395669 
L 77.69787 -40.191526 
L 75.723622 -39.983443 
L 73.749375 -39.77313 
z
" style="stroke: #ff7f0e; stroke-opacity: 0.7"/>
    </defs>
    <g clip-path="url(#p5c36b871e4)">
     <use xlink:href="#m5f6be915d1" x="0" y="424.005" style="fill: #ff7f0e; fill-opacity: 0.7; stroke: #ff7f0e; stroke-opacity: 0.7"/>
    </g>
   </g>
   <g id="legend_1">
    <g id="patch_3">
     <path d="M 53.234375 24.159375 
L 73.234375 24.159375 
L 73.234375 17.159375 
L 53.234375 17.159375 
z
" style="fill: #d62728; fill-opacity: 0.7; stroke: #d62728; stroke-opacity: 0.7; stroke-linejoin: miter"/>
    </g>
    <g id="text_14">
     <!-- Solo -->
     <g transform="translate(81.234375 24.159375) scale(0.1 -0.1)">
      <defs>
       <path id="NotoSansCJKjp-Regular-53" d="M 1946 -83 
C 2925 -83 3539 506 3539 1248 
C 3539 1946 3117 2266 2573 2502 
L 1901 2790 
C 1536 2944 1126 3117 1126 3571 
C 1126 3994 1472 4262 2003 4262 
C 2438 4262 2784 4090 3072 3821 
L 3386 4198 
C 3053 4544 2560 4781 2003 4781 
C 1152 4781 525 4256 525 3533 
C 525 2848 1043 2515 1478 2330 
L 2157 2035 
C 2598 1837 2938 1683 2938 1203 
C 2938 742 2566 435 1952 435 
C 1466 435 992 666 659 1018 
L 301 614 
C 710 186 1280 -83 1946 -83 
z
" transform="scale(0.015625)"/>
       <path id="NotoSansCJKjp-Regular-6c" d="M 1203 -83 
C 1363 -83 1459 -64 1542 -32 
L 1459 416 
C 1395 403 1370 403 1338 403 
C 1248 403 1171 474 1171 653 
L 1171 5094 
L 589 5094 
L 589 691 
C 589 198 768 -83 1203 -83 
z
" transform="scale(0.015625)"/>
      </defs>
      <use xlink:href="#NotoSansCJKjp-Regular-53"/>
      <use xlink:href="#NotoSansCJKjp-Regular-6f" transform="translate(59.699997 0)"/>
      <use xlink:href="#NotoSansCJKjp-Regular-6c" transform="translate(120.299988 0)"/>
      <use xlink:href="#NotoSansCJKjp-Regular-6f" transform="translate(148.799973 0)"/>
     </g>
    </g>
    <g id="patch_4">
     <path d="M 53.234375 39.409375 
L 73.234375 39.409375 
L 73.234375 32.409375 
L 53.234375 32.409375 
z
" style="fill: #1f77b4; fill-opacity: 0.7; stroke: #1f77b4; stroke-opacity: 0.7; stroke-linejoin: miter"/>
    </g>
    <g id="text_15">
     <!-- Initial -->
     <g transform="translate(81.234375 39.409375) scale(0.1 -0.1)">
      <defs>
       <path id="NotoSansCJKjp-Regular-49" d="M 640 0 
L 1235 0 
L 1235 4698 
L 640 4698 
L 640 0 
z
" transform="scale(0.015625)"/>
      </defs>
      <use xlink:href="#NotoSansCJKjp-Regular-49"/>
      <use xlink:href="#NotoSansCJKjp-Regular-6e" transform="translate(29.299988 0)"/>
      <use xlink:href="#NotoSansCJKjp-Regular-69" transform="translate(90.399979 0)"/>
      <use xlink:href="#NotoSansCJKjp-Regular-74" transform="translate(117.899963 0)"/>
      <use xlink:href="#NotoSansCJKjp-Regular-69" transform="translate(155.59996 0)"/>
      <use xlink:href="#NotoSansCJKjp-Regular-61" transform="translate(183.099945 0)"/>
      <use xlink:href="#NotoSansCJKjp-Regular-6c" transform="translate(239.499939 0)"/>
     </g>
    </g>
    <g id="patch_5">
     <path d="M 53.234375 54.659375 
L 73.234375 54.659375 
L 73.234375 47.659375 
L 53.234375 47.659375 
z
" style="fill: #2ca02c; fill-opacity: 0.7; stroke: #2ca02c; stroke-opacity: 0.7; stroke-linejoin: miter"/>
    </g>
    <g id="text_16">
     <!-- Middle -->
     <g transform="translate(81.234375 54.659375) scale(0.1 -0.1)">
      <defs>
       <path id="NotoSansCJKjp-Regular-4d" d="M 640 0 
L 1178 0 
L 1178 2598 
C 1178 3002 1133 3571 1107 3981 
L 1133 3981 
L 1504 2912 
L 2394 474 
L 2790 474 
L 3680 2912 
L 4051 3981 
L 4077 3981 
C 4045 3571 4000 3002 4000 2598 
L 4000 0 
L 4557 0 
L 4557 4698 
L 3840 4698 
L 2944 2182 
C 2835 1856 2733 1530 2624 1203 
L 2592 1203 
C 2477 1530 2368 1856 2259 2182 
L 1357 4698 
L 640 4698 
L 640 0 
z
" transform="scale(0.015625)"/>
       <path id="NotoSansCJKjp-Regular-64" d="M 1773 -83 
C 2189 -83 2554 141 2829 410 
L 2848 410 
L 2899 0 
L 3373 0 
L 3373 5094 
L 2797 5094 
L 2797 3757 
L 2822 3155 
C 2515 3411 2253 3565 1843 3565 
C 1050 3565 339 2861 339 1734 
C 339 576 902 -83 1773 -83 
z
M 1901 403 
C 1286 403 941 902 941 1741 
C 941 2534 1382 3072 1946 3072 
C 2234 3072 2496 2970 2797 2707 
L 2797 883 
C 2502 563 2221 403 1901 403 
z
" transform="scale(0.015625)"/>
      </defs>
      <use xlink:href="#NotoSansCJKjp-Regular-4d"/>
      <use xlink:href="#NotoSansCJKjp-Regular-69" transform="translate(81.199982 0)"/>
      <use xlink:href="#NotoSansCJKjp-Regular-64" transform="translate(108.699966 0)"/>
      <use xlink:href="#NotoSansCJKjp-Regular-64" transform="translate(170.699951 0)"/>
      <use xlink:href="#NotoSansCJKjp-Regular-6c" transform="translate(232.699936 0)"/>
      <use xlink:href="#NotoSansCJKjp-Regular-65" transform="translate(261.199921 0)"/>
     </g>
    </g>
    <g id="patch_6">
     <path d="M 53.234375 69.909375 
L 73.234375 69.909375 
L 73.234375 62.909375 
L 53.234375 62.909375 
z
" style="fill: #ff7f0e; fill-opacity: 0.7; stroke: #ff7f0e; stroke-opacity: 0.7; stroke-linejoin: miter"/>
    </g>
    <g id="text_17">
     <!-- End -->
     <g transform="translate(81.234375 69.909375) scale(0.1 -0.1)">
      <defs>
       <path id="NotoSansCJKjp-Regular-45" d="M 640 0 
L 3418 0 
L 3418 506 
L 1235 506 
L 1235 2214 
L 3014 2214 
L 3014 2720 
L 1235 2720 
L 1235 4192 
L 3347 4192 
L 3347 4698 
L 640 4698 
L 640 0 
z
" transform="scale(0.015625)"/>
      </defs>
      <use xlink:href="#NotoSansCJKjp-Regular-45"/>
      <use xlink:href="#NotoSansCJKjp-Regular-6e" transform="translate(58.799988 0)"/>
      <use xlink:href="#NotoSansCJKjp-Regular-64" transform="translate(119.899979 0)"/>
     </g>
    </g>
   </g>
  </g>
 </g>
 <defs>
  <clipPath id="p5c36b871e4">
   <rect x="44.234375" y="7.2" width="649.33" height="377.08"/>
  </clipPath>
 </defs>
</svg>
