<?xml version="1.0" encoding="utf-8" standalone="no"?>
<!DOCTYPE svg PUBLIC "-//W3C//DTD SVG 1.1//EN"
  "http://www.w3.org/Graphics/SVG/1.1/DTD/svg11.dtd">
<svg xmlns:xlink="http://www.w3.org/1999/xlink" width="314.178169pt" height="217.533125pt" viewBox="0 0 314.178169 217.533125" xmlns="http://www.w3.org/2000/svg" version="1.1">
 <metadata>
  <rdf:RDF xmlns:dc="http://purl.org/dc/elements/1.1/" xmlns:cc="http://creativecommons.org/ns#" xmlns:rdf="http://www.w3.org/1999/02/22-rdf-syntax-ns#">
   <cc:Work>
    <dc:type rdf:resource="http://purl.org/dc/dcmitype/StillImage"/>
    <dc:date>2026-04-28T10:28:06.241692</dc:date>
    <dc:format>image/svg+xml</dc:format>
    <dc:creator>
     <cc:Agent>
      <dc:title>Matplotlib v3.10.7, https://matplotlib.org/</dc:title>
     </cc:Agent>
    </dc:creator>
   </cc:Work>
  </rdf:RDF>
 </metadata>
 <defs>
  <style type="text/css">*{stroke-linejoin: round; stroke-linecap: butt}</style>
 </defs>
 <g id="figure_1">
  <g id="patch_1">
   <path d="M -0 217.533125 
L 314.178169 217.533125 
L 314.178169 -0 
L -0 -0 
z
" style="fill: #ffffff"/>
  </g>
  <g id="axes_1">
   <g id="patch_2">
    <path d="M 38.404375 183.13 
L 301.055044 183.13 
L 301.055044 9.45 
L 38.404375 9.45 
z
" style="fill: #ffffff"/>
   </g>
   <g id="matplotlib.axis_1">
    <g id="xtick_1">
     <g id="line2d_1">
      <defs>
       <path id="mda4e254e9f" d="M 0 0 
L 0 3.5 
" style="stroke: #000000; stroke-width: 0.8"/>
      </defs>
      <g>
       <use xlink:href="#mda4e254e9f" x="50.343042" y="183.13" style="stroke: #000000; stroke-width: 0.8"/>
      </g>
     </g>
     <g id="text_1">
      <!-- 2004 -->
      <g transform="translate(44.419917 194.63) scale(0.06 -0.06)">
       <defs>
        <path id="RobotoCondensed-Regular-32" d="M 2909 475 
L 2909 0 
L 366 0 
L 366 416 
L 1628 2088 
Q 1966 2541 2077 2802 
Q 2188 3063 2188 3328 
Q 2188 3663 2027 3900 
Q 1866 4138 1575 4138 
Q 1194 4138 1022 3878 
Q 850 3619 850 3213 
L 297 3213 
Q 297 3788 617 4200 
Q 938 4613 1575 4613 
Q 2125 4613 2433 4278 
Q 2741 3944 2741 3397 
Q 2741 2997 2541 2594 
Q 2341 2191 2047 1809 
L 1028 475 
L 2909 475 
z
" transform="scale(0.015625)"/>
        <path id="RobotoCondensed-Regular-30" d="M 2797 1944 
Q 2797 825 2467 381 
Q 2138 -63 1581 -63 
Q 1038 -63 703 370 
Q 369 803 359 1878 
L 359 2638 
Q 359 3753 695 4183 
Q 1031 4613 1578 4613 
Q 2131 4613 2461 4189 
Q 2791 3766 2797 2681 
L 2797 1944 
z
M 2247 2734 
Q 2247 3503 2073 3822 
Q 1900 4141 1578 4141 
Q 1266 4141 1092 3833 
Q 919 3525 913 2791 
L 913 1850 
Q 913 1088 1089 750 
Q 1266 413 1581 413 
Q 1903 413 2072 738 
Q 2241 1063 2247 1794 
L 2247 2734 
z
" transform="scale(0.015625)"/>
        <path id="RobotoCondensed-Regular-34" d="M 188 1397 
L 1878 4550 
L 2463 4550 
L 2463 1531 
L 2969 1531 
L 2969 1056 
L 2463 1056 
L 2463 0 
L 1909 0 
L 1909 1056 
L 188 1056 
L 188 1397 
z
M 803 1531 
L 1909 1531 
L 1909 3703 
L 1878 3638 
L 803 1531 
z
" transform="scale(0.015625)"/>
       </defs>
       <use xlink:href="#RobotoCondensed-Regular-32"/>
       <use xlink:href="#RobotoCondensed-Regular-30" transform="translate(49.365234 0)"/>
       <use xlink:href="#RobotoCondensed-Regular-30" transform="translate(98.730469 0)"/>
       <use xlink:href="#RobotoCondensed-Regular-34" transform="translate(148.095703 0)"/>
      </g>
     </g>
    </g>
    <g id="xtick_2">
     <g id="line2d_2">
      <g>
       <use xlink:href="#mda4e254e9f" x="86.159042" y="183.13" style="stroke: #000000; stroke-width: 0.8"/>
      </g>
     </g>
     <g id="text_2">
      <!-- 2007 -->
      <g transform="translate(80.235917 194.63) scale(0.06 -0.06)">
       <defs>
        <path id="RobotoCondensed-Regular-37" d="M 2878 4550 
L 2878 4225 
L 1313 0 
L 731 0 
L 2297 4075 
L 269 4075 
L 269 4550 
L 2878 4550 
z
" transform="scale(0.015625)"/>
       </defs>
       <use xlink:href="#RobotoCondensed-Regular-32"/>
       <use xlink:href="#RobotoCondensed-Regular-30" transform="translate(49.365234 0)"/>
       <use xlink:href="#RobotoCondensed-Regular-30" transform="translate(98.730469 0)"/>
       <use xlink:href="#RobotoCondensed-Regular-37" transform="translate(148.095703 0)"/>
      </g>
     </g>
    </g>
    <g id="xtick_3">
     <g id="line2d_3">
      <g>
       <use xlink:href="#mda4e254e9f" x="121.975043" y="183.13" style="stroke: #000000; stroke-width: 0.8"/>
      </g>
     </g>
     <g id="text_3">
      <!-- 2010 -->
      <g transform="translate(116.051918 194.63) scale(0.06 -0.06)">
       <defs>
        <path id="RobotoCondensed-Regular-31" d="M 2013 4575 
L 2013 0 
L 1459 0 
L 1459 3853 
L 503 3428 
L 503 3950 
L 1928 4575 
L 2013 4575 
z
" transform="scale(0.015625)"/>
       </defs>
       <use xlink:href="#RobotoCondensed-Regular-32"/>
       <use xlink:href="#RobotoCondensed-Regular-30" transform="translate(49.365234 0)"/>
       <use xlink:href="#RobotoCondensed-Regular-31" transform="translate(98.730469 0)"/>
       <use xlink:href="#RobotoCondensed-Regular-30" transform="translate(148.095703 0)"/>
      </g>
     </g>
    </g>
    <g id="xtick_4">
     <g id="line2d_4">
      <g>
       <use xlink:href="#mda4e254e9f" x="157.791043" y="183.13" style="stroke: #000000; stroke-width: 0.8"/>
      </g>
     </g>
     <g id="text_4">
      <!-- 2013 -->
      <g transform="translate(151.867918 194.63) scale(0.06 -0.06)">
       <defs>
        <path id="RobotoCondensed-Regular-33" d="M 1075 2084 
L 1075 2559 
L 1431 2559 
Q 1788 2559 1961 2781 
Q 2134 3003 2134 3338 
Q 2134 4138 1519 4138 
Q 1228 4138 1054 3927 
Q 881 3716 881 3359 
L 331 3359 
Q 331 3881 653 4247 
Q 975 4613 1519 4613 
Q 2038 4613 2363 4286 
Q 2688 3959 2688 3325 
Q 2688 3072 2550 2786 
Q 2413 2500 2100 2338 
Q 2484 2194 2612 1886 
Q 2741 1578 2741 1269 
Q 2741 631 2389 284 
Q 2038 -63 1516 -63 
Q 1006 -63 656 267 
Q 306 597 306 1203 
L 859 1203 
Q 859 844 1032 628 
Q 1206 413 1516 413 
Q 1822 413 2005 622 
Q 2188 831 2188 1256 
Q 2188 2084 1403 2084 
L 1075 2084 
z
" transform="scale(0.015625)"/>
       </defs>
       <use xlink:href="#RobotoCondensed-Regular-32"/>
       <use xlink:href="#RobotoCondensed-Regular-30" transform="translate(49.365234 0)"/>
       <use xlink:href="#RobotoCondensed-Regular-31" transform="translate(98.730469 0)"/>
       <use xlink:href="#RobotoCondensed-Regular-33" transform="translate(148.095703 0)"/>
      </g>
     </g>
    </g>
    <g id="xtick_5">
     <g id="line2d_5">
      <g>
       <use xlink:href="#mda4e254e9f" x="193.607043" y="183.13" style="stroke: #000000; stroke-width: 0.8"/>
      </g>
     </g>
     <g id="text_5">
      <!-- 2016 -->
      <g transform="translate(187.683918 194.63) scale(0.06 -0.06)">
       <defs>
        <path id="RobotoCondensed-Regular-36" d="M 2847 1484 
Q 2847 838 2544 387 
Q 2241 -63 1641 -63 
Q 1216 -63 944 198 
Q 672 459 542 861 
Q 413 1263 413 1684 
L 413 1956 
Q 413 2438 481 2900 
Q 550 3363 742 3738 
Q 934 4113 1296 4334 
Q 1659 4556 2291 4556 
L 2291 4066 
Q 1775 4066 1508 3859 
Q 1241 3653 1122 3318 
Q 1003 2984 978 2606 
Q 1272 2984 1750 2984 
Q 2138 2984 2380 2765 
Q 2622 2547 2734 2201 
Q 2847 1856 2847 1484 
z
M 969 1666 
Q 969 1059 1180 737 
Q 1391 416 1641 416 
Q 1959 416 2129 708 
Q 2300 1000 2300 1456 
Q 2300 1863 2144 2184 
Q 1988 2506 1659 2506 
Q 1425 2506 1236 2329 
Q 1047 2153 969 1900 
L 969 1666 
z
" transform="scale(0.015625)"/>
       </defs>
       <use xlink:href="#RobotoCondensed-Regular-32"/>
       <use xlink:href="#RobotoCondensed-Regular-30" transform="translate(49.365234 0)"/>
       <use xlink:href="#RobotoCondensed-Regular-31" transform="translate(98.730469 0)"/>
       <use xlink:href="#RobotoCondensed-Regular-36" transform="translate(148.095703 0)"/>
      </g>
     </g>
    </g>
    <g id="xtick_6">
     <g id="line2d_6">
      <g>
       <use xlink:href="#mda4e254e9f" x="229.423044" y="183.13" style="stroke: #000000; stroke-width: 0.8"/>
      </g>
     </g>
     <g id="text_6">
      <!-- 2019 -->
      <g transform="translate(223.499919 194.63) scale(0.06 -0.06)">
       <defs>
        <path id="RobotoCondensed-Regular-39" d="M 2744 2563 
Q 2744 2119 2687 1667 
Q 2631 1216 2450 836 
Q 2269 456 1903 225 
Q 1538 -6 869 -6 
L 866 484 
Q 1428 484 1698 690 
Q 1969 897 2072 1233 
Q 2175 1569 2191 1950 
Q 1859 1522 1413 1522 
Q 1025 1522 786 1747 
Q 547 1972 436 2320 
Q 325 2669 325 3041 
Q 325 3691 623 4152 
Q 922 4613 1522 4613 
Q 1969 4613 2237 4344 
Q 2506 4075 2625 3653 
Q 2744 3231 2744 2772 
L 2744 2563 
z
M 866 3072 
Q 866 2666 1020 2334 
Q 1175 2003 1506 2003 
Q 1716 2003 1906 2179 
Q 2097 2356 2194 2616 
L 2194 2850 
Q 2194 3472 1983 3803 
Q 1772 4134 1522 4134 
Q 1206 4134 1036 3829 
Q 866 3525 866 3072 
z
" transform="scale(0.015625)"/>
       </defs>
       <use xlink:href="#RobotoCondensed-Regular-32"/>
       <use xlink:href="#RobotoCondensed-Regular-30" transform="translate(49.365234 0)"/>
       <use xlink:href="#RobotoCondensed-Regular-31" transform="translate(98.730469 0)"/>
       <use xlink:href="#RobotoCondensed-Regular-39" transform="translate(148.095703 0)"/>
      </g>
     </g>
    </g>
    <g id="xtick_7">
     <g id="line2d_7">
      <g>
       <use xlink:href="#mda4e254e9f" x="265.239044" y="183.13" style="stroke: #000000; stroke-width: 0.8"/>
      </g>
     </g>
     <g id="text_7">
      <!-- 2022 -->
      <g transform="translate(259.315919 194.63) scale(0.06 -0.06)">
       <use xlink:href="#RobotoCondensed-Regular-32"/>
       <use xlink:href="#RobotoCondensed-Regular-30" transform="translate(49.365234 0)"/>
       <use xlink:href="#RobotoCondensed-Regular-32" transform="translate(98.730469 0)"/>
       <use xlink:href="#RobotoCondensed-Regular-32" transform="translate(148.095703 0)"/>
      </g>
     </g>
    </g>
    <g id="xtick_8">
     <g id="line2d_8">
      <g>
       <use xlink:href="#mda4e254e9f" x="301.055044" y="183.13" style="stroke: #000000; stroke-width: 0.8"/>
      </g>
     </g>
     <g id="text_8">
      <!-- 2025 -->
      <g transform="translate(295.131919 194.63) scale(0.06 -0.06)">
       <defs>
        <path id="RobotoCondensed-Regular-35" d="M 1034 2166 
L 594 2284 
L 788 4550 
L 2769 4550 
L 2769 4016 
L 1253 4016 
L 1147 2778 
Q 1438 2975 1753 2975 
Q 2288 2975 2591 2561 
Q 2894 2147 2894 1450 
Q 2894 797 2584 367 
Q 2275 -63 1656 -63 
Q 1194 -63 850 248 
Q 506 559 453 1197 
L 975 1197 
Q 1066 413 1656 413 
Q 1978 413 2159 691 
Q 2341 969 2341 1444 
Q 2341 1872 2153 2164 
Q 1966 2456 1619 2456 
Q 1384 2456 1273 2378 
Q 1163 2300 1034 2166 
z
" transform="scale(0.015625)"/>
       </defs>
       <use xlink:href="#RobotoCondensed-Regular-32"/>
       <use xlink:href="#RobotoCondensed-Regular-30" transform="translate(49.365234 0)"/>
       <use xlink:href="#RobotoCondensed-Regular-32" transform="translate(98.730469 0)"/>
       <use xlink:href="#RobotoCondensed-Regular-35" transform="translate(148.095703 0)"/>
      </g>
     </g>
    </g>
    <g id="text_9">
     <!-- Year -->
     <g transform="translate(159.954319 208.09875) scale(0.11 -0.11)">
      <defs>
       <path id="RobotoCondensed-Regular-59" d="M 747 4550 
L 1675 2266 
L 2606 4550 
L 3256 4550 
L 1963 1700 
L 1963 0 
L 1388 0 
L 1388 1700 
L 94 4550 
L 747 4550 
z
" transform="scale(0.015625)"/>
       <path id="RobotoCondensed-Regular-65" d="M 2722 447 
Q 2584 253 2323 95 
Q 2063 -63 1625 -63 
Q 1019 -63 666 301 
Q 313 666 309 1431 
L 309 1828 
Q 309 2722 696 3083 
Q 1084 3444 1563 3444 
Q 2197 3444 2472 3034 
Q 2747 2625 2747 1850 
L 2747 1528 
L 863 1528 
L 863 1447 
Q 863 906 1067 657 
Q 1272 409 1656 409 
Q 1934 409 2114 517 
Q 2294 625 2431 794 
L 2722 447 
z
M 1563 2969 
Q 1275 2969 1084 2770 
Q 894 2572 866 2000 
L 2194 2000 
L 2194 2078 
Q 2172 2469 2048 2719 
Q 1925 2969 1563 2969 
z
" transform="scale(0.015625)"/>
       <path id="RobotoCondensed-Regular-61" d="M 2156 0 
Q 2103 122 2081 366 
Q 1966 194 1775 65 
Q 1584 -63 1334 -63 
Q 891 -63 623 187 
Q 356 438 356 922 
Q 356 1409 690 1729 
Q 1025 2050 1691 2050 
L 2072 2050 
L 2072 2413 
Q 2072 2713 1936 2841 
Q 1800 2969 1528 2969 
Q 1263 2969 1114 2812 
Q 966 2656 966 2444 
L 413 2444 
Q 413 2806 722 3125 
Q 1031 3444 1556 3444 
Q 2025 3444 2325 3209 
Q 2625 2975 2625 2406 
L 2625 794 
Q 2625 316 2728 50 
L 2728 0 
L 2156 0 
z
M 1419 441 
Q 1653 441 1825 562 
Q 1997 684 2072 834 
L 2072 1644 
L 1781 1644 
Q 1384 1644 1146 1475 
Q 909 1306 909 991 
Q 909 688 1036 564 
Q 1163 441 1419 441 
z
" transform="scale(0.015625)"/>
       <path id="RobotoCondensed-Regular-72" d="M 1563 2888 
Q 1138 2888 969 2425 
L 969 0 
L 416 0 
L 416 3381 
L 950 3381 
L 963 3041 
Q 1184 3444 1591 3444 
Q 1738 3444 1809 3400 
L 1813 2863 
Q 1691 2888 1563 2888 
z
" transform="scale(0.015625)"/>
      </defs>
      <use xlink:href="#RobotoCondensed-Regular-59"/>
      <use xlink:href="#RobotoCondensed-Regular-65" transform="translate(52.490234 0)"/>
      <use xlink:href="#RobotoCondensed-Regular-61" transform="translate(99.365234 0)"/>
      <use xlink:href="#RobotoCondensed-Regular-72" transform="translate(147.265625 0)"/>
     </g>
    </g>
   </g>
   <g id="matplotlib.axis_2">
    <g id="ytick_1">
     <g id="line2d_9">
      <path d="M 38.404375 183.13 
L 301.055044 183.13 
" clip-path="url(#p2e63c8e330)" style="fill: none; stroke: #808080; stroke-opacity: 0.3; stroke-width: 0.5; stroke-linecap: square"/>
     </g>
     <g id="line2d_10">
      <defs>
       <path id="m85cc406a14" d="M 0 0 
L -3.5 0 
" style="stroke: #000000; stroke-width: 0.8"/>
      </defs>
      <g>
       <use xlink:href="#m85cc406a14" x="38.404375" y="183.13" style="stroke: #000000; stroke-width: 0.8"/>
      </g>
     </g>
     <g id="text_10">
      <!-- 0% -->
      <g transform="translate(24.645937 185.38) scale(0.06 -0.06)">
       <defs>
        <path id="RobotoCondensed-Regular-25" d="M 334 3675 
Q 334 4063 545 4339 
Q 756 4616 1128 4616 
Q 1506 4616 1717 4339 
Q 1928 4063 1928 3675 
L 1928 3434 
Q 1928 3053 1718 2776 
Q 1509 2500 1134 2500 
Q 759 2500 546 2776 
Q 334 3053 334 3434 
L 334 3675 
z
M 741 3434 
Q 741 3219 836 3047 
Q 931 2875 1134 2875 
Q 1331 2875 1426 3045 
Q 1522 3216 1522 3434 
L 1522 3675 
Q 1522 3894 1425 4067 
Q 1328 4241 1128 4241 
Q 931 4241 836 4067 
Q 741 3894 741 3675 
L 741 3434 
z
M 3116 3903 
L 1250 347 
L 944 553 
L 2813 4109 
L 3116 3903 
z
M 2172 1116 
Q 2172 1500 2384 1776 
Q 2597 2053 2969 2053 
Q 3344 2053 3555 1776 
Q 3766 1500 3766 1116 
L 3766 872 
Q 3766 488 3555 211 
Q 3344 -66 2972 -66 
Q 2597 -66 2384 211 
Q 2172 488 2172 872 
L 2172 1116 
z
M 2578 872 
Q 2578 653 2675 481 
Q 2772 309 2972 309 
Q 3169 309 3264 479 
Q 3359 650 3359 872 
L 3359 1116 
Q 3359 1338 3262 1508 
Q 3166 1678 2969 1678 
Q 2772 1678 2675 1508 
Q 2578 1338 2578 1116 
L 2578 872 
z
" transform="scale(0.015625)"/>
       </defs>
       <use xlink:href="#RobotoCondensed-Regular-30"/>
       <use xlink:href="#RobotoCondensed-Regular-25" transform="translate(49.365234 0)"/>
      </g>
     </g>
    </g>
    <g id="ytick_2">
     <g id="line2d_11">
      <path d="M 38.404375 139.71 
L 301.055044 139.71 
" clip-path="url(#p2e63c8e330)" style="fill: none; stroke: #808080; stroke-opacity: 0.3; stroke-width: 0.5; stroke-linecap: square"/>
     </g>
     <g id="line2d_12">
      <g>
       <use xlink:href="#m85cc406a14" x="38.404375" y="139.71" style="stroke: #000000; stroke-width: 0.8"/>
      </g>
     </g>
     <g id="text_11">
      <!-- 5% -->
      <g transform="translate(24.645937 141.96) scale(0.06 -0.06)">
       <use xlink:href="#RobotoCondensed-Regular-35"/>
       <use xlink:href="#RobotoCondensed-Regular-25" transform="translate(49.365234 0)"/>
      </g>
     </g>
    </g>
    <g id="ytick_3">
     <g id="line2d_13">
      <path d="M 38.404375 96.29 
L 301.055044 96.29 
" clip-path="url(#p2e63c8e330)" style="fill: none; stroke: #808080; stroke-opacity: 0.3; stroke-width: 0.5; stroke-linecap: square"/>
     </g>
     <g id="line2d_14">
      <g>
       <use xlink:href="#m85cc406a14" x="38.404375" y="96.29" style="stroke: #000000; stroke-width: 0.8"/>
      </g>
     </g>
     <g id="text_12">
      <!-- 10% -->
      <g transform="translate(21.684375 98.54) scale(0.06 -0.06)">
       <use xlink:href="#RobotoCondensed-Regular-31"/>
       <use xlink:href="#RobotoCondensed-Regular-30" transform="translate(49.365234 0)"/>
       <use xlink:href="#RobotoCondensed-Regular-25" transform="translate(98.730469 0)"/>
      </g>
     </g>
    </g>
    <g id="ytick_4">
     <g id="line2d_15">
      <path d="M 38.404375 52.87 
L 301.055044 52.87 
" clip-path="url(#p2e63c8e330)" style="fill: none; stroke: #808080; stroke-opacity: 0.3; stroke-width: 0.5; stroke-linecap: square"/>
     </g>
     <g id="line2d_16">
      <g>
       <use xlink:href="#m85cc406a14" x="38.404375" y="52.87" style="stroke: #000000; stroke-width: 0.8"/>
      </g>
     </g>
     <g id="text_13">
      <!-- 15% -->
      <g transform="translate(21.684375 55.12) scale(0.06 -0.06)">
       <use xlink:href="#RobotoCondensed-Regular-31"/>
       <use xlink:href="#RobotoCondensed-Regular-35" transform="translate(49.365234 0)"/>
       <use xlink:href="#RobotoCondensed-Regular-25" transform="translate(98.730469 0)"/>
      </g>
     </g>
    </g>
    <g id="ytick_5">
     <g id="line2d_17">
      <path d="M 38.404375 9.45 
L 301.055044 9.45 
" clip-path="url(#p2e63c8e330)" style="fill: none; stroke: #808080; stroke-opacity: 0.3; stroke-width: 0.5; stroke-linecap: square"/>
     </g>
     <g id="line2d_18">
      <g>
       <use xlink:href="#m85cc406a14" x="38.404375" y="9.45" style="stroke: #000000; stroke-width: 0.8"/>
      </g>
     </g>
     <g id="text_14">
      <!-- 20% -->
      <g transform="translate(21.684375 11.7) scale(0.06 -0.06)">
       <use xlink:href="#RobotoCondensed-Regular-32"/>
       <use xlink:href="#RobotoCondensed-Regular-30" transform="translate(49.365234 0)"/>
       <use xlink:href="#RobotoCondensed-Regular-25" transform="translate(98.730469 0)"/>
      </g>
     </g>
    </g>
    <g id="text_15">
     <!-- Proportion -->
     <g transform="translate(15.45 119.239609) rotate(-90) scale(0.11 -0.11)">
      <defs>
       <path id="RobotoCondensed-Regular-50" d="M 1066 1784 
L 1066 0 
L 491 0 
L 491 4550 
L 1941 4550 
Q 2600 4550 2951 4159 
Q 3303 3769 3303 3163 
Q 3303 2506 2954 2147 
Q 2606 1788 1950 1784 
L 1066 1784 
z
M 1066 4056 
L 1066 2275 
L 1941 2275 
Q 2359 2275 2543 2522 
Q 2728 2769 2728 3156 
Q 2728 3506 2543 3781 
Q 2359 4056 1941 4056 
L 1066 4056 
z
" transform="scale(0.015625)"/>
       <path id="RobotoCondensed-Regular-6f" d="M 300 1850 
Q 300 2641 678 3042 
Q 1056 3444 1603 3444 
Q 2156 3444 2536 3042 
Q 2916 2641 2916 1850 
L 2916 1528 
Q 2916 738 2536 337 
Q 2156 -63 1609 -63 
Q 1059 -63 679 337 
Q 300 738 300 1528 
L 300 1850 
z
M 853 1528 
Q 853 969 1068 689 
Q 1284 409 1609 409 
Q 2341 409 2363 1466 
L 2363 1850 
Q 2363 2403 2145 2686 
Q 1928 2969 1603 2969 
Q 1281 2969 1067 2686 
Q 853 2403 853 1850 
L 853 1528 
z
" transform="scale(0.015625)"/>
       <path id="RobotoCondensed-Regular-70" d="M 1750 -63 
Q 1244 -63 969 325 
L 969 -1300 
L 416 -1300 
L 416 3381 
L 919 3381 
L 947 3013 
Q 1222 3444 1744 3444 
Q 2275 3444 2562 3073 
Q 2850 2703 2859 1897 
L 2859 1528 
Q 2859 725 2570 331 
Q 2281 -63 1750 -63 
z
M 1572 2956 
Q 1181 2956 969 2559 
L 969 797 
Q 1178 409 1578 409 
Q 2288 409 2306 1472 
L 2306 1844 
Q 2306 2956 1572 2956 
z
" transform="scale(0.015625)"/>
       <path id="RobotoCondensed-Regular-74" d="M 1647 0 
Q 1488 -63 1259 -63 
Q 991 -63 789 134 
Q 588 331 588 841 
L 588 2938 
L 72 2938 
L 72 3381 
L 588 3381 
L 588 4203 
L 1141 4203 
L 1141 3381 
L 1650 3381 
L 1650 2938 
L 1141 2938 
L 1141 838 
Q 1141 578 1230 506 
Q 1319 434 1431 434 
Q 1550 434 1650 472 
L 1647 0 
z
" transform="scale(0.015625)"/>
       <path id="RobotoCondensed-Regular-69" d="M 428 4278 
Q 428 4419 506 4516 
Q 584 4613 741 4613 
Q 894 4613 975 4516 
Q 1056 4419 1056 4278 
Q 1056 4144 975 4048 
Q 894 3953 741 3953 
Q 584 3953 506 4048 
Q 428 4144 428 4278 
z
M 1009 3381 
L 1009 0 
L 459 0 
L 459 3381 
L 1009 3381 
z
" transform="scale(0.015625)"/>
       <path id="RobotoCondensed-Regular-6e" d="M 1603 2956 
Q 1400 2956 1236 2818 
Q 1072 2681 969 2459 
L 969 0 
L 416 0 
L 416 3381 
L 938 3381 
L 953 3022 
Q 1275 3444 1775 3444 
Q 2191 3444 2437 3162 
Q 2684 2881 2684 2216 
L 2684 0 
L 2131 0 
L 2131 2222 
Q 2131 2619 2000 2787 
Q 1869 2956 1603 2956 
z
" transform="scale(0.015625)"/>
      </defs>
      <use xlink:href="#RobotoCondensed-Regular-50"/>
      <use xlink:href="#RobotoCondensed-Regular-72" transform="translate(55.419922 0)"/>
      <use xlink:href="#RobotoCondensed-Regular-6f" transform="translate(85.888672 0)"/>
      <use xlink:href="#RobotoCondensed-Regular-70" transform="translate(136.083984 0)"/>
      <use xlink:href="#RobotoCondensed-Regular-6f" transform="translate(185.400391 0)"/>
      <use xlink:href="#RobotoCondensed-Regular-72" transform="translate(235.595703 0)"/>
      <use xlink:href="#RobotoCondensed-Regular-74" transform="translate(266.064453 0)"/>
      <use xlink:href="#RobotoCondensed-Regular-69" transform="translate(295.654297 0)"/>
      <use xlink:href="#RobotoCondensed-Regular-6f" transform="translate(318.603516 0)"/>
      <use xlink:href="#RobotoCondensed-Regular-6e" transform="translate(368.798828 0)"/>
     </g>
    </g>
   </g>
   <g id="FillBetweenPolyCollection_1">
    <path d="M 50.343042 175.43748 
L 50.343042 183.13 
L 51.141615 183.13 
L 51.940188 183.13 
L 52.738761 183.13 
L 53.537334 183.13 
L 54.335907 183.13 
L 55.13448 183.13 
L 55.933053 183.13 
L 56.731626 183.13 
L 57.530199 183.13 
L 58.328772 183.13 
L 59.127345 183.13 
L 59.925918 183.13 
L 60.724491 183.13 
L 61.523064 183.13 
L 62.321637 183.13 
L 63.12021 183.13 
L 63.918783 183.13 
L 64.717356 183.13 
L 65.515929 183.13 
L 66.314502 183.13 
L 67.113075 183.13 
L 67.911648 183.13 
L 68.710221 183.13 
L 69.508794 183.13 
L 70.307368 183.13 
L 71.105941 183.13 
L 71.904514 183.13 
L 72.703087 183.13 
L 73.50166 183.13 
L 74.300233 183.13 
L 75.098806 183.13 
L 75.897379 183.13 
L 76.695952 183.13 
L 77.494525 183.13 
L 78.293098 183.13 
L 79.091671 183.13 
L 79.890244 183.13 
L 80.688817 183.13 
L 81.48739 183.13 
L 82.285963 183.13 
L 83.084536 183.13 
L 83.883109 183.13 
L 84.681682 183.13 
L 85.480255 183.13 
L 86.278828 183.13 
L 87.077401 183.13 
L 87.875974 183.13 
L 88.674547 183.13 
L 89.47312 183.13 
L 90.271693 183.13 
L 91.070266 183.13 
L 91.868839 183.13 
L 92.667412 183.13 
L 93.465985 183.13 
L 94.264558 183.13 
L 95.063131 183.13 
L 95.861704 183.13 
L 96.660277 183.13 
L 97.458851 183.13 
L 98.257424 183.13 
L 99.055997 183.13 
L 99.85457 183.13 
L 100.653143 183.13 
L 101.451716 183.13 
L 102.250289 183.13 
L 103.048862 183.13 
L 103.847435 183.13 
L 104.646008 183.13 
L 105.444581 183.13 
L 106.243154 183.13 
L 107.041727 183.13 
L 107.8403 183.13 
L 108.638873 183.13 
L 109.437446 183.13 
L 110.236019 183.13 
L 111.034592 183.13 
L 111.833165 183.13 
L 112.631738 183.13 
L 113.430311 183.13 
L 114.228884 183.13 
L 115.027457 183.13 
L 115.82603 183.13 
L 116.624603 183.13 
L 117.423176 183.13 
L 118.221749 183.13 
L 119.020322 183.13 
L 119.818895 183.13 
L 120.617468 183.13 
L 121.416041 183.13 
L 122.214614 183.13 
L 123.013187 183.13 
L 123.81176 183.13 
L 124.610333 183.13 
L 125.408907 183.13 
L 126.20748 183.13 
L 127.006053 183.13 
L 127.804626 183.13 
L 128.603199 183.13 
L 129.401772 183.13 
L 130.200345 183.13 
L 130.998918 183.13 
L 131.797491 183.13 
L 132.596064 183.13 
L 133.394637 183.13 
L 134.19321 183.13 
L 134.991783 183.13 
L 135.790356 183.13 
L 136.588929 183.13 
L 137.387502 183.13 
L 138.186075 183.13 
L 138.984648 183.13 
L 139.783221 183.13 
L 140.581794 183.13 
L 141.380367 183.13 
L 142.17894 183.13 
L 142.977513 183.13 
L 143.776086 183.13 
L 144.574659 183.13 
L 145.373232 183.13 
L 146.171805 183.13 
L 146.970378 183.13 
L 147.768951 183.13 
L 148.567524 183.13 
L 149.366097 183.13 
L 150.16467 183.13 
L 150.963243 183.13 
L 151.761816 183.13 
L 152.56039 183.13 
L 153.358963 183.13 
L 154.157536 183.13 
L 154.956109 183.13 
L 155.754682 183.13 
L 156.553255 183.13 
L 157.351828 183.13 
L 158.150401 183.13 
L 158.948974 183.13 
L 159.747547 183.13 
L 160.54612 183.13 
L 161.344693 183.13 
L 162.143266 183.13 
L 162.941839 183.13 
L 163.740412 183.13 
L 164.538985 183.13 
L 165.337558 183.13 
L 166.136131 183.13 
L 166.934704 183.13 
L 167.733277 183.13 
L 168.53185 183.13 
L 169.330423 183.13 
L 170.128996 183.13 
L 170.927569 183.13 
L 171.726142 183.13 
L 172.524715 183.13 
L 173.323288 183.13 
L 174.121861 183.13 
L 174.920434 183.13 
L 175.719007 183.13 
L 176.51758 183.13 
L 177.316153 183.13 
L 178.114726 183.13 
L 178.913299 183.13 
L 179.711873 183.13 
L 180.510446 183.13 
L 181.309019 183.13 
L 182.107592 183.13 
L 182.906165 183.13 
L 183.704738 183.13 
L 184.503311 183.13 
L 185.301884 183.13 
L 186.100457 183.13 
L 186.89903 183.13 
L 187.697603 183.13 
L 188.496176 183.13 
L 189.294749 183.13 
L 190.093322 183.13 
L 190.891895 183.13 
L 191.690468 183.13 
L 192.489041 183.13 
L 193.287614 183.13 
L 194.086187 183.13 
L 194.88476 183.13 
L 195.683333 183.13 
L 196.481906 183.13 
L 197.280479 183.13 
L 198.079052 183.13 
L 198.877625 183.13 
L 199.676198 183.13 
L 200.474771 183.13 
L 201.273344 183.13 
L 202.071917 183.13 
L 202.87049 183.13 
L 203.669063 183.13 
L 204.467636 183.13 
L 205.266209 183.13 
L 206.064782 183.13 
L 206.863356 183.13 
L 207.661929 183.13 
L 208.460502 183.13 
L 209.259075 183.13 
L 210.057648 183.13 
L 210.856221 183.13 
L 211.654794 183.13 
L 212.453367 183.13 
L 213.25194 183.13 
L 214.050513 183.13 
L 214.849086 183.13 
L 215.647659 183.13 
L 216.446232 183.13 
L 217.244805 183.13 
L 218.043378 183.13 
L 218.841951 183.13 
L 219.640524 183.13 
L 220.439097 183.13 
L 221.23767 183.13 
L 222.036243 183.13 
L 222.834816 183.13 
L 223.633389 183.13 
L 224.431962 183.13 
L 225.230535 183.13 
L 226.029108 183.13 
L 226.827681 183.13 
L 227.626254 183.13 
L 228.424827 183.13 
L 229.2234 183.13 
L 230.021973 183.13 
L 230.820546 183.13 
L 231.619119 183.13 
L 232.417692 183.13 
L 233.216265 183.13 
L 234.014838 183.13 
L 234.813412 183.13 
L 235.611985 183.13 
L 236.410558 183.13 
L 237.209131 183.13 
L 238.007704 183.13 
L 238.806277 183.13 
L 239.60485 183.13 
L 240.403423 183.13 
L 241.201996 183.13 
L 242.000569 183.13 
L 242.799142 183.13 
L 243.597715 183.13 
L 244.396288 183.13 
L 245.194861 183.13 
L 245.993434 183.13 
L 246.792007 183.13 
L 247.59058 183.13 
L 248.389153 183.13 
L 249.187726 183.13 
L 249.986299 183.13 
L 250.784872 183.13 
L 251.583445 183.13 
L 252.382018 183.13 
L 253.180591 183.13 
L 253.979164 183.13 
L 254.777737 183.13 
L 255.57631 183.13 
L 256.374883 183.13 
L 257.173456 183.13 
L 257.972029 183.13 
L 258.770602 183.13 
L 259.569175 183.13 
L 260.367748 183.13 
L 261.166321 183.13 
L 261.964895 183.13 
L 262.763468 183.13 
L 263.562041 183.13 
L 264.360614 183.13 
L 265.159187 183.13 
L 265.95776 183.13 
L 266.756333 183.13 
L 267.554906 183.13 
L 268.353479 183.13 
L 269.152052 183.13 
L 269.950625 183.13 
L 270.749198 183.13 
L 271.547771 183.13 
L 272.346344 183.13 
L 273.144917 183.13 
L 273.94349 183.13 
L 274.742063 183.13 
L 275.540636 183.13 
L 276.339209 183.13 
L 277.137782 183.13 
L 277.936355 183.13 
L 278.734928 183.13 
L 279.533501 183.13 
L 280.332074 183.13 
L 281.130647 183.13 
L 281.92922 183.13 
L 282.727793 183.13 
L 283.526366 183.13 
L 284.324939 183.13 
L 285.123512 183.13 
L 285.922085 183.13 
L 286.720658 183.13 
L 287.519231 183.13 
L 288.317804 183.13 
L 289.116378 183.13 
L 289.116378 168.302086 
L 289.116378 168.302086 
L 288.317804 169.112923 
L 287.519231 169.885257 
L 286.720658 170.616468 
L 285.922085 171.303937 
L 285.123512 171.945043 
L 284.324939 172.537168 
L 283.526366 173.07769 
L 282.727793 173.563991 
L 281.92922 173.993451 
L 281.130647 174.363449 
L 280.332074 174.671367 
L 279.533501 174.914584 
L 278.734928 175.090482 
L 277.936355 175.196439 
L 277.137782 175.229796 
L 276.339209 175.173367 
L 275.540636 175.024409 
L 274.742063 174.797324 
L 273.94349 174.506513 
L 273.144917 174.166377 
L 272.346344 173.791318 
L 271.547771 173.395737 
L 270.749198 172.994036 
L 269.950625 172.600615 
L 269.152052 172.229877 
L 268.353479 171.896222 
L 267.554906 171.614052 
L 266.756333 171.397768 
L 265.95776 171.261771 
L 265.159187 171.220085 
L 264.360614 171.238971 
L 263.562041 171.28696 
L 262.763468 171.3608 
L 261.964895 171.457243 
L 261.166321 171.573036 
L 260.367748 171.70493 
L 259.569175 171.849675 
L 258.770602 172.00402 
L 257.972029 172.164715 
L 257.173456 172.328509 
L 256.374883 172.492152 
L 255.57631 172.652394 
L 254.777737 172.805984 
L 253.979164 172.949673 
L 253.180591 173.080586 
L 252.382018 173.216471 
L 251.583445 173.365992 
L 250.784872 173.525669 
L 249.986299 173.69202 
L 249.187726 173.861564 
L 248.389153 174.03082 
L 247.59058 174.196307 
L 246.792007 174.354545 
L 245.993434 174.502051 
L 245.194861 174.635345 
L 244.396288 174.750946 
L 243.597715 174.845374 
L 242.799142 174.915146 
L 242.000569 174.956782 
L 241.201996 174.966961 
L 240.403423 174.949176 
L 239.60485 174.908828 
L 238.806277 174.849512 
L 238.007704 174.774824 
L 237.209131 174.68836 
L 236.410558 174.593715 
L 235.611985 174.494486 
L 234.813412 174.394268 
L 234.014838 174.296656 
L 233.216265 174.205248 
L 232.417692 174.123638 
L 231.619119 174.055422 
L 230.820546 174.004197 
L 230.021973 173.973558 
L 229.2234 173.966762 
L 228.424827 173.97846 
L 227.626254 174.00394 
L 226.827681 174.040989 
L 226.029108 174.087393 
L 225.230535 174.140937 
L 224.431962 174.199407 
L 223.633389 174.26059 
L 222.834816 174.322271 
L 222.036243 174.382235 
L 221.23767 174.43827 
L 220.439097 174.488161 
L 219.640524 174.529693 
L 218.841951 174.560654 
L 218.043378 174.578828 
L 217.244805 174.582645 
L 216.446232 174.580694 
L 215.647659 174.576359 
L 214.849086 174.569703 
L 214.050513 174.56079 
L 213.25194 174.549685 
L 212.453367 174.536451 
L 211.654794 174.521153 
L 210.856221 174.503854 
L 210.057648 174.484618 
L 209.259075 174.46351 
L 208.460502 174.440593 
L 207.661929 174.415931 
L 206.863356 174.389588 
L 206.064782 174.361629 
L 205.266209 174.32784 
L 204.467636 174.240496 
L 203.669063 174.094111 
L 202.87049 173.898651 
L 202.071917 173.664078 
L 201.273344 173.400358 
L 200.474771 173.117454 
L 199.676198 172.82533 
L 198.877625 172.53395 
L 198.079052 172.253277 
L 197.280479 171.993277 
L 196.481906 171.763912 
L 195.683333 171.575147 
L 194.88476 171.436946 
L 194.086187 171.359272 
L 193.287614 171.347902 
L 192.489041 171.370103 
L 191.690468 171.415024 
L 190.891895 171.480512 
L 190.093322 171.564413 
L 189.294749 171.664574 
L 188.496176 171.778842 
L 187.697603 171.905062 
L 186.89903 172.041081 
L 186.100457 172.184746 
L 185.301884 172.333902 
L 184.503311 172.486396 
L 183.704738 172.640074 
L 182.906165 172.792784 
L 182.107592 172.94237 
L 181.309019 173.091543 
L 180.510446 173.272373 
L 179.711873 173.485418 
L 178.913299 173.723732 
L 178.114726 173.980368 
L 177.316153 174.248381 
L 176.51758 174.520823 
L 175.719007 174.790748 
L 174.920434 175.051209 
L 174.121861 175.29526 
L 173.323288 175.515954 
L 172.524715 175.706344 
L 171.726142 175.859485 
L 170.927569 175.968428 
L 170.128996 176.026229 
L 169.330423 176.028634 
L 168.53185 175.988973 
L 167.733277 175.913485 
L 166.934704 175.806169 
L 166.136131 175.671026 
L 165.337558 175.512056 
L 164.538985 175.33326 
L 163.740412 175.138636 
L 162.941839 174.932186 
L 162.143266 174.71791 
L 161.344693 174.499807 
L 160.54612 174.281879 
L 159.747547 174.068124 
L 158.948974 173.862544 
L 158.150401 173.669138 
L 157.351828 173.484564 
L 156.553255 173.277226 
L 155.754682 173.047879 
L 154.956109 172.802251 
L 154.157536 172.546067 
L 153.358963 172.285058 
L 152.56039 172.024949 
L 151.761816 171.771468 
L 150.963243 171.530344 
L 150.16467 171.307303 
L 149.366097 171.108074 
L 148.567524 170.938384 
L 147.768951 170.80396 
L 146.970378 170.71053 
L 146.171805 170.663822 
L 145.373232 170.676425 
L 144.574659 170.774316 
L 143.776086 170.948121 
L 142.977513 171.184918 
L 142.17894 171.471787 
L 141.380367 171.795804 
L 140.581794 172.14405 
L 139.783221 172.503602 
L 138.984648 172.861539 
L 138.186075 173.204938 
L 137.387502 173.52088 
L 136.588929 173.796442 
L 135.790356 174.018703 
L 134.991783 174.174741 
L 134.19321 174.251635 
L 133.394637 174.254645 
L 132.596064 174.24016 
L 131.797491 174.214987 
L 130.998918 174.18096 
L 130.200345 174.139913 
L 129.401772 174.093683 
L 128.603199 174.044104 
L 127.804626 173.993011 
L 127.006053 173.942239 
L 126.20748 173.893623 
L 125.408907 173.848998 
L 124.610333 173.8102 
L 123.81176 173.779063 
L 123.013187 173.757422 
L 122.214614 173.747112 
L 121.416041 173.760326 
L 120.617468 173.824277 
L 119.818895 173.933221 
L 119.020322 174.079366 
L 118.221749 174.254923 
L 117.423176 174.4521 
L 116.624603 174.663106 
L 115.82603 174.88015 
L 115.027457 175.09544 
L 114.228884 175.301187 
L 113.430311 175.489599 
L 112.631738 175.652885 
L 111.833165 175.783254 
L 111.034592 175.872915 
L 110.236019 175.914078 
L 109.437446 175.887708 
L 108.638873 175.769585 
L 107.8403 175.572098 
L 107.041727 175.309109 
L 106.243154 174.994481 
L 105.444581 174.642077 
L 104.646008 174.26576 
L 103.847435 173.879392 
L 103.048862 173.496836 
L 102.250289 173.131956 
L 101.451716 172.798613 
L 100.653143 172.510671 
L 99.85457 172.281993 
L 99.055997 172.126441 
L 98.257424 172.057878 
L 97.458851 172.060237 
L 96.660277 172.077883 
L 95.861704 172.108522 
L 95.063131 172.151633 
L 94.264558 172.206695 
L 93.465985 172.273189 
L 92.667412 172.350593 
L 91.868839 172.438388 
L 91.070266 172.536052 
L 90.271693 172.643067 
L 89.47312 172.75891 
L 88.674547 172.883062 
L 87.875974 173.015002 
L 87.077401 173.154209 
L 86.278828 173.300165 
L 85.480255 173.527591 
L 84.681682 173.949171 
L 83.883109 174.536172 
L 83.084536 175.2574 
L 82.285963 176.081662 
L 81.48739 176.977766 
L 80.688817 177.91452 
L 79.890244 178.86073 
L 79.091671 179.785203 
L 78.293098 180.656748 
L 77.494525 181.44417 
L 76.695952 182.116279 
L 75.897379 182.64188 
L 75.098806 182.989781 
L 74.300233 183.128789 
L 73.50166 183.047799 
L 72.703087 182.780668 
L 71.904514 182.355833 
L 71.105941 181.801581 
L 70.307368 181.1462 
L 69.508794 180.417979 
L 68.710221 179.645203 
L 67.911648 178.856163 
L 67.113075 178.079145 
L 66.314502 177.342437 
L 65.515929 176.674326 
L 64.717356 176.103102 
L 63.918783 175.657051 
L 63.12021 175.364461 
L 62.321637 175.25362 
L 61.523064 175.253403 
L 60.724491 175.253765 
L 59.925918 175.254771 
L 59.127345 175.256752 
L 58.328772 175.260039 
L 57.530199 175.264964 
L 56.731626 175.271855 
L 55.933053 175.281044 
L 55.13448 175.292861 
L 54.335907 175.307638 
L 53.537334 175.325705 
L 52.738761 175.347391 
L 51.940188 175.373029 
L 51.141615 175.402949 
L 50.343042 175.43748 
z
" clip-path="url(#p2e63c8e330)" style="fill: url(#he85daf2c82)"/>
   </g>
   <g id="FillBetweenPolyCollection_2">
    <path d="M 50.343042 144.667402 
L 50.343042 175.43748 
L 51.141615 175.402949 
L 51.940188 175.373029 
L 52.738761 175.347391 
L 53.537334 175.325705 
L 54.335907 175.307638 
L 55.13448 175.292861 
L 55.933053 175.281044 
L 56.731626 175.271855 
L 57.530199 175.264964 
L 58.328772 175.260039 
L 59.127345 175.256752 
L 59.925918 175.254771 
L 60.724491 175.253765 
L 61.523064 175.253403 
L 62.321637 175.25362 
L 63.12021 175.364461 
L 63.918783 175.657051 
L 64.717356 176.103102 
L 65.515929 176.674326 
L 66.314502 177.342437 
L 67.113075 178.079145 
L 67.911648 178.856163 
L 68.710221 179.645203 
L 69.508794 180.417979 
L 70.307368 181.1462 
L 71.105941 181.801581 
L 71.904514 182.355833 
L 72.703087 182.780668 
L 73.50166 183.047799 
L 74.300233 183.128789 
L 75.098806 182.989781 
L 75.897379 182.64188 
L 76.695952 182.116279 
L 77.494525 181.44417 
L 78.293098 180.656748 
L 79.091671 179.785203 
L 79.890244 178.86073 
L 80.688817 177.91452 
L 81.48739 176.977766 
L 82.285963 176.081662 
L 83.084536 175.2574 
L 83.883109 174.536172 
L 84.681682 173.949171 
L 85.480255 173.527591 
L 86.278828 173.300165 
L 87.077401 173.154209 
L 87.875974 173.015002 
L 88.674547 172.883062 
L 89.47312 172.75891 
L 90.271693 172.643067 
L 91.070266 172.536052 
L 91.868839 172.438388 
L 92.667412 172.350593 
L 93.465985 172.273189 
L 94.264558 172.206695 
L 95.063131 172.151633 
L 95.861704 172.108522 
L 96.660277 172.077883 
L 97.458851 172.060237 
L 98.257424 172.057878 
L 99.055997 172.126441 
L 99.85457 172.281993 
L 100.653143 172.510671 
L 101.451716 172.798613 
L 102.250289 173.131956 
L 103.048862 173.496836 
L 103.847435 173.879392 
L 104.646008 174.26576 
L 105.444581 174.642077 
L 106.243154 174.994481 
L 107.041727 175.309109 
L 107.8403 175.572098 
L 108.638873 175.769585 
L 109.437446 175.887708 
L 110.236019 175.914078 
L 111.034592 175.872915 
L 111.833165 175.783254 
L 112.631738 175.652885 
L 113.430311 175.489599 
L 114.228884 175.301187 
L 115.027457 175.09544 
L 115.82603 174.88015 
L 116.624603 174.663106 
L 117.423176 174.4521 
L 118.221749 174.254923 
L 119.020322 174.079366 
L 119.818895 173.933221 
L 120.617468 173.824277 
L 121.416041 173.760326 
L 122.214614 173.747112 
L 123.013187 173.757422 
L 123.81176 173.779063 
L 124.610333 173.8102 
L 125.408907 173.848998 
L 126.20748 173.893623 
L 127.006053 173.942239 
L 127.804626 173.993011 
L 128.603199 174.044104 
L 129.401772 174.093683 
L 130.200345 174.139913 
L 130.998918 174.18096 
L 131.797491 174.214987 
L 132.596064 174.24016 
L 133.394637 174.254645 
L 134.19321 174.251635 
L 134.991783 174.174741 
L 135.790356 174.018703 
L 136.588929 173.796442 
L 137.387502 173.52088 
L 138.186075 173.204938 
L 138.984648 172.861539 
L 139.783221 172.503602 
L 140.581794 172.14405 
L 141.380367 171.795804 
L 142.17894 171.471787 
L 142.977513 171.184918 
L 143.776086 170.948121 
L 144.574659 170.774316 
L 145.373232 170.676425 
L 146.171805 170.663822 
L 146.970378 170.71053 
L 147.768951 170.80396 
L 148.567524 170.938384 
L 149.366097 171.108074 
L 150.16467 171.307303 
L 150.963243 171.530344 
L 151.761816 171.771468 
L 152.56039 172.024949 
L 153.358963 172.285058 
L 154.157536 172.546067 
L 154.956109 172.802251 
L 155.754682 173.047879 
L 156.553255 173.277226 
L 157.351828 173.484564 
L 158.150401 173.669138 
L 158.948974 173.862544 
L 159.747547 174.068124 
L 160.54612 174.281879 
L 161.344693 174.499807 
L 162.143266 174.71791 
L 162.941839 174.932186 
L 163.740412 175.138636 
L 164.538985 175.33326 
L 165.337558 175.512056 
L 166.136131 175.671026 
L 166.934704 175.806169 
L 167.733277 175.913485 
L 168.53185 175.988973 
L 169.330423 176.028634 
L 170.128996 176.026229 
L 170.927569 175.968428 
L 171.726142 175.859485 
L 172.524715 175.706344 
L 173.323288 175.515954 
L 174.121861 175.29526 
L 174.920434 175.051209 
L 175.719007 174.790748 
L 176.51758 174.520823 
L 177.316153 174.248381 
L 178.114726 173.980368 
L 178.913299 173.723732 
L 179.711873 173.485418 
L 180.510446 173.272373 
L 181.309019 173.091543 
L 182.107592 172.94237 
L 182.906165 172.792784 
L 183.704738 172.640074 
L 184.503311 172.486396 
L 185.301884 172.333902 
L 186.100457 172.184746 
L 186.89903 172.041081 
L 187.697603 171.905062 
L 188.496176 171.778842 
L 189.294749 171.664574 
L 190.093322 171.564413 
L 190.891895 171.480512 
L 191.690468 171.415024 
L 192.489041 171.370103 
L 193.287614 171.347902 
L 194.086187 171.359272 
L 194.88476 171.436946 
L 195.683333 171.575147 
L 196.481906 171.763912 
L 197.280479 171.993277 
L 198.079052 172.253277 
L 198.877625 172.53395 
L 199.676198 172.82533 
L 200.474771 173.117454 
L 201.273344 173.400358 
L 202.071917 173.664078 
L 202.87049 173.898651 
L 203.669063 174.094111 
L 204.467636 174.240496 
L 205.266209 174.32784 
L 206.064782 174.361629 
L 206.863356 174.389588 
L 207.661929 174.415931 
L 208.460502 174.440593 
L 209.259075 174.46351 
L 210.057648 174.484618 
L 210.856221 174.503854 
L 211.654794 174.521153 
L 212.453367 174.536451 
L 213.25194 174.549685 
L 214.050513 174.56079 
L 214.849086 174.569703 
L 215.647659 174.576359 
L 216.446232 174.580694 
L 217.244805 174.582645 
L 218.043378 174.578828 
L 218.841951 174.560654 
L 219.640524 174.529693 
L 220.439097 174.488161 
L 221.23767 174.43827 
L 222.036243 174.382235 
L 222.834816 174.322271 
L 223.633389 174.26059 
L 224.431962 174.199407 
L 225.230535 174.140937 
L 226.029108 174.087393 
L 226.827681 174.040989 
L 227.626254 174.00394 
L 228.424827 173.97846 
L 229.2234 173.966762 
L 230.021973 173.973558 
L 230.820546 174.004197 
L 231.619119 174.055422 
L 232.417692 174.123638 
L 233.216265 174.205248 
L 234.014838 174.296656 
L 234.813412 174.394268 
L 235.611985 174.494486 
L 236.410558 174.593715 
L 237.209131 174.68836 
L 238.007704 174.774824 
L 238.806277 174.849512 
L 239.60485 174.908828 
L 240.403423 174.949176 
L 241.201996 174.966961 
L 242.000569 174.956782 
L 242.799142 174.915146 
L 243.597715 174.845374 
L 244.396288 174.750946 
L 245.194861 174.635345 
L 245.993434 174.502051 
L 246.792007 174.354545 
L 247.59058 174.196307 
L 248.389153 174.03082 
L 249.187726 173.861564 
L 249.986299 173.69202 
L 250.784872 173.525669 
L 251.583445 173.365992 
L 252.382018 173.216471 
L 253.180591 173.080586 
L 253.979164 172.949673 
L 254.777737 172.805984 
L 255.57631 172.652394 
L 256.374883 172.492152 
L 257.173456 172.328509 
L 257.972029 172.164715 
L 258.770602 172.00402 
L 259.569175 171.849675 
L 260.367748 171.70493 
L 261.166321 171.573036 
L 261.964895 171.457243 
L 262.763468 171.3608 
L 263.562041 171.28696 
L 264.360614 171.238971 
L 265.159187 171.220085 
L 265.95776 171.261771 
L 266.756333 171.397768 
L 267.554906 171.614052 
L 268.353479 171.896222 
L 269.152052 172.229877 
L 269.950625 172.600615 
L 270.749198 172.994036 
L 271.547771 173.395737 
L 272.346344 173.791318 
L 273.144917 174.166377 
L 273.94349 174.506513 
L 274.742063 174.797324 
L 275.540636 175.024409 
L 276.339209 175.173367 
L 277.137782 175.229796 
L 277.936355 175.196439 
L 278.734928 175.090482 
L 279.533501 174.914584 
L 280.332074 174.671367 
L 281.130647 174.363449 
L 281.92922 173.993451 
L 282.727793 173.563991 
L 283.526366 173.07769 
L 284.324939 172.537168 
L 285.123512 171.945043 
L 285.922085 171.303937 
L 286.720658 170.616468 
L 287.519231 169.885257 
L 288.317804 169.112923 
L 289.116378 168.302086 
L 289.116378 83.847446 
L 289.116378 83.847446 
L 288.317804 86.698757 
L 287.519231 89.451905 
L 286.720658 92.092139 
L 285.922085 94.604709 
L 285.123512 96.974862 
L 284.324939 99.187847 
L 283.526366 101.228913 
L 282.727793 103.083309 
L 281.92922 104.736283 
L 281.130647 106.173085 
L 280.332074 107.378961 
L 279.533501 108.339163 
L 278.734928 109.038937 
L 277.936355 109.463533 
L 277.137782 109.598267 
L 276.339209 109.467097 
L 275.540636 109.120844 
L 274.742063 108.592982 
L 273.94349 107.91699 
L 273.144917 107.126342 
L 272.346344 106.254515 
L 271.547771 105.334985 
L 270.749198 104.401227 
L 269.950625 103.486718 
L 269.152052 102.624934 
L 268.353479 101.84935 
L 267.554906 101.193443 
L 266.756333 100.690689 
L 265.95776 100.374564 
L 265.159187 100.27822 
L 264.360614 100.386059 
L 263.562041 100.658423 
L 262.763468 101.074498 
L 261.964895 101.61347 
L 261.166321 102.254526 
L 260.367748 102.976852 
L 259.569175 103.759633 
L 258.770602 104.582057 
L 257.972029 105.423308 
L 257.173456 106.262574 
L 256.374883 107.07904 
L 255.57631 107.851892 
L 254.777737 108.560316 
L 253.979164 109.1835 
L 253.180591 109.702364 
L 252.382018 110.195751 
L 251.583445 110.709756 
L 250.784872 111.236238 
L 249.986299 111.767054 
L 249.187726 112.294064 
L 248.389153 112.809124 
L 247.59058 113.304095 
L 246.792007 113.770833 
L 245.993434 114.201198 
L 245.194861 114.587047 
L 244.396288 114.92024 
L 243.597715 115.192634 
L 242.799142 115.396087 
L 242.000569 115.522458 
L 241.201996 115.564901 
L 240.403423 115.56083 
L 239.60485 115.533302 
L 238.806277 115.485903 
L 238.007704 115.422219 
L 237.209131 115.345833 
L 236.410558 115.260333 
L 235.611985 115.169303 
L 234.813412 115.076328 
L 234.014838 114.984994 
L 233.216265 114.898886 
L 232.417692 114.821589 
L 231.619119 114.756689 
L 230.820546 114.70777 
L 230.021973 114.678419 
L 229.2234 114.66757 
L 228.424827 114.579902 
L 227.626254 114.388942 
L 226.827681 114.111281 
L 226.029108 113.763514 
L 225.230535 113.362234 
L 224.431962 112.924034 
L 223.633389 112.465507 
L 222.834816 112.003246 
L 222.036243 111.553846 
L 221.23767 111.133898 
L 220.439097 110.759997 
L 219.640524 110.448735 
L 218.841951 110.216706 
L 218.043378 110.080503 
L 217.244805 110.05332 
L 216.446232 110.091445 
L 215.647659 110.171234 
L 214.849086 110.285616 
L 214.050513 110.427523 
L 213.25194 110.589886 
L 212.453367 110.765634 
L 211.654794 110.947699 
L 210.856221 111.129012 
L 210.057648 111.302504 
L 209.259075 111.461105 
L 208.460502 111.597745 
L 207.661929 111.705357 
L 206.863356 111.77687 
L 206.064782 111.805216 
L 205.266209 111.778107 
L 204.467636 111.633242 
L 203.669063 111.366142 
L 202.87049 110.991883 
L 202.071917 110.525541 
L 201.273344 109.982191 
L 200.474771 109.376908 
L 199.676198 108.724768 
L 198.877625 108.040845 
L 198.079052 107.340216 
L 197.280479 106.637955 
L 196.481906 105.949138 
L 195.683333 105.28884 
L 194.88476 104.672137 
L 194.086187 104.114103 
L 193.287614 103.608799 
L 192.489041 102.981737 
L 191.690468 102.21463 
L 190.891895 101.337366 
L 190.093322 100.379834 
L 189.294749 99.37192 
L 188.496176 98.343514 
L 187.697603 97.324502 
L 186.89903 96.344774 
L 186.100457 95.434217 
L 185.301884 94.622718 
L 184.503311 93.940166 
L 183.704738 93.41645 
L 182.906165 93.081455 
L 182.107592 92.965072 
L 181.309019 93.102929 
L 180.510446 93.540768 
L 179.711873 94.245147 
L 178.913299 95.170226 
L 178.114726 96.270167 
L 177.316153 97.499132 
L 176.51758 98.811282 
L 175.719007 100.160779 
L 174.920434 101.501785 
L 174.121861 102.788461 
L 173.323288 103.974969 
L 172.524715 105.01547 
L 171.726142 105.864126 
L 170.927569 106.475098 
L 170.128996 106.802548 
L 169.330423 106.828191 
L 168.53185 106.695241 
L 167.733277 106.446069 
L 166.934704 106.098131 
L 166.136131 105.668881 
L 165.337558 105.175775 
L 164.538985 104.636268 
L 163.740412 104.067816 
L 162.941839 103.487874 
L 162.143266 102.913897 
L 161.344693 102.36334 
L 160.54612 101.853659 
L 159.747547 101.402309 
L 158.948974 101.026745 
L 158.150401 100.744423 
L 157.351828 100.633937 
L 156.553255 100.980203 
L 155.754682 101.757869 
L 154.956109 102.897729 
L 154.157536 104.330579 
L 153.358963 105.987215 
L 152.56039 107.79843 
L 151.761816 109.695022 
L 150.963243 111.607785 
L 150.16467 113.467513 
L 149.366097 115.205003 
L 148.567524 116.75105 
L 147.768951 118.036448 
L 146.970378 118.991994 
L 146.171805 119.548481 
L 145.373232 119.74074 
L 144.574659 119.95278 
L 143.776086 120.219847 
L 142.977513 120.532545 
L 142.17894 120.881479 
L 141.380367 121.257253 
L 140.581794 121.650472 
L 139.783221 122.051738 
L 138.984648 122.451657 
L 138.186075 122.840832 
L 137.387502 123.209868 
L 136.588929 123.54937 
L 135.790356 123.84994 
L 134.991783 124.102184 
L 134.19321 124.296706 
L 133.394637 124.510446 
L 132.596064 125.01484 
L 131.797491 125.789908 
L 130.998918 126.7899 
L 130.200345 127.969062 
L 129.401772 129.281641 
L 128.603199 130.681885 
L 127.804626 132.124042 
L 127.006053 133.562359 
L 126.20748 134.951083 
L 125.408907 136.244461 
L 124.610333 137.396742 
L 123.81176 138.362173 
L 123.013187 139.095001 
L 122.214614 139.549473 
L 121.416041 139.776759 
L 120.617468 140.029996 
L 119.818895 140.318066 
L 119.020322 140.632613 
L 118.221749 140.96528 
L 117.423176 141.30771 
L 116.624603 141.651545 
L 115.82603 141.988428 
L 115.027457 142.310003 
L 114.228884 142.607913 
L 113.430311 142.873799 
L 112.631738 143.099306 
L 111.833165 143.276076 
L 111.034592 143.395752 
L 110.236019 143.449976 
L 109.437446 143.25025 
L 108.638873 142.402893 
L 107.8403 140.986212 
L 107.041727 139.099652 
L 106.243154 136.842658 
L 105.444581 134.314675 
L 104.646008 131.61515 
L 103.847435 128.843526 
L 103.048862 126.09925 
L 102.250289 123.481767 
L 101.451716 121.090522 
L 100.653143 119.02496 
L 99.85457 117.384527 
L 99.055997 116.268668 
L 98.257424 115.776828 
L 97.458851 115.996498 
L 96.660277 116.894641 
L 95.861704 118.371615 
L 95.063131 120.327191 
L 94.264558 122.661143 
L 93.465985 125.273242 
L 92.667412 128.063262 
L 91.868839 130.930974 
L 91.070266 133.776152 
L 90.271693 136.498566 
L 89.47312 138.997991 
L 88.674547 141.174199 
L 87.875974 142.926961 
L 87.077401 144.156051 
L 86.278828 144.761241 
L 85.480255 144.903467 
L 84.681682 144.996065 
L 83.883109 145.051582 
L 83.084536 145.074824 
L 82.285963 145.070601 
L 81.48739 145.043718 
L 80.688817 144.998984 
L 79.890244 144.941207 
L 79.091671 144.875193 
L 78.293098 144.80575 
L 77.494525 144.737687 
L 76.695952 144.67581 
L 75.897379 144.624926 
L 75.098806 144.589845 
L 74.300233 144.575372 
L 73.50166 144.638523 
L 72.703087 144.844166 
L 71.904514 145.171213 
L 71.105941 145.597887 
L 70.307368 146.102412 
L 69.508794 146.663012 
L 68.710221 147.25791 
L 67.911648 147.86533 
L 67.113075 148.463494 
L 66.314502 149.030627 
L 65.515929 149.544952 
L 64.717356 149.984692 
L 63.918783 150.328071 
L 63.12021 150.553313 
L 62.321637 150.638641 
L 61.523064 150.628753 
L 60.724491 150.59211 
L 59.925918 150.522229 
L 59.127345 150.412453 
L 58.328772 150.256123 
L 57.530199 150.04658 
L 56.731626 149.777164 
L 55.933053 149.441218 
L 55.13448 149.032082 
L 54.335907 148.543099 
L 53.537334 147.967608 
L 52.738761 147.298952 
L 51.940188 146.530471 
L 51.141615 145.655507 
L 50.343042 144.667402 
z
" clip-path="url(#p2e63c8e330)" style="fill: url(#h43ac1aa910)"/>
   </g>
   <g id="FillBetweenPolyCollection_3">
    <path d="M 50.343042 144.667402 
L 50.343042 144.667402 
L 51.141615 145.655507 
L 51.940188 146.530471 
L 52.738761 147.298952 
L 53.537334 147.967608 
L 54.335907 148.543099 
L 55.13448 149.032082 
L 55.933053 149.441218 
L 56.731626 149.777164 
L 57.530199 150.04658 
L 58.328772 150.256123 
L 59.127345 150.412453 
L 59.925918 150.522229 
L 60.724491 150.59211 
L 61.523064 150.628753 
L 62.321637 150.638641 
L 63.12021 150.553313 
L 63.918783 150.328071 
L 64.717356 149.984692 
L 65.515929 149.544952 
L 66.314502 149.030627 
L 67.113075 148.463494 
L 67.911648 147.86533 
L 68.710221 147.25791 
L 69.508794 146.663012 
L 70.307368 146.102412 
L 71.105941 145.597887 
L 71.904514 145.171213 
L 72.703087 144.844166 
L 73.50166 144.638523 
L 74.300233 144.575372 
L 75.098806 144.589845 
L 75.897379 144.624926 
L 76.695952 144.67581 
L 77.494525 144.737687 
L 78.293098 144.80575 
L 79.091671 144.875193 
L 79.890244 144.941207 
L 80.688817 144.998984 
L 81.48739 145.043718 
L 82.285963 145.070601 
L 83.084536 145.074824 
L 83.883109 145.051582 
L 84.681682 144.996065 
L 85.480255 144.903467 
L 86.278828 144.761241 
L 87.077401 144.156051 
L 87.875974 142.926961 
L 88.674547 141.174199 
L 89.47312 138.997991 
L 90.271693 136.498566 
L 91.070266 133.776152 
L 91.868839 130.930974 
L 92.667412 128.063262 
L 93.465985 125.273242 
L 94.264558 122.661143 
L 95.063131 120.327191 
L 95.861704 118.371615 
L 96.660277 116.894641 
L 97.458851 115.996498 
L 98.257424 115.776828 
L 99.055997 116.268668 
L 99.85457 117.384527 
L 100.653143 119.02496 
L 101.451716 121.090522 
L 102.250289 123.481767 
L 103.048862 126.09925 
L 103.847435 128.843526 
L 104.646008 131.61515 
L 105.444581 134.314675 
L 106.243154 136.842658 
L 107.041727 139.099652 
L 107.8403 140.986212 
L 108.638873 142.402893 
L 109.437446 143.25025 
L 110.236019 143.449976 
L 111.034592 143.395752 
L 111.833165 143.276076 
L 112.631738 143.099306 
L 113.430311 142.873799 
L 114.228884 142.607913 
L 115.027457 142.310003 
L 115.82603 141.988428 
L 116.624603 141.651545 
L 117.423176 141.30771 
L 118.221749 140.96528 
L 119.020322 140.632613 
L 119.818895 140.318066 
L 120.617468 140.029996 
L 121.416041 139.776759 
L 122.214614 139.549473 
L 123.013187 139.095001 
L 123.81176 138.362173 
L 124.610333 137.396742 
L 125.408907 136.244461 
L 126.20748 134.951083 
L 127.006053 133.562359 
L 127.804626 132.124042 
L 128.603199 130.681885 
L 129.401772 129.281641 
L 130.200345 127.969062 
L 130.998918 126.7899 
L 131.797491 125.789908 
L 132.596064 125.01484 
L 133.394637 124.510446 
L 134.19321 124.296706 
L 134.991783 124.102184 
L 135.790356 123.84994 
L 136.588929 123.54937 
L 137.387502 123.209868 
L 138.186075 122.840832 
L 138.984648 122.451657 
L 139.783221 122.051738 
L 140.581794 121.650472 
L 141.380367 121.257253 
L 142.17894 120.881479 
L 142.977513 120.532545 
L 143.776086 120.219847 
L 144.574659 119.95278 
L 145.373232 119.74074 
L 146.171805 119.548481 
L 146.970378 118.991994 
L 147.768951 118.036448 
L 148.567524 116.75105 
L 149.366097 115.205003 
L 150.16467 113.467513 
L 150.963243 111.607785 
L 151.761816 109.695022 
L 152.56039 107.79843 
L 153.358963 105.987215 
L 154.157536 104.330579 
L 154.956109 102.897729 
L 155.754682 101.757869 
L 156.553255 100.980203 
L 157.351828 100.633937 
L 158.150401 100.744423 
L 158.948974 101.026745 
L 159.747547 101.402309 
L 160.54612 101.853659 
L 161.344693 102.36334 
L 162.143266 102.913897 
L 162.941839 103.487874 
L 163.740412 104.067816 
L 164.538985 104.636268 
L 165.337558 105.175775 
L 166.136131 105.668881 
L 166.934704 106.098131 
L 167.733277 106.446069 
L 168.53185 106.695241 
L 169.330423 106.828191 
L 170.128996 106.802548 
L 170.927569 106.475098 
L 171.726142 105.864126 
L 172.524715 105.01547 
L 173.323288 103.974969 
L 174.121861 102.788461 
L 174.920434 101.501785 
L 175.719007 100.160779 
L 176.51758 98.811282 
L 177.316153 97.499132 
L 178.114726 96.270167 
L 178.913299 95.170226 
L 179.711873 94.245147 
L 180.510446 93.540768 
L 181.309019 93.102929 
L 182.107592 92.965072 
L 182.906165 93.081455 
L 183.704738 93.41645 
L 184.503311 93.940166 
L 185.301884 94.622718 
L 186.100457 95.434217 
L 186.89903 96.344774 
L 187.697603 97.324502 
L 188.496176 98.343514 
L 189.294749 99.37192 
L 190.093322 100.379834 
L 190.891895 101.337366 
L 191.690468 102.21463 
L 192.489041 102.981737 
L 193.287614 103.608799 
L 194.086187 104.114103 
L 194.88476 104.672137 
L 195.683333 105.28884 
L 196.481906 105.949138 
L 197.280479 106.637955 
L 198.079052 107.340216 
L 198.877625 108.040845 
L 199.676198 108.724768 
L 200.474771 109.376908 
L 201.273344 109.982191 
L 202.071917 110.525541 
L 202.87049 110.991883 
L 203.669063 111.366142 
L 204.467636 111.633242 
L 205.266209 111.778107 
L 206.064782 111.805216 
L 206.863356 111.77687 
L 207.661929 111.705357 
L 208.460502 111.597745 
L 209.259075 111.461105 
L 210.057648 111.302504 
L 210.856221 111.129012 
L 211.654794 110.947699 
L 212.453367 110.765634 
L 213.25194 110.589886 
L 214.050513 110.427523 
L 214.849086 110.285616 
L 215.647659 110.171234 
L 216.446232 110.091445 
L 217.244805 110.05332 
L 218.043378 110.080503 
L 218.841951 110.216706 
L 219.640524 110.448735 
L 220.439097 110.759997 
L 221.23767 111.133898 
L 222.036243 111.553846 
L 222.834816 112.003246 
L 223.633389 112.465507 
L 224.431962 112.924034 
L 225.230535 113.362234 
L 226.029108 113.763514 
L 226.827681 114.111281 
L 227.626254 114.388942 
L 228.424827 114.579902 
L 229.2234 114.66757 
L 230.021973 114.678419 
L 230.820546 114.70777 
L 231.619119 114.756689 
L 232.417692 114.821589 
L 233.216265 114.898886 
L 234.014838 114.984994 
L 234.813412 115.076328 
L 235.611985 115.169303 
L 236.410558 115.260333 
L 237.209131 115.345833 
L 238.007704 115.422219 
L 238.806277 115.485903 
L 239.60485 115.533302 
L 240.403423 115.56083 
L 241.201996 115.564901 
L 242.000569 115.522458 
L 242.799142 115.396087 
L 243.597715 115.192634 
L 244.396288 114.92024 
L 245.194861 114.587047 
L 245.993434 114.201198 
L 246.792007 113.770833 
L 247.59058 113.304095 
L 248.389153 112.809124 
L 249.187726 112.294064 
L 249.986299 111.767054 
L 250.784872 111.236238 
L 251.583445 110.709756 
L 252.382018 110.195751 
L 253.180591 109.702364 
L 253.979164 109.1835 
L 254.777737 108.560316 
L 255.57631 107.851892 
L 256.374883 107.07904 
L 257.173456 106.262574 
L 257.972029 105.423308 
L 258.770602 104.582057 
L 259.569175 103.759633 
L 260.367748 102.976852 
L 261.166321 102.254526 
L 261.964895 101.61347 
L 262.763468 101.074498 
L 263.562041 100.658423 
L 264.360614 100.386059 
L 265.159187 100.27822 
L 265.95776 100.374564 
L 266.756333 100.690689 
L 267.554906 101.193443 
L 268.353479 101.84935 
L 269.152052 102.624934 
L 269.950625 103.486718 
L 270.749198 104.401227 
L 271.547771 105.334985 
L 272.346344 106.254515 
L 273.144917 107.126342 
L 273.94349 107.91699 
L 274.742063 108.592982 
L 275.540636 109.120844 
L 276.339209 109.467097 
L 277.137782 109.598267 
L 277.936355 109.463533 
L 278.734928 109.038937 
L 279.533501 108.339163 
L 280.332074 107.378961 
L 281.130647 106.173085 
L 281.92922 104.736283 
L 282.727793 103.083309 
L 283.526366 101.228913 
L 284.324939 99.187847 
L 285.123512 96.974862 
L 285.922085 94.604709 
L 286.720658 92.092139 
L 287.519231 89.451905 
L 288.317804 86.698757 
L 289.116378 83.847446 
L 289.116378 83.847446 
L 289.116378 83.847446 
L 288.317804 86.698757 
L 287.519231 89.451905 
L 286.720658 92.092139 
L 285.922085 94.604709 
L 285.123512 96.974862 
L 284.324939 99.187847 
L 283.526366 101.228913 
L 282.727793 103.083309 
L 281.92922 104.736283 
L 281.130647 106.173085 
L 280.332074 107.378961 
L 279.533501 108.339163 
L 278.734928 109.038937 
L 277.936355 109.463533 
L 277.137782 109.598267 
L 276.339209 109.467097 
L 275.540636 109.120844 
L 274.742063 108.592982 
L 273.94349 107.91699 
L 273.144917 107.126342 
L 272.346344 106.254515 
L 271.547771 105.334985 
L 270.749198 104.401227 
L 269.950625 103.486718 
L 269.152052 102.624934 
L 268.353479 101.84935 
L 267.554906 101.193443 
L 266.756333 100.690689 
L 265.95776 100.374564 
L 265.159187 100.27822 
L 264.360614 100.386059 
L 263.562041 100.658423 
L 262.763468 101.074498 
L 261.964895 101.61347 
L 261.166321 102.254526 
L 260.367748 102.976852 
L 259.569175 103.759633 
L 258.770602 104.582057 
L 257.972029 105.423308 
L 257.173456 106.262574 
L 256.374883 107.07904 
L 255.57631 107.851892 
L 254.777737 108.560316 
L 253.979164 109.1835 
L 253.180591 109.702364 
L 252.382018 110.195751 
L 251.583445 110.709756 
L 250.784872 111.236238 
L 249.986299 111.767054 
L 249.187726 112.294064 
L 248.389153 112.809124 
L 247.59058 113.304095 
L 246.792007 113.770833 
L 245.993434 114.201198 
L 245.194861 114.587047 
L 244.396288 114.92024 
L 243.597715 115.192634 
L 242.799142 115.396087 
L 242.000569 115.522458 
L 241.201996 115.564901 
L 240.403423 115.56083 
L 239.60485 115.533302 
L 238.806277 115.485903 
L 238.007704 115.422219 
L 237.209131 115.345833 
L 236.410558 115.260333 
L 235.611985 115.169303 
L 234.813412 115.076328 
L 234.014838 114.984994 
L 233.216265 114.898886 
L 232.417692 114.821589 
L 231.619119 114.756689 
L 230.820546 114.70777 
L 230.021973 114.678419 
L 229.2234 114.66757 
L 228.424827 114.579902 
L 227.626254 114.388942 
L 226.827681 114.111281 
L 226.029108 113.763514 
L 225.230535 113.362234 
L 224.431962 112.924034 
L 223.633389 112.465507 
L 222.834816 112.003246 
L 222.036243 111.553846 
L 221.23767 111.133898 
L 220.439097 110.759997 
L 219.640524 110.448735 
L 218.841951 110.216706 
L 218.043378 110.080503 
L 217.244805 110.05332 
L 216.446232 110.091445 
L 215.647659 110.171234 
L 214.849086 110.285616 
L 214.050513 110.427523 
L 213.25194 110.589886 
L 212.453367 110.765634 
L 211.654794 110.947699 
L 210.856221 111.129012 
L 210.057648 111.302504 
L 209.259075 111.461105 
L 208.460502 111.597745 
L 207.661929 111.705357 
L 206.863356 111.77687 
L 206.064782 111.805216 
L 205.266209 111.778107 
L 204.467636 111.633242 
L 203.669063 111.366142 
L 202.87049 110.991883 
L 202.071917 110.525541 
L 201.273344 109.982191 
L 200.474771 109.376908 
L 199.676198 108.724768 
L 198.877625 108.040845 
L 198.079052 107.340216 
L 197.280479 106.637955 
L 196.481906 105.949138 
L 195.683333 105.28884 
L 194.88476 104.672137 
L 194.086187 104.114103 
L 193.287614 103.608799 
L 192.489041 102.981737 
L 191.690468 102.21463 
L 190.891895 101.337366 
L 190.093322 100.379834 
L 189.294749 99.37192 
L 188.496176 98.343514 
L 187.697603 97.324502 
L 186.89903 96.344774 
L 186.100457 95.434217 
L 185.301884 94.622718 
L 184.503311 93.940166 
L 183.704738 93.41645 
L 182.906165 93.081455 
L 182.107592 92.965072 
L 181.309019 93.102929 
L 180.510446 93.540768 
L 179.711873 94.245147 
L 178.913299 95.170226 
L 178.114726 96.270167 
L 177.316153 97.499132 
L 176.51758 98.811282 
L 175.719007 100.160779 
L 174.920434 101.501785 
L 174.121861 102.788461 
L 173.323288 103.974969 
L 172.524715 105.01547 
L 171.726142 105.864126 
L 170.927569 106.475098 
L 170.128996 106.802548 
L 169.330423 106.828191 
L 168.53185 106.695241 
L 167.733277 106.446069 
L 166.934704 106.098131 
L 166.136131 105.668881 
L 165.337558 105.175775 
L 164.538985 104.636268 
L 163.740412 104.067816 
L 162.941839 103.487874 
L 162.143266 102.913897 
L 161.344693 102.36334 
L 160.54612 101.853659 
L 159.747547 101.402309 
L 158.948974 101.026745 
L 158.150401 100.744423 
L 157.351828 100.633937 
L 156.553255 100.980203 
L 155.754682 101.757869 
L 154.956109 102.897729 
L 154.157536 104.330579 
L 153.358963 105.987215 
L 152.56039 107.79843 
L 151.761816 109.695022 
L 150.963243 111.607785 
L 150.16467 113.467513 
L 149.366097 115.205003 
L 148.567524 116.75105 
L 147.768951 118.036448 
L 146.970378 118.991994 
L 146.171805 119.548481 
L 145.373232 119.74074 
L 144.574659 119.95278 
L 143.776086 120.219847 
L 142.977513 120.532545 
L 142.17894 120.881479 
L 141.380367 121.257253 
L 140.581794 121.650472 
L 139.783221 122.051738 
L 138.984648 122.451657 
L 138.186075 122.840832 
L 137.387502 123.209868 
L 136.588929 123.54937 
L 135.790356 123.84994 
L 134.991783 124.102184 
L 134.19321 124.296706 
L 133.394637 124.510446 
L 132.596064 125.01484 
L 131.797491 125.789908 
L 130.998918 126.7899 
L 130.200345 127.969062 
L 129.401772 129.281641 
L 128.603199 130.681885 
L 127.804626 132.124042 
L 127.006053 133.562359 
L 126.20748 134.951083 
L 125.408907 136.244461 
L 124.610333 137.396742 
L 123.81176 138.362173 
L 123.013187 139.095001 
L 122.214614 139.549473 
L 121.416041 139.776759 
L 120.617468 140.029996 
L 119.818895 140.318066 
L 119.020322 140.632613 
L 118.221749 140.96528 
L 117.423176 141.30771 
L 116.624603 141.651545 
L 115.82603 141.988428 
L 115.027457 142.310003 
L 114.228884 142.607913 
L 113.430311 142.873799 
L 112.631738 143.099306 
L 111.833165 143.276076 
L 111.034592 143.395752 
L 110.236019 143.449976 
L 109.437446 143.25025 
L 108.638873 142.402893 
L 107.8403 140.986212 
L 107.041727 139.099652 
L 106.243154 136.842658 
L 105.444581 134.314675 
L 104.646008 131.61515 
L 103.847435 128.843526 
L 103.048862 126.09925 
L 102.250289 123.481767 
L 101.451716 121.090522 
L 100.653143 119.02496 
L 99.85457 117.384527 
L 99.055997 116.268668 
L 98.257424 115.776828 
L 97.458851 115.996498 
L 96.660277 116.894641 
L 95.861704 118.371615 
L 95.063131 120.327191 
L 94.264558 122.661143 
L 93.465985 125.273242 
L 92.667412 128.063262 
L 91.868839 130.930974 
L 91.070266 133.776152 
L 90.271693 136.498566 
L 89.47312 138.997991 
L 88.674547 141.174199 
L 87.875974 142.926961 
L 87.077401 144.156051 
L 86.278828 144.761241 
L 85.480255 144.903467 
L 84.681682 144.996065 
L 83.883109 145.051582 
L 83.084536 145.074824 
L 82.285963 145.070601 
L 81.48739 145.043718 
L 80.688817 144.998984 
L 79.890244 144.941207 
L 79.091671 144.875193 
L 78.293098 144.80575 
L 77.494525 144.737687 
L 76.695952 144.67581 
L 75.897379 144.624926 
L 75.098806 144.589845 
L 74.300233 144.575372 
L 73.50166 144.638523 
L 72.703087 144.844166 
L 71.904514 145.171213 
L 71.105941 145.597887 
L 70.307368 146.102412 
L 69.508794 146.663012 
L 68.710221 147.25791 
L 67.911648 147.86533 
L 67.113075 148.463494 
L 66.314502 149.030627 
L 65.515929 149.544952 
L 64.717356 149.984692 
L 63.918783 150.328071 
L 63.12021 150.553313 
L 62.321637 150.638641 
L 61.523064 150.628753 
L 60.724491 150.59211 
L 59.925918 150.522229 
L 59.127345 150.412453 
L 58.328772 150.256123 
L 57.530199 150.04658 
L 56.731626 149.777164 
L 55.933053 149.441218 
L 55.13448 149.032082 
L 54.335907 148.543099 
L 53.537334 147.967608 
L 52.738761 147.298952 
L 51.940188 146.530471 
L 51.141615 145.655507 
L 50.343042 144.667402 
z
" clip-path="url(#p2e63c8e330)" style="fill: url(#h6884ed04a7)"/>
   </g>
   <g id="FillBetweenPolyCollection_4">
    <path d="M 50.343042 136.974882 
L 50.343042 144.667402 
L 51.141615 145.655507 
L 51.940188 146.530471 
L 52.738761 147.298952 
L 53.537334 147.967608 
L 54.335907 148.543099 
L 55.13448 149.032082 
L 55.933053 149.441218 
L 56.731626 149.777164 
L 57.530199 150.04658 
L 58.328772 150.256123 
L 59.127345 150.412453 
L 59.925918 150.522229 
L 60.724491 150.59211 
L 61.523064 150.628753 
L 62.321637 150.638641 
L 63.12021 150.553313 
L 63.918783 150.328071 
L 64.717356 149.984692 
L 65.515929 149.544952 
L 66.314502 149.030627 
L 67.113075 148.463494 
L 67.911648 147.86533 
L 68.710221 147.25791 
L 69.508794 146.663012 
L 70.307368 146.102412 
L 71.105941 145.597887 
L 71.904514 145.171213 
L 72.703087 144.844166 
L 73.50166 144.638523 
L 74.300233 144.575372 
L 75.098806 144.589845 
L 75.897379 144.624926 
L 76.695952 144.67581 
L 77.494525 144.737687 
L 78.293098 144.80575 
L 79.091671 144.875193 
L 79.890244 144.941207 
L 80.688817 144.998984 
L 81.48739 145.043718 
L 82.285963 145.070601 
L 83.084536 145.074824 
L 83.883109 145.051582 
L 84.681682 144.996065 
L 85.480255 144.903467 
L 86.278828 144.761241 
L 87.077401 144.156051 
L 87.875974 142.926961 
L 88.674547 141.174199 
L 89.47312 138.997991 
L 90.271693 136.498566 
L 91.070266 133.776152 
L 91.868839 130.930974 
L 92.667412 128.063262 
L 93.465985 125.273242 
L 94.264558 122.661143 
L 95.063131 120.327191 
L 95.861704 118.371615 
L 96.660277 116.894641 
L 97.458851 115.996498 
L 98.257424 115.776828 
L 99.055997 116.268668 
L 99.85457 117.384527 
L 100.653143 119.02496 
L 101.451716 121.090522 
L 102.250289 123.481767 
L 103.048862 126.09925 
L 103.847435 128.843526 
L 104.646008 131.61515 
L 105.444581 134.314675 
L 106.243154 136.842658 
L 107.041727 139.099652 
L 107.8403 140.986212 
L 108.638873 142.402893 
L 109.437446 143.25025 
L 110.236019 143.449976 
L 111.034592 143.395752 
L 111.833165 143.276076 
L 112.631738 143.099306 
L 113.430311 142.873799 
L 114.228884 142.607913 
L 115.027457 142.310003 
L 115.82603 141.988428 
L 116.624603 141.651545 
L 117.423176 141.30771 
L 118.221749 140.96528 
L 119.020322 140.632613 
L 119.818895 140.318066 
L 120.617468 140.029996 
L 121.416041 139.776759 
L 122.214614 139.549473 
L 123.013187 139.095001 
L 123.81176 138.362173 
L 124.610333 137.396742 
L 125.408907 136.244461 
L 126.20748 134.951083 
L 127.006053 133.562359 
L 127.804626 132.124042 
L 128.603199 130.681885 
L 129.401772 129.281641 
L 130.200345 127.969062 
L 130.998918 126.7899 
L 131.797491 125.789908 
L 132.596064 125.01484 
L 133.394637 124.510446 
L 134.19321 124.296706 
L 134.991783 124.102184 
L 135.790356 123.84994 
L 136.588929 123.54937 
L 137.387502 123.209868 
L 138.186075 122.840832 
L 138.984648 122.451657 
L 139.783221 122.051738 
L 140.581794 121.650472 
L 141.380367 121.257253 
L 142.17894 120.881479 
L 142.977513 120.532545 
L 143.776086 120.219847 
L 144.574659 119.95278 
L 145.373232 119.74074 
L 146.171805 119.548481 
L 146.970378 118.991994 
L 147.768951 118.036448 
L 148.567524 116.75105 
L 149.366097 115.205003 
L 150.16467 113.467513 
L 150.963243 111.607785 
L 151.761816 109.695022 
L 152.56039 107.79843 
L 153.358963 105.987215 
L 154.157536 104.330579 
L 154.956109 102.897729 
L 155.754682 101.757869 
L 156.553255 100.980203 
L 157.351828 100.633937 
L 158.150401 100.744423 
L 158.948974 101.026745 
L 159.747547 101.402309 
L 160.54612 101.853659 
L 161.344693 102.36334 
L 162.143266 102.913897 
L 162.941839 103.487874 
L 163.740412 104.067816 
L 164.538985 104.636268 
L 165.337558 105.175775 
L 166.136131 105.668881 
L 166.934704 106.098131 
L 167.733277 106.446069 
L 168.53185 106.695241 
L 169.330423 106.828191 
L 170.128996 106.802548 
L 170.927569 106.475098 
L 171.726142 105.864126 
L 172.524715 105.01547 
L 173.323288 103.974969 
L 174.121861 102.788461 
L 174.920434 101.501785 
L 175.719007 100.160779 
L 176.51758 98.811282 
L 177.316153 97.499132 
L 178.114726 96.270167 
L 178.913299 95.170226 
L 179.711873 94.245147 
L 180.510446 93.540768 
L 181.309019 93.102929 
L 182.107592 92.965072 
L 182.906165 93.081455 
L 183.704738 93.41645 
L 184.503311 93.940166 
L 185.301884 94.622718 
L 186.100457 95.434217 
L 186.89903 96.344774 
L 187.697603 97.324502 
L 188.496176 98.343514 
L 189.294749 99.37192 
L 190.093322 100.379834 
L 190.891895 101.337366 
L 191.690468 102.21463 
L 192.489041 102.981737 
L 193.287614 103.608799 
L 194.086187 104.114103 
L 194.88476 104.672137 
L 195.683333 105.28884 
L 196.481906 105.949138 
L 197.280479 106.637955 
L 198.079052 107.340216 
L 198.877625 108.040845 
L 199.676198 108.724768 
L 200.474771 109.376908 
L 201.273344 109.982191 
L 202.071917 110.525541 
L 202.87049 110.991883 
L 203.669063 111.366142 
L 204.467636 111.633242 
L 205.266209 111.778107 
L 206.064782 111.805216 
L 206.863356 111.77687 
L 207.661929 111.705357 
L 208.460502 111.597745 
L 209.259075 111.461105 
L 210.057648 111.302504 
L 210.856221 111.129012 
L 211.654794 110.947699 
L 212.453367 110.765634 
L 213.25194 110.589886 
L 214.050513 110.427523 
L 214.849086 110.285616 
L 215.647659 110.171234 
L 216.446232 110.091445 
L 217.244805 110.05332 
L 218.043378 110.080503 
L 218.841951 110.216706 
L 219.640524 110.448735 
L 220.439097 110.759997 
L 221.23767 111.133898 
L 222.036243 111.553846 
L 222.834816 112.003246 
L 223.633389 112.465507 
L 224.431962 112.924034 
L 225.230535 113.362234 
L 226.029108 113.763514 
L 226.827681 114.111281 
L 227.626254 114.388942 
L 228.424827 114.579902 
L 229.2234 114.66757 
L 230.021973 114.678419 
L 230.820546 114.70777 
L 231.619119 114.756689 
L 232.417692 114.821589 
L 233.216265 114.898886 
L 234.014838 114.984994 
L 234.813412 115.076328 
L 235.611985 115.169303 
L 236.410558 115.260333 
L 237.209131 115.345833 
L 238.007704 115.422219 
L 238.806277 115.485903 
L 239.60485 115.533302 
L 240.403423 115.56083 
L 241.201996 115.564901 
L 242.000569 115.522458 
L 242.799142 115.396087 
L 243.597715 115.192634 
L 244.396288 114.92024 
L 245.194861 114.587047 
L 245.993434 114.201198 
L 246.792007 113.770833 
L 247.59058 113.304095 
L 248.389153 112.809124 
L 249.187726 112.294064 
L 249.986299 111.767054 
L 250.784872 111.236238 
L 251.583445 110.709756 
L 252.382018 110.195751 
L 253.180591 109.702364 
L 253.979164 109.1835 
L 254.777737 108.560316 
L 255.57631 107.851892 
L 256.374883 107.07904 
L 257.173456 106.262574 
L 257.972029 105.423308 
L 258.770602 104.582057 
L 259.569175 103.759633 
L 260.367748 102.976852 
L 261.166321 102.254526 
L 261.964895 101.61347 
L 262.763468 101.074498 
L 263.562041 100.658423 
L 264.360614 100.386059 
L 265.159187 100.27822 
L 265.95776 100.374564 
L 266.756333 100.690689 
L 267.554906 101.193443 
L 268.353479 101.84935 
L 269.152052 102.624934 
L 269.950625 103.486718 
L 270.749198 104.401227 
L 271.547771 105.334985 
L 272.346344 106.254515 
L 273.144917 107.126342 
L 273.94349 107.91699 
L 274.742063 108.592982 
L 275.540636 109.120844 
L 276.339209 109.467097 
L 277.137782 109.598267 
L 277.936355 109.463533 
L 278.734928 109.038937 
L 279.533501 108.339163 
L 280.332074 107.378961 
L 281.130647 106.173085 
L 281.92922 104.736283 
L 282.727793 103.083309 
L 283.526366 101.228913 
L 284.324939 99.187847 
L 285.123512 96.974862 
L 285.922085 94.604709 
L 286.720658 92.092139 
L 287.519231 89.451905 
L 288.317804 86.698757 
L 289.116378 83.847446 
L 289.116378 51.612851 
L 289.116378 51.612851 
L 288.317804 55.752084 
L 287.519231 59.779812 
L 286.720658 63.670009 
L 285.922085 67.396649 
L 285.123512 70.933707 
L 284.324939 74.255158 
L 283.526366 77.334976 
L 282.727793 80.147135 
L 281.92922 82.665609 
L 281.130647 84.864374 
L 280.332074 86.717404 
L 279.533501 88.198673 
L 278.734928 89.282156 
L 277.936355 89.941826 
L 277.137782 90.151938 
L 276.339209 90.019498 
L 275.540636 89.669703 
L 274.742063 89.136079 
L 273.94349 88.452156 
L 273.144917 87.65146 
L 272.346344 86.767519 
L 271.547771 85.833861 
L 270.749198 84.884014 
L 269.950625 83.951505 
L 269.152052 83.069863 
L 268.353479 82.272614 
L 267.554906 81.593288 
L 266.756333 81.065411 
L 265.95776 80.722511 
L 265.159187 80.597375 
L 264.360614 80.627414 
L 263.562041 80.749213 
L 262.763468 80.953675 
L 261.964895 81.231705 
L 261.166321 81.574209 
L 260.367748 81.97209 
L 259.569175 82.416253 
L 258.770602 82.897604 
L 257.972029 83.407048 
L 257.173456 83.935488 
L 256.374883 84.473829 
L 255.57631 85.012977 
L 254.777737 85.543837 
L 253.979164 86.057312 
L 253.180591 86.545085 
L 252.382018 87.041577 
L 251.583445 87.56339 
L 250.784872 88.102285 
L 249.986299 88.650022 
L 249.187726 89.198361 
L 248.389153 89.739065 
L 247.59058 90.263892 
L 246.792007 90.764604 
L 245.993434 91.232961 
L 245.194861 91.660725 
L 244.396288 92.039656 
L 243.597715 92.361513 
L 242.799142 92.618059 
L 242.000569 92.801054 
L 241.201996 92.907482 
L 240.403423 93.097733 
L 239.60485 93.433132 
L 238.806277 93.889745 
L 238.007704 94.443636 
L 237.209131 95.07087 
L 236.410558 95.747513 
L 235.611985 96.449629 
L 234.813412 97.153283 
L 234.014838 97.834541 
L 233.216265 98.469467 
L 232.417692 99.034127 
L 231.619119 99.504585 
L 230.820546 99.856907 
L 230.021973 100.067158 
L 229.2234 100.109146 
L 228.424827 99.924624 
L 227.626254 99.522693 
L 226.827681 98.938278 
L 226.029108 98.206304 
L 225.230535 97.361697 
L 224.431962 96.439381 
L 223.633389 95.474281 
L 222.834816 94.501323 
L 222.036243 93.555433 
L 221.23767 92.671534 
L 220.439097 91.884553 
L 219.640524 91.229414 
L 218.841951 90.741044 
L 218.043378 90.454366 
L 217.244805 90.402071 
L 216.446232 90.565682 
L 215.647659 90.908876 
L 214.849086 91.402248 
L 214.050513 92.016393 
L 213.25194 92.721908 
L 212.453367 93.489388 
L 211.654794 94.289428 
L 210.856221 95.092624 
L 210.057648 95.869573 
L 209.259075 96.590869 
L 208.460502 97.227109 
L 207.661929 97.748887 
L 206.863356 98.126801 
L 206.064782 98.331445 
L 205.266209 98.335266 
L 204.467636 98.146137 
L 203.669063 97.787815 
L 202.87049 97.281213 
L 202.071917 96.647247 
L 201.273344 95.906829 
L 200.474771 95.080876 
L 199.676198 94.190301 
L 198.877625 93.256018 
L 198.079052 92.298942 
L 197.280479 91.339987 
L 196.481906 90.400068 
L 195.683333 89.500098 
L 194.88476 88.660993 
L 194.086187 87.903666 
L 193.287614 87.226643 
L 192.489041 86.44577 
L 191.690468 85.537406 
L 190.891895 84.528656 
L 190.093322 83.446625 
L 189.294749 82.318417 
L 188.496176 81.171136 
L 187.697603 80.031888 
L 186.89903 78.927777 
L 186.100457 77.885907 
L 185.301884 76.933384 
L 184.503311 76.097312 
L 183.704738 75.404795 
L 182.906165 74.882938 
L 182.107592 74.558847 
L 181.309019 74.452636 
L 180.510446 74.522242 
L 179.711873 74.736694 
L 178.913299 75.072933 
L 178.114726 75.507899 
L 177.316153 76.018533 
L 176.51758 76.581776 
L 175.719007 77.174567 
L 174.920434 77.773848 
L 174.121861 78.356558 
L 173.323288 78.899639 
L 172.524715 79.38003 
L 171.726142 79.774673 
L 170.927569 80.060508 
L 170.128996 80.214474 
L 169.330423 80.258759 
L 168.53185 80.441179 
L 167.733277 80.782391 
L 166.934704 81.257743 
L 166.136131 81.842579 
L 165.337558 82.512245 
L 164.538985 83.242088 
L 163.740412 84.007453 
L 162.941839 84.783685 
L 162.143266 85.546132 
L 161.344693 86.270139 
L 160.54612 86.93105 
L 159.747547 87.504214 
L 158.948974 87.964974 
L 158.150401 88.288678 
L 157.351828 88.550882 
L 156.553255 89.206233 
L 155.754682 90.258657 
L 154.956109 91.643649 
L 154.157536 93.296705 
L 153.358963 95.153322 
L 152.56039 97.148996 
L 151.761816 99.219224 
L 150.963243 101.299501 
L 150.16467 103.325324 
L 149.366097 105.232188 
L 148.567524 106.955591 
L 147.768951 108.431028 
L 146.970378 109.593996 
L 146.171805 110.37999 
L 145.373232 110.833052 
L 144.574659 111.354228 
L 143.776086 111.971317 
L 142.977513 112.66508 
L 142.17894 113.416279 
L 141.380367 114.205676 
L 140.581794 115.014035 
L 139.783221 115.822116 
L 138.984648 116.610683 
L 138.186075 117.360498 
L 137.387502 118.052322 
L 136.588929 118.666918 
L 135.790356 119.185049 
L 134.991783 119.587476 
L 134.19321 119.854962 
L 133.394637 120.07199 
L 132.596064 120.564888 
L 131.797491 121.319391 
L 130.998918 122.290636 
L 130.200345 123.433762 
L 129.401772 124.703905 
L 128.603199 126.056205 
L 127.804626 127.445797 
L 127.006053 128.827822 
L 126.20748 130.157415 
L 125.408907 131.389716 
L 124.610333 132.479861 
L 123.81176 133.382989 
L 123.013187 134.054237 
L 122.214614 134.448744 
L 121.416041 134.618072 
L 120.617468 134.813988 
L 119.818895 135.044496 
L 119.020322 135.300424 
L 118.221749 135.5726 
L 117.423176 135.851854 
L 116.624603 136.129012 
L 115.82603 136.394905 
L 115.027457 136.640359 
L 114.228884 136.856204 
L 113.430311 137.033267 
L 112.631738 137.162379 
L 111.833165 137.234365 
L 111.034592 137.240056 
L 110.236019 137.17028 
L 109.437446 136.807082 
L 108.638873 135.694989 
L 107.8403 133.925811 
L 107.041727 131.615866 
L 106.243154 128.88147 
L 105.444581 125.838942 
L 104.646008 122.604596 
L 103.847435 119.294752 
L 103.048862 116.025724 
L 102.250289 112.913832 
L 101.451716 110.075391 
L 100.653143 107.626718 
L 99.85457 105.684131 
L 99.055997 104.363946 
L 98.257424 103.78248 
L 97.458851 104.019355 
L 96.660277 104.994314 
L 95.861704 106.599001 
L 95.063131 108.72586 
L 94.264558 111.267337 
L 93.465985 114.115878 
L 92.667412 117.163926 
L 91.868839 120.303929 
L 91.070266 123.428329 
L 90.271693 126.429574 
L 89.47312 129.200107 
L 88.674547 131.632375 
L 87.875974 133.618821 
L 87.077401 135.051893 
L 86.278828 135.824034 
L 85.480255 136.107615 
L 84.681682 136.344326 
L 83.883109 136.545369 
L 83.084536 136.713645 
L 82.285963 136.852053 
L 81.48739 136.963495 
L 80.688817 137.05087 
L 79.890244 137.117079 
L 79.091671 137.165021 
L 78.293098 137.197597 
L 77.494525 137.217707 
L 76.695952 137.228251 
L 75.897379 137.23213 
L 75.098806 137.232243 
L 74.300233 137.231491 
L 73.50166 137.155622 
L 72.703087 136.909105 
L 71.904514 136.517053 
L 71.105941 136.005571 
L 70.307368 135.400764 
L 69.508794 134.728737 
L 68.710221 134.015595 
L 67.911648 133.287442 
L 67.113075 132.570384 
L 66.314502 131.890526 
L 65.515929 131.273971 
L 64.717356 130.746827 
L 63.918783 130.335196 
L 63.12021 130.065184 
L 62.321637 129.962896 
L 61.523064 130.004331 
L 60.724491 130.134234 
L 59.925918 130.346133 
L 59.127345 130.633684 
L 58.328772 130.990541 
L 57.530199 131.410357 
L 56.731626 131.886788 
L 55.933053 132.413488 
L 55.13448 132.984111 
L 54.335907 133.592312 
L 53.537334 134.231744 
L 52.738761 134.896063 
L 51.940188 135.578923 
L 51.141615 136.273978 
L 50.343042 136.974882 
z
" clip-path="url(#p2e63c8e330)" style="fill: url(#h497a9700c3)"/>
   </g>
   <g id="patch_3">
    <path d="M 38.404375 183.13 
L 38.404375 9.45 
" style="fill: none; stroke: #000000; stroke-width: 0.5; stroke-linejoin: miter; stroke-linecap: square"/>
   </g>
   <g id="patch_4">
    <path d="M 38.404375 183.13 
L 301.055044 183.13 
" style="fill: none; stroke: #000000; stroke-width: 0.5; stroke-linejoin: miter; stroke-linecap: square"/>
   </g>
   <g id="legend_1">
    <g id="patch_5">
     <path d="M 47.404375 25.95 
L 67.404375 25.95 
L 67.404375 18.95 
L 47.404375 18.95 
z
" style="fill: url(#he85daf2c82)"/>
    </g>
    <g id="text_16">
     <!-- Solo -->
     <g transform="translate(75.404375 25.95) scale(0.1 -0.1)">
      <defs>
       <path id="RobotoCondensed-Regular-53" d="M 2481 1150 
Q 2481 1469 2312 1656 
Q 2144 1844 1591 2042 
Q 1038 2241 713 2547 
Q 388 2853 388 3375 
Q 388 3906 741 4259 
Q 1094 4613 1691 4613 
Q 2356 4613 2706 4191 
Q 3056 3769 3056 3238 
L 2481 3238 
Q 2481 3619 2293 3869 
Q 2106 4119 1691 4119 
Q 1313 4119 1139 3908 
Q 966 3697 966 3381 
Q 966 3094 1170 2903 
Q 1375 2713 1806 2556 
Q 2475 2338 2765 2013 
Q 3056 1688 3056 1156 
Q 3056 600 2695 268 
Q 2334 -63 1719 -63 
Q 1363 -63 1028 93 
Q 694 250 480 558 
Q 266 866 266 1319 
L 841 1319 
Q 841 853 1098 640 
Q 1356 428 1719 428 
Q 2094 428 2287 623 
Q 2481 819 2481 1150 
z
" transform="scale(0.015625)"/>
       <path id="RobotoCondensed-Regular-6c" d="M 1009 4800 
L 1009 0 
L 459 0 
L 459 4800 
L 1009 4800 
z
" transform="scale(0.015625)"/>
      </defs>
      <use xlink:href="#RobotoCondensed-Regular-53"/>
      <use xlink:href="#RobotoCondensed-Regular-6f" transform="translate(51.855469 0)"/>
      <use xlink:href="#RobotoCondensed-Regular-6c" transform="translate(102.050781 0)"/>
      <use xlink:href="#RobotoCondensed-Regular-6f" transform="translate(125 0)"/>
     </g>
    </g>
    <g id="patch_6">
     <path d="M 47.404375 40.48125 
L 67.404375 40.48125 
L 67.404375 33.48125 
L 47.404375 33.48125 
z
" style="fill: url(#h43ac1aa910)"/>
    </g>
    <g id="text_17">
     <!-- Initial -->
     <g transform="translate(75.404375 40.48125) scale(0.1 -0.1)">
      <defs>
       <path id="RobotoCondensed-Regular-49" d="M 1091 4550 
L 1091 0 
L 516 0 
L 516 4550 
L 1091 4550 
z
" transform="scale(0.015625)"/>
      </defs>
      <use xlink:href="#RobotoCondensed-Regular-49"/>
      <use xlink:href="#RobotoCondensed-Regular-6e" transform="translate(25 0)"/>
      <use xlink:href="#RobotoCondensed-Regular-69" transform="translate(73.4375 0)"/>
      <use xlink:href="#RobotoCondensed-Regular-74" transform="translate(96.386719 0)"/>
      <use xlink:href="#RobotoCondensed-Regular-69" transform="translate(125.976562 0)"/>
      <use xlink:href="#RobotoCondensed-Regular-61" transform="translate(148.925781 0)"/>
      <use xlink:href="#RobotoCondensed-Regular-6c" transform="translate(196.826172 0)"/>
     </g>
    </g>
    <g id="patch_7">
     <path d="M 47.404375 55.0125 
L 67.404375 55.0125 
L 67.404375 48.0125 
L 47.404375 48.0125 
z
" style="fill: url(#h6884ed04a7)"/>
    </g>
    <g id="text_18">
     <!-- Middle -->
     <g transform="translate(75.404375 55.0125) scale(0.1 -0.1)">
      <defs>
       <path id="RobotoCondensed-Regular-4d" d="M 2419 841 
L 3606 4550 
L 4341 4550 
L 4341 0 
L 3769 0 
L 3769 1775 
L 3822 3538 
L 2634 0 
L 2197 0 
L 1009 3544 
L 1063 1775 
L 1063 0 
L 491 0 
L 491 4550 
L 1228 4550 
L 2419 841 
z
" transform="scale(0.015625)"/>
       <path id="RobotoCondensed-Regular-64" d="M 2234 0 
L 2209 366 
Q 1941 -63 1425 -63 
Q 925 -63 611 331 
Q 297 725 297 1528 
L 297 1844 
Q 297 2678 609 3061 
Q 922 3444 1431 3444 
Q 1922 3444 2188 3050 
L 2188 4800 
L 2738 4800 
L 2738 0 
L 2234 0 
z
M 850 1528 
Q 850 963 1019 695 
Q 1188 428 1569 428 
Q 1981 428 2188 847 
L 2188 2544 
Q 1972 2956 1575 2956 
Q 1194 2956 1023 2687 
Q 853 2419 850 1866 
L 850 1528 
z
" transform="scale(0.015625)"/>
      </defs>
      <use xlink:href="#RobotoCondensed-Regular-4d"/>
      <use xlink:href="#RobotoCondensed-Regular-69" transform="translate(75.537109 0)"/>
      <use xlink:href="#RobotoCondensed-Regular-64" transform="translate(98.486328 0)"/>
      <use xlink:href="#RobotoCondensed-Regular-64" transform="translate(148.095703 0)"/>
      <use xlink:href="#RobotoCondensed-Regular-6c" transform="translate(197.705078 0)"/>
      <use xlink:href="#RobotoCondensed-Regular-65" transform="translate(220.654297 0)"/>
     </g>
    </g>
    <g id="patch_8">
     <path d="M 47.404375 69.54375 
L 67.404375 69.54375 
L 67.404375 62.54375 
L 47.404375 62.54375 
z
" style="fill: url(#h497a9700c3)"/>
    </g>
    <g id="text_19">
     <!-- End -->
     <g transform="translate(75.404375 69.54375) scale(0.1 -0.1)">
      <defs>
       <path id="RobotoCondensed-Regular-45" d="M 491 0 
L 491 4550 
L 2906 4550 
L 2906 4056 
L 1066 4056 
L 1066 2594 
L 2672 2594 
L 2672 2103 
L 1066 2103 
L 1066 491 
L 2938 491 
L 2938 0 
L 491 0 
z
" transform="scale(0.015625)"/>
      </defs>
      <use xlink:href="#RobotoCondensed-Regular-45"/>
      <use xlink:href="#RobotoCondensed-Regular-6e" transform="translate(49.707031 0)"/>
      <use xlink:href="#RobotoCondensed-Regular-64" transform="translate(98.144531 0)"/>
     </g>
    </g>
   </g>
  </g>
 </g>
 <defs>
  <clipPath id="p2e63c8e330">
   <rect x="38.404375" y="9.45" width="262.650669" height="173.68"/>
  </clipPath>
 </defs>
 <defs>
  <pattern id="he85daf2c82" patternUnits="userSpaceOnUse" x="0" y="0" width="72" height="72">
   <rect x="0" y="0" width="73" height="73" fill="#e6e6e6"/>
   <path d="M -36 36 
L 36 -36 
M -33 39 
L 39 -33 
M -30 42 
L 42 -30 
M -27 45 
L 45 -27 
M -24 48 
L 48 -24 
M -21 51 
L 51 -21 
M -18 54 
L 54 -18 
M -15 57 
L 57 -15 
M -12 60 
L 60 -12 
M -9 63 
L 63 -9 
M -6 66 
L 66 -6 
M -3 69 
L 69 -3 
M 0 72 
L 72 0 
M 3 75 
L 75 3 
M 6 78 
L 78 6 
M 9 81 
L 81 9 
M 12 84 
L 84 12 
M 15 87 
L 87 15 
M 18 90 
L 90 18 
M 21 93 
L 93 21 
M 24 96 
L 96 24 
M 27 99 
L 99 27 
M 30 102 
L 102 30 
M 33 105 
L 105 33 
M 36 108 
L 108 36 
" style="fill: #000000; stroke: #000000; stroke-width: 1.5; stroke-linecap: butt; stroke-linejoin: miter"/>
  </pattern>
  <pattern id="h43ac1aa910" patternUnits="userSpaceOnUse" x="0" y="0" width="72" height="72">
   <rect x="0" y="0" width="73" height="73" fill="#adadad"/>
   <path d="M -36 36 
L 36 108 
M -30 30 
L 42 102 
M -24 24 
L 48 96 
M -18 18 
L 54 90 
M -12 12 
L 60 84 
M -6 6 
L 66 78 
M 0 0 
L 72 72 
M 6 -6 
L 78 66 
M 12 -12 
L 84 60 
M 18 -18 
L 90 54 
M 24 -24 
L 96 48 
M 30 -30 
L 102 42 
M 36 -36 
L 108 36 
" style="fill: #000000; stroke: #000000; stroke-width: 1.5; stroke-linecap: butt; stroke-linejoin: miter"/>
  </pattern>
  <pattern id="h6884ed04a7" patternUnits="userSpaceOnUse" x="0" y="0" width="72" height="72">
   <rect x="0" y="0" width="73" height="73" fill="#737373"/>
   <path d="M -36 36 
L 36 -36 
M -33 39 
L 39 -33 
M -30 42 
L 42 -30 
M -27 45 
L 45 -27 
M -24 48 
L 48 -24 
M -21 51 
L 51 -21 
M -18 54 
L 54 -18 
M -15 57 
L 57 -15 
M -12 60 
L 60 -12 
M -9 63 
L 63 -9 
M -6 66 
L 66 -6 
M -3 69 
L 69 -3 
M 0 72 
L 72 0 
M 3 75 
L 75 3 
M 6 78 
L 78 6 
M 9 81 
L 81 9 
M 12 84 
L 84 12 
M 15 87 
L 87 15 
M 18 90 
L 90 18 
M 21 93 
L 93 21 
M 24 96 
L 96 24 
M 27 99 
L 99 27 
M 30 102 
L 102 30 
M 33 105 
L 105 33 
M 36 108 
L 108 36 
M -36 36 
L 36 108 
M -33 33 
L 39 105 
M -30 30 
L 42 102 
M -27 27 
L 45 99 
M -24 24 
L 48 96 
M -21 21 
L 51 93 
M -18 18 
L 54 90 
M -15 15 
L 57 87 
M -12 12 
L 60 84 
M -9 9 
L 63 81 
M -6 6 
L 66 78 
M -3 3 
L 69 75 
M 0 0 
L 72 72 
M 3 -3 
L 75 69 
M 6 -6 
L 78 66 
M 9 -9 
L 81 63 
M 12 -12 
L 84 60 
M 15 -15 
L 87 57 
M 18 -18 
L 90 54 
M 21 -21 
L 93 51 
M 24 -24 
L 96 48 
M 27 -27 
L 99 45 
M 30 -30 
L 102 42 
M 33 -33 
L 105 39 
M 36 -36 
L 108 36 
" style="fill: #000000; stroke: #000000; stroke-width: 1.5; stroke-linecap: butt; stroke-linejoin: miter"/>
  </pattern>
  <pattern id="h497a9700c3" patternUnits="userSpaceOnUse" x="0" y="0" width="72" height="72">
   <rect x="0" y="0" width="73" height="73" fill="#383838"/>
   <path d="M 0 70.5 
L 72 70.5 
M 0 67.5 
L 72 67.5 
M 0 64.5 
L 72 64.5 
M 0 61.5 
L 72 61.5 
M 0 58.5 
L 72 58.5 
M 0 55.5 
L 72 55.5 
M 0 52.5 
L 72 52.5 
M 0 49.5 
L 72 49.5 
M 0 46.5 
L 72 46.5 
M 0 43.5 
L 72 43.5 
M 0 40.5 
L 72 40.5 
M 0 37.5 
L 72 37.5 
M 0 34.5 
L 72 34.5 
M 0 31.5 
L 72 31.5 
M 0 28.5 
L 72 28.5 
M 0 25.5 
L 72 25.5 
M 0 22.5 
L 72 22.5 
M 0 19.5 
L 72 19.5 
M 0 16.5 
L 72 16.5 
M 0 13.5 
L 72 13.5 
M 0 10.5 
L 72 10.5 
M 0 7.5 
L 72 7.5 
M 0 4.5 
L 72 4.5 
M 0 1.5 
L 72 1.5 
" style="fill: #000000; stroke: #000000; stroke-width: 1.5; stroke-linecap: butt; stroke-linejoin: miter"/>
  </pattern>
 </defs>
</svg>
