<?xml version="1.0" encoding="utf-8" standalone="no"?>
<!DOCTYPE svg PUBLIC "-//W3C//DTD SVG 1.1//EN"
  "http://www.w3.org/Graphics/SVG/1.1/DTD/svg11.dtd">
<svg xmlns:xlink="http://www.w3.org/1999/xlink" width="314.178169pt" height="217.533125pt" viewBox="0 0 314.178169 217.533125" xmlns="http://www.w3.org/2000/svg" version="1.1">
 <metadata>
  <rdf:RDF xmlns:dc="http://purl.org/dc/elements/1.1/" xmlns:cc="http://creativecommons.org/ns#" xmlns:rdf="http://www.w3.org/1999/02/22-rdf-syntax-ns#">
   <cc:Work>
    <dc:type rdf:resource="http://purl.org/dc/dcmitype/StillImage"/>
    <dc:date>2026-04-28T10:28:06.457897</dc:date>
    <dc:format>image/svg+xml</dc:format>
    <dc:creator>
     <cc:Agent>
      <dc:title>Matplotlib v3.10.7, https://matplotlib.org/</dc:title>
     </cc:Agent>
    </dc:creator>
   </cc:Work>
  </rdf:RDF>
 </metadata>
 <defs>
  <style type="text/css">*{stroke-linejoin: round; stroke-linecap: butt}</style>
 </defs>
 <g id="figure_1">
  <g id="patch_1">
   <path d="M -0 217.533125 
L 314.178169 217.533125 
L 314.178169 -0 
L -0 -0 
z
" style="fill: #ffffff"/>
  </g>
  <g id="axes_1">
   <g id="patch_2">
    <path d="M 38.404375 183.13 
L 301.055044 183.13 
L 301.055044 9.45 
L 38.404375 9.45 
z
" style="fill: #ffffff"/>
   </g>
   <g id="matplotlib.axis_1">
    <g id="xtick_1">
     <g id="line2d_1">
      <defs>
       <path id="m5356410026" d="M 0 0 
L 0 3.5 
" style="stroke: #000000; stroke-width: 0.8"/>
      </defs>
      <g>
       <use xlink:href="#m5356410026" x="50.343042" y="183.13" style="stroke: #000000; stroke-width: 0.8"/>
      </g>
     </g>
     <g id="text_1">
      <!-- 2004 -->
      <g transform="translate(44.419917 194.63) scale(0.06 -0.06)">
       <defs>
        <path id="RobotoCondensed-Regular-32" d="M 2909 475 
L 2909 0 
L 366 0 
L 366 416 
L 1628 2088 
Q 1966 2541 2077 2802 
Q 2188 3063 2188 3328 
Q 2188 3663 2027 3900 
Q 1866 4138 1575 4138 
Q 1194 4138 1022 3878 
Q 850 3619 850 3213 
L 297 3213 
Q 297 3788 617 4200 
Q 938 4613 1575 4613 
Q 2125 4613 2433 4278 
Q 2741 3944 2741 3397 
Q 2741 2997 2541 2594 
Q 2341 2191 2047 1809 
L 1028 475 
L 2909 475 
z
" transform="scale(0.015625)"/>
        <path id="RobotoCondensed-Regular-30" d="M 2797 1944 
Q 2797 825 2467 381 
Q 2138 -63 1581 -63 
Q 1038 -63 703 370 
Q 369 803 359 1878 
L 359 2638 
Q 359 3753 695 4183 
Q 1031 4613 1578 4613 
Q 2131 4613 2461 4189 
Q 2791 3766 2797 2681 
L 2797 1944 
z
M 2247 2734 
Q 2247 3503 2073 3822 
Q 1900 4141 1578 4141 
Q 1266 4141 1092 3833 
Q 919 3525 913 2791 
L 913 1850 
Q 913 1088 1089 750 
Q 1266 413 1581 413 
Q 1903 413 2072 738 
Q 2241 1063 2247 1794 
L 2247 2734 
z
" transform="scale(0.015625)"/>
        <path id="RobotoCondensed-Regular-34" d="M 188 1397 
L 1878 4550 
L 2463 4550 
L 2463 1531 
L 2969 1531 
L 2969 1056 
L 2463 1056 
L 2463 0 
L 1909 0 
L 1909 1056 
L 188 1056 
L 188 1397 
z
M 803 1531 
L 1909 1531 
L 1909 3703 
L 1878 3638 
L 803 1531 
z
" transform="scale(0.015625)"/>
       </defs>
       <use xlink:href="#RobotoCondensed-Regular-32"/>
       <use xlink:href="#RobotoCondensed-Regular-30" transform="translate(49.365234 0)"/>
       <use xlink:href="#RobotoCondensed-Regular-30" transform="translate(98.730469 0)"/>
       <use xlink:href="#RobotoCondensed-Regular-34" transform="translate(148.095703 0)"/>
      </g>
     </g>
    </g>
    <g id="xtick_2">
     <g id="line2d_2">
      <g>
       <use xlink:href="#m5356410026" x="86.159042" y="183.13" style="stroke: #000000; stroke-width: 0.8"/>
      </g>
     </g>
     <g id="text_2">
      <!-- 2007 -->
      <g transform="translate(80.235917 194.63) scale(0.06 -0.06)">
       <defs>
        <path id="RobotoCondensed-Regular-37" d="M 2878 4550 
L 2878 4225 
L 1313 0 
L 731 0 
L 2297 4075 
L 269 4075 
L 269 4550 
L 2878 4550 
z
" transform="scale(0.015625)"/>
       </defs>
       <use xlink:href="#RobotoCondensed-Regular-32"/>
       <use xlink:href="#RobotoCondensed-Regular-30" transform="translate(49.365234 0)"/>
       <use xlink:href="#RobotoCondensed-Regular-30" transform="translate(98.730469 0)"/>
       <use xlink:href="#RobotoCondensed-Regular-37" transform="translate(148.095703 0)"/>
      </g>
     </g>
    </g>
    <g id="xtick_3">
     <g id="line2d_3">
      <g>
       <use xlink:href="#m5356410026" x="121.975043" y="183.13" style="stroke: #000000; stroke-width: 0.8"/>
      </g>
     </g>
     <g id="text_3">
      <!-- 2010 -->
      <g transform="translate(116.051918 194.63) scale(0.06 -0.06)">
       <defs>
        <path id="RobotoCondensed-Regular-31" d="M 2013 4575 
L 2013 0 
L 1459 0 
L 1459 3853 
L 503 3428 
L 503 3950 
L 1928 4575 
L 2013 4575 
z
" transform="scale(0.015625)"/>
       </defs>
       <use xlink:href="#RobotoCondensed-Regular-32"/>
       <use xlink:href="#RobotoCondensed-Regular-30" transform="translate(49.365234 0)"/>
       <use xlink:href="#RobotoCondensed-Regular-31" transform="translate(98.730469 0)"/>
       <use xlink:href="#RobotoCondensed-Regular-30" transform="translate(148.095703 0)"/>
      </g>
     </g>
    </g>
    <g id="xtick_4">
     <g id="line2d_4">
      <g>
       <use xlink:href="#m5356410026" x="157.791043" y="183.13" style="stroke: #000000; stroke-width: 0.8"/>
      </g>
     </g>
     <g id="text_4">
      <!-- 2013 -->
      <g transform="translate(151.867918 194.63) scale(0.06 -0.06)">
       <defs>
        <path id="RobotoCondensed-Regular-33" d="M 1075 2084 
L 1075 2559 
L 1431 2559 
Q 1788 2559 1961 2781 
Q 2134 3003 2134 3338 
Q 2134 4138 1519 4138 
Q 1228 4138 1054 3927 
Q 881 3716 881 3359 
L 331 3359 
Q 331 3881 653 4247 
Q 975 4613 1519 4613 
Q 2038 4613 2363 4286 
Q 2688 3959 2688 3325 
Q 2688 3072 2550 2786 
Q 2413 2500 2100 2338 
Q 2484 2194 2612 1886 
Q 2741 1578 2741 1269 
Q 2741 631 2389 284 
Q 2038 -63 1516 -63 
Q 1006 -63 656 267 
Q 306 597 306 1203 
L 859 1203 
Q 859 844 1032 628 
Q 1206 413 1516 413 
Q 1822 413 2005 622 
Q 2188 831 2188 1256 
Q 2188 2084 1403 2084 
L 1075 2084 
z
" transform="scale(0.015625)"/>
       </defs>
       <use xlink:href="#RobotoCondensed-Regular-32"/>
       <use xlink:href="#RobotoCondensed-Regular-30" transform="translate(49.365234 0)"/>
       <use xlink:href="#RobotoCondensed-Regular-31" transform="translate(98.730469 0)"/>
       <use xlink:href="#RobotoCondensed-Regular-33" transform="translate(148.095703 0)"/>
      </g>
     </g>
    </g>
    <g id="xtick_5">
     <g id="line2d_5">
      <g>
       <use xlink:href="#m5356410026" x="193.607043" y="183.13" style="stroke: #000000; stroke-width: 0.8"/>
      </g>
     </g>
     <g id="text_5">
      <!-- 2016 -->
      <g transform="translate(187.683918 194.63) scale(0.06 -0.06)">
       <defs>
        <path id="RobotoCondensed-Regular-36" d="M 2847 1484 
Q 2847 838 2544 387 
Q 2241 -63 1641 -63 
Q 1216 -63 944 198 
Q 672 459 542 861 
Q 413 1263 413 1684 
L 413 1956 
Q 413 2438 481 2900 
Q 550 3363 742 3738 
Q 934 4113 1296 4334 
Q 1659 4556 2291 4556 
L 2291 4066 
Q 1775 4066 1508 3859 
Q 1241 3653 1122 3318 
Q 1003 2984 978 2606 
Q 1272 2984 1750 2984 
Q 2138 2984 2380 2765 
Q 2622 2547 2734 2201 
Q 2847 1856 2847 1484 
z
M 969 1666 
Q 969 1059 1180 737 
Q 1391 416 1641 416 
Q 1959 416 2129 708 
Q 2300 1000 2300 1456 
Q 2300 1863 2144 2184 
Q 1988 2506 1659 2506 
Q 1425 2506 1236 2329 
Q 1047 2153 969 1900 
L 969 1666 
z
" transform="scale(0.015625)"/>
       </defs>
       <use xlink:href="#RobotoCondensed-Regular-32"/>
       <use xlink:href="#RobotoCondensed-Regular-30" transform="translate(49.365234 0)"/>
       <use xlink:href="#RobotoCondensed-Regular-31" transform="translate(98.730469 0)"/>
       <use xlink:href="#RobotoCondensed-Regular-36" transform="translate(148.095703 0)"/>
      </g>
     </g>
    </g>
    <g id="xtick_6">
     <g id="line2d_6">
      <g>
       <use xlink:href="#m5356410026" x="229.423044" y="183.13" style="stroke: #000000; stroke-width: 0.8"/>
      </g>
     </g>
     <g id="text_6">
      <!-- 2019 -->
      <g transform="translate(223.499919 194.63) scale(0.06 -0.06)">
       <defs>
        <path id="RobotoCondensed-Regular-39" d="M 2744 2563 
Q 2744 2119 2687 1667 
Q 2631 1216 2450 836 
Q 2269 456 1903 225 
Q 1538 -6 869 -6 
L 866 484 
Q 1428 484 1698 690 
Q 1969 897 2072 1233 
Q 2175 1569 2191 1950 
Q 1859 1522 1413 1522 
Q 1025 1522 786 1747 
Q 547 1972 436 2320 
Q 325 2669 325 3041 
Q 325 3691 623 4152 
Q 922 4613 1522 4613 
Q 1969 4613 2237 4344 
Q 2506 4075 2625 3653 
Q 2744 3231 2744 2772 
L 2744 2563 
z
M 866 3072 
Q 866 2666 1020 2334 
Q 1175 2003 1506 2003 
Q 1716 2003 1906 2179 
Q 2097 2356 2194 2616 
L 2194 2850 
Q 2194 3472 1983 3803 
Q 1772 4134 1522 4134 
Q 1206 4134 1036 3829 
Q 866 3525 866 3072 
z
" transform="scale(0.015625)"/>
       </defs>
       <use xlink:href="#RobotoCondensed-Regular-32"/>
       <use xlink:href="#RobotoCondensed-Regular-30" transform="translate(49.365234 0)"/>
       <use xlink:href="#RobotoCondensed-Regular-31" transform="translate(98.730469 0)"/>
       <use xlink:href="#RobotoCondensed-Regular-39" transform="translate(148.095703 0)"/>
      </g>
     </g>
    </g>
    <g id="xtick_7">
     <g id="line2d_7">
      <g>
       <use xlink:href="#m5356410026" x="265.239044" y="183.13" style="stroke: #000000; stroke-width: 0.8"/>
      </g>
     </g>
     <g id="text_7">
      <!-- 2022 -->
      <g transform="translate(259.315919 194.63) scale(0.06 -0.06)">
       <use xlink:href="#RobotoCondensed-Regular-32"/>
       <use xlink:href="#RobotoCondensed-Regular-30" transform="translate(49.365234 0)"/>
       <use xlink:href="#RobotoCondensed-Regular-32" transform="translate(98.730469 0)"/>
       <use xlink:href="#RobotoCondensed-Regular-32" transform="translate(148.095703 0)"/>
      </g>
     </g>
    </g>
    <g id="xtick_8">
     <g id="line2d_8">
      <g>
       <use xlink:href="#m5356410026" x="301.055044" y="183.13" style="stroke: #000000; stroke-width: 0.8"/>
      </g>
     </g>
     <g id="text_8">
      <!-- 2025 -->
      <g transform="translate(295.131919 194.63) scale(0.06 -0.06)">
       <defs>
        <path id="RobotoCondensed-Regular-35" d="M 1034 2166 
L 594 2284 
L 788 4550 
L 2769 4550 
L 2769 4016 
L 1253 4016 
L 1147 2778 
Q 1438 2975 1753 2975 
Q 2288 2975 2591 2561 
Q 2894 2147 2894 1450 
Q 2894 797 2584 367 
Q 2275 -63 1656 -63 
Q 1194 -63 850 248 
Q 506 559 453 1197 
L 975 1197 
Q 1066 413 1656 413 
Q 1978 413 2159 691 
Q 2341 969 2341 1444 
Q 2341 1872 2153 2164 
Q 1966 2456 1619 2456 
Q 1384 2456 1273 2378 
Q 1163 2300 1034 2166 
z
" transform="scale(0.015625)"/>
       </defs>
       <use xlink:href="#RobotoCondensed-Regular-32"/>
       <use xlink:href="#RobotoCondensed-Regular-30" transform="translate(49.365234 0)"/>
       <use xlink:href="#RobotoCondensed-Regular-32" transform="translate(98.730469 0)"/>
       <use xlink:href="#RobotoCondensed-Regular-35" transform="translate(148.095703 0)"/>
      </g>
     </g>
    </g>
    <g id="text_9">
     <!-- Year -->
     <g transform="translate(159.954319 208.09875) scale(0.11 -0.11)">
      <defs>
       <path id="RobotoCondensed-Regular-59" d="M 747 4550 
L 1675 2266 
L 2606 4550 
L 3256 4550 
L 1963 1700 
L 1963 0 
L 1388 0 
L 1388 1700 
L 94 4550 
L 747 4550 
z
" transform="scale(0.015625)"/>
       <path id="RobotoCondensed-Regular-65" d="M 2722 447 
Q 2584 253 2323 95 
Q 2063 -63 1625 -63 
Q 1019 -63 666 301 
Q 313 666 309 1431 
L 309 1828 
Q 309 2722 696 3083 
Q 1084 3444 1563 3444 
Q 2197 3444 2472 3034 
Q 2747 2625 2747 1850 
L 2747 1528 
L 863 1528 
L 863 1447 
Q 863 906 1067 657 
Q 1272 409 1656 409 
Q 1934 409 2114 517 
Q 2294 625 2431 794 
L 2722 447 
z
M 1563 2969 
Q 1275 2969 1084 2770 
Q 894 2572 866 2000 
L 2194 2000 
L 2194 2078 
Q 2172 2469 2048 2719 
Q 1925 2969 1563 2969 
z
" transform="scale(0.015625)"/>
       <path id="RobotoCondensed-Regular-61" d="M 2156 0 
Q 2103 122 2081 366 
Q 1966 194 1775 65 
Q 1584 -63 1334 -63 
Q 891 -63 623 187 
Q 356 438 356 922 
Q 356 1409 690 1729 
Q 1025 2050 1691 2050 
L 2072 2050 
L 2072 2413 
Q 2072 2713 1936 2841 
Q 1800 2969 1528 2969 
Q 1263 2969 1114 2812 
Q 966 2656 966 2444 
L 413 2444 
Q 413 2806 722 3125 
Q 1031 3444 1556 3444 
Q 2025 3444 2325 3209 
Q 2625 2975 2625 2406 
L 2625 794 
Q 2625 316 2728 50 
L 2728 0 
L 2156 0 
z
M 1419 441 
Q 1653 441 1825 562 
Q 1997 684 2072 834 
L 2072 1644 
L 1781 1644 
Q 1384 1644 1146 1475 
Q 909 1306 909 991 
Q 909 688 1036 564 
Q 1163 441 1419 441 
z
" transform="scale(0.015625)"/>
       <path id="RobotoCondensed-Regular-72" d="M 1563 2888 
Q 1138 2888 969 2425 
L 969 0 
L 416 0 
L 416 3381 
L 950 3381 
L 963 3041 
Q 1184 3444 1591 3444 
Q 1738 3444 1809 3400 
L 1813 2863 
Q 1691 2888 1563 2888 
z
" transform="scale(0.015625)"/>
      </defs>
      <use xlink:href="#RobotoCondensed-Regular-59"/>
      <use xlink:href="#RobotoCondensed-Regular-65" transform="translate(52.490234 0)"/>
      <use xlink:href="#RobotoCondensed-Regular-61" transform="translate(99.365234 0)"/>
      <use xlink:href="#RobotoCondensed-Regular-72" transform="translate(147.265625 0)"/>
     </g>
    </g>
   </g>
   <g id="matplotlib.axis_2">
    <g id="ytick_1">
     <g id="line2d_9">
      <path d="M 38.404375 183.13 
L 301.055044 183.13 
" clip-path="url(#p9c46751d1a)" style="fill: none; stroke: #808080; stroke-opacity: 0.3; stroke-width: 0.5; stroke-linecap: square"/>
     </g>
     <g id="line2d_10">
      <defs>
       <path id="m1a1df5a0d2" d="M 0 0 
L -3.5 0 
" style="stroke: #000000; stroke-width: 0.8"/>
      </defs>
      <g>
       <use xlink:href="#m1a1df5a0d2" x="38.404375" y="183.13" style="stroke: #000000; stroke-width: 0.8"/>
      </g>
     </g>
     <g id="text_10">
      <!-- 0% -->
      <g transform="translate(24.645937 185.38) scale(0.06 -0.06)">
       <defs>
        <path id="RobotoCondensed-Regular-25" d="M 334 3675 
Q 334 4063 545 4339 
Q 756 4616 1128 4616 
Q 1506 4616 1717 4339 
Q 1928 4063 1928 3675 
L 1928 3434 
Q 1928 3053 1718 2776 
Q 1509 2500 1134 2500 
Q 759 2500 546 2776 
Q 334 3053 334 3434 
L 334 3675 
z
M 741 3434 
Q 741 3219 836 3047 
Q 931 2875 1134 2875 
Q 1331 2875 1426 3045 
Q 1522 3216 1522 3434 
L 1522 3675 
Q 1522 3894 1425 4067 
Q 1328 4241 1128 4241 
Q 931 4241 836 4067 
Q 741 3894 741 3675 
L 741 3434 
z
M 3116 3903 
L 1250 347 
L 944 553 
L 2813 4109 
L 3116 3903 
z
M 2172 1116 
Q 2172 1500 2384 1776 
Q 2597 2053 2969 2053 
Q 3344 2053 3555 1776 
Q 3766 1500 3766 1116 
L 3766 872 
Q 3766 488 3555 211 
Q 3344 -66 2972 -66 
Q 2597 -66 2384 211 
Q 2172 488 2172 872 
L 2172 1116 
z
M 2578 872 
Q 2578 653 2675 481 
Q 2772 309 2972 309 
Q 3169 309 3264 479 
Q 3359 650 3359 872 
L 3359 1116 
Q 3359 1338 3262 1508 
Q 3166 1678 2969 1678 
Q 2772 1678 2675 1508 
Q 2578 1338 2578 1116 
L 2578 872 
z
" transform="scale(0.015625)"/>
       </defs>
       <use xlink:href="#RobotoCondensed-Regular-30"/>
       <use xlink:href="#RobotoCondensed-Regular-25" transform="translate(49.365234 0)"/>
      </g>
     </g>
    </g>
    <g id="ytick_2">
     <g id="line2d_11">
      <path d="M 38.404375 148.394 
L 301.055044 148.394 
" clip-path="url(#p9c46751d1a)" style="fill: none; stroke: #808080; stroke-opacity: 0.3; stroke-width: 0.5; stroke-linecap: square"/>
     </g>
     <g id="line2d_12">
      <g>
       <use xlink:href="#m1a1df5a0d2" x="38.404375" y="148.394" style="stroke: #000000; stroke-width: 0.8"/>
      </g>
     </g>
     <g id="text_11">
      <!-- 2% -->
      <g transform="translate(24.645937 150.644) scale(0.06 -0.06)">
       <use xlink:href="#RobotoCondensed-Regular-32"/>
       <use xlink:href="#RobotoCondensed-Regular-25" transform="translate(49.365234 0)"/>
      </g>
     </g>
    </g>
    <g id="ytick_3">
     <g id="line2d_13">
      <path d="M 38.404375 113.658 
L 301.055044 113.658 
" clip-path="url(#p9c46751d1a)" style="fill: none; stroke: #808080; stroke-opacity: 0.3; stroke-width: 0.5; stroke-linecap: square"/>
     </g>
     <g id="line2d_14">
      <g>
       <use xlink:href="#m1a1df5a0d2" x="38.404375" y="113.658" style="stroke: #000000; stroke-width: 0.8"/>
      </g>
     </g>
     <g id="text_12">
      <!-- 4% -->
      <g transform="translate(24.645937 115.908) scale(0.06 -0.06)">
       <use xlink:href="#RobotoCondensed-Regular-34"/>
       <use xlink:href="#RobotoCondensed-Regular-25" transform="translate(49.365234 0)"/>
      </g>
     </g>
    </g>
    <g id="ytick_4">
     <g id="line2d_15">
      <path d="M 38.404375 78.922 
L 301.055044 78.922 
" clip-path="url(#p9c46751d1a)" style="fill: none; stroke: #808080; stroke-opacity: 0.3; stroke-width: 0.5; stroke-linecap: square"/>
     </g>
     <g id="line2d_16">
      <g>
       <use xlink:href="#m1a1df5a0d2" x="38.404375" y="78.922" style="stroke: #000000; stroke-width: 0.8"/>
      </g>
     </g>
     <g id="text_13">
      <!-- 6% -->
      <g transform="translate(24.645937 81.172) scale(0.06 -0.06)">
       <use xlink:href="#RobotoCondensed-Regular-36"/>
       <use xlink:href="#RobotoCondensed-Regular-25" transform="translate(49.365234 0)"/>
      </g>
     </g>
    </g>
    <g id="ytick_5">
     <g id="line2d_17">
      <path d="M 38.404375 44.186 
L 301.055044 44.186 
" clip-path="url(#p9c46751d1a)" style="fill: none; stroke: #808080; stroke-opacity: 0.3; stroke-width: 0.5; stroke-linecap: square"/>
     </g>
     <g id="line2d_18">
      <g>
       <use xlink:href="#m1a1df5a0d2" x="38.404375" y="44.186" style="stroke: #000000; stroke-width: 0.8"/>
      </g>
     </g>
     <g id="text_14">
      <!-- 8% -->
      <g transform="translate(24.645937 46.436) scale(0.06 -0.06)">
       <defs>
        <path id="RobotoCondensed-Regular-38" d="M 2794 1231 
Q 2794 606 2445 271 
Q 2097 -63 1578 -63 
Q 1063 -63 714 273 
Q 366 609 366 1231 
Q 366 1613 536 1905 
Q 706 2197 1000 2347 
Q 450 2666 450 3366 
Q 450 3963 769 4288 
Q 1088 4613 1581 4613 
Q 2075 4613 2392 4288 
Q 2709 3963 2709 3366 
Q 2709 3028 2557 2761 
Q 2406 2494 2150 2344 
Q 2444 2194 2619 1901 
Q 2794 1609 2794 1231 
z
M 2156 3356 
Q 2156 3697 2000 3917 
Q 1844 4138 1581 4138 
Q 1319 4138 1161 3927 
Q 1003 3716 1003 3356 
Q 1003 3003 1159 2790 
Q 1316 2578 1581 2578 
Q 1844 2578 2000 2790 
Q 2156 3003 2156 3356 
z
M 2244 1244 
Q 2244 1625 2061 1865 
Q 1878 2106 1575 2106 
Q 1266 2106 1091 1865 
Q 916 1625 916 1244 
Q 916 850 1089 631 
Q 1263 413 1578 413 
Q 1897 413 2070 631 
Q 2244 850 2244 1244 
z
" transform="scale(0.015625)"/>
       </defs>
       <use xlink:href="#RobotoCondensed-Regular-38"/>
       <use xlink:href="#RobotoCondensed-Regular-25" transform="translate(49.365234 0)"/>
      </g>
     </g>
    </g>
    <g id="ytick_6">
     <g id="line2d_19">
      <path d="M 38.404375 9.45 
L 301.055044 9.45 
" clip-path="url(#p9c46751d1a)" style="fill: none; stroke: #808080; stroke-opacity: 0.3; stroke-width: 0.5; stroke-linecap: square"/>
     </g>
     <g id="line2d_20">
      <g>
       <use xlink:href="#m1a1df5a0d2" x="38.404375" y="9.45" style="stroke: #000000; stroke-width: 0.8"/>
      </g>
     </g>
     <g id="text_15">
      <!-- 10% -->
      <g transform="translate(21.684375 11.7) scale(0.06 -0.06)">
       <use xlink:href="#RobotoCondensed-Regular-31"/>
       <use xlink:href="#RobotoCondensed-Regular-30" transform="translate(49.365234 0)"/>
       <use xlink:href="#RobotoCondensed-Regular-25" transform="translate(98.730469 0)"/>
      </g>
     </g>
    </g>
    <g id="text_16">
     <!-- Proportion -->
     <g transform="translate(15.45 119.239609) rotate(-90) scale(0.11 -0.11)">
      <defs>
       <path id="RobotoCondensed-Regular-50" d="M 1066 1784 
L 1066 0 
L 491 0 
L 491 4550 
L 1941 4550 
Q 2600 4550 2951 4159 
Q 3303 3769 3303 3163 
Q 3303 2506 2954 2147 
Q 2606 1788 1950 1784 
L 1066 1784 
z
M 1066 4056 
L 1066 2275 
L 1941 2275 
Q 2359 2275 2543 2522 
Q 2728 2769 2728 3156 
Q 2728 3506 2543 3781 
Q 2359 4056 1941 4056 
L 1066 4056 
z
" transform="scale(0.015625)"/>
       <path id="RobotoCondensed-Regular-6f" d="M 300 1850 
Q 300 2641 678 3042 
Q 1056 3444 1603 3444 
Q 2156 3444 2536 3042 
Q 2916 2641 2916 1850 
L 2916 1528 
Q 2916 738 2536 337 
Q 2156 -63 1609 -63 
Q 1059 -63 679 337 
Q 300 738 300 1528 
L 300 1850 
z
M 853 1528 
Q 853 969 1068 689 
Q 1284 409 1609 409 
Q 2341 409 2363 1466 
L 2363 1850 
Q 2363 2403 2145 2686 
Q 1928 2969 1603 2969 
Q 1281 2969 1067 2686 
Q 853 2403 853 1850 
L 853 1528 
z
" transform="scale(0.015625)"/>
       <path id="RobotoCondensed-Regular-70" d="M 1750 -63 
Q 1244 -63 969 325 
L 969 -1300 
L 416 -1300 
L 416 3381 
L 919 3381 
L 947 3013 
Q 1222 3444 1744 3444 
Q 2275 3444 2562 3073 
Q 2850 2703 2859 1897 
L 2859 1528 
Q 2859 725 2570 331 
Q 2281 -63 1750 -63 
z
M 1572 2956 
Q 1181 2956 969 2559 
L 969 797 
Q 1178 409 1578 409 
Q 2288 409 2306 1472 
L 2306 1844 
Q 2306 2956 1572 2956 
z
" transform="scale(0.015625)"/>
       <path id="RobotoCondensed-Regular-74" d="M 1647 0 
Q 1488 -63 1259 -63 
Q 991 -63 789 134 
Q 588 331 588 841 
L 588 2938 
L 72 2938 
L 72 3381 
L 588 3381 
L 588 4203 
L 1141 4203 
L 1141 3381 
L 1650 3381 
L 1650 2938 
L 1141 2938 
L 1141 838 
Q 1141 578 1230 506 
Q 1319 434 1431 434 
Q 1550 434 1650 472 
L 1647 0 
z
" transform="scale(0.015625)"/>
       <path id="RobotoCondensed-Regular-69" d="M 428 4278 
Q 428 4419 506 4516 
Q 584 4613 741 4613 
Q 894 4613 975 4516 
Q 1056 4419 1056 4278 
Q 1056 4144 975 4048 
Q 894 3953 741 3953 
Q 584 3953 506 4048 
Q 428 4144 428 4278 
z
M 1009 3381 
L 1009 0 
L 459 0 
L 459 3381 
L 1009 3381 
z
" transform="scale(0.015625)"/>
       <path id="RobotoCondensed-Regular-6e" d="M 1603 2956 
Q 1400 2956 1236 2818 
Q 1072 2681 969 2459 
L 969 0 
L 416 0 
L 416 3381 
L 938 3381 
L 953 3022 
Q 1275 3444 1775 3444 
Q 2191 3444 2437 3162 
Q 2684 2881 2684 2216 
L 2684 0 
L 2131 0 
L 2131 2222 
Q 2131 2619 2000 2787 
Q 1869 2956 1603 2956 
z
" transform="scale(0.015625)"/>
      </defs>
      <use xlink:href="#RobotoCondensed-Regular-50"/>
      <use xlink:href="#RobotoCondensed-Regular-72" transform="translate(55.419922 0)"/>
      <use xlink:href="#RobotoCondensed-Regular-6f" transform="translate(85.888672 0)"/>
      <use xlink:href="#RobotoCondensed-Regular-70" transform="translate(136.083984 0)"/>
      <use xlink:href="#RobotoCondensed-Regular-6f" transform="translate(185.400391 0)"/>
      <use xlink:href="#RobotoCondensed-Regular-72" transform="translate(235.595703 0)"/>
      <use xlink:href="#RobotoCondensed-Regular-74" transform="translate(266.064453 0)"/>
      <use xlink:href="#RobotoCondensed-Regular-69" transform="translate(295.654297 0)"/>
      <use xlink:href="#RobotoCondensed-Regular-6f" transform="translate(318.603516 0)"/>
      <use xlink:href="#RobotoCondensed-Regular-6e" transform="translate(368.798828 0)"/>
     </g>
    </g>
   </g>
   <g id="FillBetweenPolyCollection_1">
    <path d="M 50.343042 183.13 
L 50.343042 183.13 
L 51.141615 183.13 
L 51.940188 183.13 
L 52.738761 183.13 
L 53.537334 183.13 
L 54.335907 183.13 
L 55.13448 183.13 
L 55.933053 183.13 
L 56.731626 183.13 
L 57.530199 183.13 
L 58.328772 183.13 
L 59.127345 183.13 
L 59.925918 183.13 
L 60.724491 183.13 
L 61.523064 183.13 
L 62.321637 183.13 
L 63.12021 183.13 
L 63.918783 183.13 
L 64.717356 183.13 
L 65.515929 183.13 
L 66.314502 183.13 
L 67.113075 183.13 
L 67.911648 183.13 
L 68.710221 183.13 
L 69.508794 183.13 
L 70.307368 183.13 
L 71.105941 183.13 
L 71.904514 183.13 
L 72.703087 183.13 
L 73.50166 183.13 
L 74.300233 183.13 
L 75.098806 183.13 
L 75.897379 183.13 
L 76.695952 183.13 
L 77.494525 183.13 
L 78.293098 183.13 
L 79.091671 183.13 
L 79.890244 183.13 
L 80.688817 183.13 
L 81.48739 183.13 
L 82.285963 183.13 
L 83.084536 183.13 
L 83.883109 183.13 
L 84.681682 183.13 
L 85.480255 183.13 
L 86.278828 183.13 
L 87.077401 183.13 
L 87.875974 183.13 
L 88.674547 183.13 
L 89.47312 183.13 
L 90.271693 183.13 
L 91.070266 183.13 
L 91.868839 183.13 
L 92.667412 183.13 
L 93.465985 183.13 
L 94.264558 183.13 
L 95.063131 183.13 
L 95.861704 183.13 
L 96.660277 183.13 
L 97.458851 183.13 
L 98.257424 183.13 
L 99.055997 183.13 
L 99.85457 183.13 
L 100.653143 183.13 
L 101.451716 183.13 
L 102.250289 183.13 
L 103.048862 183.13 
L 103.847435 183.13 
L 104.646008 183.13 
L 105.444581 183.13 
L 106.243154 183.13 
L 107.041727 183.13 
L 107.8403 183.13 
L 108.638873 183.13 
L 109.437446 183.13 
L 110.236019 183.13 
L 111.034592 183.13 
L 111.833165 183.13 
L 112.631738 183.13 
L 113.430311 183.13 
L 114.228884 183.13 
L 115.027457 183.13 
L 115.82603 183.13 
L 116.624603 183.13 
L 117.423176 183.13 
L 118.221749 183.13 
L 119.020322 183.13 
L 119.818895 183.13 
L 120.617468 183.13 
L 121.416041 183.13 
L 122.214614 183.13 
L 123.013187 183.13 
L 123.81176 183.13 
L 124.610333 183.13 
L 125.408907 183.13 
L 126.20748 183.13 
L 127.006053 183.13 
L 127.804626 183.13 
L 128.603199 183.13 
L 129.401772 183.13 
L 130.200345 183.13 
L 130.998918 183.13 
L 131.797491 183.13 
L 132.596064 183.13 
L 133.394637 183.13 
L 134.19321 183.13 
L 134.991783 183.13 
L 135.790356 183.13 
L 136.588929 183.13 
L 137.387502 183.13 
L 138.186075 183.13 
L 138.984648 183.13 
L 139.783221 183.13 
L 140.581794 183.13 
L 141.380367 183.13 
L 142.17894 183.13 
L 142.977513 183.13 
L 143.776086 183.13 
L 144.574659 183.13 
L 145.373232 183.13 
L 146.171805 183.13 
L 146.970378 183.13 
L 147.768951 183.13 
L 148.567524 183.13 
L 149.366097 183.13 
L 150.16467 183.13 
L 150.963243 183.13 
L 151.761816 183.13 
L 152.56039 183.13 
L 153.358963 183.13 
L 154.157536 183.13 
L 154.956109 183.13 
L 155.754682 183.13 
L 156.553255 183.13 
L 157.351828 183.13 
L 158.150401 183.13 
L 158.948974 183.13 
L 159.747547 183.13 
L 160.54612 183.13 
L 161.344693 183.13 
L 162.143266 183.13 
L 162.941839 183.13 
L 163.740412 183.13 
L 164.538985 183.13 
L 165.337558 183.13 
L 166.136131 183.13 
L 166.934704 183.13 
L 167.733277 183.13 
L 168.53185 183.13 
L 169.330423 183.13 
L 170.128996 183.13 
L 170.927569 183.13 
L 171.726142 183.13 
L 172.524715 183.13 
L 173.323288 183.13 
L 174.121861 183.13 
L 174.920434 183.13 
L 175.719007 183.13 
L 176.51758 183.13 
L 177.316153 183.13 
L 178.114726 183.13 
L 178.913299 183.13 
L 179.711873 183.13 
L 180.510446 183.13 
L 181.309019 183.13 
L 182.107592 183.13 
L 182.906165 183.13 
L 183.704738 183.13 
L 184.503311 183.13 
L 185.301884 183.13 
L 186.100457 183.13 
L 186.89903 183.13 
L 187.697603 183.13 
L 188.496176 183.13 
L 189.294749 183.13 
L 190.093322 183.13 
L 190.891895 183.13 
L 191.690468 183.13 
L 192.489041 183.13 
L 193.287614 183.13 
L 194.086187 183.13 
L 194.88476 183.13 
L 195.683333 183.13 
L 196.481906 183.13 
L 197.280479 183.13 
L 198.079052 183.13 
L 198.877625 183.13 
L 199.676198 183.13 
L 200.474771 183.13 
L 201.273344 183.13 
L 202.071917 183.13 
L 202.87049 183.13 
L 203.669063 183.13 
L 204.467636 183.13 
L 205.266209 183.13 
L 206.064782 183.13 
L 206.863356 183.13 
L 207.661929 183.13 
L 208.460502 183.13 
L 209.259075 183.13 
L 210.057648 183.13 
L 210.856221 183.13 
L 211.654794 183.13 
L 212.453367 183.13 
L 213.25194 183.13 
L 214.050513 183.13 
L 214.849086 183.13 
L 215.647659 183.13 
L 216.446232 183.13 
L 217.244805 183.13 
L 218.043378 183.13 
L 218.841951 183.13 
L 219.640524 183.13 
L 220.439097 183.13 
L 221.23767 183.13 
L 222.036243 183.13 
L 222.834816 183.13 
L 223.633389 183.13 
L 224.431962 183.13 
L 225.230535 183.13 
L 226.029108 183.13 
L 226.827681 183.13 
L 227.626254 183.13 
L 228.424827 183.13 
L 229.2234 183.13 
L 230.021973 183.13 
L 230.820546 183.13 
L 231.619119 183.13 
L 232.417692 183.13 
L 233.216265 183.13 
L 234.014838 183.13 
L 234.813412 183.13 
L 235.611985 183.13 
L 236.410558 183.13 
L 237.209131 183.13 
L 238.007704 183.13 
L 238.806277 183.13 
L 239.60485 183.13 
L 240.403423 183.13 
L 241.201996 183.13 
L 242.000569 183.13 
L 242.799142 183.13 
L 243.597715 183.13 
L 244.396288 183.13 
L 245.194861 183.13 
L 245.993434 183.13 
L 246.792007 183.13 
L 247.59058 183.13 
L 248.389153 183.13 
L 249.187726 183.13 
L 249.986299 183.13 
L 250.784872 183.13 
L 251.583445 183.13 
L 252.382018 183.13 
L 253.180591 183.13 
L 253.979164 183.13 
L 254.777737 183.13 
L 255.57631 183.13 
L 256.374883 183.13 
L 257.173456 183.13 
L 257.972029 183.13 
L 258.770602 183.13 
L 259.569175 183.13 
L 260.367748 183.13 
L 261.166321 183.13 
L 261.964895 183.13 
L 262.763468 183.13 
L 263.562041 183.13 
L 264.360614 183.13 
L 265.159187 183.13 
L 265.95776 183.13 
L 266.756333 183.13 
L 267.554906 183.13 
L 268.353479 183.13 
L 269.152052 183.13 
L 269.950625 183.13 
L 270.749198 183.13 
L 271.547771 183.13 
L 272.346344 183.13 
L 273.144917 183.13 
L 273.94349 183.13 
L 274.742063 183.13 
L 275.540636 183.13 
L 276.339209 183.13 
L 277.137782 183.13 
L 277.936355 183.13 
L 278.734928 183.13 
L 279.533501 183.13 
L 280.332074 183.13 
L 281.130647 183.13 
L 281.92922 183.13 
L 282.727793 183.13 
L 283.526366 183.13 
L 284.324939 183.13 
L 285.123512 183.13 
L 285.922085 183.13 
L 286.720658 183.13 
L 287.519231 183.13 
L 288.317804 183.13 
L 289.116378 183.13 
L 289.116378 173.779798 
L 289.116378 173.779798 
L 288.317804 175.012785 
L 287.519231 176.155478 
L 286.720658 177.208617 
L 285.922085 178.17294 
L 285.123512 179.049185 
L 284.324939 179.838092 
L 283.526366 180.540399 
L 282.727793 181.156845 
L 281.92922 181.688168 
L 281.130647 182.135107 
L 280.332074 182.498401 
L 279.533501 182.778789 
L 278.734928 182.977009 
L 277.936355 183.0938 
L 277.137782 183.129659 
L 276.339209 182.986505 
L 275.540636 182.608615 
L 274.742063 182.032525 
L 273.94349 181.294769 
L 273.144917 180.431882 
L 272.346344 179.480399 
L 271.547771 178.476854 
L 270.749198 177.457782 
L 269.950625 176.459717 
L 269.152052 175.519194 
L 268.353479 174.672748 
L 267.554906 173.956913 
L 266.756333 173.408224 
L 265.95776 173.063215 
L 265.159187 172.957066 
L 264.360614 172.959028 
L 263.562041 172.964229 
L 262.763468 172.972627 
L 261.964895 172.984181 
L 261.166321 172.998849 
L 260.367748 173.016589 
L 259.569175 173.037359 
L 258.770602 173.061118 
L 257.972029 173.087824 
L 257.173456 173.117436 
L 256.374883 173.14991 
L 255.57631 173.185206 
L 254.777737 173.223283 
L 253.979164 173.264097 
L 253.180591 173.310394 
L 252.382018 173.509997 
L 251.583445 173.92235 
L 250.784872 174.513348 
L 249.986299 175.248884 
L 249.187726 176.09485 
L 248.389153 177.017141 
L 247.59058 177.981651 
L 246.792007 178.954272 
L 245.993434 179.900898 
L 245.194861 180.787422 
L 244.396288 181.579739 
L 243.597715 182.243741 
L 242.799142 182.745322 
L 242.000569 183.050376 
L 241.201996 183.125171 
L 240.403423 182.963994 
L 239.60485 182.598323 
L 238.806277 182.060747 
L 238.007704 181.383855 
L 237.209131 180.600235 
L 236.410558 179.742476 
L 235.611985 178.843167 
L 234.813412 177.934896 
L 234.014838 177.050251 
L 233.216265 176.221822 
L 232.417692 175.482197 
L 231.619119 174.863964 
L 230.820546 174.399713 
L 230.021973 174.122031 
L 229.2234 174.063337 
L 228.424827 174.235514 
L 227.626254 174.610554 
L 226.827681 175.15587 
L 226.029108 175.838872 
L 225.230535 176.626973 
L 224.431962 177.487583 
L 223.633389 178.388115 
L 222.834816 179.295978 
L 222.036243 180.178586 
L 221.23767 181.003349 
L 220.439097 181.737678 
L 219.640524 182.348986 
L 218.841951 182.804683 
L 218.043378 183.072181 
L 217.244805 183.13 
L 216.446232 183.13 
L 215.647659 183.13 
L 214.849086 183.13 
L 214.050513 183.13 
L 213.25194 183.13 
L 212.453367 183.13 
L 211.654794 183.13 
L 210.856221 183.13 
L 210.057648 183.13 
L 209.259075 183.13 
L 208.460502 183.13 
L 207.661929 183.13 
L 206.863356 183.13 
L 206.064782 183.13 
L 205.266209 183.13 
L 204.467636 183.13 
L 203.669063 183.13 
L 202.87049 183.13 
L 202.071917 183.13 
L 201.273344 183.13 
L 200.474771 183.13 
L 199.676198 183.13 
L 198.877625 183.13 
L 198.079052 183.13 
L 197.280479 183.13 
L 196.481906 183.13 
L 195.683333 183.13 
L 194.88476 183.13 
L 194.086187 183.13 
L 193.287614 183.13 
L 192.489041 183.13 
L 191.690468 183.13 
L 190.891895 183.13 
L 190.093322 183.13 
L 189.294749 183.13 
L 188.496176 183.13 
L 187.697603 183.13 
L 186.89903 183.13 
L 186.100457 183.13 
L 185.301884 183.13 
L 184.503311 183.13 
L 183.704738 183.13 
L 182.906165 183.13 
L 182.107592 183.13 
L 181.309019 183.13 
L 180.510446 183.13 
L 179.711873 183.13 
L 178.913299 183.13 
L 178.114726 183.13 
L 177.316153 183.13 
L 176.51758 183.13 
L 175.719007 183.13 
L 174.920434 183.13 
L 174.121861 183.13 
L 173.323288 183.13 
L 172.524715 183.13 
L 171.726142 183.13 
L 170.927569 183.13 
L 170.128996 183.13 
L 169.330423 183.13 
L 168.53185 183.13 
L 167.733277 183.13 
L 166.934704 183.13 
L 166.136131 183.13 
L 165.337558 183.13 
L 164.538985 183.13 
L 163.740412 183.13 
L 162.941839 183.13 
L 162.143266 183.13 
L 161.344693 183.13 
L 160.54612 183.13 
L 159.747547 183.13 
L 158.948974 183.13 
L 158.150401 183.13 
L 157.351828 183.13 
L 156.553255 183.13 
L 155.754682 183.13 
L 154.956109 183.13 
L 154.157536 183.13 
L 153.358963 183.13 
L 152.56039 183.13 
L 151.761816 183.13 
L 150.963243 183.13 
L 150.16467 183.13 
L 149.366097 183.13 
L 148.567524 183.13 
L 147.768951 183.13 
L 146.970378 183.13 
L 146.171805 183.13 
L 145.373232 183.13 
L 144.574659 183.13 
L 143.776086 183.13 
L 142.977513 183.13 
L 142.17894 183.13 
L 141.380367 183.13 
L 140.581794 183.13 
L 139.783221 183.13 
L 138.984648 183.13 
L 138.186075 183.13 
L 137.387502 183.13 
L 136.588929 183.13 
L 135.790356 183.13 
L 134.991783 183.13 
L 134.19321 183.13 
L 133.394637 183.13 
L 132.596064 183.13 
L 131.797491 183.13 
L 130.998918 183.13 
L 130.200345 183.13 
L 129.401772 183.13 
L 128.603199 183.13 
L 127.804626 183.13 
L 127.006053 183.13 
L 126.20748 183.13 
L 125.408907 183.13 
L 124.610333 183.13 
L 123.81176 183.13 
L 123.013187 183.13 
L 122.214614 183.13 
L 121.416041 183.13 
L 120.617468 183.13 
L 119.818895 183.13 
L 119.020322 183.13 
L 118.221749 183.13 
L 117.423176 183.13 
L 116.624603 183.13 
L 115.82603 183.13 
L 115.027457 183.13 
L 114.228884 183.13 
L 113.430311 183.13 
L 112.631738 183.13 
L 111.833165 183.13 
L 111.034592 183.13 
L 110.236019 183.13 
L 109.437446 183.13 
L 108.638873 183.13 
L 107.8403 183.13 
L 107.041727 183.13 
L 106.243154 183.13 
L 105.444581 183.13 
L 104.646008 183.13 
L 103.847435 183.13 
L 103.048862 183.13 
L 102.250289 183.13 
L 101.451716 183.13 
L 100.653143 183.13 
L 99.85457 183.13 
L 99.055997 183.13 
L 98.257424 183.13 
L 97.458851 183.13 
L 96.660277 183.13 
L 95.861704 183.13 
L 95.063131 183.13 
L 94.264558 183.13 
L 93.465985 183.13 
L 92.667412 183.13 
L 91.868839 183.13 
L 91.070266 183.13 
L 90.271693 183.13 
L 89.47312 183.13 
L 88.674547 183.13 
L 87.875974 183.13 
L 87.077401 183.13 
L 86.278828 183.13 
L 85.480255 183.13 
L 84.681682 183.13 
L 83.883109 183.13 
L 83.084536 183.13 
L 82.285963 183.13 
L 81.48739 183.13 
L 80.688817 183.13 
L 79.890244 183.13 
L 79.091671 183.13 
L 78.293098 183.13 
L 77.494525 183.13 
L 76.695952 183.13 
L 75.897379 183.13 
L 75.098806 183.13 
L 74.300233 183.13 
L 73.50166 183.13 
L 72.703087 183.13 
L 71.904514 183.13 
L 71.105941 183.13 
L 70.307368 183.13 
L 69.508794 183.13 
L 68.710221 183.13 
L 67.911648 183.13 
L 67.113075 183.13 
L 66.314502 183.13 
L 65.515929 183.13 
L 64.717356 183.13 
L 63.918783 183.13 
L 63.12021 183.13 
L 62.321637 183.13 
L 61.523064 183.13 
L 60.724491 183.13 
L 59.925918 183.13 
L 59.127345 183.13 
L 58.328772 183.13 
L 57.530199 183.13 
L 56.731626 183.13 
L 55.933053 183.13 
L 55.13448 183.13 
L 54.335907 183.13 
L 53.537334 183.13 
L 52.738761 183.13 
L 51.940188 183.13 
L 51.141615 183.13 
L 50.343042 183.13 
z
" clip-path="url(#p9c46751d1a)" style="fill: url(#h9eb09d1854)"/>
   </g>
   <g id="FillBetweenPolyCollection_2">
    <path d="M 50.343042 122.543953 
L 50.343042 183.13 
L 51.141615 183.13 
L 51.940188 183.13 
L 52.738761 183.13 
L 53.537334 183.13 
L 54.335907 183.13 
L 55.13448 183.13 
L 55.933053 183.13 
L 56.731626 183.13 
L 57.530199 183.13 
L 58.328772 183.13 
L 59.127345 183.13 
L 59.925918 183.13 
L 60.724491 183.13 
L 61.523064 183.13 
L 62.321637 183.13 
L 63.12021 183.13 
L 63.918783 183.13 
L 64.717356 183.13 
L 65.515929 183.13 
L 66.314502 183.13 
L 67.113075 183.13 
L 67.911648 183.13 
L 68.710221 183.13 
L 69.508794 183.13 
L 70.307368 183.13 
L 71.105941 183.13 
L 71.904514 183.13 
L 72.703087 183.13 
L 73.50166 183.13 
L 74.300233 183.13 
L 75.098806 183.13 
L 75.897379 183.13 
L 76.695952 183.13 
L 77.494525 183.13 
L 78.293098 183.13 
L 79.091671 183.13 
L 79.890244 183.13 
L 80.688817 183.13 
L 81.48739 183.13 
L 82.285963 183.13 
L 83.084536 183.13 
L 83.883109 183.13 
L 84.681682 183.13 
L 85.480255 183.13 
L 86.278828 183.13 
L 87.077401 183.13 
L 87.875974 183.13 
L 88.674547 183.13 
L 89.47312 183.13 
L 90.271693 183.13 
L 91.070266 183.13 
L 91.868839 183.13 
L 92.667412 183.13 
L 93.465985 183.13 
L 94.264558 183.13 
L 95.063131 183.13 
L 95.861704 183.13 
L 96.660277 183.13 
L 97.458851 183.13 
L 98.257424 183.13 
L 99.055997 183.13 
L 99.85457 183.13 
L 100.653143 183.13 
L 101.451716 183.13 
L 102.250289 183.13 
L 103.048862 183.13 
L 103.847435 183.13 
L 104.646008 183.13 
L 105.444581 183.13 
L 106.243154 183.13 
L 107.041727 183.13 
L 107.8403 183.13 
L 108.638873 183.13 
L 109.437446 183.13 
L 110.236019 183.13 
L 111.034592 183.13 
L 111.833165 183.13 
L 112.631738 183.13 
L 113.430311 183.13 
L 114.228884 183.13 
L 115.027457 183.13 
L 115.82603 183.13 
L 116.624603 183.13 
L 117.423176 183.13 
L 118.221749 183.13 
L 119.020322 183.13 
L 119.818895 183.13 
L 120.617468 183.13 
L 121.416041 183.13 
L 122.214614 183.13 
L 123.013187 183.13 
L 123.81176 183.13 
L 124.610333 183.13 
L 125.408907 183.13 
L 126.20748 183.13 
L 127.006053 183.13 
L 127.804626 183.13 
L 128.603199 183.13 
L 129.401772 183.13 
L 130.200345 183.13 
L 130.998918 183.13 
L 131.797491 183.13 
L 132.596064 183.13 
L 133.394637 183.13 
L 134.19321 183.13 
L 134.991783 183.13 
L 135.790356 183.13 
L 136.588929 183.13 
L 137.387502 183.13 
L 138.186075 183.13 
L 138.984648 183.13 
L 139.783221 183.13 
L 140.581794 183.13 
L 141.380367 183.13 
L 142.17894 183.13 
L 142.977513 183.13 
L 143.776086 183.13 
L 144.574659 183.13 
L 145.373232 183.13 
L 146.171805 183.13 
L 146.970378 183.13 
L 147.768951 183.13 
L 148.567524 183.13 
L 149.366097 183.13 
L 150.16467 183.13 
L 150.963243 183.13 
L 151.761816 183.13 
L 152.56039 183.13 
L 153.358963 183.13 
L 154.157536 183.13 
L 154.956109 183.13 
L 155.754682 183.13 
L 156.553255 183.13 
L 157.351828 183.13 
L 158.150401 183.13 
L 158.948974 183.13 
L 159.747547 183.13 
L 160.54612 183.13 
L 161.344693 183.13 
L 162.143266 183.13 
L 162.941839 183.13 
L 163.740412 183.13 
L 164.538985 183.13 
L 165.337558 183.13 
L 166.136131 183.13 
L 166.934704 183.13 
L 167.733277 183.13 
L 168.53185 183.13 
L 169.330423 183.13 
L 170.128996 183.13 
L 170.927569 183.13 
L 171.726142 183.13 
L 172.524715 183.13 
L 173.323288 183.13 
L 174.121861 183.13 
L 174.920434 183.13 
L 175.719007 183.13 
L 176.51758 183.13 
L 177.316153 183.13 
L 178.114726 183.13 
L 178.913299 183.13 
L 179.711873 183.13 
L 180.510446 183.13 
L 181.309019 183.13 
L 182.107592 183.13 
L 182.906165 183.13 
L 183.704738 183.13 
L 184.503311 183.13 
L 185.301884 183.13 
L 186.100457 183.13 
L 186.89903 183.13 
L 187.697603 183.13 
L 188.496176 183.13 
L 189.294749 183.13 
L 190.093322 183.13 
L 190.891895 183.13 
L 191.690468 183.13 
L 192.489041 183.13 
L 193.287614 183.13 
L 194.086187 183.13 
L 194.88476 183.13 
L 195.683333 183.13 
L 196.481906 183.13 
L 197.280479 183.13 
L 198.079052 183.13 
L 198.877625 183.13 
L 199.676198 183.13 
L 200.474771 183.13 
L 201.273344 183.13 
L 202.071917 183.13 
L 202.87049 183.13 
L 203.669063 183.13 
L 204.467636 183.13 
L 205.266209 183.13 
L 206.064782 183.13 
L 206.863356 183.13 
L 207.661929 183.13 
L 208.460502 183.13 
L 209.259075 183.13 
L 210.057648 183.13 
L 210.856221 183.13 
L 211.654794 183.13 
L 212.453367 183.13 
L 213.25194 183.13 
L 214.050513 183.13 
L 214.849086 183.13 
L 215.647659 183.13 
L 216.446232 183.13 
L 217.244805 183.13 
L 218.043378 183.072181 
L 218.841951 182.804683 
L 219.640524 182.348986 
L 220.439097 181.737678 
L 221.23767 181.003349 
L 222.036243 180.178586 
L 222.834816 179.295978 
L 223.633389 178.388115 
L 224.431962 177.487583 
L 225.230535 176.626973 
L 226.029108 175.838872 
L 226.827681 175.15587 
L 227.626254 174.610554 
L 228.424827 174.235514 
L 229.2234 174.063337 
L 230.021973 174.122031 
L 230.820546 174.399713 
L 231.619119 174.863964 
L 232.417692 175.482197 
L 233.216265 176.221822 
L 234.014838 177.050251 
L 234.813412 177.934896 
L 235.611985 178.843167 
L 236.410558 179.742476 
L 237.209131 180.600235 
L 238.007704 181.383855 
L 238.806277 182.060747 
L 239.60485 182.598323 
L 240.403423 182.963994 
L 241.201996 183.125171 
L 242.000569 183.050376 
L 242.799142 182.745322 
L 243.597715 182.243741 
L 244.396288 181.579739 
L 245.194861 180.787422 
L 245.993434 179.900898 
L 246.792007 178.954272 
L 247.59058 177.981651 
L 248.389153 177.017141 
L 249.187726 176.09485 
L 249.986299 175.248884 
L 250.784872 174.513348 
L 251.583445 173.92235 
L 252.382018 173.509997 
L 253.180591 173.310394 
L 253.979164 173.264097 
L 254.777737 173.223283 
L 255.57631 173.185206 
L 256.374883 173.14991 
L 257.173456 173.117436 
L 257.972029 173.087824 
L 258.770602 173.061118 
L 259.569175 173.037359 
L 260.367748 173.016589 
L 261.166321 172.998849 
L 261.964895 172.984181 
L 262.763468 172.972627 
L 263.562041 172.964229 
L 264.360614 172.959028 
L 265.159187 172.957066 
L 265.95776 173.063215 
L 266.756333 173.408224 
L 267.554906 173.956913 
L 268.353479 174.672748 
L 269.152052 175.519194 
L 269.950625 176.459717 
L 270.749198 177.457782 
L 271.547771 178.476854 
L 272.346344 179.480399 
L 273.144917 180.431882 
L 273.94349 181.294769 
L 274.742063 182.032525 
L 275.540636 182.608615 
L 276.339209 182.986505 
L 277.137782 183.129659 
L 277.936355 183.0938 
L 278.734928 182.977009 
L 279.533501 182.778789 
L 280.332074 182.498401 
L 281.130647 182.135107 
L 281.92922 181.688168 
L 282.727793 181.156845 
L 283.526366 180.540399 
L 284.324939 179.838092 
L 285.123512 179.049185 
L 285.922085 178.17294 
L 286.720658 177.208617 
L 287.519231 176.155478 
L 288.317804 175.012785 
L 289.116378 173.779798 
L 289.116378 79.109004 
L 289.116378 79.109004 
L 288.317804 80.308408 
L 287.519231 81.352918 
L 286.720658 82.247116 
L 285.922085 82.995588 
L 285.123512 83.602917 
L 284.324939 84.073688 
L 283.526366 84.412484 
L 282.727793 84.623889 
L 281.92922 84.712488 
L 281.130647 84.682865 
L 280.332074 84.539603 
L 279.533501 84.287287 
L 278.734928 83.930501 
L 277.936355 83.473829 
L 277.137782 82.921062 
L 276.339209 81.947472 
L 275.540636 80.354626 
L 274.742063 78.245085 
L 273.94349 75.721412 
L 273.144917 72.886167 
L 272.346344 69.841914 
L 271.547771 66.691212 
L 270.749198 63.536625 
L 269.950625 60.480713 
L 269.152052 57.626038 
L 268.353479 55.075163 
L 267.554906 52.930648 
L 266.756333 51.295056 
L 265.95776 50.270948 
L 265.159187 49.958489 
L 264.360614 50.148495 
L 263.562041 50.625212 
L 262.763468 51.347625 
L 261.964895 52.27472 
L 261.166321 53.365481 
L 260.367748 54.578894 
L 259.569175 55.873944 
L 258.770602 57.209614 
L 257.972029 58.544891 
L 257.173456 59.838759 
L 256.374883 61.050203 
L 255.57631 62.138208 
L 254.777737 63.061759 
L 253.979164 63.779841 
L 253.180591 64.256815 
L 252.382018 64.754791 
L 251.583445 65.418313 
L 250.784872 66.221045 
L 249.986299 67.136654 
L 249.187726 68.138807 
L 248.389153 69.201168 
L 247.59058 70.297406 
L 246.792007 71.401184 
L 245.993434 72.486171 
L 245.194861 73.52603 
L 244.396288 74.49443 
L 243.597715 75.365035 
L 242.799142 76.111512 
L 242.000569 76.707527 
L 241.201996 77.136689 
L 240.403423 77.697292 
L 239.60485 78.509149 
L 238.806277 79.531449 
L 238.007704 80.723379 
L 237.209131 82.04413 
L 236.410558 83.452889 
L 235.611985 84.908844 
L 234.813412 86.371184 
L 234.014838 87.799098 
L 233.216265 89.151774 
L 232.417692 90.3884 
L 231.619119 91.468165 
L 230.820546 92.350258 
L 230.021973 92.993867 
L 229.2234 93.37506 
L 228.424827 93.826358 
L 227.626254 94.465667 
L 226.827681 95.259671 
L 226.029108 96.175053 
L 225.230535 97.178496 
L 224.431962 98.236683 
L 223.633389 99.316299 
L 222.834816 100.384024 
L 222.036243 101.406544 
L 221.23767 102.350542 
L 220.439097 103.182699 
L 219.640524 103.8697 
L 218.841951 104.378228 
L 218.043378 104.674966 
L 217.244805 104.71257 
L 216.446232 104.268071 
L 215.647659 103.335033 
L 214.849086 101.992571 
L 214.050513 100.3198 
L 213.25194 98.395837 
L 212.453367 96.299797 
L 211.654794 94.110796 
L 210.856221 91.90795 
L 210.057648 89.770375 
L 209.259075 87.777185 
L 208.460502 86.007498 
L 207.661929 84.540428 
L 206.863356 83.455092 
L 206.064782 82.830605 
L 205.266209 82.762328 
L 204.467636 83.462551 
L 203.669063 84.88349 
L 202.87049 86.907478 
L 202.071917 89.416847 
L 201.273344 92.293929 
L 200.474771 95.421055 
L 199.676198 98.680557 
L 198.877625 101.954768 
L 198.079052 105.12602 
L 197.280479 108.076644 
L 196.481906 110.688972 
L 195.683333 112.845337 
L 194.88476 114.42807 
L 194.086187 115.319503 
L 193.287614 115.425856 
L 192.489041 114.915161 
L 191.690468 113.909798 
L 190.891895 112.490295 
L 190.093322 110.737176 
L 189.294749 108.730968 
L 188.496176 106.552198 
L 187.697603 104.281391 
L 186.89903 101.999073 
L 186.100457 99.785772 
L 185.301884 97.722012 
L 184.503311 95.888321 
L 183.704738 94.365224 
L 182.906165 93.233247 
L 182.107592 92.572917 
L 181.309019 92.403655 
L 180.510446 92.326667 
L 179.711873 92.254789 
L 178.913299 92.188081 
L 178.114726 92.126603 
L 177.316153 92.070414 
L 176.51758 92.019576 
L 175.719007 91.974147 
L 174.920434 91.934187 
L 174.121861 91.899757 
L 173.323288 91.870916 
L 172.524715 91.847723 
L 171.726142 91.83024 
L 170.927569 91.818525 
L 170.128996 91.812639 
L 169.330423 91.864132 
L 168.53185 92.260543 
L 167.733277 92.998571 
L 166.934704 94.021043 
L 166.136131 95.270784 
L 165.337558 96.690619 
L 164.538985 98.223374 
L 163.740412 99.811874 
L 162.941839 101.398944 
L 162.143266 102.927411 
L 161.344693 104.3401 
L 160.54612 105.579835 
L 159.747547 106.589442 
L 158.948974 107.311748 
L 158.150401 107.689576 
L 157.351828 107.684353 
L 156.553255 107.371008 
L 155.754682 106.80179 
L 154.956109 106.019885 
L 154.157536 105.068478 
L 153.358963 103.990754 
L 152.56039 102.829898 
L 151.761816 101.629096 
L 150.963243 100.431533 
L 150.16467 99.280394 
L 149.366097 98.218864 
L 148.567524 97.29013 
L 147.768951 96.537375 
L 146.970378 96.003785 
L 146.171805 95.732545 
L 145.373232 95.715375 
L 144.574659 95.764461 
L 143.776086 95.855835 
L 142.977513 95.987188 
L 142.17894 96.156212 
L 141.380367 96.360598 
L 140.581794 96.59804 
L 139.783221 96.866227 
L 138.984648 97.162852 
L 138.186075 97.485607 
L 137.387502 97.832183 
L 136.588929 98.200272 
L 135.790356 98.587566 
L 134.991783 98.991756 
L 134.19321 99.410534 
L 133.394637 99.885481 
L 132.596064 100.556583 
L 131.797491 101.41515 
L 130.998918 102.439367 
L 130.200345 103.607421 
L 129.401772 104.897496 
L 128.603199 106.287779 
L 127.804626 107.756456 
L 127.006053 109.281713 
L 126.20748 110.841735 
L 125.408907 112.414708 
L 124.610333 113.978819 
L 123.81176 115.512253 
L 123.013187 116.993196 
L 122.214614 118.399833 
L 121.416041 119.782994 
L 120.617468 121.3234 
L 119.818895 122.996274 
L 119.020322 124.763243 
L 118.221749 126.585938 
L 117.423176 128.425988 
L 116.624603 130.245022 
L 115.82603 132.00467 
L 115.027457 133.666561 
L 114.228884 135.192325 
L 113.430311 136.54359 
L 112.631738 137.681987 
L 111.833165 138.569144 
L 111.034592 139.166692 
L 110.236019 139.436259 
L 109.437446 139.282584 
L 108.638873 138.589342 
L 107.8403 137.430323 
L 107.041727 135.886884 
L 106.243154 134.040385 
L 105.444581 131.972184 
L 104.646008 129.76364 
L 103.847435 127.496111 
L 103.048862 125.250956 
L 102.250289 123.109532 
L 101.451716 121.153199 
L 100.653143 119.463315 
L 99.85457 118.121239 
L 99.055997 117.208329 
L 98.257424 116.805944 
L 97.458851 116.912962 
L 96.660277 117.368823 
L 95.861704 118.117635 
L 95.063131 119.107777 
L 94.264558 120.287628 
L 93.465985 121.605566 
L 92.667412 123.00997 
L 91.868839 124.449218 
L 91.070266 125.87169 
L 90.271693 127.225763 
L 89.47312 128.459817 
L 88.674547 129.522229 
L 87.875974 130.361378 
L 87.077401 130.925644 
L 86.278828 131.163403 
L 85.480255 130.960165 
L 84.681682 130.230112 
L 83.883109 129.050685 
L 83.084536 127.501771 
L 82.285963 125.663259 
L 81.48739 123.615038 
L 80.688817 121.436999 
L 79.890244 119.209028 
L 79.091671 117.011016 
L 78.293098 114.922851 
L 77.494525 113.024423 
L 76.695952 111.395619 
L 75.897379 110.11633 
L 75.098806 109.266445 
L 74.300233 108.925851 
L 73.50166 109.197298 
L 72.703087 110.089088 
L 71.904514 111.507359 
L 71.105941 113.357674 
L 70.307368 115.545598 
L 69.508794 117.976694 
L 68.710221 120.556527 
L 67.911648 123.190661 
L 67.113075 125.78466 
L 66.314502 128.244087 
L 65.515929 130.474507 
L 64.717356 132.381484 
L 63.918783 133.870581 
L 63.12021 134.847364 
L 62.321637 135.217395 
L 61.523064 135.19285 
L 60.724491 135.103401 
L 59.925918 134.937631 
L 59.127345 134.683313 
L 58.328772 134.328217 
L 57.530199 133.860113 
L 56.731626 133.266771 
L 55.933053 132.535963 
L 55.13448 131.655458 
L 54.335907 130.613028 
L 53.537334 129.396442 
L 52.738761 127.993471 
L 51.940188 126.391885 
L 51.141615 124.579456 
L 50.343042 122.543953 
z
" clip-path="url(#p9c46751d1a)" style="fill: url(#h02b3922843)"/>
   </g>
   <g id="FillBetweenPolyCollection_3">
    <path d="M 50.343042 122.543953 
L 50.343042 122.543953 
L 51.141615 124.579456 
L 51.940188 126.391885 
L 52.738761 127.993471 
L 53.537334 129.396442 
L 54.335907 130.613028 
L 55.13448 131.655458 
L 55.933053 132.535963 
L 56.731626 133.266771 
L 57.530199 133.860113 
L 58.328772 134.328217 
L 59.127345 134.683313 
L 59.925918 134.937631 
L 60.724491 135.103401 
L 61.523064 135.19285 
L 62.321637 135.217395 
L 63.12021 134.847364 
L 63.918783 133.870581 
L 64.717356 132.381484 
L 65.515929 130.474507 
L 66.314502 128.244087 
L 67.113075 125.78466 
L 67.911648 123.190661 
L 68.710221 120.556527 
L 69.508794 117.976694 
L 70.307368 115.545598 
L 71.105941 113.357674 
L 71.904514 111.507359 
L 72.703087 110.089088 
L 73.50166 109.197298 
L 74.300233 108.925851 
L 75.098806 109.266445 
L 75.897379 110.11633 
L 76.695952 111.395619 
L 77.494525 113.024423 
L 78.293098 114.922851 
L 79.091671 117.011016 
L 79.890244 119.209028 
L 80.688817 121.436999 
L 81.48739 123.615038 
L 82.285963 125.663259 
L 83.084536 127.501771 
L 83.883109 129.050685 
L 84.681682 130.230112 
L 85.480255 130.960165 
L 86.278828 131.163403 
L 87.077401 130.925644 
L 87.875974 130.361378 
L 88.674547 129.522229 
L 89.47312 128.459817 
L 90.271693 127.225763 
L 91.070266 125.87169 
L 91.868839 124.449218 
L 92.667412 123.00997 
L 93.465985 121.605566 
L 94.264558 120.287628 
L 95.063131 119.107777 
L 95.861704 118.117635 
L 96.660277 117.368823 
L 97.458851 116.912962 
L 98.257424 116.805944 
L 99.055997 117.208329 
L 99.85457 118.121239 
L 100.653143 119.463315 
L 101.451716 121.153199 
L 102.250289 123.109532 
L 103.048862 125.250956 
L 103.847435 127.496111 
L 104.646008 129.76364 
L 105.444581 131.972184 
L 106.243154 134.040385 
L 107.041727 135.886884 
L 107.8403 137.430323 
L 108.638873 138.589342 
L 109.437446 139.282584 
L 110.236019 139.436259 
L 111.034592 139.166692 
L 111.833165 138.569144 
L 112.631738 137.681987 
L 113.430311 136.54359 
L 114.228884 135.192325 
L 115.027457 133.666561 
L 115.82603 132.00467 
L 116.624603 130.245022 
L 117.423176 128.425988 
L 118.221749 126.585938 
L 119.020322 124.763243 
L 119.818895 122.996274 
L 120.617468 121.3234 
L 121.416041 119.782994 
L 122.214614 118.399833 
L 123.013187 116.993196 
L 123.81176 115.512253 
L 124.610333 113.978819 
L 125.408907 112.414708 
L 126.20748 110.841735 
L 127.006053 109.281713 
L 127.804626 107.756456 
L 128.603199 106.287779 
L 129.401772 104.897496 
L 130.200345 103.607421 
L 130.998918 102.439367 
L 131.797491 101.41515 
L 132.596064 100.556583 
L 133.394637 99.885481 
L 134.19321 99.410534 
L 134.991783 98.991756 
L 135.790356 98.587566 
L 136.588929 98.200272 
L 137.387502 97.832183 
L 138.186075 97.485607 
L 138.984648 97.162852 
L 139.783221 96.866227 
L 140.581794 96.59804 
L 141.380367 96.360598 
L 142.17894 96.156212 
L 142.977513 95.987188 
L 143.776086 95.855835 
L 144.574659 95.764461 
L 145.373232 95.715375 
L 146.171805 95.732545 
L 146.970378 96.003785 
L 147.768951 96.537375 
L 148.567524 97.29013 
L 149.366097 98.218864 
L 150.16467 99.280394 
L 150.963243 100.431533 
L 151.761816 101.629096 
L 152.56039 102.829898 
L 153.358963 103.990754 
L 154.157536 105.068478 
L 154.956109 106.019885 
L 155.754682 106.80179 
L 156.553255 107.371008 
L 157.351828 107.684353 
L 158.150401 107.689576 
L 158.948974 107.311748 
L 159.747547 106.589442 
L 160.54612 105.579835 
L 161.344693 104.3401 
L 162.143266 102.927411 
L 162.941839 101.398944 
L 163.740412 99.811874 
L 164.538985 98.223374 
L 165.337558 96.690619 
L 166.136131 95.270784 
L 166.934704 94.021043 
L 167.733277 92.998571 
L 168.53185 92.260543 
L 169.330423 91.864132 
L 170.128996 91.812639 
L 170.927569 91.818525 
L 171.726142 91.83024 
L 172.524715 91.847723 
L 173.323288 91.870916 
L 174.121861 91.899757 
L 174.920434 91.934187 
L 175.719007 91.974147 
L 176.51758 92.019576 
L 177.316153 92.070414 
L 178.114726 92.126603 
L 178.913299 92.188081 
L 179.711873 92.254789 
L 180.510446 92.326667 
L 181.309019 92.403655 
L 182.107592 92.572917 
L 182.906165 93.233247 
L 183.704738 94.365224 
L 184.503311 95.888321 
L 185.301884 97.722012 
L 186.100457 99.785772 
L 186.89903 101.999073 
L 187.697603 104.281391 
L 188.496176 106.552198 
L 189.294749 108.730968 
L 190.093322 110.737176 
L 190.891895 112.490295 
L 191.690468 113.909798 
L 192.489041 114.915161 
L 193.287614 115.425856 
L 194.086187 115.319503 
L 194.88476 114.42807 
L 195.683333 112.845337 
L 196.481906 110.688972 
L 197.280479 108.076644 
L 198.079052 105.12602 
L 198.877625 101.954768 
L 199.676198 98.680557 
L 200.474771 95.421055 
L 201.273344 92.293929 
L 202.071917 89.416847 
L 202.87049 86.907478 
L 203.669063 84.88349 
L 204.467636 83.462551 
L 205.266209 82.762328 
L 206.064782 82.830605 
L 206.863356 83.455092 
L 207.661929 84.540428 
L 208.460502 86.007498 
L 209.259075 87.777185 
L 210.057648 89.770375 
L 210.856221 91.90795 
L 211.654794 94.110796 
L 212.453367 96.299797 
L 213.25194 98.395837 
L 214.050513 100.3198 
L 214.849086 101.992571 
L 215.647659 103.335033 
L 216.446232 104.268071 
L 217.244805 104.71257 
L 218.043378 104.674966 
L 218.841951 104.378228 
L 219.640524 103.8697 
L 220.439097 103.182699 
L 221.23767 102.350542 
L 222.036243 101.406544 
L 222.834816 100.384024 
L 223.633389 99.316299 
L 224.431962 98.236683 
L 225.230535 97.178496 
L 226.029108 96.175053 
L 226.827681 95.259671 
L 227.626254 94.465667 
L 228.424827 93.826358 
L 229.2234 93.37506 
L 230.021973 92.993867 
L 230.820546 92.350258 
L 231.619119 91.468165 
L 232.417692 90.3884 
L 233.216265 89.151774 
L 234.014838 87.799098 
L 234.813412 86.371184 
L 235.611985 84.908844 
L 236.410558 83.452889 
L 237.209131 82.04413 
L 238.007704 80.723379 
L 238.806277 79.531449 
L 239.60485 78.509149 
L 240.403423 77.697292 
L 241.201996 77.136689 
L 242.000569 76.707527 
L 242.799142 76.111512 
L 243.597715 75.365035 
L 244.396288 74.49443 
L 245.194861 73.52603 
L 245.993434 72.486171 
L 246.792007 71.401184 
L 247.59058 70.297406 
L 248.389153 69.201168 
L 249.187726 68.138807 
L 249.986299 67.136654 
L 250.784872 66.221045 
L 251.583445 65.418313 
L 252.382018 64.754791 
L 253.180591 64.256815 
L 253.979164 63.779841 
L 254.777737 63.061759 
L 255.57631 62.138208 
L 256.374883 61.050203 
L 257.173456 59.838759 
L 257.972029 58.544891 
L 258.770602 57.209614 
L 259.569175 55.873944 
L 260.367748 54.578894 
L 261.166321 53.365481 
L 261.964895 52.27472 
L 262.763468 51.347625 
L 263.562041 50.625212 
L 264.360614 50.148495 
L 265.159187 49.958489 
L 265.95776 50.270948 
L 266.756333 51.295056 
L 267.554906 52.930648 
L 268.353479 55.075163 
L 269.152052 57.626038 
L 269.950625 60.480713 
L 270.749198 63.536625 
L 271.547771 66.691212 
L 272.346344 69.841914 
L 273.144917 72.886167 
L 273.94349 75.721412 
L 274.742063 78.245085 
L 275.540636 80.354626 
L 276.339209 81.947472 
L 277.137782 82.921062 
L 277.936355 83.473829 
L 278.734928 83.930501 
L 279.533501 84.287287 
L 280.332074 84.539603 
L 281.130647 84.682865 
L 281.92922 84.712488 
L 282.727793 84.623889 
L 283.526366 84.412484 
L 284.324939 84.073688 
L 285.123512 83.602917 
L 285.922085 82.995588 
L 286.720658 82.247116 
L 287.519231 81.352918 
L 288.317804 80.308408 
L 289.116378 79.109004 
L 289.116378 79.109004 
L 289.116378 79.109004 
L 288.317804 80.308408 
L 287.519231 81.352918 
L 286.720658 82.247116 
L 285.922085 82.995588 
L 285.123512 83.602917 
L 284.324939 84.073688 
L 283.526366 84.412484 
L 282.727793 84.623889 
L 281.92922 84.712488 
L 281.130647 84.682865 
L 280.332074 84.539603 
L 279.533501 84.287287 
L 278.734928 83.930501 
L 277.936355 83.473829 
L 277.137782 82.921062 
L 276.339209 81.947472 
L 275.540636 80.354626 
L 274.742063 78.245085 
L 273.94349 75.721412 
L 273.144917 72.886167 
L 272.346344 69.841914 
L 271.547771 66.691212 
L 270.749198 63.536625 
L 269.950625 60.480713 
L 269.152052 57.626038 
L 268.353479 55.075163 
L 267.554906 52.930648 
L 266.756333 51.295056 
L 265.95776 50.270948 
L 265.159187 49.958489 
L 264.360614 50.148495 
L 263.562041 50.625212 
L 262.763468 51.347625 
L 261.964895 52.27472 
L 261.166321 53.365481 
L 260.367748 54.578894 
L 259.569175 55.873944 
L 258.770602 57.209614 
L 257.972029 58.544891 
L 257.173456 59.838759 
L 256.374883 61.050203 
L 255.57631 62.138208 
L 254.777737 63.061759 
L 253.979164 63.779841 
L 253.180591 64.256815 
L 252.382018 64.754791 
L 251.583445 65.418313 
L 250.784872 66.221045 
L 249.986299 67.136654 
L 249.187726 68.138807 
L 248.389153 69.201168 
L 247.59058 70.297406 
L 246.792007 71.401184 
L 245.993434 72.486171 
L 245.194861 73.52603 
L 244.396288 74.49443 
L 243.597715 75.365035 
L 242.799142 76.111512 
L 242.000569 76.707527 
L 241.201996 77.136689 
L 240.403423 77.697292 
L 239.60485 78.509149 
L 238.806277 79.531449 
L 238.007704 80.723379 
L 237.209131 82.04413 
L 236.410558 83.452889 
L 235.611985 84.908844 
L 234.813412 86.371184 
L 234.014838 87.799098 
L 233.216265 89.151774 
L 232.417692 90.3884 
L 231.619119 91.468165 
L 230.820546 92.350258 
L 230.021973 92.993867 
L 229.2234 93.37506 
L 228.424827 93.826358 
L 227.626254 94.465667 
L 226.827681 95.259671 
L 226.029108 96.175053 
L 225.230535 97.178496 
L 224.431962 98.236683 
L 223.633389 99.316299 
L 222.834816 100.384024 
L 222.036243 101.406544 
L 221.23767 102.350542 
L 220.439097 103.182699 
L 219.640524 103.8697 
L 218.841951 104.378228 
L 218.043378 104.674966 
L 217.244805 104.71257 
L 216.446232 104.268071 
L 215.647659 103.335033 
L 214.849086 101.992571 
L 214.050513 100.3198 
L 213.25194 98.395837 
L 212.453367 96.299797 
L 211.654794 94.110796 
L 210.856221 91.90795 
L 210.057648 89.770375 
L 209.259075 87.777185 
L 208.460502 86.007498 
L 207.661929 84.540428 
L 206.863356 83.455092 
L 206.064782 82.830605 
L 205.266209 82.762328 
L 204.467636 83.462551 
L 203.669063 84.88349 
L 202.87049 86.907478 
L 202.071917 89.416847 
L 201.273344 92.293929 
L 200.474771 95.421055 
L 199.676198 98.680557 
L 198.877625 101.954768 
L 198.079052 105.12602 
L 197.280479 108.076644 
L 196.481906 110.688972 
L 195.683333 112.845337 
L 194.88476 114.42807 
L 194.086187 115.319503 
L 193.287614 115.425856 
L 192.489041 114.915161 
L 191.690468 113.909798 
L 190.891895 112.490295 
L 190.093322 110.737176 
L 189.294749 108.730968 
L 188.496176 106.552198 
L 187.697603 104.281391 
L 186.89903 101.999073 
L 186.100457 99.785772 
L 185.301884 97.722012 
L 184.503311 95.888321 
L 183.704738 94.365224 
L 182.906165 93.233247 
L 182.107592 92.572917 
L 181.309019 92.403655 
L 180.510446 92.326667 
L 179.711873 92.254789 
L 178.913299 92.188081 
L 178.114726 92.126603 
L 177.316153 92.070414 
L 176.51758 92.019576 
L 175.719007 91.974147 
L 174.920434 91.934187 
L 174.121861 91.899757 
L 173.323288 91.870916 
L 172.524715 91.847723 
L 171.726142 91.83024 
L 170.927569 91.818525 
L 170.128996 91.812639 
L 169.330423 91.864132 
L 168.53185 92.260543 
L 167.733277 92.998571 
L 166.934704 94.021043 
L 166.136131 95.270784 
L 165.337558 96.690619 
L 164.538985 98.223374 
L 163.740412 99.811874 
L 162.941839 101.398944 
L 162.143266 102.927411 
L 161.344693 104.3401 
L 160.54612 105.579835 
L 159.747547 106.589442 
L 158.948974 107.311748 
L 158.150401 107.689576 
L 157.351828 107.684353 
L 156.553255 107.371008 
L 155.754682 106.80179 
L 154.956109 106.019885 
L 154.157536 105.068478 
L 153.358963 103.990754 
L 152.56039 102.829898 
L 151.761816 101.629096 
L 150.963243 100.431533 
L 150.16467 99.280394 
L 149.366097 98.218864 
L 148.567524 97.29013 
L 147.768951 96.537375 
L 146.970378 96.003785 
L 146.171805 95.732545 
L 145.373232 95.715375 
L 144.574659 95.764461 
L 143.776086 95.855835 
L 142.977513 95.987188 
L 142.17894 96.156212 
L 141.380367 96.360598 
L 140.581794 96.59804 
L 139.783221 96.866227 
L 138.984648 97.162852 
L 138.186075 97.485607 
L 137.387502 97.832183 
L 136.588929 98.200272 
L 135.790356 98.587566 
L 134.991783 98.991756 
L 134.19321 99.410534 
L 133.394637 99.885481 
L 132.596064 100.556583 
L 131.797491 101.41515 
L 130.998918 102.439367 
L 130.200345 103.607421 
L 129.401772 104.897496 
L 128.603199 106.287779 
L 127.804626 107.756456 
L 127.006053 109.281713 
L 126.20748 110.841735 
L 125.408907 112.414708 
L 124.610333 113.978819 
L 123.81176 115.512253 
L 123.013187 116.993196 
L 122.214614 118.399833 
L 121.416041 119.782994 
L 120.617468 121.3234 
L 119.818895 122.996274 
L 119.020322 124.763243 
L 118.221749 126.585938 
L 117.423176 128.425988 
L 116.624603 130.245022 
L 115.82603 132.00467 
L 115.027457 133.666561 
L 114.228884 135.192325 
L 113.430311 136.54359 
L 112.631738 137.681987 
L 111.833165 138.569144 
L 111.034592 139.166692 
L 110.236019 139.436259 
L 109.437446 139.282584 
L 108.638873 138.589342 
L 107.8403 137.430323 
L 107.041727 135.886884 
L 106.243154 134.040385 
L 105.444581 131.972184 
L 104.646008 129.76364 
L 103.847435 127.496111 
L 103.048862 125.250956 
L 102.250289 123.109532 
L 101.451716 121.153199 
L 100.653143 119.463315 
L 99.85457 118.121239 
L 99.055997 117.208329 
L 98.257424 116.805944 
L 97.458851 116.912962 
L 96.660277 117.368823 
L 95.861704 118.117635 
L 95.063131 119.107777 
L 94.264558 120.287628 
L 93.465985 121.605566 
L 92.667412 123.00997 
L 91.868839 124.449218 
L 91.070266 125.87169 
L 90.271693 127.225763 
L 89.47312 128.459817 
L 88.674547 129.522229 
L 87.875974 130.361378 
L 87.077401 130.925644 
L 86.278828 131.163403 
L 85.480255 130.960165 
L 84.681682 130.230112 
L 83.883109 129.050685 
L 83.084536 127.501771 
L 82.285963 125.663259 
L 81.48739 123.615038 
L 80.688817 121.436999 
L 79.890244 119.209028 
L 79.091671 117.011016 
L 78.293098 114.922851 
L 77.494525 113.024423 
L 76.695952 111.395619 
L 75.897379 110.11633 
L 75.098806 109.266445 
L 74.300233 108.925851 
L 73.50166 109.197298 
L 72.703087 110.089088 
L 71.904514 111.507359 
L 71.105941 113.357674 
L 70.307368 115.545598 
L 69.508794 117.976694 
L 68.710221 120.556527 
L 67.911648 123.190661 
L 67.113075 125.78466 
L 66.314502 128.244087 
L 65.515929 130.474507 
L 64.717356 132.381484 
L 63.918783 133.870581 
L 63.12021 134.847364 
L 62.321637 135.217395 
L 61.523064 135.19285 
L 60.724491 135.103401 
L 59.925918 134.937631 
L 59.127345 134.683313 
L 58.328772 134.328217 
L 57.530199 133.860113 
L 56.731626 133.266771 
L 55.933053 132.535963 
L 55.13448 131.655458 
L 54.335907 130.613028 
L 53.537334 129.396442 
L 52.738761 127.993471 
L 51.940188 126.391885 
L 51.141615 124.579456 
L 50.343042 122.543953 
z
" clip-path="url(#p9c46751d1a)" style="fill: url(#h6b391839ac)"/>
   </g>
   <g id="FillBetweenPolyCollection_4">
    <path d="M 50.343042 122.543953 
L 50.343042 122.543953 
L 51.141615 124.579456 
L 51.940188 126.391885 
L 52.738761 127.993471 
L 53.537334 129.396442 
L 54.335907 130.613028 
L 55.13448 131.655458 
L 55.933053 132.535963 
L 56.731626 133.266771 
L 57.530199 133.860113 
L 58.328772 134.328217 
L 59.127345 134.683313 
L 59.925918 134.937631 
L 60.724491 135.103401 
L 61.523064 135.19285 
L 62.321637 135.217395 
L 63.12021 134.847364 
L 63.918783 133.870581 
L 64.717356 132.381484 
L 65.515929 130.474507 
L 66.314502 128.244087 
L 67.113075 125.78466 
L 67.911648 123.190661 
L 68.710221 120.556527 
L 69.508794 117.976694 
L 70.307368 115.545598 
L 71.105941 113.357674 
L 71.904514 111.507359 
L 72.703087 110.089088 
L 73.50166 109.197298 
L 74.300233 108.925851 
L 75.098806 109.266445 
L 75.897379 110.11633 
L 76.695952 111.395619 
L 77.494525 113.024423 
L 78.293098 114.922851 
L 79.091671 117.011016 
L 79.890244 119.209028 
L 80.688817 121.436999 
L 81.48739 123.615038 
L 82.285963 125.663259 
L 83.084536 127.501771 
L 83.883109 129.050685 
L 84.681682 130.230112 
L 85.480255 130.960165 
L 86.278828 131.163403 
L 87.077401 130.925644 
L 87.875974 130.361378 
L 88.674547 129.522229 
L 89.47312 128.459817 
L 90.271693 127.225763 
L 91.070266 125.87169 
L 91.868839 124.449218 
L 92.667412 123.00997 
L 93.465985 121.605566 
L 94.264558 120.287628 
L 95.063131 119.107777 
L 95.861704 118.117635 
L 96.660277 117.368823 
L 97.458851 116.912962 
L 98.257424 116.805944 
L 99.055997 117.208329 
L 99.85457 118.121239 
L 100.653143 119.463315 
L 101.451716 121.153199 
L 102.250289 123.109532 
L 103.048862 125.250956 
L 103.847435 127.496111 
L 104.646008 129.76364 
L 105.444581 131.972184 
L 106.243154 134.040385 
L 107.041727 135.886884 
L 107.8403 137.430323 
L 108.638873 138.589342 
L 109.437446 139.282584 
L 110.236019 139.436259 
L 111.034592 139.166692 
L 111.833165 138.569144 
L 112.631738 137.681987 
L 113.430311 136.54359 
L 114.228884 135.192325 
L 115.027457 133.666561 
L 115.82603 132.00467 
L 116.624603 130.245022 
L 117.423176 128.425988 
L 118.221749 126.585938 
L 119.020322 124.763243 
L 119.818895 122.996274 
L 120.617468 121.3234 
L 121.416041 119.782994 
L 122.214614 118.399833 
L 123.013187 116.993196 
L 123.81176 115.512253 
L 124.610333 113.978819 
L 125.408907 112.414708 
L 126.20748 110.841735 
L 127.006053 109.281713 
L 127.804626 107.756456 
L 128.603199 106.287779 
L 129.401772 104.897496 
L 130.200345 103.607421 
L 130.998918 102.439367 
L 131.797491 101.41515 
L 132.596064 100.556583 
L 133.394637 99.885481 
L 134.19321 99.410534 
L 134.991783 98.991756 
L 135.790356 98.587566 
L 136.588929 98.200272 
L 137.387502 97.832183 
L 138.186075 97.485607 
L 138.984648 97.162852 
L 139.783221 96.866227 
L 140.581794 96.59804 
L 141.380367 96.360598 
L 142.17894 96.156212 
L 142.977513 95.987188 
L 143.776086 95.855835 
L 144.574659 95.764461 
L 145.373232 95.715375 
L 146.171805 95.732545 
L 146.970378 96.003785 
L 147.768951 96.537375 
L 148.567524 97.29013 
L 149.366097 98.218864 
L 150.16467 99.280394 
L 150.963243 100.431533 
L 151.761816 101.629096 
L 152.56039 102.829898 
L 153.358963 103.990754 
L 154.157536 105.068478 
L 154.956109 106.019885 
L 155.754682 106.80179 
L 156.553255 107.371008 
L 157.351828 107.684353 
L 158.150401 107.689576 
L 158.948974 107.311748 
L 159.747547 106.589442 
L 160.54612 105.579835 
L 161.344693 104.3401 
L 162.143266 102.927411 
L 162.941839 101.398944 
L 163.740412 99.811874 
L 164.538985 98.223374 
L 165.337558 96.690619 
L 166.136131 95.270784 
L 166.934704 94.021043 
L 167.733277 92.998571 
L 168.53185 92.260543 
L 169.330423 91.864132 
L 170.128996 91.812639 
L 170.927569 91.818525 
L 171.726142 91.83024 
L 172.524715 91.847723 
L 173.323288 91.870916 
L 174.121861 91.899757 
L 174.920434 91.934187 
L 175.719007 91.974147 
L 176.51758 92.019576 
L 177.316153 92.070414 
L 178.114726 92.126603 
L 178.913299 92.188081 
L 179.711873 92.254789 
L 180.510446 92.326667 
L 181.309019 92.403655 
L 182.107592 92.572917 
L 182.906165 93.233247 
L 183.704738 94.365224 
L 184.503311 95.888321 
L 185.301884 97.722012 
L 186.100457 99.785772 
L 186.89903 101.999073 
L 187.697603 104.281391 
L 188.496176 106.552198 
L 189.294749 108.730968 
L 190.093322 110.737176 
L 190.891895 112.490295 
L 191.690468 113.909798 
L 192.489041 114.915161 
L 193.287614 115.425856 
L 194.086187 115.319503 
L 194.88476 114.42807 
L 195.683333 112.845337 
L 196.481906 110.688972 
L 197.280479 108.076644 
L 198.079052 105.12602 
L 198.877625 101.954768 
L 199.676198 98.680557 
L 200.474771 95.421055 
L 201.273344 92.293929 
L 202.071917 89.416847 
L 202.87049 86.907478 
L 203.669063 84.88349 
L 204.467636 83.462551 
L 205.266209 82.762328 
L 206.064782 82.830605 
L 206.863356 83.455092 
L 207.661929 84.540428 
L 208.460502 86.007498 
L 209.259075 87.777185 
L 210.057648 89.770375 
L 210.856221 91.90795 
L 211.654794 94.110796 
L 212.453367 96.299797 
L 213.25194 98.395837 
L 214.050513 100.3198 
L 214.849086 101.992571 
L 215.647659 103.335033 
L 216.446232 104.268071 
L 217.244805 104.71257 
L 218.043378 104.674966 
L 218.841951 104.378228 
L 219.640524 103.8697 
L 220.439097 103.182699 
L 221.23767 102.350542 
L 222.036243 101.406544 
L 222.834816 100.384024 
L 223.633389 99.316299 
L 224.431962 98.236683 
L 225.230535 97.178496 
L 226.029108 96.175053 
L 226.827681 95.259671 
L 227.626254 94.465667 
L 228.424827 93.826358 
L 229.2234 93.37506 
L 230.021973 92.993867 
L 230.820546 92.350258 
L 231.619119 91.468165 
L 232.417692 90.3884 
L 233.216265 89.151774 
L 234.014838 87.799098 
L 234.813412 86.371184 
L 235.611985 84.908844 
L 236.410558 83.452889 
L 237.209131 82.04413 
L 238.007704 80.723379 
L 238.806277 79.531449 
L 239.60485 78.509149 
L 240.403423 77.697292 
L 241.201996 77.136689 
L 242.000569 76.707527 
L 242.799142 76.111512 
L 243.597715 75.365035 
L 244.396288 74.49443 
L 245.194861 73.52603 
L 245.993434 72.486171 
L 246.792007 71.401184 
L 247.59058 70.297406 
L 248.389153 69.201168 
L 249.187726 68.138807 
L 249.986299 67.136654 
L 250.784872 66.221045 
L 251.583445 65.418313 
L 252.382018 64.754791 
L 253.180591 64.256815 
L 253.979164 63.779841 
L 254.777737 63.061759 
L 255.57631 62.138208 
L 256.374883 61.050203 
L 257.173456 59.838759 
L 257.972029 58.544891 
L 258.770602 57.209614 
L 259.569175 55.873944 
L 260.367748 54.578894 
L 261.166321 53.365481 
L 261.964895 52.27472 
L 262.763468 51.347625 
L 263.562041 50.625212 
L 264.360614 50.148495 
L 265.159187 49.958489 
L 265.95776 50.270948 
L 266.756333 51.295056 
L 267.554906 52.930648 
L 268.353479 55.075163 
L 269.152052 57.626038 
L 269.950625 60.480713 
L 270.749198 63.536625 
L 271.547771 66.691212 
L 272.346344 69.841914 
L 273.144917 72.886167 
L 273.94349 75.721412 
L 274.742063 78.245085 
L 275.540636 80.354626 
L 276.339209 81.947472 
L 277.137782 82.921062 
L 277.936355 83.473829 
L 278.734928 83.930501 
L 279.533501 84.287287 
L 280.332074 84.539603 
L 281.130647 84.682865 
L 281.92922 84.712488 
L 282.727793 84.623889 
L 283.526366 84.412484 
L 284.324939 84.073688 
L 285.123512 83.602917 
L 285.922085 82.995588 
L 286.720658 82.247116 
L 287.519231 81.352918 
L 288.317804 80.308408 
L 289.116378 79.109004 
L 289.116378 52.227174 
L 289.116378 52.227174 
L 288.317804 54.50209 
L 287.519231 56.59271 
L 286.720658 58.496919 
L 285.922085 60.212603 
L 285.123512 61.737647 
L 284.324939 63.069937 
L 283.526366 64.207357 
L 282.727793 65.147795 
L 281.92922 65.889134 
L 281.130647 66.429262 
L 280.332074 66.766062 
L 279.533501 66.897422 
L 278.734928 66.821226 
L 277.936355 66.53536 
L 277.137782 66.036985 
L 276.339209 65.027692 
L 275.540636 63.340602 
L 274.742063 61.087387 
L 273.94349 58.37972 
L 273.144917 55.329275 
L 272.346344 52.047725 
L 271.547771 48.646743 
L 270.749198 45.238003 
L 269.950625 41.933178 
L 269.152052 38.843941 
L 268.353479 36.081965 
L 267.554906 33.758924 
L 266.756333 31.986491 
L 265.95776 30.876339 
L 265.159187 30.537624 
L 264.360614 30.753377 
L 263.562041 31.295801 
L 262.763468 32.11984 
L 261.964895 33.180436 
L 261.166321 34.432534 
L 260.367748 35.831077 
L 259.569175 37.331008 
L 258.770602 38.887271 
L 257.972029 40.454809 
L 257.173456 41.988565 
L 256.374883 43.443482 
L 255.57631 44.774505 
L 254.777737 45.936576 
L 253.979164 46.884639 
L 253.180591 47.579707 
L 252.382018 48.317652 
L 251.583445 49.257739 
L 250.784872 50.365602 
L 249.986299 51.606878 
L 249.187726 52.947202 
L 248.389153 54.352212 
L 247.59058 55.787542 
L 246.792007 57.218828 
L 245.993434 58.611707 
L 245.194861 59.931814 
L 244.396288 61.144786 
L 243.597715 62.216258 
L 242.799142 63.111867 
L 242.000569 63.797248 
L 241.201996 64.246675 
L 240.403423 64.713828 
L 239.60485 65.313671 
L 238.806277 66.024287 
L 238.007704 66.823759 
L 237.209131 67.690171 
L 236.410558 68.601606 
L 235.611985 69.536147 
L 234.813412 70.471876 
L 234.014838 71.386878 
L 233.216265 72.259235 
L 232.417692 73.067031 
L 231.619119 73.788348 
L 230.820546 74.401271 
L 230.021973 74.883881 
L 229.2234 75.227423 
L 228.424827 75.696042 
L 227.626254 76.374187 
L 226.827681 77.226612 
L 226.029108 78.21807 
L 225.230535 79.313313 
L 224.431962 80.477096 
L 223.633389 81.674172 
L 222.834816 82.869295 
L 222.036243 84.027217 
L 221.23767 85.112692 
L 220.439097 86.090474 
L 219.640524 86.925315 
L 218.841951 87.58197 
L 218.043378 88.025191 
L 217.244805 88.207243 
L 216.446232 87.926893 
L 215.647659 87.182197 
L 214.849086 86.048221 
L 214.050513 84.600029 
L 213.25194 82.912686 
L 212.453367 81.061256 
L 211.654794 79.120804 
L 210.856221 77.166394 
L 210.057648 75.273091 
L 209.259075 73.51596 
L 208.460502 71.970065 
L 207.661929 70.710471 
L 206.863356 69.812243 
L 206.064782 69.350444 
L 205.266209 69.417141 
L 204.467636 70.231682 
L 203.669063 71.751357 
L 202.87049 73.861456 
L 202.071917 76.447269 
L 201.273344 79.394086 
L 200.474771 82.587196 
L 199.676198 85.911891 
L 198.877625 89.253461 
L 198.079052 92.497195 
L 197.280479 95.528383 
L 196.481906 98.232316 
L 195.683333 100.494284 
L 194.88476 102.199577 
L 194.086187 103.233485 
L 193.287614 103.524932 
L 192.489041 103.413994 
L 191.690468 103.031413 
L 190.891895 102.419157 
L 190.093322 101.619195 
L 189.294749 100.673495 
L 188.496176 99.624024 
L 187.697603 98.512751 
L 186.89903 97.381644 
L 186.100457 96.272671 
L 185.301884 95.2278 
L 184.503311 94.288999 
L 183.704738 93.498236 
L 182.906165 92.897479 
L 182.107592 92.528696 
L 181.309019 92.375669 
L 180.510446 92.049305 
L 179.711873 91.500633 
L 178.913299 90.767393 
L 178.114726 89.887322 
L 177.316153 88.898158 
L 176.51758 87.83764 
L 175.719007 86.743507 
L 174.920434 85.653495 
L 174.121861 84.605344 
L 173.323288 83.636792 
L 172.524715 82.785576 
L 171.726142 82.089436 
L 170.927569 81.586109 
L 170.128996 81.313335 
L 169.330423 81.32445 
L 168.53185 81.715203 
L 167.733277 82.447975 
L 166.934704 83.465593 
L 166.136131 84.710882 
L 165.337558 86.126668 
L 164.538985 87.655777 
L 163.740412 89.241037 
L 162.941839 90.825272 
L 162.143266 92.351309 
L 161.344693 93.761975 
L 160.54612 95.000094 
L 159.747547 96.008494 
L 158.948974 96.730001 
L 158.150401 97.10744 
L 157.351828 97.144088 
L 156.553255 97.106496 
L 155.754682 97.038207 
L 154.956109 96.944401 
L 154.157536 96.83026 
L 153.358963 96.700965 
L 152.56039 96.561697 
L 151.761816 96.417636 
L 150.963243 96.273964 
L 150.16467 96.135861 
L 149.366097 96.008509 
L 148.567524 95.897088 
L 147.768951 95.80678 
L 146.970378 95.742765 
L 146.171805 95.710224 
L 145.373232 95.63848 
L 144.574659 95.242707 
L 143.776086 94.544237 
L 142.977513 93.599482 
L 142.17894 92.464855 
L 141.380367 91.196768 
L 140.581794 89.851634 
L 139.783221 88.485866 
L 138.984648 87.155875 
L 138.186075 85.918075 
L 137.387502 84.828879 
L 136.588929 83.944697 
L 135.790356 83.321944 
L 134.991783 83.017031 
L 134.19321 83.086372 
L 133.394637 83.563519 
L 132.596064 84.384472 
L 131.797491 85.509003 
L 130.998918 86.901636 
L 130.200345 88.526895 
L 129.401772 90.349303 
L 128.603199 92.333385 
L 127.804626 94.443664 
L 127.006053 96.644665 
L 126.20748 98.900911 
L 125.408907 101.176926 
L 124.610333 103.437234 
L 123.81176 105.64636 
L 123.013187 107.768826 
L 122.214614 109.769157 
L 121.416041 111.720336 
L 120.617468 113.892225 
L 119.818895 116.250917 
L 119.020322 118.742308 
L 118.221749 121.312291 
L 117.423176 123.906762 
L 116.624603 126.471613 
L 115.82603 128.952741 
L 115.027457 131.296039 
L 114.228884 133.447401 
L 113.430311 135.352722 
L 112.631738 136.957897 
L 111.833165 138.208819 
L 111.034592 139.051383 
L 110.236019 139.431483 
L 109.437446 139.282584 
L 108.638873 138.589342 
L 107.8403 137.430323 
L 107.041727 135.886884 
L 106.243154 134.040385 
L 105.444581 131.972184 
L 104.646008 129.76364 
L 103.847435 127.496111 
L 103.048862 125.250956 
L 102.250289 123.109532 
L 101.451716 121.153199 
L 100.653143 119.463315 
L 99.85457 118.121239 
L 99.055997 117.208329 
L 98.257424 116.805944 
L 97.458851 116.912962 
L 96.660277 117.368823 
L 95.861704 118.117635 
L 95.063131 119.107777 
L 94.264558 120.287628 
L 93.465985 121.605566 
L 92.667412 123.00997 
L 91.868839 124.449218 
L 91.070266 125.87169 
L 90.271693 127.225763 
L 89.47312 128.459817 
L 88.674547 129.522229 
L 87.875974 130.361378 
L 87.077401 130.925644 
L 86.278828 131.163403 
L 85.480255 130.960165 
L 84.681682 130.230112 
L 83.883109 129.050685 
L 83.084536 127.501771 
L 82.285963 125.663259 
L 81.48739 123.615038 
L 80.688817 121.436999 
L 79.890244 119.209028 
L 79.091671 117.011016 
L 78.293098 114.922851 
L 77.494525 113.024423 
L 76.695952 111.395619 
L 75.897379 110.11633 
L 75.098806 109.266445 
L 74.300233 108.925851 
L 73.50166 109.197298 
L 72.703087 110.089088 
L 71.904514 111.507359 
L 71.105941 113.357674 
L 70.307368 115.545598 
L 69.508794 117.976694 
L 68.710221 120.556527 
L 67.911648 123.190661 
L 67.113075 125.78466 
L 66.314502 128.244087 
L 65.515929 130.474507 
L 64.717356 132.381484 
L 63.918783 133.870581 
L 63.12021 134.847364 
L 62.321637 135.217395 
L 61.523064 135.19285 
L 60.724491 135.103401 
L 59.925918 134.937631 
L 59.127345 134.683313 
L 58.328772 134.328217 
L 57.530199 133.860113 
L 56.731626 133.266771 
L 55.933053 132.535963 
L 55.13448 131.655458 
L 54.335907 130.613028 
L 53.537334 129.396442 
L 52.738761 127.993471 
L 51.940188 126.391885 
L 51.141615 124.579456 
L 50.343042 122.543953 
z
" clip-path="url(#p9c46751d1a)" style="fill: url(#hfcd7ac67f2)"/>
   </g>
   <g id="patch_3">
    <path d="M 38.404375 183.13 
L 38.404375 9.45 
" style="fill: none; stroke: #000000; stroke-width: 0.5; stroke-linejoin: miter; stroke-linecap: square"/>
   </g>
   <g id="patch_4">
    <path d="M 38.404375 183.13 
L 301.055044 183.13 
" style="fill: none; stroke: #000000; stroke-width: 0.5; stroke-linejoin: miter; stroke-linecap: square"/>
   </g>
   <g id="legend_1">
    <g id="patch_5">
     <path d="M 47.404375 25.95 
L 67.404375 25.95 
L 67.404375 18.95 
L 47.404375 18.95 
z
" style="fill: url(#h9eb09d1854)"/>
    </g>
    <g id="text_17">
     <!-- Solo -->
     <g transform="translate(75.404375 25.95) scale(0.1 -0.1)">
      <defs>
       <path id="RobotoCondensed-Regular-53" d="M 2481 1150 
Q 2481 1469 2312 1656 
Q 2144 1844 1591 2042 
Q 1038 2241 713 2547 
Q 388 2853 388 3375 
Q 388 3906 741 4259 
Q 1094 4613 1691 4613 
Q 2356 4613 2706 4191 
Q 3056 3769 3056 3238 
L 2481 3238 
Q 2481 3619 2293 3869 
Q 2106 4119 1691 4119 
Q 1313 4119 1139 3908 
Q 966 3697 966 3381 
Q 966 3094 1170 2903 
Q 1375 2713 1806 2556 
Q 2475 2338 2765 2013 
Q 3056 1688 3056 1156 
Q 3056 600 2695 268 
Q 2334 -63 1719 -63 
Q 1363 -63 1028 93 
Q 694 250 480 558 
Q 266 866 266 1319 
L 841 1319 
Q 841 853 1098 640 
Q 1356 428 1719 428 
Q 2094 428 2287 623 
Q 2481 819 2481 1150 
z
" transform="scale(0.015625)"/>
       <path id="RobotoCondensed-Regular-6c" d="M 1009 4800 
L 1009 0 
L 459 0 
L 459 4800 
L 1009 4800 
z
" transform="scale(0.015625)"/>
      </defs>
      <use xlink:href="#RobotoCondensed-Regular-53"/>
      <use xlink:href="#RobotoCondensed-Regular-6f" transform="translate(51.855469 0)"/>
      <use xlink:href="#RobotoCondensed-Regular-6c" transform="translate(102.050781 0)"/>
      <use xlink:href="#RobotoCondensed-Regular-6f" transform="translate(125 0)"/>
     </g>
    </g>
    <g id="patch_6">
     <path d="M 47.404375 40.48125 
L 67.404375 40.48125 
L 67.404375 33.48125 
L 47.404375 33.48125 
z
" style="fill: url(#h02b3922843)"/>
    </g>
    <g id="text_18">
     <!-- Initial -->
     <g transform="translate(75.404375 40.48125) scale(0.1 -0.1)">
      <defs>
       <path id="RobotoCondensed-Regular-49" d="M 1091 4550 
L 1091 0 
L 516 0 
L 516 4550 
L 1091 4550 
z
" transform="scale(0.015625)"/>
      </defs>
      <use xlink:href="#RobotoCondensed-Regular-49"/>
      <use xlink:href="#RobotoCondensed-Regular-6e" transform="translate(25 0)"/>
      <use xlink:href="#RobotoCondensed-Regular-69" transform="translate(73.4375 0)"/>
      <use xlink:href="#RobotoCondensed-Regular-74" transform="translate(96.386719 0)"/>
      <use xlink:href="#RobotoCondensed-Regular-69" transform="translate(125.976562 0)"/>
      <use xlink:href="#RobotoCondensed-Regular-61" transform="translate(148.925781 0)"/>
      <use xlink:href="#RobotoCondensed-Regular-6c" transform="translate(196.826172 0)"/>
     </g>
    </g>
    <g id="patch_7">
     <path d="M 47.404375 55.0125 
L 67.404375 55.0125 
L 67.404375 48.0125 
L 47.404375 48.0125 
z
" style="fill: url(#h6b391839ac)"/>
    </g>
    <g id="text_19">
     <!-- Middle -->
     <g transform="translate(75.404375 55.0125) scale(0.1 -0.1)">
      <defs>
       <path id="RobotoCondensed-Regular-4d" d="M 2419 841 
L 3606 4550 
L 4341 4550 
L 4341 0 
L 3769 0 
L 3769 1775 
L 3822 3538 
L 2634 0 
L 2197 0 
L 1009 3544 
L 1063 1775 
L 1063 0 
L 491 0 
L 491 4550 
L 1228 4550 
L 2419 841 
z
" transform="scale(0.015625)"/>
       <path id="RobotoCondensed-Regular-64" d="M 2234 0 
L 2209 366 
Q 1941 -63 1425 -63 
Q 925 -63 611 331 
Q 297 725 297 1528 
L 297 1844 
Q 297 2678 609 3061 
Q 922 3444 1431 3444 
Q 1922 3444 2188 3050 
L 2188 4800 
L 2738 4800 
L 2738 0 
L 2234 0 
z
M 850 1528 
Q 850 963 1019 695 
Q 1188 428 1569 428 
Q 1981 428 2188 847 
L 2188 2544 
Q 1972 2956 1575 2956 
Q 1194 2956 1023 2687 
Q 853 2419 850 1866 
L 850 1528 
z
" transform="scale(0.015625)"/>
      </defs>
      <use xlink:href="#RobotoCondensed-Regular-4d"/>
      <use xlink:href="#RobotoCondensed-Regular-69" transform="translate(75.537109 0)"/>
      <use xlink:href="#RobotoCondensed-Regular-64" transform="translate(98.486328 0)"/>
      <use xlink:href="#RobotoCondensed-Regular-64" transform="translate(148.095703 0)"/>
      <use xlink:href="#RobotoCondensed-Regular-6c" transform="translate(197.705078 0)"/>
      <use xlink:href="#RobotoCondensed-Regular-65" transform="translate(220.654297 0)"/>
     </g>
    </g>
    <g id="patch_8">
     <path d="M 47.404375 69.54375 
L 67.404375 69.54375 
L 67.404375 62.54375 
L 47.404375 62.54375 
z
" style="fill: url(#hfcd7ac67f2)"/>
    </g>
    <g id="text_20">
     <!-- End -->
     <g transform="translate(75.404375 69.54375) scale(0.1 -0.1)">
      <defs>
       <path id="RobotoCondensed-Regular-45" d="M 491 0 
L 491 4550 
L 2906 4550 
L 2906 4056 
L 1066 4056 
L 1066 2594 
L 2672 2594 
L 2672 2103 
L 1066 2103 
L 1066 491 
L 2938 491 
L 2938 0 
L 491 0 
z
" transform="scale(0.015625)"/>
      </defs>
      <use xlink:href="#RobotoCondensed-Regular-45"/>
      <use xlink:href="#RobotoCondensed-Regular-6e" transform="translate(49.707031 0)"/>
      <use xlink:href="#RobotoCondensed-Regular-64" transform="translate(98.144531 0)"/>
     </g>
    </g>
   </g>
  </g>
 </g>
 <defs>
  <clipPath id="p9c46751d1a">
   <rect x="38.404375" y="9.45" width="262.650669" height="173.68"/>
  </clipPath>
 </defs>
 <defs>
  <pattern id="h9eb09d1854" patternUnits="userSpaceOnUse" x="0" y="0" width="72" height="72">
   <rect x="0" y="0" width="73" height="73" fill="#e6e6e6"/>
   <path d="M -36 36 
L 36 -36 
M -33 39 
L 39 -33 
M -30 42 
L 42 -30 
M -27 45 
L 45 -27 
M -24 48 
L 48 -24 
M -21 51 
L 51 -21 
M -18 54 
L 54 -18 
M -15 57 
L 57 -15 
M -12 60 
L 60 -12 
M -9 63 
L 63 -9 
M -6 66 
L 66 -6 
M -3 69 
L 69 -3 
M 0 72 
L 72 0 
M 3 75 
L 75 3 
M 6 78 
L 78 6 
M 9 81 
L 81 9 
M 12 84 
L 84 12 
M 15 87 
L 87 15 
M 18 90 
L 90 18 
M 21 93 
L 93 21 
M 24 96 
L 96 24 
M 27 99 
L 99 27 
M 30 102 
L 102 30 
M 33 105 
L 105 33 
M 36 108 
L 108 36 
" style="fill: #000000; stroke: #000000; stroke-width: 1.5; stroke-linecap: butt; stroke-linejoin: miter"/>
  </pattern>
  <pattern id="h02b3922843" patternUnits="userSpaceOnUse" x="0" y="0" width="72" height="72">
   <rect x="0" y="0" width="73" height="73" fill="#adadad"/>
   <path d="M -36 36 
L 36 108 
M -30 30 
L 42 102 
M -24 24 
L 48 96 
M -18 18 
L 54 90 
M -12 12 
L 60 84 
M -6 6 
L 66 78 
M 0 0 
L 72 72 
M 6 -6 
L 78 66 
M 12 -12 
L 84 60 
M 18 -18 
L 90 54 
M 24 -24 
L 96 48 
M 30 -30 
L 102 42 
M 36 -36 
L 108 36 
" style="fill: #000000; stroke: #000000; stroke-width: 1.5; stroke-linecap: butt; stroke-linejoin: miter"/>
  </pattern>
  <pattern id="h6b391839ac" patternUnits="userSpaceOnUse" x="0" y="0" width="72" height="72">
   <rect x="0" y="0" width="73" height="73" fill="#737373"/>
   <path d="M -36 36 
L 36 -36 
M -33 39 
L 39 -33 
M -30 42 
L 42 -30 
M -27 45 
L 45 -27 
M -24 48 
L 48 -24 
M -21 51 
L 51 -21 
M -18 54 
L 54 -18 
M -15 57 
L 57 -15 
M -12 60 
L 60 -12 
M -9 63 
L 63 -9 
M -6 66 
L 66 -6 
M -3 69 
L 69 -3 
M 0 72 
L 72 0 
M 3 75 
L 75 3 
M 6 78 
L 78 6 
M 9 81 
L 81 9 
M 12 84 
L 84 12 
M 15 87 
L 87 15 
M 18 90 
L 90 18 
M 21 93 
L 93 21 
M 24 96 
L 96 24 
M 27 99 
L 99 27 
M 30 102 
L 102 30 
M 33 105 
L 105 33 
M 36 108 
L 108 36 
M -36 36 
L 36 108 
M -33 33 
L 39 105 
M -30 30 
L 42 102 
M -27 27 
L 45 99 
M -24 24 
L 48 96 
M -21 21 
L 51 93 
M -18 18 
L 54 90 
M -15 15 
L 57 87 
M -12 12 
L 60 84 
M -9 9 
L 63 81 
M -6 6 
L 66 78 
M -3 3 
L 69 75 
M 0 0 
L 72 72 
M 3 -3 
L 75 69 
M 6 -6 
L 78 66 
M 9 -9 
L 81 63 
M 12 -12 
L 84 60 
M 15 -15 
L 87 57 
M 18 -18 
L 90 54 
M 21 -21 
L 93 51 
M 24 -24 
L 96 48 
M 27 -27 
L 99 45 
M 30 -30 
L 102 42 
M 33 -33 
L 105 39 
M 36 -36 
L 108 36 
" style="fill: #000000; stroke: #000000; stroke-width: 1.5; stroke-linecap: butt; stroke-linejoin: miter"/>
  </pattern>
  <pattern id="hfcd7ac67f2" patternUnits="userSpaceOnUse" x="0" y="0" width="72" height="72">
   <rect x="0" y="0" width="73" height="73" fill="#383838"/>
   <path d="M 0 70.5 
L 72 70.5 
M 0 67.5 
L 72 67.5 
M 0 64.5 
L 72 64.5 
M 0 61.5 
L 72 61.5 
M 0 58.5 
L 72 58.5 
M 0 55.5 
L 72 55.5 
M 0 52.5 
L 72 52.5 
M 0 49.5 
L 72 49.5 
M 0 46.5 
L 72 46.5 
M 0 43.5 
L 72 43.5 
M 0 40.5 
L 72 40.5 
M 0 37.5 
L 72 37.5 
M 0 34.5 
L 72 34.5 
M 0 31.5 
L 72 31.5 
M 0 28.5 
L 72 28.5 
M 0 25.5 
L 72 25.5 
M 0 22.5 
L 72 22.5 
M 0 19.5 
L 72 19.5 
M 0 16.5 
L 72 16.5 
M 0 13.5 
L 72 13.5 
M 0 10.5 
L 72 10.5 
M 0 7.5 
L 72 7.5 
M 0 4.5 
L 72 4.5 
M 0 1.5 
L 72 1.5 
" style="fill: #000000; stroke: #000000; stroke-width: 1.5; stroke-linecap: butt; stroke-linejoin: miter"/>
  </pattern>
 </defs>
</svg>
