<?xml version="1.0" encoding="utf-8" standalone="no"?>
<!DOCTYPE svg PUBLIC "-//W3C//DTD SVG 1.1//EN"
  "http://www.w3.org/Graphics/SVG/1.1/DTD/svg11.dtd">
<svg xmlns:xlink="http://www.w3.org/1999/xlink" width="313.514107pt" height="216.6575pt" viewBox="0 0 313.514107 216.6575" xmlns="http://www.w3.org/2000/svg" version="1.1">
 <metadata>
  <rdf:RDF xmlns:dc="http://purl.org/dc/elements/1.1/" xmlns:cc="http://creativecommons.org/ns#" xmlns:rdf="http://www.w3.org/1999/02/22-rdf-syntax-ns#">
   <cc:Work>
    <dc:type rdf:resource="http://purl.org/dc/dcmitype/StillImage"/>
    <dc:date>2026-04-28T10:03:52.366248</dc:date>
    <dc:format>image/svg+xml</dc:format>
    <dc:creator>
     <cc:Agent>
      <dc:title>Matplotlib v3.10.7, https://matplotlib.org/</dc:title>
     </cc:Agent>
    </dc:creator>
   </cc:Work>
  </rdf:RDF>
 </metadata>
 <defs>
  <style type="text/css">*{stroke-linejoin: round; stroke-linecap: butt}</style>
 </defs>
 <g id="figure_1">
  <g id="patch_1">
   <path d="M 0 216.6575 
L 313.514107 216.6575 
L 313.514107 -0 
L 0 -0 
z
" style="fill: #ffffff"/>
  </g>
  <g id="axes_1">
   <g id="patch_2">
    <path d="M 30.590312 196.73875 
L 300.390982 196.73875 
L 300.390982 19.5125 
L 30.590312 19.5125 
z
" style="fill: #ffffff"/>
   </g>
   <g id="matplotlib.axis_1">
    <g id="xtick_1">
     <g id="line2d_1">
      <defs>
       <path id="m95041c9326" d="M 0 0 
L 0 3.5 
" style="stroke: #000000; stroke-width: 0.8"/>
      </defs>
      <g>
       <use xlink:href="#m95041c9326" x="42.853979" y="196.73875" style="stroke: #000000; stroke-width: 0.8"/>
      </g>
     </g>
     <g id="text_1">
      <!-- 2004 -->
      <g transform="translate(36.930854 208.23875) scale(0.06 -0.06)">
       <defs>
        <path id="RobotoCondensed-Regular-32" d="M 2909 475 
L 2909 0 
L 366 0 
L 366 416 
L 1628 2088 
Q 1966 2541 2077 2802 
Q 2188 3063 2188 3328 
Q 2188 3663 2027 3900 
Q 1866 4138 1575 4138 
Q 1194 4138 1022 3878 
Q 850 3619 850 3213 
L 297 3213 
Q 297 3788 617 4200 
Q 938 4613 1575 4613 
Q 2125 4613 2433 4278 
Q 2741 3944 2741 3397 
Q 2741 2997 2541 2594 
Q 2341 2191 2047 1809 
L 1028 475 
L 2909 475 
z
" transform="scale(0.015625)"/>
        <path id="RobotoCondensed-Regular-30" d="M 2797 1944 
Q 2797 825 2467 381 
Q 2138 -63 1581 -63 
Q 1038 -63 703 370 
Q 369 803 359 1878 
L 359 2638 
Q 359 3753 695 4183 
Q 1031 4613 1578 4613 
Q 2131 4613 2461 4189 
Q 2791 3766 2797 2681 
L 2797 1944 
z
M 2247 2734 
Q 2247 3503 2073 3822 
Q 1900 4141 1578 4141 
Q 1266 4141 1092 3833 
Q 919 3525 913 2791 
L 913 1850 
Q 913 1088 1089 750 
Q 1266 413 1581 413 
Q 1903 413 2072 738 
Q 2241 1063 2247 1794 
L 2247 2734 
z
" transform="scale(0.015625)"/>
        <path id="RobotoCondensed-Regular-34" d="M 188 1397 
L 1878 4550 
L 2463 4550 
L 2463 1531 
L 2969 1531 
L 2969 1056 
L 2463 1056 
L 2463 0 
L 1909 0 
L 1909 1056 
L 188 1056 
L 188 1397 
z
M 803 1531 
L 1909 1531 
L 1909 3703 
L 1878 3638 
L 803 1531 
z
" transform="scale(0.015625)"/>
       </defs>
       <use xlink:href="#RobotoCondensed-Regular-32"/>
       <use xlink:href="#RobotoCondensed-Regular-30" transform="translate(49.365234 0)"/>
       <use xlink:href="#RobotoCondensed-Regular-30" transform="translate(98.730469 0)"/>
       <use xlink:href="#RobotoCondensed-Regular-34" transform="translate(148.095703 0)"/>
      </g>
     </g>
    </g>
    <g id="xtick_2">
     <g id="line2d_2">
      <g>
       <use xlink:href="#m95041c9326" x="79.64498" y="196.73875" style="stroke: #000000; stroke-width: 0.8"/>
      </g>
     </g>
     <g id="text_2">
      <!-- 2007 -->
      <g transform="translate(73.721855 208.23875) scale(0.06 -0.06)">
       <defs>
        <path id="RobotoCondensed-Regular-37" d="M 2878 4550 
L 2878 4225 
L 1313 0 
L 731 0 
L 2297 4075 
L 269 4075 
L 269 4550 
L 2878 4550 
z
" transform="scale(0.015625)"/>
       </defs>
       <use xlink:href="#RobotoCondensed-Regular-32"/>
       <use xlink:href="#RobotoCondensed-Regular-30" transform="translate(49.365234 0)"/>
       <use xlink:href="#RobotoCondensed-Regular-30" transform="translate(98.730469 0)"/>
       <use xlink:href="#RobotoCondensed-Regular-37" transform="translate(148.095703 0)"/>
      </g>
     </g>
    </g>
    <g id="xtick_3">
     <g id="line2d_3">
      <g>
       <use xlink:href="#m95041c9326" x="116.43598" y="196.73875" style="stroke: #000000; stroke-width: 0.8"/>
      </g>
     </g>
     <g id="text_3">
      <!-- 2010 -->
      <g transform="translate(110.512855 208.23875) scale(0.06 -0.06)">
       <defs>
        <path id="RobotoCondensed-Regular-31" d="M 2013 4575 
L 2013 0 
L 1459 0 
L 1459 3853 
L 503 3428 
L 503 3950 
L 1928 4575 
L 2013 4575 
z
" transform="scale(0.015625)"/>
       </defs>
       <use xlink:href="#RobotoCondensed-Regular-32"/>
       <use xlink:href="#RobotoCondensed-Regular-30" transform="translate(49.365234 0)"/>
       <use xlink:href="#RobotoCondensed-Regular-31" transform="translate(98.730469 0)"/>
       <use xlink:href="#RobotoCondensed-Regular-30" transform="translate(148.095703 0)"/>
      </g>
     </g>
    </g>
    <g id="xtick_4">
     <g id="line2d_4">
      <g>
       <use xlink:href="#m95041c9326" x="153.22698" y="196.73875" style="stroke: #000000; stroke-width: 0.8"/>
      </g>
     </g>
     <g id="text_4">
      <!-- 2013 -->
      <g transform="translate(147.303855 208.23875) scale(0.06 -0.06)">
       <defs>
        <path id="RobotoCondensed-Regular-33" d="M 1075 2084 
L 1075 2559 
L 1431 2559 
Q 1788 2559 1961 2781 
Q 2134 3003 2134 3338 
Q 2134 4138 1519 4138 
Q 1228 4138 1054 3927 
Q 881 3716 881 3359 
L 331 3359 
Q 331 3881 653 4247 
Q 975 4613 1519 4613 
Q 2038 4613 2363 4286 
Q 2688 3959 2688 3325 
Q 2688 3072 2550 2786 
Q 2413 2500 2100 2338 
Q 2484 2194 2612 1886 
Q 2741 1578 2741 1269 
Q 2741 631 2389 284 
Q 2038 -63 1516 -63 
Q 1006 -63 656 267 
Q 306 597 306 1203 
L 859 1203 
Q 859 844 1032 628 
Q 1206 413 1516 413 
Q 1822 413 2005 622 
Q 2188 831 2188 1256 
Q 2188 2084 1403 2084 
L 1075 2084 
z
" transform="scale(0.015625)"/>
       </defs>
       <use xlink:href="#RobotoCondensed-Regular-32"/>
       <use xlink:href="#RobotoCondensed-Regular-30" transform="translate(49.365234 0)"/>
       <use xlink:href="#RobotoCondensed-Regular-31" transform="translate(98.730469 0)"/>
       <use xlink:href="#RobotoCondensed-Regular-33" transform="translate(148.095703 0)"/>
      </g>
     </g>
    </g>
    <g id="xtick_5">
     <g id="line2d_5">
      <g>
       <use xlink:href="#m95041c9326" x="190.017981" y="196.73875" style="stroke: #000000; stroke-width: 0.8"/>
      </g>
     </g>
     <g id="text_5">
      <!-- 2016 -->
      <g transform="translate(184.094856 208.23875) scale(0.06 -0.06)">
       <defs>
        <path id="RobotoCondensed-Regular-36" d="M 2847 1484 
Q 2847 838 2544 387 
Q 2241 -63 1641 -63 
Q 1216 -63 944 198 
Q 672 459 542 861 
Q 413 1263 413 1684 
L 413 1956 
Q 413 2438 481 2900 
Q 550 3363 742 3738 
Q 934 4113 1296 4334 
Q 1659 4556 2291 4556 
L 2291 4066 
Q 1775 4066 1508 3859 
Q 1241 3653 1122 3318 
Q 1003 2984 978 2606 
Q 1272 2984 1750 2984 
Q 2138 2984 2380 2765 
Q 2622 2547 2734 2201 
Q 2847 1856 2847 1484 
z
M 969 1666 
Q 969 1059 1180 737 
Q 1391 416 1641 416 
Q 1959 416 2129 708 
Q 2300 1000 2300 1456 
Q 2300 1863 2144 2184 
Q 1988 2506 1659 2506 
Q 1425 2506 1236 2329 
Q 1047 2153 969 1900 
L 969 1666 
z
" transform="scale(0.015625)"/>
       </defs>
       <use xlink:href="#RobotoCondensed-Regular-32"/>
       <use xlink:href="#RobotoCondensed-Regular-30" transform="translate(49.365234 0)"/>
       <use xlink:href="#RobotoCondensed-Regular-31" transform="translate(98.730469 0)"/>
       <use xlink:href="#RobotoCondensed-Regular-36" transform="translate(148.095703 0)"/>
      </g>
     </g>
    </g>
    <g id="xtick_6">
     <g id="line2d_6">
      <g>
       <use xlink:href="#m95041c9326" x="226.808981" y="196.73875" style="stroke: #000000; stroke-width: 0.8"/>
      </g>
     </g>
     <g id="text_6">
      <!-- 2019 -->
      <g transform="translate(220.885856 208.23875) scale(0.06 -0.06)">
       <defs>
        <path id="RobotoCondensed-Regular-39" d="M 2744 2563 
Q 2744 2119 2687 1667 
Q 2631 1216 2450 836 
Q 2269 456 1903 225 
Q 1538 -6 869 -6 
L 866 484 
Q 1428 484 1698 690 
Q 1969 897 2072 1233 
Q 2175 1569 2191 1950 
Q 1859 1522 1413 1522 
Q 1025 1522 786 1747 
Q 547 1972 436 2320 
Q 325 2669 325 3041 
Q 325 3691 623 4152 
Q 922 4613 1522 4613 
Q 1969 4613 2237 4344 
Q 2506 4075 2625 3653 
Q 2744 3231 2744 2772 
L 2744 2563 
z
M 866 3072 
Q 866 2666 1020 2334 
Q 1175 2003 1506 2003 
Q 1716 2003 1906 2179 
Q 2097 2356 2194 2616 
L 2194 2850 
Q 2194 3472 1983 3803 
Q 1772 4134 1522 4134 
Q 1206 4134 1036 3829 
Q 866 3525 866 3072 
z
" transform="scale(0.015625)"/>
       </defs>
       <use xlink:href="#RobotoCondensed-Regular-32"/>
       <use xlink:href="#RobotoCondensed-Regular-30" transform="translate(49.365234 0)"/>
       <use xlink:href="#RobotoCondensed-Regular-31" transform="translate(98.730469 0)"/>
       <use xlink:href="#RobotoCondensed-Regular-39" transform="translate(148.095703 0)"/>
      </g>
     </g>
    </g>
    <g id="xtick_7">
     <g id="line2d_7">
      <g>
       <use xlink:href="#m95041c9326" x="263.599981" y="196.73875" style="stroke: #000000; stroke-width: 0.8"/>
      </g>
     </g>
     <g id="text_7">
      <!-- 2022 -->
      <g transform="translate(257.676856 208.23875) scale(0.06 -0.06)">
       <use xlink:href="#RobotoCondensed-Regular-32"/>
       <use xlink:href="#RobotoCondensed-Regular-30" transform="translate(49.365234 0)"/>
       <use xlink:href="#RobotoCondensed-Regular-32" transform="translate(98.730469 0)"/>
       <use xlink:href="#RobotoCondensed-Regular-32" transform="translate(148.095703 0)"/>
      </g>
     </g>
    </g>
    <g id="xtick_8">
     <g id="line2d_8">
      <g>
       <use xlink:href="#m95041c9326" x="300.390982" y="196.73875" style="stroke: #000000; stroke-width: 0.8"/>
      </g>
     </g>
     <g id="text_8">
      <!-- 2025 -->
      <g transform="translate(294.467857 208.23875) scale(0.06 -0.06)">
       <defs>
        <path id="RobotoCondensed-Regular-35" d="M 1034 2166 
L 594 2284 
L 788 4550 
L 2769 4550 
L 2769 4016 
L 1253 4016 
L 1147 2778 
Q 1438 2975 1753 2975 
Q 2288 2975 2591 2561 
Q 2894 2147 2894 1450 
Q 2894 797 2584 367 
Q 2275 -63 1656 -63 
Q 1194 -63 850 248 
Q 506 559 453 1197 
L 975 1197 
Q 1066 413 1656 413 
Q 1978 413 2159 691 
Q 2341 969 2341 1444 
Q 2341 1872 2153 2164 
Q 1966 2456 1619 2456 
Q 1384 2456 1273 2378 
Q 1163 2300 1034 2166 
z
" transform="scale(0.015625)"/>
       </defs>
       <use xlink:href="#RobotoCondensed-Regular-32"/>
       <use xlink:href="#RobotoCondensed-Regular-30" transform="translate(49.365234 0)"/>
       <use xlink:href="#RobotoCondensed-Regular-32" transform="translate(98.730469 0)"/>
       <use xlink:href="#RobotoCondensed-Regular-35" transform="translate(148.095703 0)"/>
      </g>
     </g>
    </g>
   </g>
   <g id="matplotlib.axis_2">
    <g id="ytick_1">
     <g id="line2d_9">
      <defs>
       <path id="m9381b8caa9" d="M 0 0 
L -3.5 0 
" style="stroke: #000000; stroke-width: 0.8"/>
      </defs>
      <g>
       <use xlink:href="#m9381b8caa9" x="30.590312" y="190.977933" style="stroke: #000000; stroke-width: 0.8"/>
      </g>
     </g>
     <g id="text_9">
      <!-- 0.9675 -->
      <g transform="translate(7.2 193.227933) scale(0.06 -0.06)">
       <defs>
        <path id="RobotoCondensed-Regular-2e" d="M 450 306 
Q 450 453 542 554 
Q 634 656 809 656 
Q 984 656 1076 554 
Q 1169 453 1169 306 
Q 1169 163 1076 62 
Q 984 -38 809 -38 
Q 634 -38 542 62 
Q 450 163 450 306 
z
" transform="scale(0.015625)"/>
       </defs>
       <use xlink:href="#RobotoCondensed-Regular-30"/>
       <use xlink:href="#RobotoCondensed-Regular-2e" transform="translate(49.365234 0)"/>
       <use xlink:href="#RobotoCondensed-Regular-39" transform="translate(75.732422 0)"/>
       <use xlink:href="#RobotoCondensed-Regular-36" transform="translate(125.097656 0)"/>
       <use xlink:href="#RobotoCondensed-Regular-37" transform="translate(174.462891 0)"/>
       <use xlink:href="#RobotoCondensed-Regular-35" transform="translate(223.828125 0)"/>
      </g>
     </g>
    </g>
    <g id="ytick_2">
     <g id="line2d_10">
      <g>
       <use xlink:href="#m9381b8caa9" x="30.590312" y="170.354543" style="stroke: #000000; stroke-width: 0.8"/>
      </g>
     </g>
     <g id="text_10">
      <!-- 0.9700 -->
      <g transform="translate(7.2 172.604543) scale(0.06 -0.06)">
       <use xlink:href="#RobotoCondensed-Regular-30"/>
       <use xlink:href="#RobotoCondensed-Regular-2e" transform="translate(49.365234 0)"/>
       <use xlink:href="#RobotoCondensed-Regular-39" transform="translate(75.732422 0)"/>
       <use xlink:href="#RobotoCondensed-Regular-37" transform="translate(125.097656 0)"/>
       <use xlink:href="#RobotoCondensed-Regular-30" transform="translate(174.462891 0)"/>
       <use xlink:href="#RobotoCondensed-Regular-30" transform="translate(223.828125 0)"/>
      </g>
     </g>
    </g>
    <g id="ytick_3">
     <g id="line2d_11">
      <g>
       <use xlink:href="#m9381b8caa9" x="30.590312" y="149.731153" style="stroke: #000000; stroke-width: 0.8"/>
      </g>
     </g>
     <g id="text_11">
      <!-- 0.9725 -->
      <g transform="translate(7.2 151.981153) scale(0.06 -0.06)">
       <use xlink:href="#RobotoCondensed-Regular-30"/>
       <use xlink:href="#RobotoCondensed-Regular-2e" transform="translate(49.365234 0)"/>
       <use xlink:href="#RobotoCondensed-Regular-39" transform="translate(75.732422 0)"/>
       <use xlink:href="#RobotoCondensed-Regular-37" transform="translate(125.097656 0)"/>
       <use xlink:href="#RobotoCondensed-Regular-32" transform="translate(174.462891 0)"/>
       <use xlink:href="#RobotoCondensed-Regular-35" transform="translate(223.828125 0)"/>
      </g>
     </g>
    </g>
    <g id="ytick_4">
     <g id="line2d_12">
      <g>
       <use xlink:href="#m9381b8caa9" x="30.590312" y="129.107763" style="stroke: #000000; stroke-width: 0.8"/>
      </g>
     </g>
     <g id="text_12">
      <!-- 0.9750 -->
      <g transform="translate(7.2 131.357763) scale(0.06 -0.06)">
       <use xlink:href="#RobotoCondensed-Regular-30"/>
       <use xlink:href="#RobotoCondensed-Regular-2e" transform="translate(49.365234 0)"/>
       <use xlink:href="#RobotoCondensed-Regular-39" transform="translate(75.732422 0)"/>
       <use xlink:href="#RobotoCondensed-Regular-37" transform="translate(125.097656 0)"/>
       <use xlink:href="#RobotoCondensed-Regular-35" transform="translate(174.462891 0)"/>
       <use xlink:href="#RobotoCondensed-Regular-30" transform="translate(223.828125 0)"/>
      </g>
     </g>
    </g>
    <g id="ytick_5">
     <g id="line2d_13">
      <g>
       <use xlink:href="#m9381b8caa9" x="30.590312" y="108.484373" style="stroke: #000000; stroke-width: 0.8"/>
      </g>
     </g>
     <g id="text_13">
      <!-- 0.9775 -->
      <g transform="translate(7.2 110.734373) scale(0.06 -0.06)">
       <use xlink:href="#RobotoCondensed-Regular-30"/>
       <use xlink:href="#RobotoCondensed-Regular-2e" transform="translate(49.365234 0)"/>
       <use xlink:href="#RobotoCondensed-Regular-39" transform="translate(75.732422 0)"/>
       <use xlink:href="#RobotoCondensed-Regular-37" transform="translate(125.097656 0)"/>
       <use xlink:href="#RobotoCondensed-Regular-37" transform="translate(174.462891 0)"/>
       <use xlink:href="#RobotoCondensed-Regular-35" transform="translate(223.828125 0)"/>
      </g>
     </g>
    </g>
    <g id="ytick_6">
     <g id="line2d_14">
      <g>
       <use xlink:href="#m9381b8caa9" x="30.590312" y="87.860983" style="stroke: #000000; stroke-width: 0.8"/>
      </g>
     </g>
     <g id="text_14">
      <!-- 0.9800 -->
      <g transform="translate(7.2 90.110983) scale(0.06 -0.06)">
       <defs>
        <path id="RobotoCondensed-Regular-38" d="M 2794 1231 
Q 2794 606 2445 271 
Q 2097 -63 1578 -63 
Q 1063 -63 714 273 
Q 366 609 366 1231 
Q 366 1613 536 1905 
Q 706 2197 1000 2347 
Q 450 2666 450 3366 
Q 450 3963 769 4288 
Q 1088 4613 1581 4613 
Q 2075 4613 2392 4288 
Q 2709 3963 2709 3366 
Q 2709 3028 2557 2761 
Q 2406 2494 2150 2344 
Q 2444 2194 2619 1901 
Q 2794 1609 2794 1231 
z
M 2156 3356 
Q 2156 3697 2000 3917 
Q 1844 4138 1581 4138 
Q 1319 4138 1161 3927 
Q 1003 3716 1003 3356 
Q 1003 3003 1159 2790 
Q 1316 2578 1581 2578 
Q 1844 2578 2000 2790 
Q 2156 3003 2156 3356 
z
M 2244 1244 
Q 2244 1625 2061 1865 
Q 1878 2106 1575 2106 
Q 1266 2106 1091 1865 
Q 916 1625 916 1244 
Q 916 850 1089 631 
Q 1263 413 1578 413 
Q 1897 413 2070 631 
Q 2244 850 2244 1244 
z
" transform="scale(0.015625)"/>
       </defs>
       <use xlink:href="#RobotoCondensed-Regular-30"/>
       <use xlink:href="#RobotoCondensed-Regular-2e" transform="translate(49.365234 0)"/>
       <use xlink:href="#RobotoCondensed-Regular-39" transform="translate(75.732422 0)"/>
       <use xlink:href="#RobotoCondensed-Regular-38" transform="translate(125.097656 0)"/>
       <use xlink:href="#RobotoCondensed-Regular-30" transform="translate(174.462891 0)"/>
       <use xlink:href="#RobotoCondensed-Regular-30" transform="translate(223.828125 0)"/>
      </g>
     </g>
    </g>
    <g id="ytick_7">
     <g id="line2d_15">
      <g>
       <use xlink:href="#m9381b8caa9" x="30.590312" y="67.237592" style="stroke: #000000; stroke-width: 0.8"/>
      </g>
     </g>
     <g id="text_15">
      <!-- 0.9825 -->
      <g transform="translate(7.2 69.487592) scale(0.06 -0.06)">
       <use xlink:href="#RobotoCondensed-Regular-30"/>
       <use xlink:href="#RobotoCondensed-Regular-2e" transform="translate(49.365234 0)"/>
       <use xlink:href="#RobotoCondensed-Regular-39" transform="translate(75.732422 0)"/>
       <use xlink:href="#RobotoCondensed-Regular-38" transform="translate(125.097656 0)"/>
       <use xlink:href="#RobotoCondensed-Regular-32" transform="translate(174.462891 0)"/>
       <use xlink:href="#RobotoCondensed-Regular-35" transform="translate(223.828125 0)"/>
      </g>
     </g>
    </g>
    <g id="ytick_8">
     <g id="line2d_16">
      <g>
       <use xlink:href="#m9381b8caa9" x="30.590312" y="46.614202" style="stroke: #000000; stroke-width: 0.8"/>
      </g>
     </g>
     <g id="text_16">
      <!-- 0.9850 -->
      <g transform="translate(7.2 48.864202) scale(0.06 -0.06)">
       <use xlink:href="#RobotoCondensed-Regular-30"/>
       <use xlink:href="#RobotoCondensed-Regular-2e" transform="translate(49.365234 0)"/>
       <use xlink:href="#RobotoCondensed-Regular-39" transform="translate(75.732422 0)"/>
       <use xlink:href="#RobotoCondensed-Regular-38" transform="translate(125.097656 0)"/>
       <use xlink:href="#RobotoCondensed-Regular-35" transform="translate(174.462891 0)"/>
       <use xlink:href="#RobotoCondensed-Regular-30" transform="translate(223.828125 0)"/>
      </g>
     </g>
    </g>
    <g id="ytick_9">
     <g id="line2d_17">
      <g>
       <use xlink:href="#m9381b8caa9" x="30.590312" y="25.990812" style="stroke: #000000; stroke-width: 0.8"/>
      </g>
     </g>
     <g id="text_17">
      <!-- 0.9875 -->
      <g transform="translate(7.2 28.240812) scale(0.06 -0.06)">
       <use xlink:href="#RobotoCondensed-Regular-30"/>
       <use xlink:href="#RobotoCondensed-Regular-2e" transform="translate(49.365234 0)"/>
       <use xlink:href="#RobotoCondensed-Regular-39" transform="translate(75.732422 0)"/>
       <use xlink:href="#RobotoCondensed-Regular-38" transform="translate(125.097656 0)"/>
       <use xlink:href="#RobotoCondensed-Regular-37" transform="translate(174.462891 0)"/>
       <use xlink:href="#RobotoCondensed-Regular-35" transform="translate(223.828125 0)"/>
      </g>
     </g>
    </g>
   </g>
   <g id="line2d_18">
    <path d="M 42.853979 82.396484 
L 44.494604 83.95572 
L 46.135228 85.798372 
L 47.775852 87.897049 
L 50.236789 91.465183 
L 52.697725 95.45528 
L 55.158662 99.77539 
L 55.978974 101.482225 
L 57.619598 105.895826 
L 60.080535 113.951021 
L 62.541471 122.023923 
L 64.182095 126.469004 
L 65.002408 128.197482 
L 65.82272 129.501917 
L 66.643032 130.311306 
L 67.463344 130.552386 
L 68.283656 129.931114 
L 69.103968 128.380848 
L 69.924281 126.047313 
L 70.744593 123.076232 
L 72.385217 115.804335 
L 75.666466 100.021883 
L 76.486778 96.668276 
L 77.30709 93.84292 
L 78.127402 91.69154 
L 78.947714 90.359861 
L 79.768026 89.996475 
L 80.588339 90.834874 
L 81.408651 92.82461 
L 82.228963 95.783653 
L 83.049275 99.529975 
L 84.689899 108.656336 
L 87.971148 128.347091 
L 88.79146 132.507531 
L 89.611772 135.999011 
L 90.432085 138.639503 
L 91.252397 140.246977 
L 92.072709 140.656681 
L 92.893021 140.314078 
L 93.713333 139.526889 
L 94.533645 138.351847 
L 95.353958 136.845683 
L 96.994582 133.066921 
L 99.455518 126.333683 
L 101.916455 119.683911 
L 103.557079 116.053534 
L 110.939889 103.475366 
L 112.580513 101.298056 
L 113.400825 100.423893 
L 114.221137 99.722434 
L 115.041449 99.215961 
L 115.861761 98.926756 
L 116.682074 98.871423 
L 117.502386 98.973699 
L 119.14301 99.52785 
L 120.783634 100.484297 
L 122.424259 101.766435 
L 124.885195 104.132738 
L 128.986756 108.62665 
L 130.62738 110.705637 
L 132.268005 113.172055 
L 133.908629 116.015095 
L 135.549253 119.223947 
L 137.189878 122.787801 
L 139.650814 128.775565 
L 141.291438 133.244723 
L 142.111751 136.252626 
L 142.932063 139.973713 
L 144.572687 148.98674 
L 149.49456 178.356045 
L 150.314872 182.097917 
L 151.135184 185.131225 
L 151.955497 187.313792 
L 152.775809 188.503444 
L 153.596121 188.51786 
L 154.416433 187.046322 
L 155.236745 184.233142 
L 156.057057 180.300998 
L 156.877369 175.472572 
L 158.517994 164.017584 
L 160.97893 145.679954 
L 162.619555 135.282692 
L 163.439867 131.300446 
L 164.260179 128.426029 
L 165.080491 126.88212 
L 165.900803 126.762898 
L 166.721115 127.401965 
L 167.541428 128.591767 
L 168.36174 130.240131 
L 170.002364 134.543851 
L 174.103925 146.875855 
L 174.924237 148.874476 
L 175.744549 150.502101 
L 176.564861 151.666556 
L 177.385173 152.275667 
L 178.205486 152.220314 
L 179.025798 151.406389 
L 179.84611 149.927827 
L 180.666422 147.896801 
L 182.307046 142.626063 
L 186.408607 127.633381 
L 187.228919 125.220961 
L 188.049232 123.265653 
L 188.869544 121.879636 
L 189.689856 121.175082 
L 190.510168 121.144477 
L 191.33048 121.348577 
L 192.150792 121.710955 
L 193.791417 122.802781 
L 196.252353 124.954081 
L 198.71329 127.075072 
L 200.353914 128.113016 
L 201.174226 128.438351 
L 201.994538 128.598672 
L 202.81485 128.581553 
L 204.455475 128.169135 
L 206.096099 127.388411 
L 208.557036 125.86071 
L 211.017972 124.363064 
L 212.658596 123.635774 
L 213.478908 123.41072 
L 214.299221 123.303504 
L 215.939845 123.387432 
L 217.580469 123.683478 
L 220.861718 124.612831 
L 224.142967 125.509633 
L 225.783591 125.76499 
L 227.424215 125.799634 
L 229.06484 125.61921 
L 230.705464 125.257803 
L 233.1664 124.438343 
L 235.627337 123.371076 
L 238.908585 121.727883 
L 239.728898 121.253583 
L 241.369522 119.907665 
L 243.010146 118.146573 
L 245.471083 115.048869 
L 248.752331 110.841007 
L 250.392956 109.03542 
L 252.03358 107.588456 
L 255.314829 105.074534 
L 258.596077 102.843629 
L 262.697638 100.329994 
L 265.158575 98.964723 
L 268.439823 97.472895 
L 272.541384 95.618292 
L 275.00232 94.209564 
L 276.642945 93.035785 
L 278.283569 91.597886 
L 279.924193 89.91048 
L 282.38513 86.968984 
L 284.846066 83.6138 
L 288.127315 78.649879 
L 288.127315 78.649879 
" clip-path="url(#p91360d79c2)" style="fill: none; stroke: #ffa500; stroke-width: 2; stroke-linecap: square"/>
   </g>
   <g id="line2d_19">
    <path d="M 42.853979 119.653798 
L 55.117646 119.431941 
L 67.381313 119.210083 
L 79.64498 118.988226 
L 91.908646 118.766369 
L 104.172313 118.544512 
L 116.43598 118.322654 
L 128.699647 118.100797 
L 140.963314 117.87894 
L 153.22698 117.657082 
L 165.490647 117.435225 
L 177.754314 117.213368 
L 190.017981 116.991511 
L 202.281648 116.769653 
L 214.545314 116.547796 
L 226.808981 116.325939 
L 239.072648 116.104081 
L 251.336315 115.882224 
L 263.599981 115.660367 
L 275.863648 115.43851 
L 288.127315 115.216652 
" clip-path="url(#p91360d79c2)" style="fill: none; stroke-dasharray: 3.7,1.6; stroke-dashoffset: 0; stroke: #ffa500; stroke-opacity: 0.7"/>
   </g>
   <g id="line2d_20">
    <path d="M 42.853979 49.815751 
L 44.494604 47.824972 
L 46.135228 46.3632 
L 47.775852 45.348734 
L 49.416477 44.699875 
L 51.057101 44.334924 
L 53.518037 44.141103 
L 55.158662 44.129328 
L 55.978974 44.484539 
L 56.799286 45.4222 
L 57.619598 46.851657 
L 58.43991 48.682256 
L 60.080535 53.184267 
L 63.361783 63.013237 
L 64.182095 65.113531 
L 65.002408 66.889738 
L 65.82272 68.251205 
L 66.643032 69.107277 
L 67.463344 69.370009 
L 68.283656 69.290178 
L 69.924281 68.791131 
L 71.564905 67.964399 
L 77.30709 64.65304 
L 78.947714 64.205486 
L 79.768026 64.161924 
L 80.588339 64.442301 
L 81.408651 65.107709 
L 82.228963 66.097273 
L 83.869587 68.805372 
L 88.79146 78.37848 
L 89.611772 79.546101 
L 90.432085 80.429135 
L 91.252397 80.966707 
L 92.072709 81.097221 
L 92.893021 80.76665 
L 93.713333 80.016671 
L 94.533645 78.914119 
L 95.353958 77.525835 
L 96.994582 74.15942 
L 100.27583 66.938671 
L 101.096143 65.421724 
L 101.916455 64.153748 
L 102.736767 63.201583 
L 103.557079 62.632066 
L 104.377391 62.504521 
L 105.197703 62.693727 
L 106.018016 63.105863 
L 106.838328 63.705116 
L 108.478952 65.321726 
L 113.400825 70.93793 
L 114.221137 71.609702 
L 115.041449 72.110472 
L 115.861761 72.404428 
L 116.682074 72.455269 
L 117.502386 72.240327 
L 118.322698 71.789146 
L 119.14301 71.139984 
L 120.783634 69.400743 
L 125.705507 63.410225 
L 126.52582 62.700807 
L 127.346132 62.175981 
L 128.166444 61.874003 
L 128.986756 61.8391 
L 129.807068 62.152787 
L 130.62738 62.789343 
L 131.447693 63.696053 
L 133.088317 66.109085 
L 138.01019 74.349733 
L 138.830502 75.315745 
L 139.650814 76.024781 
L 140.471126 76.424127 
L 141.291438 76.474635 
L 142.111751 76.274363 
L 142.932063 75.873919 
L 143.752375 75.29804 
L 145.392999 73.718915 
L 147.033624 71.734867 
L 151.955497 65.332008 
L 153.596121 63.686069 
L 156.057057 61.141339 
L 159.338306 57.608844 
L 160.97893 56.074723 
L 162.619555 54.868342 
L 163.439867 54.428598 
L 164.260179 54.119444 
L 165.080491 53.957095 
L 165.900803 53.998493 
L 166.721115 54.472472 
L 167.541428 55.354916 
L 168.36174 56.577462 
L 170.002364 59.769412 
L 174.103925 68.915721 
L 174.924237 70.398044 
L 175.744549 71.605209 
L 176.564861 72.468853 
L 177.385173 72.920614 
L 178.205486 72.931588 
L 179.025798 72.6677 
L 179.84611 72.181796 
L 180.666422 71.503614 
L 182.307046 69.689382 
L 183.947671 67.462928 
L 188.049232 61.654689 
L 189.689856 59.859101 
L 192.150792 57.899623 
L 195.432041 55.648713 
L 204.455475 49.782458 
L 212.658596 44.098838 
L 215.939845 42.169609 
L 219.221094 40.53901 
L 224.963279 37.748968 
L 227.424215 36.296265 
L 229.06484 34.976692 
L 231.525776 32.605059 
L 233.986712 30.229935 
L 235.627337 28.904156 
L 237.267961 27.966192 
L 238.088273 27.69131 
L 238.908585 27.571787 
L 239.728898 27.786187 
L 240.54921 28.620579 
L 241.369522 29.991181 
L 242.189834 31.803505 
L 243.830458 36.375379 
L 247.932019 48.921182 
L 248.752331 50.865788 
L 249.572644 52.40174 
L 250.392956 53.434553 
L 251.213268 53.869741 
L 252.03358 53.824114 
L 252.853892 53.63586 
L 254.494516 52.932321 
L 256.135141 51.930075 
L 260.236702 49.199142 
L 261.877326 48.449251 
L 262.697638 48.230097 
L 263.51795 48.14227 
L 264.338262 48.308063 
L 265.158575 48.849335 
L 265.978887 49.710155 
L 266.799199 50.833205 
L 268.439823 53.636722 
L 271.721072 59.868521 
L 273.361696 62.379716 
L 274.182008 63.283524 
L 275.00232 63.876383 
L 275.822633 64.100974 
L 277.463257 63.900166 
L 279.103881 63.261932 
L 280.744506 62.166021 
L 282.38513 60.591781 
L 284.025754 58.518558 
L 285.666379 55.9257 
L 287.307003 52.792552 
L 288.127315 51.016916 
L 288.127315 51.016916 
" clip-path="url(#p91360d79c2)" style="fill: none; stroke: #800080; stroke-width: 2; stroke-linecap: square"/>
   </g>
   <g id="line2d_21">
    <path d="M 42.853979 66.287479 
L 55.117646 65.411107 
L 67.381313 64.534734 
L 79.64498 63.658362 
L 91.908646 62.78199 
L 104.172313 61.905617 
L 116.43598 61.029245 
L 128.699647 60.152873 
L 140.963314 59.2765 
L 153.22698 58.400128 
L 165.490647 57.523756 
L 177.754314 56.647384 
L 190.017981 55.771011 
L 202.281648 54.894639 
L 214.545314 54.018267 
L 226.808981 53.141894 
L 239.072648 52.265522 
L 251.336315 51.38915 
L 263.599981 50.512777 
L 275.863648 49.636405 
L 288.127315 48.760033 
" clip-path="url(#p91360d79c2)" style="fill: none; stroke-dasharray: 3.7,1.6; stroke-dashoffset: 0; stroke: #800080; stroke-opacity: 0.7"/>
   </g>
   <g id="text_18">
    <!-- Berger-Parker (1) -->
    <g transform="translate(137.115022 13.5125) scale(0.08 -0.08)">
     <defs>
      <path id="RobotoCondensed-Bold-42" d="M 3294 1341 
Q 3294 675 2942 339 
Q 2591 3 1884 0 
L 366 0 
L 366 4550 
L 1772 4550 
Q 2453 4550 2839 4245 
Q 3225 3941 3225 3303 
Q 3225 2994 3089 2734 
Q 2953 2475 2653 2344 
Q 3003 2244 3148 1956 
Q 3294 1669 3294 1341 
z
M 1288 3784 
L 1288 2647 
L 1763 2647 
Q 2303 2647 2303 3206 
Q 2303 3772 1794 3784 
L 1288 3784 
z
M 2375 1350 
Q 2375 1963 1941 1981 
L 1288 1981 
L 1288 763 
L 1872 763 
Q 2141 763 2258 930 
Q 2375 1097 2375 1350 
z
" transform="scale(0.015625)"/>
      <path id="RobotoCondensed-Bold-65" d="M 2834 444 
Q 2700 263 2411 100 
Q 2122 -63 1688 -63 
Q 997 -63 620 350 
Q 244 763 244 1497 
L 244 1775 
Q 244 2597 601 3020 
Q 959 3444 1596 3444 
Q 2234 3444 2556 3041 
Q 2878 2638 2884 1831 
L 2884 1397 
L 1131 1397 
Q 1147 994 1305 833 
Q 1463 672 1747 672 
Q 2194 672 2484 978 
L 2834 444 
z
M 1594 2709 
Q 1363 2709 1258 2545 
Q 1153 2381 1134 2016 
L 2019 2016 
L 2019 2094 
Q 2013 2400 1919 2554 
Q 1825 2709 1594 2709 
z
" transform="scale(0.015625)"/>
      <path id="RobotoCondensed-Bold-72" d="M 1700 2553 
Q 1331 2553 1206 2238 
L 1206 0 
L 322 0 
L 322 3381 
L 1156 3381 
L 1181 3016 
Q 1394 3444 1759 3444 
Q 1903 3444 2000 3406 
L 1991 2528 
Q 1834 2553 1700 2553 
z
" transform="scale(0.015625)"/>
      <path id="RobotoCondensed-Bold-67" d="M 1494 -1331 
Q 1259 -1331 945 -1232 
Q 631 -1134 453 -941 
L 750 -328 
Q 872 -450 1067 -536 
Q 1263 -622 1456 -622 
Q 1725 -622 1869 -489 
Q 2013 -356 2013 -3 
L 2013 269 
Q 1756 -63 1353 -63 
Q 819 -63 517 357 
Q 216 778 216 1572 
L 216 1794 
Q 216 2625 517 3034 
Q 819 3444 1359 3444 
Q 1819 3444 2066 3084 
L 2100 3381 
L 2900 3381 
L 2900 0 
Q 2900 -697 2512 -1014 
Q 2125 -1331 1494 -1331 
z
M 1100 1572 
Q 1100 678 1609 678 
Q 1881 678 2013 875 
L 2013 2494 
Q 1878 2706 1615 2706 
Q 1353 2706 1226 2490 
Q 1100 2275 1100 1794 
L 1100 1572 
z
" transform="scale(0.015625)"/>
      <path id="RobotoCondensed-Bold-2d" d="M 1913 2319 
L 1913 1584 
L 384 1584 
L 384 2319 
L 1913 2319 
z
" transform="scale(0.015625)"/>
      <path id="RobotoCondensed-Bold-50" d="M 1288 1600 
L 1288 0 
L 366 0 
L 366 4550 
L 1919 4550 
Q 2606 4550 3001 4123 
Q 3397 3697 3397 3044 
Q 3397 2384 3005 1993 
Q 2613 1603 1928 1600 
L 1288 1600 
z
M 1288 3784 
L 1288 2366 
L 1919 2366 
Q 2206 2366 2336 2555 
Q 2466 2744 2466 3037 
Q 2466 3331 2336 3557 
Q 2206 3784 1919 3784 
L 1288 3784 
z
" transform="scale(0.015625)"/>
      <path id="RobotoCondensed-Bold-61" d="M 1928 0 
Q 1881 106 1853 263 
Q 1613 -63 1209 -63 
Q 800 -63 514 212 
Q 228 488 228 947 
Q 228 1463 559 1764 
Q 891 2066 1572 2066 
L 1809 2066 
L 1809 2338 
Q 1809 2753 1503 2753 
Q 1172 2753 1172 2366 
L 288 2366 
Q 288 2809 623 3126 
Q 959 3444 1528 3444 
Q 2031 3444 2364 3181 
Q 2697 2919 2697 2325 
L 2697 738 
Q 2703 288 2819 53 
L 2819 0 
L 1928 0 
z
M 1409 634 
Q 1553 634 1656 693 
Q 1759 753 1809 834 
L 1809 1538 
L 1600 1538 
Q 1350 1538 1231 1384 
Q 1113 1231 1113 1009 
Q 1113 634 1409 634 
z
" transform="scale(0.015625)"/>
      <path id="RobotoCondensed-Bold-6b" d="M 2063 0 
L 1447 1309 
L 1206 1041 
L 1206 0 
L 322 0 
L 322 4803 
L 1206 4803 
L 1206 2209 
L 1316 2369 
L 1931 3381 
L 2984 3381 
L 2003 1991 
L 3075 0 
L 2063 0 
z
" transform="scale(0.015625)"/>
      <path id="RobotoCondensed-Bold-20" transform="scale(0.015625)"/>
      <path id="RobotoCondensed-Bold-28" d="M 378 1850 
Q 378 2731 592 3390 
Q 806 4050 1118 4472 
Q 1431 4894 1728 5050 
L 1894 4559 
Q 1619 4300 1372 3661 
Q 1125 3022 1119 1919 
L 1119 1772 
Q 1119 628 1367 -23 
Q 1616 -675 1894 -941 
L 1728 -1422 
Q 1431 -1266 1118 -845 
Q 806 -425 592 236 
Q 378 897 378 1850 
z
" transform="scale(0.015625)"/>
      <path id="RobotoCondensed-Bold-31" d="M 2244 4556 
L 2244 0 
L 1359 0 
L 1359 3475 
L 494 3144 
L 494 3881 
L 2150 4556 
L 2244 4556 
z
" transform="scale(0.015625)"/>
      <path id="RobotoCondensed-Bold-29" d="M 1741 1778 
Q 1741 931 1520 265 
Q 1300 -400 975 -833 
Q 650 -1266 341 -1422 
L 175 -941 
Q 447 -681 695 -37 
Q 944 606 950 1709 
L 950 1856 
Q 950 3000 695 3653 
Q 441 4306 175 4569 
L 341 5050 
Q 650 4894 975 4459 
Q 1300 4025 1520 3364 
Q 1741 2703 1741 1778 
z
" transform="scale(0.015625)"/>
     </defs>
     <use xlink:href="#RobotoCondensed-Bold-42"/>
     <use xlink:href="#RobotoCondensed-Bold-65" transform="translate(56.152344 0)"/>
     <use xlink:href="#RobotoCondensed-Bold-72" transform="translate(104.052734 0)"/>
     <use xlink:href="#RobotoCondensed-Bold-67" transform="translate(137.207031 0)"/>
     <use xlink:href="#RobotoCondensed-Bold-65" transform="translate(187.548828 0)"/>
     <use xlink:href="#RobotoCondensed-Bold-72" transform="translate(235.449219 0)"/>
     <use xlink:href="#RobotoCondensed-Bold-2d" transform="translate(268.603516 0)"/>
     <use xlink:href="#RobotoCondensed-Bold-50" transform="translate(304.931641 0)"/>
     <use xlink:href="#RobotoCondensed-Bold-61" transform="translate(361.816406 0)"/>
     <use xlink:href="#RobotoCondensed-Bold-72" transform="translate(408.935547 0)"/>
     <use xlink:href="#RobotoCondensed-Bold-6b" transform="translate(442.089844 0)"/>
     <use xlink:href="#RobotoCondensed-Bold-65" transform="translate(489.941406 0)"/>
     <use xlink:href="#RobotoCondensed-Bold-72" transform="translate(537.841797 0)"/>
     <use xlink:href="#RobotoCondensed-Bold-20" transform="translate(570.996094 0)"/>
     <use xlink:href="#RobotoCondensed-Bold-28" transform="translate(594.042969 0)"/>
     <use xlink:href="#RobotoCondensed-Bold-31" transform="translate(626.367188 0)"/>
     <use xlink:href="#RobotoCondensed-Bold-29" transform="translate(676.953125 0)"/>
    </g>
   </g>
   <g id="PathCollection_1">
    <defs>
     <path id="me56ec4abc4" d="M 0 3 
C 0.795609 3 1.55874 2.683901 2.12132 2.12132 
C 2.683901 1.55874 3 0.795609 3 0 
C 3 -0.795609 2.683901 -1.55874 2.12132 -2.12132 
C 1.55874 -2.683901 0.795609 -3 0 -3 
C -0.795609 -3 -1.55874 -2.683901 -2.12132 -2.12132 
C -2.683901 -1.55874 -3 -0.795609 -3 0 
C -3 0.795609 -2.683901 1.55874 -2.12132 2.12132 
C -1.55874 2.683901 -0.795609 3 0 3 
z
" style="stroke: #ffa500"/>
    </defs>
    <g clip-path="url(#p91360d79c2)">
     <use xlink:href="#me56ec4abc4" x="42.853979" y="82.396484" style="fill: #ffa500; stroke: #ffa500"/>
     <use xlink:href="#me56ec4abc4" x="55.117646" y="99.700692" style="fill: #ffa500; stroke: #ffa500"/>
     <use xlink:href="#me56ec4abc4" x="67.381313" y="130.557809" style="fill: #ffa500; stroke: #ffa500"/>
     <use xlink:href="#me56ec4abc4" x="79.64498" y="89.98127" style="fill: #ffa500; stroke: #ffa500"/>
     <use xlink:href="#me56ec4abc4" x="91.908646" y="140.666858" style="fill: #ffa500; stroke: #ffa500"/>
     <use xlink:href="#me56ec4abc4" x="104.172313" y="114.969857" style="fill: #ffa500; stroke: #ffa500"/>
     <use xlink:href="#me56ec4abc4" x="116.43598" y="98.865518" style="fill: #ffa500; stroke: #ffa500"/>
     <use xlink:href="#me56ec4abc4" x="128.699647" y="108.303466" style="fill: #ffa500; stroke: #ffa500"/>
     <use xlink:href="#me56ec4abc4" x="140.963314" y="132.2731" style="fill: #ffa500; stroke: #ffa500"/>
     <use xlink:href="#me56ec4abc4" x="153.22698" y="188.683011" style="fill: #ffa500; stroke: #ffa500"/>
     <use xlink:href="#me56ec4abc4" x="165.490647" y="126.678694" style="fill: #ffa500; stroke: #ffa500"/>
     <use xlink:href="#me56ec4abc4" x="177.754314" y="152.344028" style="fill: #ffa500; stroke: #ffa500"/>
     <use xlink:href="#me56ec4abc4" x="190.017981" y="121.109198" style="fill: #ffa500; stroke: #ffa500"/>
     <use xlink:href="#me56ec4abc4" x="202.281648" y="128.610814" style="fill: #ffa500; stroke: #ffa500"/>
     <use xlink:href="#me56ec4abc4" x="214.545314" y="123.297171" style="fill: #ffa500; stroke: #ffa500"/>
     <use xlink:href="#me56ec4abc4" x="226.808981" y="125.81485" style="fill: #ffa500; stroke: #ffa500"/>
     <use xlink:href="#me56ec4abc4" x="239.072648" y="121.642689" style="fill: #ffa500; stroke: #ffa500"/>
     <use xlink:href="#me56ec4abc4" x="251.336315" y="108.166796" style="fill: #ffa500; stroke: #ffa500"/>
     <use xlink:href="#me56ec4abc4" x="263.599981" y="99.80375" style="fill: #ffa500; stroke: #ffa500"/>
     <use xlink:href="#me56ec4abc4" x="275.863648" y="93.623793" style="fill: #ffa500; stroke: #ffa500"/>
     <use xlink:href="#me56ec4abc4" x="288.127315" y="78.649879" style="fill: #ffa500; stroke: #ffa500"/>
    </g>
   </g>
   <g id="PathCollection_2">
    <defs>
     <path id="mc552e4a87e" d="M -3 3 
L 3 3 
L 3 -3 
L -3 -3 
z
" style="stroke: #800080"/>
    </defs>
    <g clip-path="url(#p91360d79c2)">
     <use xlink:href="#mc552e4a87e" x="42.853979" y="49.815751" style="fill: #800080; stroke: #800080"/>
     <use xlink:href="#mc552e4a87e" x="55.117646" y="44.128483" style="fill: #800080; stroke: #800080"/>
     <use xlink:href="#mc552e4a87e" x="67.381313" y="69.370705" style="fill: #800080; stroke: #800080"/>
     <use xlink:href="#mc552e4a87e" x="79.64498" y="64.156839" style="fill: #800080; stroke: #800080"/>
     <use xlink:href="#mc552e4a87e" x="91.908646" y="81.107124" style="fill: #800080; stroke: #800080"/>
     <use xlink:href="#mc552e4a87e" x="104.172313" y="62.496249" style="fill: #800080; stroke: #800080"/>
     <use xlink:href="#mc552e4a87e" x="116.43598" y="72.467966" style="fill: #800080; stroke: #800080"/>
     <use xlink:href="#mc552e4a87e" x="128.699647" y="61.815342" style="fill: #800080; stroke: #800080"/>
     <use xlink:href="#mc552e4a87e" x="140.963314" y="76.493155" style="fill: #800080; stroke: #800080"/>
     <use xlink:href="#mc552e4a87e" x="153.22698" y="64.02878" style="fill: #800080; stroke: #800080"/>
     <use xlink:href="#mc552e4a87e" x="165.490647" y="53.936041" style="fill: #800080; stroke: #800080"/>
     <use xlink:href="#mc552e4a87e" x="177.754314" y="72.971315" style="fill: #800080; stroke: #800080"/>
     <use xlink:href="#mc552e4a87e" x="190.017981" y="59.571382" style="fill: #800080; stroke: #800080"/>
     <use xlink:href="#mc552e4a87e" x="202.281648" y="51.288495" style="fill: #800080; stroke: #800080"/>
     <use xlink:href="#mc552e4a87e" x="214.545314" y="42.946758" style="fill: #800080; stroke: #800080"/>
     <use xlink:href="#mc552e4a87e" x="226.808981" y="36.698686" style="fill: #800080; stroke: #800080"/>
     <use xlink:href="#mc552e4a87e" x="239.072648" y="27.568239" style="fill: #800080; stroke: #800080"/>
     <use xlink:href="#mc552e4a87e" x="251.336315" y="53.877634" style="fill: #800080; stroke: #800080"/>
     <use xlink:href="#mc552e4a87e" x="263.599981" y="48.141504" style="fill: #800080; stroke: #800080"/>
     <use xlink:href="#mc552e4a87e" x="275.863648" y="64.101508" style="fill: #800080; stroke: #800080"/>
     <use xlink:href="#mc552e4a87e" x="288.127315" y="51.016916" style="fill: #800080; stroke: #800080"/>
    </g>
   </g>
   <g id="legend_1">
    <g id="patch_3">
     <path d="M 33.590312 41.811875 
L 69.714062 41.811875 
L 69.714062 22.5125 
L 33.590312 22.5125 
z
" style="fill: #ffffff; opacity: 0.8"/>
    </g>
    <g id="line2d_22">
     <path d="M 35.990312 27.3125 
L 43.490312 27.3125 
L 50.990312 27.3125 
" style="fill: none; stroke: #ffa500; stroke-width: 2; stroke-linecap: square"/>
     <g>
      <use xlink:href="#me56ec4abc4" x="43.490312" y="27.3125" style="fill: #ffa500; stroke: #ffa500"/>
     </g>
    </g>
    <g id="text_19">
     <!-- Boys -->
     <g transform="translate(55.790312 29.4125) scale(0.06 -0.06)">
      <defs>
       <path id="RobotoCondensed-Regular-42" d="M 3125 1313 
Q 3125 675 2776 337 
Q 2428 0 1847 0 
L 491 0 
L 491 4550 
L 1791 4550 
Q 2375 4550 2706 4261 
Q 3038 3972 3038 3338 
Q 3038 3025 2880 2779 
Q 2722 2534 2453 2400 
Q 2781 2297 2953 1998 
Q 3125 1700 3125 1313 
z
M 1066 4056 
L 1066 2613 
L 1797 2613 
Q 2088 2613 2275 2806 
Q 2463 3000 2463 3344 
Q 2463 4041 1819 4056 
L 1066 4056 
z
M 2550 1306 
Q 2550 2106 1906 2128 
L 1066 2128 
L 1066 491 
L 1847 491 
Q 2181 491 2365 711 
Q 2550 931 2550 1306 
z
" transform="scale(0.015625)"/>
       <path id="RobotoCondensed-Regular-6f" d="M 300 1850 
Q 300 2641 678 3042 
Q 1056 3444 1603 3444 
Q 2156 3444 2536 3042 
Q 2916 2641 2916 1850 
L 2916 1528 
Q 2916 738 2536 337 
Q 2156 -63 1609 -63 
Q 1059 -63 679 337 
Q 300 738 300 1528 
L 300 1850 
z
M 853 1528 
Q 853 969 1068 689 
Q 1284 409 1609 409 
Q 2341 409 2363 1466 
L 2363 1850 
Q 2363 2403 2145 2686 
Q 1928 2969 1603 2969 
Q 1281 2969 1067 2686 
Q 853 2403 853 1850 
L 853 1528 
z
" transform="scale(0.015625)"/>
       <path id="RobotoCondensed-Regular-79" d="M 1425 -522 
Q 1153 -1366 563 -1366 
Q 409 -1366 278 -1316 
L 278 -847 
Q 328 -859 397 -859 
Q 631 -859 770 -746 
Q 909 -634 997 -338 
L 1106 31 
L 109 3381 
L 713 3381 
L 1341 922 
L 1953 3381 
L 2541 3381 
L 1425 -522 
z
" transform="scale(0.015625)"/>
       <path id="RobotoCondensed-Regular-73" d="M 2056 866 
Q 2056 1059 1907 1190 
Q 1759 1322 1340 1500 
Q 922 1678 681 1863 
Q 409 2072 409 2484 
Q 409 2888 703 3166 
Q 997 3444 1481 3444 
Q 2000 3444 2287 3150 
Q 2575 2856 2575 2419 
L 2025 2419 
Q 2025 2628 1884 2798 
Q 1744 2969 1481 2969 
Q 1203 2969 1083 2828 
Q 963 2688 963 2503 
Q 963 2319 1081 2217 
Q 1200 2116 1553 1959 
Q 2066 1756 2337 1537 
Q 2609 1319 2609 909 
Q 2609 463 2303 200 
Q 1997 -63 1494 -63 
Q 919 -63 616 265 
Q 313 594 313 1013 
L 866 1013 
Q 881 653 1081 533 
Q 1281 413 1494 413 
Q 2056 413 2056 866 
z
" transform="scale(0.015625)"/>
      </defs>
      <use xlink:href="#RobotoCondensed-Regular-42"/>
      <use xlink:href="#RobotoCondensed-Regular-6f" transform="translate(54.589844 0)"/>
      <use xlink:href="#RobotoCondensed-Regular-79" transform="translate(104.785156 0)"/>
      <use xlink:href="#RobotoCondensed-Regular-73" transform="translate(146.435547 0)"/>
     </g>
    </g>
    <g id="line2d_23">
     <path d="M 35.990312 36.093125 
L 43.490312 36.093125 
L 50.990312 36.093125 
" style="fill: none; stroke: #800080; stroke-width: 2; stroke-linecap: square"/>
     <defs>
      <path id="m57b9ab5476" d="M -3 3 
L 3 3 
L 3 -3 
L -3 -3 
z
" style="stroke: #800080; stroke-linejoin: miter"/>
     </defs>
     <g>
      <use xlink:href="#m57b9ab5476" x="43.490312" y="36.093125" style="fill: #800080; stroke: #800080; stroke-linejoin: miter"/>
     </g>
    </g>
    <g id="text_20">
     <!-- Girls -->
     <g transform="translate(55.790312 38.193125) scale(0.06 -0.06)">
      <defs>
       <path id="RobotoCondensed-Regular-47" d="M 3341 2266 
L 3341 569 
Q 3266 469 3114 319 
Q 2963 169 2691 53 
Q 2419 -63 1978 -63 
Q 1272 -63 830 412 
Q 388 888 388 1850 
L 388 2703 
Q 388 3656 770 4134 
Q 1153 4613 1919 4613 
Q 2581 4613 2943 4244 
Q 3306 3875 3341 3219 
L 2766 3219 
Q 2731 3641 2529 3880 
Q 2328 4119 1919 4119 
Q 1400 4119 1183 3773 
Q 966 3428 963 2731 
L 963 1850 
Q 963 1125 1239 776 
Q 1516 428 1981 428 
Q 2378 428 2537 547 
Q 2697 666 2769 728 
L 2769 1778 
L 1934 1778 
L 1934 2266 
L 3341 2266 
z
" transform="scale(0.015625)"/>
       <path id="RobotoCondensed-Regular-69" d="M 428 4278 
Q 428 4419 506 4516 
Q 584 4613 741 4613 
Q 894 4613 975 4516 
Q 1056 4419 1056 4278 
Q 1056 4144 975 4048 
Q 894 3953 741 3953 
Q 584 3953 506 4048 
Q 428 4144 428 4278 
z
M 1009 3381 
L 1009 0 
L 459 0 
L 459 3381 
L 1009 3381 
z
" transform="scale(0.015625)"/>
       <path id="RobotoCondensed-Regular-72" d="M 1563 2888 
Q 1138 2888 969 2425 
L 969 0 
L 416 0 
L 416 3381 
L 950 3381 
L 963 3041 
Q 1184 3444 1591 3444 
Q 1738 3444 1809 3400 
L 1813 2863 
Q 1691 2888 1563 2888 
z
" transform="scale(0.015625)"/>
       <path id="RobotoCondensed-Regular-6c" d="M 1009 4800 
L 1009 0 
L 459 0 
L 459 4800 
L 1009 4800 
z
" transform="scale(0.015625)"/>
      </defs>
      <use xlink:href="#RobotoCondensed-Regular-47"/>
      <use xlink:href="#RobotoCondensed-Regular-69" transform="translate(59.082031 0)"/>
      <use xlink:href="#RobotoCondensed-Regular-72" transform="translate(82.03125 0)"/>
      <use xlink:href="#RobotoCondensed-Regular-6c" transform="translate(112.5 0)"/>
      <use xlink:href="#RobotoCondensed-Regular-73" transform="translate(135.449219 0)"/>
     </g>
    </g>
   </g>
  </g>
 </g>
 <defs>
  <clipPath id="p91360d79c2">
   <rect x="30.590312" y="19.5125" width="269.800669" height="177.22625"/>
  </clipPath>
 </defs>
</svg>
