<?xml version="1.0" encoding="utf-8" standalone="no"?>
<!DOCTYPE svg PUBLIC "-//W3C//DTD SVG 1.1//EN"
  "http://www.w3.org/Graphics/SVG/1.1/DTD/svg11.dtd">
<svg xmlns:xlink="http://www.w3.org/1999/xlink" width="313.530982pt" height="216.6575pt" viewBox="0 0 313.530982 216.6575" xmlns="http://www.w3.org/2000/svg" version="1.1">
 <metadata>
  <rdf:RDF xmlns:dc="http://purl.org/dc/elements/1.1/" xmlns:cc="http://creativecommons.org/ns#" xmlns:rdf="http://www.w3.org/1999/02/22-rdf-syntax-ns#">
   <cc:Work>
    <dc:type rdf:resource="http://purl.org/dc/dcmitype/StillImage"/>
    <dc:date>2026-04-28T10:25:38.056180</dc:date>
    <dc:format>image/svg+xml</dc:format>
    <dc:creator>
     <cc:Agent>
      <dc:title>Matplotlib v3.10.7, https://matplotlib.org/</dc:title>
     </cc:Agent>
    </dc:creator>
   </cc:Work>
  </rdf:RDF>
 </metadata>
 <defs>
  <style type="text/css">*{stroke-linejoin: round; stroke-linecap: butt}</style>
 </defs>
 <g id="figure_1">
  <g id="patch_1">
   <path d="M -0 216.6575 
L 313.530982 216.6575 
L 313.530982 -0 
L -0 -0 
z
" style="fill: #ffffff"/>
  </g>
  <g id="axes_1">
   <g id="patch_2">
    <path d="M 24.667188 196.73875 
L 300.407857 196.73875 
L 300.407857 19.5125 
L 24.667188 19.5125 
z
" style="fill: #ffffff"/>
   </g>
   <g id="matplotlib.axis_1">
    <g id="xtick_1">
     <g id="line2d_1">
      <defs>
       <path id="mc498c210b4" d="M 0 0 
L 0 3.5 
" style="stroke: #000000; stroke-width: 0.8"/>
      </defs>
      <g>
       <use xlink:href="#mc498c210b4" x="37.200854" y="196.73875" style="stroke: #000000; stroke-width: 0.8"/>
      </g>
     </g>
     <g id="text_1">
      <!-- 2004 -->
      <g transform="translate(31.277729 208.23875) scale(0.06 -0.06)">
       <defs>
        <path id="RobotoCondensed-Regular-32" d="M 2909 475 
L 2909 0 
L 366 0 
L 366 416 
L 1628 2088 
Q 1966 2541 2077 2802 
Q 2188 3063 2188 3328 
Q 2188 3663 2027 3900 
Q 1866 4138 1575 4138 
Q 1194 4138 1022 3878 
Q 850 3619 850 3213 
L 297 3213 
Q 297 3788 617 4200 
Q 938 4613 1575 4613 
Q 2125 4613 2433 4278 
Q 2741 3944 2741 3397 
Q 2741 2997 2541 2594 
Q 2341 2191 2047 1809 
L 1028 475 
L 2909 475 
z
" transform="scale(0.015625)"/>
        <path id="RobotoCondensed-Regular-30" d="M 2797 1944 
Q 2797 825 2467 381 
Q 2138 -63 1581 -63 
Q 1038 -63 703 370 
Q 369 803 359 1878 
L 359 2638 
Q 359 3753 695 4183 
Q 1031 4613 1578 4613 
Q 2131 4613 2461 4189 
Q 2791 3766 2797 2681 
L 2797 1944 
z
M 2247 2734 
Q 2247 3503 2073 3822 
Q 1900 4141 1578 4141 
Q 1266 4141 1092 3833 
Q 919 3525 913 2791 
L 913 1850 
Q 913 1088 1089 750 
Q 1266 413 1581 413 
Q 1903 413 2072 738 
Q 2241 1063 2247 1794 
L 2247 2734 
z
" transform="scale(0.015625)"/>
        <path id="RobotoCondensed-Regular-34" d="M 188 1397 
L 1878 4550 
L 2463 4550 
L 2463 1531 
L 2969 1531 
L 2969 1056 
L 2463 1056 
L 2463 0 
L 1909 0 
L 1909 1056 
L 188 1056 
L 188 1397 
z
M 803 1531 
L 1909 1531 
L 1909 3703 
L 1878 3638 
L 803 1531 
z
" transform="scale(0.015625)"/>
       </defs>
       <use xlink:href="#RobotoCondensed-Regular-32"/>
       <use xlink:href="#RobotoCondensed-Regular-30" transform="translate(49.365234 0)"/>
       <use xlink:href="#RobotoCondensed-Regular-30" transform="translate(98.730469 0)"/>
       <use xlink:href="#RobotoCondensed-Regular-34" transform="translate(148.095703 0)"/>
      </g>
     </g>
    </g>
    <g id="xtick_2">
     <g id="line2d_2">
      <g>
       <use xlink:href="#mc498c210b4" x="74.801855" y="196.73875" style="stroke: #000000; stroke-width: 0.8"/>
      </g>
     </g>
     <g id="text_2">
      <!-- 2007 -->
      <g transform="translate(68.87873 208.23875) scale(0.06 -0.06)">
       <defs>
        <path id="RobotoCondensed-Regular-37" d="M 2878 4550 
L 2878 4225 
L 1313 0 
L 731 0 
L 2297 4075 
L 269 4075 
L 269 4550 
L 2878 4550 
z
" transform="scale(0.015625)"/>
       </defs>
       <use xlink:href="#RobotoCondensed-Regular-32"/>
       <use xlink:href="#RobotoCondensed-Regular-30" transform="translate(49.365234 0)"/>
       <use xlink:href="#RobotoCondensed-Regular-30" transform="translate(98.730469 0)"/>
       <use xlink:href="#RobotoCondensed-Regular-37" transform="translate(148.095703 0)"/>
      </g>
     </g>
    </g>
    <g id="xtick_3">
     <g id="line2d_3">
      <g>
       <use xlink:href="#mc498c210b4" x="112.402855" y="196.73875" style="stroke: #000000; stroke-width: 0.8"/>
      </g>
     </g>
     <g id="text_3">
      <!-- 2010 -->
      <g transform="translate(106.47973 208.23875) scale(0.06 -0.06)">
       <defs>
        <path id="RobotoCondensed-Regular-31" d="M 2013 4575 
L 2013 0 
L 1459 0 
L 1459 3853 
L 503 3428 
L 503 3950 
L 1928 4575 
L 2013 4575 
z
" transform="scale(0.015625)"/>
       </defs>
       <use xlink:href="#RobotoCondensed-Regular-32"/>
       <use xlink:href="#RobotoCondensed-Regular-30" transform="translate(49.365234 0)"/>
       <use xlink:href="#RobotoCondensed-Regular-31" transform="translate(98.730469 0)"/>
       <use xlink:href="#RobotoCondensed-Regular-30" transform="translate(148.095703 0)"/>
      </g>
     </g>
    </g>
    <g id="xtick_4">
     <g id="line2d_4">
      <g>
       <use xlink:href="#mc498c210b4" x="150.003855" y="196.73875" style="stroke: #000000; stroke-width: 0.8"/>
      </g>
     </g>
     <g id="text_4">
      <!-- 2013 -->
      <g transform="translate(144.08073 208.23875) scale(0.06 -0.06)">
       <defs>
        <path id="RobotoCondensed-Regular-33" d="M 1075 2084 
L 1075 2559 
L 1431 2559 
Q 1788 2559 1961 2781 
Q 2134 3003 2134 3338 
Q 2134 4138 1519 4138 
Q 1228 4138 1054 3927 
Q 881 3716 881 3359 
L 331 3359 
Q 331 3881 653 4247 
Q 975 4613 1519 4613 
Q 2038 4613 2363 4286 
Q 2688 3959 2688 3325 
Q 2688 3072 2550 2786 
Q 2413 2500 2100 2338 
Q 2484 2194 2612 1886 
Q 2741 1578 2741 1269 
Q 2741 631 2389 284 
Q 2038 -63 1516 -63 
Q 1006 -63 656 267 
Q 306 597 306 1203 
L 859 1203 
Q 859 844 1032 628 
Q 1206 413 1516 413 
Q 1822 413 2005 622 
Q 2188 831 2188 1256 
Q 2188 2084 1403 2084 
L 1075 2084 
z
" transform="scale(0.015625)"/>
       </defs>
       <use xlink:href="#RobotoCondensed-Regular-32"/>
       <use xlink:href="#RobotoCondensed-Regular-30" transform="translate(49.365234 0)"/>
       <use xlink:href="#RobotoCondensed-Regular-31" transform="translate(98.730469 0)"/>
       <use xlink:href="#RobotoCondensed-Regular-33" transform="translate(148.095703 0)"/>
      </g>
     </g>
    </g>
    <g id="xtick_5">
     <g id="line2d_5">
      <g>
       <use xlink:href="#mc498c210b4" x="187.604856" y="196.73875" style="stroke: #000000; stroke-width: 0.8"/>
      </g>
     </g>
     <g id="text_5">
      <!-- 2016 -->
      <g transform="translate(181.681731 208.23875) scale(0.06 -0.06)">
       <defs>
        <path id="RobotoCondensed-Regular-36" d="M 2847 1484 
Q 2847 838 2544 387 
Q 2241 -63 1641 -63 
Q 1216 -63 944 198 
Q 672 459 542 861 
Q 413 1263 413 1684 
L 413 1956 
Q 413 2438 481 2900 
Q 550 3363 742 3738 
Q 934 4113 1296 4334 
Q 1659 4556 2291 4556 
L 2291 4066 
Q 1775 4066 1508 3859 
Q 1241 3653 1122 3318 
Q 1003 2984 978 2606 
Q 1272 2984 1750 2984 
Q 2138 2984 2380 2765 
Q 2622 2547 2734 2201 
Q 2847 1856 2847 1484 
z
M 969 1666 
Q 969 1059 1180 737 
Q 1391 416 1641 416 
Q 1959 416 2129 708 
Q 2300 1000 2300 1456 
Q 2300 1863 2144 2184 
Q 1988 2506 1659 2506 
Q 1425 2506 1236 2329 
Q 1047 2153 969 1900 
L 969 1666 
z
" transform="scale(0.015625)"/>
       </defs>
       <use xlink:href="#RobotoCondensed-Regular-32"/>
       <use xlink:href="#RobotoCondensed-Regular-30" transform="translate(49.365234 0)"/>
       <use xlink:href="#RobotoCondensed-Regular-31" transform="translate(98.730469 0)"/>
       <use xlink:href="#RobotoCondensed-Regular-36" transform="translate(148.095703 0)"/>
      </g>
     </g>
    </g>
    <g id="xtick_6">
     <g id="line2d_6">
      <g>
       <use xlink:href="#mc498c210b4" x="225.205856" y="196.73875" style="stroke: #000000; stroke-width: 0.8"/>
      </g>
     </g>
     <g id="text_6">
      <!-- 2019 -->
      <g transform="translate(219.282731 208.23875) scale(0.06 -0.06)">
       <defs>
        <path id="RobotoCondensed-Regular-39" d="M 2744 2563 
Q 2744 2119 2687 1667 
Q 2631 1216 2450 836 
Q 2269 456 1903 225 
Q 1538 -6 869 -6 
L 866 484 
Q 1428 484 1698 690 
Q 1969 897 2072 1233 
Q 2175 1569 2191 1950 
Q 1859 1522 1413 1522 
Q 1025 1522 786 1747 
Q 547 1972 436 2320 
Q 325 2669 325 3041 
Q 325 3691 623 4152 
Q 922 4613 1522 4613 
Q 1969 4613 2237 4344 
Q 2506 4075 2625 3653 
Q 2744 3231 2744 2772 
L 2744 2563 
z
M 866 3072 
Q 866 2666 1020 2334 
Q 1175 2003 1506 2003 
Q 1716 2003 1906 2179 
Q 2097 2356 2194 2616 
L 2194 2850 
Q 2194 3472 1983 3803 
Q 1772 4134 1522 4134 
Q 1206 4134 1036 3829 
Q 866 3525 866 3072 
z
" transform="scale(0.015625)"/>
       </defs>
       <use xlink:href="#RobotoCondensed-Regular-32"/>
       <use xlink:href="#RobotoCondensed-Regular-30" transform="translate(49.365234 0)"/>
       <use xlink:href="#RobotoCondensed-Regular-31" transform="translate(98.730469 0)"/>
       <use xlink:href="#RobotoCondensed-Regular-39" transform="translate(148.095703 0)"/>
      </g>
     </g>
    </g>
    <g id="xtick_7">
     <g id="line2d_7">
      <g>
       <use xlink:href="#mc498c210b4" x="262.806856" y="196.73875" style="stroke: #000000; stroke-width: 0.8"/>
      </g>
     </g>
     <g id="text_7">
      <!-- 2022 -->
      <g transform="translate(256.883731 208.23875) scale(0.06 -0.06)">
       <use xlink:href="#RobotoCondensed-Regular-32"/>
       <use xlink:href="#RobotoCondensed-Regular-30" transform="translate(49.365234 0)"/>
       <use xlink:href="#RobotoCondensed-Regular-32" transform="translate(98.730469 0)"/>
       <use xlink:href="#RobotoCondensed-Regular-32" transform="translate(148.095703 0)"/>
      </g>
     </g>
    </g>
    <g id="xtick_8">
     <g id="line2d_8">
      <g>
       <use xlink:href="#mc498c210b4" x="300.407857" y="196.73875" style="stroke: #000000; stroke-width: 0.8"/>
      </g>
     </g>
     <g id="text_8">
      <!-- 2025 -->
      <g transform="translate(294.484732 208.23875) scale(0.06 -0.06)">
       <defs>
        <path id="RobotoCondensed-Regular-35" d="M 1034 2166 
L 594 2284 
L 788 4550 
L 2769 4550 
L 2769 4016 
L 1253 4016 
L 1147 2778 
Q 1438 2975 1753 2975 
Q 2288 2975 2591 2561 
Q 2894 2147 2894 1450 
Q 2894 797 2584 367 
Q 2275 -63 1656 -63 
Q 1194 -63 850 248 
Q 506 559 453 1197 
L 975 1197 
Q 1066 413 1656 413 
Q 1978 413 2159 691 
Q 2341 969 2341 1444 
Q 2341 1872 2153 2164 
Q 1966 2456 1619 2456 
Q 1384 2456 1273 2378 
Q 1163 2300 1034 2166 
z
" transform="scale(0.015625)"/>
       </defs>
       <use xlink:href="#RobotoCondensed-Regular-32"/>
       <use xlink:href="#RobotoCondensed-Regular-30" transform="translate(49.365234 0)"/>
       <use xlink:href="#RobotoCondensed-Regular-32" transform="translate(98.730469 0)"/>
       <use xlink:href="#RobotoCondensed-Regular-35" transform="translate(148.095703 0)"/>
      </g>
     </g>
    </g>
   </g>
   <g id="matplotlib.axis_2">
    <g id="ytick_1">
     <g id="line2d_9">
      <defs>
       <path id="md1693c91c9" d="M 0 0 
L -3.5 0 
" style="stroke: #000000; stroke-width: 0.8"/>
      </defs>
      <g>
       <use xlink:href="#md1693c91c9" x="24.667188" y="185.941781" style="stroke: #000000; stroke-width: 0.8"/>
      </g>
     </g>
     <g id="text_9">
      <!-- 0.76 -->
      <g transform="translate(7.2 188.191781) scale(0.06 -0.06)">
       <defs>
        <path id="RobotoCondensed-Regular-2e" d="M 450 306 
Q 450 453 542 554 
Q 634 656 809 656 
Q 984 656 1076 554 
Q 1169 453 1169 306 
Q 1169 163 1076 62 
Q 984 -38 809 -38 
Q 634 -38 542 62 
Q 450 163 450 306 
z
" transform="scale(0.015625)"/>
       </defs>
       <use xlink:href="#RobotoCondensed-Regular-30"/>
       <use xlink:href="#RobotoCondensed-Regular-2e" transform="translate(49.365234 0)"/>
       <use xlink:href="#RobotoCondensed-Regular-37" transform="translate(75.732422 0)"/>
       <use xlink:href="#RobotoCondensed-Regular-36" transform="translate(125.097656 0)"/>
      </g>
     </g>
    </g>
    <g id="ytick_2">
     <g id="line2d_10">
      <g>
       <use xlink:href="#md1693c91c9" x="24.667188" y="160.160042" style="stroke: #000000; stroke-width: 0.8"/>
      </g>
     </g>
     <g id="text_10">
      <!-- 0.77 -->
      <g transform="translate(7.2 162.410042) scale(0.06 -0.06)">
       <use xlink:href="#RobotoCondensed-Regular-30"/>
       <use xlink:href="#RobotoCondensed-Regular-2e" transform="translate(49.365234 0)"/>
       <use xlink:href="#RobotoCondensed-Regular-37" transform="translate(75.732422 0)"/>
       <use xlink:href="#RobotoCondensed-Regular-37" transform="translate(125.097656 0)"/>
      </g>
     </g>
    </g>
    <g id="ytick_3">
     <g id="line2d_11">
      <g>
       <use xlink:href="#md1693c91c9" x="24.667188" y="134.378302" style="stroke: #000000; stroke-width: 0.8"/>
      </g>
     </g>
     <g id="text_11">
      <!-- 0.78 -->
      <g transform="translate(7.2 136.628302) scale(0.06 -0.06)">
       <defs>
        <path id="RobotoCondensed-Regular-38" d="M 2794 1231 
Q 2794 606 2445 271 
Q 2097 -63 1578 -63 
Q 1063 -63 714 273 
Q 366 609 366 1231 
Q 366 1613 536 1905 
Q 706 2197 1000 2347 
Q 450 2666 450 3366 
Q 450 3963 769 4288 
Q 1088 4613 1581 4613 
Q 2075 4613 2392 4288 
Q 2709 3963 2709 3366 
Q 2709 3028 2557 2761 
Q 2406 2494 2150 2344 
Q 2444 2194 2619 1901 
Q 2794 1609 2794 1231 
z
M 2156 3356 
Q 2156 3697 2000 3917 
Q 1844 4138 1581 4138 
Q 1319 4138 1161 3927 
Q 1003 3716 1003 3356 
Q 1003 3003 1159 2790 
Q 1316 2578 1581 2578 
Q 1844 2578 2000 2790 
Q 2156 3003 2156 3356 
z
M 2244 1244 
Q 2244 1625 2061 1865 
Q 1878 2106 1575 2106 
Q 1266 2106 1091 1865 
Q 916 1625 916 1244 
Q 916 850 1089 631 
Q 1263 413 1578 413 
Q 1897 413 2070 631 
Q 2244 850 2244 1244 
z
" transform="scale(0.015625)"/>
       </defs>
       <use xlink:href="#RobotoCondensed-Regular-30"/>
       <use xlink:href="#RobotoCondensed-Regular-2e" transform="translate(49.365234 0)"/>
       <use xlink:href="#RobotoCondensed-Regular-37" transform="translate(75.732422 0)"/>
       <use xlink:href="#RobotoCondensed-Regular-38" transform="translate(125.097656 0)"/>
      </g>
     </g>
    </g>
    <g id="ytick_4">
     <g id="line2d_12">
      <g>
       <use xlink:href="#md1693c91c9" x="24.667188" y="108.596563" style="stroke: #000000; stroke-width: 0.8"/>
      </g>
     </g>
     <g id="text_12">
      <!-- 0.79 -->
      <g transform="translate(7.2 110.846563) scale(0.06 -0.06)">
       <use xlink:href="#RobotoCondensed-Regular-30"/>
       <use xlink:href="#RobotoCondensed-Regular-2e" transform="translate(49.365234 0)"/>
       <use xlink:href="#RobotoCondensed-Regular-37" transform="translate(75.732422 0)"/>
       <use xlink:href="#RobotoCondensed-Regular-39" transform="translate(125.097656 0)"/>
      </g>
     </g>
    </g>
    <g id="ytick_5">
     <g id="line2d_13">
      <g>
       <use xlink:href="#md1693c91c9" x="24.667188" y="82.814823" style="stroke: #000000; stroke-width: 0.8"/>
      </g>
     </g>
     <g id="text_13">
      <!-- 0.80 -->
      <g transform="translate(7.2 85.064823) scale(0.06 -0.06)">
       <use xlink:href="#RobotoCondensed-Regular-30"/>
       <use xlink:href="#RobotoCondensed-Regular-2e" transform="translate(49.365234 0)"/>
       <use xlink:href="#RobotoCondensed-Regular-38" transform="translate(75.732422 0)"/>
       <use xlink:href="#RobotoCondensed-Regular-30" transform="translate(125.097656 0)"/>
      </g>
     </g>
    </g>
    <g id="ytick_6">
     <g id="line2d_14">
      <g>
       <use xlink:href="#md1693c91c9" x="24.667188" y="57.033084" style="stroke: #000000; stroke-width: 0.8"/>
      </g>
     </g>
     <g id="text_14">
      <!-- 0.81 -->
      <g transform="translate(7.2 59.283084) scale(0.06 -0.06)">
       <use xlink:href="#RobotoCondensed-Regular-30"/>
       <use xlink:href="#RobotoCondensed-Regular-2e" transform="translate(49.365234 0)"/>
       <use xlink:href="#RobotoCondensed-Regular-38" transform="translate(75.732422 0)"/>
       <use xlink:href="#RobotoCondensed-Regular-31" transform="translate(125.097656 0)"/>
      </g>
     </g>
    </g>
    <g id="ytick_7">
     <g id="line2d_15">
      <g>
       <use xlink:href="#md1693c91c9" x="24.667188" y="31.251344" style="stroke: #000000; stroke-width: 0.8"/>
      </g>
     </g>
     <g id="text_15">
      <!-- 0.82 -->
      <g transform="translate(7.2 33.501344) scale(0.06 -0.06)">
       <use xlink:href="#RobotoCondensed-Regular-30"/>
       <use xlink:href="#RobotoCondensed-Regular-2e" transform="translate(49.365234 0)"/>
       <use xlink:href="#RobotoCondensed-Regular-38" transform="translate(75.732422 0)"/>
       <use xlink:href="#RobotoCondensed-Regular-32" transform="translate(125.097656 0)"/>
      </g>
     </g>
    </g>
   </g>
   <g id="line2d_16">
    <path d="M 37.200854 106.045438 
L 40.554344 99.410025 
L 43.069461 95.013949 
L 44.746206 92.512493 
L 46.42295 90.449545 
L 48.099695 88.90662 
L 48.938067 88.35564 
L 50.614812 87.666984 
L 53.129929 86.936572 
L 56.483419 86.237734 
L 65.705515 84.567693 
L 70.735749 83.596682 
L 73.250866 83.31772 
L 75.765983 83.273427 
L 79.957845 83.468573 
L 86.664824 83.814492 
L 87.503196 83.806314 
L 88.341568 83.379867 
L 89.179941 82.412368 
L 90.018313 80.990041 
L 90.856685 79.199108 
L 92.53343 74.856321 
L 95.88692 65.541315 
L 96.725292 63.584402 
L 97.563664 61.948671 
L 98.402037 60.720346 
L 99.240409 59.985651 
L 100.078781 59.847567 
L 100.917154 60.696716 
L 101.755526 62.54636 
L 102.593898 65.235778 
L 103.432271 68.604247 
L 105.109015 76.73545 
L 108.462505 94.074695 
L 109.300877 97.696301 
L 110.13925 100.711182 
L 110.977622 102.958613 
L 111.815994 104.277875 
L 112.654367 104.497855 
L 113.492739 103.394512 
L 114.331111 101.078507 
L 115.169484 97.746221 
L 116.007856 93.594039 
L 117.684601 83.615512 
L 121.03809 62.460525 
L 121.876463 58.067774 
L 122.714835 54.426186 
L 123.553207 51.732144 
L 124.39158 50.182031 
L 125.229952 49.919779 
L 126.068324 50.438111 
L 126.906697 51.505563 
L 127.745069 53.052864 
L 128.583442 55.01074 
L 130.260186 59.881131 
L 132.775303 68.53423 
L 135.29042 77.141805 
L 136.967165 81.931266 
L 138.64391 85.592813 
L 140.320655 88.735712 
L 143.674144 94.345506 
L 146.189261 98.70985 
L 147.866006 102.050602 
L 149.542751 105.958083 
L 150.381123 108.249132 
L 151.219495 111.244998 
L 152.057868 114.914773 
L 153.734612 123.7294 
L 157.926474 147.993002 
L 159.603219 155.719343 
L 160.441591 158.611772 
L 161.279964 160.674822 
L 162.118336 161.771831 
L 162.956708 161.785206 
L 163.795081 160.788968 
L 164.633453 158.911546 
L 165.471825 156.272995 
L 166.310198 152.99337 
L 167.986942 144.991123 
L 173.017177 118.084391 
L 173.855549 114.437604 
L 174.693921 111.350298 
L 181.4009 91.260744 
L 183.077645 87.204412 
L 183.916017 85.516128 
L 184.75439 84.102459 
L 185.592762 82.999424 
L 186.431134 82.243045 
L 187.269507 81.869341 
L 188.107879 81.854293 
L 189.784624 82.162842 
L 191.461369 82.757538 
L 194.814858 84.335795 
L 197.329975 85.397509 
L 199.00672 85.82712 
L 199.845092 85.914443 
L 200.683465 85.748588 
L 201.521837 84.860743 
L 202.360209 83.317699 
L 203.198582 81.231938 
L 204.875326 75.882182 
L 209.067188 60.883858 
L 209.905561 58.505647 
L 210.743933 56.597042 
L 211.582305 55.270523 
L 212.420678 54.638571 
L 214.935795 54.641081 
L 219.127656 54.909395 
L 223.319518 55.396369 
L 225.834635 55.851815 
L 226.673008 56.305015 
L 227.51138 56.97272 
L 229.188125 58.795611 
L 231.703242 62.163521 
L 233.379987 64.376078 
L 235.056731 66.198384 
L 235.895104 66.865672 
L 236.733476 67.318371 
L 237.571848 67.517474 
L 238.410221 67.248519 
L 239.248593 66.196052 
L 240.086965 64.467233 
L 240.925338 62.181243 
L 242.602083 56.414475 
L 246.793944 40.589728 
L 247.632317 38.136885 
L 248.470689 36.199499 
L 249.309061 34.896752 
L 250.147434 34.347825 
L 250.985806 34.407928 
L 251.824179 34.660564 
L 252.662551 35.081938 
L 253.500923 35.65597 
L 255.177668 37.197679 
L 256.854413 39.15704 
L 259.36953 42.597755 
L 263.561392 48.76357 
L 264.399764 50.403879 
L 266.076509 54.414813 
L 271.106743 67.870968 
L 271.945115 69.676773 
L 272.783488 71.19408 
L 273.62186 72.361512 
L 274.460232 73.117692 
L 275.298605 73.401243 
L 276.136977 73.179032 
L 276.975349 72.474227 
L 277.813722 71.304825 
L 278.652094 69.68878 
L 279.490466 67.644043 
L 280.328839 65.188568 
L 282.005583 59.117212 
L 283.682328 51.618334 
L 285.359073 42.835553 
L 287.035818 32.912493 
L 287.87419 27.568239 
L 287.87419 27.568239 
" clip-path="url(#p3219593545)" style="fill: none; stroke-dasharray: 2,3.3; stroke-dashoffset: 0; stroke: #000000; stroke-width: 2"/>
   </g>
   <g id="line2d_17">
    <path d="M 37.200854 101.624544 
L 49.734521 99.326045 
L 62.268188 97.027545 
L 74.801855 94.729046 
L 87.335521 92.430547 
L 99.869188 90.132047 
L 112.402855 87.833548 
L 124.936522 85.535048 
L 137.470189 83.236549 
L 150.003855 80.93805 
L 162.537522 78.63955 
L 175.071189 76.341051 
L 187.604856 74.042552 
L 200.138523 71.744052 
L 212.672189 69.445553 
L 225.205856 67.147054 
L 237.739523 64.848554 
L 250.27319 62.550055 
L 262.806856 60.251556 
L 275.340523 57.953056 
L 287.87419 55.654557 
" clip-path="url(#p3219593545)" style="fill: none; stroke: #000000; stroke-opacity: 0.7; stroke-linecap: square"/>
   </g>
   <g id="line2d_18">
    <path d="M 37.200854 144.775012 
L 38.877599 143.231622 
L 40.554344 141.928801 
L 42.231088 140.860078 
L 43.907833 140.018982 
L 45.584578 139.39904 
L 47.261323 138.993782 
L 48.938067 138.796737 
L 50.614812 138.84226 
L 52.291557 139.307112 
L 53.968301 140.121966 
L 56.483419 141.767506 
L 60.67528 144.751174 
L 62.352025 145.71865 
L 66.543887 147.709319 
L 73.250866 150.817791 
L 75.765983 152.173147 
L 78.2811 153.829731 
L 84.149706 157.877247 
L 85.826451 158.784916 
L 87.503196 159.462267 
L 90.018313 160.143499 
L 94.210175 160.917022 
L 97.563664 161.611182 
L 100.078781 162.415615 
L 100.917154 162.896437 
L 101.755526 163.571048 
L 103.432271 165.363607 
L 105.947388 168.643169 
L 108.462505 171.803415 
L 110.13925 173.383855 
L 110.977622 173.912636 
L 111.815994 174.221112 
L 112.654367 174.251622 
L 113.492739 173.644462 
L 114.331111 172.369985 
L 115.169484 170.536259 
L 116.007856 168.25135 
L 117.684601 162.760257 
L 121.03809 151.118859 
L 121.876463 148.701568 
L 122.714835 146.697635 
L 123.553207 145.215129 
L 124.39158 144.362115 
L 125.229952 144.228223 
L 126.068324 144.65196 
L 126.906697 145.523119 
L 127.745069 146.783373 
L 128.583442 148.374397 
L 130.260186 152.315453 
L 132.775303 159.249668 
L 135.29042 166.01122 
L 136.967165 169.645321 
L 142.835772 179.405909 
L 144.512516 181.903998 
L 146.189261 184.039394 
L 147.866006 185.679921 
L 148.704378 186.273302 
L 149.542751 186.693399 
L 152.057868 187.355162 
L 155.411357 188.036835 
L 158.764847 188.492884 
L 162.118336 188.680553 
L 162.956708 188.661674 
L 163.795081 188.495258 
L 164.633453 188.17338 
L 165.471825 187.70747 
L 167.14857 186.389272 
L 168.825315 184.632103 
L 170.50206 182.527401 
L 173.017177 178.918749 
L 175.532294 174.937529 
L 176.370666 172.94894 
L 177.209038 170.41308 
L 178.885783 164.127862 
L 183.916017 143.273868 
L 184.75439 140.6311 
L 185.592762 138.511846 
L 186.431134 137.023182 
L 187.269507 136.272189 
L 188.107879 136.268338 
L 188.946251 136.650241 
L 189.784624 137.328309 
L 190.622996 138.252128 
L 192.299741 140.635382 
L 196.491603 147.365431 
L 197.329975 148.440483 
L 198.168347 149.30759 
L 199.00672 149.916343 
L 199.845092 150.216329 
L 200.683465 149.98127 
L 201.521837 148.65426 
L 202.360209 146.347963 
L 203.198582 143.230498 
L 204.875326 135.234533 
L 209.067188 112.81742 
L 209.905561 109.262848 
L 210.743933 106.410168 
L 211.582305 104.427499 
L 212.420678 103.482956 
L 213.25905 103.486539 
L 214.097422 103.761243 
L 214.935795 104.229216 
L 216.612539 105.611104 
L 219.127656 108.296792 
L 221.642774 110.914709 
L 223.319518 112.176118 
L 224.157891 112.561262 
L 224.996263 112.738076 
L 225.834635 112.457023 
L 226.673008 111.246076 
L 227.51138 109.221516 
L 228.349752 106.525457 
L 230.026497 99.68731 
L 234.218359 80.788847 
L 235.056731 77.836979 
L 235.895104 75.492658 
L 236.733476 73.897998 
L 237.571848 73.195116 
L 239.248593 73.278244 
L 240.925338 73.593361 
L 244.278827 74.561288 
L 247.632317 75.480573 
L 249.309061 75.734887 
L 250.985806 75.732069 
L 252.662551 75.286702 
L 254.339296 74.44873 
L 256.01604 73.315021 
L 258.531157 71.271849 
L 262.723019 67.760178 
L 265.238136 65.674258 
L 268.591626 62.478233 
L 272.783488 58.481048 
L 275.298605 56.436564 
L 279.490466 53.549505 
L 282.843956 51.47734 
L 286.197445 49.662709 
L 287.87419 48.865376 
L 287.87419 48.865376 
" clip-path="url(#p3219593545)" style="fill: none; stroke-dasharray: 12.8,3.2,2,3.2; stroke-dashoffset: 0; stroke: #000000; stroke-width: 2"/>
   </g>
   <g id="line2d_19">
    <path d="M 37.200854 183.281047 
L 49.734521 178.131063 
L 62.268188 172.981078 
L 74.801855 167.831094 
L 87.335521 162.681109 
L 99.869188 157.531125 
L 112.402855 152.38114 
L 124.936522 147.231156 
L 137.470189 142.081171 
L 150.003855 136.931187 
L 162.537522 131.781202 
L 175.071189 126.631218 
L 187.604856 121.481233 
L 200.138523 116.331249 
L 212.672189 111.181264 
L 225.205856 106.03128 
L 237.739523 100.881295 
L 250.27319 95.731311 
L 262.806856 90.581326 
L 275.340523 85.431342 
L 287.87419 80.281357 
" clip-path="url(#p3219593545)" style="fill: none; stroke: #000000; stroke-opacity: 0.7; stroke-linecap: square"/>
   </g>
   <g id="text_16">
    <!-- Berger-Parker (100) -->
    <g transform="translate(130.114397 13.5125) scale(0.08 -0.08)">
     <defs>
      <path id="RobotoCondensed-Bold-42" d="M 3294 1341 
Q 3294 675 2942 339 
Q 2591 3 1884 0 
L 366 0 
L 366 4550 
L 1772 4550 
Q 2453 4550 2839 4245 
Q 3225 3941 3225 3303 
Q 3225 2994 3089 2734 
Q 2953 2475 2653 2344 
Q 3003 2244 3148 1956 
Q 3294 1669 3294 1341 
z
M 1288 3784 
L 1288 2647 
L 1763 2647 
Q 2303 2647 2303 3206 
Q 2303 3772 1794 3784 
L 1288 3784 
z
M 2375 1350 
Q 2375 1963 1941 1981 
L 1288 1981 
L 1288 763 
L 1872 763 
Q 2141 763 2258 930 
Q 2375 1097 2375 1350 
z
" transform="scale(0.015625)"/>
      <path id="RobotoCondensed-Bold-65" d="M 2834 444 
Q 2700 263 2411 100 
Q 2122 -63 1688 -63 
Q 997 -63 620 350 
Q 244 763 244 1497 
L 244 1775 
Q 244 2597 601 3020 
Q 959 3444 1596 3444 
Q 2234 3444 2556 3041 
Q 2878 2638 2884 1831 
L 2884 1397 
L 1131 1397 
Q 1147 994 1305 833 
Q 1463 672 1747 672 
Q 2194 672 2484 978 
L 2834 444 
z
M 1594 2709 
Q 1363 2709 1258 2545 
Q 1153 2381 1134 2016 
L 2019 2016 
L 2019 2094 
Q 2013 2400 1919 2554 
Q 1825 2709 1594 2709 
z
" transform="scale(0.015625)"/>
      <path id="RobotoCondensed-Bold-72" d="M 1700 2553 
Q 1331 2553 1206 2238 
L 1206 0 
L 322 0 
L 322 3381 
L 1156 3381 
L 1181 3016 
Q 1394 3444 1759 3444 
Q 1903 3444 2000 3406 
L 1991 2528 
Q 1834 2553 1700 2553 
z
" transform="scale(0.015625)"/>
      <path id="RobotoCondensed-Bold-67" d="M 1494 -1331 
Q 1259 -1331 945 -1232 
Q 631 -1134 453 -941 
L 750 -328 
Q 872 -450 1067 -536 
Q 1263 -622 1456 -622 
Q 1725 -622 1869 -489 
Q 2013 -356 2013 -3 
L 2013 269 
Q 1756 -63 1353 -63 
Q 819 -63 517 357 
Q 216 778 216 1572 
L 216 1794 
Q 216 2625 517 3034 
Q 819 3444 1359 3444 
Q 1819 3444 2066 3084 
L 2100 3381 
L 2900 3381 
L 2900 0 
Q 2900 -697 2512 -1014 
Q 2125 -1331 1494 -1331 
z
M 1100 1572 
Q 1100 678 1609 678 
Q 1881 678 2013 875 
L 2013 2494 
Q 1878 2706 1615 2706 
Q 1353 2706 1226 2490 
Q 1100 2275 1100 1794 
L 1100 1572 
z
" transform="scale(0.015625)"/>
      <path id="RobotoCondensed-Bold-2d" d="M 1913 2319 
L 1913 1584 
L 384 1584 
L 384 2319 
L 1913 2319 
z
" transform="scale(0.015625)"/>
      <path id="RobotoCondensed-Bold-50" d="M 1288 1600 
L 1288 0 
L 366 0 
L 366 4550 
L 1919 4550 
Q 2606 4550 3001 4123 
Q 3397 3697 3397 3044 
Q 3397 2384 3005 1993 
Q 2613 1603 1928 1600 
L 1288 1600 
z
M 1288 3784 
L 1288 2366 
L 1919 2366 
Q 2206 2366 2336 2555 
Q 2466 2744 2466 3037 
Q 2466 3331 2336 3557 
Q 2206 3784 1919 3784 
L 1288 3784 
z
" transform="scale(0.015625)"/>
      <path id="RobotoCondensed-Bold-61" d="M 1928 0 
Q 1881 106 1853 263 
Q 1613 -63 1209 -63 
Q 800 -63 514 212 
Q 228 488 228 947 
Q 228 1463 559 1764 
Q 891 2066 1572 2066 
L 1809 2066 
L 1809 2338 
Q 1809 2753 1503 2753 
Q 1172 2753 1172 2366 
L 288 2366 
Q 288 2809 623 3126 
Q 959 3444 1528 3444 
Q 2031 3444 2364 3181 
Q 2697 2919 2697 2325 
L 2697 738 
Q 2703 288 2819 53 
L 2819 0 
L 1928 0 
z
M 1409 634 
Q 1553 634 1656 693 
Q 1759 753 1809 834 
L 1809 1538 
L 1600 1538 
Q 1350 1538 1231 1384 
Q 1113 1231 1113 1009 
Q 1113 634 1409 634 
z
" transform="scale(0.015625)"/>
      <path id="RobotoCondensed-Bold-6b" d="M 2063 0 
L 1447 1309 
L 1206 1041 
L 1206 0 
L 322 0 
L 322 4803 
L 1206 4803 
L 1206 2209 
L 1316 2369 
L 1931 3381 
L 2984 3381 
L 2003 1991 
L 3075 0 
L 2063 0 
z
" transform="scale(0.015625)"/>
      <path id="RobotoCondensed-Bold-20" transform="scale(0.015625)"/>
      <path id="RobotoCondensed-Bold-28" d="M 378 1850 
Q 378 2731 592 3390 
Q 806 4050 1118 4472 
Q 1431 4894 1728 5050 
L 1894 4559 
Q 1619 4300 1372 3661 
Q 1125 3022 1119 1919 
L 1119 1772 
Q 1119 628 1367 -23 
Q 1616 -675 1894 -941 
L 1728 -1422 
Q 1431 -1266 1118 -845 
Q 806 -425 592 236 
Q 378 897 378 1850 
z
" transform="scale(0.015625)"/>
      <path id="RobotoCondensed-Bold-31" d="M 2244 4556 
L 2244 0 
L 1359 0 
L 1359 3475 
L 494 3144 
L 494 3881 
L 2150 4556 
L 2244 4556 
z
" transform="scale(0.015625)"/>
      <path id="RobotoCondensed-Bold-30" d="M 2941 1881 
Q 2941 859 2572 398 
Q 2203 -63 1622 -63 
Q 1044 -63 673 392 
Q 303 847 297 1847 
L 297 2675 
Q 297 3700 665 4156 
Q 1034 4613 1619 4613 
Q 2194 4613 2562 4166 
Q 2931 3719 2941 2731 
L 2941 1881 
z
M 2056 2803 
Q 2056 3403 1937 3640 
Q 1819 3878 1619 3878 
Q 1422 3878 1303 3647 
Q 1184 3416 1181 2838 
L 1181 1763 
Q 1181 1156 1300 914 
Q 1419 672 1622 672 
Q 1822 672 1937 908 
Q 2053 1144 2056 1728 
L 2056 2803 
z
" transform="scale(0.015625)"/>
      <path id="RobotoCondensed-Bold-29" d="M 1741 1778 
Q 1741 931 1520 265 
Q 1300 -400 975 -833 
Q 650 -1266 341 -1422 
L 175 -941 
Q 447 -681 695 -37 
Q 944 606 950 1709 
L 950 1856 
Q 950 3000 695 3653 
Q 441 4306 175 4569 
L 341 5050 
Q 650 4894 975 4459 
Q 1300 4025 1520 3364 
Q 1741 2703 1741 1778 
z
" transform="scale(0.015625)"/>
     </defs>
     <use xlink:href="#RobotoCondensed-Bold-42"/>
     <use xlink:href="#RobotoCondensed-Bold-65" transform="translate(56.152344 0)"/>
     <use xlink:href="#RobotoCondensed-Bold-72" transform="translate(104.052734 0)"/>
     <use xlink:href="#RobotoCondensed-Bold-67" transform="translate(137.207031 0)"/>
     <use xlink:href="#RobotoCondensed-Bold-65" transform="translate(187.548828 0)"/>
     <use xlink:href="#RobotoCondensed-Bold-72" transform="translate(235.449219 0)"/>
     <use xlink:href="#RobotoCondensed-Bold-2d" transform="translate(268.603516 0)"/>
     <use xlink:href="#RobotoCondensed-Bold-50" transform="translate(304.931641 0)"/>
     <use xlink:href="#RobotoCondensed-Bold-61" transform="translate(361.816406 0)"/>
     <use xlink:href="#RobotoCondensed-Bold-72" transform="translate(408.935547 0)"/>
     <use xlink:href="#RobotoCondensed-Bold-6b" transform="translate(442.089844 0)"/>
     <use xlink:href="#RobotoCondensed-Bold-65" transform="translate(489.941406 0)"/>
     <use xlink:href="#RobotoCondensed-Bold-72" transform="translate(537.841797 0)"/>
     <use xlink:href="#RobotoCondensed-Bold-20" transform="translate(570.996094 0)"/>
     <use xlink:href="#RobotoCondensed-Bold-28" transform="translate(594.042969 0)"/>
     <use xlink:href="#RobotoCondensed-Bold-31" transform="translate(626.367188 0)"/>
     <use xlink:href="#RobotoCondensed-Bold-30" transform="translate(676.953125 0)"/>
     <use xlink:href="#RobotoCondensed-Bold-30" transform="translate(727.539062 0)"/>
     <use xlink:href="#RobotoCondensed-Bold-29" transform="translate(778.125 0)"/>
    </g>
   </g>
   <g id="PathCollection_1">
    <defs>
     <path id="C0_0_218faa1a13" d="M -0 4.242641 
L 4.242641 -0 
L 0 -4.242641 
L -4.242641 -0 
z
"/>
    </defs>
    <g clip-path="url(#p3219593545)">
     <use xlink:href="#C0_0_218faa1a13" x="37.200854" y="106.045438" style="fill: none; stroke: #000000"/>
    </g>
    <g clip-path="url(#p3219593545)">
     <use xlink:href="#C0_0_218faa1a13" x="49.734521" y="87.980782" style="fill: none; stroke: #000000"/>
    </g>
    <g clip-path="url(#p3219593545)">
     <use xlink:href="#C0_0_218faa1a13" x="62.268188" y="85.270784" style="fill: none; stroke: #000000"/>
    </g>
    <g clip-path="url(#p3219593545)">
     <use xlink:href="#C0_0_218faa1a13" x="74.801855" y="83.26408" style="fill: none; stroke: #000000"/>
    </g>
    <g clip-path="url(#p3219593545)">
     <use xlink:href="#C0_0_218faa1a13" x="87.335521" y="83.819089" style="fill: none; stroke: #000000"/>
    </g>
    <g clip-path="url(#p3219593545)">
     <use xlink:href="#C0_0_218faa1a13" x="99.869188" y="59.810442" style="fill: none; stroke: #000000"/>
    </g>
    <g clip-path="url(#p3219593545)">
     <use xlink:href="#C0_0_218faa1a13" x="112.402855" y="104.563029" style="fill: none; stroke: #000000"/>
    </g>
    <g clip-path="url(#p3219593545)">
     <use xlink:href="#C0_0_218faa1a13" x="124.936522" y="49.880913" style="fill: none; stroke: #000000"/>
    </g>
    <g clip-path="url(#p3219593545)">
     <use xlink:href="#C0_0_218faa1a13" x="137.470189" y="83.119212" style="fill: none; stroke: #000000"/>
    </g>
    <g clip-path="url(#p3219593545)">
     <use xlink:href="#C0_0_218faa1a13" x="150.003855" y="107.157268" style="fill: none; stroke: #000000"/>
    </g>
    <g clip-path="url(#p3219593545)">
     <use xlink:href="#C0_0_218faa1a13" x="162.537522" y="161.915363" style="fill: none; stroke: #000000"/>
    </g>
    <g clip-path="url(#p3219593545)">
     <use xlink:href="#C0_0_218faa1a13" x="175.071189" y="110.175529" style="fill: none; stroke: #000000"/>
    </g>
    <g clip-path="url(#p3219593545)">
     <use xlink:href="#C0_0_218faa1a13" x="187.604856" y="81.835077" style="fill: none; stroke: #000000"/>
    </g>
    <g clip-path="url(#p3219593545)">
     <use xlink:href="#C0_0_218faa1a13" x="200.138523" y="85.921057" style="fill: none; stroke: #000000"/>
    </g>
    <g clip-path="url(#p3219593545)">
     <use xlink:href="#C0_0_218faa1a13" x="212.672189" y="54.601242" style="fill: none; stroke: #000000"/>
    </g>
    <g clip-path="url(#p3219593545)">
     <use xlink:href="#C0_0_218faa1a13" x="225.205856" y="55.67615" style="fill: none; stroke: #000000"/>
    </g>
    <g clip-path="url(#p3219593545)">
     <use xlink:href="#C0_0_218faa1a13" x="237.739523" y="67.52343" style="fill: none; stroke: #000000"/>
    </g>
    <g clip-path="url(#p3219593545)">
     <use xlink:href="#C0_0_218faa1a13" x="250.27319" y="34.33787" style="fill: none; stroke: #000000"/>
    </g>
    <g clip-path="url(#p3219593545)">
     <use xlink:href="#C0_0_218faa1a13" x="262.806856" y="47.563651" style="fill: none; stroke: #000000"/>
    </g>
    <g clip-path="url(#p3219593545)">
     <use xlink:href="#C0_0_218faa1a13" x="275.340523" y="73.401913" style="fill: none; stroke: #000000"/>
    </g>
    <g clip-path="url(#p3219593545)">
     <use xlink:href="#C0_0_218faa1a13" x="287.87419" y="27.568239" style="fill: none; stroke: #000000"/>
    </g>
   </g>
   <g id="PathCollection_2">
    <defs>
     <path id="m2360e91c98" d="M 0 3 
C 0.795609 3 1.55874 2.683901 2.12132 2.12132 
C 2.683901 1.55874 3 0.795609 3 0 
C 3 -0.795609 2.683901 -1.55874 2.12132 -2.12132 
C 1.55874 -2.683901 0.795609 -3 0 -3 
C -0.795609 -3 -1.55874 -2.683901 -2.12132 -2.12132 
C -2.683901 -1.55874 -3 -0.795609 -3 0 
C -3 0.795609 -2.683901 1.55874 -2.12132 2.12132 
C -1.55874 2.683901 -0.795609 3 0 3 
z
" style="stroke: #000000"/>
    </defs>
    <g clip-path="url(#p3219593545)">
     <use xlink:href="#m2360e91c98" x="37.200854" y="144.775012" style="stroke: #000000"/>
     <use xlink:href="#m2360e91c98" x="49.734521" y="138.774209" style="stroke: #000000"/>
     <use xlink:href="#m2360e91c98" x="62.268188" y="145.675988" style="stroke: #000000"/>
     <use xlink:href="#m2360e91c98" x="74.801855" y="151.623367" style="stroke: #000000"/>
     <use xlink:href="#m2360e91c98" x="87.335521" y="159.40619" style="stroke: #000000"/>
     <use xlink:href="#m2360e91c98" x="99.869188" y="162.329732" style="stroke: #000000"/>
     <use xlink:href="#m2360e91c98" x="112.402855" y="174.287487" style="stroke: #000000"/>
     <use xlink:href="#m2360e91c98" x="124.936522" y="144.196413" style="stroke: #000000"/>
     <use xlink:href="#m2360e91c98" x="137.470189" y="170.514347" style="stroke: #000000"/>
     <use xlink:href="#m2360e91c98" x="150.003855" y="186.844604" style="stroke: #000000"/>
     <use xlink:href="#m2360e91c98" x="162.537522" y="188.683011" style="stroke: #000000"/>
     <use xlink:href="#m2360e91c98" x="175.071189" y="175.759183" style="stroke: #000000"/>
     <use xlink:href="#m2360e91c98" x="187.604856" y="136.202325" style="stroke: #000000"/>
     <use xlink:href="#m2360e91c98" x="200.138523" y="150.239049" style="stroke: #000000"/>
     <use xlink:href="#m2360e91c98" x="212.672189" y="103.427162" style="stroke: #000000"/>
     <use xlink:href="#m2360e91c98" x="225.205856" y="112.745807" style="stroke: #000000"/>
     <use xlink:href="#m2360e91c98" x="237.739523" y="73.17406" style="stroke: #000000"/>
     <use xlink:href="#m2360e91c98" x="250.27319" y="75.778753" style="stroke: #000000"/>
     <use xlink:href="#m2360e91c98" x="262.806856" y="67.696924" style="stroke: #000000"/>
     <use xlink:href="#m2360e91c98" x="275.340523" y="56.406251" style="stroke: #000000"/>
     <use xlink:href="#m2360e91c98" x="287.87419" y="48.865376" style="stroke: #000000"/>
    </g>
   </g>
   <g id="legend_1">
    <g id="patch_3">
     <path d="M 27.667188 41.811875 
L 63.790938 41.811875 
L 63.790938 22.5125 
L 27.667188 22.5125 
z
" style="fill: #ffffff; opacity: 0.8"/>
    </g>
    <g id="line2d_20">
     <path d="M 30.067188 27.3125 
L 37.567188 27.3125 
L 45.067188 27.3125 
" style="fill: none; stroke-dasharray: 2,3.3; stroke-dashoffset: 0; stroke: #000000; stroke-width: 2"/>
     <defs>
      <path id="m6a8e3a0a17" d="M -0 4.242641 
L 4.242641 0 
L 0 -4.242641 
L -4.242641 -0 
z
" style="stroke: #000000; stroke-linejoin: miter"/>
     </defs>
     <g>
      <use xlink:href="#m6a8e3a0a17" x="37.567188" y="27.3125" style="fill-opacity: 0; stroke: #000000; stroke-linejoin: miter"/>
     </g>
    </g>
    <g id="text_17">
     <!-- Boys -->
     <g transform="translate(49.867188 29.4125) scale(0.06 -0.06)">
      <defs>
       <path id="RobotoCondensed-Regular-42" d="M 3125 1313 
Q 3125 675 2776 337 
Q 2428 0 1847 0 
L 491 0 
L 491 4550 
L 1791 4550 
Q 2375 4550 2706 4261 
Q 3038 3972 3038 3338 
Q 3038 3025 2880 2779 
Q 2722 2534 2453 2400 
Q 2781 2297 2953 1998 
Q 3125 1700 3125 1313 
z
M 1066 4056 
L 1066 2613 
L 1797 2613 
Q 2088 2613 2275 2806 
Q 2463 3000 2463 3344 
Q 2463 4041 1819 4056 
L 1066 4056 
z
M 2550 1306 
Q 2550 2106 1906 2128 
L 1066 2128 
L 1066 491 
L 1847 491 
Q 2181 491 2365 711 
Q 2550 931 2550 1306 
z
" transform="scale(0.015625)"/>
       <path id="RobotoCondensed-Regular-6f" d="M 300 1850 
Q 300 2641 678 3042 
Q 1056 3444 1603 3444 
Q 2156 3444 2536 3042 
Q 2916 2641 2916 1850 
L 2916 1528 
Q 2916 738 2536 337 
Q 2156 -63 1609 -63 
Q 1059 -63 679 337 
Q 300 738 300 1528 
L 300 1850 
z
M 853 1528 
Q 853 969 1068 689 
Q 1284 409 1609 409 
Q 2341 409 2363 1466 
L 2363 1850 
Q 2363 2403 2145 2686 
Q 1928 2969 1603 2969 
Q 1281 2969 1067 2686 
Q 853 2403 853 1850 
L 853 1528 
z
" transform="scale(0.015625)"/>
       <path id="RobotoCondensed-Regular-79" d="M 1425 -522 
Q 1153 -1366 563 -1366 
Q 409 -1366 278 -1316 
L 278 -847 
Q 328 -859 397 -859 
Q 631 -859 770 -746 
Q 909 -634 997 -338 
L 1106 31 
L 109 3381 
L 713 3381 
L 1341 922 
L 1953 3381 
L 2541 3381 
L 1425 -522 
z
" transform="scale(0.015625)"/>
       <path id="RobotoCondensed-Regular-73" d="M 2056 866 
Q 2056 1059 1907 1190 
Q 1759 1322 1340 1500 
Q 922 1678 681 1863 
Q 409 2072 409 2484 
Q 409 2888 703 3166 
Q 997 3444 1481 3444 
Q 2000 3444 2287 3150 
Q 2575 2856 2575 2419 
L 2025 2419 
Q 2025 2628 1884 2798 
Q 1744 2969 1481 2969 
Q 1203 2969 1083 2828 
Q 963 2688 963 2503 
Q 963 2319 1081 2217 
Q 1200 2116 1553 1959 
Q 2066 1756 2337 1537 
Q 2609 1319 2609 909 
Q 2609 463 2303 200 
Q 1997 -63 1494 -63 
Q 919 -63 616 265 
Q 313 594 313 1013 
L 866 1013 
Q 881 653 1081 533 
Q 1281 413 1494 413 
Q 2056 413 2056 866 
z
" transform="scale(0.015625)"/>
      </defs>
      <use xlink:href="#RobotoCondensed-Regular-42"/>
      <use xlink:href="#RobotoCondensed-Regular-6f" transform="translate(54.589844 0)"/>
      <use xlink:href="#RobotoCondensed-Regular-79" transform="translate(104.785156 0)"/>
      <use xlink:href="#RobotoCondensed-Regular-73" transform="translate(146.435547 0)"/>
     </g>
    </g>
    <g id="line2d_21">
     <path d="M 30.067188 36.093125 
L 37.567188 36.093125 
L 45.067188 36.093125 
" style="fill: none; stroke-dasharray: 12.8,3.2,2,3.2; stroke-dashoffset: 0; stroke: #000000; stroke-width: 2"/>
     <g>
      <use xlink:href="#m2360e91c98" x="37.567188" y="36.093125" style="stroke: #000000"/>
     </g>
    </g>
    <g id="text_18">
     <!-- Girls -->
     <g transform="translate(49.867188 38.193125) scale(0.06 -0.06)">
      <defs>
       <path id="RobotoCondensed-Regular-47" d="M 3341 2266 
L 3341 569 
Q 3266 469 3114 319 
Q 2963 169 2691 53 
Q 2419 -63 1978 -63 
Q 1272 -63 830 412 
Q 388 888 388 1850 
L 388 2703 
Q 388 3656 770 4134 
Q 1153 4613 1919 4613 
Q 2581 4613 2943 4244 
Q 3306 3875 3341 3219 
L 2766 3219 
Q 2731 3641 2529 3880 
Q 2328 4119 1919 4119 
Q 1400 4119 1183 3773 
Q 966 3428 963 2731 
L 963 1850 
Q 963 1125 1239 776 
Q 1516 428 1981 428 
Q 2378 428 2537 547 
Q 2697 666 2769 728 
L 2769 1778 
L 1934 1778 
L 1934 2266 
L 3341 2266 
z
" transform="scale(0.015625)"/>
       <path id="RobotoCondensed-Regular-69" d="M 428 4278 
Q 428 4419 506 4516 
Q 584 4613 741 4613 
Q 894 4613 975 4516 
Q 1056 4419 1056 4278 
Q 1056 4144 975 4048 
Q 894 3953 741 3953 
Q 584 3953 506 4048 
Q 428 4144 428 4278 
z
M 1009 3381 
L 1009 0 
L 459 0 
L 459 3381 
L 1009 3381 
z
" transform="scale(0.015625)"/>
       <path id="RobotoCondensed-Regular-72" d="M 1563 2888 
Q 1138 2888 969 2425 
L 969 0 
L 416 0 
L 416 3381 
L 950 3381 
L 963 3041 
Q 1184 3444 1591 3444 
Q 1738 3444 1809 3400 
L 1813 2863 
Q 1691 2888 1563 2888 
z
" transform="scale(0.015625)"/>
       <path id="RobotoCondensed-Regular-6c" d="M 1009 4800 
L 1009 0 
L 459 0 
L 459 4800 
L 1009 4800 
z
" transform="scale(0.015625)"/>
      </defs>
      <use xlink:href="#RobotoCondensed-Regular-47"/>
      <use xlink:href="#RobotoCondensed-Regular-69" transform="translate(59.082031 0)"/>
      <use xlink:href="#RobotoCondensed-Regular-72" transform="translate(82.03125 0)"/>
      <use xlink:href="#RobotoCondensed-Regular-6c" transform="translate(112.5 0)"/>
      <use xlink:href="#RobotoCondensed-Regular-73" transform="translate(135.449219 0)"/>
     </g>
    </g>
   </g>
  </g>
 </g>
 <defs>
  <clipPath id="p3219593545">
   <rect x="24.667188" y="19.5125" width="275.740669" height="177.22625"/>
  </clipPath>
 </defs>
</svg>
