<?xml version="1.0" encoding="utf-8" standalone="no"?>
<!DOCTYPE svg PUBLIC "-//W3C//DTD SVG 1.1//EN"
  "http://www.w3.org/Graphics/SVG/1.1/DTD/svg11.dtd">
<svg xmlns:xlink="http://www.w3.org/1999/xlink" width="314.141607pt" height="217.083125pt" viewBox="0 0 314.141607 217.083125" xmlns="http://www.w3.org/2000/svg" version="1.1">
 <metadata>
  <rdf:RDF xmlns:dc="http://purl.org/dc/elements/1.1/" xmlns:cc="http://creativecommons.org/ns#" xmlns:rdf="http://www.w3.org/1999/02/22-rdf-syntax-ns#">
   <cc:Work>
    <dc:type rdf:resource="http://purl.org/dc/dcmitype/StillImage"/>
    <dc:date>2026-04-28T10:06:39.900963</dc:date>
    <dc:format>image/svg+xml</dc:format>
    <dc:creator>
     <cc:Agent>
      <dc:title>Matplotlib v3.10.7, https://matplotlib.org/</dc:title>
     </cc:Agent>
    </dc:creator>
   </cc:Work>
  </rdf:RDF>
 </metadata>
 <defs>
  <style type="text/css">*{stroke-linejoin: round; stroke-linecap: butt}</style>
 </defs>
 <g id="figure_1">
  <g id="patch_1">
   <path d="M 0 217.083125 
L 314.141607 217.083125 
L 314.141607 0 
L 0 0 
z
" style="fill: #ffffff"/>
  </g>
  <g id="axes_1">
   <g id="patch_2">
    <path d="M 35.442813 182.68 
L 301.018482 182.68 
L 301.018482 7.2 
L 35.442813 7.2 
z
" style="fill: #ffffff"/>
   </g>
   <g id="matplotlib.axis_1">
    <g id="xtick_1">
     <g id="line2d_1">
      <defs>
       <path id="m8e1428895a" d="M 0 0 
L 0 3.5 
" style="stroke: #000000; stroke-width: 0.8"/>
      </defs>
      <g>
       <use xlink:href="#m8e1428895a" x="47.514434" y="182.68" style="stroke: #000000; stroke-width: 0.8"/>
      </g>
     </g>
     <g id="text_1">
      <!-- 1989 -->
      <g transform="translate(41.591309 194.18) scale(0.06 -0.06)">
       <defs>
        <path id="RobotoCondensed-Regular-31" d="M 2013 4575 
L 2013 0 
L 1459 0 
L 1459 3853 
L 503 3428 
L 503 3950 
L 1928 4575 
L 2013 4575 
z
" transform="scale(0.015625)"/>
        <path id="RobotoCondensed-Regular-39" d="M 2744 2563 
Q 2744 2119 2687 1667 
Q 2631 1216 2450 836 
Q 2269 456 1903 225 
Q 1538 -6 869 -6 
L 866 484 
Q 1428 484 1698 690 
Q 1969 897 2072 1233 
Q 2175 1569 2191 1950 
Q 1859 1522 1413 1522 
Q 1025 1522 786 1747 
Q 547 1972 436 2320 
Q 325 2669 325 3041 
Q 325 3691 623 4152 
Q 922 4613 1522 4613 
Q 1969 4613 2237 4344 
Q 2506 4075 2625 3653 
Q 2744 3231 2744 2772 
L 2744 2563 
z
M 866 3072 
Q 866 2666 1020 2334 
Q 1175 2003 1506 2003 
Q 1716 2003 1906 2179 
Q 2097 2356 2194 2616 
L 2194 2850 
Q 2194 3472 1983 3803 
Q 1772 4134 1522 4134 
Q 1206 4134 1036 3829 
Q 866 3525 866 3072 
z
" transform="scale(0.015625)"/>
        <path id="RobotoCondensed-Regular-38" d="M 2794 1231 
Q 2794 606 2445 271 
Q 2097 -63 1578 -63 
Q 1063 -63 714 273 
Q 366 609 366 1231 
Q 366 1613 536 1905 
Q 706 2197 1000 2347 
Q 450 2666 450 3366 
Q 450 3963 769 4288 
Q 1088 4613 1581 4613 
Q 2075 4613 2392 4288 
Q 2709 3963 2709 3366 
Q 2709 3028 2557 2761 
Q 2406 2494 2150 2344 
Q 2444 2194 2619 1901 
Q 2794 1609 2794 1231 
z
M 2156 3356 
Q 2156 3697 2000 3917 
Q 1844 4138 1581 4138 
Q 1319 4138 1161 3927 
Q 1003 3716 1003 3356 
Q 1003 3003 1159 2790 
Q 1316 2578 1581 2578 
Q 1844 2578 2000 2790 
Q 2156 3003 2156 3356 
z
M 2244 1244 
Q 2244 1625 2061 1865 
Q 1878 2106 1575 2106 
Q 1266 2106 1091 1865 
Q 916 1625 916 1244 
Q 916 850 1089 631 
Q 1263 413 1578 413 
Q 1897 413 2070 631 
Q 2244 850 2244 1244 
z
" transform="scale(0.015625)"/>
       </defs>
       <use xlink:href="#RobotoCondensed-Regular-31"/>
       <use xlink:href="#RobotoCondensed-Regular-39" transform="translate(49.365234 0)"/>
       <use xlink:href="#RobotoCondensed-Regular-38" transform="translate(98.730469 0)"/>
       <use xlink:href="#RobotoCondensed-Regular-39" transform="translate(148.095703 0)"/>
      </g>
     </g>
    </g>
    <g id="xtick_2">
     <g id="line2d_2">
      <g>
       <use xlink:href="#m8e1428895a" x="83.729298" y="182.68" style="stroke: #000000; stroke-width: 0.8"/>
      </g>
     </g>
     <g id="text_2">
      <!-- 1992 -->
      <g transform="translate(77.806173 194.18) scale(0.06 -0.06)">
       <defs>
        <path id="RobotoCondensed-Regular-32" d="M 2909 475 
L 2909 0 
L 366 0 
L 366 416 
L 1628 2088 
Q 1966 2541 2077 2802 
Q 2188 3063 2188 3328 
Q 2188 3663 2027 3900 
Q 1866 4138 1575 4138 
Q 1194 4138 1022 3878 
Q 850 3619 850 3213 
L 297 3213 
Q 297 3788 617 4200 
Q 938 4613 1575 4613 
Q 2125 4613 2433 4278 
Q 2741 3944 2741 3397 
Q 2741 2997 2541 2594 
Q 2341 2191 2047 1809 
L 1028 475 
L 2909 475 
z
" transform="scale(0.015625)"/>
       </defs>
       <use xlink:href="#RobotoCondensed-Regular-31"/>
       <use xlink:href="#RobotoCondensed-Regular-39" transform="translate(49.365234 0)"/>
       <use xlink:href="#RobotoCondensed-Regular-39" transform="translate(98.730469 0)"/>
       <use xlink:href="#RobotoCondensed-Regular-32" transform="translate(148.095703 0)"/>
      </g>
     </g>
    </g>
    <g id="xtick_3">
     <g id="line2d_3">
      <g>
       <use xlink:href="#m8e1428895a" x="119.944162" y="182.68" style="stroke: #000000; stroke-width: 0.8"/>
      </g>
     </g>
     <g id="text_3">
      <!-- 1995 -->
      <g transform="translate(114.021037 194.18) scale(0.06 -0.06)">
       <defs>
        <path id="RobotoCondensed-Regular-35" d="M 1034 2166 
L 594 2284 
L 788 4550 
L 2769 4550 
L 2769 4016 
L 1253 4016 
L 1147 2778 
Q 1438 2975 1753 2975 
Q 2288 2975 2591 2561 
Q 2894 2147 2894 1450 
Q 2894 797 2584 367 
Q 2275 -63 1656 -63 
Q 1194 -63 850 248 
Q 506 559 453 1197 
L 975 1197 
Q 1066 413 1656 413 
Q 1978 413 2159 691 
Q 2341 969 2341 1444 
Q 2341 1872 2153 2164 
Q 1966 2456 1619 2456 
Q 1384 2456 1273 2378 
Q 1163 2300 1034 2166 
z
" transform="scale(0.015625)"/>
       </defs>
       <use xlink:href="#RobotoCondensed-Regular-31"/>
       <use xlink:href="#RobotoCondensed-Regular-39" transform="translate(49.365234 0)"/>
       <use xlink:href="#RobotoCondensed-Regular-39" transform="translate(98.730469 0)"/>
       <use xlink:href="#RobotoCondensed-Regular-35" transform="translate(148.095703 0)"/>
      </g>
     </g>
    </g>
    <g id="xtick_4">
     <g id="line2d_4">
      <g>
       <use xlink:href="#m8e1428895a" x="156.159026" y="182.68" style="stroke: #000000; stroke-width: 0.8"/>
      </g>
     </g>
     <g id="text_4">
      <!-- 1998 -->
      <g transform="translate(150.235901 194.18) scale(0.06 -0.06)">
       <use xlink:href="#RobotoCondensed-Regular-31"/>
       <use xlink:href="#RobotoCondensed-Regular-39" transform="translate(49.365234 0)"/>
       <use xlink:href="#RobotoCondensed-Regular-39" transform="translate(98.730469 0)"/>
       <use xlink:href="#RobotoCondensed-Regular-38" transform="translate(148.095703 0)"/>
      </g>
     </g>
    </g>
    <g id="xtick_5">
     <g id="line2d_5">
      <g>
       <use xlink:href="#m8e1428895a" x="192.37389" y="182.68" style="stroke: #000000; stroke-width: 0.8"/>
      </g>
     </g>
     <g id="text_5">
      <!-- 2001 -->
      <g transform="translate(186.450765 194.18) scale(0.06 -0.06)">
       <defs>
        <path id="RobotoCondensed-Regular-30" d="M 2797 1944 
Q 2797 825 2467 381 
Q 2138 -63 1581 -63 
Q 1038 -63 703 370 
Q 369 803 359 1878 
L 359 2638 
Q 359 3753 695 4183 
Q 1031 4613 1578 4613 
Q 2131 4613 2461 4189 
Q 2791 3766 2797 2681 
L 2797 1944 
z
M 2247 2734 
Q 2247 3503 2073 3822 
Q 1900 4141 1578 4141 
Q 1266 4141 1092 3833 
Q 919 3525 913 2791 
L 913 1850 
Q 913 1088 1089 750 
Q 1266 413 1581 413 
Q 1903 413 2072 738 
Q 2241 1063 2247 1794 
L 2247 2734 
z
" transform="scale(0.015625)"/>
       </defs>
       <use xlink:href="#RobotoCondensed-Regular-32"/>
       <use xlink:href="#RobotoCondensed-Regular-30" transform="translate(49.365234 0)"/>
       <use xlink:href="#RobotoCondensed-Regular-30" transform="translate(98.730469 0)"/>
       <use xlink:href="#RobotoCondensed-Regular-31" transform="translate(148.095703 0)"/>
      </g>
     </g>
    </g>
    <g id="xtick_6">
     <g id="line2d_6">
      <g>
       <use xlink:href="#m8e1428895a" x="228.588754" y="182.68" style="stroke: #000000; stroke-width: 0.8"/>
      </g>
     </g>
     <g id="text_6">
      <!-- 2004 -->
      <g transform="translate(222.665629 194.18) scale(0.06 -0.06)">
       <defs>
        <path id="RobotoCondensed-Regular-34" d="M 188 1397 
L 1878 4550 
L 2463 4550 
L 2463 1531 
L 2969 1531 
L 2969 1056 
L 2463 1056 
L 2463 0 
L 1909 0 
L 1909 1056 
L 188 1056 
L 188 1397 
z
M 803 1531 
L 1909 1531 
L 1909 3703 
L 1878 3638 
L 803 1531 
z
" transform="scale(0.015625)"/>
       </defs>
       <use xlink:href="#RobotoCondensed-Regular-32"/>
       <use xlink:href="#RobotoCondensed-Regular-30" transform="translate(49.365234 0)"/>
       <use xlink:href="#RobotoCondensed-Regular-30" transform="translate(98.730469 0)"/>
       <use xlink:href="#RobotoCondensed-Regular-34" transform="translate(148.095703 0)"/>
      </g>
     </g>
    </g>
    <g id="xtick_7">
     <g id="line2d_7">
      <g>
       <use xlink:href="#m8e1428895a" x="264.803618" y="182.68" style="stroke: #000000; stroke-width: 0.8"/>
      </g>
     </g>
     <g id="text_7">
      <!-- 2007 -->
      <g transform="translate(258.880493 194.18) scale(0.06 -0.06)">
       <defs>
        <path id="RobotoCondensed-Regular-37" d="M 2878 4550 
L 2878 4225 
L 1313 0 
L 731 0 
L 2297 4075 
L 269 4075 
L 269 4550 
L 2878 4550 
z
" transform="scale(0.015625)"/>
       </defs>
       <use xlink:href="#RobotoCondensed-Regular-32"/>
       <use xlink:href="#RobotoCondensed-Regular-30" transform="translate(49.365234 0)"/>
       <use xlink:href="#RobotoCondensed-Regular-30" transform="translate(98.730469 0)"/>
       <use xlink:href="#RobotoCondensed-Regular-37" transform="translate(148.095703 0)"/>
      </g>
     </g>
    </g>
    <g id="xtick_8">
     <g id="line2d_8">
      <g>
       <use xlink:href="#m8e1428895a" x="301.018482" y="182.68" style="stroke: #000000; stroke-width: 0.8"/>
      </g>
     </g>
     <g id="text_8">
      <!-- 2010 -->
      <g transform="translate(295.095357 194.18) scale(0.06 -0.06)">
       <use xlink:href="#RobotoCondensed-Regular-32"/>
       <use xlink:href="#RobotoCondensed-Regular-30" transform="translate(49.365234 0)"/>
       <use xlink:href="#RobotoCondensed-Regular-31" transform="translate(98.730469 0)"/>
       <use xlink:href="#RobotoCondensed-Regular-30" transform="translate(148.095703 0)"/>
      </g>
     </g>
    </g>
    <g id="text_9">
     <!-- Year -->
     <g transform="translate(158.455257 207.64875) scale(0.11 -0.11)">
      <defs>
       <path id="RobotoCondensed-Regular-59" d="M 747 4550 
L 1675 2266 
L 2606 4550 
L 3256 4550 
L 1963 1700 
L 1963 0 
L 1388 0 
L 1388 1700 
L 94 4550 
L 747 4550 
z
" transform="scale(0.015625)"/>
       <path id="RobotoCondensed-Regular-65" d="M 2722 447 
Q 2584 253 2323 95 
Q 2063 -63 1625 -63 
Q 1019 -63 666 301 
Q 313 666 309 1431 
L 309 1828 
Q 309 2722 696 3083 
Q 1084 3444 1563 3444 
Q 2197 3444 2472 3034 
Q 2747 2625 2747 1850 
L 2747 1528 
L 863 1528 
L 863 1447 
Q 863 906 1067 657 
Q 1272 409 1656 409 
Q 1934 409 2114 517 
Q 2294 625 2431 794 
L 2722 447 
z
M 1563 2969 
Q 1275 2969 1084 2770 
Q 894 2572 866 2000 
L 2194 2000 
L 2194 2078 
Q 2172 2469 2048 2719 
Q 1925 2969 1563 2969 
z
" transform="scale(0.015625)"/>
       <path id="RobotoCondensed-Regular-61" d="M 2156 0 
Q 2103 122 2081 366 
Q 1966 194 1775 65 
Q 1584 -63 1334 -63 
Q 891 -63 623 187 
Q 356 438 356 922 
Q 356 1409 690 1729 
Q 1025 2050 1691 2050 
L 2072 2050 
L 2072 2413 
Q 2072 2713 1936 2841 
Q 1800 2969 1528 2969 
Q 1263 2969 1114 2812 
Q 966 2656 966 2444 
L 413 2444 
Q 413 2806 722 3125 
Q 1031 3444 1556 3444 
Q 2025 3444 2325 3209 
Q 2625 2975 2625 2406 
L 2625 794 
Q 2625 316 2728 50 
L 2728 0 
L 2156 0 
z
M 1419 441 
Q 1653 441 1825 562 
Q 1997 684 2072 834 
L 2072 1644 
L 1781 1644 
Q 1384 1644 1146 1475 
Q 909 1306 909 991 
Q 909 688 1036 564 
Q 1163 441 1419 441 
z
" transform="scale(0.015625)"/>
       <path id="RobotoCondensed-Regular-72" d="M 1563 2888 
Q 1138 2888 969 2425 
L 969 0 
L 416 0 
L 416 3381 
L 950 3381 
L 963 3041 
Q 1184 3444 1591 3444 
Q 1738 3444 1809 3400 
L 1813 2863 
Q 1691 2888 1563 2888 
z
" transform="scale(0.015625)"/>
      </defs>
      <use xlink:href="#RobotoCondensed-Regular-59"/>
      <use xlink:href="#RobotoCondensed-Regular-65" transform="translate(52.490234 0)"/>
      <use xlink:href="#RobotoCondensed-Regular-61" transform="translate(99.365234 0)"/>
      <use xlink:href="#RobotoCondensed-Regular-72" transform="translate(147.265625 0)"/>
     </g>
    </g>
   </g>
   <g id="matplotlib.axis_2">
    <g id="ytick_1">
     <g id="line2d_9">
      <path d="M 35.442813 182.68 
L 301.018482 182.68 
" clip-path="url(#pbae1301f11)" style="fill: none; stroke: #808080; stroke-opacity: 0.3; stroke-width: 0.5; stroke-linecap: square"/>
     </g>
     <g id="line2d_10">
      <defs>
       <path id="mc322d830fb" d="M 0 0 
L -3.5 0 
" style="stroke: #000000; stroke-width: 0.8"/>
      </defs>
      <g>
       <use xlink:href="#mc322d830fb" x="35.442813" y="182.68" style="stroke: #000000; stroke-width: 0.8"/>
      </g>
     </g>
     <g id="text_10">
      <!-- 0% -->
      <g transform="translate(21.684375 184.93) scale(0.06 -0.06)">
       <defs>
        <path id="RobotoCondensed-Regular-25" d="M 334 3675 
Q 334 4063 545 4339 
Q 756 4616 1128 4616 
Q 1506 4616 1717 4339 
Q 1928 4063 1928 3675 
L 1928 3434 
Q 1928 3053 1718 2776 
Q 1509 2500 1134 2500 
Q 759 2500 546 2776 
Q 334 3053 334 3434 
L 334 3675 
z
M 741 3434 
Q 741 3219 836 3047 
Q 931 2875 1134 2875 
Q 1331 2875 1426 3045 
Q 1522 3216 1522 3434 
L 1522 3675 
Q 1522 3894 1425 4067 
Q 1328 4241 1128 4241 
Q 931 4241 836 4067 
Q 741 3894 741 3675 
L 741 3434 
z
M 3116 3903 
L 1250 347 
L 944 553 
L 2813 4109 
L 3116 3903 
z
M 2172 1116 
Q 2172 1500 2384 1776 
Q 2597 2053 2969 2053 
Q 3344 2053 3555 1776 
Q 3766 1500 3766 1116 
L 3766 872 
Q 3766 488 3555 211 
Q 3344 -66 2972 -66 
Q 2597 -66 2384 211 
Q 2172 488 2172 872 
L 2172 1116 
z
M 2578 872 
Q 2578 653 2675 481 
Q 2772 309 2972 309 
Q 3169 309 3264 479 
Q 3359 650 3359 872 
L 3359 1116 
Q 3359 1338 3262 1508 
Q 3166 1678 2969 1678 
Q 2772 1678 2675 1508 
Q 2578 1338 2578 1116 
L 2578 872 
z
" transform="scale(0.015625)"/>
       </defs>
       <use xlink:href="#RobotoCondensed-Regular-30"/>
       <use xlink:href="#RobotoCondensed-Regular-25" transform="translate(49.365234 0)"/>
      </g>
     </g>
    </g>
    <g id="ytick_2">
     <g id="line2d_11">
      <path d="M 35.442813 112.488 
L 301.018482 112.488 
" clip-path="url(#pbae1301f11)" style="fill: none; stroke: #808080; stroke-opacity: 0.3; stroke-width: 0.5; stroke-linecap: square"/>
     </g>
     <g id="line2d_12">
      <g>
       <use xlink:href="#mc322d830fb" x="35.442813" y="112.488" style="stroke: #000000; stroke-width: 0.8"/>
      </g>
     </g>
     <g id="text_11">
      <!-- 2% -->
      <g transform="translate(21.684375 114.738) scale(0.06 -0.06)">
       <use xlink:href="#RobotoCondensed-Regular-32"/>
       <use xlink:href="#RobotoCondensed-Regular-25" transform="translate(49.365234 0)"/>
      </g>
     </g>
    </g>
    <g id="ytick_3">
     <g id="line2d_13">
      <path d="M 35.442813 42.296 
L 301.018482 42.296 
" clip-path="url(#pbae1301f11)" style="fill: none; stroke: #808080; stroke-opacity: 0.3; stroke-width: 0.5; stroke-linecap: square"/>
     </g>
     <g id="line2d_14">
      <g>
       <use xlink:href="#mc322d830fb" x="35.442813" y="42.296" style="stroke: #000000; stroke-width: 0.8"/>
      </g>
     </g>
     <g id="text_12">
      <!-- 4% -->
      <g transform="translate(21.684375 44.546) scale(0.06 -0.06)">
       <use xlink:href="#RobotoCondensed-Regular-34"/>
       <use xlink:href="#RobotoCondensed-Regular-25" transform="translate(49.365234 0)"/>
      </g>
     </g>
    </g>
    <g id="text_13">
     <!-- Proportion -->
     <g transform="translate(15.45 117.889609) rotate(-90) scale(0.11 -0.11)">
      <defs>
       <path id="RobotoCondensed-Regular-50" d="M 1066 1784 
L 1066 0 
L 491 0 
L 491 4550 
L 1941 4550 
Q 2600 4550 2951 4159 
Q 3303 3769 3303 3163 
Q 3303 2506 2954 2147 
Q 2606 1788 1950 1784 
L 1066 1784 
z
M 1066 4056 
L 1066 2275 
L 1941 2275 
Q 2359 2275 2543 2522 
Q 2728 2769 2728 3156 
Q 2728 3506 2543 3781 
Q 2359 4056 1941 4056 
L 1066 4056 
z
" transform="scale(0.015625)"/>
       <path id="RobotoCondensed-Regular-6f" d="M 300 1850 
Q 300 2641 678 3042 
Q 1056 3444 1603 3444 
Q 2156 3444 2536 3042 
Q 2916 2641 2916 1850 
L 2916 1528 
Q 2916 738 2536 337 
Q 2156 -63 1609 -63 
Q 1059 -63 679 337 
Q 300 738 300 1528 
L 300 1850 
z
M 853 1528 
Q 853 969 1068 689 
Q 1284 409 1609 409 
Q 2341 409 2363 1466 
L 2363 1850 
Q 2363 2403 2145 2686 
Q 1928 2969 1603 2969 
Q 1281 2969 1067 2686 
Q 853 2403 853 1850 
L 853 1528 
z
" transform="scale(0.015625)"/>
       <path id="RobotoCondensed-Regular-70" d="M 1750 -63 
Q 1244 -63 969 325 
L 969 -1300 
L 416 -1300 
L 416 3381 
L 919 3381 
L 947 3013 
Q 1222 3444 1744 3444 
Q 2275 3444 2562 3073 
Q 2850 2703 2859 1897 
L 2859 1528 
Q 2859 725 2570 331 
Q 2281 -63 1750 -63 
z
M 1572 2956 
Q 1181 2956 969 2559 
L 969 797 
Q 1178 409 1578 409 
Q 2288 409 2306 1472 
L 2306 1844 
Q 2306 2956 1572 2956 
z
" transform="scale(0.015625)"/>
       <path id="RobotoCondensed-Regular-74" d="M 1647 0 
Q 1488 -63 1259 -63 
Q 991 -63 789 134 
Q 588 331 588 841 
L 588 2938 
L 72 2938 
L 72 3381 
L 588 3381 
L 588 4203 
L 1141 4203 
L 1141 3381 
L 1650 3381 
L 1650 2938 
L 1141 2938 
L 1141 838 
Q 1141 578 1230 506 
Q 1319 434 1431 434 
Q 1550 434 1650 472 
L 1647 0 
z
" transform="scale(0.015625)"/>
       <path id="RobotoCondensed-Regular-69" d="M 428 4278 
Q 428 4419 506 4516 
Q 584 4613 741 4613 
Q 894 4613 975 4516 
Q 1056 4419 1056 4278 
Q 1056 4144 975 4048 
Q 894 3953 741 3953 
Q 584 3953 506 4048 
Q 428 4144 428 4278 
z
M 1009 3381 
L 1009 0 
L 459 0 
L 459 3381 
L 1009 3381 
z
" transform="scale(0.015625)"/>
       <path id="RobotoCondensed-Regular-6e" d="M 1603 2956 
Q 1400 2956 1236 2818 
Q 1072 2681 969 2459 
L 969 0 
L 416 0 
L 416 3381 
L 938 3381 
L 953 3022 
Q 1275 3444 1775 3444 
Q 2191 3444 2437 3162 
Q 2684 2881 2684 2216 
L 2684 0 
L 2131 0 
L 2131 2222 
Q 2131 2619 2000 2787 
Q 1869 2956 1603 2956 
z
" transform="scale(0.015625)"/>
      </defs>
      <use xlink:href="#RobotoCondensed-Regular-50"/>
      <use xlink:href="#RobotoCondensed-Regular-72" transform="translate(55.419922 0)"/>
      <use xlink:href="#RobotoCondensed-Regular-6f" transform="translate(85.888672 0)"/>
      <use xlink:href="#RobotoCondensed-Regular-70" transform="translate(136.083984 0)"/>
      <use xlink:href="#RobotoCondensed-Regular-6f" transform="translate(185.400391 0)"/>
      <use xlink:href="#RobotoCondensed-Regular-72" transform="translate(235.595703 0)"/>
      <use xlink:href="#RobotoCondensed-Regular-74" transform="translate(266.064453 0)"/>
      <use xlink:href="#RobotoCondensed-Regular-69" transform="translate(295.654297 0)"/>
      <use xlink:href="#RobotoCondensed-Regular-6f" transform="translate(318.603516 0)"/>
      <use xlink:href="#RobotoCondensed-Regular-6e" transform="translate(368.798828 0)"/>
     </g>
    </g>
   </g>
   <g id="FillBetweenPolyCollection_1">
    <defs>
     <path id="m6e0aa64e8b" d="M 47.514434 -34.403125 
L 47.514434 -34.403125 
L 48.3219 -34.403125 
L 49.129366 -34.403125 
L 49.936833 -34.403125 
L 50.744299 -34.403125 
L 51.551765 -34.403125 
L 52.359232 -34.403125 
L 53.166698 -34.403125 
L 53.974164 -34.403125 
L 54.781631 -34.403125 
L 55.589097 -34.403125 
L 56.396563 -34.403125 
L 57.20403 -34.403125 
L 58.011496 -34.403125 
L 58.818962 -34.403125 
L 59.626428 -34.403125 
L 60.433895 -34.403125 
L 61.241361 -34.403125 
L 62.048827 -34.403125 
L 62.856294 -34.403125 
L 63.66376 -34.403125 
L 64.471226 -34.403125 
L 65.278693 -34.403125 
L 66.086159 -34.403125 
L 66.893625 -34.403125 
L 67.701092 -34.403125 
L 68.508558 -34.403125 
L 69.316024 -34.403125 
L 70.123491 -34.403125 
L 70.930957 -34.403125 
L 71.738423 -34.403125 
L 72.545889 -34.403125 
L 73.353356 -34.403125 
L 74.160822 -34.403125 
L 74.968288 -34.403125 
L 75.775755 -34.403125 
L 76.583221 -34.403125 
L 77.390687 -34.403125 
L 78.198154 -34.403125 
L 79.00562 -34.403125 
L 79.813086 -34.403125 
L 80.620553 -34.403125 
L 81.428019 -34.403125 
L 82.235485 -34.403125 
L 83.042951 -34.403125 
L 83.850418 -34.403125 
L 84.657884 -34.403125 
L 85.46535 -34.403125 
L 86.272817 -34.403125 
L 87.080283 -34.403125 
L 87.887749 -34.403125 
L 88.695216 -34.403125 
L 89.502682 -34.403125 
L 90.310148 -34.403125 
L 91.117615 -34.403125 
L 91.925081 -34.403125 
L 92.732547 -34.403125 
L 93.540013 -34.403125 
L 94.34748 -34.403125 
L 95.154946 -34.403125 
L 95.962412 -34.403125 
L 96.769879 -34.403125 
L 97.577345 -34.403125 
L 98.384811 -34.403125 
L 99.192278 -34.403125 
L 99.999744 -34.403125 
L 100.80721 -34.403125 
L 101.614677 -34.403125 
L 102.422143 -34.403125 
L 103.229609 -34.403125 
L 104.037076 -34.403125 
L 104.844542 -34.403125 
L 105.652008 -34.403125 
L 106.459474 -34.403125 
L 107.266941 -34.403125 
L 108.074407 -34.403125 
L 108.881873 -34.403125 
L 109.68934 -34.403125 
L 110.496806 -34.403125 
L 111.304272 -34.403125 
L 112.111739 -34.403125 
L 112.919205 -34.403125 
L 113.726671 -34.403125 
L 114.534138 -34.403125 
L 115.341604 -34.403125 
L 116.14907 -34.403125 
L 116.956536 -34.403125 
L 117.764003 -34.403125 
L 118.571469 -34.403125 
L 119.378935 -34.403125 
L 120.186402 -34.403125 
L 120.993868 -34.403125 
L 121.801334 -34.403125 
L 122.608801 -34.403125 
L 123.416267 -34.403125 
L 124.223733 -34.403125 
L 125.0312 -34.403125 
L 125.838666 -34.403125 
L 126.646132 -34.403125 
L 127.453599 -34.403125 
L 128.261065 -34.403125 
L 129.068531 -34.403125 
L 129.875997 -34.403125 
L 130.683464 -34.403125 
L 131.49093 -34.403125 
L 132.298396 -34.403125 
L 133.105863 -34.403125 
L 133.913329 -34.403125 
L 134.720795 -34.403125 
L 135.528262 -34.403125 
L 136.335728 -34.403125 
L 137.143194 -34.403125 
L 137.950661 -34.403125 
L 138.758127 -34.403125 
L 139.565593 -34.403125 
L 140.373059 -34.403125 
L 141.180526 -34.403125 
L 141.987992 -34.403125 
L 142.795458 -34.403125 
L 143.602925 -34.403125 
L 144.410391 -34.403125 
L 145.217857 -34.403125 
L 146.025324 -34.403125 
L 146.83279 -34.403125 
L 147.640256 -34.403125 
L 148.447723 -34.403125 
L 149.255189 -34.403125 
L 150.062655 -34.403125 
L 150.870121 -34.403125 
L 151.677588 -34.403125 
L 152.485054 -34.403125 
L 153.29252 -34.403125 
L 154.099987 -34.403125 
L 154.907453 -34.403125 
L 155.714919 -34.403125 
L 156.522386 -34.403125 
L 157.329852 -34.403125 
L 158.137318 -34.403125 
L 158.944785 -34.403125 
L 159.752251 -34.403125 
L 160.559717 -34.403125 
L 161.367184 -34.403125 
L 162.17465 -34.403125 
L 162.982116 -34.403125 
L 163.789582 -34.403125 
L 164.597049 -34.403125 
L 165.404515 -34.403125 
L 166.211981 -34.403125 
L 167.019448 -34.403125 
L 167.826914 -34.403125 
L 168.63438 -34.403125 
L 169.441847 -34.403125 
L 170.249313 -34.403125 
L 171.056779 -34.403125 
L 171.864246 -34.403125 
L 172.671712 -34.403125 
L 173.479178 -34.403125 
L 174.286644 -34.403125 
L 175.094111 -34.403125 
L 175.901577 -34.403125 
L 176.709043 -34.403125 
L 177.51651 -34.403125 
L 178.323976 -34.403125 
L 179.131442 -34.403125 
L 179.938909 -34.403125 
L 180.746375 -34.403125 
L 181.553841 -34.403125 
L 182.361308 -34.403125 
L 183.168774 -34.403125 
L 183.97624 -34.403125 
L 184.783706 -34.403125 
L 185.591173 -34.403125 
L 186.398639 -34.403125 
L 187.206105 -34.403125 
L 188.013572 -34.403125 
L 188.821038 -34.403125 
L 189.628504 -34.403125 
L 190.435971 -34.403125 
L 191.243437 -34.403125 
L 192.050903 -34.403125 
L 192.85837 -34.403125 
L 193.665836 -34.403125 
L 194.473302 -34.403125 
L 195.280769 -34.403125 
L 196.088235 -34.403125 
L 196.895701 -34.403125 
L 197.703167 -34.403125 
L 198.510634 -34.403125 
L 199.3181 -34.403125 
L 200.125566 -34.403125 
L 200.933033 -34.403125 
L 201.740499 -34.403125 
L 202.547965 -34.403125 
L 203.355432 -34.403125 
L 204.162898 -34.403125 
L 204.970364 -34.403125 
L 205.777831 -34.403125 
L 206.585297 -34.403125 
L 207.392763 -34.403125 
L 208.200229 -34.403125 
L 209.007696 -34.403125 
L 209.815162 -34.403125 
L 210.622628 -34.403125 
L 211.430095 -34.403125 
L 212.237561 -34.403125 
L 213.045027 -34.403125 
L 213.852494 -34.403125 
L 214.65996 -34.403125 
L 215.467426 -34.403125 
L 216.274893 -34.403125 
L 217.082359 -34.403125 
L 217.889825 -34.403125 
L 218.697292 -34.403125 
L 219.504758 -34.403125 
L 220.312224 -34.403125 
L 221.11969 -34.403125 
L 221.927157 -34.403125 
L 222.734623 -34.403125 
L 223.542089 -34.403125 
L 224.349556 -34.403125 
L 225.157022 -34.403125 
L 225.964488 -34.403125 
L 226.771955 -34.403125 
L 227.579421 -34.403125 
L 228.386887 -34.403125 
L 229.194354 -34.403125 
L 230.00182 -34.403125 
L 230.809286 -34.403125 
L 231.616752 -34.403125 
L 232.424219 -34.403125 
L 233.231685 -34.403125 
L 234.039151 -34.403125 
L 234.846618 -34.403125 
L 235.654084 -34.403125 
L 236.46155 -34.403125 
L 237.269017 -34.403125 
L 238.076483 -34.403125 
L 238.883949 -34.403125 
L 239.691416 -34.403125 
L 240.498882 -34.403125 
L 241.306348 -34.403125 
L 242.113814 -34.403125 
L 242.921281 -34.403125 
L 243.728747 -34.403125 
L 244.536213 -34.403125 
L 245.34368 -34.403125 
L 246.151146 -34.403125 
L 246.958612 -34.403125 
L 247.766079 -34.403125 
L 248.573545 -34.403125 
L 249.381011 -34.403125 
L 250.188478 -34.403125 
L 250.995944 -34.403125 
L 251.80341 -34.403125 
L 252.610877 -34.403125 
L 253.418343 -34.403125 
L 254.225809 -34.403125 
L 255.033275 -34.403125 
L 255.840742 -34.403125 
L 256.648208 -34.403125 
L 257.455674 -34.403125 
L 258.263141 -34.403125 
L 259.070607 -34.403125 
L 259.878073 -34.403125 
L 260.68554 -34.403125 
L 261.493006 -34.403125 
L 262.300472 -34.403125 
L 263.107939 -34.403125 
L 263.915405 -34.403125 
L 264.722871 -34.403125 
L 265.530337 -34.403125 
L 266.337804 -34.403125 
L 267.14527 -34.403125 
L 267.952736 -34.403125 
L 268.760203 -34.403125 
L 269.567669 -34.403125 
L 270.375135 -34.403125 
L 271.182602 -34.403125 
L 271.990068 -34.403125 
L 272.797534 -34.403125 
L 273.605001 -34.403125 
L 274.412467 -34.403125 
L 275.219933 -34.403125 
L 276.0274 -34.403125 
L 276.834866 -34.403125 
L 277.642332 -34.403125 
L 278.449798 -34.403125 
L 279.257265 -34.403125 
L 280.064731 -34.403125 
L 280.872197 -34.403125 
L 281.679664 -34.403125 
L 282.48713 -34.403125 
L 283.294596 -34.403125 
L 284.102063 -34.403125 
L 284.909529 -34.403125 
L 285.716995 -34.403125 
L 286.524462 -34.403125 
L 287.331928 -34.403125 
L 288.139394 -34.403125 
L 288.94686 -34.403125 
L 288.94686 -35.941317 
L 288.94686 -35.941317 
L 288.139394 -35.942257 
L 287.331928 -35.944994 
L 286.524462 -35.949405 
L 285.716995 -35.955366 
L 284.909529 -35.962753 
L 284.102063 -35.971441 
L 283.294596 -35.981309 
L 282.48713 -35.992231 
L 281.679664 -36.004083 
L 280.872197 -36.016743 
L 280.064731 -36.030086 
L 279.257265 -36.043988 
L 278.449798 -36.058325 
L 277.642332 -36.072975 
L 276.834866 -36.087823 
L 276.0274 -36.107217 
L 275.219933 -36.133904 
L 274.412467 -36.166594 
L 273.605001 -36.203996 
L 272.797534 -36.244821 
L 271.990068 -36.287779 
L 271.182602 -36.33158 
L 270.375135 -36.374933 
L 269.567669 -36.416548 
L 268.760203 -36.455136 
L 267.952736 -36.489406 
L 267.14527 -36.518068 
L 266.337804 -36.539833 
L 265.530337 -36.553409 
L 264.722871 -36.557511 
L 263.915405 -36.551709 
L 263.107939 -36.537213 
L 262.300472 -36.515359 
L 261.493006 -36.487481 
L 260.68554 -36.454915 
L 259.878073 -36.418997 
L 259.070607 -36.381061 
L 258.263141 -36.342442 
L 257.455674 -36.304478 
L 256.648208 -36.268501 
L 255.840742 -36.235849 
L 255.033275 -36.207856 
L 254.225809 -36.185857 
L 253.418343 -36.171189 
L 252.610877 -36.16508 
L 251.80341 -36.162689 
L 250.995944 -36.160738 
L 250.188478 -36.159155 
L 249.381011 -36.157873 
L 248.573545 -36.15682 
L 247.766079 -36.155927 
L 246.958612 -36.155124 
L 246.151146 -36.154341 
L 245.34368 -36.153508 
L 244.536213 -36.152555 
L 243.728747 -36.151413 
L 242.921281 -36.150012 
L 242.113814 -36.148281 
L 241.306348 -36.146151 
L 240.498882 -36.143288 
L 239.691416 -36.131384 
L 238.883949 -36.107888 
L 238.076483 -36.074676 
L 237.269017 -36.033626 
L 236.46155 -35.986612 
L 235.654084 -35.935513 
L 234.846618 -35.882206 
L 234.039151 -35.828566 
L 233.231685 -35.776471 
L 232.424219 -35.727797 
L 231.616752 -35.684421 
L 230.809286 -35.64822 
L 230.00182 -35.62107 
L 229.194354 -35.604849 
L 228.386887 -35.601924 
L 227.579421 -35.623597 
L 226.771955 -35.671338 
L 225.964488 -35.741693 
L 225.157022 -35.831207 
L 224.349556 -35.936429 
L 223.542089 -36.053903 
L 222.734623 -36.180176 
L 221.927157 -36.311796 
L 221.11969 -36.445307 
L 220.312224 -36.577256 
L 219.504758 -36.70419 
L 218.697292 -36.822656 
L 217.889825 -36.929199 
L 217.082359 -37.020365 
L 216.274893 -37.093791 
L 215.467426 -37.163906 
L 214.65996 -37.235462 
L 213.852494 -37.307488 
L 213.045027 -37.379009 
L 212.237561 -37.449053 
L 211.430095 -37.516645 
L 210.622628 -37.580812 
L 209.815162 -37.640581 
L 209.007696 -37.694978 
L 208.200229 -37.74303 
L 207.392763 -37.783764 
L 206.585297 -37.816206 
L 205.777831 -37.839382 
L 204.970364 -37.852319 
L 204.162898 -37.853292 
L 203.355432 -37.833681 
L 202.547965 -37.793886 
L 201.740499 -37.737201 
L 200.933033 -37.666923 
L 200.125566 -37.586346 
L 199.3181 -37.498766 
L 198.510634 -37.407479 
L 197.703167 -37.315781 
L 196.895701 -37.226965 
L 196.088235 -37.144329 
L 195.280769 -37.071167 
L 194.473302 -37.010775 
L 193.665836 -36.966448 
L 192.85837 -36.941482 
L 192.050903 -36.939441 
L 191.243437 -36.963754 
L 190.435971 -37.011583 
L 189.628504 -37.079058 
L 188.821038 -37.162307 
L 188.013572 -37.257459 
L 187.206105 -37.360644 
L 186.398639 -37.46799 
L 185.591173 -37.575626 
L 184.783706 -37.679681 
L 183.97624 -37.776285 
L 183.168774 -37.861566 
L 182.361308 -37.931654 
L 181.553841 -37.982677 
L 180.746375 -38.010764 
L 179.938909 -38.009409 
L 179.131442 -37.959195 
L 178.323976 -37.862918 
L 177.51651 -37.727876 
L 176.709043 -37.561365 
L 175.901577 -37.370682 
L 175.094111 -37.163124 
L 174.286644 -36.945987 
L 173.479178 -36.72657 
L 172.671712 -36.512168 
L 171.864246 -36.310078 
L 171.056779 -36.127598 
L 170.249313 -35.972024 
L 169.441847 -35.850654 
L 168.63438 -35.770783 
L 167.826914 -35.733314 
L 167.019448 -35.704391 
L 166.211981 -35.677792 
L 165.404515 -35.653383 
L 164.597049 -35.631031 
L 163.789582 -35.6106 
L 162.982116 -35.591956 
L 162.17465 -35.574965 
L 161.367184 -35.559492 
L 160.559717 -35.545403 
L 159.752251 -35.532563 
L 158.944785 -35.520837 
L 158.137318 -35.510092 
L 157.329852 -35.500192 
L 156.522386 -35.491003 
L 155.714919 -35.482433 
L 154.907453 -35.47458 
L 154.099987 -35.46739 
L 153.29252 -35.460782 
L 152.485054 -35.454677 
L 151.677588 -35.448996 
L 150.870121 -35.443657 
L 150.062655 -35.438582 
L 149.255189 -35.433689 
L 148.447723 -35.4289 
L 147.640256 -35.424135 
L 146.83279 -35.419312 
L 146.025324 -35.414353 
L 145.217857 -35.409178 
L 144.410391 -35.403706 
L 143.602925 -35.398042 
L 142.795458 -35.392846 
L 141.987992 -35.388072 
L 141.180526 -35.383594 
L 140.373059 -35.379282 
L 139.565593 -35.375009 
L 138.758127 -35.370646 
L 137.950661 -35.366067 
L 137.143194 -35.361142 
L 136.335728 -35.355744 
L 135.528262 -35.349745 
L 134.720795 -35.343016 
L 133.913329 -35.335431 
L 133.105863 -35.32686 
L 132.298396 -35.317176 
L 131.49093 -35.302108 
L 130.683464 -35.268673 
L 129.875997 -35.218588 
L 129.068531 -35.154835 
L 128.261065 -35.080395 
L 127.453599 -34.998249 
L 126.646132 -34.911379 
L 125.838666 -34.822767 
L 125.0312 -34.735394 
L 124.223733 -34.652242 
L 123.416267 -34.576292 
L 122.608801 -34.510526 
L 121.801334 -34.457926 
L 120.993868 -34.421472 
L 120.186402 -34.404147 
L 119.378935 -34.403566 
L 118.571469 -34.40566 
L 117.764003 -34.409356 
L 116.956536 -34.41452 
L 116.14907 -34.421017 
L 115.341604 -34.428712 
L 114.534138 -34.437471 
L 113.726671 -34.447159 
L 112.919205 -34.457642 
L 112.111739 -34.468786 
L 111.304272 -34.480455 
L 110.496806 -34.492516 
L 109.68934 -34.504834 
L 108.881873 -34.517274 
L 108.074407 -34.529701 
L 107.266941 -34.543351 
L 106.459474 -34.561131 
L 105.652008 -34.58247 
L 104.844542 -34.606642 
L 104.037076 -34.632919 
L 103.229609 -34.660571 
L 102.422143 -34.688872 
L 101.614677 -34.717093 
L 100.80721 -34.744506 
L 99.999744 -34.770384 
L 99.192278 -34.793998 
L 98.384811 -34.81462 
L 97.577345 -34.831523 
L 96.769879 -34.843978 
L 95.962412 -34.851258 
L 95.154946 -34.854579 
L 94.34748 -34.857613 
L 93.540013 -34.860471 
L 92.732547 -34.863145 
L 91.925081 -34.865628 
L 91.117615 -34.867912 
L 90.310148 -34.869991 
L 89.502682 -34.871857 
L 88.695216 -34.873503 
L 87.887749 -34.874922 
L 87.080283 -34.876106 
L 86.272817 -34.877049 
L 85.46535 -34.877743 
L 84.657884 -34.878181 
L 83.850418 -34.878356 
L 83.042951 -34.877257 
L 82.235485 -34.873363 
L 81.428019 -34.867033 
L 80.620553 -34.858661 
L 79.813086 -34.848638 
L 79.00562 -34.837358 
L 78.198154 -34.825212 
L 77.390687 -34.812593 
L 76.583221 -34.799893 
L 75.775755 -34.787506 
L 74.968288 -34.775824 
L 74.160822 -34.765239 
L 73.353356 -34.756143 
L 72.545889 -34.748929 
L 71.738423 -34.74399 
L 70.930957 -34.740799 
L 70.123491 -34.738124 
L 69.316024 -34.735873 
L 68.508558 -34.733965 
L 67.701092 -34.732319 
L 66.893625 -34.730855 
L 66.086159 -34.729491 
L 65.278693 -34.728147 
L 64.471226 -34.726741 
L 63.66376 -34.725192 
L 62.856294 -34.72342 
L 62.048827 -34.721344 
L 61.241361 -34.718882 
L 60.433895 -34.715954 
L 59.626428 -34.712479 
L 58.818962 -34.707225 
L 58.011496 -34.698896 
L 57.20403 -34.687693 
L 56.396563 -34.673819 
L 55.589097 -34.657478 
L 54.781631 -34.638873 
L 53.974164 -34.618207 
L 53.166698 -34.595684 
L 52.359232 -34.571508 
L 51.551765 -34.545882 
L 50.744299 -34.519009 
L 49.936833 -34.491094 
L 49.129366 -34.462339 
L 48.3219 -34.432948 
L 47.514434 -34.403125 
z
" style="stroke: #d62728; stroke-opacity: 0.7"/>
    </defs>
    <g clip-path="url(#pbae1301f11)">
     <use xlink:href="#m6e0aa64e8b" x="0" y="217.083125" style="fill: #d62728; fill-opacity: 0.7; stroke: #d62728; stroke-opacity: 0.7"/>
    </g>
   </g>
   <g id="FillBetweenPolyCollection_2">
    <defs>
     <path id="m84f679ab8a" d="M 47.514434 -34.425523 
L 47.514434 -34.403125 
L 48.3219 -34.432948 
L 49.129366 -34.462339 
L 49.936833 -34.491094 
L 50.744299 -34.519009 
L 51.551765 -34.545882 
L 52.359232 -34.571508 
L 53.166698 -34.595684 
L 53.974164 -34.618207 
L 54.781631 -34.638873 
L 55.589097 -34.657478 
L 56.396563 -34.673819 
L 57.20403 -34.687693 
L 58.011496 -34.698896 
L 58.818962 -34.707225 
L 59.626428 -34.712479 
L 60.433895 -34.715954 
L 61.241361 -34.718882 
L 62.048827 -34.721344 
L 62.856294 -34.72342 
L 63.66376 -34.725192 
L 64.471226 -34.726741 
L 65.278693 -34.728147 
L 66.086159 -34.729491 
L 66.893625 -34.730855 
L 67.701092 -34.732319 
L 68.508558 -34.733965 
L 69.316024 -34.735873 
L 70.123491 -34.738124 
L 70.930957 -34.740799 
L 71.738423 -34.74399 
L 72.545889 -34.748929 
L 73.353356 -34.756143 
L 74.160822 -34.765239 
L 74.968288 -34.775824 
L 75.775755 -34.787506 
L 76.583221 -34.799893 
L 77.390687 -34.812593 
L 78.198154 -34.825212 
L 79.00562 -34.837358 
L 79.813086 -34.848638 
L 80.620553 -34.858661 
L 81.428019 -34.867033 
L 82.235485 -34.873363 
L 83.042951 -34.877257 
L 83.850418 -34.878356 
L 84.657884 -34.878181 
L 85.46535 -34.877743 
L 86.272817 -34.877049 
L 87.080283 -34.876106 
L 87.887749 -34.874922 
L 88.695216 -34.873503 
L 89.502682 -34.871857 
L 90.310148 -34.869991 
L 91.117615 -34.867912 
L 91.925081 -34.865628 
L 92.732547 -34.863145 
L 93.540013 -34.860471 
L 94.34748 -34.857613 
L 95.154946 -34.854579 
L 95.962412 -34.851258 
L 96.769879 -34.843978 
L 97.577345 -34.831523 
L 98.384811 -34.81462 
L 99.192278 -34.793998 
L 99.999744 -34.770384 
L 100.80721 -34.744506 
L 101.614677 -34.717093 
L 102.422143 -34.688872 
L 103.229609 -34.660571 
L 104.037076 -34.632919 
L 104.844542 -34.606642 
L 105.652008 -34.58247 
L 106.459474 -34.561131 
L 107.266941 -34.543351 
L 108.074407 -34.529701 
L 108.881873 -34.517274 
L 109.68934 -34.504834 
L 110.496806 -34.492516 
L 111.304272 -34.480455 
L 112.111739 -34.468786 
L 112.919205 -34.457642 
L 113.726671 -34.447159 
L 114.534138 -34.437471 
L 115.341604 -34.428712 
L 116.14907 -34.421017 
L 116.956536 -34.41452 
L 117.764003 -34.409356 
L 118.571469 -34.40566 
L 119.378935 -34.403566 
L 120.186402 -34.404147 
L 120.993868 -34.421472 
L 121.801334 -34.457926 
L 122.608801 -34.510526 
L 123.416267 -34.576292 
L 124.223733 -34.652242 
L 125.0312 -34.735394 
L 125.838666 -34.822767 
L 126.646132 -34.911379 
L 127.453599 -34.998249 
L 128.261065 -35.080395 
L 129.068531 -35.154835 
L 129.875997 -35.218588 
L 130.683464 -35.268673 
L 131.49093 -35.302108 
L 132.298396 -35.317176 
L 133.105863 -35.32686 
L 133.913329 -35.335431 
L 134.720795 -35.343016 
L 135.528262 -35.349745 
L 136.335728 -35.355744 
L 137.143194 -35.361142 
L 137.950661 -35.366067 
L 138.758127 -35.370646 
L 139.565593 -35.375009 
L 140.373059 -35.379282 
L 141.180526 -35.383594 
L 141.987992 -35.388072 
L 142.795458 -35.392846 
L 143.602925 -35.398042 
L 144.410391 -35.403706 
L 145.217857 -35.409178 
L 146.025324 -35.414353 
L 146.83279 -35.419312 
L 147.640256 -35.424135 
L 148.447723 -35.4289 
L 149.255189 -35.433689 
L 150.062655 -35.438582 
L 150.870121 -35.443657 
L 151.677588 -35.448996 
L 152.485054 -35.454677 
L 153.29252 -35.460782 
L 154.099987 -35.46739 
L 154.907453 -35.47458 
L 155.714919 -35.482433 
L 156.522386 -35.491003 
L 157.329852 -35.500192 
L 158.137318 -35.510092 
L 158.944785 -35.520837 
L 159.752251 -35.532563 
L 160.559717 -35.545403 
L 161.367184 -35.559492 
L 162.17465 -35.574965 
L 162.982116 -35.591956 
L 163.789582 -35.6106 
L 164.597049 -35.631031 
L 165.404515 -35.653383 
L 166.211981 -35.677792 
L 167.019448 -35.704391 
L 167.826914 -35.733314 
L 168.63438 -35.770783 
L 169.441847 -35.850654 
L 170.249313 -35.972024 
L 171.056779 -36.127598 
L 171.864246 -36.310078 
L 172.671712 -36.512168 
L 173.479178 -36.72657 
L 174.286644 -36.945987 
L 175.094111 -37.163124 
L 175.901577 -37.370682 
L 176.709043 -37.561365 
L 177.51651 -37.727876 
L 178.323976 -37.862918 
L 179.131442 -37.959195 
L 179.938909 -38.009409 
L 180.746375 -38.010764 
L 181.553841 -37.982677 
L 182.361308 -37.931654 
L 183.168774 -37.861566 
L 183.97624 -37.776285 
L 184.783706 -37.679681 
L 185.591173 -37.575626 
L 186.398639 -37.46799 
L 187.206105 -37.360644 
L 188.013572 -37.257459 
L 188.821038 -37.162307 
L 189.628504 -37.079058 
L 190.435971 -37.011583 
L 191.243437 -36.963754 
L 192.050903 -36.939441 
L 192.85837 -36.941482 
L 193.665836 -36.966448 
L 194.473302 -37.010775 
L 195.280769 -37.071167 
L 196.088235 -37.144329 
L 196.895701 -37.226965 
L 197.703167 -37.315781 
L 198.510634 -37.407479 
L 199.3181 -37.498766 
L 200.125566 -37.586346 
L 200.933033 -37.666923 
L 201.740499 -37.737201 
L 202.547965 -37.793886 
L 203.355432 -37.833681 
L 204.162898 -37.853292 
L 204.970364 -37.852319 
L 205.777831 -37.839382 
L 206.585297 -37.816206 
L 207.392763 -37.783764 
L 208.200229 -37.74303 
L 209.007696 -37.694978 
L 209.815162 -37.640581 
L 210.622628 -37.580812 
L 211.430095 -37.516645 
L 212.237561 -37.449053 
L 213.045027 -37.379009 
L 213.852494 -37.307488 
L 214.65996 -37.235462 
L 215.467426 -37.163906 
L 216.274893 -37.093791 
L 217.082359 -37.020365 
L 217.889825 -36.929199 
L 218.697292 -36.822656 
L 219.504758 -36.70419 
L 220.312224 -36.577256 
L 221.11969 -36.445307 
L 221.927157 -36.311796 
L 222.734623 -36.180176 
L 223.542089 -36.053903 
L 224.349556 -35.936429 
L 225.157022 -35.831207 
L 225.964488 -35.741693 
L 226.771955 -35.671338 
L 227.579421 -35.623597 
L 228.386887 -35.601924 
L 229.194354 -35.604849 
L 230.00182 -35.62107 
L 230.809286 -35.64822 
L 231.616752 -35.684421 
L 232.424219 -35.727797 
L 233.231685 -35.776471 
L 234.039151 -35.828566 
L 234.846618 -35.882206 
L 235.654084 -35.935513 
L 236.46155 -35.986612 
L 237.269017 -36.033626 
L 238.076483 -36.074676 
L 238.883949 -36.107888 
L 239.691416 -36.131384 
L 240.498882 -36.143288 
L 241.306348 -36.146151 
L 242.113814 -36.148281 
L 242.921281 -36.150012 
L 243.728747 -36.151413 
L 244.536213 -36.152555 
L 245.34368 -36.153508 
L 246.151146 -36.154341 
L 246.958612 -36.155124 
L 247.766079 -36.155927 
L 248.573545 -36.15682 
L 249.381011 -36.157873 
L 250.188478 -36.159155 
L 250.995944 -36.160738 
L 251.80341 -36.162689 
L 252.610877 -36.16508 
L 253.418343 -36.171189 
L 254.225809 -36.185857 
L 255.033275 -36.207856 
L 255.840742 -36.235849 
L 256.648208 -36.268501 
L 257.455674 -36.304478 
L 258.263141 -36.342442 
L 259.070607 -36.381061 
L 259.878073 -36.418997 
L 260.68554 -36.454915 
L 261.493006 -36.487481 
L 262.300472 -36.515359 
L 263.107939 -36.537213 
L 263.915405 -36.551709 
L 264.722871 -36.557511 
L 265.530337 -36.553409 
L 266.337804 -36.539833 
L 267.14527 -36.518068 
L 267.952736 -36.489406 
L 268.760203 -36.455136 
L 269.567669 -36.416548 
L 270.375135 -36.374933 
L 271.182602 -36.33158 
L 271.990068 -36.287779 
L 272.797534 -36.244821 
L 273.605001 -36.203996 
L 274.412467 -36.166594 
L 275.219933 -36.133904 
L 276.0274 -36.107217 
L 276.834866 -36.087823 
L 277.642332 -36.072975 
L 278.449798 -36.058325 
L 279.257265 -36.043988 
L 280.064731 -36.030086 
L 280.872197 -36.016743 
L 281.679664 -36.004083 
L 282.48713 -35.992231 
L 283.294596 -35.981309 
L 284.102063 -35.971441 
L 284.909529 -35.962753 
L 285.716995 -35.955366 
L 286.524462 -35.949405 
L 287.331928 -35.944994 
L 288.139394 -35.942257 
L 288.94686 -35.941317 
L 288.94686 -47.170117 
L 288.94686 -47.170117 
L 288.139394 -47.147892 
L 287.331928 -47.127912 
L 286.524462 -47.11009 
L 285.716995 -47.09434 
L 284.909529 -47.080573 
L 284.102063 -47.068703 
L 283.294596 -47.058642 
L 282.48713 -47.050302 
L 281.679664 -47.043596 
L 280.872197 -47.038437 
L 280.064731 -47.034737 
L 279.257265 -47.032409 
L 278.449798 -47.031366 
L 277.642332 -47.03152 
L 276.834866 -47.032797 
L 276.0274 -47.040109 
L 275.219933 -47.056421 
L 274.412467 -47.080115 
L 273.605001 -47.109571 
L 272.797534 -47.143169 
L 271.990068 -47.17929 
L 271.182602 -47.216314 
L 270.375135 -47.252621 
L 269.567669 -47.286592 
L 268.760203 -47.316608 
L 267.952736 -47.341049 
L 267.14527 -47.358295 
L 266.337804 -47.366727 
L 265.530337 -47.364725 
L 264.722871 -47.35027 
L 263.915405 -47.277435 
L 263.107939 -47.124607 
L 262.300472 -46.904507 
L 261.493006 -46.629858 
L 260.68554 -46.31338 
L 259.878073 -45.967796 
L 259.070607 -45.605826 
L 258.263141 -45.240193 
L 257.455674 -44.883618 
L 256.648208 -44.548823 
L 255.840742 -44.248529 
L 255.033275 -43.995459 
L 254.225809 -43.802333 
L 253.418343 -43.681873 
L 252.610877 -43.645887 
L 251.80341 -43.652875 
L 250.995944 -43.673181 
L 250.188478 -43.7047 
L 249.381011 -43.745326 
L 248.573545 -43.792951 
L 247.766079 -43.845471 
L 246.958612 -43.900778 
L 246.151146 -43.956768 
L 245.34368 -44.011333 
L 244.536213 -44.062368 
L 243.728747 -44.107766 
L 242.921281 -44.145421 
L 242.113814 -44.173228 
L 241.306348 -44.18908 
L 240.498882 -44.189224 
L 239.691416 -44.120883 
L 238.883949 -43.969344 
L 238.076483 -43.747897 
L 237.269017 -43.469828 
L 236.46155 -43.148425 
L 235.654084 -42.796977 
L 234.846618 -42.42877 
L 234.039151 -42.057094 
L 233.231685 -41.695235 
L 232.424219 -41.356481 
L 231.616752 -41.054121 
L 230.809286 -40.801442 
L 230.00182 -40.611732 
L 229.194354 -40.498278 
L 228.386887 -40.472396 
L 227.579421 -40.499341 
L 226.771955 -40.558566 
L 225.964488 -40.645618 
L 225.157022 -40.756046 
L 224.349556 -40.885399 
L 223.542089 -41.029225 
L 222.734623 -41.183073 
L 221.927157 -41.34249 
L 221.11969 -41.503027 
L 220.312224 -41.660231 
L 219.504758 -41.80965 
L 218.697292 -41.946834 
L 217.889825 -42.06733 
L 217.082359 -42.166687 
L 216.274893 -42.241596 
L 215.467426 -42.306736 
L 214.65996 -42.36752 
L 213.852494 -42.423473 
L 213.045027 -42.474116 
L 212.237561 -42.518973 
L 211.430095 -42.557567 
L 210.622628 -42.58942 
L 209.815162 -42.614056 
L 209.007696 -42.630997 
L 208.200229 -42.639767 
L 207.392763 -42.639888 
L 206.585297 -42.630884 
L 205.777831 -42.612277 
L 204.970364 -42.58359 
L 204.162898 -42.542606 
L 203.355432 -42.470053 
L 202.547965 -42.365209 
L 201.740499 -42.233794 
L 200.933033 -42.081523 
L 200.125566 -41.914116 
L 199.3181 -41.737291 
L 198.510634 -41.556765 
L 197.703167 -41.378257 
L 196.895701 -41.207485 
L 196.088235 -41.050166 
L 195.280769 -40.912018 
L 194.473302 -40.798761 
L 193.665836 -40.716111 
L 192.85837 -40.669786 
L 192.050903 -40.66427 
L 191.243437 -40.69061 
L 190.435971 -40.742427 
L 189.628504 -40.815527 
L 188.821038 -40.905716 
L 188.013572 -41.008801 
L 187.206105 -41.120588 
L 186.398639 -41.236883 
L 185.591173 -41.353493 
L 184.783706 -41.466223 
L 183.97624 -41.570881 
L 183.168774 -41.663272 
L 182.361308 -41.739202 
L 181.553841 -41.794479 
L 180.746375 -41.824908 
L 179.938909 -41.821194 
L 179.131442 -41.746685 
L 178.323976 -41.603652 
L 177.51651 -41.402736 
L 176.709043 -41.154577 
L 175.901577 -40.869816 
L 175.094111 -40.559094 
L 174.286644 -40.23305 
L 173.479178 -39.902325 
L 172.671712 -39.57756 
L 171.864246 -39.269395 
L 171.056779 -38.98847 
L 170.249313 -38.745426 
L 169.441847 -38.550904 
L 168.63438 -38.415543 
L 167.826914 -38.340739 
L 167.019448 -38.277715 
L 166.211981 -38.217789 
L 165.404515 -38.161083 
L 164.597049 -38.107723 
L 163.789582 -38.057831 
L 162.982116 -38.011532 
L 162.17465 -37.96895 
L 161.367184 -37.930208 
L 160.559717 -37.89543 
L 159.752251 -37.864741 
L 158.944785 -37.838265 
L 158.137318 -37.816124 
L 157.329852 -37.798444 
L 156.522386 -37.785347 
L 155.714919 -37.776415 
L 154.907453 -37.768998 
L 154.099987 -37.762635 
L 153.29252 -37.757227 
L 152.485054 -37.752671 
L 151.677588 -37.748864 
L 150.870121 -37.745704 
L 150.062655 -37.74309 
L 149.255189 -37.74092 
L 148.447723 -37.739091 
L 147.640256 -37.737501 
L 146.83279 -37.736048 
L 146.025324 -37.734631 
L 145.217857 -37.733147 
L 144.410391 -37.731493 
L 143.602925 -37.730344 
L 142.795458 -37.732559 
L 141.987992 -37.73787 
L 141.180526 -37.745648 
L 140.373059 -37.755267 
L 139.565593 -37.766099 
L 138.758127 -37.777516 
L 137.950661 -37.788891 
L 137.143194 -37.799597 
L 136.335728 -37.809005 
L 135.528262 -37.816489 
L 134.720795 -37.821421 
L 133.913329 -37.823173 
L 133.105863 -37.821119 
L 132.298396 -37.81463 
L 131.49093 -37.793671 
L 130.683464 -37.72861 
L 129.875997 -37.623423 
L 129.068531 -37.484966 
L 128.261065 -37.320097 
L 127.453599 -37.135669 
L 126.646132 -36.938541 
L 125.838666 -36.735569 
L 125.0312 -36.533608 
L 124.223733 -36.339515 
L 123.416267 -36.160146 
L 122.608801 -36.002358 
L 121.801334 -35.873006 
L 120.993868 -35.778948 
L 120.186402 -35.727039 
L 119.378935 -35.712181 
L 118.571469 -35.703096 
L 117.764003 -35.697299 
L 116.956536 -35.694391 
L 116.14907 -35.693976 
L 115.341604 -35.695654 
L 114.534138 -35.699027 
L 113.726671 -35.703699 
L 112.919205 -35.70927 
L 112.111739 -35.715343 
L 111.304272 -35.72152 
L 110.496806 -35.727402 
L 109.68934 -35.732593 
L 108.881873 -35.736693 
L 108.074407 -35.739305 
L 107.266941 -35.740747 
L 106.459474 -35.742498 
L 105.652008 -35.744483 
L 104.844542 -35.746549 
L 104.037076 -35.748544 
L 103.229609 -35.750315 
L 102.422143 -35.751711 
L 101.614677 -35.752578 
L 100.80721 -35.752765 
L 99.999744 -35.752118 
L 99.192278 -35.750486 
L 98.384811 -35.747716 
L 97.577345 -35.743656 
L 96.769879 -35.738153 
L 95.962412 -35.731056 
L 95.154946 -35.722989 
L 94.34748 -35.715452 
L 93.540013 -35.708427 
L 92.732547 -35.701847 
L 91.925081 -35.695644 
L 91.117615 -35.689752 
L 90.310148 -35.684104 
L 89.502682 -35.678633 
L 88.695216 -35.673272 
L 87.887749 -35.667955 
L 87.080283 -35.662614 
L 86.272817 -35.657182 
L 85.46535 -35.651594 
L 84.657884 -35.645781 
L 83.850418 -35.639677 
L 83.042951 -35.632107 
L 82.235485 -35.621406 
L 81.428019 -35.608045 
L 80.620553 -35.592531 
L 79.813086 -35.575373 
L 79.00562 -35.557078 
L 78.198154 -35.538154 
L 77.390687 -35.519108 
L 76.583221 -35.500448 
L 75.775755 -35.482681 
L 74.968288 -35.466316 
L 74.160822 -35.451859 
L 73.353356 -35.43982 
L 72.545889 -35.430704 
L 71.738423 -35.42502 
L 70.930957 -35.421866 
L 70.123491 -35.419331 
L 69.316024 -35.417304 
L 68.508558 -35.415688 
L 67.701092 -35.414388 
L 66.893625 -35.413308 
L 66.086159 -35.412351 
L 65.278693 -35.411423 
L 64.471226 -35.410426 
L 63.66376 -35.409266 
L 62.856294 -35.407847 
L 62.048827 -35.406071 
L 61.241361 -35.403845 
L 60.433895 -35.401071 
L 59.626428 -35.397654 
L 58.818962 -35.388478 
L 58.011496 -35.367924 
L 57.20403 -35.33677 
L 56.396563 -35.295812 
L 55.589097 -35.245844 
L 54.781631 -35.187662 
L 53.974164 -35.122061 
L 53.166698 -35.049834 
L 52.359232 -34.971778 
L 51.551765 -34.888687 
L 50.744299 -34.801355 
L 49.936833 -34.710578 
L 49.129366 -34.61715 
L 48.3219 -34.521867 
L 47.514434 -34.425523 
z
" style="stroke: #1f77b4; stroke-opacity: 0.7"/>
    </defs>
    <g clip-path="url(#pbae1301f11)">
     <use xlink:href="#m84f679ab8a" x="0" y="217.083125" style="fill: #1f77b4; fill-opacity: 0.7; stroke: #1f77b4; stroke-opacity: 0.7"/>
    </g>
   </g>
   <g id="FillBetweenPolyCollection_3">
    <defs>
     <path id="mb4aaffed02" d="M 47.514434 -34.425523 
L 47.514434 -34.425523 
L 48.3219 -34.521867 
L 49.129366 -34.61715 
L 49.936833 -34.710578 
L 50.744299 -34.801355 
L 51.551765 -34.888687 
L 52.359232 -34.971778 
L 53.166698 -35.049834 
L 53.974164 -35.122061 
L 54.781631 -35.187662 
L 55.589097 -35.245844 
L 56.396563 -35.295812 
L 57.20403 -35.33677 
L 58.011496 -35.367924 
L 58.818962 -35.388478 
L 59.626428 -35.397654 
L 60.433895 -35.401071 
L 61.241361 -35.403845 
L 62.048827 -35.406071 
L 62.856294 -35.407847 
L 63.66376 -35.409266 
L 64.471226 -35.410426 
L 65.278693 -35.411423 
L 66.086159 -35.412351 
L 66.893625 -35.413308 
L 67.701092 -35.414388 
L 68.508558 -35.415688 
L 69.316024 -35.417304 
L 70.123491 -35.419331 
L 70.930957 -35.421866 
L 71.738423 -35.42502 
L 72.545889 -35.430704 
L 73.353356 -35.43982 
L 74.160822 -35.451859 
L 74.968288 -35.466316 
L 75.775755 -35.482681 
L 76.583221 -35.500448 
L 77.390687 -35.519108 
L 78.198154 -35.538154 
L 79.00562 -35.557078 
L 79.813086 -35.575373 
L 80.620553 -35.592531 
L 81.428019 -35.608045 
L 82.235485 -35.621406 
L 83.042951 -35.632107 
L 83.850418 -35.639677 
L 84.657884 -35.645781 
L 85.46535 -35.651594 
L 86.272817 -35.657182 
L 87.080283 -35.662614 
L 87.887749 -35.667955 
L 88.695216 -35.673272 
L 89.502682 -35.678633 
L 90.310148 -35.684104 
L 91.117615 -35.689752 
L 91.925081 -35.695644 
L 92.732547 -35.701847 
L 93.540013 -35.708427 
L 94.34748 -35.715452 
L 95.154946 -35.722989 
L 95.962412 -35.731056 
L 96.769879 -35.738153 
L 97.577345 -35.743656 
L 98.384811 -35.747716 
L 99.192278 -35.750486 
L 99.999744 -35.752118 
L 100.80721 -35.752765 
L 101.614677 -35.752578 
L 102.422143 -35.751711 
L 103.229609 -35.750315 
L 104.037076 -35.748544 
L 104.844542 -35.746549 
L 105.652008 -35.744483 
L 106.459474 -35.742498 
L 107.266941 -35.740747 
L 108.074407 -35.739305 
L 108.881873 -35.736693 
L 109.68934 -35.732593 
L 110.496806 -35.727402 
L 111.304272 -35.72152 
L 112.111739 -35.715343 
L 112.919205 -35.70927 
L 113.726671 -35.703699 
L 114.534138 -35.699027 
L 115.341604 -35.695654 
L 116.14907 -35.693976 
L 116.956536 -35.694391 
L 117.764003 -35.697299 
L 118.571469 -35.703096 
L 119.378935 -35.712181 
L 120.186402 -35.727039 
L 120.993868 -35.778948 
L 121.801334 -35.873006 
L 122.608801 -36.002358 
L 123.416267 -36.160146 
L 124.223733 -36.339515 
L 125.0312 -36.533608 
L 125.838666 -36.735569 
L 126.646132 -36.938541 
L 127.453599 -37.135669 
L 128.261065 -37.320097 
L 129.068531 -37.484966 
L 129.875997 -37.623423 
L 130.683464 -37.72861 
L 131.49093 -37.793671 
L 132.298396 -37.81463 
L 133.105863 -37.821119 
L 133.913329 -37.823173 
L 134.720795 -37.821421 
L 135.528262 -37.816489 
L 136.335728 -37.809005 
L 137.143194 -37.799597 
L 137.950661 -37.788891 
L 138.758127 -37.777516 
L 139.565593 -37.766099 
L 140.373059 -37.755267 
L 141.180526 -37.745648 
L 141.987992 -37.73787 
L 142.795458 -37.732559 
L 143.602925 -37.730344 
L 144.410391 -37.731493 
L 145.217857 -37.733147 
L 146.025324 -37.734631 
L 146.83279 -37.736048 
L 147.640256 -37.737501 
L 148.447723 -37.739091 
L 149.255189 -37.74092 
L 150.062655 -37.74309 
L 150.870121 -37.745704 
L 151.677588 -37.748864 
L 152.485054 -37.752671 
L 153.29252 -37.757227 
L 154.099987 -37.762635 
L 154.907453 -37.768998 
L 155.714919 -37.776415 
L 156.522386 -37.785347 
L 157.329852 -37.798444 
L 158.137318 -37.816124 
L 158.944785 -37.838265 
L 159.752251 -37.864741 
L 160.559717 -37.89543 
L 161.367184 -37.930208 
L 162.17465 -37.96895 
L 162.982116 -38.011532 
L 163.789582 -38.057831 
L 164.597049 -38.107723 
L 165.404515 -38.161083 
L 166.211981 -38.217789 
L 167.019448 -38.277715 
L 167.826914 -38.340739 
L 168.63438 -38.415543 
L 169.441847 -38.550904 
L 170.249313 -38.745426 
L 171.056779 -38.98847 
L 171.864246 -39.269395 
L 172.671712 -39.57756 
L 173.479178 -39.902325 
L 174.286644 -40.23305 
L 175.094111 -40.559094 
L 175.901577 -40.869816 
L 176.709043 -41.154577 
L 177.51651 -41.402736 
L 178.323976 -41.603652 
L 179.131442 -41.746685 
L 179.938909 -41.821194 
L 180.746375 -41.824908 
L 181.553841 -41.794479 
L 182.361308 -41.739202 
L 183.168774 -41.663272 
L 183.97624 -41.570881 
L 184.783706 -41.466223 
L 185.591173 -41.353493 
L 186.398639 -41.236883 
L 187.206105 -41.120588 
L 188.013572 -41.008801 
L 188.821038 -40.905716 
L 189.628504 -40.815527 
L 190.435971 -40.742427 
L 191.243437 -40.69061 
L 192.050903 -40.66427 
L 192.85837 -40.669786 
L 193.665836 -40.716111 
L 194.473302 -40.798761 
L 195.280769 -40.912018 
L 196.088235 -41.050166 
L 196.895701 -41.207485 
L 197.703167 -41.378257 
L 198.510634 -41.556765 
L 199.3181 -41.737291 
L 200.125566 -41.914116 
L 200.933033 -42.081523 
L 201.740499 -42.233794 
L 202.547965 -42.365209 
L 203.355432 -42.470053 
L 204.162898 -42.542606 
L 204.970364 -42.58359 
L 205.777831 -42.612277 
L 206.585297 -42.630884 
L 207.392763 -42.639888 
L 208.200229 -42.639767 
L 209.007696 -42.630997 
L 209.815162 -42.614056 
L 210.622628 -42.58942 
L 211.430095 -42.557567 
L 212.237561 -42.518973 
L 213.045027 -42.474116 
L 213.852494 -42.423473 
L 214.65996 -42.36752 
L 215.467426 -42.306736 
L 216.274893 -42.241596 
L 217.082359 -42.166687 
L 217.889825 -42.06733 
L 218.697292 -41.946834 
L 219.504758 -41.80965 
L 220.312224 -41.660231 
L 221.11969 -41.503027 
L 221.927157 -41.34249 
L 222.734623 -41.183073 
L 223.542089 -41.029225 
L 224.349556 -40.885399 
L 225.157022 -40.756046 
L 225.964488 -40.645618 
L 226.771955 -40.558566 
L 227.579421 -40.499341 
L 228.386887 -40.472396 
L 229.194354 -40.498278 
L 230.00182 -40.611732 
L 230.809286 -40.801442 
L 231.616752 -41.054121 
L 232.424219 -41.356481 
L 233.231685 -41.695235 
L 234.039151 -42.057094 
L 234.846618 -42.42877 
L 235.654084 -42.796977 
L 236.46155 -43.148425 
L 237.269017 -43.469828 
L 238.076483 -43.747897 
L 238.883949 -43.969344 
L 239.691416 -44.120883 
L 240.498882 -44.189224 
L 241.306348 -44.18908 
L 242.113814 -44.173228 
L 242.921281 -44.145421 
L 243.728747 -44.107766 
L 244.536213 -44.062368 
L 245.34368 -44.011333 
L 246.151146 -43.956768 
L 246.958612 -43.900778 
L 247.766079 -43.845471 
L 248.573545 -43.792951 
L 249.381011 -43.745326 
L 250.188478 -43.7047 
L 250.995944 -43.673181 
L 251.80341 -43.652875 
L 252.610877 -43.645887 
L 253.418343 -43.681873 
L 254.225809 -43.802333 
L 255.033275 -43.995459 
L 255.840742 -44.248529 
L 256.648208 -44.548823 
L 257.455674 -44.883618 
L 258.263141 -45.240193 
L 259.070607 -45.605826 
L 259.878073 -45.967796 
L 260.68554 -46.31338 
L 261.493006 -46.629858 
L 262.300472 -46.904507 
L 263.107939 -47.124607 
L 263.915405 -47.277435 
L 264.722871 -47.35027 
L 265.530337 -47.364725 
L 266.337804 -47.366727 
L 267.14527 -47.358295 
L 267.952736 -47.341049 
L 268.760203 -47.316608 
L 269.567669 -47.286592 
L 270.375135 -47.252621 
L 271.182602 -47.216314 
L 271.990068 -47.17929 
L 272.797534 -47.143169 
L 273.605001 -47.109571 
L 274.412467 -47.080115 
L 275.219933 -47.056421 
L 276.0274 -47.040109 
L 276.834866 -47.032797 
L 277.642332 -47.03152 
L 278.449798 -47.031366 
L 279.257265 -47.032409 
L 280.064731 -47.034737 
L 280.872197 -47.038437 
L 281.679664 -47.043596 
L 282.48713 -47.050302 
L 283.294596 -47.058642 
L 284.102063 -47.068703 
L 284.909529 -47.080573 
L 285.716995 -47.09434 
L 286.524462 -47.11009 
L 287.331928 -47.127912 
L 288.139394 -47.147892 
L 288.94686 -47.170117 
L 288.94686 -47.200881 
L 288.94686 -47.200881 
L 288.139394 -47.17863 
L 287.331928 -47.158576 
L 286.524462 -47.140634 
L 285.716995 -47.124718 
L 284.909529 -47.110743 
L 284.102063 -47.098626 
L 283.294596 -47.088279 
L 282.48713 -47.079619 
L 281.679664 -47.07256 
L 280.872197 -47.067018 
L 280.064731 -47.062906 
L 279.257265 -47.060141 
L 278.449798 -47.058636 
L 277.642332 -47.058308 
L 276.834866 -47.059082 
L 276.0274 -47.065587 
L 275.219933 -47.080607 
L 274.412467 -47.102604 
L 273.605001 -47.130039 
L 272.797534 -47.161374 
L 271.990068 -47.19507 
L 271.182602 -47.229587 
L 270.375135 -47.263388 
L 269.567669 -47.294934 
L 268.760203 -47.322685 
L 267.952736 -47.345103 
L 267.14527 -47.36065 
L 266.337804 -47.367786 
L 265.530337 -47.364973 
L 264.722871 -47.35027 
L 263.915405 -47.277435 
L 263.107939 -47.124607 
L 262.300472 -46.904507 
L 261.493006 -46.629858 
L 260.68554 -46.31338 
L 259.878073 -45.967796 
L 259.070607 -45.605826 
L 258.263141 -45.240193 
L 257.455674 -44.883618 
L 256.648208 -44.548823 
L 255.840742 -44.248529 
L 255.033275 -43.995459 
L 254.225809 -43.802333 
L 253.418343 -43.681873 
L 252.610877 -43.645892 
L 251.80341 -43.653174 
L 250.995944 -43.674178 
L 250.188478 -43.706734 
L 249.381011 -43.748672 
L 248.573545 -43.797823 
L 247.766079 -43.852016 
L 246.958612 -43.909082 
L 246.151146 -43.96685 
L 245.34368 -44.023151 
L 244.536213 -44.075815 
L 243.728747 -44.122671 
L 242.921281 -44.161551 
L 242.113814 -44.190283 
L 241.306348 -44.206698 
L 240.498882 -44.206979 
L 239.691416 -44.138323 
L 238.883949 -43.986069 
L 238.076483 -43.763569 
L 237.269017 -43.484175 
L 236.46155 -43.161238 
L 235.654084 -42.80811 
L 234.846618 -42.438143 
L 234.039151 -42.064688 
L 233.231685 -41.701097 
L 232.424219 -41.360722 
L 231.616752 -41.056913 
L 230.809286 -40.803024 
L 230.00182 -40.612405 
L 229.194354 -40.498408 
L 228.386887 -40.472396 
L 227.579421 -40.499341 
L 226.771955 -40.558566 
L 225.964488 -40.645618 
L 225.157022 -40.756046 
L 224.349556 -40.885399 
L 223.542089 -41.029225 
L 222.734623 -41.183073 
L 221.927157 -41.34249 
L 221.11969 -41.503027 
L 220.312224 -41.660231 
L 219.504758 -41.80965 
L 218.697292 -41.946834 
L 217.889825 -42.06733 
L 217.082359 -42.166687 
L 216.274893 -42.241635 
L 215.467426 -42.307445 
L 214.65996 -42.369635 
L 213.852494 -42.42761 
L 213.045027 -42.480774 
L 212.237561 -42.528529 
L 211.430095 -42.570281 
L 210.622628 -42.605432 
L 209.815162 -42.633386 
L 209.007696 -42.653548 
L 208.200229 -42.665321 
L 207.392763 -42.668108 
L 206.585297 -42.661314 
L 205.777831 -42.644342 
L 204.970364 -42.616596 
L 204.162898 -42.575741 
L 203.355432 -42.502479 
L 202.547965 -42.396196 
L 201.740499 -42.26273 
L 200.933033 -42.107918 
L 200.125566 -41.937596 
L 199.3181 -41.757603 
L 198.510634 -41.573776 
L 197.703167 -41.391951 
L 196.895701 -41.217966 
L 196.088235 -41.057658 
L 195.280769 -40.916865 
L 194.473302 -40.801423 
L 193.665836 -40.71717 
L 192.85837 -40.669942 
L 192.050903 -40.66427 
L 191.243437 -40.69061 
L 190.435971 -40.742427 
L 189.628504 -40.815527 
L 188.821038 -40.905716 
L 188.013572 -41.008801 
L 187.206105 -41.120588 
L 186.398639 -41.236883 
L 185.591173 -41.353493 
L 184.783706 -41.466223 
L 183.97624 -41.570881 
L 183.168774 -41.663272 
L 182.361308 -41.739202 
L 181.553841 -41.794479 
L 180.746375 -41.824908 
L 179.938909 -41.821194 
L 179.131442 -41.746685 
L 178.323976 -41.603652 
L 177.51651 -41.402736 
L 176.709043 -41.154577 
L 175.901577 -40.869816 
L 175.094111 -40.559094 
L 174.286644 -40.23305 
L 173.479178 -39.902325 
L 172.671712 -39.57756 
L 171.864246 -39.269395 
L 171.056779 -38.98847 
L 170.249313 -38.745426 
L 169.441847 -38.550904 
L 168.63438 -38.415543 
L 167.826914 -38.340739 
L 167.019448 -38.277715 
L 166.211981 -38.217789 
L 165.404515 -38.161083 
L 164.597049 -38.107723 
L 163.789582 -38.057831 
L 162.982116 -38.011532 
L 162.17465 -37.96895 
L 161.367184 -37.930208 
L 160.559717 -37.89543 
L 159.752251 -37.864741 
L 158.944785 -37.838265 
L 158.137318 -37.816124 
L 157.329852 -37.798444 
L 156.522386 -37.785347 
L 155.714919 -37.776415 
L 154.907453 -37.768998 
L 154.099987 -37.762635 
L 153.29252 -37.757227 
L 152.485054 -37.752671 
L 151.677588 -37.748864 
L 150.870121 -37.745704 
L 150.062655 -37.74309 
L 149.255189 -37.74092 
L 148.447723 -37.739091 
L 147.640256 -37.737501 
L 146.83279 -37.736048 
L 146.025324 -37.734631 
L 145.217857 -37.733147 
L 144.410391 -37.731493 
L 143.602925 -37.730344 
L 142.795458 -37.732559 
L 141.987992 -37.73787 
L 141.180526 -37.745648 
L 140.373059 -37.755267 
L 139.565593 -37.766099 
L 138.758127 -37.777516 
L 137.950661 -37.788891 
L 137.143194 -37.799597 
L 136.335728 -37.809005 
L 135.528262 -37.816489 
L 134.720795 -37.821421 
L 133.913329 -37.823173 
L 133.105863 -37.821119 
L 132.298396 -37.81463 
L 131.49093 -37.793788 
L 130.683464 -37.729329 
L 129.875997 -37.625189 
L 129.068531 -37.488148 
L 128.261065 -37.324985 
L 127.453599 -37.142481 
L 126.646132 -36.947415 
L 125.838666 -36.746568 
L 125.0312 -36.546718 
L 124.223733 -36.354647 
L 123.416267 -36.177135 
L 122.608801 -36.02096 
L 121.801334 -35.892904 
L 120.993868 -35.799745 
L 120.186402 -35.748265 
L 119.378935 -35.733383 
L 118.571469 -35.724065 
L 117.764003 -35.717863 
L 116.956536 -35.7144 
L 116.14907 -35.713301 
L 115.341604 -35.714189 
L 114.534138 -35.716687 
L 113.726671 -35.720419 
L 112.919205 -35.725008 
L 112.111739 -35.730078 
L 111.304272 -35.735251 
L 110.496806 -35.740153 
L 109.68934 -35.744406 
L 108.881873 -35.747634 
L 108.074407 -35.749459 
L 107.266941 -35.750169 
L 106.459474 -35.751128 
L 105.652008 -35.752272 
L 104.844542 -35.753465 
L 104.037076 -35.754572 
L 103.229609 -35.755456 
L 102.422143 -35.755984 
L 101.614677 -35.756017 
L 100.80721 -35.755423 
L 99.999744 -35.754064 
L 99.192278 -35.751805 
L 98.384811 -35.74851 
L 97.577345 -35.744045 
L 96.769879 -35.738273 
L 95.962412 -35.731059 
L 95.154946 -35.722989 
L 94.34748 -35.715452 
L 93.540013 -35.708427 
L 92.732547 -35.701847 
L 91.925081 -35.695644 
L 91.117615 -35.689752 
L 90.310148 -35.684104 
L 89.502682 -35.678633 
L 88.695216 -35.673272 
L 87.887749 -35.667955 
L 87.080283 -35.662614 
L 86.272817 -35.657182 
L 85.46535 -35.651594 
L 84.657884 -35.645781 
L 83.850418 -35.639677 
L 83.042951 -35.632107 
L 82.235485 -35.621406 
L 81.428019 -35.608045 
L 80.620553 -35.592531 
L 79.813086 -35.575373 
L 79.00562 -35.557078 
L 78.198154 -35.538154 
L 77.390687 -35.519108 
L 76.583221 -35.500448 
L 75.775755 -35.482681 
L 74.968288 -35.466316 
L 74.160822 -35.451859 
L 73.353356 -35.43982 
L 72.545889 -35.430704 
L 71.738423 -35.42502 
L 70.930957 -35.421866 
L 70.123491 -35.419331 
L 69.316024 -35.417304 
L 68.508558 -35.415688 
L 67.701092 -35.414388 
L 66.893625 -35.413308 
L 66.086159 -35.412351 
L 65.278693 -35.411423 
L 64.471226 -35.410426 
L 63.66376 -35.409266 
L 62.856294 -35.407847 
L 62.048827 -35.406071 
L 61.241361 -35.403845 
L 60.433895 -35.401071 
L 59.626428 -35.397654 
L 58.818962 -35.388478 
L 58.011496 -35.367924 
L 57.20403 -35.33677 
L 56.396563 -35.295812 
L 55.589097 -35.245844 
L 54.781631 -35.187662 
L 53.974164 -35.122061 
L 53.166698 -35.049834 
L 52.359232 -34.971778 
L 51.551765 -34.888687 
L 50.744299 -34.801355 
L 49.936833 -34.710578 
L 49.129366 -34.61715 
L 48.3219 -34.521867 
L 47.514434 -34.425523 
z
" style="stroke: #2ca02c; stroke-opacity: 0.7"/>
    </defs>
    <g clip-path="url(#pbae1301f11)">
     <use xlink:href="#mb4aaffed02" x="0" y="217.083125" style="fill: #2ca02c; fill-opacity: 0.7; stroke: #2ca02c; stroke-opacity: 0.7"/>
    </g>
   </g>
   <g id="FillBetweenPolyCollection_4">
    <defs>
     <path id="m9c8dccb1bf" d="M 47.514434 -34.425523 
L 47.514434 -34.425523 
L 48.3219 -34.521867 
L 49.129366 -34.61715 
L 49.936833 -34.710578 
L 50.744299 -34.801355 
L 51.551765 -34.888687 
L 52.359232 -34.971778 
L 53.166698 -35.049834 
L 53.974164 -35.122061 
L 54.781631 -35.187662 
L 55.589097 -35.245844 
L 56.396563 -35.295812 
L 57.20403 -35.33677 
L 58.011496 -35.367924 
L 58.818962 -35.388478 
L 59.626428 -35.397654 
L 60.433895 -35.401071 
L 61.241361 -35.403845 
L 62.048827 -35.406071 
L 62.856294 -35.407847 
L 63.66376 -35.409266 
L 64.471226 -35.410426 
L 65.278693 -35.411423 
L 66.086159 -35.412351 
L 66.893625 -35.413308 
L 67.701092 -35.414388 
L 68.508558 -35.415688 
L 69.316024 -35.417304 
L 70.123491 -35.419331 
L 70.930957 -35.421866 
L 71.738423 -35.42502 
L 72.545889 -35.430704 
L 73.353356 -35.43982 
L 74.160822 -35.451859 
L 74.968288 -35.466316 
L 75.775755 -35.482681 
L 76.583221 -35.500448 
L 77.390687 -35.519108 
L 78.198154 -35.538154 
L 79.00562 -35.557078 
L 79.813086 -35.575373 
L 80.620553 -35.592531 
L 81.428019 -35.608045 
L 82.235485 -35.621406 
L 83.042951 -35.632107 
L 83.850418 -35.639677 
L 84.657884 -35.645781 
L 85.46535 -35.651594 
L 86.272817 -35.657182 
L 87.080283 -35.662614 
L 87.887749 -35.667955 
L 88.695216 -35.673272 
L 89.502682 -35.678633 
L 90.310148 -35.684104 
L 91.117615 -35.689752 
L 91.925081 -35.695644 
L 92.732547 -35.701847 
L 93.540013 -35.708427 
L 94.34748 -35.715452 
L 95.154946 -35.722989 
L 95.962412 -35.731059 
L 96.769879 -35.738273 
L 97.577345 -35.744045 
L 98.384811 -35.74851 
L 99.192278 -35.751805 
L 99.999744 -35.754064 
L 100.80721 -35.755423 
L 101.614677 -35.756017 
L 102.422143 -35.755984 
L 103.229609 -35.755456 
L 104.037076 -35.754572 
L 104.844542 -35.753465 
L 105.652008 -35.752272 
L 106.459474 -35.751128 
L 107.266941 -35.750169 
L 108.074407 -35.749459 
L 108.881873 -35.747634 
L 109.68934 -35.744406 
L 110.496806 -35.740153 
L 111.304272 -35.735251 
L 112.111739 -35.730078 
L 112.919205 -35.725008 
L 113.726671 -35.720419 
L 114.534138 -35.716687 
L 115.341604 -35.714189 
L 116.14907 -35.713301 
L 116.956536 -35.7144 
L 117.764003 -35.717863 
L 118.571469 -35.724065 
L 119.378935 -35.733383 
L 120.186402 -35.748265 
L 120.993868 -35.799745 
L 121.801334 -35.892904 
L 122.608801 -36.02096 
L 123.416267 -36.177135 
L 124.223733 -36.354647 
L 125.0312 -36.546718 
L 125.838666 -36.746568 
L 126.646132 -36.947415 
L 127.453599 -37.142481 
L 128.261065 -37.324985 
L 129.068531 -37.488148 
L 129.875997 -37.625189 
L 130.683464 -37.729329 
L 131.49093 -37.793788 
L 132.298396 -37.81463 
L 133.105863 -37.821119 
L 133.913329 -37.823173 
L 134.720795 -37.821421 
L 135.528262 -37.816489 
L 136.335728 -37.809005 
L 137.143194 -37.799597 
L 137.950661 -37.788891 
L 138.758127 -37.777516 
L 139.565593 -37.766099 
L 140.373059 -37.755267 
L 141.180526 -37.745648 
L 141.987992 -37.73787 
L 142.795458 -37.732559 
L 143.602925 -37.730344 
L 144.410391 -37.731493 
L 145.217857 -37.733147 
L 146.025324 -37.734631 
L 146.83279 -37.736048 
L 147.640256 -37.737501 
L 148.447723 -37.739091 
L 149.255189 -37.74092 
L 150.062655 -37.74309 
L 150.870121 -37.745704 
L 151.677588 -37.748864 
L 152.485054 -37.752671 
L 153.29252 -37.757227 
L 154.099987 -37.762635 
L 154.907453 -37.768998 
L 155.714919 -37.776415 
L 156.522386 -37.785347 
L 157.329852 -37.798444 
L 158.137318 -37.816124 
L 158.944785 -37.838265 
L 159.752251 -37.864741 
L 160.559717 -37.89543 
L 161.367184 -37.930208 
L 162.17465 -37.96895 
L 162.982116 -38.011532 
L 163.789582 -38.057831 
L 164.597049 -38.107723 
L 165.404515 -38.161083 
L 166.211981 -38.217789 
L 167.019448 -38.277715 
L 167.826914 -38.340739 
L 168.63438 -38.415543 
L 169.441847 -38.550904 
L 170.249313 -38.745426 
L 171.056779 -38.98847 
L 171.864246 -39.269395 
L 172.671712 -39.57756 
L 173.479178 -39.902325 
L 174.286644 -40.23305 
L 175.094111 -40.559094 
L 175.901577 -40.869816 
L 176.709043 -41.154577 
L 177.51651 -41.402736 
L 178.323976 -41.603652 
L 179.131442 -41.746685 
L 179.938909 -41.821194 
L 180.746375 -41.824908 
L 181.553841 -41.794479 
L 182.361308 -41.739202 
L 183.168774 -41.663272 
L 183.97624 -41.570881 
L 184.783706 -41.466223 
L 185.591173 -41.353493 
L 186.398639 -41.236883 
L 187.206105 -41.120588 
L 188.013572 -41.008801 
L 188.821038 -40.905716 
L 189.628504 -40.815527 
L 190.435971 -40.742427 
L 191.243437 -40.69061 
L 192.050903 -40.66427 
L 192.85837 -40.669942 
L 193.665836 -40.71717 
L 194.473302 -40.801423 
L 195.280769 -40.916865 
L 196.088235 -41.057658 
L 196.895701 -41.217966 
L 197.703167 -41.391951 
L 198.510634 -41.573776 
L 199.3181 -41.757603 
L 200.125566 -41.937596 
L 200.933033 -42.107918 
L 201.740499 -42.26273 
L 202.547965 -42.396196 
L 203.355432 -42.502479 
L 204.162898 -42.575741 
L 204.970364 -42.616596 
L 205.777831 -42.644342 
L 206.585297 -42.661314 
L 207.392763 -42.668108 
L 208.200229 -42.665321 
L 209.007696 -42.653548 
L 209.815162 -42.633386 
L 210.622628 -42.605432 
L 211.430095 -42.570281 
L 212.237561 -42.528529 
L 213.045027 -42.480774 
L 213.852494 -42.42761 
L 214.65996 -42.369635 
L 215.467426 -42.307445 
L 216.274893 -42.241635 
L 217.082359 -42.166687 
L 217.889825 -42.06733 
L 218.697292 -41.946834 
L 219.504758 -41.80965 
L 220.312224 -41.660231 
L 221.11969 -41.503027 
L 221.927157 -41.34249 
L 222.734623 -41.183073 
L 223.542089 -41.029225 
L 224.349556 -40.885399 
L 225.157022 -40.756046 
L 225.964488 -40.645618 
L 226.771955 -40.558566 
L 227.579421 -40.499341 
L 228.386887 -40.472396 
L 229.194354 -40.498408 
L 230.00182 -40.612405 
L 230.809286 -40.803024 
L 231.616752 -41.056913 
L 232.424219 -41.360722 
L 233.231685 -41.701097 
L 234.039151 -42.064688 
L 234.846618 -42.438143 
L 235.654084 -42.80811 
L 236.46155 -43.161238 
L 237.269017 -43.484175 
L 238.076483 -43.763569 
L 238.883949 -43.986069 
L 239.691416 -44.138323 
L 240.498882 -44.206979 
L 241.306348 -44.206698 
L 242.113814 -44.190283 
L 242.921281 -44.161551 
L 243.728747 -44.122671 
L 244.536213 -44.075815 
L 245.34368 -44.023151 
L 246.151146 -43.96685 
L 246.958612 -43.909082 
L 247.766079 -43.852016 
L 248.573545 -43.797823 
L 249.381011 -43.748672 
L 250.188478 -43.706734 
L 250.995944 -43.674178 
L 251.80341 -43.653174 
L 252.610877 -43.645892 
L 253.418343 -43.681873 
L 254.225809 -43.802333 
L 255.033275 -43.995459 
L 255.840742 -44.248529 
L 256.648208 -44.548823 
L 257.455674 -44.883618 
L 258.263141 -45.240193 
L 259.070607 -45.605826 
L 259.878073 -45.967796 
L 260.68554 -46.31338 
L 261.493006 -46.629858 
L 262.300472 -46.904507 
L 263.107939 -47.124607 
L 263.915405 -47.277435 
L 264.722871 -47.35027 
L 265.530337 -47.364973 
L 266.337804 -47.367786 
L 267.14527 -47.36065 
L 267.952736 -47.345103 
L 268.760203 -47.322685 
L 269.567669 -47.294934 
L 270.375135 -47.263388 
L 271.182602 -47.229587 
L 271.990068 -47.19507 
L 272.797534 -47.161374 
L 273.605001 -47.130039 
L 274.412467 -47.102604 
L 275.219933 -47.080607 
L 276.0274 -47.065587 
L 276.834866 -47.059082 
L 277.642332 -47.058308 
L 278.449798 -47.058636 
L 279.257265 -47.060141 
L 280.064731 -47.062906 
L 280.872197 -47.067018 
L 281.679664 -47.07256 
L 282.48713 -47.079619 
L 283.294596 -47.088279 
L 284.102063 -47.098626 
L 284.909529 -47.110743 
L 285.716995 -47.124718 
L 286.524462 -47.140634 
L 287.331928 -47.158576 
L 288.139394 -47.17863 
L 288.94686 -47.200881 
L 288.94686 -47.385464 
L 288.94686 -47.385464 
L 288.139394 -47.363138 
L 287.331928 -47.343018 
L 286.524462 -47.32502 
L 285.716995 -47.309057 
L 284.909529 -47.295043 
L 284.102063 -47.282893 
L 283.294596 -47.272521 
L 282.48713 -47.263841 
L 281.679664 -47.256767 
L 280.872197 -47.251213 
L 280.064731 -47.247095 
L 279.257265 -47.244325 
L 278.449798 -47.242819 
L 277.642332 -47.242489 
L 276.834866 -47.243271 
L 276.0274 -47.252989 
L 275.219933 -47.276493 
L 274.412467 -47.311422 
L 273.605001 -47.355419 
L 272.797534 -47.406125 
L 271.990068 -47.46118 
L 271.182602 -47.518226 
L 270.375135 -47.574904 
L 269.567669 -47.628855 
L 268.760203 -47.67772 
L 267.952736 -47.71914 
L 267.14527 -47.750756 
L 266.337804 -47.77021 
L 265.530337 -47.775142 
L 264.722871 -47.76281 
L 263.915405 -47.688677 
L 263.107939 -47.53257 
L 262.300472 -47.307462 
L 261.493006 -47.026324 
L 260.68554 -46.702129 
L 259.878073 -46.34785 
L 259.070607 -45.976457 
L 258.263141 -45.600925 
L 257.455674 -45.234224 
L 256.648208 -44.889327 
L 255.840742 -44.579207 
L 255.033275 -44.316835 
L 254.225809 -44.115184 
L 253.418343 -43.987227 
L 252.610877 -43.945007 
L 251.80341 -43.946476 
L 250.995944 -43.961576 
L 250.188478 -43.988201 
L 249.381011 -44.024243 
L 248.573545 -44.067593 
L 247.766079 -44.116144 
L 246.958612 -44.167789 
L 246.151146 -44.220418 
L 245.34368 -44.271925 
L 244.536213 -44.320201 
L 243.728747 -44.363139 
L 242.921281 -44.398631 
L 242.113814 -44.424568 
L 241.306348 -44.438844 
L 240.498882 -44.437688 
L 239.691416 -44.367866 
L 238.883949 -44.214496 
L 238.076483 -43.990936 
L 237.269017 -43.710541 
L 236.46155 -43.386667 
L 235.654084 -43.032672 
L 234.846618 -42.661912 
L 234.039151 -42.287742 
L 233.231685 -41.92352 
L 232.424219 -41.582602 
L 231.616752 -41.278345 
L 230.809286 -41.024104 
L 230.00182 -40.833236 
L 229.194354 -40.719098 
L 228.386887 -40.693061 
L 227.579421 -40.720157 
L 226.771955 -40.77971 
L 225.964488 -40.867239 
L 225.157022 -40.978265 
L 224.349556 -41.108308 
L 223.542089 -41.252887 
L 222.734623 -41.407523 
L 221.927157 -41.567735 
L 221.11969 -41.729045 
L 220.312224 -41.88697 
L 219.504758 -42.037032 
L 218.697292 -42.174751 
L 217.889825 -42.295646 
L 217.082359 -42.395238 
L 216.274893 -42.47016 
L 215.467426 -42.53468 
L 214.65996 -42.59415 
L 213.852494 -42.648192 
L 213.045027 -42.696424 
L 212.237561 -42.738465 
L 211.430095 -42.773936 
L 210.622628 -42.802456 
L 209.815162 -42.823644 
L 209.007696 -42.83712 
L 208.200229 -42.842503 
L 207.392763 -42.839413 
L 206.585297 -42.82747 
L 205.777831 -42.806292 
L 204.970364 -42.7755 
L 204.162898 -42.732882 
L 203.355432 -42.658206 
L 202.547965 -42.550562 
L 201.740499 -42.415797 
L 200.933033 -42.259754 
L 200.125566 -42.088277 
L 199.3181 -41.90721 
L 198.510634 -41.722398 
L 197.703167 -41.539686 
L 196.895701 -41.364916 
L 196.088235 -41.203935 
L 195.280769 -41.062585 
L 194.473302 -40.946712 
L 193.665836 -40.862159 
L 192.85837 -40.814772 
L 192.050903 -40.809145 
L 191.243437 -40.836267 
L 190.435971 -40.88962 
L 189.628504 -40.964888 
L 188.821038 -41.057753 
L 188.013572 -41.163895 
L 187.206105 -41.278998 
L 186.398639 -41.398742 
L 185.591173 -41.518811 
L 184.783706 -41.634885 
L 183.97624 -41.742647 
L 183.168774 -41.837778 
L 182.361308 -41.915961 
L 181.553841 -41.972877 
L 180.746375 -42.004208 
L 179.938909 -42.000272 
L 179.131442 -41.922555 
L 178.323976 -41.773391 
L 177.51651 -41.563905 
L 176.709043 -41.305222 
L 175.901577 -41.00847 
L 175.094111 -40.684773 
L 174.286644 -40.345257 
L 173.479178 -40.001048 
L 172.671712 -39.663272 
L 171.864246 -39.343055 
L 171.056779 -39.051521 
L 170.249313 -38.799798 
L 169.441847 -38.599011 
L 168.63438 -38.460285 
L 167.826914 -38.385347 
L 167.019448 -38.324673 
L 166.211981 -38.26912 
L 165.404515 -38.218473 
L 164.597049 -38.172519 
L 163.789582 -38.131041 
L 162.982116 -38.093826 
L 162.17465 -38.060657 
L 161.367184 -38.031321 
L 160.559717 -38.005601 
L 159.752251 -37.983284 
L 158.944785 -37.964154 
L 158.137318 -37.947997 
L 157.329852 -37.934597 
L 156.522386 -37.923739 
L 155.714919 -37.914716 
L 154.907453 -37.905046 
L 154.099987 -37.894592 
L 153.29252 -37.883563 
L 152.485054 -37.872166 
L 151.677588 -37.860612 
L 150.870121 -37.849107 
L 150.062655 -37.837861 
L 149.255189 -37.827081 
L 148.447723 -37.816976 
L 147.640256 -37.807755 
L 146.83279 -37.799626 
L 146.025324 -37.792797 
L 145.217857 -37.787477 
L 144.410391 -37.783874 
L 143.602925 -37.782626 
L 142.795458 -37.785327 
L 141.987992 -37.791499 
L 141.180526 -37.800451 
L 140.373059 -37.811491 
L 139.565593 -37.823928 
L 138.758127 -37.837071 
L 137.950661 -37.850228 
L 137.143194 -37.862708 
L 136.335728 -37.873818 
L 135.528262 -37.882868 
L 134.720795 -37.889165 
L 133.913329 -37.892019 
L 133.105863 -37.890738 
L 132.298396 -37.88463 
L 131.49093 -37.863798 
L 130.683464 -37.799239 
L 129.875997 -37.69492 
L 129.068531 -37.557627 
L 128.261065 -37.394147 
L 127.453599 -37.211267 
L 126.646132 -37.015773 
L 125.838666 -36.814454 
L 125.0312 -36.614096 
L 124.223733 -36.421485 
L 123.416267 -36.243409 
L 122.608801 -36.086655 
L 121.801334 -35.95801 
L 120.993868 -35.86426 
L 120.186402 -35.812193 
L 119.378935 -35.796681 
L 118.571469 -35.786549 
L 117.764003 -35.779374 
L 116.956536 -35.774813 
L 116.14907 -35.772525 
L 115.341604 -35.772166 
L 114.534138 -35.773396 
L 113.726671 -35.775871 
L 112.919205 -35.77925 
L 112.111739 -35.783191 
L 111.304272 -35.787351 
L 110.496806 -35.791388 
L 109.68934 -35.79496 
L 108.881873 -35.797725 
L 108.074407 -35.79934 
L 107.266941 -35.800421 
L 106.459474 -35.802976 
L 105.652008 -35.806788 
L 104.844542 -35.811535 
L 104.037076 -35.816892 
L 103.229609 -35.822538 
L 102.422143 -35.828149 
L 101.614677 -35.833403 
L 100.80721 -35.837977 
L 99.999744 -35.841548 
L 99.192278 -35.843793 
L 98.384811 -35.844389 
L 97.577345 -35.843013 
L 96.769879 -35.839343 
L 95.962412 -35.833055 
L 95.154946 -35.824505 
L 94.34748 -35.815024 
L 93.540013 -35.804806 
L 92.732547 -35.794004 
L 91.925081 -35.78277 
L 91.117615 -35.771259 
L 90.310148 -35.759622 
L 89.502682 -35.748014 
L 88.695216 -35.736588 
L 87.887749 -35.725497 
L 87.080283 -35.714894 
L 86.272817 -35.704933 
L 85.46535 -35.695766 
L 84.657884 -35.687547 
L 83.850418 -35.68043 
L 83.042951 -35.672974 
L 82.235485 -35.662738 
L 81.428019 -35.650129 
L 80.620553 -35.635604 
L 79.813086 -35.619618 
L 79.00562 -35.602629 
L 78.198154 -35.585094 
L 77.390687 -35.567469 
L 76.583221 -35.550211 
L 75.775755 -35.533776 
L 74.968288 -35.518621 
L 74.160822 -35.505204 
L 73.353356 -35.49398 
L 72.545889 -35.485406 
L 71.738423 -35.47994 
L 70.930957 -35.476569 
L 70.123491 -35.473313 
L 69.316024 -35.470118 
L 68.508558 -35.466946 
L 67.701092 -35.463759 
L 66.893625 -35.460519 
L 66.086159 -35.45719 
L 65.278693 -35.453734 
L 64.471226 -35.450113 
L 63.66376 -35.446288 
L 62.856294 -35.442224 
L 62.048827 -35.437882 
L 61.241361 -35.433224 
L 60.433895 -35.428214 
L 59.626428 -35.422813 
L 58.818962 -35.411822 
L 58.011496 -35.38947 
L 57.20403 -35.356538 
L 56.396563 -35.31382 
L 55.589097 -35.262112 
L 54.781631 -35.20221 
L 53.974164 -35.134907 
L 53.166698 -35.061 
L 52.359232 -34.981284 
L 51.551765 -34.896553 
L 50.744299 -34.807604 
L 49.936833 -34.715231 
L 49.129366 -34.62023 
L 48.3219 -34.523395 
L 47.514434 -34.425523 
z
" style="stroke: #ff7f0e; stroke-opacity: 0.7"/>
    </defs>
    <g clip-path="url(#pbae1301f11)">
     <use xlink:href="#m9c8dccb1bf" x="0" y="217.083125" style="fill: #ff7f0e; fill-opacity: 0.7; stroke: #ff7f0e; stroke-opacity: 0.7"/>
    </g>
   </g>
   <g id="patch_3">
    <path d="M 35.442813 182.68 
L 35.442813 7.2 
" style="fill: none; stroke: #000000; stroke-width: 0.5; stroke-linejoin: miter; stroke-linecap: square"/>
   </g>
   <g id="patch_4">
    <path d="M 35.442813 182.68 
L 301.018482 182.68 
" style="fill: none; stroke: #000000; stroke-width: 0.5; stroke-linejoin: miter; stroke-linecap: square"/>
   </g>
   <g id="legend_1">
    <g id="patch_5">
     <path d="M 44.442813 23.7 
L 64.442813 23.7 
L 64.442813 16.7 
L 44.442813 16.7 
z
" style="fill: #d62728; fill-opacity: 0.7; stroke: #d62728; stroke-opacity: 0.7; stroke-linejoin: miter"/>
    </g>
    <g id="text_14">
     <!-- Solo -->
     <g transform="translate(72.442813 23.7) scale(0.1 -0.1)">
      <defs>
       <path id="RobotoCondensed-Regular-53" d="M 2481 1150 
Q 2481 1469 2312 1656 
Q 2144 1844 1591 2042 
Q 1038 2241 713 2547 
Q 388 2853 388 3375 
Q 388 3906 741 4259 
Q 1094 4613 1691 4613 
Q 2356 4613 2706 4191 
Q 3056 3769 3056 3238 
L 2481 3238 
Q 2481 3619 2293 3869 
Q 2106 4119 1691 4119 
Q 1313 4119 1139 3908 
Q 966 3697 966 3381 
Q 966 3094 1170 2903 
Q 1375 2713 1806 2556 
Q 2475 2338 2765 2013 
Q 3056 1688 3056 1156 
Q 3056 600 2695 268 
Q 2334 -63 1719 -63 
Q 1363 -63 1028 93 
Q 694 250 480 558 
Q 266 866 266 1319 
L 841 1319 
Q 841 853 1098 640 
Q 1356 428 1719 428 
Q 2094 428 2287 623 
Q 2481 819 2481 1150 
z
" transform="scale(0.015625)"/>
       <path id="RobotoCondensed-Regular-6c" d="M 1009 4800 
L 1009 0 
L 459 0 
L 459 4800 
L 1009 4800 
z
" transform="scale(0.015625)"/>
      </defs>
      <use xlink:href="#RobotoCondensed-Regular-53"/>
      <use xlink:href="#RobotoCondensed-Regular-6f" transform="translate(51.855469 0)"/>
      <use xlink:href="#RobotoCondensed-Regular-6c" transform="translate(102.050781 0)"/>
      <use xlink:href="#RobotoCondensed-Regular-6f" transform="translate(125 0)"/>
     </g>
    </g>
    <g id="patch_6">
     <path d="M 44.442813 38.23125 
L 64.442813 38.23125 
L 64.442813 31.23125 
L 44.442813 31.23125 
z
" style="fill: #1f77b4; fill-opacity: 0.7; stroke: #1f77b4; stroke-opacity: 0.7; stroke-linejoin: miter"/>
    </g>
    <g id="text_15">
     <!-- Initial -->
     <g transform="translate(72.442813 38.23125) scale(0.1 -0.1)">
      <defs>
       <path id="RobotoCondensed-Regular-49" d="M 1091 4550 
L 1091 0 
L 516 0 
L 516 4550 
L 1091 4550 
z
" transform="scale(0.015625)"/>
      </defs>
      <use xlink:href="#RobotoCondensed-Regular-49"/>
      <use xlink:href="#RobotoCondensed-Regular-6e" transform="translate(25 0)"/>
      <use xlink:href="#RobotoCondensed-Regular-69" transform="translate(73.4375 0)"/>
      <use xlink:href="#RobotoCondensed-Regular-74" transform="translate(96.386719 0)"/>
      <use xlink:href="#RobotoCondensed-Regular-69" transform="translate(125.976562 0)"/>
      <use xlink:href="#RobotoCondensed-Regular-61" transform="translate(148.925781 0)"/>
      <use xlink:href="#RobotoCondensed-Regular-6c" transform="translate(196.826172 0)"/>
     </g>
    </g>
    <g id="patch_7">
     <path d="M 44.442813 52.7625 
L 64.442813 52.7625 
L 64.442813 45.7625 
L 44.442813 45.7625 
z
" style="fill: #2ca02c; fill-opacity: 0.7; stroke: #2ca02c; stroke-opacity: 0.7; stroke-linejoin: miter"/>
    </g>
    <g id="text_16">
     <!-- Middle -->
     <g transform="translate(72.442813 52.7625) scale(0.1 -0.1)">
      <defs>
       <path id="RobotoCondensed-Regular-4d" d="M 2419 841 
L 3606 4550 
L 4341 4550 
L 4341 0 
L 3769 0 
L 3769 1775 
L 3822 3538 
L 2634 0 
L 2197 0 
L 1009 3544 
L 1063 1775 
L 1063 0 
L 491 0 
L 491 4550 
L 1228 4550 
L 2419 841 
z
" transform="scale(0.015625)"/>
       <path id="RobotoCondensed-Regular-64" d="M 2234 0 
L 2209 366 
Q 1941 -63 1425 -63 
Q 925 -63 611 331 
Q 297 725 297 1528 
L 297 1844 
Q 297 2678 609 3061 
Q 922 3444 1431 3444 
Q 1922 3444 2188 3050 
L 2188 4800 
L 2738 4800 
L 2738 0 
L 2234 0 
z
M 850 1528 
Q 850 963 1019 695 
Q 1188 428 1569 428 
Q 1981 428 2188 847 
L 2188 2544 
Q 1972 2956 1575 2956 
Q 1194 2956 1023 2687 
Q 853 2419 850 1866 
L 850 1528 
z
" transform="scale(0.015625)"/>
      </defs>
      <use xlink:href="#RobotoCondensed-Regular-4d"/>
      <use xlink:href="#RobotoCondensed-Regular-69" transform="translate(75.537109 0)"/>
      <use xlink:href="#RobotoCondensed-Regular-64" transform="translate(98.486328 0)"/>
      <use xlink:href="#RobotoCondensed-Regular-64" transform="translate(148.095703 0)"/>
      <use xlink:href="#RobotoCondensed-Regular-6c" transform="translate(197.705078 0)"/>
      <use xlink:href="#RobotoCondensed-Regular-65" transform="translate(220.654297 0)"/>
     </g>
    </g>
    <g id="patch_8">
     <path d="M 44.442813 67.29375 
L 64.442813 67.29375 
L 64.442813 60.29375 
L 44.442813 60.29375 
z
" style="fill: #ff7f0e; fill-opacity: 0.7; stroke: #ff7f0e; stroke-opacity: 0.7; stroke-linejoin: miter"/>
    </g>
    <g id="text_17">
     <!-- End -->
     <g transform="translate(72.442813 67.29375) scale(0.1 -0.1)">
      <defs>
       <path id="RobotoCondensed-Regular-45" d="M 491 0 
L 491 4550 
L 2906 4550 
L 2906 4056 
L 1066 4056 
L 1066 2594 
L 2672 2594 
L 2672 2103 
L 1066 2103 
L 1066 491 
L 2938 491 
L 2938 0 
L 491 0 
z
" transform="scale(0.015625)"/>
      </defs>
      <use xlink:href="#RobotoCondensed-Regular-45"/>
      <use xlink:href="#RobotoCondensed-Regular-6e" transform="translate(49.707031 0)"/>
      <use xlink:href="#RobotoCondensed-Regular-64" transform="translate(98.144531 0)"/>
     </g>
    </g>
   </g>
  </g>
 </g>
 <defs>
  <clipPath id="pbae1301f11">
   <rect x="35.442813" y="7.2" width="265.575669" height="175.48"/>
  </clipPath>
 </defs>
</svg>
