<?xml version="1.0" encoding="utf-8" standalone="no"?>
<!DOCTYPE svg PUBLIC "-//W3C//DTD SVG 1.1//EN"
  "http://www.w3.org/Graphics/SVG/1.1/DTD/svg11.dtd">
<svg xmlns:xlink="http://www.w3.org/1999/xlink" width="314.133169pt" height="217.533125pt" viewBox="0 0 314.133169 217.533125" xmlns="http://www.w3.org/2000/svg" version="1.1">
 <metadata>
  <rdf:RDF xmlns:dc="http://purl.org/dc/elements/1.1/" xmlns:cc="http://creativecommons.org/ns#" xmlns:rdf="http://www.w3.org/1999/02/22-rdf-syntax-ns#">
   <cc:Work>
    <dc:type rdf:resource="http://purl.org/dc/dcmitype/StillImage"/>
    <dc:date>2026-04-28T10:06:38.671965</dc:date>
    <dc:format>image/svg+xml</dc:format>
    <dc:creator>
     <cc:Agent>
      <dc:title>Matplotlib v3.10.7, https://matplotlib.org/</dc:title>
     </cc:Agent>
    </dc:creator>
   </cc:Work>
  </rdf:RDF>
 </metadata>
 <defs>
  <style type="text/css">*{stroke-linejoin: round; stroke-linecap: butt}</style>
 </defs>
 <g id="figure_1">
  <g id="patch_1">
   <path d="M -0 217.533125 
L 314.133169 217.533125 
L 314.133169 -0 
L -0 -0 
z
" style="fill: #ffffff"/>
  </g>
  <g id="axes_1">
   <g id="patch_2">
    <path d="M 38.404375 183.13 
L 301.010044 183.13 
L 301.010044 9.45 
L 38.404375 9.45 
z
" style="fill: #ffffff"/>
   </g>
   <g id="matplotlib.axis_1">
    <g id="xtick_1">
     <g id="line2d_1">
      <defs>
       <path id="m49b7922850" d="M 0 0 
L 0 3.5 
" style="stroke: #000000; stroke-width: 0.8"/>
      </defs>
      <g>
       <use xlink:href="#m49b7922850" x="50.340996" y="183.13" style="stroke: #000000; stroke-width: 0.8"/>
      </g>
     </g>
     <g id="text_1">
      <!-- 1989 -->
      <g transform="translate(44.417871 194.63) scale(0.06 -0.06)">
       <defs>
        <path id="RobotoCondensed-Regular-31" d="M 2013 4575 
L 2013 0 
L 1459 0 
L 1459 3853 
L 503 3428 
L 503 3950 
L 1928 4575 
L 2013 4575 
z
" transform="scale(0.015625)"/>
        <path id="RobotoCondensed-Regular-39" d="M 2744 2563 
Q 2744 2119 2687 1667 
Q 2631 1216 2450 836 
Q 2269 456 1903 225 
Q 1538 -6 869 -6 
L 866 484 
Q 1428 484 1698 690 
Q 1969 897 2072 1233 
Q 2175 1569 2191 1950 
Q 1859 1522 1413 1522 
Q 1025 1522 786 1747 
Q 547 1972 436 2320 
Q 325 2669 325 3041 
Q 325 3691 623 4152 
Q 922 4613 1522 4613 
Q 1969 4613 2237 4344 
Q 2506 4075 2625 3653 
Q 2744 3231 2744 2772 
L 2744 2563 
z
M 866 3072 
Q 866 2666 1020 2334 
Q 1175 2003 1506 2003 
Q 1716 2003 1906 2179 
Q 2097 2356 2194 2616 
L 2194 2850 
Q 2194 3472 1983 3803 
Q 1772 4134 1522 4134 
Q 1206 4134 1036 3829 
Q 866 3525 866 3072 
z
" transform="scale(0.015625)"/>
        <path id="RobotoCondensed-Regular-38" d="M 2794 1231 
Q 2794 606 2445 271 
Q 2097 -63 1578 -63 
Q 1063 -63 714 273 
Q 366 609 366 1231 
Q 366 1613 536 1905 
Q 706 2197 1000 2347 
Q 450 2666 450 3366 
Q 450 3963 769 4288 
Q 1088 4613 1581 4613 
Q 2075 4613 2392 4288 
Q 2709 3963 2709 3366 
Q 2709 3028 2557 2761 
Q 2406 2494 2150 2344 
Q 2444 2194 2619 1901 
Q 2794 1609 2794 1231 
z
M 2156 3356 
Q 2156 3697 2000 3917 
Q 1844 4138 1581 4138 
Q 1319 4138 1161 3927 
Q 1003 3716 1003 3356 
Q 1003 3003 1159 2790 
Q 1316 2578 1581 2578 
Q 1844 2578 2000 2790 
Q 2156 3003 2156 3356 
z
M 2244 1244 
Q 2244 1625 2061 1865 
Q 1878 2106 1575 2106 
Q 1266 2106 1091 1865 
Q 916 1625 916 1244 
Q 916 850 1089 631 
Q 1263 413 1578 413 
Q 1897 413 2070 631 
Q 2244 850 2244 1244 
z
" transform="scale(0.015625)"/>
       </defs>
       <use xlink:href="#RobotoCondensed-Regular-31"/>
       <use xlink:href="#RobotoCondensed-Regular-39" transform="translate(49.365234 0)"/>
       <use xlink:href="#RobotoCondensed-Regular-38" transform="translate(98.730469 0)"/>
       <use xlink:href="#RobotoCondensed-Regular-39" transform="translate(148.095703 0)"/>
      </g>
     </g>
    </g>
    <g id="xtick_2">
     <g id="line2d_2">
      <g>
       <use xlink:href="#m49b7922850" x="86.15086" y="183.13" style="stroke: #000000; stroke-width: 0.8"/>
      </g>
     </g>
     <g id="text_2">
      <!-- 1992 -->
      <g transform="translate(80.227735 194.63) scale(0.06 -0.06)">
       <defs>
        <path id="RobotoCondensed-Regular-32" d="M 2909 475 
L 2909 0 
L 366 0 
L 366 416 
L 1628 2088 
Q 1966 2541 2077 2802 
Q 2188 3063 2188 3328 
Q 2188 3663 2027 3900 
Q 1866 4138 1575 4138 
Q 1194 4138 1022 3878 
Q 850 3619 850 3213 
L 297 3213 
Q 297 3788 617 4200 
Q 938 4613 1575 4613 
Q 2125 4613 2433 4278 
Q 2741 3944 2741 3397 
Q 2741 2997 2541 2594 
Q 2341 2191 2047 1809 
L 1028 475 
L 2909 475 
z
" transform="scale(0.015625)"/>
       </defs>
       <use xlink:href="#RobotoCondensed-Regular-31"/>
       <use xlink:href="#RobotoCondensed-Regular-39" transform="translate(49.365234 0)"/>
       <use xlink:href="#RobotoCondensed-Regular-39" transform="translate(98.730469 0)"/>
       <use xlink:href="#RobotoCondensed-Regular-32" transform="translate(148.095703 0)"/>
      </g>
     </g>
    </g>
    <g id="xtick_3">
     <g id="line2d_3">
      <g>
       <use xlink:href="#m49b7922850" x="121.960724" y="183.13" style="stroke: #000000; stroke-width: 0.8"/>
      </g>
     </g>
     <g id="text_3">
      <!-- 1995 -->
      <g transform="translate(116.037599 194.63) scale(0.06 -0.06)">
       <defs>
        <path id="RobotoCondensed-Regular-35" d="M 1034 2166 
L 594 2284 
L 788 4550 
L 2769 4550 
L 2769 4016 
L 1253 4016 
L 1147 2778 
Q 1438 2975 1753 2975 
Q 2288 2975 2591 2561 
Q 2894 2147 2894 1450 
Q 2894 797 2584 367 
Q 2275 -63 1656 -63 
Q 1194 -63 850 248 
Q 506 559 453 1197 
L 975 1197 
Q 1066 413 1656 413 
Q 1978 413 2159 691 
Q 2341 969 2341 1444 
Q 2341 1872 2153 2164 
Q 1966 2456 1619 2456 
Q 1384 2456 1273 2378 
Q 1163 2300 1034 2166 
z
" transform="scale(0.015625)"/>
       </defs>
       <use xlink:href="#RobotoCondensed-Regular-31"/>
       <use xlink:href="#RobotoCondensed-Regular-39" transform="translate(49.365234 0)"/>
       <use xlink:href="#RobotoCondensed-Regular-39" transform="translate(98.730469 0)"/>
       <use xlink:href="#RobotoCondensed-Regular-35" transform="translate(148.095703 0)"/>
      </g>
     </g>
    </g>
    <g id="xtick_4">
     <g id="line2d_4">
      <g>
       <use xlink:href="#m49b7922850" x="157.770588" y="183.13" style="stroke: #000000; stroke-width: 0.8"/>
      </g>
     </g>
     <g id="text_4">
      <!-- 1998 -->
      <g transform="translate(151.847463 194.63) scale(0.06 -0.06)">
       <use xlink:href="#RobotoCondensed-Regular-31"/>
       <use xlink:href="#RobotoCondensed-Regular-39" transform="translate(49.365234 0)"/>
       <use xlink:href="#RobotoCondensed-Regular-39" transform="translate(98.730469 0)"/>
       <use xlink:href="#RobotoCondensed-Regular-38" transform="translate(148.095703 0)"/>
      </g>
     </g>
    </g>
    <g id="xtick_5">
     <g id="line2d_5">
      <g>
       <use xlink:href="#m49b7922850" x="193.580452" y="183.13" style="stroke: #000000; stroke-width: 0.8"/>
      </g>
     </g>
     <g id="text_5">
      <!-- 2001 -->
      <g transform="translate(187.657327 194.63) scale(0.06 -0.06)">
       <defs>
        <path id="RobotoCondensed-Regular-30" d="M 2797 1944 
Q 2797 825 2467 381 
Q 2138 -63 1581 -63 
Q 1038 -63 703 370 
Q 369 803 359 1878 
L 359 2638 
Q 359 3753 695 4183 
Q 1031 4613 1578 4613 
Q 2131 4613 2461 4189 
Q 2791 3766 2797 2681 
L 2797 1944 
z
M 2247 2734 
Q 2247 3503 2073 3822 
Q 1900 4141 1578 4141 
Q 1266 4141 1092 3833 
Q 919 3525 913 2791 
L 913 1850 
Q 913 1088 1089 750 
Q 1266 413 1581 413 
Q 1903 413 2072 738 
Q 2241 1063 2247 1794 
L 2247 2734 
z
" transform="scale(0.015625)"/>
       </defs>
       <use xlink:href="#RobotoCondensed-Regular-32"/>
       <use xlink:href="#RobotoCondensed-Regular-30" transform="translate(49.365234 0)"/>
       <use xlink:href="#RobotoCondensed-Regular-30" transform="translate(98.730469 0)"/>
       <use xlink:href="#RobotoCondensed-Regular-31" transform="translate(148.095703 0)"/>
      </g>
     </g>
    </g>
    <g id="xtick_6">
     <g id="line2d_6">
      <g>
       <use xlink:href="#m49b7922850" x="229.390316" y="183.13" style="stroke: #000000; stroke-width: 0.8"/>
      </g>
     </g>
     <g id="text_6">
      <!-- 2004 -->
      <g transform="translate(223.467191 194.63) scale(0.06 -0.06)">
       <defs>
        <path id="RobotoCondensed-Regular-34" d="M 188 1397 
L 1878 4550 
L 2463 4550 
L 2463 1531 
L 2969 1531 
L 2969 1056 
L 2463 1056 
L 2463 0 
L 1909 0 
L 1909 1056 
L 188 1056 
L 188 1397 
z
M 803 1531 
L 1909 1531 
L 1909 3703 
L 1878 3638 
L 803 1531 
z
" transform="scale(0.015625)"/>
       </defs>
       <use xlink:href="#RobotoCondensed-Regular-32"/>
       <use xlink:href="#RobotoCondensed-Regular-30" transform="translate(49.365234 0)"/>
       <use xlink:href="#RobotoCondensed-Regular-30" transform="translate(98.730469 0)"/>
       <use xlink:href="#RobotoCondensed-Regular-34" transform="translate(148.095703 0)"/>
      </g>
     </g>
    </g>
    <g id="xtick_7">
     <g id="line2d_7">
      <g>
       <use xlink:href="#m49b7922850" x="265.20018" y="183.13" style="stroke: #000000; stroke-width: 0.8"/>
      </g>
     </g>
     <g id="text_7">
      <!-- 2007 -->
      <g transform="translate(259.277055 194.63) scale(0.06 -0.06)">
       <defs>
        <path id="RobotoCondensed-Regular-37" d="M 2878 4550 
L 2878 4225 
L 1313 0 
L 731 0 
L 2297 4075 
L 269 4075 
L 269 4550 
L 2878 4550 
z
" transform="scale(0.015625)"/>
       </defs>
       <use xlink:href="#RobotoCondensed-Regular-32"/>
       <use xlink:href="#RobotoCondensed-Regular-30" transform="translate(49.365234 0)"/>
       <use xlink:href="#RobotoCondensed-Regular-30" transform="translate(98.730469 0)"/>
       <use xlink:href="#RobotoCondensed-Regular-37" transform="translate(148.095703 0)"/>
      </g>
     </g>
    </g>
    <g id="xtick_8">
     <g id="line2d_8">
      <g>
       <use xlink:href="#m49b7922850" x="301.010044" y="183.13" style="stroke: #000000; stroke-width: 0.8"/>
      </g>
     </g>
     <g id="text_8">
      <!-- 2010 -->
      <g transform="translate(295.086919 194.63) scale(0.06 -0.06)">
       <use xlink:href="#RobotoCondensed-Regular-32"/>
       <use xlink:href="#RobotoCondensed-Regular-30" transform="translate(49.365234 0)"/>
       <use xlink:href="#RobotoCondensed-Regular-31" transform="translate(98.730469 0)"/>
       <use xlink:href="#RobotoCondensed-Regular-30" transform="translate(148.095703 0)"/>
      </g>
     </g>
    </g>
    <g id="text_9">
     <!-- Year -->
     <g transform="translate(159.931819 208.09875) scale(0.11 -0.11)">
      <defs>
       <path id="RobotoCondensed-Regular-59" d="M 747 4550 
L 1675 2266 
L 2606 4550 
L 3256 4550 
L 1963 1700 
L 1963 0 
L 1388 0 
L 1388 1700 
L 94 4550 
L 747 4550 
z
" transform="scale(0.015625)"/>
       <path id="RobotoCondensed-Regular-65" d="M 2722 447 
Q 2584 253 2323 95 
Q 2063 -63 1625 -63 
Q 1019 -63 666 301 
Q 313 666 309 1431 
L 309 1828 
Q 309 2722 696 3083 
Q 1084 3444 1563 3444 
Q 2197 3444 2472 3034 
Q 2747 2625 2747 1850 
L 2747 1528 
L 863 1528 
L 863 1447 
Q 863 906 1067 657 
Q 1272 409 1656 409 
Q 1934 409 2114 517 
Q 2294 625 2431 794 
L 2722 447 
z
M 1563 2969 
Q 1275 2969 1084 2770 
Q 894 2572 866 2000 
L 2194 2000 
L 2194 2078 
Q 2172 2469 2048 2719 
Q 1925 2969 1563 2969 
z
" transform="scale(0.015625)"/>
       <path id="RobotoCondensed-Regular-61" d="M 2156 0 
Q 2103 122 2081 366 
Q 1966 194 1775 65 
Q 1584 -63 1334 -63 
Q 891 -63 623 187 
Q 356 438 356 922 
Q 356 1409 690 1729 
Q 1025 2050 1691 2050 
L 2072 2050 
L 2072 2413 
Q 2072 2713 1936 2841 
Q 1800 2969 1528 2969 
Q 1263 2969 1114 2812 
Q 966 2656 966 2444 
L 413 2444 
Q 413 2806 722 3125 
Q 1031 3444 1556 3444 
Q 2025 3444 2325 3209 
Q 2625 2975 2625 2406 
L 2625 794 
Q 2625 316 2728 50 
L 2728 0 
L 2156 0 
z
M 1419 441 
Q 1653 441 1825 562 
Q 1997 684 2072 834 
L 2072 1644 
L 1781 1644 
Q 1384 1644 1146 1475 
Q 909 1306 909 991 
Q 909 688 1036 564 
Q 1163 441 1419 441 
z
" transform="scale(0.015625)"/>
       <path id="RobotoCondensed-Regular-72" d="M 1563 2888 
Q 1138 2888 969 2425 
L 969 0 
L 416 0 
L 416 3381 
L 950 3381 
L 963 3041 
Q 1184 3444 1591 3444 
Q 1738 3444 1809 3400 
L 1813 2863 
Q 1691 2888 1563 2888 
z
" transform="scale(0.015625)"/>
      </defs>
      <use xlink:href="#RobotoCondensed-Regular-59"/>
      <use xlink:href="#RobotoCondensed-Regular-65" transform="translate(52.490234 0)"/>
      <use xlink:href="#RobotoCondensed-Regular-61" transform="translate(99.365234 0)"/>
      <use xlink:href="#RobotoCondensed-Regular-72" transform="translate(147.265625 0)"/>
     </g>
    </g>
   </g>
   <g id="matplotlib.axis_2">
    <g id="ytick_1">
     <g id="line2d_9">
      <path d="M 38.404375 183.13 
L 301.010044 183.13 
" clip-path="url(#pc5e6ab3421)" style="fill: none; stroke: #808080; stroke-opacity: 0.3; stroke-width: 0.5; stroke-linecap: square"/>
     </g>
     <g id="line2d_10">
      <defs>
       <path id="m23ea63be67" d="M 0 0 
L -3.5 0 
" style="stroke: #000000; stroke-width: 0.8"/>
      </defs>
      <g>
       <use xlink:href="#m23ea63be67" x="38.404375" y="183.13" style="stroke: #000000; stroke-width: 0.8"/>
      </g>
     </g>
     <g id="text_10">
      <!-- 0% -->
      <g transform="translate(24.645937 185.38) scale(0.06 -0.06)">
       <defs>
        <path id="RobotoCondensed-Regular-25" d="M 334 3675 
Q 334 4063 545 4339 
Q 756 4616 1128 4616 
Q 1506 4616 1717 4339 
Q 1928 4063 1928 3675 
L 1928 3434 
Q 1928 3053 1718 2776 
Q 1509 2500 1134 2500 
Q 759 2500 546 2776 
Q 334 3053 334 3434 
L 334 3675 
z
M 741 3434 
Q 741 3219 836 3047 
Q 931 2875 1134 2875 
Q 1331 2875 1426 3045 
Q 1522 3216 1522 3434 
L 1522 3675 
Q 1522 3894 1425 4067 
Q 1328 4241 1128 4241 
Q 931 4241 836 4067 
Q 741 3894 741 3675 
L 741 3434 
z
M 3116 3903 
L 1250 347 
L 944 553 
L 2813 4109 
L 3116 3903 
z
M 2172 1116 
Q 2172 1500 2384 1776 
Q 2597 2053 2969 2053 
Q 3344 2053 3555 1776 
Q 3766 1500 3766 1116 
L 3766 872 
Q 3766 488 3555 211 
Q 3344 -66 2972 -66 
Q 2597 -66 2384 211 
Q 2172 488 2172 872 
L 2172 1116 
z
M 2578 872 
Q 2578 653 2675 481 
Q 2772 309 2972 309 
Q 3169 309 3264 479 
Q 3359 650 3359 872 
L 3359 1116 
Q 3359 1338 3262 1508 
Q 3166 1678 2969 1678 
Q 2772 1678 2675 1508 
Q 2578 1338 2578 1116 
L 2578 872 
z
" transform="scale(0.015625)"/>
       </defs>
       <use xlink:href="#RobotoCondensed-Regular-30"/>
       <use xlink:href="#RobotoCondensed-Regular-25" transform="translate(49.365234 0)"/>
      </g>
     </g>
    </g>
    <g id="ytick_2">
     <g id="line2d_11">
      <path d="M 38.404375 148.394 
L 301.010044 148.394 
" clip-path="url(#pc5e6ab3421)" style="fill: none; stroke: #808080; stroke-opacity: 0.3; stroke-width: 0.5; stroke-linecap: square"/>
     </g>
     <g id="line2d_12">
      <g>
       <use xlink:href="#m23ea63be67" x="38.404375" y="148.394" style="stroke: #000000; stroke-width: 0.8"/>
      </g>
     </g>
     <g id="text_11">
      <!-- 2% -->
      <g transform="translate(24.645937 150.644) scale(0.06 -0.06)">
       <use xlink:href="#RobotoCondensed-Regular-32"/>
       <use xlink:href="#RobotoCondensed-Regular-25" transform="translate(49.365234 0)"/>
      </g>
     </g>
    </g>
    <g id="ytick_3">
     <g id="line2d_13">
      <path d="M 38.404375 113.658 
L 301.010044 113.658 
" clip-path="url(#pc5e6ab3421)" style="fill: none; stroke: #808080; stroke-opacity: 0.3; stroke-width: 0.5; stroke-linecap: square"/>
     </g>
     <g id="line2d_14">
      <g>
       <use xlink:href="#m23ea63be67" x="38.404375" y="113.658" style="stroke: #000000; stroke-width: 0.8"/>
      </g>
     </g>
     <g id="text_12">
      <!-- 4% -->
      <g transform="translate(24.645937 115.908) scale(0.06 -0.06)">
       <use xlink:href="#RobotoCondensed-Regular-34"/>
       <use xlink:href="#RobotoCondensed-Regular-25" transform="translate(49.365234 0)"/>
      </g>
     </g>
    </g>
    <g id="ytick_4">
     <g id="line2d_15">
      <path d="M 38.404375 78.922 
L 301.010044 78.922 
" clip-path="url(#pc5e6ab3421)" style="fill: none; stroke: #808080; stroke-opacity: 0.3; stroke-width: 0.5; stroke-linecap: square"/>
     </g>
     <g id="line2d_16">
      <g>
       <use xlink:href="#m23ea63be67" x="38.404375" y="78.922" style="stroke: #000000; stroke-width: 0.8"/>
      </g>
     </g>
     <g id="text_13">
      <!-- 6% -->
      <g transform="translate(24.645937 81.172) scale(0.06 -0.06)">
       <defs>
        <path id="RobotoCondensed-Regular-36" d="M 2847 1484 
Q 2847 838 2544 387 
Q 2241 -63 1641 -63 
Q 1216 -63 944 198 
Q 672 459 542 861 
Q 413 1263 413 1684 
L 413 1956 
Q 413 2438 481 2900 
Q 550 3363 742 3738 
Q 934 4113 1296 4334 
Q 1659 4556 2291 4556 
L 2291 4066 
Q 1775 4066 1508 3859 
Q 1241 3653 1122 3318 
Q 1003 2984 978 2606 
Q 1272 2984 1750 2984 
Q 2138 2984 2380 2765 
Q 2622 2547 2734 2201 
Q 2847 1856 2847 1484 
z
M 969 1666 
Q 969 1059 1180 737 
Q 1391 416 1641 416 
Q 1959 416 2129 708 
Q 2300 1000 2300 1456 
Q 2300 1863 2144 2184 
Q 1988 2506 1659 2506 
Q 1425 2506 1236 2329 
Q 1047 2153 969 1900 
L 969 1666 
z
" transform="scale(0.015625)"/>
       </defs>
       <use xlink:href="#RobotoCondensed-Regular-36"/>
       <use xlink:href="#RobotoCondensed-Regular-25" transform="translate(49.365234 0)"/>
      </g>
     </g>
    </g>
    <g id="ytick_5">
     <g id="line2d_17">
      <path d="M 38.404375 44.186 
L 301.010044 44.186 
" clip-path="url(#pc5e6ab3421)" style="fill: none; stroke: #808080; stroke-opacity: 0.3; stroke-width: 0.5; stroke-linecap: square"/>
     </g>
     <g id="line2d_18">
      <g>
       <use xlink:href="#m23ea63be67" x="38.404375" y="44.186" style="stroke: #000000; stroke-width: 0.8"/>
      </g>
     </g>
     <g id="text_14">
      <!-- 8% -->
      <g transform="translate(24.645937 46.436) scale(0.06 -0.06)">
       <use xlink:href="#RobotoCondensed-Regular-38"/>
       <use xlink:href="#RobotoCondensed-Regular-25" transform="translate(49.365234 0)"/>
      </g>
     </g>
    </g>
    <g id="ytick_6">
     <g id="line2d_19">
      <path d="M 38.404375 9.45 
L 301.010044 9.45 
" clip-path="url(#pc5e6ab3421)" style="fill: none; stroke: #808080; stroke-opacity: 0.3; stroke-width: 0.5; stroke-linecap: square"/>
     </g>
     <g id="line2d_20">
      <g>
       <use xlink:href="#m23ea63be67" x="38.404375" y="9.45" style="stroke: #000000; stroke-width: 0.8"/>
      </g>
     </g>
     <g id="text_15">
      <!-- 10% -->
      <g transform="translate(21.684375 11.7) scale(0.06 -0.06)">
       <use xlink:href="#RobotoCondensed-Regular-31"/>
       <use xlink:href="#RobotoCondensed-Regular-30" transform="translate(49.365234 0)"/>
       <use xlink:href="#RobotoCondensed-Regular-25" transform="translate(98.730469 0)"/>
      </g>
     </g>
    </g>
    <g id="text_16">
     <!-- Proportion -->
     <g transform="translate(15.45 119.239609) rotate(-90) scale(0.11 -0.11)">
      <defs>
       <path id="RobotoCondensed-Regular-50" d="M 1066 1784 
L 1066 0 
L 491 0 
L 491 4550 
L 1941 4550 
Q 2600 4550 2951 4159 
Q 3303 3769 3303 3163 
Q 3303 2506 2954 2147 
Q 2606 1788 1950 1784 
L 1066 1784 
z
M 1066 4056 
L 1066 2275 
L 1941 2275 
Q 2359 2275 2543 2522 
Q 2728 2769 2728 3156 
Q 2728 3506 2543 3781 
Q 2359 4056 1941 4056 
L 1066 4056 
z
" transform="scale(0.015625)"/>
       <path id="RobotoCondensed-Regular-6f" d="M 300 1850 
Q 300 2641 678 3042 
Q 1056 3444 1603 3444 
Q 2156 3444 2536 3042 
Q 2916 2641 2916 1850 
L 2916 1528 
Q 2916 738 2536 337 
Q 2156 -63 1609 -63 
Q 1059 -63 679 337 
Q 300 738 300 1528 
L 300 1850 
z
M 853 1528 
Q 853 969 1068 689 
Q 1284 409 1609 409 
Q 2341 409 2363 1466 
L 2363 1850 
Q 2363 2403 2145 2686 
Q 1928 2969 1603 2969 
Q 1281 2969 1067 2686 
Q 853 2403 853 1850 
L 853 1528 
z
" transform="scale(0.015625)"/>
       <path id="RobotoCondensed-Regular-70" d="M 1750 -63 
Q 1244 -63 969 325 
L 969 -1300 
L 416 -1300 
L 416 3381 
L 919 3381 
L 947 3013 
Q 1222 3444 1744 3444 
Q 2275 3444 2562 3073 
Q 2850 2703 2859 1897 
L 2859 1528 
Q 2859 725 2570 331 
Q 2281 -63 1750 -63 
z
M 1572 2956 
Q 1181 2956 969 2559 
L 969 797 
Q 1178 409 1578 409 
Q 2288 409 2306 1472 
L 2306 1844 
Q 2306 2956 1572 2956 
z
" transform="scale(0.015625)"/>
       <path id="RobotoCondensed-Regular-74" d="M 1647 0 
Q 1488 -63 1259 -63 
Q 991 -63 789 134 
Q 588 331 588 841 
L 588 2938 
L 72 2938 
L 72 3381 
L 588 3381 
L 588 4203 
L 1141 4203 
L 1141 3381 
L 1650 3381 
L 1650 2938 
L 1141 2938 
L 1141 838 
Q 1141 578 1230 506 
Q 1319 434 1431 434 
Q 1550 434 1650 472 
L 1647 0 
z
" transform="scale(0.015625)"/>
       <path id="RobotoCondensed-Regular-69" d="M 428 4278 
Q 428 4419 506 4516 
Q 584 4613 741 4613 
Q 894 4613 975 4516 
Q 1056 4419 1056 4278 
Q 1056 4144 975 4048 
Q 894 3953 741 3953 
Q 584 3953 506 4048 
Q 428 4144 428 4278 
z
M 1009 3381 
L 1009 0 
L 459 0 
L 459 3381 
L 1009 3381 
z
" transform="scale(0.015625)"/>
       <path id="RobotoCondensed-Regular-6e" d="M 1603 2956 
Q 1400 2956 1236 2818 
Q 1072 2681 969 2459 
L 969 0 
L 416 0 
L 416 3381 
L 938 3381 
L 953 3022 
Q 1275 3444 1775 3444 
Q 2191 3444 2437 3162 
Q 2684 2881 2684 2216 
L 2684 0 
L 2131 0 
L 2131 2222 
Q 2131 2619 2000 2787 
Q 1869 2956 1603 2956 
z
" transform="scale(0.015625)"/>
      </defs>
      <use xlink:href="#RobotoCondensed-Regular-50"/>
      <use xlink:href="#RobotoCondensed-Regular-72" transform="translate(55.419922 0)"/>
      <use xlink:href="#RobotoCondensed-Regular-6f" transform="translate(85.888672 0)"/>
      <use xlink:href="#RobotoCondensed-Regular-70" transform="translate(136.083984 0)"/>
      <use xlink:href="#RobotoCondensed-Regular-6f" transform="translate(185.400391 0)"/>
      <use xlink:href="#RobotoCondensed-Regular-72" transform="translate(235.595703 0)"/>
      <use xlink:href="#RobotoCondensed-Regular-74" transform="translate(266.064453 0)"/>
      <use xlink:href="#RobotoCondensed-Regular-69" transform="translate(295.654297 0)"/>
      <use xlink:href="#RobotoCondensed-Regular-6f" transform="translate(318.603516 0)"/>
      <use xlink:href="#RobotoCondensed-Regular-6e" transform="translate(368.798828 0)"/>
     </g>
    </g>
   </g>
   <g id="FillBetweenPolyCollection_1">
    <defs>
     <path id="mc525b66ad9" d="M 50.340996 -45.435541 
L 50.340996 -34.403125 
L 51.139433 -34.403125 
L 51.937869 -34.403125 
L 52.736305 -34.403125 
L 53.534741 -34.403125 
L 54.333177 -34.403125 
L 55.131614 -34.403125 
L 55.93005 -34.403125 
L 56.728486 -34.403125 
L 57.526922 -34.403125 
L 58.325358 -34.403125 
L 59.123795 -34.403125 
L 59.922231 -34.403125 
L 60.720667 -34.403125 
L 61.519103 -34.403125 
L 62.317539 -34.403125 
L 63.115976 -34.403125 
L 63.914412 -34.403125 
L 64.712848 -34.403125 
L 65.511284 -34.403125 
L 66.309721 -34.403125 
L 67.108157 -34.403125 
L 67.906593 -34.403125 
L 68.705029 -34.403125 
L 69.503465 -34.403125 
L 70.301902 -34.403125 
L 71.100338 -34.403125 
L 71.898774 -34.403125 
L 72.69721 -34.403125 
L 73.495646 -34.403125 
L 74.294083 -34.403125 
L 75.092519 -34.403125 
L 75.890955 -34.403125 
L 76.689391 -34.403125 
L 77.487827 -34.403125 
L 78.286264 -34.403125 
L 79.0847 -34.403125 
L 79.883136 -34.403125 
L 80.681572 -34.403125 
L 81.480009 -34.403125 
L 82.278445 -34.403125 
L 83.076881 -34.403125 
L 83.875317 -34.403125 
L 84.673753 -34.403125 
L 85.47219 -34.403125 
L 86.270626 -34.403125 
L 87.069062 -34.403125 
L 87.867498 -34.403125 
L 88.665934 -34.403125 
L 89.464371 -34.403125 
L 90.262807 -34.403125 
L 91.061243 -34.403125 
L 91.859679 -34.403125 
L 92.658115 -34.403125 
L 93.456552 -34.403125 
L 94.254988 -34.403125 
L 95.053424 -34.403125 
L 95.85186 -34.403125 
L 96.650296 -34.403125 
L 97.448733 -34.403125 
L 98.247169 -34.403125 
L 99.045605 -34.403125 
L 99.844041 -34.403125 
L 100.642478 -34.403125 
L 101.440914 -34.403125 
L 102.23935 -34.403125 
L 103.037786 -34.403125 
L 103.836222 -34.403125 
L 104.634659 -34.403125 
L 105.433095 -34.403125 
L 106.231531 -34.403125 
L 107.029967 -34.403125 
L 107.828403 -34.403125 
L 108.62684 -34.403125 
L 109.425276 -34.403125 
L 110.223712 -34.403125 
L 111.022148 -34.403125 
L 111.820584 -34.403125 
L 112.619021 -34.403125 
L 113.417457 -34.403125 
L 114.215893 -34.403125 
L 115.014329 -34.403125 
L 115.812766 -34.403125 
L 116.611202 -34.403125 
L 117.409638 -34.403125 
L 118.208074 -34.403125 
L 119.00651 -34.403125 
L 119.804947 -34.403125 
L 120.603383 -34.403125 
L 121.401819 -34.403125 
L 122.200255 -34.403125 
L 122.998691 -34.403125 
L 123.797128 -34.403125 
L 124.595564 -34.403125 
L 125.394 -34.403125 
L 126.192436 -34.403125 
L 126.990872 -34.403125 
L 127.789309 -34.403125 
L 128.587745 -34.403125 
L 129.386181 -34.403125 
L 130.184617 -34.403125 
L 130.983053 -34.403125 
L 131.78149 -34.403125 
L 132.579926 -34.403125 
L 133.378362 -34.403125 
L 134.176798 -34.403125 
L 134.975235 -34.403125 
L 135.773671 -34.403125 
L 136.572107 -34.403125 
L 137.370543 -34.403125 
L 138.168979 -34.403125 
L 138.967416 -34.403125 
L 139.765852 -34.403125 
L 140.564288 -34.403125 
L 141.362724 -34.403125 
L 142.16116 -34.403125 
L 142.959597 -34.403125 
L 143.758033 -34.403125 
L 144.556469 -34.403125 
L 145.354905 -34.403125 
L 146.153341 -34.403125 
L 146.951778 -34.403125 
L 147.750214 -34.403125 
L 148.54865 -34.403125 
L 149.347086 -34.403125 
L 150.145523 -34.403125 
L 150.943959 -34.403125 
L 151.742395 -34.403125 
L 152.540831 -34.403125 
L 153.339267 -34.403125 
L 154.137704 -34.403125 
L 154.93614 -34.403125 
L 155.734576 -34.403125 
L 156.533012 -34.403125 
L 157.331448 -34.403125 
L 158.129885 -34.403125 
L 158.928321 -34.403125 
L 159.726757 -34.403125 
L 160.525193 -34.403125 
L 161.323629 -34.403125 
L 162.122066 -34.403125 
L 162.920502 -34.403125 
L 163.718938 -34.403125 
L 164.517374 -34.403125 
L 165.31581 -34.403125 
L 166.114247 -34.403125 
L 166.912683 -34.403125 
L 167.711119 -34.403125 
L 168.509555 -34.403125 
L 169.307992 -34.403125 
L 170.106428 -34.403125 
L 170.904864 -34.403125 
L 171.7033 -34.403125 
L 172.501736 -34.403125 
L 173.300173 -34.403125 
L 174.098609 -34.403125 
L 174.897045 -34.403125 
L 175.695481 -34.403125 
L 176.493917 -34.403125 
L 177.292354 -34.403125 
L 178.09079 -34.403125 
L 178.889226 -34.403125 
L 179.687662 -34.403125 
L 180.486098 -34.403125 
L 181.284535 -34.403125 
L 182.082971 -34.403125 
L 182.881407 -34.403125 
L 183.679843 -34.403125 
L 184.47828 -34.403125 
L 185.276716 -34.403125 
L 186.075152 -34.403125 
L 186.873588 -34.403125 
L 187.672024 -34.403125 
L 188.470461 -34.403125 
L 189.268897 -34.403125 
L 190.067333 -34.403125 
L 190.865769 -34.403125 
L 191.664205 -34.403125 
L 192.462642 -34.403125 
L 193.261078 -34.403125 
L 194.059514 -34.403125 
L 194.85795 -34.403125 
L 195.656386 -34.403125 
L 196.454823 -34.403125 
L 197.253259 -34.403125 
L 198.051695 -34.403125 
L 198.850131 -34.403125 
L 199.648568 -34.403125 
L 200.447004 -34.403125 
L 201.24544 -34.403125 
L 202.043876 -34.403125 
L 202.842312 -34.403125 
L 203.640749 -34.403125 
L 204.439185 -34.403125 
L 205.237621 -34.403125 
L 206.036057 -34.403125 
L 206.834493 -34.403125 
L 207.63293 -34.403125 
L 208.431366 -34.403125 
L 209.229802 -34.403125 
L 210.028238 -34.403125 
L 210.826674 -34.403125 
L 211.625111 -34.403125 
L 212.423547 -34.403125 
L 213.221983 -34.403125 
L 214.020419 -34.403125 
L 214.818855 -34.403125 
L 215.617292 -34.403125 
L 216.415728 -34.403125 
L 217.214164 -34.403125 
L 218.0126 -34.403125 
L 218.811037 -34.403125 
L 219.609473 -34.403125 
L 220.407909 -34.403125 
L 221.206345 -34.403125 
L 222.004781 -34.403125 
L 222.803218 -34.403125 
L 223.601654 -34.403125 
L 224.40009 -34.403125 
L 225.198526 -34.403125 
L 225.996962 -34.403125 
L 226.795399 -34.403125 
L 227.593835 -34.403125 
L 228.392271 -34.403125 
L 229.190707 -34.403125 
L 229.989143 -34.403125 
L 230.78758 -34.403125 
L 231.586016 -34.403125 
L 232.384452 -34.403125 
L 233.182888 -34.403125 
L 233.981325 -34.403125 
L 234.779761 -34.403125 
L 235.578197 -34.403125 
L 236.376633 -34.403125 
L 237.175069 -34.403125 
L 237.973506 -34.403125 
L 238.771942 -34.403125 
L 239.570378 -34.403125 
L 240.368814 -34.403125 
L 241.16725 -34.403125 
L 241.965687 -34.403125 
L 242.764123 -34.403125 
L 243.562559 -34.403125 
L 244.360995 -34.403125 
L 245.159431 -34.403125 
L 245.957868 -34.403125 
L 246.756304 -34.403125 
L 247.55474 -34.403125 
L 248.353176 -34.403125 
L 249.151612 -34.403125 
L 249.950049 -34.403125 
L 250.748485 -34.403125 
L 251.546921 -34.403125 
L 252.345357 -34.403125 
L 253.143794 -34.403125 
L 253.94223 -34.403125 
L 254.740666 -34.403125 
L 255.539102 -34.403125 
L 256.337538 -34.403125 
L 257.135975 -34.403125 
L 257.934411 -34.403125 
L 258.732847 -34.403125 
L 259.531283 -34.403125 
L 260.329719 -34.403125 
L 261.128156 -34.403125 
L 261.926592 -34.403125 
L 262.725028 -34.403125 
L 263.523464 -34.403125 
L 264.3219 -34.403125 
L 265.120337 -34.403125 
L 265.918773 -34.403125 
L 266.717209 -34.403125 
L 267.515645 -34.403125 
L 268.314082 -34.403125 
L 269.112518 -34.403125 
L 269.910954 -34.403125 
L 270.70939 -34.403125 
L 271.507826 -34.403125 
L 272.306263 -34.403125 
L 273.104699 -34.403125 
L 273.903135 -34.403125 
L 274.701571 -34.403125 
L 275.500007 -34.403125 
L 276.298444 -34.403125 
L 277.09688 -34.403125 
L 277.895316 -34.403125 
L 278.693752 -34.403125 
L 279.492188 -34.403125 
L 280.290625 -34.403125 
L 281.089061 -34.403125 
L 281.887497 -34.403125 
L 282.685933 -34.403125 
L 283.484369 -34.403125 
L 284.282806 -34.403125 
L 285.081242 -34.403125 
L 285.879678 -34.403125 
L 286.678114 -34.403125 
L 287.476551 -34.403125 
L 288.274987 -34.403125 
L 289.073423 -34.403125 
L 289.073423 -40.036056 
L 289.073423 -40.036056 
L 288.274987 -39.977304 
L 287.476551 -39.922369 
L 286.678114 -39.871288 
L 285.879678 -39.824098 
L 285.081242 -39.780836 
L 284.282806 -39.74154 
L 283.484369 -39.706246 
L 282.685933 -39.674991 
L 281.887497 -39.647812 
L 281.089061 -39.624746 
L 280.290625 -39.605831 
L 279.492188 -39.591102 
L 278.693752 -39.580598 
L 277.895316 -39.574355 
L 277.09688 -39.572419 
L 276.298444 -39.578364 
L 275.500007 -39.594056 
L 274.701571 -39.617978 
L 273.903135 -39.648613 
L 273.104699 -39.684445 
L 272.306263 -39.723956 
L 271.507826 -39.765628 
L 270.70939 -39.807945 
L 269.910954 -39.84939 
L 269.112518 -39.888445 
L 268.314082 -39.923594 
L 267.515645 -39.95332 
L 266.717209 -39.976104 
L 265.918773 -39.990431 
L 265.120337 -39.994804 
L 264.3219 -39.990729 
L 263.523464 -39.980563 
L 262.725028 -39.965259 
L 261.926592 -39.945775 
L 261.128156 -39.923066 
L 260.329719 -39.898087 
L 259.531283 -39.871793 
L 258.732847 -39.845142 
L 257.934411 -39.819087 
L 257.135975 -39.794586 
L 256.337538 -39.772593 
L 255.539102 -39.754065 
L 254.740666 -39.739956 
L 253.94223 -39.731223 
L 253.143794 -39.728835 
L 252.345357 -39.734181 
L 251.546921 -39.7472 
L 250.748485 -39.767167 
L 249.950049 -39.793358 
L 249.151612 -39.825049 
L 248.353176 -39.861514 
L 247.55474 -39.902029 
L 246.756304 -39.945871 
L 245.957868 -39.992314 
L 245.159431 -40.040633 
L 244.360995 -40.090105 
L 243.562559 -40.140004 
L 242.764123 -40.189607 
L 241.965687 -40.238188 
L 241.16725 -40.285126 
L 240.368814 -40.33323 
L 239.570378 -40.383963 
L 238.771942 -40.437211 
L 237.973506 -40.492862 
L 237.175069 -40.550802 
L 236.376633 -40.610917 
L 235.578197 -40.673093 
L 234.779761 -40.737218 
L 233.981325 -40.803178 
L 233.182888 -40.870859 
L 232.384452 -40.940147 
L 231.586016 -41.01093 
L 230.78758 -41.083094 
L 229.989143 -41.156525 
L 229.190707 -41.231212 
L 228.392271 -41.309222 
L 227.593835 -41.391112 
L 226.795399 -41.476493 
L 225.996962 -41.564975 
L 225.198526 -41.656169 
L 224.40009 -41.749685 
L 223.601654 -41.845133 
L 222.803218 -41.942125 
L 222.004781 -42.040271 
L 221.206345 -42.13918 
L 220.407909 -42.238465 
L 219.609473 -42.337735 
L 218.811037 -42.436601 
L 218.0126 -42.534673 
L 217.214164 -42.632269 
L 216.415728 -42.739477 
L 215.617292 -42.857538 
L 214.818855 -42.983649 
L 214.020419 -43.115005 
L 213.221983 -43.248802 
L 212.423547 -43.382235 
L 211.625111 -43.512501 
L 210.826674 -43.636794 
L 210.028238 -43.752311 
L 209.229802 -43.856247 
L 208.431366 -43.945797 
L 207.63293 -44.018158 
L 206.834493 -44.070524 
L 206.036057 -44.100092 
L 205.237621 -44.10537 
L 204.439185 -44.100246 
L 203.640749 -44.08985 
L 202.842312 -44.075041 
L 202.043876 -44.056681 
L 201.24544 -44.03563 
L 200.447004 -44.01275 
L 199.648568 -43.988902 
L 198.850131 -43.964946 
L 198.051695 -43.941743 
L 197.253259 -43.920154 
L 196.454823 -43.901041 
L 195.656386 -43.885263 
L 194.85795 -43.873683 
L 194.059514 -43.867161 
L 193.261078 -43.868036 
L 192.462642 -43.889452 
L 191.664205 -43.931583 
L 190.865769 -43.991018 
L 190.067333 -44.064348 
L 189.268897 -44.148163 
L 188.470461 -44.239054 
L 187.672024 -44.33361 
L 186.873588 -44.428421 
L 186.075152 -44.520079 
L 185.276716 -44.605173 
L 184.47828 -44.680293 
L 183.679843 -44.74203 
L 182.881407 -44.786974 
L 182.082971 -44.811714 
L 181.284535 -44.813498 
L 180.486098 -44.795654 
L 179.687662 -44.760889 
L 178.889226 -44.711204 
L 178.09079 -44.648599 
L 177.292354 -44.575075 
L 176.493917 -44.492633 
L 175.695481 -44.403274 
L 174.897045 -44.308997 
L 174.098609 -44.211803 
L 173.300173 -44.113694 
L 172.501736 -44.016669 
L 171.7033 -43.922729 
L 170.904864 -43.833875 
L 170.106428 -43.752107 
L 169.307992 -43.67699 
L 168.509555 -43.595869 
L 167.711119 -43.50822 
L 166.912683 -43.415949 
L 166.114247 -43.320963 
L 165.31581 -43.225171 
L 164.517374 -43.130479 
L 163.718938 -43.038794 
L 162.920502 -42.952025 
L 162.122066 -42.872077 
L 161.323629 -42.800859 
L 160.525193 -42.740277 
L 159.726757 -42.69224 
L 158.928321 -42.658654 
L 158.129885 -42.641426 
L 157.331448 -42.649586 
L 156.533012 -42.71582 
L 155.734576 -42.836139 
L 154.93614 -43.001415 
L 154.137704 -43.20252 
L 153.339267 -43.430325 
L 152.540831 -43.675703 
L 151.742395 -43.929524 
L 150.943959 -44.18266 
L 150.145523 -44.425984 
L 149.347086 -44.650366 
L 148.54865 -44.846679 
L 147.750214 -45.005793 
L 146.951778 -45.118582 
L 146.153341 -45.175915 
L 145.354905 -45.173183 
L 144.556469 -45.126201 
L 143.758033 -45.042377 
L 142.959597 -44.927515 
L 142.16116 -44.787413 
L 141.362724 -44.627873 
L 140.564288 -44.454696 
L 139.765852 -44.273682 
L 138.967416 -44.090633 
L 138.168979 -43.911349 
L 137.370543 -43.74163 
L 136.572107 -43.587279 
L 135.773671 -43.454095 
L 134.975235 -43.34788 
L 134.176798 -43.274433 
L 133.378362 -43.230973 
L 132.579926 -43.191204 
L 131.78149 -43.152963 
L 130.983053 -43.116462 
L 130.184617 -43.081912 
L 129.386181 -43.049525 
L 128.587745 -43.019512 
L 127.789309 -42.992085 
L 126.990872 -42.967457 
L 126.192436 -42.945837 
L 125.394 -42.927439 
L 124.595564 -42.912473 
L 123.797128 -42.901152 
L 122.998691 -42.893687 
L 122.200255 -42.890289 
L 121.401819 -42.894321 
L 120.603383 -42.914158 
L 119.804947 -42.948627 
L 119.00651 -42.995942 
L 118.208074 -43.054318 
L 117.409638 -43.121972 
L 116.611202 -43.197118 
L 115.812766 -43.277973 
L 115.014329 -43.362752 
L 114.215893 -43.44967 
L 113.417457 -43.536944 
L 112.619021 -43.622788 
L 111.820584 -43.705418 
L 111.022148 -43.78305 
L 110.223712 -43.853899 
L 109.425276 -43.921056 
L 108.62684 -43.994705 
L 107.828403 -44.073696 
L 107.029967 -44.156342 
L 106.231531 -44.240953 
L 105.433095 -44.32584 
L 104.634659 -44.409315 
L 103.836222 -44.489689 
L 103.037786 -44.565273 
L 102.23935 -44.634379 
L 101.440914 -44.695317 
L 100.642478 -44.746399 
L 99.844041 -44.785935 
L 99.045605 -44.812238 
L 98.247169 -44.823619 
L 97.448733 -44.821236 
L 96.650296 -44.810825 
L 95.85186 -44.793723 
L 95.053424 -44.77111 
L 94.254988 -44.744164 
L 93.456552 -44.714065 
L 92.658115 -44.681991 
L 91.859679 -44.649121 
L 91.061243 -44.616634 
L 90.262807 -44.585709 
L 89.464371 -44.557525 
L 88.665934 -44.533262 
L 87.867498 -44.514097 
L 87.069062 -44.50121 
L 86.270626 -44.49578 
L 85.47219 -44.509746 
L 84.673753 -44.559218 
L 83.875317 -44.639142 
L 83.076881 -44.744104 
L 82.278445 -44.86869 
L 81.480009 -45.007488 
L 80.681572 -45.155082 
L 79.883136 -45.306061 
L 79.0847 -45.455008 
L 78.286264 -45.596513 
L 77.487827 -45.725159 
L 76.689391 -45.835535 
L 75.890955 -45.922226 
L 75.092519 -45.979818 
L 74.294083 -46.002899 
L 73.495646 -46.002735 
L 72.69721 -46.001496 
L 71.898774 -45.999419 
L 71.100338 -45.996545 
L 70.301902 -45.992914 
L 69.503465 -45.988566 
L 68.705029 -45.983541 
L 67.906593 -45.97788 
L 67.108157 -45.971622 
L 66.309721 -45.964808 
L 65.511284 -45.957479 
L 64.712848 -45.949674 
L 63.914412 -45.941433 
L 63.115976 -45.932798 
L 62.317539 -45.923808 
L 61.519103 -45.912668 
L 60.720667 -45.897332 
L 59.922231 -45.878058 
L 59.123795 -45.855111 
L 58.325358 -45.828753 
L 57.526922 -45.799248 
L 56.728486 -45.766859 
L 55.93005 -45.731849 
L 55.131614 -45.694483 
L 54.333177 -45.655023 
L 53.534741 -45.613733 
L 52.736305 -45.570877 
L 51.937869 -45.526717 
L 51.139433 -45.481517 
L 50.340996 -45.435541 
z
" style="stroke: #d62728; stroke-opacity: 0.7"/>
    </defs>
    <g clip-path="url(#pc5e6ab3421)">
     <use xlink:href="#mc525b66ad9" x="0" y="217.533125" style="fill: #d62728; fill-opacity: 0.7; stroke: #d62728; stroke-opacity: 0.7"/>
    </g>
   </g>
   <g id="FillBetweenPolyCollection_2">
    <defs>
     <path id="m6cdace5f1f" d="M 50.340996 -85.903741 
L 50.340996 -45.435541 
L 51.139433 -45.481517 
L 51.937869 -45.526717 
L 52.736305 -45.570877 
L 53.534741 -45.613733 
L 54.333177 -45.655023 
L 55.131614 -45.694483 
L 55.93005 -45.731849 
L 56.728486 -45.766859 
L 57.526922 -45.799248 
L 58.325358 -45.828753 
L 59.123795 -45.855111 
L 59.922231 -45.878058 
L 60.720667 -45.897332 
L 61.519103 -45.912668 
L 62.317539 -45.923808 
L 63.115976 -45.932798 
L 63.914412 -45.941433 
L 64.712848 -45.949674 
L 65.511284 -45.957479 
L 66.309721 -45.964808 
L 67.108157 -45.971622 
L 67.906593 -45.97788 
L 68.705029 -45.983541 
L 69.503465 -45.988566 
L 70.301902 -45.992914 
L 71.100338 -45.996545 
L 71.898774 -45.999419 
L 72.69721 -46.001496 
L 73.495646 -46.002735 
L 74.294083 -46.002899 
L 75.092519 -45.979818 
L 75.890955 -45.922226 
L 76.689391 -45.835535 
L 77.487827 -45.725159 
L 78.286264 -45.596513 
L 79.0847 -45.455008 
L 79.883136 -45.306061 
L 80.681572 -45.155082 
L 81.480009 -45.007488 
L 82.278445 -44.86869 
L 83.076881 -44.744104 
L 83.875317 -44.639142 
L 84.673753 -44.559218 
L 85.47219 -44.509746 
L 86.270626 -44.49578 
L 87.069062 -44.50121 
L 87.867498 -44.514097 
L 88.665934 -44.533262 
L 89.464371 -44.557525 
L 90.262807 -44.585709 
L 91.061243 -44.616634 
L 91.859679 -44.649121 
L 92.658115 -44.681991 
L 93.456552 -44.714065 
L 94.254988 -44.744164 
L 95.053424 -44.77111 
L 95.85186 -44.793723 
L 96.650296 -44.810825 
L 97.448733 -44.821236 
L 98.247169 -44.823619 
L 99.045605 -44.812238 
L 99.844041 -44.785935 
L 100.642478 -44.746399 
L 101.440914 -44.695317 
L 102.23935 -44.634379 
L 103.037786 -44.565273 
L 103.836222 -44.489689 
L 104.634659 -44.409315 
L 105.433095 -44.32584 
L 106.231531 -44.240953 
L 107.029967 -44.156342 
L 107.828403 -44.073696 
L 108.62684 -43.994705 
L 109.425276 -43.921056 
L 110.223712 -43.853899 
L 111.022148 -43.78305 
L 111.820584 -43.705418 
L 112.619021 -43.622788 
L 113.417457 -43.536944 
L 114.215893 -43.44967 
L 115.014329 -43.362752 
L 115.812766 -43.277973 
L 116.611202 -43.197118 
L 117.409638 -43.121972 
L 118.208074 -43.054318 
L 119.00651 -42.995942 
L 119.804947 -42.948627 
L 120.603383 -42.914158 
L 121.401819 -42.894321 
L 122.200255 -42.890289 
L 122.998691 -42.893687 
L 123.797128 -42.901152 
L 124.595564 -42.912473 
L 125.394 -42.927439 
L 126.192436 -42.945837 
L 126.990872 -42.967457 
L 127.789309 -42.992085 
L 128.587745 -43.019512 
L 129.386181 -43.049525 
L 130.184617 -43.081912 
L 130.983053 -43.116462 
L 131.78149 -43.152963 
L 132.579926 -43.191204 
L 133.378362 -43.230973 
L 134.176798 -43.274433 
L 134.975235 -43.34788 
L 135.773671 -43.454095 
L 136.572107 -43.587279 
L 137.370543 -43.74163 
L 138.168979 -43.911349 
L 138.967416 -44.090633 
L 139.765852 -44.273682 
L 140.564288 -44.454696 
L 141.362724 -44.627873 
L 142.16116 -44.787413 
L 142.959597 -44.927515 
L 143.758033 -45.042377 
L 144.556469 -45.126201 
L 145.354905 -45.173183 
L 146.153341 -45.175915 
L 146.951778 -45.118582 
L 147.750214 -45.005793 
L 148.54865 -44.846679 
L 149.347086 -44.650366 
L 150.145523 -44.425984 
L 150.943959 -44.18266 
L 151.742395 -43.929524 
L 152.540831 -43.675703 
L 153.339267 -43.430325 
L 154.137704 -43.20252 
L 154.93614 -43.001415 
L 155.734576 -42.836139 
L 156.533012 -42.71582 
L 157.331448 -42.649586 
L 158.129885 -42.641426 
L 158.928321 -42.658654 
L 159.726757 -42.69224 
L 160.525193 -42.740277 
L 161.323629 -42.800859 
L 162.122066 -42.872077 
L 162.920502 -42.952025 
L 163.718938 -43.038794 
L 164.517374 -43.130479 
L 165.31581 -43.225171 
L 166.114247 -43.320963 
L 166.912683 -43.415949 
L 167.711119 -43.50822 
L 168.509555 -43.595869 
L 169.307992 -43.67699 
L 170.106428 -43.752107 
L 170.904864 -43.833875 
L 171.7033 -43.922729 
L 172.501736 -44.016669 
L 173.300173 -44.113694 
L 174.098609 -44.211803 
L 174.897045 -44.308997 
L 175.695481 -44.403274 
L 176.493917 -44.492633 
L 177.292354 -44.575075 
L 178.09079 -44.648599 
L 178.889226 -44.711204 
L 179.687662 -44.760889 
L 180.486098 -44.795654 
L 181.284535 -44.813498 
L 182.082971 -44.811714 
L 182.881407 -44.786974 
L 183.679843 -44.74203 
L 184.47828 -44.680293 
L 185.276716 -44.605173 
L 186.075152 -44.520079 
L 186.873588 -44.428421 
L 187.672024 -44.33361 
L 188.470461 -44.239054 
L 189.268897 -44.148163 
L 190.067333 -44.064348 
L 190.865769 -43.991018 
L 191.664205 -43.931583 
L 192.462642 -43.889452 
L 193.261078 -43.868036 
L 194.059514 -43.867161 
L 194.85795 -43.873683 
L 195.656386 -43.885263 
L 196.454823 -43.901041 
L 197.253259 -43.920154 
L 198.051695 -43.941743 
L 198.850131 -43.964946 
L 199.648568 -43.988902 
L 200.447004 -44.01275 
L 201.24544 -44.03563 
L 202.043876 -44.056681 
L 202.842312 -44.075041 
L 203.640749 -44.08985 
L 204.439185 -44.100246 
L 205.237621 -44.10537 
L 206.036057 -44.100092 
L 206.834493 -44.070524 
L 207.63293 -44.018158 
L 208.431366 -43.945797 
L 209.229802 -43.856247 
L 210.028238 -43.752311 
L 210.826674 -43.636794 
L 211.625111 -43.512501 
L 212.423547 -43.382235 
L 213.221983 -43.248802 
L 214.020419 -43.115005 
L 214.818855 -42.983649 
L 215.617292 -42.857538 
L 216.415728 -42.739477 
L 217.214164 -42.632269 
L 218.0126 -42.534673 
L 218.811037 -42.436601 
L 219.609473 -42.337735 
L 220.407909 -42.238465 
L 221.206345 -42.13918 
L 222.004781 -42.040271 
L 222.803218 -41.942125 
L 223.601654 -41.845133 
L 224.40009 -41.749685 
L 225.198526 -41.656169 
L 225.996962 -41.564975 
L 226.795399 -41.476493 
L 227.593835 -41.391112 
L 228.392271 -41.309222 
L 229.190707 -41.231212 
L 229.989143 -41.156525 
L 230.78758 -41.083094 
L 231.586016 -41.01093 
L 232.384452 -40.940147 
L 233.182888 -40.870859 
L 233.981325 -40.803178 
L 234.779761 -40.737218 
L 235.578197 -40.673093 
L 236.376633 -40.610917 
L 237.175069 -40.550802 
L 237.973506 -40.492862 
L 238.771942 -40.437211 
L 239.570378 -40.383963 
L 240.368814 -40.33323 
L 241.16725 -40.285126 
L 241.965687 -40.238188 
L 242.764123 -40.189607 
L 243.562559 -40.140004 
L 244.360995 -40.090105 
L 245.159431 -40.040633 
L 245.957868 -39.992314 
L 246.756304 -39.945871 
L 247.55474 -39.902029 
L 248.353176 -39.861514 
L 249.151612 -39.825049 
L 249.950049 -39.793358 
L 250.748485 -39.767167 
L 251.546921 -39.7472 
L 252.345357 -39.734181 
L 253.143794 -39.728835 
L 253.94223 -39.731223 
L 254.740666 -39.739956 
L 255.539102 -39.754065 
L 256.337538 -39.772593 
L 257.135975 -39.794586 
L 257.934411 -39.819087 
L 258.732847 -39.845142 
L 259.531283 -39.871793 
L 260.329719 -39.898087 
L 261.128156 -39.923066 
L 261.926592 -39.945775 
L 262.725028 -39.965259 
L 263.523464 -39.980563 
L 264.3219 -39.990729 
L 265.120337 -39.994804 
L 265.918773 -39.990431 
L 266.717209 -39.976104 
L 267.515645 -39.95332 
L 268.314082 -39.923594 
L 269.112518 -39.888445 
L 269.910954 -39.84939 
L 270.70939 -39.807945 
L 271.507826 -39.765628 
L 272.306263 -39.723956 
L 273.104699 -39.684445 
L 273.903135 -39.648613 
L 274.701571 -39.617978 
L 275.500007 -39.594056 
L 276.298444 -39.578364 
L 277.09688 -39.572419 
L 277.895316 -39.574355 
L 278.693752 -39.580598 
L 279.492188 -39.591102 
L 280.290625 -39.605831 
L 281.089061 -39.624746 
L 281.887497 -39.647812 
L 282.685933 -39.674991 
L 283.484369 -39.706246 
L 284.282806 -39.74154 
L 285.081242 -39.780836 
L 285.879678 -39.824098 
L 286.678114 -39.871288 
L 287.476551 -39.922369 
L 288.274987 -39.977304 
L 289.073423 -40.036056 
L 289.073423 -65.719175 
L 289.073423 -65.719175 
L 288.274987 -65.699247 
L 287.476551 -65.684102 
L 286.678114 -65.673756 
L 285.879678 -65.668222 
L 285.081242 -65.667516 
L 284.282806 -65.671651 
L 283.484369 -65.680643 
L 282.685933 -65.694506 
L 281.887497 -65.713254 
L 281.089061 -65.736902 
L 280.290625 -65.765465 
L 279.492188 -65.798958 
L 278.693752 -65.837394 
L 277.895316 -65.880788 
L 277.09688 -65.929176 
L 276.298444 -65.990747 
L 275.500007 -66.069959 
L 274.701571 -66.163539 
L 273.903135 -66.268215 
L 273.104699 -66.380715 
L 272.306263 -66.497765 
L 271.507826 -66.616093 
L 270.70939 -66.732427 
L 269.910954 -66.843494 
L 269.112518 -66.946022 
L 268.314082 -67.036737 
L 267.515645 -67.112368 
L 266.717209 -67.169641 
L 265.918773 -67.205284 
L 265.120337 -67.215991 
L 264.3219 -67.196014 
L 263.523464 -67.146167 
L 262.725028 -67.071135 
L 261.926592 -66.975603 
L 261.128156 -66.864257 
L 260.329719 -66.741782 
L 259.531283 -66.612865 
L 258.732847 -66.482191 
L 257.934411 -66.354445 
L 257.135975 -66.234314 
L 256.337538 -66.126482 
L 255.539102 -66.035636 
L 254.740666 -65.96646 
L 253.94223 -65.923641 
L 253.143794 -65.912266 
L 252.345357 -65.956572 
L 251.546921 -66.062819 
L 250.748485 -66.222833 
L 249.950049 -66.42844 
L 249.151612 -66.671464 
L 248.353176 -66.943732 
L 247.55474 -67.237067 
L 246.756304 -67.543296 
L 245.957868 -67.854244 
L 245.159431 -68.161735 
L 244.360995 -68.457596 
L 243.562559 -68.733652 
L 242.764123 -68.981727 
L 241.965687 -69.193647 
L 241.16725 -69.362176 
L 240.368814 -69.51219 
L 239.570378 -69.65825 
L 238.771942 -69.800821 
L 237.973506 -69.940368 
L 237.175069 -70.077356 
L 236.376633 -70.212249 
L 235.578197 -70.345512 
L 234.779761 -70.47761 
L 233.981325 -70.609007 
L 233.182888 -70.740168 
L 232.384452 -70.871558 
L 231.586016 -71.003641 
L 230.78758 -71.136882 
L 229.989143 -71.271747 
L 229.190707 -71.408566 
L 228.392271 -71.544938 
L 227.593835 -71.680282 
L 226.795399 -71.815227 
L 225.996962 -71.950399 
L 225.198526 -72.086425 
L 224.40009 -72.223932 
L 223.601654 -72.363547 
L 222.803218 -72.505897 
L 222.004781 -72.651609 
L 221.206345 -72.80131 
L 220.407909 -72.955627 
L 219.609473 -73.115186 
L 218.811037 -73.280616 
L 218.0126 -73.452542 
L 217.214164 -73.634164 
L 216.415728 -73.86359 
L 215.617292 -74.145306 
L 214.818855 -74.468887 
L 214.020419 -74.823911 
L 213.221983 -75.199954 
L 212.423547 -75.586592 
L 211.625111 -75.973403 
L 210.826674 -76.349964 
L 210.028238 -76.705849 
L 209.229802 -77.030637 
L 208.431366 -77.313903 
L 207.63293 -77.545225 
L 206.834493 -77.714178 
L 206.036057 -77.81034 
L 205.237621 -77.82455 
L 204.439185 -77.767241 
L 203.640749 -77.650277 
L 202.842312 -77.482526 
L 202.043876 -77.272855 
L 201.24544 -77.030131 
L 200.447004 -76.763222 
L 199.648568 -76.480996 
L 198.850131 -76.192319 
L 198.051695 -75.906059 
L 197.253259 -75.631084 
L 196.454823 -75.37626 
L 195.656386 -75.150456 
L 194.85795 -74.962538 
L 194.059514 -74.821375 
L 193.261078 -74.733731 
L 192.462642 -74.684555 
L 191.664205 -74.665106 
L 190.865769 -74.670551 
L 190.067333 -74.696056 
L 189.268897 -74.736788 
L 188.470461 -74.787914 
L 187.672024 -74.8446 
L 186.873588 -74.902013 
L 186.075152 -74.955319 
L 185.276716 -74.999686 
L 184.47828 -75.030279 
L 183.679843 -75.042265 
L 182.881407 -75.030812 
L 182.082971 -74.991085 
L 181.284535 -74.91848 
L 180.486098 -74.812675 
L 179.687662 -74.676824 
L 178.889226 -74.514144 
L 178.09079 -74.327852 
L 177.292354 -74.121165 
L 176.493917 -73.8973 
L 175.695481 -73.659474 
L 174.897045 -73.410905 
L 174.098609 -73.15481 
L 173.300173 -72.894405 
L 172.501736 -72.632909 
L 171.7033 -72.373537 
L 170.904864 -72.119508 
L 170.106428 -71.874039 
L 169.307992 -71.633505 
L 168.509555 -71.361768 
L 167.711119 -71.059523 
L 166.912683 -70.734493 
L 166.114247 -70.394403 
L 165.31581 -70.046975 
L 164.517374 -69.699934 
L 163.718938 -69.361003 
L 162.920502 -69.037906 
L 162.122066 -68.738366 
L 161.323629 -68.470107 
L 160.525193 -68.240853 
L 159.726757 -68.058327 
L 158.928321 -67.930253 
L 158.129885 -67.864354 
L 157.331448 -67.872292 
L 156.533012 -67.97317 
L 155.734576 -68.157851 
L 154.93614 -68.413877 
L 154.137704 -68.728795 
L 153.339267 -69.090149 
L 152.540831 -69.485482 
L 151.742395 -69.902339 
L 150.943959 -70.328265 
L 150.145523 -70.750805 
L 149.347086 -71.157502 
L 148.54865 -71.535902 
L 147.750214 -71.873548 
L 146.951778 -72.157985 
L 146.153341 -72.376757 
L 145.354905 -72.52827 
L 144.556469 -72.650934 
L 143.758033 -72.7513 
L 142.959597 -72.831481 
L 142.16116 -72.893591 
L 141.362724 -72.939743 
L 140.564288 -72.97205 
L 139.765852 -72.992626 
L 138.967416 -73.003584 
L 138.168979 -73.007036 
L 137.370543 -73.005097 
L 136.572107 -72.99988 
L 135.773671 -72.993497 
L 134.975235 -72.988063 
L 134.176798 -72.98569 
L 133.378362 -72.985912 
L 132.579926 -72.981533 
L 131.78149 -72.973005 
L 130.983053 -72.961508 
L 130.184617 -72.948223 
L 129.386181 -72.934328 
L 128.587745 -72.921005 
L 127.789309 -72.909434 
L 126.990872 -72.900794 
L 126.192436 -72.896267 
L 125.394 -72.897032 
L 124.595564 -72.904269 
L 123.797128 -72.919158 
L 122.998691 -72.94288 
L 122.200255 -72.976615 
L 121.401819 -73.029014 
L 120.603383 -73.120399 
L 119.804947 -73.248204 
L 119.00651 -73.408411 
L 118.208074 -73.597003 
L 117.409638 -73.809962 
L 116.611202 -74.043271 
L 115.812766 -74.292911 
L 115.014329 -74.554867 
L 114.215893 -74.825119 
L 113.417457 -75.099651 
L 112.619021 -75.374446 
L 111.820584 -75.645484 
L 111.022148 -75.90875 
L 110.223712 -76.160225 
L 109.425276 -76.41318 
L 108.62684 -76.703689 
L 107.828403 -77.02545 
L 107.029967 -77.370199 
L 106.231531 -77.729671 
L 105.433095 -78.095601 
L 104.634659 -78.459724 
L 103.836222 -78.813774 
L 103.037786 -79.149487 
L 102.23935 -79.458598 
L 101.440914 -79.732841 
L 100.642478 -79.963952 
L 99.844041 -80.143665 
L 99.045605 -80.263715 
L 98.247169 -80.315838 
L 97.448733 -80.303408 
L 96.650296 -80.249903 
L 95.85186 -80.162013 
L 95.053424 -80.045798 
L 94.254988 -79.907316 
L 93.456552 -79.752626 
L 92.658115 -79.587788 
L 91.859679 -79.41886 
L 91.061243 -79.251901 
L 90.262807 -79.09297 
L 89.464371 -78.948127 
L 88.665934 -78.823429 
L 87.867498 -78.724936 
L 87.069062 -78.658707 
L 86.270626 -78.6308 
L 85.47219 -78.727911 
L 84.673753 -79.071273 
L 83.875317 -79.625987 
L 83.076881 -80.354481 
L 82.278445 -81.21918 
L 81.480009 -82.182509 
L 80.681572 -83.206897 
L 79.883136 -84.254768 
L 79.0847 -85.288548 
L 78.286264 -86.270665 
L 77.487827 -87.163544 
L 76.689391 -87.929612 
L 75.890955 -88.531294 
L 75.092519 -88.931016 
L 74.294083 -89.091206 
L 73.495646 -89.072089 
L 72.69721 -89.005089 
L 71.898774 -88.897852 
L 71.100338 -88.756889 
L 70.301902 -88.588711 
L 69.503465 -88.39983 
L 68.705029 -88.196756 
L 67.906593 -87.986001 
L 67.108157 -87.774076 
L 66.309721 -87.567492 
L 65.511284 -87.37276 
L 64.712848 -87.196392 
L 63.914412 -87.044899 
L 63.115976 -86.924791 
L 62.317539 -86.842581 
L 61.519103 -86.782303 
L 60.720667 -86.719414 
L 59.922231 -86.654392 
L 59.123795 -86.587775 
L 58.325358 -86.520102 
L 57.526922 -86.451911 
L 56.728486 -86.383741 
L 55.93005 -86.316131 
L 55.131614 -86.249618 
L 54.333177 -86.184741 
L 53.534741 -86.122038 
L 52.736305 -86.062049 
L 51.937869 -86.00531 
L 51.139433 -85.952362 
L 50.340996 -85.903741 
z
" style="stroke: #1f77b4; stroke-opacity: 0.7"/>
    </defs>
    <g clip-path="url(#pc5e6ab3421)">
     <use xlink:href="#m6cdace5f1f" x="0" y="217.533125" style="fill: #1f77b4; fill-opacity: 0.7; stroke: #1f77b4; stroke-opacity: 0.7"/>
    </g>
   </g>
   <g id="FillBetweenPolyCollection_3">
    <defs>
     <path id="ma3e8b76369" d="M 50.340996 -85.922215 
L 50.340996 -85.903741 
L 51.139433 -85.952362 
L 51.937869 -86.00531 
L 52.736305 -86.062049 
L 53.534741 -86.122038 
L 54.333177 -86.184741 
L 55.131614 -86.249618 
L 55.93005 -86.316131 
L 56.728486 -86.383741 
L 57.526922 -86.451911 
L 58.325358 -86.520102 
L 59.123795 -86.587775 
L 59.922231 -86.654392 
L 60.720667 -86.719414 
L 61.519103 -86.782303 
L 62.317539 -86.842581 
L 63.115976 -86.924791 
L 63.914412 -87.044899 
L 64.712848 -87.196392 
L 65.511284 -87.37276 
L 66.309721 -87.567492 
L 67.108157 -87.774076 
L 67.906593 -87.986001 
L 68.705029 -88.196756 
L 69.503465 -88.39983 
L 70.301902 -88.588711 
L 71.100338 -88.756889 
L 71.898774 -88.897852 
L 72.69721 -89.005089 
L 73.495646 -89.072089 
L 74.294083 -89.091206 
L 75.092519 -88.931016 
L 75.890955 -88.531294 
L 76.689391 -87.929612 
L 77.487827 -87.163544 
L 78.286264 -86.270665 
L 79.0847 -85.288548 
L 79.883136 -84.254768 
L 80.681572 -83.206897 
L 81.480009 -82.182509 
L 82.278445 -81.21918 
L 83.076881 -80.354481 
L 83.875317 -79.625987 
L 84.673753 -79.071273 
L 85.47219 -78.727911 
L 86.270626 -78.6308 
L 87.069062 -78.658707 
L 87.867498 -78.724936 
L 88.665934 -78.823429 
L 89.464371 -78.948127 
L 90.262807 -79.09297 
L 91.061243 -79.251901 
L 91.859679 -79.41886 
L 92.658115 -79.587788 
L 93.456552 -79.752626 
L 94.254988 -79.907316 
L 95.053424 -80.045798 
L 95.85186 -80.162013 
L 96.650296 -80.249903 
L 97.448733 -80.303408 
L 98.247169 -80.315838 
L 99.045605 -80.263715 
L 99.844041 -80.143665 
L 100.642478 -79.963952 
L 101.440914 -79.732841 
L 102.23935 -79.458598 
L 103.037786 -79.149487 
L 103.836222 -78.813774 
L 104.634659 -78.459724 
L 105.433095 -78.095601 
L 106.231531 -77.729671 
L 107.029967 -77.370199 
L 107.828403 -77.02545 
L 108.62684 -76.703689 
L 109.425276 -76.41318 
L 110.223712 -76.160225 
L 111.022148 -75.90875 
L 111.820584 -75.645484 
L 112.619021 -75.374446 
L 113.417457 -75.099651 
L 114.215893 -74.825119 
L 115.014329 -74.554867 
L 115.812766 -74.292911 
L 116.611202 -74.043271 
L 117.409638 -73.809962 
L 118.208074 -73.597003 
L 119.00651 -73.408411 
L 119.804947 -73.248204 
L 120.603383 -73.120399 
L 121.401819 -73.029014 
L 122.200255 -72.976615 
L 122.998691 -72.94288 
L 123.797128 -72.919158 
L 124.595564 -72.904269 
L 125.394 -72.897032 
L 126.192436 -72.896267 
L 126.990872 -72.900794 
L 127.789309 -72.909434 
L 128.587745 -72.921005 
L 129.386181 -72.934328 
L 130.184617 -72.948223 
L 130.983053 -72.961508 
L 131.78149 -72.973005 
L 132.579926 -72.981533 
L 133.378362 -72.985912 
L 134.176798 -72.98569 
L 134.975235 -72.988063 
L 135.773671 -72.993497 
L 136.572107 -72.99988 
L 137.370543 -73.005097 
L 138.168979 -73.007036 
L 138.967416 -73.003584 
L 139.765852 -72.992626 
L 140.564288 -72.97205 
L 141.362724 -72.939743 
L 142.16116 -72.893591 
L 142.959597 -72.831481 
L 143.758033 -72.7513 
L 144.556469 -72.650934 
L 145.354905 -72.52827 
L 146.153341 -72.376757 
L 146.951778 -72.157985 
L 147.750214 -71.873548 
L 148.54865 -71.535902 
L 149.347086 -71.157502 
L 150.145523 -70.750805 
L 150.943959 -70.328265 
L 151.742395 -69.902339 
L 152.540831 -69.485482 
L 153.339267 -69.090149 
L 154.137704 -68.728795 
L 154.93614 -68.413877 
L 155.734576 -68.157851 
L 156.533012 -67.97317 
L 157.331448 -67.872292 
L 158.129885 -67.864354 
L 158.928321 -67.930253 
L 159.726757 -68.058327 
L 160.525193 -68.240853 
L 161.323629 -68.470107 
L 162.122066 -68.738366 
L 162.920502 -69.037906 
L 163.718938 -69.361003 
L 164.517374 -69.699934 
L 165.31581 -70.046975 
L 166.114247 -70.394403 
L 166.912683 -70.734493 
L 167.711119 -71.059523 
L 168.509555 -71.361768 
L 169.307992 -71.633505 
L 170.106428 -71.874039 
L 170.904864 -72.119508 
L 171.7033 -72.373537 
L 172.501736 -72.632909 
L 173.300173 -72.894405 
L 174.098609 -73.15481 
L 174.897045 -73.410905 
L 175.695481 -73.659474 
L 176.493917 -73.8973 
L 177.292354 -74.121165 
L 178.09079 -74.327852 
L 178.889226 -74.514144 
L 179.687662 -74.676824 
L 180.486098 -74.812675 
L 181.284535 -74.91848 
L 182.082971 -74.991085 
L 182.881407 -75.030812 
L 183.679843 -75.042265 
L 184.47828 -75.030279 
L 185.276716 -74.999686 
L 186.075152 -74.955319 
L 186.873588 -74.902013 
L 187.672024 -74.8446 
L 188.470461 -74.787914 
L 189.268897 -74.736788 
L 190.067333 -74.696056 
L 190.865769 -74.670551 
L 191.664205 -74.665106 
L 192.462642 -74.684555 
L 193.261078 -74.733731 
L 194.059514 -74.821375 
L 194.85795 -74.962538 
L 195.656386 -75.150456 
L 196.454823 -75.37626 
L 197.253259 -75.631084 
L 198.051695 -75.906059 
L 198.850131 -76.192319 
L 199.648568 -76.480996 
L 200.447004 -76.763222 
L 201.24544 -77.030131 
L 202.043876 -77.272855 
L 202.842312 -77.482526 
L 203.640749 -77.650277 
L 204.439185 -77.767241 
L 205.237621 -77.82455 
L 206.036057 -77.81034 
L 206.834493 -77.714178 
L 207.63293 -77.545225 
L 208.431366 -77.313903 
L 209.229802 -77.030637 
L 210.028238 -76.705849 
L 210.826674 -76.349964 
L 211.625111 -75.973403 
L 212.423547 -75.586592 
L 213.221983 -75.199954 
L 214.020419 -74.823911 
L 214.818855 -74.468887 
L 215.617292 -74.145306 
L 216.415728 -73.86359 
L 217.214164 -73.634164 
L 218.0126 -73.452542 
L 218.811037 -73.280616 
L 219.609473 -73.115186 
L 220.407909 -72.955627 
L 221.206345 -72.80131 
L 222.004781 -72.651609 
L 222.803218 -72.505897 
L 223.601654 -72.363547 
L 224.40009 -72.223932 
L 225.198526 -72.086425 
L 225.996962 -71.950399 
L 226.795399 -71.815227 
L 227.593835 -71.680282 
L 228.392271 -71.544938 
L 229.190707 -71.408566 
L 229.989143 -71.271747 
L 230.78758 -71.136882 
L 231.586016 -71.003641 
L 232.384452 -70.871558 
L 233.182888 -70.740168 
L 233.981325 -70.609007 
L 234.779761 -70.47761 
L 235.578197 -70.345512 
L 236.376633 -70.212249 
L 237.175069 -70.077356 
L 237.973506 -69.940368 
L 238.771942 -69.800821 
L 239.570378 -69.65825 
L 240.368814 -69.51219 
L 241.16725 -69.362176 
L 241.965687 -69.193647 
L 242.764123 -68.981727 
L 243.562559 -68.733652 
L 244.360995 -68.457596 
L 245.159431 -68.161735 
L 245.957868 -67.854244 
L 246.756304 -67.543296 
L 247.55474 -67.237067 
L 248.353176 -66.943732 
L 249.151612 -66.671464 
L 249.950049 -66.42844 
L 250.748485 -66.222833 
L 251.546921 -66.062819 
L 252.345357 -65.956572 
L 253.143794 -65.912266 
L 253.94223 -65.923641 
L 254.740666 -65.96646 
L 255.539102 -66.035636 
L 256.337538 -66.126482 
L 257.135975 -66.234314 
L 257.934411 -66.354445 
L 258.732847 -66.482191 
L 259.531283 -66.612865 
L 260.329719 -66.741782 
L 261.128156 -66.864257 
L 261.926592 -66.975603 
L 262.725028 -67.071135 
L 263.523464 -67.146167 
L 264.3219 -67.196014 
L 265.120337 -67.215991 
L 265.918773 -67.205284 
L 266.717209 -67.169641 
L 267.515645 -67.112368 
L 268.314082 -67.036737 
L 269.112518 -66.946022 
L 269.910954 -66.843494 
L 270.70939 -66.732427 
L 271.507826 -66.616093 
L 272.306263 -66.497765 
L 273.104699 -66.380715 
L 273.903135 -66.268215 
L 274.701571 -66.163539 
L 275.500007 -66.069959 
L 276.298444 -65.990747 
L 277.09688 -65.929176 
L 277.895316 -65.880788 
L 278.693752 -65.837394 
L 279.492188 -65.798958 
L 280.290625 -65.765465 
L 281.089061 -65.736902 
L 281.887497 -65.713254 
L 282.685933 -65.694506 
L 283.484369 -65.680643 
L 284.282806 -65.671651 
L 285.081242 -65.667516 
L 285.879678 -65.668222 
L 286.678114 -65.673756 
L 287.476551 -65.684102 
L 288.274987 -65.699247 
L 289.073423 -65.719175 
L 289.073423 -65.734399 
L 289.073423 -65.734399 
L 288.274987 -65.716634 
L 287.476551 -65.703611 
L 286.678114 -65.695334 
L 285.879678 -65.69181 
L 285.081242 -65.693044 
L 284.282806 -65.69904 
L 283.484369 -65.709806 
L 282.685933 -65.725346 
L 281.887497 -65.745665 
L 281.089061 -65.770768 
L 280.290625 -65.800663 
L 279.492188 -65.835353 
L 278.693752 -65.874844 
L 277.895316 -65.919142 
L 277.09688 -65.968272 
L 276.298444 -66.030504 
L 275.500007 -66.110363 
L 274.701571 -66.204571 
L 273.903135 -66.309852 
L 273.104699 -66.422927 
L 272.306263 -66.54052 
L 271.507826 -66.659354 
L 270.70939 -66.77615 
L 269.910954 -66.887632 
L 269.112518 -66.990523 
L 268.314082 -67.081544 
L 267.515645 -67.157419 
L 266.717209 -67.214871 
L 265.918773 -67.250621 
L 265.120337 -67.261356 
L 264.3219 -67.240969 
L 263.523464 -67.190098 
L 262.725028 -67.113523 
L 261.926592 -67.016028 
L 261.128156 -66.902394 
L 260.329719 -66.777402 
L 259.531283 -66.645836 
L 258.732847 -66.512476 
L 257.934411 -66.382105 
L 257.135975 -66.259505 
L 256.337538 -66.149457 
L 255.539102 -66.056744 
L 254.740666 -65.986146 
L 253.94223 -65.942448 
L 253.143794 -65.930829 
L 252.345357 -65.975474 
L 251.546921 -66.082534 
L 250.748485 -66.243772 
L 249.950049 -66.450946 
L 249.151612 -66.69582 
L 248.353176 -66.970153 
L 247.55474 -67.265706 
L 246.756304 -67.574241 
L 245.957868 -67.887518 
L 245.159431 -68.197299 
L 244.360995 -68.495344 
L 243.562559 -68.773414 
L 242.764123 -69.023271 
L 241.965687 -69.236675 
L 241.16725 -69.406332 
L 240.368814 -69.557275 
L 239.570378 -69.70417 
L 238.771942 -69.847497 
L 237.973506 -69.987734 
L 237.175069 -70.125362 
L 236.376633 -70.260859 
L 235.578197 -70.394705 
L 234.779761 -70.527379 
L 233.981325 -70.65936 
L 233.182888 -70.791128 
L 232.384452 -70.923161 
L 231.586016 -71.05594 
L 230.78758 -71.189944 
L 229.989143 -71.325651 
L 229.190707 -71.463417 
L 228.392271 -71.600991 
L 227.593835 -71.737812 
L 226.795399 -71.874452 
L 225.996962 -72.011484 
L 225.198526 -72.149481 
L 224.40009 -72.289016 
L 223.601654 -72.43066 
L 222.803218 -72.574988 
L 222.004781 -72.72257 
L 221.206345 -72.873981 
L 220.407909 -73.029792 
L 219.609473 -73.190577 
L 218.811037 -73.356907 
L 218.0126 -73.529357 
L 217.214164 -73.711081 
L 216.415728 -73.940329 
L 215.617292 -74.221661 
L 214.818855 -74.54467 
L 214.020419 -74.898954 
L 213.221983 -75.274107 
L 212.423547 -75.659724 
L 211.625111 -76.045401 
L 210.826674 -76.420733 
L 210.028238 -76.775315 
L 209.229802 -77.098744 
L 208.431366 -77.380613 
L 207.63293 -77.610519 
L 206.834493 -77.778056 
L 206.036057 -77.872821 
L 205.237621 -77.885641 
L 204.439185 -77.826636 
L 203.640749 -77.707635 
L 202.842312 -77.537576 
L 202.043876 -77.325396 
L 201.24544 -77.080035 
L 200.447004 -76.810429 
L 199.648568 -76.525517 
L 198.850131 -76.234236 
L 198.051695 -75.945525 
L 197.253259 -75.66832 
L 196.454823 -75.411561 
L 195.656386 -75.184185 
L 194.85795 -74.995129 
L 194.059514 -74.853332 
L 193.261078 -74.765603 
L 192.462642 -74.716677 
L 191.664205 -74.697722 
L 190.865769 -74.703863 
L 190.067333 -74.730227 
L 189.268897 -74.77194 
L 188.470461 -74.824131 
L 187.672024 -74.881924 
L 186.873588 -74.940447 
L 186.075152 -74.994827 
L 185.276716 -75.04019 
L 184.47828 -75.071663 
L 183.679843 -75.084372 
L 182.881407 -75.073445 
L 182.082971 -75.034008 
L 181.284535 -74.961432 
L 180.486098 -74.855495 
L 179.687662 -74.719389 
L 178.889226 -74.556345 
L 178.09079 -74.369599 
L 177.292354 -74.162383 
L 176.493917 -73.937931 
L 175.695481 -73.699477 
L 174.897045 -73.450254 
L 174.098609 -73.193497 
L 173.300173 -72.932438 
L 172.501736 -72.670311 
L 171.7033 -72.41035 
L 170.904864 -72.155788 
L 170.106428 -71.909859 
L 169.307992 -71.668947 
L 168.509555 -71.39687 
L 167.711119 -71.09431 
L 166.912683 -70.768987 
L 166.114247 -70.428619 
L 165.31581 -70.080926 
L 164.517374 -69.733628 
L 163.718938 -69.394442 
L 162.920502 -69.071088 
L 162.122066 -68.771286 
L 161.323629 -68.502754 
L 160.525193 -68.273212 
L 159.726757 -68.090378 
L 158.928321 -67.961972 
L 158.129885 -67.895713 
L 157.331448 -67.903245 
L 156.533012 -68.003612 
L 155.734576 -68.187687 
L 154.93614 -68.443034 
L 154.137704 -68.757219 
L 153.339267 -69.117806 
L 152.540831 -69.51236 
L 151.742395 -69.928445 
L 150.943959 -70.353627 
L 150.145523 -70.775471 
L 149.347086 -71.18154 
L 148.54865 -71.5594 
L 147.750214 -71.896616 
L 146.951778 -72.180752 
L 146.153341 -72.399374 
L 145.354905 -72.550875 
L 144.556469 -72.673553 
L 143.758033 -72.773943 
L 142.959597 -72.854157 
L 142.16116 -72.916307 
L 141.362724 -72.962504 
L 140.564288 -72.99486 
L 139.765852 -73.015485 
L 138.967416 -73.026493 
L 138.168979 -73.029993 
L 137.370543 -73.028098 
L 136.572107 -73.022919 
L 135.773671 -73.016567 
L 134.975235 -73.011155 
L 134.176798 -73.008792 
L 133.378362 -73.008917 
L 132.579926 -73.004032 
L 131.78149 -72.994625 
L 130.983053 -72.98194 
L 130.184617 -72.967221 
L 129.386181 -72.951712 
L 128.587745 -72.936657 
L 127.789309 -72.923302 
L 126.990872 -72.912889 
L 126.192436 -72.906663 
L 125.394 -72.90587 
L 124.595564 -72.911752 
L 123.797128 -72.925554 
L 122.998691 -72.94852 
L 122.200255 -72.981895 
L 121.401819 -73.034584 
L 120.603383 -73.127415 
L 119.804947 -73.257683 
L 119.00651 -73.421194 
L 118.208074 -73.613754 
L 117.409638 -73.83117 
L 116.611202 -74.069248 
L 115.812766 -74.323795 
L 115.014329 -74.590617 
L 114.215893 -74.86552 
L 113.417457 -75.144311 
L 112.619021 -75.422797 
L 111.820584 -75.696782 
L 111.022148 -75.962075 
L 110.223712 -76.214481 
L 109.425276 -76.467348 
L 108.62684 -76.757314 
L 107.828403 -77.078155 
L 107.029967 -77.421655 
L 106.231531 -77.779601 
L 105.433095 -78.143779 
L 104.634659 -78.505973 
L 103.836222 -78.857969 
L 103.037786 -79.191554 
L 102.23935 -79.498512 
L 101.440914 -79.77063 
L 100.642478 -79.999692 
L 99.844041 -80.177484 
L 99.045605 -80.295792 
L 98.247169 -80.346402 
L 97.448733 -80.332642 
L 96.650296 -80.277815 
L 95.85186 -80.188614 
L 95.053424 -80.071101 
L 94.254988 -79.931341 
L 93.456552 -79.775399 
L 92.658115 -79.60934 
L 91.859679 -79.439226 
L 91.061243 -79.271124 
L 90.262807 -79.111098 
L 89.464371 -78.965211 
L 88.665934 -78.839528 
L 87.867498 -78.740114 
L 87.069062 -78.673033 
L 86.270626 -78.644349 
L 85.47219 -78.740726 
L 84.673753 -79.083343 
L 83.875317 -79.637309 
L 83.076881 -80.36506 
L 82.278445 -81.229031 
L 81.480009 -82.191658 
L 80.681572 -83.215375 
L 79.883136 -84.262619 
L 79.0847 -85.295825 
L 78.286264 -86.277427 
L 77.487827 -87.169863 
L 76.689391 -87.935567 
L 75.890955 -88.536975 
L 75.092519 -88.936521 
L 74.294083 -89.096642 
L 73.495646 -89.077727 
L 72.69721 -89.011384 
L 71.898774 -88.905192 
L 71.100338 -88.765592 
L 70.301902 -88.599027 
L 69.503465 -88.411937 
L 68.705029 -88.210764 
L 67.906593 -88.001949 
L 67.108157 -87.791935 
L 66.309721 -87.587164 
L 65.511284 -87.394075 
L 64.712848 -87.219112 
L 63.914412 -87.068716 
L 63.115976 -86.949328 
L 62.317539 -86.867391 
L 61.519103 -86.807112 
L 60.720667 -86.74421 
L 59.922231 -86.679153 
L 59.123795 -86.612468 
L 58.325358 -86.544682 
L 57.526922 -86.476322 
L 56.728486 -86.407915 
L 55.93005 -86.339988 
L 55.131614 -86.273068 
L 54.333177 -86.207683 
L 53.534741 -86.144359 
L 52.736305 -86.083623 
L 51.937869 -86.026002 
L 51.139433 -85.972024 
L 50.340996 -85.922215 
z
" style="stroke: #2ca02c; stroke-opacity: 0.7"/>
    </defs>
    <g clip-path="url(#pc5e6ab3421)">
     <use xlink:href="#ma3e8b76369" x="0" y="217.533125" style="fill: #2ca02c; fill-opacity: 0.7; stroke: #2ca02c; stroke-opacity: 0.7"/>
    </g>
   </g>
   <g id="FillBetweenPolyCollection_4">
    <defs>
     <path id="m1683f40300" d="M 50.340996 -87.769572 
L 50.340996 -85.922215 
L 51.139433 -85.972024 
L 51.937869 -86.026002 
L 52.736305 -86.083623 
L 53.534741 -86.144359 
L 54.333177 -86.207683 
L 55.131614 -86.273068 
L 55.93005 -86.339988 
L 56.728486 -86.407915 
L 57.526922 -86.476322 
L 58.325358 -86.544682 
L 59.123795 -86.612468 
L 59.922231 -86.679153 
L 60.720667 -86.74421 
L 61.519103 -86.807112 
L 62.317539 -86.867391 
L 63.115976 -86.949328 
L 63.914412 -87.068716 
L 64.712848 -87.219112 
L 65.511284 -87.394075 
L 66.309721 -87.587164 
L 67.108157 -87.791935 
L 67.906593 -88.001949 
L 68.705029 -88.210764 
L 69.503465 -88.411937 
L 70.301902 -88.599027 
L 71.100338 -88.765592 
L 71.898774 -88.905192 
L 72.69721 -89.011384 
L 73.495646 -89.077727 
L 74.294083 -89.096642 
L 75.092519 -88.936521 
L 75.890955 -88.536975 
L 76.689391 -87.935567 
L 77.487827 -87.169863 
L 78.286264 -86.277427 
L 79.0847 -85.295825 
L 79.883136 -84.262619 
L 80.681572 -83.215375 
L 81.480009 -82.191658 
L 82.278445 -81.229031 
L 83.076881 -80.36506 
L 83.875317 -79.637309 
L 84.673753 -79.083343 
L 85.47219 -78.740726 
L 86.270626 -78.644349 
L 87.069062 -78.673033 
L 87.867498 -78.740114 
L 88.665934 -78.839528 
L 89.464371 -78.965211 
L 90.262807 -79.111098 
L 91.061243 -79.271124 
L 91.859679 -79.439226 
L 92.658115 -79.60934 
L 93.456552 -79.775399 
L 94.254988 -79.931341 
L 95.053424 -80.071101 
L 95.85186 -80.188614 
L 96.650296 -80.277815 
L 97.448733 -80.332642 
L 98.247169 -80.346402 
L 99.045605 -80.295792 
L 99.844041 -80.177484 
L 100.642478 -79.999692 
L 101.440914 -79.77063 
L 102.23935 -79.498512 
L 103.037786 -79.191554 
L 103.836222 -78.857969 
L 104.634659 -78.505973 
L 105.433095 -78.143779 
L 106.231531 -77.779601 
L 107.029967 -77.421655 
L 107.828403 -77.078155 
L 108.62684 -76.757314 
L 109.425276 -76.467348 
L 110.223712 -76.214481 
L 111.022148 -75.962075 
L 111.820584 -75.696782 
L 112.619021 -75.422797 
L 113.417457 -75.144311 
L 114.215893 -74.86552 
L 115.014329 -74.590617 
L 115.812766 -74.323795 
L 116.611202 -74.069248 
L 117.409638 -73.83117 
L 118.208074 -73.613754 
L 119.00651 -73.421194 
L 119.804947 -73.257683 
L 120.603383 -73.127415 
L 121.401819 -73.034584 
L 122.200255 -72.981895 
L 122.998691 -72.94852 
L 123.797128 -72.925554 
L 124.595564 -72.911752 
L 125.394 -72.90587 
L 126.192436 -72.906663 
L 126.990872 -72.912889 
L 127.789309 -72.923302 
L 128.587745 -72.936657 
L 129.386181 -72.951712 
L 130.184617 -72.967221 
L 130.983053 -72.98194 
L 131.78149 -72.994625 
L 132.579926 -73.004032 
L 133.378362 -73.008917 
L 134.176798 -73.008792 
L 134.975235 -73.011155 
L 135.773671 -73.016567 
L 136.572107 -73.022919 
L 137.370543 -73.028098 
L 138.168979 -73.029993 
L 138.967416 -73.026493 
L 139.765852 -73.015485 
L 140.564288 -72.99486 
L 141.362724 -72.962504 
L 142.16116 -72.916307 
L 142.959597 -72.854157 
L 143.758033 -72.773943 
L 144.556469 -72.673553 
L 145.354905 -72.550875 
L 146.153341 -72.399374 
L 146.951778 -72.180752 
L 147.750214 -71.896616 
L 148.54865 -71.5594 
L 149.347086 -71.18154 
L 150.145523 -70.775471 
L 150.943959 -70.353627 
L 151.742395 -69.928445 
L 152.540831 -69.51236 
L 153.339267 -69.117806 
L 154.137704 -68.757219 
L 154.93614 -68.443034 
L 155.734576 -68.187687 
L 156.533012 -68.003612 
L 157.331448 -67.903245 
L 158.129885 -67.895713 
L 158.928321 -67.961972 
L 159.726757 -68.090378 
L 160.525193 -68.273212 
L 161.323629 -68.502754 
L 162.122066 -68.771286 
L 162.920502 -69.071088 
L 163.718938 -69.394442 
L 164.517374 -69.733628 
L 165.31581 -70.080926 
L 166.114247 -70.428619 
L 166.912683 -70.768987 
L 167.711119 -71.09431 
L 168.509555 -71.39687 
L 169.307992 -71.668947 
L 170.106428 -71.909859 
L 170.904864 -72.155788 
L 171.7033 -72.41035 
L 172.501736 -72.670311 
L 173.300173 -72.932438 
L 174.098609 -73.193497 
L 174.897045 -73.450254 
L 175.695481 -73.699477 
L 176.493917 -73.937931 
L 177.292354 -74.162383 
L 178.09079 -74.369599 
L 178.889226 -74.556345 
L 179.687662 -74.719389 
L 180.486098 -74.855495 
L 181.284535 -74.961432 
L 182.082971 -75.034008 
L 182.881407 -75.073445 
L 183.679843 -75.084372 
L 184.47828 -75.071663 
L 185.276716 -75.04019 
L 186.075152 -74.994827 
L 186.873588 -74.940447 
L 187.672024 -74.881924 
L 188.470461 -74.824131 
L 189.268897 -74.77194 
L 190.067333 -74.730227 
L 190.865769 -74.703863 
L 191.664205 -74.697722 
L 192.462642 -74.716677 
L 193.261078 -74.765603 
L 194.059514 -74.853332 
L 194.85795 -74.995129 
L 195.656386 -75.184185 
L 196.454823 -75.411561 
L 197.253259 -75.66832 
L 198.051695 -75.945525 
L 198.850131 -76.234236 
L 199.648568 -76.525517 
L 200.447004 -76.810429 
L 201.24544 -77.080035 
L 202.043876 -77.325396 
L 202.842312 -77.537576 
L 203.640749 -77.707635 
L 204.439185 -77.826636 
L 205.237621 -77.885641 
L 206.036057 -77.872821 
L 206.834493 -77.778056 
L 207.63293 -77.610519 
L 208.431366 -77.380613 
L 209.229802 -77.098744 
L 210.028238 -76.775315 
L 210.826674 -76.420733 
L 211.625111 -76.045401 
L 212.423547 -75.659724 
L 213.221983 -75.274107 
L 214.020419 -74.898954 
L 214.818855 -74.54467 
L 215.617292 -74.221661 
L 216.415728 -73.940329 
L 217.214164 -73.711081 
L 218.0126 -73.529357 
L 218.811037 -73.356907 
L 219.609473 -73.190577 
L 220.407909 -73.029792 
L 221.206345 -72.873981 
L 222.004781 -72.72257 
L 222.803218 -72.574988 
L 223.601654 -72.43066 
L 224.40009 -72.289016 
L 225.198526 -72.149481 
L 225.996962 -72.011484 
L 226.795399 -71.874452 
L 227.593835 -71.737812 
L 228.392271 -71.600991 
L 229.190707 -71.463417 
L 229.989143 -71.325651 
L 230.78758 -71.189944 
L 231.586016 -71.05594 
L 232.384452 -70.923161 
L 233.182888 -70.791128 
L 233.981325 -70.65936 
L 234.779761 -70.527379 
L 235.578197 -70.394705 
L 236.376633 -70.260859 
L 237.175069 -70.125362 
L 237.973506 -69.987734 
L 238.771942 -69.847497 
L 239.570378 -69.70417 
L 240.368814 -69.557275 
L 241.16725 -69.406332 
L 241.965687 -69.236675 
L 242.764123 -69.023271 
L 243.562559 -68.773414 
L 244.360995 -68.495344 
L 245.159431 -68.197299 
L 245.957868 -67.887518 
L 246.756304 -67.574241 
L 247.55474 -67.265706 
L 248.353176 -66.970153 
L 249.151612 -66.69582 
L 249.950049 -66.450946 
L 250.748485 -66.243772 
L 251.546921 -66.082534 
L 252.345357 -65.975474 
L 253.143794 -65.930829 
L 253.94223 -65.942448 
L 254.740666 -65.986146 
L 255.539102 -66.056744 
L 256.337538 -66.149457 
L 257.135975 -66.259505 
L 257.934411 -66.382105 
L 258.732847 -66.512476 
L 259.531283 -66.645836 
L 260.329719 -66.777402 
L 261.128156 -66.902394 
L 261.926592 -67.016028 
L 262.725028 -67.113523 
L 263.523464 -67.190098 
L 264.3219 -67.240969 
L 265.120337 -67.261356 
L 265.918773 -67.250621 
L 266.717209 -67.214871 
L 267.515645 -67.157419 
L 268.314082 -67.081544 
L 269.112518 -66.990523 
L 269.910954 -66.887632 
L 270.70939 -66.77615 
L 271.507826 -66.659354 
L 272.306263 -66.54052 
L 273.104699 -66.422927 
L 273.903135 -66.309852 
L 274.701571 -66.204571 
L 275.500007 -66.110363 
L 276.298444 -66.030504 
L 277.09688 -65.968272 
L 277.895316 -65.919142 
L 278.693752 -65.874844 
L 279.492188 -65.835353 
L 280.290625 -65.800663 
L 281.089061 -65.770768 
L 281.887497 -65.745665 
L 282.685933 -65.725346 
L 283.484369 -65.709806 
L 284.282806 -65.69904 
L 285.081242 -65.693044 
L 285.879678 -65.69181 
L 286.678114 -65.695334 
L 287.476551 -65.703611 
L 288.274987 -65.716634 
L 289.073423 -65.734399 
L 289.073423 -125.245551 
L 289.073423 -125.245551 
L 288.274987 -125.226175 
L 287.476551 -125.208374 
L 286.678114 -125.192232 
L 285.879678 -125.177835 
L 285.081242 -125.165269 
L 284.282806 -125.154619 
L 283.484369 -125.14597 
L 282.685933 -125.139407 
L 281.887497 -125.135018 
L 281.089061 -125.132885 
L 280.290625 -125.133097 
L 279.492188 -125.135737 
L 278.693752 -125.140891 
L 277.895316 -125.148645 
L 277.09688 -125.159024 
L 276.298444 -125.14649 
L 275.500007 -125.092391 
L 274.701571 -125.000227 
L 273.903135 -124.873495 
L 273.104699 -124.715695 
L 272.306263 -124.530325 
L 271.507826 -124.320883 
L 270.70939 -124.090869 
L 269.910954 -123.843779 
L 269.112518 -123.583114 
L 268.314082 -123.312371 
L 267.515645 -123.03505 
L 266.717209 -122.754648 
L 265.918773 -122.474664 
L 265.120337 -122.198366 
L 264.3219 -121.902426 
L 263.523464 -121.573537 
L 262.725028 -121.217411 
L 261.926592 -120.839761 
L 261.128156 -120.446299 
L 260.329719 -120.042739 
L 259.531283 -119.634793 
L 258.732847 -119.228174 
L 257.934411 -118.828594 
L 257.135975 -118.441767 
L 256.337538 -118.073404 
L 255.539102 -117.729219 
L 254.740666 -117.414924 
L 253.94223 -117.136232 
L 253.143794 -116.899128 
L 252.345357 -116.721681 
L 251.546921 -116.60697 
L 250.748485 -116.547758 
L 249.950049 -116.536809 
L 249.151612 -116.566887 
L 248.353176 -116.630755 
L 247.55474 -116.721178 
L 246.756304 -116.830918 
L 245.957868 -116.952739 
L 245.159431 -117.079406 
L 244.360995 -117.203681 
L 243.562559 -117.318329 
L 242.764123 -117.416113 
L 241.965687 -117.489797 
L 241.16725 -117.533134 
L 240.368814 -117.572824 
L 239.570378 -117.622154 
L 238.771942 -117.679127 
L 237.973506 -117.741747 
L 237.175069 -117.808017 
L 236.376633 -117.875939 
L 235.578197 -117.943517 
L 234.779761 -118.008753 
L 233.981325 -118.069652 
L 233.182888 -118.124215 
L 232.384452 -118.170446 
L 231.586016 -118.206348 
L 230.78758 -118.229924 
L 229.989143 -118.239178 
L 229.190707 -118.230316 
L 228.392271 -118.164307 
L 227.593835 -118.031593 
L 226.795399 -117.839669 
L 225.996962 -117.596028 
L 225.198526 -117.308163 
L 224.40009 -116.983568 
L 223.601654 -116.629737 
L 222.803218 -116.254163 
L 222.004781 -115.864341 
L 221.206345 -115.467763 
L 220.407909 -115.071923 
L 219.609473 -114.684315 
L 218.811037 -114.312433 
L 218.0126 -113.96377 
L 217.214164 -113.646358 
L 216.415728 -113.371672 
L 215.617292 -113.135413 
L 214.818855 -112.929043 
L 214.020419 -112.744023 
L 213.221983 -112.571813 
L 212.423547 -112.403877 
L 211.625111 -112.231674 
L 210.826674 -112.046665 
L 210.028238 -111.840313 
L 209.229802 -111.604078 
L 208.431366 -111.329421 
L 207.63293 -111.007803 
L 206.834493 -110.630687 
L 206.036057 -110.189532 
L 205.237621 -109.676419 
L 204.439185 -109.095493 
L 203.640749 -108.456659 
L 202.842312 -107.768928 
L 202.043876 -107.041309 
L 201.24544 -106.282808 
L 200.447004 -105.502437 
L 199.648568 -104.709202 
L 198.850131 -103.912113 
L 198.051695 -103.120178 
L 197.253259 -102.342407 
L 196.454823 -101.587808 
L 195.656386 -100.865389 
L 194.85795 -100.184159 
L 194.059514 -99.553128 
L 193.261078 -98.980059 
L 192.462642 -98.457142 
L 191.664205 -97.975282 
L 190.865769 -97.527209 
L 190.067333 -97.105649 
L 189.268897 -96.703331 
L 188.470461 -96.312982 
L 187.672024 -95.927331 
L 186.873588 -95.539106 
L 186.075152 -95.141034 
L 185.276716 -94.725843 
L 184.47828 -94.286262 
L 183.679843 -93.815017 
L 182.881407 -93.304838 
L 182.082971 -92.748451 
L 181.284535 -92.133067 
L 180.486098 -91.419133 
L 179.687662 -90.614048 
L 178.889226 -89.734672 
L 178.09079 -88.797864 
L 177.292354 -87.820484 
L 176.493917 -86.81939 
L 175.695481 -85.811443 
L 174.897045 -84.813503 
L 174.098609 -83.842427 
L 173.300173 -82.915076 
L 172.501736 -82.04831 
L 171.7033 -81.258987 
L 170.904864 -80.563968 
L 170.106428 -79.980111 
L 169.307992 -79.504538 
L 168.509555 -79.03144 
L 167.711119 -78.547105 
L 166.912683 -78.05709 
L 166.114247 -77.566949 
L 165.31581 -77.082239 
L 164.517374 -76.608514 
L 163.718938 -76.151331 
L 162.920502 -75.716245 
L 162.122066 -75.308811 
L 161.323629 -74.934585 
L 160.525193 -74.599123 
L 159.726757 -74.30798 
L 158.928321 -74.066711 
L 158.129885 -73.880873 
L 157.331448 -73.761494 
L 156.533012 -73.734046 
L 155.734576 -73.790537 
L 154.93614 -73.918707 
L 154.137704 -74.106297 
L 153.339267 -74.341051 
L 152.540831 -74.610709 
L 151.742395 -74.903013 
L 150.943959 -75.205704 
L 150.145523 -75.506523 
L 149.347086 -75.793214 
L 148.54865 -76.053516 
L 147.750214 -76.275172 
L 146.951778 -76.445923 
L 146.153341 -76.553511 
L 145.354905 -76.594249 
L 144.556469 -76.59826 
L 143.758033 -76.573381 
L 142.959597 -76.524087 
L 142.16116 -76.45485 
L 141.362724 -76.370144 
L 140.564288 -76.274444 
L 139.765852 -76.172223 
L 138.967416 -76.067954 
L 138.168979 -75.966112 
L 137.370543 -75.87117 
L 136.572107 -75.787602 
L 135.773671 -75.719881 
L 134.975235 -75.672482 
L 134.176798 -75.649878 
L 133.378362 -75.650635 
L 132.579926 -75.656785 
L 131.78149 -75.666554 
L 130.983053 -75.67979 
L 130.184617 -75.696339 
L 129.386181 -75.716047 
L 128.587745 -75.73876 
L 127.789309 -75.764326 
L 126.990872 -75.79259 
L 126.192436 -75.823398 
L 125.394 -75.856598 
L 124.595564 -75.892036 
L 123.797128 -75.929558 
L 122.998691 -75.96901 
L 122.200255 -76.010238 
L 121.401819 -76.061144 
L 120.603383 -76.143409 
L 119.804947 -76.255289 
L 119.00651 -76.39351 
L 118.208074 -76.5548 
L 117.409638 -76.735888 
L 116.611202 -76.9335 
L 115.812766 -77.144366 
L 115.014329 -77.365212 
L 114.215893 -77.592766 
L 113.417457 -77.823757 
L 112.619021 -78.054912 
L 111.820584 -78.282958 
L 111.022148 -78.504624 
L 110.223712 -78.716637 
L 109.425276 -78.93045 
L 108.62684 -79.17682 
L 107.828403 -79.450303 
L 107.029967 -79.743779 
L 106.231531 -80.050126 
L 105.433095 -80.362225 
L 104.634659 -80.672955 
L 103.836222 -80.975196 
L 103.037786 -81.261828 
L 102.23935 -81.52573 
L 101.440914 -81.759782 
L 100.642478 -81.956863 
L 99.844041 -82.109854 
L 99.045605 -82.211633 
L 98.247169 -82.25508 
L 97.448733 -82.242161 
L 96.650296 -82.191394 
L 95.85186 -82.108922 
L 95.053424 -82.000404 
L 94.254988 -81.8715 
L 93.456552 -81.727869 
L 92.658115 -81.575172 
L 91.859679 -81.419067 
L 91.061243 -81.265215 
L 90.262807 -81.119275 
L 89.464371 -80.986907 
L 88.665934 -80.87377 
L 87.867498 -80.785523 
L 87.069062 -80.727828 
L 86.270626 -80.706342 
L 85.47219 -80.808334 
L 84.673753 -81.15653 
L 83.875317 -81.716014 
L 83.076881 -82.449165 
L 82.278445 -83.318363 
L 81.480009 -84.28599 
L 80.681572 -85.314425 
L 79.883136 -86.366047 
L 79.0847 -87.403238 
L 78.286264 -88.388377 
L 77.487827 -89.283844 
L 76.689391 -90.052019 
L 75.890955 -90.655283 
L 75.092519 -91.056015 
L 74.294083 -91.216596 
L 73.495646 -91.195709 
L 72.69721 -91.122915 
L 71.898774 -91.006394 
L 71.100338 -90.853214 
L 70.301902 -90.670441 
L 69.503465 -90.465142 
L 68.705029 -90.244384 
L 67.906593 -90.015234 
L 67.108157 -89.784758 
L 66.309721 -89.560023 
L 65.511284 -89.348097 
L 64.712848 -89.156045 
L 63.914412 -88.990935 
L 63.115976 -88.859834 
L 62.317539 -88.769808 
L 61.519103 -88.703718 
L 60.720667 -88.635145 
L 59.922231 -88.56459 
L 59.123795 -88.492619 
L 58.325358 -88.4198 
L 57.526922 -88.346699 
L 56.728486 -88.273882 
L 55.93005 -88.201916 
L 55.131614 -88.131368 
L 54.333177 -88.062803 
L 53.534741 -87.996789 
L 52.736305 -87.933893 
L 51.937869 -87.87468 
L 51.139433 -87.819717 
L 50.340996 -87.769572 
z
" style="stroke: #ff7f0e; stroke-opacity: 0.7"/>
    </defs>
    <g clip-path="url(#pc5e6ab3421)">
     <use xlink:href="#m1683f40300" x="0" y="217.533125" style="fill: #ff7f0e; fill-opacity: 0.7; stroke: #ff7f0e; stroke-opacity: 0.7"/>
    </g>
   </g>
   <g id="patch_3">
    <path d="M 38.404375 183.13 
L 38.404375 9.45 
" style="fill: none; stroke: #000000; stroke-width: 0.5; stroke-linejoin: miter; stroke-linecap: square"/>
   </g>
   <g id="patch_4">
    <path d="M 38.404375 183.13 
L 301.010044 183.13 
" style="fill: none; stroke: #000000; stroke-width: 0.5; stroke-linejoin: miter; stroke-linecap: square"/>
   </g>
   <g id="legend_1">
    <g id="patch_5">
     <path d="M 47.404375 25.95 
L 67.404375 25.95 
L 67.404375 18.95 
L 47.404375 18.95 
z
" style="fill: #d62728; fill-opacity: 0.7; stroke: #d62728; stroke-opacity: 0.7; stroke-linejoin: miter"/>
    </g>
    <g id="text_17">
     <!-- Solo -->
     <g transform="translate(75.404375 25.95) scale(0.1 -0.1)">
      <defs>
       <path id="RobotoCondensed-Regular-53" d="M 2481 1150 
Q 2481 1469 2312 1656 
Q 2144 1844 1591 2042 
Q 1038 2241 713 2547 
Q 388 2853 388 3375 
Q 388 3906 741 4259 
Q 1094 4613 1691 4613 
Q 2356 4613 2706 4191 
Q 3056 3769 3056 3238 
L 2481 3238 
Q 2481 3619 2293 3869 
Q 2106 4119 1691 4119 
Q 1313 4119 1139 3908 
Q 966 3697 966 3381 
Q 966 3094 1170 2903 
Q 1375 2713 1806 2556 
Q 2475 2338 2765 2013 
Q 3056 1688 3056 1156 
Q 3056 600 2695 268 
Q 2334 -63 1719 -63 
Q 1363 -63 1028 93 
Q 694 250 480 558 
Q 266 866 266 1319 
L 841 1319 
Q 841 853 1098 640 
Q 1356 428 1719 428 
Q 2094 428 2287 623 
Q 2481 819 2481 1150 
z
" transform="scale(0.015625)"/>
       <path id="RobotoCondensed-Regular-6c" d="M 1009 4800 
L 1009 0 
L 459 0 
L 459 4800 
L 1009 4800 
z
" transform="scale(0.015625)"/>
      </defs>
      <use xlink:href="#RobotoCondensed-Regular-53"/>
      <use xlink:href="#RobotoCondensed-Regular-6f" transform="translate(51.855469 0)"/>
      <use xlink:href="#RobotoCondensed-Regular-6c" transform="translate(102.050781 0)"/>
      <use xlink:href="#RobotoCondensed-Regular-6f" transform="translate(125 0)"/>
     </g>
    </g>
    <g id="patch_6">
     <path d="M 47.404375 40.48125 
L 67.404375 40.48125 
L 67.404375 33.48125 
L 47.404375 33.48125 
z
" style="fill: #1f77b4; fill-opacity: 0.7; stroke: #1f77b4; stroke-opacity: 0.7; stroke-linejoin: miter"/>
    </g>
    <g id="text_18">
     <!-- Initial -->
     <g transform="translate(75.404375 40.48125) scale(0.1 -0.1)">
      <defs>
       <path id="RobotoCondensed-Regular-49" d="M 1091 4550 
L 1091 0 
L 516 0 
L 516 4550 
L 1091 4550 
z
" transform="scale(0.015625)"/>
      </defs>
      <use xlink:href="#RobotoCondensed-Regular-49"/>
      <use xlink:href="#RobotoCondensed-Regular-6e" transform="translate(25 0)"/>
      <use xlink:href="#RobotoCondensed-Regular-69" transform="translate(73.4375 0)"/>
      <use xlink:href="#RobotoCondensed-Regular-74" transform="translate(96.386719 0)"/>
      <use xlink:href="#RobotoCondensed-Regular-69" transform="translate(125.976562 0)"/>
      <use xlink:href="#RobotoCondensed-Regular-61" transform="translate(148.925781 0)"/>
      <use xlink:href="#RobotoCondensed-Regular-6c" transform="translate(196.826172 0)"/>
     </g>
    </g>
    <g id="patch_7">
     <path d="M 47.404375 55.0125 
L 67.404375 55.0125 
L 67.404375 48.0125 
L 47.404375 48.0125 
z
" style="fill: #2ca02c; fill-opacity: 0.7; stroke: #2ca02c; stroke-opacity: 0.7; stroke-linejoin: miter"/>
    </g>
    <g id="text_19">
     <!-- Middle -->
     <g transform="translate(75.404375 55.0125) scale(0.1 -0.1)">
      <defs>
       <path id="RobotoCondensed-Regular-4d" d="M 2419 841 
L 3606 4550 
L 4341 4550 
L 4341 0 
L 3769 0 
L 3769 1775 
L 3822 3538 
L 2634 0 
L 2197 0 
L 1009 3544 
L 1063 1775 
L 1063 0 
L 491 0 
L 491 4550 
L 1228 4550 
L 2419 841 
z
" transform="scale(0.015625)"/>
       <path id="RobotoCondensed-Regular-64" d="M 2234 0 
L 2209 366 
Q 1941 -63 1425 -63 
Q 925 -63 611 331 
Q 297 725 297 1528 
L 297 1844 
Q 297 2678 609 3061 
Q 922 3444 1431 3444 
Q 1922 3444 2188 3050 
L 2188 4800 
L 2738 4800 
L 2738 0 
L 2234 0 
z
M 850 1528 
Q 850 963 1019 695 
Q 1188 428 1569 428 
Q 1981 428 2188 847 
L 2188 2544 
Q 1972 2956 1575 2956 
Q 1194 2956 1023 2687 
Q 853 2419 850 1866 
L 850 1528 
z
" transform="scale(0.015625)"/>
      </defs>
      <use xlink:href="#RobotoCondensed-Regular-4d"/>
      <use xlink:href="#RobotoCondensed-Regular-69" transform="translate(75.537109 0)"/>
      <use xlink:href="#RobotoCondensed-Regular-64" transform="translate(98.486328 0)"/>
      <use xlink:href="#RobotoCondensed-Regular-64" transform="translate(148.095703 0)"/>
      <use xlink:href="#RobotoCondensed-Regular-6c" transform="translate(197.705078 0)"/>
      <use xlink:href="#RobotoCondensed-Regular-65" transform="translate(220.654297 0)"/>
     </g>
    </g>
    <g id="patch_8">
     <path d="M 47.404375 69.54375 
L 67.404375 69.54375 
L 67.404375 62.54375 
L 47.404375 62.54375 
z
" style="fill: #ff7f0e; fill-opacity: 0.7; stroke: #ff7f0e; stroke-opacity: 0.7; stroke-linejoin: miter"/>
    </g>
    <g id="text_20">
     <!-- End -->
     <g transform="translate(75.404375 69.54375) scale(0.1 -0.1)">
      <defs>
       <path id="RobotoCondensed-Regular-45" d="M 491 0 
L 491 4550 
L 2906 4550 
L 2906 4056 
L 1066 4056 
L 1066 2594 
L 2672 2594 
L 2672 2103 
L 1066 2103 
L 1066 491 
L 2938 491 
L 2938 0 
L 491 0 
z
" transform="scale(0.015625)"/>
      </defs>
      <use xlink:href="#RobotoCondensed-Regular-45"/>
      <use xlink:href="#RobotoCondensed-Regular-6e" transform="translate(49.707031 0)"/>
      <use xlink:href="#RobotoCondensed-Regular-64" transform="translate(98.144531 0)"/>
     </g>
    </g>
   </g>
  </g>
 </g>
 <defs>
  <clipPath id="pc5e6ab3421">
   <rect x="38.404375" y="9.45" width="262.605669" height="173.68"/>
  </clipPath>
 </defs>
</svg>
