<?xml version="1.0" encoding="utf-8" standalone="no"?>
<!DOCTYPE svg PUBLIC "-//W3C//DTD SVG 1.1//EN"
  "http://www.w3.org/Graphics/SVG/1.1/DTD/svg11.dtd">
<svg xmlns:xlink="http://www.w3.org/1999/xlink" width="711.795313pt" height="422.87pt" viewBox="0 0 711.795313 422.87" xmlns="http://www.w3.org/2000/svg" version="1.1">
 <metadata>
  <rdf:RDF xmlns:dc="http://purl.org/dc/elements/1.1/" xmlns:cc="http://creativecommons.org/ns#" xmlns:rdf="http://www.w3.org/1999/02/22-rdf-syntax-ns#">
   <cc:Work>
    <dc:type rdf:resource="http://purl.org/dc/dcmitype/StillImage"/>
    <dc:date>2026-04-25T15:08:11.812197</dc:date>
    <dc:format>image/svg+xml</dc:format>
    <dc:creator>
     <cc:Agent>
      <dc:title>Matplotlib v3.10.7, https://matplotlib.org/</dc:title>
     </cc:Agent>
    </dc:creator>
   </cc:Work>
  </rdf:RDF>
 </metadata>
 <defs>
  <style type="text/css">*{stroke-linejoin: round; stroke-linecap: butt}</style>
 </defs>
 <g id="figure_1">
  <g id="patch_1">
   <path d="M 0 422.87 
L 711.795313 422.87 
L 711.795313 0 
L 0 0 
z
" style="fill: #ffffff"/>
  </g>
  <g id="axes_1">
   <g id="patch_2">
    <path d="M 45.710313 382.12 
L 692.385312 382.12 
L 692.385312 7.2 
L 45.710313 7.2 
z
" style="fill: #ffffff"/>
   </g>
   <g id="matplotlib.axis_1">
    <g id="xtick_1">
     <g id="text_1">
      <!-- 1989 -->
      <g transform="translate(62.894631 397.875312) scale(0.11 -0.11)">
       <defs>
        <path id="NotoSansCJKjp-Regular-31" d="M 563 0 
L 3136 0 
L 3136 486 
L 2195 486 
L 2195 4698 
L 1747 4698 
C 1491 4544 1190 4435 774 4358 
L 774 3987 
L 1606 3987 
L 1606 486 
L 563 486 
L 563 0 
z
" transform="scale(0.015625)"/>
        <path id="NotoSansCJKjp-Regular-39" d="M 832 3258 
C 832 3898 1178 4320 1626 4320 
C 2227 4320 2586 3808 2650 2842 
C 2349 2400 1990 2214 1670 2214 
C 1114 2214 832 2624 832 3258 
z
M 1498 -83 
C 2381 -83 3200 646 3200 2547 
C 3200 4038 2528 4781 1626 4781 
C 896 4781 282 4166 282 3258 
C 282 2285 794 1779 1574 1779 
C 1965 1779 2368 2003 2656 2355 
C 2611 902 2086 403 1478 403 
C 1178 403 890 538 698 762 
L 371 397 
C 634 122 992 -83 1498 -83 
z
" transform="scale(0.015625)"/>
        <path id="NotoSansCJKjp-Regular-38" d="M 1786 -83 
C 2669 -83 3258 448 3258 1133 
C 3258 1773 2874 2125 2464 2362 
L 2464 2394 
C 2746 2611 3091 3034 3091 3526 
C 3091 4250 2605 4762 1805 4762 
C 1075 4762 518 4288 518 3571 
C 518 3078 806 2726 1152 2490 
L 1152 2458 
C 723 2227 288 1792 288 1165 
C 288 442 922 -83 1786 -83 
z
M 2106 2547 
C 1555 2765 1050 3008 1050 3571 
C 1050 4026 1363 4333 1798 4333 
C 2304 4333 2592 3955 2592 3494 
C 2592 3149 2426 2829 2106 2547 
z
M 1798 352 
C 1235 352 819 717 819 1216 
C 819 1664 1082 2035 1459 2278 
C 2125 2010 2701 1773 2701 1146 
C 2701 678 2336 352 1798 352 
z
" transform="scale(0.015625)"/>
       </defs>
       <use xlink:href="#NotoSansCJKjp-Regular-31"/>
       <use xlink:href="#NotoSansCJKjp-Regular-39" transform="translate(55.499985 0)"/>
       <use xlink:href="#NotoSansCJKjp-Regular-38" transform="translate(110.999969 0)"/>
       <use xlink:href="#NotoSansCJKjp-Regular-39" transform="translate(166.499954 0)"/>
      </g>
     </g>
    </g>
    <g id="xtick_2">
     <g id="text_2">
      <!-- 1992 -->
      <g transform="translate(151.077585 397.875312) scale(0.11 -0.11)">
       <defs>
        <path id="NotoSansCJKjp-Regular-32" d="M 282 0 
L 3232 0 
L 3232 506 
L 1933 506 
C 1696 506 1408 480 1165 461 
C 2266 1504 3002 2458 3002 3392 
C 3002 4230 2477 4781 1638 4781 
C 1043 4781 640 4506 256 4090 
L 595 3757 
C 851 4064 1184 4301 1568 4301 
C 2150 4301 2432 3910 2432 3373 
C 2432 2566 1754 1632 282 346 
L 282 0 
z
" transform="scale(0.015625)"/>
       </defs>
       <use xlink:href="#NotoSansCJKjp-Regular-31"/>
       <use xlink:href="#NotoSansCJKjp-Regular-39" transform="translate(55.499985 0)"/>
       <use xlink:href="#NotoSansCJKjp-Regular-39" transform="translate(110.999969 0)"/>
       <use xlink:href="#NotoSansCJKjp-Regular-32" transform="translate(166.499954 0)"/>
      </g>
     </g>
    </g>
    <g id="xtick_3">
     <g id="text_3">
      <!-- 1995 -->
      <g transform="translate(239.26054 397.875312) scale(0.11 -0.11)">
       <defs>
        <path id="NotoSansCJKjp-Regular-35" d="M 1670 -83 
C 2464 -83 3206 499 3206 1530 
C 3206 2560 2573 3021 1792 3021 
C 1510 3021 1306 2950 1094 2835 
L 1210 4192 
L 2982 4192 
L 2982 4698 
L 698 4698 
L 550 2496 
L 864 2304 
C 1133 2483 1331 2579 1645 2579 
C 2234 2579 2618 2182 2618 1510 
C 2618 826 2170 403 1619 403 
C 1075 403 736 653 467 922 
L 179 538 
C 493 224 941 -83 1670 -83 
z
" transform="scale(0.015625)"/>
       </defs>
       <use xlink:href="#NotoSansCJKjp-Regular-31"/>
       <use xlink:href="#NotoSansCJKjp-Regular-39" transform="translate(55.499985 0)"/>
       <use xlink:href="#NotoSansCJKjp-Regular-39" transform="translate(110.999969 0)"/>
       <use xlink:href="#NotoSansCJKjp-Regular-35" transform="translate(166.499954 0)"/>
      </g>
     </g>
    </g>
    <g id="xtick_4">
     <g id="text_4">
      <!-- 1998 -->
      <g transform="translate(327.443494 397.875312) scale(0.11 -0.11)">
       <use xlink:href="#NotoSansCJKjp-Regular-31"/>
       <use xlink:href="#NotoSansCJKjp-Regular-39" transform="translate(55.499985 0)"/>
       <use xlink:href="#NotoSansCJKjp-Regular-39" transform="translate(110.999969 0)"/>
       <use xlink:href="#NotoSansCJKjp-Regular-38" transform="translate(166.499954 0)"/>
      </g>
     </g>
    </g>
    <g id="xtick_5">
     <g id="text_5">
      <!-- 2001 -->
      <g transform="translate(415.626449 397.875312) scale(0.11 -0.11)">
       <defs>
        <path id="NotoSansCJKjp-Regular-30" d="M 1779 -83 
C 2669 -83 3238 730 3238 2362 
C 3238 3987 2669 4781 1779 4781 
C 883 4781 314 3994 314 2362 
C 314 730 883 -83 1779 -83 
z
M 1779 384 
C 1242 384 883 979 883 2362 
C 883 3731 1242 4314 1779 4314 
C 2310 4314 2669 3731 2669 2362 
C 2669 979 2310 384 1779 384 
z
" transform="scale(0.015625)"/>
       </defs>
       <use xlink:href="#NotoSansCJKjp-Regular-32"/>
       <use xlink:href="#NotoSansCJKjp-Regular-30" transform="translate(55.499985 0)"/>
       <use xlink:href="#NotoSansCJKjp-Regular-30" transform="translate(110.999969 0)"/>
       <use xlink:href="#NotoSansCJKjp-Regular-31" transform="translate(166.499954 0)"/>
      </g>
     </g>
    </g>
    <g id="xtick_6">
     <g id="text_6">
      <!-- 2004 -->
      <g transform="translate(503.809403 397.875312) scale(0.11 -0.11)">
       <defs>
        <path id="NotoSansCJKjp-Regular-34" d="M 736 1760 
L 1805 3360 
C 1939 3590 2067 3821 2182 4051 
L 2208 4051 
C 2195 3808 2176 3430 2176 3200 
L 2176 1760 
L 736 1760 
z
M 2176 0 
L 2726 0 
L 2726 1293 
L 3347 1293 
L 3347 1760 
L 2726 1760 
L 2726 4698 
L 2080 4698 
L 128 1677 
L 128 1293 
L 2176 1293 
L 2176 0 
z
" transform="scale(0.015625)"/>
       </defs>
       <use xlink:href="#NotoSansCJKjp-Regular-32"/>
       <use xlink:href="#NotoSansCJKjp-Regular-30" transform="translate(55.499985 0)"/>
       <use xlink:href="#NotoSansCJKjp-Regular-30" transform="translate(110.999969 0)"/>
       <use xlink:href="#NotoSansCJKjp-Regular-34" transform="translate(166.499954 0)"/>
      </g>
     </g>
    </g>
    <g id="xtick_7">
     <g id="text_7">
      <!-- 2007 -->
      <g transform="translate(591.992358 397.875312) scale(0.11 -0.11)">
       <defs>
        <path id="NotoSansCJKjp-Regular-37" d="M 1267 0 
L 1875 0 
C 1946 1837 2150 2931 3251 4339 
L 3251 4698 
L 314 4698 
L 314 4192 
L 2586 4192 
C 1670 2912 1344 1779 1267 0 
z
" transform="scale(0.015625)"/>
       </defs>
       <use xlink:href="#NotoSansCJKjp-Regular-32"/>
       <use xlink:href="#NotoSansCJKjp-Regular-30" transform="translate(55.499985 0)"/>
       <use xlink:href="#NotoSansCJKjp-Regular-30" transform="translate(110.999969 0)"/>
       <use xlink:href="#NotoSansCJKjp-Regular-37" transform="translate(166.499954 0)"/>
      </g>
     </g>
    </g>
    <g id="xtick_8">
     <g id="text_8">
      <!-- 2010 -->
      <g transform="translate(680.175313 397.875312) scale(0.11 -0.11)">
       <use xlink:href="#NotoSansCJKjp-Regular-32"/>
       <use xlink:href="#NotoSansCJKjp-Regular-30" transform="translate(55.499985 0)"/>
       <use xlink:href="#NotoSansCJKjp-Regular-31" transform="translate(110.999969 0)"/>
       <use xlink:href="#NotoSansCJKjp-Regular-30" transform="translate(166.499954 0)"/>
      </g>
     </g>
    </g>
    <g id="text_9">
     <!-- Year -->
     <g transform="translate(357.844141 413.150312) scale(0.11 -0.11)">
      <defs>
       <path id="NotoSansCJKjp-Regular-59" d="M 1402 0 
L 1997 0 
L 1997 1824 
L 3405 4698 
L 2790 4698 
L 2182 3366 
C 2042 3021 1882 2694 1715 2342 
L 1690 2342 
C 1523 2694 1382 3021 1229 3366 
L 627 4698 
L -6 4698 
L 1402 1824 
L 1402 0 
z
" transform="scale(0.015625)"/>
       <path id="NotoSansCJKjp-Regular-65" d="M 1990 -83 
C 2464 -83 2835 77 3142 275 
L 2931 659 
C 2675 486 2400 384 2061 384 
C 1402 384 947 858 909 1600 
L 3251 1600 
C 3264 1683 3277 1805 3277 1933 
C 3277 2925 2778 3565 1894 3565 
C 1088 3565 326 2861 326 1734 
C 326 589 1069 -83 1990 -83 
z
M 902 2022 
C 973 2701 1408 3098 1901 3098 
C 2445 3098 2765 2720 2765 2022 
L 902 2022 
z
" transform="scale(0.015625)"/>
       <path id="NotoSansCJKjp-Regular-61" d="M 1389 -83 
C 1818 -83 2208 141 2541 416 
L 2560 416 
L 2611 0 
L 3091 0 
L 3091 2138 
C 3091 2995 2733 3565 1888 3565 
C 1331 3565 838 3315 518 3110 
L 749 2707 
C 1024 2893 1389 3078 1792 3078 
C 2362 3078 2509 2650 2509 2202 
C 1030 2035 371 1658 371 902 
C 371 275 806 -83 1389 -83 
z
M 1555 384 
C 1210 384 941 544 941 941 
C 941 1389 1338 1677 2509 1818 
L 2509 845 
C 2170 544 1894 384 1555 384 
z
" transform="scale(0.015625)"/>
       <path id="NotoSansCJKjp-Regular-72" d="M 589 0 
L 1171 0 
L 1171 2234 
C 1402 2829 1760 3034 2048 3034 
C 2189 3034 2272 3021 2387 2976 
L 2496 3488 
C 2387 3546 2278 3565 2125 3565 
C 1734 3565 1382 3283 1139 2842 
L 1120 2842 
L 1069 3475 
L 589 3475 
L 589 0 
z
" transform="scale(0.015625)"/>
      </defs>
      <use xlink:href="#NotoSansCJKjp-Regular-59"/>
      <use xlink:href="#NotoSansCJKjp-Regular-65" transform="translate(53.099991 0)"/>
      <use xlink:href="#NotoSansCJKjp-Regular-61" transform="translate(108.499985 0)"/>
      <use xlink:href="#NotoSansCJKjp-Regular-72" transform="translate(164.899979 0)"/>
     </g>
    </g>
   </g>
   <g id="matplotlib.axis_2">
    <g id="ytick_1">
     <g id="line2d_1">
      <path d="M 45.710313 382.12 
L 692.385312 382.12 
" clip-path="url(#p8669ab6706)" style="fill: none; stroke: #808080; stroke-opacity: 0.3; stroke-width: 0.5; stroke-linecap: round"/>
     </g>
     <g id="text_10">
      <!-- 0% -->
      <g transform="translate(22.475 386.497656) scale(0.11 -0.11)">
       <defs>
        <path id="NotoSansCJKjp-Regular-25" d="M 1312 1818 
C 1958 1818 2381 2362 2381 3309 
C 2381 4250 1958 4781 1312 4781 
C 672 4781 250 4250 250 3309 
C 250 2362 672 1818 1312 1818 
z
M 1312 2182 
C 947 2182 691 2560 691 3309 
C 691 4058 947 4422 1312 4422 
C 1683 4422 1939 4058 1939 3309 
C 1939 2560 1683 2182 1312 2182 
z
M 1453 -83 
L 1843 -83 
L 4435 4781 
L 4038 4781 
L 1453 -83 
z
M 4582 -83 
C 5222 -83 5645 454 5645 1402 
C 5645 2342 5222 2874 4582 2874 
C 3942 2874 3514 2342 3514 1402 
C 3514 454 3942 -83 4582 -83 
z
M 4582 275 
C 4211 275 3962 653 3962 1402 
C 3962 2150 4211 2515 4582 2515 
C 4947 2515 5203 2150 5203 1402 
C 5203 653 4947 275 4582 275 
z
" transform="scale(0.015625)"/>
       </defs>
       <use xlink:href="#NotoSansCJKjp-Regular-30"/>
       <use xlink:href="#NotoSansCJKjp-Regular-25" transform="translate(55.499985 0)"/>
      </g>
     </g>
    </g>
    <g id="ytick_2">
     <g id="line2d_2">
      <path d="M 45.710313 232.152 
L 692.385312 232.152 
" clip-path="url(#p8669ab6706)" style="fill: none; stroke: #808080; stroke-opacity: 0.3; stroke-width: 0.5; stroke-linecap: round"/>
     </g>
     <g id="text_11">
      <!-- 2% -->
      <g transform="translate(22.475 236.529656) scale(0.11 -0.11)">
       <use xlink:href="#NotoSansCJKjp-Regular-32"/>
       <use xlink:href="#NotoSansCJKjp-Regular-25" transform="translate(55.499985 0)"/>
      </g>
     </g>
    </g>
    <g id="ytick_3">
     <g id="line2d_3">
      <path d="M 45.710313 82.184 
L 692.385312 82.184 
" clip-path="url(#p8669ab6706)" style="fill: none; stroke: #808080; stroke-opacity: 0.3; stroke-width: 0.5; stroke-linecap: round"/>
     </g>
     <g id="text_12">
      <!-- 4% -->
      <g transform="translate(22.475 86.561656) scale(0.11 -0.11)">
       <use xlink:href="#NotoSansCJKjp-Regular-34"/>
       <use xlink:href="#NotoSansCJKjp-Regular-25" transform="translate(55.499985 0)"/>
      </g>
     </g>
    </g>
    <g id="text_13">
     <!-- Proportion -->
     <g transform="translate(15.955312 222.758125) rotate(-90) scale(0.11 -0.11)">
      <defs>
       <path id="NotoSansCJKjp-Regular-50" d="M 640 0 
L 1235 0 
L 1235 1862 
L 2010 1862 
C 3040 1862 3738 2323 3738 3315 
C 3738 4339 3034 4698 1984 4698 
L 640 4698 
L 640 0 
z
M 1235 2342 
L 1235 4211 
L 1907 4211 
C 2733 4211 3149 3994 3149 3315 
C 3149 2643 2758 2342 1933 2342 
L 1235 2342 
z
" transform="scale(0.015625)"/>
       <path id="NotoSansCJKjp-Regular-6f" d="M 1939 -83 
C 2790 -83 3552 582 3552 1734 
C 3552 2893 2790 3565 1939 3565 
C 1088 3565 326 2893 326 1734 
C 326 582 1088 -83 1939 -83 
z
M 1939 403 
C 1338 403 934 934 934 1734 
C 934 2534 1338 3078 1939 3078 
C 2541 3078 2950 2534 2950 1734 
C 2950 934 2541 403 1939 403 
z
" transform="scale(0.015625)"/>
       <path id="NotoSansCJKjp-Regular-70" d="M 589 -1466 
L 1171 -1466 
L 1171 -288 
L 1158 320 
C 1472 64 1805 -83 2118 -83 
C 2918 -83 3629 602 3629 1792 
C 3629 2861 3142 3565 2246 3565 
C 1843 3565 1453 3334 1139 3078 
L 1120 3078 
L 1069 3475 
L 589 3475 
L 589 -1466 
z
M 2022 403 
C 1792 403 1485 499 1171 768 
L 1171 2592 
C 1510 2906 1811 3072 2106 3072 
C 2765 3072 3021 2554 3021 1786 
C 3021 922 2598 403 2022 403 
z
" transform="scale(0.015625)"/>
       <path id="NotoSansCJKjp-Regular-74" d="M 1683 -83 
C 1894 -83 2125 -19 2323 45 
L 2208 480 
C 2093 435 1933 390 1811 390 
C 1408 390 1274 634 1274 1062 
L 1274 3002 
L 2214 3002 
L 2214 3475 
L 1274 3475 
L 1274 4454 
L 787 4454 
L 717 3475 
L 173 3443 
L 173 3002 
L 691 3002 
L 691 1075 
C 691 384 941 -83 1683 -83 
z
" transform="scale(0.015625)"/>
       <path id="NotoSansCJKjp-Regular-69" d="M 589 0 
L 1171 0 
L 1171 3475 
L 589 3475 
L 589 0 
z
M 883 4192 
C 1114 4192 1274 4346 1274 4582 
C 1274 4806 1114 4960 883 4960 
C 653 4960 493 4806 493 4582 
C 493 4346 653 4192 883 4192 
z
" transform="scale(0.015625)"/>
       <path id="NotoSansCJKjp-Regular-6e" d="M 589 0 
L 1171 0 
L 1171 2522 
C 1523 2874 1766 3053 2125 3053 
C 2586 3053 2784 2778 2784 2125 
L 2784 0 
L 3366 0 
L 3366 2202 
C 3366 3091 3034 3565 2304 3565 
C 1830 3565 1472 3302 1139 2976 
L 1120 2976 
L 1069 3475 
L 589 3475 
L 589 0 
z
" transform="scale(0.015625)"/>
      </defs>
      <use xlink:href="#NotoSansCJKjp-Regular-50"/>
      <use xlink:href="#NotoSansCJKjp-Regular-72" transform="translate(63.199997 0)"/>
      <use xlink:href="#NotoSansCJKjp-Regular-6f" transform="translate(101.999985 0)"/>
      <use xlink:href="#NotoSansCJKjp-Regular-70" transform="translate(162.599976 0)"/>
      <use xlink:href="#NotoSansCJKjp-Regular-6f" transform="translate(224.59996 0)"/>
      <use xlink:href="#NotoSansCJKjp-Regular-72" transform="translate(285.199951 0)"/>
      <use xlink:href="#NotoSansCJKjp-Regular-74" transform="translate(323.999939 0)"/>
      <use xlink:href="#NotoSansCJKjp-Regular-69" transform="translate(361.699936 0)"/>
      <use xlink:href="#NotoSansCJKjp-Regular-6f" transform="translate(389.199921 0)"/>
      <use xlink:href="#NotoSansCJKjp-Regular-6e" transform="translate(449.799911 0)"/>
     </g>
    </g>
   </g>
   <g id="FillBetweenPolyCollection_1">
    <path d="M 75.104631 382.068039 
L 75.104631 382.12 
L 77.070806 382.12 
L 79.036981 382.12 
L 81.003156 382.12 
L 82.969331 382.12 
L 84.935506 382.12 
L 86.901681 382.12 
L 88.867857 382.12 
L 90.834032 382.12 
L 92.800207 382.12 
L 94.766382 382.12 
L 96.732557 382.12 
L 98.698732 382.12 
L 100.664907 382.12 
L 102.631082 382.12 
L 104.597258 382.12 
L 106.563433 382.12 
L 108.529608 382.12 
L 110.495783 382.12 
L 112.461958 382.12 
L 114.428133 382.12 
L 116.394308 382.12 
L 118.360484 382.12 
L 120.326659 382.12 
L 122.292834 382.12 
L 124.259009 382.12 
L 126.225184 382.12 
L 128.191359 382.12 
L 130.157534 382.12 
L 132.123709 382.12 
L 134.089885 382.12 
L 136.05606 382.12 
L 138.022235 382.12 
L 139.98841 382.12 
L 141.954585 382.12 
L 143.92076 382.12 
L 145.886935 382.12 
L 147.85311 382.12 
L 149.819286 382.12 
L 151.785461 382.12 
L 153.751636 382.12 
L 155.717811 382.12 
L 157.683986 382.12 
L 159.650161 382.12 
L 161.616336 382.12 
L 163.582511 382.12 
L 165.548687 382.12 
L 167.514862 382.12 
L 169.481037 382.12 
L 171.447212 382.12 
L 173.413387 382.12 
L 175.379562 382.12 
L 177.345737 382.12 
L 179.311913 382.12 
L 181.278088 382.12 
L 183.244263 382.12 
L 185.210438 382.12 
L 187.176613 382.12 
L 189.142788 382.12 
L 191.108963 382.12 
L 193.075138 382.12 
L 195.041314 382.12 
L 197.007489 382.12 
L 198.973664 382.12 
L 200.939839 382.12 
L 202.906014 382.12 
L 204.872189 382.12 
L 206.838364 382.12 
L 208.804539 382.12 
L 210.770715 382.12 
L 212.73689 382.12 
L 214.703065 382.12 
L 216.66924 382.12 
L 218.635415 382.12 
L 220.60159 382.12 
L 222.567765 382.12 
L 224.533941 382.12 
L 226.500116 382.12 
L 228.466291 382.12 
L 230.432466 382.12 
L 232.398641 382.12 
L 234.364816 382.12 
L 236.330991 382.12 
L 238.297166 382.12 
L 240.263342 382.12 
L 242.229517 382.12 
L 244.195692 382.12 
L 246.161867 382.12 
L 248.128042 382.12 
L 250.094217 382.12 
L 252.060392 382.12 
L 254.026567 382.12 
L 255.992743 382.12 
L 257.958918 382.12 
L 259.925093 382.12 
L 261.891268 382.12 
L 263.857443 382.12 
L 265.823618 382.12 
L 267.789793 382.12 
L 269.755968 382.12 
L 271.722144 382.12 
L 273.688319 382.12 
L 275.654494 382.12 
L 277.620669 382.12 
L 279.586844 382.12 
L 281.553019 382.12 
L 283.519194 382.12 
L 285.48537 382.12 
L 287.451545 382.12 
L 289.41772 382.12 
L 291.383895 382.12 
L 293.35007 382.12 
L 295.316245 382.12 
L 297.28242 382.12 
L 299.248595 382.12 
L 301.214771 382.12 
L 303.180946 382.12 
L 305.147121 382.12 
L 307.113296 382.12 
L 309.079471 382.12 
L 311.045646 382.12 
L 313.011821 382.12 
L 314.977996 382.12 
L 316.944172 382.12 
L 318.910347 382.12 
L 320.876522 382.12 
L 322.842697 382.12 
L 324.808872 382.12 
L 326.775047 382.12 
L 328.741222 382.12 
L 330.707397 382.12 
L 332.673573 382.12 
L 334.639748 382.12 
L 336.605923 382.12 
L 338.572098 382.12 
L 340.538273 382.12 
L 342.504448 382.12 
L 344.470623 382.12 
L 346.436799 382.12 
L 348.402974 382.12 
L 350.369149 382.12 
L 352.335324 382.12 
L 354.301499 382.12 
L 356.267674 382.12 
L 358.233849 382.12 
L 360.200024 382.12 
L 362.1662 382.12 
L 364.132375 382.12 
L 366.09855 382.12 
L 368.064725 382.12 
L 370.0309 382.12 
L 371.997075 382.12 
L 373.96325 382.12 
L 375.929425 382.12 
L 377.895601 382.12 
L 379.861776 382.12 
L 381.827951 382.12 
L 383.794126 382.12 
L 385.760301 382.12 
L 387.726476 382.12 
L 389.692651 382.12 
L 391.658826 382.12 
L 393.625002 382.12 
L 395.591177 382.12 
L 397.557352 382.12 
L 399.523527 382.12 
L 401.489702 382.12 
L 403.455877 382.12 
L 405.422052 382.12 
L 407.388228 382.12 
L 409.354403 382.12 
L 411.320578 382.12 
L 413.286753 382.12 
L 415.252928 382.12 
L 417.219103 382.12 
L 419.185278 382.12 
L 421.151453 382.12 
L 423.117629 382.12 
L 425.083804 382.12 
L 427.049979 382.12 
L 429.016154 382.12 
L 430.982329 382.12 
L 432.948504 382.12 
L 434.914679 382.12 
L 436.880854 382.12 
L 438.84703 382.12 
L 440.813205 382.12 
L 442.77938 382.12 
L 444.745555 382.12 
L 446.71173 382.12 
L 448.677905 382.12 
L 450.64408 382.12 
L 452.610255 382.12 
L 454.576431 382.12 
L 456.542606 382.12 
L 458.508781 382.12 
L 460.474956 382.12 
L 462.441131 382.12 
L 464.407306 382.12 
L 466.373481 382.12 
L 468.339657 382.12 
L 470.305832 382.12 
L 472.272007 382.12 
L 474.238182 382.12 
L 476.204357 382.12 
L 478.170532 382.12 
L 480.136707 382.12 
L 482.102882 382.12 
L 484.069058 382.12 
L 486.035233 382.12 
L 488.001408 382.12 
L 489.967583 382.12 
L 491.933758 382.12 
L 493.899933 382.12 
L 495.866108 382.12 
L 497.832283 382.12 
L 499.798459 382.12 
L 501.764634 382.12 
L 503.730809 382.12 
L 505.696984 382.12 
L 507.663159 382.12 
L 509.629334 382.12 
L 511.595509 382.12 
L 513.561684 382.12 
L 515.52786 382.12 
L 517.494035 382.12 
L 519.46021 382.12 
L 521.426385 382.12 
L 523.39256 382.12 
L 525.358735 382.12 
L 527.32491 382.12 
L 529.291086 382.12 
L 531.257261 382.12 
L 533.223436 382.12 
L 535.189611 382.12 
L 537.155786 382.12 
L 539.121961 382.12 
L 541.088136 382.12 
L 543.054311 382.12 
L 545.020487 382.12 
L 546.986662 382.12 
L 548.952837 382.12 
L 550.919012 382.12 
L 552.885187 382.12 
L 554.851362 382.12 
L 556.817537 382.12 
L 558.783712 382.12 
L 560.749888 382.12 
L 562.716063 382.12 
L 564.682238 382.12 
L 566.648413 382.12 
L 568.614588 382.12 
L 570.580763 382.12 
L 572.546938 382.12 
L 574.513114 382.12 
L 576.479289 382.12 
L 578.445464 382.12 
L 580.411639 382.12 
L 582.377814 382.12 
L 584.343989 382.12 
L 586.310164 382.12 
L 588.276339 382.12 
L 590.242515 382.12 
L 592.20869 382.12 
L 594.174865 382.12 
L 596.14104 382.12 
L 598.107215 382.12 
L 600.07339 382.12 
L 602.039565 382.12 
L 604.00574 382.12 
L 605.971916 382.12 
L 607.938091 382.12 
L 609.904266 382.12 
L 611.870441 382.12 
L 613.836616 382.12 
L 615.802791 382.12 
L 617.768966 382.12 
L 619.735141 382.12 
L 621.701317 382.12 
L 623.667492 382.12 
L 625.633667 382.12 
L 627.599842 382.12 
L 629.566017 382.12 
L 631.532192 382.12 
L 633.498367 382.12 
L 635.464543 382.12 
L 637.430718 382.12 
L 639.396893 382.12 
L 641.363068 382.12 
L 643.329243 382.12 
L 645.295418 382.12 
L 647.261593 382.12 
L 649.227768 382.12 
L 651.193944 382.12 
L 653.160119 382.12 
L 655.126294 382.12 
L 657.092469 382.12 
L 659.058644 382.12 
L 661.024819 382.12 
L 662.990994 382.12 
L 662.990994 349.966538 
L 662.990994 349.966538 
L 661.024819 350.435083 
L 659.058644 350.888751 
L 657.092469 351.324931 
L 655.126294 351.741014 
L 653.160119 352.134388 
L 651.193944 352.502443 
L 649.227768 352.842569 
L 647.261593 353.152154 
L 645.295418 353.428589 
L 643.329243 353.669263 
L 641.363068 353.871565 
L 639.396893 354.032884 
L 637.430718 354.150611 
L 635.464543 354.222134 
L 633.498367 354.244861 
L 631.532192 354.225571 
L 629.566017 354.174652 
L 627.599842 354.097025 
L 625.633667 353.997615 
L 623.667492 353.881344 
L 621.701317 353.753134 
L 619.735141 353.617909 
L 617.768966 353.480592 
L 615.802791 353.346106 
L 613.836616 353.219373 
L 611.870441 353.105317 
L 609.904266 353.00886 
L 607.938091 352.934926 
L 605.971916 352.888437 
L 604.00574 352.874977 
L 602.039565 352.971971 
L 600.07339 353.21465 
L 598.107215 353.581148 
L 596.14104 354.049598 
L 594.174865 354.598136 
L 592.20869 355.204895 
L 590.242515 355.848011 
L 588.276339 356.505618 
L 586.310164 357.155849 
L 584.343989 357.776841 
L 582.377814 358.346726 
L 580.411639 358.84364 
L 578.445464 359.245717 
L 576.479289 359.531091 
L 574.513114 359.679508 
L 572.546938 359.764217 
L 570.580763 359.836011 
L 568.614588 359.896806 
L 566.648413 359.948522 
L 564.682238 359.993074 
L 562.716063 360.032382 
L 560.749888 360.068362 
L 558.783712 360.102932 
L 556.817537 360.13801 
L 554.851362 360.175513 
L 552.885187 360.21736 
L 550.919012 360.265466 
L 548.952837 360.321751 
L 546.986662 360.388131 
L 545.020487 360.467332 
L 543.054311 360.585518 
L 541.088136 360.748629 
L 539.121961 360.948627 
L 537.155786 361.177478 
L 535.189611 361.427143 
L 533.223436 361.689587 
L 531.257261 361.956773 
L 529.291086 362.220665 
L 527.32491 362.473225 
L 525.358735 362.706418 
L 523.39256 362.912208 
L 521.426385 363.082556 
L 519.46021 363.209428 
L 517.494035 363.284787 
L 515.52786 363.30175 
L 513.561684 363.280402 
L 511.595509 363.232498 
L 509.629334 363.16037 
L 507.663159 363.066349 
L 505.696984 362.952764 
L 503.730809 362.821947 
L 501.764634 362.676229 
L 499.798459 362.51794 
L 497.832283 362.34941 
L 495.866108 362.172971 
L 493.899933 361.990952 
L 491.933758 361.805686 
L 489.967583 361.619501 
L 488.001408 361.43473 
L 486.035233 361.250664 
L 484.069058 361.023858 
L 482.102882 360.747168 
L 480.136707 360.430624 
L 478.170532 360.084254 
L 476.204357 359.718089 
L 474.238182 359.342156 
L 472.272007 358.966485 
L 470.305832 358.601107 
L 468.339657 358.256048 
L 466.373481 357.94134 
L 464.407306 357.66701 
L 462.441131 357.443089 
L 460.474956 357.279605 
L 458.508781 357.186588 
L 456.542606 357.187164 
L 454.576431 357.431923 
L 452.610255 357.930154 
L 450.64408 358.642494 
L 448.677905 359.529581 
L 446.71173 360.552053 
L 444.745555 361.670547 
L 442.77938 362.845702 
L 440.813205 364.038154 
L 438.84703 365.208542 
L 436.880854 366.317504 
L 434.914679 367.325676 
L 432.948504 368.193698 
L 430.982329 368.882206 
L 429.016154 369.351838 
L 427.049979 369.584145 
L 425.083804 369.74707 
L 423.117629 369.888188 
L 421.151453 370.010566 
L 419.185278 370.117272 
L 417.219103 370.211373 
L 415.252928 370.295937 
L 413.286753 370.37403 
L 411.320578 370.448721 
L 409.354403 370.523077 
L 407.388228 370.600164 
L 405.422052 370.683051 
L 403.455877 370.774804 
L 401.489702 370.878492 
L 399.523527 370.997181 
L 397.557352 371.133588 
L 395.591177 371.286535 
L 393.625002 371.454066 
L 391.658826 371.634515 
L 389.692651 371.826212 
L 387.726476 372.02749 
L 385.760301 372.23668 
L 383.794126 372.452113 
L 381.827951 372.672121 
L 379.861776 372.895037 
L 377.895601 373.11919 
L 375.929425 373.342914 
L 373.96325 373.564539 
L 371.997075 373.782398 
L 370.0309 373.994821 
L 368.064725 374.202032 
L 366.09855 374.413824 
L 364.132375 374.630721 
L 362.1662 374.851368 
L 360.200024 375.074412 
L 358.233849 375.298497 
L 356.267674 375.522269 
L 354.301499 375.744375 
L 352.335324 375.963458 
L 350.369149 376.178166 
L 348.402974 376.387143 
L 346.436799 376.589035 
L 344.470623 376.782488 
L 342.504448 376.966148 
L 340.538273 377.13866 
L 338.572098 377.302053 
L 336.605923 377.471154 
L 334.639748 377.645565 
L 332.673573 377.822574 
L 330.707397 377.999472 
L 328.741222 378.173547 
L 326.775047 378.342089 
L 324.808872 378.502388 
L 322.842697 378.651733 
L 320.876522 378.787413 
L 318.910347 378.906718 
L 316.944172 379.006938 
L 314.977996 379.085361 
L 313.011821 379.139279 
L 311.045646 379.165978 
L 309.079471 379.165202 
L 307.113296 379.146524 
L 305.147121 379.113361 
L 303.180946 379.06818 
L 301.214771 379.013444 
L 299.248595 378.951621 
L 297.28242 378.885175 
L 295.316245 378.816571 
L 293.35007 378.748276 
L 291.383895 378.682754 
L 289.41772 378.622471 
L 287.451545 378.569893 
L 285.48537 378.527485 
L 283.519194 378.497713 
L 281.553019 378.483041 
L 279.586844 378.482168 
L 277.620669 378.483449 
L 275.654494 378.485817 
L 273.688319 378.489242 
L 271.722144 378.493698 
L 269.755968 378.499156 
L 267.789793 378.505589 
L 265.823618 378.512969 
L 263.857443 378.521269 
L 261.891268 378.53046 
L 259.925093 378.540515 
L 257.958918 378.551407 
L 255.992743 378.563107 
L 254.026567 378.575588 
L 252.060392 378.588822 
L 250.094217 378.608924 
L 248.128042 378.652226 
L 246.161867 378.716884 
L 244.195692 378.799879 
L 242.229517 378.898194 
L 240.263342 379.008811 
L 238.297166 379.128712 
L 236.330991 379.254878 
L 234.364816 379.384293 
L 232.398641 379.513937 
L 230.432466 379.640793 
L 228.466291 379.761844 
L 226.500116 379.87407 
L 224.533941 379.974455 
L 222.567765 380.059979 
L 220.60159 380.133215 
L 218.635415 380.206069 
L 216.66924 380.2786 
L 214.703065 380.350268 
L 212.73689 380.420535 
L 210.770715 380.488864 
L 208.804539 380.554717 
L 206.838364 380.617554 
L 204.872189 380.676839 
L 202.906014 380.732032 
L 200.939839 380.782596 
L 198.973664 380.827993 
L 197.007489 380.867684 
L 195.041314 380.901132 
L 193.075138 380.927797 
L 191.108963 380.949027 
L 189.142788 380.968523 
L 187.176613 380.986523 
L 185.210438 381.003147 
L 183.244263 381.018519 
L 181.278088 381.032759 
L 179.311913 381.045991 
L 177.345737 381.058337 
L 175.379562 381.069918 
L 173.413387 381.080856 
L 171.447212 381.091275 
L 169.481037 381.101296 
L 167.514862 381.11104 
L 165.548687 381.120631 
L 163.582511 381.13019 
L 161.616336 381.139468 
L 159.650161 381.147946 
L 157.683986 381.155739 
L 155.717811 381.162977 
L 153.751636 381.169789 
L 151.785461 381.176302 
L 149.819286 381.182645 
L 147.85311 381.188948 
L 145.886935 381.195338 
L 143.92076 381.201944 
L 141.954585 381.208895 
L 139.98841 381.216319 
L 138.022235 381.224344 
L 136.05606 381.2331 
L 134.089885 381.242715 
L 132.123709 381.253153 
L 130.157534 381.264239 
L 128.191359 381.276002 
L 126.225184 381.288468 
L 124.259009 381.301665 
L 122.292834 381.315622 
L 120.326659 381.330366 
L 118.360484 381.345925 
L 116.394308 381.362327 
L 114.428133 381.3796 
L 112.461958 381.397772 
L 110.495783 381.416871 
L 108.529608 381.436924 
L 106.563433 381.45796 
L 104.597258 381.480007 
L 102.631082 381.503904 
L 100.664907 381.530561 
L 98.698732 381.559849 
L 96.732557 381.591634 
L 94.766382 381.625784 
L 92.800207 381.662164 
L 90.834032 381.700643 
L 88.867857 381.741087 
L 86.901681 381.783363 
L 84.935506 381.827337 
L 82.969331 381.872878 
L 81.003156 381.919852 
L 79.036981 381.968125 
L 77.070806 382.017565 
L 75.104631 382.068039 
z
" clip-path="url(#p8669ab6706)" style="fill: url(#he700f549dd)"/>
   </g>
   <g id="FillBetweenPolyCollection_2">
    <path d="M 75.104631 382.016079 
L 75.104631 382.068039 
L 77.070806 382.017565 
L 79.036981 381.968125 
L 81.003156 381.919852 
L 82.969331 381.872878 
L 84.935506 381.827337 
L 86.901681 381.783363 
L 88.867857 381.741087 
L 90.834032 381.700643 
L 92.800207 381.662164 
L 94.766382 381.625784 
L 96.732557 381.591634 
L 98.698732 381.559849 
L 100.664907 381.530561 
L 102.631082 381.503904 
L 104.597258 381.480007 
L 106.563433 381.45796 
L 108.529608 381.436924 
L 110.495783 381.416871 
L 112.461958 381.397772 
L 114.428133 381.3796 
L 116.394308 381.362327 
L 118.360484 381.345925 
L 120.326659 381.330366 
L 122.292834 381.315622 
L 124.259009 381.301665 
L 126.225184 381.288468 
L 128.191359 381.276002 
L 130.157534 381.264239 
L 132.123709 381.253153 
L 134.089885 381.242715 
L 136.05606 381.2331 
L 138.022235 381.224344 
L 139.98841 381.216319 
L 141.954585 381.208895 
L 143.92076 381.201944 
L 145.886935 381.195338 
L 147.85311 381.188948 
L 149.819286 381.182645 
L 151.785461 381.176302 
L 153.751636 381.169789 
L 155.717811 381.162977 
L 157.683986 381.155739 
L 159.650161 381.147946 
L 161.616336 381.139468 
L 163.582511 381.13019 
L 165.548687 381.120631 
L 167.514862 381.11104 
L 169.481037 381.101296 
L 171.447212 381.091275 
L 173.413387 381.080856 
L 175.379562 381.069918 
L 177.345737 381.058337 
L 179.311913 381.045991 
L 181.278088 381.032759 
L 183.244263 381.018519 
L 185.210438 381.003147 
L 187.176613 380.986523 
L 189.142788 380.968523 
L 191.108963 380.949027 
L 193.075138 380.927797 
L 195.041314 380.901132 
L 197.007489 380.867684 
L 198.973664 380.827993 
L 200.939839 380.782596 
L 202.906014 380.732032 
L 204.872189 380.676839 
L 206.838364 380.617554 
L 208.804539 380.554717 
L 210.770715 380.488864 
L 212.73689 380.420535 
L 214.703065 380.350268 
L 216.66924 380.2786 
L 218.635415 380.206069 
L 220.60159 380.133215 
L 222.567765 380.059979 
L 224.533941 379.974455 
L 226.500116 379.87407 
L 228.466291 379.761844 
L 230.432466 379.640793 
L 232.398641 379.513937 
L 234.364816 379.384293 
L 236.330991 379.254878 
L 238.297166 379.128712 
L 240.263342 379.008811 
L 242.229517 378.898194 
L 244.195692 378.799879 
L 246.161867 378.716884 
L 248.128042 378.652226 
L 250.094217 378.608924 
L 252.060392 378.588822 
L 254.026567 378.575588 
L 255.992743 378.563107 
L 257.958918 378.551407 
L 259.925093 378.540515 
L 261.891268 378.53046 
L 263.857443 378.521269 
L 265.823618 378.512969 
L 267.789793 378.505589 
L 269.755968 378.499156 
L 271.722144 378.493698 
L 273.688319 378.489242 
L 275.654494 378.485817 
L 277.620669 378.483449 
L 279.586844 378.482168 
L 281.553019 378.483041 
L 283.519194 378.497713 
L 285.48537 378.527485 
L 287.451545 378.569893 
L 289.41772 378.622471 
L 291.383895 378.682754 
L 293.35007 378.748276 
L 295.316245 378.816571 
L 297.28242 378.885175 
L 299.248595 378.951621 
L 301.214771 379.013444 
L 303.180946 379.06818 
L 305.147121 379.113361 
L 307.113296 379.146524 
L 309.079471 379.165202 
L 311.045646 379.165978 
L 313.011821 379.139279 
L 314.977996 379.085361 
L 316.944172 379.006938 
L 318.910347 378.906718 
L 320.876522 378.787413 
L 322.842697 378.651733 
L 324.808872 378.502388 
L 326.775047 378.342089 
L 328.741222 378.173547 
L 330.707397 377.999472 
L 332.673573 377.822574 
L 334.639748 377.645565 
L 336.605923 377.471154 
L 338.572098 377.302053 
L 340.538273 377.13866 
L 342.504448 376.966148 
L 344.470623 376.782488 
L 346.436799 376.589035 
L 348.402974 376.387143 
L 350.369149 376.178166 
L 352.335324 375.963458 
L 354.301499 375.744375 
L 356.267674 375.522269 
L 358.233849 375.298497 
L 360.200024 375.074412 
L 362.1662 374.851368 
L 364.132375 374.630721 
L 366.09855 374.413824 
L 368.064725 374.202032 
L 370.0309 373.994821 
L 371.997075 373.782398 
L 373.96325 373.564539 
L 375.929425 373.342914 
L 377.895601 373.11919 
L 379.861776 372.895037 
L 381.827951 372.672121 
L 383.794126 372.452113 
L 385.760301 372.23668 
L 387.726476 372.02749 
L 389.692651 371.826212 
L 391.658826 371.634515 
L 393.625002 371.454066 
L 395.591177 371.286535 
L 397.557352 371.133588 
L 399.523527 370.997181 
L 401.489702 370.878492 
L 403.455877 370.774804 
L 405.422052 370.683051 
L 407.388228 370.600164 
L 409.354403 370.523077 
L 411.320578 370.448721 
L 413.286753 370.37403 
L 415.252928 370.295937 
L 417.219103 370.211373 
L 419.185278 370.117272 
L 421.151453 370.010566 
L 423.117629 369.888188 
L 425.083804 369.74707 
L 427.049979 369.584145 
L 429.016154 369.351838 
L 430.982329 368.882206 
L 432.948504 368.193698 
L 434.914679 367.325676 
L 436.880854 366.317504 
L 438.84703 365.208542 
L 440.813205 364.038154 
L 442.77938 362.845702 
L 444.745555 361.670547 
L 446.71173 360.552053 
L 448.677905 359.529581 
L 450.64408 358.642494 
L 452.610255 357.930154 
L 454.576431 357.431923 
L 456.542606 357.187164 
L 458.508781 357.186588 
L 460.474956 357.279605 
L 462.441131 357.443089 
L 464.407306 357.66701 
L 466.373481 357.94134 
L 468.339657 358.256048 
L 470.305832 358.601107 
L 472.272007 358.966485 
L 474.238182 359.342156 
L 476.204357 359.718089 
L 478.170532 360.084254 
L 480.136707 360.430624 
L 482.102882 360.747168 
L 484.069058 361.023858 
L 486.035233 361.250664 
L 488.001408 361.43473 
L 489.967583 361.619501 
L 491.933758 361.805686 
L 493.899933 361.990952 
L 495.866108 362.172971 
L 497.832283 362.34941 
L 499.798459 362.51794 
L 501.764634 362.676229 
L 503.730809 362.821947 
L 505.696984 362.952764 
L 507.663159 363.066349 
L 509.629334 363.16037 
L 511.595509 363.232498 
L 513.561684 363.280402 
L 515.52786 363.30175 
L 517.494035 363.284787 
L 519.46021 363.209428 
L 521.426385 363.082556 
L 523.39256 362.912208 
L 525.358735 362.706418 
L 527.32491 362.473225 
L 529.291086 362.220665 
L 531.257261 361.956773 
L 533.223436 361.689587 
L 535.189611 361.427143 
L 537.155786 361.177478 
L 539.121961 360.948627 
L 541.088136 360.748629 
L 543.054311 360.585518 
L 545.020487 360.467332 
L 546.986662 360.388131 
L 548.952837 360.321751 
L 550.919012 360.265466 
L 552.885187 360.21736 
L 554.851362 360.175513 
L 556.817537 360.13801 
L 558.783712 360.102932 
L 560.749888 360.068362 
L 562.716063 360.032382 
L 564.682238 359.993074 
L 566.648413 359.948522 
L 568.614588 359.896806 
L 570.580763 359.836011 
L 572.546938 359.764217 
L 574.513114 359.679508 
L 576.479289 359.531091 
L 578.445464 359.245717 
L 580.411639 358.84364 
L 582.377814 358.346726 
L 584.343989 357.776841 
L 586.310164 357.155849 
L 588.276339 356.505618 
L 590.242515 355.848011 
L 592.20869 355.204895 
L 594.174865 354.598136 
L 596.14104 354.049598 
L 598.107215 353.581148 
L 600.07339 353.21465 
L 602.039565 352.971971 
L 604.00574 352.874977 
L 605.971916 352.888437 
L 607.938091 352.934926 
L 609.904266 353.00886 
L 611.870441 353.105317 
L 613.836616 353.219373 
L 615.802791 353.346106 
L 617.768966 353.480592 
L 619.735141 353.617909 
L 621.701317 353.753134 
L 623.667492 353.881344 
L 625.633667 353.997615 
L 627.599842 354.097025 
L 629.566017 354.174652 
L 631.532192 354.225571 
L 633.498367 354.244861 
L 635.464543 354.222134 
L 637.430718 354.150611 
L 639.396893 354.032884 
L 641.363068 353.871565 
L 643.329243 353.669263 
L 645.295418 353.428589 
L 647.261593 353.152154 
L 649.227768 352.842569 
L 651.193944 352.502443 
L 653.160119 352.134388 
L 655.126294 351.741014 
L 657.092469 351.324931 
L 659.058644 350.888751 
L 661.024819 350.435083 
L 662.990994 349.966538 
L 662.990994 304.194357 
L 662.990994 304.194357 
L 661.024819 305.156659 
L 659.058644 306.097809 
L 657.092469 307.015006 
L 655.126294 307.905451 
L 653.160119 308.766344 
L 651.193944 309.594885 
L 649.227768 310.388275 
L 647.261593 311.143714 
L 645.295418 311.858401 
L 643.329243 312.529538 
L 641.363068 313.154324 
L 639.396893 313.729959 
L 637.430718 314.253645 
L 635.464543 314.722581 
L 633.498367 315.133969 
L 631.532192 315.487817 
L 629.566017 315.791278 
L 627.599842 316.052497 
L 625.633667 316.279618 
L 623.667492 316.480785 
L 621.701317 316.664142 
L 619.735141 316.837832 
L 617.768966 317.010001 
L 615.802791 317.188793 
L 613.836616 317.38235 
L 611.870441 317.598818 
L 609.904266 317.84634 
L 607.938091 318.133061 
L 605.971916 318.467124 
L 604.00574 318.857587 
L 602.039565 319.411833 
L 600.07339 320.175341 
L 598.107215 321.113884 
L 596.14104 322.193234 
L 594.174865 323.379166 
L 592.20869 324.637452 
L 590.242515 325.933864 
L 588.276339 327.234176 
L 586.310164 328.50416 
L 584.343989 329.70959 
L 582.377814 330.816238 
L 580.411639 331.789877 
L 578.445464 332.596281 
L 576.479289 333.201221 
L 574.513114 333.572969 
L 572.546938 333.825436 
L 570.580763 334.03989 
L 568.614588 334.222239 
L 566.648413 334.378394 
L 564.682238 334.514263 
L 562.716063 334.635756 
L 560.749888 334.748783 
L 558.783712 334.859254 
L 556.817537 334.973077 
L 554.851362 335.096162 
L 552.885187 335.234419 
L 550.919012 335.393757 
L 548.952837 335.580086 
L 546.986662 335.799315 
L 545.020487 336.060918 
L 543.054311 336.479328 
L 541.088136 337.083725 
L 539.121961 337.842243 
L 537.155786 338.723015 
L 535.189611 339.694177 
L 533.223436 340.723861 
L 531.257261 341.780203 
L 529.291086 342.831337 
L 527.32491 343.845397 
L 525.358735 344.790516 
L 523.39256 345.634831 
L 521.426385 346.346473 
L 519.46021 346.893579 
L 517.494035 347.244282 
L 515.52786 347.373658 
L 513.561684 347.411431 
L 511.595509 347.419112 
L 509.629334 347.398938 
L 507.663159 347.353143 
L 505.696984 347.283964 
L 503.730809 347.193636 
L 501.764634 347.084394 
L 499.798459 346.958475 
L 497.832283 346.818114 
L 495.866108 346.665546 
L 493.899933 346.503007 
L 491.933758 346.332733 
L 489.967583 346.15696 
L 488.001408 345.977923 
L 486.035233 345.791063 
L 484.069058 345.496999 
L 482.102882 345.079129 
L 480.136707 344.559453 
L 478.170532 343.959971 
L 476.204357 343.302686 
L 474.238182 342.609595 
L 472.272007 341.902701 
L 470.305832 341.204004 
L 468.339657 340.535503 
L 466.373481 339.9192 
L 464.407306 339.377094 
L 462.441131 338.931186 
L 460.474956 338.603477 
L 458.508781 338.415967 
L 456.542606 338.413361 
L 454.576431 338.858615 
L 452.610255 339.764122 
L 450.64408 341.057307 
L 448.677905 342.665596 
L 446.71173 344.516413 
L 444.745555 346.537184 
L 442.77938 348.655334 
L 440.813205 350.798287 
L 438.84703 352.893469 
L 436.880854 354.868305 
L 434.914679 356.650219 
L 432.948504 358.166637 
L 430.982329 359.344985 
L 429.016154 360.112686 
L 427.049979 360.437305 
L 425.083804 360.642649 
L 423.117629 360.818682 
L 421.151453 360.969669 
L 419.185278 361.099873 
L 417.219103 361.213555 
L 415.252928 361.31498 
L 413.286753 361.408411 
L 411.320578 361.498111 
L 409.354403 361.588343 
L 407.388228 361.68337 
L 405.422052 361.787455 
L 403.455877 361.904862 
L 401.489702 362.039853 
L 399.523527 362.196692 
L 397.557352 362.383838 
L 395.591177 362.632203 
L 393.625002 362.940596 
L 391.658826 363.300939 
L 389.692651 363.705152 
L 387.726476 364.145155 
L 385.760301 364.61287 
L 383.794126 365.100216 
L 381.827951 365.599115 
L 379.861776 366.101486 
L 377.895601 366.59925 
L 375.929425 367.084329 
L 373.96325 367.548642 
L 371.997075 367.984109 
L 370.0309 368.382653 
L 368.064725 368.742706 
L 366.09855 369.097832 
L 364.132375 369.452994 
L 362.1662 369.806924 
L 360.200024 370.158356 
L 358.233849 370.506023 
L 356.267674 370.848657 
L 354.301499 371.184993 
L 352.335324 371.513762 
L 350.369149 371.833698 
L 348.402974 372.143535 
L 346.436799 372.442004 
L 344.470623 372.72784 
L 342.504448 372.999774 
L 340.538273 373.256541 
L 338.572098 373.500668 
L 336.605923 373.748962 
L 334.639748 374.001053 
L 332.673573 374.253971 
L 330.707397 374.504748 
L 328.741222 374.750415 
L 326.775047 374.988003 
L 324.808872 375.214542 
L 322.842697 375.427065 
L 320.876522 375.622601 
L 318.910347 375.798182 
L 316.944172 375.95084 
L 314.977996 376.077605 
L 313.011821 376.175508 
L 311.045646 376.241581 
L 309.079471 376.275454 
L 307.113296 376.287416 
L 305.147121 376.281504 
L 303.180946 376.260763 
L 301.214771 376.228235 
L 299.248595 376.186966 
L 297.28242 376.139998 
L 295.316245 376.090376 
L 293.35007 376.041142 
L 291.383895 375.995342 
L 289.41772 375.956017 
L 287.451545 375.926212 
L 285.48537 375.908971 
L 283.519194 375.907338 
L 281.553019 375.924355 
L 279.586844 375.960486 
L 277.620669 376.00789 
L 275.654494 376.06456 
L 273.688319 376.129149 
L 271.722144 376.200308 
L 269.755968 376.27669 
L 267.789793 376.356946 
L 265.823618 376.439729 
L 263.857443 376.523691 
L 261.891268 376.607483 
L 259.925093 376.689759 
L 257.958918 376.769169 
L 255.992743 376.844366 
L 254.026567 376.914002 
L 252.060392 376.976729 
L 250.094217 377.039376 
L 248.128042 377.123486 
L 246.161867 377.227561 
L 244.195692 377.348578 
L 242.229517 377.483513 
L 240.263342 377.629341 
L 238.297166 377.783038 
L 236.330991 377.941581 
L 234.364816 378.101946 
L 232.398641 378.261108 
L 230.432466 378.416043 
L 228.466291 378.563729 
L 226.500116 378.701139 
L 224.533941 378.825251 
L 222.567765 378.933041 
L 220.60159 379.02746 
L 218.635415 379.121293 
L 216.66924 379.214512 
L 214.703065 379.306447 
L 212.73689 379.396429 
L 210.770715 379.48379 
L 208.804539 379.567859 
L 206.838364 379.647968 
L 204.872189 379.723449 
L 202.906014 379.793631 
L 200.939839 379.857847 
L 198.973664 379.915426 
L 197.007489 379.9657 
L 195.041314 380.008001 
L 193.075138 380.041658 
L 191.108963 380.06825 
L 189.142788 380.09224 
L 187.176613 380.114016 
L 185.210438 380.133833 
L 183.244263 380.151947 
L 181.278088 380.16861 
L 179.311913 380.184078 
L 177.345737 380.198606 
L 175.379562 380.212447 
L 173.413387 380.225857 
L 171.447212 380.23909 
L 169.481037 380.2524 
L 167.514862 380.266043 
L 165.548687 380.280272 
L 163.582511 380.295342 
L 161.616336 380.314148 
L 159.650161 380.340714 
L 157.683986 380.373955 
L 155.717811 380.412698 
L 153.751636 380.45577 
L 151.785461 380.501997 
L 149.819286 380.550206 
L 147.85311 380.599225 
L 145.886935 380.647879 
L 143.92076 380.694995 
L 141.954585 380.739401 
L 139.98841 380.779923 
L 138.022235 380.815388 
L 136.05606 380.844623 
L 134.089885 380.866454 
L 132.123709 380.883194 
L 130.157534 380.899558 
L 128.191359 380.915759 
L 126.225184 380.93197 
L 124.259009 380.948364 
L 122.292834 380.965111 
L 120.326659 380.982387 
L 118.360484 381.000361 
L 116.394308 381.019208 
L 114.428133 381.0391 
L 112.461958 381.060209 
L 110.495783 381.082707 
L 108.529608 381.106768 
L 106.563433 381.132563 
L 104.597258 381.160266 
L 102.631082 381.191333 
L 100.664907 381.227223 
L 98.698732 381.267682 
L 96.732557 381.312454 
L 94.766382 381.361282 
L 92.800207 381.413908 
L 90.834032 381.470076 
L 88.867857 381.529528 
L 86.901681 381.592008 
L 84.935506 381.657259 
L 82.969331 381.725024 
L 81.003156 381.795045 
L 79.036981 381.867066 
L 77.070806 381.94083 
L 75.104631 382.016079 
z
" clip-path="url(#p8669ab6706)" style="fill: url(#h9d85e21820)"/>
   </g>
   <g id="FillBetweenPolyCollection_3">
    <path d="M 75.104631 382.016079 
L 75.104631 382.016079 
L 77.070806 381.94083 
L 79.036981 381.867066 
L 81.003156 381.795045 
L 82.969331 381.725024 
L 84.935506 381.657259 
L 86.901681 381.592008 
L 88.867857 381.529528 
L 90.834032 381.470076 
L 92.800207 381.413908 
L 94.766382 381.361282 
L 96.732557 381.312454 
L 98.698732 381.267682 
L 100.664907 381.227223 
L 102.631082 381.191333 
L 104.597258 381.160266 
L 106.563433 381.132563 
L 108.529608 381.106768 
L 110.495783 381.082707 
L 112.461958 381.060209 
L 114.428133 381.0391 
L 116.394308 381.019208 
L 118.360484 381.000361 
L 120.326659 380.982387 
L 122.292834 380.965111 
L 124.259009 380.948364 
L 126.225184 380.93197 
L 128.191359 380.915759 
L 130.157534 380.899558 
L 132.123709 380.883194 
L 134.089885 380.866454 
L 136.05606 380.844623 
L 138.022235 380.815388 
L 139.98841 380.779923 
L 141.954585 380.739401 
L 143.92076 380.694995 
L 145.886935 380.647879 
L 147.85311 380.599225 
L 149.819286 380.550206 
L 151.785461 380.501997 
L 153.751636 380.45577 
L 155.717811 380.412698 
L 157.683986 380.373955 
L 159.650161 380.340714 
L 161.616336 380.314148 
L 163.582511 380.295342 
L 165.548687 380.280272 
L 167.514862 380.266043 
L 169.481037 380.2524 
L 171.447212 380.23909 
L 173.413387 380.225857 
L 175.379562 380.212447 
L 177.345737 380.198606 
L 179.311913 380.184078 
L 181.278088 380.16861 
L 183.244263 380.151947 
L 185.210438 380.133833 
L 187.176613 380.114016 
L 189.142788 380.09224 
L 191.108963 380.06825 
L 193.075138 380.041658 
L 195.041314 380.008001 
L 197.007489 379.9657 
L 198.973664 379.915426 
L 200.939839 379.857847 
L 202.906014 379.793631 
L 204.872189 379.723449 
L 206.838364 379.647968 
L 208.804539 379.567859 
L 210.770715 379.48379 
L 212.73689 379.396429 
L 214.703065 379.306447 
L 216.66924 379.214512 
L 218.635415 379.121293 
L 220.60159 379.02746 
L 222.567765 378.933041 
L 224.533941 378.825251 
L 226.500116 378.701139 
L 228.466291 378.563729 
L 230.432466 378.416043 
L 232.398641 378.261108 
L 234.364816 378.101946 
L 236.330991 377.941581 
L 238.297166 377.783038 
L 240.263342 377.629341 
L 242.229517 377.483513 
L 244.195692 377.348578 
L 246.161867 377.227561 
L 248.128042 377.123486 
L 250.094217 377.039376 
L 252.060392 376.976729 
L 254.026567 376.914002 
L 255.992743 376.844366 
L 257.958918 376.769169 
L 259.925093 376.689759 
L 261.891268 376.607483 
L 263.857443 376.523691 
L 265.823618 376.439729 
L 267.789793 376.356946 
L 269.755968 376.27669 
L 271.722144 376.200308 
L 273.688319 376.129149 
L 275.654494 376.06456 
L 277.620669 376.00789 
L 279.586844 375.960486 
L 281.553019 375.924355 
L 283.519194 375.907338 
L 285.48537 375.908971 
L 287.451545 375.926212 
L 289.41772 375.956017 
L 291.383895 375.995342 
L 293.35007 376.041142 
L 295.316245 376.090376 
L 297.28242 376.139998 
L 299.248595 376.186966 
L 301.214771 376.228235 
L 303.180946 376.260763 
L 305.147121 376.281504 
L 307.113296 376.287416 
L 309.079471 376.275454 
L 311.045646 376.241581 
L 313.011821 376.175508 
L 314.977996 376.077605 
L 316.944172 375.95084 
L 318.910347 375.798182 
L 320.876522 375.622601 
L 322.842697 375.427065 
L 324.808872 375.214542 
L 326.775047 374.988003 
L 328.741222 374.750415 
L 330.707397 374.504748 
L 332.673573 374.253971 
L 334.639748 374.001053 
L 336.605923 373.748962 
L 338.572098 373.500668 
L 340.538273 373.256541 
L 342.504448 372.999774 
L 344.470623 372.72784 
L 346.436799 372.442004 
L 348.402974 372.143535 
L 350.369149 371.833698 
L 352.335324 371.513762 
L 354.301499 371.184993 
L 356.267674 370.848657 
L 358.233849 370.506023 
L 360.200024 370.158356 
L 362.1662 369.806924 
L 364.132375 369.452994 
L 366.09855 369.097832 
L 368.064725 368.742706 
L 370.0309 368.382653 
L 371.997075 367.984109 
L 373.96325 367.548642 
L 375.929425 367.084329 
L 377.895601 366.59925 
L 379.861776 366.101486 
L 381.827951 365.599115 
L 383.794126 365.100216 
L 385.760301 364.61287 
L 387.726476 364.145155 
L 389.692651 363.705152 
L 391.658826 363.300939 
L 393.625002 362.940596 
L 395.591177 362.632203 
L 397.557352 362.383838 
L 399.523527 362.196692 
L 401.489702 362.039853 
L 403.455877 361.904862 
L 405.422052 361.787455 
L 407.388228 361.68337 
L 409.354403 361.588343 
L 411.320578 361.498111 
L 413.286753 361.408411 
L 415.252928 361.31498 
L 417.219103 361.213555 
L 419.185278 361.099873 
L 421.151453 360.969669 
L 423.117629 360.818682 
L 425.083804 360.642649 
L 427.049979 360.437305 
L 429.016154 360.112686 
L 430.982329 359.344985 
L 432.948504 358.166637 
L 434.914679 356.650219 
L 436.880854 354.868305 
L 438.84703 352.893469 
L 440.813205 350.798287 
L 442.77938 348.655334 
L 444.745555 346.537184 
L 446.71173 344.516413 
L 448.677905 342.665596 
L 450.64408 341.057307 
L 452.610255 339.764122 
L 454.576431 338.858615 
L 456.542606 338.413361 
L 458.508781 338.415967 
L 460.474956 338.603477 
L 462.441131 338.931186 
L 464.407306 339.377094 
L 466.373481 339.9192 
L 468.339657 340.535503 
L 470.305832 341.204004 
L 472.272007 341.902701 
L 474.238182 342.609595 
L 476.204357 343.302686 
L 478.170532 343.959971 
L 480.136707 344.559453 
L 482.102882 345.079129 
L 484.069058 345.496999 
L 486.035233 345.791063 
L 488.001408 345.977923 
L 489.967583 346.15696 
L 491.933758 346.332733 
L 493.899933 346.503007 
L 495.866108 346.665546 
L 497.832283 346.818114 
L 499.798459 346.958475 
L 501.764634 347.084394 
L 503.730809 347.193636 
L 505.696984 347.283964 
L 507.663159 347.353143 
L 509.629334 347.398938 
L 511.595509 347.419112 
L 513.561684 347.411431 
L 515.52786 347.373658 
L 517.494035 347.244282 
L 519.46021 346.893579 
L 521.426385 346.346473 
L 523.39256 345.634831 
L 525.358735 344.790516 
L 527.32491 343.845397 
L 529.291086 342.831337 
L 531.257261 341.780203 
L 533.223436 340.723861 
L 535.189611 339.694177 
L 537.155786 338.723015 
L 539.121961 337.842243 
L 541.088136 337.083725 
L 543.054311 336.479328 
L 545.020487 336.060918 
L 546.986662 335.799315 
L 548.952837 335.580086 
L 550.919012 335.393757 
L 552.885187 335.234419 
L 554.851362 335.096162 
L 556.817537 334.973077 
L 558.783712 334.859254 
L 560.749888 334.748783 
L 562.716063 334.635756 
L 564.682238 334.514263 
L 566.648413 334.378394 
L 568.614588 334.222239 
L 570.580763 334.03989 
L 572.546938 333.825436 
L 574.513114 333.572969 
L 576.479289 333.201221 
L 578.445464 332.596281 
L 580.411639 331.789877 
L 582.377814 330.816238 
L 584.343989 329.70959 
L 586.310164 328.50416 
L 588.276339 327.234176 
L 590.242515 325.933864 
L 592.20869 324.637452 
L 594.174865 323.379166 
L 596.14104 322.193234 
L 598.107215 321.113884 
L 600.07339 320.175341 
L 602.039565 319.411833 
L 604.00574 318.857587 
L 605.971916 318.467124 
L 607.938091 318.133061 
L 609.904266 317.84634 
L 611.870441 317.598818 
L 613.836616 317.38235 
L 615.802791 317.188793 
L 617.768966 317.010001 
L 619.735141 316.837832 
L 621.701317 316.664142 
L 623.667492 316.480785 
L 625.633667 316.279618 
L 627.599842 316.052497 
L 629.566017 315.791278 
L 631.532192 315.487817 
L 633.498367 315.133969 
L 635.464543 314.722581 
L 637.430718 314.253645 
L 639.396893 313.729959 
L 641.363068 313.154324 
L 643.329243 312.529538 
L 645.295418 311.858401 
L 647.261593 311.143714 
L 649.227768 310.388275 
L 651.193944 309.594885 
L 653.160119 308.766344 
L 655.126294 307.905451 
L 657.092469 307.015006 
L 659.058644 306.097809 
L 661.024819 305.156659 
L 662.990994 304.194357 
L 662.990994 303.862193 
L 662.990994 303.862193 
L 661.024819 304.799126 
L 659.058644 305.715194 
L 657.092469 306.607814 
L 655.126294 307.474407 
L 653.160119 308.312389 
L 651.193944 309.119181 
L 649.227768 309.892201 
L 647.261593 310.628868 
L 645.295418 311.3266 
L 643.329243 311.982815 
L 641.363068 312.594934 
L 639.396893 313.160374 
L 637.430718 313.676554 
L 635.464543 314.140894 
L 633.498367 314.550808 
L 631.532192 314.904695 
L 629.566017 315.208268 
L 627.599842 315.469668 
L 625.633667 315.697041 
L 623.667492 315.898529 
L 621.701317 316.082275 
L 619.735141 316.256423 
L 617.768966 316.429116 
L 615.802791 316.608497 
L 613.836616 316.802711 
L 611.870441 317.0199 
L 609.904266 317.268207 
L 607.938091 317.555776 
L 605.971916 317.890751 
L 604.00574 318.282214 
L 602.039565 318.840557 
L 600.07339 319.61289 
L 598.107215 320.564385 
L 596.14104 321.660216 
L 594.174865 322.865554 
L 592.20869 324.145574 
L 590.242515 325.465447 
L 588.276339 326.790347 
L 586.310164 328.085446 
L 584.343989 329.315917 
L 582.377814 330.446933 
L 580.411639 331.443667 
L 578.445464 332.271291 
L 576.479289 332.894978 
L 574.513114 333.282441 
L 572.546938 333.549459 
L 570.580763 333.778492 
L 568.614588 333.975347 
L 566.648413 334.145829 
L 564.682238 334.295744 
L 562.716063 334.430898 
L 560.749888 334.557097 
L 558.783712 334.680147 
L 556.817537 334.805853 
L 554.851362 334.940021 
L 552.885187 335.088458 
L 550.919012 335.256968 
L 548.952837 335.451359 
L 546.986662 335.677435 
L 545.020487 335.944592 
L 543.054311 336.36807 
L 541.088136 336.977432 
L 539.121961 337.740775 
L 537.155786 338.626194 
L 535.189611 339.601785 
L 533.223436 340.635644 
L 531.257261 341.695868 
L 529.291086 342.750551 
L 527.32491 343.76779 
L 525.358735 344.715681 
L 523.39256 345.56232 
L 521.426385 346.275802 
L 519.46021 346.824224 
L 517.494035 347.175681 
L 515.52786 347.305186 
L 513.561684 347.341929 
L 511.595509 347.34734 
L 509.629334 347.323818 
L 507.663159 347.273762 
L 505.696984 347.199572 
L 503.730809 347.103645 
L 501.764634 346.988382 
L 499.798459 346.856181 
L 497.832283 346.70944 
L 495.866108 346.550559 
L 493.899933 346.381938 
L 491.933758 346.205974 
L 489.967583 346.025066 
L 488.001408 345.841615 
L 486.035233 345.651172 
L 484.069058 345.353667 
L 482.102882 344.932276 
L 480.136707 344.409047 
L 478.170532 343.806032 
L 476.204357 343.145278 
L 474.238182 342.448836 
L 472.272007 341.738757 
L 470.305832 341.037088 
L 468.339657 340.365881 
L 466.373481 339.747184 
L 464.407306 339.203048 
L 462.441131 338.755522 
L 460.474956 338.426657 
L 458.508781 338.2385 
L 456.542606 338.235947 
L 454.576431 338.683518 
L 452.610255 339.593726 
L 450.64408 340.893609 
L 448.677905 342.5102 
L 446.71173 344.370537 
L 444.745555 346.401655 
L 442.77938 348.53059 
L 440.813205 350.684377 
L 438.84703 352.790052 
L 436.880854 354.774651 
L 434.914679 356.565209 
L 432.948504 358.088762 
L 430.982329 359.272346 
L 429.016154 360.042997 
L 427.049979 360.368064 
L 425.083804 360.572742 
L 423.117629 360.74746 
L 421.151453 360.89658 
L 419.185278 361.024464 
L 417.219103 361.135474 
L 415.252928 361.233972 
L 413.286753 361.324321 
L 411.320578 361.410882 
L 409.354403 361.498019 
L 407.388228 361.590092 
L 405.422052 361.691465 
L 403.455877 361.806498 
L 401.489702 361.939556 
L 399.523527 362.094998 
L 397.557352 362.281315 
L 395.591177 362.528971 
L 393.625002 362.836682 
L 391.658826 363.196371 
L 389.692651 363.599963 
L 387.726476 364.039383 
L 385.760301 364.506555 
L 383.794126 364.993404 
L 381.827951 365.491853 
L 379.861776 365.993828 
L 377.895601 366.491253 
L 375.929425 366.976052 
L 373.96325 367.440149 
L 371.997075 367.875469 
L 370.0309 368.273937 
L 368.064725 368.633982 
L 366.09855 368.989119 
L 364.132375 369.344303 
L 362.1662 369.698266 
L 360.200024 370.049742 
L 358.233849 370.397463 
L 356.267674 370.740162 
L 354.301499 371.076572 
L 352.335324 371.405426 
L 350.369149 371.725457 
L 348.402974 372.035397 
L 346.436799 372.333979 
L 344.470623 372.619937 
L 342.504448 372.892002 
L 340.538273 373.148909 
L 338.572098 373.393274 
L 336.605923 373.642314 
L 334.639748 373.895636 
L 332.673573 374.150188 
L 330.707397 374.402918 
L 328.741222 374.650773 
L 326.775047 374.890699 
L 324.808872 375.119645 
L 322.842697 375.334558 
L 320.876522 375.532385 
L 318.910347 375.710073 
L 316.944172 375.864571 
L 314.977996 375.992824 
L 313.011821 376.091781 
L 311.045646 376.158388 
L 309.079471 376.192092 
L 307.113296 376.20278 
L 305.147121 376.194608 
L 303.180946 376.170787 
L 301.214771 376.13453 
L 299.248595 376.089047 
L 297.28242 376.03755 
L 295.316245 375.983252 
L 293.35007 375.929364 
L 291.383895 375.879098 
L 289.41772 375.835664 
L 287.451545 375.802276 
L 285.48537 375.782145 
L 283.519194 375.778482 
L 281.553019 375.7945 
L 279.586844 375.831141 
L 277.620669 375.881561 
L 275.654494 375.943474 
L 273.688319 376.01515 
L 271.722144 376.094858 
L 269.755968 376.180868 
L 267.789793 376.27145 
L 265.823618 376.364875 
L 263.857443 376.459411 
L 261.891268 376.553329 
L 259.925093 376.644898 
L 257.958918 376.732389 
L 255.992743 376.814071 
L 254.026567 376.888214 
L 252.060392 376.953088 
L 250.094217 377.015454 
L 248.128042 377.097673 
L 246.161867 377.198523 
L 244.195692 377.315205 
L 242.229517 377.444922 
L 240.263342 377.584877 
L 238.297166 377.73227 
L 236.330991 377.884304 
L 234.364816 378.038182 
L 232.398641 378.191105 
L 230.432466 378.340275 
L 228.466291 378.482895 
L 226.500116 378.616167 
L 224.533941 378.737292 
L 222.567765 378.843473 
L 220.60159 378.937412 
L 218.635415 379.030841 
L 216.66924 379.123681 
L 214.703065 379.215263 
L 212.73689 379.304919 
L 210.770715 379.391981 
L 208.804539 379.47578 
L 206.838364 379.555648 
L 204.872189 379.630917 
L 202.906014 379.700917 
L 200.939839 379.764981 
L 198.973664 379.82244 
L 197.007489 379.872625 
L 195.041314 379.91487 
L 193.075138 379.948503 
L 191.108963 379.975498 
L 189.142788 380.001048 
L 187.176613 380.025418 
L 185.210438 380.048712 
L 183.244263 380.071036 
L 181.278088 380.092495 
L 179.311913 380.113194 
L 177.345737 380.133238 
L 175.379562 380.152732 
L 173.413387 380.171781 
L 171.447212 380.190491 
L 169.481037 380.208965 
L 167.514862 380.22731 
L 165.548687 380.24563 
L 163.582511 380.264031 
L 161.616336 380.285638 
L 159.650161 380.315053 
L 157.683986 380.351165 
L 155.717811 380.392764 
L 153.751636 380.43864 
L 151.785461 380.487584 
L 149.819286 380.538385 
L 147.85311 380.589833 
L 145.886935 380.640718 
L 143.92076 380.68983 
L 141.954585 380.73596 
L 139.98841 380.777897 
L 138.022235 380.814431 
L 136.05606 380.844353 
L 134.089885 380.866451 
L 132.123709 380.882606 
L 130.157534 380.897058 
L 128.191359 380.910219 
L 126.225184 380.922463 
L 124.259009 380.934166 
L 122.292834 380.945702 
L 120.326659 380.957447 
L 118.360484 380.969775 
L 116.394308 380.983061 
L 114.428133 380.99768 
L 112.461958 381.014008 
L 110.495783 381.032418 
L 108.529608 381.053287 
L 106.563433 381.076988 
L 104.597258 381.103898 
L 102.631082 381.13519 
L 100.664907 381.171811 
L 98.698732 381.213507 
L 96.732557 381.260019 
L 94.766382 381.311091 
L 92.800207 381.366466 
L 90.834032 381.425888 
L 88.867857 381.489098 
L 86.901681 381.555841 
L 84.935506 381.625859 
L 82.969331 381.698895 
L 81.003156 381.774691 
L 79.036981 381.852992 
L 77.070806 381.933541 
L 75.104631 382.016079 
z
" clip-path="url(#p8669ab6706)" style="fill: url(#h4a93ad73e5)"/>
   </g>
   <g id="FillBetweenPolyCollection_4">
    <path d="M 75.104631 381.981438 
L 75.104631 382.016079 
L 77.070806 381.933541 
L 79.036981 381.852992 
L 81.003156 381.774691 
L 82.969331 381.698895 
L 84.935506 381.625859 
L 86.901681 381.555841 
L 88.867857 381.489098 
L 90.834032 381.425888 
L 92.800207 381.366466 
L 94.766382 381.311091 
L 96.732557 381.260019 
L 98.698732 381.213507 
L 100.664907 381.171811 
L 102.631082 381.13519 
L 104.597258 381.103898 
L 106.563433 381.076988 
L 108.529608 381.053287 
L 110.495783 381.032418 
L 112.461958 381.014008 
L 114.428133 380.99768 
L 116.394308 380.983061 
L 118.360484 380.969775 
L 120.326659 380.957447 
L 122.292834 380.945702 
L 124.259009 380.934166 
L 126.225184 380.922463 
L 128.191359 380.910219 
L 130.157534 380.897058 
L 132.123709 380.882606 
L 134.089885 380.866451 
L 136.05606 380.844353 
L 138.022235 380.814431 
L 139.98841 380.777897 
L 141.954585 380.73596 
L 143.92076 380.68983 
L 145.886935 380.640718 
L 147.85311 380.589833 
L 149.819286 380.538385 
L 151.785461 380.487584 
L 153.751636 380.43864 
L 155.717811 380.392764 
L 157.683986 380.351165 
L 159.650161 380.315053 
L 161.616336 380.285638 
L 163.582511 380.264031 
L 165.548687 380.24563 
L 167.514862 380.22731 
L 169.481037 380.208965 
L 171.447212 380.190491 
L 173.413387 380.171781 
L 175.379562 380.152732 
L 177.345737 380.133238 
L 179.311913 380.113194 
L 181.278088 380.092495 
L 183.244263 380.071036 
L 185.210438 380.048712 
L 187.176613 380.025418 
L 189.142788 380.001048 
L 191.108963 379.975498 
L 193.075138 379.948503 
L 195.041314 379.91487 
L 197.007489 379.872625 
L 198.973664 379.82244 
L 200.939839 379.764981 
L 202.906014 379.700917 
L 204.872189 379.630917 
L 206.838364 379.555648 
L 208.804539 379.47578 
L 210.770715 379.391981 
L 212.73689 379.304919 
L 214.703065 379.215263 
L 216.66924 379.123681 
L 218.635415 379.030841 
L 220.60159 378.937412 
L 222.567765 378.843473 
L 224.533941 378.737292 
L 226.500116 378.616167 
L 228.466291 378.482895 
L 230.432466 378.340275 
L 232.398641 378.191105 
L 234.364816 378.038182 
L 236.330991 377.884304 
L 238.297166 377.73227 
L 240.263342 377.584877 
L 242.229517 377.444922 
L 244.195692 377.315205 
L 246.161867 377.198523 
L 248.128042 377.097673 
L 250.094217 377.015454 
L 252.060392 376.953088 
L 254.026567 376.888214 
L 255.992743 376.814071 
L 257.958918 376.732389 
L 259.925093 376.644898 
L 261.891268 376.553329 
L 263.857443 376.459411 
L 265.823618 376.364875 
L 267.789793 376.27145 
L 269.755968 376.180868 
L 271.722144 376.094858 
L 273.688319 376.01515 
L 275.654494 375.943474 
L 277.620669 375.881561 
L 279.586844 375.831141 
L 281.553019 375.7945 
L 283.519194 375.778482 
L 285.48537 375.782145 
L 287.451545 375.802276 
L 289.41772 375.835664 
L 291.383895 375.879098 
L 293.35007 375.929364 
L 295.316245 375.983252 
L 297.28242 376.03755 
L 299.248595 376.089047 
L 301.214771 376.13453 
L 303.180946 376.170787 
L 305.147121 376.194608 
L 307.113296 376.20278 
L 309.079471 376.192092 
L 311.045646 376.158388 
L 313.011821 376.091781 
L 314.977996 375.992824 
L 316.944172 375.864571 
L 318.910347 375.710073 
L 320.876522 375.532385 
L 322.842697 375.334558 
L 324.808872 375.119645 
L 326.775047 374.890699 
L 328.741222 374.650773 
L 330.707397 374.402918 
L 332.673573 374.150188 
L 334.639748 373.895636 
L 336.605923 373.642314 
L 338.572098 373.393274 
L 340.538273 373.148909 
L 342.504448 372.892002 
L 344.470623 372.619937 
L 346.436799 372.333979 
L 348.402974 372.035397 
L 350.369149 371.725457 
L 352.335324 371.405426 
L 354.301499 371.076572 
L 356.267674 370.740162 
L 358.233849 370.397463 
L 360.200024 370.049742 
L 362.1662 369.698266 
L 364.132375 369.344303 
L 366.09855 368.989119 
L 368.064725 368.633982 
L 370.0309 368.273937 
L 371.997075 367.875469 
L 373.96325 367.440149 
L 375.929425 366.976052 
L 377.895601 366.491253 
L 379.861776 365.993828 
L 381.827951 365.491853 
L 383.794126 364.993404 
L 385.760301 364.506555 
L 387.726476 364.039383 
L 389.692651 363.599963 
L 391.658826 363.196371 
L 393.625002 362.836682 
L 395.591177 362.528971 
L 397.557352 362.281315 
L 399.523527 362.094998 
L 401.489702 361.939556 
L 403.455877 361.806498 
L 405.422052 361.691465 
L 407.388228 361.590092 
L 409.354403 361.498019 
L 411.320578 361.410882 
L 413.286753 361.324321 
L 415.252928 361.233972 
L 417.219103 361.135474 
L 419.185278 361.024464 
L 421.151453 360.89658 
L 423.117629 360.74746 
L 425.083804 360.572742 
L 427.049979 360.368064 
L 429.016154 360.042997 
L 430.982329 359.272346 
L 432.948504 358.088762 
L 434.914679 356.565209 
L 436.880854 354.774651 
L 438.84703 352.790052 
L 440.813205 350.684377 
L 442.77938 348.53059 
L 444.745555 346.401655 
L 446.71173 344.370537 
L 448.677905 342.5102 
L 450.64408 340.893609 
L 452.610255 339.593726 
L 454.576431 338.683518 
L 456.542606 338.235947 
L 458.508781 338.2385 
L 460.474956 338.426657 
L 462.441131 338.755522 
L 464.407306 339.203048 
L 466.373481 339.747184 
L 468.339657 340.365881 
L 470.305832 341.037088 
L 472.272007 341.738757 
L 474.238182 342.448836 
L 476.204357 343.145278 
L 478.170532 343.806032 
L 480.136707 344.409047 
L 482.102882 344.932276 
L 484.069058 345.353667 
L 486.035233 345.651172 
L 488.001408 345.841615 
L 489.967583 346.025066 
L 491.933758 346.205974 
L 493.899933 346.381938 
L 495.866108 346.550559 
L 497.832283 346.70944 
L 499.798459 346.856181 
L 501.764634 346.988382 
L 503.730809 347.103645 
L 505.696984 347.199572 
L 507.663159 347.273762 
L 509.629334 347.323818 
L 511.595509 347.34734 
L 513.561684 347.341929 
L 515.52786 347.305186 
L 517.494035 347.175681 
L 519.46021 346.824224 
L 521.426385 346.275802 
L 523.39256 345.56232 
L 525.358735 344.715681 
L 527.32491 343.76779 
L 529.291086 342.750551 
L 531.257261 341.695868 
L 533.223436 340.635644 
L 535.189611 339.601785 
L 537.155786 338.626194 
L 539.121961 337.740775 
L 541.088136 336.977432 
L 543.054311 336.36807 
L 545.020487 335.944592 
L 546.986662 335.677435 
L 548.952837 335.451359 
L 550.919012 335.256968 
L 552.885187 335.088458 
L 554.851362 334.940021 
L 556.817537 334.805853 
L 558.783712 334.680147 
L 560.749888 334.557097 
L 562.716063 334.430898 
L 564.682238 334.295744 
L 566.648413 334.145829 
L 568.614588 333.975347 
L 570.580763 333.778492 
L 572.546938 333.549459 
L 574.513114 333.282441 
L 576.479289 332.894978 
L 578.445464 332.271291 
L 580.411639 331.443667 
L 582.377814 330.446933 
L 584.343989 329.315917 
L 586.310164 328.085446 
L 588.276339 326.790347 
L 590.242515 325.465447 
L 592.20869 324.145574 
L 594.174865 322.865554 
L 596.14104 321.660216 
L 598.107215 320.564385 
L 600.07339 319.61289 
L 602.039565 318.840557 
L 604.00574 318.282214 
L 605.971916 317.890751 
L 607.938091 317.555776 
L 609.904266 317.268207 
L 611.870441 317.0199 
L 613.836616 316.802711 
L 615.802791 316.608497 
L 617.768966 316.429116 
L 619.735141 316.256423 
L 621.701317 316.082275 
L 623.667492 315.898529 
L 625.633667 315.697041 
L 627.599842 315.469668 
L 629.566017 315.208268 
L 631.532192 314.904695 
L 633.498367 314.550808 
L 635.464543 314.140894 
L 637.430718 313.676554 
L 639.396893 313.160374 
L 641.363068 312.594934 
L 643.329243 311.982815 
L 645.295418 311.3266 
L 647.261593 310.628868 
L 649.227768 309.892201 
L 651.193944 309.119181 
L 653.160119 308.312389 
L 655.126294 307.474407 
L 657.092469 306.607814 
L 659.058644 305.715194 
L 661.024819 304.799126 
L 662.990994 303.862193 
L 662.990994 287.320432 
L 662.990994 287.320432 
L 661.024819 288.166851 
L 659.058644 288.993869 
L 657.092469 289.799454 
L 655.126294 290.581574 
L 653.160119 291.338199 
L 651.193944 292.067295 
L 649.227768 292.766833 
L 647.261593 293.434779 
L 645.295418 294.069102 
L 643.329243 294.667772 
L 641.363068 295.228755 
L 639.396893 295.750021 
L 637.430718 296.229537 
L 635.464543 296.665273 
L 633.498367 297.055183 
L 631.532192 297.393454 
L 629.566017 297.682083 
L 627.599842 297.929277 
L 625.633667 298.143238 
L 623.667492 298.332173 
L 621.701317 298.504284 
L 619.735141 298.667778 
L 617.768966 298.830859 
L 615.802791 299.001732 
L 613.836616 299.1886 
L 611.870441 299.39967 
L 609.904266 299.643145 
L 607.938091 299.927231 
L 605.971916 300.260131 
L 604.00574 300.651242 
L 602.039565 301.239401 
L 600.07339 302.087027 
L 598.107215 303.153523 
L 596.14104 304.398291 
L 594.174865 305.780733 
L 592.20869 307.260251 
L 590.242515 308.796249 
L 588.276339 310.348128 
L 586.310164 311.87529 
L 584.343989 313.337138 
L 582.377814 314.693075 
L 580.411639 315.902502 
L 578.445464 316.924822 
L 576.479289 317.719437 
L 574.513114 318.248551 
L 572.546938 318.638403 
L 570.580763 318.980596 
L 568.614588 319.282561 
L 566.648413 319.551733 
L 564.682238 319.795545 
L 562.716063 320.021429 
L 560.749888 320.236818 
L 558.783712 320.449147 
L 556.817537 320.665847 
L 554.851362 320.894351 
L 552.885187 321.142094 
L 550.919012 321.416508 
L 548.952837 321.725026 
L 546.986662 322.07508 
L 545.020487 322.4783 
L 543.054311 323.06946 
L 541.088136 323.881839 
L 539.121961 324.876672 
L 537.155786 326.015195 
L 535.189611 327.258643 
L 533.223436 328.568251 
L 531.257261 329.905254 
L 529.291086 331.230887 
L 527.32491 332.506385 
L 525.358735 333.692984 
L 523.39256 334.751919 
L 521.426385 335.644424 
L 519.46021 336.331735 
L 517.494035 336.775087 
L 515.52786 336.944372 
L 513.561684 337.002139 
L 511.595509 337.025281 
L 509.629334 337.016679 
L 507.663159 336.979213 
L 505.696984 336.915764 
L 503.730809 336.829212 
L 501.764634 336.722437 
L 499.798459 336.598321 
L 497.832283 336.459743 
L 495.866108 336.309583 
L 493.899933 336.150723 
L 491.933758 335.986042 
L 489.967583 335.818422 
L 488.001408 335.650742 
L 486.035233 335.478982 
L 484.069058 335.202592 
L 482.102882 334.804649 
L 480.136707 334.307382 
L 478.170532 333.733017 
L 476.204357 333.103784 
L 474.238182 332.44191 
L 472.272007 331.769623 
L 470.305832 331.109151 
L 468.339657 330.482723 
L 466.373481 329.912565 
L 464.407306 329.420908 
L 462.441131 329.029977 
L 460.474956 328.762002 
L 458.508781 328.639211 
L 456.542606 328.710847 
L 454.576431 329.287907 
L 452.610255 330.387501 
L 450.64408 331.926113 
L 448.677905 333.820227 
L 446.71173 335.986328 
L 444.745555 338.340901 
L 442.77938 340.80043 
L 440.813205 343.2814 
L 438.84703 345.700294 
L 436.880854 347.973599 
L 434.914679 350.017797 
L 432.948504 351.749375 
L 430.982329 353.084815 
L 429.016154 353.940604 
L 427.049979 354.27844 
L 425.083804 354.462818 
L 423.117629 354.5976 
L 421.151453 354.69038 
L 419.185278 354.748754 
L 417.219103 354.780315 
L 415.252928 354.792657 
L 413.286753 354.793376 
L 411.320578 354.790064 
L 409.354403 354.790318 
L 407.388228 354.80173 
L 405.422052 354.831895 
L 403.455877 354.888408 
L 401.489702 354.978863 
L 399.523527 355.110854 
L 397.557352 355.301052 
L 395.591177 355.615059 
L 393.625002 356.049614 
L 391.658826 356.586601 
L 389.692651 357.207904 
L 387.726476 357.895408 
L 385.760301 358.630995 
L 383.794126 359.39655 
L 381.827951 360.173957 
L 379.861776 360.9451 
L 377.895601 361.691863 
L 375.929425 362.39613 
L 373.96325 363.039784 
L 371.997075 363.60471 
L 370.0309 364.072792 
L 368.064725 364.4405 
L 366.09855 364.784176 
L 364.132375 365.118022 
L 362.1662 365.442425 
L 360.200024 365.757769 
L 358.233849 366.064442 
L 356.267674 366.362827 
L 354.301499 366.653312 
L 352.335324 366.936282 
L 350.369149 367.212123 
L 348.402974 367.481221 
L 346.436799 367.743961 
L 344.470623 368.00073 
L 342.504448 368.251913 
L 340.538273 368.497896 
L 338.572098 368.74265 
L 336.605923 369.002488 
L 334.639748 369.275892 
L 332.673573 369.558792 
L 330.707397 369.847122 
L 328.741222 370.13681 
L 326.775047 370.423789 
L 324.808872 370.70399 
L 322.842697 370.973344 
L 320.876522 371.227783 
L 318.910347 371.463236 
L 316.944172 371.675637 
L 314.977996 371.860915 
L 313.011821 372.015003 
L 311.045646 372.133831 
L 309.079471 372.217284 
L 307.113296 372.280422 
L 305.147121 372.327489 
L 303.180946 372.361149 
L 301.214771 372.38407 
L 299.248595 372.398916 
L 297.28242 372.408353 
L 295.316245 372.415047 
L 293.35007 372.421665 
L 291.383895 372.430871 
L 289.41772 372.445331 
L 287.451545 372.467711 
L 285.48537 372.500678 
L 283.519194 372.546895 
L 281.553019 372.609031 
L 279.586844 372.688932 
L 277.620669 372.784136 
L 275.654494 372.892079 
L 273.688319 373.010328 
L 271.722144 373.136451 
L 269.755968 373.268015 
L 267.789793 373.40259 
L 265.823618 373.537742 
L 263.857443 373.671039 
L 261.891268 373.800049 
L 259.925093 373.92234 
L 257.958918 374.03548 
L 255.992743 374.137037 
L 254.026567 374.224578 
L 252.060392 374.295671 
L 250.094217 374.356318 
L 248.128042 374.428915 
L 246.161867 374.513373 
L 244.195692 374.608067 
L 242.229517 374.71137 
L 240.263342 374.821657 
L 238.297166 374.937302 
L 236.330991 375.05668 
L 234.364816 375.178165 
L 232.398641 375.300131 
L 230.432466 375.420953 
L 228.466291 375.539005 
L 226.500116 375.652661 
L 224.533941 375.760296 
L 222.567765 375.860284 
L 220.60159 375.960111 
L 218.635415 376.079565 
L 216.66924 376.216368 
L 214.703065 376.367211 
L 212.73689 376.528785 
L 210.770715 376.697781 
L 208.804539 376.87089 
L 206.838364 377.044803 
L 204.872189 377.216211 
L 202.906014 377.381805 
L 200.939839 377.538277 
L 198.973664 377.682318 
L 197.007489 377.810617 
L 195.041314 377.919868 
L 193.075138 378.00676 
L 191.108963 378.075033 
L 189.142788 378.138012 
L 187.176613 378.196691 
L 185.210438 378.251648 
L 183.244263 378.303464 
L 181.278088 378.352715 
L 179.311913 378.399983 
L 177.345737 378.445844 
L 175.379562 378.490879 
L 173.413387 378.535667 
L 171.447212 378.580785 
L 169.481037 378.626814 
L 167.514862 378.674331 
L 165.548687 378.723917 
L 163.582511 378.776149 
L 161.616336 378.836224 
L 159.650161 378.910921 
L 157.683986 378.997788 
L 155.717811 379.094217 
L 153.751636 379.197601 
L 151.785461 379.305331 
L 149.819286 379.4148 
L 147.85311 379.523399 
L 145.886935 379.628521 
L 143.92076 379.727558 
L 141.954585 379.817902 
L 139.98841 379.896945 
L 138.022235 379.962079 
L 136.05606 380.010697 
L 134.089885 380.040189 
L 132.123709 380.055813 
L 130.157534 380.068335 
L 128.191359 380.078425 
L 126.225184 380.086663 
L 124.259009 380.093628 
L 122.292834 380.0999 
L 120.326659 380.106059 
L 118.360484 380.112683 
L 116.394308 380.120352 
L 114.428133 380.129646 
L 112.461958 380.141144 
L 110.495783 380.155426 
L 108.529608 380.17307 
L 106.563433 380.194656 
L 104.597258 380.220764 
L 102.631082 380.256978 
L 100.664907 380.308967 
L 98.698732 380.375779 
L 96.732557 380.456445 
L 94.766382 380.549999 
L 92.800207 380.655472 
L 90.834032 380.771897 
L 88.867857 380.898306 
L 86.901681 381.033731 
L 84.935506 381.177206 
L 82.969331 381.327761 
L 81.003156 381.484429 
L 79.036981 381.646244 
L 77.070806 381.812236 
L 75.104631 381.981438 
z
" clip-path="url(#p8669ab6706)" style="fill: url(#h15dbc5fed8)"/>
   </g>
   <g id="legend_1">
    <g id="patch_3">
     <path d="M 54.710313 24.159375 
L 74.710313 24.159375 
L 74.710313 17.159375 
L 54.710313 17.159375 
z
" style="fill: url(#he700f549dd)"/>
    </g>
    <g id="text_14">
     <!-- Solo -->
     <g transform="translate(82.710313 24.159375) scale(0.1 -0.1)">
      <defs>
       <path id="NotoSansCJKjp-Regular-53" d="M 1946 -83 
C 2925 -83 3539 506 3539 1248 
C 3539 1946 3117 2266 2573 2502 
L 1901 2790 
C 1536 2944 1126 3117 1126 3571 
C 1126 3994 1472 4262 2003 4262 
C 2438 4262 2784 4090 3072 3821 
L 3386 4198 
C 3053 4544 2560 4781 2003 4781 
C 1152 4781 525 4256 525 3533 
C 525 2848 1043 2515 1478 2330 
L 2157 2035 
C 2598 1837 2938 1683 2938 1203 
C 2938 742 2566 435 1952 435 
C 1466 435 992 666 659 1018 
L 301 614 
C 710 186 1280 -83 1946 -83 
z
" transform="scale(0.015625)"/>
       <path id="NotoSansCJKjp-Regular-6c" d="M 1203 -83 
C 1363 -83 1459 -64 1542 -32 
L 1459 416 
C 1395 403 1370 403 1338 403 
C 1248 403 1171 474 1171 653 
L 1171 5094 
L 589 5094 
L 589 691 
C 589 198 768 -83 1203 -83 
z
" transform="scale(0.015625)"/>
      </defs>
      <use xlink:href="#NotoSansCJKjp-Regular-53"/>
      <use xlink:href="#NotoSansCJKjp-Regular-6f" transform="translate(59.699997 0)"/>
      <use xlink:href="#NotoSansCJKjp-Regular-6c" transform="translate(120.299988 0)"/>
      <use xlink:href="#NotoSansCJKjp-Regular-6f" transform="translate(148.799973 0)"/>
     </g>
    </g>
    <g id="patch_4">
     <path d="M 54.710313 39.409375 
L 74.710313 39.409375 
L 74.710313 32.409375 
L 54.710313 32.409375 
z
" style="fill: url(#h9d85e21820)"/>
    </g>
    <g id="text_15">
     <!-- Initial -->
     <g transform="translate(82.710313 39.409375) scale(0.1 -0.1)">
      <defs>
       <path id="NotoSansCJKjp-Regular-49" d="M 640 0 
L 1235 0 
L 1235 4698 
L 640 4698 
L 640 0 
z
" transform="scale(0.015625)"/>
      </defs>
      <use xlink:href="#NotoSansCJKjp-Regular-49"/>
      <use xlink:href="#NotoSansCJKjp-Regular-6e" transform="translate(29.299988 0)"/>
      <use xlink:href="#NotoSansCJKjp-Regular-69" transform="translate(90.399979 0)"/>
      <use xlink:href="#NotoSansCJKjp-Regular-74" transform="translate(117.899963 0)"/>
      <use xlink:href="#NotoSansCJKjp-Regular-69" transform="translate(155.59996 0)"/>
      <use xlink:href="#NotoSansCJKjp-Regular-61" transform="translate(183.099945 0)"/>
      <use xlink:href="#NotoSansCJKjp-Regular-6c" transform="translate(239.499939 0)"/>
     </g>
    </g>
    <g id="patch_5">
     <path d="M 54.710313 54.659375 
L 74.710313 54.659375 
L 74.710313 47.659375 
L 54.710313 47.659375 
z
" style="fill: url(#h4a93ad73e5)"/>
    </g>
    <g id="text_16">
     <!-- Middle -->
     <g transform="translate(82.710313 54.659375) scale(0.1 -0.1)">
      <defs>
       <path id="NotoSansCJKjp-Regular-4d" d="M 640 0 
L 1178 0 
L 1178 2598 
C 1178 3002 1133 3571 1107 3981 
L 1133 3981 
L 1504 2912 
L 2394 474 
L 2790 474 
L 3680 2912 
L 4051 3981 
L 4077 3981 
C 4045 3571 4000 3002 4000 2598 
L 4000 0 
L 4557 0 
L 4557 4698 
L 3840 4698 
L 2944 2182 
C 2835 1856 2733 1530 2624 1203 
L 2592 1203 
C 2477 1530 2368 1856 2259 2182 
L 1357 4698 
L 640 4698 
L 640 0 
z
" transform="scale(0.015625)"/>
       <path id="NotoSansCJKjp-Regular-64" d="M 1773 -83 
C 2189 -83 2554 141 2829 410 
L 2848 410 
L 2899 0 
L 3373 0 
L 3373 5094 
L 2797 5094 
L 2797 3757 
L 2822 3155 
C 2515 3411 2253 3565 1843 3565 
C 1050 3565 339 2861 339 1734 
C 339 576 902 -83 1773 -83 
z
M 1901 403 
C 1286 403 941 902 941 1741 
C 941 2534 1382 3072 1946 3072 
C 2234 3072 2496 2970 2797 2707 
L 2797 883 
C 2502 563 2221 403 1901 403 
z
" transform="scale(0.015625)"/>
      </defs>
      <use xlink:href="#NotoSansCJKjp-Regular-4d"/>
      <use xlink:href="#NotoSansCJKjp-Regular-69" transform="translate(81.199982 0)"/>
      <use xlink:href="#NotoSansCJKjp-Regular-64" transform="translate(108.699966 0)"/>
      <use xlink:href="#NotoSansCJKjp-Regular-64" transform="translate(170.699951 0)"/>
      <use xlink:href="#NotoSansCJKjp-Regular-6c" transform="translate(232.699936 0)"/>
      <use xlink:href="#NotoSansCJKjp-Regular-65" transform="translate(261.199921 0)"/>
     </g>
    </g>
    <g id="patch_6">
     <path d="M 54.710313 69.909375 
L 74.710313 69.909375 
L 74.710313 62.909375 
L 54.710313 62.909375 
z
" style="fill: url(#h15dbc5fed8)"/>
    </g>
    <g id="text_17">
     <!-- End -->
     <g transform="translate(82.710313 69.909375) scale(0.1 -0.1)">
      <defs>
       <path id="NotoSansCJKjp-Regular-45" d="M 640 0 
L 3418 0 
L 3418 506 
L 1235 506 
L 1235 2214 
L 3014 2214 
L 3014 2720 
L 1235 2720 
L 1235 4192 
L 3347 4192 
L 3347 4698 
L 640 4698 
L 640 0 
z
" transform="scale(0.015625)"/>
      </defs>
      <use xlink:href="#NotoSansCJKjp-Regular-45"/>
      <use xlink:href="#NotoSansCJKjp-Regular-6e" transform="translate(58.799988 0)"/>
      <use xlink:href="#NotoSansCJKjp-Regular-64" transform="translate(119.899979 0)"/>
     </g>
    </g>
   </g>
  </g>
 </g>
 <defs>
  <clipPath id="p8669ab6706">
   <rect x="45.710313" y="7.2" width="646.675" height="374.92"/>
  </clipPath>
 </defs>
 <defs>
  <pattern id="he700f549dd" patternUnits="userSpaceOnUse" x="0" y="0" width="72" height="72">
   <rect x="0" y="0" width="73" height="73" fill="#e6e6e6"/>
   <path d="M -36 36 
L 36 -36 
M -33 39 
L 39 -33 
M -30 42 
L 42 -30 
M -27 45 
L 45 -27 
M -24 48 
L 48 -24 
M -21 51 
L 51 -21 
M -18 54 
L 54 -18 
M -15 57 
L 57 -15 
M -12 60 
L 60 -12 
M -9 63 
L 63 -9 
M -6 66 
L 66 -6 
M -3 69 
L 69 -3 
M 0 72 
L 72 0 
M 3 75 
L 75 3 
M 6 78 
L 78 6 
M 9 81 
L 81 9 
M 12 84 
L 84 12 
M 15 87 
L 87 15 
M 18 90 
L 90 18 
M 21 93 
L 93 21 
M 24 96 
L 96 24 
M 27 99 
L 99 27 
M 30 102 
L 102 30 
M 33 105 
L 105 33 
M 36 108 
L 108 36 
" style="fill: #000000; stroke: #000000; stroke-width: 1.5; stroke-linecap: butt; stroke-linejoin: miter"/>
  </pattern>
  <pattern id="h9d85e21820" patternUnits="userSpaceOnUse" x="0" y="0" width="72" height="72">
   <rect x="0" y="0" width="73" height="73" fill="#adadad"/>
   <path d="M -36 36 
L 36 108 
M -30 30 
L 42 102 
M -24 24 
L 48 96 
M -18 18 
L 54 90 
M -12 12 
L 60 84 
M -6 6 
L 66 78 
M 0 0 
L 72 72 
M 6 -6 
L 78 66 
M 12 -12 
L 84 60 
M 18 -18 
L 90 54 
M 24 -24 
L 96 48 
M 30 -30 
L 102 42 
M 36 -36 
L 108 36 
" style="fill: #000000; stroke: #000000; stroke-width: 1.5; stroke-linecap: butt; stroke-linejoin: miter"/>
  </pattern>
  <pattern id="h4a93ad73e5" patternUnits="userSpaceOnUse" x="0" y="0" width="72" height="72">
   <rect x="0" y="0" width="73" height="73" fill="#737373"/>
   <path d="M -36 36 
L 36 -36 
M -33 39 
L 39 -33 
M -30 42 
L 42 -30 
M -27 45 
L 45 -27 
M -24 48 
L 48 -24 
M -21 51 
L 51 -21 
M -18 54 
L 54 -18 
M -15 57 
L 57 -15 
M -12 60 
L 60 -12 
M -9 63 
L 63 -9 
M -6 66 
L 66 -6 
M -3 69 
L 69 -3 
M 0 72 
L 72 0 
M 3 75 
L 75 3 
M 6 78 
L 78 6 
M 9 81 
L 81 9 
M 12 84 
L 84 12 
M 15 87 
L 87 15 
M 18 90 
L 90 18 
M 21 93 
L 93 21 
M 24 96 
L 96 24 
M 27 99 
L 99 27 
M 30 102 
L 102 30 
M 33 105 
L 105 33 
M 36 108 
L 108 36 
M -36 36 
L 36 108 
M -33 33 
L 39 105 
M -30 30 
L 42 102 
M -27 27 
L 45 99 
M -24 24 
L 48 96 
M -21 21 
L 51 93 
M -18 18 
L 54 90 
M -15 15 
L 57 87 
M -12 12 
L 60 84 
M -9 9 
L 63 81 
M -6 6 
L 66 78 
M -3 3 
L 69 75 
M 0 0 
L 72 72 
M 3 -3 
L 75 69 
M 6 -6 
L 78 66 
M 9 -9 
L 81 63 
M 12 -12 
L 84 60 
M 15 -15 
L 87 57 
M 18 -18 
L 90 54 
M 21 -21 
L 93 51 
M 24 -24 
L 96 48 
M 27 -27 
L 99 45 
M 30 -30 
L 102 42 
M 33 -33 
L 105 39 
M 36 -36 
L 108 36 
" style="fill: #000000; stroke: #000000; stroke-width: 1.5; stroke-linecap: butt; stroke-linejoin: miter"/>
  </pattern>
  <pattern id="h15dbc5fed8" patternUnits="userSpaceOnUse" x="0" y="0" width="72" height="72">
   <rect x="0" y="0" width="73" height="73" fill="#383838"/>
   <path d="M 0 70.5 
L 72 70.5 
M 0 67.5 
L 72 67.5 
M 0 64.5 
L 72 64.5 
M 0 61.5 
L 72 61.5 
M 0 58.5 
L 72 58.5 
M 0 55.5 
L 72 55.5 
M 0 52.5 
L 72 52.5 
M 0 49.5 
L 72 49.5 
M 0 46.5 
L 72 46.5 
M 0 43.5 
L 72 43.5 
M 0 40.5 
L 72 40.5 
M 0 37.5 
L 72 37.5 
M 0 34.5 
L 72 34.5 
M 0 31.5 
L 72 31.5 
M 0 28.5 
L 72 28.5 
M 0 25.5 
L 72 25.5 
M 0 22.5 
L 72 22.5 
M 0 19.5 
L 72 19.5 
M 0 16.5 
L 72 16.5 
M 0 13.5 
L 72 13.5 
M 0 10.5 
L 72 10.5 
M 0 7.5 
L 72 7.5 
M 0 4.5 
L 72 4.5 
M 0 1.5 
L 72 1.5 
" style="fill: #000000; stroke: #000000; stroke-width: 1.5; stroke-linecap: butt; stroke-linejoin: miter"/>
  </pattern>
 </defs>
</svg>
