<?xml version="1.0" encoding="utf-8" standalone="no"?>
<!DOCTYPE svg PUBLIC "-//W3C//DTD SVG 1.1//EN"
  "http://www.w3.org/Graphics/SVG/1.1/DTD/svg11.dtd">
<svg xmlns:xlink="http://www.w3.org/1999/xlink" width="312.755982pt" height="216.150625pt" viewBox="0 0 312.755982 216.150625" xmlns="http://www.w3.org/2000/svg" version="1.1">
 <metadata>
  <rdf:RDF xmlns:dc="http://purl.org/dc/elements/1.1/" xmlns:cc="http://creativecommons.org/ns#" xmlns:rdf="http://www.w3.org/1999/02/22-rdf-syntax-ns#">
   <cc:Work>
    <dc:type rdf:resource="http://purl.org/dc/dcmitype/StillImage"/>
    <dc:date>2026-04-28T10:06:35.329581</dc:date>
    <dc:format>image/svg+xml</dc:format>
    <dc:creator>
     <cc:Agent>
      <dc:title>Matplotlib v3.10.7, https://matplotlib.org/</dc:title>
     </cc:Agent>
    </dc:creator>
   </cc:Work>
  </rdf:RDF>
 </metadata>
 <defs>
  <style type="text/css">*{stroke-linejoin: round; stroke-linecap: butt}</style>
 </defs>
 <g id="figure_1">
  <g id="patch_1">
   <path d="M 0 216.150625 
L 312.755982 216.150625 
L 312.755982 0 
L 0 0 
z
" style="fill: #ffffff"/>
  </g>
  <g id="axes_1">
   <g id="patch_2">
    <path d="M 27.942813 185.56 
L 305.555982 185.56 
L 305.555982 7.2 
L 27.942813 7.2 
z
" style="fill: #ffffff"/>
   </g>
   <g id="matplotlib.axis_1">
    <g id="xtick_1">
     <g id="line2d_1">
      <defs>
       <path id="me470aff4c1" d="M 0 0 
L 0 3.5 
" style="stroke: #000000; stroke-width: 0.8"/>
      </defs>
      <g>
       <use xlink:href="#me470aff4c1" x="40.561593" y="185.56" style="stroke: #000000; stroke-width: 0.8"/>
      </g>
     </g>
     <g id="text_1">
      <!-- 2004 -->
      <g transform="translate(34.638468 197.06) scale(0.06 -0.06)">
       <defs>
        <path id="RobotoCondensed-Regular-32" d="M 2909 475 
L 2909 0 
L 366 0 
L 366 416 
L 1628 2088 
Q 1966 2541 2077 2802 
Q 2188 3063 2188 3328 
Q 2188 3663 2027 3900 
Q 1866 4138 1575 4138 
Q 1194 4138 1022 3878 
Q 850 3619 850 3213 
L 297 3213 
Q 297 3788 617 4200 
Q 938 4613 1575 4613 
Q 2125 4613 2433 4278 
Q 2741 3944 2741 3397 
Q 2741 2997 2541 2594 
Q 2341 2191 2047 1809 
L 1028 475 
L 2909 475 
z
" transform="scale(0.015625)"/>
        <path id="RobotoCondensed-Regular-30" d="M 2797 1944 
Q 2797 825 2467 381 
Q 2138 -63 1581 -63 
Q 1038 -63 703 370 
Q 369 803 359 1878 
L 359 2638 
Q 359 3753 695 4183 
Q 1031 4613 1578 4613 
Q 2131 4613 2461 4189 
Q 2791 3766 2797 2681 
L 2797 1944 
z
M 2247 2734 
Q 2247 3503 2073 3822 
Q 1900 4141 1578 4141 
Q 1266 4141 1092 3833 
Q 919 3525 913 2791 
L 913 1850 
Q 913 1088 1089 750 
Q 1266 413 1581 413 
Q 1903 413 2072 738 
Q 2241 1063 2247 1794 
L 2247 2734 
z
" transform="scale(0.015625)"/>
        <path id="RobotoCondensed-Regular-34" d="M 188 1397 
L 1878 4550 
L 2463 4550 
L 2463 1531 
L 2969 1531 
L 2969 1056 
L 2463 1056 
L 2463 0 
L 1909 0 
L 1909 1056 
L 188 1056 
L 188 1397 
z
M 803 1531 
L 1909 1531 
L 1909 3703 
L 1878 3638 
L 803 1531 
z
" transform="scale(0.015625)"/>
       </defs>
       <use xlink:href="#RobotoCondensed-Regular-32"/>
       <use xlink:href="#RobotoCondensed-Regular-30" transform="translate(49.365234 0)"/>
       <use xlink:href="#RobotoCondensed-Regular-30" transform="translate(98.730469 0)"/>
       <use xlink:href="#RobotoCondensed-Regular-34" transform="translate(148.095703 0)"/>
      </g>
     </g>
    </g>
    <g id="xtick_2">
     <g id="line2d_2">
      <g>
       <use xlink:href="#me470aff4c1" x="65.799154" y="185.56" style="stroke: #000000; stroke-width: 0.8"/>
      </g>
     </g>
     <g id="text_2">
      <!-- 2006 -->
      <g transform="translate(59.876029 197.06) scale(0.06 -0.06)">
       <defs>
        <path id="RobotoCondensed-Regular-36" d="M 2847 1484 
Q 2847 838 2544 387 
Q 2241 -63 1641 -63 
Q 1216 -63 944 198 
Q 672 459 542 861 
Q 413 1263 413 1684 
L 413 1956 
Q 413 2438 481 2900 
Q 550 3363 742 3738 
Q 934 4113 1296 4334 
Q 1659 4556 2291 4556 
L 2291 4066 
Q 1775 4066 1508 3859 
Q 1241 3653 1122 3318 
Q 1003 2984 978 2606 
Q 1272 2984 1750 2984 
Q 2138 2984 2380 2765 
Q 2622 2547 2734 2201 
Q 2847 1856 2847 1484 
z
M 969 1666 
Q 969 1059 1180 737 
Q 1391 416 1641 416 
Q 1959 416 2129 708 
Q 2300 1000 2300 1456 
Q 2300 1863 2144 2184 
Q 1988 2506 1659 2506 
Q 1425 2506 1236 2329 
Q 1047 2153 969 1900 
L 969 1666 
z
" transform="scale(0.015625)"/>
       </defs>
       <use xlink:href="#RobotoCondensed-Regular-32"/>
       <use xlink:href="#RobotoCondensed-Regular-30" transform="translate(49.365234 0)"/>
       <use xlink:href="#RobotoCondensed-Regular-30" transform="translate(98.730469 0)"/>
       <use xlink:href="#RobotoCondensed-Regular-36" transform="translate(148.095703 0)"/>
      </g>
     </g>
    </g>
    <g id="xtick_3">
     <g id="line2d_3">
      <g>
       <use xlink:href="#me470aff4c1" x="91.036715" y="185.56" style="stroke: #000000; stroke-width: 0.8"/>
      </g>
     </g>
     <g id="text_3">
      <!-- 2008 -->
      <g transform="translate(85.11359 197.06) scale(0.06 -0.06)">
       <defs>
        <path id="RobotoCondensed-Regular-38" d="M 2794 1231 
Q 2794 606 2445 271 
Q 2097 -63 1578 -63 
Q 1063 -63 714 273 
Q 366 609 366 1231 
Q 366 1613 536 1905 
Q 706 2197 1000 2347 
Q 450 2666 450 3366 
Q 450 3963 769 4288 
Q 1088 4613 1581 4613 
Q 2075 4613 2392 4288 
Q 2709 3963 2709 3366 
Q 2709 3028 2557 2761 
Q 2406 2494 2150 2344 
Q 2444 2194 2619 1901 
Q 2794 1609 2794 1231 
z
M 2156 3356 
Q 2156 3697 2000 3917 
Q 1844 4138 1581 4138 
Q 1319 4138 1161 3927 
Q 1003 3716 1003 3356 
Q 1003 3003 1159 2790 
Q 1316 2578 1581 2578 
Q 1844 2578 2000 2790 
Q 2156 3003 2156 3356 
z
M 2244 1244 
Q 2244 1625 2061 1865 
Q 1878 2106 1575 2106 
Q 1266 2106 1091 1865 
Q 916 1625 916 1244 
Q 916 850 1089 631 
Q 1263 413 1578 413 
Q 1897 413 2070 631 
Q 2244 850 2244 1244 
z
" transform="scale(0.015625)"/>
       </defs>
       <use xlink:href="#RobotoCondensed-Regular-32"/>
       <use xlink:href="#RobotoCondensed-Regular-30" transform="translate(49.365234 0)"/>
       <use xlink:href="#RobotoCondensed-Regular-30" transform="translate(98.730469 0)"/>
       <use xlink:href="#RobotoCondensed-Regular-38" transform="translate(148.095703 0)"/>
      </g>
     </g>
    </g>
    <g id="xtick_4">
     <g id="line2d_4">
      <g>
       <use xlink:href="#me470aff4c1" x="116.274275" y="185.56" style="stroke: #000000; stroke-width: 0.8"/>
      </g>
     </g>
     <g id="text_4">
      <!-- 2010 -->
      <g transform="translate(110.35115 197.06) scale(0.06 -0.06)">
       <defs>
        <path id="RobotoCondensed-Regular-31" d="M 2013 4575 
L 2013 0 
L 1459 0 
L 1459 3853 
L 503 3428 
L 503 3950 
L 1928 4575 
L 2013 4575 
z
" transform="scale(0.015625)"/>
       </defs>
       <use xlink:href="#RobotoCondensed-Regular-32"/>
       <use xlink:href="#RobotoCondensed-Regular-30" transform="translate(49.365234 0)"/>
       <use xlink:href="#RobotoCondensed-Regular-31" transform="translate(98.730469 0)"/>
       <use xlink:href="#RobotoCondensed-Regular-30" transform="translate(148.095703 0)"/>
      </g>
     </g>
    </g>
    <g id="xtick_5">
     <g id="line2d_5">
      <g>
       <use xlink:href="#me470aff4c1" x="141.511836" y="185.56" style="stroke: #000000; stroke-width: 0.8"/>
      </g>
     </g>
     <g id="text_5">
      <!-- 2012 -->
      <g transform="translate(135.588711 197.06) scale(0.06 -0.06)">
       <use xlink:href="#RobotoCondensed-Regular-32"/>
       <use xlink:href="#RobotoCondensed-Regular-30" transform="translate(49.365234 0)"/>
       <use xlink:href="#RobotoCondensed-Regular-31" transform="translate(98.730469 0)"/>
       <use xlink:href="#RobotoCondensed-Regular-32" transform="translate(148.095703 0)"/>
      </g>
     </g>
    </g>
    <g id="xtick_6">
     <g id="line2d_6">
      <g>
       <use xlink:href="#me470aff4c1" x="166.749397" y="185.56" style="stroke: #000000; stroke-width: 0.8"/>
      </g>
     </g>
     <g id="text_6">
      <!-- 2014 -->
      <g transform="translate(160.826272 197.06) scale(0.06 -0.06)">
       <use xlink:href="#RobotoCondensed-Regular-32"/>
       <use xlink:href="#RobotoCondensed-Regular-30" transform="translate(49.365234 0)"/>
       <use xlink:href="#RobotoCondensed-Regular-31" transform="translate(98.730469 0)"/>
       <use xlink:href="#RobotoCondensed-Regular-34" transform="translate(148.095703 0)"/>
      </g>
     </g>
    </g>
    <g id="xtick_7">
     <g id="line2d_7">
      <g>
       <use xlink:href="#me470aff4c1" x="191.986958" y="185.56" style="stroke: #000000; stroke-width: 0.8"/>
      </g>
     </g>
     <g id="text_7">
      <!-- 2016 -->
      <g transform="translate(186.063833 197.06) scale(0.06 -0.06)">
       <use xlink:href="#RobotoCondensed-Regular-32"/>
       <use xlink:href="#RobotoCondensed-Regular-30" transform="translate(49.365234 0)"/>
       <use xlink:href="#RobotoCondensed-Regular-31" transform="translate(98.730469 0)"/>
       <use xlink:href="#RobotoCondensed-Regular-36" transform="translate(148.095703 0)"/>
      </g>
     </g>
    </g>
    <g id="xtick_8">
     <g id="line2d_8">
      <g>
       <use xlink:href="#me470aff4c1" x="217.224519" y="185.56" style="stroke: #000000; stroke-width: 0.8"/>
      </g>
     </g>
     <g id="text_8">
      <!-- 2018 -->
      <g transform="translate(211.301394 197.06) scale(0.06 -0.06)">
       <use xlink:href="#RobotoCondensed-Regular-32"/>
       <use xlink:href="#RobotoCondensed-Regular-30" transform="translate(49.365234 0)"/>
       <use xlink:href="#RobotoCondensed-Regular-31" transform="translate(98.730469 0)"/>
       <use xlink:href="#RobotoCondensed-Regular-38" transform="translate(148.095703 0)"/>
      </g>
     </g>
    </g>
    <g id="xtick_9">
     <g id="line2d_9">
      <g>
       <use xlink:href="#me470aff4c1" x="242.46208" y="185.56" style="stroke: #000000; stroke-width: 0.8"/>
      </g>
     </g>
     <g id="text_9">
      <!-- 2020 -->
      <g transform="translate(236.538955 197.06) scale(0.06 -0.06)">
       <use xlink:href="#RobotoCondensed-Regular-32"/>
       <use xlink:href="#RobotoCondensed-Regular-30" transform="translate(49.365234 0)"/>
       <use xlink:href="#RobotoCondensed-Regular-32" transform="translate(98.730469 0)"/>
       <use xlink:href="#RobotoCondensed-Regular-30" transform="translate(148.095703 0)"/>
      </g>
     </g>
    </g>
    <g id="xtick_10">
     <g id="line2d_10">
      <g>
       <use xlink:href="#me470aff4c1" x="267.699641" y="185.56" style="stroke: #000000; stroke-width: 0.8"/>
      </g>
     </g>
     <g id="text_10">
      <!-- 2022 -->
      <g transform="translate(261.776516 197.06) scale(0.06 -0.06)">
       <use xlink:href="#RobotoCondensed-Regular-32"/>
       <use xlink:href="#RobotoCondensed-Regular-30" transform="translate(49.365234 0)"/>
       <use xlink:href="#RobotoCondensed-Regular-32" transform="translate(98.730469 0)"/>
       <use xlink:href="#RobotoCondensed-Regular-32" transform="translate(148.095703 0)"/>
      </g>
     </g>
    </g>
    <g id="xtick_11">
     <g id="line2d_11">
      <g>
       <use xlink:href="#me470aff4c1" x="292.937201" y="185.56" style="stroke: #000000; stroke-width: 0.8"/>
      </g>
     </g>
     <g id="text_11">
      <!-- 2024 -->
      <g transform="translate(287.014076 197.06) scale(0.06 -0.06)">
       <use xlink:href="#RobotoCondensed-Regular-32"/>
       <use xlink:href="#RobotoCondensed-Regular-30" transform="translate(49.365234 0)"/>
       <use xlink:href="#RobotoCondensed-Regular-32" transform="translate(98.730469 0)"/>
       <use xlink:href="#RobotoCondensed-Regular-34" transform="translate(148.095703 0)"/>
      </g>
     </g>
    </g>
    <g id="text_12">
     <!-- Year -->
     <g transform="translate(160.528694 207.52875) scale(0.07 -0.07)">
      <defs>
       <path id="RobotoCondensed-Regular-59" d="M 747 4550 
L 1675 2266 
L 2606 4550 
L 3256 4550 
L 1963 1700 
L 1963 0 
L 1388 0 
L 1388 1700 
L 94 4550 
L 747 4550 
z
" transform="scale(0.015625)"/>
       <path id="RobotoCondensed-Regular-65" d="M 2722 447 
Q 2584 253 2323 95 
Q 2063 -63 1625 -63 
Q 1019 -63 666 301 
Q 313 666 309 1431 
L 309 1828 
Q 309 2722 696 3083 
Q 1084 3444 1563 3444 
Q 2197 3444 2472 3034 
Q 2747 2625 2747 1850 
L 2747 1528 
L 863 1528 
L 863 1447 
Q 863 906 1067 657 
Q 1272 409 1656 409 
Q 1934 409 2114 517 
Q 2294 625 2431 794 
L 2722 447 
z
M 1563 2969 
Q 1275 2969 1084 2770 
Q 894 2572 866 2000 
L 2194 2000 
L 2194 2078 
Q 2172 2469 2048 2719 
Q 1925 2969 1563 2969 
z
" transform="scale(0.015625)"/>
       <path id="RobotoCondensed-Regular-61" d="M 2156 0 
Q 2103 122 2081 366 
Q 1966 194 1775 65 
Q 1584 -63 1334 -63 
Q 891 -63 623 187 
Q 356 438 356 922 
Q 356 1409 690 1729 
Q 1025 2050 1691 2050 
L 2072 2050 
L 2072 2413 
Q 2072 2713 1936 2841 
Q 1800 2969 1528 2969 
Q 1263 2969 1114 2812 
Q 966 2656 966 2444 
L 413 2444 
Q 413 2806 722 3125 
Q 1031 3444 1556 3444 
Q 2025 3444 2325 3209 
Q 2625 2975 2625 2406 
L 2625 794 
Q 2625 316 2728 50 
L 2728 0 
L 2156 0 
z
M 1419 441 
Q 1653 441 1825 562 
Q 1997 684 2072 834 
L 2072 1644 
L 1781 1644 
Q 1384 1644 1146 1475 
Q 909 1306 909 991 
Q 909 688 1036 564 
Q 1163 441 1419 441 
z
" transform="scale(0.015625)"/>
       <path id="RobotoCondensed-Regular-72" d="M 1563 2888 
Q 1138 2888 969 2425 
L 969 0 
L 416 0 
L 416 3381 
L 950 3381 
L 963 3041 
Q 1184 3444 1591 3444 
Q 1738 3444 1809 3400 
L 1813 2863 
Q 1691 2888 1563 2888 
z
" transform="scale(0.015625)"/>
      </defs>
      <use xlink:href="#RobotoCondensed-Regular-59"/>
      <use xlink:href="#RobotoCondensed-Regular-65" transform="translate(52.490234 0)"/>
      <use xlink:href="#RobotoCondensed-Regular-61" transform="translate(99.365234 0)"/>
      <use xlink:href="#RobotoCondensed-Regular-72" transform="translate(147.265625 0)"/>
     </g>
    </g>
   </g>
   <g id="matplotlib.axis_2">
    <g id="ytick_1">
     <g id="line2d_12">
      <path d="M 27.942813 185.56 
L 305.555982 185.56 
" clip-path="url(#p235314c47d)" style="fill: none; stroke: #b0b0b0; stroke-opacity: 0.3; stroke-width: 0.8; stroke-linecap: square"/>
     </g>
     <g id="line2d_13">
      <defs>
       <path id="mfb659b38c0" d="M 0 0 
L -3.5 0 
" style="stroke: #000000; stroke-width: 0.8"/>
      </defs>
      <g>
       <use xlink:href="#mfb659b38c0" x="27.942813" y="185.56" style="stroke: #000000; stroke-width: 0.8"/>
      </g>
     </g>
     <g id="text_13">
      <!-- 0 -->
      <g transform="translate(17.98125 187.81) scale(0.06 -0.06)">
       <use xlink:href="#RobotoCondensed-Regular-30"/>
      </g>
     </g>
    </g>
    <g id="ytick_2">
     <g id="line2d_14">
      <path d="M 27.942813 147.611064 
L 305.555982 147.611064 
" clip-path="url(#p235314c47d)" style="fill: none; stroke: #b0b0b0; stroke-opacity: 0.3; stroke-width: 0.8; stroke-linecap: square"/>
     </g>
     <g id="line2d_15">
      <g>
       <use xlink:href="#mfb659b38c0" x="27.942813" y="147.611064" style="stroke: #000000; stroke-width: 0.8"/>
      </g>
     </g>
     <g id="text_14">
      <!-- 2 -->
      <g transform="translate(17.98125 149.861064) scale(0.06 -0.06)">
       <use xlink:href="#RobotoCondensed-Regular-32"/>
      </g>
     </g>
    </g>
    <g id="ytick_3">
     <g id="line2d_16">
      <path d="M 27.942813 109.662128 
L 305.555982 109.662128 
" clip-path="url(#p235314c47d)" style="fill: none; stroke: #b0b0b0; stroke-opacity: 0.3; stroke-width: 0.8; stroke-linecap: square"/>
     </g>
     <g id="line2d_17">
      <g>
       <use xlink:href="#mfb659b38c0" x="27.942813" y="109.662128" style="stroke: #000000; stroke-width: 0.8"/>
      </g>
     </g>
     <g id="text_15">
      <!-- 4 -->
      <g transform="translate(17.98125 111.912128) scale(0.06 -0.06)">
       <use xlink:href="#RobotoCondensed-Regular-34"/>
      </g>
     </g>
    </g>
    <g id="ytick_4">
     <g id="line2d_18">
      <path d="M 27.942813 71.713191 
L 305.555982 71.713191 
" clip-path="url(#p235314c47d)" style="fill: none; stroke: #b0b0b0; stroke-opacity: 0.3; stroke-width: 0.8; stroke-linecap: square"/>
     </g>
     <g id="line2d_19">
      <g>
       <use xlink:href="#mfb659b38c0" x="27.942813" y="71.713191" style="stroke: #000000; stroke-width: 0.8"/>
      </g>
     </g>
     <g id="text_16">
      <!-- 6 -->
      <g transform="translate(17.98125 73.963191) scale(0.06 -0.06)">
       <use xlink:href="#RobotoCondensed-Regular-36"/>
      </g>
     </g>
    </g>
    <g id="ytick_5">
     <g id="line2d_20">
      <path d="M 27.942813 33.764255 
L 305.555982 33.764255 
" clip-path="url(#p235314c47d)" style="fill: none; stroke: #b0b0b0; stroke-opacity: 0.3; stroke-width: 0.8; stroke-linecap: square"/>
     </g>
     <g id="line2d_21">
      <g>
       <use xlink:href="#mfb659b38c0" x="27.942813" y="33.764255" style="stroke: #000000; stroke-width: 0.8"/>
      </g>
     </g>
     <g id="text_17">
      <!-- 8 -->
      <g transform="translate(17.98125 36.014255) scale(0.06 -0.06)">
       <use xlink:href="#RobotoCondensed-Regular-38"/>
      </g>
     </g>
    </g>
    <g id="text_18">
     <!-- Number of Overlapping Names -->
     <g transform="translate(12.522188 138.766641) rotate(-90) scale(0.07 -0.07)">
      <defs>
       <path id="RobotoCondensed-Regular-4e" d="M 3466 4550 
L 3466 0 
L 2888 0 
L 1066 3509 
L 1066 0 
L 491 0 
L 491 4550 
L 1066 4550 
L 2897 1031 
L 2897 4550 
L 3466 4550 
z
" transform="scale(0.015625)"/>
       <path id="RobotoCondensed-Regular-75" d="M 2153 0 
L 2144 297 
Q 1863 -63 1338 -63 
Q 919 -63 662 231 
Q 406 525 406 1200 
L 406 3381 
L 956 3381 
L 956 1178 
Q 959 731 1107 579 
Q 1256 428 1431 428 
Q 1931 428 2125 881 
L 2125 3381 
L 2678 3381 
L 2678 0 
L 2153 0 
z
" transform="scale(0.015625)"/>
       <path id="RobotoCondensed-Regular-6d" d="M 1556 2956 
Q 1141 2956 969 2544 
L 969 0 
L 419 0 
L 419 3381 
L 938 3381 
L 953 3075 
Q 1256 3444 1766 3444 
Q 2325 3444 2553 2953 
Q 2872 3444 3441 3444 
Q 3903 3444 4151 3153 
Q 4400 2863 4400 2222 
L 4400 0 
L 3847 0 
L 3847 2228 
Q 3847 2653 3692 2804 
Q 3538 2956 3272 2956 
Q 3016 2956 2864 2757 
Q 2713 2559 2684 2272 
L 2684 0 
L 2131 0 
L 2131 2272 
Q 2116 2956 1556 2956 
z
" transform="scale(0.015625)"/>
       <path id="RobotoCondensed-Regular-62" d="M 2866 1528 
Q 2866 725 2575 331 
Q 2284 -63 1753 -63 
Q 1219 -63 950 400 
L 922 0 
L 416 0 
L 416 4800 
L 969 4800 
L 969 3016 
Q 1234 3444 1750 3444 
Q 2278 3444 2567 3073 
Q 2856 2703 2866 1897 
L 2866 1528 
z
M 1606 2956 
Q 1181 2956 969 2497 
L 969 884 
Q 1181 428 1609 428 
Q 1984 428 2146 690 
Q 2309 953 2313 1506 
L 2313 1844 
Q 2313 2406 2159 2681 
Q 2006 2956 1606 2956 
z
" transform="scale(0.015625)"/>
       <path id="RobotoCondensed-Regular-20" transform="scale(0.015625)"/>
       <path id="RobotoCondensed-Regular-6f" d="M 300 1850 
Q 300 2641 678 3042 
Q 1056 3444 1603 3444 
Q 2156 3444 2536 3042 
Q 2916 2641 2916 1850 
L 2916 1528 
Q 2916 738 2536 337 
Q 2156 -63 1609 -63 
Q 1059 -63 679 337 
Q 300 738 300 1528 
L 300 1850 
z
M 853 1528 
Q 853 969 1068 689 
Q 1284 409 1609 409 
Q 2341 409 2363 1466 
L 2363 1850 
Q 2363 2403 2145 2686 
Q 1928 2969 1603 2969 
Q 1281 2969 1067 2686 
Q 853 2403 853 1850 
L 853 1528 
z
" transform="scale(0.015625)"/>
       <path id="RobotoCondensed-Regular-66" d="M 1788 2938 
L 1213 2938 
L 1213 0 
L 659 0 
L 659 2938 
L 219 2938 
L 219 3381 
L 659 3381 
L 659 3763 
Q 666 4297 923 4581 
Q 1181 4866 1628 4866 
Q 1794 4866 1963 4816 
L 1938 4344 
Q 1834 4372 1684 4372 
Q 1222 4372 1213 3763 
L 1213 3381 
L 1788 3381 
L 1788 2938 
z
" transform="scale(0.015625)"/>
       <path id="RobotoCondensed-Regular-4f" d="M 3450 1878 
Q 3450 913 3040 425 
Q 2631 -63 1925 -63 
Q 1253 -63 829 412 
Q 406 888 394 1822 
L 394 2669 
Q 394 3631 816 4122 
Q 1238 4613 1922 4613 
Q 2622 4613 3031 4131 
Q 3441 3650 3450 2713 
L 3450 1878 
z
M 2881 2675 
Q 2881 3425 2634 3762 
Q 2388 4100 1922 4100 
Q 1478 4100 1220 3762 
Q 963 3425 963 2675 
L 963 1878 
Q 963 1125 1223 786 
Q 1484 447 1925 447 
Q 2394 447 2636 781 
Q 2878 1116 2881 1859 
L 2881 2675 
z
" transform="scale(0.015625)"/>
       <path id="RobotoCondensed-Regular-76" d="M 2578 3381 
L 1575 0 
L 1159 0 
L 144 3381 
L 706 3381 
L 1372 847 
L 2016 3381 
L 2578 3381 
z
" transform="scale(0.015625)"/>
       <path id="RobotoCondensed-Regular-6c" d="M 1009 4800 
L 1009 0 
L 459 0 
L 459 4800 
L 1009 4800 
z
" transform="scale(0.015625)"/>
       <path id="RobotoCondensed-Regular-70" d="M 1750 -63 
Q 1244 -63 969 325 
L 969 -1300 
L 416 -1300 
L 416 3381 
L 919 3381 
L 947 3013 
Q 1222 3444 1744 3444 
Q 2275 3444 2562 3073 
Q 2850 2703 2859 1897 
L 2859 1528 
Q 2859 725 2570 331 
Q 2281 -63 1750 -63 
z
M 1572 2956 
Q 1181 2956 969 2559 
L 969 797 
Q 1178 409 1578 409 
Q 2288 409 2306 1472 
L 2306 1844 
Q 2306 2956 1572 2956 
z
" transform="scale(0.015625)"/>
       <path id="RobotoCondensed-Regular-69" d="M 428 4278 
Q 428 4419 506 4516 
Q 584 4613 741 4613 
Q 894 4613 975 4516 
Q 1056 4419 1056 4278 
Q 1056 4144 975 4048 
Q 894 3953 741 3953 
Q 584 3953 506 4048 
Q 428 4144 428 4278 
z
M 1009 3381 
L 1009 0 
L 459 0 
L 459 3381 
L 1009 3381 
z
" transform="scale(0.015625)"/>
       <path id="RobotoCondensed-Regular-6e" d="M 1603 2956 
Q 1400 2956 1236 2818 
Q 1072 2681 969 2459 
L 969 0 
L 416 0 
L 416 3381 
L 938 3381 
L 953 3022 
Q 1275 3444 1775 3444 
Q 2191 3444 2437 3162 
Q 2684 2881 2684 2216 
L 2684 0 
L 2131 0 
L 2131 2222 
Q 2131 2619 2000 2787 
Q 1869 2956 1603 2956 
z
" transform="scale(0.015625)"/>
       <path id="RobotoCondensed-Regular-67" d="M 1525 -1334 
Q 1331 -1334 1007 -1229 
Q 684 -1125 497 -906 
L 725 -522 
Q 1056 -859 1484 -859 
Q 1806 -859 2000 -679 
Q 2194 -500 2194 -56 
L 2194 338 
Q 1925 -63 1428 -63 
Q 919 -63 611 331 
Q 303 725 303 1528 
L 303 1844 
Q 303 2678 608 3061 
Q 913 3444 1434 3444 
Q 1953 3444 2219 3006 
L 2247 3381 
L 2744 3381 
L 2744 -41 
Q 2741 -703 2402 -1018 
Q 2063 -1334 1525 -1334 
z
M 856 1528 
Q 856 963 1025 695 
Q 1194 428 1572 428 
Q 1988 428 2194 853 
L 2194 2541 
Q 1978 2956 1578 2956 
Q 1197 2956 1028 2687 
Q 859 2419 856 1866 
L 856 1528 
z
" transform="scale(0.015625)"/>
       <path id="RobotoCondensed-Regular-73" d="M 2056 866 
Q 2056 1059 1907 1190 
Q 1759 1322 1340 1500 
Q 922 1678 681 1863 
Q 409 2072 409 2484 
Q 409 2888 703 3166 
Q 997 3444 1481 3444 
Q 2000 3444 2287 3150 
Q 2575 2856 2575 2419 
L 2025 2419 
Q 2025 2628 1884 2798 
Q 1744 2969 1481 2969 
Q 1203 2969 1083 2828 
Q 963 2688 963 2503 
Q 963 2319 1081 2217 
Q 1200 2116 1553 1959 
Q 2066 1756 2337 1537 
Q 2609 1319 2609 909 
Q 2609 463 2303 200 
Q 1997 -63 1494 -63 
Q 919 -63 616 265 
Q 313 594 313 1013 
L 866 1013 
Q 881 653 1081 533 
Q 1281 413 1494 413 
Q 2056 413 2056 866 
z
" transform="scale(0.015625)"/>
      </defs>
      <use xlink:href="#RobotoCondensed-Regular-4e"/>
      <use xlink:href="#RobotoCondensed-Regular-75" transform="translate(61.962891 0)"/>
      <use xlink:href="#RobotoCondensed-Regular-6d" transform="translate(110.302734 0)"/>
      <use xlink:href="#RobotoCondensed-Regular-62" transform="translate(185.595703 0)"/>
      <use xlink:href="#RobotoCondensed-Regular-65" transform="translate(234.912109 0)"/>
      <use xlink:href="#RobotoCondensed-Regular-72" transform="translate(281.787109 0)"/>
      <use xlink:href="#RobotoCondensed-Regular-20" transform="translate(312.255859 0)"/>
      <use xlink:href="#RobotoCondensed-Regular-6f" transform="translate(335.205078 0)"/>
      <use xlink:href="#RobotoCondensed-Regular-66" transform="translate(385.400391 0)"/>
      <use xlink:href="#RobotoCondensed-Regular-20" transform="translate(417.041016 0)"/>
      <use xlink:href="#RobotoCondensed-Regular-4f" transform="translate(439.990234 0)"/>
      <use xlink:href="#RobotoCondensed-Regular-76" transform="translate(500.097656 0)"/>
      <use xlink:href="#RobotoCondensed-Regular-65" transform="translate(542.871094 0)"/>
      <use xlink:href="#RobotoCondensed-Regular-72" transform="translate(589.746094 0)"/>
      <use xlink:href="#RobotoCondensed-Regular-6c" transform="translate(620.214844 0)"/>
      <use xlink:href="#RobotoCondensed-Regular-61" transform="translate(643.164062 0)"/>
      <use xlink:href="#RobotoCondensed-Regular-70" transform="translate(691.064453 0)"/>
      <use xlink:href="#RobotoCondensed-Regular-70" transform="translate(740.380859 0)"/>
      <use xlink:href="#RobotoCondensed-Regular-69" transform="translate(789.697266 0)"/>
      <use xlink:href="#RobotoCondensed-Regular-6e" transform="translate(812.646484 0)"/>
      <use xlink:href="#RobotoCondensed-Regular-67" transform="translate(861.083984 0)"/>
      <use xlink:href="#RobotoCondensed-Regular-20" transform="translate(910.400391 0)"/>
      <use xlink:href="#RobotoCondensed-Regular-4e" transform="translate(933.349609 0)"/>
      <use xlink:href="#RobotoCondensed-Regular-61" transform="translate(995.3125 0)"/>
      <use xlink:href="#RobotoCondensed-Regular-6d" transform="translate(1043.212891 0)"/>
      <use xlink:href="#RobotoCondensed-Regular-65" transform="translate(1118.505859 0)"/>
      <use xlink:href="#RobotoCondensed-Regular-73" transform="translate(1165.380859 0)"/>
     </g>
    </g>
   </g>
   <g id="line2d_22">
    <path d="M 40.561593 90.68766 
L 43.937855 98.121114 
L 45.625986 101.497121 
L 47.314118 104.464264 
L 49.002249 106.886256 
L 49.846314 107.850231 
L 50.69038 108.626809 
L 51.534445 109.198955 
L 52.378511 109.549634 
L 53.222577 109.662128 
L 65.88356 109.669734 
L 66.727626 110.541295 
L 67.571691 112.716109 
L 68.415757 115.989744 
L 69.259823 120.157769 
L 70.947954 130.359258 
L 74.324216 152.499908 
L 75.168282 157.204566 
L 76.012347 161.168158 
L 76.856413 164.186254 
L 77.700478 166.05442 
L 78.544544 166.57984 
L 79.38861 166.26598 
L 80.232675 165.52111 
L 81.076741 164.413373 
L 81.920806 163.010914 
L 83.608938 159.594404 
L 86.9852 152.223046 
L 87.829265 150.665559 
L 88.673331 149.358502 
L 89.517397 148.370017 
L 90.361462 147.768249 
L 91.205528 147.62116 
L 92.049593 147.958189 
L 92.893659 148.722821 
L 93.737724 149.846912 
L 94.58179 151.262319 
L 96.269921 154.694502 
L 99.646184 162.05632 
L 100.490249 163.602903 
L 101.334315 164.895651 
L 102.17838 165.866418 
L 103.022446 166.447061 
L 103.866511 166.554051 
L 104.710577 165.833996 
L 105.554643 164.26555 
L 106.398708 161.984999 
L 107.242774 159.128632 
L 108.930905 152.233601 
L 112.307167 137.530409 
L 113.151233 134.459388 
L 113.995298 131.902854 
L 114.839364 129.997095 
L 115.68343 128.878399 
L 116.527495 128.636596 
L 129.188479 128.605883 
L 130.032544 128.20037 
L 130.87661 127.377475 
L 131.720676 126.205343 
L 133.408807 123.08594 
L 138.4732 112.432997 
L 139.317266 111.184202 
L 140.161331 110.267609 
L 141.005397 109.751362 
L 142.693528 109.662128 
L 166.327364 109.662128 
L 167.17143 109.786632 
L 168.015496 110.731562 
L 168.859561 112.490811 
L 169.703627 114.928093 
L 171.391758 121.291602 
L 175.612086 139.525786 
L 176.456151 142.480962 
L 177.300217 144.887579 
L 178.144282 146.609349 
L 178.988348 147.509985 
L 179.832414 147.53591 
L 180.676479 147.041469 
L 181.520545 146.143275 
L 182.36461 144.909472 
L 184.052742 141.707615 
L 188.273069 132.599893 
L 189.117135 131.134401 
L 189.961201 129.946595 
L 190.805266 129.10462 
L 191.649332 128.676619 
L 192.493397 128.72583 
L 193.337463 129.242077 
L 194.181528 130.15867 
L 195.025594 131.407465 
L 196.713725 134.629083 
L 200.934053 143.726584 
L 201.778119 145.179811 
L 202.622184 146.351943 
L 203.46625 147.174838 
L 204.310315 147.580351 
L 207.686578 147.611064 
L 216.971299 147.611064 
L 217.815365 147.248359 
L 218.65943 145.570314 
L 219.503496 142.711676 
L 220.347561 138.876875 
L 222.035693 129.096516 
L 226.256021 101.873009 
L 227.100086 97.588459 
L 227.944152 94.167632 
L 228.788217 91.814963 
L 229.632283 90.734881 
L 230.476348 90.82613 
L 231.320414 91.406773 
L 232.16448 92.377541 
L 233.008545 93.670288 
L 234.696676 96.949148 
L 238.917004 106.010873 
L 239.76107 107.426279 
L 240.605135 108.550371 
L 241.449201 109.315002 
L 242.293267 109.652031 
L 243.137332 108.876201 
L 243.981398 105.867362 
L 244.825463 100.924938 
L 245.669529 94.38965 
L 247.35766 77.903358 
L 251.577988 32.662876 
L 252.422054 25.65058 
L 253.266119 20.111897 
L 254.110185 16.387546 
L 254.95425 14.818248 
L 255.798316 15.066728 
L 256.642381 16.049837 
L 257.486447 17.657221 
L 258.330513 19.798019 
L 260.018644 25.31643 
L 262.55084 35.323198 
L 265.083037 45.224343 
L 266.771168 50.554979 
L 267.615234 52.566683 
L 273.523693 64.518958 
L 275.211824 67.372523 
L 276.899955 69.643837 
L 277.744021 70.504362 
L 278.588087 71.151181 
L 279.432152 71.561578 
L 280.276218 71.712838 
L 281.120283 71.636573 
L 281.964349 71.390374 
L 282.808414 70.974384 
L 283.65248 70.388602 
L 284.496546 69.633027 
L 285.340611 68.707661 
L 287.028742 66.347552 
L 288.716873 63.308275 
L 290.405005 59.589831 
L 292.093136 55.192218 
L 292.937201 52.738723 
L 292.937201 52.738723 
" clip-path="url(#p235314c47d)" style="fill: none; stroke: #1f77b4; stroke-width: 1.5; stroke-linecap: square"/>
   </g>
   <g id="line2d_23">
    <path d="M 40.561593 145.721831 
L 292.937201 77.216609 
" clip-path="url(#p235314c47d)" style="fill: none; stroke: #1f77b4; stroke-width: 1.5; stroke-linecap: square"/>
   </g>
   <g id="patch_3">
    <path d="M 27.942813 185.56 
L 27.942813 7.2 
" style="fill: none; stroke: #000000; stroke-width: 0.8; stroke-linejoin: miter; stroke-linecap: square"/>
   </g>
   <g id="patch_4">
    <path d="M 27.942813 185.56 
L 305.555982 185.56 
" style="fill: none; stroke: #000000; stroke-width: 0.8; stroke-linejoin: miter; stroke-linecap: square"/>
   </g>
   <g id="PathCollection_1">
    <defs>
     <path id="m31f3bf56e3" d="M 0 2.5 
C 0.663008 2.5 1.29895 2.236584 1.767767 1.767767 
C 2.236584 1.29895 2.5 0.663008 2.5 0 
C 2.5 -0.663008 2.236584 -1.29895 1.767767 -1.767767 
C 1.29895 -2.236584 0.663008 -2.5 0 -2.5 
C -0.663008 -2.5 -1.29895 -2.236584 -1.767767 -1.767767 
C -2.236584 -1.29895 -2.5 -0.663008 -2.5 0 
C -2.5 0.663008 -2.236584 1.29895 -1.767767 1.767767 
C -1.29895 2.236584 -0.663008 2.5 0 2.5 
z
" style="stroke: #1f77b4"/>
    </defs>
    <g clip-path="url(#p235314c47d)">
     <use xlink:href="#m31f3bf56e3" x="40.561593" y="90.68766" style="fill: #1f77b4; stroke: #1f77b4"/>
     <use xlink:href="#m31f3bf56e3" x="53.180373" y="109.662128" style="fill: #1f77b4; stroke: #1f77b4"/>
     <use xlink:href="#m31f3bf56e3" x="65.799154" y="109.662128" style="fill: #1f77b4; stroke: #1f77b4"/>
     <use xlink:href="#m31f3bf56e3" x="78.417934" y="166.585532" style="fill: #1f77b4; stroke: #1f77b4"/>
     <use xlink:href="#m31f3bf56e3" x="91.036715" y="147.611064" style="fill: #1f77b4; stroke: #1f77b4"/>
     <use xlink:href="#m31f3bf56e3" x="103.655495" y="166.585532" style="fill: #1f77b4; stroke: #1f77b4"/>
     <use xlink:href="#m31f3bf56e3" x="116.274275" y="128.636596" style="fill: #1f77b4; stroke: #1f77b4"/>
     <use xlink:href="#m31f3bf56e3" x="128.893056" y="128.636596" style="fill: #1f77b4; stroke: #1f77b4"/>
     <use xlink:href="#m31f3bf56e3" x="141.511836" y="109.662128" style="fill: #1f77b4; stroke: #1f77b4"/>
     <use xlink:href="#m31f3bf56e3" x="154.130617" y="109.662128" style="fill: #1f77b4; stroke: #1f77b4"/>
     <use xlink:href="#m31f3bf56e3" x="166.749397" y="109.662128" style="fill: #1f77b4; stroke: #1f77b4"/>
     <use xlink:href="#m31f3bf56e3" x="179.368178" y="147.611064" style="fill: #1f77b4; stroke: #1f77b4"/>
     <use xlink:href="#m31f3bf56e3" x="191.986958" y="128.636596" style="fill: #1f77b4; stroke: #1f77b4"/>
     <use xlink:href="#m31f3bf56e3" x="204.605738" y="147.611064" style="fill: #1f77b4; stroke: #1f77b4"/>
     <use xlink:href="#m31f3bf56e3" x="217.224519" y="147.611064" style="fill: #1f77b4; stroke: #1f77b4"/>
     <use xlink:href="#m31f3bf56e3" x="229.843299" y="90.68766" style="fill: #1f77b4; stroke: #1f77b4"/>
     <use xlink:href="#m31f3bf56e3" x="242.46208" y="109.662128" style="fill: #1f77b4; stroke: #1f77b4"/>
     <use xlink:href="#m31f3bf56e3" x="255.08086" y="14.789787" style="fill: #1f77b4; stroke: #1f77b4"/>
     <use xlink:href="#m31f3bf56e3" x="267.699641" y="52.738723" style="fill: #1f77b4; stroke: #1f77b4"/>
     <use xlink:href="#m31f3bf56e3" x="280.318421" y="71.713191" style="fill: #1f77b4; stroke: #1f77b4"/>
     <use xlink:href="#m31f3bf56e3" x="292.937201" y="52.738723" style="fill: #1f77b4; stroke: #1f77b4"/>
    </g>
   </g>
  </g>
 </g>
 <defs>
  <clipPath id="p235314c47d">
   <rect x="27.942813" y="7.2" width="277.613169" height="178.36"/>
  </clipPath>
 </defs>
</svg>
