<?xml version="1.0" encoding="utf-8" standalone="no"?>
<!DOCTYPE svg PUBLIC "-//W3C//DTD SVG 1.1//EN"
  "http://www.w3.org/Graphics/SVG/1.1/DTD/svg11.dtd">
<svg xmlns:xlink="http://www.w3.org/1999/xlink" width="710.455156pt" height="350.331875pt" viewBox="0 0 710.455156 350.331875" xmlns="http://www.w3.org/2000/svg" version="1.1">
 <metadata>
  <rdf:RDF xmlns:dc="http://purl.org/dc/elements/1.1/" xmlns:cc="http://creativecommons.org/ns#" xmlns:rdf="http://www.w3.org/1999/02/22-rdf-syntax-ns#">
   <cc:Work>
    <dc:type rdf:resource="http://purl.org/dc/dcmitype/StillImage"/>
    <dc:date>2026-04-25T12:36:54.956096</dc:date>
    <dc:format>image/svg+xml</dc:format>
    <dc:creator>
     <cc:Agent>
      <dc:title>Matplotlib v3.10.7, https://matplotlib.org/</dc:title>
     </cc:Agent>
    </dc:creator>
   </cc:Work>
  </rdf:RDF>
 </metadata>
 <defs>
  <style type="text/css">*{stroke-linejoin: round; stroke-linecap: butt}</style>
 </defs>
 <g id="figure_1">
  <g id="patch_1">
   <path d="M 0 350.331875 
L 710.455156 350.331875 
L 710.455156 0 
L 0 0 
z
" style="fill: #ffffff"/>
  </g>
  <g id="axes_1">
   <g id="patch_2">
    <path d="M 53.295156 310.84 
L 703.255156 310.84 
L 703.255156 7.2 
L 53.295156 7.2 
z
" style="fill: #ffffff"/>
   </g>
   <g id="matplotlib.axis_1">
    <g id="xtick_1">
     <g id="text_1">
      <!-- 2008 -->
      <g transform="translate(68.841293 326.198281) scale(0.11 -0.11)">
       <defs>
        <path id="DejaVuSans-32" d="M 1228 531 
L 3431 531 
L 3431 0 
L 469 0 
L 469 531 
Q 828 903 1448 1529 
Q 2069 2156 2228 2338 
Q 2531 2678 2651 2914 
Q 2772 3150 2772 3378 
Q 2772 3750 2511 3984 
Q 2250 4219 1831 4219 
Q 1534 4219 1204 4116 
Q 875 4013 500 3803 
L 500 4441 
Q 881 4594 1212 4672 
Q 1544 4750 1819 4750 
Q 2544 4750 2975 4387 
Q 3406 4025 3406 3419 
Q 3406 3131 3298 2873 
Q 3191 2616 2906 2266 
Q 2828 2175 2409 1742 
Q 1991 1309 1228 531 
z
" transform="scale(0.015625)"/>
        <path id="DejaVuSans-30" d="M 2034 4250 
Q 1547 4250 1301 3770 
Q 1056 3291 1056 2328 
Q 1056 1369 1301 889 
Q 1547 409 2034 409 
Q 2525 409 2770 889 
Q 3016 1369 3016 2328 
Q 3016 3291 2770 3770 
Q 2525 4250 2034 4250 
z
M 2034 4750 
Q 2819 4750 3233 4129 
Q 3647 3509 3647 2328 
Q 3647 1150 3233 529 
Q 2819 -91 2034 -91 
Q 1250 -91 836 529 
Q 422 1150 422 2328 
Q 422 3509 836 4129 
Q 1250 4750 2034 4750 
z
" transform="scale(0.015625)"/>
        <path id="DejaVuSans-38" d="M 2034 2216 
Q 1584 2216 1326 1975 
Q 1069 1734 1069 1313 
Q 1069 891 1326 650 
Q 1584 409 2034 409 
Q 2484 409 2743 651 
Q 3003 894 3003 1313 
Q 3003 1734 2745 1975 
Q 2488 2216 2034 2216 
z
M 1403 2484 
Q 997 2584 770 2862 
Q 544 3141 544 3541 
Q 544 4100 942 4425 
Q 1341 4750 2034 4750 
Q 2731 4750 3128 4425 
Q 3525 4100 3525 3541 
Q 3525 3141 3298 2862 
Q 3072 2584 2669 2484 
Q 3125 2378 3379 2068 
Q 3634 1759 3634 1313 
Q 3634 634 3220 271 
Q 2806 -91 2034 -91 
Q 1263 -91 848 271 
Q 434 634 434 1313 
Q 434 1759 690 2068 
Q 947 2378 1403 2484 
z
M 1172 3481 
Q 1172 3119 1398 2916 
Q 1625 2713 2034 2713 
Q 2441 2713 2670 2916 
Q 2900 3119 2900 3481 
Q 2900 3844 2670 4047 
Q 2441 4250 2034 4250 
Q 1625 4250 1398 4047 
Q 1172 3844 1172 3481 
z
" transform="scale(0.015625)"/>
       </defs>
       <use xlink:href="#DejaVuSans-32"/>
       <use xlink:href="#DejaVuSans-30" transform="translate(63.623047 0)"/>
       <use xlink:href="#DejaVuSans-30" transform="translate(127.246094 0)"/>
       <use xlink:href="#DejaVuSans-38" transform="translate(190.869141 0)"/>
      </g>
     </g>
    </g>
    <g id="xtick_2">
     <g id="text_2">
      <!-- 2010 -->
      <g transform="translate(153.251682 326.198281) scale(0.11 -0.11)">
       <defs>
        <path id="DejaVuSans-31" d="M 794 531 
L 1825 531 
L 1825 4091 
L 703 3866 
L 703 4441 
L 1819 4666 
L 2450 4666 
L 2450 531 
L 3481 531 
L 3481 0 
L 794 0 
L 794 531 
z
" transform="scale(0.015625)"/>
       </defs>
       <use xlink:href="#DejaVuSans-32"/>
       <use xlink:href="#DejaVuSans-30" transform="translate(63.623047 0)"/>
       <use xlink:href="#DejaVuSans-31" transform="translate(127.246094 0)"/>
       <use xlink:href="#DejaVuSans-30" transform="translate(190.869141 0)"/>
      </g>
     </g>
    </g>
    <g id="xtick_3">
     <g id="text_3">
      <!-- 2012 -->
      <g transform="translate(237.662072 326.198281) scale(0.11 -0.11)">
       <use xlink:href="#DejaVuSans-32"/>
       <use xlink:href="#DejaVuSans-30" transform="translate(63.623047 0)"/>
       <use xlink:href="#DejaVuSans-31" transform="translate(127.246094 0)"/>
       <use xlink:href="#DejaVuSans-32" transform="translate(190.869141 0)"/>
      </g>
     </g>
    </g>
    <g id="xtick_4">
     <g id="text_4">
      <!-- 2014 -->
      <g transform="translate(322.072461 326.198281) scale(0.11 -0.11)">
       <defs>
        <path id="DejaVuSans-34" d="M 2419 4116 
L 825 1625 
L 2419 1625 
L 2419 4116 
z
M 2253 4666 
L 3047 4666 
L 3047 1625 
L 3713 1625 
L 3713 1100 
L 3047 1100 
L 3047 0 
L 2419 0 
L 2419 1100 
L 313 1100 
L 313 1709 
L 2253 4666 
z
" transform="scale(0.015625)"/>
       </defs>
       <use xlink:href="#DejaVuSans-32"/>
       <use xlink:href="#DejaVuSans-30" transform="translate(63.623047 0)"/>
       <use xlink:href="#DejaVuSans-31" transform="translate(127.246094 0)"/>
       <use xlink:href="#DejaVuSans-34" transform="translate(190.869141 0)"/>
      </g>
     </g>
    </g>
    <g id="xtick_5">
     <g id="text_5">
      <!-- 2016 -->
      <g transform="translate(406.482851 326.198281) scale(0.11 -0.11)">
       <defs>
        <path id="DejaVuSans-36" d="M 2113 2584 
Q 1688 2584 1439 2293 
Q 1191 2003 1191 1497 
Q 1191 994 1439 701 
Q 1688 409 2113 409 
Q 2538 409 2786 701 
Q 3034 994 3034 1497 
Q 3034 2003 2786 2293 
Q 2538 2584 2113 2584 
z
M 3366 4563 
L 3366 3988 
Q 3128 4100 2886 4159 
Q 2644 4219 2406 4219 
Q 1781 4219 1451 3797 
Q 1122 3375 1075 2522 
Q 1259 2794 1537 2939 
Q 1816 3084 2150 3084 
Q 2853 3084 3261 2657 
Q 3669 2231 3669 1497 
Q 3669 778 3244 343 
Q 2819 -91 2113 -91 
Q 1303 -91 875 529 
Q 447 1150 447 2328 
Q 447 3434 972 4092 
Q 1497 4750 2381 4750 
Q 2619 4750 2861 4703 
Q 3103 4656 3366 4563 
z
" transform="scale(0.015625)"/>
       </defs>
       <use xlink:href="#DejaVuSans-32"/>
       <use xlink:href="#DejaVuSans-30" transform="translate(63.623047 0)"/>
       <use xlink:href="#DejaVuSans-31" transform="translate(127.246094 0)"/>
       <use xlink:href="#DejaVuSans-36" transform="translate(190.869141 0)"/>
      </g>
     </g>
    </g>
    <g id="xtick_6">
     <g id="text_6">
      <!-- 2018 -->
      <g transform="translate(490.893241 326.198281) scale(0.11 -0.11)">
       <use xlink:href="#DejaVuSans-32"/>
       <use xlink:href="#DejaVuSans-30" transform="translate(63.623047 0)"/>
       <use xlink:href="#DejaVuSans-31" transform="translate(127.246094 0)"/>
       <use xlink:href="#DejaVuSans-38" transform="translate(190.869141 0)"/>
      </g>
     </g>
    </g>
    <g id="xtick_7">
     <g id="text_7">
      <!-- 2020 -->
      <g transform="translate(575.30363 326.198281) scale(0.11 -0.11)">
       <use xlink:href="#DejaVuSans-32"/>
       <use xlink:href="#DejaVuSans-30" transform="translate(63.623047 0)"/>
       <use xlink:href="#DejaVuSans-32" transform="translate(127.246094 0)"/>
       <use xlink:href="#DejaVuSans-30" transform="translate(190.869141 0)"/>
      </g>
     </g>
    </g>
    <g id="xtick_8">
     <g id="text_8">
      <!-- 2022 -->
      <g transform="translate(659.71402 326.198281) scale(0.11 -0.11)">
       <use xlink:href="#DejaVuSans-32"/>
       <use xlink:href="#DejaVuSans-30" transform="translate(63.623047 0)"/>
       <use xlink:href="#DejaVuSans-32" transform="translate(127.246094 0)"/>
       <use xlink:href="#DejaVuSans-32" transform="translate(190.869141 0)"/>
      </g>
     </g>
    </g>
    <g id="text_9">
     <!-- Year -->
     <g transform="translate(366.628906 340.844219) scale(0.11 -0.11)">
      <defs>
       <path id="DejaVuSans-59" d="M -13 4666 
L 666 4666 
L 1959 2747 
L 3244 4666 
L 3922 4666 
L 2272 2222 
L 2272 0 
L 1638 0 
L 1638 2222 
L -13 4666 
z
" transform="scale(0.015625)"/>
       <path id="DejaVuSans-65" d="M 3597 1894 
L 3597 1613 
L 953 1613 
Q 991 1019 1311 708 
Q 1631 397 2203 397 
Q 2534 397 2845 478 
Q 3156 559 3463 722 
L 3463 178 
Q 3153 47 2828 -22 
Q 2503 -91 2169 -91 
Q 1331 -91 842 396 
Q 353 884 353 1716 
Q 353 2575 817 3079 
Q 1281 3584 2069 3584 
Q 2775 3584 3186 3129 
Q 3597 2675 3597 1894 
z
M 3022 2063 
Q 3016 2534 2758 2815 
Q 2500 3097 2075 3097 
Q 1594 3097 1305 2825 
Q 1016 2553 972 2059 
L 3022 2063 
z
" transform="scale(0.015625)"/>
       <path id="DejaVuSans-61" d="M 2194 1759 
Q 1497 1759 1228 1600 
Q 959 1441 959 1056 
Q 959 750 1161 570 
Q 1363 391 1709 391 
Q 2188 391 2477 730 
Q 2766 1069 2766 1631 
L 2766 1759 
L 2194 1759 
z
M 3341 1997 
L 3341 0 
L 2766 0 
L 2766 531 
Q 2569 213 2275 61 
Q 1981 -91 1556 -91 
Q 1019 -91 701 211 
Q 384 513 384 1019 
Q 384 1609 779 1909 
Q 1175 2209 1959 2209 
L 2766 2209 
L 2766 2266 
Q 2766 2663 2505 2880 
Q 2244 3097 1772 3097 
Q 1472 3097 1187 3025 
Q 903 2953 641 2809 
L 641 3341 
Q 956 3463 1253 3523 
Q 1550 3584 1831 3584 
Q 2591 3584 2966 3190 
Q 3341 2797 3341 1997 
z
" transform="scale(0.015625)"/>
       <path id="DejaVuSans-72" d="M 2631 2963 
Q 2534 3019 2420 3045 
Q 2306 3072 2169 3072 
Q 1681 3072 1420 2755 
Q 1159 2438 1159 1844 
L 1159 0 
L 581 0 
L 581 3500 
L 1159 3500 
L 1159 2956 
Q 1341 3275 1631 3429 
Q 1922 3584 2338 3584 
Q 2397 3584 2469 3576 
Q 2541 3569 2628 3553 
L 2631 2963 
z
" transform="scale(0.015625)"/>
      </defs>
      <use xlink:href="#DejaVuSans-59"/>
      <use xlink:href="#DejaVuSans-65" transform="translate(47.833984 0)"/>
      <use xlink:href="#DejaVuSans-61" transform="translate(109.357422 0)"/>
      <use xlink:href="#DejaVuSans-72" transform="translate(170.636719 0)"/>
     </g>
    </g>
   </g>
   <g id="matplotlib.axis_2">
    <g id="ytick_1">
     <g id="line2d_1">
      <path d="M 53.295156 310.84 
L 703.255156 310.84 
" clip-path="url(#p4b0f456d8d)" style="fill: none; stroke: #808080; stroke-opacity: 0.3; stroke-width: 0.4; stroke-linecap: round"/>
     </g>
     <g id="text_10">
      <!-- 0% -->
      <g transform="translate(28.844688 315.019141) scale(0.11 -0.11)">
       <defs>
        <path id="DejaVuSans-25" d="M 4653 2053 
Q 4381 2053 4226 1822 
Q 4072 1591 4072 1178 
Q 4072 772 4226 539 
Q 4381 306 4653 306 
Q 4919 306 5073 539 
Q 5228 772 5228 1178 
Q 5228 1588 5073 1820 
Q 4919 2053 4653 2053 
z
M 4653 2450 
Q 5147 2450 5437 2106 
Q 5728 1763 5728 1178 
Q 5728 594 5436 251 
Q 5144 -91 4653 -91 
Q 4153 -91 3862 251 
Q 3572 594 3572 1178 
Q 3572 1766 3864 2108 
Q 4156 2450 4653 2450 
z
M 1428 4353 
Q 1159 4353 1004 4120 
Q 850 3888 850 3481 
Q 850 3069 1003 2837 
Q 1156 2606 1428 2606 
Q 1700 2606 1854 2837 
Q 2009 3069 2009 3481 
Q 2009 3884 1853 4118 
Q 1697 4353 1428 4353 
z
M 4250 4750 
L 4750 4750 
L 1831 -91 
L 1331 -91 
L 4250 4750 
z
M 1428 4750 
Q 1922 4750 2215 4408 
Q 2509 4066 2509 3481 
Q 2509 2891 2217 2550 
Q 1925 2209 1428 2209 
Q 931 2209 642 2551 
Q 353 2894 353 3481 
Q 353 4063 643 4406 
Q 934 4750 1428 4750 
z
" transform="scale(0.015625)"/>
       </defs>
       <use xlink:href="#DejaVuSans-30"/>
       <use xlink:href="#DejaVuSans-25" transform="translate(63.623047 0)"/>
      </g>
     </g>
    </g>
    <g id="ytick_2">
     <g id="line2d_2">
      <path d="M 53.295156 266.63425 
L 703.255156 266.63425 
" clip-path="url(#p4b0f456d8d)" style="fill: none; stroke: #808080; stroke-opacity: 0.3; stroke-width: 0.4; stroke-linecap: round"/>
     </g>
     <g id="text_11">
      <!-- 5% -->
      <g transform="translate(28.844688 270.813391) scale(0.11 -0.11)">
       <defs>
        <path id="DejaVuSans-35" d="M 691 4666 
L 3169 4666 
L 3169 4134 
L 1269 4134 
L 1269 2991 
Q 1406 3038 1543 3061 
Q 1681 3084 1819 3084 
Q 2600 3084 3056 2656 
Q 3513 2228 3513 1497 
Q 3513 744 3044 326 
Q 2575 -91 1722 -91 
Q 1428 -91 1123 -41 
Q 819 9 494 109 
L 494 744 
Q 775 591 1075 516 
Q 1375 441 1709 441 
Q 2250 441 2565 725 
Q 2881 1009 2881 1497 
Q 2881 1984 2565 2268 
Q 2250 2553 1709 2553 
Q 1456 2553 1204 2497 
Q 953 2441 691 2322 
L 691 4666 
z
" transform="scale(0.015625)"/>
       </defs>
       <use xlink:href="#DejaVuSans-35"/>
       <use xlink:href="#DejaVuSans-25" transform="translate(63.623047 0)"/>
      </g>
     </g>
    </g>
    <g id="ytick_3">
     <g id="line2d_3">
      <path d="M 53.295156 222.4285 
L 703.255156 222.4285 
" clip-path="url(#p4b0f456d8d)" style="fill: none; stroke: #808080; stroke-opacity: 0.3; stroke-width: 0.4; stroke-linecap: round"/>
     </g>
     <g id="text_12">
      <!-- 10% -->
      <g transform="translate(21.845938 226.607641) scale(0.11 -0.11)">
       <use xlink:href="#DejaVuSans-31"/>
       <use xlink:href="#DejaVuSans-30" transform="translate(63.623047 0)"/>
       <use xlink:href="#DejaVuSans-25" transform="translate(127.246094 0)"/>
      </g>
     </g>
    </g>
    <g id="ytick_4">
     <g id="line2d_4">
      <path d="M 53.295156 178.222751 
L 703.255156 178.222751 
" clip-path="url(#p4b0f456d8d)" style="fill: none; stroke: #808080; stroke-opacity: 0.3; stroke-width: 0.4; stroke-linecap: round"/>
     </g>
     <g id="text_13">
      <!-- 15% -->
      <g transform="translate(21.845938 182.401891) scale(0.11 -0.11)">
       <use xlink:href="#DejaVuSans-31"/>
       <use xlink:href="#DejaVuSans-35" transform="translate(63.623047 0)"/>
       <use xlink:href="#DejaVuSans-25" transform="translate(127.246094 0)"/>
      </g>
     </g>
    </g>
    <g id="ytick_5">
     <g id="line2d_5">
      <path d="M 53.295156 134.017001 
L 703.255156 134.017001 
" clip-path="url(#p4b0f456d8d)" style="fill: none; stroke: #808080; stroke-opacity: 0.3; stroke-width: 0.4; stroke-linecap: round"/>
     </g>
     <g id="text_14">
      <!-- 20% -->
      <g transform="translate(21.845938 138.196142) scale(0.11 -0.11)">
       <use xlink:href="#DejaVuSans-32"/>
       <use xlink:href="#DejaVuSans-30" transform="translate(63.623047 0)"/>
       <use xlink:href="#DejaVuSans-25" transform="translate(127.246094 0)"/>
      </g>
     </g>
    </g>
    <g id="ytick_6">
     <g id="line2d_6">
      <path d="M 53.295156 89.811251 
L 703.255156 89.811251 
" clip-path="url(#p4b0f456d8d)" style="fill: none; stroke: #808080; stroke-opacity: 0.3; stroke-width: 0.4; stroke-linecap: round"/>
     </g>
     <g id="text_15">
      <!-- 25% -->
      <g transform="translate(21.845938 93.990392) scale(0.11 -0.11)">
       <use xlink:href="#DejaVuSans-32"/>
       <use xlink:href="#DejaVuSans-35" transform="translate(63.623047 0)"/>
       <use xlink:href="#DejaVuSans-25" transform="translate(127.246094 0)"/>
      </g>
     </g>
    </g>
    <g id="ytick_7">
     <g id="line2d_7">
      <path d="M 53.295156 45.605501 
L 703.255156 45.605501 
" clip-path="url(#p4b0f456d8d)" style="fill: none; stroke: #808080; stroke-opacity: 0.3; stroke-width: 0.4; stroke-linecap: round"/>
     </g>
     <g id="text_16">
      <!-- 30% -->
      <g transform="translate(21.845938 49.784642) scale(0.11 -0.11)">
       <defs>
        <path id="DejaVuSans-33" d="M 2597 2516 
Q 3050 2419 3304 2112 
Q 3559 1806 3559 1356 
Q 3559 666 3084 287 
Q 2609 -91 1734 -91 
Q 1441 -91 1130 -33 
Q 819 25 488 141 
L 488 750 
Q 750 597 1062 519 
Q 1375 441 1716 441 
Q 2309 441 2620 675 
Q 2931 909 2931 1356 
Q 2931 1769 2642 2001 
Q 2353 2234 1838 2234 
L 1294 2234 
L 1294 2753 
L 1863 2753 
Q 2328 2753 2575 2939 
Q 2822 3125 2822 3475 
Q 2822 3834 2567 4026 
Q 2313 4219 1838 4219 
Q 1578 4219 1281 4162 
Q 984 4106 628 3988 
L 628 4550 
Q 988 4650 1302 4700 
Q 1616 4750 1894 4750 
Q 2613 4750 3031 4423 
Q 3450 4097 3450 3541 
Q 3450 3153 3228 2886 
Q 3006 2619 2597 2516 
z
" transform="scale(0.015625)"/>
       </defs>
       <use xlink:href="#DejaVuSans-33"/>
       <use xlink:href="#DejaVuSans-30" transform="translate(63.623047 0)"/>
       <use xlink:href="#DejaVuSans-25" transform="translate(127.246094 0)"/>
      </g>
     </g>
    </g>
    <g id="text_17">
     <!-- Irregular Proportion -->
     <g transform="translate(15.558281 212.589141) rotate(-90) scale(0.11 -0.11)">
      <defs>
       <path id="DejaVuSans-49" d="M 628 4666 
L 1259 4666 
L 1259 0 
L 628 0 
L 628 4666 
z
" transform="scale(0.015625)"/>
       <path id="DejaVuSans-67" d="M 2906 1791 
Q 2906 2416 2648 2759 
Q 2391 3103 1925 3103 
Q 1463 3103 1205 2759 
Q 947 2416 947 1791 
Q 947 1169 1205 825 
Q 1463 481 1925 481 
Q 2391 481 2648 825 
Q 2906 1169 2906 1791 
z
M 3481 434 
Q 3481 -459 3084 -895 
Q 2688 -1331 1869 -1331 
Q 1566 -1331 1297 -1286 
Q 1028 -1241 775 -1147 
L 775 -588 
Q 1028 -725 1275 -790 
Q 1522 -856 1778 -856 
Q 2344 -856 2625 -561 
Q 2906 -266 2906 331 
L 2906 616 
Q 2728 306 2450 153 
Q 2172 0 1784 0 
Q 1141 0 747 490 
Q 353 981 353 1791 
Q 353 2603 747 3093 
Q 1141 3584 1784 3584 
Q 2172 3584 2450 3431 
Q 2728 3278 2906 2969 
L 2906 3500 
L 3481 3500 
L 3481 434 
z
" transform="scale(0.015625)"/>
       <path id="DejaVuSans-75" d="M 544 1381 
L 544 3500 
L 1119 3500 
L 1119 1403 
Q 1119 906 1312 657 
Q 1506 409 1894 409 
Q 2359 409 2629 706 
Q 2900 1003 2900 1516 
L 2900 3500 
L 3475 3500 
L 3475 0 
L 2900 0 
L 2900 538 
Q 2691 219 2414 64 
Q 2138 -91 1772 -91 
Q 1169 -91 856 284 
Q 544 659 544 1381 
z
M 1991 3584 
L 1991 3584 
z
" transform="scale(0.015625)"/>
       <path id="DejaVuSans-6c" d="M 603 4863 
L 1178 4863 
L 1178 0 
L 603 0 
L 603 4863 
z
" transform="scale(0.015625)"/>
       <path id="DejaVuSans-20" transform="scale(0.015625)"/>
       <path id="DejaVuSans-50" d="M 1259 4147 
L 1259 2394 
L 2053 2394 
Q 2494 2394 2734 2622 
Q 2975 2850 2975 3272 
Q 2975 3691 2734 3919 
Q 2494 4147 2053 4147 
L 1259 4147 
z
M 628 4666 
L 2053 4666 
Q 2838 4666 3239 4311 
Q 3641 3956 3641 3272 
Q 3641 2581 3239 2228 
Q 2838 1875 2053 1875 
L 1259 1875 
L 1259 0 
L 628 0 
L 628 4666 
z
" transform="scale(0.015625)"/>
       <path id="DejaVuSans-6f" d="M 1959 3097 
Q 1497 3097 1228 2736 
Q 959 2375 959 1747 
Q 959 1119 1226 758 
Q 1494 397 1959 397 
Q 2419 397 2687 759 
Q 2956 1122 2956 1747 
Q 2956 2369 2687 2733 
Q 2419 3097 1959 3097 
z
M 1959 3584 
Q 2709 3584 3137 3096 
Q 3566 2609 3566 1747 
Q 3566 888 3137 398 
Q 2709 -91 1959 -91 
Q 1206 -91 779 398 
Q 353 888 353 1747 
Q 353 2609 779 3096 
Q 1206 3584 1959 3584 
z
" transform="scale(0.015625)"/>
       <path id="DejaVuSans-70" d="M 1159 525 
L 1159 -1331 
L 581 -1331 
L 581 3500 
L 1159 3500 
L 1159 2969 
Q 1341 3281 1617 3432 
Q 1894 3584 2278 3584 
Q 2916 3584 3314 3078 
Q 3713 2572 3713 1747 
Q 3713 922 3314 415 
Q 2916 -91 2278 -91 
Q 1894 -91 1617 61 
Q 1341 213 1159 525 
z
M 3116 1747 
Q 3116 2381 2855 2742 
Q 2594 3103 2138 3103 
Q 1681 3103 1420 2742 
Q 1159 2381 1159 1747 
Q 1159 1113 1420 752 
Q 1681 391 2138 391 
Q 2594 391 2855 752 
Q 3116 1113 3116 1747 
z
" transform="scale(0.015625)"/>
       <path id="DejaVuSans-74" d="M 1172 4494 
L 1172 3500 
L 2356 3500 
L 2356 3053 
L 1172 3053 
L 1172 1153 
Q 1172 725 1289 603 
Q 1406 481 1766 481 
L 2356 481 
L 2356 0 
L 1766 0 
Q 1100 0 847 248 
Q 594 497 594 1153 
L 594 3053 
L 172 3053 
L 172 3500 
L 594 3500 
L 594 4494 
L 1172 4494 
z
" transform="scale(0.015625)"/>
       <path id="DejaVuSans-69" d="M 603 3500 
L 1178 3500 
L 1178 0 
L 603 0 
L 603 3500 
z
M 603 4863 
L 1178 4863 
L 1178 4134 
L 603 4134 
L 603 4863 
z
" transform="scale(0.015625)"/>
       <path id="DejaVuSans-6e" d="M 3513 2113 
L 3513 0 
L 2938 0 
L 2938 2094 
Q 2938 2591 2744 2837 
Q 2550 3084 2163 3084 
Q 1697 3084 1428 2787 
Q 1159 2491 1159 1978 
L 1159 0 
L 581 0 
L 581 3500 
L 1159 3500 
L 1159 2956 
Q 1366 3272 1645 3428 
Q 1925 3584 2291 3584 
Q 2894 3584 3203 3211 
Q 3513 2838 3513 2113 
z
" transform="scale(0.015625)"/>
      </defs>
      <use xlink:href="#DejaVuSans-49"/>
      <use xlink:href="#DejaVuSans-72" transform="translate(29.492188 0)"/>
      <use xlink:href="#DejaVuSans-72" transform="translate(68.855469 0)"/>
      <use xlink:href="#DejaVuSans-65" transform="translate(107.71875 0)"/>
      <use xlink:href="#DejaVuSans-67" transform="translate(169.242188 0)"/>
      <use xlink:href="#DejaVuSans-75" transform="translate(232.71875 0)"/>
      <use xlink:href="#DejaVuSans-6c" transform="translate(296.097656 0)"/>
      <use xlink:href="#DejaVuSans-61" transform="translate(323.880859 0)"/>
      <use xlink:href="#DejaVuSans-72" transform="translate(385.160156 0)"/>
      <use xlink:href="#DejaVuSans-20" transform="translate(426.273438 0)"/>
      <use xlink:href="#DejaVuSans-50" transform="translate(458.060547 0)"/>
      <use xlink:href="#DejaVuSans-72" transform="translate(516.613281 0)"/>
      <use xlink:href="#DejaVuSans-6f" transform="translate(555.476562 0)"/>
      <use xlink:href="#DejaVuSans-70" transform="translate(616.658203 0)"/>
      <use xlink:href="#DejaVuSans-6f" transform="translate(680.134766 0)"/>
      <use xlink:href="#DejaVuSans-72" transform="translate(741.316406 0)"/>
      <use xlink:href="#DejaVuSans-74" transform="translate(782.429688 0)"/>
      <use xlink:href="#DejaVuSans-69" transform="translate(821.638672 0)"/>
      <use xlink:href="#DejaVuSans-6f" transform="translate(849.421875 0)"/>
      <use xlink:href="#DejaVuSans-6e" transform="translate(910.603516 0)"/>
     </g>
    </g>
   </g>
   <g id="line2d_8">
    <path d="M 82.838793 128.081247 
L 90.743444 128.596941 
L 100.624259 128.97891 
L 112.481237 129.165194 
L 126.314378 129.171714 
L 130.266704 128.832232 
L 134.21903 128.149581 
L 138.171356 127.205293 
L 144.099845 125.476638 
L 153.980659 122.442367 
L 157.932985 121.412842 
L 161.885311 120.61086 
L 165.837637 120.117951 
L 173.742289 119.773767 
L 189.551593 119.289237 
L 203.384734 119.071602 
L 213.265548 119.11664 
L 219.194037 119.482634 
L 225.122526 120.135679 
L 231.051015 121.043703 
L 236.979504 122.174632 
L 242.907993 123.496394 
L 250.812645 125.500161 
L 252.788808 126.101691 
L 254.764971 127.062005 
L 256.741134 128.37739 
L 258.717297 130.006105 
L 260.69346 131.90641 
L 262.669623 134.036566 
L 266.621949 138.819465 
L 272.550437 146.67418 
L 276.502763 151.877263 
L 280.455089 156.664056 
L 282.431252 158.796992 
L 284.407415 160.700634 
L 286.383578 162.333243 
L 288.359741 163.653077 
L 290.335904 164.618396 
L 292.312067 165.187461 
L 294.28823 165.320206 
L 296.264393 165.041109 
L 298.240556 164.394521 
L 300.216719 163.409544 
L 302.192882 162.11528 
L 304.169045 160.540829 
L 306.145208 158.715292 
L 308.121371 156.667772 
L 312.073697 152.023184 
L 316.026023 146.839875 
L 329.859164 127.817058 
L 333.811489 123.090527 
L 341.716141 114.65718 
L 347.64463 107.69628 
L 355.549282 98.313422 
L 359.501608 93.91764 
L 363.453934 89.919974 
L 365.430097 88.117547 
L 367.40626 86.471184 
L 369.382423 84.999732 
L 371.358586 83.722035 
L 373.334749 82.656938 
L 375.310912 81.823288 
L 377.287075 81.239928 
L 381.239401 80.609324 
L 387.16789 79.909474 
L 395.072541 79.244418 
L 418.786497 77.553787 
L 424.714986 76.803446 
L 430.643475 75.755053 
L 450.405105 71.84814 
L 454.35743 71.303326 
L 458.309756 70.934647 
L 462.262082 70.783793 
L 466.214408 70.859922 
L 470.166734 71.113043 
L 476.095223 71.757405 
L 482.023712 72.628098 
L 503.761505 76.097445 
L 515.618482 77.565102 
L 529.451623 79.295038 
L 537.356275 80.019441 
L 543.284764 80.327938 
L 547.23709 80.387697 
L 549.213253 80.194327 
L 551.189416 79.685934 
L 553.165579 78.895307 
L 555.141742 77.855237 
L 557.117905 76.598515 
L 559.094068 75.157932 
L 563.046394 71.856343 
L 568.974883 66.344763 
L 572.927209 62.680135 
L 576.879534 59.32936 
L 578.855697 57.853644 
L 580.83186 56.554763 
L 582.808023 55.465507 
L 584.784186 54.618668 
L 586.760349 54.047035 
L 588.736512 53.7834 
L 590.712675 54.016977 
L 592.688838 55.150667 
L 594.665001 57.118192 
L 596.641164 59.826534 
L 598.617327 63.182678 
L 600.59349 67.093603 
L 602.569653 71.466294 
L 606.521979 81.224902 
L 616.402794 107.191093 
L 618.378957 111.909277 
L 620.35512 116.25207 
L 622.331283 120.126453 
L 624.307446 123.439409 
L 626.283609 126.097921 
L 628.259772 128.008971 
L 630.235935 129.079542 
L 632.212098 129.276837 
L 636.164424 129.090056 
L 640.116749 128.548614 
L 642.092912 128.112997 
L 644.069075 127.550435 
L 646.045238 126.84817 
L 648.021401 125.993442 
L 649.997564 124.973491 
L 651.973727 123.775558 
L 653.94989 122.386882 
L 655.926053 120.794705 
L 657.902216 118.986266 
L 659.878379 116.948807 
L 661.854542 114.669567 
L 663.830705 112.135786 
L 665.806868 109.334706 
L 667.783031 106.253567 
L 669.759194 102.879609 
L 671.735357 99.200072 
L 673.71152 95.202196 
L 673.71152 95.202196 
" clip-path="url(#p4b0f456d8d)" style="fill: none; stroke-dasharray: 2.5,4.125; stroke-dashoffset: 0; stroke: #000000; stroke-width: 2.5"/>
   </g>
   <g id="line2d_9">
    <path d="M 82.838793 62.746506 
L 88.767282 67.834536 
L 92.719607 70.975708 
L 96.671933 73.878582 
L 100.624259 76.510911 
L 104.576585 78.84045 
L 108.528911 80.834951 
L 112.481237 82.46217 
L 116.433563 83.68986 
L 120.385889 84.485774 
L 122.362052 84.711738 
L 124.338215 84.817667 
L 128.290541 84.737762 
L 132.242867 84.410858 
L 136.195193 83.871893 
L 140.147519 83.152154 
L 146.076008 81.80203 
L 152.004496 80.221144 
L 167.8138 75.67496 
L 171.766126 74.31699 
L 175.718452 72.620432 
L 181.646941 69.670414 
L 191.527756 64.54816 
L 195.480082 62.733539 
L 199.432408 61.210281 
L 203.384734 60.083377 
L 205.360897 59.701367 
L 207.33706 59.457818 
L 209.313223 59.365852 
L 213.265548 59.50568 
L 217.217874 59.928607 
L 221.1702 60.605192 
L 225.122526 61.506214 
L 229.074852 62.602453 
L 235.003341 64.548927 
L 240.93183 66.770279 
L 248.836482 69.989221 
L 252.788808 71.692564 
L 254.764971 72.830283 
L 256.741134 74.224893 
L 258.717297 75.843931 
L 260.69346 77.654934 
L 264.645786 81.722977 
L 270.574275 88.453182 
L 276.502763 95.158024 
L 280.455089 99.180979 
L 282.431252 100.960983 
L 284.407415 102.543386 
L 286.383578 103.895725 
L 288.359741 104.985536 
L 290.335904 105.780355 
L 292.312067 106.247718 
L 294.28823 106.351802 
L 296.264393 105.982675 
L 298.240556 105.136992 
L 300.216719 103.865105 
L 302.192882 102.217369 
L 304.169045 100.244137 
L 306.145208 97.99576 
L 310.097534 92.874989 
L 316.026023 84.389082 
L 319.978349 78.782763 
L 323.930675 73.687169 
L 325.906838 71.456775 
L 327.883001 69.505123 
L 329.859164 67.882563 
L 331.835327 66.63945 
L 333.811489 65.826136 
L 335.787652 65.492976 
L 337.763815 65.559398 
L 339.739978 65.814151 
L 341.716141 66.235002 
L 343.692304 66.803124 
L 347.64463 68.305861 
L 351.596956 70.171729 
L 357.525445 73.321896 
L 363.453934 76.441801 
L 367.40626 78.253872 
L 371.358586 79.675913 
L 373.334749 80.1936 
L 375.310912 80.557291 
L 377.287075 80.74816 
L 383.215564 80.739406 
L 393.096379 80.478469 
L 402.977193 79.974532 
L 412.858008 79.246315 
L 420.76266 78.510124 
L 422.738823 78.020651 
L 424.714986 77.110957 
L 426.691149 75.82608 
L 428.667312 74.211057 
L 430.643475 72.310925 
L 432.619638 70.170723 
L 436.571964 65.350256 
L 448.428942 49.811056 
L 450.405105 47.536905 
L 452.381268 45.473057 
L 454.35743 43.664552 
L 456.333593 42.156426 
L 458.309756 40.993716 
L 460.285919 40.221461 
L 462.262082 39.884698 
L 466.214408 40.023188 
L 470.166734 40.501718 
L 474.11906 41.23693 
L 480.047549 42.658106 
L 491.904527 45.724888 
L 495.856853 46.540562 
L 499.809179 47.128814 
L 503.761505 47.415166 
L 505.737668 47.392132 
L 507.713831 47.011745 
L 509.689994 46.258746 
L 511.666157 45.173418 
L 513.64232 43.796043 
L 515.618482 42.166903 
L 517.594645 40.326282 
L 521.546971 36.171721 
L 533.403949 22.821826 
L 535.380112 20.890569 
L 537.356275 19.150653 
L 539.332438 17.642361 
L 541.308601 16.405974 
L 543.284764 15.481775 
L 545.260927 14.910047 
L 547.23709 14.730148 
L 551.189416 14.871257 
L 555.141742 15.247574 
L 559.094068 15.818247 
L 565.022557 16.949307 
L 572.927209 18.756331 
L 582.808023 21.035953 
L 588.736512 22.16972 
L 596.641164 23.559248 
L 614.426631 26.867445 
L 620.35512 27.700719 
L 626.283609 28.245932 
L 630.235935 28.403941 
L 649.997564 28.397447 
L 671.735357 28.240048 
L 673.71152 28.213075 
L 673.71152 28.213075 
" clip-path="url(#p4b0f456d8d)" style="fill: none; stroke-dasharray: 16,4,2.5,4; stroke-dashoffset: 0; stroke: #000000; stroke-width: 2.5"/>
   </g>
   <g id="line2d_10">
    <path d="M 82.838793 132.225862 
L 673.71152 77.399928 
" clip-path="url(#p4b0f456d8d)" style="fill: none; stroke: #000000; stroke-opacity: 0.85; stroke-width: 1.5; stroke-linecap: round"/>
   </g>
   <g id="line2d_11">
    <path d="M 82.838793 88.17946 
L 673.71152 27.291822 
" clip-path="url(#p4b0f456d8d)" style="fill: none; stroke: #000000; stroke-opacity: 0.85; stroke-width: 1.5; stroke-linecap: round"/>
   </g>
   <g id="text_18">
    <!-- Overall: Girls 28.6% (2,187/7,647); Boys 23.2% (1,718/7,411) -->
    <g style="fill: #808080" transform="translate(66.294356 297.03065) scale(0.08 -0.08)">
     <defs>
      <path id="DejaVuSans-4f" d="M 2522 4238 
Q 1834 4238 1429 3725 
Q 1025 3213 1025 2328 
Q 1025 1447 1429 934 
Q 1834 422 2522 422 
Q 3209 422 3611 934 
Q 4013 1447 4013 2328 
Q 4013 3213 3611 3725 
Q 3209 4238 2522 4238 
z
M 2522 4750 
Q 3503 4750 4090 4092 
Q 4678 3434 4678 2328 
Q 4678 1225 4090 567 
Q 3503 -91 2522 -91 
Q 1538 -91 948 565 
Q 359 1222 359 2328 
Q 359 3434 948 4092 
Q 1538 4750 2522 4750 
z
" transform="scale(0.015625)"/>
      <path id="DejaVuSans-76" d="M 191 3500 
L 800 3500 
L 1894 563 
L 2988 3500 
L 3597 3500 
L 2284 0 
L 1503 0 
L 191 3500 
z
" transform="scale(0.015625)"/>
      <path id="DejaVuSans-3a" d="M 750 794 
L 1409 794 
L 1409 0 
L 750 0 
L 750 794 
z
M 750 3309 
L 1409 3309 
L 1409 2516 
L 750 2516 
L 750 3309 
z
" transform="scale(0.015625)"/>
      <path id="DejaVuSans-47" d="M 3809 666 
L 3809 1919 
L 2778 1919 
L 2778 2438 
L 4434 2438 
L 4434 434 
Q 4069 175 3628 42 
Q 3188 -91 2688 -91 
Q 1594 -91 976 548 
Q 359 1188 359 2328 
Q 359 3472 976 4111 
Q 1594 4750 2688 4750 
Q 3144 4750 3555 4637 
Q 3966 4525 4313 4306 
L 4313 3634 
Q 3963 3931 3569 4081 
Q 3175 4231 2741 4231 
Q 1884 4231 1454 3753 
Q 1025 3275 1025 2328 
Q 1025 1384 1454 906 
Q 1884 428 2741 428 
Q 3075 428 3337 486 
Q 3600 544 3809 666 
z
" transform="scale(0.015625)"/>
      <path id="DejaVuSans-73" d="M 2834 3397 
L 2834 2853 
Q 2591 2978 2328 3040 
Q 2066 3103 1784 3103 
Q 1356 3103 1142 2972 
Q 928 2841 928 2578 
Q 928 2378 1081 2264 
Q 1234 2150 1697 2047 
L 1894 2003 
Q 2506 1872 2764 1633 
Q 3022 1394 3022 966 
Q 3022 478 2636 193 
Q 2250 -91 1575 -91 
Q 1294 -91 989 -36 
Q 684 19 347 128 
L 347 722 
Q 666 556 975 473 
Q 1284 391 1588 391 
Q 1994 391 2212 530 
Q 2431 669 2431 922 
Q 2431 1156 2273 1281 
Q 2116 1406 1581 1522 
L 1381 1569 
Q 847 1681 609 1914 
Q 372 2147 372 2553 
Q 372 3047 722 3315 
Q 1072 3584 1716 3584 
Q 2034 3584 2315 3537 
Q 2597 3491 2834 3397 
z
" transform="scale(0.015625)"/>
      <path id="DejaVuSans-2e" d="M 684 794 
L 1344 794 
L 1344 0 
L 684 0 
L 684 794 
z
" transform="scale(0.015625)"/>
      <path id="DejaVuSans-28" d="M 1984 4856 
Q 1566 4138 1362 3434 
Q 1159 2731 1159 2009 
Q 1159 1288 1364 580 
Q 1569 -128 1984 -844 
L 1484 -844 
Q 1016 -109 783 600 
Q 550 1309 550 2009 
Q 550 2706 781 3412 
Q 1013 4119 1484 4856 
L 1984 4856 
z
" transform="scale(0.015625)"/>
      <path id="DejaVuSans-2c" d="M 750 794 
L 1409 794 
L 1409 256 
L 897 -744 
L 494 -744 
L 750 256 
L 750 794 
z
" transform="scale(0.015625)"/>
      <path id="DejaVuSans-37" d="M 525 4666 
L 3525 4666 
L 3525 4397 
L 1831 0 
L 1172 0 
L 2766 4134 
L 525 4134 
L 525 4666 
z
" transform="scale(0.015625)"/>
      <path id="DejaVuSans-2f" d="M 1625 4666 
L 2156 4666 
L 531 -594 
L 0 -594 
L 1625 4666 
z
" transform="scale(0.015625)"/>
      <path id="DejaVuSans-29" d="M 513 4856 
L 1013 4856 
Q 1481 4119 1714 3412 
Q 1947 2706 1947 2009 
Q 1947 1309 1714 600 
Q 1481 -109 1013 -844 
L 513 -844 
Q 928 -128 1133 580 
Q 1338 1288 1338 2009 
Q 1338 2731 1133 3434 
Q 928 4138 513 4856 
z
" transform="scale(0.015625)"/>
      <path id="DejaVuSans-3b" d="M 750 3309 
L 1409 3309 
L 1409 2516 
L 750 2516 
L 750 3309 
z
M 750 794 
L 1409 794 
L 1409 256 
L 897 -744 
L 494 -744 
L 750 256 
L 750 794 
z
" transform="scale(0.015625)"/>
      <path id="DejaVuSans-42" d="M 1259 2228 
L 1259 519 
L 2272 519 
Q 2781 519 3026 730 
Q 3272 941 3272 1375 
Q 3272 1813 3026 2020 
Q 2781 2228 2272 2228 
L 1259 2228 
z
M 1259 4147 
L 1259 2741 
L 2194 2741 
Q 2656 2741 2882 2914 
Q 3109 3088 3109 3444 
Q 3109 3797 2882 3972 
Q 2656 4147 2194 4147 
L 1259 4147 
z
M 628 4666 
L 2241 4666 
Q 2963 4666 3353 4366 
Q 3744 4066 3744 3513 
Q 3744 3084 3544 2831 
Q 3344 2578 2956 2516 
Q 3422 2416 3680 2098 
Q 3938 1781 3938 1306 
Q 3938 681 3513 340 
Q 3088 0 2303 0 
L 628 0 
L 628 4666 
z
" transform="scale(0.015625)"/>
      <path id="DejaVuSans-79" d="M 2059 -325 
Q 1816 -950 1584 -1140 
Q 1353 -1331 966 -1331 
L 506 -1331 
L 506 -850 
L 844 -850 
Q 1081 -850 1212 -737 
Q 1344 -625 1503 -206 
L 1606 56 
L 191 3500 
L 800 3500 
L 1894 763 
L 2988 3500 
L 3597 3500 
L 2059 -325 
z
" transform="scale(0.015625)"/>
     </defs>
     <use xlink:href="#DejaVuSans-4f"/>
     <use xlink:href="#DejaVuSans-76" transform="translate(78.710938 0)"/>
     <use xlink:href="#DejaVuSans-65" transform="translate(137.890625 0)"/>
     <use xlink:href="#DejaVuSans-72" transform="translate(199.414062 0)"/>
     <use xlink:href="#DejaVuSans-61" transform="translate(240.527344 0)"/>
     <use xlink:href="#DejaVuSans-6c" transform="translate(301.806641 0)"/>
     <use xlink:href="#DejaVuSans-6c" transform="translate(329.589844 0)"/>
     <use xlink:href="#DejaVuSans-3a" transform="translate(357.373047 0)"/>
     <use xlink:href="#DejaVuSans-20" transform="translate(391.064453 0)"/>
     <use xlink:href="#DejaVuSans-47" transform="translate(422.851562 0)"/>
     <use xlink:href="#DejaVuSans-69" transform="translate(500.341797 0)"/>
     <use xlink:href="#DejaVuSans-72" transform="translate(528.125 0)"/>
     <use xlink:href="#DejaVuSans-6c" transform="translate(569.238281 0)"/>
     <use xlink:href="#DejaVuSans-73" transform="translate(597.021484 0)"/>
     <use xlink:href="#DejaVuSans-20" transform="translate(649.121094 0)"/>
     <use xlink:href="#DejaVuSans-32" transform="translate(680.908203 0)"/>
     <use xlink:href="#DejaVuSans-38" transform="translate(744.53125 0)"/>
     <use xlink:href="#DejaVuSans-2e" transform="translate(808.154297 0)"/>
     <use xlink:href="#DejaVuSans-36" transform="translate(839.941406 0)"/>
     <use xlink:href="#DejaVuSans-25" transform="translate(903.564453 0)"/>
     <use xlink:href="#DejaVuSans-20" transform="translate(998.583984 0)"/>
     <use xlink:href="#DejaVuSans-28" transform="translate(1030.371094 0)"/>
     <use xlink:href="#DejaVuSans-32" transform="translate(1069.384766 0)"/>
     <use xlink:href="#DejaVuSans-2c" transform="translate(1133.007812 0)"/>
     <use xlink:href="#DejaVuSans-31" transform="translate(1164.794922 0)"/>
     <use xlink:href="#DejaVuSans-38" transform="translate(1228.417969 0)"/>
     <use xlink:href="#DejaVuSans-37" transform="translate(1292.041016 0)"/>
     <use xlink:href="#DejaVuSans-2f" transform="translate(1355.664062 0)"/>
     <use xlink:href="#DejaVuSans-37" transform="translate(1389.355469 0)"/>
     <use xlink:href="#DejaVuSans-2c" transform="translate(1452.978516 0)"/>
     <use xlink:href="#DejaVuSans-36" transform="translate(1484.765625 0)"/>
     <use xlink:href="#DejaVuSans-34" transform="translate(1548.388672 0)"/>
     <use xlink:href="#DejaVuSans-37" transform="translate(1612.011719 0)"/>
     <use xlink:href="#DejaVuSans-29" transform="translate(1675.634766 0)"/>
     <use xlink:href="#DejaVuSans-3b" transform="translate(1714.648438 0)"/>
     <use xlink:href="#DejaVuSans-20" transform="translate(1748.339844 0)"/>
     <use xlink:href="#DejaVuSans-42" transform="translate(1780.126953 0)"/>
     <use xlink:href="#DejaVuSans-6f" transform="translate(1848.730469 0)"/>
     <use xlink:href="#DejaVuSans-79" transform="translate(1909.912109 0)"/>
     <use xlink:href="#DejaVuSans-73" transform="translate(1969.091797 0)"/>
     <use xlink:href="#DejaVuSans-20" transform="translate(2021.191406 0)"/>
     <use xlink:href="#DejaVuSans-32" transform="translate(2052.978516 0)"/>
     <use xlink:href="#DejaVuSans-33" transform="translate(2116.601562 0)"/>
     <use xlink:href="#DejaVuSans-2e" transform="translate(2180.224609 0)"/>
     <use xlink:href="#DejaVuSans-32" transform="translate(2212.011719 0)"/>
     <use xlink:href="#DejaVuSans-25" transform="translate(2275.634766 0)"/>
     <use xlink:href="#DejaVuSans-20" transform="translate(2370.654297 0)"/>
     <use xlink:href="#DejaVuSans-28" transform="translate(2402.441406 0)"/>
     <use xlink:href="#DejaVuSans-31" transform="translate(2441.455078 0)"/>
     <use xlink:href="#DejaVuSans-2c" transform="translate(2505.078125 0)"/>
     <use xlink:href="#DejaVuSans-37" transform="translate(2536.865234 0)"/>
     <use xlink:href="#DejaVuSans-31" transform="translate(2600.488281 0)"/>
     <use xlink:href="#DejaVuSans-38" transform="translate(2664.111328 0)"/>
     <use xlink:href="#DejaVuSans-2f" transform="translate(2727.734375 0)"/>
     <use xlink:href="#DejaVuSans-37" transform="translate(2761.425781 0)"/>
     <use xlink:href="#DejaVuSans-2c" transform="translate(2825.048828 0)"/>
     <use xlink:href="#DejaVuSans-34" transform="translate(2856.835938 0)"/>
     <use xlink:href="#DejaVuSans-31" transform="translate(2920.458984 0)"/>
     <use xlink:href="#DejaVuSans-31" transform="translate(2984.082031 0)"/>
     <use xlink:href="#DejaVuSans-29" transform="translate(3047.705078 0)"/>
    </g>
   </g>
   <g id="PathCollection_1">
    <defs>
     <path id="C0_0_56663400c2" d="M -2.12132 2.12132 
L 2.12132 2.12132 
L 2.12132 -2.12132 
L -2.12132 -2.12132 
z
"/>
    </defs>
    <g clip-path="url(#p4b0f456d8d)">
     <use xlink:href="#C0_0_56663400c2" x="82.838793" y="128.081247" style="fill: none; stroke: #000000; stroke-width: 1.2"/>
    </g>
    <g clip-path="url(#p4b0f456d8d)">
     <use xlink:href="#C0_0_56663400c2" x="125.043987" y="129.194556" style="fill: none; stroke: #000000; stroke-width: 1.2"/>
    </g>
    <g clip-path="url(#p4b0f456d8d)">
     <use xlink:href="#C0_0_56663400c2" x="167.249182" y="120.03234" style="fill: none; stroke: #000000; stroke-width: 1.2"/>
    </g>
    <g clip-path="url(#p4b0f456d8d)">
     <use xlink:href="#C0_0_56663400c2" x="209.454377" y="119.047858" style="fill: none; stroke: #000000; stroke-width: 1.2"/>
    </g>
    <g clip-path="url(#p4b0f456d8d)">
     <use xlink:href="#C0_0_56663400c2" x="251.659572" y="125.728423" style="fill: none; stroke: #000000; stroke-width: 1.2"/>
    </g>
    <g clip-path="url(#p4b0f456d8d)">
     <use xlink:href="#C0_0_56663400c2" x="293.864767" y="165.329407" style="fill: none; stroke: #000000; stroke-width: 1.2"/>
    </g>
    <g clip-path="url(#p4b0f456d8d)">
     <use xlink:href="#C0_0_56663400c2" x="336.069961" y="120.707743" style="fill: none; stroke: #000000; stroke-width: 1.2"/>
    </g>
    <g clip-path="url(#p4b0f456d8d)">
     <use xlink:href="#C0_0_56663400c2" x="378.275156" y="81.047997" style="fill: none; stroke: #000000; stroke-width: 1.2"/>
    </g>
    <g clip-path="url(#p4b0f456d8d)">
     <use xlink:href="#C0_0_56663400c2" x="420.480351" y="77.372404" style="fill: none; stroke: #000000; stroke-width: 1.2"/>
    </g>
    <g clip-path="url(#p4b0f456d8d)">
     <use xlink:href="#C0_0_56663400c2" x="462.685546" y="70.782286" style="fill: none; stroke: #000000; stroke-width: 1.2"/>
    </g>
    <g clip-path="url(#p4b0f456d8d)">
     <use xlink:href="#C0_0_56663400c2" x="504.890741" y="76.228479" style="fill: none; stroke: #000000; stroke-width: 1.2"/>
    </g>
    <g clip-path="url(#p4b0f456d8d)">
     <use xlink:href="#C0_0_56663400c2" x="547.095935" y="80.388588" style="fill: none; stroke: #000000; stroke-width: 1.2"/>
    </g>
    <g clip-path="url(#p4b0f456d8d)">
     <use xlink:href="#C0_0_56663400c2" x="589.30113" y="53.769235" style="fill: none; stroke: #000000; stroke-width: 1.2"/>
    </g>
    <g clip-path="url(#p4b0f456d8d)">
     <use xlink:href="#C0_0_56663400c2" x="631.506325" y="129.280671" style="fill: none; stroke: #000000; stroke-width: 1.2"/>
    </g>
    <g clip-path="url(#p4b0f456d8d)">
     <use xlink:href="#C0_0_56663400c2" x="673.71152" y="95.202196" style="fill: none; stroke: #000000; stroke-width: 1.2"/>
    </g>
   </g>
   <g id="PathCollection_2">
    <defs>
     <path id="mb0b9ccdf15" d="M 0 2.12132 
C 0.562581 2.12132 1.102195 1.897805 1.5 1.5 
C 1.897805 1.102195 2.12132 0.562581 2.12132 0 
C 2.12132 -0.562581 1.897805 -1.102195 1.5 -1.5 
C 1.102195 -1.897805 0.562581 -2.12132 0 -2.12132 
C -0.562581 -2.12132 -1.102195 -1.897805 -1.5 -1.5 
C -1.897805 -1.102195 -2.12132 -0.562581 -2.12132 0 
C -2.12132 0.562581 -1.897805 1.102195 -1.5 1.5 
C -1.102195 1.897805 -0.562581 2.12132 0 2.12132 
z
" style="stroke: #000000; stroke-width: 1.2"/>
    </defs>
    <g clip-path="url(#p4b0f456d8d)">
     <use xlink:href="#mb0b9ccdf15" x="82.838793" y="62.746506" style="stroke: #000000; stroke-width: 1.2"/>
     <use xlink:href="#mb0b9ccdf15" x="125.043987" y="84.82564" style="stroke: #000000; stroke-width: 1.2"/>
     <use xlink:href="#mb0b9ccdf15" x="167.249182" y="75.835194" style="stroke: #000000; stroke-width: 1.2"/>
     <use xlink:href="#mb0b9ccdf15" x="209.454377" y="59.365431" style="stroke: #000000; stroke-width: 1.2"/>
     <use xlink:href="#mb0b9ccdf15" x="251.659572" y="71.170272" style="stroke: #000000; stroke-width: 1.2"/>
     <use xlink:href="#mb0b9ccdf15" x="293.864767" y="106.364065" style="stroke: #000000; stroke-width: 1.2"/>
     <use xlink:href="#mb0b9ccdf15" x="336.069961" y="65.487513" style="stroke: #000000; stroke-width: 1.2"/>
     <use xlink:href="#mb0b9ccdf15" x="378.275156" y="80.772901" style="stroke: #000000; stroke-width: 1.2"/>
     <use xlink:href="#mb0b9ccdf15" x="420.480351" y="78.543119" style="stroke: #000000; stroke-width: 1.2"/>
     <use xlink:href="#mb0b9ccdf15" x="462.685546" y="39.873518" style="stroke: #000000; stroke-width: 1.2"/>
     <use xlink:href="#mb0b9ccdf15" x="504.890741" y="47.431108" style="stroke: #000000; stroke-width: 1.2"/>
     <use xlink:href="#mb0b9ccdf15" x="547.095935" y="14.729972" style="stroke: #000000; stroke-width: 1.2"/>
     <use xlink:href="#mb0b9ccdf15" x="589.30113" y="22.261925" style="stroke: #000000; stroke-width: 1.2"/>
     <use xlink:href="#mb0b9ccdf15" x="631.506325" y="28.414376" style="stroke: #000000; stroke-width: 1.2"/>
     <use xlink:href="#mb0b9ccdf15" x="673.71152" y="28.213075" style="stroke: #000000; stroke-width: 1.2"/>
    </g>
   </g>
   <g id="legend_1">
    <g id="line2d_12">
     <path d="M 62.295156 20.298437 
L 72.295156 20.298437 
L 82.295156 20.298437 
" style="fill: none; stroke-dasharray: 2.5,4.125; stroke-dashoffset: 0; stroke: #000000; stroke-width: 2.5"/>
    </g>
    <g id="text_19">
     <!-- Boys -->
     <g transform="translate(90.295156 23.798437) scale(0.1 -0.1)">
      <use xlink:href="#DejaVuSans-42"/>
      <use xlink:href="#DejaVuSans-6f" transform="translate(68.603516 0)"/>
      <use xlink:href="#DejaVuSans-79" transform="translate(129.785156 0)"/>
      <use xlink:href="#DejaVuSans-73" transform="translate(188.964844 0)"/>
     </g>
    </g>
    <g id="line2d_13">
     <path d="M 62.295156 34.976562 
L 72.295156 34.976562 
L 82.295156 34.976562 
" style="fill: none; stroke-dasharray: 16,4,2.5,4; stroke-dashoffset: 0; stroke: #000000; stroke-width: 2.5"/>
    </g>
    <g id="text_20">
     <!-- Girls -->
     <g transform="translate(90.295156 38.476562) scale(0.1 -0.1)">
      <use xlink:href="#DejaVuSans-47"/>
      <use xlink:href="#DejaVuSans-69" transform="translate(77.490234 0)"/>
      <use xlink:href="#DejaVuSans-72" transform="translate(105.273438 0)"/>
      <use xlink:href="#DejaVuSans-6c" transform="translate(146.386719 0)"/>
      <use xlink:href="#DejaVuSans-73" transform="translate(174.169922 0)"/>
     </g>
    </g>
   </g>
  </g>
 </g>
 <defs>
  <clipPath id="p4b0f456d8d">
   <rect x="53.295156" y="7.2" width="649.96" height="303.64"/>
  </clipPath>
 </defs>
</svg>
