<?xml version="1.0" encoding="utf-8" standalone="no"?>
<!DOCTYPE svg PUBLIC "-//W3C//DTD SVG 1.1//EN"
  "http://www.w3.org/Graphics/SVG/1.1/DTD/svg11.dtd">
<svg xmlns:xlink="http://www.w3.org/1999/xlink" width="313.620982pt" height="216.6575pt" viewBox="0 0 313.620982 216.6575" xmlns="http://www.w3.org/2000/svg" version="1.1">
 <metadata>
  <rdf:RDF xmlns:dc="http://purl.org/dc/elements/1.1/" xmlns:cc="http://creativecommons.org/ns#" xmlns:rdf="http://www.w3.org/1999/02/22-rdf-syntax-ns#">
   <cc:Work>
    <dc:type rdf:resource="http://purl.org/dc/dcmitype/StillImage"/>
    <dc:date>2026-04-28T10:25:37.590463</dc:date>
    <dc:format>image/svg+xml</dc:format>
    <dc:creator>
     <cc:Agent>
      <dc:title>Matplotlib v3.10.7, https://matplotlib.org/</dc:title>
     </cc:Agent>
    </dc:creator>
   </cc:Work>
  </rdf:RDF>
 </metadata>
 <defs>
  <style type="text/css">*{stroke-linejoin: round; stroke-linecap: butt}</style>
 </defs>
 <g id="figure_1">
  <g id="patch_1">
   <path d="M 0 216.6575 
L 313.620982 216.6575 
L 313.620982 -0 
L 0 -0 
z
" style="fill: #ffffff"/>
  </g>
  <g id="axes_1">
   <g id="patch_2">
    <path d="M 24.667188 196.73875 
L 300.497857 196.73875 
L 300.497857 19.5125 
L 24.667188 19.5125 
z
" style="fill: #ffffff"/>
   </g>
   <g id="matplotlib.axis_1">
    <g id="xtick_1">
     <g id="line2d_1">
      <defs>
       <path id="mfb01e1bdc7" d="M 0 0 
L 0 3.5 
" style="stroke: #000000; stroke-width: 0.8"/>
      </defs>
      <g>
       <use xlink:href="#mfb01e1bdc7" x="37.204945" y="196.73875" style="stroke: #000000; stroke-width: 0.8"/>
      </g>
     </g>
     <g id="text_1">
      <!-- 2004 -->
      <g transform="translate(31.28182 208.23875) scale(0.06 -0.06)">
       <defs>
        <path id="RobotoCondensed-Regular-32" d="M 2909 475 
L 2909 0 
L 366 0 
L 366 416 
L 1628 2088 
Q 1966 2541 2077 2802 
Q 2188 3063 2188 3328 
Q 2188 3663 2027 3900 
Q 1866 4138 1575 4138 
Q 1194 4138 1022 3878 
Q 850 3619 850 3213 
L 297 3213 
Q 297 3788 617 4200 
Q 938 4613 1575 4613 
Q 2125 4613 2433 4278 
Q 2741 3944 2741 3397 
Q 2741 2997 2541 2594 
Q 2341 2191 2047 1809 
L 1028 475 
L 2909 475 
z
" transform="scale(0.015625)"/>
        <path id="RobotoCondensed-Regular-30" d="M 2797 1944 
Q 2797 825 2467 381 
Q 2138 -63 1581 -63 
Q 1038 -63 703 370 
Q 369 803 359 1878 
L 359 2638 
Q 359 3753 695 4183 
Q 1031 4613 1578 4613 
Q 2131 4613 2461 4189 
Q 2791 3766 2797 2681 
L 2797 1944 
z
M 2247 2734 
Q 2247 3503 2073 3822 
Q 1900 4141 1578 4141 
Q 1266 4141 1092 3833 
Q 919 3525 913 2791 
L 913 1850 
Q 913 1088 1089 750 
Q 1266 413 1581 413 
Q 1903 413 2072 738 
Q 2241 1063 2247 1794 
L 2247 2734 
z
" transform="scale(0.015625)"/>
        <path id="RobotoCondensed-Regular-34" d="M 188 1397 
L 1878 4550 
L 2463 4550 
L 2463 1531 
L 2969 1531 
L 2969 1056 
L 2463 1056 
L 2463 0 
L 1909 0 
L 1909 1056 
L 188 1056 
L 188 1397 
z
M 803 1531 
L 1909 1531 
L 1909 3703 
L 1878 3638 
L 803 1531 
z
" transform="scale(0.015625)"/>
       </defs>
       <use xlink:href="#RobotoCondensed-Regular-32"/>
       <use xlink:href="#RobotoCondensed-Regular-30" transform="translate(49.365234 0)"/>
       <use xlink:href="#RobotoCondensed-Regular-30" transform="translate(98.730469 0)"/>
       <use xlink:href="#RobotoCondensed-Regular-34" transform="translate(148.095703 0)"/>
      </g>
     </g>
    </g>
    <g id="xtick_2">
     <g id="line2d_2">
      <g>
       <use xlink:href="#mfb01e1bdc7" x="74.818218" y="196.73875" style="stroke: #000000; stroke-width: 0.8"/>
      </g>
     </g>
     <g id="text_2">
      <!-- 2007 -->
      <g transform="translate(68.895093 208.23875) scale(0.06 -0.06)">
       <defs>
        <path id="RobotoCondensed-Regular-37" d="M 2878 4550 
L 2878 4225 
L 1313 0 
L 731 0 
L 2297 4075 
L 269 4075 
L 269 4550 
L 2878 4550 
z
" transform="scale(0.015625)"/>
       </defs>
       <use xlink:href="#RobotoCondensed-Regular-32"/>
       <use xlink:href="#RobotoCondensed-Regular-30" transform="translate(49.365234 0)"/>
       <use xlink:href="#RobotoCondensed-Regular-30" transform="translate(98.730469 0)"/>
       <use xlink:href="#RobotoCondensed-Regular-37" transform="translate(148.095703 0)"/>
      </g>
     </g>
    </g>
    <g id="xtick_3">
     <g id="line2d_3">
      <g>
       <use xlink:href="#mfb01e1bdc7" x="112.431491" y="196.73875" style="stroke: #000000; stroke-width: 0.8"/>
      </g>
     </g>
     <g id="text_3">
      <!-- 2010 -->
      <g transform="translate(106.508366 208.23875) scale(0.06 -0.06)">
       <defs>
        <path id="RobotoCondensed-Regular-31" d="M 2013 4575 
L 2013 0 
L 1459 0 
L 1459 3853 
L 503 3428 
L 503 3950 
L 1928 4575 
L 2013 4575 
z
" transform="scale(0.015625)"/>
       </defs>
       <use xlink:href="#RobotoCondensed-Regular-32"/>
       <use xlink:href="#RobotoCondensed-Regular-30" transform="translate(49.365234 0)"/>
       <use xlink:href="#RobotoCondensed-Regular-31" transform="translate(98.730469 0)"/>
       <use xlink:href="#RobotoCondensed-Regular-30" transform="translate(148.095703 0)"/>
      </g>
     </g>
    </g>
    <g id="xtick_4">
     <g id="line2d_4">
      <g>
       <use xlink:href="#mfb01e1bdc7" x="150.044764" y="196.73875" style="stroke: #000000; stroke-width: 0.8"/>
      </g>
     </g>
     <g id="text_4">
      <!-- 2013 -->
      <g transform="translate(144.121639 208.23875) scale(0.06 -0.06)">
       <defs>
        <path id="RobotoCondensed-Regular-33" d="M 1075 2084 
L 1075 2559 
L 1431 2559 
Q 1788 2559 1961 2781 
Q 2134 3003 2134 3338 
Q 2134 4138 1519 4138 
Q 1228 4138 1054 3927 
Q 881 3716 881 3359 
L 331 3359 
Q 331 3881 653 4247 
Q 975 4613 1519 4613 
Q 2038 4613 2363 4286 
Q 2688 3959 2688 3325 
Q 2688 3072 2550 2786 
Q 2413 2500 2100 2338 
Q 2484 2194 2612 1886 
Q 2741 1578 2741 1269 
Q 2741 631 2389 284 
Q 2038 -63 1516 -63 
Q 1006 -63 656 267 
Q 306 597 306 1203 
L 859 1203 
Q 859 844 1032 628 
Q 1206 413 1516 413 
Q 1822 413 2005 622 
Q 2188 831 2188 1256 
Q 2188 2084 1403 2084 
L 1075 2084 
z
" transform="scale(0.015625)"/>
       </defs>
       <use xlink:href="#RobotoCondensed-Regular-32"/>
       <use xlink:href="#RobotoCondensed-Regular-30" transform="translate(49.365234 0)"/>
       <use xlink:href="#RobotoCondensed-Regular-31" transform="translate(98.730469 0)"/>
       <use xlink:href="#RobotoCondensed-Regular-33" transform="translate(148.095703 0)"/>
      </g>
     </g>
    </g>
    <g id="xtick_5">
     <g id="line2d_5">
      <g>
       <use xlink:href="#mfb01e1bdc7" x="187.658038" y="196.73875" style="stroke: #000000; stroke-width: 0.8"/>
      </g>
     </g>
     <g id="text_5">
      <!-- 2016 -->
      <g transform="translate(181.734913 208.23875) scale(0.06 -0.06)">
       <defs>
        <path id="RobotoCondensed-Regular-36" d="M 2847 1484 
Q 2847 838 2544 387 
Q 2241 -63 1641 -63 
Q 1216 -63 944 198 
Q 672 459 542 861 
Q 413 1263 413 1684 
L 413 1956 
Q 413 2438 481 2900 
Q 550 3363 742 3738 
Q 934 4113 1296 4334 
Q 1659 4556 2291 4556 
L 2291 4066 
Q 1775 4066 1508 3859 
Q 1241 3653 1122 3318 
Q 1003 2984 978 2606 
Q 1272 2984 1750 2984 
Q 2138 2984 2380 2765 
Q 2622 2547 2734 2201 
Q 2847 1856 2847 1484 
z
M 969 1666 
Q 969 1059 1180 737 
Q 1391 416 1641 416 
Q 1959 416 2129 708 
Q 2300 1000 2300 1456 
Q 2300 1863 2144 2184 
Q 1988 2506 1659 2506 
Q 1425 2506 1236 2329 
Q 1047 2153 969 1900 
L 969 1666 
z
" transform="scale(0.015625)"/>
       </defs>
       <use xlink:href="#RobotoCondensed-Regular-32"/>
       <use xlink:href="#RobotoCondensed-Regular-30" transform="translate(49.365234 0)"/>
       <use xlink:href="#RobotoCondensed-Regular-31" transform="translate(98.730469 0)"/>
       <use xlink:href="#RobotoCondensed-Regular-36" transform="translate(148.095703 0)"/>
      </g>
     </g>
    </g>
    <g id="xtick_6">
     <g id="line2d_6">
      <g>
       <use xlink:href="#mfb01e1bdc7" x="225.271311" y="196.73875" style="stroke: #000000; stroke-width: 0.8"/>
      </g>
     </g>
     <g id="text_6">
      <!-- 2019 -->
      <g transform="translate(219.348186 208.23875) scale(0.06 -0.06)">
       <defs>
        <path id="RobotoCondensed-Regular-39" d="M 2744 2563 
Q 2744 2119 2687 1667 
Q 2631 1216 2450 836 
Q 2269 456 1903 225 
Q 1538 -6 869 -6 
L 866 484 
Q 1428 484 1698 690 
Q 1969 897 2072 1233 
Q 2175 1569 2191 1950 
Q 1859 1522 1413 1522 
Q 1025 1522 786 1747 
Q 547 1972 436 2320 
Q 325 2669 325 3041 
Q 325 3691 623 4152 
Q 922 4613 1522 4613 
Q 1969 4613 2237 4344 
Q 2506 4075 2625 3653 
Q 2744 3231 2744 2772 
L 2744 2563 
z
M 866 3072 
Q 866 2666 1020 2334 
Q 1175 2003 1506 2003 
Q 1716 2003 1906 2179 
Q 2097 2356 2194 2616 
L 2194 2850 
Q 2194 3472 1983 3803 
Q 1772 4134 1522 4134 
Q 1206 4134 1036 3829 
Q 866 3525 866 3072 
z
" transform="scale(0.015625)"/>
       </defs>
       <use xlink:href="#RobotoCondensed-Regular-32"/>
       <use xlink:href="#RobotoCondensed-Regular-30" transform="translate(49.365234 0)"/>
       <use xlink:href="#RobotoCondensed-Regular-31" transform="translate(98.730469 0)"/>
       <use xlink:href="#RobotoCondensed-Regular-39" transform="translate(148.095703 0)"/>
      </g>
     </g>
    </g>
    <g id="xtick_7">
     <g id="line2d_7">
      <g>
       <use xlink:href="#mfb01e1bdc7" x="262.884584" y="196.73875" style="stroke: #000000; stroke-width: 0.8"/>
      </g>
     </g>
     <g id="text_7">
      <!-- 2022 -->
      <g transform="translate(256.961459 208.23875) scale(0.06 -0.06)">
       <use xlink:href="#RobotoCondensed-Regular-32"/>
       <use xlink:href="#RobotoCondensed-Regular-30" transform="translate(49.365234 0)"/>
       <use xlink:href="#RobotoCondensed-Regular-32" transform="translate(98.730469 0)"/>
       <use xlink:href="#RobotoCondensed-Regular-32" transform="translate(148.095703 0)"/>
      </g>
     </g>
    </g>
    <g id="xtick_8">
     <g id="line2d_8">
      <g>
       <use xlink:href="#mfb01e1bdc7" x="300.497857" y="196.73875" style="stroke: #000000; stroke-width: 0.8"/>
      </g>
     </g>
     <g id="text_8">
      <!-- 2025 -->
      <g transform="translate(294.574732 208.23875) scale(0.06 -0.06)">
       <defs>
        <path id="RobotoCondensed-Regular-35" d="M 1034 2166 
L 594 2284 
L 788 4550 
L 2769 4550 
L 2769 4016 
L 1253 4016 
L 1147 2778 
Q 1438 2975 1753 2975 
Q 2288 2975 2591 2561 
Q 2894 2147 2894 1450 
Q 2894 797 2584 367 
Q 2275 -63 1656 -63 
Q 1194 -63 850 248 
Q 506 559 453 1197 
L 975 1197 
Q 1066 413 1656 413 
Q 1978 413 2159 691 
Q 2341 969 2341 1444 
Q 2341 1872 2153 2164 
Q 1966 2456 1619 2456 
Q 1384 2456 1273 2378 
Q 1163 2300 1034 2166 
z
" transform="scale(0.015625)"/>
       </defs>
       <use xlink:href="#RobotoCondensed-Regular-32"/>
       <use xlink:href="#RobotoCondensed-Regular-30" transform="translate(49.365234 0)"/>
       <use xlink:href="#RobotoCondensed-Regular-32" transform="translate(98.730469 0)"/>
       <use xlink:href="#RobotoCondensed-Regular-35" transform="translate(148.095703 0)"/>
      </g>
     </g>
    </g>
   </g>
   <g id="matplotlib.axis_2">
    <g id="ytick_1">
     <g id="line2d_9">
      <defs>
       <path id="m1c62921372" d="M 0 0 
L -3.5 0 
" style="stroke: #000000; stroke-width: 0.8"/>
      </defs>
      <g>
       <use xlink:href="#m1c62921372" x="24.667188" y="166.884465" style="stroke: #000000; stroke-width: 0.8"/>
      </g>
     </g>
     <g id="text_9">
      <!-- 0.84 -->
      <g transform="translate(7.2 169.134465) scale(0.06 -0.06)">
       <defs>
        <path id="RobotoCondensed-Regular-2e" d="M 450 306 
Q 450 453 542 554 
Q 634 656 809 656 
Q 984 656 1076 554 
Q 1169 453 1169 306 
Q 1169 163 1076 62 
Q 984 -38 809 -38 
Q 634 -38 542 62 
Q 450 163 450 306 
z
" transform="scale(0.015625)"/>
        <path id="RobotoCondensed-Regular-38" d="M 2794 1231 
Q 2794 606 2445 271 
Q 2097 -63 1578 -63 
Q 1063 -63 714 273 
Q 366 609 366 1231 
Q 366 1613 536 1905 
Q 706 2197 1000 2347 
Q 450 2666 450 3366 
Q 450 3963 769 4288 
Q 1088 4613 1581 4613 
Q 2075 4613 2392 4288 
Q 2709 3963 2709 3366 
Q 2709 3028 2557 2761 
Q 2406 2494 2150 2344 
Q 2444 2194 2619 1901 
Q 2794 1609 2794 1231 
z
M 2156 3356 
Q 2156 3697 2000 3917 
Q 1844 4138 1581 4138 
Q 1319 4138 1161 3927 
Q 1003 3716 1003 3356 
Q 1003 3003 1159 2790 
Q 1316 2578 1581 2578 
Q 1844 2578 2000 2790 
Q 2156 3003 2156 3356 
z
M 2244 1244 
Q 2244 1625 2061 1865 
Q 1878 2106 1575 2106 
Q 1266 2106 1091 1865 
Q 916 1625 916 1244 
Q 916 850 1089 631 
Q 1263 413 1578 413 
Q 1897 413 2070 631 
Q 2244 850 2244 1244 
z
" transform="scale(0.015625)"/>
       </defs>
       <use xlink:href="#RobotoCondensed-Regular-30"/>
       <use xlink:href="#RobotoCondensed-Regular-2e" transform="translate(49.365234 0)"/>
       <use xlink:href="#RobotoCondensed-Regular-38" transform="translate(75.732422 0)"/>
       <use xlink:href="#RobotoCondensed-Regular-34" transform="translate(125.097656 0)"/>
      </g>
     </g>
    </g>
    <g id="ytick_2">
     <g id="line2d_10">
      <g>
       <use xlink:href="#m1c62921372" x="24.667188" y="129.95556" style="stroke: #000000; stroke-width: 0.8"/>
      </g>
     </g>
     <g id="text_10">
      <!-- 0.85 -->
      <g transform="translate(7.2 132.20556) scale(0.06 -0.06)">
       <use xlink:href="#RobotoCondensed-Regular-30"/>
       <use xlink:href="#RobotoCondensed-Regular-2e" transform="translate(49.365234 0)"/>
       <use xlink:href="#RobotoCondensed-Regular-38" transform="translate(75.732422 0)"/>
       <use xlink:href="#RobotoCondensed-Regular-35" transform="translate(125.097656 0)"/>
      </g>
     </g>
    </g>
    <g id="ytick_3">
     <g id="line2d_11">
      <g>
       <use xlink:href="#m1c62921372" x="24.667188" y="93.026656" style="stroke: #000000; stroke-width: 0.8"/>
      </g>
     </g>
     <g id="text_11">
      <!-- 0.86 -->
      <g transform="translate(7.2 95.276656) scale(0.06 -0.06)">
       <use xlink:href="#RobotoCondensed-Regular-30"/>
       <use xlink:href="#RobotoCondensed-Regular-2e" transform="translate(49.365234 0)"/>
       <use xlink:href="#RobotoCondensed-Regular-38" transform="translate(75.732422 0)"/>
       <use xlink:href="#RobotoCondensed-Regular-36" transform="translate(125.097656 0)"/>
      </g>
     </g>
    </g>
    <g id="ytick_4">
     <g id="line2d_12">
      <g>
       <use xlink:href="#m1c62921372" x="24.667188" y="56.097751" style="stroke: #000000; stroke-width: 0.8"/>
      </g>
     </g>
     <g id="text_12">
      <!-- 0.87 -->
      <g transform="translate(7.2 58.347751) scale(0.06 -0.06)">
       <use xlink:href="#RobotoCondensed-Regular-30"/>
       <use xlink:href="#RobotoCondensed-Regular-2e" transform="translate(49.365234 0)"/>
       <use xlink:href="#RobotoCondensed-Regular-38" transform="translate(75.732422 0)"/>
       <use xlink:href="#RobotoCondensed-Regular-37" transform="translate(125.097656 0)"/>
      </g>
     </g>
    </g>
   </g>
   <g id="line2d_13">
    <path d="M 37.204945 94.895512 
L 42.236821 87.583515 
L 46.430051 81.877298 
L 52.300573 74.10637 
L 56.493803 67.970027 
L 58.171095 65.934319 
L 59.848387 64.412685 
L 60.687033 63.901884 
L 61.525679 63.588287 
L 62.364325 63.495002 
L 63.202971 63.659581 
L 64.041617 64.07779 
L 64.880263 64.721344 
L 65.718909 65.561955 
L 67.396201 67.721197 
L 69.073493 70.329216 
L 74.105369 78.582941 
L 75.782661 80.916589 
L 77.459953 83.62477 
L 82.491829 92.186721 
L 84.169121 94.370691 
L 85.007767 95.199379 
L 85.846413 95.811746 
L 86.685059 96.177197 
L 87.523705 96.244562 
L 88.362351 95.354695 
L 89.200997 93.335815 
L 90.039643 90.367843 
L 90.878289 86.630702 
L 92.555581 77.568603 
L 95.910165 58.130972 
L 96.748811 54.04748 
L 97.587457 50.634199 
L 98.426103 48.071053 
L 99.264749 46.537963 
L 100.103395 46.20903 
L 100.942041 47.047885 
L 101.780687 48.875106 
L 102.619333 51.53192 
L 103.457979 54.859553 
L 105.135271 62.892182 
L 108.489855 80.021224 
L 109.328501 83.598926 
L 110.167147 86.577257 
L 111.005793 88.797443 
L 111.844439 90.100711 
L 112.683085 90.324364 
L 113.521731 89.341727 
L 114.360377 87.279093 
L 115.199023 84.31136 
L 116.037669 80.613427 
L 117.714961 71.726552 
L 121.069545 52.885922 
L 121.908191 48.973739 
L 122.746837 45.730541 
L 123.585483 43.331227 
L 124.424129 41.950697 
L 125.262775 41.719756 
L 126.101421 42.216669 
L 126.940067 43.241057 
L 127.778713 44.727701 
L 128.617359 46.611384 
L 130.294651 51.308993 
L 132.810589 59.702743 
L 135.326527 68.148066 
L 137.003819 72.93736 
L 138.681111 76.718606 
L 141.197049 81.6743 
L 146.228925 91.06084 
L 147.906217 94.578325 
L 149.583509 98.53747 
L 150.422155 100.77661 
L 151.260801 103.536888 
L 152.938093 110.428383 
L 155.454031 122.601047 
L 157.969969 134.429136 
L 158.808615 137.799995 
L 159.647261 140.708054 
L 160.485907 143.047186 
L 161.324553 144.711261 
L 162.163199 145.594152 
L 163.001845 145.551589 
L 163.840491 144.345272 
L 164.679137 142.077997 
L 165.517783 138.901444 
L 166.356429 134.967292 
L 168.033721 125.432909 
L 172.226951 98.956524 
L 173.904243 90.495065 
L 174.742889 87.327288 
L 176.420181 82.689805 
L 178.936119 76.442741 
L 180.613411 72.71655 
L 182.290703 69.385828 
L 183.967995 66.488848 
L 185.645287 64.063883 
L 187.322579 62.149206 
L 188.999871 60.664975 
L 191.515809 58.786477 
L 194.031747 57.238479 
L 196.547685 55.937296 
L 200.740915 54.088524 
L 205.772791 52.046136 
L 208.288729 51.196137 
L 210.804667 50.559405 
L 213.320605 50.201386 
L 219.191127 49.695038 
L 224.223003 49.487766 
L 225.900295 49.542609 
L 226.738941 49.802269 
L 227.577587 50.236389 
L 229.254879 51.506119 
L 231.770817 53.957331 
L 234.286755 56.333122 
L 235.964047 57.468768 
L 236.802693 57.810706 
L 237.641339 57.961423 
L 238.479985 57.731533 
L 239.318631 56.834134 
L 240.157277 55.360036 
L 240.995923 53.41086 
L 242.673215 48.493756 
L 246.866445 35.000598 
L 247.705091 32.909152 
L 248.543737 31.257217 
L 249.382383 30.146414 
L 250.221029 29.678365 
L 251.898321 29.813659 
L 253.575613 30.27397 
L 255.252905 31.021637 
L 256.930197 32.026517 
L 258.607489 33.258466 
L 261.123427 35.466205 
L 262.800719 37.133949 
L 263.639365 38.400507 
L 264.478011 40.555288 
L 265.316657 43.458584 
L 266.993949 50.931925 
L 272.025825 76.267642 
L 272.864471 79.39613 
L 273.703117 81.826147 
L 274.541763 83.412993 
L 275.380409 84.01197 
L 276.219055 83.798428 
L 277.057701 83.110185 
L 277.896347 81.952003 
L 278.734993 80.327824 
L 279.573639 78.241586 
L 280.412285 75.69723 
L 281.250931 72.698694 
L 282.928223 65.354847 
L 284.605515 56.24156 
L 286.282807 45.390353 
L 287.960099 32.832744 
L 287.960099 32.832744 
" clip-path="url(#p1b0691b08e)" style="fill: none; stroke-dasharray: 2,3.3; stroke-dashoffset: 0; stroke: #000000; stroke-width: 2"/>
   </g>
   <g id="line2d_14">
    <path d="M 37.204945 88.650947 
L 49.742703 86.707122 
L 62.280461 84.763298 
L 74.818218 82.819473 
L 87.355976 80.875648 
L 99.893734 78.931824 
L 112.431491 76.987999 
L 124.969249 75.044174 
L 137.507007 73.100349 
L 150.044764 71.156525 
L 162.582522 69.2127 
L 175.12028 67.268875 
L 187.658038 65.325051 
L 200.195795 63.381226 
L 212.733553 61.437401 
L 225.271311 59.493576 
L 237.809068 57.549752 
L 250.346826 55.605927 
L 262.884584 53.662102 
L 275.422341 51.718278 
L 287.960099 49.774453 
" clip-path="url(#p1b0691b08e)" style="fill: none; stroke-dasharray: 3.7,1.6; stroke-dashoffset: 0; stroke: #000000; stroke-opacity: 0.7"/>
   </g>
   <g id="line2d_15">
    <path d="M 37.204945 118.381328 
L 39.720883 116.156082 
L 42.236821 114.278683 
L 43.914113 113.262661 
L 45.591405 112.464729 
L 47.268697 111.910286 
L 48.945989 111.624728 
L 50.623281 111.609566 
L 53.139219 111.863182 
L 55.655157 112.388427 
L 58.171095 113.154773 
L 60.687033 114.131693 
L 62.364325 114.88833 
L 63.202971 115.686218 
L 64.041617 117.086368 
L 64.880263 118.99018 
L 66.557555 123.914396 
L 71.589431 140.520621 
L 72.428077 142.520429 
L 73.266723 144.037908 
L 74.105369 144.974457 
L 74.944015 145.239793 
L 77.459953 145.10201 
L 79.975891 144.738105 
L 82.491829 144.182962 
L 85.846413 143.205585 
L 87.523705 142.632038 
L 88.362351 142.118301 
L 89.200997 141.325516 
L 90.039643 140.301266 
L 91.716935 137.748705 
L 95.910165 130.647492 
L 96.748811 129.484519 
L 97.587457 128.518331 
L 98.426103 127.79651 
L 99.264749 127.366641 
L 100.103395 127.282991 
L 100.942041 127.706962 
L 101.780687 128.630469 
L 102.619333 129.973265 
L 103.457979 131.655103 
L 105.135271 135.714922 
L 108.489855 144.372212 
L 109.328501 146.180439 
L 110.167147 147.685735 
L 111.005793 148.807853 
L 111.844439 149.466545 
L 112.683085 149.574878 
L 113.521731 148.998583 
L 114.360377 147.788893 
L 115.199023 146.048383 
L 116.037669 143.879626 
L 117.714961 138.667668 
L 121.069545 127.618052 
L 121.908191 125.323642 
L 122.746837 123.421578 
L 123.585483 122.014433 
L 124.424129 121.204782 
L 125.262775 121.070723 
L 126.101421 121.381122 
L 126.940067 122.022561 
L 127.778713 122.956071 
L 128.617359 124.142684 
L 130.294651 127.119348 
L 131.971943 130.640806 
L 136.165173 139.78209 
L 137.842465 142.769078 
L 142.035695 149.344406 
L 147.067571 157.227646 
L 149.583509 161.526605 
L 150.422155 163.07464 
L 152.099447 166.86205 
L 154.615385 173.662168 
L 157.131323 180.519563 
L 158.808615 184.408798 
L 159.647261 185.988017 
L 160.485907 187.252219 
L 161.324553 188.14784 
L 162.163199 188.621316 
L 163.001845 188.583613 
L 163.840491 187.822961 
L 164.679137 186.389926 
L 165.517783 184.376611 
L 166.356429 181.875121 
L 168.033721 175.776036 
L 173.065597 155.341473 
L 173.904243 152.591121 
L 174.742889 150.273642 
L 181.452057 135.416376 
L 183.129349 132.437033 
L 183.967995 131.198515 
L 184.806641 130.162172 
L 185.645287 129.354058 
L 186.483933 128.800227 
L 187.322579 128.526733 
L 188.161225 128.531213 
L 188.999871 128.70215 
L 190.677163 129.419139 
L 192.354455 130.485861 
L 196.547685 133.498167 
L 198.224977 134.367459 
L 199.063623 134.639931 
L 199.902269 134.774202 
L 200.740915 134.579433 
L 201.579561 133.524442 
L 202.418207 131.690904 
L 203.256853 129.212476 
L 204.934145 122.855574 
L 209.127375 105.03366 
L 209.966021 102.207727 
L 210.804667 99.939807 
L 211.643313 98.363557 
L 212.481959 97.612633 
L 213.320605 97.659747 
L 214.159251 98.082932 
L 214.997897 98.803852 
L 215.836543 99.77095 
L 217.513835 102.237458 
L 221.707065 109.102951 
L 222.545711 110.183471 
L 223.384357 111.046169 
L 224.223003 111.639488 
L 225.061649 111.911874 
L 225.900295 111.576692 
L 226.738941 110.121249 
L 227.577587 107.687919 
L 228.416233 104.447512 
L 230.093525 96.228708 
L 234.286755 73.514546 
L 235.125401 69.966681 
L 235.964047 67.149029 
L 236.802693 65.2324 
L 237.641339 64.387602 
L 238.479985 64.419315 
L 239.318631 64.637613 
L 240.995923 65.470349 
L 242.673215 66.666469 
L 246.866445 69.948774 
L 248.543737 70.859377 
L 249.382383 71.129588 
L 250.221029 71.243444 
L 251.059675 71.075992 
L 251.898321 70.479288 
L 252.736967 69.514364 
L 253.575613 68.245707 
L 255.252905 65.055146 
L 259.446135 56.277562 
L 260.284781 54.900602 
L 261.123427 53.800298 
L 261.962073 53.041138 
L 262.800719 52.687611 
L 266.155303 52.457915 
L 275.380409 52.048232 
L 276.219055 51.829057 
L 277.057701 51.32028 
L 277.896347 50.541862 
L 278.734993 49.514132 
L 279.573639 48.257417 
L 281.250931 45.138345 
L 282.928223 41.347268 
L 284.605515 37.046809 
L 287.960099 27.568239 
L 287.960099 27.568239 
" clip-path="url(#p1b0691b08e)" style="fill: none; stroke-dasharray: 12.8,3.2,2,3.2; stroke-dashoffset: 0; stroke: #000000; stroke-width: 2"/>
   </g>
   <g id="line2d_16">
    <path d="M 37.204945 156.685499 
L 49.742703 152.512225 
L 62.280461 148.338952 
L 74.818218 144.165679 
L 87.355976 139.992406 
L 99.893734 135.819133 
L 112.431491 131.645859 
L 124.969249 127.472586 
L 137.507007 123.299313 
L 150.044764 119.12604 
L 162.582522 114.952767 
L 175.12028 110.779493 
L 187.658038 106.60622 
L 200.195795 102.432947 
L 212.733553 98.259674 
L 225.271311 94.086401 
L 237.809068 89.913127 
L 250.346826 85.739854 
L 262.884584 81.566581 
L 275.422341 77.393308 
L 287.960099 73.220035 
" clip-path="url(#p1b0691b08e)" style="fill: none; stroke: #000000; stroke-opacity: 0.7; stroke-linecap: square"/>
   </g>
   <g id="text_13">
    <!-- Berger-Parker (50) -->
    <g transform="translate(132.183147 13.5125) scale(0.08 -0.08)">
     <defs>
      <path id="RobotoCondensed-Bold-42" d="M 3294 1341 
Q 3294 675 2942 339 
Q 2591 3 1884 0 
L 366 0 
L 366 4550 
L 1772 4550 
Q 2453 4550 2839 4245 
Q 3225 3941 3225 3303 
Q 3225 2994 3089 2734 
Q 2953 2475 2653 2344 
Q 3003 2244 3148 1956 
Q 3294 1669 3294 1341 
z
M 1288 3784 
L 1288 2647 
L 1763 2647 
Q 2303 2647 2303 3206 
Q 2303 3772 1794 3784 
L 1288 3784 
z
M 2375 1350 
Q 2375 1963 1941 1981 
L 1288 1981 
L 1288 763 
L 1872 763 
Q 2141 763 2258 930 
Q 2375 1097 2375 1350 
z
" transform="scale(0.015625)"/>
      <path id="RobotoCondensed-Bold-65" d="M 2834 444 
Q 2700 263 2411 100 
Q 2122 -63 1688 -63 
Q 997 -63 620 350 
Q 244 763 244 1497 
L 244 1775 
Q 244 2597 601 3020 
Q 959 3444 1596 3444 
Q 2234 3444 2556 3041 
Q 2878 2638 2884 1831 
L 2884 1397 
L 1131 1397 
Q 1147 994 1305 833 
Q 1463 672 1747 672 
Q 2194 672 2484 978 
L 2834 444 
z
M 1594 2709 
Q 1363 2709 1258 2545 
Q 1153 2381 1134 2016 
L 2019 2016 
L 2019 2094 
Q 2013 2400 1919 2554 
Q 1825 2709 1594 2709 
z
" transform="scale(0.015625)"/>
      <path id="RobotoCondensed-Bold-72" d="M 1700 2553 
Q 1331 2553 1206 2238 
L 1206 0 
L 322 0 
L 322 3381 
L 1156 3381 
L 1181 3016 
Q 1394 3444 1759 3444 
Q 1903 3444 2000 3406 
L 1991 2528 
Q 1834 2553 1700 2553 
z
" transform="scale(0.015625)"/>
      <path id="RobotoCondensed-Bold-67" d="M 1494 -1331 
Q 1259 -1331 945 -1232 
Q 631 -1134 453 -941 
L 750 -328 
Q 872 -450 1067 -536 
Q 1263 -622 1456 -622 
Q 1725 -622 1869 -489 
Q 2013 -356 2013 -3 
L 2013 269 
Q 1756 -63 1353 -63 
Q 819 -63 517 357 
Q 216 778 216 1572 
L 216 1794 
Q 216 2625 517 3034 
Q 819 3444 1359 3444 
Q 1819 3444 2066 3084 
L 2100 3381 
L 2900 3381 
L 2900 0 
Q 2900 -697 2512 -1014 
Q 2125 -1331 1494 -1331 
z
M 1100 1572 
Q 1100 678 1609 678 
Q 1881 678 2013 875 
L 2013 2494 
Q 1878 2706 1615 2706 
Q 1353 2706 1226 2490 
Q 1100 2275 1100 1794 
L 1100 1572 
z
" transform="scale(0.015625)"/>
      <path id="RobotoCondensed-Bold-2d" d="M 1913 2319 
L 1913 1584 
L 384 1584 
L 384 2319 
L 1913 2319 
z
" transform="scale(0.015625)"/>
      <path id="RobotoCondensed-Bold-50" d="M 1288 1600 
L 1288 0 
L 366 0 
L 366 4550 
L 1919 4550 
Q 2606 4550 3001 4123 
Q 3397 3697 3397 3044 
Q 3397 2384 3005 1993 
Q 2613 1603 1928 1600 
L 1288 1600 
z
M 1288 3784 
L 1288 2366 
L 1919 2366 
Q 2206 2366 2336 2555 
Q 2466 2744 2466 3037 
Q 2466 3331 2336 3557 
Q 2206 3784 1919 3784 
L 1288 3784 
z
" transform="scale(0.015625)"/>
      <path id="RobotoCondensed-Bold-61" d="M 1928 0 
Q 1881 106 1853 263 
Q 1613 -63 1209 -63 
Q 800 -63 514 212 
Q 228 488 228 947 
Q 228 1463 559 1764 
Q 891 2066 1572 2066 
L 1809 2066 
L 1809 2338 
Q 1809 2753 1503 2753 
Q 1172 2753 1172 2366 
L 288 2366 
Q 288 2809 623 3126 
Q 959 3444 1528 3444 
Q 2031 3444 2364 3181 
Q 2697 2919 2697 2325 
L 2697 738 
Q 2703 288 2819 53 
L 2819 0 
L 1928 0 
z
M 1409 634 
Q 1553 634 1656 693 
Q 1759 753 1809 834 
L 1809 1538 
L 1600 1538 
Q 1350 1538 1231 1384 
Q 1113 1231 1113 1009 
Q 1113 634 1409 634 
z
" transform="scale(0.015625)"/>
      <path id="RobotoCondensed-Bold-6b" d="M 2063 0 
L 1447 1309 
L 1206 1041 
L 1206 0 
L 322 0 
L 322 4803 
L 1206 4803 
L 1206 2209 
L 1316 2369 
L 1931 3381 
L 2984 3381 
L 2003 1991 
L 3075 0 
L 2063 0 
z
" transform="scale(0.015625)"/>
      <path id="RobotoCondensed-Bold-20" transform="scale(0.015625)"/>
      <path id="RobotoCondensed-Bold-28" d="M 378 1850 
Q 378 2731 592 3390 
Q 806 4050 1118 4472 
Q 1431 4894 1728 5050 
L 1894 4559 
Q 1619 4300 1372 3661 
Q 1125 3022 1119 1919 
L 1119 1772 
Q 1119 628 1367 -23 
Q 1616 -675 1894 -941 
L 1728 -1422 
Q 1431 -1266 1118 -845 
Q 806 -425 592 236 
Q 378 897 378 1850 
z
" transform="scale(0.015625)"/>
      <path id="RobotoCondensed-Bold-35" d="M 1091 2059 
L 388 2238 
L 616 4550 
L 2816 4550 
L 2816 3794 
L 1341 3794 
L 1256 2822 
Q 1500 2991 1784 2991 
Q 2350 2991 2654 2587 
Q 2959 2184 2959 1463 
Q 2959 856 2629 396 
Q 2300 -63 1625 -63 
Q 1122 -63 712 287 
Q 303 638 297 1269 
L 1172 1269 
Q 1216 672 1622 672 
Q 1872 672 1973 917 
Q 2075 1163 2075 1516 
Q 2075 1872 1945 2090 
Q 1816 2309 1538 2309 
Q 1347 2309 1250 2229 
Q 1153 2150 1091 2059 
z
" transform="scale(0.015625)"/>
      <path id="RobotoCondensed-Bold-30" d="M 2941 1881 
Q 2941 859 2572 398 
Q 2203 -63 1622 -63 
Q 1044 -63 673 392 
Q 303 847 297 1847 
L 297 2675 
Q 297 3700 665 4156 
Q 1034 4613 1619 4613 
Q 2194 4613 2562 4166 
Q 2931 3719 2941 2731 
L 2941 1881 
z
M 2056 2803 
Q 2056 3403 1937 3640 
Q 1819 3878 1619 3878 
Q 1422 3878 1303 3647 
Q 1184 3416 1181 2838 
L 1181 1763 
Q 1181 1156 1300 914 
Q 1419 672 1622 672 
Q 1822 672 1937 908 
Q 2053 1144 2056 1728 
L 2056 2803 
z
" transform="scale(0.015625)"/>
      <path id="RobotoCondensed-Bold-29" d="M 1741 1778 
Q 1741 931 1520 265 
Q 1300 -400 975 -833 
Q 650 -1266 341 -1422 
L 175 -941 
Q 447 -681 695 -37 
Q 944 606 950 1709 
L 950 1856 
Q 950 3000 695 3653 
Q 441 4306 175 4569 
L 341 5050 
Q 650 4894 975 4459 
Q 1300 4025 1520 3364 
Q 1741 2703 1741 1778 
z
" transform="scale(0.015625)"/>
     </defs>
     <use xlink:href="#RobotoCondensed-Bold-42"/>
     <use xlink:href="#RobotoCondensed-Bold-65" transform="translate(56.152344 0)"/>
     <use xlink:href="#RobotoCondensed-Bold-72" transform="translate(104.052734 0)"/>
     <use xlink:href="#RobotoCondensed-Bold-67" transform="translate(137.207031 0)"/>
     <use xlink:href="#RobotoCondensed-Bold-65" transform="translate(187.548828 0)"/>
     <use xlink:href="#RobotoCondensed-Bold-72" transform="translate(235.449219 0)"/>
     <use xlink:href="#RobotoCondensed-Bold-2d" transform="translate(268.603516 0)"/>
     <use xlink:href="#RobotoCondensed-Bold-50" transform="translate(304.931641 0)"/>
     <use xlink:href="#RobotoCondensed-Bold-61" transform="translate(361.816406 0)"/>
     <use xlink:href="#RobotoCondensed-Bold-72" transform="translate(408.935547 0)"/>
     <use xlink:href="#RobotoCondensed-Bold-6b" transform="translate(442.089844 0)"/>
     <use xlink:href="#RobotoCondensed-Bold-65" transform="translate(489.941406 0)"/>
     <use xlink:href="#RobotoCondensed-Bold-72" transform="translate(537.841797 0)"/>
     <use xlink:href="#RobotoCondensed-Bold-20" transform="translate(570.996094 0)"/>
     <use xlink:href="#RobotoCondensed-Bold-28" transform="translate(594.042969 0)"/>
     <use xlink:href="#RobotoCondensed-Bold-35" transform="translate(626.367188 0)"/>
     <use xlink:href="#RobotoCondensed-Bold-30" transform="translate(676.953125 0)"/>
     <use xlink:href="#RobotoCondensed-Bold-29" transform="translate(727.539062 0)"/>
    </g>
   </g>
   <g id="PathCollection_1">
    <defs>
     <path id="C0_0_ce035a632b" d="M -0 4.242641 
L 4.242641 -0 
L 0 -4.242641 
L -4.242641 -0 
z
"/>
    </defs>
    <g clip-path="url(#p1b0691b08e)">
     <use xlink:href="#C0_0_ce035a632b" x="37.204945" y="94.895512" style="fill: none; stroke: #000000"/>
    </g>
    <g clip-path="url(#p1b0691b08e)">
     <use xlink:href="#C0_0_ce035a632b" x="49.742703" y="77.64248" style="fill: none; stroke: #000000"/>
    </g>
    <g clip-path="url(#p1b0691b08e)">
     <use xlink:href="#C0_0_ce035a632b" x="62.280461" y="63.493583" style="fill: none; stroke: #000000"/>
    </g>
    <g clip-path="url(#p1b0691b08e)">
     <use xlink:href="#C0_0_ce035a632b" x="74.818218" y="79.561401" style="fill: none; stroke: #000000"/>
    </g>
    <g clip-path="url(#p1b0691b08e)">
     <use xlink:href="#C0_0_ce035a632b" x="87.355976" y="96.271221" style="fill: none; stroke: #000000"/>
    </g>
    <g clip-path="url(#p1b0691b08e)">
     <use xlink:href="#C0_0_ce035a632b" x="99.893734" y="46.172355" style="fill: none; stroke: #000000"/>
    </g>
    <g clip-path="url(#p1b0691b08e)">
     <use xlink:href="#C0_0_ce035a632b" x="112.431491" y="90.382409" style="fill: none; stroke: #000000"/>
    </g>
    <g clip-path="url(#p1b0691b08e)">
     <use xlink:href="#C0_0_ce035a632b" x="124.969249" y="41.682521" style="fill: none; stroke: #000000"/>
    </g>
    <g clip-path="url(#p1b0691b08e)">
     <use xlink:href="#C0_0_ce035a632b" x="137.507007" y="74.148007" style="fill: none; stroke: #000000"/>
    </g>
    <g clip-path="url(#p1b0691b08e)">
     <use xlink:href="#C0_0_ce035a632b" x="150.044764" y="99.723392" style="fill: none; stroke: #000000"/>
    </g>
    <g clip-path="url(#p1b0691b08e)">
     <use xlink:href="#C0_0_ce035a632b" x="162.582522" y="145.709488" style="fill: none; stroke: #000000"/>
    </g>
    <g clip-path="url(#p1b0691b08e)">
     <use xlink:href="#C0_0_ce035a632b" x="175.12028" y="86.189888" style="fill: none; stroke: #000000"/>
    </g>
    <g clip-path="url(#p1b0691b08e)">
     <use xlink:href="#C0_0_ce035a632b" x="187.658038" y="61.830874" style="fill: none; stroke: #000000"/>
    </g>
    <g clip-path="url(#p1b0691b08e)">
     <use xlink:href="#C0_0_ce035a632b" x="200.195795" y="54.318045" style="fill: none; stroke: #000000"/>
    </g>
    <g clip-path="url(#p1b0691b08e)">
     <use xlink:href="#C0_0_ce035a632b" x="212.733553" y="50.26211" style="fill: none; stroke: #000000"/>
    </g>
    <g clip-path="url(#p1b0691b08e)">
     <use xlink:href="#C0_0_ce035a632b" x="225.271311" y="49.480686" style="fill: none; stroke: #000000"/>
    </g>
    <g clip-path="url(#p1b0691b08e)">
     <use xlink:href="#C0_0_ce035a632b" x="237.809068" y="57.965938" style="fill: none; stroke: #000000"/>
    </g>
    <g clip-path="url(#p1b0691b08e)">
     <use xlink:href="#C0_0_ce035a632b" x="250.346826" y="29.669876" style="fill: none; stroke: #000000"/>
    </g>
    <g clip-path="url(#p1b0691b08e)">
     <use xlink:href="#C0_0_ce035a632b" x="262.884584" y="37.220778" style="fill: none; stroke: #000000"/>
    </g>
    <g clip-path="url(#p1b0691b08e)">
     <use xlink:href="#C0_0_ce035a632b" x="275.422341" y="84.013392" style="fill: none; stroke: #000000"/>
    </g>
    <g clip-path="url(#p1b0691b08e)">
     <use xlink:href="#C0_0_ce035a632b" x="287.960099" y="32.832744" style="fill: none; stroke: #000000"/>
    </g>
   </g>
   <g id="PathCollection_2">
    <defs>
     <path id="m50478eae47" d="M 0 3 
C 0.795609 3 1.55874 2.683901 2.12132 2.12132 
C 2.683901 1.55874 3 0.795609 3 0 
C 3 -0.795609 2.683901 -1.55874 2.12132 -2.12132 
C 1.55874 -2.683901 0.795609 -3 0 -3 
C -0.795609 -3 -1.55874 -2.683901 -2.12132 -2.12132 
C -2.683901 -1.55874 -3 -0.795609 -3 0 
C -3 0.795609 -2.683901 1.55874 -2.12132 2.12132 
C -1.55874 2.683901 -0.795609 3 0 3 
z
" style="stroke: #000000"/>
    </defs>
    <g clip-path="url(#p1b0691b08e)">
     <use xlink:href="#m50478eae47" x="37.204945" y="118.381328" style="stroke: #000000"/>
     <use xlink:href="#m50478eae47" x="49.742703" y="111.590622" style="stroke: #000000"/>
     <use xlink:href="#m50478eae47" x="62.280461" y="114.845461" style="stroke: #000000"/>
     <use xlink:href="#m50478eae47" x="74.818218" y="145.240121" style="stroke: #000000"/>
     <use xlink:href="#m50478eae47" x="87.355976" y="142.697112" style="stroke: #000000"/>
     <use xlink:href="#m50478eae47" x="99.893734" y="127.264455" style="stroke: #000000"/>
     <use xlink:href="#m50478eae47" x="112.431491" y="149.608919" style="stroke: #000000"/>
     <use xlink:href="#m50478eae47" x="124.969249" y="121.047503" style="stroke: #000000"/>
     <use xlink:href="#m50478eae47" x="137.507007" y="142.219349" style="stroke: #000000"/>
     <use xlink:href="#m50478eae47" x="150.044764" y="162.358359" style="stroke: #000000"/>
     <use xlink:href="#m50478eae47" x="162.582522" y="188.683011" style="stroke: #000000"/>
     <use xlink:href="#m50478eae47" x="175.12028" y="149.396541" style="stroke: #000000"/>
     <use xlink:href="#m50478eae47" x="187.658038" y="128.501666" style="stroke: #000000"/>
     <use xlink:href="#m50478eae47" x="200.195795" y="134.784371" style="stroke: #000000"/>
     <use xlink:href="#m50478eae47" x="212.733553" y="97.568276" style="stroke: #000000"/>
     <use xlink:href="#m50478eae47" x="225.271311" y="111.923783" style="stroke: #000000"/>
     <use xlink:href="#m50478eae47" x="237.809068" y="64.362294" style="stroke: #000000"/>
     <use xlink:href="#m50478eae47" x="250.346826" y="71.245509" style="stroke: #000000"/>
     <use xlink:href="#m50478eae47" x="262.884584" y="52.67705" style="stroke: #000000"/>
     <use xlink:href="#m50478eae47" x="275.422341" y="52.044125" style="stroke: #000000"/>
     <use xlink:href="#m50478eae47" x="287.960099" y="27.568239" style="stroke: #000000"/>
    </g>
   </g>
   <g id="legend_1">
    <g id="patch_3">
     <path d="M 27.667188 41.811875 
L 63.790938 41.811875 
L 63.790938 22.5125 
L 27.667188 22.5125 
z
" style="fill: #ffffff; opacity: 0.8"/>
    </g>
    <g id="line2d_17">
     <path d="M 30.067188 27.3125 
L 37.567188 27.3125 
L 45.067188 27.3125 
" style="fill: none; stroke-dasharray: 2,3.3; stroke-dashoffset: 0; stroke: #000000; stroke-width: 2"/>
     <defs>
      <path id="m66dc10e744" d="M -0 4.242641 
L 4.242641 0 
L 0 -4.242641 
L -4.242641 -0 
z
" style="stroke: #000000; stroke-linejoin: miter"/>
     </defs>
     <g>
      <use xlink:href="#m66dc10e744" x="37.567188" y="27.3125" style="fill-opacity: 0; stroke: #000000; stroke-linejoin: miter"/>
     </g>
    </g>
    <g id="text_14">
     <!-- Boys -->
     <g transform="translate(49.867188 29.4125) scale(0.06 -0.06)">
      <defs>
       <path id="RobotoCondensed-Regular-42" d="M 3125 1313 
Q 3125 675 2776 337 
Q 2428 0 1847 0 
L 491 0 
L 491 4550 
L 1791 4550 
Q 2375 4550 2706 4261 
Q 3038 3972 3038 3338 
Q 3038 3025 2880 2779 
Q 2722 2534 2453 2400 
Q 2781 2297 2953 1998 
Q 3125 1700 3125 1313 
z
M 1066 4056 
L 1066 2613 
L 1797 2613 
Q 2088 2613 2275 2806 
Q 2463 3000 2463 3344 
Q 2463 4041 1819 4056 
L 1066 4056 
z
M 2550 1306 
Q 2550 2106 1906 2128 
L 1066 2128 
L 1066 491 
L 1847 491 
Q 2181 491 2365 711 
Q 2550 931 2550 1306 
z
" transform="scale(0.015625)"/>
       <path id="RobotoCondensed-Regular-6f" d="M 300 1850 
Q 300 2641 678 3042 
Q 1056 3444 1603 3444 
Q 2156 3444 2536 3042 
Q 2916 2641 2916 1850 
L 2916 1528 
Q 2916 738 2536 337 
Q 2156 -63 1609 -63 
Q 1059 -63 679 337 
Q 300 738 300 1528 
L 300 1850 
z
M 853 1528 
Q 853 969 1068 689 
Q 1284 409 1609 409 
Q 2341 409 2363 1466 
L 2363 1850 
Q 2363 2403 2145 2686 
Q 1928 2969 1603 2969 
Q 1281 2969 1067 2686 
Q 853 2403 853 1850 
L 853 1528 
z
" transform="scale(0.015625)"/>
       <path id="RobotoCondensed-Regular-79" d="M 1425 -522 
Q 1153 -1366 563 -1366 
Q 409 -1366 278 -1316 
L 278 -847 
Q 328 -859 397 -859 
Q 631 -859 770 -746 
Q 909 -634 997 -338 
L 1106 31 
L 109 3381 
L 713 3381 
L 1341 922 
L 1953 3381 
L 2541 3381 
L 1425 -522 
z
" transform="scale(0.015625)"/>
       <path id="RobotoCondensed-Regular-73" d="M 2056 866 
Q 2056 1059 1907 1190 
Q 1759 1322 1340 1500 
Q 922 1678 681 1863 
Q 409 2072 409 2484 
Q 409 2888 703 3166 
Q 997 3444 1481 3444 
Q 2000 3444 2287 3150 
Q 2575 2856 2575 2419 
L 2025 2419 
Q 2025 2628 1884 2798 
Q 1744 2969 1481 2969 
Q 1203 2969 1083 2828 
Q 963 2688 963 2503 
Q 963 2319 1081 2217 
Q 1200 2116 1553 1959 
Q 2066 1756 2337 1537 
Q 2609 1319 2609 909 
Q 2609 463 2303 200 
Q 1997 -63 1494 -63 
Q 919 -63 616 265 
Q 313 594 313 1013 
L 866 1013 
Q 881 653 1081 533 
Q 1281 413 1494 413 
Q 2056 413 2056 866 
z
" transform="scale(0.015625)"/>
      </defs>
      <use xlink:href="#RobotoCondensed-Regular-42"/>
      <use xlink:href="#RobotoCondensed-Regular-6f" transform="translate(54.589844 0)"/>
      <use xlink:href="#RobotoCondensed-Regular-79" transform="translate(104.785156 0)"/>
      <use xlink:href="#RobotoCondensed-Regular-73" transform="translate(146.435547 0)"/>
     </g>
    </g>
    <g id="line2d_18">
     <path d="M 30.067188 36.093125 
L 37.567188 36.093125 
L 45.067188 36.093125 
" style="fill: none; stroke-dasharray: 12.8,3.2,2,3.2; stroke-dashoffset: 0; stroke: #000000; stroke-width: 2"/>
     <g>
      <use xlink:href="#m50478eae47" x="37.567188" y="36.093125" style="stroke: #000000"/>
     </g>
    </g>
    <g id="text_15">
     <!-- Girls -->
     <g transform="translate(49.867188 38.193125) scale(0.06 -0.06)">
      <defs>
       <path id="RobotoCondensed-Regular-47" d="M 3341 2266 
L 3341 569 
Q 3266 469 3114 319 
Q 2963 169 2691 53 
Q 2419 -63 1978 -63 
Q 1272 -63 830 412 
Q 388 888 388 1850 
L 388 2703 
Q 388 3656 770 4134 
Q 1153 4613 1919 4613 
Q 2581 4613 2943 4244 
Q 3306 3875 3341 3219 
L 2766 3219 
Q 2731 3641 2529 3880 
Q 2328 4119 1919 4119 
Q 1400 4119 1183 3773 
Q 966 3428 963 2731 
L 963 1850 
Q 963 1125 1239 776 
Q 1516 428 1981 428 
Q 2378 428 2537 547 
Q 2697 666 2769 728 
L 2769 1778 
L 1934 1778 
L 1934 2266 
L 3341 2266 
z
" transform="scale(0.015625)"/>
       <path id="RobotoCondensed-Regular-69" d="M 428 4278 
Q 428 4419 506 4516 
Q 584 4613 741 4613 
Q 894 4613 975 4516 
Q 1056 4419 1056 4278 
Q 1056 4144 975 4048 
Q 894 3953 741 3953 
Q 584 3953 506 4048 
Q 428 4144 428 4278 
z
M 1009 3381 
L 1009 0 
L 459 0 
L 459 3381 
L 1009 3381 
z
" transform="scale(0.015625)"/>
       <path id="RobotoCondensed-Regular-72" d="M 1563 2888 
Q 1138 2888 969 2425 
L 969 0 
L 416 0 
L 416 3381 
L 950 3381 
L 963 3041 
Q 1184 3444 1591 3444 
Q 1738 3444 1809 3400 
L 1813 2863 
Q 1691 2888 1563 2888 
z
" transform="scale(0.015625)"/>
       <path id="RobotoCondensed-Regular-6c" d="M 1009 4800 
L 1009 0 
L 459 0 
L 459 4800 
L 1009 4800 
z
" transform="scale(0.015625)"/>
      </defs>
      <use xlink:href="#RobotoCondensed-Regular-47"/>
      <use xlink:href="#RobotoCondensed-Regular-69" transform="translate(59.082031 0)"/>
      <use xlink:href="#RobotoCondensed-Regular-72" transform="translate(82.03125 0)"/>
      <use xlink:href="#RobotoCondensed-Regular-6c" transform="translate(112.5 0)"/>
      <use xlink:href="#RobotoCondensed-Regular-73" transform="translate(135.449219 0)"/>
     </g>
    </g>
   </g>
  </g>
 </g>
 <defs>
  <clipPath id="p1b0691b08e">
   <rect x="24.667188" y="19.5125" width="275.830669" height="177.22625"/>
  </clipPath>
 </defs>
</svg>
