<?xml version="1.0" encoding="utf-8" standalone="no"?>
<!DOCTYPE svg PUBLIC "-//W3C//DTD SVG 1.1//EN"
  "http://www.w3.org/Graphics/SVG/1.1/DTD/svg11.dtd">
<svg xmlns:xlink="http://www.w3.org/1999/xlink" width="711.832656pt" height="350.87pt" viewBox="0 0 711.832656 350.87" xmlns="http://www.w3.org/2000/svg" version="1.1">
 <metadata>
  <rdf:RDF xmlns:dc="http://purl.org/dc/elements/1.1/" xmlns:cc="http://creativecommons.org/ns#" xmlns:rdf="http://www.w3.org/1999/02/22-rdf-syntax-ns#">
   <cc:Work>
    <dc:type rdf:resource="http://purl.org/dc/dcmitype/StillImage"/>
    <dc:date>2026-04-25T12:36:59.844895</dc:date>
    <dc:format>image/svg+xml</dc:format>
    <dc:creator>
     <cc:Agent>
      <dc:title>Matplotlib v3.10.7, https://matplotlib.org/</dc:title>
     </cc:Agent>
    </dc:creator>
   </cc:Work>
  </rdf:RDF>
 </metadata>
 <defs>
  <style type="text/css">*{stroke-linejoin: round; stroke-linecap: butt}</style>
 </defs>
 <g id="figure_1">
  <g id="patch_1">
   <path d="M 0 350.87 
L 711.832656 350.87 
L 711.832656 0 
L 0 0 
z
" style="fill: #ffffff"/>
  </g>
  <g id="axes_1">
   <g id="patch_2">
    <path d="M 56.952656 310.12 
L 692.422656 310.12 
L 692.422656 7.2 
L 56.952656 7.2 
z
" style="fill: #ffffff"/>
   </g>
   <g id="matplotlib.axis_1">
    <g id="xtick_1">
     <g id="text_1">
      <!-- 2005 -->
      <g transform="translate(102.512656 325.875312) scale(0.11 -0.11)">
       <defs>
        <path id="NotoSansCJKjp-Regular-32" d="M 282 0 
L 3232 0 
L 3232 506 
L 1933 506 
C 1696 506 1408 480 1165 461 
C 2266 1504 3002 2458 3002 3392 
C 3002 4230 2477 4781 1638 4781 
C 1043 4781 640 4506 256 4090 
L 595 3757 
C 851 4064 1184 4301 1568 4301 
C 2150 4301 2432 3910 2432 3373 
C 2432 2566 1754 1632 282 346 
L 282 0 
z
" transform="scale(0.015625)"/>
        <path id="NotoSansCJKjp-Regular-30" d="M 1779 -83 
C 2669 -83 3238 730 3238 2362 
C 3238 3987 2669 4781 1779 4781 
C 883 4781 314 3994 314 2362 
C 314 730 883 -83 1779 -83 
z
M 1779 384 
C 1242 384 883 979 883 2362 
C 883 3731 1242 4314 1779 4314 
C 2310 4314 2669 3731 2669 2362 
C 2669 979 2310 384 1779 384 
z
" transform="scale(0.015625)"/>
        <path id="NotoSansCJKjp-Regular-35" d="M 1670 -83 
C 2464 -83 3206 499 3206 1530 
C 3206 2560 2573 3021 1792 3021 
C 1510 3021 1306 2950 1094 2835 
L 1210 4192 
L 2982 4192 
L 2982 4698 
L 698 4698 
L 550 2496 
L 864 2304 
C 1133 2483 1331 2579 1645 2579 
C 2234 2579 2618 2182 2618 1510 
C 2618 826 2170 403 1619 403 
C 1075 403 736 653 467 922 
L 179 538 
C 493 224 941 -83 1670 -83 
z
" transform="scale(0.015625)"/>
       </defs>
       <use xlink:href="#NotoSansCJKjp-Regular-32"/>
       <use xlink:href="#NotoSansCJKjp-Regular-30" transform="translate(55.499985 0)"/>
       <use xlink:href="#NotoSansCJKjp-Regular-30" transform="translate(110.999969 0)"/>
       <use xlink:href="#NotoSansCJKjp-Regular-35" transform="translate(166.499954 0)"/>
      </g>
     </g>
    </g>
    <g id="xtick_2">
     <g id="text_2">
      <!-- 2007 -->
      <g transform="translate(174.725156 325.875312) scale(0.11 -0.11)">
       <defs>
        <path id="NotoSansCJKjp-Regular-37" d="M 1267 0 
L 1875 0 
C 1946 1837 2150 2931 3251 4339 
L 3251 4698 
L 314 4698 
L 314 4192 
L 2586 4192 
C 1670 2912 1344 1779 1267 0 
z
" transform="scale(0.015625)"/>
       </defs>
       <use xlink:href="#NotoSansCJKjp-Regular-32"/>
       <use xlink:href="#NotoSansCJKjp-Regular-30" transform="translate(55.499985 0)"/>
       <use xlink:href="#NotoSansCJKjp-Regular-30" transform="translate(110.999969 0)"/>
       <use xlink:href="#NotoSansCJKjp-Regular-37" transform="translate(166.499954 0)"/>
      </g>
     </g>
    </g>
    <g id="xtick_3">
     <g id="text_3">
      <!-- 2010 -->
      <g transform="translate(246.937656 325.875312) scale(0.11 -0.11)">
       <defs>
        <path id="NotoSansCJKjp-Regular-31" d="M 563 0 
L 3136 0 
L 3136 486 
L 2195 486 
L 2195 4698 
L 1747 4698 
C 1491 4544 1190 4435 774 4358 
L 774 3987 
L 1606 3987 
L 1606 486 
L 563 486 
L 563 0 
z
" transform="scale(0.015625)"/>
       </defs>
       <use xlink:href="#NotoSansCJKjp-Regular-32"/>
       <use xlink:href="#NotoSansCJKjp-Regular-30" transform="translate(55.499985 0)"/>
       <use xlink:href="#NotoSansCJKjp-Regular-31" transform="translate(110.999969 0)"/>
       <use xlink:href="#NotoSansCJKjp-Regular-30" transform="translate(166.499954 0)"/>
      </g>
     </g>
    </g>
    <g id="xtick_4">
     <g id="text_4">
      <!-- 2012 -->
      <g transform="translate(319.150156 325.875312) scale(0.11 -0.11)">
       <use xlink:href="#NotoSansCJKjp-Regular-32"/>
       <use xlink:href="#NotoSansCJKjp-Regular-30" transform="translate(55.499985 0)"/>
       <use xlink:href="#NotoSansCJKjp-Regular-31" transform="translate(110.999969 0)"/>
       <use xlink:href="#NotoSansCJKjp-Regular-32" transform="translate(166.499954 0)"/>
      </g>
     </g>
    </g>
    <g id="xtick_5">
     <g id="text_5">
      <!-- 2015 -->
      <g transform="translate(391.362656 325.875312) scale(0.11 -0.11)">
       <use xlink:href="#NotoSansCJKjp-Regular-32"/>
       <use xlink:href="#NotoSansCJKjp-Regular-30" transform="translate(55.499985 0)"/>
       <use xlink:href="#NotoSansCJKjp-Regular-31" transform="translate(110.999969 0)"/>
       <use xlink:href="#NotoSansCJKjp-Regular-35" transform="translate(166.499954 0)"/>
      </g>
     </g>
    </g>
    <g id="xtick_6">
     <g id="text_6">
      <!-- 2017 -->
      <g transform="translate(463.575156 325.875312) scale(0.11 -0.11)">
       <use xlink:href="#NotoSansCJKjp-Regular-32"/>
       <use xlink:href="#NotoSansCJKjp-Regular-30" transform="translate(55.499985 0)"/>
       <use xlink:href="#NotoSansCJKjp-Regular-31" transform="translate(110.999969 0)"/>
       <use xlink:href="#NotoSansCJKjp-Regular-37" transform="translate(166.499954 0)"/>
      </g>
     </g>
    </g>
    <g id="xtick_7">
     <g id="text_7">
      <!-- 2020 -->
      <g transform="translate(535.787656 325.875312) scale(0.11 -0.11)">
       <use xlink:href="#NotoSansCJKjp-Regular-32"/>
       <use xlink:href="#NotoSansCJKjp-Regular-30" transform="translate(55.499985 0)"/>
       <use xlink:href="#NotoSansCJKjp-Regular-32" transform="translate(110.999969 0)"/>
       <use xlink:href="#NotoSansCJKjp-Regular-30" transform="translate(166.499954 0)"/>
      </g>
     </g>
    </g>
    <g id="xtick_8">
     <g id="text_8">
      <!-- 2022 -->
      <g transform="translate(608.000156 325.875312) scale(0.11 -0.11)">
       <use xlink:href="#NotoSansCJKjp-Regular-32"/>
       <use xlink:href="#NotoSansCJKjp-Regular-30" transform="translate(55.499985 0)"/>
       <use xlink:href="#NotoSansCJKjp-Regular-32" transform="translate(110.999969 0)"/>
       <use xlink:href="#NotoSansCJKjp-Regular-32" transform="translate(166.499954 0)"/>
      </g>
     </g>
    </g>
    <g id="xtick_9">
     <g id="text_9">
      <!-- 2025 -->
      <g transform="translate(680.212656 325.875312) scale(0.11 -0.11)">
       <use xlink:href="#NotoSansCJKjp-Regular-32"/>
       <use xlink:href="#NotoSansCJKjp-Regular-30" transform="translate(55.499985 0)"/>
       <use xlink:href="#NotoSansCJKjp-Regular-32" transform="translate(110.999969 0)"/>
       <use xlink:href="#NotoSansCJKjp-Regular-35" transform="translate(166.499954 0)"/>
      </g>
     </g>
    </g>
    <g id="text_10">
     <!-- Year -->
     <g transform="translate(363.483984 341.150312) scale(0.11 -0.11)">
      <defs>
       <path id="NotoSansCJKjp-Regular-59" d="M 1402 0 
L 1997 0 
L 1997 1824 
L 3405 4698 
L 2790 4698 
L 2182 3366 
C 2042 3021 1882 2694 1715 2342 
L 1690 2342 
C 1523 2694 1382 3021 1229 3366 
L 627 4698 
L -6 4698 
L 1402 1824 
L 1402 0 
z
" transform="scale(0.015625)"/>
       <path id="NotoSansCJKjp-Regular-65" d="M 1990 -83 
C 2464 -83 2835 77 3142 275 
L 2931 659 
C 2675 486 2400 384 2061 384 
C 1402 384 947 858 909 1600 
L 3251 1600 
C 3264 1683 3277 1805 3277 1933 
C 3277 2925 2778 3565 1894 3565 
C 1088 3565 326 2861 326 1734 
C 326 589 1069 -83 1990 -83 
z
M 902 2022 
C 973 2701 1408 3098 1901 3098 
C 2445 3098 2765 2720 2765 2022 
L 902 2022 
z
" transform="scale(0.015625)"/>
       <path id="NotoSansCJKjp-Regular-61" d="M 1389 -83 
C 1818 -83 2208 141 2541 416 
L 2560 416 
L 2611 0 
L 3091 0 
L 3091 2138 
C 3091 2995 2733 3565 1888 3565 
C 1331 3565 838 3315 518 3110 
L 749 2707 
C 1024 2893 1389 3078 1792 3078 
C 2362 3078 2509 2650 2509 2202 
C 1030 2035 371 1658 371 902 
C 371 275 806 -83 1389 -83 
z
M 1555 384 
C 1210 384 941 544 941 941 
C 941 1389 1338 1677 2509 1818 
L 2509 845 
C 2170 544 1894 384 1555 384 
z
" transform="scale(0.015625)"/>
       <path id="NotoSansCJKjp-Regular-72" d="M 589 0 
L 1171 0 
L 1171 2234 
C 1402 2829 1760 3034 2048 3034 
C 2189 3034 2272 3021 2387 2976 
L 2496 3488 
C 2387 3546 2278 3565 2125 3565 
C 1734 3565 1382 3283 1139 2842 
L 1120 2842 
L 1069 3475 
L 589 3475 
L 589 0 
z
" transform="scale(0.015625)"/>
      </defs>
      <use xlink:href="#NotoSansCJKjp-Regular-59"/>
      <use xlink:href="#NotoSansCJKjp-Regular-65" transform="translate(53.099991 0)"/>
      <use xlink:href="#NotoSansCJKjp-Regular-61" transform="translate(108.499985 0)"/>
      <use xlink:href="#NotoSansCJKjp-Regular-72" transform="translate(164.899979 0)"/>
     </g>
    </g>
   </g>
   <g id="matplotlib.axis_2">
    <g id="ytick_1">
     <g id="line2d_1">
      <path d="M 56.952656 281.847181 
L 692.422656 281.847181 
" clip-path="url(#pd527018d0d)" style="fill: none; stroke: #808080; stroke-opacity: 0.3; stroke-width: 0.4; stroke-linecap: round"/>
     </g>
     <g id="text_11">
      <!-- 0.075 -->
      <g transform="translate(22.475 286.224837) scale(0.11 -0.11)">
       <defs>
        <path id="NotoSansCJKjp-Regular-2e" d="M 890 -83 
C 1120 -83 1312 96 1312 358 
C 1312 627 1120 813 890 813 
C 659 813 467 627 467 358 
C 467 96 659 -83 890 -83 
z
" transform="scale(0.015625)"/>
       </defs>
       <use xlink:href="#NotoSansCJKjp-Regular-30"/>
       <use xlink:href="#NotoSansCJKjp-Regular-2e" transform="translate(55.499985 0)"/>
       <use xlink:href="#NotoSansCJKjp-Regular-30" transform="translate(83.299973 0)"/>
       <use xlink:href="#NotoSansCJKjp-Regular-37" transform="translate(138.799957 0)"/>
       <use xlink:href="#NotoSansCJKjp-Regular-35" transform="translate(194.299942 0)"/>
      </g>
     </g>
    </g>
    <g id="ytick_2">
     <g id="line2d_2">
      <path d="M 56.952656 239.800616 
L 692.422656 239.800616 
" clip-path="url(#pd527018d0d)" style="fill: none; stroke: #808080; stroke-opacity: 0.3; stroke-width: 0.4; stroke-linecap: round"/>
     </g>
     <g id="text_12">
      <!-- 0.100 -->
      <g transform="translate(22.475 244.178272) scale(0.11 -0.11)">
       <use xlink:href="#NotoSansCJKjp-Regular-30"/>
       <use xlink:href="#NotoSansCJKjp-Regular-2e" transform="translate(55.499985 0)"/>
       <use xlink:href="#NotoSansCJKjp-Regular-31" transform="translate(83.299973 0)"/>
       <use xlink:href="#NotoSansCJKjp-Regular-30" transform="translate(138.799957 0)"/>
       <use xlink:href="#NotoSansCJKjp-Regular-30" transform="translate(194.299942 0)"/>
      </g>
     </g>
    </g>
    <g id="ytick_3">
     <g id="line2d_3">
      <path d="M 56.952656 197.754051 
L 692.422656 197.754051 
" clip-path="url(#pd527018d0d)" style="fill: none; stroke: #808080; stroke-opacity: 0.3; stroke-width: 0.4; stroke-linecap: round"/>
     </g>
     <g id="text_13">
      <!-- 0.125 -->
      <g transform="translate(22.475 202.131707) scale(0.11 -0.11)">
       <use xlink:href="#NotoSansCJKjp-Regular-30"/>
       <use xlink:href="#NotoSansCJKjp-Regular-2e" transform="translate(55.499985 0)"/>
       <use xlink:href="#NotoSansCJKjp-Regular-31" transform="translate(83.299973 0)"/>
       <use xlink:href="#NotoSansCJKjp-Regular-32" transform="translate(138.799957 0)"/>
       <use xlink:href="#NotoSansCJKjp-Regular-35" transform="translate(194.299942 0)"/>
      </g>
     </g>
    </g>
    <g id="ytick_4">
     <g id="line2d_4">
      <path d="M 56.952656 155.707486 
L 692.422656 155.707486 
" clip-path="url(#pd527018d0d)" style="fill: none; stroke: #808080; stroke-opacity: 0.3; stroke-width: 0.4; stroke-linecap: round"/>
     </g>
     <g id="text_14">
      <!-- 0.150 -->
      <g transform="translate(22.475 160.085142) scale(0.11 -0.11)">
       <use xlink:href="#NotoSansCJKjp-Regular-30"/>
       <use xlink:href="#NotoSansCJKjp-Regular-2e" transform="translate(55.499985 0)"/>
       <use xlink:href="#NotoSansCJKjp-Regular-31" transform="translate(83.299973 0)"/>
       <use xlink:href="#NotoSansCJKjp-Regular-35" transform="translate(138.799957 0)"/>
       <use xlink:href="#NotoSansCJKjp-Regular-30" transform="translate(194.299942 0)"/>
      </g>
     </g>
    </g>
    <g id="ytick_5">
     <g id="line2d_5">
      <path d="M 56.952656 113.660921 
L 692.422656 113.660921 
" clip-path="url(#pd527018d0d)" style="fill: none; stroke: #808080; stroke-opacity: 0.3; stroke-width: 0.4; stroke-linecap: round"/>
     </g>
     <g id="text_15">
      <!-- 0.175 -->
      <g transform="translate(22.475 118.038577) scale(0.11 -0.11)">
       <use xlink:href="#NotoSansCJKjp-Regular-30"/>
       <use xlink:href="#NotoSansCJKjp-Regular-2e" transform="translate(55.499985 0)"/>
       <use xlink:href="#NotoSansCJKjp-Regular-31" transform="translate(83.299973 0)"/>
       <use xlink:href="#NotoSansCJKjp-Regular-37" transform="translate(138.799957 0)"/>
       <use xlink:href="#NotoSansCJKjp-Regular-35" transform="translate(194.299942 0)"/>
      </g>
     </g>
    </g>
    <g id="ytick_6">
     <g id="line2d_6">
      <path d="M 56.952656 71.614356 
L 692.422656 71.614356 
" clip-path="url(#pd527018d0d)" style="fill: none; stroke: #808080; stroke-opacity: 0.3; stroke-width: 0.4; stroke-linecap: round"/>
     </g>
     <g id="text_16">
      <!-- 0.200 -->
      <g transform="translate(22.475 75.992012) scale(0.11 -0.11)">
       <use xlink:href="#NotoSansCJKjp-Regular-30"/>
       <use xlink:href="#NotoSansCJKjp-Regular-2e" transform="translate(55.499985 0)"/>
       <use xlink:href="#NotoSansCJKjp-Regular-32" transform="translate(83.299973 0)"/>
       <use xlink:href="#NotoSansCJKjp-Regular-30" transform="translate(138.799957 0)"/>
       <use xlink:href="#NotoSansCJKjp-Regular-30" transform="translate(194.299942 0)"/>
      </g>
     </g>
    </g>
    <g id="ytick_7">
     <g id="line2d_7">
      <path d="M 56.952656 29.567791 
L 692.422656 29.567791 
" clip-path="url(#pd527018d0d)" style="fill: none; stroke: #808080; stroke-opacity: 0.3; stroke-width: 0.4; stroke-linecap: round"/>
     </g>
     <g id="text_17">
      <!-- 0.225 -->
      <g transform="translate(22.475 33.945447) scale(0.11 -0.11)">
       <use xlink:href="#NotoSansCJKjp-Regular-30"/>
       <use xlink:href="#NotoSansCJKjp-Regular-2e" transform="translate(55.499985 0)"/>
       <use xlink:href="#NotoSansCJKjp-Regular-32" transform="translate(83.299973 0)"/>
       <use xlink:href="#NotoSansCJKjp-Regular-32" transform="translate(138.799957 0)"/>
       <use xlink:href="#NotoSansCJKjp-Regular-35" transform="translate(194.299942 0)"/>
      </g>
     </g>
    </g>
    <g id="text_18">
     <!-- Genderedness -->
     <g transform="translate(15.955313 195.461016) rotate(-90) scale(0.11 -0.11)">
      <defs>
       <path id="NotoSansCJKjp-Regular-47" d="M 2483 -83 
C 3117 -83 3635 147 3936 461 
L 3936 2432 
L 2400 2432 
L 2400 1939 
L 3392 1939 
L 3392 710 
C 3206 538 2880 435 2547 435 
C 1536 435 979 1178 979 2362 
C 979 3533 1594 4262 2534 4262 
C 3014 4262 3315 4064 3552 3814 
L 3872 4198 
C 3603 4486 3174 4781 2522 4781 
C 1280 4781 371 3859 371 2342 
C 371 819 1254 -83 2483 -83 
z
" transform="scale(0.015625)"/>
       <path id="NotoSansCJKjp-Regular-6e" d="M 589 0 
L 1171 0 
L 1171 2522 
C 1523 2874 1766 3053 2125 3053 
C 2586 3053 2784 2778 2784 2125 
L 2784 0 
L 3366 0 
L 3366 2202 
C 3366 3091 3034 3565 2304 3565 
C 1830 3565 1472 3302 1139 2976 
L 1120 2976 
L 1069 3475 
L 589 3475 
L 589 0 
z
" transform="scale(0.015625)"/>
       <path id="NotoSansCJKjp-Regular-64" d="M 1773 -83 
C 2189 -83 2554 141 2829 410 
L 2848 410 
L 2899 0 
L 3373 0 
L 3373 5094 
L 2797 5094 
L 2797 3757 
L 2822 3155 
C 2515 3411 2253 3565 1843 3565 
C 1050 3565 339 2861 339 1734 
C 339 576 902 -83 1773 -83 
z
M 1901 403 
C 1286 403 941 902 941 1741 
C 941 2534 1382 3072 1946 3072 
C 2234 3072 2496 2970 2797 2707 
L 2797 883 
C 2502 563 2221 403 1901 403 
z
" transform="scale(0.015625)"/>
       <path id="NotoSansCJKjp-Regular-73" d="M 1498 -83 
C 2317 -83 2765 384 2765 947 
C 2765 1606 2208 1811 1702 2003 
C 1312 2150 954 2272 954 2605 
C 954 2874 1158 3104 1600 3104 
C 1907 3104 2150 2976 2387 2797 
L 2669 3174 
C 2400 3386 2022 3565 1594 3565 
C 838 3565 390 3130 390 2579 
C 390 1990 922 1754 1408 1574 
C 1792 1427 2202 1274 2202 915 
C 2202 614 1978 371 1517 371 
C 1101 371 787 538 486 781 
L 198 397 
C 531 122 1005 -83 1498 -83 
z
" transform="scale(0.015625)"/>
      </defs>
      <use xlink:href="#NotoSansCJKjp-Regular-47"/>
      <use xlink:href="#NotoSansCJKjp-Regular-65" transform="translate(68.899994 0)"/>
      <use xlink:href="#NotoSansCJKjp-Regular-6e" transform="translate(124.299988 0)"/>
      <use xlink:href="#NotoSansCJKjp-Regular-64" transform="translate(185.399979 0)"/>
      <use xlink:href="#NotoSansCJKjp-Regular-65" transform="translate(247.399963 0)"/>
      <use xlink:href="#NotoSansCJKjp-Regular-72" transform="translate(302.799957 0)"/>
      <use xlink:href="#NotoSansCJKjp-Regular-65" transform="translate(341.599945 0)"/>
      <use xlink:href="#NotoSansCJKjp-Regular-64" transform="translate(396.999939 0)"/>
      <use xlink:href="#NotoSansCJKjp-Regular-6e" transform="translate(458.999924 0)"/>
      <use xlink:href="#NotoSansCJKjp-Regular-65" transform="translate(520.099915 0)"/>
      <use xlink:href="#NotoSansCJKjp-Regular-73" transform="translate(575.499908 0)"/>
      <use xlink:href="#NotoSansCJKjp-Regular-73" transform="translate(622.299896 0)"/>
     </g>
    </g>
   </g>
   <g id="line2d_8">
    <path d="M 85.837656 234.914584 
L 91.633977 229.295223 
L 95.498191 225.80285 
L 99.362405 222.595156 
L 103.226619 219.742074 
L 107.090834 217.313532 
L 109.022941 216.280319 
L 110.955048 215.379464 
L 112.887155 214.619711 
L 116.751369 213.475872 
L 122.54769 211.971326 
L 128.344011 210.684763 
L 132.208225 209.99448 
L 136.072439 209.470566 
L 139.936653 209.140816 
L 143.800867 209.036584 
L 145.732974 209.481529 
L 147.665081 210.59725 
L 149.597188 212.286837 
L 151.529295 214.453381 
L 153.461402 216.999971 
L 157.325616 222.845647 
L 163.121937 232.041754 
L 165.054044 234.833507 
L 166.986151 237.326935 
L 168.918258 239.425128 
L 170.850365 241.031176 
L 172.782472 242.05557 
L 178.578793 244.317534 
L 184.375114 246.284285 
L 188.239328 247.369255 
L 192.103543 248.229735 
L 195.967757 248.828409 
L 199.831971 249.127965 
L 203.696185 249.104376 
L 207.560399 248.825256 
L 213.35672 248.108868 
L 223.017255 246.792362 
L 226.881469 246.457854 
L 230.745683 246.378175 
L 232.67779 246.986433 
L 234.609897 248.31136 
L 236.542004 250.23783 
L 238.474111 252.650713 
L 240.406218 255.434883 
L 244.270432 261.656573 
L 248.134646 267.981878 
L 250.066753 270.895566 
L 251.99886 273.489776 
L 253.930967 275.649379 
L 255.863074 277.259247 
L 257.795181 278.204253 
L 259.727288 278.348761 
L 261.659395 277.337204 
L 263.591502 275.213864 
L 265.523609 272.158787 
L 267.455716 268.35202 
L 269.387823 263.973606 
L 273.252038 254.222028 
L 277.116252 244.344417 
L 279.048359 239.808463 
L 280.980466 235.78114 
L 282.912573 232.442491 
L 284.84468 229.972563 
L 286.776787 228.551402 
L 288.708894 228.385522 
L 290.641001 229.8404 
L 292.573108 232.792738 
L 294.505215 236.998053 
L 296.437322 242.211861 
L 298.369429 248.189678 
L 302.233643 261.45941 
L 306.097857 274.851384 
L 308.029964 280.982004 
L 309.962071 286.409734 
L 311.894178 290.890092 
L 313.826285 294.178595 
L 315.758392 296.030758 
L 317.690499 296.299633 
L 319.622606 295.744183 
L 321.554713 294.63078 
L 323.48682 293.024945 
L 325.418927 290.992202 
L 327.351034 288.598074 
L 329.283141 285.908082 
L 333.147355 279.9026 
L 340.875783 267.224273 
L 342.80789 264.297873 
L 344.739997 261.59979 
L 346.672104 259.130726 
L 348.604211 256.476702 
L 352.468425 250.575102 
L 360.196854 238.157654 
L 362.128961 235.291983 
L 364.061068 232.647501 
L 365.993175 230.287062 
L 367.925282 228.273523 
L 369.857389 226.66974 
L 371.789496 225.538568 
L 373.721603 224.942864 
L 377.585817 224.893286 
L 383.382138 225.098555 
L 391.110566 225.614445 
L 402.703208 226.68409 
L 408.499529 227.335231 
L 414.29585 228.205912 
L 420.092171 229.305914 
L 425.888492 230.642617 
L 431.684813 232.223396 
L 433.61692 232.859176 
L 435.549027 233.774374 
L 437.481135 234.94411 
L 439.413242 236.318459 
L 443.277456 239.481297 
L 449.073777 244.51203 
L 451.005884 246.065634 
L 452.937991 247.474378 
L 454.870098 248.688336 
L 456.802205 249.657582 
L 458.734312 250.332193 
L 460.666419 250.662243 
L 462.598526 250.591516 
L 464.530633 250.091151 
L 466.46274 249.201636 
L 468.394847 247.967207 
L 470.326954 246.4321 
L 472.259061 244.640552 
L 474.191168 242.636798 
L 478.055382 238.169615 
L 487.715917 226.384568 
L 499.308559 213.586305 
L 510.901201 199.963537 
L 514.765415 195.752045 
L 518.629629 191.907646 
L 522.493844 188.579786 
L 526.358058 185.737924 
L 532.154379 181.920856 
L 536.018593 179.361139 
L 539.882807 176.539691 
L 541.814914 174.963929 
L 543.747021 173.242465 
L 545.679128 171.348544 
L 547.611235 169.25541 
L 549.543342 166.797006 
L 551.475449 163.718637 
L 553.407556 160.094048 
L 555.339663 156.006422 
L 557.27177 151.538942 
L 561.135984 141.797151 
L 568.864412 121.415385 
L 572.728626 112.10634 
L 574.660733 107.963419 
L 576.59284 104.272476 
L 580.457054 97.811407 
L 584.321268 91.880239 
L 588.185482 86.352527 
L 593.981803 78.550261 
L 605.574446 63.195768 
L 607.506553 60.410344 
L 611.370767 54.191957 
L 621.031302 37.640334 
L 622.963409 34.634993 
L 624.895516 31.870551 
L 626.827623 29.406678 
L 628.75973 27.303049 
L 630.691837 25.619336 
L 632.623944 24.415212 
L 634.556051 23.750349 
L 640.352372 22.795684 
L 646.148693 22.023017 
L 651.945014 21.449266 
L 657.741335 21.092076 
L 663.537656 20.969091 
L 663.537656 20.969091 
" clip-path="url(#pd527018d0d)" style="fill: none; stroke-dasharray: 2.5,4.125; stroke-dashoffset: 0; stroke: #000000; stroke-width: 2.5"/>
   </g>
   <g id="line2d_9">
    <path d="M 85.837656 216.241408 
L 91.633977 217.063472 
L 97.430298 218.079908 
L 105.158726 219.687407 
L 112.887155 221.520201 
L 116.751369 222.567665 
L 120.615583 224.015501 
L 126.411904 226.650588 
L 132.208225 229.28728 
L 136.072439 230.737969 
L 138.004546 231.301882 
L 139.936653 231.727376 
L 141.86876 231.991349 
L 143.800867 232.06253 
L 145.732974 231.008018 
L 147.665081 228.376686 
L 149.597188 224.415878 
L 151.529295 219.372938 
L 153.461402 213.495211 
L 157.325616 200.224772 
L 161.18983 186.583317 
L 163.121937 180.241819 
L 165.054044 174.5496 
L 166.986151 169.754005 
L 168.918258 166.102377 
L 170.850365 163.842061 
L 172.782472 163.219373 
L 174.714579 164.317168 
L 176.646686 166.922521 
L 178.578793 170.797082 
L 180.5109 175.702501 
L 182.443007 181.400432 
L 186.307221 194.220427 
L 190.171436 207.350275 
L 192.103543 213.435522 
L 194.03565 218.883186 
L 195.967757 223.454917 
L 197.899864 226.912367 
L 199.831971 229.017187 
L 201.764078 229.565825 
L 205.628292 229.437784 
L 211.424613 228.932868 
L 219.153041 227.948003 
L 226.881469 226.987403 
L 232.67779 226.508751 
L 244.270432 225.84087 
L 257.795181 225.052343 
L 263.591502 224.528987 
L 273.252038 223.270392 
L 279.048359 222.565319 
L 284.84468 222.114648 
L 288.708894 222.044272 
L 292.573108 222.235282 
L 296.437322 222.643509 
L 304.16575 223.772545 
L 309.962071 224.559058 
L 313.826285 224.895762 
L 317.690499 224.987768 
L 323.48682 224.841865 
L 329.283141 224.489337 
L 337.011569 223.752552 
L 344.739997 222.779634 
L 346.672104 222.477351 
L 348.604211 221.922293 
L 350.536318 221.111469 
L 352.468425 220.09035 
L 356.33264 217.599099 
L 364.061068 212.093671 
L 365.993175 210.873606 
L 367.925282 209.806995 
L 369.857389 208.939307 
L 371.789496 208.316011 
L 373.721603 207.982576 
L 375.65371 207.948692 
L 379.517924 208.177185 
L 383.382138 208.679671 
L 387.246352 209.418731 
L 391.110566 210.356944 
L 396.906887 212.055823 
L 402.703208 213.992312 
L 404.635315 214.738205 
L 406.567422 215.87798 
L 408.499529 217.389887 
L 410.431636 219.203487 
L 414.29585 223.454002 
L 422.024278 232.47595 
L 423.956385 234.429058 
L 425.888492 236.120333 
L 427.820599 237.479334 
L 429.752706 238.43562 
L 431.684813 238.918752 
L 433.61692 238.929507 
L 435.549027 238.729551 
L 437.481135 238.369787 
L 439.413242 237.871921 
L 443.277456 236.548708 
L 447.14167 234.933562 
L 454.870098 231.52207 
L 458.734312 230.073024 
L 462.598526 229.011273 
L 466.46274 228.226258 
L 472.259061 227.300192 
L 479.987489 226.104022 
L 483.851703 225.337843 
L 487.715917 224.350192 
L 489.648024 223.747671 
L 491.580131 222.879707 
L 493.512238 221.279126 
L 495.444345 219.030942 
L 497.376452 216.255057 
L 499.308559 213.071372 
L 503.172773 205.960211 
L 507.036987 198.656668 
L 508.969094 195.232508 
L 510.901201 192.119956 
L 512.833308 189.438916 
L 514.765415 187.309287 
L 516.697522 185.850972 
L 518.629629 185.183871 
L 520.561737 185.311597 
L 522.493844 185.969196 
L 524.425951 187.068623 
L 526.358058 188.532705 
L 528.290165 190.284264 
L 532.154379 194.341117 
L 537.9507 200.653099 
L 539.882807 202.508846 
L 541.814914 204.111843 
L 543.747021 205.384915 
L 545.679128 206.250887 
L 547.611235 206.632584 
L 549.543342 206.59266 
L 551.475449 206.393575 
L 553.407556 206.061141 
L 557.27177 205.067037 
L 561.135984 203.751979 
L 574.660733 198.666547 
L 578.524947 197.631429 
L 586.253375 195.900676 
L 601.710232 192.628081 
L 607.506553 191.130445 
L 611.370767 189.778759 
L 617.167088 187.390823 
L 622.963409 185.033089 
L 626.827623 183.735097 
L 628.75973 183.226087 
L 630.691837 182.836105 
L 632.623944 182.584432 
L 636.488158 182.490758 
L 644.216586 182.579906 
L 650.012907 182.862071 
L 653.877121 183.219329 
L 657.741335 183.75336 
L 661.605549 184.499697 
L 663.537656 184.963583 
L 663.537656 184.963583 
" clip-path="url(#pd527018d0d)" style="fill: none; stroke-dasharray: 16,4,2.5,4; stroke-dashoffset: 0; stroke: #000000; stroke-width: 2.5"/>
   </g>
   <g id="line2d_10">
    <path d="M 85.837656 291.126228 
L 663.537656 107.808531 
" clip-path="url(#pd527018d0d)" style="fill: none; stroke: #000000; stroke-opacity: 0.85; stroke-width: 1.5; stroke-linecap: round"/>
   </g>
   <g id="line2d_11">
    <path d="M 85.837656 225.508089 
L 663.537656 198.047671 
" clip-path="url(#pd527018d0d)" style="fill: none; stroke-dasharray: 5.55,2.4; stroke-dashoffset: 0; stroke: #000000; stroke-opacity: 0.55; stroke-width: 1.5"/>
   </g>
   <g id="PathCollection_1">
    <defs>
     <path id="C0_0_5243139537" d="M -2.12132 2.12132 
L 2.12132 2.12132 
L 2.12132 -2.12132 
L -2.12132 -2.12132 
z
"/>
    </defs>
    <g clip-path="url(#pd527018d0d)">
     <use xlink:href="#C0_0_5243139537" x="85.837656" y="234.914584" style="fill: none; stroke: #000000; stroke-width: 1.2"/>
    </g>
    <g clip-path="url(#pd527018d0d)">
     <use xlink:href="#C0_0_5243139537" x="114.722656" y="214.036601" style="fill: none; stroke: #000000; stroke-width: 1.2"/>
    </g>
    <g clip-path="url(#pd527018d0d)">
     <use xlink:href="#C0_0_5243139537" x="143.607656" y="209.032713" style="fill: none; stroke: #000000; stroke-width: 1.2"/>
    </g>
    <g clip-path="url(#pd527018d0d)">
     <use xlink:href="#C0_0_5243139537" x="172.492656" y="241.936982" style="fill: none; stroke: #000000; stroke-width: 1.2"/>
    </g>
    <g clip-path="url(#pd527018d0d)">
     <use xlink:href="#C0_0_5243139537" x="201.377656" y="249.155675" style="fill: none; stroke: #000000; stroke-width: 1.2"/>
    </g>
    <g clip-path="url(#pd527018d0d)">
     <use xlink:href="#C0_0_5243139537" x="230.262656" y="246.351582" style="fill: none; stroke: #000000; stroke-width: 1.2"/>
    </g>
    <g clip-path="url(#pd527018d0d)">
     <use xlink:href="#C0_0_5243139537" x="259.147656" y="278.408513" style="fill: none; stroke: #000000; stroke-width: 1.2"/>
    </g>
    <g clip-path="url(#pd527018d0d)">
     <use xlink:href="#C0_0_5243139537" x="288.032656" y="228.275334" style="fill: none; stroke: #000000; stroke-width: 1.2"/>
    </g>
    <g clip-path="url(#pd527018d0d)">
     <use xlink:href="#C0_0_5243139537" x="316.917656" y="296.350909" style="fill: none; stroke: #000000; stroke-width: 1.2"/>
    </g>
    <g clip-path="url(#pd527018d0d)">
     <use xlink:href="#C0_0_5243139537" x="345.802656" y="260.236905" style="fill: none; stroke: #000000; stroke-width: 1.2"/>
    </g>
    <g clip-path="url(#pd527018d0d)">
     <use xlink:href="#C0_0_5243139537" x="374.687656" y="224.865454" style="fill: none; stroke: #000000; stroke-width: 1.2"/>
    </g>
    <g clip-path="url(#pd527018d0d)">
     <use xlink:href="#C0_0_5243139537" x="403.572656" y="226.769945" style="fill: none; stroke: #000000; stroke-width: 1.2"/>
    </g>
    <g clip-path="url(#pd527018d0d)">
     <use xlink:href="#C0_0_5243139537" x="432.457656" y="232.453004" style="fill: none; stroke: #000000; stroke-width: 1.2"/>
    </g>
    <g clip-path="url(#pd527018d0d)">
     <use xlink:href="#C0_0_5243139537" x="461.342656" y="250.687119" style="fill: none; stroke: #000000; stroke-width: 1.2"/>
    </g>
    <g clip-path="url(#pd527018d0d)">
     <use xlink:href="#C0_0_5243139537" x="490.227656" y="223.677228" style="fill: none; stroke: #000000; stroke-width: 1.2"/>
    </g>
    <g clip-path="url(#pd527018d0d)">
     <use xlink:href="#C0_0_5243139537" x="519.112656" y="191.458955" style="fill: none; stroke: #000000; stroke-width: 1.2"/>
    </g>
    <g clip-path="url(#pd527018d0d)">
     <use xlink:href="#C0_0_5243139537" x="547.997656" y="168.810523" style="fill: none; stroke: #000000; stroke-width: 1.2"/>
    </g>
    <g clip-path="url(#pd527018d0d)">
     <use xlink:href="#C0_0_5243139537" x="576.882656" y="103.76296" style="fill: none; stroke: #000000; stroke-width: 1.2"/>
    </g>
    <g clip-path="url(#pd527018d0d)">
     <use xlink:href="#C0_0_5243139537" x="605.767656" y="62.92856" style="fill: none; stroke: #000000; stroke-width: 1.2"/>
    </g>
    <g clip-path="url(#pd527018d0d)">
     <use xlink:href="#C0_0_5243139537" x="634.652656" y="23.732332" style="fill: none; stroke: #000000; stroke-width: 1.2"/>
    </g>
    <g clip-path="url(#pd527018d0d)">
     <use xlink:href="#C0_0_5243139537" x="663.537656" y="20.969091" style="fill: none; stroke: #000000; stroke-width: 1.2"/>
    </g>
   </g>
   <g id="PathCollection_2">
    <defs>
     <path id="m3391172b2a" d="M 0 2.12132 
C 0.562581 2.12132 1.102195 1.897805 1.5 1.5 
C 1.897805 1.102195 2.12132 0.562581 2.12132 0 
C 2.12132 -0.562581 1.897805 -1.102195 1.5 -1.5 
C 1.102195 -1.897805 0.562581 -2.12132 0 -2.12132 
C -0.562581 -2.12132 -1.102195 -1.897805 -1.5 -1.5 
C -1.897805 -1.102195 -2.12132 -0.562581 -2.12132 0 
C -2.12132 0.562581 -1.897805 1.102195 -1.5 1.5 
C -1.102195 1.897805 -0.562581 2.12132 0 2.12132 
z
" style="stroke: #000000; stroke-width: 1.2"/>
    </defs>
    <g clip-path="url(#pd527018d0d)">
     <use xlink:href="#m3391172b2a" x="85.837656" y="216.241408" style="stroke: #000000; stroke-width: 1.2"/>
     <use xlink:href="#m3391172b2a" x="114.722656" y="221.981066" style="stroke: #000000; stroke-width: 1.2"/>
     <use xlink:href="#m3391172b2a" x="143.607656" y="232.071733" style="stroke: #000000; stroke-width: 1.2"/>
     <use xlink:href="#m3391172b2a" x="172.492656" y="163.199463" style="stroke: #000000; stroke-width: 1.2"/>
     <use xlink:href="#m3391172b2a" x="201.377656" y="229.566979" style="stroke: #000000; stroke-width: 1.2"/>
     <use xlink:href="#m3391172b2a" x="230.262656" y="226.680804" style="stroke: #000000; stroke-width: 1.2"/>
     <use xlink:href="#m3391172b2a" x="259.147656" y="224.953587" style="stroke: #000000; stroke-width: 1.2"/>
     <use xlink:href="#m3391172b2a" x="288.032656" y="222.039496" style="stroke: #000000; stroke-width: 1.2"/>
     <use xlink:href="#m3391172b2a" x="316.917656" y="224.989911" style="stroke: #000000; stroke-width: 1.2"/>
     <use xlink:href="#m3391172b2a" x="345.802656" y="222.631569" style="stroke: #000000; stroke-width: 1.2"/>
     <use xlink:href="#m3391172b2a" x="374.687656" y="207.938766" style="stroke: #000000; stroke-width: 1.2"/>
     <use xlink:href="#m3391172b2a" x="403.572656" y="214.295472" style="stroke: #000000; stroke-width: 1.2"/>
     <use xlink:href="#m3391172b2a" x="432.457656" y="238.963742" style="stroke: #000000; stroke-width: 1.2"/>
     <use xlink:href="#m3391172b2a" x="461.342656" y="229.311916" style="stroke: #000000; stroke-width: 1.2"/>
     <use xlink:href="#m3391172b2a" x="490.227656" y="223.550584" style="stroke: #000000; stroke-width: 1.2"/>
     <use xlink:href="#m3391172b2a" x="519.112656" y="185.154774" style="stroke: #000000; stroke-width: 1.2"/>
     <use xlink:href="#m3391172b2a" x="547.997656" y="206.644019" style="stroke: #000000; stroke-width: 1.2"/>
     <use xlink:href="#m3391172b2a" x="576.882656" y="198.039964" style="stroke: #000000; stroke-width: 1.2"/>
     <use xlink:href="#m3391172b2a" x="605.767656" y="191.626513" style="stroke: #000000; stroke-width: 1.2"/>
     <use xlink:href="#m3391172b2a" x="634.652656" y="182.490123" style="stroke: #000000; stroke-width: 1.2"/>
     <use xlink:href="#m3391172b2a" x="663.537656" y="184.963583" style="stroke: #000000; stroke-width: 1.2"/>
    </g>
   </g>
   <g id="legend_1">
    <g id="line2d_12">
     <path d="M 65.952656 20.659375 
L 75.952656 20.659375 
L 85.952656 20.659375 
" style="fill: none; stroke-dasharray: 2.5,4.125; stroke-dashoffset: 0; stroke: #000000; stroke-width: 2.5"/>
    </g>
    <g id="text_19">
     <!-- Boys -->
     <g transform="translate(93.952656 24.159375) scale(0.1 -0.1)">
      <defs>
       <path id="NotoSansCJKjp-Regular-42" d="M 640 0 
L 2138 0 
C 3187 0 3917 454 3917 1376 
C 3917 2016 3520 2387 2963 2496 
L 2963 2528 
C 3398 2669 3648 3078 3648 3546 
C 3648 4371 2989 4698 2035 4698 
L 640 4698 
L 640 0 
z
M 1235 2694 
L 1235 4224 
L 1958 4224 
C 2688 4224 3066 4019 3066 3469 
C 3066 2995 2739 2694 1933 2694 
L 1235 2694 
z
M 1235 474 
L 1235 2246 
L 2054 2246 
C 2874 2246 3334 1978 3334 1395 
C 3334 762 2861 474 2054 474 
L 1235 474 
z
" transform="scale(0.015625)"/>
       <path id="NotoSansCJKjp-Regular-6f" d="M 1939 -83 
C 2790 -83 3552 582 3552 1734 
C 3552 2893 2790 3565 1939 3565 
C 1088 3565 326 2893 326 1734 
C 326 582 1088 -83 1939 -83 
z
M 1939 403 
C 1338 403 934 934 934 1734 
C 934 2534 1338 3078 1939 3078 
C 2541 3078 2950 2534 2950 1734 
C 2950 934 2541 403 1939 403 
z
" transform="scale(0.015625)"/>
       <path id="NotoSansCJKjp-Regular-79" d="M 646 -1498 
C 1338 -1498 1702 -973 1939 -288 
L 3251 3475 
L 2682 3475 
L 2061 1542 
C 1965 1235 1862 883 1766 570 
L 1734 570 
C 1626 883 1504 1242 1402 1542 
L 691 3475 
L 83 3475 
L 1478 -6 
L 1402 -269 
C 1261 -698 1011 -1018 614 -1018 
C 525 -1018 422 -986 352 -960 
L 237 -1427 
C 346 -1472 480 -1498 646 -1498 
z
" transform="scale(0.015625)"/>
      </defs>
      <use xlink:href="#NotoSansCJKjp-Regular-42"/>
      <use xlink:href="#NotoSansCJKjp-Regular-6f" transform="translate(65.699997 0)"/>
      <use xlink:href="#NotoSansCJKjp-Regular-79" transform="translate(126.299988 0)"/>
      <use xlink:href="#NotoSansCJKjp-Regular-73" transform="translate(178.399979 0)"/>
     </g>
    </g>
    <g id="line2d_13">
     <path d="M 65.952656 35.959375 
L 75.952656 35.959375 
L 85.952656 35.959375 
" style="fill: none; stroke-dasharray: 16,4,2.5,4; stroke-dashoffset: 0; stroke: #000000; stroke-width: 2.5"/>
    </g>
    <g id="text_20">
     <!-- Girls -->
     <g transform="translate(93.952656 39.459375) scale(0.1 -0.1)">
      <defs>
       <path id="NotoSansCJKjp-Regular-69" d="M 589 0 
L 1171 0 
L 1171 3475 
L 589 3475 
L 589 0 
z
M 883 4192 
C 1114 4192 1274 4346 1274 4582 
C 1274 4806 1114 4960 883 4960 
C 653 4960 493 4806 493 4582 
C 493 4346 653 4192 883 4192 
z
" transform="scale(0.015625)"/>
       <path id="NotoSansCJKjp-Regular-6c" d="M 1203 -83 
C 1363 -83 1459 -64 1542 -32 
L 1459 416 
C 1395 403 1370 403 1338 403 
C 1248 403 1171 474 1171 653 
L 1171 5094 
L 589 5094 
L 589 691 
C 589 198 768 -83 1203 -83 
z
" transform="scale(0.015625)"/>
      </defs>
      <use xlink:href="#NotoSansCJKjp-Regular-47"/>
      <use xlink:href="#NotoSansCJKjp-Regular-69" transform="translate(68.899994 0)"/>
      <use xlink:href="#NotoSansCJKjp-Regular-72" transform="translate(96.399979 0)"/>
      <use xlink:href="#NotoSansCJKjp-Regular-6c" transform="translate(135.199966 0)"/>
      <use xlink:href="#NotoSansCJKjp-Regular-73" transform="translate(163.699951 0)"/>
     </g>
    </g>
   </g>
  </g>
 </g>
 <defs>
  <clipPath id="pd527018d0d">
   <rect x="56.952656" y="7.2" width="635.47" height="302.92"/>
  </clipPath>
 </defs>
</svg>
