<?xml version="1.0" encoding="utf-8" standalone="no"?>
<!DOCTYPE svg PUBLIC "-//W3C//DTD SVG 1.1//EN"
  "http://www.w3.org/Graphics/SVG/1.1/DTD/svg11.dtd">
<svg xmlns:xlink="http://www.w3.org/1999/xlink" width="711.789375pt" height="424.024687pt" viewBox="0 0 711.789375 424.024687" xmlns="http://www.w3.org/2000/svg" version="1.1">
 <metadata>
  <rdf:RDF xmlns:dc="http://purl.org/dc/elements/1.1/" xmlns:cc="http://creativecommons.org/ns#" xmlns:rdf="http://www.w3.org/1999/02/22-rdf-syntax-ns#">
   <cc:Work>
    <dc:type rdf:resource="http://purl.org/dc/dcmitype/StillImage"/>
    <dc:date>2026-04-11T21:39:33.933294</dc:date>
    <dc:format>image/svg+xml</dc:format>
    <dc:creator>
     <cc:Agent>
      <dc:title>Matplotlib v3.10.7, https://matplotlib.org/</dc:title>
     </cc:Agent>
    </dc:creator>
   </cc:Work>
  </rdf:RDF>
 </metadata>
 <defs>
  <style type="text/css">*{stroke-linejoin: round; stroke-linecap: butt}</style>
 </defs>
 <g id="figure_1">
  <g id="patch_1">
   <path d="M 0 424.024687 
L 711.789375 424.024687 
L 711.789375 0 
L 0 0 
z
" style="fill: #ffffff"/>
  </g>
  <g id="axes_1">
   <g id="patch_2">
    <path d="M 49.784375 384.299687 
L 693.489375 384.299687 
L 693.489375 11.179688 
L 49.784375 11.179688 
z
" style="fill: #ffffff"/>
   </g>
   <g id="matplotlib.axis_1">
    <g id="xtick_1">
     <g id="text_1">
      <!-- 2004 -->
      <g transform="translate(67.943693 399.259062) scale(0.1 -0.1)">
       <defs>
        <path id="NotoSansCJKjp-Regular-32" d="M 282 0 
L 3232 0 
L 3232 506 
L 1933 506 
C 1696 506 1408 480 1165 461 
C 2266 1504 3002 2458 3002 3392 
C 3002 4230 2477 4781 1638 4781 
C 1043 4781 640 4506 256 4090 
L 595 3757 
C 851 4064 1184 4301 1568 4301 
C 2150 4301 2432 3910 2432 3373 
C 2432 2566 1754 1632 282 346 
L 282 0 
z
" transform="scale(0.015625)"/>
        <path id="NotoSansCJKjp-Regular-30" d="M 1779 -83 
C 2669 -83 3238 730 3238 2362 
C 3238 3987 2669 4781 1779 4781 
C 883 4781 314 3994 314 2362 
C 314 730 883 -83 1779 -83 
z
M 1779 384 
C 1242 384 883 979 883 2362 
C 883 3731 1242 4314 1779 4314 
C 2310 4314 2669 3731 2669 2362 
C 2669 979 2310 384 1779 384 
z
" transform="scale(0.015625)"/>
        <path id="NotoSansCJKjp-Regular-34" d="M 736 1760 
L 1805 3360 
C 1939 3590 2067 3821 2182 4051 
L 2208 4051 
C 2195 3808 2176 3430 2176 3200 
L 2176 1760 
L 736 1760 
z
M 2176 0 
L 2726 0 
L 2726 1293 
L 3347 1293 
L 3347 1760 
L 2726 1760 
L 2726 4698 
L 2080 4698 
L 128 1677 
L 128 1293 
L 2176 1293 
L 2176 0 
z
" transform="scale(0.015625)"/>
       </defs>
       <use xlink:href="#NotoSansCJKjp-Regular-32"/>
       <use xlink:href="#NotoSansCJKjp-Regular-30" transform="translate(55.499985 0)"/>
       <use xlink:href="#NotoSansCJKjp-Regular-30" transform="translate(110.999969 0)"/>
       <use xlink:href="#NotoSansCJKjp-Regular-34" transform="translate(166.499954 0)"/>
      </g>
     </g>
    </g>
    <g id="xtick_2">
     <g id="text_2">
      <!-- 2007 -->
      <g transform="translate(155.721648 399.259062) scale(0.1 -0.1)">
       <defs>
        <path id="NotoSansCJKjp-Regular-37" d="M 1267 0 
L 1875 0 
C 1946 1837 2150 2931 3251 4339 
L 3251 4698 
L 314 4698 
L 314 4192 
L 2586 4192 
C 1670 2912 1344 1779 1267 0 
z
" transform="scale(0.015625)"/>
       </defs>
       <use xlink:href="#NotoSansCJKjp-Regular-32"/>
       <use xlink:href="#NotoSansCJKjp-Regular-30" transform="translate(55.499985 0)"/>
       <use xlink:href="#NotoSansCJKjp-Regular-30" transform="translate(110.999969 0)"/>
       <use xlink:href="#NotoSansCJKjp-Regular-37" transform="translate(166.499954 0)"/>
      </g>
     </g>
    </g>
    <g id="xtick_3">
     <g id="text_3">
      <!-- 2010 -->
      <g transform="translate(243.499602 399.259062) scale(0.1 -0.1)">
       <defs>
        <path id="NotoSansCJKjp-Regular-31" d="M 563 0 
L 3136 0 
L 3136 486 
L 2195 486 
L 2195 4698 
L 1747 4698 
C 1491 4544 1190 4435 774 4358 
L 774 3987 
L 1606 3987 
L 1606 486 
L 563 486 
L 563 0 
z
" transform="scale(0.015625)"/>
       </defs>
       <use xlink:href="#NotoSansCJKjp-Regular-32"/>
       <use xlink:href="#NotoSansCJKjp-Regular-30" transform="translate(55.499985 0)"/>
       <use xlink:href="#NotoSansCJKjp-Regular-31" transform="translate(110.999969 0)"/>
       <use xlink:href="#NotoSansCJKjp-Regular-30" transform="translate(166.499954 0)"/>
      </g>
     </g>
    </g>
    <g id="xtick_4">
     <g id="text_4">
      <!-- 2013 -->
      <g transform="translate(331.277557 399.259062) scale(0.1 -0.1)">
       <defs>
        <path id="NotoSansCJKjp-Regular-33" d="M 1690 -83 
C 2522 -83 3194 416 3194 1254 
C 3194 1894 2752 2317 2202 2445 
L 2202 2470 
C 2694 2656 3034 3034 3034 3603 
C 3034 4346 2458 4781 1670 4781 
C 1126 4781 710 4544 358 4218 
L 672 3846 
C 934 4115 1267 4301 1645 4301 
C 2131 4301 2438 4006 2438 3558 
C 2438 3053 2106 2662 1139 2662 
L 1139 2214 
C 2221 2214 2598 1837 2598 1280 
C 2598 736 2202 403 1645 403 
C 1114 403 755 653 480 941 
L 186 557 
C 493 224 954 -83 1690 -83 
z
" transform="scale(0.015625)"/>
       </defs>
       <use xlink:href="#NotoSansCJKjp-Regular-32"/>
       <use xlink:href="#NotoSansCJKjp-Regular-30" transform="translate(55.499985 0)"/>
       <use xlink:href="#NotoSansCJKjp-Regular-31" transform="translate(110.999969 0)"/>
       <use xlink:href="#NotoSansCJKjp-Regular-33" transform="translate(166.499954 0)"/>
      </g>
     </g>
    </g>
    <g id="xtick_5">
     <g id="text_5">
      <!-- 2016 -->
      <g transform="translate(419.055511 399.259062) scale(0.1 -0.1)">
       <defs>
        <path id="NotoSansCJKjp-Regular-36" d="M 1875 2477 
C 2445 2477 2726 2074 2726 1440 
C 2726 800 2374 371 1926 371 
C 1338 371 986 902 915 1875 
C 1203 2304 1581 2477 1875 2477 
z
M 1926 -83 
C 2656 -83 3270 531 3270 1440 
C 3270 2419 2765 2912 1971 2912 
C 1600 2912 1190 2694 902 2342 
C 928 3802 1472 4294 2112 4294 
C 2400 4294 2682 4160 2867 3936 
L 3187 4301 
C 2931 4576 2579 4781 2093 4781 
C 1184 4781 358 4077 358 2240 
C 358 691 1024 -83 1926 -83 
z
" transform="scale(0.015625)"/>
       </defs>
       <use xlink:href="#NotoSansCJKjp-Regular-32"/>
       <use xlink:href="#NotoSansCJKjp-Regular-30" transform="translate(55.499985 0)"/>
       <use xlink:href="#NotoSansCJKjp-Regular-31" transform="translate(110.999969 0)"/>
       <use xlink:href="#NotoSansCJKjp-Regular-36" transform="translate(166.499954 0)"/>
      </g>
     </g>
    </g>
    <g id="xtick_6">
     <g id="text_6">
      <!-- 2019 -->
      <g transform="translate(506.833466 399.259062) scale(0.1 -0.1)">
       <defs>
        <path id="NotoSansCJKjp-Regular-39" d="M 832 3258 
C 832 3898 1178 4320 1626 4320 
C 2227 4320 2586 3808 2650 2842 
C 2349 2400 1990 2214 1670 2214 
C 1114 2214 832 2624 832 3258 
z
M 1498 -83 
C 2381 -83 3200 646 3200 2547 
C 3200 4038 2528 4781 1626 4781 
C 896 4781 282 4166 282 3258 
C 282 2285 794 1779 1574 1779 
C 1965 1779 2368 2003 2656 2355 
C 2611 902 2086 403 1478 403 
C 1178 403 890 538 698 762 
L 371 397 
C 634 122 992 -83 1498 -83 
z
" transform="scale(0.015625)"/>
       </defs>
       <use xlink:href="#NotoSansCJKjp-Regular-32"/>
       <use xlink:href="#NotoSansCJKjp-Regular-30" transform="translate(55.499985 0)"/>
       <use xlink:href="#NotoSansCJKjp-Regular-31" transform="translate(110.999969 0)"/>
       <use xlink:href="#NotoSansCJKjp-Regular-39" transform="translate(166.499954 0)"/>
      </g>
     </g>
    </g>
    <g id="xtick_7">
     <g id="text_7">
      <!-- 2022 -->
      <g transform="translate(594.61142 399.259062) scale(0.1 -0.1)">
       <use xlink:href="#NotoSansCJKjp-Regular-32"/>
       <use xlink:href="#NotoSansCJKjp-Regular-30" transform="translate(55.499985 0)"/>
       <use xlink:href="#NotoSansCJKjp-Regular-32" transform="translate(110.999969 0)"/>
       <use xlink:href="#NotoSansCJKjp-Regular-32" transform="translate(166.499954 0)"/>
      </g>
     </g>
    </g>
    <g id="xtick_8">
     <g id="text_8">
      <!-- 2025 -->
      <g transform="translate(682.389375 399.259062) scale(0.1 -0.1)">
       <defs>
        <path id="NotoSansCJKjp-Regular-35" d="M 1670 -83 
C 2464 -83 3206 499 3206 1530 
C 3206 2560 2573 3021 1792 3021 
C 1510 3021 1306 2950 1094 2835 
L 1210 4192 
L 2982 4192 
L 2982 4698 
L 698 4698 
L 550 2496 
L 864 2304 
C 1133 2483 1331 2579 1645 2579 
C 2234 2579 2618 2182 2618 1510 
C 2618 826 2170 403 1619 403 
C 1075 403 736 653 467 922 
L 179 538 
C 493 224 941 -83 1670 -83 
z
" transform="scale(0.015625)"/>
       </defs>
       <use xlink:href="#NotoSansCJKjp-Regular-32"/>
       <use xlink:href="#NotoSansCJKjp-Regular-30" transform="translate(55.499985 0)"/>
       <use xlink:href="#NotoSansCJKjp-Regular-32" transform="translate(110.999969 0)"/>
       <use xlink:href="#NotoSansCJKjp-Regular-35" transform="translate(166.499954 0)"/>
      </g>
     </g>
    </g>
    <g id="text_9">
     <!-- Year -->
     <g transform="translate(360.433203 414.305) scale(0.11 -0.11)">
      <defs>
       <path id="NotoSansCJKjp-Regular-59" d="M 1402 0 
L 1997 0 
L 1997 1824 
L 3405 4698 
L 2790 4698 
L 2182 3366 
C 2042 3021 1882 2694 1715 2342 
L 1690 2342 
C 1523 2694 1382 3021 1229 3366 
L 627 4698 
L -6 4698 
L 1402 1824 
L 1402 0 
z
" transform="scale(0.015625)"/>
       <path id="NotoSansCJKjp-Regular-65" d="M 1990 -83 
C 2464 -83 2835 77 3142 275 
L 2931 659 
C 2675 486 2400 384 2061 384 
C 1402 384 947 858 909 1600 
L 3251 1600 
C 3264 1683 3277 1805 3277 1933 
C 3277 2925 2778 3565 1894 3565 
C 1088 3565 326 2861 326 1734 
C 326 589 1069 -83 1990 -83 
z
M 902 2022 
C 973 2701 1408 3098 1901 3098 
C 2445 3098 2765 2720 2765 2022 
L 902 2022 
z
" transform="scale(0.015625)"/>
       <path id="NotoSansCJKjp-Regular-61" d="M 1389 -83 
C 1818 -83 2208 141 2541 416 
L 2560 416 
L 2611 0 
L 3091 0 
L 3091 2138 
C 3091 2995 2733 3565 1888 3565 
C 1331 3565 838 3315 518 3110 
L 749 2707 
C 1024 2893 1389 3078 1792 3078 
C 2362 3078 2509 2650 2509 2202 
C 1030 2035 371 1658 371 902 
C 371 275 806 -83 1389 -83 
z
M 1555 384 
C 1210 384 941 544 941 941 
C 941 1389 1338 1677 2509 1818 
L 2509 845 
C 2170 544 1894 384 1555 384 
z
" transform="scale(0.015625)"/>
       <path id="NotoSansCJKjp-Regular-72" d="M 589 0 
L 1171 0 
L 1171 2234 
C 1402 2829 1760 3034 2048 3034 
C 2189 3034 2272 3021 2387 2976 
L 2496 3488 
C 2387 3546 2278 3565 2125 3565 
C 1734 3565 1382 3283 1139 2842 
L 1120 2842 
L 1069 3475 
L 589 3475 
L 589 0 
z
" transform="scale(0.015625)"/>
      </defs>
      <use xlink:href="#NotoSansCJKjp-Regular-59"/>
      <use xlink:href="#NotoSansCJKjp-Regular-65" transform="translate(53.099991 0)"/>
      <use xlink:href="#NotoSansCJKjp-Regular-61" transform="translate(108.499985 0)"/>
      <use xlink:href="#NotoSansCJKjp-Regular-72" transform="translate(164.899979 0)"/>
     </g>
    </g>
   </g>
   <g id="matplotlib.axis_2">
    <g id="ytick_1">
     <g id="line2d_1">
      <path d="M 49.784375 384.299687 
L 693.489375 384.299687 
" clip-path="url(#p8f4c6a508b)" style="fill: none; stroke: #808080; stroke-opacity: 0.3; stroke-width: 0.5; stroke-linecap: round"/>
     </g>
     <g id="text_10">
      <!-- 0% -->
      <g transform="translate(28.025 388.279375) scale(0.1 -0.1)">
       <defs>
        <path id="NotoSansCJKjp-Regular-25" d="M 1312 1818 
C 1958 1818 2381 2362 2381 3309 
C 2381 4250 1958 4781 1312 4781 
C 672 4781 250 4250 250 3309 
C 250 2362 672 1818 1312 1818 
z
M 1312 2182 
C 947 2182 691 2560 691 3309 
C 691 4058 947 4422 1312 4422 
C 1683 4422 1939 4058 1939 3309 
C 1939 2560 1683 2182 1312 2182 
z
M 1453 -83 
L 1843 -83 
L 4435 4781 
L 4038 4781 
L 1453 -83 
z
M 4582 -83 
C 5222 -83 5645 454 5645 1402 
C 5645 2342 5222 2874 4582 2874 
C 3942 2874 3514 2342 3514 1402 
C 3514 454 3942 -83 4582 -83 
z
M 4582 275 
C 4211 275 3962 653 3962 1402 
C 3962 2150 4211 2515 4582 2515 
C 4947 2515 5203 2150 5203 1402 
C 5203 653 4947 275 4582 275 
z
" transform="scale(0.015625)"/>
       </defs>
       <use xlink:href="#NotoSansCJKjp-Regular-30"/>
       <use xlink:href="#NotoSansCJKjp-Regular-25" transform="translate(55.499985 0)"/>
      </g>
     </g>
    </g>
    <g id="ytick_2">
     <g id="line2d_2">
      <path d="M 49.784375 291.019687 
L 693.489375 291.019687 
" clip-path="url(#p8f4c6a508b)" style="fill: none; stroke: #808080; stroke-opacity: 0.3; stroke-width: 0.5; stroke-linecap: round"/>
     </g>
     <g id="text_11">
      <!-- 5% -->
      <g transform="translate(28.025 294.999375) scale(0.1 -0.1)">
       <use xlink:href="#NotoSansCJKjp-Regular-35"/>
       <use xlink:href="#NotoSansCJKjp-Regular-25" transform="translate(55.499985 0)"/>
      </g>
     </g>
    </g>
    <g id="ytick_3">
     <g id="line2d_3">
      <path d="M 49.784375 197.739687 
L 693.489375 197.739687 
" clip-path="url(#p8f4c6a508b)" style="fill: none; stroke: #808080; stroke-opacity: 0.3; stroke-width: 0.5; stroke-linecap: round"/>
     </g>
     <g id="text_12">
      <!-- 10% -->
      <g transform="translate(22.475 201.719375) scale(0.1 -0.1)">
       <use xlink:href="#NotoSansCJKjp-Regular-31"/>
       <use xlink:href="#NotoSansCJKjp-Regular-30" transform="translate(55.499985 0)"/>
       <use xlink:href="#NotoSansCJKjp-Regular-25" transform="translate(110.999969 0)"/>
      </g>
     </g>
    </g>
    <g id="ytick_4">
     <g id="line2d_4">
      <path d="M 49.784375 104.459687 
L 693.489375 104.459687 
" clip-path="url(#p8f4c6a508b)" style="fill: none; stroke: #808080; stroke-opacity: 0.3; stroke-width: 0.5; stroke-linecap: round"/>
     </g>
     <g id="text_13">
      <!-- 15% -->
      <g transform="translate(22.475 108.439375) scale(0.1 -0.1)">
       <use xlink:href="#NotoSansCJKjp-Regular-31"/>
       <use xlink:href="#NotoSansCJKjp-Regular-35" transform="translate(55.499985 0)"/>
       <use xlink:href="#NotoSansCJKjp-Regular-25" transform="translate(110.999969 0)"/>
      </g>
     </g>
    </g>
    <g id="ytick_5">
     <g id="line2d_5">
      <path d="M 49.784375 11.179688 
L 693.489375 11.179688 
" clip-path="url(#p8f4c6a508b)" style="fill: none; stroke: #808080; stroke-opacity: 0.3; stroke-width: 0.5; stroke-linecap: round"/>
     </g>
     <g id="text_14">
      <!-- 20% -->
      <g transform="translate(22.475 15.159375) scale(0.1 -0.1)">
       <use xlink:href="#NotoSansCJKjp-Regular-32"/>
       <use xlink:href="#NotoSansCJKjp-Regular-30" transform="translate(55.499985 0)"/>
       <use xlink:href="#NotoSansCJKjp-Regular-25" transform="translate(110.999969 0)"/>
      </g>
     </g>
    </g>
    <g id="text_15">
     <!-- Proportion -->
     <g transform="translate(15.955312 225.837812) rotate(-90) scale(0.11 -0.11)">
      <defs>
       <path id="NotoSansCJKjp-Regular-50" d="M 640 0 
L 1235 0 
L 1235 1862 
L 2010 1862 
C 3040 1862 3738 2323 3738 3315 
C 3738 4339 3034 4698 1984 4698 
L 640 4698 
L 640 0 
z
M 1235 2342 
L 1235 4211 
L 1907 4211 
C 2733 4211 3149 3994 3149 3315 
C 3149 2643 2758 2342 1933 2342 
L 1235 2342 
z
" transform="scale(0.015625)"/>
       <path id="NotoSansCJKjp-Regular-6f" d="M 1939 -83 
C 2790 -83 3552 582 3552 1734 
C 3552 2893 2790 3565 1939 3565 
C 1088 3565 326 2893 326 1734 
C 326 582 1088 -83 1939 -83 
z
M 1939 403 
C 1338 403 934 934 934 1734 
C 934 2534 1338 3078 1939 3078 
C 2541 3078 2950 2534 2950 1734 
C 2950 934 2541 403 1939 403 
z
" transform="scale(0.015625)"/>
       <path id="NotoSansCJKjp-Regular-70" d="M 589 -1466 
L 1171 -1466 
L 1171 -288 
L 1158 320 
C 1472 64 1805 -83 2118 -83 
C 2918 -83 3629 602 3629 1792 
C 3629 2861 3142 3565 2246 3565 
C 1843 3565 1453 3334 1139 3078 
L 1120 3078 
L 1069 3475 
L 589 3475 
L 589 -1466 
z
M 2022 403 
C 1792 403 1485 499 1171 768 
L 1171 2592 
C 1510 2906 1811 3072 2106 3072 
C 2765 3072 3021 2554 3021 1786 
C 3021 922 2598 403 2022 403 
z
" transform="scale(0.015625)"/>
       <path id="NotoSansCJKjp-Regular-74" d="M 1683 -83 
C 1894 -83 2125 -19 2323 45 
L 2208 480 
C 2093 435 1933 390 1811 390 
C 1408 390 1274 634 1274 1062 
L 1274 3002 
L 2214 3002 
L 2214 3475 
L 1274 3475 
L 1274 4454 
L 787 4454 
L 717 3475 
L 173 3443 
L 173 3002 
L 691 3002 
L 691 1075 
C 691 384 941 -83 1683 -83 
z
" transform="scale(0.015625)"/>
       <path id="NotoSansCJKjp-Regular-69" d="M 589 0 
L 1171 0 
L 1171 3475 
L 589 3475 
L 589 0 
z
M 883 4192 
C 1114 4192 1274 4346 1274 4582 
C 1274 4806 1114 4960 883 4960 
C 653 4960 493 4806 493 4582 
C 493 4346 653 4192 883 4192 
z
" transform="scale(0.015625)"/>
       <path id="NotoSansCJKjp-Regular-6e" d="M 589 0 
L 1171 0 
L 1171 2522 
C 1523 2874 1766 3053 2125 3053 
C 2586 3053 2784 2778 2784 2125 
L 2784 0 
L 3366 0 
L 3366 2202 
C 3366 3091 3034 3565 2304 3565 
C 1830 3565 1472 3302 1139 2976 
L 1120 2976 
L 1069 3475 
L 589 3475 
L 589 0 
z
" transform="scale(0.015625)"/>
      </defs>
      <use xlink:href="#NotoSansCJKjp-Regular-50"/>
      <use xlink:href="#NotoSansCJKjp-Regular-72" transform="translate(63.199997 0)"/>
      <use xlink:href="#NotoSansCJKjp-Regular-6f" transform="translate(101.999985 0)"/>
      <use xlink:href="#NotoSansCJKjp-Regular-70" transform="translate(162.599976 0)"/>
      <use xlink:href="#NotoSansCJKjp-Regular-6f" transform="translate(224.59996 0)"/>
      <use xlink:href="#NotoSansCJKjp-Regular-72" transform="translate(285.199951 0)"/>
      <use xlink:href="#NotoSansCJKjp-Regular-74" transform="translate(323.999939 0)"/>
      <use xlink:href="#NotoSansCJKjp-Regular-69" transform="translate(361.699936 0)"/>
      <use xlink:href="#NotoSansCJKjp-Regular-6f" transform="translate(389.199921 0)"/>
      <use xlink:href="#NotoSansCJKjp-Regular-6e" transform="translate(449.799911 0)"/>
     </g>
    </g>
   </g>
   <g id="FillBetweenPolyCollection_1">
    <defs>
     <path id="m26580492a6" d="M 79.043693 -56.250984 
L 79.043693 -39.725 
L 81.000838 -39.725 
L 82.957983 -39.725 
L 84.915128 -39.725 
L 86.872273 -39.725 
L 88.829418 -39.725 
L 90.786563 -39.725 
L 92.743708 -39.725 
L 94.700853 -39.725 
L 96.657998 -39.725 
L 98.615143 -39.725 
L 100.572288 -39.725 
L 102.529434 -39.725 
L 104.486579 -39.725 
L 106.443724 -39.725 
L 108.400869 -39.725 
L 110.358014 -39.725 
L 112.315159 -39.725 
L 114.272304 -39.725 
L 116.229449 -39.725 
L 118.186594 -39.725 
L 120.143739 -39.725 
L 122.100884 -39.725 
L 124.058029 -39.725 
L 126.015174 -39.725 
L 127.972319 -39.725 
L 129.929464 -39.725 
L 131.886609 -39.725 
L 133.843754 -39.725 
L 135.800899 -39.725 
L 137.758044 -39.725 
L 139.715189 -39.725 
L 141.672334 -39.725 
L 143.629479 -39.725 
L 145.586624 -39.725 
L 147.543769 -39.725 
L 149.500914 -39.725 
L 151.458059 -39.725 
L 153.415204 -39.725 
L 155.372349 -39.725 
L 157.329494 -39.725 
L 159.286639 -39.725 
L 161.243784 -39.725 
L 163.200929 -39.725 
L 165.158074 -39.725 
L 167.115219 -39.725 
L 169.072365 -39.725 
L 171.02951 -39.725 
L 172.986655 -39.725 
L 174.9438 -39.725 
L 176.900945 -39.725 
L 178.85809 -39.725 
L 180.815235 -39.725 
L 182.77238 -39.725 
L 184.729525 -39.725 
L 186.68667 -39.725 
L 188.643815 -39.725 
L 190.60096 -39.725 
L 192.558105 -39.725 
L 194.51525 -39.725 
L 196.472395 -39.725 
L 198.42954 -39.725 
L 200.386685 -39.725 
L 202.34383 -39.725 
L 204.300975 -39.725 
L 206.25812 -39.725 
L 208.215265 -39.725 
L 210.17241 -39.725 
L 212.129555 -39.725 
L 214.0867 -39.725 
L 216.043845 -39.725 
L 218.00099 -39.725 
L 219.958135 -39.725 
L 221.91528 -39.725 
L 223.872425 -39.725 
L 225.82957 -39.725 
L 227.786715 -39.725 
L 229.74386 -39.725 
L 231.701005 -39.725 
L 233.65815 -39.725 
L 235.615295 -39.725 
L 237.572441 -39.725 
L 239.529586 -39.725 
L 241.486731 -39.725 
L 243.443876 -39.725 
L 245.401021 -39.725 
L 247.358166 -39.725 
L 249.315311 -39.725 
L 251.272456 -39.725 
L 253.229601 -39.725 
L 255.186746 -39.725 
L 257.143891 -39.725 
L 259.101036 -39.725 
L 261.058181 -39.725 
L 263.015326 -39.725 
L 264.972471 -39.725 
L 266.929616 -39.725 
L 268.886761 -39.725 
L 270.843906 -39.725 
L 272.801051 -39.725 
L 274.758196 -39.725 
L 276.715341 -39.725 
L 278.672486 -39.725 
L 280.629631 -39.725 
L 282.586776 -39.725 
L 284.543921 -39.725 
L 286.501066 -39.725 
L 288.458211 -39.725 
L 290.415356 -39.725 
L 292.372501 -39.725 
L 294.329646 -39.725 
L 296.286791 -39.725 
L 298.243936 -39.725 
L 300.201081 -39.725 
L 302.158226 -39.725 
L 304.115372 -39.725 
L 306.072517 -39.725 
L 308.029662 -39.725 
L 309.986807 -39.725 
L 311.943952 -39.725 
L 313.901097 -39.725 
L 315.858242 -39.725 
L 317.815387 -39.725 
L 319.772532 -39.725 
L 321.729677 -39.725 
L 323.686822 -39.725 
L 325.643967 -39.725 
L 327.601112 -39.725 
L 329.558257 -39.725 
L 331.515402 -39.725 
L 333.472547 -39.725 
L 335.429692 -39.725 
L 337.386837 -39.725 
L 339.343982 -39.725 
L 341.301127 -39.725 
L 343.258272 -39.725 
L 345.215417 -39.725 
L 347.172562 -39.725 
L 349.129707 -39.725 
L 351.086852 -39.725 
L 353.043997 -39.725 
L 355.001142 -39.725 
L 356.958287 -39.725 
L 358.915432 -39.725 
L 360.872577 -39.725 
L 362.829722 -39.725 
L 364.786867 -39.725 
L 366.744012 -39.725 
L 368.701157 -39.725 
L 370.658302 -39.725 
L 372.615448 -39.725 
L 374.572593 -39.725 
L 376.529738 -39.725 
L 378.486883 -39.725 
L 380.444028 -39.725 
L 382.401173 -39.725 
L 384.358318 -39.725 
L 386.315463 -39.725 
L 388.272608 -39.725 
L 390.229753 -39.725 
L 392.186898 -39.725 
L 394.144043 -39.725 
L 396.101188 -39.725 
L 398.058333 -39.725 
L 400.015478 -39.725 
L 401.972623 -39.725 
L 403.929768 -39.725 
L 405.886913 -39.725 
L 407.844058 -39.725 
L 409.801203 -39.725 
L 411.758348 -39.725 
L 413.715493 -39.725 
L 415.672638 -39.725 
L 417.629783 -39.725 
L 419.586928 -39.725 
L 421.544073 -39.725 
L 423.501218 -39.725 
L 425.458363 -39.725 
L 427.415508 -39.725 
L 429.372653 -39.725 
L 431.329798 -39.725 
L 433.286943 -39.725 
L 435.244088 -39.725 
L 437.201233 -39.725 
L 439.158378 -39.725 
L 441.115524 -39.725 
L 443.072669 -39.725 
L 445.029814 -39.725 
L 446.986959 -39.725 
L 448.944104 -39.725 
L 450.901249 -39.725 
L 452.858394 -39.725 
L 454.815539 -39.725 
L 456.772684 -39.725 
L 458.729829 -39.725 
L 460.686974 -39.725 
L 462.644119 -39.725 
L 464.601264 -39.725 
L 466.558409 -39.725 
L 468.515554 -39.725 
L 470.472699 -39.725 
L 472.429844 -39.725 
L 474.386989 -39.725 
L 476.344134 -39.725 
L 478.301279 -39.725 
L 480.258424 -39.725 
L 482.215569 -39.725 
L 484.172714 -39.725 
L 486.129859 -39.725 
L 488.087004 -39.725 
L 490.044149 -39.725 
L 492.001294 -39.725 
L 493.958439 -39.725 
L 495.915584 -39.725 
L 497.872729 -39.725 
L 499.829874 -39.725 
L 501.787019 -39.725 
L 503.744164 -39.725 
L 505.701309 -39.725 
L 507.658455 -39.725 
L 509.6156 -39.725 
L 511.572745 -39.725 
L 513.52989 -39.725 
L 515.487035 -39.725 
L 517.44418 -39.725 
L 519.401325 -39.725 
L 521.35847 -39.725 
L 523.315615 -39.725 
L 525.27276 -39.725 
L 527.229905 -39.725 
L 529.18705 -39.725 
L 531.144195 -39.725 
L 533.10134 -39.725 
L 535.058485 -39.725 
L 537.01563 -39.725 
L 538.972775 -39.725 
L 540.92992 -39.725 
L 542.887065 -39.725 
L 544.84421 -39.725 
L 546.801355 -39.725 
L 548.7585 -39.725 
L 550.715645 -39.725 
L 552.67279 -39.725 
L 554.629935 -39.725 
L 556.58708 -39.725 
L 558.544225 -39.725 
L 560.50137 -39.725 
L 562.458515 -39.725 
L 564.41566 -39.725 
L 566.372805 -39.725 
L 568.32995 -39.725 
L 570.287095 -39.725 
L 572.24424 -39.725 
L 574.201385 -39.725 
L 576.158531 -39.725 
L 578.115676 -39.725 
L 580.072821 -39.725 
L 582.029966 -39.725 
L 583.987111 -39.725 
L 585.944256 -39.725 
L 587.901401 -39.725 
L 589.858546 -39.725 
L 591.815691 -39.725 
L 593.772836 -39.725 
L 595.729981 -39.725 
L 597.687126 -39.725 
L 599.644271 -39.725 
L 601.601416 -39.725 
L 603.558561 -39.725 
L 605.515706 -39.725 
L 607.472851 -39.725 
L 609.429996 -39.725 
L 611.387141 -39.725 
L 613.344286 -39.725 
L 615.301431 -39.725 
L 617.258576 -39.725 
L 619.215721 -39.725 
L 621.172866 -39.725 
L 623.130011 -39.725 
L 625.087156 -39.725 
L 627.044301 -39.725 
L 629.001446 -39.725 
L 630.958591 -39.725 
L 632.915736 -39.725 
L 634.872881 -39.725 
L 636.830026 -39.725 
L 638.787171 -39.725 
L 640.744316 -39.725 
L 642.701462 -39.725 
L 644.658607 -39.725 
L 646.615752 -39.725 
L 648.572897 -39.725 
L 650.530042 -39.725 
L 652.487187 -39.725 
L 654.444332 -39.725 
L 656.401477 -39.725 
L 658.358622 -39.725 
L 660.315767 -39.725 
L 662.272912 -39.725 
L 664.230057 -39.725 
L 664.230057 -71.580085 
L 664.230057 -71.580085 
L 662.272912 -69.838149 
L 660.315767 -68.178929 
L 658.358622 -66.608055 
L 656.401477 -65.131153 
L 654.444332 -63.753852 
L 652.487187 -62.481781 
L 650.530042 -61.320566 
L 648.572897 -60.275837 
L 646.615752 -59.35322 
L 644.658607 -58.558345 
L 642.701462 -57.89684 
L 640.744316 -57.374331 
L 638.787171 -56.996448 
L 636.830026 -56.768818 
L 634.872881 -56.697157 
L 632.915736 -56.818385 
L 630.958591 -57.138394 
L 629.001446 -57.626245 
L 627.044301 -58.251 
L 625.087156 -58.981719 
L 623.130011 -59.787465 
L 621.172866 -60.637299 
L 619.215721 -61.500282 
L 617.258576 -62.345474 
L 615.301431 -63.141939 
L 613.344286 -63.858736 
L 611.387141 -64.464928 
L 609.429996 -64.929575 
L 607.472851 -65.221739 
L 605.515706 -65.311293 
L 603.558561 -65.270719 
L 601.601416 -65.167625 
L 599.644271 -65.008992 
L 597.687126 -64.801804 
L 595.729981 -64.553042 
L 593.772836 -64.269692 
L 591.815691 -63.958734 
L 589.858546 -63.627151 
L 587.901401 -63.281928 
L 585.944256 -62.930046 
L 583.987111 -62.578488 
L 582.029966 -62.234237 
L 580.072821 -61.904276 
L 578.115676 -61.595588 
L 576.158531 -61.314345 
L 574.201385 -61.02242 
L 572.24424 -60.701201 
L 570.287095 -60.358164 
L 568.32995 -60.00079 
L 566.372805 -59.636555 
L 564.41566 -59.272939 
L 562.458515 -58.91742 
L 560.50137 -58.577476 
L 558.544225 -58.260585 
L 556.58708 -57.974226 
L 554.629935 -57.725878 
L 552.67279 -57.523018 
L 550.715645 -57.373125 
L 548.7585 -57.283678 
L 546.801355 -57.26181 
L 544.84421 -57.300017 
L 542.887065 -57.386697 
L 540.92992 -57.514127 
L 538.972775 -57.67458 
L 537.01563 -57.860333 
L 535.058485 -58.06366 
L 533.10134 -58.276837 
L 531.144195 -58.492138 
L 529.18705 -58.701838 
L 527.229905 -58.898213 
L 525.27276 -59.073537 
L 523.315615 -59.220086 
L 521.35847 -59.330134 
L 519.401325 -59.395957 
L 517.44418 -59.410556 
L 515.487035 -59.385425 
L 513.52989 -59.330685 
L 511.572745 -59.251092 
L 509.6156 -59.151402 
L 507.658455 -59.036373 
L 505.701309 -58.91076 
L 503.744164 -58.77932 
L 501.787019 -58.64681 
L 499.829874 -58.517987 
L 497.872729 -58.397606 
L 495.915584 -58.290425 
L 493.958439 -58.2012 
L 492.001294 -58.134687 
L 490.044149 -58.095644 
L 488.087004 -58.087443 
L 486.129859 -58.091634 
L 484.172714 -58.100948 
L 482.215569 -58.115247 
L 480.258424 -58.134395 
L 478.301279 -58.158252 
L 476.344134 -58.186682 
L 474.386989 -58.219548 
L 472.429844 -58.256712 
L 470.472699 -58.298036 
L 468.515554 -58.343384 
L 466.558409 -58.392617 
L 464.601264 -58.445598 
L 462.644119 -58.50219 
L 460.686974 -58.562255 
L 458.729829 -58.634844 
L 456.772684 -58.822489 
L 454.815539 -59.13697 
L 452.858394 -59.556881 
L 450.901249 -60.060817 
L 448.944104 -60.627372 
L 446.986959 -61.23514 
L 445.029814 -61.862716 
L 443.072669 -62.488694 
L 441.115524 -63.091667 
L 439.158378 -63.650231 
L 437.201233 -64.14298 
L 435.244088 -64.548507 
L 433.286943 -64.845407 
L 431.329798 -65.012275 
L 429.372653 -65.036701 
L 427.415508 -64.989008 
L 425.458363 -64.892504 
L 423.501218 -64.751814 
L 421.544073 -64.571567 
L 419.586928 -64.356389 
L 417.629783 -64.110905 
L 415.672638 -63.839744 
L 413.715493 -63.547532 
L 411.758348 -63.238895 
L 409.801203 -62.91846 
L 407.844058 -62.590854 
L 405.886913 -62.260704 
L 403.929768 -61.932635 
L 401.972623 -61.611276 
L 400.015478 -61.290804 
L 398.058333 -60.902326 
L 396.101188 -60.444637 
L 394.144043 -59.932662 
L 392.186898 -59.381325 
L 390.229753 -58.805548 
L 388.272608 -58.220256 
L 386.315463 -57.640371 
L 384.358318 -57.080818 
L 382.401173 -56.556519 
L 380.444028 -56.082398 
L 378.486883 -55.673379 
L 376.529738 -55.344384 
L 374.572593 -55.110339 
L 372.615448 -54.986165 
L 370.658302 -54.980997 
L 368.701157 -55.066202 
L 366.744012 -55.228375 
L 364.786867 -55.458923 
L 362.829722 -55.749253 
L 360.872577 -56.090771 
L 358.915432 -56.474883 
L 356.958287 -56.892996 
L 355.001142 -57.336517 
L 353.043997 -57.796851 
L 351.086852 -58.265404 
L 349.129707 -58.733585 
L 347.172562 -59.192798 
L 345.215417 -59.63445 
L 343.258272 -60.049947 
L 341.301127 -60.446471 
L 339.343982 -60.891898 
L 337.386837 -61.384609 
L 335.429692 -61.912298 
L 333.472547 -62.462661 
L 331.515402 -63.023393 
L 329.558257 -63.58219 
L 327.601112 -64.126747 
L 325.643967 -64.644759 
L 323.686822 -65.123921 
L 321.729677 -65.551929 
L 319.772532 -65.916478 
L 317.815387 -66.205263 
L 315.858242 -66.40598 
L 313.901097 -66.506324 
L 311.943952 -66.479249 
L 309.986807 -66.268948 
L 308.029662 -65.895559 
L 306.072517 -65.386843 
L 304.115372 -64.770558 
L 302.158226 -64.074465 
L 300.201081 -63.326322 
L 298.243936 -62.55389 
L 296.286791 -61.784928 
L 294.329646 -61.047196 
L 292.372501 -60.368452 
L 290.415356 -59.776457 
L 288.458211 -59.29897 
L 286.501066 -58.963751 
L 284.543921 -58.798558 
L 282.586776 -58.792092 
L 280.629631 -58.823209 
L 278.672486 -58.87729 
L 276.715341 -58.950391 
L 274.758196 -59.038572 
L 272.801051 -59.137889 
L 270.843906 -59.244401 
L 268.886761 -59.354165 
L 266.929616 -59.46324 
L 264.972471 -59.567682 
L 263.015326 -59.66355 
L 261.058181 -59.746901 
L 259.101036 -59.813794 
L 257.143891 -59.860286 
L 255.186746 -59.882434 
L 253.229601 -59.854047 
L 251.272456 -59.71666 
L 249.315311 -59.482613 
L 247.358166 -59.168646 
L 245.401021 -58.791494 
L 243.443876 -58.367895 
L 241.486731 -57.914588 
L 239.529586 -57.448308 
L 237.572441 -56.985795 
L 235.615295 -56.543785 
L 233.65815 -56.139016 
L 231.701005 -55.788226 
L 229.74386 -55.508152 
L 227.786715 -55.315531 
L 225.82957 -55.227101 
L 223.872425 -55.283752 
L 221.91528 -55.537517 
L 219.958135 -55.961783 
L 218.00099 -56.526767 
L 216.043845 -57.202687 
L 214.0867 -57.959764 
L 212.129555 -58.768213 
L 210.17241 -59.598254 
L 208.215265 -60.420106 
L 206.25812 -61.203985 
L 204.300975 -61.920112 
L 202.34383 -62.538703 
L 200.386685 -63.029977 
L 198.42954 -63.364153 
L 196.472395 -63.511448 
L 194.51525 -63.50638 
L 192.558105 -63.46847 
L 190.60096 -63.402648 
L 188.643815 -63.310032 
L 186.68667 -63.19174 
L 184.729525 -63.048891 
L 182.77238 -62.882602 
L 180.815235 -62.693991 
L 178.85809 -62.484176 
L 176.900945 -62.254276 
L 174.9438 -62.005408 
L 172.986655 -61.73869 
L 171.02951 -61.455241 
L 169.072365 -61.156178 
L 167.115219 -60.842619 
L 165.158074 -60.354036 
L 163.200929 -59.448347 
L 161.243784 -58.187282 
L 159.286639 -56.637855 
L 157.329494 -54.867076 
L 155.372349 -52.941959 
L 153.415204 -50.929514 
L 151.458059 -48.896753 
L 149.500914 -46.91069 
L 147.543769 -45.038334 
L 145.586624 -43.346699 
L 143.629479 -41.902797 
L 141.672334 -40.773638 
L 139.715189 -40.026236 
L 137.758044 -39.727601 
L 135.800899 -39.901593 
L 133.843754 -40.475476 
L 131.886609 -41.388158 
L 129.929464 -42.578867 
L 127.972319 -43.986834 
L 126.015174 -45.551287 
L 124.058029 -47.211454 
L 122.100884 -48.906564 
L 120.143739 -50.575847 
L 118.186594 -52.158531 
L 116.229449 -53.593845 
L 114.272304 -54.821017 
L 112.315159 -55.779277 
L 110.358014 -56.407854 
L 108.400869 -56.645975 
L 106.443724 -56.64644 
L 104.486579 -56.645664 
L 102.529434 -56.643503 
L 100.572288 -56.639246 
L 98.615143 -56.632184 
L 96.657998 -56.621605 
L 94.700853 -56.606801 
L 92.743708 -56.58706 
L 90.786563 -56.561672 
L 88.829418 -56.529927 
L 86.872273 -56.491114 
L 84.915128 -56.444524 
L 82.957983 -56.389446 
L 81.000838 -56.325169 
L 79.043693 -56.250984 
z
" style="stroke: #d62728; stroke-opacity: 0.7"/>
    </defs>
    <g clip-path="url(#p8f4c6a508b)">
     <use xlink:href="#m26580492a6" x="0" y="424.024687" style="fill: #d62728; fill-opacity: 0.7; stroke: #d62728; stroke-opacity: 0.7"/>
    </g>
   </g>
   <g id="FillBetweenPolyCollection_2">
    <defs>
     <path id="mfa27cdb53e" d="M 79.043693 -122.354921 
L 79.043693 -56.250984 
L 81.000838 -56.325169 
L 82.957983 -56.389446 
L 84.915128 -56.444524 
L 86.872273 -56.491114 
L 88.829418 -56.529927 
L 90.786563 -56.561672 
L 92.743708 -56.58706 
L 94.700853 -56.606801 
L 96.657998 -56.621605 
L 98.615143 -56.632184 
L 100.572288 -56.639246 
L 102.529434 -56.643503 
L 104.486579 -56.645664 
L 106.443724 -56.64644 
L 108.400869 -56.645975 
L 110.358014 -56.407854 
L 112.315159 -55.779277 
L 114.272304 -54.821017 
L 116.229449 -53.593845 
L 118.186594 -52.158531 
L 120.143739 -50.575847 
L 122.100884 -48.906564 
L 124.058029 -47.211454 
L 126.015174 -45.551287 
L 127.972319 -43.986834 
L 129.929464 -42.578867 
L 131.886609 -41.388158 
L 133.843754 -40.475476 
L 135.800899 -39.901593 
L 137.758044 -39.727601 
L 139.715189 -40.026236 
L 141.672334 -40.773638 
L 143.629479 -41.902797 
L 145.586624 -43.346699 
L 147.543769 -45.038334 
L 149.500914 -46.91069 
L 151.458059 -48.896753 
L 153.415204 -50.929514 
L 155.372349 -52.941959 
L 157.329494 -54.867076 
L 159.286639 -56.637855 
L 161.243784 -58.187282 
L 163.200929 -59.448347 
L 165.158074 -60.354036 
L 167.115219 -60.842619 
L 169.072365 -61.156178 
L 171.02951 -61.455241 
L 172.986655 -61.73869 
L 174.9438 -62.005408 
L 176.900945 -62.254276 
L 178.85809 -62.484176 
L 180.815235 -62.693991 
L 182.77238 -62.882602 
L 184.729525 -63.048891 
L 186.68667 -63.19174 
L 188.643815 -63.310032 
L 190.60096 -63.402648 
L 192.558105 -63.46847 
L 194.51525 -63.50638 
L 196.472395 -63.511448 
L 198.42954 -63.364153 
L 200.386685 -63.029977 
L 202.34383 -62.538703 
L 204.300975 -61.920112 
L 206.25812 -61.203985 
L 208.215265 -60.420106 
L 210.17241 -59.598254 
L 212.129555 -58.768213 
L 214.0867 -57.959764 
L 216.043845 -57.202687 
L 218.00099 -56.526767 
L 219.958135 -55.961783 
L 221.91528 -55.537517 
L 223.872425 -55.283752 
L 225.82957 -55.227101 
L 227.786715 -55.315531 
L 229.74386 -55.508152 
L 231.701005 -55.788226 
L 233.65815 -56.139016 
L 235.615295 -56.543785 
L 237.572441 -56.985795 
L 239.529586 -57.448308 
L 241.486731 -57.914588 
L 243.443876 -58.367895 
L 245.401021 -58.791494 
L 247.358166 -59.168646 
L 249.315311 -59.482613 
L 251.272456 -59.71666 
L 253.229601 -59.854047 
L 255.186746 -59.882434 
L 257.143891 -59.860286 
L 259.101036 -59.813794 
L 261.058181 -59.746901 
L 263.015326 -59.66355 
L 264.972471 -59.567682 
L 266.929616 -59.46324 
L 268.886761 -59.354165 
L 270.843906 -59.244401 
L 272.801051 -59.137889 
L 274.758196 -59.038572 
L 276.715341 -58.950391 
L 278.672486 -58.87729 
L 280.629631 -58.823209 
L 282.586776 -58.792092 
L 284.543921 -58.798558 
L 286.501066 -58.963751 
L 288.458211 -59.29897 
L 290.415356 -59.776457 
L 292.372501 -60.368452 
L 294.329646 -61.047196 
L 296.286791 -61.784928 
L 298.243936 -62.55389 
L 300.201081 -63.326322 
L 302.158226 -64.074465 
L 304.115372 -64.770558 
L 306.072517 -65.386843 
L 308.029662 -65.895559 
L 309.986807 -66.268948 
L 311.943952 -66.479249 
L 313.901097 -66.506324 
L 315.858242 -66.40598 
L 317.815387 -66.205263 
L 319.772532 -65.916478 
L 321.729677 -65.551929 
L 323.686822 -65.123921 
L 325.643967 -64.644759 
L 327.601112 -64.126747 
L 329.558257 -63.58219 
L 331.515402 -63.023393 
L 333.472547 -62.462661 
L 335.429692 -61.912298 
L 337.386837 -61.384609 
L 339.343982 -60.891898 
L 341.301127 -60.446471 
L 343.258272 -60.049947 
L 345.215417 -59.63445 
L 347.172562 -59.192798 
L 349.129707 -58.733585 
L 351.086852 -58.265404 
L 353.043997 -57.796851 
L 355.001142 -57.336517 
L 356.958287 -56.892996 
L 358.915432 -56.474883 
L 360.872577 -56.090771 
L 362.829722 -55.749253 
L 364.786867 -55.458923 
L 366.744012 -55.228375 
L 368.701157 -55.066202 
L 370.658302 -54.980997 
L 372.615448 -54.986165 
L 374.572593 -55.110339 
L 376.529738 -55.344384 
L 378.486883 -55.673379 
L 380.444028 -56.082398 
L 382.401173 -56.556519 
L 384.358318 -57.080818 
L 386.315463 -57.640371 
L 388.272608 -58.220256 
L 390.229753 -58.805548 
L 392.186898 -59.381325 
L 394.144043 -59.932662 
L 396.101188 -60.444637 
L 398.058333 -60.902326 
L 400.015478 -61.290804 
L 401.972623 -61.611276 
L 403.929768 -61.932635 
L 405.886913 -62.260704 
L 407.844058 -62.590854 
L 409.801203 -62.91846 
L 411.758348 -63.238895 
L 413.715493 -63.547532 
L 415.672638 -63.839744 
L 417.629783 -64.110905 
L 419.586928 -64.356389 
L 421.544073 -64.571567 
L 423.501218 -64.751814 
L 425.458363 -64.892504 
L 427.415508 -64.989008 
L 429.372653 -65.036701 
L 431.329798 -65.012275 
L 433.286943 -64.845407 
L 435.244088 -64.548507 
L 437.201233 -64.14298 
L 439.158378 -63.650231 
L 441.115524 -63.091667 
L 443.072669 -62.488694 
L 445.029814 -61.862716 
L 446.986959 -61.23514 
L 448.944104 -60.627372 
L 450.901249 -60.060817 
L 452.858394 -59.556881 
L 454.815539 -59.13697 
L 456.772684 -58.822489 
L 458.729829 -58.634844 
L 460.686974 -58.562255 
L 462.644119 -58.50219 
L 464.601264 -58.445598 
L 466.558409 -58.392617 
L 468.515554 -58.343384 
L 470.472699 -58.298036 
L 472.429844 -58.256712 
L 474.386989 -58.219548 
L 476.344134 -58.186682 
L 478.301279 -58.158252 
L 480.258424 -58.134395 
L 482.215569 -58.115247 
L 484.172714 -58.100948 
L 486.129859 -58.091634 
L 488.087004 -58.087443 
L 490.044149 -58.095644 
L 492.001294 -58.134687 
L 493.958439 -58.2012 
L 495.915584 -58.290425 
L 497.872729 -58.397606 
L 499.829874 -58.517987 
L 501.787019 -58.64681 
L 503.744164 -58.77932 
L 505.701309 -58.91076 
L 507.658455 -59.036373 
L 509.6156 -59.151402 
L 511.572745 -59.251092 
L 513.52989 -59.330685 
L 515.487035 -59.385425 
L 517.44418 -59.410556 
L 519.401325 -59.395957 
L 521.35847 -59.330134 
L 523.315615 -59.220086 
L 525.27276 -59.073537 
L 527.229905 -58.898213 
L 529.18705 -58.701838 
L 531.144195 -58.492138 
L 533.10134 -58.276837 
L 535.058485 -58.06366 
L 537.01563 -57.860333 
L 538.972775 -57.67458 
L 540.92992 -57.514127 
L 542.887065 -57.386697 
L 544.84421 -57.300017 
L 546.801355 -57.26181 
L 548.7585 -57.283678 
L 550.715645 -57.373125 
L 552.67279 -57.523018 
L 554.629935 -57.725878 
L 556.58708 -57.974226 
L 558.544225 -58.260585 
L 560.50137 -58.577476 
L 562.458515 -58.91742 
L 564.41566 -59.272939 
L 566.372805 -59.636555 
L 568.32995 -60.00079 
L 570.287095 -60.358164 
L 572.24424 -60.701201 
L 574.201385 -61.02242 
L 576.158531 -61.314345 
L 578.115676 -61.595588 
L 580.072821 -61.904276 
L 582.029966 -62.234237 
L 583.987111 -62.578488 
L 585.944256 -62.930046 
L 587.901401 -63.281928 
L 589.858546 -63.627151 
L 591.815691 -63.958734 
L 593.772836 -64.269692 
L 595.729981 -64.553042 
L 597.687126 -64.801804 
L 599.644271 -65.008992 
L 601.601416 -65.167625 
L 603.558561 -65.270719 
L 605.515706 -65.311293 
L 607.472851 -65.221739 
L 609.429996 -64.929575 
L 611.387141 -64.464928 
L 613.344286 -63.858736 
L 615.301431 -63.141939 
L 617.258576 -62.345474 
L 619.215721 -61.500282 
L 621.172866 -60.637299 
L 623.130011 -59.787465 
L 625.087156 -58.981719 
L 627.044301 -58.251 
L 629.001446 -57.626245 
L 630.958591 -57.138394 
L 632.915736 -56.818385 
L 634.872881 -56.697157 
L 636.830026 -56.768818 
L 638.787171 -56.996448 
L 640.744316 -57.374331 
L 642.701462 -57.89684 
L 644.658607 -58.558345 
L 646.615752 -59.35322 
L 648.572897 -60.275837 
L 650.530042 -61.320566 
L 652.487187 -62.481781 
L 654.444332 -63.753852 
L 656.401477 -65.131153 
L 658.358622 -66.608055 
L 660.315767 -68.178929 
L 662.272912 -69.838149 
L 664.230057 -71.580085 
L 664.230057 -253.015572 
L 664.230057 -253.015572 
L 662.272912 -246.890048 
L 660.315767 -240.975408 
L 658.358622 -235.303343 
L 656.401477 -229.905543 
L 654.444332 -224.813699 
L 652.487187 -220.059501 
L 650.530042 -215.67464 
L 648.572897 -211.690807 
L 646.615752 -208.139691 
L 644.658607 -205.052984 
L 642.701462 -202.462376 
L 640.744316 -200.399558 
L 638.787171 -198.89622 
L 636.830026 -197.984052 
L 634.872881 -197.6946 
L 632.915736 -197.976395 
L 630.958591 -198.720258 
L 629.001446 -199.854272 
L 627.044301 -201.306519 
L 625.087156 -203.005083 
L 623.130011 -204.878045 
L 621.172866 -206.85349 
L 619.215721 -208.859499 
L 617.258576 -210.824156 
L 615.301431 -212.675543 
L 613.344286 -214.341744 
L 611.387141 -215.750841 
L 609.429996 -216.830917 
L 607.472851 -217.510055 
L 605.515706 -217.717031 
L 603.558561 -217.48536 
L 601.601416 -216.900236 
L 599.644271 -216.006374 
L 597.687126 -214.848489 
L 595.729981 -213.471296 
L 593.772836 -211.919511 
L 591.815691 -210.237846 
L 589.858546 -208.471019 
L 587.901401 -206.663743 
L 585.944256 -204.860733 
L 583.987111 -203.106704 
L 582.029966 -201.446371 
L 580.072821 -199.924449 
L 578.115676 -198.585653 
L 576.158531 -197.470967 
L 574.201385 -196.411014 
L 572.24424 -195.306767 
L 570.287095 -194.175717 
L 568.32995 -193.035354 
L 566.372805 -191.90317 
L 564.41566 -190.796655 
L 562.458515 -189.733301 
L 560.50137 -188.730598 
L 558.544225 -187.806038 
L 556.58708 -186.97711 
L 554.629935 -186.261307 
L 552.67279 -185.676118 
L 550.715645 -185.239035 
L 548.7585 -184.96755 
L 546.801355 -184.876369 
L 544.84421 -184.885116 
L 542.887065 -184.944254 
L 540.92992 -185.046081 
L 538.972775 -185.182896 
L 537.01563 -185.346996 
L 535.058485 -185.530678 
L 533.10134 -185.726239 
L 531.144195 -185.925979 
L 529.18705 -186.122194 
L 527.229905 -186.307182 
L 525.27276 -186.47324 
L 523.315615 -186.612667 
L 521.35847 -186.717759 
L 519.401325 -186.780815 
L 517.44418 -186.804122 
L 515.487035 -186.99246 
L 513.52989 -187.402705 
L 511.572745 -187.999208 
L 509.6156 -188.746322 
L 507.658455 -189.6084 
L 505.701309 -190.549794 
L 503.744164 -191.534856 
L 501.787019 -192.527938 
L 499.829874 -193.493394 
L 497.872729 -194.395576 
L 495.915584 -195.198835 
L 493.958439 -195.867524 
L 492.001294 -196.365997 
L 490.044149 -196.658604 
L 488.087004 -196.717003 
L 486.129859 -196.635096 
L 484.172714 -196.463685 
L 482.215569 -196.217955 
L 480.258424 -195.913094 
L 478.301279 -195.564288 
L 476.344134 -195.186724 
L 474.386989 -194.79559 
L 472.429844 -194.406071 
L 470.472699 -194.033356 
L 468.515554 -193.692632 
L 466.558409 -193.399084 
L 464.601264 -193.1679 
L 462.644119 -193.014267 
L 460.686974 -192.953372 
L 458.729829 -193.011608 
L 456.772684 -193.322826 
L 454.815539 -193.896642 
L 452.858394 -194.700669 
L 450.901249 -195.70252 
L 448.944104 -196.86981 
L 446.986959 -198.17015 
L 445.029814 -199.571156 
L 443.072669 -201.040439 
L 441.115524 -202.545614 
L 439.158378 -204.054294 
L 437.201233 -205.534093 
L 435.244088 -206.952623 
L 433.286943 -208.277498 
L 431.329798 -209.476332 
L 429.372653 -210.561888 
L 427.415508 -211.909017 
L 425.458363 -213.557007 
L 423.501218 -215.441649 
L 421.544073 -217.498734 
L 419.586928 -219.664053 
L 417.629783 -221.873398 
L 415.672638 -224.062559 
L 413.715493 -226.167328 
L 411.758348 -228.123495 
L 409.801203 -229.866853 
L 407.844058 -231.333192 
L 405.886913 -232.458302 
L 403.929768 -233.177977 
L 401.972623 -233.428005 
L 400.015478 -233.131844 
L 398.058333 -232.191226 
L 396.101188 -230.677996 
L 394.144043 -228.690632 
L 392.186898 -226.327608 
L 390.229753 -223.687399 
L 388.272608 -220.868482 
L 386.315463 -217.969332 
L 384.358318 -215.088424 
L 382.401173 -212.324234 
L 380.444028 -209.775238 
L 378.486883 -207.53991 
L 376.529738 -205.716727 
L 374.572593 -204.404163 
L 372.615448 -203.700696 
L 370.658302 -203.645606 
L 368.701157 -203.931225 
L 366.744012 -204.466526 
L 364.786867 -205.214009 
L 362.829722 -206.136174 
L 360.872577 -207.195523 
L 358.915432 -208.354555 
L 356.958287 -209.575772 
L 355.001142 -210.821673 
L 353.043997 -212.054759 
L 351.086852 -213.23753 
L 349.129707 -214.332487 
L 347.172562 -215.302131 
L 345.215417 -216.108962 
L 343.258272 -216.715479 
L 341.301127 -216.952838 
L 339.343982 -216.208949 
L 337.386837 -214.538275 
L 335.429692 -212.089492 
L 333.472547 -209.011273 
L 331.515402 -205.452292 
L 329.558257 -201.561223 
L 327.601112 -197.48674 
L 325.643967 -193.377516 
L 323.686822 -189.382226 
L 321.729677 -185.649544 
L 319.772532 -182.328143 
L 317.815387 -179.566698 
L 315.858242 -177.513882 
L 313.901097 -176.318369 
L 311.943952 -175.905335 
L 309.986807 -175.449806 
L 308.029662 -174.876061 
L 306.072517 -174.204285 
L 304.115372 -173.454664 
L 302.158226 -172.647381 
L 300.201081 -171.802624 
L 298.243936 -170.940576 
L 296.286791 -170.081423 
L 294.329646 -169.24535 
L 292.372501 -168.452542 
L 290.415356 -167.723185 
L 288.458211 -167.077464 
L 286.501066 -166.535563 
L 284.543921 -166.117669 
L 282.586776 -165.658486 
L 280.629631 -164.574888 
L 278.672486 -162.909794 
L 276.715341 -160.761493 
L 274.758196 -158.228278 
L 272.801051 -155.408439 
L 270.843906 -152.400268 
L 268.886761 -149.302056 
L 266.929616 -146.212093 
L 264.972471 -143.228671 
L 263.015326 -140.450081 
L 261.058181 -137.974614 
L 259.101036 -135.900562 
L 257.143891 -134.326214 
L 255.186746 -133.349863 
L 253.229601 -132.861579 
L 251.272456 -132.317547 
L 249.315311 -131.698681 
L 247.358166 -131.022933 
L 245.401021 -130.308259 
L 243.443876 -129.572611 
L 241.486731 -128.833943 
L 239.529586 -128.11021 
L 237.572441 -127.419364 
L 235.615295 -126.77936 
L 233.65815 -126.20815 
L 231.701005 -125.72369 
L 229.74386 -125.343932 
L 227.786715 -125.086831 
L 225.82957 -124.970339 
L 223.872425 -125.399414 
L 221.91528 -127.219807 
L 219.958135 -130.26329 
L 218.00099 -134.316222 
L 216.043845 -139.164965 
L 214.0867 -144.595877 
L 212.129555 -150.395319 
L 210.17241 -156.349649 
L 208.215265 -162.245229 
L 206.25812 -167.868417 
L 204.300975 -173.005574 
L 202.34383 -177.443059 
L 200.386685 -180.967232 
L 198.42954 -183.364453 
L 196.472395 -184.421082 
L 194.51525 -183.949162 
L 192.558105 -182.019664 
L 190.60096 -178.846653 
L 188.643815 -174.645452 
L 186.68667 -169.631379 
L 184.729525 -164.019757 
L 182.77238 -158.025906 
L 180.815235 -151.865146 
L 178.85809 -145.752798 
L 176.900945 -139.904183 
L 174.9438 -134.534621 
L 172.986655 -129.859434 
L 171.02951 -126.093942 
L 169.072365 -123.453465 
L 167.115219 -122.153325 
L 165.158074 -121.847778 
L 163.200929 -121.648847 
L 161.243784 -121.52958 
L 159.286639 -121.479647 
L 157.329494 -121.488721 
L 155.372349 -121.546473 
L 153.415204 -121.642576 
L 151.458059 -121.766701 
L 149.500914 -121.908519 
L 147.543769 -122.057704 
L 145.586624 -122.203926 
L 143.629479 -122.336858 
L 141.672334 -122.446172 
L 139.715189 -122.521538 
L 137.758044 -122.552631 
L 135.800899 -122.416962 
L 133.843754 -121.975175 
L 131.886609 -121.272575 
L 129.929464 -120.355942 
L 127.972319 -119.272061 
L 126.015174 -118.067713 
L 124.058029 -116.789683 
L 122.100884 -115.484752 
L 120.143739 -114.199705 
L 118.186594 -112.981323 
L 116.229449 -111.876389 
L 114.272304 -110.931687 
L 112.315159 -110.193999 
L 110.358014 -109.710108 
L 108.400869 -109.526797 
L 106.443724 -109.548038 
L 104.486579 -109.62676 
L 102.529434 -109.776885 
L 100.572288 -110.012719 
L 98.615143 -110.348566 
L 96.657998 -110.798732 
L 94.700853 -111.377523 
L 92.743708 -112.099242 
L 90.786563 -112.978196 
L 88.829418 -114.028689 
L 86.872273 -115.265026 
L 84.915128 -116.701513 
L 82.957983 -118.352454 
L 81.000838 -120.232155 
L 79.043693 -122.354921 
z
" style="stroke: #1f77b4; stroke-opacity: 0.7"/>
    </defs>
    <g clip-path="url(#p8f4c6a508b)">
     <use xlink:href="#mfa27cdb53e" x="0" y="424.024687" style="fill: #1f77b4; fill-opacity: 0.7; stroke: #1f77b4; stroke-opacity: 0.7"/>
    </g>
   </g>
   <g id="FillBetweenPolyCollection_3">
    <defs>
     <path id="mcb0489028c" d="M 79.043693 -122.354921 
L 79.043693 -122.354921 
L 81.000838 -120.232155 
L 82.957983 -118.352454 
L 84.915128 -116.701513 
L 86.872273 -115.265026 
L 88.829418 -114.028689 
L 90.786563 -112.978196 
L 92.743708 -112.099242 
L 94.700853 -111.377523 
L 96.657998 -110.798732 
L 98.615143 -110.348566 
L 100.572288 -110.012719 
L 102.529434 -109.776885 
L 104.486579 -109.62676 
L 106.443724 -109.548038 
L 108.400869 -109.526797 
L 110.358014 -109.710108 
L 112.315159 -110.193999 
L 114.272304 -110.931687 
L 116.229449 -111.876389 
L 118.186594 -112.981323 
L 120.143739 -114.199705 
L 122.100884 -115.484752 
L 124.058029 -116.789683 
L 126.015174 -118.067713 
L 127.972319 -119.272061 
L 129.929464 -120.355942 
L 131.886609 -121.272575 
L 133.843754 -121.975175 
L 135.800899 -122.416962 
L 137.758044 -122.552631 
L 139.715189 -122.521538 
L 141.672334 -122.446172 
L 143.629479 -122.336858 
L 145.586624 -122.203926 
L 147.543769 -122.057704 
L 149.500914 -121.908519 
L 151.458059 -121.766701 
L 153.415204 -121.642576 
L 155.372349 -121.546473 
L 157.329494 -121.488721 
L 159.286639 -121.479647 
L 161.243784 -121.52958 
L 163.200929 -121.648847 
L 165.158074 -121.847778 
L 167.115219 -122.153325 
L 169.072365 -123.453465 
L 171.02951 -126.093942 
L 172.986655 -129.859434 
L 174.9438 -134.534621 
L 176.900945 -139.904183 
L 178.85809 -145.752798 
L 180.815235 -151.865146 
L 182.77238 -158.025906 
L 184.729525 -164.019757 
L 186.68667 -169.631379 
L 188.643815 -174.645452 
L 190.60096 -178.846653 
L 192.558105 -182.019664 
L 194.51525 -183.949162 
L 196.472395 -184.421082 
L 198.42954 -183.364453 
L 200.386685 -180.967232 
L 202.34383 -177.443059 
L 204.300975 -173.005574 
L 206.25812 -167.868417 
L 208.215265 -162.245229 
L 210.17241 -156.349649 
L 212.129555 -150.395319 
L 214.0867 -144.595877 
L 216.043845 -139.164965 
L 218.00099 -134.316222 
L 219.958135 -130.26329 
L 221.91528 -127.219807 
L 223.872425 -125.399414 
L 225.82957 -124.970339 
L 227.786715 -125.086831 
L 229.74386 -125.343932 
L 231.701005 -125.72369 
L 233.65815 -126.20815 
L 235.615295 -126.77936 
L 237.572441 -127.419364 
L 239.529586 -128.11021 
L 241.486731 -128.833943 
L 243.443876 -129.572611 
L 245.401021 -130.308259 
L 247.358166 -131.022933 
L 249.315311 -131.698681 
L 251.272456 -132.317547 
L 253.229601 -132.861579 
L 255.186746 -133.349863 
L 257.143891 -134.326214 
L 259.101036 -135.900562 
L 261.058181 -137.974614 
L 263.015326 -140.450081 
L 264.972471 -143.228671 
L 266.929616 -146.212093 
L 268.886761 -149.302056 
L 270.843906 -152.400268 
L 272.801051 -155.408439 
L 274.758196 -158.228278 
L 276.715341 -160.761493 
L 278.672486 -162.909794 
L 280.629631 -164.574888 
L 282.586776 -165.658486 
L 284.543921 -166.117669 
L 286.501066 -166.535563 
L 288.458211 -167.077464 
L 290.415356 -167.723185 
L 292.372501 -168.452542 
L 294.329646 -169.24535 
L 296.286791 -170.081423 
L 298.243936 -170.940576 
L 300.201081 -171.802624 
L 302.158226 -172.647381 
L 304.115372 -173.454664 
L 306.072517 -174.204285 
L 308.029662 -174.876061 
L 309.986807 -175.449806 
L 311.943952 -175.905335 
L 313.901097 -176.318369 
L 315.858242 -177.513882 
L 317.815387 -179.566698 
L 319.772532 -182.328143 
L 321.729677 -185.649544 
L 323.686822 -189.382226 
L 325.643967 -193.377516 
L 327.601112 -197.48674 
L 329.558257 -201.561223 
L 331.515402 -205.452292 
L 333.472547 -209.011273 
L 335.429692 -212.089492 
L 337.386837 -214.538275 
L 339.343982 -216.208949 
L 341.301127 -216.952838 
L 343.258272 -216.715479 
L 345.215417 -216.108962 
L 347.172562 -215.302131 
L 349.129707 -214.332487 
L 351.086852 -213.23753 
L 353.043997 -212.054759 
L 355.001142 -210.821673 
L 356.958287 -209.575772 
L 358.915432 -208.354555 
L 360.872577 -207.195523 
L 362.829722 -206.136174 
L 364.786867 -205.214009 
L 366.744012 -204.466526 
L 368.701157 -203.931225 
L 370.658302 -203.645606 
L 372.615448 -203.700696 
L 374.572593 -204.404163 
L 376.529738 -205.716727 
L 378.486883 -207.53991 
L 380.444028 -209.775238 
L 382.401173 -212.324234 
L 384.358318 -215.088424 
L 386.315463 -217.969332 
L 388.272608 -220.868482 
L 390.229753 -223.687399 
L 392.186898 -226.327608 
L 394.144043 -228.690632 
L 396.101188 -230.677996 
L 398.058333 -232.191226 
L 400.015478 -233.131844 
L 401.972623 -233.428005 
L 403.929768 -233.177977 
L 405.886913 -232.458302 
L 407.844058 -231.333192 
L 409.801203 -229.866853 
L 411.758348 -228.123495 
L 413.715493 -226.167328 
L 415.672638 -224.062559 
L 417.629783 -221.873398 
L 419.586928 -219.664053 
L 421.544073 -217.498734 
L 423.501218 -215.441649 
L 425.458363 -213.557007 
L 427.415508 -211.909017 
L 429.372653 -210.561888 
L 431.329798 -209.476332 
L 433.286943 -208.277498 
L 435.244088 -206.952623 
L 437.201233 -205.534093 
L 439.158378 -204.054294 
L 441.115524 -202.545614 
L 443.072669 -201.040439 
L 445.029814 -199.571156 
L 446.986959 -198.17015 
L 448.944104 -196.86981 
L 450.901249 -195.70252 
L 452.858394 -194.700669 
L 454.815539 -193.896642 
L 456.772684 -193.322826 
L 458.729829 -193.011608 
L 460.686974 -192.953372 
L 462.644119 -193.014267 
L 464.601264 -193.1679 
L 466.558409 -193.399084 
L 468.515554 -193.692632 
L 470.472699 -194.033356 
L 472.429844 -194.406071 
L 474.386989 -194.79559 
L 476.344134 -195.186724 
L 478.301279 -195.564288 
L 480.258424 -195.913094 
L 482.215569 -196.217955 
L 484.172714 -196.463685 
L 486.129859 -196.635096 
L 488.087004 -196.717003 
L 490.044149 -196.658604 
L 492.001294 -196.365997 
L 493.958439 -195.867524 
L 495.915584 -195.198835 
L 497.872729 -194.395576 
L 499.829874 -193.493394 
L 501.787019 -192.527938 
L 503.744164 -191.534856 
L 505.701309 -190.549794 
L 507.658455 -189.6084 
L 509.6156 -188.746322 
L 511.572745 -187.999208 
L 513.52989 -187.402705 
L 515.487035 -186.99246 
L 517.44418 -186.804122 
L 519.401325 -186.780815 
L 521.35847 -186.717759 
L 523.315615 -186.612667 
L 525.27276 -186.47324 
L 527.229905 -186.307182 
L 529.18705 -186.122194 
L 531.144195 -185.925979 
L 533.10134 -185.726239 
L 535.058485 -185.530678 
L 537.01563 -185.346996 
L 538.972775 -185.182896 
L 540.92992 -185.046081 
L 542.887065 -184.944254 
L 544.84421 -184.885116 
L 546.801355 -184.876369 
L 548.7585 -184.96755 
L 550.715645 -185.239035 
L 552.67279 -185.676118 
L 554.629935 -186.261307 
L 556.58708 -186.97711 
L 558.544225 -187.806038 
L 560.50137 -188.730598 
L 562.458515 -189.733301 
L 564.41566 -190.796655 
L 566.372805 -191.90317 
L 568.32995 -193.035354 
L 570.287095 -194.175717 
L 572.24424 -195.306767 
L 574.201385 -196.411014 
L 576.158531 -197.470967 
L 578.115676 -198.585653 
L 580.072821 -199.924449 
L 582.029966 -201.446371 
L 583.987111 -203.106704 
L 585.944256 -204.860733 
L 587.901401 -206.663743 
L 589.858546 -208.471019 
L 591.815691 -210.237846 
L 593.772836 -211.919511 
L 595.729981 -213.471296 
L 597.687126 -214.848489 
L 599.644271 -216.006374 
L 601.601416 -216.900236 
L 603.558561 -217.48536 
L 605.515706 -217.717031 
L 607.472851 -217.510055 
L 609.429996 -216.830917 
L 611.387141 -215.750841 
L 613.344286 -214.341744 
L 615.301431 -212.675543 
L 617.258576 -210.824156 
L 619.215721 -208.859499 
L 621.172866 -206.85349 
L 623.130011 -204.878045 
L 625.087156 -203.005083 
L 627.044301 -201.306519 
L 629.001446 -199.854272 
L 630.958591 -198.720258 
L 632.915736 -197.976395 
L 634.872881 -197.6946 
L 636.830026 -197.984052 
L 638.787171 -198.89622 
L 640.744316 -200.399558 
L 642.701462 -202.462376 
L 644.658607 -205.052984 
L 646.615752 -208.139691 
L 648.572897 -211.690807 
L 650.530042 -215.67464 
L 652.487187 -220.059501 
L 654.444332 -224.813699 
L 656.401477 -229.905543 
L 658.358622 -235.303343 
L 660.315767 -240.975408 
L 662.272912 -246.890048 
L 664.230057 -253.015572 
L 664.230057 -253.015572 
L 664.230057 -253.015572 
L 662.272912 -246.890048 
L 660.315767 -240.975408 
L 658.358622 -235.303343 
L 656.401477 -229.905543 
L 654.444332 -224.813699 
L 652.487187 -220.059501 
L 650.530042 -215.67464 
L 648.572897 -211.690807 
L 646.615752 -208.139691 
L 644.658607 -205.052984 
L 642.701462 -202.462376 
L 640.744316 -200.399558 
L 638.787171 -198.89622 
L 636.830026 -197.984052 
L 634.872881 -197.6946 
L 632.915736 -197.976395 
L 630.958591 -198.720258 
L 629.001446 -199.854272 
L 627.044301 -201.306519 
L 625.087156 -203.005083 
L 623.130011 -204.878045 
L 621.172866 -206.85349 
L 619.215721 -208.859499 
L 617.258576 -210.824156 
L 615.301431 -212.675543 
L 613.344286 -214.341744 
L 611.387141 -215.750841 
L 609.429996 -216.830917 
L 607.472851 -217.510055 
L 605.515706 -217.717031 
L 603.558561 -217.48536 
L 601.601416 -216.900236 
L 599.644271 -216.006374 
L 597.687126 -214.848489 
L 595.729981 -213.471296 
L 593.772836 -211.919511 
L 591.815691 -210.237846 
L 589.858546 -208.471019 
L 587.901401 -206.663743 
L 585.944256 -204.860733 
L 583.987111 -203.106704 
L 582.029966 -201.446371 
L 580.072821 -199.924449 
L 578.115676 -198.585653 
L 576.158531 -197.470967 
L 574.201385 -196.411014 
L 572.24424 -195.306767 
L 570.287095 -194.175717 
L 568.32995 -193.035354 
L 566.372805 -191.90317 
L 564.41566 -190.796655 
L 562.458515 -189.733301 
L 560.50137 -188.730598 
L 558.544225 -187.806038 
L 556.58708 -186.97711 
L 554.629935 -186.261307 
L 552.67279 -185.676118 
L 550.715645 -185.239035 
L 548.7585 -184.96755 
L 546.801355 -184.876369 
L 544.84421 -184.885116 
L 542.887065 -184.944254 
L 540.92992 -185.046081 
L 538.972775 -185.182896 
L 537.01563 -185.346996 
L 535.058485 -185.530678 
L 533.10134 -185.726239 
L 531.144195 -185.925979 
L 529.18705 -186.122194 
L 527.229905 -186.307182 
L 525.27276 -186.47324 
L 523.315615 -186.612667 
L 521.35847 -186.717759 
L 519.401325 -186.780815 
L 517.44418 -186.804122 
L 515.487035 -186.99246 
L 513.52989 -187.402705 
L 511.572745 -187.999208 
L 509.6156 -188.746322 
L 507.658455 -189.6084 
L 505.701309 -190.549794 
L 503.744164 -191.534856 
L 501.787019 -192.527938 
L 499.829874 -193.493394 
L 497.872729 -194.395576 
L 495.915584 -195.198835 
L 493.958439 -195.867524 
L 492.001294 -196.365997 
L 490.044149 -196.658604 
L 488.087004 -196.717003 
L 486.129859 -196.635096 
L 484.172714 -196.463685 
L 482.215569 -196.217955 
L 480.258424 -195.913094 
L 478.301279 -195.564288 
L 476.344134 -195.186724 
L 474.386989 -194.79559 
L 472.429844 -194.406071 
L 470.472699 -194.033356 
L 468.515554 -193.692632 
L 466.558409 -193.399084 
L 464.601264 -193.1679 
L 462.644119 -193.014267 
L 460.686974 -192.953372 
L 458.729829 -193.011608 
L 456.772684 -193.322826 
L 454.815539 -193.896642 
L 452.858394 -194.700669 
L 450.901249 -195.70252 
L 448.944104 -196.86981 
L 446.986959 -198.17015 
L 445.029814 -199.571156 
L 443.072669 -201.040439 
L 441.115524 -202.545614 
L 439.158378 -204.054294 
L 437.201233 -205.534093 
L 435.244088 -206.952623 
L 433.286943 -208.277498 
L 431.329798 -209.476332 
L 429.372653 -210.561888 
L 427.415508 -211.909017 
L 425.458363 -213.557007 
L 423.501218 -215.441649 
L 421.544073 -217.498734 
L 419.586928 -219.664053 
L 417.629783 -221.873398 
L 415.672638 -224.062559 
L 413.715493 -226.167328 
L 411.758348 -228.123495 
L 409.801203 -229.866853 
L 407.844058 -231.333192 
L 405.886913 -232.458302 
L 403.929768 -233.177977 
L 401.972623 -233.428005 
L 400.015478 -233.131844 
L 398.058333 -232.191226 
L 396.101188 -230.677996 
L 394.144043 -228.690632 
L 392.186898 -226.327608 
L 390.229753 -223.687399 
L 388.272608 -220.868482 
L 386.315463 -217.969332 
L 384.358318 -215.088424 
L 382.401173 -212.324234 
L 380.444028 -209.775238 
L 378.486883 -207.53991 
L 376.529738 -205.716727 
L 374.572593 -204.404163 
L 372.615448 -203.700696 
L 370.658302 -203.645606 
L 368.701157 -203.931225 
L 366.744012 -204.466526 
L 364.786867 -205.214009 
L 362.829722 -206.136174 
L 360.872577 -207.195523 
L 358.915432 -208.354555 
L 356.958287 -209.575772 
L 355.001142 -210.821673 
L 353.043997 -212.054759 
L 351.086852 -213.23753 
L 349.129707 -214.332487 
L 347.172562 -215.302131 
L 345.215417 -216.108962 
L 343.258272 -216.715479 
L 341.301127 -216.952838 
L 339.343982 -216.208949 
L 337.386837 -214.538275 
L 335.429692 -212.089492 
L 333.472547 -209.011273 
L 331.515402 -205.452292 
L 329.558257 -201.561223 
L 327.601112 -197.48674 
L 325.643967 -193.377516 
L 323.686822 -189.382226 
L 321.729677 -185.649544 
L 319.772532 -182.328143 
L 317.815387 -179.566698 
L 315.858242 -177.513882 
L 313.901097 -176.318369 
L 311.943952 -175.905335 
L 309.986807 -175.449806 
L 308.029662 -174.876061 
L 306.072517 -174.204285 
L 304.115372 -173.454664 
L 302.158226 -172.647381 
L 300.201081 -171.802624 
L 298.243936 -170.940576 
L 296.286791 -170.081423 
L 294.329646 -169.24535 
L 292.372501 -168.452542 
L 290.415356 -167.723185 
L 288.458211 -167.077464 
L 286.501066 -166.535563 
L 284.543921 -166.117669 
L 282.586776 -165.658486 
L 280.629631 -164.574888 
L 278.672486 -162.909794 
L 276.715341 -160.761493 
L 274.758196 -158.228278 
L 272.801051 -155.408439 
L 270.843906 -152.400268 
L 268.886761 -149.302056 
L 266.929616 -146.212093 
L 264.972471 -143.228671 
L 263.015326 -140.450081 
L 261.058181 -137.974614 
L 259.101036 -135.900562 
L 257.143891 -134.326214 
L 255.186746 -133.349863 
L 253.229601 -132.861579 
L 251.272456 -132.317547 
L 249.315311 -131.698681 
L 247.358166 -131.022933 
L 245.401021 -130.308259 
L 243.443876 -129.572611 
L 241.486731 -128.833943 
L 239.529586 -128.11021 
L 237.572441 -127.419364 
L 235.615295 -126.77936 
L 233.65815 -126.20815 
L 231.701005 -125.72369 
L 229.74386 -125.343932 
L 227.786715 -125.086831 
L 225.82957 -124.970339 
L 223.872425 -125.399414 
L 221.91528 -127.219807 
L 219.958135 -130.26329 
L 218.00099 -134.316222 
L 216.043845 -139.164965 
L 214.0867 -144.595877 
L 212.129555 -150.395319 
L 210.17241 -156.349649 
L 208.215265 -162.245229 
L 206.25812 -167.868417 
L 204.300975 -173.005574 
L 202.34383 -177.443059 
L 200.386685 -180.967232 
L 198.42954 -183.364453 
L 196.472395 -184.421082 
L 194.51525 -183.949162 
L 192.558105 -182.019664 
L 190.60096 -178.846653 
L 188.643815 -174.645452 
L 186.68667 -169.631379 
L 184.729525 -164.019757 
L 182.77238 -158.025906 
L 180.815235 -151.865146 
L 178.85809 -145.752798 
L 176.900945 -139.904183 
L 174.9438 -134.534621 
L 172.986655 -129.859434 
L 171.02951 -126.093942 
L 169.072365 -123.453465 
L 167.115219 -122.153325 
L 165.158074 -121.847778 
L 163.200929 -121.648847 
L 161.243784 -121.52958 
L 159.286639 -121.479647 
L 157.329494 -121.488721 
L 155.372349 -121.546473 
L 153.415204 -121.642576 
L 151.458059 -121.766701 
L 149.500914 -121.908519 
L 147.543769 -122.057704 
L 145.586624 -122.203926 
L 143.629479 -122.336858 
L 141.672334 -122.446172 
L 139.715189 -122.521538 
L 137.758044 -122.552631 
L 135.800899 -122.416962 
L 133.843754 -121.975175 
L 131.886609 -121.272575 
L 129.929464 -120.355942 
L 127.972319 -119.272061 
L 126.015174 -118.067713 
L 124.058029 -116.789683 
L 122.100884 -115.484752 
L 120.143739 -114.199705 
L 118.186594 -112.981323 
L 116.229449 -111.876389 
L 114.272304 -110.931687 
L 112.315159 -110.193999 
L 110.358014 -109.710108 
L 108.400869 -109.526797 
L 106.443724 -109.548038 
L 104.486579 -109.62676 
L 102.529434 -109.776885 
L 100.572288 -110.012719 
L 98.615143 -110.348566 
L 96.657998 -110.798732 
L 94.700853 -111.377523 
L 92.743708 -112.099242 
L 90.786563 -112.978196 
L 88.829418 -114.028689 
L 86.872273 -115.265026 
L 84.915128 -116.701513 
L 82.957983 -118.352454 
L 81.000838 -120.232155 
L 79.043693 -122.354921 
z
" style="stroke: #2ca02c; stroke-opacity: 0.7"/>
    </defs>
    <g clip-path="url(#p8f4c6a508b)">
     <use xlink:href="#mcb0489028c" x="0" y="424.024687" style="fill: #2ca02c; fill-opacity: 0.7; stroke: #2ca02c; stroke-opacity: 0.7"/>
    </g>
   </g>
   <g id="FillBetweenPolyCollection_4">
    <defs>
     <path id="mbd6898662f" d="M 79.043693 -138.880906 
L 79.043693 -122.354921 
L 81.000838 -120.232155 
L 82.957983 -118.352454 
L 84.915128 -116.701513 
L 86.872273 -115.265026 
L 88.829418 -114.028689 
L 90.786563 -112.978196 
L 92.743708 -112.099242 
L 94.700853 -111.377523 
L 96.657998 -110.798732 
L 98.615143 -110.348566 
L 100.572288 -110.012719 
L 102.529434 -109.776885 
L 104.486579 -109.62676 
L 106.443724 -109.548038 
L 108.400869 -109.526797 
L 110.358014 -109.710108 
L 112.315159 -110.193999 
L 114.272304 -110.931687 
L 116.229449 -111.876389 
L 118.186594 -112.981323 
L 120.143739 -114.199705 
L 122.100884 -115.484752 
L 124.058029 -116.789683 
L 126.015174 -118.067713 
L 127.972319 -119.272061 
L 129.929464 -120.355942 
L 131.886609 -121.272575 
L 133.843754 -121.975175 
L 135.800899 -122.416962 
L 137.758044 -122.552631 
L 139.715189 -122.521538 
L 141.672334 -122.446172 
L 143.629479 -122.336858 
L 145.586624 -122.203926 
L 147.543769 -122.057704 
L 149.500914 -121.908519 
L 151.458059 -121.766701 
L 153.415204 -121.642576 
L 155.372349 -121.546473 
L 157.329494 -121.488721 
L 159.286639 -121.479647 
L 161.243784 -121.52958 
L 163.200929 -121.648847 
L 165.158074 -121.847778 
L 167.115219 -122.153325 
L 169.072365 -123.453465 
L 171.02951 -126.093942 
L 172.986655 -129.859434 
L 174.9438 -134.534621 
L 176.900945 -139.904183 
L 178.85809 -145.752798 
L 180.815235 -151.865146 
L 182.77238 -158.025906 
L 184.729525 -164.019757 
L 186.68667 -169.631379 
L 188.643815 -174.645452 
L 190.60096 -178.846653 
L 192.558105 -182.019664 
L 194.51525 -183.949162 
L 196.472395 -184.421082 
L 198.42954 -183.364453 
L 200.386685 -180.967232 
L 202.34383 -177.443059 
L 204.300975 -173.005574 
L 206.25812 -167.868417 
L 208.215265 -162.245229 
L 210.17241 -156.349649 
L 212.129555 -150.395319 
L 214.0867 -144.595877 
L 216.043845 -139.164965 
L 218.00099 -134.316222 
L 219.958135 -130.26329 
L 221.91528 -127.219807 
L 223.872425 -125.399414 
L 225.82957 -124.970339 
L 227.786715 -125.086831 
L 229.74386 -125.343932 
L 231.701005 -125.72369 
L 233.65815 -126.20815 
L 235.615295 -126.77936 
L 237.572441 -127.419364 
L 239.529586 -128.11021 
L 241.486731 -128.833943 
L 243.443876 -129.572611 
L 245.401021 -130.308259 
L 247.358166 -131.022933 
L 249.315311 -131.698681 
L 251.272456 -132.317547 
L 253.229601 -132.861579 
L 255.186746 -133.349863 
L 257.143891 -134.326214 
L 259.101036 -135.900562 
L 261.058181 -137.974614 
L 263.015326 -140.450081 
L 264.972471 -143.228671 
L 266.929616 -146.212093 
L 268.886761 -149.302056 
L 270.843906 -152.400268 
L 272.801051 -155.408439 
L 274.758196 -158.228278 
L 276.715341 -160.761493 
L 278.672486 -162.909794 
L 280.629631 -164.574888 
L 282.586776 -165.658486 
L 284.543921 -166.117669 
L 286.501066 -166.535563 
L 288.458211 -167.077464 
L 290.415356 -167.723185 
L 292.372501 -168.452542 
L 294.329646 -169.24535 
L 296.286791 -170.081423 
L 298.243936 -170.940576 
L 300.201081 -171.802624 
L 302.158226 -172.647381 
L 304.115372 -173.454664 
L 306.072517 -174.204285 
L 308.029662 -174.876061 
L 309.986807 -175.449806 
L 311.943952 -175.905335 
L 313.901097 -176.318369 
L 315.858242 -177.513882 
L 317.815387 -179.566698 
L 319.772532 -182.328143 
L 321.729677 -185.649544 
L 323.686822 -189.382226 
L 325.643967 -193.377516 
L 327.601112 -197.48674 
L 329.558257 -201.561223 
L 331.515402 -205.452292 
L 333.472547 -209.011273 
L 335.429692 -212.089492 
L 337.386837 -214.538275 
L 339.343982 -216.208949 
L 341.301127 -216.952838 
L 343.258272 -216.715479 
L 345.215417 -216.108962 
L 347.172562 -215.302131 
L 349.129707 -214.332487 
L 351.086852 -213.23753 
L 353.043997 -212.054759 
L 355.001142 -210.821673 
L 356.958287 -209.575772 
L 358.915432 -208.354555 
L 360.872577 -207.195523 
L 362.829722 -206.136174 
L 364.786867 -205.214009 
L 366.744012 -204.466526 
L 368.701157 -203.931225 
L 370.658302 -203.645606 
L 372.615448 -203.700696 
L 374.572593 -204.404163 
L 376.529738 -205.716727 
L 378.486883 -207.53991 
L 380.444028 -209.775238 
L 382.401173 -212.324234 
L 384.358318 -215.088424 
L 386.315463 -217.969332 
L 388.272608 -220.868482 
L 390.229753 -223.687399 
L 392.186898 -226.327608 
L 394.144043 -228.690632 
L 396.101188 -230.677996 
L 398.058333 -232.191226 
L 400.015478 -233.131844 
L 401.972623 -233.428005 
L 403.929768 -233.177977 
L 405.886913 -232.458302 
L 407.844058 -231.333192 
L 409.801203 -229.866853 
L 411.758348 -228.123495 
L 413.715493 -226.167328 
L 415.672638 -224.062559 
L 417.629783 -221.873398 
L 419.586928 -219.664053 
L 421.544073 -217.498734 
L 423.501218 -215.441649 
L 425.458363 -213.557007 
L 427.415508 -211.909017 
L 429.372653 -210.561888 
L 431.329798 -209.476332 
L 433.286943 -208.277498 
L 435.244088 -206.952623 
L 437.201233 -205.534093 
L 439.158378 -204.054294 
L 441.115524 -202.545614 
L 443.072669 -201.040439 
L 445.029814 -199.571156 
L 446.986959 -198.17015 
L 448.944104 -196.86981 
L 450.901249 -195.70252 
L 452.858394 -194.700669 
L 454.815539 -193.896642 
L 456.772684 -193.322826 
L 458.729829 -193.011608 
L 460.686974 -192.953372 
L 462.644119 -193.014267 
L 464.601264 -193.1679 
L 466.558409 -193.399084 
L 468.515554 -193.692632 
L 470.472699 -194.033356 
L 472.429844 -194.406071 
L 474.386989 -194.79559 
L 476.344134 -195.186724 
L 478.301279 -195.564288 
L 480.258424 -195.913094 
L 482.215569 -196.217955 
L 484.172714 -196.463685 
L 486.129859 -196.635096 
L 488.087004 -196.717003 
L 490.044149 -196.658604 
L 492.001294 -196.365997 
L 493.958439 -195.867524 
L 495.915584 -195.198835 
L 497.872729 -194.395576 
L 499.829874 -193.493394 
L 501.787019 -192.527938 
L 503.744164 -191.534856 
L 505.701309 -190.549794 
L 507.658455 -189.6084 
L 509.6156 -188.746322 
L 511.572745 -187.999208 
L 513.52989 -187.402705 
L 515.487035 -186.99246 
L 517.44418 -186.804122 
L 519.401325 -186.780815 
L 521.35847 -186.717759 
L 523.315615 -186.612667 
L 525.27276 -186.47324 
L 527.229905 -186.307182 
L 529.18705 -186.122194 
L 531.144195 -185.925979 
L 533.10134 -185.726239 
L 535.058485 -185.530678 
L 537.01563 -185.346996 
L 538.972775 -185.182896 
L 540.92992 -185.046081 
L 542.887065 -184.944254 
L 544.84421 -184.885116 
L 546.801355 -184.876369 
L 548.7585 -184.96755 
L 550.715645 -185.239035 
L 552.67279 -185.676118 
L 554.629935 -186.261307 
L 556.58708 -186.97711 
L 558.544225 -187.806038 
L 560.50137 -188.730598 
L 562.458515 -189.733301 
L 564.41566 -190.796655 
L 566.372805 -191.90317 
L 568.32995 -193.035354 
L 570.287095 -194.175717 
L 572.24424 -195.306767 
L 574.201385 -196.411014 
L 576.158531 -197.470967 
L 578.115676 -198.585653 
L 580.072821 -199.924449 
L 582.029966 -201.446371 
L 583.987111 -203.106704 
L 585.944256 -204.860733 
L 587.901401 -206.663743 
L 589.858546 -208.471019 
L 591.815691 -210.237846 
L 593.772836 -211.919511 
L 595.729981 -213.471296 
L 597.687126 -214.848489 
L 599.644271 -216.006374 
L 601.601416 -216.900236 
L 603.558561 -217.48536 
L 605.515706 -217.717031 
L 607.472851 -217.510055 
L 609.429996 -216.830917 
L 611.387141 -215.750841 
L 613.344286 -214.341744 
L 615.301431 -212.675543 
L 617.258576 -210.824156 
L 619.215721 -208.859499 
L 621.172866 -206.85349 
L 623.130011 -204.878045 
L 625.087156 -203.005083 
L 627.044301 -201.306519 
L 629.001446 -199.854272 
L 630.958591 -198.720258 
L 632.915736 -197.976395 
L 634.872881 -197.6946 
L 636.830026 -197.984052 
L 638.787171 -198.89622 
L 640.744316 -200.399558 
L 642.701462 -202.462376 
L 644.658607 -205.052984 
L 646.615752 -208.139691 
L 648.572897 -211.690807 
L 650.530042 -215.67464 
L 652.487187 -220.059501 
L 654.444332 -224.813699 
L 656.401477 -229.905543 
L 658.358622 -235.303343 
L 660.315767 -240.975408 
L 662.272912 -246.890048 
L 664.230057 -253.015572 
L 664.230057 -322.265757 
L 664.230057 -322.265757 
L 662.272912 -313.373365 
L 660.315767 -304.720522 
L 658.358622 -296.363139 
L 656.401477 -288.357127 
L 654.444332 -280.758399 
L 652.487187 -273.622864 
L 650.530042 -267.006434 
L 648.572897 -260.96502 
L 646.615752 -255.554534 
L 644.658607 -250.830886 
L 642.701462 -246.849987 
L 640.744316 -243.667749 
L 638.787171 -241.340083 
L 636.830026 -239.922901 
L 634.872881 -239.471513 
L 632.915736 -239.756036 
L 630.958591 -240.507508 
L 629.001446 -241.653902 
L 627.044301 -243.123188 
L 625.087156 -244.843338 
L 623.130011 -246.742325 
L 621.172866 -248.74812 
L 619.215721 -250.788694 
L 617.258576 -252.79202 
L 615.301431 -254.686069 
L 613.344286 -256.398812 
L 611.387141 -257.858222 
L 609.429996 -258.99227 
L 607.472851 -259.728928 
L 605.515706 -259.997761 
L 603.558561 -259.933226 
L 601.601416 -259.671564 
L 599.644271 -259.232314 
L 597.687126 -258.635017 
L 595.729981 -257.89921 
L 593.772836 -257.044435 
L 591.815691 -256.09023 
L 589.858546 -255.056134 
L 587.901401 -253.961688 
L 585.944256 -252.826431 
L 583.987111 -251.669901 
L 582.029966 -250.511639 
L 580.072821 -249.371184 
L 578.115676 -248.268075 
L 576.158531 -247.220184 
L 574.201385 -246.15356 
L 572.24424 -245.032539 
L 570.287095 -243.874822 
L 568.32995 -242.698108 
L 566.372805 -241.5201 
L 564.41566 -240.358497 
L 562.458515 -239.231001 
L 560.50137 -238.155312 
L 558.544225 -237.149131 
L 556.58708 -236.230158 
L 554.629935 -235.416095 
L 552.67279 -234.724642 
L 550.715645 -234.173499 
L 548.7585 -233.780369 
L 546.801355 -233.551727 
L 544.84421 -233.143007 
L 542.887065 -232.422462 
L 540.92992 -231.441513 
L 538.972775 -230.251579 
L 537.01563 -228.90408 
L 535.058485 -227.450436 
L 533.10134 -225.942067 
L 531.144195 -224.430393 
L 529.18705 -222.966834 
L 527.229905 -221.60281 
L 525.27276 -220.389741 
L 523.315615 -219.379046 
L 521.35847 -218.622146 
L 519.401325 -218.170461 
L 517.44418 -218.080258 
L 515.487035 -218.476669 
L 513.52989 -219.340144 
L 511.572745 -220.595654 
L 509.6156 -222.168167 
L 507.658455 -223.982654 
L 505.701309 -225.964083 
L 503.744164 -228.037424 
L 501.787019 -230.127648 
L 499.829874 -232.159723 
L 497.872729 -234.058618 
L 495.915584 -235.749305 
L 493.958439 -237.156751 
L 492.001294 -238.205927 
L 490.044149 -238.821802 
L 488.087004 -238.934149 
L 486.129859 -238.582659 
L 484.172714 -237.845369 
L 482.215569 -236.785449 
L 480.258424 -235.466069 
L 478.301279 -233.950399 
L 476.344134 -232.301608 
L 474.386989 -230.582867 
L 472.429844 -228.857345 
L 470.472699 -227.188211 
L 468.515554 -225.638637 
L 466.558409 -224.271792 
L 464.601264 -223.150845 
L 462.644119 -222.338966 
L 460.686974 -221.899326 
L 458.729829 -221.891116 
L 456.772684 -222.297425 
L 454.815539 -223.067216 
L 452.858394 -224.155558 
L 450.901249 -225.517521 
L 448.944104 -227.108173 
L 446.986959 -228.882584 
L 445.029814 -230.795823 
L 443.072669 -232.80296 
L 441.115524 -234.859064 
L 439.158378 -236.919205 
L 437.201233 -238.938451 
L 435.244088 -240.871873 
L 433.286943 -242.674539 
L 431.329798 -244.301519 
L 429.372653 -245.75598 
L 427.415508 -247.433544 
L 425.458363 -249.384999 
L 423.501218 -251.552115 
L 421.544073 -253.876664 
L 419.586928 -256.300415 
L 417.629783 -258.765139 
L 415.672638 -261.212607 
L 413.715493 -263.58459 
L 411.758348 -265.822857 
L 409.801203 -267.869181 
L 407.844058 -269.665331 
L 405.886913 -271.153077 
L 403.929768 -272.274192 
L 401.972623 -272.970444 
L 400.015478 -273.198618 
L 398.058333 -273.049083 
L 396.101188 -272.588372 
L 394.144043 -271.866024 
L 392.186898 -270.931577 
L 390.229753 -269.834572 
L 388.272608 -268.624548 
L 386.315463 -267.351043 
L 384.358318 -266.063597 
L 382.401173 -264.811749 
L 380.444028 -263.645039 
L 378.486883 -262.613005 
L 376.529738 -261.765186 
L 374.572593 -261.151123 
L 372.615448 -260.820354 
L 370.658302 -260.725216 
L 368.701157 -260.33332 
L 366.744012 -259.600286 
L 364.786867 -258.57908 
L 362.829722 -257.322666 
L 360.872577 -255.884009 
L 358.915432 -254.316074 
L 356.958287 -252.671827 
L 355.001142 -251.004231 
L 353.043997 -249.366253 
L 351.086852 -247.810856 
L 349.129707 -246.391007 
L 347.172562 -245.159669 
L 345.215417 -244.169808 
L 343.258272 -243.47439 
L 341.301127 -242.911092 
L 339.343982 -241.503189 
L 337.386837 -239.242248 
L 335.429692 -236.266844 
L 333.472547 -232.715552 
L 331.515402 -228.726946 
L 329.558257 -224.439602 
L 327.601112 -219.992093 
L 325.643967 -215.522995 
L 323.686822 -211.170882 
L 321.729677 -207.07433 
L 319.772532 -203.371911 
L 317.815387 -200.202202 
L 315.858242 -197.703777 
L 313.901097 -196.01521 
L 311.943952 -195.041889 
L 309.986807 -193.922236 
L 308.029662 -192.596533 
L 306.072517 -191.10611 
L 304.115372 -189.492295 
L 302.158226 -187.796417 
L 300.201081 -186.059805 
L 298.243936 -184.323788 
L 296.286791 -182.629695 
L 294.329646 -181.018855 
L 292.372501 -179.532595 
L 290.415356 -178.212247 
L 288.458211 -177.099137 
L 286.501066 -176.234596 
L 284.543921 -175.659951 
L 282.586776 -175.193706 
L 280.629631 -174.134803 
L 278.672486 -172.51389 
L 276.715341 -170.427345 
L 274.758196 -167.971547 
L 272.801051 -165.242875 
L 270.843906 -162.337705 
L 268.886761 -159.352416 
L 266.929616 -156.383388 
L 264.972471 -153.526997 
L 263.015326 -150.879623 
L 261.058181 -148.537643 
L 259.101036 -146.597437 
L 257.143891 -145.155381 
L 255.186746 -144.307855 
L 253.229601 -143.944084 
L 251.272456 -143.523194 
L 249.315311 -143.027989 
L 247.358166 -142.478175 
L 245.401021 -141.893453 
L 243.443876 -141.293528 
L 241.486731 -140.698103 
L 239.529586 -140.126882 
L 237.572441 -139.599568 
L 235.615295 -139.135864 
L 233.65815 -138.755475 
L 231.701005 -138.478103 
L 229.74386 -138.323452 
L 227.786715 -138.311227 
L 225.82957 -138.461129 
L 223.872425 -139.241393 
L 221.91528 -141.630524 
L 219.958135 -145.431282 
L 218.00099 -150.39378 
L 216.043845 -156.268133 
L 214.0867 -162.804455 
L 212.129555 -169.752859 
L 210.17241 -176.863461 
L 208.215265 -183.886373 
L 206.25812 -190.57171 
L 204.300975 -196.669587 
L 202.34383 -201.930116 
L 200.386685 -206.103413 
L 198.42954 -208.939591 
L 196.472395 -210.188765 
L 194.51525 -209.679881 
L 192.558105 -207.585358 
L 190.60096 -204.13798 
L 188.643815 -199.568808 
L 186.68667 -194.108905 
L 184.729525 -187.989333 
L 182.77238 -181.441153 
L 180.815235 -174.695427 
L 178.85809 -167.983219 
L 176.900945 -161.535589 
L 174.9438 -155.5836 
L 172.986655 -150.358314 
L 171.02951 -146.090793 
L 169.072365 -143.012099 
L 167.115219 -141.353295 
L 165.158074 -140.744071 
L 163.200929 -140.235541 
L 161.243784 -139.803636 
L 159.286639 -139.442126 
L 157.329494 -139.14478 
L 155.372349 -138.905367 
L 153.415204 -138.717658 
L 151.458059 -138.575421 
L 149.500914 -138.472426 
L 147.543769 -138.402442 
L 145.586624 -138.359239 
L 143.629479 -138.336587 
L 141.672334 -138.328255 
L 139.715189 -138.328011 
L 137.758044 -138.329627 
L 135.800899 -138.492617 
L 133.843754 -139.022215 
L 131.886609 -139.864468 
L 129.929464 -140.963294 
L 127.972319 -142.262612 
L 126.015174 -143.706341 
L 124.058029 -145.238398 
L 122.100884 -146.802701 
L 120.143739 -148.343171 
L 118.186594 -149.803724 
L 116.229449 -151.128278 
L 114.272304 -152.260754 
L 112.315159 -153.145068 
L 110.358014 -153.725139 
L 108.400869 -153.944885 
L 106.443724 -153.85587 
L 104.486579 -153.576798 
L 102.529434 -153.121571 
L 100.572288 -152.50382 
L 98.615143 -151.737178 
L 96.657998 -150.835278 
L 94.700853 -149.811753 
L 92.743708 -148.680234 
L 90.786563 -147.454353 
L 88.829418 -146.147745 
L 86.872273 -144.77404 
L 84.915128 -143.346871 
L 82.957983 -141.87987 
L 81.000838 -140.386671 
L 79.043693 -138.880906 
z
" style="stroke: #ff7f0e; stroke-opacity: 0.7"/>
    </defs>
    <g clip-path="url(#p8f4c6a508b)">
     <use xlink:href="#mbd6898662f" x="0" y="424.024687" style="fill: #ff7f0e; fill-opacity: 0.7; stroke: #ff7f0e; stroke-opacity: 0.7"/>
    </g>
   </g>
   <g id="legend_1">
    <g id="patch_3">
     <path d="M 58.784375 28.139063 
L 78.784375 28.139063 
L 78.784375 21.139063 
L 58.784375 21.139063 
z
" style="fill: #d62728; fill-opacity: 0.7; stroke: #d62728; stroke-opacity: 0.7; stroke-linejoin: miter"/>
    </g>
    <g id="text_16">
     <!-- Solo -->
     <g transform="translate(86.784375 28.139063) scale(0.1 -0.1)">
      <defs>
       <path id="NotoSansCJKjp-Regular-53" d="M 1946 -83 
C 2925 -83 3539 506 3539 1248 
C 3539 1946 3117 2266 2573 2502 
L 1901 2790 
C 1536 2944 1126 3117 1126 3571 
C 1126 3994 1472 4262 2003 4262 
C 2438 4262 2784 4090 3072 3821 
L 3386 4198 
C 3053 4544 2560 4781 2003 4781 
C 1152 4781 525 4256 525 3533 
C 525 2848 1043 2515 1478 2330 
L 2157 2035 
C 2598 1837 2938 1683 2938 1203 
C 2938 742 2566 435 1952 435 
C 1466 435 992 666 659 1018 
L 301 614 
C 710 186 1280 -83 1946 -83 
z
" transform="scale(0.015625)"/>
       <path id="NotoSansCJKjp-Regular-6c" d="M 1203 -83 
C 1363 -83 1459 -64 1542 -32 
L 1459 416 
C 1395 403 1370 403 1338 403 
C 1248 403 1171 474 1171 653 
L 1171 5094 
L 589 5094 
L 589 691 
C 589 198 768 -83 1203 -83 
z
" transform="scale(0.015625)"/>
      </defs>
      <use xlink:href="#NotoSansCJKjp-Regular-53"/>
      <use xlink:href="#NotoSansCJKjp-Regular-6f" transform="translate(59.699997 0)"/>
      <use xlink:href="#NotoSansCJKjp-Regular-6c" transform="translate(120.299988 0)"/>
      <use xlink:href="#NotoSansCJKjp-Regular-6f" transform="translate(148.799973 0)"/>
     </g>
    </g>
    <g id="patch_4">
     <path d="M 58.784375 43.389063 
L 78.784375 43.389063 
L 78.784375 36.389063 
L 58.784375 36.389063 
z
" style="fill: #1f77b4; fill-opacity: 0.7; stroke: #1f77b4; stroke-opacity: 0.7; stroke-linejoin: miter"/>
    </g>
    <g id="text_17">
     <!-- Initial -->
     <g transform="translate(86.784375 43.389063) scale(0.1 -0.1)">
      <defs>
       <path id="NotoSansCJKjp-Regular-49" d="M 640 0 
L 1235 0 
L 1235 4698 
L 640 4698 
L 640 0 
z
" transform="scale(0.015625)"/>
      </defs>
      <use xlink:href="#NotoSansCJKjp-Regular-49"/>
      <use xlink:href="#NotoSansCJKjp-Regular-6e" transform="translate(29.299988 0)"/>
      <use xlink:href="#NotoSansCJKjp-Regular-69" transform="translate(90.399979 0)"/>
      <use xlink:href="#NotoSansCJKjp-Regular-74" transform="translate(117.899963 0)"/>
      <use xlink:href="#NotoSansCJKjp-Regular-69" transform="translate(155.59996 0)"/>
      <use xlink:href="#NotoSansCJKjp-Regular-61" transform="translate(183.099945 0)"/>
      <use xlink:href="#NotoSansCJKjp-Regular-6c" transform="translate(239.499939 0)"/>
     </g>
    </g>
    <g id="patch_5">
     <path d="M 58.784375 58.639063 
L 78.784375 58.639063 
L 78.784375 51.639063 
L 58.784375 51.639063 
z
" style="fill: #2ca02c; fill-opacity: 0.7; stroke: #2ca02c; stroke-opacity: 0.7; stroke-linejoin: miter"/>
    </g>
    <g id="text_18">
     <!-- Middle -->
     <g transform="translate(86.784375 58.639063) scale(0.1 -0.1)">
      <defs>
       <path id="NotoSansCJKjp-Regular-4d" d="M 640 0 
L 1178 0 
L 1178 2598 
C 1178 3002 1133 3571 1107 3981 
L 1133 3981 
L 1504 2912 
L 2394 474 
L 2790 474 
L 3680 2912 
L 4051 3981 
L 4077 3981 
C 4045 3571 4000 3002 4000 2598 
L 4000 0 
L 4557 0 
L 4557 4698 
L 3840 4698 
L 2944 2182 
C 2835 1856 2733 1530 2624 1203 
L 2592 1203 
C 2477 1530 2368 1856 2259 2182 
L 1357 4698 
L 640 4698 
L 640 0 
z
" transform="scale(0.015625)"/>
       <path id="NotoSansCJKjp-Regular-64" d="M 1773 -83 
C 2189 -83 2554 141 2829 410 
L 2848 410 
L 2899 0 
L 3373 0 
L 3373 5094 
L 2797 5094 
L 2797 3757 
L 2822 3155 
C 2515 3411 2253 3565 1843 3565 
C 1050 3565 339 2861 339 1734 
C 339 576 902 -83 1773 -83 
z
M 1901 403 
C 1286 403 941 902 941 1741 
C 941 2534 1382 3072 1946 3072 
C 2234 3072 2496 2970 2797 2707 
L 2797 883 
C 2502 563 2221 403 1901 403 
z
" transform="scale(0.015625)"/>
      </defs>
      <use xlink:href="#NotoSansCJKjp-Regular-4d"/>
      <use xlink:href="#NotoSansCJKjp-Regular-69" transform="translate(81.199982 0)"/>
      <use xlink:href="#NotoSansCJKjp-Regular-64" transform="translate(108.699966 0)"/>
      <use xlink:href="#NotoSansCJKjp-Regular-64" transform="translate(170.699951 0)"/>
      <use xlink:href="#NotoSansCJKjp-Regular-6c" transform="translate(232.699936 0)"/>
      <use xlink:href="#NotoSansCJKjp-Regular-65" transform="translate(261.199921 0)"/>
     </g>
    </g>
    <g id="patch_6">
     <path d="M 58.784375 73.889063 
L 78.784375 73.889063 
L 78.784375 66.889063 
L 58.784375 66.889063 
z
" style="fill: #ff7f0e; fill-opacity: 0.7; stroke: #ff7f0e; stroke-opacity: 0.7; stroke-linejoin: miter"/>
    </g>
    <g id="text_19">
     <!-- End -->
     <g transform="translate(86.784375 73.889063) scale(0.1 -0.1)">
      <defs>
       <path id="NotoSansCJKjp-Regular-45" d="M 640 0 
L 3418 0 
L 3418 506 
L 1235 506 
L 1235 2214 
L 3014 2214 
L 3014 2720 
L 1235 2720 
L 1235 4192 
L 3347 4192 
L 3347 4698 
L 640 4698 
L 640 0 
z
" transform="scale(0.015625)"/>
      </defs>
      <use xlink:href="#NotoSansCJKjp-Regular-45"/>
      <use xlink:href="#NotoSansCJKjp-Regular-6e" transform="translate(58.799988 0)"/>
      <use xlink:href="#NotoSansCJKjp-Regular-64" transform="translate(119.899979 0)"/>
     </g>
    </g>
   </g>
  </g>
 </g>
 <defs>
  <clipPath id="p8f4c6a508b">
   <rect x="49.784375" y="11.179688" width="643.705" height="373.12"/>
  </clipPath>
 </defs>
</svg>
