<?xml version="1.0" encoding="utf-8" standalone="no"?>
<!DOCTYPE svg PUBLIC "-//W3C//DTD SVG 1.1//EN"
  "http://www.w3.org/Graphics/SVG/1.1/DTD/svg11.dtd">
<svg xmlns:xlink="http://www.w3.org/1999/xlink" width="313.620982pt" height="216.6575pt" viewBox="0 0 313.620982 216.6575" xmlns="http://www.w3.org/2000/svg" version="1.1">
 <metadata>
  <rdf:RDF xmlns:dc="http://purl.org/dc/elements/1.1/" xmlns:cc="http://creativecommons.org/ns#" xmlns:rdf="http://www.w3.org/1999/02/22-rdf-syntax-ns#">
   <cc:Work>
    <dc:type rdf:resource="http://purl.org/dc/dcmitype/StillImage"/>
    <dc:date>2026-04-28T10:25:39.635009</dc:date>
    <dc:format>image/svg+xml</dc:format>
    <dc:creator>
     <cc:Agent>
      <dc:title>Matplotlib v3.10.7, https://matplotlib.org/</dc:title>
     </cc:Agent>
    </dc:creator>
   </cc:Work>
  </rdf:RDF>
 </metadata>
 <defs>
  <style type="text/css">*{stroke-linejoin: round; stroke-linecap: butt}</style>
 </defs>
 <g id="figure_1">
  <g id="patch_1">
   <path d="M 0 216.6575 
L 313.620982 216.6575 
L 313.620982 -0 
L 0 -0 
z
" style="fill: #ffffff"/>
  </g>
  <g id="axes_1">
   <g id="patch_2">
    <path d="M 24.667188 196.73875 
L 300.497857 196.73875 
L 300.497857 19.5125 
L 24.667188 19.5125 
z
" style="fill: #ffffff"/>
   </g>
   <g id="matplotlib.axis_1">
    <g id="xtick_1">
     <g id="line2d_1">
      <defs>
       <path id="mb8cc21ab6b" d="M 0 0 
L 0 3.5 
" style="stroke: #000000; stroke-width: 0.8"/>
      </defs>
      <g>
       <use xlink:href="#mb8cc21ab6b" x="37.204945" y="196.73875" style="stroke: #000000; stroke-width: 0.8"/>
      </g>
     </g>
     <g id="text_1">
      <!-- 2004 -->
      <g transform="translate(31.28182 208.23875) scale(0.06 -0.06)">
       <defs>
        <path id="RobotoCondensed-Regular-32" d="M 2909 475 
L 2909 0 
L 366 0 
L 366 416 
L 1628 2088 
Q 1966 2541 2077 2802 
Q 2188 3063 2188 3328 
Q 2188 3663 2027 3900 
Q 1866 4138 1575 4138 
Q 1194 4138 1022 3878 
Q 850 3619 850 3213 
L 297 3213 
Q 297 3788 617 4200 
Q 938 4613 1575 4613 
Q 2125 4613 2433 4278 
Q 2741 3944 2741 3397 
Q 2741 2997 2541 2594 
Q 2341 2191 2047 1809 
L 1028 475 
L 2909 475 
z
" transform="scale(0.015625)"/>
        <path id="RobotoCondensed-Regular-30" d="M 2797 1944 
Q 2797 825 2467 381 
Q 2138 -63 1581 -63 
Q 1038 -63 703 370 
Q 369 803 359 1878 
L 359 2638 
Q 359 3753 695 4183 
Q 1031 4613 1578 4613 
Q 2131 4613 2461 4189 
Q 2791 3766 2797 2681 
L 2797 1944 
z
M 2247 2734 
Q 2247 3503 2073 3822 
Q 1900 4141 1578 4141 
Q 1266 4141 1092 3833 
Q 919 3525 913 2791 
L 913 1850 
Q 913 1088 1089 750 
Q 1266 413 1581 413 
Q 1903 413 2072 738 
Q 2241 1063 2247 1794 
L 2247 2734 
z
" transform="scale(0.015625)"/>
        <path id="RobotoCondensed-Regular-34" d="M 188 1397 
L 1878 4550 
L 2463 4550 
L 2463 1531 
L 2969 1531 
L 2969 1056 
L 2463 1056 
L 2463 0 
L 1909 0 
L 1909 1056 
L 188 1056 
L 188 1397 
z
M 803 1531 
L 1909 1531 
L 1909 3703 
L 1878 3638 
L 803 1531 
z
" transform="scale(0.015625)"/>
       </defs>
       <use xlink:href="#RobotoCondensed-Regular-32"/>
       <use xlink:href="#RobotoCondensed-Regular-30" transform="translate(49.365234 0)"/>
       <use xlink:href="#RobotoCondensed-Regular-30" transform="translate(98.730469 0)"/>
       <use xlink:href="#RobotoCondensed-Regular-34" transform="translate(148.095703 0)"/>
      </g>
     </g>
    </g>
    <g id="xtick_2">
     <g id="line2d_2">
      <g>
       <use xlink:href="#mb8cc21ab6b" x="74.818218" y="196.73875" style="stroke: #000000; stroke-width: 0.8"/>
      </g>
     </g>
     <g id="text_2">
      <!-- 2007 -->
      <g transform="translate(68.895093 208.23875) scale(0.06 -0.06)">
       <defs>
        <path id="RobotoCondensed-Regular-37" d="M 2878 4550 
L 2878 4225 
L 1313 0 
L 731 0 
L 2297 4075 
L 269 4075 
L 269 4550 
L 2878 4550 
z
" transform="scale(0.015625)"/>
       </defs>
       <use xlink:href="#RobotoCondensed-Regular-32"/>
       <use xlink:href="#RobotoCondensed-Regular-30" transform="translate(49.365234 0)"/>
       <use xlink:href="#RobotoCondensed-Regular-30" transform="translate(98.730469 0)"/>
       <use xlink:href="#RobotoCondensed-Regular-37" transform="translate(148.095703 0)"/>
      </g>
     </g>
    </g>
    <g id="xtick_3">
     <g id="line2d_3">
      <g>
       <use xlink:href="#mb8cc21ab6b" x="112.431491" y="196.73875" style="stroke: #000000; stroke-width: 0.8"/>
      </g>
     </g>
     <g id="text_3">
      <!-- 2010 -->
      <g transform="translate(106.508366 208.23875) scale(0.06 -0.06)">
       <defs>
        <path id="RobotoCondensed-Regular-31" d="M 2013 4575 
L 2013 0 
L 1459 0 
L 1459 3853 
L 503 3428 
L 503 3950 
L 1928 4575 
L 2013 4575 
z
" transform="scale(0.015625)"/>
       </defs>
       <use xlink:href="#RobotoCondensed-Regular-32"/>
       <use xlink:href="#RobotoCondensed-Regular-30" transform="translate(49.365234 0)"/>
       <use xlink:href="#RobotoCondensed-Regular-31" transform="translate(98.730469 0)"/>
       <use xlink:href="#RobotoCondensed-Regular-30" transform="translate(148.095703 0)"/>
      </g>
     </g>
    </g>
    <g id="xtick_4">
     <g id="line2d_4">
      <g>
       <use xlink:href="#mb8cc21ab6b" x="150.044764" y="196.73875" style="stroke: #000000; stroke-width: 0.8"/>
      </g>
     </g>
     <g id="text_4">
      <!-- 2013 -->
      <g transform="translate(144.121639 208.23875) scale(0.06 -0.06)">
       <defs>
        <path id="RobotoCondensed-Regular-33" d="M 1075 2084 
L 1075 2559 
L 1431 2559 
Q 1788 2559 1961 2781 
Q 2134 3003 2134 3338 
Q 2134 4138 1519 4138 
Q 1228 4138 1054 3927 
Q 881 3716 881 3359 
L 331 3359 
Q 331 3881 653 4247 
Q 975 4613 1519 4613 
Q 2038 4613 2363 4286 
Q 2688 3959 2688 3325 
Q 2688 3072 2550 2786 
Q 2413 2500 2100 2338 
Q 2484 2194 2612 1886 
Q 2741 1578 2741 1269 
Q 2741 631 2389 284 
Q 2038 -63 1516 -63 
Q 1006 -63 656 267 
Q 306 597 306 1203 
L 859 1203 
Q 859 844 1032 628 
Q 1206 413 1516 413 
Q 1822 413 2005 622 
Q 2188 831 2188 1256 
Q 2188 2084 1403 2084 
L 1075 2084 
z
" transform="scale(0.015625)"/>
       </defs>
       <use xlink:href="#RobotoCondensed-Regular-32"/>
       <use xlink:href="#RobotoCondensed-Regular-30" transform="translate(49.365234 0)"/>
       <use xlink:href="#RobotoCondensed-Regular-31" transform="translate(98.730469 0)"/>
       <use xlink:href="#RobotoCondensed-Regular-33" transform="translate(148.095703 0)"/>
      </g>
     </g>
    </g>
    <g id="xtick_5">
     <g id="line2d_5">
      <g>
       <use xlink:href="#mb8cc21ab6b" x="187.658038" y="196.73875" style="stroke: #000000; stroke-width: 0.8"/>
      </g>
     </g>
     <g id="text_5">
      <!-- 2016 -->
      <g transform="translate(181.734913 208.23875) scale(0.06 -0.06)">
       <defs>
        <path id="RobotoCondensed-Regular-36" d="M 2847 1484 
Q 2847 838 2544 387 
Q 2241 -63 1641 -63 
Q 1216 -63 944 198 
Q 672 459 542 861 
Q 413 1263 413 1684 
L 413 1956 
Q 413 2438 481 2900 
Q 550 3363 742 3738 
Q 934 4113 1296 4334 
Q 1659 4556 2291 4556 
L 2291 4066 
Q 1775 4066 1508 3859 
Q 1241 3653 1122 3318 
Q 1003 2984 978 2606 
Q 1272 2984 1750 2984 
Q 2138 2984 2380 2765 
Q 2622 2547 2734 2201 
Q 2847 1856 2847 1484 
z
M 969 1666 
Q 969 1059 1180 737 
Q 1391 416 1641 416 
Q 1959 416 2129 708 
Q 2300 1000 2300 1456 
Q 2300 1863 2144 2184 
Q 1988 2506 1659 2506 
Q 1425 2506 1236 2329 
Q 1047 2153 969 1900 
L 969 1666 
z
" transform="scale(0.015625)"/>
       </defs>
       <use xlink:href="#RobotoCondensed-Regular-32"/>
       <use xlink:href="#RobotoCondensed-Regular-30" transform="translate(49.365234 0)"/>
       <use xlink:href="#RobotoCondensed-Regular-31" transform="translate(98.730469 0)"/>
       <use xlink:href="#RobotoCondensed-Regular-36" transform="translate(148.095703 0)"/>
      </g>
     </g>
    </g>
    <g id="xtick_6">
     <g id="line2d_6">
      <g>
       <use xlink:href="#mb8cc21ab6b" x="225.271311" y="196.73875" style="stroke: #000000; stroke-width: 0.8"/>
      </g>
     </g>
     <g id="text_6">
      <!-- 2019 -->
      <g transform="translate(219.348186 208.23875) scale(0.06 -0.06)">
       <defs>
        <path id="RobotoCondensed-Regular-39" d="M 2744 2563 
Q 2744 2119 2687 1667 
Q 2631 1216 2450 836 
Q 2269 456 1903 225 
Q 1538 -6 869 -6 
L 866 484 
Q 1428 484 1698 690 
Q 1969 897 2072 1233 
Q 2175 1569 2191 1950 
Q 1859 1522 1413 1522 
Q 1025 1522 786 1747 
Q 547 1972 436 2320 
Q 325 2669 325 3041 
Q 325 3691 623 4152 
Q 922 4613 1522 4613 
Q 1969 4613 2237 4344 
Q 2506 4075 2625 3653 
Q 2744 3231 2744 2772 
L 2744 2563 
z
M 866 3072 
Q 866 2666 1020 2334 
Q 1175 2003 1506 2003 
Q 1716 2003 1906 2179 
Q 2097 2356 2194 2616 
L 2194 2850 
Q 2194 3472 1983 3803 
Q 1772 4134 1522 4134 
Q 1206 4134 1036 3829 
Q 866 3525 866 3072 
z
" transform="scale(0.015625)"/>
       </defs>
       <use xlink:href="#RobotoCondensed-Regular-32"/>
       <use xlink:href="#RobotoCondensed-Regular-30" transform="translate(49.365234 0)"/>
       <use xlink:href="#RobotoCondensed-Regular-31" transform="translate(98.730469 0)"/>
       <use xlink:href="#RobotoCondensed-Regular-39" transform="translate(148.095703 0)"/>
      </g>
     </g>
    </g>
    <g id="xtick_7">
     <g id="line2d_7">
      <g>
       <use xlink:href="#mb8cc21ab6b" x="262.884584" y="196.73875" style="stroke: #000000; stroke-width: 0.8"/>
      </g>
     </g>
     <g id="text_7">
      <!-- 2022 -->
      <g transform="translate(256.961459 208.23875) scale(0.06 -0.06)">
       <use xlink:href="#RobotoCondensed-Regular-32"/>
       <use xlink:href="#RobotoCondensed-Regular-30" transform="translate(49.365234 0)"/>
       <use xlink:href="#RobotoCondensed-Regular-32" transform="translate(98.730469 0)"/>
       <use xlink:href="#RobotoCondensed-Regular-32" transform="translate(148.095703 0)"/>
      </g>
     </g>
    </g>
    <g id="xtick_8">
     <g id="line2d_8">
      <g>
       <use xlink:href="#mb8cc21ab6b" x="300.497857" y="196.73875" style="stroke: #000000; stroke-width: 0.8"/>
      </g>
     </g>
     <g id="text_8">
      <!-- 2025 -->
      <g transform="translate(294.574732 208.23875) scale(0.06 -0.06)">
       <defs>
        <path id="RobotoCondensed-Regular-35" d="M 1034 2166 
L 594 2284 
L 788 4550 
L 2769 4550 
L 2769 4016 
L 1253 4016 
L 1147 2778 
Q 1438 2975 1753 2975 
Q 2288 2975 2591 2561 
Q 2894 2147 2894 1450 
Q 2894 797 2584 367 
Q 2275 -63 1656 -63 
Q 1194 -63 850 248 
Q 506 559 453 1197 
L 975 1197 
Q 1066 413 1656 413 
Q 1978 413 2159 691 
Q 2341 969 2341 1444 
Q 2341 1872 2153 2164 
Q 1966 2456 1619 2456 
Q 1384 2456 1273 2378 
Q 1163 2300 1034 2166 
z
" transform="scale(0.015625)"/>
       </defs>
       <use xlink:href="#RobotoCondensed-Regular-32"/>
       <use xlink:href="#RobotoCondensed-Regular-30" transform="translate(49.365234 0)"/>
       <use xlink:href="#RobotoCondensed-Regular-32" transform="translate(98.730469 0)"/>
       <use xlink:href="#RobotoCondensed-Regular-35" transform="translate(148.095703 0)"/>
      </g>
     </g>
    </g>
   </g>
   <g id="matplotlib.axis_2">
    <g id="ytick_1">
     <g id="line2d_9">
      <defs>
       <path id="m08dbb86b7d" d="M 0 0 
L -3.5 0 
" style="stroke: #000000; stroke-width: 0.8"/>
      </defs>
      <g>
       <use xlink:href="#m08dbb86b7d" x="24.667188" y="170.305409" style="stroke: #000000; stroke-width: 0.8"/>
      </g>
     </g>
     <g id="text_9">
      <!-- 0.59 -->
      <g transform="translate(7.2 172.555409) scale(0.06 -0.06)">
       <defs>
        <path id="RobotoCondensed-Regular-2e" d="M 450 306 
Q 450 453 542 554 
Q 634 656 809 656 
Q 984 656 1076 554 
Q 1169 453 1169 306 
Q 1169 163 1076 62 
Q 984 -38 809 -38 
Q 634 -38 542 62 
Q 450 163 450 306 
z
" transform="scale(0.015625)"/>
       </defs>
       <use xlink:href="#RobotoCondensed-Regular-30"/>
       <use xlink:href="#RobotoCondensed-Regular-2e" transform="translate(49.365234 0)"/>
       <use xlink:href="#RobotoCondensed-Regular-35" transform="translate(75.732422 0)"/>
       <use xlink:href="#RobotoCondensed-Regular-39" transform="translate(125.097656 0)"/>
      </g>
     </g>
    </g>
    <g id="ytick_2">
     <g id="line2d_10">
      <g>
       <use xlink:href="#m08dbb86b7d" x="24.667188" y="134.345637" style="stroke: #000000; stroke-width: 0.8"/>
      </g>
     </g>
     <g id="text_10">
      <!-- 0.60 -->
      <g transform="translate(7.2 136.595637) scale(0.06 -0.06)">
       <use xlink:href="#RobotoCondensed-Regular-30"/>
       <use xlink:href="#RobotoCondensed-Regular-2e" transform="translate(49.365234 0)"/>
       <use xlink:href="#RobotoCondensed-Regular-36" transform="translate(75.732422 0)"/>
       <use xlink:href="#RobotoCondensed-Regular-30" transform="translate(125.097656 0)"/>
      </g>
     </g>
    </g>
    <g id="ytick_3">
     <g id="line2d_11">
      <g>
       <use xlink:href="#m08dbb86b7d" x="24.667188" y="98.385865" style="stroke: #000000; stroke-width: 0.8"/>
      </g>
     </g>
     <g id="text_11">
      <!-- 0.61 -->
      <g transform="translate(7.2 100.635865) scale(0.06 -0.06)">
       <use xlink:href="#RobotoCondensed-Regular-30"/>
       <use xlink:href="#RobotoCondensed-Regular-2e" transform="translate(49.365234 0)"/>
       <use xlink:href="#RobotoCondensed-Regular-36" transform="translate(75.732422 0)"/>
       <use xlink:href="#RobotoCondensed-Regular-31" transform="translate(125.097656 0)"/>
      </g>
     </g>
    </g>
    <g id="ytick_4">
     <g id="line2d_12">
      <g>
       <use xlink:href="#m08dbb86b7d" x="24.667188" y="62.426093" style="stroke: #000000; stroke-width: 0.8"/>
      </g>
     </g>
     <g id="text_12">
      <!-- 0.62 -->
      <g transform="translate(7.2 64.676093) scale(0.06 -0.06)">
       <use xlink:href="#RobotoCondensed-Regular-30"/>
       <use xlink:href="#RobotoCondensed-Regular-2e" transform="translate(49.365234 0)"/>
       <use xlink:href="#RobotoCondensed-Regular-36" transform="translate(75.732422 0)"/>
       <use xlink:href="#RobotoCondensed-Regular-32" transform="translate(125.097656 0)"/>
      </g>
     </g>
    </g>
    <g id="ytick_5">
     <g id="line2d_13">
      <g>
       <use xlink:href="#m08dbb86b7d" x="24.667188" y="26.466321" style="stroke: #000000; stroke-width: 0.8"/>
      </g>
     </g>
     <g id="text_13">
      <!-- 0.63 -->
      <g transform="translate(7.2 28.716321) scale(0.06 -0.06)">
       <use xlink:href="#RobotoCondensed-Regular-30"/>
       <use xlink:href="#RobotoCondensed-Regular-2e" transform="translate(49.365234 0)"/>
       <use xlink:href="#RobotoCondensed-Regular-36" transform="translate(75.732422 0)"/>
       <use xlink:href="#RobotoCondensed-Regular-33" transform="translate(125.097656 0)"/>
      </g>
     </g>
    </g>
   </g>
   <g id="line2d_14">
    <path d="M 37.204945 108.158105 
L 38.882237 112.104511 
L 39.720883 113.674339 
L 40.559529 115.002244 
L 41.398175 116.10847 
L 42.236821 117.013262 
L 43.075467 117.736865 
L 43.914113 118.299522 
L 45.591405 119.022981 
L 47.268697 119.345597 
L 49.784635 119.430817 
L 50.623281 118.841867 
L 51.461927 117.2872 
L 52.300573 114.917121 
L 53.139219 111.881938 
L 54.816511 104.417482 
L 58.171095 88.120782 
L 59.009741 84.638438 
L 59.848387 81.693439 
L 60.687033 79.43609 
L 61.525679 78.016698 
L 62.364325 77.583284 
L 63.202971 77.967926 
L 64.041617 78.927727 
L 64.880263 80.372464 
L 65.718909 82.211919 
L 67.396201 86.714094 
L 70.750785 96.485322 
L 71.589431 98.561607 
L 72.428077 100.31084 
L 73.266723 101.642802 
L 74.105369 102.467271 
L 74.944015 102.691454 
L 75.782661 102.128483 
L 76.621307 100.792408 
L 77.459953 98.805457 
L 78.298599 96.289862 
L 79.975891 90.161659 
L 83.330475 76.939634 
L 84.169121 74.145966 
L 85.007767 71.801493 
L 85.846413 70.028446 
L 86.685059 68.949053 
L 87.523705 68.670151 
L 88.362351 68.773595 
L 89.200997 69.014921 
L 90.878289 69.861135 
L 92.555581 71.108633 
L 94.232873 72.657254 
L 96.748811 75.325692 
L 100.942041 80.093894 
L 102.619333 82.878992 
L 105.135271 87.932997 
L 107.651209 92.952214 
L 109.328501 95.675467 
L 110.167147 96.714424 
L 111.005793 97.477912 
L 111.844439 97.920663 
L 112.683085 97.994264 
L 113.521731 97.631424 
L 114.360377 96.859722 
L 115.199023 95.731861 
L 116.037669 94.300546 
L 117.714961 90.738366 
L 120.230899 84.436777 
L 122.746837 78.25009 
L 124.424129 74.892183 
L 131.971943 63.035008 
L 133.649235 60.994329 
L 134.487881 60.180192 
L 135.326527 59.531878 
L 136.165173 59.070654 
L 137.003819 58.817787 
L 137.842465 58.809268 
L 138.681111 59.186209 
L 139.519757 59.955873 
L 140.358403 61.089378 
L 141.197049 62.557844 
L 142.035695 64.332388 
L 143.712987 68.684189 
L 145.390279 73.91373 
L 147.906217 82.898378 
L 150.422155 92.731835 
L 151.260801 97.513359 
L 152.099447 103.663801 
L 153.776739 119.018371 
L 158.808615 170.556296 
L 159.647261 177.179963 
L 160.485907 182.539872 
L 161.324553 186.372756 
L 162.163199 188.415347 
L 163.001845 188.630365 
L 163.840491 188.21982 
L 164.679137 187.425894 
L 165.517783 186.27693 
L 166.356429 184.801272 
L 167.195075 183.027265 
L 168.872367 178.697579 
L 170.549659 173.514623 
L 173.065597 164.63633 
L 175.581535 154.858486 
L 176.420181 149.994756 
L 177.258827 143.802714 
L 178.936119 128.474932 
L 183.967995 77.684356 
L 184.806641 71.251464 
L 185.645287 66.093363 
L 186.483933 62.470362 
L 187.322579 60.642773 
L 188.161225 60.889452 
L 188.999871 63.300126 
L 189.838517 67.580258 
L 190.677163 73.411643 
L 192.354455 88.455348 
L 196.547685 130.937137 
L 197.386331 137.723139 
L 198.224977 143.196543 
L 199.063623 147.039142 
L 199.902269 148.932731 
L 200.740915 148.511098 
L 201.579561 145.602311 
L 202.418207 140.546943 
L 203.256853 133.713506 
L 204.934145 116.186469 
L 209.127375 67.048486 
L 209.966021 59.256918 
L 210.804667 53.003886 
L 211.643313 48.657903 
L 212.481959 46.587481 
L 213.320605 46.686048 
L 214.159251 47.717967 
L 214.997897 49.499503 
L 215.836543 51.927103 
L 216.675189 54.897213 
L 218.352481 62.050745 
L 223.384357 85.761929 
L 224.223003 88.954685 
L 225.061649 91.654408 
L 228.416233 101.237443 
L 230.932171 108.338987 
L 232.609463 112.504535 
L 234.286755 115.881418 
L 235.125401 117.184749 
L 235.964047 118.183681 
L 236.802693 118.842469 
L 237.641339 119.125369 
L 238.479985 118.518862 
L 239.318631 116.165032 
L 240.157277 112.29855 
L 240.995923 107.185962 
L 242.673215 94.288654 
L 246.866445 58.896801 
L 247.705091 53.411047 
L 248.543737 49.078108 
L 249.382383 46.16453 
L 250.221029 44.936861 
L 251.059675 44.997223 
L 251.898321 45.294313 
L 252.736967 45.78802 
L 253.575613 46.457852 
L 255.252905 48.243905 
L 256.930197 50.488518 
L 259.446135 54.356577 
L 264.478011 62.516236 
L 266.155303 66.275992 
L 271.187179 78.400418 
L 272.025825 79.998483 
L 272.864471 81.337136 
L 273.703117 82.364384 
L 274.541763 83.028235 
L 275.380409 83.276695 
L 276.219055 83.06099 
L 277.057701 82.377609 
L 277.896347 81.244873 
L 278.734993 79.681127 
L 279.573639 77.704715 
L 280.412285 75.33398 
L 282.089577 69.482918 
L 283.766869 62.27469 
L 285.444161 53.856048 
L 287.121453 44.373741 
L 287.960099 39.279573 
L 287.960099 39.279573 
" clip-path="url(#p004a2ede45)" style="fill: none; stroke-dasharray: 2,3.3; stroke-dashoffset: 0; stroke: #000000; stroke-width: 2"/>
   </g>
   <g id="line2d_15">
    <path d="M 37.204945 105.632521 
L 49.742703 104.199521 
L 62.280461 102.766521 
L 74.818218 101.333521 
L 87.355976 99.900521 
L 99.893734 98.467521 
L 112.431491 97.034521 
L 124.969249 95.601521 
L 137.507007 94.168521 
L 150.044764 92.735521 
L 162.582522 91.302521 
L 175.12028 89.869521 
L 187.658038 88.436521 
L 200.195795 87.003521 
L 212.733553 85.570521 
L 225.271311 84.137521 
L 237.809068 82.704521 
L 250.346826 81.271521 
L 262.884584 79.838521 
L 275.422341 78.40552 
L 287.960099 76.97252 
" clip-path="url(#p004a2ede45)" style="fill: none; stroke-dasharray: 3.7,1.6; stroke-dashoffset: 0; stroke: #000000; stroke-opacity: 0.7"/>
   </g>
   <g id="line2d_16">
    <path d="M 37.204945 89.91469 
L 38.882237 85.177025 
L 39.720883 83.292445 
L 40.559529 81.698293 
L 41.398175 80.370268 
L 42.236821 79.284064 
L 43.075467 78.415379 
L 43.914113 77.739907 
L 44.752759 77.233347 
L 46.430051 76.629744 
L 48.107343 76.41014 
L 49.784635 76.381763 
L 50.623281 77.078451 
L 51.461927 78.917519 
L 52.300573 81.721163 
L 53.139219 85.311583 
L 54.816511 94.141537 
L 58.171095 113.419446 
L 59.009741 117.538827 
L 59.848387 121.022565 
L 60.687033 123.692858 
L 61.525679 125.371904 
L 62.364325 125.888547 
L 67.396201 125.784617 
L 73.266723 125.41797 
L 74.944015 125.258913 
L 75.782661 124.747561 
L 76.621307 123.640288 
L 77.459953 122.026182 
L 78.298599 119.99433 
L 79.975891 115.033741 
L 84.169121 101.557873 
L 85.007767 99.39122 
L 85.846413 97.608612 
L 86.685059 96.299138 
L 87.523705 95.539478 
L 90.039643 93.955073 
L 92.555581 92.613764 
L 95.071519 91.583616 
L 96.748811 91.103332 
L 98.426103 90.811761 
L 99.264749 90.743046 
L 100.103395 90.798759 
L 100.942041 92.433325 
L 101.780687 95.993791 
L 102.619333 101.170776 
L 103.457979 107.654898 
L 105.135271 123.307026 
L 108.489855 156.68414 
L 109.328501 163.655537 
L 110.167147 169.45902 
L 111.005793 173.785205 
L 111.844439 176.324712 
L 112.683085 176.724805 
L 113.521731 174.205523 
L 114.360377 168.917346 
L 115.199023 161.308679 
L 116.037669 151.827925 
L 117.714961 129.043775 
L 121.069545 80.740211 
L 121.908191 70.710162 
L 122.746837 62.395259 
L 123.585483 56.243905 
L 124.424129 52.704503 
L 125.262775 52.067476 
L 126.101421 52.734539 
L 126.940067 54.088187 
L 127.778713 56.016326 
L 128.617359 58.406859 
L 130.294651 64.126726 
L 133.649235 76.182986 
L 134.487881 78.671603 
L 135.326527 80.725849 
L 136.165173 82.233628 
L 137.003819 83.082846 
L 137.842465 83.193481 
L 138.681111 82.806853 
L 139.519757 82.046267 
L 140.358403 80.97328 
L 142.035695 78.13633 
L 147.067571 68.529768 
L 147.906217 67.41523 
L 148.744863 66.60386 
L 149.583509 66.157213 
L 150.422155 66.288102 
L 151.260801 68.059251 
L 152.099447 71.445206 
L 152.938093 76.17795 
L 153.776739 81.989464 
L 155.454031 95.776735 
L 157.969969 117.847981 
L 159.647261 130.362168 
L 160.485907 135.155216 
L 161.324553 138.614876 
L 162.163199 140.473131 
L 163.001845 140.700504 
L 163.840491 140.5679 
L 165.517783 139.978989 
L 167.195075 139.085981 
L 172.226951 136.112422 
L 173.904243 135.533074 
L 174.742889 135.406685 
L 176.420181 135.493012 
L 178.097473 135.869228 
L 180.613411 136.75747 
L 183.967995 138.041397 
L 185.645287 138.509602 
L 187.322579 138.733704 
L 193.193101 138.669298 
L 199.902269 138.3928 
L 200.740915 137.951838 
L 201.579561 135.878345 
L 202.418207 132.301032 
L 203.256853 127.467291 
L 204.934145 115.020098 
L 209.966021 73.253116 
L 210.804667 68.244207 
L 211.643313 64.452799 
L 212.481959 62.126285 
L 213.320605 61.094961 
L 214.997897 59.561128 
L 216.675189 58.422441 
L 219.191127 57.150184 
L 222.545711 55.534979 
L 224.223003 54.448304 
L 225.061649 53.774174 
L 225.900295 52.945216 
L 226.738941 51.867535 
L 228.416233 49.130532 
L 230.932171 44.250737 
L 233.448109 39.529498 
L 235.125401 37.074372 
L 235.964047 36.190481 
L 236.802693 35.596135 
L 237.641339 35.336652 
L 238.479985 35.474977 
L 239.318631 36.034115 
L 240.157277 36.952574 
L 240.995923 38.167037 
L 242.673215 41.230712 
L 246.866445 49.637825 
L 247.705091 50.940931 
L 248.543737 51.970194 
L 249.382383 52.662296 
L 250.221029 52.953921 
L 251.059675 52.865575 
L 251.898321 52.531768 
L 252.736967 51.983012 
L 253.575613 51.24755 
L 255.252905 49.329489 
L 256.930197 47.003536 
L 261.123427 40.886946 
L 262.800719 38.912753 
L 264.478011 37.115068 
L 270.348533 30.385887 
L 272.025825 28.928945 
L 272.864471 28.367752 
L 273.703117 27.941987 
L 274.541763 27.669584 
L 275.380409 27.568476 
L 276.219055 27.648913 
L 277.057701 27.904763 
L 277.896347 28.330684 
L 278.734993 28.921343 
L 279.573639 29.67141 
L 281.250931 31.628438 
L 282.928223 34.159114 
L 284.605515 37.220785 
L 286.282807 40.770798 
L 287.960099 44.766498 
L 287.960099 44.766498 
" clip-path="url(#p004a2ede45)" style="fill: none; stroke-dasharray: 12.8,3.2,2,3.2; stroke-dashoffset: 0; stroke: #000000; stroke-width: 2"/>
   </g>
   <g id="line2d_17">
    <path d="M 37.204945 122.672911 
L 49.742703 119.215474 
L 62.280461 115.758036 
L 74.818218 112.300599 
L 87.355976 108.843162 
L 99.893734 105.385724 
L 112.431491 101.928287 
L 124.969249 98.47085 
L 137.507007 95.013412 
L 150.044764 91.555975 
L 162.582522 88.098538 
L 175.12028 84.6411 
L 187.658038 81.183663 
L 200.195795 77.726226 
L 212.733553 74.268788 
L 225.271311 70.811351 
L 237.809068 67.353914 
L 250.346826 63.896476 
L 262.884584 60.439039 
L 275.422341 56.981602 
L 287.960099 53.524165 
" clip-path="url(#p004a2ede45)" style="fill: none; stroke: #000000; stroke-opacity: 0.7; stroke-linecap: square"/>
   </g>
   <g id="text_14">
    <!-- Berger-Parker (50) -->
    <g transform="translate(132.183147 13.5125) scale(0.08 -0.08)">
     <defs>
      <path id="RobotoCondensed-Bold-42" d="M 3294 1341 
Q 3294 675 2942 339 
Q 2591 3 1884 0 
L 366 0 
L 366 4550 
L 1772 4550 
Q 2453 4550 2839 4245 
Q 3225 3941 3225 3303 
Q 3225 2994 3089 2734 
Q 2953 2475 2653 2344 
Q 3003 2244 3148 1956 
Q 3294 1669 3294 1341 
z
M 1288 3784 
L 1288 2647 
L 1763 2647 
Q 2303 2647 2303 3206 
Q 2303 3772 1794 3784 
L 1288 3784 
z
M 2375 1350 
Q 2375 1963 1941 1981 
L 1288 1981 
L 1288 763 
L 1872 763 
Q 2141 763 2258 930 
Q 2375 1097 2375 1350 
z
" transform="scale(0.015625)"/>
      <path id="RobotoCondensed-Bold-65" d="M 2834 444 
Q 2700 263 2411 100 
Q 2122 -63 1688 -63 
Q 997 -63 620 350 
Q 244 763 244 1497 
L 244 1775 
Q 244 2597 601 3020 
Q 959 3444 1596 3444 
Q 2234 3444 2556 3041 
Q 2878 2638 2884 1831 
L 2884 1397 
L 1131 1397 
Q 1147 994 1305 833 
Q 1463 672 1747 672 
Q 2194 672 2484 978 
L 2834 444 
z
M 1594 2709 
Q 1363 2709 1258 2545 
Q 1153 2381 1134 2016 
L 2019 2016 
L 2019 2094 
Q 2013 2400 1919 2554 
Q 1825 2709 1594 2709 
z
" transform="scale(0.015625)"/>
      <path id="RobotoCondensed-Bold-72" d="M 1700 2553 
Q 1331 2553 1206 2238 
L 1206 0 
L 322 0 
L 322 3381 
L 1156 3381 
L 1181 3016 
Q 1394 3444 1759 3444 
Q 1903 3444 2000 3406 
L 1991 2528 
Q 1834 2553 1700 2553 
z
" transform="scale(0.015625)"/>
      <path id="RobotoCondensed-Bold-67" d="M 1494 -1331 
Q 1259 -1331 945 -1232 
Q 631 -1134 453 -941 
L 750 -328 
Q 872 -450 1067 -536 
Q 1263 -622 1456 -622 
Q 1725 -622 1869 -489 
Q 2013 -356 2013 -3 
L 2013 269 
Q 1756 -63 1353 -63 
Q 819 -63 517 357 
Q 216 778 216 1572 
L 216 1794 
Q 216 2625 517 3034 
Q 819 3444 1359 3444 
Q 1819 3444 2066 3084 
L 2100 3381 
L 2900 3381 
L 2900 0 
Q 2900 -697 2512 -1014 
Q 2125 -1331 1494 -1331 
z
M 1100 1572 
Q 1100 678 1609 678 
Q 1881 678 2013 875 
L 2013 2494 
Q 1878 2706 1615 2706 
Q 1353 2706 1226 2490 
Q 1100 2275 1100 1794 
L 1100 1572 
z
" transform="scale(0.015625)"/>
      <path id="RobotoCondensed-Bold-2d" d="M 1913 2319 
L 1913 1584 
L 384 1584 
L 384 2319 
L 1913 2319 
z
" transform="scale(0.015625)"/>
      <path id="RobotoCondensed-Bold-50" d="M 1288 1600 
L 1288 0 
L 366 0 
L 366 4550 
L 1919 4550 
Q 2606 4550 3001 4123 
Q 3397 3697 3397 3044 
Q 3397 2384 3005 1993 
Q 2613 1603 1928 1600 
L 1288 1600 
z
M 1288 3784 
L 1288 2366 
L 1919 2366 
Q 2206 2366 2336 2555 
Q 2466 2744 2466 3037 
Q 2466 3331 2336 3557 
Q 2206 3784 1919 3784 
L 1288 3784 
z
" transform="scale(0.015625)"/>
      <path id="RobotoCondensed-Bold-61" d="M 1928 0 
Q 1881 106 1853 263 
Q 1613 -63 1209 -63 
Q 800 -63 514 212 
Q 228 488 228 947 
Q 228 1463 559 1764 
Q 891 2066 1572 2066 
L 1809 2066 
L 1809 2338 
Q 1809 2753 1503 2753 
Q 1172 2753 1172 2366 
L 288 2366 
Q 288 2809 623 3126 
Q 959 3444 1528 3444 
Q 2031 3444 2364 3181 
Q 2697 2919 2697 2325 
L 2697 738 
Q 2703 288 2819 53 
L 2819 0 
L 1928 0 
z
M 1409 634 
Q 1553 634 1656 693 
Q 1759 753 1809 834 
L 1809 1538 
L 1600 1538 
Q 1350 1538 1231 1384 
Q 1113 1231 1113 1009 
Q 1113 634 1409 634 
z
" transform="scale(0.015625)"/>
      <path id="RobotoCondensed-Bold-6b" d="M 2063 0 
L 1447 1309 
L 1206 1041 
L 1206 0 
L 322 0 
L 322 4803 
L 1206 4803 
L 1206 2209 
L 1316 2369 
L 1931 3381 
L 2984 3381 
L 2003 1991 
L 3075 0 
L 2063 0 
z
" transform="scale(0.015625)"/>
      <path id="RobotoCondensed-Bold-20" transform="scale(0.015625)"/>
      <path id="RobotoCondensed-Bold-28" d="M 378 1850 
Q 378 2731 592 3390 
Q 806 4050 1118 4472 
Q 1431 4894 1728 5050 
L 1894 4559 
Q 1619 4300 1372 3661 
Q 1125 3022 1119 1919 
L 1119 1772 
Q 1119 628 1367 -23 
Q 1616 -675 1894 -941 
L 1728 -1422 
Q 1431 -1266 1118 -845 
Q 806 -425 592 236 
Q 378 897 378 1850 
z
" transform="scale(0.015625)"/>
      <path id="RobotoCondensed-Bold-35" d="M 1091 2059 
L 388 2238 
L 616 4550 
L 2816 4550 
L 2816 3794 
L 1341 3794 
L 1256 2822 
Q 1500 2991 1784 2991 
Q 2350 2991 2654 2587 
Q 2959 2184 2959 1463 
Q 2959 856 2629 396 
Q 2300 -63 1625 -63 
Q 1122 -63 712 287 
Q 303 638 297 1269 
L 1172 1269 
Q 1216 672 1622 672 
Q 1872 672 1973 917 
Q 2075 1163 2075 1516 
Q 2075 1872 1945 2090 
Q 1816 2309 1538 2309 
Q 1347 2309 1250 2229 
Q 1153 2150 1091 2059 
z
" transform="scale(0.015625)"/>
      <path id="RobotoCondensed-Bold-30" d="M 2941 1881 
Q 2941 859 2572 398 
Q 2203 -63 1622 -63 
Q 1044 -63 673 392 
Q 303 847 297 1847 
L 297 2675 
Q 297 3700 665 4156 
Q 1034 4613 1619 4613 
Q 2194 4613 2562 4166 
Q 2931 3719 2941 2731 
L 2941 1881 
z
M 2056 2803 
Q 2056 3403 1937 3640 
Q 1819 3878 1619 3878 
Q 1422 3878 1303 3647 
Q 1184 3416 1181 2838 
L 1181 1763 
Q 1181 1156 1300 914 
Q 1419 672 1622 672 
Q 1822 672 1937 908 
Q 2053 1144 2056 1728 
L 2056 2803 
z
" transform="scale(0.015625)"/>
      <path id="RobotoCondensed-Bold-29" d="M 1741 1778 
Q 1741 931 1520 265 
Q 1300 -400 975 -833 
Q 650 -1266 341 -1422 
L 175 -941 
Q 447 -681 695 -37 
Q 944 606 950 1709 
L 950 1856 
Q 950 3000 695 3653 
Q 441 4306 175 4569 
L 341 5050 
Q 650 4894 975 4459 
Q 1300 4025 1520 3364 
Q 1741 2703 1741 1778 
z
" transform="scale(0.015625)"/>
     </defs>
     <use xlink:href="#RobotoCondensed-Bold-42"/>
     <use xlink:href="#RobotoCondensed-Bold-65" transform="translate(56.152344 0)"/>
     <use xlink:href="#RobotoCondensed-Bold-72" transform="translate(104.052734 0)"/>
     <use xlink:href="#RobotoCondensed-Bold-67" transform="translate(137.207031 0)"/>
     <use xlink:href="#RobotoCondensed-Bold-65" transform="translate(187.548828 0)"/>
     <use xlink:href="#RobotoCondensed-Bold-72" transform="translate(235.449219 0)"/>
     <use xlink:href="#RobotoCondensed-Bold-2d" transform="translate(268.603516 0)"/>
     <use xlink:href="#RobotoCondensed-Bold-50" transform="translate(304.931641 0)"/>
     <use xlink:href="#RobotoCondensed-Bold-61" transform="translate(361.816406 0)"/>
     <use xlink:href="#RobotoCondensed-Bold-72" transform="translate(408.935547 0)"/>
     <use xlink:href="#RobotoCondensed-Bold-6b" transform="translate(442.089844 0)"/>
     <use xlink:href="#RobotoCondensed-Bold-65" transform="translate(489.941406 0)"/>
     <use xlink:href="#RobotoCondensed-Bold-72" transform="translate(537.841797 0)"/>
     <use xlink:href="#RobotoCondensed-Bold-20" transform="translate(570.996094 0)"/>
     <use xlink:href="#RobotoCondensed-Bold-28" transform="translate(594.042969 0)"/>
     <use xlink:href="#RobotoCondensed-Bold-35" transform="translate(626.367188 0)"/>
     <use xlink:href="#RobotoCondensed-Bold-30" transform="translate(676.953125 0)"/>
     <use xlink:href="#RobotoCondensed-Bold-29" transform="translate(727.539062 0)"/>
    </g>
   </g>
   <g id="PathCollection_1">
    <defs>
     <path id="C0_0_466ae910fe" d="M -0 4.242641 
L 4.242641 -0 
L 0 -4.242641 
L -4.242641 -0 
z
"/>
    </defs>
    <g clip-path="url(#p004a2ede45)">
     <use xlink:href="#C0_0_466ae910fe" x="37.204945" y="108.158105" style="fill: none; stroke: #000000"/>
    </g>
    <g clip-path="url(#p004a2ede45)">
     <use xlink:href="#C0_0_466ae910fe" x="49.742703" y="119.432218" style="fill: none; stroke: #000000"/>
    </g>
    <g clip-path="url(#p004a2ede45)">
     <use xlink:href="#C0_0_466ae910fe" x="62.280461" y="77.579927" style="fill: none; stroke: #000000"/>
    </g>
    <g clip-path="url(#p004a2ede45)">
     <use xlink:href="#C0_0_466ae910fe" x="74.818218" y="102.701664" style="fill: none; stroke: #000000"/>
    </g>
    <g clip-path="url(#p004a2ede45)">
     <use xlink:href="#C0_0_466ae910fe" x="87.355976" y="68.667109" style="fill: none; stroke: #000000"/>
    </g>
    <g clip-path="url(#p004a2ede45)">
     <use xlink:href="#C0_0_466ae910fe" x="99.893734" y="78.782115" style="fill: none; stroke: #000000"/>
    </g>
    <g clip-path="url(#p004a2ede45)">
     <use xlink:href="#C0_0_466ae910fe" x="112.431491" y="98.015509" style="fill: none; stroke: #000000"/>
    </g>
    <g clip-path="url(#p004a2ede45)">
     <use xlink:href="#C0_0_466ae910fe" x="124.969249" y="74.018388" style="fill: none; stroke: #000000"/>
    </g>
    <g clip-path="url(#p004a2ede45)">
     <use xlink:href="#C0_0_466ae910fe" x="137.507007" y="58.774923" style="fill: none; stroke: #000000"/>
    </g>
    <g clip-path="url(#p004a2ede45)">
     <use xlink:href="#C0_0_466ae910fe" x="150.044764" y="91.096904" style="fill: none; stroke: #000000"/>
    </g>
    <g clip-path="url(#p004a2ede45)">
     <use xlink:href="#C0_0_466ae910fe" x="162.582522" y="188.683011" style="fill: none; stroke: #000000"/>
    </g>
    <g clip-path="url(#p004a2ede45)">
     <use xlink:href="#C0_0_466ae910fe" x="175.12028" y="156.87303" style="fill: none; stroke: #000000"/>
    </g>
    <g clip-path="url(#p004a2ede45)">
     <use xlink:href="#C0_0_466ae910fe" x="187.658038" y="60.472762" style="fill: none; stroke: #000000"/>
    </g>
    <g clip-path="url(#p004a2ede45)">
     <use xlink:href="#C0_0_466ae910fe" x="200.195795" y="149.076146" style="fill: none; stroke: #000000"/>
    </g>
    <g clip-path="url(#p004a2ede45)">
     <use xlink:href="#C0_0_466ae910fe" x="212.733553" y="46.465181" style="fill: none; stroke: #000000"/>
    </g>
    <g clip-path="url(#p004a2ede45)">
     <use xlink:href="#C0_0_466ae910fe" x="225.271311" y="92.240167" style="fill: none; stroke: #000000"/>
    </g>
    <g clip-path="url(#p004a2ede45)">
     <use xlink:href="#C0_0_466ae910fe" x="237.809068" y="119.133697" style="fill: none; stroke: #000000"/>
    </g>
    <g clip-path="url(#p004a2ede45)">
     <use xlink:href="#C0_0_466ae910fe" x="250.346826" y="44.914596" style="fill: none; stroke: #000000"/>
    </g>
    <g clip-path="url(#p004a2ede45)">
     <use xlink:href="#C0_0_466ae910fe" x="262.884584" y="59.710632" style="fill: none; stroke: #000000"/>
    </g>
    <g clip-path="url(#p004a2ede45)">
     <use xlink:href="#C0_0_466ae910fe" x="275.422341" y="83.277282" style="fill: none; stroke: #000000"/>
    </g>
    <g clip-path="url(#p004a2ede45)">
     <use xlink:href="#C0_0_466ae910fe" x="287.960099" y="39.279573" style="fill: none; stroke: #000000"/>
    </g>
   </g>
   <g id="PathCollection_2">
    <defs>
     <path id="mce8effcdf5" d="M 0 3 
C 0.795609 3 1.55874 2.683901 2.12132 2.12132 
C 2.683901 1.55874 3 0.795609 3 0 
C 3 -0.795609 2.683901 -1.55874 2.12132 -2.12132 
C 1.55874 -2.683901 0.795609 -3 0 -3 
C -0.795609 -3 -1.55874 -2.683901 -2.12132 -2.12132 
C -2.683901 -1.55874 -3 -0.795609 -3 0 
C -3 0.795609 -2.683901 1.55874 -2.12132 2.12132 
C -1.55874 2.683901 -0.795609 3 0 3 
z
" style="stroke: #000000"/>
    </defs>
    <g clip-path="url(#p004a2ede45)">
     <use xlink:href="#mce8effcdf5" x="37.204945" y="89.91469" style="stroke: #000000"/>
     <use xlink:href="#mce8effcdf5" x="49.742703" y="76.380105" style="stroke: #000000"/>
     <use xlink:href="#mce8effcdf5" x="62.280461" y="125.888575" style="stroke: #000000"/>
     <use xlink:href="#mce8effcdf5" x="74.818218" y="125.27871" style="stroke: #000000"/>
     <use xlink:href="#mce8effcdf5" x="87.355976" y="95.652081" style="stroke: #000000"/>
     <use xlink:href="#mce8effcdf5" x="99.893734" y="90.727296" style="stroke: #000000"/>
     <use xlink:href="#mce8effcdf5" x="112.431491" y="176.873619" style="stroke: #000000"/>
     <use xlink:href="#mce8effcdf5" x="124.969249" y="52.016955" style="stroke: #000000"/>
     <use xlink:href="#mce8effcdf5" x="137.507007" y="83.229636" style="stroke: #000000"/>
     <use xlink:href="#mce8effcdf5" x="150.044764" y="66.089325" style="stroke: #000000"/>
     <use xlink:href="#mce8effcdf5" x="162.582522" y="140.717976" style="stroke: #000000"/>
     <use xlink:href="#mce8effcdf5" x="175.12028" y="135.392501" style="stroke: #000000"/>
     <use xlink:href="#mce8effcdf5" x="187.658038" y="138.740767" style="stroke: #000000"/>
     <use xlink:href="#mce8effcdf5" x="200.195795" y="138.375997" style="stroke: #000000"/>
     <use xlink:href="#mce8effcdf5" x="212.733553" y="61.75097" style="stroke: #000000"/>
     <use xlink:href="#mce8effcdf5" x="225.271311" y="53.589065" style="stroke: #000000"/>
     <use xlink:href="#mce8effcdf5" x="237.809068" y="35.328927" style="stroke: #000000"/>
     <use xlink:href="#mce8effcdf5" x="250.346826" y="52.95921" style="stroke: #000000"/>
     <use xlink:href="#mce8effcdf5" x="262.884584" y="38.828149" style="stroke: #000000"/>
     <use xlink:href="#mce8effcdf5" x="275.422341" y="27.568239" style="stroke: #000000"/>
     <use xlink:href="#mce8effcdf5" x="287.960099" y="44.766498" style="stroke: #000000"/>
    </g>
   </g>
   <g id="legend_1">
    <g id="patch_3">
     <path d="M 27.667188 41.811875 
L 63.790938 41.811875 
L 63.790938 22.5125 
L 27.667188 22.5125 
z
" style="fill: #ffffff; opacity: 0.8"/>
    </g>
    <g id="line2d_18">
     <path d="M 30.067188 27.3125 
L 37.567188 27.3125 
L 45.067188 27.3125 
" style="fill: none; stroke-dasharray: 2,3.3; stroke-dashoffset: 0; stroke: #000000; stroke-width: 2"/>
     <defs>
      <path id="mcfcb6f446a" d="M -0 4.242641 
L 4.242641 0 
L 0 -4.242641 
L -4.242641 -0 
z
" style="stroke: #000000; stroke-linejoin: miter"/>
     </defs>
     <g>
      <use xlink:href="#mcfcb6f446a" x="37.567188" y="27.3125" style="fill-opacity: 0; stroke: #000000; stroke-linejoin: miter"/>
     </g>
    </g>
    <g id="text_15">
     <!-- Boys -->
     <g transform="translate(49.867188 29.4125) scale(0.06 -0.06)">
      <defs>
       <path id="RobotoCondensed-Regular-42" d="M 3125 1313 
Q 3125 675 2776 337 
Q 2428 0 1847 0 
L 491 0 
L 491 4550 
L 1791 4550 
Q 2375 4550 2706 4261 
Q 3038 3972 3038 3338 
Q 3038 3025 2880 2779 
Q 2722 2534 2453 2400 
Q 2781 2297 2953 1998 
Q 3125 1700 3125 1313 
z
M 1066 4056 
L 1066 2613 
L 1797 2613 
Q 2088 2613 2275 2806 
Q 2463 3000 2463 3344 
Q 2463 4041 1819 4056 
L 1066 4056 
z
M 2550 1306 
Q 2550 2106 1906 2128 
L 1066 2128 
L 1066 491 
L 1847 491 
Q 2181 491 2365 711 
Q 2550 931 2550 1306 
z
" transform="scale(0.015625)"/>
       <path id="RobotoCondensed-Regular-6f" d="M 300 1850 
Q 300 2641 678 3042 
Q 1056 3444 1603 3444 
Q 2156 3444 2536 3042 
Q 2916 2641 2916 1850 
L 2916 1528 
Q 2916 738 2536 337 
Q 2156 -63 1609 -63 
Q 1059 -63 679 337 
Q 300 738 300 1528 
L 300 1850 
z
M 853 1528 
Q 853 969 1068 689 
Q 1284 409 1609 409 
Q 2341 409 2363 1466 
L 2363 1850 
Q 2363 2403 2145 2686 
Q 1928 2969 1603 2969 
Q 1281 2969 1067 2686 
Q 853 2403 853 1850 
L 853 1528 
z
" transform="scale(0.015625)"/>
       <path id="RobotoCondensed-Regular-79" d="M 1425 -522 
Q 1153 -1366 563 -1366 
Q 409 -1366 278 -1316 
L 278 -847 
Q 328 -859 397 -859 
Q 631 -859 770 -746 
Q 909 -634 997 -338 
L 1106 31 
L 109 3381 
L 713 3381 
L 1341 922 
L 1953 3381 
L 2541 3381 
L 1425 -522 
z
" transform="scale(0.015625)"/>
       <path id="RobotoCondensed-Regular-73" d="M 2056 866 
Q 2056 1059 1907 1190 
Q 1759 1322 1340 1500 
Q 922 1678 681 1863 
Q 409 2072 409 2484 
Q 409 2888 703 3166 
Q 997 3444 1481 3444 
Q 2000 3444 2287 3150 
Q 2575 2856 2575 2419 
L 2025 2419 
Q 2025 2628 1884 2798 
Q 1744 2969 1481 2969 
Q 1203 2969 1083 2828 
Q 963 2688 963 2503 
Q 963 2319 1081 2217 
Q 1200 2116 1553 1959 
Q 2066 1756 2337 1537 
Q 2609 1319 2609 909 
Q 2609 463 2303 200 
Q 1997 -63 1494 -63 
Q 919 -63 616 265 
Q 313 594 313 1013 
L 866 1013 
Q 881 653 1081 533 
Q 1281 413 1494 413 
Q 2056 413 2056 866 
z
" transform="scale(0.015625)"/>
      </defs>
      <use xlink:href="#RobotoCondensed-Regular-42"/>
      <use xlink:href="#RobotoCondensed-Regular-6f" transform="translate(54.589844 0)"/>
      <use xlink:href="#RobotoCondensed-Regular-79" transform="translate(104.785156 0)"/>
      <use xlink:href="#RobotoCondensed-Regular-73" transform="translate(146.435547 0)"/>
     </g>
    </g>
    <g id="line2d_19">
     <path d="M 30.067188 36.093125 
L 37.567188 36.093125 
L 45.067188 36.093125 
" style="fill: none; stroke-dasharray: 12.8,3.2,2,3.2; stroke-dashoffset: 0; stroke: #000000; stroke-width: 2"/>
     <g>
      <use xlink:href="#mce8effcdf5" x="37.567188" y="36.093125" style="stroke: #000000"/>
     </g>
    </g>
    <g id="text_16">
     <!-- Girls -->
     <g transform="translate(49.867188 38.193125) scale(0.06 -0.06)">
      <defs>
       <path id="RobotoCondensed-Regular-47" d="M 3341 2266 
L 3341 569 
Q 3266 469 3114 319 
Q 2963 169 2691 53 
Q 2419 -63 1978 -63 
Q 1272 -63 830 412 
Q 388 888 388 1850 
L 388 2703 
Q 388 3656 770 4134 
Q 1153 4613 1919 4613 
Q 2581 4613 2943 4244 
Q 3306 3875 3341 3219 
L 2766 3219 
Q 2731 3641 2529 3880 
Q 2328 4119 1919 4119 
Q 1400 4119 1183 3773 
Q 966 3428 963 2731 
L 963 1850 
Q 963 1125 1239 776 
Q 1516 428 1981 428 
Q 2378 428 2537 547 
Q 2697 666 2769 728 
L 2769 1778 
L 1934 1778 
L 1934 2266 
L 3341 2266 
z
" transform="scale(0.015625)"/>
       <path id="RobotoCondensed-Regular-69" d="M 428 4278 
Q 428 4419 506 4516 
Q 584 4613 741 4613 
Q 894 4613 975 4516 
Q 1056 4419 1056 4278 
Q 1056 4144 975 4048 
Q 894 3953 741 3953 
Q 584 3953 506 4048 
Q 428 4144 428 4278 
z
M 1009 3381 
L 1009 0 
L 459 0 
L 459 3381 
L 1009 3381 
z
" transform="scale(0.015625)"/>
       <path id="RobotoCondensed-Regular-72" d="M 1563 2888 
Q 1138 2888 969 2425 
L 969 0 
L 416 0 
L 416 3381 
L 950 3381 
L 963 3041 
Q 1184 3444 1591 3444 
Q 1738 3444 1809 3400 
L 1813 2863 
Q 1691 2888 1563 2888 
z
" transform="scale(0.015625)"/>
       <path id="RobotoCondensed-Regular-6c" d="M 1009 4800 
L 1009 0 
L 459 0 
L 459 4800 
L 1009 4800 
z
" transform="scale(0.015625)"/>
      </defs>
      <use xlink:href="#RobotoCondensed-Regular-47"/>
      <use xlink:href="#RobotoCondensed-Regular-69" transform="translate(59.082031 0)"/>
      <use xlink:href="#RobotoCondensed-Regular-72" transform="translate(82.03125 0)"/>
      <use xlink:href="#RobotoCondensed-Regular-6c" transform="translate(112.5 0)"/>
      <use xlink:href="#RobotoCondensed-Regular-73" transform="translate(135.449219 0)"/>
     </g>
    </g>
   </g>
  </g>
 </g>
 <defs>
  <clipPath id="p004a2ede45">
   <rect x="24.667188" y="19.5125" width="275.830669" height="177.22625"/>
  </clipPath>
 </defs>
</svg>
