<svg width="940" height="400" style="font-family: &quot;Noto Sans CJK JP&quot;, &quot;Noto Sans CJK SC&quot;, &quot;DejaVu Sans&quot;, sans-serif;"><g transform="translate(60,40)"><path fill="purple" opacity="0.7" d="M425,10L425,150Z"></path><path fill="orange" opacity="0.7" d="M425,150L425,150Z"></path><rect class="female-bar" x="405" y="10" width="40" height="140" fill="purple" opacity="0.8"></rect><line x1="0" x2="850" y1="150" y2="150" stroke="#666" stroke-width="1" stroke-dasharray="3,3"></line><g transform="translate(0,300)" fill="none" font-size="10" font-family="sans-serif" text-anchor="middle" style="font-size: 10px;"><path class="domain" stroke="currentColor" d="M0.5,6V0.5H850.5V6" style="stroke-width: 0.5px; stroke: gray;"></path><g class="tick" opacity="1" transform="translate(0.5,0)"><line stroke="currentColor" y2="6"></line><text fill="currentColor" y="9" dy="0.71em">2010</text></g><g class="tick" opacity="1" transform="translate(850.5,0)"><line stroke="currentColor" y2="6"></line><text fill="currentColor" y="9" dy="0.71em">2012</text></g></g><g fill="none" font-size="10" font-family="sans-serif" text-anchor="end" style="font-size: 10px;"><path class="domain" stroke="currentColor" d="M-6,150.5H0.5V0.5H-6" style="stroke-width: 0.5px; stroke: gray;"></path><g class="tick" opacity="1" transform="translate(0,150.5)"><line stroke="currentColor" x2="-6"></line><text fill="currentColor" x="-9" dy="0.32em">0</text></g><g class="tick" opacity="1" transform="translate(0,75.5)"><line stroke="currentColor" x2="-6"></line><text fill="currentColor" x="-9" dy="0.32em">1</text></g><g class="tick" opacity="1" transform="translate(0,0.5)"><line stroke="currentColor" x2="-6"></line><text fill="currentColor" x="-9" dy="0.32em">2</text></g></g><g fill="none" font-size="10" font-family="sans-serif" text-anchor="end" style="font-size: 10px;"><path class="domain" stroke="currentColor" d="M-6,150.5H0.5V300.5H-6" style="stroke-width: 0.5px; stroke: gray;"></path><g class="tick" opacity="1" transform="translate(0,150.5)"><line stroke="currentColor" x2="-6"></line><text fill="currentColor" x="-9" dy="0.32em">0</text></g><g class="tick" opacity="1" transform="translate(0,225.5)"><line stroke="currentColor" x2="-6"></line><text fill="currentColor" x="-9" dy="0.32em">1</text></g><g class="tick" opacity="1" transform="translate(0,300.5)"><line stroke="currentColor" x2="-6"></line><text fill="currentColor" x="-9" dy="0.32em">2</text></g></g><line x1="0" x2="850" y1="80" y2="80" stroke="gray" stroke-width="0.5" stroke-opacity="0.3"></line><line x1="0" x2="850" y1="220" y2="220" stroke="gray" stroke-width="0.5" stroke-opacity="0.3"></line><line x1="0" x2="850" y1="10" y2="10" stroke="gray" stroke-width="0.5" stroke-opacity="0.3"></line><line x1="0" x2="850" y1="290" y2="290" stroke="gray" stroke-width="0.5" stroke-opacity="0.3"></line><text x="425" y="350" text-anchor="middle" style="font-size: 11px;">Year</text><text transform="rotate(-90)" x="-150" y="-45" text-anchor="middle" style="font-size: 11px;">Frequency</text><g transform="translate(750, 10)"><rect width="15" height="15" fill="purple" opacity="0.7"></rect><text x="20" y="12" style="font-size: 10px;">Female</text><rect y="20" width="15" height="15" fill="orange" opacity="0.7"></rect><text x="20" y="32" style="font-size: 10px;">Male</text></g><g transform="translate(10, 260)"><text style="font-size: 10px; fill: rgb(102, 102, 102);">Total: 2 (M: 0, F: 2, F-ratio: 1.00)</text></g></g></svg>