<?xml version="1.0" encoding="utf-8" standalone="no"?>
<!DOCTYPE svg PUBLIC "-//W3C//DTD SVG 1.1//EN"
  "http://www.w3.org/Graphics/SVG/1.1/DTD/svg11.dtd">
<svg xmlns:xlink="http://www.w3.org/1999/xlink" width="711.780312pt" height="422.567656pt" viewBox="0 0 711.780312 422.567656" xmlns="http://www.w3.org/2000/svg" version="1.1">
 <metadata>
  <rdf:RDF xmlns:dc="http://purl.org/dc/elements/1.1/" xmlns:cc="http://creativecommons.org/ns#" xmlns:rdf="http://www.w3.org/1999/02/22-rdf-syntax-ns#">
   <cc:Work>
    <dc:type rdf:resource="http://purl.org/dc/dcmitype/StillImage"/>
    <dc:date>2026-04-25T15:08:10.251025</dc:date>
    <dc:format>image/svg+xml</dc:format>
    <dc:creator>
     <cc:Agent>
      <dc:title>Matplotlib v3.10.7, https://matplotlib.org/</dc:title>
     </cc:Agent>
    </dc:creator>
   </cc:Work>
  </rdf:RDF>
 </metadata>
 <defs>
  <style type="text/css">*{stroke-linejoin: round; stroke-linecap: butt}</style>
 </defs>
 <g id="figure_1">
  <g id="patch_1">
   <path d="M 0 422.567656 
L 711.780312 422.567656 
L 711.780312 0 
L 0 0 
z
" style="fill: #ffffff"/>
  </g>
  <g id="axes_1">
   <g id="patch_2">
    <path d="M 51.815313 381.817656 
L 692.370312 381.817656 
L 692.370312 11.577656 
L 51.815313 11.577656 
z
" style="fill: #ffffff"/>
   </g>
   <g id="matplotlib.axis_1">
    <g id="xtick_1">
     <g id="text_1">
      <!-- 1989 -->
      <g transform="translate(68.721449 397.572969) scale(0.11 -0.11)">
       <defs>
        <path id="NotoSansCJKjp-Regular-31" d="M 563 0 
L 3136 0 
L 3136 486 
L 2195 486 
L 2195 4698 
L 1747 4698 
C 1491 4544 1190 4435 774 4358 
L 774 3987 
L 1606 3987 
L 1606 486 
L 563 486 
L 563 0 
z
" transform="scale(0.015625)"/>
        <path id="NotoSansCJKjp-Regular-39" d="M 832 3258 
C 832 3898 1178 4320 1626 4320 
C 2227 4320 2586 3808 2650 2842 
C 2349 2400 1990 2214 1670 2214 
C 1114 2214 832 2624 832 3258 
z
M 1498 -83 
C 2381 -83 3200 646 3200 2547 
C 3200 4038 2528 4781 1626 4781 
C 896 4781 282 4166 282 3258 
C 282 2285 794 1779 1574 1779 
C 1965 1779 2368 2003 2656 2355 
C 2611 902 2086 403 1478 403 
C 1178 403 890 538 698 762 
L 371 397 
C 634 122 992 -83 1498 -83 
z
" transform="scale(0.015625)"/>
        <path id="NotoSansCJKjp-Regular-38" d="M 1786 -83 
C 2669 -83 3258 448 3258 1133 
C 3258 1773 2874 2125 2464 2362 
L 2464 2394 
C 2746 2611 3091 3034 3091 3526 
C 3091 4250 2605 4762 1805 4762 
C 1075 4762 518 4288 518 3571 
C 518 3078 806 2726 1152 2490 
L 1152 2458 
C 723 2227 288 1792 288 1165 
C 288 442 922 -83 1786 -83 
z
M 2106 2547 
C 1555 2765 1050 3008 1050 3571 
C 1050 4026 1363 4333 1798 4333 
C 2304 4333 2592 3955 2592 3494 
C 2592 3149 2426 2829 2106 2547 
z
M 1798 352 
C 1235 352 819 717 819 1216 
C 819 1664 1082 2035 1459 2278 
C 2125 2010 2701 1773 2701 1146 
C 2701 678 2336 352 1798 352 
z
" transform="scale(0.015625)"/>
       </defs>
       <use xlink:href="#NotoSansCJKjp-Regular-31"/>
       <use xlink:href="#NotoSansCJKjp-Regular-39" transform="translate(55.499985 0)"/>
       <use xlink:href="#NotoSansCJKjp-Regular-38" transform="translate(110.999969 0)"/>
       <use xlink:href="#NotoSansCJKjp-Regular-39" transform="translate(166.499954 0)"/>
      </g>
     </g>
    </g>
    <g id="xtick_2">
     <g id="text_2">
      <!-- 1992 -->
      <g transform="translate(156.069858 397.572969) scale(0.11 -0.11)">
       <defs>
        <path id="NotoSansCJKjp-Regular-32" d="M 282 0 
L 3232 0 
L 3232 506 
L 1933 506 
C 1696 506 1408 480 1165 461 
C 2266 1504 3002 2458 3002 3392 
C 3002 4230 2477 4781 1638 4781 
C 1043 4781 640 4506 256 4090 
L 595 3757 
C 851 4064 1184 4301 1568 4301 
C 2150 4301 2432 3910 2432 3373 
C 2432 2566 1754 1632 282 346 
L 282 0 
z
" transform="scale(0.015625)"/>
       </defs>
       <use xlink:href="#NotoSansCJKjp-Regular-31"/>
       <use xlink:href="#NotoSansCJKjp-Regular-39" transform="translate(55.499985 0)"/>
       <use xlink:href="#NotoSansCJKjp-Regular-39" transform="translate(110.999969 0)"/>
       <use xlink:href="#NotoSansCJKjp-Regular-32" transform="translate(166.499954 0)"/>
      </g>
     </g>
    </g>
    <g id="xtick_3">
     <g id="text_3">
      <!-- 1995 -->
      <g transform="translate(243.418267 397.572969) scale(0.11 -0.11)">
       <defs>
        <path id="NotoSansCJKjp-Regular-35" d="M 1670 -83 
C 2464 -83 3206 499 3206 1530 
C 3206 2560 2573 3021 1792 3021 
C 1510 3021 1306 2950 1094 2835 
L 1210 4192 
L 2982 4192 
L 2982 4698 
L 698 4698 
L 550 2496 
L 864 2304 
C 1133 2483 1331 2579 1645 2579 
C 2234 2579 2618 2182 2618 1510 
C 2618 826 2170 403 1619 403 
C 1075 403 736 653 467 922 
L 179 538 
C 493 224 941 -83 1670 -83 
z
" transform="scale(0.015625)"/>
       </defs>
       <use xlink:href="#NotoSansCJKjp-Regular-31"/>
       <use xlink:href="#NotoSansCJKjp-Regular-39" transform="translate(55.499985 0)"/>
       <use xlink:href="#NotoSansCJKjp-Regular-39" transform="translate(110.999969 0)"/>
       <use xlink:href="#NotoSansCJKjp-Regular-35" transform="translate(166.499954 0)"/>
      </g>
     </g>
    </g>
    <g id="xtick_4">
     <g id="text_4">
      <!-- 1998 -->
      <g transform="translate(330.766676 397.572969) scale(0.11 -0.11)">
       <use xlink:href="#NotoSansCJKjp-Regular-31"/>
       <use xlink:href="#NotoSansCJKjp-Regular-39" transform="translate(55.499985 0)"/>
       <use xlink:href="#NotoSansCJKjp-Regular-39" transform="translate(110.999969 0)"/>
       <use xlink:href="#NotoSansCJKjp-Regular-38" transform="translate(166.499954 0)"/>
      </g>
     </g>
    </g>
    <g id="xtick_5">
     <g id="text_5">
      <!-- 2001 -->
      <g transform="translate(418.115085 397.572969) scale(0.11 -0.11)">
       <defs>
        <path id="NotoSansCJKjp-Regular-30" d="M 1779 -83 
C 2669 -83 3238 730 3238 2362 
C 3238 3987 2669 4781 1779 4781 
C 883 4781 314 3994 314 2362 
C 314 730 883 -83 1779 -83 
z
M 1779 384 
C 1242 384 883 979 883 2362 
C 883 3731 1242 4314 1779 4314 
C 2310 4314 2669 3731 2669 2362 
C 2669 979 2310 384 1779 384 
z
" transform="scale(0.015625)"/>
       </defs>
       <use xlink:href="#NotoSansCJKjp-Regular-32"/>
       <use xlink:href="#NotoSansCJKjp-Regular-30" transform="translate(55.499985 0)"/>
       <use xlink:href="#NotoSansCJKjp-Regular-30" transform="translate(110.999969 0)"/>
       <use xlink:href="#NotoSansCJKjp-Regular-31" transform="translate(166.499954 0)"/>
      </g>
     </g>
    </g>
    <g id="xtick_6">
     <g id="text_6">
      <!-- 2004 -->
      <g transform="translate(505.463494 397.572969) scale(0.11 -0.11)">
       <defs>
        <path id="NotoSansCJKjp-Regular-34" d="M 736 1760 
L 1805 3360 
C 1939 3590 2067 3821 2182 4051 
L 2208 4051 
C 2195 3808 2176 3430 2176 3200 
L 2176 1760 
L 736 1760 
z
M 2176 0 
L 2726 0 
L 2726 1293 
L 3347 1293 
L 3347 1760 
L 2726 1760 
L 2726 4698 
L 2080 4698 
L 128 1677 
L 128 1293 
L 2176 1293 
L 2176 0 
z
" transform="scale(0.015625)"/>
       </defs>
       <use xlink:href="#NotoSansCJKjp-Regular-32"/>
       <use xlink:href="#NotoSansCJKjp-Regular-30" transform="translate(55.499985 0)"/>
       <use xlink:href="#NotoSansCJKjp-Regular-30" transform="translate(110.999969 0)"/>
       <use xlink:href="#NotoSansCJKjp-Regular-34" transform="translate(166.499954 0)"/>
      </g>
     </g>
    </g>
    <g id="xtick_7">
     <g id="text_7">
      <!-- 2007 -->
      <g transform="translate(592.811903 397.572969) scale(0.11 -0.11)">
       <defs>
        <path id="NotoSansCJKjp-Regular-37" d="M 1267 0 
L 1875 0 
C 1946 1837 2150 2931 3251 4339 
L 3251 4698 
L 314 4698 
L 314 4192 
L 2586 4192 
C 1670 2912 1344 1779 1267 0 
z
" transform="scale(0.015625)"/>
       </defs>
       <use xlink:href="#NotoSansCJKjp-Regular-32"/>
       <use xlink:href="#NotoSansCJKjp-Regular-30" transform="translate(55.499985 0)"/>
       <use xlink:href="#NotoSansCJKjp-Regular-30" transform="translate(110.999969 0)"/>
       <use xlink:href="#NotoSansCJKjp-Regular-37" transform="translate(166.499954 0)"/>
      </g>
     </g>
    </g>
    <g id="xtick_8">
     <g id="text_8">
      <!-- 2010 -->
      <g transform="translate(680.160313 397.572969) scale(0.11 -0.11)">
       <use xlink:href="#NotoSansCJKjp-Regular-32"/>
       <use xlink:href="#NotoSansCJKjp-Regular-30" transform="translate(55.499985 0)"/>
       <use xlink:href="#NotoSansCJKjp-Regular-31" transform="translate(110.999969 0)"/>
       <use xlink:href="#NotoSansCJKjp-Regular-30" transform="translate(166.499954 0)"/>
      </g>
     </g>
    </g>
    <g id="text_9">
     <!-- Year -->
     <g transform="translate(360.889141 412.847969) scale(0.11 -0.11)">
      <defs>
       <path id="NotoSansCJKjp-Regular-59" d="M 1402 0 
L 1997 0 
L 1997 1824 
L 3405 4698 
L 2790 4698 
L 2182 3366 
C 2042 3021 1882 2694 1715 2342 
L 1690 2342 
C 1523 2694 1382 3021 1229 3366 
L 627 4698 
L -6 4698 
L 1402 1824 
L 1402 0 
z
" transform="scale(0.015625)"/>
       <path id="NotoSansCJKjp-Regular-65" d="M 1990 -83 
C 2464 -83 2835 77 3142 275 
L 2931 659 
C 2675 486 2400 384 2061 384 
C 1402 384 947 858 909 1600 
L 3251 1600 
C 3264 1683 3277 1805 3277 1933 
C 3277 2925 2778 3565 1894 3565 
C 1088 3565 326 2861 326 1734 
C 326 589 1069 -83 1990 -83 
z
M 902 2022 
C 973 2701 1408 3098 1901 3098 
C 2445 3098 2765 2720 2765 2022 
L 902 2022 
z
" transform="scale(0.015625)"/>
       <path id="NotoSansCJKjp-Regular-61" d="M 1389 -83 
C 1818 -83 2208 141 2541 416 
L 2560 416 
L 2611 0 
L 3091 0 
L 3091 2138 
C 3091 2995 2733 3565 1888 3565 
C 1331 3565 838 3315 518 3110 
L 749 2707 
C 1024 2893 1389 3078 1792 3078 
C 2362 3078 2509 2650 2509 2202 
C 1030 2035 371 1658 371 902 
C 371 275 806 -83 1389 -83 
z
M 1555 384 
C 1210 384 941 544 941 941 
C 941 1389 1338 1677 2509 1818 
L 2509 845 
C 2170 544 1894 384 1555 384 
z
" transform="scale(0.015625)"/>
       <path id="NotoSansCJKjp-Regular-72" d="M 589 0 
L 1171 0 
L 1171 2234 
C 1402 2829 1760 3034 2048 3034 
C 2189 3034 2272 3021 2387 2976 
L 2496 3488 
C 2387 3546 2278 3565 2125 3565 
C 1734 3565 1382 3283 1139 2842 
L 1120 2842 
L 1069 3475 
L 589 3475 
L 589 0 
z
" transform="scale(0.015625)"/>
      </defs>
      <use xlink:href="#NotoSansCJKjp-Regular-59"/>
      <use xlink:href="#NotoSansCJKjp-Regular-65" transform="translate(53.099991 0)"/>
      <use xlink:href="#NotoSansCJKjp-Regular-61" transform="translate(108.499985 0)"/>
      <use xlink:href="#NotoSansCJKjp-Regular-72" transform="translate(164.899979 0)"/>
     </g>
    </g>
   </g>
   <g id="matplotlib.axis_2">
    <g id="ytick_1">
     <g id="line2d_1">
      <path d="M 51.815313 381.817656 
L 692.370312 381.817656 
" clip-path="url(#p679320d0dc)" style="fill: none; stroke: #808080; stroke-opacity: 0.3; stroke-width: 0.5; stroke-linecap: round"/>
     </g>
     <g id="text_10">
      <!-- 0% -->
      <g transform="translate(28.58 386.195312) scale(0.11 -0.11)">
       <defs>
        <path id="NotoSansCJKjp-Regular-25" d="M 1312 1818 
C 1958 1818 2381 2362 2381 3309 
C 2381 4250 1958 4781 1312 4781 
C 672 4781 250 4250 250 3309 
C 250 2362 672 1818 1312 1818 
z
M 1312 2182 
C 947 2182 691 2560 691 3309 
C 691 4058 947 4422 1312 4422 
C 1683 4422 1939 4058 1939 3309 
C 1939 2560 1683 2182 1312 2182 
z
M 1453 -83 
L 1843 -83 
L 4435 4781 
L 4038 4781 
L 1453 -83 
z
M 4582 -83 
C 5222 -83 5645 454 5645 1402 
C 5645 2342 5222 2874 4582 2874 
C 3942 2874 3514 2342 3514 1402 
C 3514 454 3942 -83 4582 -83 
z
M 4582 275 
C 4211 275 3962 653 3962 1402 
C 3962 2150 4211 2515 4582 2515 
C 4947 2515 5203 2150 5203 1402 
C 5203 653 4947 275 4582 275 
z
" transform="scale(0.015625)"/>
       </defs>
       <use xlink:href="#NotoSansCJKjp-Regular-30"/>
       <use xlink:href="#NotoSansCJKjp-Regular-25" transform="translate(55.499985 0)"/>
      </g>
     </g>
    </g>
    <g id="ytick_2">
     <g id="line2d_2">
      <path d="M 51.815313 307.769656 
L 692.370312 307.769656 
" clip-path="url(#p679320d0dc)" style="fill: none; stroke: #808080; stroke-opacity: 0.3; stroke-width: 0.5; stroke-linecap: round"/>
     </g>
     <g id="text_11">
      <!-- 2% -->
      <g transform="translate(28.58 312.147312) scale(0.11 -0.11)">
       <use xlink:href="#NotoSansCJKjp-Regular-32"/>
       <use xlink:href="#NotoSansCJKjp-Regular-25" transform="translate(55.499985 0)"/>
      </g>
     </g>
    </g>
    <g id="ytick_3">
     <g id="line2d_3">
      <path d="M 51.815313 233.721656 
L 692.370312 233.721656 
" clip-path="url(#p679320d0dc)" style="fill: none; stroke: #808080; stroke-opacity: 0.3; stroke-width: 0.5; stroke-linecap: round"/>
     </g>
     <g id="text_12">
      <!-- 4% -->
      <g transform="translate(28.58 238.099312) scale(0.11 -0.11)">
       <use xlink:href="#NotoSansCJKjp-Regular-34"/>
       <use xlink:href="#NotoSansCJKjp-Regular-25" transform="translate(55.499985 0)"/>
      </g>
     </g>
    </g>
    <g id="ytick_4">
     <g id="line2d_4">
      <path d="M 51.815313 159.673656 
L 692.370312 159.673656 
" clip-path="url(#p679320d0dc)" style="fill: none; stroke: #808080; stroke-opacity: 0.3; stroke-width: 0.5; stroke-linecap: round"/>
     </g>
     <g id="text_13">
      <!-- 6% -->
      <g transform="translate(28.58 164.051312) scale(0.11 -0.11)">
       <defs>
        <path id="NotoSansCJKjp-Regular-36" d="M 1875 2477 
C 2445 2477 2726 2074 2726 1440 
C 2726 800 2374 371 1926 371 
C 1338 371 986 902 915 1875 
C 1203 2304 1581 2477 1875 2477 
z
M 1926 -83 
C 2656 -83 3270 531 3270 1440 
C 3270 2419 2765 2912 1971 2912 
C 1600 2912 1190 2694 902 2342 
C 928 3802 1472 4294 2112 4294 
C 2400 4294 2682 4160 2867 3936 
L 3187 4301 
C 2931 4576 2579 4781 2093 4781 
C 1184 4781 358 4077 358 2240 
C 358 691 1024 -83 1926 -83 
z
" transform="scale(0.015625)"/>
       </defs>
       <use xlink:href="#NotoSansCJKjp-Regular-36"/>
       <use xlink:href="#NotoSansCJKjp-Regular-25" transform="translate(55.499985 0)"/>
      </g>
     </g>
    </g>
    <g id="ytick_5">
     <g id="line2d_5">
      <path d="M 51.815313 85.625656 
L 692.370312 85.625656 
" clip-path="url(#p679320d0dc)" style="fill: none; stroke: #808080; stroke-opacity: 0.3; stroke-width: 0.5; stroke-linecap: round"/>
     </g>
     <g id="text_14">
      <!-- 8% -->
      <g transform="translate(28.58 90.003312) scale(0.11 -0.11)">
       <use xlink:href="#NotoSansCJKjp-Regular-38"/>
       <use xlink:href="#NotoSansCJKjp-Regular-25" transform="translate(55.499985 0)"/>
      </g>
     </g>
    </g>
    <g id="ytick_6">
     <g id="line2d_6">
      <path d="M 51.815313 11.577656 
L 692.370312 11.577656 
" clip-path="url(#p679320d0dc)" style="fill: none; stroke: #808080; stroke-opacity: 0.3; stroke-width: 0.5; stroke-linecap: round"/>
     </g>
     <g id="text_15">
      <!-- 10% -->
      <g transform="translate(22.475 15.955312) scale(0.11 -0.11)">
       <use xlink:href="#NotoSansCJKjp-Regular-31"/>
       <use xlink:href="#NotoSansCJKjp-Regular-30" transform="translate(55.499985 0)"/>
       <use xlink:href="#NotoSansCJKjp-Regular-25" transform="translate(110.999969 0)"/>
      </g>
     </g>
    </g>
    <g id="text_16">
     <!-- Proportion -->
     <g transform="translate(15.955313 224.795781) rotate(-90) scale(0.11 -0.11)">
      <defs>
       <path id="NotoSansCJKjp-Regular-50" d="M 640 0 
L 1235 0 
L 1235 1862 
L 2010 1862 
C 3040 1862 3738 2323 3738 3315 
C 3738 4339 3034 4698 1984 4698 
L 640 4698 
L 640 0 
z
M 1235 2342 
L 1235 4211 
L 1907 4211 
C 2733 4211 3149 3994 3149 3315 
C 3149 2643 2758 2342 1933 2342 
L 1235 2342 
z
" transform="scale(0.015625)"/>
       <path id="NotoSansCJKjp-Regular-6f" d="M 1939 -83 
C 2790 -83 3552 582 3552 1734 
C 3552 2893 2790 3565 1939 3565 
C 1088 3565 326 2893 326 1734 
C 326 582 1088 -83 1939 -83 
z
M 1939 403 
C 1338 403 934 934 934 1734 
C 934 2534 1338 3078 1939 3078 
C 2541 3078 2950 2534 2950 1734 
C 2950 934 2541 403 1939 403 
z
" transform="scale(0.015625)"/>
       <path id="NotoSansCJKjp-Regular-70" d="M 589 -1466 
L 1171 -1466 
L 1171 -288 
L 1158 320 
C 1472 64 1805 -83 2118 -83 
C 2918 -83 3629 602 3629 1792 
C 3629 2861 3142 3565 2246 3565 
C 1843 3565 1453 3334 1139 3078 
L 1120 3078 
L 1069 3475 
L 589 3475 
L 589 -1466 
z
M 2022 403 
C 1792 403 1485 499 1171 768 
L 1171 2592 
C 1510 2906 1811 3072 2106 3072 
C 2765 3072 3021 2554 3021 1786 
C 3021 922 2598 403 2022 403 
z
" transform="scale(0.015625)"/>
       <path id="NotoSansCJKjp-Regular-74" d="M 1683 -83 
C 1894 -83 2125 -19 2323 45 
L 2208 480 
C 2093 435 1933 390 1811 390 
C 1408 390 1274 634 1274 1062 
L 1274 3002 
L 2214 3002 
L 2214 3475 
L 1274 3475 
L 1274 4454 
L 787 4454 
L 717 3475 
L 173 3443 
L 173 3002 
L 691 3002 
L 691 1075 
C 691 384 941 -83 1683 -83 
z
" transform="scale(0.015625)"/>
       <path id="NotoSansCJKjp-Regular-69" d="M 589 0 
L 1171 0 
L 1171 3475 
L 589 3475 
L 589 0 
z
M 883 4192 
C 1114 4192 1274 4346 1274 4582 
C 1274 4806 1114 4960 883 4960 
C 653 4960 493 4806 493 4582 
C 493 4346 653 4192 883 4192 
z
" transform="scale(0.015625)"/>
       <path id="NotoSansCJKjp-Regular-6e" d="M 589 0 
L 1171 0 
L 1171 2522 
C 1523 2874 1766 3053 2125 3053 
C 2586 3053 2784 2778 2784 2125 
L 2784 0 
L 3366 0 
L 3366 2202 
C 3366 3091 3034 3565 2304 3565 
C 1830 3565 1472 3302 1139 2976 
L 1120 2976 
L 1069 3475 
L 589 3475 
L 589 0 
z
" transform="scale(0.015625)"/>
      </defs>
      <use xlink:href="#NotoSansCJKjp-Regular-50"/>
      <use xlink:href="#NotoSansCJKjp-Regular-72" transform="translate(63.199997 0)"/>
      <use xlink:href="#NotoSansCJKjp-Regular-6f" transform="translate(101.999985 0)"/>
      <use xlink:href="#NotoSansCJKjp-Regular-70" transform="translate(162.599976 0)"/>
      <use xlink:href="#NotoSansCJKjp-Regular-6f" transform="translate(224.59996 0)"/>
      <use xlink:href="#NotoSansCJKjp-Regular-72" transform="translate(285.199951 0)"/>
      <use xlink:href="#NotoSansCJKjp-Regular-74" transform="translate(323.999939 0)"/>
      <use xlink:href="#NotoSansCJKjp-Regular-69" transform="translate(361.699936 0)"/>
      <use xlink:href="#NotoSansCJKjp-Regular-6f" transform="translate(389.199921 0)"/>
      <use xlink:href="#NotoSansCJKjp-Regular-6e" transform="translate(449.799911 0)"/>
     </g>
    </g>
   </g>
   <g id="FillBetweenPolyCollection_1">
    <path d="M 80.931449 381.801904 
L 80.931449 381.817656 
L 82.879017 381.817656 
L 84.826584 381.817656 
L 86.774152 381.817656 
L 88.721719 381.817656 
L 90.669287 381.817656 
L 92.616855 381.817656 
L 94.564422 381.817656 
L 96.51199 381.817656 
L 98.459558 381.817656 
L 100.407125 381.817656 
L 102.354693 381.817656 
L 104.302261 381.817656 
L 106.249828 381.817656 
L 108.197396 381.817656 
L 110.144964 381.817656 
L 112.092531 381.817656 
L 114.040099 381.817656 
L 115.987667 381.817656 
L 117.935234 381.817656 
L 119.882802 381.817656 
L 121.83037 381.817656 
L 123.777937 381.817656 
L 125.725505 381.817656 
L 127.673072 381.817656 
L 129.62064 381.817656 
L 131.568208 381.817656 
L 133.515775 381.817656 
L 135.463343 381.817656 
L 137.410911 381.817656 
L 139.358478 381.817656 
L 141.306046 381.817656 
L 143.253614 381.817656 
L 145.201181 381.817656 
L 147.148749 381.817656 
L 149.096317 381.817656 
L 151.043884 381.817656 
L 152.991452 381.817656 
L 154.93902 381.817656 
L 156.886587 381.817656 
L 158.834155 381.817656 
L 160.781723 381.817656 
L 162.72929 381.817656 
L 164.676858 381.817656 
L 166.624425 381.817656 
L 168.571993 381.817656 
L 170.519561 381.817656 
L 172.467128 381.817656 
L 174.414696 381.817656 
L 176.362264 381.817656 
L 178.309831 381.817656 
L 180.257399 381.817656 
L 182.204967 381.817656 
L 184.152534 381.817656 
L 186.100102 381.817656 
L 188.04767 381.817656 
L 189.995237 381.817656 
L 191.942805 381.817656 
L 193.890373 381.817656 
L 195.83794 381.817656 
L 197.785508 381.817656 
L 199.733075 381.817656 
L 201.680643 381.817656 
L 203.628211 381.817656 
L 205.575778 381.817656 
L 207.523346 381.817656 
L 209.470914 381.817656 
L 211.418481 381.817656 
L 213.366049 381.817656 
L 215.313617 381.817656 
L 217.261184 381.817656 
L 219.208752 381.817656 
L 221.15632 381.817656 
L 223.103887 381.817656 
L 225.051455 381.817656 
L 226.999023 381.817656 
L 228.94659 381.817656 
L 230.894158 381.817656 
L 232.841726 381.817656 
L 234.789293 381.817656 
L 236.736861 381.817656 
L 238.684428 381.817656 
L 240.631996 381.817656 
L 242.579564 381.817656 
L 244.527131 381.817656 
L 246.474699 381.817656 
L 248.422267 381.817656 
L 250.369834 381.817656 
L 252.317402 381.817656 
L 254.26497 381.817656 
L 256.212537 381.817656 
L 258.160105 381.817656 
L 260.107673 381.817656 
L 262.05524 381.817656 
L 264.002808 381.817656 
L 265.950376 381.817656 
L 267.897943 381.817656 
L 269.845511 381.817656 
L 271.793079 381.817656 
L 273.740646 381.817656 
L 275.688214 381.817656 
L 277.635781 381.817656 
L 279.583349 381.817656 
L 281.530917 381.817656 
L 283.478484 381.817656 
L 285.426052 381.817656 
L 287.37362 381.817656 
L 289.321187 381.817656 
L 291.268755 381.817656 
L 293.216323 381.817656 
L 295.16389 381.817656 
L 297.111458 381.817656 
L 299.059026 381.817656 
L 301.006593 381.817656 
L 302.954161 381.817656 
L 304.901729 381.817656 
L 306.849296 381.817656 
L 308.796864 381.817656 
L 310.744432 381.817656 
L 312.691999 381.817656 
L 314.639567 381.817656 
L 316.587134 381.817656 
L 318.534702 381.817656 
L 320.48227 381.817656 
L 322.429837 381.817656 
L 324.377405 381.817656 
L 326.324973 381.817656 
L 328.27254 381.817656 
L 330.220108 381.817656 
L 332.167676 381.817656 
L 334.115243 381.817656 
L 336.062811 381.817656 
L 338.010379 381.817656 
L 339.957946 381.817656 
L 341.905514 381.817656 
L 343.853082 381.817656 
L 345.800649 381.817656 
L 347.748217 381.817656 
L 349.695785 381.817656 
L 351.643352 381.817656 
L 353.59092 381.817656 
L 355.538487 381.817656 
L 357.486055 381.817656 
L 359.433623 381.817656 
L 361.38119 381.817656 
L 363.328758 381.817656 
L 365.276326 381.817656 
L 367.223893 381.817656 
L 369.171461 381.817656 
L 371.119029 381.817656 
L 373.066596 381.817656 
L 375.014164 381.817656 
L 376.961732 381.817656 
L 378.909299 381.817656 
L 380.856867 381.817656 
L 382.804435 381.817656 
L 384.752002 381.817656 
L 386.69957 381.817656 
L 388.647138 381.817656 
L 390.594705 381.817656 
L 392.542273 381.817656 
L 394.48984 381.817656 
L 396.437408 381.817656 
L 398.384976 381.817656 
L 400.332543 381.817656 
L 402.280111 381.817656 
L 404.227679 381.817656 
L 406.175246 381.817656 
L 408.122814 381.817656 
L 410.070382 381.817656 
L 412.017949 381.817656 
L 413.965517 381.817656 
L 415.913085 381.817656 
L 417.860652 381.817656 
L 419.80822 381.817656 
L 421.755788 381.817656 
L 423.703355 381.817656 
L 425.650923 381.817656 
L 427.598491 381.817656 
L 429.546058 381.817656 
L 431.493626 381.817656 
L 433.441193 381.817656 
L 435.388761 381.817656 
L 437.336329 381.817656 
L 439.283896 381.817656 
L 441.231464 381.817656 
L 443.179032 381.817656 
L 445.126599 381.817656 
L 447.074167 381.817656 
L 449.021735 381.817656 
L 450.969302 381.817656 
L 452.91687 381.817656 
L 454.864438 381.817656 
L 456.812005 381.817656 
L 458.759573 381.817656 
L 460.707141 381.817656 
L 462.654708 381.817656 
L 464.602276 381.817656 
L 466.549844 381.817656 
L 468.497411 381.817656 
L 470.444979 381.817656 
L 472.392546 381.817656 
L 474.340114 381.817656 
L 476.287682 381.817656 
L 478.235249 381.817656 
L 480.182817 381.817656 
L 482.130385 381.817656 
L 484.077952 381.817656 
L 486.02552 381.817656 
L 487.973088 381.817656 
L 489.920655 381.817656 
L 491.868223 381.817656 
L 493.815791 381.817656 
L 495.763358 381.817656 
L 497.710926 381.817656 
L 499.658494 381.817656 
L 501.606061 381.817656 
L 503.553629 381.817656 
L 505.501197 381.817656 
L 507.448764 381.817656 
L 509.396332 381.817656 
L 511.343899 381.817656 
L 513.291467 381.817656 
L 515.239035 381.817656 
L 517.186602 381.817656 
L 519.13417 381.817656 
L 521.081738 381.817656 
L 523.029305 381.817656 
L 524.976873 381.817656 
L 526.924441 381.817656 
L 528.872008 381.817656 
L 530.819576 381.817656 
L 532.767144 381.817656 
L 534.714711 381.817656 
L 536.662279 381.817656 
L 538.609847 381.817656 
L 540.557414 381.817656 
L 542.504982 381.817656 
L 544.45255 381.817656 
L 546.400117 381.817656 
L 548.347685 381.817656 
L 550.295252 381.817656 
L 552.24282 381.817656 
L 554.190388 381.817656 
L 556.137955 381.817656 
L 558.085523 381.817656 
L 560.033091 381.817656 
L 561.980658 381.817656 
L 563.928226 381.817656 
L 565.875794 381.817656 
L 567.823361 381.817656 
L 569.770929 381.817656 
L 571.718497 381.817656 
L 573.666064 381.817656 
L 575.613632 381.817656 
L 577.5612 381.817656 
L 579.508767 381.817656 
L 581.456335 381.817656 
L 583.403902 381.817656 
L 585.35147 381.817656 
L 587.299038 381.817656 
L 589.246605 381.817656 
L 591.194173 381.817656 
L 593.141741 381.817656 
L 595.089308 381.817656 
L 597.036876 381.817656 
L 598.984444 381.817656 
L 600.932011 381.817656 
L 602.879579 381.817656 
L 604.827147 381.817656 
L 606.774714 381.817656 
L 608.722282 381.817656 
L 610.66985 381.817656 
L 612.617417 381.817656 
L 614.564985 381.817656 
L 616.512553 381.817656 
L 618.46012 381.817656 
L 620.407688 381.817656 
L 622.355255 381.817656 
L 624.302823 381.817656 
L 626.250391 381.817656 
L 628.197958 381.817656 
L 630.145526 381.817656 
L 632.093094 381.817656 
L 634.040661 381.817656 
L 635.988229 381.817656 
L 637.935797 381.817656 
L 639.883364 381.817656 
L 641.830932 381.817656 
L 643.7785 381.817656 
L 645.726067 381.817656 
L 647.673635 381.817656 
L 649.621203 381.817656 
L 651.56877 381.817656 
L 653.516338 381.817656 
L 655.463906 381.817656 
L 657.411473 381.817656 
L 659.359041 381.817656 
L 661.306608 381.817656 
L 663.254176 381.817656 
L 663.254176 381.785202 
L 663.254176 381.785202 
L 661.306608 381.785552 
L 659.359041 381.785897 
L 657.411473 381.786237 
L 655.463906 381.786573 
L 653.516338 381.786903 
L 651.56877 381.787229 
L 649.621203 381.78755 
L 647.673635 381.787865 
L 645.726067 381.788175 
L 643.7785 381.788479 
L 641.830932 381.788778 
L 639.883364 381.789071 
L 637.935797 381.789357 
L 635.988229 381.789638 
L 634.040661 381.789913 
L 632.093094 381.790178 
L 630.145526 381.790433 
L 628.197958 381.79068 
L 626.250391 381.790919 
L 624.302823 381.791152 
L 622.355255 381.791381 
L 620.407688 381.791607 
L 618.46012 381.791832 
L 616.512553 381.792058 
L 614.564985 381.792285 
L 612.617417 381.792516 
L 610.66985 381.792752 
L 608.722282 381.792994 
L 606.774714 381.793244 
L 604.827147 381.793504 
L 602.879579 381.793759 
L 600.932011 381.794001 
L 598.984444 381.794236 
L 597.036876 381.794466 
L 595.089308 381.794697 
L 593.141741 381.794932 
L 591.194173 381.795177 
L 589.246605 381.795434 
L 587.299038 381.795708 
L 585.35147 381.796004 
L 583.403902 381.796325 
L 581.456335 381.796676 
L 579.508767 381.797061 
L 577.5612 381.797485 
L 575.613632 381.797955 
L 573.666064 381.798683 
L 571.718497 381.799746 
L 569.770929 381.801087 
L 567.823361 381.802647 
L 565.875794 381.804368 
L 563.928226 381.806191 
L 561.980658 381.80806 
L 560.033091 381.809915 
L 558.085523 381.811699 
L 556.137955 381.813353 
L 554.190388 381.814819 
L 552.24282 381.81604 
L 550.295252 381.816957 
L 548.347685 381.817512 
L 546.400117 381.817651 
L 544.45255 381.817464 
L 542.504982 381.817032 
L 540.557414 381.816378 
L 538.609847 381.815531 
L 536.662279 381.814514 
L 534.714711 381.813354 
L 532.767144 381.812077 
L 530.819576 381.810708 
L 528.872008 381.809272 
L 526.924441 381.807797 
L 524.976873 381.806307 
L 523.029305 381.804828 
L 521.081738 381.803386 
L 519.13417 381.802007 
L 517.186602 381.800705 
L 515.239035 381.799265 
L 513.291467 381.797631 
L 511.343899 381.795847 
L 509.396332 381.793958 
L 507.448764 381.79201 
L 505.501197 381.790045 
L 503.553629 381.788111 
L 501.606061 381.786251 
L 499.658494 381.784511 
L 497.710926 381.782935 
L 495.763358 381.781568 
L 493.815791 381.780455 
L 491.868223 381.779641 
L 489.920655 381.779171 
L 487.973088 381.779096 
L 486.02552 381.779521 
L 484.077952 381.780414 
L 482.130385 381.781699 
L 480.182817 381.783299 
L 478.235249 381.78514 
L 476.287682 381.787146 
L 474.340114 381.78924 
L 472.392546 381.791348 
L 470.444979 381.793394 
L 468.497411 381.795301 
L 466.549844 381.796994 
L 464.602276 381.798398 
L 462.654708 381.799437 
L 460.707141 381.800034 
L 458.759573 381.800137 
L 456.812005 381.799967 
L 454.864438 381.799622 
L 452.91687 381.799131 
L 450.969302 381.798522 
L 449.021735 381.797824 
L 447.074167 381.797064 
L 445.126599 381.796273 
L 443.179032 381.795478 
L 441.231464 381.794709 
L 439.283896 381.793992 
L 437.336329 381.793358 
L 435.388761 381.792835 
L 433.441193 381.792451 
L 431.493626 381.792234 
L 429.546058 381.79225 
L 427.598491 381.792825 
L 425.650923 381.793954 
L 423.703355 381.795548 
L 421.755788 381.797515 
L 419.80822 381.799762 
L 417.860652 381.802199 
L 415.913085 381.804735 
L 413.965517 381.807277 
L 412.017949 381.809735 
L 410.070382 381.812017 
L 408.122814 381.814031 
L 406.175246 381.815687 
L 404.227679 381.816892 
L 402.280111 381.817555 
L 400.332543 381.817642 
L 398.384976 381.817515 
L 396.437408 381.817259 
L 394.48984 381.816881 
L 392.542273 381.816389 
L 390.594705 381.815788 
L 388.647138 381.815087 
L 386.69957 381.81429 
L 384.752002 381.813405 
L 382.804435 381.812439 
L 380.856867 381.811399 
L 378.909299 381.810291 
L 376.961732 381.809121 
L 375.014164 381.807897 
L 373.066596 381.806625 
L 371.119029 381.805158 
L 369.171461 381.802647 
L 367.223893 381.799116 
L 365.276326 381.79475 
L 363.328758 381.789736 
L 361.38119 381.784257 
L 359.433623 381.7785 
L 357.486055 381.77265 
L 355.538487 381.766892 
L 353.59092 381.761413 
L 351.643352 381.756396 
L 349.695785 381.752029 
L 347.748217 381.748495 
L 345.800649 381.745982 
L 343.853082 381.744673 
L 341.905514 381.744659 
L 339.957946 381.745538 
L 338.010379 381.747144 
L 336.062811 381.749366 
L 334.115243 381.752094 
L 332.167676 381.755217 
L 330.220108 381.758623 
L 328.27254 381.762202 
L 326.324973 381.765842 
L 324.377405 381.769433 
L 322.429837 381.772863 
L 320.48227 381.776022 
L 318.534702 381.778799 
L 316.587134 381.781083 
L 314.639567 381.782762 
L 312.691999 381.783864 
L 310.744432 381.784886 
L 308.796864 381.78588 
L 306.849296 381.786839 
L 304.901729 381.787755 
L 302.954161 381.788622 
L 301.006593 381.789432 
L 299.059026 381.790179 
L 297.111458 381.790854 
L 295.16389 381.791452 
L 293.216323 381.791965 
L 291.268755 381.792385 
L 289.321187 381.792707 
L 287.37362 381.792922 
L 285.426052 381.793023 
L 283.478484 381.79292 
L 281.530917 381.792347 
L 279.583349 381.791351 
L 277.635781 381.790005 
L 275.688214 381.788381 
L 273.740646 381.786552 
L 271.793079 381.784591 
L 269.845511 381.78257 
L 267.897943 381.780562 
L 265.950376 381.778638 
L 264.002808 381.776873 
L 262.05524 381.775338 
L 260.107673 381.774107 
L 258.160105 381.773251 
L 256.212537 381.772843 
L 254.26497 381.772879 
L 252.317402 381.773163 
L 250.369834 381.773655 
L 248.422267 381.774328 
L 246.474699 381.775154 
L 244.527131 381.776107 
L 242.579564 381.777159 
L 240.631996 381.778283 
L 238.684428 381.779452 
L 236.736861 381.780639 
L 234.789293 381.781817 
L 232.841726 381.782959 
L 230.894158 381.784037 
L 228.94659 381.785024 
L 226.999023 381.785894 
L 225.051455 381.786648 
L 223.103887 381.787348 
L 221.15632 381.788006 
L 219.208752 381.788632 
L 217.261184 381.789234 
L 215.313617 381.789822 
L 213.366049 381.790404 
L 211.418481 381.790989 
L 209.470914 381.791588 
L 207.523346 381.792207 
L 205.575778 381.792858 
L 203.628211 381.793548 
L 201.680643 381.794288 
L 199.733075 381.795085 
L 197.785508 381.795949 
L 195.83794 381.796965 
L 193.890373 381.798267 
L 191.942805 381.799807 
L 189.995237 381.801532 
L 188.04767 381.803389 
L 186.100102 381.805327 
L 184.152534 381.807291 
L 182.204967 381.809229 
L 180.257399 381.811089 
L 178.309831 381.812818 
L 176.362264 381.814363 
L 174.414696 381.815672 
L 172.467128 381.816691 
L 170.519561 381.817369 
L 168.571993 381.817651 
L 166.624425 381.817656 
L 164.676858 381.817656 
L 162.72929 381.817656 
L 160.781723 381.817656 
L 158.834155 381.817656 
L 156.886587 381.817656 
L 154.93902 381.817656 
L 152.991452 381.817656 
L 151.043884 381.817656 
L 149.096317 381.817656 
L 147.148749 381.817656 
L 145.201181 381.817656 
L 143.253614 381.817656 
L 141.306046 381.817656 
L 139.358478 381.817656 
L 137.410911 381.817656 
L 135.463343 381.817656 
L 133.515775 381.817656 
L 131.568208 381.817656 
L 129.62064 381.817656 
L 127.673072 381.817656 
L 125.725505 381.817656 
L 123.777937 381.817656 
L 121.83037 381.817656 
L 119.882802 381.817656 
L 117.935234 381.817656 
L 115.987667 381.817656 
L 114.040099 381.817656 
L 112.092531 381.817656 
L 110.144964 381.817656 
L 108.197396 381.817563 
L 106.249828 381.817272 
L 104.302261 381.816797 
L 102.354693 381.816152 
L 100.407125 381.815352 
L 98.459558 381.81441 
L 96.51199 381.813341 
L 94.564422 381.812159 
L 92.616855 381.810878 
L 90.669287 381.809512 
L 88.721719 381.808075 
L 86.774152 381.806582 
L 84.826584 381.805046 
L 82.879017 381.803482 
L 80.931449 381.801904 
z
" clip-path="url(#p679320d0dc)" style="fill: url(#had20891aa6)"/>
   </g>
   <g id="FillBetweenPolyCollection_2">
    <path d="M 80.931449 381.534115 
L 80.931449 381.801904 
L 82.879017 381.803482 
L 84.826584 381.805046 
L 86.774152 381.806582 
L 88.721719 381.808075 
L 90.669287 381.809512 
L 92.616855 381.810878 
L 94.564422 381.812159 
L 96.51199 381.813341 
L 98.459558 381.81441 
L 100.407125 381.815352 
L 102.354693 381.816152 
L 104.302261 381.816797 
L 106.249828 381.817272 
L 108.197396 381.817563 
L 110.144964 381.817656 
L 112.092531 381.817656 
L 114.040099 381.817656 
L 115.987667 381.817656 
L 117.935234 381.817656 
L 119.882802 381.817656 
L 121.83037 381.817656 
L 123.777937 381.817656 
L 125.725505 381.817656 
L 127.673072 381.817656 
L 129.62064 381.817656 
L 131.568208 381.817656 
L 133.515775 381.817656 
L 135.463343 381.817656 
L 137.410911 381.817656 
L 139.358478 381.817656 
L 141.306046 381.817656 
L 143.253614 381.817656 
L 145.201181 381.817656 
L 147.148749 381.817656 
L 149.096317 381.817656 
L 151.043884 381.817656 
L 152.991452 381.817656 
L 154.93902 381.817656 
L 156.886587 381.817656 
L 158.834155 381.817656 
L 160.781723 381.817656 
L 162.72929 381.817656 
L 164.676858 381.817656 
L 166.624425 381.817656 
L 168.571993 381.817651 
L 170.519561 381.817369 
L 172.467128 381.816691 
L 174.414696 381.815672 
L 176.362264 381.814363 
L 178.309831 381.812818 
L 180.257399 381.811089 
L 182.204967 381.809229 
L 184.152534 381.807291 
L 186.100102 381.805327 
L 188.04767 381.803389 
L 189.995237 381.801532 
L 191.942805 381.799807 
L 193.890373 381.798267 
L 195.83794 381.796965 
L 197.785508 381.795949 
L 199.733075 381.795085 
L 201.680643 381.794288 
L 203.628211 381.793548 
L 205.575778 381.792858 
L 207.523346 381.792207 
L 209.470914 381.791588 
L 211.418481 381.790989 
L 213.366049 381.790404 
L 215.313617 381.789822 
L 217.261184 381.789234 
L 219.208752 381.788632 
L 221.15632 381.788006 
L 223.103887 381.787348 
L 225.051455 381.786648 
L 226.999023 381.785894 
L 228.94659 381.785024 
L 230.894158 381.784037 
L 232.841726 381.782959 
L 234.789293 381.781817 
L 236.736861 381.780639 
L 238.684428 381.779452 
L 240.631996 381.778283 
L 242.579564 381.777159 
L 244.527131 381.776107 
L 246.474699 381.775154 
L 248.422267 381.774328 
L 250.369834 381.773655 
L 252.317402 381.773163 
L 254.26497 381.772879 
L 256.212537 381.772843 
L 258.160105 381.773251 
L 260.107673 381.774107 
L 262.05524 381.775338 
L 264.002808 381.776873 
L 265.950376 381.778638 
L 267.897943 381.780562 
L 269.845511 381.78257 
L 271.793079 381.784591 
L 273.740646 381.786552 
L 275.688214 381.788381 
L 277.635781 381.790005 
L 279.583349 381.791351 
L 281.530917 381.792347 
L 283.478484 381.79292 
L 285.426052 381.793023 
L 287.37362 381.792922 
L 289.321187 381.792707 
L 291.268755 381.792385 
L 293.216323 381.791965 
L 295.16389 381.791452 
L 297.111458 381.790854 
L 299.059026 381.790179 
L 301.006593 381.789432 
L 302.954161 381.788622 
L 304.901729 381.787755 
L 306.849296 381.786839 
L 308.796864 381.78588 
L 310.744432 381.784886 
L 312.691999 381.783864 
L 314.639567 381.782762 
L 316.587134 381.781083 
L 318.534702 381.778799 
L 320.48227 381.776022 
L 322.429837 381.772863 
L 324.377405 381.769433 
L 326.324973 381.765842 
L 328.27254 381.762202 
L 330.220108 381.758623 
L 332.167676 381.755217 
L 334.115243 381.752094 
L 336.062811 381.749366 
L 338.010379 381.747144 
L 339.957946 381.745538 
L 341.905514 381.744659 
L 343.853082 381.744673 
L 345.800649 381.745982 
L 347.748217 381.748495 
L 349.695785 381.752029 
L 351.643352 381.756396 
L 353.59092 381.761413 
L 355.538487 381.766892 
L 357.486055 381.77265 
L 359.433623 381.7785 
L 361.38119 381.784257 
L 363.328758 381.789736 
L 365.276326 381.79475 
L 367.223893 381.799116 
L 369.171461 381.802647 
L 371.119029 381.805158 
L 373.066596 381.806625 
L 375.014164 381.807897 
L 376.961732 381.809121 
L 378.909299 381.810291 
L 380.856867 381.811399 
L 382.804435 381.812439 
L 384.752002 381.813405 
L 386.69957 381.81429 
L 388.647138 381.815087 
L 390.594705 381.815788 
L 392.542273 381.816389 
L 394.48984 381.816881 
L 396.437408 381.817259 
L 398.384976 381.817515 
L 400.332543 381.817642 
L 402.280111 381.817555 
L 404.227679 381.816892 
L 406.175246 381.815687 
L 408.122814 381.814031 
L 410.070382 381.812017 
L 412.017949 381.809735 
L 413.965517 381.807277 
L 415.913085 381.804735 
L 417.860652 381.802199 
L 419.80822 381.799762 
L 421.755788 381.797515 
L 423.703355 381.795548 
L 425.650923 381.793954 
L 427.598491 381.792825 
L 429.546058 381.79225 
L 431.493626 381.792234 
L 433.441193 381.792451 
L 435.388761 381.792835 
L 437.336329 381.793358 
L 439.283896 381.793992 
L 441.231464 381.794709 
L 443.179032 381.795478 
L 445.126599 381.796273 
L 447.074167 381.797064 
L 449.021735 381.797824 
L 450.969302 381.798522 
L 452.91687 381.799131 
L 454.864438 381.799622 
L 456.812005 381.799967 
L 458.759573 381.800137 
L 460.707141 381.800034 
L 462.654708 381.799437 
L 464.602276 381.798398 
L 466.549844 381.796994 
L 468.497411 381.795301 
L 470.444979 381.793394 
L 472.392546 381.791348 
L 474.340114 381.78924 
L 476.287682 381.787146 
L 478.235249 381.78514 
L 480.182817 381.783299 
L 482.130385 381.781699 
L 484.077952 381.780414 
L 486.02552 381.779521 
L 487.973088 381.779096 
L 489.920655 381.779171 
L 491.868223 381.779641 
L 493.815791 381.780455 
L 495.763358 381.781568 
L 497.710926 381.782935 
L 499.658494 381.784511 
L 501.606061 381.786251 
L 503.553629 381.788111 
L 505.501197 381.790045 
L 507.448764 381.79201 
L 509.396332 381.793958 
L 511.343899 381.795847 
L 513.291467 381.797631 
L 515.239035 381.799265 
L 517.186602 381.800705 
L 519.13417 381.802007 
L 521.081738 381.803386 
L 523.029305 381.804828 
L 524.976873 381.806307 
L 526.924441 381.807797 
L 528.872008 381.809272 
L 530.819576 381.810708 
L 532.767144 381.812077 
L 534.714711 381.813354 
L 536.662279 381.814514 
L 538.609847 381.815531 
L 540.557414 381.816378 
L 542.504982 381.817032 
L 544.45255 381.817464 
L 546.400117 381.817651 
L 548.347685 381.817512 
L 550.295252 381.816957 
L 552.24282 381.81604 
L 554.190388 381.814819 
L 556.137955 381.813353 
L 558.085523 381.811699 
L 560.033091 381.809915 
L 561.980658 381.80806 
L 563.928226 381.806191 
L 565.875794 381.804368 
L 567.823361 381.802647 
L 569.770929 381.801087 
L 571.718497 381.799746 
L 573.666064 381.798683 
L 575.613632 381.797955 
L 577.5612 381.797485 
L 579.508767 381.797061 
L 581.456335 381.796676 
L 583.403902 381.796325 
L 585.35147 381.796004 
L 587.299038 381.795708 
L 589.246605 381.795434 
L 591.194173 381.795177 
L 593.141741 381.794932 
L 595.089308 381.794697 
L 597.036876 381.794466 
L 598.984444 381.794236 
L 600.932011 381.794001 
L 602.879579 381.793759 
L 604.827147 381.793504 
L 606.774714 381.793244 
L 608.722282 381.792994 
L 610.66985 381.792752 
L 612.617417 381.792516 
L 614.564985 381.792285 
L 616.512553 381.792058 
L 618.46012 381.791832 
L 620.407688 381.791607 
L 622.355255 381.791381 
L 624.302823 381.791152 
L 626.250391 381.790919 
L 628.197958 381.79068 
L 630.145526 381.790433 
L 632.093094 381.790178 
L 634.040661 381.789913 
L 635.988229 381.789638 
L 637.935797 381.789357 
L 639.883364 381.789071 
L 641.830932 381.788778 
L 643.7785 381.788479 
L 645.726067 381.788175 
L 647.673635 381.787865 
L 649.621203 381.78755 
L 651.56877 381.787229 
L 653.516338 381.786903 
L 655.463906 381.786573 
L 657.411473 381.786237 
L 659.359041 381.785897 
L 661.306608 381.785552 
L 663.254176 381.785202 
L 663.254176 374.51554 
L 663.254176 374.51554 
L 661.306608 374.494564 
L 659.359041 374.476432 
L 657.411473 374.460939 
L 655.463906 374.447881 
L 653.516338 374.437055 
L 651.56877 374.428255 
L 649.621203 374.421277 
L 647.673635 374.415918 
L 645.726067 374.411972 
L 643.7785 374.409235 
L 641.830932 374.407504 
L 639.883364 374.406573 
L 637.935797 374.406238 
L 635.988229 374.406296 
L 634.040661 374.406585 
L 632.093094 374.425345 
L 630.145526 374.475173 
L 628.197958 374.552424 
L 626.250391 374.653455 
L 624.302823 374.774622 
L 622.355255 374.912281 
L 620.407688 375.062788 
L 618.46012 375.2225 
L 616.512553 375.387772 
L 614.564985 375.554962 
L 612.617417 375.720424 
L 610.66985 375.880515 
L 608.722282 376.031592 
L 606.774714 376.17001 
L 604.827147 376.292282 
L 602.879579 376.413448 
L 600.932011 376.543458 
L 598.984444 376.679725 
L 597.036876 376.819663 
L 595.089308 376.960688 
L 593.141741 377.100212 
L 591.194173 377.23565 
L 589.246605 377.364416 
L 587.299038 377.483924 
L 585.35147 377.591588 
L 583.403902 377.684822 
L 581.456335 377.76104 
L 579.508767 377.817657 
L 577.5612 377.852086 
L 575.613632 377.861949 
L 573.666064 377.857025 
L 571.718497 377.844485 
L 569.770929 377.825254 
L 567.823361 377.800254 
L 565.875794 377.770406 
L 563.928226 377.736635 
L 561.980658 377.699863 
L 560.033091 377.661013 
L 558.085523 377.621007 
L 556.137955 377.580768 
L 554.190388 377.54122 
L 552.24282 377.503283 
L 550.295252 377.467882 
L 548.347685 377.43594 
L 546.400117 377.408229 
L 544.45255 377.380682 
L 542.504982 377.351493 
L 540.557414 377.321189 
L 538.609847 377.290295 
L 536.662279 377.259338 
L 534.714711 377.228846 
L 532.767144 377.199343 
L 530.819576 377.171357 
L 528.872008 377.145415 
L 526.924441 377.122042 
L 524.976873 377.101766 
L 523.029305 377.085112 
L 521.081738 377.072608 
L 519.13417 377.064779 
L 517.186602 377.062291 
L 515.239035 377.068328 
L 513.291467 377.083247 
L 511.343899 377.106011 
L 509.396332 377.135578 
L 507.448764 377.170908 
L 505.501197 377.210961 
L 503.553629 377.254698 
L 501.606061 377.301078 
L 499.658494 377.34906 
L 497.710926 377.397606 
L 495.763358 377.445674 
L 493.815791 377.492225 
L 491.868223 377.536219 
L 489.920655 377.576615 
L 487.973088 377.612596 
L 486.02552 377.646944 
L 484.077952 377.680857 
L 482.130385 377.714417 
L 480.182817 377.747704 
L 478.235249 377.780798 
L 476.287682 377.813781 
L 474.340114 377.846733 
L 472.392546 377.879734 
L 470.444979 377.912865 
L 468.497411 377.946207 
L 466.549844 377.979841 
L 464.602276 378.013846 
L 462.654708 378.048304 
L 460.707141 378.083295 
L 458.759573 378.119232 
L 456.812005 378.159772 
L 454.864438 378.204993 
L 452.91687 378.253742 
L 450.969302 378.304864 
L 449.021735 378.357205 
L 447.074167 378.409611 
L 445.126599 378.460927 
L 443.179032 378.51 
L 441.231464 378.555675 
L 439.283896 378.596797 
L 437.336329 378.632213 
L 435.388761 378.660769 
L 433.441193 378.681309 
L 431.493626 378.69268 
L 429.546058 378.694563 
L 427.598491 378.693936 
L 425.650923 378.692701 
L 423.703355 378.69096 
L 421.755788 378.688812 
L 419.80822 378.686357 
L 417.860652 378.683694 
L 415.913085 378.680924 
L 413.965517 378.678146 
L 412.017949 378.675461 
L 410.070382 378.672968 
L 408.122814 378.670768 
L 406.175246 378.668959 
L 404.227679 378.667642 
L 402.280111 378.666918 
L 400.332543 378.668044 
L 398.384976 378.679062 
L 396.437408 378.700112 
L 394.48984 378.729515 
L 392.542273 378.765592 
L 390.594705 378.806662 
L 388.647138 378.851046 
L 386.69957 378.897064 
L 384.752002 378.943036 
L 382.804435 378.987282 
L 380.856867 379.028123 
L 378.909299 379.063879 
L 376.961732 379.09287 
L 375.014164 379.113415 
L 373.066596 379.123837 
L 371.119029 379.121671 
L 369.171461 379.10216 
L 367.223893 379.066979 
L 365.276326 379.018764 
L 363.328758 378.960155 
L 361.38119 378.893787 
L 359.433623 378.822298 
L 357.486055 378.748326 
L 355.538487 378.674507 
L 353.59092 378.60348 
L 351.643352 378.537881 
L 349.695785 378.480348 
L 347.748217 378.433518 
L 345.800649 378.400028 
L 343.853082 378.382516 
L 341.905514 378.387883 
L 339.957946 378.436177 
L 338.010379 378.52406 
L 336.062811 378.64503 
L 334.115243 378.792586 
L 332.167676 378.960227 
L 330.220108 379.141451 
L 328.27254 379.329758 
L 326.324973 379.518646 
L 324.377405 379.701614 
L 322.429837 379.87216 
L 320.48227 380.023784 
L 318.534702 380.149984 
L 316.587134 380.244259 
L 314.639567 380.300108 
L 312.691999 380.319377 
L 310.744432 380.332787 
L 308.796864 380.344173 
L 306.849296 380.353842 
L 304.901729 380.362099 
L 302.954161 380.36925 
L 301.006593 380.375601 
L 299.059026 380.381459 
L 297.111458 380.387129 
L 295.16389 380.392918 
L 293.216323 380.399132 
L 291.268755 380.406076 
L 289.321187 380.414057 
L 287.37362 380.423381 
L 285.426052 380.434353 
L 283.478484 380.448543 
L 281.530917 380.469906 
L 279.583349 380.497605 
L 277.635781 380.530409 
L 275.688214 380.567085 
L 273.740646 380.606401 
L 271.793079 380.647123 
L 269.845511 380.688019 
L 267.897943 380.727856 
L 265.950376 380.765402 
L 264.002808 380.799424 
L 262.05524 380.828689 
L 260.107673 380.851965 
L 258.160105 380.868019 
L 256.212537 380.875619 
L 254.26497 380.875739 
L 252.317402 380.874232 
L 250.369834 380.871672 
L 248.422267 380.868251 
L 246.474699 380.86416 
L 244.527131 380.859589 
L 242.579564 380.85473 
L 240.631996 380.849774 
L 238.684428 380.844913 
L 236.736861 380.840336 
L 234.789293 380.836236 
L 232.841726 380.832804 
L 230.894158 380.83023 
L 228.94659 380.828706 
L 226.999023 380.828422 
L 225.051455 380.830864 
L 223.103887 380.838911 
L 221.15632 380.851992 
L 219.208752 380.869377 
L 217.261184 380.89034 
L 215.313617 380.914154 
L 213.366049 380.940092 
L 211.418481 380.967425 
L 209.470914 380.995427 
L 207.523346 381.023371 
L 205.575778 381.050529 
L 203.628211 381.076174 
L 201.680643 381.099578 
L 199.733075 381.120015 
L 197.785508 381.136757 
L 195.83794 381.150716 
L 193.890373 381.164852 
L 191.942805 381.179106 
L 189.995237 381.193319 
L 188.04767 381.207332 
L 186.100102 381.220988 
L 184.152534 381.234128 
L 182.204967 381.246593 
L 180.257399 381.258225 
L 178.309831 381.268867 
L 176.362264 381.278358 
L 174.414696 381.286541 
L 172.467128 381.293258 
L 170.519561 381.29835 
L 168.571993 381.301659 
L 166.624425 381.303624 
L 164.676858 381.305243 
L 162.72929 381.306585 
L 160.781723 381.307699 
L 158.834155 381.308634 
L 156.886587 381.309442 
L 154.93902 381.310172 
L 152.991452 381.310873 
L 151.043884 381.311596 
L 149.096317 381.31239 
L 147.148749 381.313305 
L 145.201181 381.314392 
L 143.253614 381.315699 
L 141.306046 381.317278 
L 139.358478 381.319177 
L 137.410911 381.322566 
L 135.463343 381.328851 
L 133.515775 381.337642 
L 131.568208 381.348534 
L 129.62064 381.361122 
L 127.673072 381.375001 
L 125.725505 381.389767 
L 123.777937 381.405014 
L 121.83037 381.420338 
L 119.882802 381.435333 
L 117.935234 381.449595 
L 115.987667 381.462719 
L 114.040099 381.4743 
L 112.092531 381.483933 
L 110.144964 381.491213 
L 108.197396 381.496943 
L 106.249828 381.502418 
L 104.302261 381.507604 
L 102.354693 381.512465 
L 100.407125 381.516965 
L 98.459558 381.521067 
L 96.51199 381.524736 
L 94.564422 381.527934 
L 92.616855 381.530626 
L 90.669287 381.532776 
L 88.721719 381.534346 
L 86.774152 381.535302 
L 84.826584 381.535606 
L 82.879017 381.535222 
L 80.931449 381.534115 
z
" clip-path="url(#p679320d0dc)" style="fill: url(#hf26641f6f3)"/>
   </g>
   <g id="FillBetweenPolyCollection_3">
    <path d="M 80.931449 381.345087 
L 80.931449 381.534115 
L 82.879017 381.535222 
L 84.826584 381.535606 
L 86.774152 381.535302 
L 88.721719 381.534346 
L 90.669287 381.532776 
L 92.616855 381.530626 
L 94.564422 381.527934 
L 96.51199 381.524736 
L 98.459558 381.521067 
L 100.407125 381.516965 
L 102.354693 381.512465 
L 104.302261 381.507604 
L 106.249828 381.502418 
L 108.197396 381.496943 
L 110.144964 381.491213 
L 112.092531 381.483933 
L 114.040099 381.4743 
L 115.987667 381.462719 
L 117.935234 381.449595 
L 119.882802 381.435333 
L 121.83037 381.420338 
L 123.777937 381.405014 
L 125.725505 381.389767 
L 127.673072 381.375001 
L 129.62064 381.361122 
L 131.568208 381.348534 
L 133.515775 381.337642 
L 135.463343 381.328851 
L 137.410911 381.322566 
L 139.358478 381.319177 
L 141.306046 381.317278 
L 143.253614 381.315699 
L 145.201181 381.314392 
L 147.148749 381.313305 
L 149.096317 381.31239 
L 151.043884 381.311596 
L 152.991452 381.310873 
L 154.93902 381.310172 
L 156.886587 381.309442 
L 158.834155 381.308634 
L 160.781723 381.307699 
L 162.72929 381.306585 
L 164.676858 381.305243 
L 166.624425 381.303624 
L 168.571993 381.301659 
L 170.519561 381.29835 
L 172.467128 381.293258 
L 174.414696 381.286541 
L 176.362264 381.278358 
L 178.309831 381.268867 
L 180.257399 381.258225 
L 182.204967 381.246593 
L 184.152534 381.234128 
L 186.100102 381.220988 
L 188.04767 381.207332 
L 189.995237 381.193319 
L 191.942805 381.179106 
L 193.890373 381.164852 
L 195.83794 381.150716 
L 197.785508 381.136757 
L 199.733075 381.120015 
L 201.680643 381.099578 
L 203.628211 381.076174 
L 205.575778 381.050529 
L 207.523346 381.023371 
L 209.470914 380.995427 
L 211.418481 380.967425 
L 213.366049 380.940092 
L 215.313617 380.914154 
L 217.261184 380.89034 
L 219.208752 380.869377 
L 221.15632 380.851992 
L 223.103887 380.838911 
L 225.051455 380.830864 
L 226.999023 380.828422 
L 228.94659 380.828706 
L 230.894158 380.83023 
L 232.841726 380.832804 
L 234.789293 380.836236 
L 236.736861 380.840336 
L 238.684428 380.844913 
L 240.631996 380.849774 
L 242.579564 380.85473 
L 244.527131 380.859589 
L 246.474699 380.86416 
L 248.422267 380.868251 
L 250.369834 380.871672 
L 252.317402 380.874232 
L 254.26497 380.875739 
L 256.212537 380.875619 
L 258.160105 380.868019 
L 260.107673 380.851965 
L 262.05524 380.828689 
L 264.002808 380.799424 
L 265.950376 380.765402 
L 267.897943 380.727856 
L 269.845511 380.688019 
L 271.793079 380.647123 
L 273.740646 380.606401 
L 275.688214 380.567085 
L 277.635781 380.530409 
L 279.583349 380.497605 
L 281.530917 380.469906 
L 283.478484 380.448543 
L 285.426052 380.434353 
L 287.37362 380.423381 
L 289.321187 380.414057 
L 291.268755 380.406076 
L 293.216323 380.399132 
L 295.16389 380.392918 
L 297.111458 380.387129 
L 299.059026 380.381459 
L 301.006593 380.375601 
L 302.954161 380.36925 
L 304.901729 380.362099 
L 306.849296 380.353842 
L 308.796864 380.344173 
L 310.744432 380.332787 
L 312.691999 380.319377 
L 314.639567 380.300108 
L 316.587134 380.244259 
L 318.534702 380.149984 
L 320.48227 380.023784 
L 322.429837 379.87216 
L 324.377405 379.701614 
L 326.324973 379.518646 
L 328.27254 379.329758 
L 330.220108 379.141451 
L 332.167676 378.960227 
L 334.115243 378.792586 
L 336.062811 378.64503 
L 338.010379 378.52406 
L 339.957946 378.436177 
L 341.905514 378.387883 
L 343.853082 378.382516 
L 345.800649 378.400028 
L 347.748217 378.433518 
L 349.695785 378.480348 
L 351.643352 378.537881 
L 353.59092 378.60348 
L 355.538487 378.674507 
L 357.486055 378.748326 
L 359.433623 378.822298 
L 361.38119 378.893787 
L 363.328758 378.960155 
L 365.276326 379.018764 
L 367.223893 379.066979 
L 369.171461 379.10216 
L 371.119029 379.121671 
L 373.066596 379.123837 
L 375.014164 379.113415 
L 376.961732 379.09287 
L 378.909299 379.063879 
L 380.856867 379.028123 
L 382.804435 378.987282 
L 384.752002 378.943036 
L 386.69957 378.897064 
L 388.647138 378.851046 
L 390.594705 378.806662 
L 392.542273 378.765592 
L 394.48984 378.729515 
L 396.437408 378.700112 
L 398.384976 378.679062 
L 400.332543 378.668044 
L 402.280111 378.666918 
L 404.227679 378.667642 
L 406.175246 378.668959 
L 408.122814 378.670768 
L 410.070382 378.672968 
L 412.017949 378.675461 
L 413.965517 378.678146 
L 415.913085 378.680924 
L 417.860652 378.683694 
L 419.80822 378.686357 
L 421.755788 378.688812 
L 423.703355 378.69096 
L 425.650923 378.692701 
L 427.598491 378.693936 
L 429.546058 378.694563 
L 431.493626 378.69268 
L 433.441193 378.681309 
L 435.388761 378.660769 
L 437.336329 378.632213 
L 439.283896 378.596797 
L 441.231464 378.555675 
L 443.179032 378.51 
L 445.126599 378.460927 
L 447.074167 378.409611 
L 449.021735 378.357205 
L 450.969302 378.304864 
L 452.91687 378.253742 
L 454.864438 378.204993 
L 456.812005 378.159772 
L 458.759573 378.119232 
L 460.707141 378.083295 
L 462.654708 378.048304 
L 464.602276 378.013846 
L 466.549844 377.979841 
L 468.497411 377.946207 
L 470.444979 377.912865 
L 472.392546 377.879734 
L 474.340114 377.846733 
L 476.287682 377.813781 
L 478.235249 377.780798 
L 480.182817 377.747704 
L 482.130385 377.714417 
L 484.077952 377.680857 
L 486.02552 377.646944 
L 487.973088 377.612596 
L 489.920655 377.576615 
L 491.868223 377.536219 
L 493.815791 377.492225 
L 495.763358 377.445674 
L 497.710926 377.397606 
L 499.658494 377.34906 
L 501.606061 377.301078 
L 503.553629 377.254698 
L 505.501197 377.210961 
L 507.448764 377.170908 
L 509.396332 377.135578 
L 511.343899 377.106011 
L 513.291467 377.083247 
L 515.239035 377.068328 
L 517.186602 377.062291 
L 519.13417 377.064779 
L 521.081738 377.072608 
L 523.029305 377.085112 
L 524.976873 377.101766 
L 526.924441 377.122042 
L 528.872008 377.145415 
L 530.819576 377.171357 
L 532.767144 377.199343 
L 534.714711 377.228846 
L 536.662279 377.259338 
L 538.609847 377.290295 
L 540.557414 377.321189 
L 542.504982 377.351493 
L 544.45255 377.380682 
L 546.400117 377.408229 
L 548.347685 377.43594 
L 550.295252 377.467882 
L 552.24282 377.503283 
L 554.190388 377.54122 
L 556.137955 377.580768 
L 558.085523 377.621007 
L 560.033091 377.661013 
L 561.980658 377.699863 
L 563.928226 377.736635 
L 565.875794 377.770406 
L 567.823361 377.800254 
L 569.770929 377.825254 
L 571.718497 377.844485 
L 573.666064 377.857025 
L 575.613632 377.861949 
L 577.5612 377.852086 
L 579.508767 377.817657 
L 581.456335 377.76104 
L 583.403902 377.684822 
L 585.35147 377.591588 
L 587.299038 377.483924 
L 589.246605 377.364416 
L 591.194173 377.23565 
L 593.141741 377.100212 
L 595.089308 376.960688 
L 597.036876 376.819663 
L 598.984444 376.679725 
L 600.932011 376.543458 
L 602.879579 376.413448 
L 604.827147 376.292282 
L 606.774714 376.17001 
L 608.722282 376.031592 
L 610.66985 375.880515 
L 612.617417 375.720424 
L 614.564985 375.554962 
L 616.512553 375.387772 
L 618.46012 375.2225 
L 620.407688 375.062788 
L 622.355255 374.912281 
L 624.302823 374.774622 
L 626.250391 374.653455 
L 628.197958 374.552424 
L 630.145526 374.475173 
L 632.093094 374.425345 
L 634.040661 374.406585 
L 635.988229 374.406296 
L 637.935797 374.406238 
L 639.883364 374.406573 
L 641.830932 374.407504 
L 643.7785 374.409235 
L 645.726067 374.411972 
L 647.673635 374.415918 
L 649.621203 374.421277 
L 651.56877 374.428255 
L 653.516338 374.437055 
L 655.463906 374.447881 
L 657.411473 374.460939 
L 659.359041 374.476432 
L 661.306608 374.494564 
L 663.254176 374.51554 
L 663.254176 374.320817 
L 663.254176 374.320817 
L 661.306608 374.284729 
L 659.359041 374.251954 
L 657.411473 374.222375 
L 655.463906 374.195872 
L 653.516338 374.172327 
L 651.56877 374.151621 
L 649.621203 374.133636 
L 647.673635 374.118253 
L 645.726067 374.105353 
L 643.7785 374.094818 
L 641.830932 374.086529 
L 639.883364 374.080367 
L 637.935797 374.076214 
L 635.988229 374.073951 
L 634.040661 374.073501 
L 632.093094 374.092695 
L 630.145526 374.143683 
L 628.197958 374.222735 
L 626.250391 374.326119 
L 624.302823 374.450105 
L 622.355255 374.590962 
L 620.407688 374.744958 
L 618.46012 374.908362 
L 616.512553 375.077444 
L 614.564985 375.248473 
L 612.617417 375.417717 
L 610.66985 375.581446 
L 608.722282 375.735928 
L 606.774714 375.877433 
L 604.827147 376.00239 
L 602.879579 376.126172 
L 600.932011 376.258961 
L 598.984444 376.398116 
L 597.036876 376.541002 
L 595.089308 376.684981 
L 593.141741 376.827414 
L 591.194173 376.965666 
L 589.246605 377.097097 
L 587.299038 377.219072 
L 585.35147 377.328951 
L 583.403902 377.424098 
L 581.456335 377.501876 
L 579.508767 377.559646 
L 577.5612 377.594772 
L 575.613632 377.604791 
L 573.666064 377.597725 
L 571.718497 377.580065 
L 569.770929 377.553148 
L 567.823361 377.518313 
L 565.875794 377.476897 
L 563.928226 377.430237 
L 561.980658 377.379672 
L 560.033091 377.326539 
L 558.085523 377.272176 
L 556.137955 377.217919 
L 554.190388 377.165108 
L 552.24282 377.11508 
L 550.295252 377.069172 
L 548.347685 377.028722 
L 546.400117 376.994875 
L 544.45255 376.962388 
L 542.504982 376.928729 
L 540.557414 376.894362 
L 538.609847 376.859751 
L 536.662279 376.82536 
L 534.714711 376.791652 
L 532.767144 376.75909 
L 530.819576 376.72814 
L 528.872008 376.699264 
L 526.924441 376.672926 
L 524.976873 376.64959 
L 523.029305 376.62972 
L 521.081738 376.613779 
L 519.13417 376.602231 
L 517.186602 376.59567 
L 515.239035 376.59705 
L 513.291467 376.606749 
L 511.343899 376.623849 
L 509.396332 376.64743 
L 507.448764 376.676574 
L 505.501197 376.710362 
L 503.553629 376.747875 
L 501.606061 376.788195 
L 499.658494 376.830402 
L 497.710926 376.873578 
L 495.763358 376.916804 
L 493.815791 376.959162 
L 491.868223 376.999732 
L 489.920655 377.037596 
L 487.973088 377.07201 
L 486.02552 377.10509 
L 484.077952 377.137791 
L 482.130385 377.170198 
L 480.182817 377.202398 
L 478.235249 377.234477 
L 476.287682 377.266519 
L 474.340114 377.298612 
L 472.392546 377.33084 
L 470.444979 377.363291 
L 468.497411 377.396049 
L 466.549844 377.429202 
L 464.602276 377.462833 
L 462.654708 377.497031 
L 460.707141 377.531879 
L 458.759573 377.567862 
L 456.812005 377.609362 
L 454.864438 377.656588 
L 452.91687 377.708285 
L 450.969302 377.7632 
L 449.021735 377.820079 
L 447.074167 377.877668 
L 445.126599 377.934714 
L 443.179032 377.989962 
L 441.231464 378.042159 
L 439.283896 378.09005 
L 437.336329 378.132384 
L 435.388761 378.167904 
L 433.441193 378.195358 
L 431.493626 378.213492 
L 429.546058 378.222057 
L 427.598491 378.229438 
L 425.650923 378.237629 
L 423.703355 378.246425 
L 421.755788 378.255621 
L 419.80822 378.265012 
L 417.860652 378.274395 
L 415.913085 378.283563 
L 413.965517 378.292313 
L 412.017949 378.30044 
L 410.070382 378.30774 
L 408.122814 378.314006 
L 406.175246 378.319035 
L 404.227679 378.322623 
L 402.280111 378.324564 
L 400.332543 378.325742 
L 398.384976 378.333646 
L 396.437408 378.348743 
L 394.48984 378.369825 
L 392.542273 378.395684 
L 390.594705 378.425111 
L 388.647138 378.456898 
L 386.69957 378.489836 
L 384.752002 378.522716 
L 382.804435 378.55433 
L 380.856867 378.583469 
L 378.909299 378.608925 
L 376.961732 378.629488 
L 375.014164 378.643952 
L 373.066596 378.651106 
L 371.119029 378.648752 
L 369.171461 378.631103 
L 367.223893 378.599453 
L 365.276326 378.556236 
L 363.328758 378.503886 
L 361.38119 378.444838 
L 359.433623 378.381526 
L 357.486055 378.316385 
L 355.538487 378.25185 
L 353.59092 378.190355 
L 351.643352 378.134334 
L 349.695785 378.086223 
L 347.748217 378.048455 
L 345.800649 378.023466 
L 343.853082 378.01369 
L 341.905514 378.026104 
L 339.957946 378.08195 
L 338.010379 378.17791 
L 336.062811 378.307317 
L 334.115243 378.463505 
L 332.167676 378.639804 
L 330.220108 378.82955 
L 328.27254 379.026075 
L 326.324973 379.222711 
L 324.377405 379.412793 
L 322.429837 379.589652 
L 320.48227 379.746622 
L 318.534702 379.877037 
L 316.587134 379.974228 
L 314.639567 380.031528 
L 312.691999 380.050283 
L 310.744432 380.059942 
L 308.796864 380.064668 
L 306.849296 380.065263 
L 304.901729 380.062527 
L 302.954161 380.057262 
L 301.006593 380.050269 
L 299.059026 380.042349 
L 297.111458 380.034303 
L 295.16389 380.026933 
L 293.216323 380.02104 
L 291.268755 380.017425 
L 289.321187 380.016889 
L 287.37362 380.020233 
L 285.426052 380.028259 
L 283.478484 380.042303 
L 281.530917 380.064062 
L 279.583349 380.092451 
L 277.635781 380.126186 
L 275.688214 380.163986 
L 273.740646 380.204567 
L 271.793079 380.246646 
L 269.845511 380.288941 
L 267.897943 380.330168 
L 265.950376 380.369045 
L 264.002808 380.404288 
L 262.05524 380.434616 
L 260.107673 380.458744 
L 258.160105 380.475391 
L 256.212537 380.483273 
L 254.26497 380.483278 
L 252.317402 380.481152 
L 250.369834 380.477521 
L 248.422267 380.472636 
L 246.474699 380.466749 
L 244.527131 380.46011 
L 242.579564 380.452971 
L 240.631996 380.445581 
L 238.684428 380.438193 
L 236.736861 380.431057 
L 234.789293 380.424424 
L 232.841726 380.418545 
L 230.894158 380.413671 
L 228.94659 380.410053 
L 226.999023 380.407942 
L 225.051455 380.408749 
L 223.103887 380.415079 
L 221.15632 380.426373 
L 219.208752 380.441934 
L 217.261184 380.461067 
L 215.313617 380.483073 
L 213.366049 380.507256 
L 211.418481 380.53292 
L 209.470914 380.559368 
L 207.523346 380.585902 
L 205.575778 380.611826 
L 203.628211 380.636444 
L 201.680643 380.659058 
L 199.733075 380.678972 
L 197.785508 380.695488 
L 195.83794 380.711078 
L 193.890373 380.731483 
L 191.942805 380.756034 
L 189.995237 380.783864 
L 188.04767 380.814103 
L 186.100102 380.845885 
L 184.152534 380.878341 
L 182.204967 380.910603 
L 180.257399 380.941802 
L 178.309831 380.971072 
L 176.362264 380.997544 
L 174.414696 381.020349 
L 172.467128 381.03862 
L 170.519561 381.051489 
L 168.571993 381.058088 
L 166.624425 381.060133 
L 164.676858 381.061769 
L 162.72929 381.063124 
L 160.781723 381.064249 
L 158.834155 381.065193 
L 156.886587 381.066008 
L 154.93902 381.066744 
L 152.991452 381.067451 
L 151.043884 381.068179 
L 149.096317 381.06898 
L 147.148749 381.069903 
L 145.201181 381.071 
L 143.253614 381.07232 
L 141.306046 381.073915 
L 139.358478 381.075834 
L 137.410911 381.079728 
L 135.463343 381.087608 
L 133.515775 381.098929 
L 131.568208 381.113126 
L 129.62064 381.129632 
L 127.673072 381.147882 
L 125.725505 381.16731 
L 123.777937 381.187351 
L 121.83037 381.207438 
L 119.882802 381.227006 
L 117.935234 381.245489 
L 115.987667 381.262321 
L 114.040099 381.276937 
L 112.092531 381.28877 
L 110.144964 381.297256 
L 108.197396 381.303571 
L 106.249828 381.309599 
L 104.302261 381.315308 
L 102.354693 381.320659 
L 100.407125 381.325615 
L 98.459558 381.330137 
L 96.51199 381.334188 
L 94.564422 381.337729 
L 92.616855 381.340724 
L 90.669287 381.343134 
L 88.721719 381.344922 
L 86.774152 381.346048 
L 84.826584 381.346477 
L 82.879017 381.346169 
L 80.931449 381.345087 
z
" clip-path="url(#p679320d0dc)" style="fill: url(#h71de78b943)"/>
   </g>
   <g id="FillBetweenPolyCollection_4">
    <path d="M 80.931449 363.96241 
L 80.931449 381.345087 
L 82.879017 381.346169 
L 84.826584 381.346477 
L 86.774152 381.346048 
L 88.721719 381.344922 
L 90.669287 381.343134 
L 92.616855 381.340724 
L 94.564422 381.337729 
L 96.51199 381.334188 
L 98.459558 381.330137 
L 100.407125 381.325615 
L 102.354693 381.320659 
L 104.302261 381.315308 
L 106.249828 381.309599 
L 108.197396 381.303571 
L 110.144964 381.297256 
L 112.092531 381.28877 
L 114.040099 381.276937 
L 115.987667 381.262321 
L 117.935234 381.245489 
L 119.882802 381.227006 
L 121.83037 381.207438 
L 123.777937 381.187351 
L 125.725505 381.16731 
L 127.673072 381.147882 
L 129.62064 381.129632 
L 131.568208 381.113126 
L 133.515775 381.098929 
L 135.463343 381.087608 
L 137.410911 381.079728 
L 139.358478 381.075834 
L 141.306046 381.073915 
L 143.253614 381.07232 
L 145.201181 381.071 
L 147.148749 381.069903 
L 149.096317 381.06898 
L 151.043884 381.068179 
L 152.991452 381.067451 
L 154.93902 381.066744 
L 156.886587 381.066008 
L 158.834155 381.065193 
L 160.781723 381.064249 
L 162.72929 381.063124 
L 164.676858 381.061769 
L 166.624425 381.060133 
L 168.571993 381.058088 
L 170.519561 381.051489 
L 172.467128 381.03862 
L 174.414696 381.020349 
L 176.362264 380.997544 
L 178.309831 380.971072 
L 180.257399 380.941802 
L 182.204967 380.910603 
L 184.152534 380.878341 
L 186.100102 380.845885 
L 188.04767 380.814103 
L 189.995237 380.783864 
L 191.942805 380.756034 
L 193.890373 380.731483 
L 195.83794 380.711078 
L 197.785508 380.695488 
L 199.733075 380.678972 
L 201.680643 380.659058 
L 203.628211 380.636444 
L 205.575778 380.611826 
L 207.523346 380.585902 
L 209.470914 380.559368 
L 211.418481 380.53292 
L 213.366049 380.507256 
L 215.313617 380.483073 
L 217.261184 380.461067 
L 219.208752 380.441934 
L 221.15632 380.426373 
L 223.103887 380.415079 
L 225.051455 380.408749 
L 226.999023 380.407942 
L 228.94659 380.410053 
L 230.894158 380.413671 
L 232.841726 380.418545 
L 234.789293 380.424424 
L 236.736861 380.431057 
L 238.684428 380.438193 
L 240.631996 380.445581 
L 242.579564 380.452971 
L 244.527131 380.46011 
L 246.474699 380.466749 
L 248.422267 380.472636 
L 250.369834 380.477521 
L 252.317402 380.481152 
L 254.26497 380.483278 
L 256.212537 380.483273 
L 258.160105 380.475391 
L 260.107673 380.458744 
L 262.05524 380.434616 
L 264.002808 380.404288 
L 265.950376 380.369045 
L 267.897943 380.330168 
L 269.845511 380.288941 
L 271.793079 380.246646 
L 273.740646 380.204567 
L 275.688214 380.163986 
L 277.635781 380.126186 
L 279.583349 380.092451 
L 281.530917 380.064062 
L 283.478484 380.042303 
L 285.426052 380.028259 
L 287.37362 380.020233 
L 289.321187 380.016889 
L 291.268755 380.017425 
L 293.216323 380.02104 
L 295.16389 380.026933 
L 297.111458 380.034303 
L 299.059026 380.042349 
L 301.006593 380.050269 
L 302.954161 380.057262 
L 304.901729 380.062527 
L 306.849296 380.065263 
L 308.796864 380.064668 
L 310.744432 380.059942 
L 312.691999 380.050283 
L 314.639567 380.031528 
L 316.587134 379.974228 
L 318.534702 379.877037 
L 320.48227 379.746622 
L 322.429837 379.589652 
L 324.377405 379.412793 
L 326.324973 379.222711 
L 328.27254 379.026075 
L 330.220108 378.82955 
L 332.167676 378.639804 
L 334.115243 378.463505 
L 336.062811 378.307317 
L 338.010379 378.17791 
L 339.957946 378.08195 
L 341.905514 378.026104 
L 343.853082 378.01369 
L 345.800649 378.023466 
L 347.748217 378.048455 
L 349.695785 378.086223 
L 351.643352 378.134334 
L 353.59092 378.190355 
L 355.538487 378.25185 
L 357.486055 378.316385 
L 359.433623 378.381526 
L 361.38119 378.444838 
L 363.328758 378.503886 
L 365.276326 378.556236 
L 367.223893 378.599453 
L 369.171461 378.631103 
L 371.119029 378.648752 
L 373.066596 378.651106 
L 375.014164 378.643952 
L 376.961732 378.629488 
L 378.909299 378.608925 
L 380.856867 378.583469 
L 382.804435 378.55433 
L 384.752002 378.522716 
L 386.69957 378.489836 
L 388.647138 378.456898 
L 390.594705 378.425111 
L 392.542273 378.395684 
L 394.48984 378.369825 
L 396.437408 378.348743 
L 398.384976 378.333646 
L 400.332543 378.325742 
L 402.280111 378.324564 
L 404.227679 378.322623 
L 406.175246 378.319035 
L 408.122814 378.314006 
L 410.070382 378.30774 
L 412.017949 378.30044 
L 413.965517 378.292313 
L 415.913085 378.283563 
L 417.860652 378.274395 
L 419.80822 378.265012 
L 421.755788 378.255621 
L 423.703355 378.246425 
L 425.650923 378.237629 
L 427.598491 378.229438 
L 429.546058 378.222057 
L 431.493626 378.213492 
L 433.441193 378.195358 
L 435.388761 378.167904 
L 437.336329 378.132384 
L 439.283896 378.09005 
L 441.231464 378.042159 
L 443.179032 377.989962 
L 445.126599 377.934714 
L 447.074167 377.877668 
L 449.021735 377.820079 
L 450.969302 377.7632 
L 452.91687 377.708285 
L 454.864438 377.656588 
L 456.812005 377.609362 
L 458.759573 377.567862 
L 460.707141 377.531879 
L 462.654708 377.497031 
L 464.602276 377.462833 
L 466.549844 377.429202 
L 468.497411 377.396049 
L 470.444979 377.363291 
L 472.392546 377.33084 
L 474.340114 377.298612 
L 476.287682 377.266519 
L 478.235249 377.234477 
L 480.182817 377.202398 
L 482.130385 377.170198 
L 484.077952 377.137791 
L 486.02552 377.10509 
L 487.973088 377.07201 
L 489.920655 377.037596 
L 491.868223 376.999732 
L 493.815791 376.959162 
L 495.763358 376.916804 
L 497.710926 376.873578 
L 499.658494 376.830402 
L 501.606061 376.788195 
L 503.553629 376.747875 
L 505.501197 376.710362 
L 507.448764 376.676574 
L 509.396332 376.64743 
L 511.343899 376.623849 
L 513.291467 376.606749 
L 515.239035 376.59705 
L 517.186602 376.59567 
L 519.13417 376.602231 
L 521.081738 376.613779 
L 523.029305 376.62972 
L 524.976873 376.64959 
L 526.924441 376.672926 
L 528.872008 376.699264 
L 530.819576 376.72814 
L 532.767144 376.75909 
L 534.714711 376.791652 
L 536.662279 376.82536 
L 538.609847 376.859751 
L 540.557414 376.894362 
L 542.504982 376.928729 
L 544.45255 376.962388 
L 546.400117 376.994875 
L 548.347685 377.028722 
L 550.295252 377.069172 
L 552.24282 377.11508 
L 554.190388 377.165108 
L 556.137955 377.217919 
L 558.085523 377.272176 
L 560.033091 377.326539 
L 561.980658 377.379672 
L 563.928226 377.430237 
L 565.875794 377.476897 
L 567.823361 377.518313 
L 569.770929 377.553148 
L 571.718497 377.580065 
L 573.666064 377.597725 
L 575.613632 377.604791 
L 577.5612 377.594772 
L 579.508767 377.559646 
L 581.456335 377.501876 
L 583.403902 377.424098 
L 585.35147 377.328951 
L 587.299038 377.219072 
L 589.246605 377.097097 
L 591.194173 376.965666 
L 593.141741 376.827414 
L 595.089308 376.684981 
L 597.036876 376.541002 
L 598.984444 376.398116 
L 600.932011 376.258961 
L 602.879579 376.126172 
L 604.827147 376.00239 
L 606.774714 375.877433 
L 608.722282 375.735928 
L 610.66985 375.581446 
L 612.617417 375.417717 
L 614.564985 375.248473 
L 616.512553 375.077444 
L 618.46012 374.908362 
L 620.407688 374.744958 
L 622.355255 374.590962 
L 624.302823 374.450105 
L 626.250391 374.326119 
L 628.197958 374.222735 
L 630.145526 374.143683 
L 632.093094 374.092695 
L 634.040661 374.073501 
L 635.988229 374.073951 
L 637.935797 374.076214 
L 639.883364 374.080367 
L 641.830932 374.086529 
L 643.7785 374.094818 
L 645.726067 374.105353 
L 647.673635 374.118253 
L 649.621203 374.133636 
L 651.56877 374.151621 
L 653.516338 374.172327 
L 655.463906 374.195872 
L 657.411473 374.222375 
L 659.359041 374.251954 
L 661.306608 374.284729 
L 663.254176 374.320817 
L 663.254176 210.169249 
L 663.254176 210.169249 
L 661.306608 209.664692 
L 659.359041 209.196909 
L 657.411473 208.765624 
L 655.463906 208.370566 
L 653.516338 208.011462 
L 651.56877 207.688037 
L 649.621203 207.400018 
L 647.673635 207.147134 
L 645.726067 206.929109 
L 643.7785 206.745672 
L 641.830932 206.596549 
L 639.883364 206.481466 
L 637.935797 206.400151 
L 635.988229 206.35233 
L 634.040661 206.337853 
L 632.093094 206.407574 
L 630.145526 206.592163 
L 628.197958 206.875315 
L 626.250391 207.240725 
L 624.302823 207.672086 
L 622.355255 208.153092 
L 620.407688 208.667439 
L 618.46012 209.19882 
L 616.512553 209.730929 
L 614.564985 210.247461 
L 612.617417 210.73211 
L 610.66985 211.16857 
L 608.722282 211.540535 
L 606.774714 211.8317 
L 604.827147 212.02637 
L 602.879579 212.183175 
L 600.932011 212.347128 
L 598.984444 212.515526 
L 597.036876 212.685665 
L 595.089308 212.854839 
L 593.141741 213.020346 
L 591.194173 213.179481 
L 589.246605 213.32954 
L 587.299038 213.467818 
L 585.35147 213.591613 
L 583.403902 213.698218 
L 581.456335 213.784931 
L 579.508767 213.849046 
L 577.5612 213.887861 
L 575.613632 213.89681 
L 573.666064 213.775419 
L 571.718497 213.485154 
L 569.770929 213.050494 
L 567.823361 212.495916 
L 565.875794 211.845898 
L 563.928226 211.124917 
L 561.980658 210.35745 
L 560.033091 209.567975 
L 558.085523 208.780969 
L 556.137955 208.02091 
L 554.190388 207.312274 
L 552.24282 206.679541 
L 550.295252 206.147186 
L 548.347685 205.739687 
L 546.400117 205.478169 
L 544.45255 205.270934 
L 542.504982 205.06824 
L 540.557414 204.871541 
L 538.609847 204.68229 
L 536.662279 204.501939 
L 534.714711 204.331941 
L 532.767144 204.173749 
L 530.819576 204.028815 
L 528.872008 203.898593 
L 526.924441 203.784535 
L 524.976873 203.688093 
L 523.029305 203.610721 
L 521.081738 203.553871 
L 519.13417 203.518997 
L 517.186602 203.514999 
L 515.239035 203.697655 
L 513.291467 204.102217 
L 511.343899 204.693453 
L 509.396332 205.436135 
L 507.448764 206.295033 
L 505.501197 207.234917 
L 503.553629 208.220556 
L 501.606061 209.216723 
L 499.658494 210.188185 
L 497.710926 211.099715 
L 495.763358 211.916082 
L 493.815791 212.602056 
L 491.868223 213.122408 
L 489.920655 213.441908 
L 487.973088 213.535435 
L 486.02552 213.5387 
L 484.077952 213.508815 
L 482.130385 213.451174 
L 480.182817 213.371169 
L 478.235249 213.274193 
L 476.287682 213.165639 
L 474.340114 213.050899 
L 472.392546 212.935367 
L 470.444979 212.824435 
L 468.497411 212.723496 
L 466.549844 212.637942 
L 464.602276 212.573167 
L 462.654708 212.534563 
L 460.707141 212.527522 
L 458.759573 212.559909 
L 456.812005 212.662841 
L 454.864438 212.839175 
L 452.91687 213.082408 
L 450.969302 213.38604 
L 449.021735 213.743569 
L 447.074167 214.148494 
L 445.126599 214.594314 
L 443.179032 215.074526 
L 441.231464 215.582631 
L 439.283896 216.112127 
L 437.336329 216.656512 
L 435.388761 217.209284 
L 433.441193 217.763944 
L 431.493626 218.313989 
L 429.546058 218.868811 
L 427.598491 219.562851 
L 425.650923 220.407896 
L 423.703355 221.378863 
L 421.755788 222.450664 
L 419.80822 223.598215 
L 417.860652 224.796429 
L 415.913085 226.02022 
L 413.965517 227.244504 
L 412.017949 228.444194 
L 410.070382 229.594204 
L 408.122814 230.669448 
L 406.175246 231.644842 
L 404.227679 232.495299 
L 402.280111 233.195733 
L 400.332543 233.7345 
L 398.384976 234.197477 
L 396.437408 234.611439 
L 394.48984 234.984768 
L 392.542273 235.325847 
L 390.594705 235.64306 
L 388.647138 235.944789 
L 386.69957 236.239418 
L 384.752002 236.535329 
L 382.804435 236.840906 
L 380.856867 237.164531 
L 378.909299 237.514588 
L 376.961732 237.899459 
L 375.014164 238.327528 
L 373.066596 238.807177 
L 371.119029 239.352361 
L 369.171461 239.999464 
L 367.223893 240.748561 
L 365.276326 241.593549 
L 363.328758 242.528328 
L 361.38119 243.546798 
L 359.433623 244.642857 
L 357.486055 245.810404 
L 355.538487 247.04334 
L 353.59092 248.335561 
L 351.643352 249.680969 
L 349.695785 251.073461 
L 347.748217 252.506938 
L 345.800649 253.975297 
L 343.853082 255.472438 
L 341.905514 257.03345 
L 339.957946 258.841808 
L 338.010379 260.885246 
L 336.062811 263.122744 
L 334.115243 265.513284 
L 332.167676 268.015848 
L 330.220108 270.589417 
L 328.27254 273.192972 
L 326.324973 275.785495 
L 324.377405 278.325967 
L 322.429837 280.773369 
L 320.48227 283.086683 
L 318.534702 285.224891 
L 316.587134 287.146973 
L 314.639567 288.811911 
L 312.691999 290.219479 
L 310.744432 291.518078 
L 308.796864 292.734356 
L 306.849296 293.878191 
L 304.901729 294.959459 
L 302.954161 295.988035 
L 301.006593 296.973795 
L 299.059026 297.926617 
L 297.111458 298.856375 
L 295.16389 299.772947 
L 293.216323 300.686208 
L 291.268755 301.606036 
L 289.321187 302.542305 
L 287.37362 303.504892 
L 285.426052 304.503674 
L 283.478484 305.557112 
L 281.530917 306.691473 
L 279.583349 307.890667 
L 277.635781 309.135521 
L 275.688214 310.406862 
L 273.740646 311.685518 
L 271.793079 312.952317 
L 269.845511 314.188086 
L 267.897943 315.373653 
L 265.950376 316.489844 
L 264.002808 317.517488 
L 262.05524 318.437412 
L 260.107673 319.230443 
L 258.160105 319.87741 
L 256.212537 320.359139 
L 254.26497 320.691386 
L 252.317402 320.968816 
L 250.369834 321.204476 
L 248.422267 321.405389 
L 246.474699 321.578579 
L 244.527131 321.731067 
L 242.579564 321.869879 
L 240.631996 322.002037 
L 238.684428 322.134565 
L 236.736861 322.274486 
L 234.789293 322.428823 
L 232.841726 322.6046 
L 230.894158 322.80884 
L 228.94659 323.048567 
L 226.999023 323.330804 
L 225.051455 323.684021 
L 223.103887 324.156859 
L 221.15632 324.737759 
L 219.208752 325.412559 
L 217.261184 326.167098 
L 215.313617 326.987215 
L 213.366049 327.858748 
L 211.418481 328.767535 
L 209.470914 329.699415 
L 207.523346 330.640226 
L 205.575778 331.575807 
L 203.628211 332.491996 
L 201.680643 333.374632 
L 199.733075 334.209553 
L 197.785508 334.982597 
L 195.83794 335.721502 
L 193.890373 336.500054 
L 191.942805 337.309531 
L 189.995237 338.138609 
L 188.04767 338.975966 
L 186.100102 339.810279 
L 184.152534 340.630225 
L 182.204967 341.424481 
L 180.257399 342.181725 
L 178.309831 342.890634 
L 176.362264 343.539885 
L 174.414696 344.118156 
L 172.467128 344.614123 
L 170.519561 345.016463 
L 168.571993 345.313855 
L 166.624425 345.527279 
L 164.676858 345.710388 
L 162.72929 345.868344 
L 160.781723 346.005362 
L 158.834155 346.125655 
L 156.886587 346.233438 
L 154.93902 346.332925 
L 152.991452 346.42833 
L 151.043884 346.523868 
L 149.096317 346.623753 
L 147.148749 346.732199 
L 145.201181 346.85342 
L 143.253614 346.991631 
L 141.306046 347.151046 
L 139.358478 347.335879 
L 137.410911 347.555079 
L 135.463343 347.815369 
L 133.515775 348.113731 
L 131.568208 348.447081 
L 129.62064 348.812331 
L 127.673072 349.206397 
L 125.725505 349.626192 
L 123.777937 350.068629 
L 121.83037 350.530624 
L 119.882802 351.009089 
L 117.935234 351.500939 
L 115.987667 352.003088 
L 114.040099 352.512449 
L 112.092531 353.025937 
L 110.144964 353.540465 
L 108.197396 354.067617 
L 106.249828 354.623375 
L 104.302261 355.206696 
L 102.354693 355.816497 
L 100.407125 356.451697 
L 98.459558 357.111211 
L 96.51199 357.793959 
L 94.564422 358.498856 
L 92.616855 359.224822 
L 90.669287 359.970772 
L 88.721719 360.735625 
L 86.774152 361.518297 
L 84.826584 362.317707 
L 82.879017 363.132772 
L 80.931449 363.96241 
z
" clip-path="url(#p679320d0dc)" style="fill: url(#h5fdc4cf9d4)"/>
   </g>
   <g id="legend_1">
    <g id="patch_3">
     <path d="M 60.815313 28.537031 
L 80.815313 28.537031 
L 80.815313 21.537031 
L 60.815313 21.537031 
z
" style="fill: url(#had20891aa6)"/>
    </g>
    <g id="text_17">
     <!-- Solo -->
     <g transform="translate(88.815313 28.537031) scale(0.1 -0.1)">
      <defs>
       <path id="NotoSansCJKjp-Regular-53" d="M 1946 -83 
C 2925 -83 3539 506 3539 1248 
C 3539 1946 3117 2266 2573 2502 
L 1901 2790 
C 1536 2944 1126 3117 1126 3571 
C 1126 3994 1472 4262 2003 4262 
C 2438 4262 2784 4090 3072 3821 
L 3386 4198 
C 3053 4544 2560 4781 2003 4781 
C 1152 4781 525 4256 525 3533 
C 525 2848 1043 2515 1478 2330 
L 2157 2035 
C 2598 1837 2938 1683 2938 1203 
C 2938 742 2566 435 1952 435 
C 1466 435 992 666 659 1018 
L 301 614 
C 710 186 1280 -83 1946 -83 
z
" transform="scale(0.015625)"/>
       <path id="NotoSansCJKjp-Regular-6c" d="M 1203 -83 
C 1363 -83 1459 -64 1542 -32 
L 1459 416 
C 1395 403 1370 403 1338 403 
C 1248 403 1171 474 1171 653 
L 1171 5094 
L 589 5094 
L 589 691 
C 589 198 768 -83 1203 -83 
z
" transform="scale(0.015625)"/>
      </defs>
      <use xlink:href="#NotoSansCJKjp-Regular-53"/>
      <use xlink:href="#NotoSansCJKjp-Regular-6f" transform="translate(59.699997 0)"/>
      <use xlink:href="#NotoSansCJKjp-Regular-6c" transform="translate(120.299988 0)"/>
      <use xlink:href="#NotoSansCJKjp-Regular-6f" transform="translate(148.799973 0)"/>
     </g>
    </g>
    <g id="patch_4">
     <path d="M 60.815313 43.787031 
L 80.815313 43.787031 
L 80.815313 36.787031 
L 60.815313 36.787031 
z
" style="fill: url(#hf26641f6f3)"/>
    </g>
    <g id="text_18">
     <!-- Initial -->
     <g transform="translate(88.815313 43.787031) scale(0.1 -0.1)">
      <defs>
       <path id="NotoSansCJKjp-Regular-49" d="M 640 0 
L 1235 0 
L 1235 4698 
L 640 4698 
L 640 0 
z
" transform="scale(0.015625)"/>
      </defs>
      <use xlink:href="#NotoSansCJKjp-Regular-49"/>
      <use xlink:href="#NotoSansCJKjp-Regular-6e" transform="translate(29.299988 0)"/>
      <use xlink:href="#NotoSansCJKjp-Regular-69" transform="translate(90.399979 0)"/>
      <use xlink:href="#NotoSansCJKjp-Regular-74" transform="translate(117.899963 0)"/>
      <use xlink:href="#NotoSansCJKjp-Regular-69" transform="translate(155.59996 0)"/>
      <use xlink:href="#NotoSansCJKjp-Regular-61" transform="translate(183.099945 0)"/>
      <use xlink:href="#NotoSansCJKjp-Regular-6c" transform="translate(239.499939 0)"/>
     </g>
    </g>
    <g id="patch_5">
     <path d="M 60.815313 59.037031 
L 80.815313 59.037031 
L 80.815313 52.037031 
L 60.815313 52.037031 
z
" style="fill: url(#h71de78b943)"/>
    </g>
    <g id="text_19">
     <!-- Middle -->
     <g transform="translate(88.815313 59.037031) scale(0.1 -0.1)">
      <defs>
       <path id="NotoSansCJKjp-Regular-4d" d="M 640 0 
L 1178 0 
L 1178 2598 
C 1178 3002 1133 3571 1107 3981 
L 1133 3981 
L 1504 2912 
L 2394 474 
L 2790 474 
L 3680 2912 
L 4051 3981 
L 4077 3981 
C 4045 3571 4000 3002 4000 2598 
L 4000 0 
L 4557 0 
L 4557 4698 
L 3840 4698 
L 2944 2182 
C 2835 1856 2733 1530 2624 1203 
L 2592 1203 
C 2477 1530 2368 1856 2259 2182 
L 1357 4698 
L 640 4698 
L 640 0 
z
" transform="scale(0.015625)"/>
       <path id="NotoSansCJKjp-Regular-64" d="M 1773 -83 
C 2189 -83 2554 141 2829 410 
L 2848 410 
L 2899 0 
L 3373 0 
L 3373 5094 
L 2797 5094 
L 2797 3757 
L 2822 3155 
C 2515 3411 2253 3565 1843 3565 
C 1050 3565 339 2861 339 1734 
C 339 576 902 -83 1773 -83 
z
M 1901 403 
C 1286 403 941 902 941 1741 
C 941 2534 1382 3072 1946 3072 
C 2234 3072 2496 2970 2797 2707 
L 2797 883 
C 2502 563 2221 403 1901 403 
z
" transform="scale(0.015625)"/>
      </defs>
      <use xlink:href="#NotoSansCJKjp-Regular-4d"/>
      <use xlink:href="#NotoSansCJKjp-Regular-69" transform="translate(81.199982 0)"/>
      <use xlink:href="#NotoSansCJKjp-Regular-64" transform="translate(108.699966 0)"/>
      <use xlink:href="#NotoSansCJKjp-Regular-64" transform="translate(170.699951 0)"/>
      <use xlink:href="#NotoSansCJKjp-Regular-6c" transform="translate(232.699936 0)"/>
      <use xlink:href="#NotoSansCJKjp-Regular-65" transform="translate(261.199921 0)"/>
     </g>
    </g>
    <g id="patch_6">
     <path d="M 60.815313 74.287031 
L 80.815313 74.287031 
L 80.815313 67.287031 
L 60.815313 67.287031 
z
" style="fill: url(#h5fdc4cf9d4)"/>
    </g>
    <g id="text_20">
     <!-- End -->
     <g transform="translate(88.815313 74.287031) scale(0.1 -0.1)">
      <defs>
       <path id="NotoSansCJKjp-Regular-45" d="M 640 0 
L 3418 0 
L 3418 506 
L 1235 506 
L 1235 2214 
L 3014 2214 
L 3014 2720 
L 1235 2720 
L 1235 4192 
L 3347 4192 
L 3347 4698 
L 640 4698 
L 640 0 
z
" transform="scale(0.015625)"/>
      </defs>
      <use xlink:href="#NotoSansCJKjp-Regular-45"/>
      <use xlink:href="#NotoSansCJKjp-Regular-6e" transform="translate(58.799988 0)"/>
      <use xlink:href="#NotoSansCJKjp-Regular-64" transform="translate(119.899979 0)"/>
     </g>
    </g>
   </g>
  </g>
 </g>
 <defs>
  <clipPath id="p679320d0dc">
   <rect x="51.815313" y="11.577656" width="640.555" height="370.24"/>
  </clipPath>
 </defs>
 <defs>
  <pattern id="had20891aa6" patternUnits="userSpaceOnUse" x="0" y="0" width="72" height="72">
   <rect x="0" y="0" width="73" height="73" fill="#e6e6e6"/>
   <path d="M -36 36 
L 36 -36 
M -33 39 
L 39 -33 
M -30 42 
L 42 -30 
M -27 45 
L 45 -27 
M -24 48 
L 48 -24 
M -21 51 
L 51 -21 
M -18 54 
L 54 -18 
M -15 57 
L 57 -15 
M -12 60 
L 60 -12 
M -9 63 
L 63 -9 
M -6 66 
L 66 -6 
M -3 69 
L 69 -3 
M 0 72 
L 72 0 
M 3 75 
L 75 3 
M 6 78 
L 78 6 
M 9 81 
L 81 9 
M 12 84 
L 84 12 
M 15 87 
L 87 15 
M 18 90 
L 90 18 
M 21 93 
L 93 21 
M 24 96 
L 96 24 
M 27 99 
L 99 27 
M 30 102 
L 102 30 
M 33 105 
L 105 33 
M 36 108 
L 108 36 
" style="fill: #000000; stroke: #000000; stroke-width: 1.5; stroke-linecap: butt; stroke-linejoin: miter"/>
  </pattern>
  <pattern id="hf26641f6f3" patternUnits="userSpaceOnUse" x="0" y="0" width="72" height="72">
   <rect x="0" y="0" width="73" height="73" fill="#adadad"/>
   <path d="M -36 36 
L 36 108 
M -30 30 
L 42 102 
M -24 24 
L 48 96 
M -18 18 
L 54 90 
M -12 12 
L 60 84 
M -6 6 
L 66 78 
M 0 0 
L 72 72 
M 6 -6 
L 78 66 
M 12 -12 
L 84 60 
M 18 -18 
L 90 54 
M 24 -24 
L 96 48 
M 30 -30 
L 102 42 
M 36 -36 
L 108 36 
" style="fill: #000000; stroke: #000000; stroke-width: 1.5; stroke-linecap: butt; stroke-linejoin: miter"/>
  </pattern>
  <pattern id="h71de78b943" patternUnits="userSpaceOnUse" x="0" y="0" width="72" height="72">
   <rect x="0" y="0" width="73" height="73" fill="#737373"/>
   <path d="M -36 36 
L 36 -36 
M -33 39 
L 39 -33 
M -30 42 
L 42 -30 
M -27 45 
L 45 -27 
M -24 48 
L 48 -24 
M -21 51 
L 51 -21 
M -18 54 
L 54 -18 
M -15 57 
L 57 -15 
M -12 60 
L 60 -12 
M -9 63 
L 63 -9 
M -6 66 
L 66 -6 
M -3 69 
L 69 -3 
M 0 72 
L 72 0 
M 3 75 
L 75 3 
M 6 78 
L 78 6 
M 9 81 
L 81 9 
M 12 84 
L 84 12 
M 15 87 
L 87 15 
M 18 90 
L 90 18 
M 21 93 
L 93 21 
M 24 96 
L 96 24 
M 27 99 
L 99 27 
M 30 102 
L 102 30 
M 33 105 
L 105 33 
M 36 108 
L 108 36 
M -36 36 
L 36 108 
M -33 33 
L 39 105 
M -30 30 
L 42 102 
M -27 27 
L 45 99 
M -24 24 
L 48 96 
M -21 21 
L 51 93 
M -18 18 
L 54 90 
M -15 15 
L 57 87 
M -12 12 
L 60 84 
M -9 9 
L 63 81 
M -6 6 
L 66 78 
M -3 3 
L 69 75 
M 0 0 
L 72 72 
M 3 -3 
L 75 69 
M 6 -6 
L 78 66 
M 9 -9 
L 81 63 
M 12 -12 
L 84 60 
M 15 -15 
L 87 57 
M 18 -18 
L 90 54 
M 21 -21 
L 93 51 
M 24 -24 
L 96 48 
M 27 -27 
L 99 45 
M 30 -30 
L 102 42 
M 33 -33 
L 105 39 
M 36 -36 
L 108 36 
" style="fill: #000000; stroke: #000000; stroke-width: 1.5; stroke-linecap: butt; stroke-linejoin: miter"/>
  </pattern>
  <pattern id="h5fdc4cf9d4" patternUnits="userSpaceOnUse" x="0" y="0" width="72" height="72">
   <rect x="0" y="0" width="73" height="73" fill="#383838"/>
   <path d="M 0 70.5 
L 72 70.5 
M 0 67.5 
L 72 67.5 
M 0 64.5 
L 72 64.5 
M 0 61.5 
L 72 61.5 
M 0 58.5 
L 72 58.5 
M 0 55.5 
L 72 55.5 
M 0 52.5 
L 72 52.5 
M 0 49.5 
L 72 49.5 
M 0 46.5 
L 72 46.5 
M 0 43.5 
L 72 43.5 
M 0 40.5 
L 72 40.5 
M 0 37.5 
L 72 37.5 
M 0 34.5 
L 72 34.5 
M 0 31.5 
L 72 31.5 
M 0 28.5 
L 72 28.5 
M 0 25.5 
L 72 25.5 
M 0 22.5 
L 72 22.5 
M 0 19.5 
L 72 19.5 
M 0 16.5 
L 72 16.5 
M 0 13.5 
L 72 13.5 
M 0 10.5 
L 72 10.5 
M 0 7.5 
L 72 7.5 
M 0 4.5 
L 72 4.5 
M 0 1.5 
L 72 1.5 
" style="fill: #000000; stroke: #000000; stroke-width: 1.5; stroke-linecap: butt; stroke-linejoin: miter"/>
  </pattern>
 </defs>
</svg>
