<?xml version="1.0" encoding="utf-8" standalone="no"?>
<!DOCTYPE svg PUBLIC "-//W3C//DTD SVG 1.1//EN"
  "http://www.w3.org/Graphics/SVG/1.1/DTD/svg11.dtd">
<svg xmlns:xlink="http://www.w3.org/1999/xlink" width="314.178169pt" height="217.533125pt" viewBox="0 0 314.178169 217.533125" xmlns="http://www.w3.org/2000/svg" version="1.1">
 <metadata>
  <rdf:RDF xmlns:dc="http://purl.org/dc/elements/1.1/" xmlns:cc="http://creativecommons.org/ns#" xmlns:rdf="http://www.w3.org/1999/02/22-rdf-syntax-ns#">
   <cc:Work>
    <dc:type rdf:resource="http://purl.org/dc/dcmitype/StillImage"/>
    <dc:date>2026-04-28T10:06:38.907008</dc:date>
    <dc:format>image/svg+xml</dc:format>
    <dc:creator>
     <cc:Agent>
      <dc:title>Matplotlib v3.10.7, https://matplotlib.org/</dc:title>
     </cc:Agent>
    </dc:creator>
   </cc:Work>
  </rdf:RDF>
 </metadata>
 <defs>
  <style type="text/css">*{stroke-linejoin: round; stroke-linecap: butt}</style>
 </defs>
 <g id="figure_1">
  <g id="patch_1">
   <path d="M -0 217.533125 
L 314.178169 217.533125 
L 314.178169 -0 
L -0 -0 
z
" style="fill: #ffffff"/>
  </g>
  <g id="axes_1">
   <g id="patch_2">
    <path d="M 38.404375 183.13 
L 301.055044 183.13 
L 301.055044 9.45 
L 38.404375 9.45 
z
" style="fill: #ffffff"/>
   </g>
   <g id="matplotlib.axis_1">
    <g id="xtick_1">
     <g id="line2d_1">
      <defs>
       <path id="m4705e68adf" d="M 0 0 
L 0 3.5 
" style="stroke: #000000; stroke-width: 0.8"/>
      </defs>
      <g>
       <use xlink:href="#m4705e68adf" x="50.343042" y="183.13" style="stroke: #000000; stroke-width: 0.8"/>
      </g>
     </g>
     <g id="text_1">
      <!-- 2004 -->
      <g transform="translate(44.419917 194.63) scale(0.06 -0.06)">
       <defs>
        <path id="RobotoCondensed-Regular-32" d="M 2909 475 
L 2909 0 
L 366 0 
L 366 416 
L 1628 2088 
Q 1966 2541 2077 2802 
Q 2188 3063 2188 3328 
Q 2188 3663 2027 3900 
Q 1866 4138 1575 4138 
Q 1194 4138 1022 3878 
Q 850 3619 850 3213 
L 297 3213 
Q 297 3788 617 4200 
Q 938 4613 1575 4613 
Q 2125 4613 2433 4278 
Q 2741 3944 2741 3397 
Q 2741 2997 2541 2594 
Q 2341 2191 2047 1809 
L 1028 475 
L 2909 475 
z
" transform="scale(0.015625)"/>
        <path id="RobotoCondensed-Regular-30" d="M 2797 1944 
Q 2797 825 2467 381 
Q 2138 -63 1581 -63 
Q 1038 -63 703 370 
Q 369 803 359 1878 
L 359 2638 
Q 359 3753 695 4183 
Q 1031 4613 1578 4613 
Q 2131 4613 2461 4189 
Q 2791 3766 2797 2681 
L 2797 1944 
z
M 2247 2734 
Q 2247 3503 2073 3822 
Q 1900 4141 1578 4141 
Q 1266 4141 1092 3833 
Q 919 3525 913 2791 
L 913 1850 
Q 913 1088 1089 750 
Q 1266 413 1581 413 
Q 1903 413 2072 738 
Q 2241 1063 2247 1794 
L 2247 2734 
z
" transform="scale(0.015625)"/>
        <path id="RobotoCondensed-Regular-34" d="M 188 1397 
L 1878 4550 
L 2463 4550 
L 2463 1531 
L 2969 1531 
L 2969 1056 
L 2463 1056 
L 2463 0 
L 1909 0 
L 1909 1056 
L 188 1056 
L 188 1397 
z
M 803 1531 
L 1909 1531 
L 1909 3703 
L 1878 3638 
L 803 1531 
z
" transform="scale(0.015625)"/>
       </defs>
       <use xlink:href="#RobotoCondensed-Regular-32"/>
       <use xlink:href="#RobotoCondensed-Regular-30" transform="translate(49.365234 0)"/>
       <use xlink:href="#RobotoCondensed-Regular-30" transform="translate(98.730469 0)"/>
       <use xlink:href="#RobotoCondensed-Regular-34" transform="translate(148.095703 0)"/>
      </g>
     </g>
    </g>
    <g id="xtick_2">
     <g id="line2d_2">
      <g>
       <use xlink:href="#m4705e68adf" x="86.159042" y="183.13" style="stroke: #000000; stroke-width: 0.8"/>
      </g>
     </g>
     <g id="text_2">
      <!-- 2007 -->
      <g transform="translate(80.235917 194.63) scale(0.06 -0.06)">
       <defs>
        <path id="RobotoCondensed-Regular-37" d="M 2878 4550 
L 2878 4225 
L 1313 0 
L 731 0 
L 2297 4075 
L 269 4075 
L 269 4550 
L 2878 4550 
z
" transform="scale(0.015625)"/>
       </defs>
       <use xlink:href="#RobotoCondensed-Regular-32"/>
       <use xlink:href="#RobotoCondensed-Regular-30" transform="translate(49.365234 0)"/>
       <use xlink:href="#RobotoCondensed-Regular-30" transform="translate(98.730469 0)"/>
       <use xlink:href="#RobotoCondensed-Regular-37" transform="translate(148.095703 0)"/>
      </g>
     </g>
    </g>
    <g id="xtick_3">
     <g id="line2d_3">
      <g>
       <use xlink:href="#m4705e68adf" x="121.975043" y="183.13" style="stroke: #000000; stroke-width: 0.8"/>
      </g>
     </g>
     <g id="text_3">
      <!-- 2010 -->
      <g transform="translate(116.051918 194.63) scale(0.06 -0.06)">
       <defs>
        <path id="RobotoCondensed-Regular-31" d="M 2013 4575 
L 2013 0 
L 1459 0 
L 1459 3853 
L 503 3428 
L 503 3950 
L 1928 4575 
L 2013 4575 
z
" transform="scale(0.015625)"/>
       </defs>
       <use xlink:href="#RobotoCondensed-Regular-32"/>
       <use xlink:href="#RobotoCondensed-Regular-30" transform="translate(49.365234 0)"/>
       <use xlink:href="#RobotoCondensed-Regular-31" transform="translate(98.730469 0)"/>
       <use xlink:href="#RobotoCondensed-Regular-30" transform="translate(148.095703 0)"/>
      </g>
     </g>
    </g>
    <g id="xtick_4">
     <g id="line2d_4">
      <g>
       <use xlink:href="#m4705e68adf" x="157.791043" y="183.13" style="stroke: #000000; stroke-width: 0.8"/>
      </g>
     </g>
     <g id="text_4">
      <!-- 2013 -->
      <g transform="translate(151.867918 194.63) scale(0.06 -0.06)">
       <defs>
        <path id="RobotoCondensed-Regular-33" d="M 1075 2084 
L 1075 2559 
L 1431 2559 
Q 1788 2559 1961 2781 
Q 2134 3003 2134 3338 
Q 2134 4138 1519 4138 
Q 1228 4138 1054 3927 
Q 881 3716 881 3359 
L 331 3359 
Q 331 3881 653 4247 
Q 975 4613 1519 4613 
Q 2038 4613 2363 4286 
Q 2688 3959 2688 3325 
Q 2688 3072 2550 2786 
Q 2413 2500 2100 2338 
Q 2484 2194 2612 1886 
Q 2741 1578 2741 1269 
Q 2741 631 2389 284 
Q 2038 -63 1516 -63 
Q 1006 -63 656 267 
Q 306 597 306 1203 
L 859 1203 
Q 859 844 1032 628 
Q 1206 413 1516 413 
Q 1822 413 2005 622 
Q 2188 831 2188 1256 
Q 2188 2084 1403 2084 
L 1075 2084 
z
" transform="scale(0.015625)"/>
       </defs>
       <use xlink:href="#RobotoCondensed-Regular-32"/>
       <use xlink:href="#RobotoCondensed-Regular-30" transform="translate(49.365234 0)"/>
       <use xlink:href="#RobotoCondensed-Regular-31" transform="translate(98.730469 0)"/>
       <use xlink:href="#RobotoCondensed-Regular-33" transform="translate(148.095703 0)"/>
      </g>
     </g>
    </g>
    <g id="xtick_5">
     <g id="line2d_5">
      <g>
       <use xlink:href="#m4705e68adf" x="193.607043" y="183.13" style="stroke: #000000; stroke-width: 0.8"/>
      </g>
     </g>
     <g id="text_5">
      <!-- 2016 -->
      <g transform="translate(187.683918 194.63) scale(0.06 -0.06)">
       <defs>
        <path id="RobotoCondensed-Regular-36" d="M 2847 1484 
Q 2847 838 2544 387 
Q 2241 -63 1641 -63 
Q 1216 -63 944 198 
Q 672 459 542 861 
Q 413 1263 413 1684 
L 413 1956 
Q 413 2438 481 2900 
Q 550 3363 742 3738 
Q 934 4113 1296 4334 
Q 1659 4556 2291 4556 
L 2291 4066 
Q 1775 4066 1508 3859 
Q 1241 3653 1122 3318 
Q 1003 2984 978 2606 
Q 1272 2984 1750 2984 
Q 2138 2984 2380 2765 
Q 2622 2547 2734 2201 
Q 2847 1856 2847 1484 
z
M 969 1666 
Q 969 1059 1180 737 
Q 1391 416 1641 416 
Q 1959 416 2129 708 
Q 2300 1000 2300 1456 
Q 2300 1863 2144 2184 
Q 1988 2506 1659 2506 
Q 1425 2506 1236 2329 
Q 1047 2153 969 1900 
L 969 1666 
z
" transform="scale(0.015625)"/>
       </defs>
       <use xlink:href="#RobotoCondensed-Regular-32"/>
       <use xlink:href="#RobotoCondensed-Regular-30" transform="translate(49.365234 0)"/>
       <use xlink:href="#RobotoCondensed-Regular-31" transform="translate(98.730469 0)"/>
       <use xlink:href="#RobotoCondensed-Regular-36" transform="translate(148.095703 0)"/>
      </g>
     </g>
    </g>
    <g id="xtick_6">
     <g id="line2d_6">
      <g>
       <use xlink:href="#m4705e68adf" x="229.423044" y="183.13" style="stroke: #000000; stroke-width: 0.8"/>
      </g>
     </g>
     <g id="text_6">
      <!-- 2019 -->
      <g transform="translate(223.499919 194.63) scale(0.06 -0.06)">
       <defs>
        <path id="RobotoCondensed-Regular-39" d="M 2744 2563 
Q 2744 2119 2687 1667 
Q 2631 1216 2450 836 
Q 2269 456 1903 225 
Q 1538 -6 869 -6 
L 866 484 
Q 1428 484 1698 690 
Q 1969 897 2072 1233 
Q 2175 1569 2191 1950 
Q 1859 1522 1413 1522 
Q 1025 1522 786 1747 
Q 547 1972 436 2320 
Q 325 2669 325 3041 
Q 325 3691 623 4152 
Q 922 4613 1522 4613 
Q 1969 4613 2237 4344 
Q 2506 4075 2625 3653 
Q 2744 3231 2744 2772 
L 2744 2563 
z
M 866 3072 
Q 866 2666 1020 2334 
Q 1175 2003 1506 2003 
Q 1716 2003 1906 2179 
Q 2097 2356 2194 2616 
L 2194 2850 
Q 2194 3472 1983 3803 
Q 1772 4134 1522 4134 
Q 1206 4134 1036 3829 
Q 866 3525 866 3072 
z
" transform="scale(0.015625)"/>
       </defs>
       <use xlink:href="#RobotoCondensed-Regular-32"/>
       <use xlink:href="#RobotoCondensed-Regular-30" transform="translate(49.365234 0)"/>
       <use xlink:href="#RobotoCondensed-Regular-31" transform="translate(98.730469 0)"/>
       <use xlink:href="#RobotoCondensed-Regular-39" transform="translate(148.095703 0)"/>
      </g>
     </g>
    </g>
    <g id="xtick_7">
     <g id="line2d_7">
      <g>
       <use xlink:href="#m4705e68adf" x="265.239044" y="183.13" style="stroke: #000000; stroke-width: 0.8"/>
      </g>
     </g>
     <g id="text_7">
      <!-- 2022 -->
      <g transform="translate(259.315919 194.63) scale(0.06 -0.06)">
       <use xlink:href="#RobotoCondensed-Regular-32"/>
       <use xlink:href="#RobotoCondensed-Regular-30" transform="translate(49.365234 0)"/>
       <use xlink:href="#RobotoCondensed-Regular-32" transform="translate(98.730469 0)"/>
       <use xlink:href="#RobotoCondensed-Regular-32" transform="translate(148.095703 0)"/>
      </g>
     </g>
    </g>
    <g id="xtick_8">
     <g id="line2d_8">
      <g>
       <use xlink:href="#m4705e68adf" x="301.055044" y="183.13" style="stroke: #000000; stroke-width: 0.8"/>
      </g>
     </g>
     <g id="text_8">
      <!-- 2025 -->
      <g transform="translate(295.131919 194.63) scale(0.06 -0.06)">
       <defs>
        <path id="RobotoCondensed-Regular-35" d="M 1034 2166 
L 594 2284 
L 788 4550 
L 2769 4550 
L 2769 4016 
L 1253 4016 
L 1147 2778 
Q 1438 2975 1753 2975 
Q 2288 2975 2591 2561 
Q 2894 2147 2894 1450 
Q 2894 797 2584 367 
Q 2275 -63 1656 -63 
Q 1194 -63 850 248 
Q 506 559 453 1197 
L 975 1197 
Q 1066 413 1656 413 
Q 1978 413 2159 691 
Q 2341 969 2341 1444 
Q 2341 1872 2153 2164 
Q 1966 2456 1619 2456 
Q 1384 2456 1273 2378 
Q 1163 2300 1034 2166 
z
" transform="scale(0.015625)"/>
       </defs>
       <use xlink:href="#RobotoCondensed-Regular-32"/>
       <use xlink:href="#RobotoCondensed-Regular-30" transform="translate(49.365234 0)"/>
       <use xlink:href="#RobotoCondensed-Regular-32" transform="translate(98.730469 0)"/>
       <use xlink:href="#RobotoCondensed-Regular-35" transform="translate(148.095703 0)"/>
      </g>
     </g>
    </g>
    <g id="text_9">
     <!-- Year -->
     <g transform="translate(159.954319 208.09875) scale(0.11 -0.11)">
      <defs>
       <path id="RobotoCondensed-Regular-59" d="M 747 4550 
L 1675 2266 
L 2606 4550 
L 3256 4550 
L 1963 1700 
L 1963 0 
L 1388 0 
L 1388 1700 
L 94 4550 
L 747 4550 
z
" transform="scale(0.015625)"/>
       <path id="RobotoCondensed-Regular-65" d="M 2722 447 
Q 2584 253 2323 95 
Q 2063 -63 1625 -63 
Q 1019 -63 666 301 
Q 313 666 309 1431 
L 309 1828 
Q 309 2722 696 3083 
Q 1084 3444 1563 3444 
Q 2197 3444 2472 3034 
Q 2747 2625 2747 1850 
L 2747 1528 
L 863 1528 
L 863 1447 
Q 863 906 1067 657 
Q 1272 409 1656 409 
Q 1934 409 2114 517 
Q 2294 625 2431 794 
L 2722 447 
z
M 1563 2969 
Q 1275 2969 1084 2770 
Q 894 2572 866 2000 
L 2194 2000 
L 2194 2078 
Q 2172 2469 2048 2719 
Q 1925 2969 1563 2969 
z
" transform="scale(0.015625)"/>
       <path id="RobotoCondensed-Regular-61" d="M 2156 0 
Q 2103 122 2081 366 
Q 1966 194 1775 65 
Q 1584 -63 1334 -63 
Q 891 -63 623 187 
Q 356 438 356 922 
Q 356 1409 690 1729 
Q 1025 2050 1691 2050 
L 2072 2050 
L 2072 2413 
Q 2072 2713 1936 2841 
Q 1800 2969 1528 2969 
Q 1263 2969 1114 2812 
Q 966 2656 966 2444 
L 413 2444 
Q 413 2806 722 3125 
Q 1031 3444 1556 3444 
Q 2025 3444 2325 3209 
Q 2625 2975 2625 2406 
L 2625 794 
Q 2625 316 2728 50 
L 2728 0 
L 2156 0 
z
M 1419 441 
Q 1653 441 1825 562 
Q 1997 684 2072 834 
L 2072 1644 
L 1781 1644 
Q 1384 1644 1146 1475 
Q 909 1306 909 991 
Q 909 688 1036 564 
Q 1163 441 1419 441 
z
" transform="scale(0.015625)"/>
       <path id="RobotoCondensed-Regular-72" d="M 1563 2888 
Q 1138 2888 969 2425 
L 969 0 
L 416 0 
L 416 3381 
L 950 3381 
L 963 3041 
Q 1184 3444 1591 3444 
Q 1738 3444 1809 3400 
L 1813 2863 
Q 1691 2888 1563 2888 
z
" transform="scale(0.015625)"/>
      </defs>
      <use xlink:href="#RobotoCondensed-Regular-59"/>
      <use xlink:href="#RobotoCondensed-Regular-65" transform="translate(52.490234 0)"/>
      <use xlink:href="#RobotoCondensed-Regular-61" transform="translate(99.365234 0)"/>
      <use xlink:href="#RobotoCondensed-Regular-72" transform="translate(147.265625 0)"/>
     </g>
    </g>
   </g>
   <g id="matplotlib.axis_2">
    <g id="ytick_1">
     <g id="line2d_9">
      <path d="M 38.404375 183.13 
L 301.055044 183.13 
" clip-path="url(#p4076851cd5)" style="fill: none; stroke: #808080; stroke-opacity: 0.3; stroke-width: 0.5; stroke-linecap: square"/>
     </g>
     <g id="line2d_10">
      <defs>
       <path id="m63aeb7150e" d="M 0 0 
L -3.5 0 
" style="stroke: #000000; stroke-width: 0.8"/>
      </defs>
      <g>
       <use xlink:href="#m63aeb7150e" x="38.404375" y="183.13" style="stroke: #000000; stroke-width: 0.8"/>
      </g>
     </g>
     <g id="text_10">
      <!-- 0% -->
      <g transform="translate(24.645937 185.38) scale(0.06 -0.06)">
       <defs>
        <path id="RobotoCondensed-Regular-25" d="M 334 3675 
Q 334 4063 545 4339 
Q 756 4616 1128 4616 
Q 1506 4616 1717 4339 
Q 1928 4063 1928 3675 
L 1928 3434 
Q 1928 3053 1718 2776 
Q 1509 2500 1134 2500 
Q 759 2500 546 2776 
Q 334 3053 334 3434 
L 334 3675 
z
M 741 3434 
Q 741 3219 836 3047 
Q 931 2875 1134 2875 
Q 1331 2875 1426 3045 
Q 1522 3216 1522 3434 
L 1522 3675 
Q 1522 3894 1425 4067 
Q 1328 4241 1128 4241 
Q 931 4241 836 4067 
Q 741 3894 741 3675 
L 741 3434 
z
M 3116 3903 
L 1250 347 
L 944 553 
L 2813 4109 
L 3116 3903 
z
M 2172 1116 
Q 2172 1500 2384 1776 
Q 2597 2053 2969 2053 
Q 3344 2053 3555 1776 
Q 3766 1500 3766 1116 
L 3766 872 
Q 3766 488 3555 211 
Q 3344 -66 2972 -66 
Q 2597 -66 2384 211 
Q 2172 488 2172 872 
L 2172 1116 
z
M 2578 872 
Q 2578 653 2675 481 
Q 2772 309 2972 309 
Q 3169 309 3264 479 
Q 3359 650 3359 872 
L 3359 1116 
Q 3359 1338 3262 1508 
Q 3166 1678 2969 1678 
Q 2772 1678 2675 1508 
Q 2578 1338 2578 1116 
L 2578 872 
z
" transform="scale(0.015625)"/>
       </defs>
       <use xlink:href="#RobotoCondensed-Regular-30"/>
       <use xlink:href="#RobotoCondensed-Regular-25" transform="translate(49.365234 0)"/>
      </g>
     </g>
    </g>
    <g id="ytick_2">
     <g id="line2d_11">
      <path d="M 38.404375 139.71 
L 301.055044 139.71 
" clip-path="url(#p4076851cd5)" style="fill: none; stroke: #808080; stroke-opacity: 0.3; stroke-width: 0.5; stroke-linecap: square"/>
     </g>
     <g id="line2d_12">
      <g>
       <use xlink:href="#m63aeb7150e" x="38.404375" y="139.71" style="stroke: #000000; stroke-width: 0.8"/>
      </g>
     </g>
     <g id="text_11">
      <!-- 5% -->
      <g transform="translate(24.645937 141.96) scale(0.06 -0.06)">
       <use xlink:href="#RobotoCondensed-Regular-35"/>
       <use xlink:href="#RobotoCondensed-Regular-25" transform="translate(49.365234 0)"/>
      </g>
     </g>
    </g>
    <g id="ytick_3">
     <g id="line2d_13">
      <path d="M 38.404375 96.29 
L 301.055044 96.29 
" clip-path="url(#p4076851cd5)" style="fill: none; stroke: #808080; stroke-opacity: 0.3; stroke-width: 0.5; stroke-linecap: square"/>
     </g>
     <g id="line2d_14">
      <g>
       <use xlink:href="#m63aeb7150e" x="38.404375" y="96.29" style="stroke: #000000; stroke-width: 0.8"/>
      </g>
     </g>
     <g id="text_12">
      <!-- 10% -->
      <g transform="translate(21.684375 98.54) scale(0.06 -0.06)">
       <use xlink:href="#RobotoCondensed-Regular-31"/>
       <use xlink:href="#RobotoCondensed-Regular-30" transform="translate(49.365234 0)"/>
       <use xlink:href="#RobotoCondensed-Regular-25" transform="translate(98.730469 0)"/>
      </g>
     </g>
    </g>
    <g id="ytick_4">
     <g id="line2d_15">
      <path d="M 38.404375 52.87 
L 301.055044 52.87 
" clip-path="url(#p4076851cd5)" style="fill: none; stroke: #808080; stroke-opacity: 0.3; stroke-width: 0.5; stroke-linecap: square"/>
     </g>
     <g id="line2d_16">
      <g>
       <use xlink:href="#m63aeb7150e" x="38.404375" y="52.87" style="stroke: #000000; stroke-width: 0.8"/>
      </g>
     </g>
     <g id="text_13">
      <!-- 15% -->
      <g transform="translate(21.684375 55.12) scale(0.06 -0.06)">
       <use xlink:href="#RobotoCondensed-Regular-31"/>
       <use xlink:href="#RobotoCondensed-Regular-35" transform="translate(49.365234 0)"/>
       <use xlink:href="#RobotoCondensed-Regular-25" transform="translate(98.730469 0)"/>
      </g>
     </g>
    </g>
    <g id="ytick_5">
     <g id="line2d_17">
      <path d="M 38.404375 9.45 
L 301.055044 9.45 
" clip-path="url(#p4076851cd5)" style="fill: none; stroke: #808080; stroke-opacity: 0.3; stroke-width: 0.5; stroke-linecap: square"/>
     </g>
     <g id="line2d_18">
      <g>
       <use xlink:href="#m63aeb7150e" x="38.404375" y="9.45" style="stroke: #000000; stroke-width: 0.8"/>
      </g>
     </g>
     <g id="text_14">
      <!-- 20% -->
      <g transform="translate(21.684375 11.7) scale(0.06 -0.06)">
       <use xlink:href="#RobotoCondensed-Regular-32"/>
       <use xlink:href="#RobotoCondensed-Regular-30" transform="translate(49.365234 0)"/>
       <use xlink:href="#RobotoCondensed-Regular-25" transform="translate(98.730469 0)"/>
      </g>
     </g>
    </g>
    <g id="text_15">
     <!-- Proportion -->
     <g transform="translate(15.45 119.239609) rotate(-90) scale(0.11 -0.11)">
      <defs>
       <path id="RobotoCondensed-Regular-50" d="M 1066 1784 
L 1066 0 
L 491 0 
L 491 4550 
L 1941 4550 
Q 2600 4550 2951 4159 
Q 3303 3769 3303 3163 
Q 3303 2506 2954 2147 
Q 2606 1788 1950 1784 
L 1066 1784 
z
M 1066 4056 
L 1066 2275 
L 1941 2275 
Q 2359 2275 2543 2522 
Q 2728 2769 2728 3156 
Q 2728 3506 2543 3781 
Q 2359 4056 1941 4056 
L 1066 4056 
z
" transform="scale(0.015625)"/>
       <path id="RobotoCondensed-Regular-6f" d="M 300 1850 
Q 300 2641 678 3042 
Q 1056 3444 1603 3444 
Q 2156 3444 2536 3042 
Q 2916 2641 2916 1850 
L 2916 1528 
Q 2916 738 2536 337 
Q 2156 -63 1609 -63 
Q 1059 -63 679 337 
Q 300 738 300 1528 
L 300 1850 
z
M 853 1528 
Q 853 969 1068 689 
Q 1284 409 1609 409 
Q 2341 409 2363 1466 
L 2363 1850 
Q 2363 2403 2145 2686 
Q 1928 2969 1603 2969 
Q 1281 2969 1067 2686 
Q 853 2403 853 1850 
L 853 1528 
z
" transform="scale(0.015625)"/>
       <path id="RobotoCondensed-Regular-70" d="M 1750 -63 
Q 1244 -63 969 325 
L 969 -1300 
L 416 -1300 
L 416 3381 
L 919 3381 
L 947 3013 
Q 1222 3444 1744 3444 
Q 2275 3444 2562 3073 
Q 2850 2703 2859 1897 
L 2859 1528 
Q 2859 725 2570 331 
Q 2281 -63 1750 -63 
z
M 1572 2956 
Q 1181 2956 969 2559 
L 969 797 
Q 1178 409 1578 409 
Q 2288 409 2306 1472 
L 2306 1844 
Q 2306 2956 1572 2956 
z
" transform="scale(0.015625)"/>
       <path id="RobotoCondensed-Regular-74" d="M 1647 0 
Q 1488 -63 1259 -63 
Q 991 -63 789 134 
Q 588 331 588 841 
L 588 2938 
L 72 2938 
L 72 3381 
L 588 3381 
L 588 4203 
L 1141 4203 
L 1141 3381 
L 1650 3381 
L 1650 2938 
L 1141 2938 
L 1141 838 
Q 1141 578 1230 506 
Q 1319 434 1431 434 
Q 1550 434 1650 472 
L 1647 0 
z
" transform="scale(0.015625)"/>
       <path id="RobotoCondensed-Regular-69" d="M 428 4278 
Q 428 4419 506 4516 
Q 584 4613 741 4613 
Q 894 4613 975 4516 
Q 1056 4419 1056 4278 
Q 1056 4144 975 4048 
Q 894 3953 741 3953 
Q 584 3953 506 4048 
Q 428 4144 428 4278 
z
M 1009 3381 
L 1009 0 
L 459 0 
L 459 3381 
L 1009 3381 
z
" transform="scale(0.015625)"/>
       <path id="RobotoCondensed-Regular-6e" d="M 1603 2956 
Q 1400 2956 1236 2818 
Q 1072 2681 969 2459 
L 969 0 
L 416 0 
L 416 3381 
L 938 3381 
L 953 3022 
Q 1275 3444 1775 3444 
Q 2191 3444 2437 3162 
Q 2684 2881 2684 2216 
L 2684 0 
L 2131 0 
L 2131 2222 
Q 2131 2619 2000 2787 
Q 1869 2956 1603 2956 
z
" transform="scale(0.015625)"/>
      </defs>
      <use xlink:href="#RobotoCondensed-Regular-50"/>
      <use xlink:href="#RobotoCondensed-Regular-72" transform="translate(55.419922 0)"/>
      <use xlink:href="#RobotoCondensed-Regular-6f" transform="translate(85.888672 0)"/>
      <use xlink:href="#RobotoCondensed-Regular-70" transform="translate(136.083984 0)"/>
      <use xlink:href="#RobotoCondensed-Regular-6f" transform="translate(185.400391 0)"/>
      <use xlink:href="#RobotoCondensed-Regular-72" transform="translate(235.595703 0)"/>
      <use xlink:href="#RobotoCondensed-Regular-74" transform="translate(266.064453 0)"/>
      <use xlink:href="#RobotoCondensed-Regular-69" transform="translate(295.654297 0)"/>
      <use xlink:href="#RobotoCondensed-Regular-6f" transform="translate(318.603516 0)"/>
      <use xlink:href="#RobotoCondensed-Regular-6e" transform="translate(368.798828 0)"/>
     </g>
    </g>
   </g>
   <g id="FillBetweenPolyCollection_1">
    <defs>
     <path id="m30dec34cb9" d="M 50.343042 -42.095645 
L 50.343042 -34.403125 
L 51.141615 -34.403125 
L 51.940188 -34.403125 
L 52.738761 -34.403125 
L 53.537334 -34.403125 
L 54.335907 -34.403125 
L 55.13448 -34.403125 
L 55.933053 -34.403125 
L 56.731626 -34.403125 
L 57.530199 -34.403125 
L 58.328772 -34.403125 
L 59.127345 -34.403125 
L 59.925918 -34.403125 
L 60.724491 -34.403125 
L 61.523064 -34.403125 
L 62.321637 -34.403125 
L 63.12021 -34.403125 
L 63.918783 -34.403125 
L 64.717356 -34.403125 
L 65.515929 -34.403125 
L 66.314502 -34.403125 
L 67.113075 -34.403125 
L 67.911648 -34.403125 
L 68.710221 -34.403125 
L 69.508794 -34.403125 
L 70.307368 -34.403125 
L 71.105941 -34.403125 
L 71.904514 -34.403125 
L 72.703087 -34.403125 
L 73.50166 -34.403125 
L 74.300233 -34.403125 
L 75.098806 -34.403125 
L 75.897379 -34.403125 
L 76.695952 -34.403125 
L 77.494525 -34.403125 
L 78.293098 -34.403125 
L 79.091671 -34.403125 
L 79.890244 -34.403125 
L 80.688817 -34.403125 
L 81.48739 -34.403125 
L 82.285963 -34.403125 
L 83.084536 -34.403125 
L 83.883109 -34.403125 
L 84.681682 -34.403125 
L 85.480255 -34.403125 
L 86.278828 -34.403125 
L 87.077401 -34.403125 
L 87.875974 -34.403125 
L 88.674547 -34.403125 
L 89.47312 -34.403125 
L 90.271693 -34.403125 
L 91.070266 -34.403125 
L 91.868839 -34.403125 
L 92.667412 -34.403125 
L 93.465985 -34.403125 
L 94.264558 -34.403125 
L 95.063131 -34.403125 
L 95.861704 -34.403125 
L 96.660277 -34.403125 
L 97.458851 -34.403125 
L 98.257424 -34.403125 
L 99.055997 -34.403125 
L 99.85457 -34.403125 
L 100.653143 -34.403125 
L 101.451716 -34.403125 
L 102.250289 -34.403125 
L 103.048862 -34.403125 
L 103.847435 -34.403125 
L 104.646008 -34.403125 
L 105.444581 -34.403125 
L 106.243154 -34.403125 
L 107.041727 -34.403125 
L 107.8403 -34.403125 
L 108.638873 -34.403125 
L 109.437446 -34.403125 
L 110.236019 -34.403125 
L 111.034592 -34.403125 
L 111.833165 -34.403125 
L 112.631738 -34.403125 
L 113.430311 -34.403125 
L 114.228884 -34.403125 
L 115.027457 -34.403125 
L 115.82603 -34.403125 
L 116.624603 -34.403125 
L 117.423176 -34.403125 
L 118.221749 -34.403125 
L 119.020322 -34.403125 
L 119.818895 -34.403125 
L 120.617468 -34.403125 
L 121.416041 -34.403125 
L 122.214614 -34.403125 
L 123.013187 -34.403125 
L 123.81176 -34.403125 
L 124.610333 -34.403125 
L 125.408907 -34.403125 
L 126.20748 -34.403125 
L 127.006053 -34.403125 
L 127.804626 -34.403125 
L 128.603199 -34.403125 
L 129.401772 -34.403125 
L 130.200345 -34.403125 
L 130.998918 -34.403125 
L 131.797491 -34.403125 
L 132.596064 -34.403125 
L 133.394637 -34.403125 
L 134.19321 -34.403125 
L 134.991783 -34.403125 
L 135.790356 -34.403125 
L 136.588929 -34.403125 
L 137.387502 -34.403125 
L 138.186075 -34.403125 
L 138.984648 -34.403125 
L 139.783221 -34.403125 
L 140.581794 -34.403125 
L 141.380367 -34.403125 
L 142.17894 -34.403125 
L 142.977513 -34.403125 
L 143.776086 -34.403125 
L 144.574659 -34.403125 
L 145.373232 -34.403125 
L 146.171805 -34.403125 
L 146.970378 -34.403125 
L 147.768951 -34.403125 
L 148.567524 -34.403125 
L 149.366097 -34.403125 
L 150.16467 -34.403125 
L 150.963243 -34.403125 
L 151.761816 -34.403125 
L 152.56039 -34.403125 
L 153.358963 -34.403125 
L 154.157536 -34.403125 
L 154.956109 -34.403125 
L 155.754682 -34.403125 
L 156.553255 -34.403125 
L 157.351828 -34.403125 
L 158.150401 -34.403125 
L 158.948974 -34.403125 
L 159.747547 -34.403125 
L 160.54612 -34.403125 
L 161.344693 -34.403125 
L 162.143266 -34.403125 
L 162.941839 -34.403125 
L 163.740412 -34.403125 
L 164.538985 -34.403125 
L 165.337558 -34.403125 
L 166.136131 -34.403125 
L 166.934704 -34.403125 
L 167.733277 -34.403125 
L 168.53185 -34.403125 
L 169.330423 -34.403125 
L 170.128996 -34.403125 
L 170.927569 -34.403125 
L 171.726142 -34.403125 
L 172.524715 -34.403125 
L 173.323288 -34.403125 
L 174.121861 -34.403125 
L 174.920434 -34.403125 
L 175.719007 -34.403125 
L 176.51758 -34.403125 
L 177.316153 -34.403125 
L 178.114726 -34.403125 
L 178.913299 -34.403125 
L 179.711873 -34.403125 
L 180.510446 -34.403125 
L 181.309019 -34.403125 
L 182.107592 -34.403125 
L 182.906165 -34.403125 
L 183.704738 -34.403125 
L 184.503311 -34.403125 
L 185.301884 -34.403125 
L 186.100457 -34.403125 
L 186.89903 -34.403125 
L 187.697603 -34.403125 
L 188.496176 -34.403125 
L 189.294749 -34.403125 
L 190.093322 -34.403125 
L 190.891895 -34.403125 
L 191.690468 -34.403125 
L 192.489041 -34.403125 
L 193.287614 -34.403125 
L 194.086187 -34.403125 
L 194.88476 -34.403125 
L 195.683333 -34.403125 
L 196.481906 -34.403125 
L 197.280479 -34.403125 
L 198.079052 -34.403125 
L 198.877625 -34.403125 
L 199.676198 -34.403125 
L 200.474771 -34.403125 
L 201.273344 -34.403125 
L 202.071917 -34.403125 
L 202.87049 -34.403125 
L 203.669063 -34.403125 
L 204.467636 -34.403125 
L 205.266209 -34.403125 
L 206.064782 -34.403125 
L 206.863356 -34.403125 
L 207.661929 -34.403125 
L 208.460502 -34.403125 
L 209.259075 -34.403125 
L 210.057648 -34.403125 
L 210.856221 -34.403125 
L 211.654794 -34.403125 
L 212.453367 -34.403125 
L 213.25194 -34.403125 
L 214.050513 -34.403125 
L 214.849086 -34.403125 
L 215.647659 -34.403125 
L 216.446232 -34.403125 
L 217.244805 -34.403125 
L 218.043378 -34.403125 
L 218.841951 -34.403125 
L 219.640524 -34.403125 
L 220.439097 -34.403125 
L 221.23767 -34.403125 
L 222.036243 -34.403125 
L 222.834816 -34.403125 
L 223.633389 -34.403125 
L 224.431962 -34.403125 
L 225.230535 -34.403125 
L 226.029108 -34.403125 
L 226.827681 -34.403125 
L 227.626254 -34.403125 
L 228.424827 -34.403125 
L 229.2234 -34.403125 
L 230.021973 -34.403125 
L 230.820546 -34.403125 
L 231.619119 -34.403125 
L 232.417692 -34.403125 
L 233.216265 -34.403125 
L 234.014838 -34.403125 
L 234.813412 -34.403125 
L 235.611985 -34.403125 
L 236.410558 -34.403125 
L 237.209131 -34.403125 
L 238.007704 -34.403125 
L 238.806277 -34.403125 
L 239.60485 -34.403125 
L 240.403423 -34.403125 
L 241.201996 -34.403125 
L 242.000569 -34.403125 
L 242.799142 -34.403125 
L 243.597715 -34.403125 
L 244.396288 -34.403125 
L 245.194861 -34.403125 
L 245.993434 -34.403125 
L 246.792007 -34.403125 
L 247.59058 -34.403125 
L 248.389153 -34.403125 
L 249.187726 -34.403125 
L 249.986299 -34.403125 
L 250.784872 -34.403125 
L 251.583445 -34.403125 
L 252.382018 -34.403125 
L 253.180591 -34.403125 
L 253.979164 -34.403125 
L 254.777737 -34.403125 
L 255.57631 -34.403125 
L 256.374883 -34.403125 
L 257.173456 -34.403125 
L 257.972029 -34.403125 
L 258.770602 -34.403125 
L 259.569175 -34.403125 
L 260.367748 -34.403125 
L 261.166321 -34.403125 
L 261.964895 -34.403125 
L 262.763468 -34.403125 
L 263.562041 -34.403125 
L 264.360614 -34.403125 
L 265.159187 -34.403125 
L 265.95776 -34.403125 
L 266.756333 -34.403125 
L 267.554906 -34.403125 
L 268.353479 -34.403125 
L 269.152052 -34.403125 
L 269.950625 -34.403125 
L 270.749198 -34.403125 
L 271.547771 -34.403125 
L 272.346344 -34.403125 
L 273.144917 -34.403125 
L 273.94349 -34.403125 
L 274.742063 -34.403125 
L 275.540636 -34.403125 
L 276.339209 -34.403125 
L 277.137782 -34.403125 
L 277.936355 -34.403125 
L 278.734928 -34.403125 
L 279.533501 -34.403125 
L 280.332074 -34.403125 
L 281.130647 -34.403125 
L 281.92922 -34.403125 
L 282.727793 -34.403125 
L 283.526366 -34.403125 
L 284.324939 -34.403125 
L 285.123512 -34.403125 
L 285.922085 -34.403125 
L 286.720658 -34.403125 
L 287.519231 -34.403125 
L 288.317804 -34.403125 
L 289.116378 -34.403125 
L 289.116378 -49.231039 
L 289.116378 -49.231039 
L 288.317804 -48.420202 
L 287.519231 -47.647868 
L 286.720658 -46.916657 
L 285.922085 -46.229188 
L 285.123512 -45.588082 
L 284.324939 -44.995957 
L 283.526366 -44.455435 
L 282.727793 -43.969134 
L 281.92922 -43.539674 
L 281.130647 -43.169676 
L 280.332074 -42.861758 
L 279.533501 -42.618541 
L 278.734928 -42.442643 
L 277.936355 -42.336686 
L 277.137782 -42.303329 
L 276.339209 -42.359758 
L 275.540636 -42.508716 
L 274.742063 -42.735801 
L 273.94349 -43.026612 
L 273.144917 -43.366748 
L 272.346344 -43.741807 
L 271.547771 -44.137388 
L 270.749198 -44.539089 
L 269.950625 -44.93251 
L 269.152052 -45.303248 
L 268.353479 -45.636903 
L 267.554906 -45.919073 
L 266.756333 -46.135357 
L 265.95776 -46.271354 
L 265.159187 -46.31304 
L 264.360614 -46.294154 
L 263.562041 -46.246165 
L 262.763468 -46.172325 
L 261.964895 -46.075882 
L 261.166321 -45.960089 
L 260.367748 -45.828195 
L 259.569175 -45.68345 
L 258.770602 -45.529105 
L 257.972029 -45.36841 
L 257.173456 -45.204616 
L 256.374883 -45.040973 
L 255.57631 -44.880731 
L 254.777737 -44.727141 
L 253.979164 -44.583452 
L 253.180591 -44.452539 
L 252.382018 -44.316654 
L 251.583445 -44.167133 
L 250.784872 -44.007456 
L 249.986299 -43.841105 
L 249.187726 -43.671561 
L 248.389153 -43.502305 
L 247.59058 -43.336818 
L 246.792007 -43.17858 
L 245.993434 -43.031074 
L 245.194861 -42.89778 
L 244.396288 -42.782179 
L 243.597715 -42.687751 
L 242.799142 -42.617979 
L 242.000569 -42.576343 
L 241.201996 -42.566164 
L 240.403423 -42.583949 
L 239.60485 -42.624297 
L 238.806277 -42.683613 
L 238.007704 -42.758301 
L 237.209131 -42.844765 
L 236.410558 -42.93941 
L 235.611985 -43.038639 
L 234.813412 -43.138857 
L 234.014838 -43.236469 
L 233.216265 -43.327877 
L 232.417692 -43.409487 
L 231.619119 -43.477703 
L 230.820546 -43.528928 
L 230.021973 -43.559567 
L 229.2234 -43.566363 
L 228.424827 -43.554665 
L 227.626254 -43.529185 
L 226.827681 -43.492136 
L 226.029108 -43.445732 
L 225.230535 -43.392188 
L 224.431962 -43.333718 
L 223.633389 -43.272535 
L 222.834816 -43.210854 
L 222.036243 -43.15089 
L 221.23767 -43.094855 
L 220.439097 -43.044964 
L 219.640524 -43.003432 
L 218.841951 -42.972471 
L 218.043378 -42.954297 
L 217.244805 -42.95048 
L 216.446232 -42.952431 
L 215.647659 -42.956766 
L 214.849086 -42.963422 
L 214.050513 -42.972335 
L 213.25194 -42.98344 
L 212.453367 -42.996674 
L 211.654794 -43.011972 
L 210.856221 -43.029271 
L 210.057648 -43.048507 
L 209.259075 -43.069615 
L 208.460502 -43.092532 
L 207.661929 -43.117194 
L 206.863356 -43.143537 
L 206.064782 -43.171496 
L 205.266209 -43.205285 
L 204.467636 -43.292629 
L 203.669063 -43.439014 
L 202.87049 -43.634474 
L 202.071917 -43.869047 
L 201.273344 -44.132767 
L 200.474771 -44.415671 
L 199.676198 -44.707795 
L 198.877625 -44.999175 
L 198.079052 -45.279848 
L 197.280479 -45.539848 
L 196.481906 -45.769213 
L 195.683333 -45.957978 
L 194.88476 -46.096179 
L 194.086187 -46.173853 
L 193.287614 -46.185223 
L 192.489041 -46.163022 
L 191.690468 -46.118101 
L 190.891895 -46.052613 
L 190.093322 -45.968712 
L 189.294749 -45.868551 
L 188.496176 -45.754283 
L 187.697603 -45.628063 
L 186.89903 -45.492044 
L 186.100457 -45.348379 
L 185.301884 -45.199223 
L 184.503311 -45.046729 
L 183.704738 -44.893051 
L 182.906165 -44.740341 
L 182.107592 -44.590755 
L 181.309019 -44.441582 
L 180.510446 -44.260752 
L 179.711873 -44.047707 
L 178.913299 -43.809393 
L 178.114726 -43.552757 
L 177.316153 -43.284744 
L 176.51758 -43.012302 
L 175.719007 -42.742377 
L 174.920434 -42.481916 
L 174.121861 -42.237865 
L 173.323288 -42.017171 
L 172.524715 -41.826781 
L 171.726142 -41.67364 
L 170.927569 -41.564697 
L 170.128996 -41.506896 
L 169.330423 -41.504491 
L 168.53185 -41.544152 
L 167.733277 -41.61964 
L 166.934704 -41.726956 
L 166.136131 -41.862099 
L 165.337558 -42.021069 
L 164.538985 -42.199865 
L 163.740412 -42.394489 
L 162.941839 -42.600939 
L 162.143266 -42.815215 
L 161.344693 -43.033318 
L 160.54612 -43.251246 
L 159.747547 -43.465001 
L 158.948974 -43.670581 
L 158.150401 -43.863987 
L 157.351828 -44.048561 
L 156.553255 -44.255899 
L 155.754682 -44.485246 
L 154.956109 -44.730874 
L 154.157536 -44.987058 
L 153.358963 -45.248067 
L 152.56039 -45.508176 
L 151.761816 -45.761657 
L 150.963243 -46.002781 
L 150.16467 -46.225822 
L 149.366097 -46.425051 
L 148.567524 -46.594741 
L 147.768951 -46.729165 
L 146.970378 -46.822595 
L 146.171805 -46.869303 
L 145.373232 -46.8567 
L 144.574659 -46.758809 
L 143.776086 -46.585004 
L 142.977513 -46.348207 
L 142.17894 -46.061338 
L 141.380367 -45.737321 
L 140.581794 -45.389075 
L 139.783221 -45.029523 
L 138.984648 -44.671586 
L 138.186075 -44.328187 
L 137.387502 -44.012245 
L 136.588929 -43.736683 
L 135.790356 -43.514422 
L 134.991783 -43.358384 
L 134.19321 -43.28149 
L 133.394637 -43.27848 
L 132.596064 -43.292965 
L 131.797491 -43.318138 
L 130.998918 -43.352165 
L 130.200345 -43.393212 
L 129.401772 -43.439442 
L 128.603199 -43.489021 
L 127.804626 -43.540114 
L 127.006053 -43.590886 
L 126.20748 -43.639502 
L 125.408907 -43.684127 
L 124.610333 -43.722925 
L 123.81176 -43.754062 
L 123.013187 -43.775703 
L 122.214614 -43.786013 
L 121.416041 -43.772799 
L 120.617468 -43.708848 
L 119.818895 -43.599904 
L 119.020322 -43.453759 
L 118.221749 -43.278202 
L 117.423176 -43.081025 
L 116.624603 -42.870019 
L 115.82603 -42.652975 
L 115.027457 -42.437685 
L 114.228884 -42.231938 
L 113.430311 -42.043526 
L 112.631738 -41.88024 
L 111.833165 -41.749871 
L 111.034592 -41.66021 
L 110.236019 -41.619047 
L 109.437446 -41.645417 
L 108.638873 -41.76354 
L 107.8403 -41.961027 
L 107.041727 -42.224016 
L 106.243154 -42.538644 
L 105.444581 -42.891048 
L 104.646008 -43.267365 
L 103.847435 -43.653733 
L 103.048862 -44.036289 
L 102.250289 -44.401169 
L 101.451716 -44.734512 
L 100.653143 -45.022454 
L 99.85457 -45.251132 
L 99.055997 -45.406684 
L 98.257424 -45.475247 
L 97.458851 -45.472888 
L 96.660277 -45.455242 
L 95.861704 -45.424603 
L 95.063131 -45.381492 
L 94.264558 -45.32643 
L 93.465985 -45.259936 
L 92.667412 -45.182532 
L 91.868839 -45.094737 
L 91.070266 -44.997073 
L 90.271693 -44.890058 
L 89.47312 -44.774215 
L 88.674547 -44.650063 
L 87.875974 -44.518123 
L 87.077401 -44.378916 
L 86.278828 -44.23296 
L 85.480255 -44.005534 
L 84.681682 -43.583954 
L 83.883109 -42.996953 
L 83.084536 -42.275725 
L 82.285963 -41.451463 
L 81.48739 -40.555359 
L 80.688817 -39.618605 
L 79.890244 -38.672395 
L 79.091671 -37.747922 
L 78.293098 -36.876377 
L 77.494525 -36.088955 
L 76.695952 -35.416846 
L 75.897379 -34.891245 
L 75.098806 -34.543344 
L 74.300233 -34.404336 
L 73.50166 -34.485326 
L 72.703087 -34.752457 
L 71.904514 -35.177292 
L 71.105941 -35.731544 
L 70.307368 -36.386925 
L 69.508794 -37.115146 
L 68.710221 -37.887922 
L 67.911648 -38.676962 
L 67.113075 -39.45398 
L 66.314502 -40.190688 
L 65.515929 -40.858799 
L 64.717356 -41.430023 
L 63.918783 -41.876074 
L 63.12021 -42.168664 
L 62.321637 -42.279505 
L 61.523064 -42.279722 
L 60.724491 -42.27936 
L 59.925918 -42.278354 
L 59.127345 -42.276373 
L 58.328772 -42.273086 
L 57.530199 -42.268161 
L 56.731626 -42.26127 
L 55.933053 -42.252081 
L 55.13448 -42.240264 
L 54.335907 -42.225487 
L 53.537334 -42.20742 
L 52.738761 -42.185734 
L 51.940188 -42.160096 
L 51.141615 -42.130176 
L 50.343042 -42.095645 
z
" style="stroke: #d62728; stroke-opacity: 0.7"/>
    </defs>
    <g clip-path="url(#p4076851cd5)">
     <use xlink:href="#m30dec34cb9" x="0" y="217.533125" style="fill: #d62728; fill-opacity: 0.7; stroke: #d62728; stroke-opacity: 0.7"/>
    </g>
   </g>
   <g id="FillBetweenPolyCollection_2">
    <defs>
     <path id="mf580554758" d="M 50.343042 -72.865723 
L 50.343042 -42.095645 
L 51.141615 -42.130176 
L 51.940188 -42.160096 
L 52.738761 -42.185734 
L 53.537334 -42.20742 
L 54.335907 -42.225487 
L 55.13448 -42.240264 
L 55.933053 -42.252081 
L 56.731626 -42.26127 
L 57.530199 -42.268161 
L 58.328772 -42.273086 
L 59.127345 -42.276373 
L 59.925918 -42.278354 
L 60.724491 -42.27936 
L 61.523064 -42.279722 
L 62.321637 -42.279505 
L 63.12021 -42.168664 
L 63.918783 -41.876074 
L 64.717356 -41.430023 
L 65.515929 -40.858799 
L 66.314502 -40.190688 
L 67.113075 -39.45398 
L 67.911648 -38.676962 
L 68.710221 -37.887922 
L 69.508794 -37.115146 
L 70.307368 -36.386925 
L 71.105941 -35.731544 
L 71.904514 -35.177292 
L 72.703087 -34.752457 
L 73.50166 -34.485326 
L 74.300233 -34.404336 
L 75.098806 -34.543344 
L 75.897379 -34.891245 
L 76.695952 -35.416846 
L 77.494525 -36.088955 
L 78.293098 -36.876377 
L 79.091671 -37.747922 
L 79.890244 -38.672395 
L 80.688817 -39.618605 
L 81.48739 -40.555359 
L 82.285963 -41.451463 
L 83.084536 -42.275725 
L 83.883109 -42.996953 
L 84.681682 -43.583954 
L 85.480255 -44.005534 
L 86.278828 -44.23296 
L 87.077401 -44.378916 
L 87.875974 -44.518123 
L 88.674547 -44.650063 
L 89.47312 -44.774215 
L 90.271693 -44.890058 
L 91.070266 -44.997073 
L 91.868839 -45.094737 
L 92.667412 -45.182532 
L 93.465985 -45.259936 
L 94.264558 -45.32643 
L 95.063131 -45.381492 
L 95.861704 -45.424603 
L 96.660277 -45.455242 
L 97.458851 -45.472888 
L 98.257424 -45.475247 
L 99.055997 -45.406684 
L 99.85457 -45.251132 
L 100.653143 -45.022454 
L 101.451716 -44.734512 
L 102.250289 -44.401169 
L 103.048862 -44.036289 
L 103.847435 -43.653733 
L 104.646008 -43.267365 
L 105.444581 -42.891048 
L 106.243154 -42.538644 
L 107.041727 -42.224016 
L 107.8403 -41.961027 
L 108.638873 -41.76354 
L 109.437446 -41.645417 
L 110.236019 -41.619047 
L 111.034592 -41.66021 
L 111.833165 -41.749871 
L 112.631738 -41.88024 
L 113.430311 -42.043526 
L 114.228884 -42.231938 
L 115.027457 -42.437685 
L 115.82603 -42.652975 
L 116.624603 -42.870019 
L 117.423176 -43.081025 
L 118.221749 -43.278202 
L 119.020322 -43.453759 
L 119.818895 -43.599904 
L 120.617468 -43.708848 
L 121.416041 -43.772799 
L 122.214614 -43.786013 
L 123.013187 -43.775703 
L 123.81176 -43.754062 
L 124.610333 -43.722925 
L 125.408907 -43.684127 
L 126.20748 -43.639502 
L 127.006053 -43.590886 
L 127.804626 -43.540114 
L 128.603199 -43.489021 
L 129.401772 -43.439442 
L 130.200345 -43.393212 
L 130.998918 -43.352165 
L 131.797491 -43.318138 
L 132.596064 -43.292965 
L 133.394637 -43.27848 
L 134.19321 -43.28149 
L 134.991783 -43.358384 
L 135.790356 -43.514422 
L 136.588929 -43.736683 
L 137.387502 -44.012245 
L 138.186075 -44.328187 
L 138.984648 -44.671586 
L 139.783221 -45.029523 
L 140.581794 -45.389075 
L 141.380367 -45.737321 
L 142.17894 -46.061338 
L 142.977513 -46.348207 
L 143.776086 -46.585004 
L 144.574659 -46.758809 
L 145.373232 -46.8567 
L 146.171805 -46.869303 
L 146.970378 -46.822595 
L 147.768951 -46.729165 
L 148.567524 -46.594741 
L 149.366097 -46.425051 
L 150.16467 -46.225822 
L 150.963243 -46.002781 
L 151.761816 -45.761657 
L 152.56039 -45.508176 
L 153.358963 -45.248067 
L 154.157536 -44.987058 
L 154.956109 -44.730874 
L 155.754682 -44.485246 
L 156.553255 -44.255899 
L 157.351828 -44.048561 
L 158.150401 -43.863987 
L 158.948974 -43.670581 
L 159.747547 -43.465001 
L 160.54612 -43.251246 
L 161.344693 -43.033318 
L 162.143266 -42.815215 
L 162.941839 -42.600939 
L 163.740412 -42.394489 
L 164.538985 -42.199865 
L 165.337558 -42.021069 
L 166.136131 -41.862099 
L 166.934704 -41.726956 
L 167.733277 -41.61964 
L 168.53185 -41.544152 
L 169.330423 -41.504491 
L 170.128996 -41.506896 
L 170.927569 -41.564697 
L 171.726142 -41.67364 
L 172.524715 -41.826781 
L 173.323288 -42.017171 
L 174.121861 -42.237865 
L 174.920434 -42.481916 
L 175.719007 -42.742377 
L 176.51758 -43.012302 
L 177.316153 -43.284744 
L 178.114726 -43.552757 
L 178.913299 -43.809393 
L 179.711873 -44.047707 
L 180.510446 -44.260752 
L 181.309019 -44.441582 
L 182.107592 -44.590755 
L 182.906165 -44.740341 
L 183.704738 -44.893051 
L 184.503311 -45.046729 
L 185.301884 -45.199223 
L 186.100457 -45.348379 
L 186.89903 -45.492044 
L 187.697603 -45.628063 
L 188.496176 -45.754283 
L 189.294749 -45.868551 
L 190.093322 -45.968712 
L 190.891895 -46.052613 
L 191.690468 -46.118101 
L 192.489041 -46.163022 
L 193.287614 -46.185223 
L 194.086187 -46.173853 
L 194.88476 -46.096179 
L 195.683333 -45.957978 
L 196.481906 -45.769213 
L 197.280479 -45.539848 
L 198.079052 -45.279848 
L 198.877625 -44.999175 
L 199.676198 -44.707795 
L 200.474771 -44.415671 
L 201.273344 -44.132767 
L 202.071917 -43.869047 
L 202.87049 -43.634474 
L 203.669063 -43.439014 
L 204.467636 -43.292629 
L 205.266209 -43.205285 
L 206.064782 -43.171496 
L 206.863356 -43.143537 
L 207.661929 -43.117194 
L 208.460502 -43.092532 
L 209.259075 -43.069615 
L 210.057648 -43.048507 
L 210.856221 -43.029271 
L 211.654794 -43.011972 
L 212.453367 -42.996674 
L 213.25194 -42.98344 
L 214.050513 -42.972335 
L 214.849086 -42.963422 
L 215.647659 -42.956766 
L 216.446232 -42.952431 
L 217.244805 -42.95048 
L 218.043378 -42.954297 
L 218.841951 -42.972471 
L 219.640524 -43.003432 
L 220.439097 -43.044964 
L 221.23767 -43.094855 
L 222.036243 -43.15089 
L 222.834816 -43.210854 
L 223.633389 -43.272535 
L 224.431962 -43.333718 
L 225.230535 -43.392188 
L 226.029108 -43.445732 
L 226.827681 -43.492136 
L 227.626254 -43.529185 
L 228.424827 -43.554665 
L 229.2234 -43.566363 
L 230.021973 -43.559567 
L 230.820546 -43.528928 
L 231.619119 -43.477703 
L 232.417692 -43.409487 
L 233.216265 -43.327877 
L 234.014838 -43.236469 
L 234.813412 -43.138857 
L 235.611985 -43.038639 
L 236.410558 -42.93941 
L 237.209131 -42.844765 
L 238.007704 -42.758301 
L 238.806277 -42.683613 
L 239.60485 -42.624297 
L 240.403423 -42.583949 
L 241.201996 -42.566164 
L 242.000569 -42.576343 
L 242.799142 -42.617979 
L 243.597715 -42.687751 
L 244.396288 -42.782179 
L 245.194861 -42.89778 
L 245.993434 -43.031074 
L 246.792007 -43.17858 
L 247.59058 -43.336818 
L 248.389153 -43.502305 
L 249.187726 -43.671561 
L 249.986299 -43.841105 
L 250.784872 -44.007456 
L 251.583445 -44.167133 
L 252.382018 -44.316654 
L 253.180591 -44.452539 
L 253.979164 -44.583452 
L 254.777737 -44.727141 
L 255.57631 -44.880731 
L 256.374883 -45.040973 
L 257.173456 -45.204616 
L 257.972029 -45.36841 
L 258.770602 -45.529105 
L 259.569175 -45.68345 
L 260.367748 -45.828195 
L 261.166321 -45.960089 
L 261.964895 -46.075882 
L 262.763468 -46.172325 
L 263.562041 -46.246165 
L 264.360614 -46.294154 
L 265.159187 -46.31304 
L 265.95776 -46.271354 
L 266.756333 -46.135357 
L 267.554906 -45.919073 
L 268.353479 -45.636903 
L 269.152052 -45.303248 
L 269.950625 -44.93251 
L 270.749198 -44.539089 
L 271.547771 -44.137388 
L 272.346344 -43.741807 
L 273.144917 -43.366748 
L 273.94349 -43.026612 
L 274.742063 -42.735801 
L 275.540636 -42.508716 
L 276.339209 -42.359758 
L 277.137782 -42.303329 
L 277.936355 -42.336686 
L 278.734928 -42.442643 
L 279.533501 -42.618541 
L 280.332074 -42.861758 
L 281.130647 -43.169676 
L 281.92922 -43.539674 
L 282.727793 -43.969134 
L 283.526366 -44.455435 
L 284.324939 -44.995957 
L 285.123512 -45.588082 
L 285.922085 -46.229188 
L 286.720658 -46.916657 
L 287.519231 -47.647868 
L 288.317804 -48.420202 
L 289.116378 -49.231039 
L 289.116378 -133.685679 
L 289.116378 -133.685679 
L 288.317804 -130.834368 
L 287.519231 -128.08122 
L 286.720658 -125.440986 
L 285.922085 -122.928416 
L 285.123512 -120.558263 
L 284.324939 -118.345278 
L 283.526366 -116.304212 
L 282.727793 -114.449816 
L 281.92922 -112.796842 
L 281.130647 -111.36004 
L 280.332074 -110.154164 
L 279.533501 -109.193962 
L 278.734928 -108.494188 
L 277.936355 -108.069592 
L 277.137782 -107.934858 
L 276.339209 -108.066028 
L 275.540636 -108.412281 
L 274.742063 -108.940143 
L 273.94349 -109.616135 
L 273.144917 -110.406783 
L 272.346344 -111.27861 
L 271.547771 -112.19814 
L 270.749198 -113.131898 
L 269.950625 -114.046407 
L 269.152052 -114.908191 
L 268.353479 -115.683775 
L 267.554906 -116.339682 
L 266.756333 -116.842436 
L 265.95776 -117.158561 
L 265.159187 -117.254905 
L 264.360614 -117.147066 
L 263.562041 -116.874702 
L 262.763468 -116.458627 
L 261.964895 -115.919655 
L 261.166321 -115.278599 
L 260.367748 -114.556273 
L 259.569175 -113.773492 
L 258.770602 -112.951068 
L 257.972029 -112.109817 
L 257.173456 -111.270551 
L 256.374883 -110.454085 
L 255.57631 -109.681233 
L 254.777737 -108.972809 
L 253.979164 -108.349625 
L 253.180591 -107.830761 
L 252.382018 -107.337374 
L 251.583445 -106.823369 
L 250.784872 -106.296887 
L 249.986299 -105.766071 
L 249.187726 -105.239061 
L 248.389153 -104.724001 
L 247.59058 -104.22903 
L 246.792007 -103.762292 
L 245.993434 -103.331927 
L 245.194861 -102.946078 
L 244.396288 -102.612885 
L 243.597715 -102.340491 
L 242.799142 -102.137038 
L 242.000569 -102.010667 
L 241.201996 -101.968224 
L 240.403423 -101.972295 
L 239.60485 -101.999823 
L 238.806277 -102.047222 
L 238.007704 -102.110906 
L 237.209131 -102.187292 
L 236.410558 -102.272792 
L 235.611985 -102.363822 
L 234.813412 -102.456797 
L 234.014838 -102.548131 
L 233.216265 -102.634239 
L 232.417692 -102.711536 
L 231.619119 -102.776436 
L 230.820546 -102.825355 
L 230.021973 -102.854706 
L 229.2234 -102.865555 
L 228.424827 -102.953223 
L 227.626254 -103.144183 
L 226.827681 -103.421844 
L 226.029108 -103.769611 
L 225.230535 -104.170891 
L 224.431962 -104.609091 
L 223.633389 -105.067618 
L 222.834816 -105.529879 
L 222.036243 -105.979279 
L 221.23767 -106.399227 
L 220.439097 -106.773128 
L 219.640524 -107.08439 
L 218.841951 -107.316419 
L 218.043378 -107.452622 
L 217.244805 -107.479805 
L 216.446232 -107.44168 
L 215.647659 -107.361891 
L 214.849086 -107.247509 
L 214.050513 -107.105602 
L 213.25194 -106.943239 
L 212.453367 -106.767491 
L 211.654794 -106.585426 
L 210.856221 -106.404113 
L 210.057648 -106.230621 
L 209.259075 -106.07202 
L 208.460502 -105.93538 
L 207.661929 -105.827768 
L 206.863356 -105.756255 
L 206.064782 -105.727909 
L 205.266209 -105.755018 
L 204.467636 -105.899883 
L 203.669063 -106.166983 
L 202.87049 -106.541242 
L 202.071917 -107.007584 
L 201.273344 -107.550934 
L 200.474771 -108.156217 
L 199.676198 -108.808357 
L 198.877625 -109.49228 
L 198.079052 -110.192909 
L 197.280479 -110.89517 
L 196.481906 -111.583987 
L 195.683333 -112.244285 
L 194.88476 -112.860988 
L 194.086187 -113.419022 
L 193.287614 -113.924326 
L 192.489041 -114.551388 
L 191.690468 -115.318495 
L 190.891895 -116.195759 
L 190.093322 -117.153291 
L 189.294749 -118.161205 
L 188.496176 -119.189611 
L 187.697603 -120.208623 
L 186.89903 -121.188351 
L 186.100457 -122.098908 
L 185.301884 -122.910407 
L 184.503311 -123.592959 
L 183.704738 -124.116675 
L 182.906165 -124.45167 
L 182.107592 -124.568053 
L 181.309019 -124.430196 
L 180.510446 -123.992357 
L 179.711873 -123.287978 
L 178.913299 -122.362899 
L 178.114726 -121.262958 
L 177.316153 -120.033993 
L 176.51758 -118.721843 
L 175.719007 -117.372346 
L 174.920434 -116.03134 
L 174.121861 -114.744664 
L 173.323288 -113.558156 
L 172.524715 -112.517655 
L 171.726142 -111.668999 
L 170.927569 -111.058027 
L 170.128996 -110.730577 
L 169.330423 -110.704934 
L 168.53185 -110.837884 
L 167.733277 -111.087056 
L 166.934704 -111.434994 
L 166.136131 -111.864244 
L 165.337558 -112.35735 
L 164.538985 -112.896857 
L 163.740412 -113.465309 
L 162.941839 -114.045251 
L 162.143266 -114.619228 
L 161.344693 -115.169785 
L 160.54612 -115.679466 
L 159.747547 -116.130816 
L 158.948974 -116.50638 
L 158.150401 -116.788702 
L 157.351828 -116.899188 
L 156.553255 -116.552922 
L 155.754682 -115.775256 
L 154.956109 -114.635396 
L 154.157536 -113.202546 
L 153.358963 -111.54591 
L 152.56039 -109.734695 
L 151.761816 -107.838103 
L 150.963243 -105.92534 
L 150.16467 -104.065612 
L 149.366097 -102.328122 
L 148.567524 -100.782075 
L 147.768951 -99.496677 
L 146.970378 -98.541131 
L 146.171805 -97.984644 
L 145.373232 -97.792385 
L 144.574659 -97.580345 
L 143.776086 -97.313278 
L 142.977513 -97.00058 
L 142.17894 -96.651646 
L 141.380367 -96.275872 
L 140.581794 -95.882653 
L 139.783221 -95.481387 
L 138.984648 -95.081468 
L 138.186075 -94.692293 
L 137.387502 -94.323257 
L 136.588929 -93.983755 
L 135.790356 -93.683185 
L 134.991783 -93.430941 
L 134.19321 -93.236419 
L 133.394637 -93.022679 
L 132.596064 -92.518285 
L 131.797491 -91.743217 
L 130.998918 -90.743225 
L 130.200345 -89.564063 
L 129.401772 -88.251484 
L 128.603199 -86.85124 
L 127.804626 -85.409083 
L 127.006053 -83.970766 
L 126.20748 -82.582042 
L 125.408907 -81.288664 
L 124.610333 -80.136383 
L 123.81176 -79.170952 
L 123.013187 -78.438124 
L 122.214614 -77.983652 
L 121.416041 -77.756366 
L 120.617468 -77.503129 
L 119.818895 -77.215059 
L 119.020322 -76.900512 
L 118.221749 -76.567845 
L 117.423176 -76.225415 
L 116.624603 -75.88158 
L 115.82603 -75.544697 
L 115.027457 -75.223122 
L 114.228884 -74.925212 
L 113.430311 -74.659326 
L 112.631738 -74.433819 
L 111.833165 -74.257049 
L 111.034592 -74.137373 
L 110.236019 -74.083149 
L 109.437446 -74.282875 
L 108.638873 -75.130232 
L 107.8403 -76.546913 
L 107.041727 -78.433473 
L 106.243154 -80.690467 
L 105.444581 -83.21845 
L 104.646008 -85.917975 
L 103.847435 -88.689599 
L 103.048862 -91.433875 
L 102.250289 -94.051358 
L 101.451716 -96.442603 
L 100.653143 -98.508165 
L 99.85457 -100.148598 
L 99.055997 -101.264457 
L 98.257424 -101.756297 
L 97.458851 -101.536627 
L 96.660277 -100.638484 
L 95.861704 -99.16151 
L 95.063131 -97.205934 
L 94.264558 -94.871982 
L 93.465985 -92.259883 
L 92.667412 -89.469863 
L 91.868839 -86.602151 
L 91.070266 -83.756973 
L 90.271693 -81.034559 
L 89.47312 -78.535134 
L 88.674547 -76.358926 
L 87.875974 -74.606164 
L 87.077401 -73.377074 
L 86.278828 -72.771884 
L 85.480255 -72.629658 
L 84.681682 -72.53706 
L 83.883109 -72.481543 
L 83.084536 -72.458301 
L 82.285963 -72.462524 
L 81.48739 -72.489407 
L 80.688817 -72.534141 
L 79.890244 -72.591918 
L 79.091671 -72.657932 
L 78.293098 -72.727375 
L 77.494525 -72.795438 
L 76.695952 -72.857315 
L 75.897379 -72.908199 
L 75.098806 -72.94328 
L 74.300233 -72.957753 
L 73.50166 -72.894602 
L 72.703087 -72.688959 
L 71.904514 -72.361912 
L 71.105941 -71.935238 
L 70.307368 -71.430713 
L 69.508794 -70.870113 
L 68.710221 -70.275215 
L 67.911648 -69.667795 
L 67.113075 -69.069631 
L 66.314502 -68.502498 
L 65.515929 -67.988173 
L 64.717356 -67.548433 
L 63.918783 -67.205054 
L 63.12021 -66.979812 
L 62.321637 -66.894484 
L 61.523064 -66.904372 
L 60.724491 -66.941015 
L 59.925918 -67.010896 
L 59.127345 -67.120672 
L 58.328772 -67.277002 
L 57.530199 -67.486545 
L 56.731626 -67.755961 
L 55.933053 -68.091907 
L 55.13448 -68.501043 
L 54.335907 -68.990026 
L 53.537334 -69.565517 
L 52.738761 -70.234173 
L 51.940188 -71.002654 
L 51.141615 -71.877618 
L 50.343042 -72.865723 
z
" style="stroke: #1f77b4; stroke-opacity: 0.7"/>
    </defs>
    <g clip-path="url(#p4076851cd5)">
     <use xlink:href="#mf580554758" x="0" y="217.533125" style="fill: #1f77b4; fill-opacity: 0.7; stroke: #1f77b4; stroke-opacity: 0.7"/>
    </g>
   </g>
   <g id="FillBetweenPolyCollection_3">
    <defs>
     <path id="m211a5a7f7d" d="M 50.343042 -72.865723 
L 50.343042 -72.865723 
L 51.141615 -71.877618 
L 51.940188 -71.002654 
L 52.738761 -70.234173 
L 53.537334 -69.565517 
L 54.335907 -68.990026 
L 55.13448 -68.501043 
L 55.933053 -68.091907 
L 56.731626 -67.755961 
L 57.530199 -67.486545 
L 58.328772 -67.277002 
L 59.127345 -67.120672 
L 59.925918 -67.010896 
L 60.724491 -66.941015 
L 61.523064 -66.904372 
L 62.321637 -66.894484 
L 63.12021 -66.979812 
L 63.918783 -67.205054 
L 64.717356 -67.548433 
L 65.515929 -67.988173 
L 66.314502 -68.502498 
L 67.113075 -69.069631 
L 67.911648 -69.667795 
L 68.710221 -70.275215 
L 69.508794 -70.870113 
L 70.307368 -71.430713 
L 71.105941 -71.935238 
L 71.904514 -72.361912 
L 72.703087 -72.688959 
L 73.50166 -72.894602 
L 74.300233 -72.957753 
L 75.098806 -72.94328 
L 75.897379 -72.908199 
L 76.695952 -72.857315 
L 77.494525 -72.795438 
L 78.293098 -72.727375 
L 79.091671 -72.657932 
L 79.890244 -72.591918 
L 80.688817 -72.534141 
L 81.48739 -72.489407 
L 82.285963 -72.462524 
L 83.084536 -72.458301 
L 83.883109 -72.481543 
L 84.681682 -72.53706 
L 85.480255 -72.629658 
L 86.278828 -72.771884 
L 87.077401 -73.377074 
L 87.875974 -74.606164 
L 88.674547 -76.358926 
L 89.47312 -78.535134 
L 90.271693 -81.034559 
L 91.070266 -83.756973 
L 91.868839 -86.602151 
L 92.667412 -89.469863 
L 93.465985 -92.259883 
L 94.264558 -94.871982 
L 95.063131 -97.205934 
L 95.861704 -99.16151 
L 96.660277 -100.638484 
L 97.458851 -101.536627 
L 98.257424 -101.756297 
L 99.055997 -101.264457 
L 99.85457 -100.148598 
L 100.653143 -98.508165 
L 101.451716 -96.442603 
L 102.250289 -94.051358 
L 103.048862 -91.433875 
L 103.847435 -88.689599 
L 104.646008 -85.917975 
L 105.444581 -83.21845 
L 106.243154 -80.690467 
L 107.041727 -78.433473 
L 107.8403 -76.546913 
L 108.638873 -75.130232 
L 109.437446 -74.282875 
L 110.236019 -74.083149 
L 111.034592 -74.137373 
L 111.833165 -74.257049 
L 112.631738 -74.433819 
L 113.430311 -74.659326 
L 114.228884 -74.925212 
L 115.027457 -75.223122 
L 115.82603 -75.544697 
L 116.624603 -75.88158 
L 117.423176 -76.225415 
L 118.221749 -76.567845 
L 119.020322 -76.900512 
L 119.818895 -77.215059 
L 120.617468 -77.503129 
L 121.416041 -77.756366 
L 122.214614 -77.983652 
L 123.013187 -78.438124 
L 123.81176 -79.170952 
L 124.610333 -80.136383 
L 125.408907 -81.288664 
L 126.20748 -82.582042 
L 127.006053 -83.970766 
L 127.804626 -85.409083 
L 128.603199 -86.85124 
L 129.401772 -88.251484 
L 130.200345 -89.564063 
L 130.998918 -90.743225 
L 131.797491 -91.743217 
L 132.596064 -92.518285 
L 133.394637 -93.022679 
L 134.19321 -93.236419 
L 134.991783 -93.430941 
L 135.790356 -93.683185 
L 136.588929 -93.983755 
L 137.387502 -94.323257 
L 138.186075 -94.692293 
L 138.984648 -95.081468 
L 139.783221 -95.481387 
L 140.581794 -95.882653 
L 141.380367 -96.275872 
L 142.17894 -96.651646 
L 142.977513 -97.00058 
L 143.776086 -97.313278 
L 144.574659 -97.580345 
L 145.373232 -97.792385 
L 146.171805 -97.984644 
L 146.970378 -98.541131 
L 147.768951 -99.496677 
L 148.567524 -100.782075 
L 149.366097 -102.328122 
L 150.16467 -104.065612 
L 150.963243 -105.92534 
L 151.761816 -107.838103 
L 152.56039 -109.734695 
L 153.358963 -111.54591 
L 154.157536 -113.202546 
L 154.956109 -114.635396 
L 155.754682 -115.775256 
L 156.553255 -116.552922 
L 157.351828 -116.899188 
L 158.150401 -116.788702 
L 158.948974 -116.50638 
L 159.747547 -116.130816 
L 160.54612 -115.679466 
L 161.344693 -115.169785 
L 162.143266 -114.619228 
L 162.941839 -114.045251 
L 163.740412 -113.465309 
L 164.538985 -112.896857 
L 165.337558 -112.35735 
L 166.136131 -111.864244 
L 166.934704 -111.434994 
L 167.733277 -111.087056 
L 168.53185 -110.837884 
L 169.330423 -110.704934 
L 170.128996 -110.730577 
L 170.927569 -111.058027 
L 171.726142 -111.668999 
L 172.524715 -112.517655 
L 173.323288 -113.558156 
L 174.121861 -114.744664 
L 174.920434 -116.03134 
L 175.719007 -117.372346 
L 176.51758 -118.721843 
L 177.316153 -120.033993 
L 178.114726 -121.262958 
L 178.913299 -122.362899 
L 179.711873 -123.287978 
L 180.510446 -123.992357 
L 181.309019 -124.430196 
L 182.107592 -124.568053 
L 182.906165 -124.45167 
L 183.704738 -124.116675 
L 184.503311 -123.592959 
L 185.301884 -122.910407 
L 186.100457 -122.098908 
L 186.89903 -121.188351 
L 187.697603 -120.208623 
L 188.496176 -119.189611 
L 189.294749 -118.161205 
L 190.093322 -117.153291 
L 190.891895 -116.195759 
L 191.690468 -115.318495 
L 192.489041 -114.551388 
L 193.287614 -113.924326 
L 194.086187 -113.419022 
L 194.88476 -112.860988 
L 195.683333 -112.244285 
L 196.481906 -111.583987 
L 197.280479 -110.89517 
L 198.079052 -110.192909 
L 198.877625 -109.49228 
L 199.676198 -108.808357 
L 200.474771 -108.156217 
L 201.273344 -107.550934 
L 202.071917 -107.007584 
L 202.87049 -106.541242 
L 203.669063 -106.166983 
L 204.467636 -105.899883 
L 205.266209 -105.755018 
L 206.064782 -105.727909 
L 206.863356 -105.756255 
L 207.661929 -105.827768 
L 208.460502 -105.93538 
L 209.259075 -106.07202 
L 210.057648 -106.230621 
L 210.856221 -106.404113 
L 211.654794 -106.585426 
L 212.453367 -106.767491 
L 213.25194 -106.943239 
L 214.050513 -107.105602 
L 214.849086 -107.247509 
L 215.647659 -107.361891 
L 216.446232 -107.44168 
L 217.244805 -107.479805 
L 218.043378 -107.452622 
L 218.841951 -107.316419 
L 219.640524 -107.08439 
L 220.439097 -106.773128 
L 221.23767 -106.399227 
L 222.036243 -105.979279 
L 222.834816 -105.529879 
L 223.633389 -105.067618 
L 224.431962 -104.609091 
L 225.230535 -104.170891 
L 226.029108 -103.769611 
L 226.827681 -103.421844 
L 227.626254 -103.144183 
L 228.424827 -102.953223 
L 229.2234 -102.865555 
L 230.021973 -102.854706 
L 230.820546 -102.825355 
L 231.619119 -102.776436 
L 232.417692 -102.711536 
L 233.216265 -102.634239 
L 234.014838 -102.548131 
L 234.813412 -102.456797 
L 235.611985 -102.363822 
L 236.410558 -102.272792 
L 237.209131 -102.187292 
L 238.007704 -102.110906 
L 238.806277 -102.047222 
L 239.60485 -101.999823 
L 240.403423 -101.972295 
L 241.201996 -101.968224 
L 242.000569 -102.010667 
L 242.799142 -102.137038 
L 243.597715 -102.340491 
L 244.396288 -102.612885 
L 245.194861 -102.946078 
L 245.993434 -103.331927 
L 246.792007 -103.762292 
L 247.59058 -104.22903 
L 248.389153 -104.724001 
L 249.187726 -105.239061 
L 249.986299 -105.766071 
L 250.784872 -106.296887 
L 251.583445 -106.823369 
L 252.382018 -107.337374 
L 253.180591 -107.830761 
L 253.979164 -108.349625 
L 254.777737 -108.972809 
L 255.57631 -109.681233 
L 256.374883 -110.454085 
L 257.173456 -111.270551 
L 257.972029 -112.109817 
L 258.770602 -112.951068 
L 259.569175 -113.773492 
L 260.367748 -114.556273 
L 261.166321 -115.278599 
L 261.964895 -115.919655 
L 262.763468 -116.458627 
L 263.562041 -116.874702 
L 264.360614 -117.147066 
L 265.159187 -117.254905 
L 265.95776 -117.158561 
L 266.756333 -116.842436 
L 267.554906 -116.339682 
L 268.353479 -115.683775 
L 269.152052 -114.908191 
L 269.950625 -114.046407 
L 270.749198 -113.131898 
L 271.547771 -112.19814 
L 272.346344 -111.27861 
L 273.144917 -110.406783 
L 273.94349 -109.616135 
L 274.742063 -108.940143 
L 275.540636 -108.412281 
L 276.339209 -108.066028 
L 277.137782 -107.934858 
L 277.936355 -108.069592 
L 278.734928 -108.494188 
L 279.533501 -109.193962 
L 280.332074 -110.154164 
L 281.130647 -111.36004 
L 281.92922 -112.796842 
L 282.727793 -114.449816 
L 283.526366 -116.304212 
L 284.324939 -118.345278 
L 285.123512 -120.558263 
L 285.922085 -122.928416 
L 286.720658 -125.440986 
L 287.519231 -128.08122 
L 288.317804 -130.834368 
L 289.116378 -133.685679 
L 289.116378 -133.685679 
L 289.116378 -133.685679 
L 288.317804 -130.834368 
L 287.519231 -128.08122 
L 286.720658 -125.440986 
L 285.922085 -122.928416 
L 285.123512 -120.558263 
L 284.324939 -118.345278 
L 283.526366 -116.304212 
L 282.727793 -114.449816 
L 281.92922 -112.796842 
L 281.130647 -111.36004 
L 280.332074 -110.154164 
L 279.533501 -109.193962 
L 278.734928 -108.494188 
L 277.936355 -108.069592 
L 277.137782 -107.934858 
L 276.339209 -108.066028 
L 275.540636 -108.412281 
L 274.742063 -108.940143 
L 273.94349 -109.616135 
L 273.144917 -110.406783 
L 272.346344 -111.27861 
L 271.547771 -112.19814 
L 270.749198 -113.131898 
L 269.950625 -114.046407 
L 269.152052 -114.908191 
L 268.353479 -115.683775 
L 267.554906 -116.339682 
L 266.756333 -116.842436 
L 265.95776 -117.158561 
L 265.159187 -117.254905 
L 264.360614 -117.147066 
L 263.562041 -116.874702 
L 262.763468 -116.458627 
L 261.964895 -115.919655 
L 261.166321 -115.278599 
L 260.367748 -114.556273 
L 259.569175 -113.773492 
L 258.770602 -112.951068 
L 257.972029 -112.109817 
L 257.173456 -111.270551 
L 256.374883 -110.454085 
L 255.57631 -109.681233 
L 254.777737 -108.972809 
L 253.979164 -108.349625 
L 253.180591 -107.830761 
L 252.382018 -107.337374 
L 251.583445 -106.823369 
L 250.784872 -106.296887 
L 249.986299 -105.766071 
L 249.187726 -105.239061 
L 248.389153 -104.724001 
L 247.59058 -104.22903 
L 246.792007 -103.762292 
L 245.993434 -103.331927 
L 245.194861 -102.946078 
L 244.396288 -102.612885 
L 243.597715 -102.340491 
L 242.799142 -102.137038 
L 242.000569 -102.010667 
L 241.201996 -101.968224 
L 240.403423 -101.972295 
L 239.60485 -101.999823 
L 238.806277 -102.047222 
L 238.007704 -102.110906 
L 237.209131 -102.187292 
L 236.410558 -102.272792 
L 235.611985 -102.363822 
L 234.813412 -102.456797 
L 234.014838 -102.548131 
L 233.216265 -102.634239 
L 232.417692 -102.711536 
L 231.619119 -102.776436 
L 230.820546 -102.825355 
L 230.021973 -102.854706 
L 229.2234 -102.865555 
L 228.424827 -102.953223 
L 227.626254 -103.144183 
L 226.827681 -103.421844 
L 226.029108 -103.769611 
L 225.230535 -104.170891 
L 224.431962 -104.609091 
L 223.633389 -105.067618 
L 222.834816 -105.529879 
L 222.036243 -105.979279 
L 221.23767 -106.399227 
L 220.439097 -106.773128 
L 219.640524 -107.08439 
L 218.841951 -107.316419 
L 218.043378 -107.452622 
L 217.244805 -107.479805 
L 216.446232 -107.44168 
L 215.647659 -107.361891 
L 214.849086 -107.247509 
L 214.050513 -107.105602 
L 213.25194 -106.943239 
L 212.453367 -106.767491 
L 211.654794 -106.585426 
L 210.856221 -106.404113 
L 210.057648 -106.230621 
L 209.259075 -106.07202 
L 208.460502 -105.93538 
L 207.661929 -105.827768 
L 206.863356 -105.756255 
L 206.064782 -105.727909 
L 205.266209 -105.755018 
L 204.467636 -105.899883 
L 203.669063 -106.166983 
L 202.87049 -106.541242 
L 202.071917 -107.007584 
L 201.273344 -107.550934 
L 200.474771 -108.156217 
L 199.676198 -108.808357 
L 198.877625 -109.49228 
L 198.079052 -110.192909 
L 197.280479 -110.89517 
L 196.481906 -111.583987 
L 195.683333 -112.244285 
L 194.88476 -112.860988 
L 194.086187 -113.419022 
L 193.287614 -113.924326 
L 192.489041 -114.551388 
L 191.690468 -115.318495 
L 190.891895 -116.195759 
L 190.093322 -117.153291 
L 189.294749 -118.161205 
L 188.496176 -119.189611 
L 187.697603 -120.208623 
L 186.89903 -121.188351 
L 186.100457 -122.098908 
L 185.301884 -122.910407 
L 184.503311 -123.592959 
L 183.704738 -124.116675 
L 182.906165 -124.45167 
L 182.107592 -124.568053 
L 181.309019 -124.430196 
L 180.510446 -123.992357 
L 179.711873 -123.287978 
L 178.913299 -122.362899 
L 178.114726 -121.262958 
L 177.316153 -120.033993 
L 176.51758 -118.721843 
L 175.719007 -117.372346 
L 174.920434 -116.03134 
L 174.121861 -114.744664 
L 173.323288 -113.558156 
L 172.524715 -112.517655 
L 171.726142 -111.668999 
L 170.927569 -111.058027 
L 170.128996 -110.730577 
L 169.330423 -110.704934 
L 168.53185 -110.837884 
L 167.733277 -111.087056 
L 166.934704 -111.434994 
L 166.136131 -111.864244 
L 165.337558 -112.35735 
L 164.538985 -112.896857 
L 163.740412 -113.465309 
L 162.941839 -114.045251 
L 162.143266 -114.619228 
L 161.344693 -115.169785 
L 160.54612 -115.679466 
L 159.747547 -116.130816 
L 158.948974 -116.50638 
L 158.150401 -116.788702 
L 157.351828 -116.899188 
L 156.553255 -116.552922 
L 155.754682 -115.775256 
L 154.956109 -114.635396 
L 154.157536 -113.202546 
L 153.358963 -111.54591 
L 152.56039 -109.734695 
L 151.761816 -107.838103 
L 150.963243 -105.92534 
L 150.16467 -104.065612 
L 149.366097 -102.328122 
L 148.567524 -100.782075 
L 147.768951 -99.496677 
L 146.970378 -98.541131 
L 146.171805 -97.984644 
L 145.373232 -97.792385 
L 144.574659 -97.580345 
L 143.776086 -97.313278 
L 142.977513 -97.00058 
L 142.17894 -96.651646 
L 141.380367 -96.275872 
L 140.581794 -95.882653 
L 139.783221 -95.481387 
L 138.984648 -95.081468 
L 138.186075 -94.692293 
L 137.387502 -94.323257 
L 136.588929 -93.983755 
L 135.790356 -93.683185 
L 134.991783 -93.430941 
L 134.19321 -93.236419 
L 133.394637 -93.022679 
L 132.596064 -92.518285 
L 131.797491 -91.743217 
L 130.998918 -90.743225 
L 130.200345 -89.564063 
L 129.401772 -88.251484 
L 128.603199 -86.85124 
L 127.804626 -85.409083 
L 127.006053 -83.970766 
L 126.20748 -82.582042 
L 125.408907 -81.288664 
L 124.610333 -80.136383 
L 123.81176 -79.170952 
L 123.013187 -78.438124 
L 122.214614 -77.983652 
L 121.416041 -77.756366 
L 120.617468 -77.503129 
L 119.818895 -77.215059 
L 119.020322 -76.900512 
L 118.221749 -76.567845 
L 117.423176 -76.225415 
L 116.624603 -75.88158 
L 115.82603 -75.544697 
L 115.027457 -75.223122 
L 114.228884 -74.925212 
L 113.430311 -74.659326 
L 112.631738 -74.433819 
L 111.833165 -74.257049 
L 111.034592 -74.137373 
L 110.236019 -74.083149 
L 109.437446 -74.282875 
L 108.638873 -75.130232 
L 107.8403 -76.546913 
L 107.041727 -78.433473 
L 106.243154 -80.690467 
L 105.444581 -83.21845 
L 104.646008 -85.917975 
L 103.847435 -88.689599 
L 103.048862 -91.433875 
L 102.250289 -94.051358 
L 101.451716 -96.442603 
L 100.653143 -98.508165 
L 99.85457 -100.148598 
L 99.055997 -101.264457 
L 98.257424 -101.756297 
L 97.458851 -101.536627 
L 96.660277 -100.638484 
L 95.861704 -99.16151 
L 95.063131 -97.205934 
L 94.264558 -94.871982 
L 93.465985 -92.259883 
L 92.667412 -89.469863 
L 91.868839 -86.602151 
L 91.070266 -83.756973 
L 90.271693 -81.034559 
L 89.47312 -78.535134 
L 88.674547 -76.358926 
L 87.875974 -74.606164 
L 87.077401 -73.377074 
L 86.278828 -72.771884 
L 85.480255 -72.629658 
L 84.681682 -72.53706 
L 83.883109 -72.481543 
L 83.084536 -72.458301 
L 82.285963 -72.462524 
L 81.48739 -72.489407 
L 80.688817 -72.534141 
L 79.890244 -72.591918 
L 79.091671 -72.657932 
L 78.293098 -72.727375 
L 77.494525 -72.795438 
L 76.695952 -72.857315 
L 75.897379 -72.908199 
L 75.098806 -72.94328 
L 74.300233 -72.957753 
L 73.50166 -72.894602 
L 72.703087 -72.688959 
L 71.904514 -72.361912 
L 71.105941 -71.935238 
L 70.307368 -71.430713 
L 69.508794 -70.870113 
L 68.710221 -70.275215 
L 67.911648 -69.667795 
L 67.113075 -69.069631 
L 66.314502 -68.502498 
L 65.515929 -67.988173 
L 64.717356 -67.548433 
L 63.918783 -67.205054 
L 63.12021 -66.979812 
L 62.321637 -66.894484 
L 61.523064 -66.904372 
L 60.724491 -66.941015 
L 59.925918 -67.010896 
L 59.127345 -67.120672 
L 58.328772 -67.277002 
L 57.530199 -67.486545 
L 56.731626 -67.755961 
L 55.933053 -68.091907 
L 55.13448 -68.501043 
L 54.335907 -68.990026 
L 53.537334 -69.565517 
L 52.738761 -70.234173 
L 51.940188 -71.002654 
L 51.141615 -71.877618 
L 50.343042 -72.865723 
z
" style="stroke: #2ca02c; stroke-opacity: 0.7"/>
    </defs>
    <g clip-path="url(#p4076851cd5)">
     <use xlink:href="#m211a5a7f7d" x="0" y="217.533125" style="fill: #2ca02c; fill-opacity: 0.7; stroke: #2ca02c; stroke-opacity: 0.7"/>
    </g>
   </g>
   <g id="FillBetweenPolyCollection_4">
    <defs>
     <path id="mf8370e67b6" d="M 50.343042 -80.558243 
L 50.343042 -72.865723 
L 51.141615 -71.877618 
L 51.940188 -71.002654 
L 52.738761 -70.234173 
L 53.537334 -69.565517 
L 54.335907 -68.990026 
L 55.13448 -68.501043 
L 55.933053 -68.091907 
L 56.731626 -67.755961 
L 57.530199 -67.486545 
L 58.328772 -67.277002 
L 59.127345 -67.120672 
L 59.925918 -67.010896 
L 60.724491 -66.941015 
L 61.523064 -66.904372 
L 62.321637 -66.894484 
L 63.12021 -66.979812 
L 63.918783 -67.205054 
L 64.717356 -67.548433 
L 65.515929 -67.988173 
L 66.314502 -68.502498 
L 67.113075 -69.069631 
L 67.911648 -69.667795 
L 68.710221 -70.275215 
L 69.508794 -70.870113 
L 70.307368 -71.430713 
L 71.105941 -71.935238 
L 71.904514 -72.361912 
L 72.703087 -72.688959 
L 73.50166 -72.894602 
L 74.300233 -72.957753 
L 75.098806 -72.94328 
L 75.897379 -72.908199 
L 76.695952 -72.857315 
L 77.494525 -72.795438 
L 78.293098 -72.727375 
L 79.091671 -72.657932 
L 79.890244 -72.591918 
L 80.688817 -72.534141 
L 81.48739 -72.489407 
L 82.285963 -72.462524 
L 83.084536 -72.458301 
L 83.883109 -72.481543 
L 84.681682 -72.53706 
L 85.480255 -72.629658 
L 86.278828 -72.771884 
L 87.077401 -73.377074 
L 87.875974 -74.606164 
L 88.674547 -76.358926 
L 89.47312 -78.535134 
L 90.271693 -81.034559 
L 91.070266 -83.756973 
L 91.868839 -86.602151 
L 92.667412 -89.469863 
L 93.465985 -92.259883 
L 94.264558 -94.871982 
L 95.063131 -97.205934 
L 95.861704 -99.16151 
L 96.660277 -100.638484 
L 97.458851 -101.536627 
L 98.257424 -101.756297 
L 99.055997 -101.264457 
L 99.85457 -100.148598 
L 100.653143 -98.508165 
L 101.451716 -96.442603 
L 102.250289 -94.051358 
L 103.048862 -91.433875 
L 103.847435 -88.689599 
L 104.646008 -85.917975 
L 105.444581 -83.21845 
L 106.243154 -80.690467 
L 107.041727 -78.433473 
L 107.8403 -76.546913 
L 108.638873 -75.130232 
L 109.437446 -74.282875 
L 110.236019 -74.083149 
L 111.034592 -74.137373 
L 111.833165 -74.257049 
L 112.631738 -74.433819 
L 113.430311 -74.659326 
L 114.228884 -74.925212 
L 115.027457 -75.223122 
L 115.82603 -75.544697 
L 116.624603 -75.88158 
L 117.423176 -76.225415 
L 118.221749 -76.567845 
L 119.020322 -76.900512 
L 119.818895 -77.215059 
L 120.617468 -77.503129 
L 121.416041 -77.756366 
L 122.214614 -77.983652 
L 123.013187 -78.438124 
L 123.81176 -79.170952 
L 124.610333 -80.136383 
L 125.408907 -81.288664 
L 126.20748 -82.582042 
L 127.006053 -83.970766 
L 127.804626 -85.409083 
L 128.603199 -86.85124 
L 129.401772 -88.251484 
L 130.200345 -89.564063 
L 130.998918 -90.743225 
L 131.797491 -91.743217 
L 132.596064 -92.518285 
L 133.394637 -93.022679 
L 134.19321 -93.236419 
L 134.991783 -93.430941 
L 135.790356 -93.683185 
L 136.588929 -93.983755 
L 137.387502 -94.323257 
L 138.186075 -94.692293 
L 138.984648 -95.081468 
L 139.783221 -95.481387 
L 140.581794 -95.882653 
L 141.380367 -96.275872 
L 142.17894 -96.651646 
L 142.977513 -97.00058 
L 143.776086 -97.313278 
L 144.574659 -97.580345 
L 145.373232 -97.792385 
L 146.171805 -97.984644 
L 146.970378 -98.541131 
L 147.768951 -99.496677 
L 148.567524 -100.782075 
L 149.366097 -102.328122 
L 150.16467 -104.065612 
L 150.963243 -105.92534 
L 151.761816 -107.838103 
L 152.56039 -109.734695 
L 153.358963 -111.54591 
L 154.157536 -113.202546 
L 154.956109 -114.635396 
L 155.754682 -115.775256 
L 156.553255 -116.552922 
L 157.351828 -116.899188 
L 158.150401 -116.788702 
L 158.948974 -116.50638 
L 159.747547 -116.130816 
L 160.54612 -115.679466 
L 161.344693 -115.169785 
L 162.143266 -114.619228 
L 162.941839 -114.045251 
L 163.740412 -113.465309 
L 164.538985 -112.896857 
L 165.337558 -112.35735 
L 166.136131 -111.864244 
L 166.934704 -111.434994 
L 167.733277 -111.087056 
L 168.53185 -110.837884 
L 169.330423 -110.704934 
L 170.128996 -110.730577 
L 170.927569 -111.058027 
L 171.726142 -111.668999 
L 172.524715 -112.517655 
L 173.323288 -113.558156 
L 174.121861 -114.744664 
L 174.920434 -116.03134 
L 175.719007 -117.372346 
L 176.51758 -118.721843 
L 177.316153 -120.033993 
L 178.114726 -121.262958 
L 178.913299 -122.362899 
L 179.711873 -123.287978 
L 180.510446 -123.992357 
L 181.309019 -124.430196 
L 182.107592 -124.568053 
L 182.906165 -124.45167 
L 183.704738 -124.116675 
L 184.503311 -123.592959 
L 185.301884 -122.910407 
L 186.100457 -122.098908 
L 186.89903 -121.188351 
L 187.697603 -120.208623 
L 188.496176 -119.189611 
L 189.294749 -118.161205 
L 190.093322 -117.153291 
L 190.891895 -116.195759 
L 191.690468 -115.318495 
L 192.489041 -114.551388 
L 193.287614 -113.924326 
L 194.086187 -113.419022 
L 194.88476 -112.860988 
L 195.683333 -112.244285 
L 196.481906 -111.583987 
L 197.280479 -110.89517 
L 198.079052 -110.192909 
L 198.877625 -109.49228 
L 199.676198 -108.808357 
L 200.474771 -108.156217 
L 201.273344 -107.550934 
L 202.071917 -107.007584 
L 202.87049 -106.541242 
L 203.669063 -106.166983 
L 204.467636 -105.899883 
L 205.266209 -105.755018 
L 206.064782 -105.727909 
L 206.863356 -105.756255 
L 207.661929 -105.827768 
L 208.460502 -105.93538 
L 209.259075 -106.07202 
L 210.057648 -106.230621 
L 210.856221 -106.404113 
L 211.654794 -106.585426 
L 212.453367 -106.767491 
L 213.25194 -106.943239 
L 214.050513 -107.105602 
L 214.849086 -107.247509 
L 215.647659 -107.361891 
L 216.446232 -107.44168 
L 217.244805 -107.479805 
L 218.043378 -107.452622 
L 218.841951 -107.316419 
L 219.640524 -107.08439 
L 220.439097 -106.773128 
L 221.23767 -106.399227 
L 222.036243 -105.979279 
L 222.834816 -105.529879 
L 223.633389 -105.067618 
L 224.431962 -104.609091 
L 225.230535 -104.170891 
L 226.029108 -103.769611 
L 226.827681 -103.421844 
L 227.626254 -103.144183 
L 228.424827 -102.953223 
L 229.2234 -102.865555 
L 230.021973 -102.854706 
L 230.820546 -102.825355 
L 231.619119 -102.776436 
L 232.417692 -102.711536 
L 233.216265 -102.634239 
L 234.014838 -102.548131 
L 234.813412 -102.456797 
L 235.611985 -102.363822 
L 236.410558 -102.272792 
L 237.209131 -102.187292 
L 238.007704 -102.110906 
L 238.806277 -102.047222 
L 239.60485 -101.999823 
L 240.403423 -101.972295 
L 241.201996 -101.968224 
L 242.000569 -102.010667 
L 242.799142 -102.137038 
L 243.597715 -102.340491 
L 244.396288 -102.612885 
L 245.194861 -102.946078 
L 245.993434 -103.331927 
L 246.792007 -103.762292 
L 247.59058 -104.22903 
L 248.389153 -104.724001 
L 249.187726 -105.239061 
L 249.986299 -105.766071 
L 250.784872 -106.296887 
L 251.583445 -106.823369 
L 252.382018 -107.337374 
L 253.180591 -107.830761 
L 253.979164 -108.349625 
L 254.777737 -108.972809 
L 255.57631 -109.681233 
L 256.374883 -110.454085 
L 257.173456 -111.270551 
L 257.972029 -112.109817 
L 258.770602 -112.951068 
L 259.569175 -113.773492 
L 260.367748 -114.556273 
L 261.166321 -115.278599 
L 261.964895 -115.919655 
L 262.763468 -116.458627 
L 263.562041 -116.874702 
L 264.360614 -117.147066 
L 265.159187 -117.254905 
L 265.95776 -117.158561 
L 266.756333 -116.842436 
L 267.554906 -116.339682 
L 268.353479 -115.683775 
L 269.152052 -114.908191 
L 269.950625 -114.046407 
L 270.749198 -113.131898 
L 271.547771 -112.19814 
L 272.346344 -111.27861 
L 273.144917 -110.406783 
L 273.94349 -109.616135 
L 274.742063 -108.940143 
L 275.540636 -108.412281 
L 276.339209 -108.066028 
L 277.137782 -107.934858 
L 277.936355 -108.069592 
L 278.734928 -108.494188 
L 279.533501 -109.193962 
L 280.332074 -110.154164 
L 281.130647 -111.36004 
L 281.92922 -112.796842 
L 282.727793 -114.449816 
L 283.526366 -116.304212 
L 284.324939 -118.345278 
L 285.123512 -120.558263 
L 285.922085 -122.928416 
L 286.720658 -125.440986 
L 287.519231 -128.08122 
L 288.317804 -130.834368 
L 289.116378 -133.685679 
L 289.116378 -165.920274 
L 289.116378 -165.920274 
L 288.317804 -161.781041 
L 287.519231 -157.753313 
L 286.720658 -153.863116 
L 285.922085 -150.136476 
L 285.123512 -146.599418 
L 284.324939 -143.277967 
L 283.526366 -140.198149 
L 282.727793 -137.38599 
L 281.92922 -134.867516 
L 281.130647 -132.668751 
L 280.332074 -130.815721 
L 279.533501 -129.334452 
L 278.734928 -128.250969 
L 277.936355 -127.591299 
L 277.137782 -127.381187 
L 276.339209 -127.513627 
L 275.540636 -127.863422 
L 274.742063 -128.397046 
L 273.94349 -129.080969 
L 273.144917 -129.881665 
L 272.346344 -130.765606 
L 271.547771 -131.699264 
L 270.749198 -132.649111 
L 269.950625 -133.58162 
L 269.152052 -134.463262 
L 268.353479 -135.260511 
L 267.554906 -135.939837 
L 266.756333 -136.467714 
L 265.95776 -136.810614 
L 265.159187 -136.93575 
L 264.360614 -136.905711 
L 263.562041 -136.783912 
L 262.763468 -136.57945 
L 261.964895 -136.30142 
L 261.166321 -135.958916 
L 260.367748 -135.561035 
L 259.569175 -135.116872 
L 258.770602 -134.635521 
L 257.972029 -134.126077 
L 257.173456 -133.597637 
L 256.374883 -133.059296 
L 255.57631 -132.520148 
L 254.777737 -131.989288 
L 253.979164 -131.475813 
L 253.180591 -130.98804 
L 252.382018 -130.491548 
L 251.583445 -129.969735 
L 250.784872 -129.43084 
L 249.986299 -128.883103 
L 249.187726 -128.334764 
L 248.389153 -127.79406 
L 247.59058 -127.269233 
L 246.792007 -126.768521 
L 245.993434 -126.300164 
L 245.194861 -125.8724 
L 244.396288 -125.493469 
L 243.597715 -125.171612 
L 242.799142 -124.915066 
L 242.000569 -124.732071 
L 241.201996 -124.625643 
L 240.403423 -124.435392 
L 239.60485 -124.099993 
L 238.806277 -123.64338 
L 238.007704 -123.089489 
L 237.209131 -122.462255 
L 236.410558 -121.785612 
L 235.611985 -121.083496 
L 234.813412 -120.379842 
L 234.014838 -119.698584 
L 233.216265 -119.063658 
L 232.417692 -118.498998 
L 231.619119 -118.02854 
L 230.820546 -117.676218 
L 230.021973 -117.465967 
L 229.2234 -117.423979 
L 228.424827 -117.608501 
L 227.626254 -118.010432 
L 226.827681 -118.594847 
L 226.029108 -119.326821 
L 225.230535 -120.171428 
L 224.431962 -121.093744 
L 223.633389 -122.058844 
L 222.834816 -123.031802 
L 222.036243 -123.977692 
L 221.23767 -124.861591 
L 220.439097 -125.648572 
L 219.640524 -126.303711 
L 218.841951 -126.792081 
L 218.043378 -127.078759 
L 217.244805 -127.131054 
L 216.446232 -126.967443 
L 215.647659 -126.624249 
L 214.849086 -126.130877 
L 214.050513 -125.516732 
L 213.25194 -124.811217 
L 212.453367 -124.043737 
L 211.654794 -123.243697 
L 210.856221 -122.440501 
L 210.057648 -121.663552 
L 209.259075 -120.942256 
L 208.460502 -120.306016 
L 207.661929 -119.784238 
L 206.863356 -119.406324 
L 206.064782 -119.20168 
L 205.266209 -119.197859 
L 204.467636 -119.386988 
L 203.669063 -119.74531 
L 202.87049 -120.251912 
L 202.071917 -120.885878 
L 201.273344 -121.626296 
L 200.474771 -122.452249 
L 199.676198 -123.342824 
L 198.877625 -124.277107 
L 198.079052 -125.234183 
L 197.280479 -126.193138 
L 196.481906 -127.133057 
L 195.683333 -128.033027 
L 194.88476 -128.872132 
L 194.086187 -129.629459 
L 193.287614 -130.306482 
L 192.489041 -131.087355 
L 191.690468 -131.995719 
L 190.891895 -133.004469 
L 190.093322 -134.0865 
L 189.294749 -135.214708 
L 188.496176 -136.361989 
L 187.697603 -137.501237 
L 186.89903 -138.605348 
L 186.100457 -139.647218 
L 185.301884 -140.599741 
L 184.503311 -141.435813 
L 183.704738 -142.12833 
L 182.906165 -142.650187 
L 182.107592 -142.974278 
L 181.309019 -143.080489 
L 180.510446 -143.010883 
L 179.711873 -142.796431 
L 178.913299 -142.460192 
L 178.114726 -142.025226 
L 177.316153 -141.514592 
L 176.51758 -140.951349 
L 175.719007 -140.358558 
L 174.920434 -139.759277 
L 174.121861 -139.176567 
L 173.323288 -138.633486 
L 172.524715 -138.153095 
L 171.726142 -137.758452 
L 170.927569 -137.472617 
L 170.128996 -137.318651 
L 169.330423 -137.274366 
L 168.53185 -137.091946 
L 167.733277 -136.750734 
L 166.934704 -136.275382 
L 166.136131 -135.690546 
L 165.337558 -135.02088 
L 164.538985 -134.291037 
L 163.740412 -133.525672 
L 162.941839 -132.74944 
L 162.143266 -131.986993 
L 161.344693 -131.262986 
L 160.54612 -130.602075 
L 159.747547 -130.028911 
L 158.948974 -129.568151 
L 158.150401 -129.244447 
L 157.351828 -128.982243 
L 156.553255 -128.326892 
L 155.754682 -127.274468 
L 154.956109 -125.889476 
L 154.157536 -124.23642 
L 153.358963 -122.379803 
L 152.56039 -120.384129 
L 151.761816 -118.313901 
L 150.963243 -116.233624 
L 150.16467 -114.207801 
L 149.366097 -112.300937 
L 148.567524 -110.577534 
L 147.768951 -109.102097 
L 146.970378 -107.939129 
L 146.171805 -107.153135 
L 145.373232 -106.700073 
L 144.574659 -106.178897 
L 143.776086 -105.561808 
L 142.977513 -104.868045 
L 142.17894 -104.116846 
L 141.380367 -103.327449 
L 140.581794 -102.51909 
L 139.783221 -101.711009 
L 138.984648 -100.922442 
L 138.186075 -100.172627 
L 137.387502 -99.480803 
L 136.588929 -98.866207 
L 135.790356 -98.348076 
L 134.991783 -97.945649 
L 134.19321 -97.678163 
L 133.394637 -97.461135 
L 132.596064 -96.968237 
L 131.797491 -96.213734 
L 130.998918 -95.242489 
L 130.200345 -94.099363 
L 129.401772 -92.82922 
L 128.603199 -91.47692 
L 127.804626 -90.087328 
L 127.006053 -88.705303 
L 126.20748 -87.37571 
L 125.408907 -86.143409 
L 124.610333 -85.053264 
L 123.81176 -84.150136 
L 123.013187 -83.478888 
L 122.214614 -83.084381 
L 121.416041 -82.915053 
L 120.617468 -82.719137 
L 119.818895 -82.488629 
L 119.020322 -82.232701 
L 118.221749 -81.960525 
L 117.423176 -81.681271 
L 116.624603 -81.404113 
L 115.82603 -81.13822 
L 115.027457 -80.892766 
L 114.228884 -80.676921 
L 113.430311 -80.499858 
L 112.631738 -80.370746 
L 111.833165 -80.29876 
L 111.034592 -80.293069 
L 110.236019 -80.362845 
L 109.437446 -80.726043 
L 108.638873 -81.838136 
L 107.8403 -83.607314 
L 107.041727 -85.917259 
L 106.243154 -88.651655 
L 105.444581 -91.694183 
L 104.646008 -94.928529 
L 103.847435 -98.238373 
L 103.048862 -101.507401 
L 102.250289 -104.619293 
L 101.451716 -107.457734 
L 100.653143 -109.906407 
L 99.85457 -111.848994 
L 99.055997 -113.169179 
L 98.257424 -113.750645 
L 97.458851 -113.51377 
L 96.660277 -112.538811 
L 95.861704 -110.934124 
L 95.063131 -108.807265 
L 94.264558 -106.265788 
L 93.465985 -103.417247 
L 92.667412 -100.369199 
L 91.868839 -97.229196 
L 91.070266 -94.104796 
L 90.271693 -91.103551 
L 89.47312 -88.333018 
L 88.674547 -85.90075 
L 87.875974 -83.914304 
L 87.077401 -82.481232 
L 86.278828 -81.709091 
L 85.480255 -81.42551 
L 84.681682 -81.188799 
L 83.883109 -80.987756 
L 83.084536 -80.81948 
L 82.285963 -80.681072 
L 81.48739 -80.56963 
L 80.688817 -80.482255 
L 79.890244 -80.416046 
L 79.091671 -80.368104 
L 78.293098 -80.335528 
L 77.494525 -80.315418 
L 76.695952 -80.304874 
L 75.897379 -80.300995 
L 75.098806 -80.300882 
L 74.300233 -80.301634 
L 73.50166 -80.377503 
L 72.703087 -80.62402 
L 71.904514 -81.016072 
L 71.105941 -81.527554 
L 70.307368 -82.132361 
L 69.508794 -82.804388 
L 68.710221 -83.51753 
L 67.911648 -84.245683 
L 67.113075 -84.962741 
L 66.314502 -85.642599 
L 65.515929 -86.259154 
L 64.717356 -86.786298 
L 63.918783 -87.197929 
L 63.12021 -87.467941 
L 62.321637 -87.570229 
L 61.523064 -87.528794 
L 60.724491 -87.398891 
L 59.925918 -87.186992 
L 59.127345 -86.899441 
L 58.328772 -86.542584 
L 57.530199 -86.122768 
L 56.731626 -85.646337 
L 55.933053 -85.119637 
L 55.13448 -84.549014 
L 54.335907 -83.940813 
L 53.537334 -83.301381 
L 52.738761 -82.637062 
L 51.940188 -81.954202 
L 51.141615 -81.259147 
L 50.343042 -80.558243 
z
" style="stroke: #ff7f0e; stroke-opacity: 0.7"/>
    </defs>
    <g clip-path="url(#p4076851cd5)">
     <use xlink:href="#mf8370e67b6" x="0" y="217.533125" style="fill: #ff7f0e; fill-opacity: 0.7; stroke: #ff7f0e; stroke-opacity: 0.7"/>
    </g>
   </g>
   <g id="patch_3">
    <path d="M 38.404375 183.13 
L 38.404375 9.45 
" style="fill: none; stroke: #000000; stroke-width: 0.5; stroke-linejoin: miter; stroke-linecap: square"/>
   </g>
   <g id="patch_4">
    <path d="M 38.404375 183.13 
L 301.055044 183.13 
" style="fill: none; stroke: #000000; stroke-width: 0.5; stroke-linejoin: miter; stroke-linecap: square"/>
   </g>
   <g id="legend_1">
    <g id="patch_5">
     <path d="M 47.404375 25.95 
L 67.404375 25.95 
L 67.404375 18.95 
L 47.404375 18.95 
z
" style="fill: #d62728; fill-opacity: 0.7; stroke: #d62728; stroke-opacity: 0.7; stroke-linejoin: miter"/>
    </g>
    <g id="text_16">
     <!-- Solo -->
     <g transform="translate(75.404375 25.95) scale(0.1 -0.1)">
      <defs>
       <path id="RobotoCondensed-Regular-53" d="M 2481 1150 
Q 2481 1469 2312 1656 
Q 2144 1844 1591 2042 
Q 1038 2241 713 2547 
Q 388 2853 388 3375 
Q 388 3906 741 4259 
Q 1094 4613 1691 4613 
Q 2356 4613 2706 4191 
Q 3056 3769 3056 3238 
L 2481 3238 
Q 2481 3619 2293 3869 
Q 2106 4119 1691 4119 
Q 1313 4119 1139 3908 
Q 966 3697 966 3381 
Q 966 3094 1170 2903 
Q 1375 2713 1806 2556 
Q 2475 2338 2765 2013 
Q 3056 1688 3056 1156 
Q 3056 600 2695 268 
Q 2334 -63 1719 -63 
Q 1363 -63 1028 93 
Q 694 250 480 558 
Q 266 866 266 1319 
L 841 1319 
Q 841 853 1098 640 
Q 1356 428 1719 428 
Q 2094 428 2287 623 
Q 2481 819 2481 1150 
z
" transform="scale(0.015625)"/>
       <path id="RobotoCondensed-Regular-6c" d="M 1009 4800 
L 1009 0 
L 459 0 
L 459 4800 
L 1009 4800 
z
" transform="scale(0.015625)"/>
      </defs>
      <use xlink:href="#RobotoCondensed-Regular-53"/>
      <use xlink:href="#RobotoCondensed-Regular-6f" transform="translate(51.855469 0)"/>
      <use xlink:href="#RobotoCondensed-Regular-6c" transform="translate(102.050781 0)"/>
      <use xlink:href="#RobotoCondensed-Regular-6f" transform="translate(125 0)"/>
     </g>
    </g>
    <g id="patch_6">
     <path d="M 47.404375 40.48125 
L 67.404375 40.48125 
L 67.404375 33.48125 
L 47.404375 33.48125 
z
" style="fill: #1f77b4; fill-opacity: 0.7; stroke: #1f77b4; stroke-opacity: 0.7; stroke-linejoin: miter"/>
    </g>
    <g id="text_17">
     <!-- Initial -->
     <g transform="translate(75.404375 40.48125) scale(0.1 -0.1)">
      <defs>
       <path id="RobotoCondensed-Regular-49" d="M 1091 4550 
L 1091 0 
L 516 0 
L 516 4550 
L 1091 4550 
z
" transform="scale(0.015625)"/>
      </defs>
      <use xlink:href="#RobotoCondensed-Regular-49"/>
      <use xlink:href="#RobotoCondensed-Regular-6e" transform="translate(25 0)"/>
      <use xlink:href="#RobotoCondensed-Regular-69" transform="translate(73.4375 0)"/>
      <use xlink:href="#RobotoCondensed-Regular-74" transform="translate(96.386719 0)"/>
      <use xlink:href="#RobotoCondensed-Regular-69" transform="translate(125.976562 0)"/>
      <use xlink:href="#RobotoCondensed-Regular-61" transform="translate(148.925781 0)"/>
      <use xlink:href="#RobotoCondensed-Regular-6c" transform="translate(196.826172 0)"/>
     </g>
    </g>
    <g id="patch_7">
     <path d="M 47.404375 55.0125 
L 67.404375 55.0125 
L 67.404375 48.0125 
L 47.404375 48.0125 
z
" style="fill: #2ca02c; fill-opacity: 0.7; stroke: #2ca02c; stroke-opacity: 0.7; stroke-linejoin: miter"/>
    </g>
    <g id="text_18">
     <!-- Middle -->
     <g transform="translate(75.404375 55.0125) scale(0.1 -0.1)">
      <defs>
       <path id="RobotoCondensed-Regular-4d" d="M 2419 841 
L 3606 4550 
L 4341 4550 
L 4341 0 
L 3769 0 
L 3769 1775 
L 3822 3538 
L 2634 0 
L 2197 0 
L 1009 3544 
L 1063 1775 
L 1063 0 
L 491 0 
L 491 4550 
L 1228 4550 
L 2419 841 
z
" transform="scale(0.015625)"/>
       <path id="RobotoCondensed-Regular-64" d="M 2234 0 
L 2209 366 
Q 1941 -63 1425 -63 
Q 925 -63 611 331 
Q 297 725 297 1528 
L 297 1844 
Q 297 2678 609 3061 
Q 922 3444 1431 3444 
Q 1922 3444 2188 3050 
L 2188 4800 
L 2738 4800 
L 2738 0 
L 2234 0 
z
M 850 1528 
Q 850 963 1019 695 
Q 1188 428 1569 428 
Q 1981 428 2188 847 
L 2188 2544 
Q 1972 2956 1575 2956 
Q 1194 2956 1023 2687 
Q 853 2419 850 1866 
L 850 1528 
z
" transform="scale(0.015625)"/>
      </defs>
      <use xlink:href="#RobotoCondensed-Regular-4d"/>
      <use xlink:href="#RobotoCondensed-Regular-69" transform="translate(75.537109 0)"/>
      <use xlink:href="#RobotoCondensed-Regular-64" transform="translate(98.486328 0)"/>
      <use xlink:href="#RobotoCondensed-Regular-64" transform="translate(148.095703 0)"/>
      <use xlink:href="#RobotoCondensed-Regular-6c" transform="translate(197.705078 0)"/>
      <use xlink:href="#RobotoCondensed-Regular-65" transform="translate(220.654297 0)"/>
     </g>
    </g>
    <g id="patch_8">
     <path d="M 47.404375 69.54375 
L 67.404375 69.54375 
L 67.404375 62.54375 
L 47.404375 62.54375 
z
" style="fill: #ff7f0e; fill-opacity: 0.7; stroke: #ff7f0e; stroke-opacity: 0.7; stroke-linejoin: miter"/>
    </g>
    <g id="text_19">
     <!-- End -->
     <g transform="translate(75.404375 69.54375) scale(0.1 -0.1)">
      <defs>
       <path id="RobotoCondensed-Regular-45" d="M 491 0 
L 491 4550 
L 2906 4550 
L 2906 4056 
L 1066 4056 
L 1066 2594 
L 2672 2594 
L 2672 2103 
L 1066 2103 
L 1066 491 
L 2938 491 
L 2938 0 
L 491 0 
z
" transform="scale(0.015625)"/>
      </defs>
      <use xlink:href="#RobotoCondensed-Regular-45"/>
      <use xlink:href="#RobotoCondensed-Regular-6e" transform="translate(49.707031 0)"/>
      <use xlink:href="#RobotoCondensed-Regular-64" transform="translate(98.144531 0)"/>
     </g>
    </g>
   </g>
  </g>
 </g>
 <defs>
  <clipPath id="p4076851cd5">
   <rect x="38.404375" y="9.45" width="262.650669" height="173.68"/>
  </clipPath>
 </defs>
</svg>
