<?xml version="1.0" encoding="utf-8" standalone="no"?>
<!DOCTYPE svg PUBLIC "-//W3C//DTD SVG 1.1//EN"
  "http://www.w3.org/Graphics/SVG/1.1/DTD/svg11.dtd">
<svg xmlns:xlink="http://www.w3.org/1999/xlink" width="314.133169pt" height="217.533125pt" viewBox="0 0 314.133169 217.533125" xmlns="http://www.w3.org/2000/svg" version="1.1">
 <metadata>
  <rdf:RDF xmlns:dc="http://purl.org/dc/elements/1.1/" xmlns:cc="http://creativecommons.org/ns#" xmlns:rdf="http://www.w3.org/1999/02/22-rdf-syntax-ns#">
   <cc:Work>
    <dc:type rdf:resource="http://purl.org/dc/dcmitype/StillImage"/>
    <dc:date>2026-04-28T10:28:06.033133</dc:date>
    <dc:format>image/svg+xml</dc:format>
    <dc:creator>
     <cc:Agent>
      <dc:title>Matplotlib v3.10.7, https://matplotlib.org/</dc:title>
     </cc:Agent>
    </dc:creator>
   </cc:Work>
  </rdf:RDF>
 </metadata>
 <defs>
  <style type="text/css">*{stroke-linejoin: round; stroke-linecap: butt}</style>
 </defs>
 <g id="figure_1">
  <g id="patch_1">
   <path d="M -0 217.533125 
L 314.133169 217.533125 
L 314.133169 -0 
L -0 -0 
z
" style="fill: #ffffff"/>
  </g>
  <g id="axes_1">
   <g id="patch_2">
    <path d="M 38.404375 183.13 
L 301.010044 183.13 
L 301.010044 9.45 
L 38.404375 9.45 
z
" style="fill: #ffffff"/>
   </g>
   <g id="matplotlib.axis_1">
    <g id="xtick_1">
     <g id="line2d_1">
      <defs>
       <path id="mfcc6b6f489" d="M 0 0 
L 0 3.5 
" style="stroke: #000000; stroke-width: 0.8"/>
      </defs>
      <g>
       <use xlink:href="#mfcc6b6f489" x="50.340996" y="183.13" style="stroke: #000000; stroke-width: 0.8"/>
      </g>
     </g>
     <g id="text_1">
      <!-- 1989 -->
      <g transform="translate(44.417871 194.63) scale(0.06 -0.06)">
       <defs>
        <path id="RobotoCondensed-Regular-31" d="M 2013 4575 
L 2013 0 
L 1459 0 
L 1459 3853 
L 503 3428 
L 503 3950 
L 1928 4575 
L 2013 4575 
z
" transform="scale(0.015625)"/>
        <path id="RobotoCondensed-Regular-39" d="M 2744 2563 
Q 2744 2119 2687 1667 
Q 2631 1216 2450 836 
Q 2269 456 1903 225 
Q 1538 -6 869 -6 
L 866 484 
Q 1428 484 1698 690 
Q 1969 897 2072 1233 
Q 2175 1569 2191 1950 
Q 1859 1522 1413 1522 
Q 1025 1522 786 1747 
Q 547 1972 436 2320 
Q 325 2669 325 3041 
Q 325 3691 623 4152 
Q 922 4613 1522 4613 
Q 1969 4613 2237 4344 
Q 2506 4075 2625 3653 
Q 2744 3231 2744 2772 
L 2744 2563 
z
M 866 3072 
Q 866 2666 1020 2334 
Q 1175 2003 1506 2003 
Q 1716 2003 1906 2179 
Q 2097 2356 2194 2616 
L 2194 2850 
Q 2194 3472 1983 3803 
Q 1772 4134 1522 4134 
Q 1206 4134 1036 3829 
Q 866 3525 866 3072 
z
" transform="scale(0.015625)"/>
        <path id="RobotoCondensed-Regular-38" d="M 2794 1231 
Q 2794 606 2445 271 
Q 2097 -63 1578 -63 
Q 1063 -63 714 273 
Q 366 609 366 1231 
Q 366 1613 536 1905 
Q 706 2197 1000 2347 
Q 450 2666 450 3366 
Q 450 3963 769 4288 
Q 1088 4613 1581 4613 
Q 2075 4613 2392 4288 
Q 2709 3963 2709 3366 
Q 2709 3028 2557 2761 
Q 2406 2494 2150 2344 
Q 2444 2194 2619 1901 
Q 2794 1609 2794 1231 
z
M 2156 3356 
Q 2156 3697 2000 3917 
Q 1844 4138 1581 4138 
Q 1319 4138 1161 3927 
Q 1003 3716 1003 3356 
Q 1003 3003 1159 2790 
Q 1316 2578 1581 2578 
Q 1844 2578 2000 2790 
Q 2156 3003 2156 3356 
z
M 2244 1244 
Q 2244 1625 2061 1865 
Q 1878 2106 1575 2106 
Q 1266 2106 1091 1865 
Q 916 1625 916 1244 
Q 916 850 1089 631 
Q 1263 413 1578 413 
Q 1897 413 2070 631 
Q 2244 850 2244 1244 
z
" transform="scale(0.015625)"/>
       </defs>
       <use xlink:href="#RobotoCondensed-Regular-31"/>
       <use xlink:href="#RobotoCondensed-Regular-39" transform="translate(49.365234 0)"/>
       <use xlink:href="#RobotoCondensed-Regular-38" transform="translate(98.730469 0)"/>
       <use xlink:href="#RobotoCondensed-Regular-39" transform="translate(148.095703 0)"/>
      </g>
     </g>
    </g>
    <g id="xtick_2">
     <g id="line2d_2">
      <g>
       <use xlink:href="#mfcc6b6f489" x="86.15086" y="183.13" style="stroke: #000000; stroke-width: 0.8"/>
      </g>
     </g>
     <g id="text_2">
      <!-- 1992 -->
      <g transform="translate(80.227735 194.63) scale(0.06 -0.06)">
       <defs>
        <path id="RobotoCondensed-Regular-32" d="M 2909 475 
L 2909 0 
L 366 0 
L 366 416 
L 1628 2088 
Q 1966 2541 2077 2802 
Q 2188 3063 2188 3328 
Q 2188 3663 2027 3900 
Q 1866 4138 1575 4138 
Q 1194 4138 1022 3878 
Q 850 3619 850 3213 
L 297 3213 
Q 297 3788 617 4200 
Q 938 4613 1575 4613 
Q 2125 4613 2433 4278 
Q 2741 3944 2741 3397 
Q 2741 2997 2541 2594 
Q 2341 2191 2047 1809 
L 1028 475 
L 2909 475 
z
" transform="scale(0.015625)"/>
       </defs>
       <use xlink:href="#RobotoCondensed-Regular-31"/>
       <use xlink:href="#RobotoCondensed-Regular-39" transform="translate(49.365234 0)"/>
       <use xlink:href="#RobotoCondensed-Regular-39" transform="translate(98.730469 0)"/>
       <use xlink:href="#RobotoCondensed-Regular-32" transform="translate(148.095703 0)"/>
      </g>
     </g>
    </g>
    <g id="xtick_3">
     <g id="line2d_3">
      <g>
       <use xlink:href="#mfcc6b6f489" x="121.960724" y="183.13" style="stroke: #000000; stroke-width: 0.8"/>
      </g>
     </g>
     <g id="text_3">
      <!-- 1995 -->
      <g transform="translate(116.037599 194.63) scale(0.06 -0.06)">
       <defs>
        <path id="RobotoCondensed-Regular-35" d="M 1034 2166 
L 594 2284 
L 788 4550 
L 2769 4550 
L 2769 4016 
L 1253 4016 
L 1147 2778 
Q 1438 2975 1753 2975 
Q 2288 2975 2591 2561 
Q 2894 2147 2894 1450 
Q 2894 797 2584 367 
Q 2275 -63 1656 -63 
Q 1194 -63 850 248 
Q 506 559 453 1197 
L 975 1197 
Q 1066 413 1656 413 
Q 1978 413 2159 691 
Q 2341 969 2341 1444 
Q 2341 1872 2153 2164 
Q 1966 2456 1619 2456 
Q 1384 2456 1273 2378 
Q 1163 2300 1034 2166 
z
" transform="scale(0.015625)"/>
       </defs>
       <use xlink:href="#RobotoCondensed-Regular-31"/>
       <use xlink:href="#RobotoCondensed-Regular-39" transform="translate(49.365234 0)"/>
       <use xlink:href="#RobotoCondensed-Regular-39" transform="translate(98.730469 0)"/>
       <use xlink:href="#RobotoCondensed-Regular-35" transform="translate(148.095703 0)"/>
      </g>
     </g>
    </g>
    <g id="xtick_4">
     <g id="line2d_4">
      <g>
       <use xlink:href="#mfcc6b6f489" x="157.770588" y="183.13" style="stroke: #000000; stroke-width: 0.8"/>
      </g>
     </g>
     <g id="text_4">
      <!-- 1998 -->
      <g transform="translate(151.847463 194.63) scale(0.06 -0.06)">
       <use xlink:href="#RobotoCondensed-Regular-31"/>
       <use xlink:href="#RobotoCondensed-Regular-39" transform="translate(49.365234 0)"/>
       <use xlink:href="#RobotoCondensed-Regular-39" transform="translate(98.730469 0)"/>
       <use xlink:href="#RobotoCondensed-Regular-38" transform="translate(148.095703 0)"/>
      </g>
     </g>
    </g>
    <g id="xtick_5">
     <g id="line2d_5">
      <g>
       <use xlink:href="#mfcc6b6f489" x="193.580452" y="183.13" style="stroke: #000000; stroke-width: 0.8"/>
      </g>
     </g>
     <g id="text_5">
      <!-- 2001 -->
      <g transform="translate(187.657327 194.63) scale(0.06 -0.06)">
       <defs>
        <path id="RobotoCondensed-Regular-30" d="M 2797 1944 
Q 2797 825 2467 381 
Q 2138 -63 1581 -63 
Q 1038 -63 703 370 
Q 369 803 359 1878 
L 359 2638 
Q 359 3753 695 4183 
Q 1031 4613 1578 4613 
Q 2131 4613 2461 4189 
Q 2791 3766 2797 2681 
L 2797 1944 
z
M 2247 2734 
Q 2247 3503 2073 3822 
Q 1900 4141 1578 4141 
Q 1266 4141 1092 3833 
Q 919 3525 913 2791 
L 913 1850 
Q 913 1088 1089 750 
Q 1266 413 1581 413 
Q 1903 413 2072 738 
Q 2241 1063 2247 1794 
L 2247 2734 
z
" transform="scale(0.015625)"/>
       </defs>
       <use xlink:href="#RobotoCondensed-Regular-32"/>
       <use xlink:href="#RobotoCondensed-Regular-30" transform="translate(49.365234 0)"/>
       <use xlink:href="#RobotoCondensed-Regular-30" transform="translate(98.730469 0)"/>
       <use xlink:href="#RobotoCondensed-Regular-31" transform="translate(148.095703 0)"/>
      </g>
     </g>
    </g>
    <g id="xtick_6">
     <g id="line2d_6">
      <g>
       <use xlink:href="#mfcc6b6f489" x="229.390316" y="183.13" style="stroke: #000000; stroke-width: 0.8"/>
      </g>
     </g>
     <g id="text_6">
      <!-- 2004 -->
      <g transform="translate(223.467191 194.63) scale(0.06 -0.06)">
       <defs>
        <path id="RobotoCondensed-Regular-34" d="M 188 1397 
L 1878 4550 
L 2463 4550 
L 2463 1531 
L 2969 1531 
L 2969 1056 
L 2463 1056 
L 2463 0 
L 1909 0 
L 1909 1056 
L 188 1056 
L 188 1397 
z
M 803 1531 
L 1909 1531 
L 1909 3703 
L 1878 3638 
L 803 1531 
z
" transform="scale(0.015625)"/>
       </defs>
       <use xlink:href="#RobotoCondensed-Regular-32"/>
       <use xlink:href="#RobotoCondensed-Regular-30" transform="translate(49.365234 0)"/>
       <use xlink:href="#RobotoCondensed-Regular-30" transform="translate(98.730469 0)"/>
       <use xlink:href="#RobotoCondensed-Regular-34" transform="translate(148.095703 0)"/>
      </g>
     </g>
    </g>
    <g id="xtick_7">
     <g id="line2d_7">
      <g>
       <use xlink:href="#mfcc6b6f489" x="265.20018" y="183.13" style="stroke: #000000; stroke-width: 0.8"/>
      </g>
     </g>
     <g id="text_7">
      <!-- 2007 -->
      <g transform="translate(259.277055 194.63) scale(0.06 -0.06)">
       <defs>
        <path id="RobotoCondensed-Regular-37" d="M 2878 4550 
L 2878 4225 
L 1313 0 
L 731 0 
L 2297 4075 
L 269 4075 
L 269 4550 
L 2878 4550 
z
" transform="scale(0.015625)"/>
       </defs>
       <use xlink:href="#RobotoCondensed-Regular-32"/>
       <use xlink:href="#RobotoCondensed-Regular-30" transform="translate(49.365234 0)"/>
       <use xlink:href="#RobotoCondensed-Regular-30" transform="translate(98.730469 0)"/>
       <use xlink:href="#RobotoCondensed-Regular-37" transform="translate(148.095703 0)"/>
      </g>
     </g>
    </g>
    <g id="xtick_8">
     <g id="line2d_8">
      <g>
       <use xlink:href="#mfcc6b6f489" x="301.010044" y="183.13" style="stroke: #000000; stroke-width: 0.8"/>
      </g>
     </g>
     <g id="text_8">
      <!-- 2010 -->
      <g transform="translate(295.086919 194.63) scale(0.06 -0.06)">
       <use xlink:href="#RobotoCondensed-Regular-32"/>
       <use xlink:href="#RobotoCondensed-Regular-30" transform="translate(49.365234 0)"/>
       <use xlink:href="#RobotoCondensed-Regular-31" transform="translate(98.730469 0)"/>
       <use xlink:href="#RobotoCondensed-Regular-30" transform="translate(148.095703 0)"/>
      </g>
     </g>
    </g>
    <g id="text_9">
     <!-- Year -->
     <g transform="translate(159.931819 208.09875) scale(0.11 -0.11)">
      <defs>
       <path id="RobotoCondensed-Regular-59" d="M 747 4550 
L 1675 2266 
L 2606 4550 
L 3256 4550 
L 1963 1700 
L 1963 0 
L 1388 0 
L 1388 1700 
L 94 4550 
L 747 4550 
z
" transform="scale(0.015625)"/>
       <path id="RobotoCondensed-Regular-65" d="M 2722 447 
Q 2584 253 2323 95 
Q 2063 -63 1625 -63 
Q 1019 -63 666 301 
Q 313 666 309 1431 
L 309 1828 
Q 309 2722 696 3083 
Q 1084 3444 1563 3444 
Q 2197 3444 2472 3034 
Q 2747 2625 2747 1850 
L 2747 1528 
L 863 1528 
L 863 1447 
Q 863 906 1067 657 
Q 1272 409 1656 409 
Q 1934 409 2114 517 
Q 2294 625 2431 794 
L 2722 447 
z
M 1563 2969 
Q 1275 2969 1084 2770 
Q 894 2572 866 2000 
L 2194 2000 
L 2194 2078 
Q 2172 2469 2048 2719 
Q 1925 2969 1563 2969 
z
" transform="scale(0.015625)"/>
       <path id="RobotoCondensed-Regular-61" d="M 2156 0 
Q 2103 122 2081 366 
Q 1966 194 1775 65 
Q 1584 -63 1334 -63 
Q 891 -63 623 187 
Q 356 438 356 922 
Q 356 1409 690 1729 
Q 1025 2050 1691 2050 
L 2072 2050 
L 2072 2413 
Q 2072 2713 1936 2841 
Q 1800 2969 1528 2969 
Q 1263 2969 1114 2812 
Q 966 2656 966 2444 
L 413 2444 
Q 413 2806 722 3125 
Q 1031 3444 1556 3444 
Q 2025 3444 2325 3209 
Q 2625 2975 2625 2406 
L 2625 794 
Q 2625 316 2728 50 
L 2728 0 
L 2156 0 
z
M 1419 441 
Q 1653 441 1825 562 
Q 1997 684 2072 834 
L 2072 1644 
L 1781 1644 
Q 1384 1644 1146 1475 
Q 909 1306 909 991 
Q 909 688 1036 564 
Q 1163 441 1419 441 
z
" transform="scale(0.015625)"/>
       <path id="RobotoCondensed-Regular-72" d="M 1563 2888 
Q 1138 2888 969 2425 
L 969 0 
L 416 0 
L 416 3381 
L 950 3381 
L 963 3041 
Q 1184 3444 1591 3444 
Q 1738 3444 1809 3400 
L 1813 2863 
Q 1691 2888 1563 2888 
z
" transform="scale(0.015625)"/>
      </defs>
      <use xlink:href="#RobotoCondensed-Regular-59"/>
      <use xlink:href="#RobotoCondensed-Regular-65" transform="translate(52.490234 0)"/>
      <use xlink:href="#RobotoCondensed-Regular-61" transform="translate(99.365234 0)"/>
      <use xlink:href="#RobotoCondensed-Regular-72" transform="translate(147.265625 0)"/>
     </g>
    </g>
   </g>
   <g id="matplotlib.axis_2">
    <g id="ytick_1">
     <g id="line2d_9">
      <path d="M 38.404375 183.13 
L 301.010044 183.13 
" clip-path="url(#pb8ca311374)" style="fill: none; stroke: #808080; stroke-opacity: 0.3; stroke-width: 0.5; stroke-linecap: square"/>
     </g>
     <g id="line2d_10">
      <defs>
       <path id="m896dea59fb" d="M 0 0 
L -3.5 0 
" style="stroke: #000000; stroke-width: 0.8"/>
      </defs>
      <g>
       <use xlink:href="#m896dea59fb" x="38.404375" y="183.13" style="stroke: #000000; stroke-width: 0.8"/>
      </g>
     </g>
     <g id="text_10">
      <!-- 0% -->
      <g transform="translate(24.645937 185.38) scale(0.06 -0.06)">
       <defs>
        <path id="RobotoCondensed-Regular-25" d="M 334 3675 
Q 334 4063 545 4339 
Q 756 4616 1128 4616 
Q 1506 4616 1717 4339 
Q 1928 4063 1928 3675 
L 1928 3434 
Q 1928 3053 1718 2776 
Q 1509 2500 1134 2500 
Q 759 2500 546 2776 
Q 334 3053 334 3434 
L 334 3675 
z
M 741 3434 
Q 741 3219 836 3047 
Q 931 2875 1134 2875 
Q 1331 2875 1426 3045 
Q 1522 3216 1522 3434 
L 1522 3675 
Q 1522 3894 1425 4067 
Q 1328 4241 1128 4241 
Q 931 4241 836 4067 
Q 741 3894 741 3675 
L 741 3434 
z
M 3116 3903 
L 1250 347 
L 944 553 
L 2813 4109 
L 3116 3903 
z
M 2172 1116 
Q 2172 1500 2384 1776 
Q 2597 2053 2969 2053 
Q 3344 2053 3555 1776 
Q 3766 1500 3766 1116 
L 3766 872 
Q 3766 488 3555 211 
Q 3344 -66 2972 -66 
Q 2597 -66 2384 211 
Q 2172 488 2172 872 
L 2172 1116 
z
M 2578 872 
Q 2578 653 2675 481 
Q 2772 309 2972 309 
Q 3169 309 3264 479 
Q 3359 650 3359 872 
L 3359 1116 
Q 3359 1338 3262 1508 
Q 3166 1678 2969 1678 
Q 2772 1678 2675 1508 
Q 2578 1338 2578 1116 
L 2578 872 
z
" transform="scale(0.015625)"/>
       </defs>
       <use xlink:href="#RobotoCondensed-Regular-30"/>
       <use xlink:href="#RobotoCondensed-Regular-25" transform="translate(49.365234 0)"/>
      </g>
     </g>
    </g>
    <g id="ytick_2">
     <g id="line2d_11">
      <path d="M 38.404375 148.394 
L 301.010044 148.394 
" clip-path="url(#pb8ca311374)" style="fill: none; stroke: #808080; stroke-opacity: 0.3; stroke-width: 0.5; stroke-linecap: square"/>
     </g>
     <g id="line2d_12">
      <g>
       <use xlink:href="#m896dea59fb" x="38.404375" y="148.394" style="stroke: #000000; stroke-width: 0.8"/>
      </g>
     </g>
     <g id="text_11">
      <!-- 2% -->
      <g transform="translate(24.645937 150.644) scale(0.06 -0.06)">
       <use xlink:href="#RobotoCondensed-Regular-32"/>
       <use xlink:href="#RobotoCondensed-Regular-25" transform="translate(49.365234 0)"/>
      </g>
     </g>
    </g>
    <g id="ytick_3">
     <g id="line2d_13">
      <path d="M 38.404375 113.658 
L 301.010044 113.658 
" clip-path="url(#pb8ca311374)" style="fill: none; stroke: #808080; stroke-opacity: 0.3; stroke-width: 0.5; stroke-linecap: square"/>
     </g>
     <g id="line2d_14">
      <g>
       <use xlink:href="#m896dea59fb" x="38.404375" y="113.658" style="stroke: #000000; stroke-width: 0.8"/>
      </g>
     </g>
     <g id="text_12">
      <!-- 4% -->
      <g transform="translate(24.645937 115.908) scale(0.06 -0.06)">
       <use xlink:href="#RobotoCondensed-Regular-34"/>
       <use xlink:href="#RobotoCondensed-Regular-25" transform="translate(49.365234 0)"/>
      </g>
     </g>
    </g>
    <g id="ytick_4">
     <g id="line2d_15">
      <path d="M 38.404375 78.922 
L 301.010044 78.922 
" clip-path="url(#pb8ca311374)" style="fill: none; stroke: #808080; stroke-opacity: 0.3; stroke-width: 0.5; stroke-linecap: square"/>
     </g>
     <g id="line2d_16">
      <g>
       <use xlink:href="#m896dea59fb" x="38.404375" y="78.922" style="stroke: #000000; stroke-width: 0.8"/>
      </g>
     </g>
     <g id="text_13">
      <!-- 6% -->
      <g transform="translate(24.645937 81.172) scale(0.06 -0.06)">
       <defs>
        <path id="RobotoCondensed-Regular-36" d="M 2847 1484 
Q 2847 838 2544 387 
Q 2241 -63 1641 -63 
Q 1216 -63 944 198 
Q 672 459 542 861 
Q 413 1263 413 1684 
L 413 1956 
Q 413 2438 481 2900 
Q 550 3363 742 3738 
Q 934 4113 1296 4334 
Q 1659 4556 2291 4556 
L 2291 4066 
Q 1775 4066 1508 3859 
Q 1241 3653 1122 3318 
Q 1003 2984 978 2606 
Q 1272 2984 1750 2984 
Q 2138 2984 2380 2765 
Q 2622 2547 2734 2201 
Q 2847 1856 2847 1484 
z
M 969 1666 
Q 969 1059 1180 737 
Q 1391 416 1641 416 
Q 1959 416 2129 708 
Q 2300 1000 2300 1456 
Q 2300 1863 2144 2184 
Q 1988 2506 1659 2506 
Q 1425 2506 1236 2329 
Q 1047 2153 969 1900 
L 969 1666 
z
" transform="scale(0.015625)"/>
       </defs>
       <use xlink:href="#RobotoCondensed-Regular-36"/>
       <use xlink:href="#RobotoCondensed-Regular-25" transform="translate(49.365234 0)"/>
      </g>
     </g>
    </g>
    <g id="ytick_5">
     <g id="line2d_17">
      <path d="M 38.404375 44.186 
L 301.010044 44.186 
" clip-path="url(#pb8ca311374)" style="fill: none; stroke: #808080; stroke-opacity: 0.3; stroke-width: 0.5; stroke-linecap: square"/>
     </g>
     <g id="line2d_18">
      <g>
       <use xlink:href="#m896dea59fb" x="38.404375" y="44.186" style="stroke: #000000; stroke-width: 0.8"/>
      </g>
     </g>
     <g id="text_14">
      <!-- 8% -->
      <g transform="translate(24.645937 46.436) scale(0.06 -0.06)">
       <use xlink:href="#RobotoCondensed-Regular-38"/>
       <use xlink:href="#RobotoCondensed-Regular-25" transform="translate(49.365234 0)"/>
      </g>
     </g>
    </g>
    <g id="ytick_6">
     <g id="line2d_19">
      <path d="M 38.404375 9.45 
L 301.010044 9.45 
" clip-path="url(#pb8ca311374)" style="fill: none; stroke: #808080; stroke-opacity: 0.3; stroke-width: 0.5; stroke-linecap: square"/>
     </g>
     <g id="line2d_20">
      <g>
       <use xlink:href="#m896dea59fb" x="38.404375" y="9.45" style="stroke: #000000; stroke-width: 0.8"/>
      </g>
     </g>
     <g id="text_15">
      <!-- 10% -->
      <g transform="translate(21.684375 11.7) scale(0.06 -0.06)">
       <use xlink:href="#RobotoCondensed-Regular-31"/>
       <use xlink:href="#RobotoCondensed-Regular-30" transform="translate(49.365234 0)"/>
       <use xlink:href="#RobotoCondensed-Regular-25" transform="translate(98.730469 0)"/>
      </g>
     </g>
    </g>
    <g id="text_16">
     <!-- Proportion -->
     <g transform="translate(15.45 119.239609) rotate(-90) scale(0.11 -0.11)">
      <defs>
       <path id="RobotoCondensed-Regular-50" d="M 1066 1784 
L 1066 0 
L 491 0 
L 491 4550 
L 1941 4550 
Q 2600 4550 2951 4159 
Q 3303 3769 3303 3163 
Q 3303 2506 2954 2147 
Q 2606 1788 1950 1784 
L 1066 1784 
z
M 1066 4056 
L 1066 2275 
L 1941 2275 
Q 2359 2275 2543 2522 
Q 2728 2769 2728 3156 
Q 2728 3506 2543 3781 
Q 2359 4056 1941 4056 
L 1066 4056 
z
" transform="scale(0.015625)"/>
       <path id="RobotoCondensed-Regular-6f" d="M 300 1850 
Q 300 2641 678 3042 
Q 1056 3444 1603 3444 
Q 2156 3444 2536 3042 
Q 2916 2641 2916 1850 
L 2916 1528 
Q 2916 738 2536 337 
Q 2156 -63 1609 -63 
Q 1059 -63 679 337 
Q 300 738 300 1528 
L 300 1850 
z
M 853 1528 
Q 853 969 1068 689 
Q 1284 409 1609 409 
Q 2341 409 2363 1466 
L 2363 1850 
Q 2363 2403 2145 2686 
Q 1928 2969 1603 2969 
Q 1281 2969 1067 2686 
Q 853 2403 853 1850 
L 853 1528 
z
" transform="scale(0.015625)"/>
       <path id="RobotoCondensed-Regular-70" d="M 1750 -63 
Q 1244 -63 969 325 
L 969 -1300 
L 416 -1300 
L 416 3381 
L 919 3381 
L 947 3013 
Q 1222 3444 1744 3444 
Q 2275 3444 2562 3073 
Q 2850 2703 2859 1897 
L 2859 1528 
Q 2859 725 2570 331 
Q 2281 -63 1750 -63 
z
M 1572 2956 
Q 1181 2956 969 2559 
L 969 797 
Q 1178 409 1578 409 
Q 2288 409 2306 1472 
L 2306 1844 
Q 2306 2956 1572 2956 
z
" transform="scale(0.015625)"/>
       <path id="RobotoCondensed-Regular-74" d="M 1647 0 
Q 1488 -63 1259 -63 
Q 991 -63 789 134 
Q 588 331 588 841 
L 588 2938 
L 72 2938 
L 72 3381 
L 588 3381 
L 588 4203 
L 1141 4203 
L 1141 3381 
L 1650 3381 
L 1650 2938 
L 1141 2938 
L 1141 838 
Q 1141 578 1230 506 
Q 1319 434 1431 434 
Q 1550 434 1650 472 
L 1647 0 
z
" transform="scale(0.015625)"/>
       <path id="RobotoCondensed-Regular-69" d="M 428 4278 
Q 428 4419 506 4516 
Q 584 4613 741 4613 
Q 894 4613 975 4516 
Q 1056 4419 1056 4278 
Q 1056 4144 975 4048 
Q 894 3953 741 3953 
Q 584 3953 506 4048 
Q 428 4144 428 4278 
z
M 1009 3381 
L 1009 0 
L 459 0 
L 459 3381 
L 1009 3381 
z
" transform="scale(0.015625)"/>
       <path id="RobotoCondensed-Regular-6e" d="M 1603 2956 
Q 1400 2956 1236 2818 
Q 1072 2681 969 2459 
L 969 0 
L 416 0 
L 416 3381 
L 938 3381 
L 953 3022 
Q 1275 3444 1775 3444 
Q 2191 3444 2437 3162 
Q 2684 2881 2684 2216 
L 2684 0 
L 2131 0 
L 2131 2222 
Q 2131 2619 2000 2787 
Q 1869 2956 1603 2956 
z
" transform="scale(0.015625)"/>
      </defs>
      <use xlink:href="#RobotoCondensed-Regular-50"/>
      <use xlink:href="#RobotoCondensed-Regular-72" transform="translate(55.419922 0)"/>
      <use xlink:href="#RobotoCondensed-Regular-6f" transform="translate(85.888672 0)"/>
      <use xlink:href="#RobotoCondensed-Regular-70" transform="translate(136.083984 0)"/>
      <use xlink:href="#RobotoCondensed-Regular-6f" transform="translate(185.400391 0)"/>
      <use xlink:href="#RobotoCondensed-Regular-72" transform="translate(235.595703 0)"/>
      <use xlink:href="#RobotoCondensed-Regular-74" transform="translate(266.064453 0)"/>
      <use xlink:href="#RobotoCondensed-Regular-69" transform="translate(295.654297 0)"/>
      <use xlink:href="#RobotoCondensed-Regular-6f" transform="translate(318.603516 0)"/>
      <use xlink:href="#RobotoCondensed-Regular-6e" transform="translate(368.798828 0)"/>
     </g>
    </g>
   </g>
   <g id="FillBetweenPolyCollection_1">
    <path d="M 50.340996 172.097584 
L 50.340996 183.13 
L 51.139433 183.13 
L 51.937869 183.13 
L 52.736305 183.13 
L 53.534741 183.13 
L 54.333177 183.13 
L 55.131614 183.13 
L 55.93005 183.13 
L 56.728486 183.13 
L 57.526922 183.13 
L 58.325358 183.13 
L 59.123795 183.13 
L 59.922231 183.13 
L 60.720667 183.13 
L 61.519103 183.13 
L 62.317539 183.13 
L 63.115976 183.13 
L 63.914412 183.13 
L 64.712848 183.13 
L 65.511284 183.13 
L 66.309721 183.13 
L 67.108157 183.13 
L 67.906593 183.13 
L 68.705029 183.13 
L 69.503465 183.13 
L 70.301902 183.13 
L 71.100338 183.13 
L 71.898774 183.13 
L 72.69721 183.13 
L 73.495646 183.13 
L 74.294083 183.13 
L 75.092519 183.13 
L 75.890955 183.13 
L 76.689391 183.13 
L 77.487827 183.13 
L 78.286264 183.13 
L 79.0847 183.13 
L 79.883136 183.13 
L 80.681572 183.13 
L 81.480009 183.13 
L 82.278445 183.13 
L 83.076881 183.13 
L 83.875317 183.13 
L 84.673753 183.13 
L 85.47219 183.13 
L 86.270626 183.13 
L 87.069062 183.13 
L 87.867498 183.13 
L 88.665934 183.13 
L 89.464371 183.13 
L 90.262807 183.13 
L 91.061243 183.13 
L 91.859679 183.13 
L 92.658115 183.13 
L 93.456552 183.13 
L 94.254988 183.13 
L 95.053424 183.13 
L 95.85186 183.13 
L 96.650296 183.13 
L 97.448733 183.13 
L 98.247169 183.13 
L 99.045605 183.13 
L 99.844041 183.13 
L 100.642478 183.13 
L 101.440914 183.13 
L 102.23935 183.13 
L 103.037786 183.13 
L 103.836222 183.13 
L 104.634659 183.13 
L 105.433095 183.13 
L 106.231531 183.13 
L 107.029967 183.13 
L 107.828403 183.13 
L 108.62684 183.13 
L 109.425276 183.13 
L 110.223712 183.13 
L 111.022148 183.13 
L 111.820584 183.13 
L 112.619021 183.13 
L 113.417457 183.13 
L 114.215893 183.13 
L 115.014329 183.13 
L 115.812766 183.13 
L 116.611202 183.13 
L 117.409638 183.13 
L 118.208074 183.13 
L 119.00651 183.13 
L 119.804947 183.13 
L 120.603383 183.13 
L 121.401819 183.13 
L 122.200255 183.13 
L 122.998691 183.13 
L 123.797128 183.13 
L 124.595564 183.13 
L 125.394 183.13 
L 126.192436 183.13 
L 126.990872 183.13 
L 127.789309 183.13 
L 128.587745 183.13 
L 129.386181 183.13 
L 130.184617 183.13 
L 130.983053 183.13 
L 131.78149 183.13 
L 132.579926 183.13 
L 133.378362 183.13 
L 134.176798 183.13 
L 134.975235 183.13 
L 135.773671 183.13 
L 136.572107 183.13 
L 137.370543 183.13 
L 138.168979 183.13 
L 138.967416 183.13 
L 139.765852 183.13 
L 140.564288 183.13 
L 141.362724 183.13 
L 142.16116 183.13 
L 142.959597 183.13 
L 143.758033 183.13 
L 144.556469 183.13 
L 145.354905 183.13 
L 146.153341 183.13 
L 146.951778 183.13 
L 147.750214 183.13 
L 148.54865 183.13 
L 149.347086 183.13 
L 150.145523 183.13 
L 150.943959 183.13 
L 151.742395 183.13 
L 152.540831 183.13 
L 153.339267 183.13 
L 154.137704 183.13 
L 154.93614 183.13 
L 155.734576 183.13 
L 156.533012 183.13 
L 157.331448 183.13 
L 158.129885 183.13 
L 158.928321 183.13 
L 159.726757 183.13 
L 160.525193 183.13 
L 161.323629 183.13 
L 162.122066 183.13 
L 162.920502 183.13 
L 163.718938 183.13 
L 164.517374 183.13 
L 165.31581 183.13 
L 166.114247 183.13 
L 166.912683 183.13 
L 167.711119 183.13 
L 168.509555 183.13 
L 169.307992 183.13 
L 170.106428 183.13 
L 170.904864 183.13 
L 171.7033 183.13 
L 172.501736 183.13 
L 173.300173 183.13 
L 174.098609 183.13 
L 174.897045 183.13 
L 175.695481 183.13 
L 176.493917 183.13 
L 177.292354 183.13 
L 178.09079 183.13 
L 178.889226 183.13 
L 179.687662 183.13 
L 180.486098 183.13 
L 181.284535 183.13 
L 182.082971 183.13 
L 182.881407 183.13 
L 183.679843 183.13 
L 184.47828 183.13 
L 185.276716 183.13 
L 186.075152 183.13 
L 186.873588 183.13 
L 187.672024 183.13 
L 188.470461 183.13 
L 189.268897 183.13 
L 190.067333 183.13 
L 190.865769 183.13 
L 191.664205 183.13 
L 192.462642 183.13 
L 193.261078 183.13 
L 194.059514 183.13 
L 194.85795 183.13 
L 195.656386 183.13 
L 196.454823 183.13 
L 197.253259 183.13 
L 198.051695 183.13 
L 198.850131 183.13 
L 199.648568 183.13 
L 200.447004 183.13 
L 201.24544 183.13 
L 202.043876 183.13 
L 202.842312 183.13 
L 203.640749 183.13 
L 204.439185 183.13 
L 205.237621 183.13 
L 206.036057 183.13 
L 206.834493 183.13 
L 207.63293 183.13 
L 208.431366 183.13 
L 209.229802 183.13 
L 210.028238 183.13 
L 210.826674 183.13 
L 211.625111 183.13 
L 212.423547 183.13 
L 213.221983 183.13 
L 214.020419 183.13 
L 214.818855 183.13 
L 215.617292 183.13 
L 216.415728 183.13 
L 217.214164 183.13 
L 218.0126 183.13 
L 218.811037 183.13 
L 219.609473 183.13 
L 220.407909 183.13 
L 221.206345 183.13 
L 222.004781 183.13 
L 222.803218 183.13 
L 223.601654 183.13 
L 224.40009 183.13 
L 225.198526 183.13 
L 225.996962 183.13 
L 226.795399 183.13 
L 227.593835 183.13 
L 228.392271 183.13 
L 229.190707 183.13 
L 229.989143 183.13 
L 230.78758 183.13 
L 231.586016 183.13 
L 232.384452 183.13 
L 233.182888 183.13 
L 233.981325 183.13 
L 234.779761 183.13 
L 235.578197 183.13 
L 236.376633 183.13 
L 237.175069 183.13 
L 237.973506 183.13 
L 238.771942 183.13 
L 239.570378 183.13 
L 240.368814 183.13 
L 241.16725 183.13 
L 241.965687 183.13 
L 242.764123 183.13 
L 243.562559 183.13 
L 244.360995 183.13 
L 245.159431 183.13 
L 245.957868 183.13 
L 246.756304 183.13 
L 247.55474 183.13 
L 248.353176 183.13 
L 249.151612 183.13 
L 249.950049 183.13 
L 250.748485 183.13 
L 251.546921 183.13 
L 252.345357 183.13 
L 253.143794 183.13 
L 253.94223 183.13 
L 254.740666 183.13 
L 255.539102 183.13 
L 256.337538 183.13 
L 257.135975 183.13 
L 257.934411 183.13 
L 258.732847 183.13 
L 259.531283 183.13 
L 260.329719 183.13 
L 261.128156 183.13 
L 261.926592 183.13 
L 262.725028 183.13 
L 263.523464 183.13 
L 264.3219 183.13 
L 265.120337 183.13 
L 265.918773 183.13 
L 266.717209 183.13 
L 267.515645 183.13 
L 268.314082 183.13 
L 269.112518 183.13 
L 269.910954 183.13 
L 270.70939 183.13 
L 271.507826 183.13 
L 272.306263 183.13 
L 273.104699 183.13 
L 273.903135 183.13 
L 274.701571 183.13 
L 275.500007 183.13 
L 276.298444 183.13 
L 277.09688 183.13 
L 277.895316 183.13 
L 278.693752 183.13 
L 279.492188 183.13 
L 280.290625 183.13 
L 281.089061 183.13 
L 281.887497 183.13 
L 282.685933 183.13 
L 283.484369 183.13 
L 284.282806 183.13 
L 285.081242 183.13 
L 285.879678 183.13 
L 286.678114 183.13 
L 287.476551 183.13 
L 288.274987 183.13 
L 289.073423 183.13 
L 289.073423 177.497069 
L 289.073423 177.497069 
L 288.274987 177.555821 
L 287.476551 177.610756 
L 286.678114 177.661837 
L 285.879678 177.709027 
L 285.081242 177.752289 
L 284.282806 177.791585 
L 283.484369 177.826879 
L 282.685933 177.858134 
L 281.887497 177.885313 
L 281.089061 177.908379 
L 280.290625 177.927294 
L 279.492188 177.942023 
L 278.693752 177.952527 
L 277.895316 177.95877 
L 277.09688 177.960706 
L 276.298444 177.954761 
L 275.500007 177.939069 
L 274.701571 177.915147 
L 273.903135 177.884512 
L 273.104699 177.84868 
L 272.306263 177.809169 
L 271.507826 177.767497 
L 270.70939 177.72518 
L 269.910954 177.683735 
L 269.112518 177.64468 
L 268.314082 177.609531 
L 267.515645 177.579805 
L 266.717209 177.557021 
L 265.918773 177.542694 
L 265.120337 177.538321 
L 264.3219 177.542396 
L 263.523464 177.552562 
L 262.725028 177.567866 
L 261.926592 177.58735 
L 261.128156 177.610059 
L 260.329719 177.635038 
L 259.531283 177.661332 
L 258.732847 177.687983 
L 257.934411 177.714038 
L 257.135975 177.738539 
L 256.337538 177.760532 
L 255.539102 177.77906 
L 254.740666 177.793169 
L 253.94223 177.801902 
L 253.143794 177.80429 
L 252.345357 177.798944 
L 251.546921 177.785925 
L 250.748485 177.765958 
L 249.950049 177.739767 
L 249.151612 177.708076 
L 248.353176 177.671611 
L 247.55474 177.631096 
L 246.756304 177.587254 
L 245.957868 177.540811 
L 245.159431 177.492492 
L 244.360995 177.44302 
L 243.562559 177.393121 
L 242.764123 177.343518 
L 241.965687 177.294937 
L 241.16725 177.247999 
L 240.368814 177.199895 
L 239.570378 177.149162 
L 238.771942 177.095914 
L 237.973506 177.040263 
L 237.175069 176.982323 
L 236.376633 176.922208 
L 235.578197 176.860032 
L 234.779761 176.795907 
L 233.981325 176.729947 
L 233.182888 176.662266 
L 232.384452 176.592978 
L 231.586016 176.522195 
L 230.78758 176.450031 
L 229.989143 176.3766 
L 229.190707 176.301913 
L 228.392271 176.223903 
L 227.593835 176.142013 
L 226.795399 176.056632 
L 225.996962 175.96815 
L 225.198526 175.876956 
L 224.40009 175.78344 
L 223.601654 175.687992 
L 222.803218 175.591 
L 222.004781 175.492854 
L 221.206345 175.393945 
L 220.407909 175.29466 
L 219.609473 175.19539 
L 218.811037 175.096524 
L 218.0126 174.998452 
L 217.214164 174.900856 
L 216.415728 174.793648 
L 215.617292 174.675587 
L 214.818855 174.549476 
L 214.020419 174.41812 
L 213.221983 174.284323 
L 212.423547 174.15089 
L 211.625111 174.020624 
L 210.826674 173.896331 
L 210.028238 173.780814 
L 209.229802 173.676878 
L 208.431366 173.587328 
L 207.63293 173.514967 
L 206.834493 173.462601 
L 206.036057 173.433033 
L 205.237621 173.427755 
L 204.439185 173.432879 
L 203.640749 173.443275 
L 202.842312 173.458084 
L 202.043876 173.476444 
L 201.24544 173.497495 
L 200.447004 173.520375 
L 199.648568 173.544223 
L 198.850131 173.568179 
L 198.051695 173.591382 
L 197.253259 173.612971 
L 196.454823 173.632084 
L 195.656386 173.647862 
L 194.85795 173.659442 
L 194.059514 173.665964 
L 193.261078 173.665089 
L 192.462642 173.643673 
L 191.664205 173.601542 
L 190.865769 173.542107 
L 190.067333 173.468777 
L 189.268897 173.384962 
L 188.470461 173.294071 
L 187.672024 173.199515 
L 186.873588 173.104704 
L 186.075152 173.013046 
L 185.276716 172.927952 
L 184.47828 172.852832 
L 183.679843 172.791095 
L 182.881407 172.746151 
L 182.082971 172.721411 
L 181.284535 172.719627 
L 180.486098 172.737471 
L 179.687662 172.772236 
L 178.889226 172.821921 
L 178.09079 172.884526 
L 177.292354 172.95805 
L 176.493917 173.040492 
L 175.695481 173.129851 
L 174.897045 173.224128 
L 174.098609 173.321322 
L 173.300173 173.419431 
L 172.501736 173.516456 
L 171.7033 173.610396 
L 170.904864 173.69925 
L 170.106428 173.781018 
L 169.307992 173.856135 
L 168.509555 173.937256 
L 167.711119 174.024905 
L 166.912683 174.117176 
L 166.114247 174.212162 
L 165.31581 174.307954 
L 164.517374 174.402646 
L 163.718938 174.494331 
L 162.920502 174.5811 
L 162.122066 174.661048 
L 161.323629 174.732266 
L 160.525193 174.792848 
L 159.726757 174.840885 
L 158.928321 174.874471 
L 158.129885 174.891699 
L 157.331448 174.883539 
L 156.533012 174.817305 
L 155.734576 174.696986 
L 154.93614 174.53171 
L 154.137704 174.330605 
L 153.339267 174.1028 
L 152.540831 173.857422 
L 151.742395 173.603601 
L 150.943959 173.350465 
L 150.145523 173.107141 
L 149.347086 172.882759 
L 148.54865 172.686446 
L 147.750214 172.527332 
L 146.951778 172.414543 
L 146.153341 172.35721 
L 145.354905 172.359942 
L 144.556469 172.406924 
L 143.758033 172.490748 
L 142.959597 172.60561 
L 142.16116 172.745712 
L 141.362724 172.905252 
L 140.564288 173.078429 
L 139.765852 173.259443 
L 138.967416 173.442492 
L 138.168979 173.621776 
L 137.370543 173.791495 
L 136.572107 173.945846 
L 135.773671 174.07903 
L 134.975235 174.185245 
L 134.176798 174.258692 
L 133.378362 174.302152 
L 132.579926 174.341921 
L 131.78149 174.380162 
L 130.983053 174.416663 
L 130.184617 174.451213 
L 129.386181 174.4836 
L 128.587745 174.513613 
L 127.789309 174.54104 
L 126.990872 174.565668 
L 126.192436 174.587288 
L 125.394 174.605686 
L 124.595564 174.620652 
L 123.797128 174.631973 
L 122.998691 174.639438 
L 122.200255 174.642836 
L 121.401819 174.638804 
L 120.603383 174.618967 
L 119.804947 174.584498 
L 119.00651 174.537183 
L 118.208074 174.478807 
L 117.409638 174.411153 
L 116.611202 174.336007 
L 115.812766 174.255152 
L 115.014329 174.170373 
L 114.215893 174.083455 
L 113.417457 173.996181 
L 112.619021 173.910337 
L 111.820584 173.827707 
L 111.022148 173.750075 
L 110.223712 173.679226 
L 109.425276 173.612069 
L 108.62684 173.53842 
L 107.828403 173.459429 
L 107.029967 173.376783 
L 106.231531 173.292172 
L 105.433095 173.207285 
L 104.634659 173.12381 
L 103.836222 173.043436 
L 103.037786 172.967852 
L 102.23935 172.898746 
L 101.440914 172.837808 
L 100.642478 172.786726 
L 99.844041 172.74719 
L 99.045605 172.720887 
L 98.247169 172.709506 
L 97.448733 172.711889 
L 96.650296 172.7223 
L 95.85186 172.739402 
L 95.053424 172.762015 
L 94.254988 172.788961 
L 93.456552 172.81906 
L 92.658115 172.851134 
L 91.859679 172.884004 
L 91.061243 172.916491 
L 90.262807 172.947416 
L 89.464371 172.9756 
L 88.665934 172.999863 
L 87.867498 173.019028 
L 87.069062 173.031915 
L 86.270626 173.037345 
L 85.47219 173.023379 
L 84.673753 172.973907 
L 83.875317 172.893983 
L 83.076881 172.789021 
L 82.278445 172.664435 
L 81.480009 172.525637 
L 80.681572 172.378043 
L 79.883136 172.227064 
L 79.0847 172.078117 
L 78.286264 171.936612 
L 77.487827 171.807966 
L 76.689391 171.69759 
L 75.890955 171.610899 
L 75.092519 171.553307 
L 74.294083 171.530226 
L 73.495646 171.53039 
L 72.69721 171.531629 
L 71.898774 171.533706 
L 71.100338 171.53658 
L 70.301902 171.540211 
L 69.503465 171.544559 
L 68.705029 171.549584 
L 67.906593 171.555245 
L 67.108157 171.561503 
L 66.309721 171.568317 
L 65.511284 171.575646 
L 64.712848 171.583451 
L 63.914412 171.591692 
L 63.115976 171.600327 
L 62.317539 171.609317 
L 61.519103 171.620457 
L 60.720667 171.635793 
L 59.922231 171.655067 
L 59.123795 171.678014 
L 58.325358 171.704372 
L 57.526922 171.733877 
L 56.728486 171.766266 
L 55.93005 171.801276 
L 55.131614 171.838642 
L 54.333177 171.878102 
L 53.534741 171.919392 
L 52.736305 171.962248 
L 51.937869 172.006408 
L 51.139433 172.051608 
L 50.340996 172.097584 
z
" clip-path="url(#pb8ca311374)" style="fill: url(#h941298d564)"/>
   </g>
   <g id="FillBetweenPolyCollection_2">
    <path d="M 50.340996 131.629384 
L 50.340996 172.097584 
L 51.139433 172.051608 
L 51.937869 172.006408 
L 52.736305 171.962248 
L 53.534741 171.919392 
L 54.333177 171.878102 
L 55.131614 171.838642 
L 55.93005 171.801276 
L 56.728486 171.766266 
L 57.526922 171.733877 
L 58.325358 171.704372 
L 59.123795 171.678014 
L 59.922231 171.655067 
L 60.720667 171.635793 
L 61.519103 171.620457 
L 62.317539 171.609317 
L 63.115976 171.600327 
L 63.914412 171.591692 
L 64.712848 171.583451 
L 65.511284 171.575646 
L 66.309721 171.568317 
L 67.108157 171.561503 
L 67.906593 171.555245 
L 68.705029 171.549584 
L 69.503465 171.544559 
L 70.301902 171.540211 
L 71.100338 171.53658 
L 71.898774 171.533706 
L 72.69721 171.531629 
L 73.495646 171.53039 
L 74.294083 171.530226 
L 75.092519 171.553307 
L 75.890955 171.610899 
L 76.689391 171.69759 
L 77.487827 171.807966 
L 78.286264 171.936612 
L 79.0847 172.078117 
L 79.883136 172.227064 
L 80.681572 172.378043 
L 81.480009 172.525637 
L 82.278445 172.664435 
L 83.076881 172.789021 
L 83.875317 172.893983 
L 84.673753 172.973907 
L 85.47219 173.023379 
L 86.270626 173.037345 
L 87.069062 173.031915 
L 87.867498 173.019028 
L 88.665934 172.999863 
L 89.464371 172.9756 
L 90.262807 172.947416 
L 91.061243 172.916491 
L 91.859679 172.884004 
L 92.658115 172.851134 
L 93.456552 172.81906 
L 94.254988 172.788961 
L 95.053424 172.762015 
L 95.85186 172.739402 
L 96.650296 172.7223 
L 97.448733 172.711889 
L 98.247169 172.709506 
L 99.045605 172.720887 
L 99.844041 172.74719 
L 100.642478 172.786726 
L 101.440914 172.837808 
L 102.23935 172.898746 
L 103.037786 172.967852 
L 103.836222 173.043436 
L 104.634659 173.12381 
L 105.433095 173.207285 
L 106.231531 173.292172 
L 107.029967 173.376783 
L 107.828403 173.459429 
L 108.62684 173.53842 
L 109.425276 173.612069 
L 110.223712 173.679226 
L 111.022148 173.750075 
L 111.820584 173.827707 
L 112.619021 173.910337 
L 113.417457 173.996181 
L 114.215893 174.083455 
L 115.014329 174.170373 
L 115.812766 174.255152 
L 116.611202 174.336007 
L 117.409638 174.411153 
L 118.208074 174.478807 
L 119.00651 174.537183 
L 119.804947 174.584498 
L 120.603383 174.618967 
L 121.401819 174.638804 
L 122.200255 174.642836 
L 122.998691 174.639438 
L 123.797128 174.631973 
L 124.595564 174.620652 
L 125.394 174.605686 
L 126.192436 174.587288 
L 126.990872 174.565668 
L 127.789309 174.54104 
L 128.587745 174.513613 
L 129.386181 174.4836 
L 130.184617 174.451213 
L 130.983053 174.416663 
L 131.78149 174.380162 
L 132.579926 174.341921 
L 133.378362 174.302152 
L 134.176798 174.258692 
L 134.975235 174.185245 
L 135.773671 174.07903 
L 136.572107 173.945846 
L 137.370543 173.791495 
L 138.168979 173.621776 
L 138.967416 173.442492 
L 139.765852 173.259443 
L 140.564288 173.078429 
L 141.362724 172.905252 
L 142.16116 172.745712 
L 142.959597 172.60561 
L 143.758033 172.490748 
L 144.556469 172.406924 
L 145.354905 172.359942 
L 146.153341 172.35721 
L 146.951778 172.414543 
L 147.750214 172.527332 
L 148.54865 172.686446 
L 149.347086 172.882759 
L 150.145523 173.107141 
L 150.943959 173.350465 
L 151.742395 173.603601 
L 152.540831 173.857422 
L 153.339267 174.1028 
L 154.137704 174.330605 
L 154.93614 174.53171 
L 155.734576 174.696986 
L 156.533012 174.817305 
L 157.331448 174.883539 
L 158.129885 174.891699 
L 158.928321 174.874471 
L 159.726757 174.840885 
L 160.525193 174.792848 
L 161.323629 174.732266 
L 162.122066 174.661048 
L 162.920502 174.5811 
L 163.718938 174.494331 
L 164.517374 174.402646 
L 165.31581 174.307954 
L 166.114247 174.212162 
L 166.912683 174.117176 
L 167.711119 174.024905 
L 168.509555 173.937256 
L 169.307992 173.856135 
L 170.106428 173.781018 
L 170.904864 173.69925 
L 171.7033 173.610396 
L 172.501736 173.516456 
L 173.300173 173.419431 
L 174.098609 173.321322 
L 174.897045 173.224128 
L 175.695481 173.129851 
L 176.493917 173.040492 
L 177.292354 172.95805 
L 178.09079 172.884526 
L 178.889226 172.821921 
L 179.687662 172.772236 
L 180.486098 172.737471 
L 181.284535 172.719627 
L 182.082971 172.721411 
L 182.881407 172.746151 
L 183.679843 172.791095 
L 184.47828 172.852832 
L 185.276716 172.927952 
L 186.075152 173.013046 
L 186.873588 173.104704 
L 187.672024 173.199515 
L 188.470461 173.294071 
L 189.268897 173.384962 
L 190.067333 173.468777 
L 190.865769 173.542107 
L 191.664205 173.601542 
L 192.462642 173.643673 
L 193.261078 173.665089 
L 194.059514 173.665964 
L 194.85795 173.659442 
L 195.656386 173.647862 
L 196.454823 173.632084 
L 197.253259 173.612971 
L 198.051695 173.591382 
L 198.850131 173.568179 
L 199.648568 173.544223 
L 200.447004 173.520375 
L 201.24544 173.497495 
L 202.043876 173.476444 
L 202.842312 173.458084 
L 203.640749 173.443275 
L 204.439185 173.432879 
L 205.237621 173.427755 
L 206.036057 173.433033 
L 206.834493 173.462601 
L 207.63293 173.514967 
L 208.431366 173.587328 
L 209.229802 173.676878 
L 210.028238 173.780814 
L 210.826674 173.896331 
L 211.625111 174.020624 
L 212.423547 174.15089 
L 213.221983 174.284323 
L 214.020419 174.41812 
L 214.818855 174.549476 
L 215.617292 174.675587 
L 216.415728 174.793648 
L 217.214164 174.900856 
L 218.0126 174.998452 
L 218.811037 175.096524 
L 219.609473 175.19539 
L 220.407909 175.29466 
L 221.206345 175.393945 
L 222.004781 175.492854 
L 222.803218 175.591 
L 223.601654 175.687992 
L 224.40009 175.78344 
L 225.198526 175.876956 
L 225.996962 175.96815 
L 226.795399 176.056632 
L 227.593835 176.142013 
L 228.392271 176.223903 
L 229.190707 176.301913 
L 229.989143 176.3766 
L 230.78758 176.450031 
L 231.586016 176.522195 
L 232.384452 176.592978 
L 233.182888 176.662266 
L 233.981325 176.729947 
L 234.779761 176.795907 
L 235.578197 176.860032 
L 236.376633 176.922208 
L 237.175069 176.982323 
L 237.973506 177.040263 
L 238.771942 177.095914 
L 239.570378 177.149162 
L 240.368814 177.199895 
L 241.16725 177.247999 
L 241.965687 177.294937 
L 242.764123 177.343518 
L 243.562559 177.393121 
L 244.360995 177.44302 
L 245.159431 177.492492 
L 245.957868 177.540811 
L 246.756304 177.587254 
L 247.55474 177.631096 
L 248.353176 177.671611 
L 249.151612 177.708076 
L 249.950049 177.739767 
L 250.748485 177.765958 
L 251.546921 177.785925 
L 252.345357 177.798944 
L 253.143794 177.80429 
L 253.94223 177.801902 
L 254.740666 177.793169 
L 255.539102 177.77906 
L 256.337538 177.760532 
L 257.135975 177.738539 
L 257.934411 177.714038 
L 258.732847 177.687983 
L 259.531283 177.661332 
L 260.329719 177.635038 
L 261.128156 177.610059 
L 261.926592 177.58735 
L 262.725028 177.567866 
L 263.523464 177.552562 
L 264.3219 177.542396 
L 265.120337 177.538321 
L 265.918773 177.542694 
L 266.717209 177.557021 
L 267.515645 177.579805 
L 268.314082 177.609531 
L 269.112518 177.64468 
L 269.910954 177.683735 
L 270.70939 177.72518 
L 271.507826 177.767497 
L 272.306263 177.809169 
L 273.104699 177.84868 
L 273.903135 177.884512 
L 274.701571 177.915147 
L 275.500007 177.939069 
L 276.298444 177.954761 
L 277.09688 177.960706 
L 277.895316 177.95877 
L 278.693752 177.952527 
L 279.492188 177.942023 
L 280.290625 177.927294 
L 281.089061 177.908379 
L 281.887497 177.885313 
L 282.685933 177.858134 
L 283.484369 177.826879 
L 284.282806 177.791585 
L 285.081242 177.752289 
L 285.879678 177.709027 
L 286.678114 177.661837 
L 287.476551 177.610756 
L 288.274987 177.555821 
L 289.073423 177.497069 
L 289.073423 151.81395 
L 289.073423 151.81395 
L 288.274987 151.833878 
L 287.476551 151.849023 
L 286.678114 151.859369 
L 285.879678 151.864903 
L 285.081242 151.865609 
L 284.282806 151.861474 
L 283.484369 151.852482 
L 282.685933 151.838619 
L 281.887497 151.819871 
L 281.089061 151.796223 
L 280.290625 151.76766 
L 279.492188 151.734167 
L 278.693752 151.695731 
L 277.895316 151.652337 
L 277.09688 151.603949 
L 276.298444 151.542378 
L 275.500007 151.463166 
L 274.701571 151.369586 
L 273.903135 151.26491 
L 273.104699 151.15241 
L 272.306263 151.03536 
L 271.507826 150.917032 
L 270.70939 150.800698 
L 269.910954 150.689631 
L 269.112518 150.587103 
L 268.314082 150.496388 
L 267.515645 150.420757 
L 266.717209 150.363484 
L 265.918773 150.327841 
L 265.120337 150.317134 
L 264.3219 150.337111 
L 263.523464 150.386958 
L 262.725028 150.46199 
L 261.926592 150.557522 
L 261.128156 150.668868 
L 260.329719 150.791343 
L 259.531283 150.92026 
L 258.732847 151.050934 
L 257.934411 151.17868 
L 257.135975 151.298811 
L 256.337538 151.406643 
L 255.539102 151.497489 
L 254.740666 151.566665 
L 253.94223 151.609484 
L 253.143794 151.620859 
L 252.345357 151.576553 
L 251.546921 151.470306 
L 250.748485 151.310292 
L 249.950049 151.104685 
L 249.151612 150.861661 
L 248.353176 150.589393 
L 247.55474 150.296058 
L 246.756304 149.989829 
L 245.957868 149.678881 
L 245.159431 149.37139 
L 244.360995 149.075529 
L 243.562559 148.799473 
L 242.764123 148.551398 
L 241.965687 148.339478 
L 241.16725 148.170949 
L 240.368814 148.020935 
L 239.570378 147.874875 
L 238.771942 147.732304 
L 237.973506 147.592757 
L 237.175069 147.455769 
L 236.376633 147.320876 
L 235.578197 147.187613 
L 234.779761 147.055515 
L 233.981325 146.924118 
L 233.182888 146.792957 
L 232.384452 146.661567 
L 231.586016 146.529484 
L 230.78758 146.396243 
L 229.989143 146.261378 
L 229.190707 146.124559 
L 228.392271 145.988187 
L 227.593835 145.852843 
L 226.795399 145.717898 
L 225.996962 145.582726 
L 225.198526 145.4467 
L 224.40009 145.309193 
L 223.601654 145.169578 
L 222.803218 145.027228 
L 222.004781 144.881516 
L 221.206345 144.731815 
L 220.407909 144.577498 
L 219.609473 144.417939 
L 218.811037 144.252509 
L 218.0126 144.080583 
L 217.214164 143.898961 
L 216.415728 143.669535 
L 215.617292 143.387819 
L 214.818855 143.064238 
L 214.020419 142.709214 
L 213.221983 142.333171 
L 212.423547 141.946533 
L 211.625111 141.559722 
L 210.826674 141.183161 
L 210.028238 140.827276 
L 209.229802 140.502488 
L 208.431366 140.219222 
L 207.63293 139.9879 
L 206.834493 139.818947 
L 206.036057 139.722785 
L 205.237621 139.708575 
L 204.439185 139.765884 
L 203.640749 139.882848 
L 202.842312 140.050599 
L 202.043876 140.26027 
L 201.24544 140.502994 
L 200.447004 140.769903 
L 199.648568 141.052129 
L 198.850131 141.340806 
L 198.051695 141.627066 
L 197.253259 141.902041 
L 196.454823 142.156865 
L 195.656386 142.382669 
L 194.85795 142.570587 
L 194.059514 142.71175 
L 193.261078 142.799394 
L 192.462642 142.84857 
L 191.664205 142.868019 
L 190.865769 142.862574 
L 190.067333 142.837069 
L 189.268897 142.796337 
L 188.470461 142.745211 
L 187.672024 142.688525 
L 186.873588 142.631112 
L 186.075152 142.577806 
L 185.276716 142.533439 
L 184.47828 142.502846 
L 183.679843 142.49086 
L 182.881407 142.502313 
L 182.082971 142.54204 
L 181.284535 142.614645 
L 180.486098 142.72045 
L 179.687662 142.856301 
L 178.889226 143.018981 
L 178.09079 143.205273 
L 177.292354 143.41196 
L 176.493917 143.635825 
L 175.695481 143.873651 
L 174.897045 144.12222 
L 174.098609 144.378315 
L 173.300173 144.63872 
L 172.501736 144.900216 
L 171.7033 145.159588 
L 170.904864 145.413617 
L 170.106428 145.659086 
L 169.307992 145.89962 
L 168.509555 146.171357 
L 167.711119 146.473602 
L 166.912683 146.798632 
L 166.114247 147.138722 
L 165.31581 147.48615 
L 164.517374 147.833191 
L 163.718938 148.172122 
L 162.920502 148.495219 
L 162.122066 148.794759 
L 161.323629 149.063018 
L 160.525193 149.292272 
L 159.726757 149.474798 
L 158.928321 149.602872 
L 158.129885 149.668771 
L 157.331448 149.660833 
L 156.533012 149.559955 
L 155.734576 149.375274 
L 154.93614 149.119248 
L 154.137704 148.80433 
L 153.339267 148.442976 
L 152.540831 148.047643 
L 151.742395 147.630786 
L 150.943959 147.20486 
L 150.145523 146.78232 
L 149.347086 146.375623 
L 148.54865 145.997223 
L 147.750214 145.659577 
L 146.951778 145.37514 
L 146.153341 145.156368 
L 145.354905 145.004855 
L 144.556469 144.882191 
L 143.758033 144.781825 
L 142.959597 144.701644 
L 142.16116 144.639534 
L 141.362724 144.593382 
L 140.564288 144.561075 
L 139.765852 144.540499 
L 138.967416 144.529541 
L 138.168979 144.526089 
L 137.370543 144.528028 
L 136.572107 144.533245 
L 135.773671 144.539628 
L 134.975235 144.545062 
L 134.176798 144.547435 
L 133.378362 144.547213 
L 132.579926 144.551592 
L 131.78149 144.56012 
L 130.983053 144.571617 
L 130.184617 144.584902 
L 129.386181 144.598797 
L 128.587745 144.61212 
L 127.789309 144.623691 
L 126.990872 144.632331 
L 126.192436 144.636858 
L 125.394 144.636093 
L 124.595564 144.628856 
L 123.797128 144.613967 
L 122.998691 144.590245 
L 122.200255 144.55651 
L 121.401819 144.504111 
L 120.603383 144.412726 
L 119.804947 144.284921 
L 119.00651 144.124714 
L 118.208074 143.936122 
L 117.409638 143.723163 
L 116.611202 143.489854 
L 115.812766 143.240214 
L 115.014329 142.978258 
L 114.215893 142.708006 
L 113.417457 142.433474 
L 112.619021 142.158679 
L 111.820584 141.887641 
L 111.022148 141.624375 
L 110.223712 141.3729 
L 109.425276 141.119945 
L 108.62684 140.829436 
L 107.828403 140.507675 
L 107.029967 140.162926 
L 106.231531 139.803454 
L 105.433095 139.437524 
L 104.634659 139.073401 
L 103.836222 138.719351 
L 103.037786 138.383638 
L 102.23935 138.074527 
L 101.440914 137.800284 
L 100.642478 137.569173 
L 99.844041 137.38946 
L 99.045605 137.26941 
L 98.247169 137.217287 
L 97.448733 137.229717 
L 96.650296 137.283222 
L 95.85186 137.371112 
L 95.053424 137.487327 
L 94.254988 137.625809 
L 93.456552 137.780499 
L 92.658115 137.945337 
L 91.859679 138.114265 
L 91.061243 138.281224 
L 90.262807 138.440155 
L 89.464371 138.584998 
L 88.665934 138.709696 
L 87.867498 138.808189 
L 87.069062 138.874418 
L 86.270626 138.902325 
L 85.47219 138.805214 
L 84.673753 138.461852 
L 83.875317 137.907138 
L 83.076881 137.178644 
L 82.278445 136.313945 
L 81.480009 135.350616 
L 80.681572 134.326228 
L 79.883136 133.278357 
L 79.0847 132.244577 
L 78.286264 131.26246 
L 77.487827 130.369581 
L 76.689391 129.603513 
L 75.890955 129.001831 
L 75.092519 128.602109 
L 74.294083 128.441919 
L 73.495646 128.461036 
L 72.69721 128.528036 
L 71.898774 128.635273 
L 71.100338 128.776236 
L 70.301902 128.944414 
L 69.503465 129.133295 
L 68.705029 129.336369 
L 67.906593 129.547124 
L 67.108157 129.759049 
L 66.309721 129.965633 
L 65.511284 130.160365 
L 64.712848 130.336733 
L 63.914412 130.488226 
L 63.115976 130.608334 
L 62.317539 130.690544 
L 61.519103 130.750822 
L 60.720667 130.813711 
L 59.922231 130.878733 
L 59.123795 130.94535 
L 58.325358 131.013023 
L 57.526922 131.081214 
L 56.728486 131.149384 
L 55.93005 131.216994 
L 55.131614 131.283507 
L 54.333177 131.348384 
L 53.534741 131.411087 
L 52.736305 131.471076 
L 51.937869 131.527815 
L 51.139433 131.580763 
L 50.340996 131.629384 
z
" clip-path="url(#pb8ca311374)" style="fill: url(#h5c61c3befa)"/>
   </g>
   <g id="FillBetweenPolyCollection_3">
    <path d="M 50.340996 131.61091 
L 50.340996 131.629384 
L 51.139433 131.580763 
L 51.937869 131.527815 
L 52.736305 131.471076 
L 53.534741 131.411087 
L 54.333177 131.348384 
L 55.131614 131.283507 
L 55.93005 131.216994 
L 56.728486 131.149384 
L 57.526922 131.081214 
L 58.325358 131.013023 
L 59.123795 130.94535 
L 59.922231 130.878733 
L 60.720667 130.813711 
L 61.519103 130.750822 
L 62.317539 130.690544 
L 63.115976 130.608334 
L 63.914412 130.488226 
L 64.712848 130.336733 
L 65.511284 130.160365 
L 66.309721 129.965633 
L 67.108157 129.759049 
L 67.906593 129.547124 
L 68.705029 129.336369 
L 69.503465 129.133295 
L 70.301902 128.944414 
L 71.100338 128.776236 
L 71.898774 128.635273 
L 72.69721 128.528036 
L 73.495646 128.461036 
L 74.294083 128.441919 
L 75.092519 128.602109 
L 75.890955 129.001831 
L 76.689391 129.603513 
L 77.487827 130.369581 
L 78.286264 131.26246 
L 79.0847 132.244577 
L 79.883136 133.278357 
L 80.681572 134.326228 
L 81.480009 135.350616 
L 82.278445 136.313945 
L 83.076881 137.178644 
L 83.875317 137.907138 
L 84.673753 138.461852 
L 85.47219 138.805214 
L 86.270626 138.902325 
L 87.069062 138.874418 
L 87.867498 138.808189 
L 88.665934 138.709696 
L 89.464371 138.584998 
L 90.262807 138.440155 
L 91.061243 138.281224 
L 91.859679 138.114265 
L 92.658115 137.945337 
L 93.456552 137.780499 
L 94.254988 137.625809 
L 95.053424 137.487327 
L 95.85186 137.371112 
L 96.650296 137.283222 
L 97.448733 137.229717 
L 98.247169 137.217287 
L 99.045605 137.26941 
L 99.844041 137.38946 
L 100.642478 137.569173 
L 101.440914 137.800284 
L 102.23935 138.074527 
L 103.037786 138.383638 
L 103.836222 138.719351 
L 104.634659 139.073401 
L 105.433095 139.437524 
L 106.231531 139.803454 
L 107.029967 140.162926 
L 107.828403 140.507675 
L 108.62684 140.829436 
L 109.425276 141.119945 
L 110.223712 141.3729 
L 111.022148 141.624375 
L 111.820584 141.887641 
L 112.619021 142.158679 
L 113.417457 142.433474 
L 114.215893 142.708006 
L 115.014329 142.978258 
L 115.812766 143.240214 
L 116.611202 143.489854 
L 117.409638 143.723163 
L 118.208074 143.936122 
L 119.00651 144.124714 
L 119.804947 144.284921 
L 120.603383 144.412726 
L 121.401819 144.504111 
L 122.200255 144.55651 
L 122.998691 144.590245 
L 123.797128 144.613967 
L 124.595564 144.628856 
L 125.394 144.636093 
L 126.192436 144.636858 
L 126.990872 144.632331 
L 127.789309 144.623691 
L 128.587745 144.61212 
L 129.386181 144.598797 
L 130.184617 144.584902 
L 130.983053 144.571617 
L 131.78149 144.56012 
L 132.579926 144.551592 
L 133.378362 144.547213 
L 134.176798 144.547435 
L 134.975235 144.545062 
L 135.773671 144.539628 
L 136.572107 144.533245 
L 137.370543 144.528028 
L 138.168979 144.526089 
L 138.967416 144.529541 
L 139.765852 144.540499 
L 140.564288 144.561075 
L 141.362724 144.593382 
L 142.16116 144.639534 
L 142.959597 144.701644 
L 143.758033 144.781825 
L 144.556469 144.882191 
L 145.354905 145.004855 
L 146.153341 145.156368 
L 146.951778 145.37514 
L 147.750214 145.659577 
L 148.54865 145.997223 
L 149.347086 146.375623 
L 150.145523 146.78232 
L 150.943959 147.20486 
L 151.742395 147.630786 
L 152.540831 148.047643 
L 153.339267 148.442976 
L 154.137704 148.80433 
L 154.93614 149.119248 
L 155.734576 149.375274 
L 156.533012 149.559955 
L 157.331448 149.660833 
L 158.129885 149.668771 
L 158.928321 149.602872 
L 159.726757 149.474798 
L 160.525193 149.292272 
L 161.323629 149.063018 
L 162.122066 148.794759 
L 162.920502 148.495219 
L 163.718938 148.172122 
L 164.517374 147.833191 
L 165.31581 147.48615 
L 166.114247 147.138722 
L 166.912683 146.798632 
L 167.711119 146.473602 
L 168.509555 146.171357 
L 169.307992 145.89962 
L 170.106428 145.659086 
L 170.904864 145.413617 
L 171.7033 145.159588 
L 172.501736 144.900216 
L 173.300173 144.63872 
L 174.098609 144.378315 
L 174.897045 144.12222 
L 175.695481 143.873651 
L 176.493917 143.635825 
L 177.292354 143.41196 
L 178.09079 143.205273 
L 178.889226 143.018981 
L 179.687662 142.856301 
L 180.486098 142.72045 
L 181.284535 142.614645 
L 182.082971 142.54204 
L 182.881407 142.502313 
L 183.679843 142.49086 
L 184.47828 142.502846 
L 185.276716 142.533439 
L 186.075152 142.577806 
L 186.873588 142.631112 
L 187.672024 142.688525 
L 188.470461 142.745211 
L 189.268897 142.796337 
L 190.067333 142.837069 
L 190.865769 142.862574 
L 191.664205 142.868019 
L 192.462642 142.84857 
L 193.261078 142.799394 
L 194.059514 142.71175 
L 194.85795 142.570587 
L 195.656386 142.382669 
L 196.454823 142.156865 
L 197.253259 141.902041 
L 198.051695 141.627066 
L 198.850131 141.340806 
L 199.648568 141.052129 
L 200.447004 140.769903 
L 201.24544 140.502994 
L 202.043876 140.26027 
L 202.842312 140.050599 
L 203.640749 139.882848 
L 204.439185 139.765884 
L 205.237621 139.708575 
L 206.036057 139.722785 
L 206.834493 139.818947 
L 207.63293 139.9879 
L 208.431366 140.219222 
L 209.229802 140.502488 
L 210.028238 140.827276 
L 210.826674 141.183161 
L 211.625111 141.559722 
L 212.423547 141.946533 
L 213.221983 142.333171 
L 214.020419 142.709214 
L 214.818855 143.064238 
L 215.617292 143.387819 
L 216.415728 143.669535 
L 217.214164 143.898961 
L 218.0126 144.080583 
L 218.811037 144.252509 
L 219.609473 144.417939 
L 220.407909 144.577498 
L 221.206345 144.731815 
L 222.004781 144.881516 
L 222.803218 145.027228 
L 223.601654 145.169578 
L 224.40009 145.309193 
L 225.198526 145.4467 
L 225.996962 145.582726 
L 226.795399 145.717898 
L 227.593835 145.852843 
L 228.392271 145.988187 
L 229.190707 146.124559 
L 229.989143 146.261378 
L 230.78758 146.396243 
L 231.586016 146.529484 
L 232.384452 146.661567 
L 233.182888 146.792957 
L 233.981325 146.924118 
L 234.779761 147.055515 
L 235.578197 147.187613 
L 236.376633 147.320876 
L 237.175069 147.455769 
L 237.973506 147.592757 
L 238.771942 147.732304 
L 239.570378 147.874875 
L 240.368814 148.020935 
L 241.16725 148.170949 
L 241.965687 148.339478 
L 242.764123 148.551398 
L 243.562559 148.799473 
L 244.360995 149.075529 
L 245.159431 149.37139 
L 245.957868 149.678881 
L 246.756304 149.989829 
L 247.55474 150.296058 
L 248.353176 150.589393 
L 249.151612 150.861661 
L 249.950049 151.104685 
L 250.748485 151.310292 
L 251.546921 151.470306 
L 252.345357 151.576553 
L 253.143794 151.620859 
L 253.94223 151.609484 
L 254.740666 151.566665 
L 255.539102 151.497489 
L 256.337538 151.406643 
L 257.135975 151.298811 
L 257.934411 151.17868 
L 258.732847 151.050934 
L 259.531283 150.92026 
L 260.329719 150.791343 
L 261.128156 150.668868 
L 261.926592 150.557522 
L 262.725028 150.46199 
L 263.523464 150.386958 
L 264.3219 150.337111 
L 265.120337 150.317134 
L 265.918773 150.327841 
L 266.717209 150.363484 
L 267.515645 150.420757 
L 268.314082 150.496388 
L 269.112518 150.587103 
L 269.910954 150.689631 
L 270.70939 150.800698 
L 271.507826 150.917032 
L 272.306263 151.03536 
L 273.104699 151.15241 
L 273.903135 151.26491 
L 274.701571 151.369586 
L 275.500007 151.463166 
L 276.298444 151.542378 
L 277.09688 151.603949 
L 277.895316 151.652337 
L 278.693752 151.695731 
L 279.492188 151.734167 
L 280.290625 151.76766 
L 281.089061 151.796223 
L 281.887497 151.819871 
L 282.685933 151.838619 
L 283.484369 151.852482 
L 284.282806 151.861474 
L 285.081242 151.865609 
L 285.879678 151.864903 
L 286.678114 151.859369 
L 287.476551 151.849023 
L 288.274987 151.833878 
L 289.073423 151.81395 
L 289.073423 151.798726 
L 289.073423 151.798726 
L 288.274987 151.816491 
L 287.476551 151.829514 
L 286.678114 151.837791 
L 285.879678 151.841315 
L 285.081242 151.840081 
L 284.282806 151.834085 
L 283.484369 151.823319 
L 282.685933 151.807779 
L 281.887497 151.78746 
L 281.089061 151.762357 
L 280.290625 151.732462 
L 279.492188 151.697772 
L 278.693752 151.658281 
L 277.895316 151.613983 
L 277.09688 151.564853 
L 276.298444 151.502621 
L 275.500007 151.422762 
L 274.701571 151.328554 
L 273.903135 151.223273 
L 273.104699 151.110198 
L 272.306263 150.992605 
L 271.507826 150.873771 
L 270.70939 150.756975 
L 269.910954 150.645493 
L 269.112518 150.542602 
L 268.314082 150.451581 
L 267.515645 150.375706 
L 266.717209 150.318254 
L 265.918773 150.282504 
L 265.120337 150.271769 
L 264.3219 150.292156 
L 263.523464 150.343027 
L 262.725028 150.419602 
L 261.926592 150.517097 
L 261.128156 150.630731 
L 260.329719 150.755723 
L 259.531283 150.887289 
L 258.732847 151.020649 
L 257.934411 151.15102 
L 257.135975 151.27362 
L 256.337538 151.383668 
L 255.539102 151.476381 
L 254.740666 151.546979 
L 253.94223 151.590677 
L 253.143794 151.602296 
L 252.345357 151.557651 
L 251.546921 151.450591 
L 250.748485 151.289353 
L 249.950049 151.082179 
L 249.151612 150.837305 
L 248.353176 150.562972 
L 247.55474 150.267419 
L 246.756304 149.958884 
L 245.957868 149.645607 
L 245.159431 149.335826 
L 244.360995 149.037781 
L 243.562559 148.759711 
L 242.764123 148.509854 
L 241.965687 148.29645 
L 241.16725 148.126793 
L 240.368814 147.97585 
L 239.570378 147.828955 
L 238.771942 147.685628 
L 237.973506 147.545391 
L 237.175069 147.407763 
L 236.376633 147.272266 
L 235.578197 147.13842 
L 234.779761 147.005746 
L 233.981325 146.873765 
L 233.182888 146.741997 
L 232.384452 146.609964 
L 231.586016 146.477185 
L 230.78758 146.343181 
L 229.989143 146.207474 
L 229.190707 146.069708 
L 228.392271 145.932134 
L 227.593835 145.795313 
L 226.795399 145.658673 
L 225.996962 145.521641 
L 225.198526 145.383644 
L 224.40009 145.244109 
L 223.601654 145.102465 
L 222.803218 144.958137 
L 222.004781 144.810555 
L 221.206345 144.659144 
L 220.407909 144.503333 
L 219.609473 144.342548 
L 218.811037 144.176218 
L 218.0126 144.003768 
L 217.214164 143.822044 
L 216.415728 143.592796 
L 215.617292 143.311464 
L 214.818855 142.988455 
L 214.020419 142.634171 
L 213.221983 142.259018 
L 212.423547 141.873401 
L 211.625111 141.487724 
L 210.826674 141.112392 
L 210.028238 140.75781 
L 209.229802 140.434381 
L 208.431366 140.152512 
L 207.63293 139.922606 
L 206.834493 139.755069 
L 206.036057 139.660304 
L 205.237621 139.647484 
L 204.439185 139.706489 
L 203.640749 139.82549 
L 202.842312 139.995549 
L 202.043876 140.207729 
L 201.24544 140.45309 
L 200.447004 140.722696 
L 199.648568 141.007608 
L 198.850131 141.298889 
L 198.051695 141.5876 
L 197.253259 141.864805 
L 196.454823 142.121564 
L 195.656386 142.34894 
L 194.85795 142.537996 
L 194.059514 142.679793 
L 193.261078 142.767522 
L 192.462642 142.816448 
L 191.664205 142.835403 
L 190.865769 142.829262 
L 190.067333 142.802898 
L 189.268897 142.761185 
L 188.470461 142.708994 
L 187.672024 142.651201 
L 186.873588 142.592678 
L 186.075152 142.538298 
L 185.276716 142.492935 
L 184.47828 142.461462 
L 183.679843 142.448753 
L 182.881407 142.45968 
L 182.082971 142.499117 
L 181.284535 142.571693 
L 180.486098 142.67763 
L 179.687662 142.813736 
L 178.889226 142.97678 
L 178.09079 143.163526 
L 177.292354 143.370742 
L 176.493917 143.595194 
L 175.695481 143.833648 
L 174.897045 144.082871 
L 174.098609 144.339628 
L 173.300173 144.600687 
L 172.501736 144.862814 
L 171.7033 145.122775 
L 170.904864 145.377337 
L 170.106428 145.623266 
L 169.307992 145.864178 
L 168.509555 146.136255 
L 167.711119 146.438815 
L 166.912683 146.764138 
L 166.114247 147.104506 
L 165.31581 147.452199 
L 164.517374 147.799497 
L 163.718938 148.138683 
L 162.920502 148.462037 
L 162.122066 148.761839 
L 161.323629 149.030371 
L 160.525193 149.259913 
L 159.726757 149.442747 
L 158.928321 149.571153 
L 158.129885 149.637412 
L 157.331448 149.62988 
L 156.533012 149.529513 
L 155.734576 149.345438 
L 154.93614 149.090091 
L 154.137704 148.775906 
L 153.339267 148.415319 
L 152.540831 148.020765 
L 151.742395 147.60468 
L 150.943959 147.179498 
L 150.145523 146.757654 
L 149.347086 146.351585 
L 148.54865 145.973725 
L 147.750214 145.636509 
L 146.951778 145.352373 
L 146.153341 145.133751 
L 145.354905 144.98225 
L 144.556469 144.859572 
L 143.758033 144.759182 
L 142.959597 144.678968 
L 142.16116 144.616818 
L 141.362724 144.570621 
L 140.564288 144.538265 
L 139.765852 144.51764 
L 138.967416 144.506632 
L 138.168979 144.503132 
L 137.370543 144.505027 
L 136.572107 144.510206 
L 135.773671 144.516558 
L 134.975235 144.52197 
L 134.176798 144.524333 
L 133.378362 144.524208 
L 132.579926 144.529093 
L 131.78149 144.5385 
L 130.983053 144.551185 
L 130.184617 144.565904 
L 129.386181 144.581413 
L 128.587745 144.596468 
L 127.789309 144.609823 
L 126.990872 144.620236 
L 126.192436 144.626462 
L 125.394 144.627255 
L 124.595564 144.621373 
L 123.797128 144.607571 
L 122.998691 144.584605 
L 122.200255 144.55123 
L 121.401819 144.498541 
L 120.603383 144.40571 
L 119.804947 144.275442 
L 119.00651 144.111931 
L 118.208074 143.919371 
L 117.409638 143.701955 
L 116.611202 143.463877 
L 115.812766 143.20933 
L 115.014329 142.942508 
L 114.215893 142.667605 
L 113.417457 142.388814 
L 112.619021 142.110328 
L 111.820584 141.836343 
L 111.022148 141.57105 
L 110.223712 141.318644 
L 109.425276 141.065777 
L 108.62684 140.775811 
L 107.828403 140.45497 
L 107.029967 140.11147 
L 106.231531 139.753524 
L 105.433095 139.389346 
L 104.634659 139.027152 
L 103.836222 138.675156 
L 103.037786 138.341571 
L 102.23935 138.034613 
L 101.440914 137.762495 
L 100.642478 137.533433 
L 99.844041 137.355641 
L 99.045605 137.237333 
L 98.247169 137.186723 
L 97.448733 137.200483 
L 96.650296 137.25531 
L 95.85186 137.344511 
L 95.053424 137.462024 
L 94.254988 137.601784 
L 93.456552 137.757726 
L 92.658115 137.923785 
L 91.859679 138.093899 
L 91.061243 138.262001 
L 90.262807 138.422027 
L 89.464371 138.567914 
L 88.665934 138.693597 
L 87.867498 138.793011 
L 87.069062 138.860092 
L 86.270626 138.888776 
L 85.47219 138.792399 
L 84.673753 138.449782 
L 83.875317 137.895816 
L 83.076881 137.168065 
L 82.278445 136.304094 
L 81.480009 135.341467 
L 80.681572 134.31775 
L 79.883136 133.270506 
L 79.0847 132.2373 
L 78.286264 131.255698 
L 77.487827 130.363262 
L 76.689391 129.597558 
L 75.890955 128.99615 
L 75.092519 128.596604 
L 74.294083 128.436483 
L 73.495646 128.455398 
L 72.69721 128.521741 
L 71.898774 128.627933 
L 71.100338 128.767533 
L 70.301902 128.934098 
L 69.503465 129.121188 
L 68.705029 129.322361 
L 67.906593 129.531176 
L 67.108157 129.74119 
L 66.309721 129.945961 
L 65.511284 130.13905 
L 64.712848 130.314013 
L 63.914412 130.464409 
L 63.115976 130.583797 
L 62.317539 130.665734 
L 61.519103 130.726013 
L 60.720667 130.788915 
L 59.922231 130.853972 
L 59.123795 130.920657 
L 58.325358 130.988443 
L 57.526922 131.056803 
L 56.728486 131.12521 
L 55.93005 131.193137 
L 55.131614 131.260057 
L 54.333177 131.325442 
L 53.534741 131.388766 
L 52.736305 131.449502 
L 51.937869 131.507123 
L 51.139433 131.561101 
L 50.340996 131.61091 
z
" clip-path="url(#pb8ca311374)" style="fill: url(#h549e69bdae)"/>
   </g>
   <g id="FillBetweenPolyCollection_4">
    <path d="M 50.340996 129.763553 
L 50.340996 131.61091 
L 51.139433 131.561101 
L 51.937869 131.507123 
L 52.736305 131.449502 
L 53.534741 131.388766 
L 54.333177 131.325442 
L 55.131614 131.260057 
L 55.93005 131.193137 
L 56.728486 131.12521 
L 57.526922 131.056803 
L 58.325358 130.988443 
L 59.123795 130.920657 
L 59.922231 130.853972 
L 60.720667 130.788915 
L 61.519103 130.726013 
L 62.317539 130.665734 
L 63.115976 130.583797 
L 63.914412 130.464409 
L 64.712848 130.314013 
L 65.511284 130.13905 
L 66.309721 129.945961 
L 67.108157 129.74119 
L 67.906593 129.531176 
L 68.705029 129.322361 
L 69.503465 129.121188 
L 70.301902 128.934098 
L 71.100338 128.767533 
L 71.898774 128.627933 
L 72.69721 128.521741 
L 73.495646 128.455398 
L 74.294083 128.436483 
L 75.092519 128.596604 
L 75.890955 128.99615 
L 76.689391 129.597558 
L 77.487827 130.363262 
L 78.286264 131.255698 
L 79.0847 132.2373 
L 79.883136 133.270506 
L 80.681572 134.31775 
L 81.480009 135.341467 
L 82.278445 136.304094 
L 83.076881 137.168065 
L 83.875317 137.895816 
L 84.673753 138.449782 
L 85.47219 138.792399 
L 86.270626 138.888776 
L 87.069062 138.860092 
L 87.867498 138.793011 
L 88.665934 138.693597 
L 89.464371 138.567914 
L 90.262807 138.422027 
L 91.061243 138.262001 
L 91.859679 138.093899 
L 92.658115 137.923785 
L 93.456552 137.757726 
L 94.254988 137.601784 
L 95.053424 137.462024 
L 95.85186 137.344511 
L 96.650296 137.25531 
L 97.448733 137.200483 
L 98.247169 137.186723 
L 99.045605 137.237333 
L 99.844041 137.355641 
L 100.642478 137.533433 
L 101.440914 137.762495 
L 102.23935 138.034613 
L 103.037786 138.341571 
L 103.836222 138.675156 
L 104.634659 139.027152 
L 105.433095 139.389346 
L 106.231531 139.753524 
L 107.029967 140.11147 
L 107.828403 140.45497 
L 108.62684 140.775811 
L 109.425276 141.065777 
L 110.223712 141.318644 
L 111.022148 141.57105 
L 111.820584 141.836343 
L 112.619021 142.110328 
L 113.417457 142.388814 
L 114.215893 142.667605 
L 115.014329 142.942508 
L 115.812766 143.20933 
L 116.611202 143.463877 
L 117.409638 143.701955 
L 118.208074 143.919371 
L 119.00651 144.111931 
L 119.804947 144.275442 
L 120.603383 144.40571 
L 121.401819 144.498541 
L 122.200255 144.55123 
L 122.998691 144.584605 
L 123.797128 144.607571 
L 124.595564 144.621373 
L 125.394 144.627255 
L 126.192436 144.626462 
L 126.990872 144.620236 
L 127.789309 144.609823 
L 128.587745 144.596468 
L 129.386181 144.581413 
L 130.184617 144.565904 
L 130.983053 144.551185 
L 131.78149 144.5385 
L 132.579926 144.529093 
L 133.378362 144.524208 
L 134.176798 144.524333 
L 134.975235 144.52197 
L 135.773671 144.516558 
L 136.572107 144.510206 
L 137.370543 144.505027 
L 138.168979 144.503132 
L 138.967416 144.506632 
L 139.765852 144.51764 
L 140.564288 144.538265 
L 141.362724 144.570621 
L 142.16116 144.616818 
L 142.959597 144.678968 
L 143.758033 144.759182 
L 144.556469 144.859572 
L 145.354905 144.98225 
L 146.153341 145.133751 
L 146.951778 145.352373 
L 147.750214 145.636509 
L 148.54865 145.973725 
L 149.347086 146.351585 
L 150.145523 146.757654 
L 150.943959 147.179498 
L 151.742395 147.60468 
L 152.540831 148.020765 
L 153.339267 148.415319 
L 154.137704 148.775906 
L 154.93614 149.090091 
L 155.734576 149.345438 
L 156.533012 149.529513 
L 157.331448 149.62988 
L 158.129885 149.637412 
L 158.928321 149.571153 
L 159.726757 149.442747 
L 160.525193 149.259913 
L 161.323629 149.030371 
L 162.122066 148.761839 
L 162.920502 148.462037 
L 163.718938 148.138683 
L 164.517374 147.799497 
L 165.31581 147.452199 
L 166.114247 147.104506 
L 166.912683 146.764138 
L 167.711119 146.438815 
L 168.509555 146.136255 
L 169.307992 145.864178 
L 170.106428 145.623266 
L 170.904864 145.377337 
L 171.7033 145.122775 
L 172.501736 144.862814 
L 173.300173 144.600687 
L 174.098609 144.339628 
L 174.897045 144.082871 
L 175.695481 143.833648 
L 176.493917 143.595194 
L 177.292354 143.370742 
L 178.09079 143.163526 
L 178.889226 142.97678 
L 179.687662 142.813736 
L 180.486098 142.67763 
L 181.284535 142.571693 
L 182.082971 142.499117 
L 182.881407 142.45968 
L 183.679843 142.448753 
L 184.47828 142.461462 
L 185.276716 142.492935 
L 186.075152 142.538298 
L 186.873588 142.592678 
L 187.672024 142.651201 
L 188.470461 142.708994 
L 189.268897 142.761185 
L 190.067333 142.802898 
L 190.865769 142.829262 
L 191.664205 142.835403 
L 192.462642 142.816448 
L 193.261078 142.767522 
L 194.059514 142.679793 
L 194.85795 142.537996 
L 195.656386 142.34894 
L 196.454823 142.121564 
L 197.253259 141.864805 
L 198.051695 141.5876 
L 198.850131 141.298889 
L 199.648568 141.007608 
L 200.447004 140.722696 
L 201.24544 140.45309 
L 202.043876 140.207729 
L 202.842312 139.995549 
L 203.640749 139.82549 
L 204.439185 139.706489 
L 205.237621 139.647484 
L 206.036057 139.660304 
L 206.834493 139.755069 
L 207.63293 139.922606 
L 208.431366 140.152512 
L 209.229802 140.434381 
L 210.028238 140.75781 
L 210.826674 141.112392 
L 211.625111 141.487724 
L 212.423547 141.873401 
L 213.221983 142.259018 
L 214.020419 142.634171 
L 214.818855 142.988455 
L 215.617292 143.311464 
L 216.415728 143.592796 
L 217.214164 143.822044 
L 218.0126 144.003768 
L 218.811037 144.176218 
L 219.609473 144.342548 
L 220.407909 144.503333 
L 221.206345 144.659144 
L 222.004781 144.810555 
L 222.803218 144.958137 
L 223.601654 145.102465 
L 224.40009 145.244109 
L 225.198526 145.383644 
L 225.996962 145.521641 
L 226.795399 145.658673 
L 227.593835 145.795313 
L 228.392271 145.932134 
L 229.190707 146.069708 
L 229.989143 146.207474 
L 230.78758 146.343181 
L 231.586016 146.477185 
L 232.384452 146.609964 
L 233.182888 146.741997 
L 233.981325 146.873765 
L 234.779761 147.005746 
L 235.578197 147.13842 
L 236.376633 147.272266 
L 237.175069 147.407763 
L 237.973506 147.545391 
L 238.771942 147.685628 
L 239.570378 147.828955 
L 240.368814 147.97585 
L 241.16725 148.126793 
L 241.965687 148.29645 
L 242.764123 148.509854 
L 243.562559 148.759711 
L 244.360995 149.037781 
L 245.159431 149.335826 
L 245.957868 149.645607 
L 246.756304 149.958884 
L 247.55474 150.267419 
L 248.353176 150.562972 
L 249.151612 150.837305 
L 249.950049 151.082179 
L 250.748485 151.289353 
L 251.546921 151.450591 
L 252.345357 151.557651 
L 253.143794 151.602296 
L 253.94223 151.590677 
L 254.740666 151.546979 
L 255.539102 151.476381 
L 256.337538 151.383668 
L 257.135975 151.27362 
L 257.934411 151.15102 
L 258.732847 151.020649 
L 259.531283 150.887289 
L 260.329719 150.755723 
L 261.128156 150.630731 
L 261.926592 150.517097 
L 262.725028 150.419602 
L 263.523464 150.343027 
L 264.3219 150.292156 
L 265.120337 150.271769 
L 265.918773 150.282504 
L 266.717209 150.318254 
L 267.515645 150.375706 
L 268.314082 150.451581 
L 269.112518 150.542602 
L 269.910954 150.645493 
L 270.70939 150.756975 
L 271.507826 150.873771 
L 272.306263 150.992605 
L 273.104699 151.110198 
L 273.903135 151.223273 
L 274.701571 151.328554 
L 275.500007 151.422762 
L 276.298444 151.502621 
L 277.09688 151.564853 
L 277.895316 151.613983 
L 278.693752 151.658281 
L 279.492188 151.697772 
L 280.290625 151.732462 
L 281.089061 151.762357 
L 281.887497 151.78746 
L 282.685933 151.807779 
L 283.484369 151.823319 
L 284.282806 151.834085 
L 285.081242 151.840081 
L 285.879678 151.841315 
L 286.678114 151.837791 
L 287.476551 151.829514 
L 288.274987 151.816491 
L 289.073423 151.798726 
L 289.073423 92.287574 
L 289.073423 92.287574 
L 288.274987 92.30695 
L 287.476551 92.324751 
L 286.678114 92.340893 
L 285.879678 92.35529 
L 285.081242 92.367856 
L 284.282806 92.378506 
L 283.484369 92.387155 
L 282.685933 92.393718 
L 281.887497 92.398107 
L 281.089061 92.40024 
L 280.290625 92.400028 
L 279.492188 92.397388 
L 278.693752 92.392234 
L 277.895316 92.38448 
L 277.09688 92.374101 
L 276.298444 92.386635 
L 275.500007 92.440734 
L 274.701571 92.532898 
L 273.903135 92.65963 
L 273.104699 92.81743 
L 272.306263 93.0028 
L 271.507826 93.212242 
L 270.70939 93.442256 
L 269.910954 93.689346 
L 269.112518 93.950011 
L 268.314082 94.220754 
L 267.515645 94.498075 
L 266.717209 94.778477 
L 265.918773 95.058461 
L 265.120337 95.334759 
L 264.3219 95.630699 
L 263.523464 95.959588 
L 262.725028 96.315714 
L 261.926592 96.693364 
L 261.128156 97.086826 
L 260.329719 97.490386 
L 259.531283 97.898332 
L 258.732847 98.304951 
L 257.934411 98.704531 
L 257.135975 99.091358 
L 256.337538 99.459721 
L 255.539102 99.803906 
L 254.740666 100.118201 
L 253.94223 100.396893 
L 253.143794 100.633997 
L 252.345357 100.811444 
L 251.546921 100.926155 
L 250.748485 100.985367 
L 249.950049 100.996316 
L 249.151612 100.966238 
L 248.353176 100.90237 
L 247.55474 100.811947 
L 246.756304 100.702207 
L 245.957868 100.580386 
L 245.159431 100.453719 
L 244.360995 100.329444 
L 243.562559 100.214796 
L 242.764123 100.117012 
L 241.965687 100.043328 
L 241.16725 99.999991 
L 240.368814 99.960301 
L 239.570378 99.910971 
L 238.771942 99.853998 
L 237.973506 99.791378 
L 237.175069 99.725108 
L 236.376633 99.657186 
L 235.578197 99.589608 
L 234.779761 99.524372 
L 233.981325 99.463473 
L 233.182888 99.40891 
L 232.384452 99.362679 
L 231.586016 99.326777 
L 230.78758 99.303201 
L 229.989143 99.293947 
L 229.190707 99.302809 
L 228.392271 99.368818 
L 227.593835 99.501532 
L 226.795399 99.693456 
L 225.996962 99.937097 
L 225.198526 100.224962 
L 224.40009 100.549557 
L 223.601654 100.903388 
L 222.803218 101.278962 
L 222.004781 101.668784 
L 221.206345 102.065362 
L 220.407909 102.461202 
L 219.609473 102.84881 
L 218.811037 103.220692 
L 218.0126 103.569355 
L 217.214164 103.886767 
L 216.415728 104.161453 
L 215.617292 104.397712 
L 214.818855 104.604082 
L 214.020419 104.789102 
L 213.221983 104.961312 
L 212.423547 105.129248 
L 211.625111 105.301451 
L 210.826674 105.48646 
L 210.028238 105.692812 
L 209.229802 105.929047 
L 208.431366 106.203704 
L 207.63293 106.525322 
L 206.834493 106.902438 
L 206.036057 107.343593 
L 205.237621 107.856706 
L 204.439185 108.437632 
L 203.640749 109.076466 
L 202.842312 109.764197 
L 202.043876 110.491816 
L 201.24544 111.250317 
L 200.447004 112.030688 
L 199.648568 112.823923 
L 198.850131 113.621012 
L 198.051695 114.412947 
L 197.253259 115.190718 
L 196.454823 115.945317 
L 195.656386 116.667736 
L 194.85795 117.348966 
L 194.059514 117.979997 
L 193.261078 118.553066 
L 192.462642 119.075983 
L 191.664205 119.557843 
L 190.865769 120.005916 
L 190.067333 120.427476 
L 189.268897 120.829794 
L 188.470461 121.220143 
L 187.672024 121.605794 
L 186.873588 121.994019 
L 186.075152 122.392091 
L 185.276716 122.807282 
L 184.47828 123.246863 
L 183.679843 123.718108 
L 182.881407 124.228287 
L 182.082971 124.784674 
L 181.284535 125.400058 
L 180.486098 126.113992 
L 179.687662 126.919077 
L 178.889226 127.798453 
L 178.09079 128.735261 
L 177.292354 129.712641 
L 176.493917 130.713735 
L 175.695481 131.721682 
L 174.897045 132.719622 
L 174.098609 133.690698 
L 173.300173 134.618049 
L 172.501736 135.484815 
L 171.7033 136.274138 
L 170.904864 136.969157 
L 170.106428 137.553014 
L 169.307992 138.028587 
L 168.509555 138.501685 
L 167.711119 138.98602 
L 166.912683 139.476035 
L 166.114247 139.966176 
L 165.31581 140.450886 
L 164.517374 140.924611 
L 163.718938 141.381794 
L 162.920502 141.81688 
L 162.122066 142.224314 
L 161.323629 142.59854 
L 160.525193 142.934002 
L 159.726757 143.225145 
L 158.928321 143.466414 
L 158.129885 143.652252 
L 157.331448 143.771631 
L 156.533012 143.799079 
L 155.734576 143.742588 
L 154.93614 143.614418 
L 154.137704 143.426828 
L 153.339267 143.192074 
L 152.540831 142.922416 
L 151.742395 142.630112 
L 150.943959 142.327421 
L 150.145523 142.026602 
L 149.347086 141.739911 
L 148.54865 141.479609 
L 147.750214 141.257953 
L 146.951778 141.087202 
L 146.153341 140.979614 
L 145.354905 140.938876 
L 144.556469 140.934865 
L 143.758033 140.959744 
L 142.959597 141.009038 
L 142.16116 141.078275 
L 141.362724 141.162981 
L 140.564288 141.258681 
L 139.765852 141.360902 
L 138.967416 141.465171 
L 138.168979 141.567013 
L 137.370543 141.661955 
L 136.572107 141.745523 
L 135.773671 141.813244 
L 134.975235 141.860643 
L 134.176798 141.883247 
L 133.378362 141.88249 
L 132.579926 141.87634 
L 131.78149 141.866571 
L 130.983053 141.853335 
L 130.184617 141.836786 
L 129.386181 141.817078 
L 128.587745 141.794365 
L 127.789309 141.768799 
L 126.990872 141.740535 
L 126.192436 141.709727 
L 125.394 141.676527 
L 124.595564 141.641089 
L 123.797128 141.603567 
L 122.998691 141.564115 
L 122.200255 141.522887 
L 121.401819 141.471981 
L 120.603383 141.389716 
L 119.804947 141.277836 
L 119.00651 141.139615 
L 118.208074 140.978325 
L 117.409638 140.797237 
L 116.611202 140.599625 
L 115.812766 140.388759 
L 115.014329 140.167913 
L 114.215893 139.940359 
L 113.417457 139.709368 
L 112.619021 139.478213 
L 111.820584 139.250167 
L 111.022148 139.028501 
L 110.223712 138.816488 
L 109.425276 138.602675 
L 108.62684 138.356305 
L 107.828403 138.082822 
L 107.029967 137.789346 
L 106.231531 137.482999 
L 105.433095 137.1709 
L 104.634659 136.86017 
L 103.836222 136.557929 
L 103.037786 136.271297 
L 102.23935 136.007395 
L 101.440914 135.773343 
L 100.642478 135.576262 
L 99.844041 135.423271 
L 99.045605 135.321492 
L 98.247169 135.278045 
L 97.448733 135.290964 
L 96.650296 135.341731 
L 95.85186 135.424203 
L 95.053424 135.532721 
L 94.254988 135.661625 
L 93.456552 135.805256 
L 92.658115 135.957953 
L 91.859679 136.114058 
L 91.061243 136.26791 
L 90.262807 136.41385 
L 89.464371 136.546218 
L 88.665934 136.659355 
L 87.867498 136.747602 
L 87.069062 136.805297 
L 86.270626 136.826783 
L 85.47219 136.724791 
L 84.673753 136.376595 
L 83.875317 135.817111 
L 83.076881 135.08396 
L 82.278445 134.214762 
L 81.480009 133.247135 
L 80.681572 132.2187 
L 79.883136 131.167078 
L 79.0847 130.129887 
L 78.286264 129.144748 
L 77.487827 128.249281 
L 76.689391 127.481106 
L 75.890955 126.877842 
L 75.092519 126.47711 
L 74.294083 126.316529 
L 73.495646 126.337416 
L 72.69721 126.41021 
L 71.898774 126.526731 
L 71.100338 126.679911 
L 70.301902 126.862684 
L 69.503465 127.067983 
L 68.705029 127.288741 
L 67.906593 127.517891 
L 67.108157 127.748367 
L 66.309721 127.973102 
L 65.511284 128.185028 
L 64.712848 128.37708 
L 63.914412 128.54219 
L 63.115976 128.673291 
L 62.317539 128.763317 
L 61.519103 128.829407 
L 60.720667 128.89798 
L 59.922231 128.968535 
L 59.123795 129.040506 
L 58.325358 129.113325 
L 57.526922 129.186426 
L 56.728486 129.259243 
L 55.93005 129.331209 
L 55.131614 129.401757 
L 54.333177 129.470322 
L 53.534741 129.536336 
L 52.736305 129.599232 
L 51.937869 129.658445 
L 51.139433 129.713408 
L 50.340996 129.763553 
z
" clip-path="url(#pb8ca311374)" style="fill: url(#h448dd59b1f)"/>
   </g>
   <g id="patch_3">
    <path d="M 38.404375 183.13 
L 38.404375 9.45 
" style="fill: none; stroke: #000000; stroke-width: 0.5; stroke-linejoin: miter; stroke-linecap: square"/>
   </g>
   <g id="patch_4">
    <path d="M 38.404375 183.13 
L 301.010044 183.13 
" style="fill: none; stroke: #000000; stroke-width: 0.5; stroke-linejoin: miter; stroke-linecap: square"/>
   </g>
   <g id="legend_1">
    <g id="patch_5">
     <path d="M 47.404375 25.95 
L 67.404375 25.95 
L 67.404375 18.95 
L 47.404375 18.95 
z
" style="fill: url(#h941298d564)"/>
    </g>
    <g id="text_17">
     <!-- Solo -->
     <g transform="translate(75.404375 25.95) scale(0.1 -0.1)">
      <defs>
       <path id="RobotoCondensed-Regular-53" d="M 2481 1150 
Q 2481 1469 2312 1656 
Q 2144 1844 1591 2042 
Q 1038 2241 713 2547 
Q 388 2853 388 3375 
Q 388 3906 741 4259 
Q 1094 4613 1691 4613 
Q 2356 4613 2706 4191 
Q 3056 3769 3056 3238 
L 2481 3238 
Q 2481 3619 2293 3869 
Q 2106 4119 1691 4119 
Q 1313 4119 1139 3908 
Q 966 3697 966 3381 
Q 966 3094 1170 2903 
Q 1375 2713 1806 2556 
Q 2475 2338 2765 2013 
Q 3056 1688 3056 1156 
Q 3056 600 2695 268 
Q 2334 -63 1719 -63 
Q 1363 -63 1028 93 
Q 694 250 480 558 
Q 266 866 266 1319 
L 841 1319 
Q 841 853 1098 640 
Q 1356 428 1719 428 
Q 2094 428 2287 623 
Q 2481 819 2481 1150 
z
" transform="scale(0.015625)"/>
       <path id="RobotoCondensed-Regular-6c" d="M 1009 4800 
L 1009 0 
L 459 0 
L 459 4800 
L 1009 4800 
z
" transform="scale(0.015625)"/>
      </defs>
      <use xlink:href="#RobotoCondensed-Regular-53"/>
      <use xlink:href="#RobotoCondensed-Regular-6f" transform="translate(51.855469 0)"/>
      <use xlink:href="#RobotoCondensed-Regular-6c" transform="translate(102.050781 0)"/>
      <use xlink:href="#RobotoCondensed-Regular-6f" transform="translate(125 0)"/>
     </g>
    </g>
    <g id="patch_6">
     <path d="M 47.404375 40.48125 
L 67.404375 40.48125 
L 67.404375 33.48125 
L 47.404375 33.48125 
z
" style="fill: url(#h5c61c3befa)"/>
    </g>
    <g id="text_18">
     <!-- Initial -->
     <g transform="translate(75.404375 40.48125) scale(0.1 -0.1)">
      <defs>
       <path id="RobotoCondensed-Regular-49" d="M 1091 4550 
L 1091 0 
L 516 0 
L 516 4550 
L 1091 4550 
z
" transform="scale(0.015625)"/>
      </defs>
      <use xlink:href="#RobotoCondensed-Regular-49"/>
      <use xlink:href="#RobotoCondensed-Regular-6e" transform="translate(25 0)"/>
      <use xlink:href="#RobotoCondensed-Regular-69" transform="translate(73.4375 0)"/>
      <use xlink:href="#RobotoCondensed-Regular-74" transform="translate(96.386719 0)"/>
      <use xlink:href="#RobotoCondensed-Regular-69" transform="translate(125.976562 0)"/>
      <use xlink:href="#RobotoCondensed-Regular-61" transform="translate(148.925781 0)"/>
      <use xlink:href="#RobotoCondensed-Regular-6c" transform="translate(196.826172 0)"/>
     </g>
    </g>
    <g id="patch_7">
     <path d="M 47.404375 55.0125 
L 67.404375 55.0125 
L 67.404375 48.0125 
L 47.404375 48.0125 
z
" style="fill: url(#h549e69bdae)"/>
    </g>
    <g id="text_19">
     <!-- Middle -->
     <g transform="translate(75.404375 55.0125) scale(0.1 -0.1)">
      <defs>
       <path id="RobotoCondensed-Regular-4d" d="M 2419 841 
L 3606 4550 
L 4341 4550 
L 4341 0 
L 3769 0 
L 3769 1775 
L 3822 3538 
L 2634 0 
L 2197 0 
L 1009 3544 
L 1063 1775 
L 1063 0 
L 491 0 
L 491 4550 
L 1228 4550 
L 2419 841 
z
" transform="scale(0.015625)"/>
       <path id="RobotoCondensed-Regular-64" d="M 2234 0 
L 2209 366 
Q 1941 -63 1425 -63 
Q 925 -63 611 331 
Q 297 725 297 1528 
L 297 1844 
Q 297 2678 609 3061 
Q 922 3444 1431 3444 
Q 1922 3444 2188 3050 
L 2188 4800 
L 2738 4800 
L 2738 0 
L 2234 0 
z
M 850 1528 
Q 850 963 1019 695 
Q 1188 428 1569 428 
Q 1981 428 2188 847 
L 2188 2544 
Q 1972 2956 1575 2956 
Q 1194 2956 1023 2687 
Q 853 2419 850 1866 
L 850 1528 
z
" transform="scale(0.015625)"/>
      </defs>
      <use xlink:href="#RobotoCondensed-Regular-4d"/>
      <use xlink:href="#RobotoCondensed-Regular-69" transform="translate(75.537109 0)"/>
      <use xlink:href="#RobotoCondensed-Regular-64" transform="translate(98.486328 0)"/>
      <use xlink:href="#RobotoCondensed-Regular-64" transform="translate(148.095703 0)"/>
      <use xlink:href="#RobotoCondensed-Regular-6c" transform="translate(197.705078 0)"/>
      <use xlink:href="#RobotoCondensed-Regular-65" transform="translate(220.654297 0)"/>
     </g>
    </g>
    <g id="patch_8">
     <path d="M 47.404375 69.54375 
L 67.404375 69.54375 
L 67.404375 62.54375 
L 47.404375 62.54375 
z
" style="fill: url(#h448dd59b1f)"/>
    </g>
    <g id="text_20">
     <!-- End -->
     <g transform="translate(75.404375 69.54375) scale(0.1 -0.1)">
      <defs>
       <path id="RobotoCondensed-Regular-45" d="M 491 0 
L 491 4550 
L 2906 4550 
L 2906 4056 
L 1066 4056 
L 1066 2594 
L 2672 2594 
L 2672 2103 
L 1066 2103 
L 1066 491 
L 2938 491 
L 2938 0 
L 491 0 
z
" transform="scale(0.015625)"/>
      </defs>
      <use xlink:href="#RobotoCondensed-Regular-45"/>
      <use xlink:href="#RobotoCondensed-Regular-6e" transform="translate(49.707031 0)"/>
      <use xlink:href="#RobotoCondensed-Regular-64" transform="translate(98.144531 0)"/>
     </g>
    </g>
   </g>
  </g>
 </g>
 <defs>
  <clipPath id="pb8ca311374">
   <rect x="38.404375" y="9.45" width="262.605669" height="173.68"/>
  </clipPath>
 </defs>
 <defs>
  <pattern id="h941298d564" patternUnits="userSpaceOnUse" x="0" y="0" width="72" height="72">
   <rect x="0" y="0" width="73" height="73" fill="#e6e6e6"/>
   <path d="M -36 36 
L 36 -36 
M -33 39 
L 39 -33 
M -30 42 
L 42 -30 
M -27 45 
L 45 -27 
M -24 48 
L 48 -24 
M -21 51 
L 51 -21 
M -18 54 
L 54 -18 
M -15 57 
L 57 -15 
M -12 60 
L 60 -12 
M -9 63 
L 63 -9 
M -6 66 
L 66 -6 
M -3 69 
L 69 -3 
M 0 72 
L 72 0 
M 3 75 
L 75 3 
M 6 78 
L 78 6 
M 9 81 
L 81 9 
M 12 84 
L 84 12 
M 15 87 
L 87 15 
M 18 90 
L 90 18 
M 21 93 
L 93 21 
M 24 96 
L 96 24 
M 27 99 
L 99 27 
M 30 102 
L 102 30 
M 33 105 
L 105 33 
M 36 108 
L 108 36 
" style="fill: #000000; stroke: #000000; stroke-width: 1.5; stroke-linecap: butt; stroke-linejoin: miter"/>
  </pattern>
  <pattern id="h5c61c3befa" patternUnits="userSpaceOnUse" x="0" y="0" width="72" height="72">
   <rect x="0" y="0" width="73" height="73" fill="#adadad"/>
   <path d="M -36 36 
L 36 108 
M -30 30 
L 42 102 
M -24 24 
L 48 96 
M -18 18 
L 54 90 
M -12 12 
L 60 84 
M -6 6 
L 66 78 
M 0 0 
L 72 72 
M 6 -6 
L 78 66 
M 12 -12 
L 84 60 
M 18 -18 
L 90 54 
M 24 -24 
L 96 48 
M 30 -30 
L 102 42 
M 36 -36 
L 108 36 
" style="fill: #000000; stroke: #000000; stroke-width: 1.5; stroke-linecap: butt; stroke-linejoin: miter"/>
  </pattern>
  <pattern id="h549e69bdae" patternUnits="userSpaceOnUse" x="0" y="0" width="72" height="72">
   <rect x="0" y="0" width="73" height="73" fill="#737373"/>
   <path d="M -36 36 
L 36 -36 
M -33 39 
L 39 -33 
M -30 42 
L 42 -30 
M -27 45 
L 45 -27 
M -24 48 
L 48 -24 
M -21 51 
L 51 -21 
M -18 54 
L 54 -18 
M -15 57 
L 57 -15 
M -12 60 
L 60 -12 
M -9 63 
L 63 -9 
M -6 66 
L 66 -6 
M -3 69 
L 69 -3 
M 0 72 
L 72 0 
M 3 75 
L 75 3 
M 6 78 
L 78 6 
M 9 81 
L 81 9 
M 12 84 
L 84 12 
M 15 87 
L 87 15 
M 18 90 
L 90 18 
M 21 93 
L 93 21 
M 24 96 
L 96 24 
M 27 99 
L 99 27 
M 30 102 
L 102 30 
M 33 105 
L 105 33 
M 36 108 
L 108 36 
M -36 36 
L 36 108 
M -33 33 
L 39 105 
M -30 30 
L 42 102 
M -27 27 
L 45 99 
M -24 24 
L 48 96 
M -21 21 
L 51 93 
M -18 18 
L 54 90 
M -15 15 
L 57 87 
M -12 12 
L 60 84 
M -9 9 
L 63 81 
M -6 6 
L 66 78 
M -3 3 
L 69 75 
M 0 0 
L 72 72 
M 3 -3 
L 75 69 
M 6 -6 
L 78 66 
M 9 -9 
L 81 63 
M 12 -12 
L 84 60 
M 15 -15 
L 87 57 
M 18 -18 
L 90 54 
M 21 -21 
L 93 51 
M 24 -24 
L 96 48 
M 27 -27 
L 99 45 
M 30 -30 
L 102 42 
M 33 -33 
L 105 39 
M 36 -36 
L 108 36 
" style="fill: #000000; stroke: #000000; stroke-width: 1.5; stroke-linecap: butt; stroke-linejoin: miter"/>
  </pattern>
  <pattern id="h448dd59b1f" patternUnits="userSpaceOnUse" x="0" y="0" width="72" height="72">
   <rect x="0" y="0" width="73" height="73" fill="#383838"/>
   <path d="M 0 70.5 
L 72 70.5 
M 0 67.5 
L 72 67.5 
M 0 64.5 
L 72 64.5 
M 0 61.5 
L 72 61.5 
M 0 58.5 
L 72 58.5 
M 0 55.5 
L 72 55.5 
M 0 52.5 
L 72 52.5 
M 0 49.5 
L 72 49.5 
M 0 46.5 
L 72 46.5 
M 0 43.5 
L 72 43.5 
M 0 40.5 
L 72 40.5 
M 0 37.5 
L 72 37.5 
M 0 34.5 
L 72 34.5 
M 0 31.5 
L 72 31.5 
M 0 28.5 
L 72 28.5 
M 0 25.5 
L 72 25.5 
M 0 22.5 
L 72 22.5 
M 0 19.5 
L 72 19.5 
M 0 16.5 
L 72 16.5 
M 0 13.5 
L 72 13.5 
M 0 10.5 
L 72 10.5 
M 0 7.5 
L 72 7.5 
M 0 4.5 
L 72 4.5 
M 0 1.5 
L 72 1.5 
" style="fill: #000000; stroke: #000000; stroke-width: 1.5; stroke-linecap: butt; stroke-linejoin: miter"/>
  </pattern>
 </defs>
</svg>
