<?xml version="1.0" encoding="utf-8" standalone="no"?>
<!DOCTYPE svg PUBLIC "-//W3C//DTD SVG 1.1//EN"
  "http://www.w3.org/Graphics/SVG/1.1/DTD/svg11.dtd">
<svg xmlns:xlink="http://www.w3.org/1999/xlink" width="313.092857pt" height="216.150625pt" viewBox="0 0 313.092857 216.150625" xmlns="http://www.w3.org/2000/svg" version="1.1">
 <metadata>
  <rdf:RDF xmlns:dc="http://purl.org/dc/elements/1.1/" xmlns:cc="http://creativecommons.org/ns#" xmlns:rdf="http://www.w3.org/1999/02/22-rdf-syntax-ns#">
   <cc:Work>
    <dc:type rdf:resource="http://purl.org/dc/dcmitype/StillImage"/>
    <dc:date>2026-04-28T10:06:41.055980</dc:date>
    <dc:format>image/svg+xml</dc:format>
    <dc:creator>
     <cc:Agent>
      <dc:title>Matplotlib v3.10.7, https://matplotlib.org/</dc:title>
     </cc:Agent>
    </dc:creator>
   </cc:Work>
  </rdf:RDF>
 </metadata>
 <defs>
  <style type="text/css">*{stroke-linejoin: round; stroke-linecap: butt}</style>
 </defs>
 <g id="figure_1">
  <g id="patch_1">
   <path d="M 0 216.150625 
L 313.092857 216.150625 
L 313.092857 0 
L 0 0 
z
" style="fill: #ffffff"/>
  </g>
  <g id="axes_1">
   <g id="patch_2">
    <path d="M 35.339063 185.56 
L 299.969732 185.56 
L 299.969732 7.2 
L 35.339063 7.2 
z
" style="fill: #ffffff"/>
   </g>
   <g id="matplotlib.axis_1">
    <g id="xtick_1">
     <g id="line2d_1">
      <defs>
       <path id="me22d774946" d="M 0 0 
L 0 3.5 
" style="stroke: #000000; stroke-width: 0.8"/>
      </defs>
      <g>
       <use xlink:href="#me22d774946" x="59.396396" y="185.56" style="stroke: #000000; stroke-width: 0.8"/>
      </g>
     </g>
     <g id="text_1">
      <!-- 2005 -->
      <g transform="translate(53.473271 197.06) scale(0.06 -0.06)">
       <defs>
        <path id="RobotoCondensed-Regular-32" d="M 2909 475 
L 2909 0 
L 366 0 
L 366 416 
L 1628 2088 
Q 1966 2541 2077 2802 
Q 2188 3063 2188 3328 
Q 2188 3663 2027 3900 
Q 1866 4138 1575 4138 
Q 1194 4138 1022 3878 
Q 850 3619 850 3213 
L 297 3213 
Q 297 3788 617 4200 
Q 938 4613 1575 4613 
Q 2125 4613 2433 4278 
Q 2741 3944 2741 3397 
Q 2741 2997 2541 2594 
Q 2341 2191 2047 1809 
L 1028 475 
L 2909 475 
z
" transform="scale(0.015625)"/>
        <path id="RobotoCondensed-Regular-30" d="M 2797 1944 
Q 2797 825 2467 381 
Q 2138 -63 1581 -63 
Q 1038 -63 703 370 
Q 369 803 359 1878 
L 359 2638 
Q 359 3753 695 4183 
Q 1031 4613 1578 4613 
Q 2131 4613 2461 4189 
Q 2791 3766 2797 2681 
L 2797 1944 
z
M 2247 2734 
Q 2247 3503 2073 3822 
Q 1900 4141 1578 4141 
Q 1266 4141 1092 3833 
Q 919 3525 913 2791 
L 913 1850 
Q 913 1088 1089 750 
Q 1266 413 1581 413 
Q 1903 413 2072 738 
Q 2241 1063 2247 1794 
L 2247 2734 
z
" transform="scale(0.015625)"/>
        <path id="RobotoCondensed-Regular-35" d="M 1034 2166 
L 594 2284 
L 788 4550 
L 2769 4550 
L 2769 4016 
L 1253 4016 
L 1147 2778 
Q 1438 2975 1753 2975 
Q 2288 2975 2591 2561 
Q 2894 2147 2894 1450 
Q 2894 797 2584 367 
Q 2275 -63 1656 -63 
Q 1194 -63 850 248 
Q 506 559 453 1197 
L 975 1197 
Q 1066 413 1656 413 
Q 1978 413 2159 691 
Q 2341 969 2341 1444 
Q 2341 1872 2153 2164 
Q 1966 2456 1619 2456 
Q 1384 2456 1273 2378 
Q 1163 2300 1034 2166 
z
" transform="scale(0.015625)"/>
       </defs>
       <use xlink:href="#RobotoCondensed-Regular-32"/>
       <use xlink:href="#RobotoCondensed-Regular-30" transform="translate(49.365234 0)"/>
       <use xlink:href="#RobotoCondensed-Regular-30" transform="translate(98.730469 0)"/>
       <use xlink:href="#RobotoCondensed-Regular-35" transform="translate(148.095703 0)"/>
      </g>
     </g>
    </g>
    <g id="xtick_2">
     <g id="line2d_2">
      <g>
       <use xlink:href="#me22d774946" x="89.468063" y="185.56" style="stroke: #000000; stroke-width: 0.8"/>
      </g>
     </g>
     <g id="text_2">
      <!-- 2007 -->
      <g transform="translate(83.544938 197.06) scale(0.06 -0.06)">
       <defs>
        <path id="RobotoCondensed-Regular-37" d="M 2878 4550 
L 2878 4225 
L 1313 0 
L 731 0 
L 2297 4075 
L 269 4075 
L 269 4550 
L 2878 4550 
z
" transform="scale(0.015625)"/>
       </defs>
       <use xlink:href="#RobotoCondensed-Regular-32"/>
       <use xlink:href="#RobotoCondensed-Regular-30" transform="translate(49.365234 0)"/>
       <use xlink:href="#RobotoCondensed-Regular-30" transform="translate(98.730469 0)"/>
       <use xlink:href="#RobotoCondensed-Regular-37" transform="translate(148.095703 0)"/>
      </g>
     </g>
    </g>
    <g id="xtick_3">
     <g id="line2d_3">
      <g>
       <use xlink:href="#me22d774946" x="119.53973" y="185.56" style="stroke: #000000; stroke-width: 0.8"/>
      </g>
     </g>
     <g id="text_3">
      <!-- 2010 -->
      <g transform="translate(113.616605 197.06) scale(0.06 -0.06)">
       <defs>
        <path id="RobotoCondensed-Regular-31" d="M 2013 4575 
L 2013 0 
L 1459 0 
L 1459 3853 
L 503 3428 
L 503 3950 
L 1928 4575 
L 2013 4575 
z
" transform="scale(0.015625)"/>
       </defs>
       <use xlink:href="#RobotoCondensed-Regular-32"/>
       <use xlink:href="#RobotoCondensed-Regular-30" transform="translate(49.365234 0)"/>
       <use xlink:href="#RobotoCondensed-Regular-31" transform="translate(98.730469 0)"/>
       <use xlink:href="#RobotoCondensed-Regular-30" transform="translate(148.095703 0)"/>
      </g>
     </g>
    </g>
    <g id="xtick_4">
     <g id="line2d_4">
      <g>
       <use xlink:href="#me22d774946" x="149.611397" y="185.56" style="stroke: #000000; stroke-width: 0.8"/>
      </g>
     </g>
     <g id="text_4">
      <!-- 2012 -->
      <g transform="translate(143.688272 197.06) scale(0.06 -0.06)">
       <use xlink:href="#RobotoCondensed-Regular-32"/>
       <use xlink:href="#RobotoCondensed-Regular-30" transform="translate(49.365234 0)"/>
       <use xlink:href="#RobotoCondensed-Regular-31" transform="translate(98.730469 0)"/>
       <use xlink:href="#RobotoCondensed-Regular-32" transform="translate(148.095703 0)"/>
      </g>
     </g>
    </g>
    <g id="xtick_5">
     <g id="line2d_5">
      <g>
       <use xlink:href="#me22d774946" x="179.683064" y="185.56" style="stroke: #000000; stroke-width: 0.8"/>
      </g>
     </g>
     <g id="text_5">
      <!-- 2015 -->
      <g transform="translate(173.759939 197.06) scale(0.06 -0.06)">
       <use xlink:href="#RobotoCondensed-Regular-32"/>
       <use xlink:href="#RobotoCondensed-Regular-30" transform="translate(49.365234 0)"/>
       <use xlink:href="#RobotoCondensed-Regular-31" transform="translate(98.730469 0)"/>
       <use xlink:href="#RobotoCondensed-Regular-35" transform="translate(148.095703 0)"/>
      </g>
     </g>
    </g>
    <g id="xtick_6">
     <g id="line2d_6">
      <g>
       <use xlink:href="#me22d774946" x="209.754731" y="185.56" style="stroke: #000000; stroke-width: 0.8"/>
      </g>
     </g>
     <g id="text_6">
      <!-- 2017 -->
      <g transform="translate(203.831606 197.06) scale(0.06 -0.06)">
       <use xlink:href="#RobotoCondensed-Regular-32"/>
       <use xlink:href="#RobotoCondensed-Regular-30" transform="translate(49.365234 0)"/>
       <use xlink:href="#RobotoCondensed-Regular-31" transform="translate(98.730469 0)"/>
       <use xlink:href="#RobotoCondensed-Regular-37" transform="translate(148.095703 0)"/>
      </g>
     </g>
    </g>
    <g id="xtick_7">
     <g id="line2d_7">
      <g>
       <use xlink:href="#me22d774946" x="239.826398" y="185.56" style="stroke: #000000; stroke-width: 0.8"/>
      </g>
     </g>
     <g id="text_7">
      <!-- 2020 -->
      <g transform="translate(233.903273 197.06) scale(0.06 -0.06)">
       <use xlink:href="#RobotoCondensed-Regular-32"/>
       <use xlink:href="#RobotoCondensed-Regular-30" transform="translate(49.365234 0)"/>
       <use xlink:href="#RobotoCondensed-Regular-32" transform="translate(98.730469 0)"/>
       <use xlink:href="#RobotoCondensed-Regular-30" transform="translate(148.095703 0)"/>
      </g>
     </g>
    </g>
    <g id="xtick_8">
     <g id="line2d_8">
      <g>
       <use xlink:href="#me22d774946" x="269.898065" y="185.56" style="stroke: #000000; stroke-width: 0.8"/>
      </g>
     </g>
     <g id="text_8">
      <!-- 2022 -->
      <g transform="translate(263.97494 197.06) scale(0.06 -0.06)">
       <use xlink:href="#RobotoCondensed-Regular-32"/>
       <use xlink:href="#RobotoCondensed-Regular-30" transform="translate(49.365234 0)"/>
       <use xlink:href="#RobotoCondensed-Regular-32" transform="translate(98.730469 0)"/>
       <use xlink:href="#RobotoCondensed-Regular-32" transform="translate(148.095703 0)"/>
      </g>
     </g>
    </g>
    <g id="xtick_9">
     <g id="line2d_9">
      <g>
       <use xlink:href="#me22d774946" x="299.969732" y="185.56" style="stroke: #000000; stroke-width: 0.8"/>
      </g>
     </g>
     <g id="text_9">
      <!-- 2025 -->
      <g transform="translate(294.046607 197.06) scale(0.06 -0.06)">
       <use xlink:href="#RobotoCondensed-Regular-32"/>
       <use xlink:href="#RobotoCondensed-Regular-30" transform="translate(49.365234 0)"/>
       <use xlink:href="#RobotoCondensed-Regular-32" transform="translate(98.730469 0)"/>
       <use xlink:href="#RobotoCondensed-Regular-35" transform="translate(148.095703 0)"/>
      </g>
     </g>
    </g>
    <g id="text_10">
     <!-- Year -->
     <g transform="translate(161.433694 207.52875) scale(0.07 -0.07)">
      <defs>
       <path id="RobotoCondensed-Regular-59" d="M 747 4550 
L 1675 2266 
L 2606 4550 
L 3256 4550 
L 1963 1700 
L 1963 0 
L 1388 0 
L 1388 1700 
L 94 4550 
L 747 4550 
z
" transform="scale(0.015625)"/>
       <path id="RobotoCondensed-Regular-65" d="M 2722 447 
Q 2584 253 2323 95 
Q 2063 -63 1625 -63 
Q 1019 -63 666 301 
Q 313 666 309 1431 
L 309 1828 
Q 309 2722 696 3083 
Q 1084 3444 1563 3444 
Q 2197 3444 2472 3034 
Q 2747 2625 2747 1850 
L 2747 1528 
L 863 1528 
L 863 1447 
Q 863 906 1067 657 
Q 1272 409 1656 409 
Q 1934 409 2114 517 
Q 2294 625 2431 794 
L 2722 447 
z
M 1563 2969 
Q 1275 2969 1084 2770 
Q 894 2572 866 2000 
L 2194 2000 
L 2194 2078 
Q 2172 2469 2048 2719 
Q 1925 2969 1563 2969 
z
" transform="scale(0.015625)"/>
       <path id="RobotoCondensed-Regular-61" d="M 2156 0 
Q 2103 122 2081 366 
Q 1966 194 1775 65 
Q 1584 -63 1334 -63 
Q 891 -63 623 187 
Q 356 438 356 922 
Q 356 1409 690 1729 
Q 1025 2050 1691 2050 
L 2072 2050 
L 2072 2413 
Q 2072 2713 1936 2841 
Q 1800 2969 1528 2969 
Q 1263 2969 1114 2812 
Q 966 2656 966 2444 
L 413 2444 
Q 413 2806 722 3125 
Q 1031 3444 1556 3444 
Q 2025 3444 2325 3209 
Q 2625 2975 2625 2406 
L 2625 794 
Q 2625 316 2728 50 
L 2728 0 
L 2156 0 
z
M 1419 441 
Q 1653 441 1825 562 
Q 1997 684 2072 834 
L 2072 1644 
L 1781 1644 
Q 1384 1644 1146 1475 
Q 909 1306 909 991 
Q 909 688 1036 564 
Q 1163 441 1419 441 
z
" transform="scale(0.015625)"/>
       <path id="RobotoCondensed-Regular-72" d="M 1563 2888 
Q 1138 2888 969 2425 
L 969 0 
L 416 0 
L 416 3381 
L 950 3381 
L 963 3041 
Q 1184 3444 1591 3444 
Q 1738 3444 1809 3400 
L 1813 2863 
Q 1691 2888 1563 2888 
z
" transform="scale(0.015625)"/>
      </defs>
      <use xlink:href="#RobotoCondensed-Regular-59"/>
      <use xlink:href="#RobotoCondensed-Regular-65" transform="translate(52.490234 0)"/>
      <use xlink:href="#RobotoCondensed-Regular-61" transform="translate(99.365234 0)"/>
      <use xlink:href="#RobotoCondensed-Regular-72" transform="translate(147.265625 0)"/>
     </g>
    </g>
   </g>
   <g id="matplotlib.axis_2">
    <g id="ytick_1">
     <g id="line2d_10">
      <path d="M 35.339063 181.364315 
L 299.969732 181.364315 
" clip-path="url(#pd9d049840f)" style="fill: none; stroke: #808080; stroke-opacity: 0.3; stroke-width: 0.4; stroke-linecap: square"/>
     </g>
     <g id="line2d_11">
      <defs>
       <path id="m581b0ffecf" d="M 0 0 
L -3.5 0 
" style="stroke: #000000; stroke-width: 0.8"/>
      </defs>
      <g>
       <use xlink:href="#m581b0ffecf" x="35.339063" y="181.364315" style="stroke: #000000; stroke-width: 0.8"/>
      </g>
     </g>
     <g id="text_11">
      <!-- 0.01 -->
      <g transform="translate(17.871875 183.614315) scale(0.06 -0.06)">
       <defs>
        <path id="RobotoCondensed-Regular-2e" d="M 450 306 
Q 450 453 542 554 
Q 634 656 809 656 
Q 984 656 1076 554 
Q 1169 453 1169 306 
Q 1169 163 1076 62 
Q 984 -38 809 -38 
Q 634 -38 542 62 
Q 450 163 450 306 
z
" transform="scale(0.015625)"/>
       </defs>
       <use xlink:href="#RobotoCondensed-Regular-30"/>
       <use xlink:href="#RobotoCondensed-Regular-2e" transform="translate(49.365234 0)"/>
       <use xlink:href="#RobotoCondensed-Regular-30" transform="translate(75.732422 0)"/>
       <use xlink:href="#RobotoCondensed-Regular-31" transform="translate(125.097656 0)"/>
      </g>
     </g>
    </g>
    <g id="ytick_2">
     <g id="line2d_12">
      <path d="M 35.339063 154.80534 
L 299.969732 154.80534 
" clip-path="url(#pd9d049840f)" style="fill: none; stroke: #808080; stroke-opacity: 0.3; stroke-width: 0.4; stroke-linecap: square"/>
     </g>
     <g id="line2d_13">
      <g>
       <use xlink:href="#m581b0ffecf" x="35.339063" y="154.80534" style="stroke: #000000; stroke-width: 0.8"/>
      </g>
     </g>
     <g id="text_12">
      <!-- 0.02 -->
      <g transform="translate(17.871875 157.05534) scale(0.06 -0.06)">
       <use xlink:href="#RobotoCondensed-Regular-30"/>
       <use xlink:href="#RobotoCondensed-Regular-2e" transform="translate(49.365234 0)"/>
       <use xlink:href="#RobotoCondensed-Regular-30" transform="translate(75.732422 0)"/>
       <use xlink:href="#RobotoCondensed-Regular-32" transform="translate(125.097656 0)"/>
      </g>
     </g>
    </g>
    <g id="ytick_3">
     <g id="line2d_14">
      <path d="M 35.339063 128.246365 
L 299.969732 128.246365 
" clip-path="url(#pd9d049840f)" style="fill: none; stroke: #808080; stroke-opacity: 0.3; stroke-width: 0.4; stroke-linecap: square"/>
     </g>
     <g id="line2d_15">
      <g>
       <use xlink:href="#m581b0ffecf" x="35.339063" y="128.246365" style="stroke: #000000; stroke-width: 0.8"/>
      </g>
     </g>
     <g id="text_13">
      <!-- 0.03 -->
      <g transform="translate(17.871875 130.496365) scale(0.06 -0.06)">
       <defs>
        <path id="RobotoCondensed-Regular-33" d="M 1075 2084 
L 1075 2559 
L 1431 2559 
Q 1788 2559 1961 2781 
Q 2134 3003 2134 3338 
Q 2134 4138 1519 4138 
Q 1228 4138 1054 3927 
Q 881 3716 881 3359 
L 331 3359 
Q 331 3881 653 4247 
Q 975 4613 1519 4613 
Q 2038 4613 2363 4286 
Q 2688 3959 2688 3325 
Q 2688 3072 2550 2786 
Q 2413 2500 2100 2338 
Q 2484 2194 2612 1886 
Q 2741 1578 2741 1269 
Q 2741 631 2389 284 
Q 2038 -63 1516 -63 
Q 1006 -63 656 267 
Q 306 597 306 1203 
L 859 1203 
Q 859 844 1032 628 
Q 1206 413 1516 413 
Q 1822 413 2005 622 
Q 2188 831 2188 1256 
Q 2188 2084 1403 2084 
L 1075 2084 
z
" transform="scale(0.015625)"/>
       </defs>
       <use xlink:href="#RobotoCondensed-Regular-30"/>
       <use xlink:href="#RobotoCondensed-Regular-2e" transform="translate(49.365234 0)"/>
       <use xlink:href="#RobotoCondensed-Regular-30" transform="translate(75.732422 0)"/>
       <use xlink:href="#RobotoCondensed-Regular-33" transform="translate(125.097656 0)"/>
      </g>
     </g>
    </g>
    <g id="ytick_4">
     <g id="line2d_16">
      <path d="M 35.339063 101.68739 
L 299.969732 101.68739 
" clip-path="url(#pd9d049840f)" style="fill: none; stroke: #808080; stroke-opacity: 0.3; stroke-width: 0.4; stroke-linecap: square"/>
     </g>
     <g id="line2d_17">
      <g>
       <use xlink:href="#m581b0ffecf" x="35.339063" y="101.68739" style="stroke: #000000; stroke-width: 0.8"/>
      </g>
     </g>
     <g id="text_14">
      <!-- 0.04 -->
      <g transform="translate(17.871875 103.93739) scale(0.06 -0.06)">
       <defs>
        <path id="RobotoCondensed-Regular-34" d="M 188 1397 
L 1878 4550 
L 2463 4550 
L 2463 1531 
L 2969 1531 
L 2969 1056 
L 2463 1056 
L 2463 0 
L 1909 0 
L 1909 1056 
L 188 1056 
L 188 1397 
z
M 803 1531 
L 1909 1531 
L 1909 3703 
L 1878 3638 
L 803 1531 
z
" transform="scale(0.015625)"/>
       </defs>
       <use xlink:href="#RobotoCondensed-Regular-30"/>
       <use xlink:href="#RobotoCondensed-Regular-2e" transform="translate(49.365234 0)"/>
       <use xlink:href="#RobotoCondensed-Regular-30" transform="translate(75.732422 0)"/>
       <use xlink:href="#RobotoCondensed-Regular-34" transform="translate(125.097656 0)"/>
      </g>
     </g>
    </g>
    <g id="ytick_5">
     <g id="line2d_18">
      <path d="M 35.339063 75.128415 
L 299.969732 75.128415 
" clip-path="url(#pd9d049840f)" style="fill: none; stroke: #808080; stroke-opacity: 0.3; stroke-width: 0.4; stroke-linecap: square"/>
     </g>
     <g id="line2d_19">
      <g>
       <use xlink:href="#m581b0ffecf" x="35.339063" y="75.128415" style="stroke: #000000; stroke-width: 0.8"/>
      </g>
     </g>
     <g id="text_15">
      <!-- 0.05 -->
      <g transform="translate(17.871875 77.378415) scale(0.06 -0.06)">
       <use xlink:href="#RobotoCondensed-Regular-30"/>
       <use xlink:href="#RobotoCondensed-Regular-2e" transform="translate(49.365234 0)"/>
       <use xlink:href="#RobotoCondensed-Regular-30" transform="translate(75.732422 0)"/>
       <use xlink:href="#RobotoCondensed-Regular-35" transform="translate(125.097656 0)"/>
      </g>
     </g>
    </g>
    <g id="ytick_6">
     <g id="line2d_20">
      <path d="M 35.339063 48.56944 
L 299.969732 48.56944 
" clip-path="url(#pd9d049840f)" style="fill: none; stroke: #808080; stroke-opacity: 0.3; stroke-width: 0.4; stroke-linecap: square"/>
     </g>
     <g id="line2d_21">
      <g>
       <use xlink:href="#m581b0ffecf" x="35.339063" y="48.56944" style="stroke: #000000; stroke-width: 0.8"/>
      </g>
     </g>
     <g id="text_16">
      <!-- 0.06 -->
      <g transform="translate(17.871875 50.81944) scale(0.06 -0.06)">
       <defs>
        <path id="RobotoCondensed-Regular-36" d="M 2847 1484 
Q 2847 838 2544 387 
Q 2241 -63 1641 -63 
Q 1216 -63 944 198 
Q 672 459 542 861 
Q 413 1263 413 1684 
L 413 1956 
Q 413 2438 481 2900 
Q 550 3363 742 3738 
Q 934 4113 1296 4334 
Q 1659 4556 2291 4556 
L 2291 4066 
Q 1775 4066 1508 3859 
Q 1241 3653 1122 3318 
Q 1003 2984 978 2606 
Q 1272 2984 1750 2984 
Q 2138 2984 2380 2765 
Q 2622 2547 2734 2201 
Q 2847 1856 2847 1484 
z
M 969 1666 
Q 969 1059 1180 737 
Q 1391 416 1641 416 
Q 1959 416 2129 708 
Q 2300 1000 2300 1456 
Q 2300 1863 2144 2184 
Q 1988 2506 1659 2506 
Q 1425 2506 1236 2329 
Q 1047 2153 969 1900 
L 969 1666 
z
" transform="scale(0.015625)"/>
       </defs>
       <use xlink:href="#RobotoCondensed-Regular-30"/>
       <use xlink:href="#RobotoCondensed-Regular-2e" transform="translate(49.365234 0)"/>
       <use xlink:href="#RobotoCondensed-Regular-30" transform="translate(75.732422 0)"/>
       <use xlink:href="#RobotoCondensed-Regular-36" transform="translate(125.097656 0)"/>
      </g>
     </g>
    </g>
    <g id="ytick_7">
     <g id="line2d_22">
      <path d="M 35.339063 22.010465 
L 299.969732 22.010465 
" clip-path="url(#pd9d049840f)" style="fill: none; stroke: #808080; stroke-opacity: 0.3; stroke-width: 0.4; stroke-linecap: square"/>
     </g>
     <g id="line2d_23">
      <g>
       <use xlink:href="#m581b0ffecf" x="35.339063" y="22.010465" style="stroke: #000000; stroke-width: 0.8"/>
      </g>
     </g>
     <g id="text_17">
      <!-- 0.07 -->
      <g transform="translate(17.871875 24.260465) scale(0.06 -0.06)">
       <use xlink:href="#RobotoCondensed-Regular-30"/>
       <use xlink:href="#RobotoCondensed-Regular-2e" transform="translate(49.365234 0)"/>
       <use xlink:href="#RobotoCondensed-Regular-30" transform="translate(75.732422 0)"/>
       <use xlink:href="#RobotoCondensed-Regular-37" transform="translate(125.097656 0)"/>
      </g>
     </g>
    </g>
    <g id="text_18">
     <!-- Genderedness -->
     <g transform="translate(12.45 116.132578) rotate(-90) scale(0.07 -0.07)">
      <defs>
       <path id="RobotoCondensed-Regular-47" d="M 3341 2266 
L 3341 569 
Q 3266 469 3114 319 
Q 2963 169 2691 53 
Q 2419 -63 1978 -63 
Q 1272 -63 830 412 
Q 388 888 388 1850 
L 388 2703 
Q 388 3656 770 4134 
Q 1153 4613 1919 4613 
Q 2581 4613 2943 4244 
Q 3306 3875 3341 3219 
L 2766 3219 
Q 2731 3641 2529 3880 
Q 2328 4119 1919 4119 
Q 1400 4119 1183 3773 
Q 966 3428 963 2731 
L 963 1850 
Q 963 1125 1239 776 
Q 1516 428 1981 428 
Q 2378 428 2537 547 
Q 2697 666 2769 728 
L 2769 1778 
L 1934 1778 
L 1934 2266 
L 3341 2266 
z
" transform="scale(0.015625)"/>
       <path id="RobotoCondensed-Regular-6e" d="M 1603 2956 
Q 1400 2956 1236 2818 
Q 1072 2681 969 2459 
L 969 0 
L 416 0 
L 416 3381 
L 938 3381 
L 953 3022 
Q 1275 3444 1775 3444 
Q 2191 3444 2437 3162 
Q 2684 2881 2684 2216 
L 2684 0 
L 2131 0 
L 2131 2222 
Q 2131 2619 2000 2787 
Q 1869 2956 1603 2956 
z
" transform="scale(0.015625)"/>
       <path id="RobotoCondensed-Regular-64" d="M 2234 0 
L 2209 366 
Q 1941 -63 1425 -63 
Q 925 -63 611 331 
Q 297 725 297 1528 
L 297 1844 
Q 297 2678 609 3061 
Q 922 3444 1431 3444 
Q 1922 3444 2188 3050 
L 2188 4800 
L 2738 4800 
L 2738 0 
L 2234 0 
z
M 850 1528 
Q 850 963 1019 695 
Q 1188 428 1569 428 
Q 1981 428 2188 847 
L 2188 2544 
Q 1972 2956 1575 2956 
Q 1194 2956 1023 2687 
Q 853 2419 850 1866 
L 850 1528 
z
" transform="scale(0.015625)"/>
       <path id="RobotoCondensed-Regular-73" d="M 2056 866 
Q 2056 1059 1907 1190 
Q 1759 1322 1340 1500 
Q 922 1678 681 1863 
Q 409 2072 409 2484 
Q 409 2888 703 3166 
Q 997 3444 1481 3444 
Q 2000 3444 2287 3150 
Q 2575 2856 2575 2419 
L 2025 2419 
Q 2025 2628 1884 2798 
Q 1744 2969 1481 2969 
Q 1203 2969 1083 2828 
Q 963 2688 963 2503 
Q 963 2319 1081 2217 
Q 1200 2116 1553 1959 
Q 2066 1756 2337 1537 
Q 2609 1319 2609 909 
Q 2609 463 2303 200 
Q 1997 -63 1494 -63 
Q 919 -63 616 265 
Q 313 594 313 1013 
L 866 1013 
Q 881 653 1081 533 
Q 1281 413 1494 413 
Q 2056 413 2056 866 
z
" transform="scale(0.015625)"/>
      </defs>
      <use xlink:href="#RobotoCondensed-Regular-47"/>
      <use xlink:href="#RobotoCondensed-Regular-65" transform="translate(59.082031 0)"/>
      <use xlink:href="#RobotoCondensed-Regular-6e" transform="translate(105.957031 0)"/>
      <use xlink:href="#RobotoCondensed-Regular-64" transform="translate(154.394531 0)"/>
      <use xlink:href="#RobotoCondensed-Regular-65" transform="translate(204.003906 0)"/>
      <use xlink:href="#RobotoCondensed-Regular-72" transform="translate(250.878906 0)"/>
      <use xlink:href="#RobotoCondensed-Regular-65" transform="translate(281.347656 0)"/>
      <use xlink:href="#RobotoCondensed-Regular-64" transform="translate(328.222656 0)"/>
      <use xlink:href="#RobotoCondensed-Regular-6e" transform="translate(377.832031 0)"/>
      <use xlink:href="#RobotoCondensed-Regular-65" transform="translate(426.269531 0)"/>
      <use xlink:href="#RobotoCondensed-Regular-73" transform="translate(473.144531 0)"/>
      <use xlink:href="#RobotoCondensed-Regular-73" transform="translate(518.75 0)"/>
     </g>
    </g>
   </g>
   <g id="line2d_24">
    <path d="M 47.367729 104.259919 
L 49.781509 104.351653 
L 52.999881 104.730591 
L 56.218253 105.35115 
L 59.436626 106.157304 
L 60.241219 106.52324 
L 61.045812 107.127832 
L 61.850405 107.93165 
L 63.459591 109.979244 
L 68.28715 116.802708 
L 69.091743 117.625201 
L 69.896336 118.252617 
L 70.700929 118.645526 
L 71.505522 118.761763 
L 72.310115 118.270334 
L 73.114708 117.044068 
L 73.919301 115.198233 
L 74.723895 112.848098 
L 76.333081 107.096001 
L 79.551453 94.612023 
L 80.356046 91.959308 
L 81.160639 89.724441 
L 81.965232 88.022692 
L 82.769826 86.969328 
L 83.574419 86.685876 
L 84.379012 87.568908 
L 85.183605 89.664572 
L 85.988198 92.781146 
L 86.792791 96.726911 
L 88.401977 106.339132 
L 91.62035 127.078164 
L 92.424943 131.460093 
L 93.229536 135.13745 
L 94.034129 137.918514 
L 94.838722 139.611564 
L 95.643315 140.051949 
L 97.252501 139.841819 
L 98.861687 139.324727 
L 100.470874 138.559874 
L 102.884653 137.077556 
L 107.712211 133.634507 
L 109.321398 132.193637 
L 110.930584 130.372589 
L 116.562736 123.356849 
L 118.171922 121.840854 
L 118.976515 121.266084 
L 120.585701 120.490154 
L 122.194887 119.94638 
L 125.41326 119.193077 
L 128.631632 118.394813 
L 130.240818 117.794837 
L 131.850004 116.919388 
L 132.654597 115.826775 
L 133.459191 114.086977 
L 134.263784 111.810682 
L 135.87297 106.09135 
L 139.895935 90.152431 
L 140.700528 87.568902 
L 141.505122 85.445062 
L 142.309715 83.891597 
L 143.114308 83.019196 
L 143.918901 82.917264 
L 144.723494 83.440748 
L 145.528087 84.482985 
L 146.33268 85.974375 
L 147.137273 87.845321 
L 148.746459 92.447484 
L 154.378611 110.280052 
L 155.183204 112.118628 
L 156.79239 114.958965 
L 159.20617 118.59486 
L 161.619949 121.798838 
L 167.252101 129.053435 
L 169.66588 132.643976 
L 176.907218 143.957788 
L 178.516404 146.088052 
L 183.343963 151.651742 
L 185.757742 154.292153 
L 187.366928 155.777766 
L 188.976114 156.917066 
L 189.780707 157.32294 
L 190.5853 157.601548 
L 191.389893 157.739326 
L 192.194487 157.656667 
L 192.99908 157.105331 
L 193.803673 156.126438 
L 194.608266 154.792764 
L 196.217452 151.352175 
L 200.240418 141.636326 
L 201.045011 140.084325 
L 201.849604 138.832524 
L 202.654197 137.953697 
L 203.45879 137.520622 
L 204.263383 137.626835 
L 205.067976 138.342453 
L 205.872569 139.586172 
L 206.677162 141.26733 
L 208.286348 145.579322 
L 212.309314 157.66822 
L 213.113907 159.585097 
L 213.9185 161.123465 
L 214.723093 162.192661 
L 215.527686 162.702025 
L 216.332279 162.697405 
L 217.136873 162.534337 
L 218.746059 161.860908 
L 220.355245 160.820349 
L 222.769024 158.822955 
L 226.79199 155.289107 
L 228.401176 154.133605 
L 230.814955 152.726309 
L 234.837921 150.476467 
L 236.447107 149.343837 
L 238.056293 147.94135 
L 239.665479 146.177748 
L 240.470072 144.723966 
L 241.274665 142.011669 
L 242.079259 138.216624 
L 242.883852 133.54153 
L 244.493038 122.361991 
L 247.71141 98.361071 
L 248.516003 93.201199 
L 249.320596 88.782868 
L 250.125189 85.308778 
L 250.929783 82.981625 
L 251.734376 82.004109 
L 252.538969 82.071229 
L 253.343562 82.369548 
L 254.148155 82.851495 
L 255.757341 84.23569 
L 258.17112 86.873066 
L 259.780307 88.624516 
L 261.389493 90.06584 
L 262.194086 90.588592 
L 262.998679 90.935879 
L 263.803272 91.075055 
L 264.607865 90.453143 
L 265.412458 88.421485 
L 266.217051 85.176631 
L 267.021645 80.921948 
L 268.630831 70.196569 
L 272.653796 39.946865 
L 273.458389 34.934793 
L 274.262982 30.743201 
L 275.067575 27.575458 
L 275.872169 25.634932 
L 278.285948 22.27556 
L 279.895134 20.31289 
L 281.50432 18.617446 
L 283.113506 17.229196 
L 284.722693 16.188105 
L 286.331879 15.534142 
L 287.941065 15.307273 
L 287.941065 15.307273 
" clip-path="url(#pd9d049840f)" style="fill: none; stroke: #ff7f0e; stroke-width: 0.9; stroke-linecap: square"/>
   </g>
   <g id="line2d_25">
    <path d="M 47.367729 141.604192 
L 49.781509 144.695284 
L 51.390695 146.475097 
L 52.999881 147.995709 
L 54.609067 149.227578 
L 56.218253 150.141159 
L 57.82744 150.706907 
L 59.436626 150.895331 
L 61.045812 150.772188 
L 62.654998 150.430128 
L 64.264184 149.892045 
L 66.677964 148.767454 
L 69.091743 147.330587 
L 71.505522 145.655774 
L 72.310115 144.724363 
L 73.114708 143.280649 
L 73.919301 141.411145 
L 75.528488 136.740806 
L 79.551453 123.669373 
L 80.356046 121.50793 
L 81.160639 119.699293 
L 81.965232 118.329973 
L 82.769826 117.486482 
L 83.574419 117.250598 
L 84.379012 117.421252 
L 85.183605 117.838577 
L 85.988198 118.481715 
L 86.792791 119.329807 
L 88.401977 121.557413 
L 90.011163 124.35452 
L 92.424943 129.252959 
L 95.643315 136.233589 
L 96.447908 138.371354 
L 97.252501 141.032263 
L 98.861687 147.516894 
L 103.689246 168.954192 
L 104.493839 171.748952 
L 105.298432 174.050312 
L 106.103025 175.75662 
L 106.907618 176.76622 
L 107.712211 176.982102 
L 108.516805 176.452268 
L 109.321398 175.282155 
L 110.125991 173.552508 
L 110.930584 171.344072 
L 112.53977 165.813815 
L 114.953549 155.946145 
L 117.367329 146.129619 
L 118.976515 140.690285 
L 122.194887 131.787508 
L 125.41326 122.70969 
L 127.022446 118.805776 
L 128.631632 115.728299 
L 129.436225 114.593954 
L 130.240818 113.779592 
L 131.045411 113.323006 
L 131.850004 113.246663 
L 132.654597 113.3895 
L 133.459191 113.684876 
L 135.068377 114.662448 
L 136.677563 116.037786 
L 139.091342 118.536864 
L 142.309715 121.939596 
L 146.33268 125.733731 
L 150.355646 130.004206 
L 151.964832 131.412785 
L 153.574018 132.437475 
L 154.378611 132.761554 
L 155.183204 132.93649 
L 155.987797 132.872098 
L 156.79239 132.064719 
L 157.596983 130.521229 
L 158.401577 128.363804 
L 160.010763 122.695855 
L 164.033728 106.334452 
L 164.838321 103.663888 
L 165.642914 101.478974 
L 166.447508 99.901885 
L 167.252101 99.054798 
L 168.056694 99.198807 
L 168.861287 101.138852 
L 169.66588 104.750785 
L 170.470473 109.754794 
L 172.079659 122.819779 
L 176.102625 160.256572 
L 176.907218 166.323874 
L 177.711811 171.264924 
L 178.516404 174.799909 
L 179.320997 176.649013 
L 180.12559 176.684763 
L 180.930183 175.554636 
L 181.734776 173.501665 
L 182.539369 170.681603 
L 184.148556 163.363228 
L 188.171521 142.546018 
L 188.976114 139.196392 
L 189.780707 136.481465 
L 190.5853 134.556991 
L 191.389893 133.578724 
L 192.194487 133.694009 
L 192.99908 134.890198 
L 193.803673 137.014023 
L 194.608266 139.907588 
L 196.217452 147.372357 
L 200.240418 168.452052 
L 201.045011 171.819304 
L 201.849604 174.535236 
L 202.654197 176.441955 
L 203.45879 177.381564 
L 204.263383 177.420531 
L 205.067976 177.249404 
L 205.872569 176.938958 
L 207.481755 175.936637 
L 209.090942 174.486624 
L 210.700128 172.661979 
L 212.309314 170.535759 
L 214.723093 166.94079 
L 215.527686 165.670826 
L 216.332279 164.173104 
L 217.136873 161.915038 
L 217.941466 158.987579 
L 219.550652 151.647785 
L 224.37821 127.16882 
L 225.182804 124.103971 
L 225.987397 121.677984 
L 226.79199 120.021684 
L 227.596583 119.265896 
L 228.401176 119.270838 
L 230.010362 119.694932 
L 231.619548 120.471092 
L 234.837921 122.483521 
L 236.447107 123.421744 
L 238.056293 124.115942 
L 238.860886 124.324962 
L 240.470072 124.408123 
L 242.883852 124.174637 
L 245.297631 123.69682 
L 248.516003 122.805213 
L 252.538969 121.482383 
L 254.148155 120.603825 
L 256.561934 118.84132 
L 259.780307 116.410412 
L 261.389493 115.481349 
L 262.998679 114.933473 
L 263.803272 114.847072 
L 264.607865 115.088676 
L 265.412458 115.876262 
L 266.217051 117.12881 
L 267.021645 118.762919 
L 268.630831 122.842214 
L 271.849203 131.909878 
L 273.458389 135.563827 
L 274.262982 136.878926 
L 275.067575 137.741573 
L 275.872169 138.068367 
L 276.676762 137.818744 
L 277.481355 137.029165 
L 278.285948 135.723424 
L 279.090541 133.92524 
L 279.895134 131.658333 
L 280.699727 128.946422 
L 282.308913 122.282468 
L 283.9181 114.123133 
L 285.527286 104.658175 
L 287.136472 94.07735 
L 287.941065 88.427786 
L 287.941065 88.427786 
" clip-path="url(#pd9d049840f)" style="fill: none; stroke: #9467bd; stroke-width: 0.9; stroke-linecap: square"/>
   </g>
   <g id="line2d_26">
    <path d="M 47.367729 130.11091 
L 287.941065 95.898066 
" clip-path="url(#pd9d049840f)" style="fill: none; stroke-dasharray: 5.55,2.4; stroke-dashoffset: 0; stroke: #ff7f0e; stroke-opacity: 0.55; stroke-width: 1.5"/>
   </g>
   <g id="line2d_27">
    <path d="M 47.367729 146.174157 
L 287.941065 123.877788 
" clip-path="url(#pd9d049840f)" style="fill: none; stroke-dasharray: 5.55,2.4; stroke-dashoffset: 0; stroke: #9467bd; stroke-opacity: 0.55; stroke-width: 1.5"/>
   </g>
   <g id="patch_3">
    <path d="M 35.339063 185.56 
L 35.339063 7.2 
" style="fill: none; stroke: #000000; stroke-width: 0.8; stroke-linejoin: miter; stroke-linecap: square"/>
   </g>
   <g id="patch_4">
    <path d="M 35.339062 185.56 
L 299.969732 185.56 
" style="fill: none; stroke: #000000; stroke-width: 0.8; stroke-linejoin: miter; stroke-linecap: square"/>
   </g>
   <g id="PathCollection_1">
    <defs>
     <path id="m6c608e75a0" d="M 0 2.12132 
C 0.562581 2.12132 1.102195 1.897805 1.5 1.5 
C 1.897805 1.102195 2.12132 0.562581 2.12132 0 
C 2.12132 -0.562581 1.897805 -1.102195 1.5 -1.5 
C 1.102195 -1.897805 0.562581 -2.12132 0 -2.12132 
C -0.562581 -2.12132 -1.102195 -1.897805 -1.5 -1.5 
C -1.897805 -1.102195 -2.12132 -0.562581 -2.12132 0 
C -2.12132 0.562581 -1.897805 1.102195 -1.5 1.5 
C -1.102195 1.897805 -0.562581 2.12132 0 2.12132 
z
" style="stroke: #ff7f0e; stroke-width: 1.2"/>
    </defs>
    <g clip-path="url(#pd9d049840f)">
     <use xlink:href="#m6c608e75a0" x="47.367729" y="104.259919" style="fill: #ff7f0e; stroke: #ff7f0e; stroke-width: 1.2"/>
     <use xlink:href="#m6c608e75a0" x="59.396396" y="106.145979" style="fill: #ff7f0e; stroke: #ff7f0e; stroke-width: 1.2"/>
     <use xlink:href="#m6c608e75a0" x="71.425063" y="118.766052" style="fill: #ff7f0e; stroke: #ff7f0e; stroke-width: 1.2"/>
     <use xlink:href="#m6c608e75a0" x="83.45373" y="86.669862" style="fill: #ff7f0e; stroke: #ff7f0e; stroke-width: 1.2"/>
     <use xlink:href="#m6c608e75a0" x="95.482396" y="140.053799" style="fill: #ff7f0e; stroke: #ff7f0e; stroke-width: 1.2"/>
     <use xlink:href="#m6c608e75a0" x="107.511063" y="133.779772" style="fill: #ff7f0e; stroke: #ff7f0e; stroke-width: 1.2"/>
     <use xlink:href="#m6c608e75a0" x="119.53973" y="120.951369" style="fill: #ff7f0e; stroke: #ff7f0e; stroke-width: 1.2"/>
     <use xlink:href="#m6c608e75a0" x="131.568397" y="117.128422" style="fill: #ff7f0e; stroke: #ff7f0e; stroke-width: 1.2"/>
     <use xlink:href="#m6c608e75a0" x="143.597064" y="82.868711" style="fill: #ff7f0e; stroke: #ff7f0e; stroke-width: 1.2"/>
     <use xlink:href="#m6c608e75a0" x="155.62573" y="112.96975" style="fill: #ff7f0e; stroke: #ff7f0e; stroke-width: 1.2"/>
     <use xlink:href="#m6c608e75a0" x="167.654397" y="129.622863" style="fill: #ff7f0e; stroke: #ff7f0e; stroke-width: 1.2"/>
     <use xlink:href="#m6c608e75a0" x="179.683064" y="147.445172" style="fill: #ff7f0e; stroke: #ff7f0e; stroke-width: 1.2"/>
     <use xlink:href="#m6c608e75a0" x="191.711731" y="157.751966" style="fill: #ff7f0e; stroke: #ff7f0e; stroke-width: 1.2"/>
     <use xlink:href="#m6c608e75a0" x="203.740398" y="137.487822" style="fill: #ff7f0e; stroke: #ff7f0e; stroke-width: 1.2"/>
     <use xlink:href="#m6c608e75a0" x="215.769064" y="162.732113" style="fill: #ff7f0e; stroke: #ff7f0e; stroke-width: 1.2"/>
     <use xlink:href="#m6c608e75a0" x="227.797731" y="154.538943" style="fill: #ff7f0e; stroke: #ff7f0e; stroke-width: 1.2"/>
     <use xlink:href="#m6c608e75a0" x="239.826398" y="145.978013" style="fill: #ff7f0e; stroke: #ff7f0e; stroke-width: 1.2"/>
     <use xlink:href="#m6c608e75a0" x="251.855065" y="81.986418" style="fill: #ff7f0e; stroke: #ff7f0e; stroke-width: 1.2"/>
     <use xlink:href="#m6c608e75a0" x="263.883731" y="91.07627" style="fill: #ff7f0e; stroke: #ff7f0e; stroke-width: 1.2"/>
     <use xlink:href="#m6c608e75a0" x="275.912398" y="25.573768" style="fill: #ff7f0e; stroke: #ff7f0e; stroke-width: 1.2"/>
     <use xlink:href="#m6c608e75a0" x="287.941065" y="15.307273" style="fill: #ff7f0e; stroke: #ff7f0e; stroke-width: 1.2"/>
    </g>
   </g>
   <g id="PathCollection_2">
    <defs>
     <path id="mdb99515c6c" d="M 0 2.12132 
C 0.562581 2.12132 1.102195 1.897805 1.5 1.5 
C 1.897805 1.102195 2.12132 0.562581 2.12132 0 
C 2.12132 -0.562581 1.897805 -1.102195 1.5 -1.5 
C 1.102195 -1.897805 0.562581 -2.12132 0 -2.12132 
C -0.562581 -2.12132 -1.102195 -1.897805 -1.5 -1.5 
C -1.897805 -1.102195 -2.12132 -0.562581 -2.12132 0 
C -2.12132 0.562581 -1.897805 1.102195 -1.5 1.5 
C -1.102195 1.897805 -0.562581 2.12132 0 2.12132 
z
" style="stroke: #9467bd; stroke-width: 1.2"/>
    </defs>
    <g clip-path="url(#pd9d049840f)">
     <use xlink:href="#mdb99515c6c" x="47.367729" y="141.604192" style="fill: #9467bd; stroke: #9467bd; stroke-width: 1.2"/>
     <use xlink:href="#mdb99515c6c" x="59.396396" y="150.895406" style="fill: #9467bd; stroke: #9467bd; stroke-width: 1.2"/>
     <use xlink:href="#mdb99515c6c" x="71.425063" y="145.717408" style="fill: #9467bd; stroke: #9467bd; stroke-width: 1.2"/>
     <use xlink:href="#mdb99515c6c" x="83.45373" y="117.247565" style="fill: #9467bd; stroke: #9467bd; stroke-width: 1.2"/>
     <use xlink:href="#mdb99515c6c" x="95.482396" y="135.877759" style="fill: #9467bd; stroke: #9467bd; stroke-width: 1.2"/>
     <use xlink:href="#mdb99515c6c" x="107.511063" y="177.005055" style="fill: #9467bd; stroke: #9467bd; stroke-width: 1.2"/>
     <use xlink:href="#mdb99515c6c" x="119.53973" y="139.140344" style="fill: #9467bd; stroke: #9467bd; stroke-width: 1.2"/>
     <use xlink:href="#mdb99515c6c" x="131.568397" y="113.235983" style="fill: #9467bd; stroke: #9467bd; stroke-width: 1.2"/>
     <use xlink:href="#mdb99515c6c" x="143.597064" y="123.095983" style="fill: #9467bd; stroke: #9467bd; stroke-width: 1.2"/>
     <use xlink:href="#mdb99515c6c" x="155.62573" y="132.962711" style="fill: #9467bd; stroke: #9467bd; stroke-width: 1.2"/>
     <use xlink:href="#mdb99515c6c" x="167.654397" y="98.943186" style="fill: #9467bd; stroke: #9467bd; stroke-width: 1.2"/>
     <use xlink:href="#mdb99515c6c" x="179.683064" y="176.856539" style="fill: #9467bd; stroke: #9467bd; stroke-width: 1.2"/>
     <use xlink:href="#mdb99515c6c" x="191.711731" y="133.487245" style="fill: #9467bd; stroke: #9467bd; stroke-width: 1.2"/>
     <use xlink:href="#mdb99515c6c" x="203.740398" y="177.452727" style="fill: #9467bd; stroke: #9467bd; stroke-width: 1.2"/>
     <use xlink:href="#mdb99515c6c" x="215.769064" y="165.285404" style="fill: #9467bd; stroke: #9467bd; stroke-width: 1.2"/>
     <use xlink:href="#mdb99515c6c" x="227.797731" y="119.232985" style="fill: #9467bd; stroke: #9467bd; stroke-width: 1.2"/>
     <use xlink:href="#mdb99515c6c" x="239.826398" y="124.419853" style="fill: #9467bd; stroke: #9467bd; stroke-width: 1.2"/>
     <use xlink:href="#mdb99515c6c" x="251.855065" y="121.741827" style="fill: #9467bd; stroke: #9467bd; stroke-width: 1.2"/>
     <use xlink:href="#mdb99515c6c" x="263.883731" y="114.846322" style="fill: #9467bd; stroke: #9467bd; stroke-width: 1.2"/>
     <use xlink:href="#mdb99515c6c" x="275.912398" y="138.069144" style="fill: #9467bd; stroke: #9467bd; stroke-width: 1.2"/>
     <use xlink:href="#mdb99515c6c" x="287.941065" y="88.427786" style="fill: #9467bd; stroke: #9467bd; stroke-width: 1.2"/>
    </g>
   </g>
   <g id="legend_1">
    <g id="line2d_28">
     <path d="M 40.739063 15 
L 46.739063 15 
L 52.739063 15 
" style="fill: none; stroke: #ff7f0e; stroke-width: 0.9; stroke-linecap: square"/>
    </g>
    <g id="text_19">
     <!-- Boys -->
     <g transform="translate(57.539062 17.1) scale(0.06 -0.06)">
      <defs>
       <path id="RobotoCondensed-Regular-42" d="M 3125 1313 
Q 3125 675 2776 337 
Q 2428 0 1847 0 
L 491 0 
L 491 4550 
L 1791 4550 
Q 2375 4550 2706 4261 
Q 3038 3972 3038 3338 
Q 3038 3025 2880 2779 
Q 2722 2534 2453 2400 
Q 2781 2297 2953 1998 
Q 3125 1700 3125 1313 
z
M 1066 4056 
L 1066 2613 
L 1797 2613 
Q 2088 2613 2275 2806 
Q 2463 3000 2463 3344 
Q 2463 4041 1819 4056 
L 1066 4056 
z
M 2550 1306 
Q 2550 2106 1906 2128 
L 1066 2128 
L 1066 491 
L 1847 491 
Q 2181 491 2365 711 
Q 2550 931 2550 1306 
z
" transform="scale(0.015625)"/>
       <path id="RobotoCondensed-Regular-6f" d="M 300 1850 
Q 300 2641 678 3042 
Q 1056 3444 1603 3444 
Q 2156 3444 2536 3042 
Q 2916 2641 2916 1850 
L 2916 1528 
Q 2916 738 2536 337 
Q 2156 -63 1609 -63 
Q 1059 -63 679 337 
Q 300 738 300 1528 
L 300 1850 
z
M 853 1528 
Q 853 969 1068 689 
Q 1284 409 1609 409 
Q 2341 409 2363 1466 
L 2363 1850 
Q 2363 2403 2145 2686 
Q 1928 2969 1603 2969 
Q 1281 2969 1067 2686 
Q 853 2403 853 1850 
L 853 1528 
z
" transform="scale(0.015625)"/>
       <path id="RobotoCondensed-Regular-79" d="M 1425 -522 
Q 1153 -1366 563 -1366 
Q 409 -1366 278 -1316 
L 278 -847 
Q 328 -859 397 -859 
Q 631 -859 770 -746 
Q 909 -634 997 -338 
L 1106 31 
L 109 3381 
L 713 3381 
L 1341 922 
L 1953 3381 
L 2541 3381 
L 1425 -522 
z
" transform="scale(0.015625)"/>
      </defs>
      <use xlink:href="#RobotoCondensed-Regular-42"/>
      <use xlink:href="#RobotoCondensed-Regular-6f" transform="translate(54.589844 0)"/>
      <use xlink:href="#RobotoCondensed-Regular-79" transform="translate(104.785156 0)"/>
      <use xlink:href="#RobotoCondensed-Regular-73" transform="translate(146.435547 0)"/>
     </g>
    </g>
    <g id="line2d_29">
     <path d="M 40.739063 23.780625 
L 46.739063 23.780625 
L 52.739063 23.780625 
" style="fill: none; stroke: #9467bd; stroke-width: 0.9; stroke-linecap: square"/>
    </g>
    <g id="text_20">
     <!-- Girls -->
     <g transform="translate(57.539062 25.880625) scale(0.06 -0.06)">
      <defs>
       <path id="RobotoCondensed-Regular-69" d="M 428 4278 
Q 428 4419 506 4516 
Q 584 4613 741 4613 
Q 894 4613 975 4516 
Q 1056 4419 1056 4278 
Q 1056 4144 975 4048 
Q 894 3953 741 3953 
Q 584 3953 506 4048 
Q 428 4144 428 4278 
z
M 1009 3381 
L 1009 0 
L 459 0 
L 459 3381 
L 1009 3381 
z
" transform="scale(0.015625)"/>
       <path id="RobotoCondensed-Regular-6c" d="M 1009 4800 
L 1009 0 
L 459 0 
L 459 4800 
L 1009 4800 
z
" transform="scale(0.015625)"/>
      </defs>
      <use xlink:href="#RobotoCondensed-Regular-47"/>
      <use xlink:href="#RobotoCondensed-Regular-69" transform="translate(59.082031 0)"/>
      <use xlink:href="#RobotoCondensed-Regular-72" transform="translate(82.03125 0)"/>
      <use xlink:href="#RobotoCondensed-Regular-6c" transform="translate(112.5 0)"/>
      <use xlink:href="#RobotoCondensed-Regular-73" transform="translate(135.449219 0)"/>
     </g>
    </g>
   </g>
  </g>
 </g>
 <defs>
  <clipPath id="pd9d049840f">
   <rect x="35.339063" y="7.2" width="264.630669" height="178.36"/>
  </clipPath>
 </defs>
</svg>
