<?xml version="1.0" encoding="utf-8" standalone="no"?>
<!DOCTYPE svg PUBLIC "-//W3C//DTD SVG 1.1//EN"
  "http://www.w3.org/Graphics/SVG/1.1/DTD/svg11.dtd">
<svg xmlns:xlink="http://www.w3.org/1999/xlink" width="711.780312pt" height="422.567656pt" viewBox="0 0 711.780312 422.567656" xmlns="http://www.w3.org/2000/svg" version="1.1">
 <metadata>
  <rdf:RDF xmlns:dc="http://purl.org/dc/elements/1.1/" xmlns:cc="http://creativecommons.org/ns#" xmlns:rdf="http://www.w3.org/1999/02/22-rdf-syntax-ns#">
   <cc:Work>
    <dc:type rdf:resource="http://purl.org/dc/dcmitype/StillImage"/>
    <dc:date>2026-04-25T15:08:10.720053</dc:date>
    <dc:format>image/svg+xml</dc:format>
    <dc:creator>
     <cc:Agent>
      <dc:title>Matplotlib v3.10.7, https://matplotlib.org/</dc:title>
     </cc:Agent>
    </dc:creator>
   </cc:Work>
  </rdf:RDF>
 </metadata>
 <defs>
  <style type="text/css">*{stroke-linejoin: round; stroke-linecap: butt}</style>
 </defs>
 <g id="figure_1">
  <g id="patch_1">
   <path d="M 0 422.567656 
L 711.780312 422.567656 
L 711.780312 0 
L 0 0 
z
" style="fill: #ffffff"/>
  </g>
  <g id="axes_1">
   <g id="patch_2">
    <path d="M 51.815313 381.817656 
L 692.370312 381.817656 
L 692.370312 11.577656 
L 51.815313 11.577656 
z
" style="fill: #ffffff"/>
   </g>
   <g id="matplotlib.axis_1">
    <g id="xtick_1">
     <g id="text_1">
      <!-- 1989 -->
      <g transform="translate(68.721449 397.572969) scale(0.11 -0.11)">
       <defs>
        <path id="NotoSansCJKjp-Regular-31" d="M 563 0 
L 3136 0 
L 3136 486 
L 2195 486 
L 2195 4698 
L 1747 4698 
C 1491 4544 1190 4435 774 4358 
L 774 3987 
L 1606 3987 
L 1606 486 
L 563 486 
L 563 0 
z
" transform="scale(0.015625)"/>
        <path id="NotoSansCJKjp-Regular-39" d="M 832 3258 
C 832 3898 1178 4320 1626 4320 
C 2227 4320 2586 3808 2650 2842 
C 2349 2400 1990 2214 1670 2214 
C 1114 2214 832 2624 832 3258 
z
M 1498 -83 
C 2381 -83 3200 646 3200 2547 
C 3200 4038 2528 4781 1626 4781 
C 896 4781 282 4166 282 3258 
C 282 2285 794 1779 1574 1779 
C 1965 1779 2368 2003 2656 2355 
C 2611 902 2086 403 1478 403 
C 1178 403 890 538 698 762 
L 371 397 
C 634 122 992 -83 1498 -83 
z
" transform="scale(0.015625)"/>
        <path id="NotoSansCJKjp-Regular-38" d="M 1786 -83 
C 2669 -83 3258 448 3258 1133 
C 3258 1773 2874 2125 2464 2362 
L 2464 2394 
C 2746 2611 3091 3034 3091 3526 
C 3091 4250 2605 4762 1805 4762 
C 1075 4762 518 4288 518 3571 
C 518 3078 806 2726 1152 2490 
L 1152 2458 
C 723 2227 288 1792 288 1165 
C 288 442 922 -83 1786 -83 
z
M 2106 2547 
C 1555 2765 1050 3008 1050 3571 
C 1050 4026 1363 4333 1798 4333 
C 2304 4333 2592 3955 2592 3494 
C 2592 3149 2426 2829 2106 2547 
z
M 1798 352 
C 1235 352 819 717 819 1216 
C 819 1664 1082 2035 1459 2278 
C 2125 2010 2701 1773 2701 1146 
C 2701 678 2336 352 1798 352 
z
" transform="scale(0.015625)"/>
       </defs>
       <use xlink:href="#NotoSansCJKjp-Regular-31"/>
       <use xlink:href="#NotoSansCJKjp-Regular-39" transform="translate(55.499985 0)"/>
       <use xlink:href="#NotoSansCJKjp-Regular-38" transform="translate(110.999969 0)"/>
       <use xlink:href="#NotoSansCJKjp-Regular-39" transform="translate(166.499954 0)"/>
      </g>
     </g>
    </g>
    <g id="xtick_2">
     <g id="text_2">
      <!-- 1992 -->
      <g transform="translate(156.069858 397.572969) scale(0.11 -0.11)">
       <defs>
        <path id="NotoSansCJKjp-Regular-32" d="M 282 0 
L 3232 0 
L 3232 506 
L 1933 506 
C 1696 506 1408 480 1165 461 
C 2266 1504 3002 2458 3002 3392 
C 3002 4230 2477 4781 1638 4781 
C 1043 4781 640 4506 256 4090 
L 595 3757 
C 851 4064 1184 4301 1568 4301 
C 2150 4301 2432 3910 2432 3373 
C 2432 2566 1754 1632 282 346 
L 282 0 
z
" transform="scale(0.015625)"/>
       </defs>
       <use xlink:href="#NotoSansCJKjp-Regular-31"/>
       <use xlink:href="#NotoSansCJKjp-Regular-39" transform="translate(55.499985 0)"/>
       <use xlink:href="#NotoSansCJKjp-Regular-39" transform="translate(110.999969 0)"/>
       <use xlink:href="#NotoSansCJKjp-Regular-32" transform="translate(166.499954 0)"/>
      </g>
     </g>
    </g>
    <g id="xtick_3">
     <g id="text_3">
      <!-- 1995 -->
      <g transform="translate(243.418267 397.572969) scale(0.11 -0.11)">
       <defs>
        <path id="NotoSansCJKjp-Regular-35" d="M 1670 -83 
C 2464 -83 3206 499 3206 1530 
C 3206 2560 2573 3021 1792 3021 
C 1510 3021 1306 2950 1094 2835 
L 1210 4192 
L 2982 4192 
L 2982 4698 
L 698 4698 
L 550 2496 
L 864 2304 
C 1133 2483 1331 2579 1645 2579 
C 2234 2579 2618 2182 2618 1510 
C 2618 826 2170 403 1619 403 
C 1075 403 736 653 467 922 
L 179 538 
C 493 224 941 -83 1670 -83 
z
" transform="scale(0.015625)"/>
       </defs>
       <use xlink:href="#NotoSansCJKjp-Regular-31"/>
       <use xlink:href="#NotoSansCJKjp-Regular-39" transform="translate(55.499985 0)"/>
       <use xlink:href="#NotoSansCJKjp-Regular-39" transform="translate(110.999969 0)"/>
       <use xlink:href="#NotoSansCJKjp-Regular-35" transform="translate(166.499954 0)"/>
      </g>
     </g>
    </g>
    <g id="xtick_4">
     <g id="text_4">
      <!-- 1998 -->
      <g transform="translate(330.766676 397.572969) scale(0.11 -0.11)">
       <use xlink:href="#NotoSansCJKjp-Regular-31"/>
       <use xlink:href="#NotoSansCJKjp-Regular-39" transform="translate(55.499985 0)"/>
       <use xlink:href="#NotoSansCJKjp-Regular-39" transform="translate(110.999969 0)"/>
       <use xlink:href="#NotoSansCJKjp-Regular-38" transform="translate(166.499954 0)"/>
      </g>
     </g>
    </g>
    <g id="xtick_5">
     <g id="text_5">
      <!-- 2001 -->
      <g transform="translate(418.115085 397.572969) scale(0.11 -0.11)">
       <defs>
        <path id="NotoSansCJKjp-Regular-30" d="M 1779 -83 
C 2669 -83 3238 730 3238 2362 
C 3238 3987 2669 4781 1779 4781 
C 883 4781 314 3994 314 2362 
C 314 730 883 -83 1779 -83 
z
M 1779 384 
C 1242 384 883 979 883 2362 
C 883 3731 1242 4314 1779 4314 
C 2310 4314 2669 3731 2669 2362 
C 2669 979 2310 384 1779 384 
z
" transform="scale(0.015625)"/>
       </defs>
       <use xlink:href="#NotoSansCJKjp-Regular-32"/>
       <use xlink:href="#NotoSansCJKjp-Regular-30" transform="translate(55.499985 0)"/>
       <use xlink:href="#NotoSansCJKjp-Regular-30" transform="translate(110.999969 0)"/>
       <use xlink:href="#NotoSansCJKjp-Regular-31" transform="translate(166.499954 0)"/>
      </g>
     </g>
    </g>
    <g id="xtick_6">
     <g id="text_6">
      <!-- 2004 -->
      <g transform="translate(505.463494 397.572969) scale(0.11 -0.11)">
       <defs>
        <path id="NotoSansCJKjp-Regular-34" d="M 736 1760 
L 1805 3360 
C 1939 3590 2067 3821 2182 4051 
L 2208 4051 
C 2195 3808 2176 3430 2176 3200 
L 2176 1760 
L 736 1760 
z
M 2176 0 
L 2726 0 
L 2726 1293 
L 3347 1293 
L 3347 1760 
L 2726 1760 
L 2726 4698 
L 2080 4698 
L 128 1677 
L 128 1293 
L 2176 1293 
L 2176 0 
z
" transform="scale(0.015625)"/>
       </defs>
       <use xlink:href="#NotoSansCJKjp-Regular-32"/>
       <use xlink:href="#NotoSansCJKjp-Regular-30" transform="translate(55.499985 0)"/>
       <use xlink:href="#NotoSansCJKjp-Regular-30" transform="translate(110.999969 0)"/>
       <use xlink:href="#NotoSansCJKjp-Regular-34" transform="translate(166.499954 0)"/>
      </g>
     </g>
    </g>
    <g id="xtick_7">
     <g id="text_7">
      <!-- 2007 -->
      <g transform="translate(592.811903 397.572969) scale(0.11 -0.11)">
       <defs>
        <path id="NotoSansCJKjp-Regular-37" d="M 1267 0 
L 1875 0 
C 1946 1837 2150 2931 3251 4339 
L 3251 4698 
L 314 4698 
L 314 4192 
L 2586 4192 
C 1670 2912 1344 1779 1267 0 
z
" transform="scale(0.015625)"/>
       </defs>
       <use xlink:href="#NotoSansCJKjp-Regular-32"/>
       <use xlink:href="#NotoSansCJKjp-Regular-30" transform="translate(55.499985 0)"/>
       <use xlink:href="#NotoSansCJKjp-Regular-30" transform="translate(110.999969 0)"/>
       <use xlink:href="#NotoSansCJKjp-Regular-37" transform="translate(166.499954 0)"/>
      </g>
     </g>
    </g>
    <g id="xtick_8">
     <g id="text_8">
      <!-- 2010 -->
      <g transform="translate(680.160313 397.572969) scale(0.11 -0.11)">
       <use xlink:href="#NotoSansCJKjp-Regular-32"/>
       <use xlink:href="#NotoSansCJKjp-Regular-30" transform="translate(55.499985 0)"/>
       <use xlink:href="#NotoSansCJKjp-Regular-31" transform="translate(110.999969 0)"/>
       <use xlink:href="#NotoSansCJKjp-Regular-30" transform="translate(166.499954 0)"/>
      </g>
     </g>
    </g>
    <g id="text_9">
     <!-- Year -->
     <g transform="translate(360.889141 412.847969) scale(0.11 -0.11)">
      <defs>
       <path id="NotoSansCJKjp-Regular-59" d="M 1402 0 
L 1997 0 
L 1997 1824 
L 3405 4698 
L 2790 4698 
L 2182 3366 
C 2042 3021 1882 2694 1715 2342 
L 1690 2342 
C 1523 2694 1382 3021 1229 3366 
L 627 4698 
L -6 4698 
L 1402 1824 
L 1402 0 
z
" transform="scale(0.015625)"/>
       <path id="NotoSansCJKjp-Regular-65" d="M 1990 -83 
C 2464 -83 2835 77 3142 275 
L 2931 659 
C 2675 486 2400 384 2061 384 
C 1402 384 947 858 909 1600 
L 3251 1600 
C 3264 1683 3277 1805 3277 1933 
C 3277 2925 2778 3565 1894 3565 
C 1088 3565 326 2861 326 1734 
C 326 589 1069 -83 1990 -83 
z
M 902 2022 
C 973 2701 1408 3098 1901 3098 
C 2445 3098 2765 2720 2765 2022 
L 902 2022 
z
" transform="scale(0.015625)"/>
       <path id="NotoSansCJKjp-Regular-61" d="M 1389 -83 
C 1818 -83 2208 141 2541 416 
L 2560 416 
L 2611 0 
L 3091 0 
L 3091 2138 
C 3091 2995 2733 3565 1888 3565 
C 1331 3565 838 3315 518 3110 
L 749 2707 
C 1024 2893 1389 3078 1792 3078 
C 2362 3078 2509 2650 2509 2202 
C 1030 2035 371 1658 371 902 
C 371 275 806 -83 1389 -83 
z
M 1555 384 
C 1210 384 941 544 941 941 
C 941 1389 1338 1677 2509 1818 
L 2509 845 
C 2170 544 1894 384 1555 384 
z
" transform="scale(0.015625)"/>
       <path id="NotoSansCJKjp-Regular-72" d="M 589 0 
L 1171 0 
L 1171 2234 
C 1402 2829 1760 3034 2048 3034 
C 2189 3034 2272 3021 2387 2976 
L 2496 3488 
C 2387 3546 2278 3565 2125 3565 
C 1734 3565 1382 3283 1139 2842 
L 1120 2842 
L 1069 3475 
L 589 3475 
L 589 0 
z
" transform="scale(0.015625)"/>
      </defs>
      <use xlink:href="#NotoSansCJKjp-Regular-59"/>
      <use xlink:href="#NotoSansCJKjp-Regular-65" transform="translate(53.099991 0)"/>
      <use xlink:href="#NotoSansCJKjp-Regular-61" transform="translate(108.499985 0)"/>
      <use xlink:href="#NotoSansCJKjp-Regular-72" transform="translate(164.899979 0)"/>
     </g>
    </g>
   </g>
   <g id="matplotlib.axis_2">
    <g id="ytick_1">
     <g id="line2d_1">
      <path d="M 51.815313 381.817656 
L 692.370312 381.817656 
" clip-path="url(#p22a1491670)" style="fill: none; stroke: #808080; stroke-opacity: 0.3; stroke-width: 0.5; stroke-linecap: round"/>
     </g>
     <g id="text_10">
      <!-- 0% -->
      <g transform="translate(28.58 386.195312) scale(0.11 -0.11)">
       <defs>
        <path id="NotoSansCJKjp-Regular-25" d="M 1312 1818 
C 1958 1818 2381 2362 2381 3309 
C 2381 4250 1958 4781 1312 4781 
C 672 4781 250 4250 250 3309 
C 250 2362 672 1818 1312 1818 
z
M 1312 2182 
C 947 2182 691 2560 691 3309 
C 691 4058 947 4422 1312 4422 
C 1683 4422 1939 4058 1939 3309 
C 1939 2560 1683 2182 1312 2182 
z
M 1453 -83 
L 1843 -83 
L 4435 4781 
L 4038 4781 
L 1453 -83 
z
M 4582 -83 
C 5222 -83 5645 454 5645 1402 
C 5645 2342 5222 2874 4582 2874 
C 3942 2874 3514 2342 3514 1402 
C 3514 454 3942 -83 4582 -83 
z
M 4582 275 
C 4211 275 3962 653 3962 1402 
C 3962 2150 4211 2515 4582 2515 
C 4947 2515 5203 2150 5203 1402 
C 5203 653 4947 275 4582 275 
z
" transform="scale(0.015625)"/>
       </defs>
       <use xlink:href="#NotoSansCJKjp-Regular-30"/>
       <use xlink:href="#NotoSansCJKjp-Regular-25" transform="translate(55.499985 0)"/>
      </g>
     </g>
    </g>
    <g id="ytick_2">
     <g id="line2d_2">
      <path d="M 51.815313 307.769656 
L 692.370312 307.769656 
" clip-path="url(#p22a1491670)" style="fill: none; stroke: #808080; stroke-opacity: 0.3; stroke-width: 0.5; stroke-linecap: round"/>
     </g>
     <g id="text_11">
      <!-- 2% -->
      <g transform="translate(28.58 312.147312) scale(0.11 -0.11)">
       <use xlink:href="#NotoSansCJKjp-Regular-32"/>
       <use xlink:href="#NotoSansCJKjp-Regular-25" transform="translate(55.499985 0)"/>
      </g>
     </g>
    </g>
    <g id="ytick_3">
     <g id="line2d_3">
      <path d="M 51.815313 233.721656 
L 692.370312 233.721656 
" clip-path="url(#p22a1491670)" style="fill: none; stroke: #808080; stroke-opacity: 0.3; stroke-width: 0.5; stroke-linecap: round"/>
     </g>
     <g id="text_12">
      <!-- 4% -->
      <g transform="translate(28.58 238.099312) scale(0.11 -0.11)">
       <use xlink:href="#NotoSansCJKjp-Regular-34"/>
       <use xlink:href="#NotoSansCJKjp-Regular-25" transform="translate(55.499985 0)"/>
      </g>
     </g>
    </g>
    <g id="ytick_4">
     <g id="line2d_4">
      <path d="M 51.815313 159.673656 
L 692.370312 159.673656 
" clip-path="url(#p22a1491670)" style="fill: none; stroke: #808080; stroke-opacity: 0.3; stroke-width: 0.5; stroke-linecap: round"/>
     </g>
     <g id="text_13">
      <!-- 6% -->
      <g transform="translate(28.58 164.051312) scale(0.11 -0.11)">
       <defs>
        <path id="NotoSansCJKjp-Regular-36" d="M 1875 2477 
C 2445 2477 2726 2074 2726 1440 
C 2726 800 2374 371 1926 371 
C 1338 371 986 902 915 1875 
C 1203 2304 1581 2477 1875 2477 
z
M 1926 -83 
C 2656 -83 3270 531 3270 1440 
C 3270 2419 2765 2912 1971 2912 
C 1600 2912 1190 2694 902 2342 
C 928 3802 1472 4294 2112 4294 
C 2400 4294 2682 4160 2867 3936 
L 3187 4301 
C 2931 4576 2579 4781 2093 4781 
C 1184 4781 358 4077 358 2240 
C 358 691 1024 -83 1926 -83 
z
" transform="scale(0.015625)"/>
       </defs>
       <use xlink:href="#NotoSansCJKjp-Regular-36"/>
       <use xlink:href="#NotoSansCJKjp-Regular-25" transform="translate(55.499985 0)"/>
      </g>
     </g>
    </g>
    <g id="ytick_5">
     <g id="line2d_5">
      <path d="M 51.815313 85.625656 
L 692.370312 85.625656 
" clip-path="url(#p22a1491670)" style="fill: none; stroke: #808080; stroke-opacity: 0.3; stroke-width: 0.5; stroke-linecap: round"/>
     </g>
     <g id="text_14">
      <!-- 8% -->
      <g transform="translate(28.58 90.003312) scale(0.11 -0.11)">
       <use xlink:href="#NotoSansCJKjp-Regular-38"/>
       <use xlink:href="#NotoSansCJKjp-Regular-25" transform="translate(55.499985 0)"/>
      </g>
     </g>
    </g>
    <g id="ytick_6">
     <g id="line2d_6">
      <path d="M 51.815313 11.577656 
L 692.370312 11.577656 
" clip-path="url(#p22a1491670)" style="fill: none; stroke: #808080; stroke-opacity: 0.3; stroke-width: 0.5; stroke-linecap: round"/>
     </g>
     <g id="text_15">
      <!-- 10% -->
      <g transform="translate(22.475 15.955312) scale(0.11 -0.11)">
       <use xlink:href="#NotoSansCJKjp-Regular-31"/>
       <use xlink:href="#NotoSansCJKjp-Regular-30" transform="translate(55.499985 0)"/>
       <use xlink:href="#NotoSansCJKjp-Regular-25" transform="translate(110.999969 0)"/>
      </g>
     </g>
    </g>
    <g id="text_16">
     <!-- Proportion -->
     <g transform="translate(15.955313 224.795781) rotate(-90) scale(0.11 -0.11)">
      <defs>
       <path id="NotoSansCJKjp-Regular-50" d="M 640 0 
L 1235 0 
L 1235 1862 
L 2010 1862 
C 3040 1862 3738 2323 3738 3315 
C 3738 4339 3034 4698 1984 4698 
L 640 4698 
L 640 0 
z
M 1235 2342 
L 1235 4211 
L 1907 4211 
C 2733 4211 3149 3994 3149 3315 
C 3149 2643 2758 2342 1933 2342 
L 1235 2342 
z
" transform="scale(0.015625)"/>
       <path id="NotoSansCJKjp-Regular-6f" d="M 1939 -83 
C 2790 -83 3552 582 3552 1734 
C 3552 2893 2790 3565 1939 3565 
C 1088 3565 326 2893 326 1734 
C 326 582 1088 -83 1939 -83 
z
M 1939 403 
C 1338 403 934 934 934 1734 
C 934 2534 1338 3078 1939 3078 
C 2541 3078 2950 2534 2950 1734 
C 2950 934 2541 403 1939 403 
z
" transform="scale(0.015625)"/>
       <path id="NotoSansCJKjp-Regular-70" d="M 589 -1466 
L 1171 -1466 
L 1171 -288 
L 1158 320 
C 1472 64 1805 -83 2118 -83 
C 2918 -83 3629 602 3629 1792 
C 3629 2861 3142 3565 2246 3565 
C 1843 3565 1453 3334 1139 3078 
L 1120 3078 
L 1069 3475 
L 589 3475 
L 589 -1466 
z
M 2022 403 
C 1792 403 1485 499 1171 768 
L 1171 2592 
C 1510 2906 1811 3072 2106 3072 
C 2765 3072 3021 2554 3021 1786 
C 3021 922 2598 403 2022 403 
z
" transform="scale(0.015625)"/>
       <path id="NotoSansCJKjp-Regular-74" d="M 1683 -83 
C 1894 -83 2125 -19 2323 45 
L 2208 480 
C 2093 435 1933 390 1811 390 
C 1408 390 1274 634 1274 1062 
L 1274 3002 
L 2214 3002 
L 2214 3475 
L 1274 3475 
L 1274 4454 
L 787 4454 
L 717 3475 
L 173 3443 
L 173 3002 
L 691 3002 
L 691 1075 
C 691 384 941 -83 1683 -83 
z
" transform="scale(0.015625)"/>
       <path id="NotoSansCJKjp-Regular-69" d="M 589 0 
L 1171 0 
L 1171 3475 
L 589 3475 
L 589 0 
z
M 883 4192 
C 1114 4192 1274 4346 1274 4582 
C 1274 4806 1114 4960 883 4960 
C 653 4960 493 4806 493 4582 
C 493 4346 653 4192 883 4192 
z
" transform="scale(0.015625)"/>
       <path id="NotoSansCJKjp-Regular-6e" d="M 589 0 
L 1171 0 
L 1171 2522 
C 1523 2874 1766 3053 2125 3053 
C 2586 3053 2784 2778 2784 2125 
L 2784 0 
L 3366 0 
L 3366 2202 
C 3366 3091 3034 3565 2304 3565 
C 1830 3565 1472 3302 1139 2976 
L 1120 2976 
L 1069 3475 
L 589 3475 
L 589 0 
z
" transform="scale(0.015625)"/>
      </defs>
      <use xlink:href="#NotoSansCJKjp-Regular-50"/>
      <use xlink:href="#NotoSansCJKjp-Regular-72" transform="translate(63.199997 0)"/>
      <use xlink:href="#NotoSansCJKjp-Regular-6f" transform="translate(101.999985 0)"/>
      <use xlink:href="#NotoSansCJKjp-Regular-70" transform="translate(162.599976 0)"/>
      <use xlink:href="#NotoSansCJKjp-Regular-6f" transform="translate(224.59996 0)"/>
      <use xlink:href="#NotoSansCJKjp-Regular-72" transform="translate(285.199951 0)"/>
      <use xlink:href="#NotoSansCJKjp-Regular-74" transform="translate(323.999939 0)"/>
      <use xlink:href="#NotoSansCJKjp-Regular-69" transform="translate(361.699936 0)"/>
      <use xlink:href="#NotoSansCJKjp-Regular-6f" transform="translate(389.199921 0)"/>
      <use xlink:href="#NotoSansCJKjp-Regular-6e" transform="translate(449.799911 0)"/>
     </g>
    </g>
   </g>
   <g id="FillBetweenPolyCollection_1">
    <path d="M 80.931449 358.299453 
L 80.931449 381.817656 
L 82.879017 381.817656 
L 84.826584 381.817656 
L 86.774152 381.817656 
L 88.721719 381.817656 
L 90.669287 381.817656 
L 92.616855 381.817656 
L 94.564422 381.817656 
L 96.51199 381.817656 
L 98.459558 381.817656 
L 100.407125 381.817656 
L 102.354693 381.817656 
L 104.302261 381.817656 
L 106.249828 381.817656 
L 108.197396 381.817656 
L 110.144964 381.817656 
L 112.092531 381.817656 
L 114.040099 381.817656 
L 115.987667 381.817656 
L 117.935234 381.817656 
L 119.882802 381.817656 
L 121.83037 381.817656 
L 123.777937 381.817656 
L 125.725505 381.817656 
L 127.673072 381.817656 
L 129.62064 381.817656 
L 131.568208 381.817656 
L 133.515775 381.817656 
L 135.463343 381.817656 
L 137.410911 381.817656 
L 139.358478 381.817656 
L 141.306046 381.817656 
L 143.253614 381.817656 
L 145.201181 381.817656 
L 147.148749 381.817656 
L 149.096317 381.817656 
L 151.043884 381.817656 
L 152.991452 381.817656 
L 154.93902 381.817656 
L 156.886587 381.817656 
L 158.834155 381.817656 
L 160.781723 381.817656 
L 162.72929 381.817656 
L 164.676858 381.817656 
L 166.624425 381.817656 
L 168.571993 381.817656 
L 170.519561 381.817656 
L 172.467128 381.817656 
L 174.414696 381.817656 
L 176.362264 381.817656 
L 178.309831 381.817656 
L 180.257399 381.817656 
L 182.204967 381.817656 
L 184.152534 381.817656 
L 186.100102 381.817656 
L 188.04767 381.817656 
L 189.995237 381.817656 
L 191.942805 381.817656 
L 193.890373 381.817656 
L 195.83794 381.817656 
L 197.785508 381.817656 
L 199.733075 381.817656 
L 201.680643 381.817656 
L 203.628211 381.817656 
L 205.575778 381.817656 
L 207.523346 381.817656 
L 209.470914 381.817656 
L 211.418481 381.817656 
L 213.366049 381.817656 
L 215.313617 381.817656 
L 217.261184 381.817656 
L 219.208752 381.817656 
L 221.15632 381.817656 
L 223.103887 381.817656 
L 225.051455 381.817656 
L 226.999023 381.817656 
L 228.94659 381.817656 
L 230.894158 381.817656 
L 232.841726 381.817656 
L 234.789293 381.817656 
L 236.736861 381.817656 
L 238.684428 381.817656 
L 240.631996 381.817656 
L 242.579564 381.817656 
L 244.527131 381.817656 
L 246.474699 381.817656 
L 248.422267 381.817656 
L 250.369834 381.817656 
L 252.317402 381.817656 
L 254.26497 381.817656 
L 256.212537 381.817656 
L 258.160105 381.817656 
L 260.107673 381.817656 
L 262.05524 381.817656 
L 264.002808 381.817656 
L 265.950376 381.817656 
L 267.897943 381.817656 
L 269.845511 381.817656 
L 271.793079 381.817656 
L 273.740646 381.817656 
L 275.688214 381.817656 
L 277.635781 381.817656 
L 279.583349 381.817656 
L 281.530917 381.817656 
L 283.478484 381.817656 
L 285.426052 381.817656 
L 287.37362 381.817656 
L 289.321187 381.817656 
L 291.268755 381.817656 
L 293.216323 381.817656 
L 295.16389 381.817656 
L 297.111458 381.817656 
L 299.059026 381.817656 
L 301.006593 381.817656 
L 302.954161 381.817656 
L 304.901729 381.817656 
L 306.849296 381.817656 
L 308.796864 381.817656 
L 310.744432 381.817656 
L 312.691999 381.817656 
L 314.639567 381.817656 
L 316.587134 381.817656 
L 318.534702 381.817656 
L 320.48227 381.817656 
L 322.429837 381.817656 
L 324.377405 381.817656 
L 326.324973 381.817656 
L 328.27254 381.817656 
L 330.220108 381.817656 
L 332.167676 381.817656 
L 334.115243 381.817656 
L 336.062811 381.817656 
L 338.010379 381.817656 
L 339.957946 381.817656 
L 341.905514 381.817656 
L 343.853082 381.817656 
L 345.800649 381.817656 
L 347.748217 381.817656 
L 349.695785 381.817656 
L 351.643352 381.817656 
L 353.59092 381.817656 
L 355.538487 381.817656 
L 357.486055 381.817656 
L 359.433623 381.817656 
L 361.38119 381.817656 
L 363.328758 381.817656 
L 365.276326 381.817656 
L 367.223893 381.817656 
L 369.171461 381.817656 
L 371.119029 381.817656 
L 373.066596 381.817656 
L 375.014164 381.817656 
L 376.961732 381.817656 
L 378.909299 381.817656 
L 380.856867 381.817656 
L 382.804435 381.817656 
L 384.752002 381.817656 
L 386.69957 381.817656 
L 388.647138 381.817656 
L 390.594705 381.817656 
L 392.542273 381.817656 
L 394.48984 381.817656 
L 396.437408 381.817656 
L 398.384976 381.817656 
L 400.332543 381.817656 
L 402.280111 381.817656 
L 404.227679 381.817656 
L 406.175246 381.817656 
L 408.122814 381.817656 
L 410.070382 381.817656 
L 412.017949 381.817656 
L 413.965517 381.817656 
L 415.913085 381.817656 
L 417.860652 381.817656 
L 419.80822 381.817656 
L 421.755788 381.817656 
L 423.703355 381.817656 
L 425.650923 381.817656 
L 427.598491 381.817656 
L 429.546058 381.817656 
L 431.493626 381.817656 
L 433.441193 381.817656 
L 435.388761 381.817656 
L 437.336329 381.817656 
L 439.283896 381.817656 
L 441.231464 381.817656 
L 443.179032 381.817656 
L 445.126599 381.817656 
L 447.074167 381.817656 
L 449.021735 381.817656 
L 450.969302 381.817656 
L 452.91687 381.817656 
L 454.864438 381.817656 
L 456.812005 381.817656 
L 458.759573 381.817656 
L 460.707141 381.817656 
L 462.654708 381.817656 
L 464.602276 381.817656 
L 466.549844 381.817656 
L 468.497411 381.817656 
L 470.444979 381.817656 
L 472.392546 381.817656 
L 474.340114 381.817656 
L 476.287682 381.817656 
L 478.235249 381.817656 
L 480.182817 381.817656 
L 482.130385 381.817656 
L 484.077952 381.817656 
L 486.02552 381.817656 
L 487.973088 381.817656 
L 489.920655 381.817656 
L 491.868223 381.817656 
L 493.815791 381.817656 
L 495.763358 381.817656 
L 497.710926 381.817656 
L 499.658494 381.817656 
L 501.606061 381.817656 
L 503.553629 381.817656 
L 505.501197 381.817656 
L 507.448764 381.817656 
L 509.396332 381.817656 
L 511.343899 381.817656 
L 513.291467 381.817656 
L 515.239035 381.817656 
L 517.186602 381.817656 
L 519.13417 381.817656 
L 521.081738 381.817656 
L 523.029305 381.817656 
L 524.976873 381.817656 
L 526.924441 381.817656 
L 528.872008 381.817656 
L 530.819576 381.817656 
L 532.767144 381.817656 
L 534.714711 381.817656 
L 536.662279 381.817656 
L 538.609847 381.817656 
L 540.557414 381.817656 
L 542.504982 381.817656 
L 544.45255 381.817656 
L 546.400117 381.817656 
L 548.347685 381.817656 
L 550.295252 381.817656 
L 552.24282 381.817656 
L 554.190388 381.817656 
L 556.137955 381.817656 
L 558.085523 381.817656 
L 560.033091 381.817656 
L 561.980658 381.817656 
L 563.928226 381.817656 
L 565.875794 381.817656 
L 567.823361 381.817656 
L 569.770929 381.817656 
L 571.718497 381.817656 
L 573.666064 381.817656 
L 575.613632 381.817656 
L 577.5612 381.817656 
L 579.508767 381.817656 
L 581.456335 381.817656 
L 583.403902 381.817656 
L 585.35147 381.817656 
L 587.299038 381.817656 
L 589.246605 381.817656 
L 591.194173 381.817656 
L 593.141741 381.817656 
L 595.089308 381.817656 
L 597.036876 381.817656 
L 598.984444 381.817656 
L 600.932011 381.817656 
L 602.879579 381.817656 
L 604.827147 381.817656 
L 606.774714 381.817656 
L 608.722282 381.817656 
L 610.66985 381.817656 
L 612.617417 381.817656 
L 614.564985 381.817656 
L 616.512553 381.817656 
L 618.46012 381.817656 
L 620.407688 381.817656 
L 622.355255 381.817656 
L 624.302823 381.817656 
L 626.250391 381.817656 
L 628.197958 381.817656 
L 630.145526 381.817656 
L 632.093094 381.817656 
L 634.040661 381.817656 
L 635.988229 381.817656 
L 637.935797 381.817656 
L 639.883364 381.817656 
L 641.830932 381.817656 
L 643.7785 381.817656 
L 645.726067 381.817656 
L 647.673635 381.817656 
L 649.621203 381.817656 
L 651.56877 381.817656 
L 653.516338 381.817656 
L 655.463906 381.817656 
L 657.411473 381.817656 
L 659.359041 381.817656 
L 661.306608 381.817656 
L 663.254176 381.817656 
L 663.254176 369.809732 
L 663.254176 369.809732 
L 661.306608 369.934976 
L 659.359041 370.052083 
L 657.411473 370.160974 
L 655.463906 370.26157 
L 653.516338 370.353792 
L 651.56877 370.437562 
L 649.621203 370.5128 
L 647.673635 370.579427 
L 645.726067 370.637366 
L 643.7785 370.686536 
L 641.830932 370.726859 
L 639.883364 370.758255 
L 637.935797 370.780647 
L 635.988229 370.793956 
L 634.040661 370.798083 
L 632.093094 370.785411 
L 630.145526 370.75196 
L 628.197958 370.700964 
L 626.250391 370.635657 
L 624.302823 370.559273 
L 622.355255 370.475047 
L 620.407688 370.386213 
L 618.46012 370.296004 
L 616.512553 370.207654 
L 614.564985 370.124398 
L 612.617417 370.04947 
L 610.66985 369.986104 
L 608.722282 369.937533 
L 606.774714 369.906993 
L 604.827147 369.897671 
L 602.879579 369.906356 
L 600.932011 369.928029 
L 598.984444 369.960651 
L 597.036876 370.002186 
L 595.089308 370.050597 
L 593.141741 370.103846 
L 591.194173 370.159896 
L 589.246605 370.216711 
L 587.299038 370.272251 
L 585.35147 370.324482 
L 583.403902 370.371365 
L 581.456335 370.410863 
L 579.508767 370.440939 
L 577.5612 370.459555 
L 575.613632 370.464645 
L 573.666064 370.453249 
L 571.718497 370.425497 
L 569.770929 370.382932 
L 567.823361 370.327099 
L 565.875794 370.259544 
L 563.928226 370.181809 
L 561.980658 370.095441 
L 560.033091 370.001982 
L 558.085523 369.902979 
L 556.137955 369.799974 
L 554.190388 369.694514 
L 552.24282 369.588141 
L 550.295252 369.482402 
L 548.347685 369.378839 
L 546.400117 369.27878 
L 544.45255 369.176235 
L 542.504982 369.068086 
L 540.557414 368.954574 
L 538.609847 368.835941 
L 536.662279 368.712429 
L 534.714711 368.58428 
L 532.767144 368.451736 
L 530.819576 368.315039 
L 528.872008 368.17443 
L 526.924441 368.030152 
L 524.976873 367.882447 
L 523.029305 367.731556 
L 521.081738 367.577722 
L 519.13417 367.421186 
L 517.186602 367.261973 
L 515.239035 367.095676 
L 513.291467 366.921108 
L 511.343899 366.739099 
L 509.396332 366.550479 
L 507.448764 366.356078 
L 505.501197 366.156727 
L 503.553629 365.953256 
L 501.606061 365.746495 
L 499.658494 365.537274 
L 497.710926 365.326424 
L 495.763358 365.114775 
L 493.815791 364.903158 
L 491.868223 364.692402 
L 489.920655 364.483338 
L 487.973088 364.275288 
L 486.02552 364.046751 
L 484.077952 363.795075 
L 482.130385 363.52624 
L 480.182817 363.246223 
L 478.235249 362.961004 
L 476.287682 362.676559 
L 474.340114 362.398867 
L 472.392546 362.133906 
L 470.444979 361.887655 
L 468.497411 361.666092 
L 466.549844 361.475194 
L 464.602276 361.32094 
L 462.654708 361.209308 
L 460.707141 361.146277 
L 458.759573 361.135027 
L 456.812005 361.145948 
L 454.864438 361.168111 
L 452.91687 361.199679 
L 450.969302 361.238818 
L 449.021735 361.283692 
L 447.074167 361.332467 
L 445.126599 361.383306 
L 443.179032 361.434374 
L 441.231464 361.483836 
L 439.283896 361.529858 
L 437.336329 361.570602 
L 435.388761 361.604235 
L 433.441193 361.628922 
L 431.493626 361.642825 
L 429.546058 361.64096 
L 427.598491 361.595306 
L 425.650923 361.505494 
L 423.703355 361.378794 
L 421.755788 361.222474 
L 419.80822 361.043802 
L 417.860652 360.850048 
L 415.913085 360.648479 
L 413.965517 360.446366 
L 412.017949 360.250976 
L 410.070382 360.069578 
L 408.122814 359.909442 
L 406.175246 359.777835 
L 404.227679 359.682027 
L 402.280111 359.629286 
L 400.332543 359.625483 
L 398.384976 359.663523 
L 396.437408 359.737633 
L 394.48984 359.843548 
L 392.542273 359.977005 
L 390.594705 360.133738 
L 388.647138 360.309483 
L 386.69957 360.499974 
L 384.752002 360.700948 
L 382.804435 360.908139 
L 380.856867 361.117282 
L 378.909299 361.324114 
L 376.961732 361.524369 
L 375.014164 361.713782 
L 373.066596 361.888089 
L 371.119029 362.04822 
L 369.171461 362.221148 
L 367.223893 362.407993 
L 365.276326 362.604691 
L 363.328758 362.807175 
L 361.38119 363.011379 
L 359.433623 363.213237 
L 357.486055 363.408685 
L 355.538487 363.593655 
L 353.59092 363.764082 
L 351.643352 363.9159 
L 349.695785 364.045044 
L 347.748217 364.147447 
L 345.800649 364.219044 
L 343.853082 364.255769 
L 341.905514 364.238374 
L 339.957946 364.097181 
L 338.010379 363.840693 
L 336.062811 363.488367 
L 334.115243 363.059664 
L 332.167676 362.574043 
L 330.220108 362.050963 
L 328.27254 361.509884 
L 326.324973 360.970263 
L 324.377405 360.451562 
L 322.429837 359.973238 
L 320.48227 359.554751 
L 318.534702 359.215561 
L 316.587134 358.975126 
L 314.639567 358.852906 
L 312.691999 358.858729 
L 310.744432 358.958884 
L 308.796864 359.137573 
L 306.849296 359.382431 
L 304.901729 359.681091 
L 302.954161 360.021188 
L 301.006593 360.390356 
L 299.059026 360.776229 
L 297.111458 361.166442 
L 295.16389 361.548629 
L 293.216323 361.910423 
L 291.268755 362.23946 
L 289.321187 362.523373 
L 287.37362 362.749796 
L 285.426052 362.906365 
L 283.478484 362.99901 
L 281.530917 363.083787 
L 279.583349 363.165306 
L 277.635781 363.243118 
L 275.688214 363.316769 
L 273.740646 363.38581 
L 271.793079 363.44979 
L 269.845511 363.508256 
L 267.897943 363.560758 
L 265.950376 363.606845 
L 264.002808 363.646065 
L 262.05524 363.677967 
L 260.107673 363.702101 
L 258.160105 363.718015 
L 256.212537 363.725258 
L 254.26497 363.716665 
L 252.317402 363.674376 
L 250.369834 363.600898 
L 248.422267 363.500035 
L 246.474699 363.375592 
L 244.527131 363.231372 
L 242.579564 363.07118 
L 240.631996 362.898818 
L 238.684428 362.718092 
L 236.736861 362.532805 
L 234.789293 362.346761 
L 232.841726 362.163764 
L 230.894158 361.987619 
L 228.94659 361.822128 
L 226.999023 361.671096 
L 225.051455 361.527934 
L 223.103887 361.370935 
L 221.15632 361.202546 
L 219.208752 361.026368 
L 217.261184 360.846 
L 215.313617 360.665042 
L 213.366049 360.487095 
L 211.418481 360.315759 
L 209.470914 360.154634 
L 207.523346 360.007319 
L 205.575778 359.877415 
L 203.628211 359.768522 
L 201.680643 359.68424 
L 199.733075 359.628169 
L 197.785508 359.603909 
L 195.83794 359.608989 
L 193.890373 359.631182 
L 191.942805 359.667639 
L 189.995237 359.715844 
L 188.04767 359.773285 
L 186.100102 359.837449 
L 184.152534 359.905823 
L 182.204967 359.975893 
L 180.257399 360.045146 
L 178.309831 360.11107 
L 176.362264 360.17115 
L 174.414696 360.222874 
L 172.467128 360.263728 
L 170.519561 360.291199 
L 168.571993 360.302774 
L 166.624425 360.273002 
L 164.676858 360.167541 
L 162.72929 359.997165 
L 160.781723 359.773414 
L 158.834155 359.507828 
L 156.886587 359.211949 
L 154.93902 358.897316 
L 152.991452 358.57547 
L 151.043884 358.257953 
L 149.096317 357.956303 
L 147.148749 357.682062 
L 145.201181 357.44677 
L 143.253614 357.261968 
L 141.306046 357.139196 
L 139.358478 357.089995 
L 137.410911 357.090345 
L 135.463343 357.092985 
L 133.515775 357.097412 
L 131.568208 357.103539 
L 129.62064 357.111279 
L 127.673072 357.120549 
L 125.725505 357.13126 
L 123.777937 357.143329 
L 121.83037 357.156669 
L 119.882802 357.171194 
L 117.935234 357.186819 
L 115.987667 357.203457 
L 114.040099 357.221023 
L 112.092531 357.239431 
L 110.144964 357.258596 
L 108.197396 357.282344 
L 106.249828 357.315036 
L 104.302261 357.356122 
L 102.354693 357.40504 
L 100.407125 357.461228 
L 98.459558 357.524125 
L 96.51199 357.59317 
L 94.564422 357.6678 
L 92.616855 357.747455 
L 90.669287 357.831573 
L 88.721719 357.919593 
L 86.774152 358.010952 
L 84.826584 358.105089 
L 82.879017 358.201444 
L 80.931449 358.299453 
z
" clip-path="url(#p22a1491670)" style="fill: url(#heab7c18998)"/>
   </g>
   <g id="FillBetweenPolyCollection_2">
    <path d="M 80.931449 272.031911 
L 80.931449 358.299453 
L 82.879017 358.201444 
L 84.826584 358.105089 
L 86.774152 358.010952 
L 88.721719 357.919593 
L 90.669287 357.831573 
L 92.616855 357.747455 
L 94.564422 357.6678 
L 96.51199 357.59317 
L 98.459558 357.524125 
L 100.407125 357.461228 
L 102.354693 357.40504 
L 104.302261 357.356122 
L 106.249828 357.315036 
L 108.197396 357.282344 
L 110.144964 357.258596 
L 112.092531 357.239431 
L 114.040099 357.221023 
L 115.987667 357.203457 
L 117.935234 357.186819 
L 119.882802 357.171194 
L 121.83037 357.156669 
L 123.777937 357.143329 
L 125.725505 357.13126 
L 127.673072 357.120549 
L 129.62064 357.111279 
L 131.568208 357.103539 
L 133.515775 357.097412 
L 135.463343 357.092985 
L 137.410911 357.090345 
L 139.358478 357.089995 
L 141.306046 357.139196 
L 143.253614 357.261968 
L 145.201181 357.44677 
L 147.148749 357.682062 
L 149.096317 357.956303 
L 151.043884 358.257953 
L 152.991452 358.57547 
L 154.93902 358.897316 
L 156.886587 359.211949 
L 158.834155 359.507828 
L 160.781723 359.773414 
L 162.72929 359.997165 
L 164.676858 360.167541 
L 166.624425 360.273002 
L 168.571993 360.302774 
L 170.519561 360.291199 
L 172.467128 360.263728 
L 174.414696 360.222874 
L 176.362264 360.17115 
L 178.309831 360.11107 
L 180.257399 360.045146 
L 182.204967 359.975893 
L 184.152534 359.905823 
L 186.100102 359.837449 
L 188.04767 359.773285 
L 189.995237 359.715844 
L 191.942805 359.667639 
L 193.890373 359.631182 
L 195.83794 359.608989 
L 197.785508 359.603909 
L 199.733075 359.628169 
L 201.680643 359.68424 
L 203.628211 359.768522 
L 205.575778 359.877415 
L 207.523346 360.007319 
L 209.470914 360.154634 
L 211.418481 360.315759 
L 213.366049 360.487095 
L 215.313617 360.665042 
L 217.261184 360.846 
L 219.208752 361.026368 
L 221.15632 361.202546 
L 223.103887 361.370935 
L 225.051455 361.527934 
L 226.999023 361.671096 
L 228.94659 361.822128 
L 230.894158 361.987619 
L 232.841726 362.163764 
L 234.789293 362.346761 
L 236.736861 362.532805 
L 238.684428 362.718092 
L 240.631996 362.898818 
L 242.579564 363.07118 
L 244.527131 363.231372 
L 246.474699 363.375592 
L 248.422267 363.500035 
L 250.369834 363.600898 
L 252.317402 363.674376 
L 254.26497 363.716665 
L 256.212537 363.725258 
L 258.160105 363.718015 
L 260.107673 363.702101 
L 262.05524 363.677967 
L 264.002808 363.646065 
L 265.950376 363.606845 
L 267.897943 363.560758 
L 269.845511 363.508256 
L 271.793079 363.44979 
L 273.740646 363.38581 
L 275.688214 363.316769 
L 277.635781 363.243118 
L 279.583349 363.165306 
L 281.530917 363.083787 
L 283.478484 362.99901 
L 285.426052 362.906365 
L 287.37362 362.749796 
L 289.321187 362.523373 
L 291.268755 362.23946 
L 293.216323 361.910423 
L 295.16389 361.548629 
L 297.111458 361.166442 
L 299.059026 360.776229 
L 301.006593 360.390356 
L 302.954161 360.021188 
L 304.901729 359.681091 
L 306.849296 359.382431 
L 308.796864 359.137573 
L 310.744432 358.958884 
L 312.691999 358.858729 
L 314.639567 358.852906 
L 316.587134 358.975126 
L 318.534702 359.215561 
L 320.48227 359.554751 
L 322.429837 359.973238 
L 324.377405 360.451562 
L 326.324973 360.970263 
L 328.27254 361.509884 
L 330.220108 362.050963 
L 332.167676 362.574043 
L 334.115243 363.059664 
L 336.062811 363.488367 
L 338.010379 363.840693 
L 339.957946 364.097181 
L 341.905514 364.238374 
L 343.853082 364.255769 
L 345.800649 364.219044 
L 347.748217 364.147447 
L 349.695785 364.045044 
L 351.643352 363.9159 
L 353.59092 363.764082 
L 355.538487 363.593655 
L 357.486055 363.408685 
L 359.433623 363.213237 
L 361.38119 363.011379 
L 363.328758 362.807175 
L 365.276326 362.604691 
L 367.223893 362.407993 
L 369.171461 362.221148 
L 371.119029 362.04822 
L 373.066596 361.888089 
L 375.014164 361.713782 
L 376.961732 361.524369 
L 378.909299 361.324114 
L 380.856867 361.117282 
L 382.804435 360.908139 
L 384.752002 360.700948 
L 386.69957 360.499974 
L 388.647138 360.309483 
L 390.594705 360.133738 
L 392.542273 359.977005 
L 394.48984 359.843548 
L 396.437408 359.737633 
L 398.384976 359.663523 
L 400.332543 359.625483 
L 402.280111 359.629286 
L 404.227679 359.682027 
L 406.175246 359.777835 
L 408.122814 359.909442 
L 410.070382 360.069578 
L 412.017949 360.250976 
L 413.965517 360.446366 
L 415.913085 360.648479 
L 417.860652 360.850048 
L 419.80822 361.043802 
L 421.755788 361.222474 
L 423.703355 361.378794 
L 425.650923 361.505494 
L 427.598491 361.595306 
L 429.546058 361.64096 
L 431.493626 361.642825 
L 433.441193 361.628922 
L 435.388761 361.604235 
L 437.336329 361.570602 
L 439.283896 361.529858 
L 441.231464 361.483836 
L 443.179032 361.434374 
L 445.126599 361.383306 
L 447.074167 361.332467 
L 449.021735 361.283692 
L 450.969302 361.238818 
L 452.91687 361.199679 
L 454.864438 361.168111 
L 456.812005 361.145948 
L 458.759573 361.135027 
L 460.707141 361.146277 
L 462.654708 361.209308 
L 464.602276 361.32094 
L 466.549844 361.475194 
L 468.497411 361.666092 
L 470.444979 361.887655 
L 472.392546 362.133906 
L 474.340114 362.398867 
L 476.287682 362.676559 
L 478.235249 362.961004 
L 480.182817 363.246223 
L 482.130385 363.52624 
L 484.077952 363.795075 
L 486.02552 364.046751 
L 487.973088 364.275288 
L 489.920655 364.483338 
L 491.868223 364.692402 
L 493.815791 364.903158 
L 495.763358 365.114775 
L 497.710926 365.326424 
L 499.658494 365.537274 
L 501.606061 365.746495 
L 503.553629 365.953256 
L 505.501197 366.156727 
L 507.448764 366.356078 
L 509.396332 366.550479 
L 511.343899 366.739099 
L 513.291467 366.921108 
L 515.239035 367.095676 
L 517.186602 367.261973 
L 519.13417 367.421186 
L 521.081738 367.577722 
L 523.029305 367.731556 
L 524.976873 367.882447 
L 526.924441 368.030152 
L 528.872008 368.17443 
L 530.819576 368.315039 
L 532.767144 368.451736 
L 534.714711 368.58428 
L 536.662279 368.712429 
L 538.609847 368.835941 
L 540.557414 368.954574 
L 542.504982 369.068086 
L 544.45255 369.176235 
L 546.400117 369.27878 
L 548.347685 369.378839 
L 550.295252 369.482402 
L 552.24282 369.588141 
L 554.190388 369.694514 
L 556.137955 369.799974 
L 558.085523 369.902979 
L 560.033091 370.001982 
L 561.980658 370.095441 
L 563.928226 370.181809 
L 565.875794 370.259544 
L 567.823361 370.327099 
L 569.770929 370.382932 
L 571.718497 370.425497 
L 573.666064 370.453249 
L 575.613632 370.464645 
L 577.5612 370.459555 
L 579.508767 370.440939 
L 581.456335 370.410863 
L 583.403902 370.371365 
L 585.35147 370.324482 
L 587.299038 370.272251 
L 589.246605 370.216711 
L 591.194173 370.159896 
L 593.141741 370.103846 
L 595.089308 370.050597 
L 597.036876 370.002186 
L 598.984444 369.960651 
L 600.932011 369.928029 
L 602.879579 369.906356 
L 604.827147 369.897671 
L 606.774714 369.906993 
L 608.722282 369.937533 
L 610.66985 369.986104 
L 612.617417 370.04947 
L 614.564985 370.124398 
L 616.512553 370.207654 
L 618.46012 370.296004 
L 620.407688 370.386213 
L 622.355255 370.475047 
L 624.302823 370.559273 
L 626.250391 370.635657 
L 628.197958 370.700964 
L 630.145526 370.75196 
L 632.093094 370.785411 
L 634.040661 370.798083 
L 635.988229 370.793956 
L 637.935797 370.780647 
L 639.883364 370.758255 
L 641.830932 370.726859 
L 643.7785 370.686536 
L 645.726067 370.637366 
L 647.673635 370.579427 
L 649.621203 370.5128 
L 651.56877 370.437562 
L 653.516338 370.353792 
L 655.463906 370.26157 
L 657.411473 370.160974 
L 659.359041 370.052083 
L 661.306608 369.934976 
L 663.254176 369.809732 
L 663.254176 315.060089 
L 663.254176 315.060089 
L 661.306608 315.10257 
L 659.359041 315.134854 
L 657.411473 315.15691 
L 655.463906 315.168706 
L 653.516338 315.170212 
L 651.56877 315.161397 
L 649.621203 315.142229 
L 647.673635 315.112677 
L 645.726067 315.072711 
L 643.7785 315.022299 
L 641.830932 314.96141 
L 639.883364 314.890013 
L 637.935797 314.808077 
L 635.988229 314.715572 
L 634.040661 314.612422 
L 632.093094 314.481169 
L 630.145526 314.31231 
L 628.197958 314.112822 
L 626.250391 313.88968 
L 624.302823 313.64986 
L 622.355255 313.40034 
L 620.407688 313.148095 
L 618.46012 312.900101 
L 616.512553 312.663336 
L 614.564985 312.444774 
L 612.617417 312.251393 
L 610.66985 312.090169 
L 608.722282 311.968077 
L 606.774714 311.892095 
L 604.827147 311.869272 
L 602.879579 311.911856 
L 600.932011 312.018117 
L 598.984444 312.178067 
L 597.036876 312.381716 
L 595.089308 312.619076 
L 593.141741 312.880159 
L 591.194173 313.154976 
L 589.246605 313.433539 
L 587.299038 313.70586 
L 585.35147 313.961948 
L 583.403902 314.191817 
L 581.456335 314.385478 
L 579.508767 314.532942 
L 577.5612 314.62422 
L 575.613632 314.648469 
L 573.666064 314.554022 
L 571.718497 314.327531 
L 569.770929 313.986422 
L 567.823361 313.548123 
L 565.875794 313.030059 
L 563.928226 312.449657 
L 561.980658 311.824343 
L 560.033091 311.171543 
L 558.085523 310.508684 
L 556.137955 309.853193 
L 554.190388 309.222496 
L 552.24282 308.634018 
L 550.295252 308.105187 
L 548.347685 307.653429 
L 546.400117 307.29417 
L 544.45255 306.97438 
L 542.504982 306.663019 
L 540.557414 306.359094 
L 538.609847 306.061617 
L 536.662279 305.769595 
L 534.714711 305.482039 
L 532.767144 305.197957 
L 530.819576 304.91636 
L 528.872008 304.636256 
L 526.924441 304.356655 
L 524.976873 304.076566 
L 523.029305 303.794999 
L 521.081738 303.510964 
L 519.13417 303.223469 
L 517.186602 302.931805 
L 515.239035 302.641097 
L 513.291467 302.352578 
L 511.343899 302.064911 
L 509.396332 301.77676 
L 507.448764 301.486789 
L 505.501197 301.19366 
L 503.553629 300.896037 
L 501.606061 300.592585 
L 499.658494 300.281965 
L 497.710926 299.962842 
L 495.763358 299.63388 
L 493.815791 299.293741 
L 491.868223 298.941089 
L 489.920655 298.574588 
L 487.973088 298.187416 
L 486.02552 297.698341 
L 484.077952 297.097798 
L 482.130385 296.408008 
L 480.182817 295.651191 
L 478.235249 294.849567 
L 476.287682 294.025355 
L 474.340114 293.200775 
L 472.392546 292.398048 
L 470.444979 291.639394 
L 468.497411 290.947032 
L 466.549844 290.343183 
L 464.602276 289.850066 
L 462.654708 289.489902 
L 460.707141 289.28491 
L 458.759573 289.254619 
L 456.812005 289.376787 
L 454.864438 289.626123 
L 452.91687 289.983724 
L 450.969302 290.430688 
L 449.021735 290.94811 
L 447.074167 291.51709 
L 445.126599 292.118722 
L 443.179032 292.734105 
L 441.231464 293.344336 
L 439.283896 293.930511 
L 437.336329 294.473727 
L 435.388761 294.955082 
L 433.441193 295.355673 
L 431.493626 295.656596 
L 429.546058 295.84343 
L 427.598491 295.948261 
L 425.650923 295.989721 
L 423.703355 295.978114 
L 421.755788 295.923743 
L 419.80822 295.836913 
L 417.860652 295.727926 
L 415.913085 295.607087 
L 413.965517 295.484698 
L 412.017949 295.371062 
L 410.070382 295.276485 
L 408.122814 295.211268 
L 406.175246 295.185716 
L 404.227679 295.210132 
L 402.280111 295.29482 
L 400.332543 295.449594 
L 398.384976 295.675142 
L 396.437408 295.96474 
L 394.48984 296.311532 
L 392.542273 296.708658 
L 390.594705 297.14926 
L 388.647138 297.626481 
L 386.69957 298.133463 
L 384.752002 298.663346 
L 382.804435 299.209274 
L 380.856867 299.764388 
L 378.909299 300.32183 
L 376.961732 300.874741 
L 375.014164 301.416264 
L 373.066596 301.939541 
L 371.119029 302.452296 
L 369.171461 303.031568 
L 367.223893 303.675875 
L 365.276326 304.368752 
L 363.328758 305.093735 
L 361.38119 305.834359 
L 359.433623 306.574158 
L 357.486055 307.29667 
L 355.538487 307.985428 
L 353.59092 308.623968 
L 351.643352 309.195825 
L 349.695785 309.684535 
L 347.748217 310.073633 
L 345.800649 310.346654 
L 343.853082 310.487133 
L 341.905514 310.470211 
L 339.957946 310.255165 
L 338.010379 309.861475 
L 336.062811 309.315693 
L 334.115243 308.644371 
L 332.167676 307.874061 
L 330.220108 307.031315 
L 328.27254 306.142685 
L 326.324973 305.234722 
L 324.377405 304.333979 
L 322.429837 303.467008 
L 320.48227 302.66036 
L 318.534702 301.940588 
L 316.587134 301.334243 
L 314.639567 300.867877 
L 312.691999 300.544891 
L 310.744432 300.283404 
L 308.796864 300.069451 
L 306.849296 299.898526 
L 304.901729 299.766124 
L 302.954161 299.66774 
L 301.006593 299.598869 
L 299.059026 299.555007 
L 297.111458 299.531649 
L 295.16389 299.524289 
L 293.216323 299.528422 
L 291.268755 299.539545 
L 289.321187 299.553151 
L 287.37362 299.564735 
L 285.426052 299.569794 
L 283.478484 299.569321 
L 281.530917 299.578655 
L 279.583349 299.596834 
L 277.635781 299.621342 
L 275.688214 299.649664 
L 273.740646 299.679283 
L 271.793079 299.707684 
L 269.845511 299.732351 
L 267.897943 299.750768 
L 265.950376 299.76042 
L 264.002808 299.75879 
L 262.05524 299.743362 
L 260.107673 299.711622 
L 258.160105 299.661052 
L 256.212537 299.589138 
L 254.26497 299.477439 
L 252.317402 299.282629 
L 250.369834 299.010183 
L 248.422267 298.668663 
L 246.474699 298.266635 
L 244.527131 297.812662 
L 242.579564 297.31531 
L 240.631996 296.783141 
L 238.684428 296.224722 
L 236.736861 295.648614 
L 234.789293 295.063384 
L 232.841726 294.477596 
L 230.894158 293.899812 
L 228.94659 293.338599 
L 226.999023 292.80252 
L 225.051455 292.263286 
L 223.103887 291.644 
L 221.15632 290.95809 
L 219.208752 290.223175 
L 217.261184 289.456876 
L 215.313617 288.67681 
L 213.366049 287.900596 
L 211.418481 287.145854 
L 209.470914 286.430202 
L 207.523346 285.771259 
L 205.575778 285.186645 
L 203.628211 284.693978 
L 201.680643 284.310876 
L 199.733075 284.054961 
L 197.785508 283.943849 
L 195.83794 283.970346 
L 193.890373 284.084406 
L 191.942805 284.271763 
L 189.995237 284.519504 
L 188.04767 284.814711 
L 186.100102 285.144468 
L 184.152534 285.49586 
L 182.204967 285.855969 
L 180.257399 286.211882 
L 178.309831 286.55068 
L 176.362264 286.859449 
L 174.414696 287.125272 
L 172.467128 287.335233 
L 170.519561 287.476416 
L 168.571993 287.535905 
L 166.624425 287.328891 
L 164.676858 286.596934 
L 162.72929 285.414429 
L 160.781723 283.861472 
L 158.834155 282.018163 
L 156.886587 279.964597 
L 154.93902 277.780873 
L 152.991452 275.547089 
L 151.043884 273.34334 
L 149.096317 271.249726 
L 147.148749 269.346343 
L 145.201181 267.71329 
L 143.253614 266.430662 
L 141.306046 265.578559 
L 139.358478 265.237077 
L 137.410911 265.27783 
L 135.463343 265.420655 
L 133.515775 265.649256 
L 131.568208 265.949752 
L 129.62064 266.308263 
L 127.673072 266.710908 
L 125.725505 267.143808 
L 123.777937 267.593082 
L 121.83037 268.044851 
L 119.882802 268.485233 
L 117.935234 268.90035 
L 115.987667 269.27632 
L 114.040099 269.599264 
L 112.092531 269.855301 
L 110.144964 270.030552 
L 108.197396 270.159048 
L 106.249828 270.293112 
L 104.302261 270.431722 
L 102.354693 270.573732 
L 100.407125 270.717993 
L 98.459558 270.863357 
L 96.51199 271.008678 
L 94.564422 271.152806 
L 92.616855 271.294594 
L 90.669287 271.432895 
L 88.721719 271.56656 
L 86.774152 271.694442 
L 84.826584 271.815393 
L 82.879017 271.928265 
L 80.931449 272.031911 
z
" clip-path="url(#p22a1491670)" style="fill: url(#h71fed0e24b)"/>
   </g>
   <g id="FillBetweenPolyCollection_3">
    <path d="M 80.931449 271.992531 
L 80.931449 272.031911 
L 82.879017 271.928265 
L 84.826584 271.815393 
L 86.774152 271.694442 
L 88.721719 271.56656 
L 90.669287 271.432895 
L 92.616855 271.294594 
L 94.564422 271.152806 
L 96.51199 271.008678 
L 98.459558 270.863357 
L 100.407125 270.717993 
L 102.354693 270.573732 
L 104.302261 270.431722 
L 106.249828 270.293112 
L 108.197396 270.159048 
L 110.144964 270.030552 
L 112.092531 269.855301 
L 114.040099 269.599264 
L 115.987667 269.27632 
L 117.935234 268.90035 
L 119.882802 268.485233 
L 121.83037 268.044851 
L 123.777937 267.593082 
L 125.725505 267.143808 
L 127.673072 266.710908 
L 129.62064 266.308263 
L 131.568208 265.949752 
L 133.515775 265.649256 
L 135.463343 265.420655 
L 137.410911 265.27783 
L 139.358478 265.237077 
L 141.306046 265.578559 
L 143.253614 266.430662 
L 145.201181 267.71329 
L 147.148749 269.346343 
L 149.096317 271.249726 
L 151.043884 273.34334 
L 152.991452 275.547089 
L 154.93902 277.780873 
L 156.886587 279.964597 
L 158.834155 282.018163 
L 160.781723 283.861472 
L 162.72929 285.414429 
L 164.676858 286.596934 
L 166.624425 287.328891 
L 168.571993 287.535905 
L 170.519561 287.476416 
L 172.467128 287.335233 
L 174.414696 287.125272 
L 176.362264 286.859449 
L 178.309831 286.55068 
L 180.257399 286.211882 
L 182.204967 285.855969 
L 184.152534 285.49586 
L 186.100102 285.144468 
L 188.04767 284.814711 
L 189.995237 284.519504 
L 191.942805 284.271763 
L 193.890373 284.084406 
L 195.83794 283.970346 
L 197.785508 283.943849 
L 199.733075 284.054961 
L 201.680643 284.310876 
L 203.628211 284.693978 
L 205.575778 285.186645 
L 207.523346 285.771259 
L 209.470914 286.430202 
L 211.418481 287.145854 
L 213.366049 287.900596 
L 215.313617 288.67681 
L 217.261184 289.456876 
L 219.208752 290.223175 
L 221.15632 290.95809 
L 223.103887 291.644 
L 225.051455 292.263286 
L 226.999023 292.80252 
L 228.94659 293.338599 
L 230.894158 293.899812 
L 232.841726 294.477596 
L 234.789293 295.063384 
L 236.736861 295.648614 
L 238.684428 296.224722 
L 240.631996 296.783141 
L 242.579564 297.31531 
L 244.527131 297.812662 
L 246.474699 298.266635 
L 248.422267 298.668663 
L 250.369834 299.010183 
L 252.317402 299.282629 
L 254.26497 299.477439 
L 256.212537 299.589138 
L 258.160105 299.661052 
L 260.107673 299.711622 
L 262.05524 299.743362 
L 264.002808 299.75879 
L 265.950376 299.76042 
L 267.897943 299.750768 
L 269.845511 299.732351 
L 271.793079 299.707684 
L 273.740646 299.679283 
L 275.688214 299.649664 
L 277.635781 299.621342 
L 279.583349 299.596834 
L 281.530917 299.578655 
L 283.478484 299.569321 
L 285.426052 299.569794 
L 287.37362 299.564735 
L 289.321187 299.553151 
L 291.268755 299.539545 
L 293.216323 299.528422 
L 295.16389 299.524289 
L 297.111458 299.531649 
L 299.059026 299.555007 
L 301.006593 299.598869 
L 302.954161 299.66774 
L 304.901729 299.766124 
L 306.849296 299.898526 
L 308.796864 300.069451 
L 310.744432 300.283404 
L 312.691999 300.544891 
L 314.639567 300.867877 
L 316.587134 301.334243 
L 318.534702 301.940588 
L 320.48227 302.66036 
L 322.429837 303.467008 
L 324.377405 304.333979 
L 326.324973 305.234722 
L 328.27254 306.142685 
L 330.220108 307.031315 
L 332.167676 307.874061 
L 334.115243 308.644371 
L 336.062811 309.315693 
L 338.010379 309.861475 
L 339.957946 310.255165 
L 341.905514 310.470211 
L 343.853082 310.487133 
L 345.800649 310.346654 
L 347.748217 310.073633 
L 349.695785 309.684535 
L 351.643352 309.195825 
L 353.59092 308.623968 
L 355.538487 307.985428 
L 357.486055 307.29667 
L 359.433623 306.574158 
L 361.38119 305.834359 
L 363.328758 305.093735 
L 365.276326 304.368752 
L 367.223893 303.675875 
L 369.171461 303.031568 
L 371.119029 302.452296 
L 373.066596 301.939541 
L 375.014164 301.416264 
L 376.961732 300.874741 
L 378.909299 300.32183 
L 380.856867 299.764388 
L 382.804435 299.209274 
L 384.752002 298.663346 
L 386.69957 298.133463 
L 388.647138 297.626481 
L 390.594705 297.14926 
L 392.542273 296.708658 
L 394.48984 296.311532 
L 396.437408 295.96474 
L 398.384976 295.675142 
L 400.332543 295.449594 
L 402.280111 295.29482 
L 404.227679 295.210132 
L 406.175246 295.185716 
L 408.122814 295.211268 
L 410.070382 295.276485 
L 412.017949 295.371062 
L 413.965517 295.484698 
L 415.913085 295.607087 
L 417.860652 295.727926 
L 419.80822 295.836913 
L 421.755788 295.923743 
L 423.703355 295.978114 
L 425.650923 295.989721 
L 427.598491 295.948261 
L 429.546058 295.84343 
L 431.493626 295.656596 
L 433.441193 295.355673 
L 435.388761 294.955082 
L 437.336329 294.473727 
L 439.283896 293.930511 
L 441.231464 293.344336 
L 443.179032 292.734105 
L 445.126599 292.118722 
L 447.074167 291.51709 
L 449.021735 290.94811 
L 450.969302 290.430688 
L 452.91687 289.983724 
L 454.864438 289.626123 
L 456.812005 289.376787 
L 458.759573 289.254619 
L 460.707141 289.28491 
L 462.654708 289.489902 
L 464.602276 289.850066 
L 466.549844 290.343183 
L 468.497411 290.947032 
L 470.444979 291.639394 
L 472.392546 292.398048 
L 474.340114 293.200775 
L 476.287682 294.025355 
L 478.235249 294.849567 
L 480.182817 295.651191 
L 482.130385 296.408008 
L 484.077952 297.097798 
L 486.02552 297.698341 
L 487.973088 298.187416 
L 489.920655 298.574588 
L 491.868223 298.941089 
L 493.815791 299.293741 
L 495.763358 299.63388 
L 497.710926 299.962842 
L 499.658494 300.281965 
L 501.606061 300.592585 
L 503.553629 300.896037 
L 505.501197 301.19366 
L 507.448764 301.486789 
L 509.396332 301.77676 
L 511.343899 302.064911 
L 513.291467 302.352578 
L 515.239035 302.641097 
L 517.186602 302.931805 
L 519.13417 303.223469 
L 521.081738 303.510964 
L 523.029305 303.794999 
L 524.976873 304.076566 
L 526.924441 304.356655 
L 528.872008 304.636256 
L 530.819576 304.91636 
L 532.767144 305.197957 
L 534.714711 305.482039 
L 536.662279 305.769595 
L 538.609847 306.061617 
L 540.557414 306.359094 
L 542.504982 306.663019 
L 544.45255 306.97438 
L 546.400117 307.29417 
L 548.347685 307.653429 
L 550.295252 308.105187 
L 552.24282 308.634018 
L 554.190388 309.222496 
L 556.137955 309.853193 
L 558.085523 310.508684 
L 560.033091 311.171543 
L 561.980658 311.824343 
L 563.928226 312.449657 
L 565.875794 313.030059 
L 567.823361 313.548123 
L 569.770929 313.986422 
L 571.718497 314.327531 
L 573.666064 314.554022 
L 575.613632 314.648469 
L 577.5612 314.62422 
L 579.508767 314.532942 
L 581.456335 314.385478 
L 583.403902 314.191817 
L 585.35147 313.961948 
L 587.299038 313.70586 
L 589.246605 313.433539 
L 591.194173 313.154976 
L 593.141741 312.880159 
L 595.089308 312.619076 
L 597.036876 312.381716 
L 598.984444 312.178067 
L 600.932011 312.018117 
L 602.879579 311.911856 
L 604.827147 311.869272 
L 606.774714 311.892095 
L 608.722282 311.968077 
L 610.66985 312.090169 
L 612.617417 312.251393 
L 614.564985 312.444774 
L 616.512553 312.663336 
L 618.46012 312.900101 
L 620.407688 313.148095 
L 622.355255 313.40034 
L 624.302823 313.64986 
L 626.250391 313.88968 
L 628.197958 314.112822 
L 630.145526 314.31231 
L 632.093094 314.481169 
L 634.040661 314.612422 
L 635.988229 314.715572 
L 637.935797 314.808077 
L 639.883364 314.890013 
L 641.830932 314.96141 
L 643.7785 315.022299 
L 645.726067 315.072711 
L 647.673635 315.112677 
L 649.621203 315.142229 
L 651.56877 315.161397 
L 653.516338 315.170212 
L 655.463906 315.168706 
L 657.411473 315.15691 
L 659.359041 315.134854 
L 661.306608 315.10257 
L 663.254176 315.060089 
L 663.254176 315.027635 
L 663.254176 315.027635 
L 661.306608 315.065505 
L 659.359041 315.093268 
L 657.411473 315.110911 
L 655.463906 315.118424 
L 653.516338 315.115794 
L 651.56877 315.10301 
L 649.621203 315.080061 
L 647.673635 315.046935 
L 645.726067 315.00362 
L 643.7785 314.950105 
L 641.830932 314.886378 
L 639.883364 314.812428 
L 637.935797 314.728243 
L 635.988229 314.633812 
L 634.040661 314.52908 
L 632.093094 314.396417 
L 630.145526 314.226179 
L 628.197958 314.025352 
L 626.250391 313.800921 
L 624.302823 313.559874 
L 622.355255 313.309197 
L 620.407688 313.055875 
L 618.46012 312.806896 
L 616.512553 312.569245 
L 614.564985 312.34991 
L 612.617417 312.155877 
L 610.66985 311.994131 
L 608.722282 311.871659 
L 606.774714 311.795448 
L 604.827147 311.772565 
L 602.879579 311.816024 
L 600.932011 311.924469 
L 598.984444 312.087706 
L 597.036876 312.29554 
L 595.089308 312.537778 
L 593.141741 312.804227 
L 591.194173 313.084692 
L 589.246605 313.36898 
L 587.299038 313.646896 
L 585.35147 313.908248 
L 583.403902 314.142841 
L 581.456335 314.340481 
L 579.508767 314.490976 
L 577.5612 314.58413 
L 575.613632 314.608899 
L 573.666064 314.513728 
L 571.718497 314.285502 
L 569.770929 313.941787 
L 567.823361 313.500145 
L 565.875794 312.978139 
L 563.928226 312.393334 
L 561.980658 311.763292 
L 560.033091 311.105577 
L 558.085523 310.437752 
L 556.137955 309.777381 
L 554.190388 309.142028 
L 552.24282 308.549255 
L 550.295252 308.016626 
L 548.347685 307.561705 
L 546.400117 307.200041 
L 544.45255 306.878271 
L 542.504982 306.565129 
L 540.557414 306.259595 
L 538.609847 305.960645 
L 536.662279 305.667259 
L 534.714711 305.378415 
L 532.767144 305.093091 
L 530.819576 304.810265 
L 528.872008 304.528916 
L 526.924441 304.248022 
L 524.976873 303.96656 
L 523.029305 303.683511 
L 521.081738 303.397851 
L 519.13417 303.108558 
L 517.186602 302.814879 
L 515.239035 302.521607 
L 513.291467 302.229941 
L 511.343899 301.93866 
L 509.396332 301.646543 
L 507.448764 301.352369 
L 505.501197 301.054919 
L 503.553629 300.75297 
L 501.606061 300.445302 
L 499.658494 300.130695 
L 497.710926 299.807927 
L 495.763358 299.475779 
L 493.815791 299.133028 
L 491.868223 298.778455 
L 489.920655 298.410839 
L 487.973088 298.02345 
L 486.02552 297.534754 
L 484.077952 296.935029 
L 482.130385 296.246458 
L 480.182817 295.491218 
L 478.235249 294.691492 
L 476.287682 293.869458 
L 474.340114 293.047296 
L 472.392546 292.247187 
L 470.444979 291.49131 
L 468.497411 290.801846 
L 466.549844 290.200975 
L 464.602276 289.710877 
L 462.654708 289.353731 
L 460.707141 289.151718 
L 458.759573 289.124389 
L 456.812005 289.250173 
L 454.864438 289.503851 
L 452.91687 289.866372 
L 450.969302 290.318682 
L 449.021735 290.841728 
L 447.074167 291.416457 
L 445.126599 292.023814 
L 443.179032 292.644748 
L 441.231464 293.260205 
L 439.283896 293.851132 
L 437.336329 294.398475 
L 435.388761 294.883182 
L 433.441193 295.286199 
L 431.493626 295.588473 
L 429.546058 295.775488 
L 427.598491 295.879784 
L 425.650923 295.920192 
L 423.703355 295.907102 
L 421.755788 295.850901 
L 419.80822 295.761978 
L 417.860652 295.650722 
L 415.913085 295.527522 
L 413.965517 295.402766 
L 412.017949 295.286842 
L 410.070382 295.190141 
L 408.122814 295.123049 
L 406.175246 295.095955 
L 404.227679 295.119249 
L 402.280111 295.203319 
L 400.332543 295.358031 
L 398.384976 295.583861 
L 396.437408 295.874005 
L 394.48984 296.22157 
L 392.542273 296.619665 
L 390.594705 297.061394 
L 388.647138 297.539866 
L 386.69957 298.048187 
L 384.752002 298.579464 
L 382.804435 299.126804 
L 380.856867 299.683313 
L 378.909299 300.242098 
L 376.961732 300.796267 
L 375.014164 301.338926 
L 373.066596 301.863182 
L 371.119029 302.376743 
L 369.171461 302.95674 
L 367.223893 303.601717 
L 365.276326 304.295221 
L 363.328758 305.020795 
L 361.38119 305.761984 
L 359.433623 306.502333 
L 357.486055 307.225388 
L 355.538487 307.914693 
L 353.59092 308.553792 
L 351.643352 309.126231 
L 349.695785 309.615555 
L 347.748217 310.005308 
L 345.800649 310.279036 
L 343.853082 310.420283 
L 341.905514 310.404228 
L 339.957946 310.190271 
L 338.010379 309.797872 
L 336.062811 309.253539 
L 334.115243 308.583779 
L 332.167676 307.815103 
L 330.220108 306.974018 
L 328.27254 306.087033 
L 326.324973 305.180657 
L 324.377405 304.281398 
L 322.429837 303.415765 
L 320.48227 302.610267 
L 318.534702 301.891412 
L 316.587134 301.285708 
L 314.639567 300.819665 
L 312.691999 300.496703 
L 310.744432 300.235188 
L 308.796864 300.021183 
L 306.849296 299.850187 
L 304.901729 299.7177 
L 302.954161 299.61922 
L 301.006593 299.550246 
L 299.059026 299.506277 
L 297.111458 299.482813 
L 295.16389 299.475351 
L 293.216323 299.479391 
L 291.268755 299.490431 
L 289.321187 299.503971 
L 287.37362 299.515509 
L 285.426052 299.520545 
L 283.478484 299.52028 
L 281.530917 299.530692 
L 279.583349 299.550745 
L 277.635781 299.577787 
L 275.688214 299.609165 
L 273.740646 299.642226 
L 271.793079 299.674318 
L 269.845511 299.702789 
L 267.897943 299.724986 
L 265.950376 299.738257 
L 264.002808 299.739949 
L 262.05524 299.72741 
L 260.107673 299.697988 
L 258.160105 299.64903 
L 256.212537 299.577883 
L 254.26497 299.465563 
L 252.317402 299.267672 
L 250.369834 298.989976 
L 248.422267 298.641414 
L 246.474699 298.230926 
L 244.527131 297.767453 
L 242.579564 297.259932 
L 240.631996 296.717305 
L 238.684428 296.148511 
L 236.736861 295.56249 
L 234.789293 294.968181 
L 232.841726 294.374524 
L 230.894158 293.790459 
L 228.94659 293.224925 
L 226.999023 292.686862 
L 225.051455 292.147815 
L 223.103887 291.529684 
L 221.15632 290.845737 
L 219.208752 290.113484 
L 217.261184 289.350437 
L 215.313617 288.574107 
L 213.366049 287.802005 
L 211.418481 287.05164 
L 209.470914 286.340526 
L 207.523346 285.686172 
L 205.575778 285.106089 
L 203.628211 284.61779 
L 201.680643 284.238783 
L 199.733075 283.986581 
L 197.785508 283.878695 
L 195.83794 283.908028 
L 193.890373 284.024903 
L 191.942805 284.215058 
L 189.995237 284.465565 
L 188.04767 284.763495 
L 186.100102 285.095922 
L 184.152534 285.449918 
L 182.204967 285.812554 
L 180.257399 286.170903 
L 178.309831 286.512038 
L 176.362264 286.823031 
L 174.414696 287.090953 
L 172.467128 287.302878 
L 170.519561 287.445877 
L 168.571993 287.507023 
L 166.624425 287.301573 
L 164.676858 286.571203 
L 162.72929 285.390293 
L 160.781723 283.83892 
L 158.834155 281.997162 
L 156.886587 279.945096 
L 154.93902 277.7628 
L 152.991452 275.530352 
L 151.043884 273.32783 
L 149.096317 271.235311 
L 147.148749 269.332873 
L 145.201181 267.700594 
L 143.253614 266.418552 
L 141.306046 265.566824 
L 139.358478 265.225488 
L 137.410911 265.265811 
L 135.463343 265.407236 
L 133.515775 265.633609 
L 131.568208 265.931199 
L 129.62064 266.286273 
L 127.673072 266.6851 
L 125.725505 267.113948 
L 123.777937 267.559085 
L 121.83037 268.006779 
L 119.882802 268.443299 
L 117.935234 268.854912 
L 115.987667 269.227887 
L 114.040099 269.548492 
L 112.092531 269.802995 
L 110.144964 269.977664 
L 108.197396 270.106163 
L 106.249828 270.240253 
L 104.302261 270.378937 
L 102.354693 270.521092 
L 100.407125 270.665594 
L 98.459558 270.81132 
L 96.51199 270.957146 
L 94.564422 271.101948 
L 92.616855 271.244603 
L 90.669287 271.383988 
L 88.721719 271.518979 
L 86.774152 271.648452 
L 84.826584 271.771284 
L 82.879017 271.886351 
L 80.931449 271.992531 
z
" clip-path="url(#p22a1491670)" style="fill: url(#hc3b0d55695)"/>
   </g>
   <g id="FillBetweenPolyCollection_4">
    <path d="M 80.931449 268.054452 
L 80.931449 271.992531 
L 82.879017 271.886351 
L 84.826584 271.771284 
L 86.774152 271.648452 
L 88.721719 271.518979 
L 90.669287 271.383988 
L 92.616855 271.244603 
L 94.564422 271.101948 
L 96.51199 270.957146 
L 98.459558 270.81132 
L 100.407125 270.665594 
L 102.354693 270.521092 
L 104.302261 270.378937 
L 106.249828 270.240253 
L 108.197396 270.106163 
L 110.144964 269.977664 
L 112.092531 269.802995 
L 114.040099 269.548492 
L 115.987667 269.227887 
L 117.935234 268.854912 
L 119.882802 268.443299 
L 121.83037 268.006779 
L 123.777937 267.559085 
L 125.725505 267.113948 
L 127.673072 266.6851 
L 129.62064 266.286273 
L 131.568208 265.931199 
L 133.515775 265.633609 
L 135.463343 265.407236 
L 137.410911 265.265811 
L 139.358478 265.225488 
L 141.306046 265.566824 
L 143.253614 266.418552 
L 145.201181 267.700594 
L 147.148749 269.332873 
L 149.096317 271.235311 
L 151.043884 273.32783 
L 152.991452 275.530352 
L 154.93902 277.7628 
L 156.886587 279.945096 
L 158.834155 281.997162 
L 160.781723 283.83892 
L 162.72929 285.390293 
L 164.676858 286.571203 
L 166.624425 287.301573 
L 168.571993 287.507023 
L 170.519561 287.445877 
L 172.467128 287.302878 
L 174.414696 287.090953 
L 176.362264 286.823031 
L 178.309831 286.512038 
L 180.257399 286.170903 
L 182.204967 285.812554 
L 184.152534 285.449918 
L 186.100102 285.095922 
L 188.04767 284.763495 
L 189.995237 284.465565 
L 191.942805 284.215058 
L 193.890373 284.024903 
L 195.83794 283.908028 
L 197.785508 283.878695 
L 199.733075 283.986581 
L 201.680643 284.238783 
L 203.628211 284.61779 
L 205.575778 285.106089 
L 207.523346 285.686172 
L 209.470914 286.340526 
L 211.418481 287.05164 
L 213.366049 287.802005 
L 215.313617 288.574107 
L 217.261184 289.350437 
L 219.208752 290.113484 
L 221.15632 290.845737 
L 223.103887 291.529684 
L 225.051455 292.147815 
L 226.999023 292.686862 
L 228.94659 293.224925 
L 230.894158 293.790459 
L 232.841726 294.374524 
L 234.789293 294.968181 
L 236.736861 295.56249 
L 238.684428 296.148511 
L 240.631996 296.717305 
L 242.579564 297.259932 
L 244.527131 297.767453 
L 246.474699 298.230926 
L 248.422267 298.641414 
L 250.369834 298.989976 
L 252.317402 299.267672 
L 254.26497 299.465563 
L 256.212537 299.577883 
L 258.160105 299.64903 
L 260.107673 299.697988 
L 262.05524 299.72741 
L 264.002808 299.739949 
L 265.950376 299.738257 
L 267.897943 299.724986 
L 269.845511 299.702789 
L 271.793079 299.674318 
L 273.740646 299.642226 
L 275.688214 299.609165 
L 277.635781 299.577787 
L 279.583349 299.550745 
L 281.530917 299.530692 
L 283.478484 299.52028 
L 285.426052 299.520545 
L 287.37362 299.515509 
L 289.321187 299.503971 
L 291.268755 299.490431 
L 293.216323 299.479391 
L 295.16389 299.475351 
L 297.111458 299.482813 
L 299.059026 299.506277 
L 301.006593 299.550246 
L 302.954161 299.61922 
L 304.901729 299.7177 
L 306.849296 299.850187 
L 308.796864 300.021183 
L 310.744432 300.235188 
L 312.691999 300.496703 
L 314.639567 300.819665 
L 316.587134 301.285708 
L 318.534702 301.891412 
L 320.48227 302.610267 
L 322.429837 303.415765 
L 324.377405 304.281398 
L 326.324973 305.180657 
L 328.27254 306.087033 
L 330.220108 306.974018 
L 332.167676 307.815103 
L 334.115243 308.583779 
L 336.062811 309.253539 
L 338.010379 309.797872 
L 339.957946 310.190271 
L 341.905514 310.404228 
L 343.853082 310.420283 
L 345.800649 310.279036 
L 347.748217 310.005308 
L 349.695785 309.615555 
L 351.643352 309.126231 
L 353.59092 308.553792 
L 355.538487 307.914693 
L 357.486055 307.225388 
L 359.433623 306.502333 
L 361.38119 305.761984 
L 363.328758 305.020795 
L 365.276326 304.295221 
L 367.223893 303.601717 
L 369.171461 302.95674 
L 371.119029 302.376743 
L 373.066596 301.863182 
L 375.014164 301.338926 
L 376.961732 300.796267 
L 378.909299 300.242098 
L 380.856867 299.683313 
L 382.804435 299.126804 
L 384.752002 298.579464 
L 386.69957 298.048187 
L 388.647138 297.539866 
L 390.594705 297.061394 
L 392.542273 296.619665 
L 394.48984 296.22157 
L 396.437408 295.874005 
L 398.384976 295.583861 
L 400.332543 295.358031 
L 402.280111 295.203319 
L 404.227679 295.119249 
L 406.175246 295.095955 
L 408.122814 295.123049 
L 410.070382 295.190141 
L 412.017949 295.286842 
L 413.965517 295.402766 
L 415.913085 295.527522 
L 417.860652 295.650722 
L 419.80822 295.761978 
L 421.755788 295.850901 
L 423.703355 295.907102 
L 425.650923 295.920192 
L 427.598491 295.879784 
L 429.546058 295.775488 
L 431.493626 295.588473 
L 433.441193 295.286199 
L 435.388761 294.883182 
L 437.336329 294.398475 
L 439.283896 293.851132 
L 441.231464 293.260205 
L 443.179032 292.644748 
L 445.126599 292.023814 
L 447.074167 291.416457 
L 449.021735 290.841728 
L 450.969302 290.318682 
L 452.91687 289.866372 
L 454.864438 289.503851 
L 456.812005 289.250173 
L 458.759573 289.124389 
L 460.707141 289.151718 
L 462.654708 289.353731 
L 464.602276 289.710877 
L 466.549844 290.200975 
L 468.497411 290.801846 
L 470.444979 291.49131 
L 472.392546 292.247187 
L 474.340114 293.047296 
L 476.287682 293.869458 
L 478.235249 294.691492 
L 480.182817 295.491218 
L 482.130385 296.246458 
L 484.077952 296.935029 
L 486.02552 297.534754 
L 487.973088 298.02345 
L 489.920655 298.410839 
L 491.868223 298.778455 
L 493.815791 299.133028 
L 495.763358 299.475779 
L 497.710926 299.807927 
L 499.658494 300.130695 
L 501.606061 300.445302 
L 503.553629 300.75297 
L 505.501197 301.054919 
L 507.448764 301.352369 
L 509.396332 301.646543 
L 511.343899 301.93866 
L 513.291467 302.229941 
L 515.239035 302.521607 
L 517.186602 302.814879 
L 519.13417 303.108558 
L 521.081738 303.397851 
L 523.029305 303.683511 
L 524.976873 303.96656 
L 526.924441 304.248022 
L 528.872008 304.528916 
L 530.819576 304.810265 
L 532.767144 305.093091 
L 534.714711 305.378415 
L 536.662279 305.667259 
L 538.609847 305.960645 
L 540.557414 306.259595 
L 542.504982 306.565129 
L 544.45255 306.878271 
L 546.400117 307.200041 
L 548.347685 307.561705 
L 550.295252 308.016626 
L 552.24282 308.549255 
L 554.190388 309.142028 
L 556.137955 309.777381 
L 558.085523 310.437752 
L 560.033091 311.105577 
L 561.980658 311.763292 
L 563.928226 312.393334 
L 565.875794 312.978139 
L 567.823361 313.500145 
L 569.770929 313.941787 
L 571.718497 314.285502 
L 573.666064 314.513728 
L 575.613632 314.608899 
L 577.5612 314.58413 
L 579.508767 314.490976 
L 581.456335 314.340481 
L 583.403902 314.142841 
L 585.35147 313.908248 
L 587.299038 313.646896 
L 589.246605 313.36898 
L 591.194173 313.084692 
L 593.141741 312.804227 
L 595.089308 312.537778 
L 597.036876 312.29554 
L 598.984444 312.087706 
L 600.932011 311.924469 
L 602.879579 311.816024 
L 604.827147 311.772565 
L 606.774714 311.795448 
L 608.722282 311.871659 
L 610.66985 311.994131 
L 612.617417 312.155877 
L 614.564985 312.34991 
L 616.512553 312.569245 
L 618.46012 312.806896 
L 620.407688 313.055875 
L 622.355255 313.309197 
L 624.302823 313.559874 
L 626.250391 313.800921 
L 628.197958 314.025352 
L 630.145526 314.226179 
L 632.093094 314.396417 
L 634.040661 314.52908 
L 635.988229 314.633812 
L 637.935797 314.728243 
L 639.883364 314.812428 
L 641.830932 314.886378 
L 643.7785 314.950105 
L 645.726067 315.00362 
L 647.673635 315.046935 
L 649.621203 315.080061 
L 651.56877 315.10301 
L 653.516338 315.115794 
L 655.463906 315.118424 
L 657.411473 315.110911 
L 659.359041 315.093268 
L 661.306608 315.065505 
L 663.254176 315.027635 
L 663.254176 188.165539 
L 663.254176 188.165539 
L 661.306608 188.206843 
L 659.359041 188.24479 
L 657.411473 188.2792 
L 655.463906 188.309891 
L 653.516338 188.336679 
L 651.56877 188.359383 
L 649.621203 188.37782 
L 647.673635 188.391809 
L 645.726067 188.401167 
L 643.7785 188.405712 
L 641.830932 188.405261 
L 639.883364 188.399634 
L 637.935797 188.388646 
L 635.988229 188.372117 
L 634.040661 188.349992 
L 632.093094 188.376712 
L 630.145526 188.492035 
L 628.197958 188.688505 
L 626.250391 188.958663 
L 624.302823 189.295051 
L 622.355255 189.690212 
L 620.407688 190.136686 
L 618.46012 190.627017 
L 616.512553 191.153747 
L 614.564985 191.709416 
L 612.617417 192.286568 
L 610.66985 192.877745 
L 608.722282 193.475487 
L 606.774714 194.072339 
L 604.827147 194.661333 
L 602.879579 195.292199 
L 600.932011 195.993305 
L 598.984444 196.752472 
L 597.036876 197.557523 
L 595.089308 198.396279 
L 593.141741 199.256563 
L 591.194173 200.126196 
L 589.246605 200.993001 
L 587.299038 201.8448 
L 585.35147 202.669414 
L 583.403902 203.454666 
L 581.456335 204.188379 
L 579.508767 204.858373 
L 577.5612 205.45247 
L 575.613632 205.957913 
L 573.666064 206.336183 
L 571.718497 206.580718 
L 569.770929 206.706942 
L 567.823361 206.730282 
L 565.875794 206.666164 
L 563.928226 206.530014 
L 561.980658 206.337257 
L 560.033091 206.10332 
L 558.085523 205.843628 
L 556.137955 205.573608 
L 554.190388 205.308686 
L 552.24282 205.064287 
L 550.295252 204.855838 
L 548.347685 204.698763 
L 546.400117 204.60638 
L 544.45255 204.521771 
L 542.504982 204.416613 
L 540.557414 204.29516 
L 538.609847 204.161671 
L 536.662279 204.020402 
L 534.714711 203.87561 
L 532.767144 203.731552 
L 530.819576 203.592485 
L 528.872008 203.462665 
L 526.924441 203.346351 
L 524.976873 203.247798 
L 523.029305 203.171264 
L 521.081738 203.121006 
L 519.13417 203.10128 
L 517.186602 203.120172 
L 515.239035 203.260886 
L 513.291467 203.543796 
L 511.343899 203.952928 
L 509.396332 204.472307 
L 507.448764 205.085959 
L 505.501197 205.777909 
L 503.553629 206.532184 
L 501.606061 207.332808 
L 499.658494 208.163807 
L 497.710926 209.009207 
L 495.763358 209.853033 
L 493.815791 210.67931 
L 491.868223 211.472065 
L 489.920655 212.215323 
L 487.973088 212.891961 
L 486.02552 213.47752 
L 484.077952 213.981162 
L 482.130385 214.421089 
L 480.182817 214.815503 
L 478.235249 215.182608 
L 476.287682 215.540605 
L 474.340114 215.907696 
L 472.392546 216.302085 
L 470.444979 216.741974 
L 468.497411 217.245566 
L 466.549844 217.831062 
L 464.602276 218.516665 
L 462.654708 219.320579 
L 460.707141 220.261004 
L 458.759573 221.354825 
L 456.812005 222.593208 
L 454.864438 223.955032 
L 452.91687 225.421093 
L 450.969302 226.972187 
L 449.021735 228.58911 
L 447.074167 230.252657 
L 445.126599 231.943624 
L 443.179032 233.642808 
L 441.231464 235.331003 
L 439.283896 236.989007 
L 437.336329 238.597614 
L 435.388761 240.137621 
L 433.441193 241.589823 
L 431.493626 242.935016 
L 429.546058 244.156647 
L 427.598491 245.271369 
L 425.650923 246.298567 
L 423.703355 247.253742 
L 421.755788 248.152396 
L 419.80822 249.010032 
L 417.860652 249.842152 
L 415.913085 250.664258 
L 413.965517 251.491852 
L 412.017949 252.340437 
L 410.070382 253.225514 
L 408.122814 254.162586 
L 406.175246 255.167156 
L 404.227679 256.254724 
L 402.280111 257.440793 
L 400.332543 258.752629 
L 398.384976 260.274549 
L 396.437408 261.990778 
L 394.48984 263.865377 
L 392.542273 265.862404 
L 390.594705 267.945922 
L 388.647138 270.079989 
L 386.69957 272.228666 
L 384.752002 274.356013 
L 382.804435 276.42609 
L 380.856867 278.402957 
L 378.909299 280.250675 
L 376.961732 281.933303 
L 375.014164 283.414902 
L 373.066596 284.659531 
L 371.119029 285.673328 
L 369.171461 286.681848 
L 367.223893 287.714321 
L 365.276326 288.758905 
L 363.328758 289.803756 
L 361.38119 290.837031 
L 359.433623 291.846887 
L 357.486055 292.821481 
L 355.538487 293.74897 
L 353.59092 294.617512 
L 351.643352 295.415263 
L 349.695785 296.13038 
L 347.748217 296.75102 
L 345.800649 297.265341 
L 343.853082 297.661499 
L 341.905514 297.915983 
L 339.957946 297.974495 
L 338.010379 297.854072 
L 336.062811 297.580848 
L 334.115243 297.180953 
L 332.167676 296.68052 
L 330.220108 296.105681 
L 328.27254 295.482566 
L 326.324973 294.837309 
L 324.377405 294.19604 
L 322.429837 293.584892 
L 320.48227 293.029996 
L 318.534702 292.557484 
L 316.587134 292.193488 
L 314.639567 291.964139 
L 312.691999 291.877296 
L 310.744432 291.868746 
L 308.796864 291.921781 
L 306.849296 292.026864 
L 304.901729 292.174459 
L 302.954161 292.355029 
L 301.006593 292.559036 
L 299.059026 292.776945 
L 297.111458 292.999218 
L 295.16389 293.216319 
L 293.216323 293.41871 
L 291.268755 293.596856 
L 289.321187 293.741218 
L 287.37362 293.842261 
L 285.426052 293.890446 
L 283.478484 293.888832 
L 281.530917 293.875723 
L 279.583349 293.854897 
L 277.635781 293.826682 
L 275.688214 293.791404 
L 273.740646 293.749392 
L 271.793079 293.700973 
L 269.845511 293.646474 
L 267.897943 293.586223 
L 265.950376 293.520546 
L 264.002808 293.449773 
L 262.05524 293.374229 
L 260.107673 293.294243 
L 258.160105 293.210142 
L 256.212537 293.122253 
L 254.26497 293.013736 
L 252.317402 292.838368 
L 250.369834 292.59987 
L 248.422267 292.305219 
L 246.474699 291.961391 
L 244.527131 291.575359 
L 242.579564 291.154101 
L 240.631996 290.704592 
L 238.684428 290.233806 
L 236.736861 289.74872 
L 234.789293 289.256309 
L 232.841726 288.763548 
L 230.894158 288.277413 
L 228.94659 287.80488 
L 226.999023 287.352923 
L 225.051455 286.89713 
L 223.103887 286.371934 
L 221.15632 285.788941 
L 219.208752 285.163329 
L 217.261184 284.510277 
L 215.313617 283.844964 
L 213.366049 283.182569 
L 211.418481 282.538271 
L 209.470914 281.927247 
L 207.523346 281.364678 
L 205.575778 280.865741 
L 203.628211 280.445616 
L 201.680643 280.11948 
L 199.733075 279.902514 
L 197.785508 279.809896 
L 195.83794 279.837436 
L 193.890373 279.945658 
L 191.942805 280.121467 
L 189.995237 280.352799 
L 188.04767 280.627588 
L 186.100102 280.933771 
L 184.152534 281.259281 
L 182.204967 281.592055 
L 180.257399 281.920027 
L 178.309831 282.231133 
L 176.362264 282.513307 
L 174.414696 282.754486 
L 172.467128 282.942603 
L 170.519561 283.065595 
L 168.571993 283.111396 
L 166.624425 282.893976 
L 164.676858 282.151715 
L 162.72929 280.959044 
L 160.781723 279.396159 
L 158.834155 277.543256 
L 156.886587 275.480531 
L 154.93902 273.288179 
L 152.991452 271.046397 
L 151.043884 268.83538 
L 149.096317 266.735323 
L 147.148749 264.826423 
L 145.201181 263.188876 
L 143.253614 261.902876 
L 141.306046 261.04862 
L 139.358478 260.706304 
L 137.410911 260.75083 
L 135.463343 260.906009 
L 133.515775 261.1544 
L 131.568208 261.48094 
L 129.62064 261.870564 
L 127.673072 262.308207 
L 125.725505 262.778805 
L 123.777937 263.267293 
L 121.83037 263.758607 
L 119.882802 264.237682 
L 117.935234 264.689453 
L 115.987667 265.098856 
L 114.040099 265.450827 
L 112.092531 265.730301 
L 110.144964 265.922213 
L 108.197396 266.063098 
L 106.249828 266.209278 
L 104.302261 266.359683 
L 102.354693 266.513105 
L 100.407125 266.668337 
L 98.459558 266.824169 
L 96.51199 266.979396 
L 94.564422 267.132808 
L 92.616855 267.283199 
L 90.669287 267.42936 
L 88.721719 267.570084 
L 86.774152 267.704163 
L 84.826584 267.830389 
L 82.879017 267.947555 
L 80.931449 268.054452 
z
" clip-path="url(#p22a1491670)" style="fill: url(#h5c0b24bcfe)"/>
   </g>
   <g id="legend_1">
    <g id="patch_3">
     <path d="M 60.815313 28.537031 
L 80.815313 28.537031 
L 80.815313 21.537031 
L 60.815313 21.537031 
z
" style="fill: url(#heab7c18998)"/>
    </g>
    <g id="text_17">
     <!-- Solo -->
     <g transform="translate(88.815313 28.537031) scale(0.1 -0.1)">
      <defs>
       <path id="NotoSansCJKjp-Regular-53" d="M 1946 -83 
C 2925 -83 3539 506 3539 1248 
C 3539 1946 3117 2266 2573 2502 
L 1901 2790 
C 1536 2944 1126 3117 1126 3571 
C 1126 3994 1472 4262 2003 4262 
C 2438 4262 2784 4090 3072 3821 
L 3386 4198 
C 3053 4544 2560 4781 2003 4781 
C 1152 4781 525 4256 525 3533 
C 525 2848 1043 2515 1478 2330 
L 2157 2035 
C 2598 1837 2938 1683 2938 1203 
C 2938 742 2566 435 1952 435 
C 1466 435 992 666 659 1018 
L 301 614 
C 710 186 1280 -83 1946 -83 
z
" transform="scale(0.015625)"/>
       <path id="NotoSansCJKjp-Regular-6c" d="M 1203 -83 
C 1363 -83 1459 -64 1542 -32 
L 1459 416 
C 1395 403 1370 403 1338 403 
C 1248 403 1171 474 1171 653 
L 1171 5094 
L 589 5094 
L 589 691 
C 589 198 768 -83 1203 -83 
z
" transform="scale(0.015625)"/>
      </defs>
      <use xlink:href="#NotoSansCJKjp-Regular-53"/>
      <use xlink:href="#NotoSansCJKjp-Regular-6f" transform="translate(59.699997 0)"/>
      <use xlink:href="#NotoSansCJKjp-Regular-6c" transform="translate(120.299988 0)"/>
      <use xlink:href="#NotoSansCJKjp-Regular-6f" transform="translate(148.799973 0)"/>
     </g>
    </g>
    <g id="patch_4">
     <path d="M 60.815313 43.787031 
L 80.815313 43.787031 
L 80.815313 36.787031 
L 60.815313 36.787031 
z
" style="fill: url(#h71fed0e24b)"/>
    </g>
    <g id="text_18">
     <!-- Initial -->
     <g transform="translate(88.815313 43.787031) scale(0.1 -0.1)">
      <defs>
       <path id="NotoSansCJKjp-Regular-49" d="M 640 0 
L 1235 0 
L 1235 4698 
L 640 4698 
L 640 0 
z
" transform="scale(0.015625)"/>
      </defs>
      <use xlink:href="#NotoSansCJKjp-Regular-49"/>
      <use xlink:href="#NotoSansCJKjp-Regular-6e" transform="translate(29.299988 0)"/>
      <use xlink:href="#NotoSansCJKjp-Regular-69" transform="translate(90.399979 0)"/>
      <use xlink:href="#NotoSansCJKjp-Regular-74" transform="translate(117.899963 0)"/>
      <use xlink:href="#NotoSansCJKjp-Regular-69" transform="translate(155.59996 0)"/>
      <use xlink:href="#NotoSansCJKjp-Regular-61" transform="translate(183.099945 0)"/>
      <use xlink:href="#NotoSansCJKjp-Regular-6c" transform="translate(239.499939 0)"/>
     </g>
    </g>
    <g id="patch_5">
     <path d="M 60.815313 59.037031 
L 80.815313 59.037031 
L 80.815313 52.037031 
L 60.815313 52.037031 
z
" style="fill: url(#hc3b0d55695)"/>
    </g>
    <g id="text_19">
     <!-- Middle -->
     <g transform="translate(88.815313 59.037031) scale(0.1 -0.1)">
      <defs>
       <path id="NotoSansCJKjp-Regular-4d" d="M 640 0 
L 1178 0 
L 1178 2598 
C 1178 3002 1133 3571 1107 3981 
L 1133 3981 
L 1504 2912 
L 2394 474 
L 2790 474 
L 3680 2912 
L 4051 3981 
L 4077 3981 
C 4045 3571 4000 3002 4000 2598 
L 4000 0 
L 4557 0 
L 4557 4698 
L 3840 4698 
L 2944 2182 
C 2835 1856 2733 1530 2624 1203 
L 2592 1203 
C 2477 1530 2368 1856 2259 2182 
L 1357 4698 
L 640 4698 
L 640 0 
z
" transform="scale(0.015625)"/>
       <path id="NotoSansCJKjp-Regular-64" d="M 1773 -83 
C 2189 -83 2554 141 2829 410 
L 2848 410 
L 2899 0 
L 3373 0 
L 3373 5094 
L 2797 5094 
L 2797 3757 
L 2822 3155 
C 2515 3411 2253 3565 1843 3565 
C 1050 3565 339 2861 339 1734 
C 339 576 902 -83 1773 -83 
z
M 1901 403 
C 1286 403 941 902 941 1741 
C 941 2534 1382 3072 1946 3072 
C 2234 3072 2496 2970 2797 2707 
L 2797 883 
C 2502 563 2221 403 1901 403 
z
" transform="scale(0.015625)"/>
      </defs>
      <use xlink:href="#NotoSansCJKjp-Regular-4d"/>
      <use xlink:href="#NotoSansCJKjp-Regular-69" transform="translate(81.199982 0)"/>
      <use xlink:href="#NotoSansCJKjp-Regular-64" transform="translate(108.699966 0)"/>
      <use xlink:href="#NotoSansCJKjp-Regular-64" transform="translate(170.699951 0)"/>
      <use xlink:href="#NotoSansCJKjp-Regular-6c" transform="translate(232.699936 0)"/>
      <use xlink:href="#NotoSansCJKjp-Regular-65" transform="translate(261.199921 0)"/>
     </g>
    </g>
    <g id="patch_6">
     <path d="M 60.815313 74.287031 
L 80.815313 74.287031 
L 80.815313 67.287031 
L 60.815313 67.287031 
z
" style="fill: url(#h5c0b24bcfe)"/>
    </g>
    <g id="text_20">
     <!-- End -->
     <g transform="translate(88.815313 74.287031) scale(0.1 -0.1)">
      <defs>
       <path id="NotoSansCJKjp-Regular-45" d="M 640 0 
L 3418 0 
L 3418 506 
L 1235 506 
L 1235 2214 
L 3014 2214 
L 3014 2720 
L 1235 2720 
L 1235 4192 
L 3347 4192 
L 3347 4698 
L 640 4698 
L 640 0 
z
" transform="scale(0.015625)"/>
      </defs>
      <use xlink:href="#NotoSansCJKjp-Regular-45"/>
      <use xlink:href="#NotoSansCJKjp-Regular-6e" transform="translate(58.799988 0)"/>
      <use xlink:href="#NotoSansCJKjp-Regular-64" transform="translate(119.899979 0)"/>
     </g>
    </g>
   </g>
  </g>
 </g>
 <defs>
  <clipPath id="p22a1491670">
   <rect x="51.815313" y="11.577656" width="640.555" height="370.24"/>
  </clipPath>
 </defs>
 <defs>
  <pattern id="heab7c18998" patternUnits="userSpaceOnUse" x="0" y="0" width="72" height="72">
   <rect x="0" y="0" width="73" height="73" fill="#e6e6e6"/>
   <path d="M -36 36 
L 36 -36 
M -33 39 
L 39 -33 
M -30 42 
L 42 -30 
M -27 45 
L 45 -27 
M -24 48 
L 48 -24 
M -21 51 
L 51 -21 
M -18 54 
L 54 -18 
M -15 57 
L 57 -15 
M -12 60 
L 60 -12 
M -9 63 
L 63 -9 
M -6 66 
L 66 -6 
M -3 69 
L 69 -3 
M 0 72 
L 72 0 
M 3 75 
L 75 3 
M 6 78 
L 78 6 
M 9 81 
L 81 9 
M 12 84 
L 84 12 
M 15 87 
L 87 15 
M 18 90 
L 90 18 
M 21 93 
L 93 21 
M 24 96 
L 96 24 
M 27 99 
L 99 27 
M 30 102 
L 102 30 
M 33 105 
L 105 33 
M 36 108 
L 108 36 
" style="fill: #000000; stroke: #000000; stroke-width: 1.5; stroke-linecap: butt; stroke-linejoin: miter"/>
  </pattern>
  <pattern id="h71fed0e24b" patternUnits="userSpaceOnUse" x="0" y="0" width="72" height="72">
   <rect x="0" y="0" width="73" height="73" fill="#adadad"/>
   <path d="M -36 36 
L 36 108 
M -30 30 
L 42 102 
M -24 24 
L 48 96 
M -18 18 
L 54 90 
M -12 12 
L 60 84 
M -6 6 
L 66 78 
M 0 0 
L 72 72 
M 6 -6 
L 78 66 
M 12 -12 
L 84 60 
M 18 -18 
L 90 54 
M 24 -24 
L 96 48 
M 30 -30 
L 102 42 
M 36 -36 
L 108 36 
" style="fill: #000000; stroke: #000000; stroke-width: 1.5; stroke-linecap: butt; stroke-linejoin: miter"/>
  </pattern>
  <pattern id="hc3b0d55695" patternUnits="userSpaceOnUse" x="0" y="0" width="72" height="72">
   <rect x="0" y="0" width="73" height="73" fill="#737373"/>
   <path d="M -36 36 
L 36 -36 
M -33 39 
L 39 -33 
M -30 42 
L 42 -30 
M -27 45 
L 45 -27 
M -24 48 
L 48 -24 
M -21 51 
L 51 -21 
M -18 54 
L 54 -18 
M -15 57 
L 57 -15 
M -12 60 
L 60 -12 
M -9 63 
L 63 -9 
M -6 66 
L 66 -6 
M -3 69 
L 69 -3 
M 0 72 
L 72 0 
M 3 75 
L 75 3 
M 6 78 
L 78 6 
M 9 81 
L 81 9 
M 12 84 
L 84 12 
M 15 87 
L 87 15 
M 18 90 
L 90 18 
M 21 93 
L 93 21 
M 24 96 
L 96 24 
M 27 99 
L 99 27 
M 30 102 
L 102 30 
M 33 105 
L 105 33 
M 36 108 
L 108 36 
M -36 36 
L 36 108 
M -33 33 
L 39 105 
M -30 30 
L 42 102 
M -27 27 
L 45 99 
M -24 24 
L 48 96 
M -21 21 
L 51 93 
M -18 18 
L 54 90 
M -15 15 
L 57 87 
M -12 12 
L 60 84 
M -9 9 
L 63 81 
M -6 6 
L 66 78 
M -3 3 
L 69 75 
M 0 0 
L 72 72 
M 3 -3 
L 75 69 
M 6 -6 
L 78 66 
M 9 -9 
L 81 63 
M 12 -12 
L 84 60 
M 15 -15 
L 87 57 
M 18 -18 
L 90 54 
M 21 -21 
L 93 51 
M 24 -24 
L 96 48 
M 27 -27 
L 99 45 
M 30 -30 
L 102 42 
M 33 -33 
L 105 39 
M 36 -36 
L 108 36 
" style="fill: #000000; stroke: #000000; stroke-width: 1.5; stroke-linecap: butt; stroke-linejoin: miter"/>
  </pattern>
  <pattern id="h5c0b24bcfe" patternUnits="userSpaceOnUse" x="0" y="0" width="72" height="72">
   <rect x="0" y="0" width="73" height="73" fill="#383838"/>
   <path d="M 0 70.5 
L 72 70.5 
M 0 67.5 
L 72 67.5 
M 0 64.5 
L 72 64.5 
M 0 61.5 
L 72 61.5 
M 0 58.5 
L 72 58.5 
M 0 55.5 
L 72 55.5 
M 0 52.5 
L 72 52.5 
M 0 49.5 
L 72 49.5 
M 0 46.5 
L 72 46.5 
M 0 43.5 
L 72 43.5 
M 0 40.5 
L 72 40.5 
M 0 37.5 
L 72 37.5 
M 0 34.5 
L 72 34.5 
M 0 31.5 
L 72 31.5 
M 0 28.5 
L 72 28.5 
M 0 25.5 
L 72 25.5 
M 0 22.5 
L 72 22.5 
M 0 19.5 
L 72 19.5 
M 0 16.5 
L 72 16.5 
M 0 13.5 
L 72 13.5 
M 0 10.5 
L 72 10.5 
M 0 7.5 
L 72 7.5 
M 0 4.5 
L 72 4.5 
M 0 1.5 
L 72 1.5 
" style="fill: #000000; stroke: #000000; stroke-width: 1.5; stroke-linecap: butt; stroke-linejoin: miter"/>
  </pattern>
 </defs>
</svg>
