<?xml version="1.0" encoding="utf-8" standalone="no"?>
<!DOCTYPE svg PUBLIC "-//W3C//DTD SVG 1.1//EN"
  "http://www.w3.org/Graphics/SVG/1.1/DTD/svg11.dtd">
<svg xmlns:xlink="http://www.w3.org/1999/xlink" width="313.432544pt" height="216.6575pt" viewBox="0 0 313.432544 216.6575" xmlns="http://www.w3.org/2000/svg" version="1.1">
 <metadata>
  <rdf:RDF xmlns:dc="http://purl.org/dc/elements/1.1/" xmlns:cc="http://creativecommons.org/ns#" xmlns:rdf="http://www.w3.org/1999/02/22-rdf-syntax-ns#">
   <cc:Work>
    <dc:type rdf:resource="http://purl.org/dc/dcmitype/StillImage"/>
    <dc:date>2026-04-28T10:03:53.256484</dc:date>
    <dc:format>image/svg+xml</dc:format>
    <dc:creator>
     <cc:Agent>
      <dc:title>Matplotlib v3.10.7, https://matplotlib.org/</dc:title>
     </cc:Agent>
    </dc:creator>
   </cc:Work>
  </rdf:RDF>
 </metadata>
 <defs>
  <style type="text/css">*{stroke-linejoin: round; stroke-linecap: butt}</style>
 </defs>
 <g id="figure_1">
  <g id="patch_1">
   <path d="M 0 216.6575 
L 313.432544 216.6575 
L 313.432544 -0 
L 0 -0 
z
" style="fill: #ffffff"/>
  </g>
  <g id="axes_1">
   <g id="patch_2">
    <path d="M 27.62875 196.73875 
L 300.309419 196.73875 
L 300.309419 19.5125 
L 27.62875 19.5125 
z
" style="fill: #ffffff"/>
   </g>
   <g id="matplotlib.axis_1">
    <g id="xtick_1">
     <g id="line2d_1">
      <defs>
       <path id="m3afd493bba" d="M 0 0 
L 0 3.5 
" style="stroke: #000000; stroke-width: 0.8"/>
      </defs>
      <g>
       <use xlink:href="#m3afd493bba" x="40.023326" y="196.73875" style="stroke: #000000; stroke-width: 0.8"/>
      </g>
     </g>
     <g id="text_1">
      <!-- 2004 -->
      <g transform="translate(34.100201 208.23875) scale(0.06 -0.06)">
       <defs>
        <path id="RobotoCondensed-Regular-32" d="M 2909 475 
L 2909 0 
L 366 0 
L 366 416 
L 1628 2088 
Q 1966 2541 2077 2802 
Q 2188 3063 2188 3328 
Q 2188 3663 2027 3900 
Q 1866 4138 1575 4138 
Q 1194 4138 1022 3878 
Q 850 3619 850 3213 
L 297 3213 
Q 297 3788 617 4200 
Q 938 4613 1575 4613 
Q 2125 4613 2433 4278 
Q 2741 3944 2741 3397 
Q 2741 2997 2541 2594 
Q 2341 2191 2047 1809 
L 1028 475 
L 2909 475 
z
" transform="scale(0.015625)"/>
        <path id="RobotoCondensed-Regular-30" d="M 2797 1944 
Q 2797 825 2467 381 
Q 2138 -63 1581 -63 
Q 1038 -63 703 370 
Q 369 803 359 1878 
L 359 2638 
Q 359 3753 695 4183 
Q 1031 4613 1578 4613 
Q 2131 4613 2461 4189 
Q 2791 3766 2797 2681 
L 2797 1944 
z
M 2247 2734 
Q 2247 3503 2073 3822 
Q 1900 4141 1578 4141 
Q 1266 4141 1092 3833 
Q 919 3525 913 2791 
L 913 1850 
Q 913 1088 1089 750 
Q 1266 413 1581 413 
Q 1903 413 2072 738 
Q 2241 1063 2247 1794 
L 2247 2734 
z
" transform="scale(0.015625)"/>
        <path id="RobotoCondensed-Regular-34" d="M 188 1397 
L 1878 4550 
L 2463 4550 
L 2463 1531 
L 2969 1531 
L 2969 1056 
L 2463 1056 
L 2463 0 
L 1909 0 
L 1909 1056 
L 188 1056 
L 188 1397 
z
M 803 1531 
L 1909 1531 
L 1909 3703 
L 1878 3638 
L 803 1531 
z
" transform="scale(0.015625)"/>
       </defs>
       <use xlink:href="#RobotoCondensed-Regular-32"/>
       <use xlink:href="#RobotoCondensed-Regular-30" transform="translate(49.365234 0)"/>
       <use xlink:href="#RobotoCondensed-Regular-30" transform="translate(98.730469 0)"/>
       <use xlink:href="#RobotoCondensed-Regular-34" transform="translate(148.095703 0)"/>
      </g>
     </g>
    </g>
    <g id="xtick_2">
     <g id="line2d_2">
      <g>
       <use xlink:href="#m3afd493bba" x="77.207054" y="196.73875" style="stroke: #000000; stroke-width: 0.8"/>
      </g>
     </g>
     <g id="text_2">
      <!-- 2007 -->
      <g transform="translate(71.283929 208.23875) scale(0.06 -0.06)">
       <defs>
        <path id="RobotoCondensed-Regular-37" d="M 2878 4550 
L 2878 4225 
L 1313 0 
L 731 0 
L 2297 4075 
L 269 4075 
L 269 4550 
L 2878 4550 
z
" transform="scale(0.015625)"/>
       </defs>
       <use xlink:href="#RobotoCondensed-Regular-32"/>
       <use xlink:href="#RobotoCondensed-Regular-30" transform="translate(49.365234 0)"/>
       <use xlink:href="#RobotoCondensed-Regular-30" transform="translate(98.730469 0)"/>
       <use xlink:href="#RobotoCondensed-Regular-37" transform="translate(148.095703 0)"/>
      </g>
     </g>
    </g>
    <g id="xtick_3">
     <g id="line2d_3">
      <g>
       <use xlink:href="#m3afd493bba" x="114.390781" y="196.73875" style="stroke: #000000; stroke-width: 0.8"/>
      </g>
     </g>
     <g id="text_3">
      <!-- 2010 -->
      <g transform="translate(108.467656 208.23875) scale(0.06 -0.06)">
       <defs>
        <path id="RobotoCondensed-Regular-31" d="M 2013 4575 
L 2013 0 
L 1459 0 
L 1459 3853 
L 503 3428 
L 503 3950 
L 1928 4575 
L 2013 4575 
z
" transform="scale(0.015625)"/>
       </defs>
       <use xlink:href="#RobotoCondensed-Regular-32"/>
       <use xlink:href="#RobotoCondensed-Regular-30" transform="translate(49.365234 0)"/>
       <use xlink:href="#RobotoCondensed-Regular-31" transform="translate(98.730469 0)"/>
       <use xlink:href="#RobotoCondensed-Regular-30" transform="translate(148.095703 0)"/>
      </g>
     </g>
    </g>
    <g id="xtick_4">
     <g id="line2d_4">
      <g>
       <use xlink:href="#m3afd493bba" x="151.574509" y="196.73875" style="stroke: #000000; stroke-width: 0.8"/>
      </g>
     </g>
     <g id="text_4">
      <!-- 2013 -->
      <g transform="translate(145.651384 208.23875) scale(0.06 -0.06)">
       <defs>
        <path id="RobotoCondensed-Regular-33" d="M 1075 2084 
L 1075 2559 
L 1431 2559 
Q 1788 2559 1961 2781 
Q 2134 3003 2134 3338 
Q 2134 4138 1519 4138 
Q 1228 4138 1054 3927 
Q 881 3716 881 3359 
L 331 3359 
Q 331 3881 653 4247 
Q 975 4613 1519 4613 
Q 2038 4613 2363 4286 
Q 2688 3959 2688 3325 
Q 2688 3072 2550 2786 
Q 2413 2500 2100 2338 
Q 2484 2194 2612 1886 
Q 2741 1578 2741 1269 
Q 2741 631 2389 284 
Q 2038 -63 1516 -63 
Q 1006 -63 656 267 
Q 306 597 306 1203 
L 859 1203 
Q 859 844 1032 628 
Q 1206 413 1516 413 
Q 1822 413 2005 622 
Q 2188 831 2188 1256 
Q 2188 2084 1403 2084 
L 1075 2084 
z
" transform="scale(0.015625)"/>
       </defs>
       <use xlink:href="#RobotoCondensed-Regular-32"/>
       <use xlink:href="#RobotoCondensed-Regular-30" transform="translate(49.365234 0)"/>
       <use xlink:href="#RobotoCondensed-Regular-31" transform="translate(98.730469 0)"/>
       <use xlink:href="#RobotoCondensed-Regular-33" transform="translate(148.095703 0)"/>
      </g>
     </g>
    </g>
    <g id="xtick_5">
     <g id="line2d_5">
      <g>
       <use xlink:href="#m3afd493bba" x="188.758236" y="196.73875" style="stroke: #000000; stroke-width: 0.8"/>
      </g>
     </g>
     <g id="text_5">
      <!-- 2016 -->
      <g transform="translate(182.835111 208.23875) scale(0.06 -0.06)">
       <defs>
        <path id="RobotoCondensed-Regular-36" d="M 2847 1484 
Q 2847 838 2544 387 
Q 2241 -63 1641 -63 
Q 1216 -63 944 198 
Q 672 459 542 861 
Q 413 1263 413 1684 
L 413 1956 
Q 413 2438 481 2900 
Q 550 3363 742 3738 
Q 934 4113 1296 4334 
Q 1659 4556 2291 4556 
L 2291 4066 
Q 1775 4066 1508 3859 
Q 1241 3653 1122 3318 
Q 1003 2984 978 2606 
Q 1272 2984 1750 2984 
Q 2138 2984 2380 2765 
Q 2622 2547 2734 2201 
Q 2847 1856 2847 1484 
z
M 969 1666 
Q 969 1059 1180 737 
Q 1391 416 1641 416 
Q 1959 416 2129 708 
Q 2300 1000 2300 1456 
Q 2300 1863 2144 2184 
Q 1988 2506 1659 2506 
Q 1425 2506 1236 2329 
Q 1047 2153 969 1900 
L 969 1666 
z
" transform="scale(0.015625)"/>
       </defs>
       <use xlink:href="#RobotoCondensed-Regular-32"/>
       <use xlink:href="#RobotoCondensed-Regular-30" transform="translate(49.365234 0)"/>
       <use xlink:href="#RobotoCondensed-Regular-31" transform="translate(98.730469 0)"/>
       <use xlink:href="#RobotoCondensed-Regular-36" transform="translate(148.095703 0)"/>
      </g>
     </g>
    </g>
    <g id="xtick_6">
     <g id="line2d_6">
      <g>
       <use xlink:href="#m3afd493bba" x="225.941964" y="196.73875" style="stroke: #000000; stroke-width: 0.8"/>
      </g>
     </g>
     <g id="text_6">
      <!-- 2019 -->
      <g transform="translate(220.018839 208.23875) scale(0.06 -0.06)">
       <defs>
        <path id="RobotoCondensed-Regular-39" d="M 2744 2563 
Q 2744 2119 2687 1667 
Q 2631 1216 2450 836 
Q 2269 456 1903 225 
Q 1538 -6 869 -6 
L 866 484 
Q 1428 484 1698 690 
Q 1969 897 2072 1233 
Q 2175 1569 2191 1950 
Q 1859 1522 1413 1522 
Q 1025 1522 786 1747 
Q 547 1972 436 2320 
Q 325 2669 325 3041 
Q 325 3691 623 4152 
Q 922 4613 1522 4613 
Q 1969 4613 2237 4344 
Q 2506 4075 2625 3653 
Q 2744 3231 2744 2772 
L 2744 2563 
z
M 866 3072 
Q 866 2666 1020 2334 
Q 1175 2003 1506 2003 
Q 1716 2003 1906 2179 
Q 2097 2356 2194 2616 
L 2194 2850 
Q 2194 3472 1983 3803 
Q 1772 4134 1522 4134 
Q 1206 4134 1036 3829 
Q 866 3525 866 3072 
z
" transform="scale(0.015625)"/>
       </defs>
       <use xlink:href="#RobotoCondensed-Regular-32"/>
       <use xlink:href="#RobotoCondensed-Regular-30" transform="translate(49.365234 0)"/>
       <use xlink:href="#RobotoCondensed-Regular-31" transform="translate(98.730469 0)"/>
       <use xlink:href="#RobotoCondensed-Regular-39" transform="translate(148.095703 0)"/>
      </g>
     </g>
    </g>
    <g id="xtick_7">
     <g id="line2d_7">
      <g>
       <use xlink:href="#m3afd493bba" x="263.125692" y="196.73875" style="stroke: #000000; stroke-width: 0.8"/>
      </g>
     </g>
     <g id="text_7">
      <!-- 2022 -->
      <g transform="translate(257.202567 208.23875) scale(0.06 -0.06)">
       <use xlink:href="#RobotoCondensed-Regular-32"/>
       <use xlink:href="#RobotoCondensed-Regular-30" transform="translate(49.365234 0)"/>
       <use xlink:href="#RobotoCondensed-Regular-32" transform="translate(98.730469 0)"/>
       <use xlink:href="#RobotoCondensed-Regular-32" transform="translate(148.095703 0)"/>
      </g>
     </g>
    </g>
    <g id="xtick_8">
     <g id="line2d_8">
      <g>
       <use xlink:href="#m3afd493bba" x="300.309419" y="196.73875" style="stroke: #000000; stroke-width: 0.8"/>
      </g>
     </g>
     <g id="text_8">
      <!-- 2025 -->
      <g transform="translate(294.386294 208.23875) scale(0.06 -0.06)">
       <defs>
        <path id="RobotoCondensed-Regular-35" d="M 1034 2166 
L 594 2284 
L 788 4550 
L 2769 4550 
L 2769 4016 
L 1253 4016 
L 1147 2778 
Q 1438 2975 1753 2975 
Q 2288 2975 2591 2561 
Q 2894 2147 2894 1450 
Q 2894 797 2584 367 
Q 2275 -63 1656 -63 
Q 1194 -63 850 248 
Q 506 559 453 1197 
L 975 1197 
Q 1066 413 1656 413 
Q 1978 413 2159 691 
Q 2341 969 2341 1444 
Q 2341 1872 2153 2164 
Q 1966 2456 1619 2456 
Q 1384 2456 1273 2378 
Q 1163 2300 1034 2166 
z
" transform="scale(0.015625)"/>
       </defs>
       <use xlink:href="#RobotoCondensed-Regular-32"/>
       <use xlink:href="#RobotoCondensed-Regular-30" transform="translate(49.365234 0)"/>
       <use xlink:href="#RobotoCondensed-Regular-32" transform="translate(98.730469 0)"/>
       <use xlink:href="#RobotoCondensed-Regular-35" transform="translate(148.095703 0)"/>
      </g>
     </g>
    </g>
   </g>
   <g id="matplotlib.axis_2">
    <g id="ytick_1">
     <g id="line2d_9">
      <defs>
       <path id="m83789f1984" d="M 0 0 
L -3.5 0 
" style="stroke: #000000; stroke-width: 0.8"/>
      </defs>
      <g>
       <use xlink:href="#m83789f1984" x="27.62875" y="188.49797" style="stroke: #000000; stroke-width: 0.8"/>
      </g>
     </g>
     <g id="text_9">
      <!-- 0.850 -->
      <g transform="translate(7.2 190.74797) scale(0.06 -0.06)">
       <defs>
        <path id="RobotoCondensed-Regular-2e" d="M 450 306 
Q 450 453 542 554 
Q 634 656 809 656 
Q 984 656 1076 554 
Q 1169 453 1169 306 
Q 1169 163 1076 62 
Q 984 -38 809 -38 
Q 634 -38 542 62 
Q 450 163 450 306 
z
" transform="scale(0.015625)"/>
        <path id="RobotoCondensed-Regular-38" d="M 2794 1231 
Q 2794 606 2445 271 
Q 2097 -63 1578 -63 
Q 1063 -63 714 273 
Q 366 609 366 1231 
Q 366 1613 536 1905 
Q 706 2197 1000 2347 
Q 450 2666 450 3366 
Q 450 3963 769 4288 
Q 1088 4613 1581 4613 
Q 2075 4613 2392 4288 
Q 2709 3963 2709 3366 
Q 2709 3028 2557 2761 
Q 2406 2494 2150 2344 
Q 2444 2194 2619 1901 
Q 2794 1609 2794 1231 
z
M 2156 3356 
Q 2156 3697 2000 3917 
Q 1844 4138 1581 4138 
Q 1319 4138 1161 3927 
Q 1003 3716 1003 3356 
Q 1003 3003 1159 2790 
Q 1316 2578 1581 2578 
Q 1844 2578 2000 2790 
Q 2156 3003 2156 3356 
z
M 2244 1244 
Q 2244 1625 2061 1865 
Q 1878 2106 1575 2106 
Q 1266 2106 1091 1865 
Q 916 1625 916 1244 
Q 916 850 1089 631 
Q 1263 413 1578 413 
Q 1897 413 2070 631 
Q 2244 850 2244 1244 
z
" transform="scale(0.015625)"/>
       </defs>
       <use xlink:href="#RobotoCondensed-Regular-30"/>
       <use xlink:href="#RobotoCondensed-Regular-2e" transform="translate(49.365234 0)"/>
       <use xlink:href="#RobotoCondensed-Regular-38" transform="translate(75.732422 0)"/>
       <use xlink:href="#RobotoCondensed-Regular-35" transform="translate(125.097656 0)"/>
       <use xlink:href="#RobotoCondensed-Regular-30" transform="translate(174.462891 0)"/>
      </g>
     </g>
    </g>
    <g id="ytick_2">
     <g id="line2d_10">
      <g>
       <use xlink:href="#m83789f1984" x="27.62875" y="166.765684" style="stroke: #000000; stroke-width: 0.8"/>
      </g>
     </g>
     <g id="text_10">
      <!-- 0.855 -->
      <g transform="translate(7.2 169.015684) scale(0.06 -0.06)">
       <use xlink:href="#RobotoCondensed-Regular-30"/>
       <use xlink:href="#RobotoCondensed-Regular-2e" transform="translate(49.365234 0)"/>
       <use xlink:href="#RobotoCondensed-Regular-38" transform="translate(75.732422 0)"/>
       <use xlink:href="#RobotoCondensed-Regular-35" transform="translate(125.097656 0)"/>
       <use xlink:href="#RobotoCondensed-Regular-35" transform="translate(174.462891 0)"/>
      </g>
     </g>
    </g>
    <g id="ytick_3">
     <g id="line2d_11">
      <g>
       <use xlink:href="#m83789f1984" x="27.62875" y="145.033398" style="stroke: #000000; stroke-width: 0.8"/>
      </g>
     </g>
     <g id="text_11">
      <!-- 0.860 -->
      <g transform="translate(7.2 147.283398) scale(0.06 -0.06)">
       <use xlink:href="#RobotoCondensed-Regular-30"/>
       <use xlink:href="#RobotoCondensed-Regular-2e" transform="translate(49.365234 0)"/>
       <use xlink:href="#RobotoCondensed-Regular-38" transform="translate(75.732422 0)"/>
       <use xlink:href="#RobotoCondensed-Regular-36" transform="translate(125.097656 0)"/>
       <use xlink:href="#RobotoCondensed-Regular-30" transform="translate(174.462891 0)"/>
      </g>
     </g>
    </g>
    <g id="ytick_4">
     <g id="line2d_12">
      <g>
       <use xlink:href="#m83789f1984" x="27.62875" y="123.301112" style="stroke: #000000; stroke-width: 0.8"/>
      </g>
     </g>
     <g id="text_12">
      <!-- 0.865 -->
      <g transform="translate(7.2 125.551112) scale(0.06 -0.06)">
       <use xlink:href="#RobotoCondensed-Regular-30"/>
       <use xlink:href="#RobotoCondensed-Regular-2e" transform="translate(49.365234 0)"/>
       <use xlink:href="#RobotoCondensed-Regular-38" transform="translate(75.732422 0)"/>
       <use xlink:href="#RobotoCondensed-Regular-36" transform="translate(125.097656 0)"/>
       <use xlink:href="#RobotoCondensed-Regular-35" transform="translate(174.462891 0)"/>
      </g>
     </g>
    </g>
    <g id="ytick_5">
     <g id="line2d_13">
      <g>
       <use xlink:href="#m83789f1984" x="27.62875" y="101.568827" style="stroke: #000000; stroke-width: 0.8"/>
      </g>
     </g>
     <g id="text_13">
      <!-- 0.870 -->
      <g transform="translate(7.2 103.818827) scale(0.06 -0.06)">
       <use xlink:href="#RobotoCondensed-Regular-30"/>
       <use xlink:href="#RobotoCondensed-Regular-2e" transform="translate(49.365234 0)"/>
       <use xlink:href="#RobotoCondensed-Regular-38" transform="translate(75.732422 0)"/>
       <use xlink:href="#RobotoCondensed-Regular-37" transform="translate(125.097656 0)"/>
       <use xlink:href="#RobotoCondensed-Regular-30" transform="translate(174.462891 0)"/>
      </g>
     </g>
    </g>
    <g id="ytick_6">
     <g id="line2d_14">
      <g>
       <use xlink:href="#m83789f1984" x="27.62875" y="79.836541" style="stroke: #000000; stroke-width: 0.8"/>
      </g>
     </g>
     <g id="text_14">
      <!-- 0.875 -->
      <g transform="translate(7.2 82.086541) scale(0.06 -0.06)">
       <use xlink:href="#RobotoCondensed-Regular-30"/>
       <use xlink:href="#RobotoCondensed-Regular-2e" transform="translate(49.365234 0)"/>
       <use xlink:href="#RobotoCondensed-Regular-38" transform="translate(75.732422 0)"/>
       <use xlink:href="#RobotoCondensed-Regular-37" transform="translate(125.097656 0)"/>
       <use xlink:href="#RobotoCondensed-Regular-35" transform="translate(174.462891 0)"/>
      </g>
     </g>
    </g>
    <g id="ytick_7">
     <g id="line2d_15">
      <g>
       <use xlink:href="#m83789f1984" x="27.62875" y="58.104255" style="stroke: #000000; stroke-width: 0.8"/>
      </g>
     </g>
     <g id="text_15">
      <!-- 0.880 -->
      <g transform="translate(7.2 60.354255) scale(0.06 -0.06)">
       <use xlink:href="#RobotoCondensed-Regular-30"/>
       <use xlink:href="#RobotoCondensed-Regular-2e" transform="translate(49.365234 0)"/>
       <use xlink:href="#RobotoCondensed-Regular-38" transform="translate(75.732422 0)"/>
       <use xlink:href="#RobotoCondensed-Regular-38" transform="translate(125.097656 0)"/>
       <use xlink:href="#RobotoCondensed-Regular-30" transform="translate(174.462891 0)"/>
      </g>
     </g>
    </g>
    <g id="ytick_8">
     <g id="line2d_16">
      <g>
       <use xlink:href="#m83789f1984" x="27.62875" y="36.371969" style="stroke: #000000; stroke-width: 0.8"/>
      </g>
     </g>
     <g id="text_16">
      <!-- 0.885 -->
      <g transform="translate(7.2 38.621969) scale(0.06 -0.06)">
       <use xlink:href="#RobotoCondensed-Regular-30"/>
       <use xlink:href="#RobotoCondensed-Regular-2e" transform="translate(49.365234 0)"/>
       <use xlink:href="#RobotoCondensed-Regular-38" transform="translate(75.732422 0)"/>
       <use xlink:href="#RobotoCondensed-Regular-38" transform="translate(125.097656 0)"/>
       <use xlink:href="#RobotoCondensed-Regular-35" transform="translate(174.462891 0)"/>
      </g>
     </g>
    </g>
   </g>
   <g id="line2d_17">
    <path d="M 40.023326 171.375021 
L 41.681463 170.704486 
L 43.3396 170.212132 
L 45.826806 169.747492 
L 48.314012 169.528968 
L 52.459355 169.459895 
L 53.288424 169.65359 
L 54.117492 170.16489 
L 54.946561 170.944364 
L 56.604698 173.1101 
L 59.091904 177.134183 
L 60.750041 179.757173 
L 62.408179 181.871005 
L 63.237247 182.613404 
L 64.066316 183.080215 
L 64.895384 183.2217 
L 65.724453 182.974128 
L 66.553522 182.35636 
L 67.38259 181.426465 
L 68.211659 180.242513 
L 69.869796 177.344721 
L 73.186071 171.055541 
L 74.844208 168.593274 
L 75.673277 167.735967 
L 76.502345 167.205303 
L 77.331414 167.056596 
L 78.160482 167.175587 
L 78.989551 167.457983 
L 80.647688 168.409651 
L 82.305826 169.704923 
L 85.6221 172.499561 
L 87.280237 173.585571 
L 88.109306 173.960326 
L 88.938374 174.188469 
L 89.767443 174.235888 
L 90.596512 173.829541 
L 91.42558 172.907642 
L 92.254649 171.552352 
L 93.083718 169.84583 
L 94.741855 165.707728 
L 98.058129 156.83176 
L 98.887198 154.967081 
L 99.716267 153.408446 
L 100.545335 152.238015 
L 101.374404 151.537947 
L 102.203472 151.372701 
L 103.86161 151.503864 
L 105.519747 151.826474 
L 108.006953 152.615348 
L 110.494159 153.696105 
L 113.810433 155.447141 
L 114.639502 155.935331 
L 115.46857 156.679779 
L 116.297639 157.717121 
L 117.955776 160.4602 
L 120.442982 165.457228 
L 122.101119 168.763515 
L 123.759257 171.559077 
L 124.588325 172.633908 
L 125.417394 173.423341 
L 126.246462 173.874807 
L 127.075531 173.918785 
L 127.9046 173.346595 
L 128.733668 172.18547 
L 129.562737 170.531561 
L 130.391806 168.481022 
L 132.049943 163.574663 
L 135.366217 153.233106 
L 136.195286 151.098433 
L 137.024354 149.336352 
L 137.853423 148.043016 
L 138.682492 147.314578 
L 139.51156 147.193877 
L 141.169698 147.370757 
L 142.827835 147.782212 
L 144.485972 148.405328 
L 146.144109 149.217192 
L 148.631315 150.738772 
L 151.118521 152.556153 
L 151.94759 153.288742 
L 152.776658 154.629308 
L 153.605727 156.584989 
L 154.434796 159.046371 
L 156.092933 165.048579 
L 160.238276 181.244829 
L 161.067344 183.812886 
L 161.896413 185.901912 
L 162.725482 187.402491 
L 163.55455 188.205208 
L 164.383619 188.27144 
L 165.212688 187.966052 
L 166.041756 187.376999 
L 166.870825 186.526949 
L 167.699893 185.43857 
L 169.358031 182.6375 
L 171.016168 179.155133 
L 172.674305 175.172813 
L 175.99058 166.433695 
L 176.819648 164.066207 
L 177.648717 160.873188 
L 178.477786 156.903429 
L 180.135923 147.25814 
L 184.281266 120.479805 
L 185.110334 115.916155 
L 185.939403 111.980772 
L 186.768472 108.829767 
L 187.59754 106.619253 
L 188.426609 105.50534 
L 189.255678 105.615265 
L 190.084746 106.850266 
L 190.913815 109.042999 
L 191.742883 112.030448 
L 193.401021 119.737416 
L 197.546364 141.501055 
L 198.375432 144.977559 
L 199.204501 147.781612 
L 200.03357 149.750195 
L 200.862638 150.720291 
L 201.691707 150.50442 
L 202.520776 149.014924 
L 203.349844 146.426231 
L 204.178913 142.927047 
L 205.83705 133.952012 
L 209.982393 108.790024 
L 210.811462 104.800211 
L 211.64053 101.598234 
L 212.469599 99.372795 
L 213.298668 98.312598 
L 214.127736 98.391823 
L 214.956805 99.048094 
L 215.785873 100.166086 
L 216.614942 101.665847 
L 218.273079 105.490872 
L 222.418422 116.13778 
L 223.247491 117.813435 
L 224.07656 119.151294 
L 224.905628 120.071406 
L 225.734697 120.493818 
L 228.221903 120.437092 
L 230.709109 120.189657 
L 234.025383 119.608084 
L 237.341658 118.760591 
L 238.170726 118.50994 
L 238.999795 117.948394 
L 239.828863 116.537094 
L 240.657932 114.389473 
L 241.487001 111.638356 
L 243.145138 104.856936 
L 246.461412 89.896448 
L 247.290481 86.639962 
L 248.11955 83.84258 
L 248.948618 81.637127 
L 249.777687 80.156429 
L 250.606755 79.533309 
L 253.92303 79.612203 
L 257.239304 79.88957 
L 261.384648 80.482182 
L 263.042785 80.791119 
L 263.871853 81.270341 
L 264.700922 82.455056 
L 265.529991 84.239683 
L 266.359059 86.514631 
L 268.017197 92.09713 
L 271.333471 104.323991 
L 272.16254 106.962649 
L 272.991608 109.214902 
L 273.820677 110.971159 
L 274.649745 112.12183 
L 275.478814 112.557324 
L 276.307883 112.419104 
L 277.136951 111.972696 
L 277.96602 111.22042 
L 278.795089 110.16395 
L 279.624157 108.80496 
L 280.453226 107.145121 
L 281.282294 105.186106 
L 282.940432 100.377241 
L 284.598569 94.391749 
L 286.256706 87.243011 
L 287.914843 78.944411 
L 287.914843 78.944411 
" clip-path="url(#pb0b870d8e5)" style="fill: none; stroke: #ffa500; stroke-width: 2; stroke-linecap: square"/>
   </g>
   <g id="line2d_18">
    <path d="M 40.023326 188.683011 
L 52.417902 183.841227 
L 64.812478 178.999443 
L 77.207054 174.157658 
L 89.601629 169.315874 
L 101.996205 164.474089 
L 114.390781 159.632305 
L 126.785357 154.790521 
L 139.179933 149.948736 
L 151.574509 145.106952 
L 163.969085 140.265167 
L 176.363661 135.423383 
L 188.758236 130.581599 
L 201.152812 125.739814 
L 213.547388 120.89803 
L 225.941964 116.056245 
L 238.33654 111.214461 
L 250.731116 106.372676 
L 263.125692 101.530892 
L 275.520268 96.689108 
L 287.914843 91.847323 
" clip-path="url(#pb0b870d8e5)" style="fill: none; stroke: #ffa500; stroke-opacity: 0.7; stroke-linecap: square"/>
   </g>
   <g id="line2d_19">
    <path d="M 40.023326 99.139374 
L 41.681463 94.487161 
L 43.3396 90.515763 
L 44.997738 87.22054 
L 46.655875 84.596853 
L 48.314012 82.640065 
L 49.143081 81.910308 
L 49.972149 81.345537 
L 50.801218 80.94517 
L 51.630287 80.708629 
L 52.459355 80.635772 
L 53.288424 80.905253 
L 54.117492 81.616611 
L 54.946561 82.701071 
L 55.77563 84.089858 
L 57.433767 87.505316 
L 60.750041 94.96208 
L 61.57911 96.555471 
L 62.408179 97.902993 
L 63.237247 98.935872 
L 64.066316 99.585333 
L 64.895384 99.783554 
L 65.724453 99.596842 
L 66.553522 99.13094 
L 67.38259 98.429641 
L 69.040728 96.496032 
L 74.015139 89.600337 
L 74.844208 88.751231 
L 75.673277 88.104675 
L 76.502345 87.704465 
L 77.331414 87.593431 
L 78.160482 87.744762 
L 78.989551 88.103909 
L 79.81862 88.638016 
L 81.476757 90.099685 
L 86.451169 95.266672 
L 87.280237 95.896884 
L 88.109306 96.373492 
L 88.938374 96.663641 
L 89.767443 96.721872 
L 90.596512 96.135804 
L 91.42558 94.806166 
L 92.254649 92.851454 
L 93.083718 90.390167 
L 94.741855 84.421852 
L 98.058129 71.620194 
L 98.887198 68.930799 
L 99.716267 66.682806 
L 100.545335 64.994714 
L 101.374404 63.985018 
L 102.203472 63.765513 
L 103.032541 64.252377 
L 103.86161 65.312878 
L 104.690678 66.854867 
L 105.519747 68.786194 
L 107.177884 73.448254 
L 110.494159 83.389784 
L 111.323227 85.466248 
L 112.152296 87.194842 
L 112.981364 88.483417 
L 113.810433 89.239821 
L 114.639502 89.344775 
L 115.46857 88.353728 
L 116.297639 86.273441 
L 117.126708 83.280309 
L 117.955776 79.550727 
L 119.613913 70.587794 
L 122.930188 51.585919 
L 123.759257 47.640253 
L 124.588325 44.369299 
L 125.417394 41.949451 
L 126.246462 40.557105 
L 127.075531 40.375215 
L 127.9046 41.544794 
L 128.733668 43.918185 
L 129.562737 47.298845 
L 130.391806 51.490235 
L 132.049943 61.519041 
L 135.366217 82.657626 
L 136.195286 87.020989 
L 137.024354 90.622757 
L 137.853423 93.26639 
L 138.682492 94.755348 
L 139.51156 94.967482 
L 140.340629 94.483733 
L 141.169698 93.532088 
L 141.998766 92.189568 
L 143.656903 88.63998 
L 147.802247 78.317072 
L 148.631315 76.620261 
L 149.460384 75.225752 
L 150.289452 74.210566 
L 151.118521 73.651723 
L 151.94759 73.59901 
L 152.776658 73.890906 
L 153.605727 74.462153 
L 154.434796 75.28278 
L 155.263864 76.322815 
L 156.922001 78.941226 
L 158.580139 82.077612 
L 166.041756 97.421492 
L 168.528962 104.05196 
L 171.016168 110.725436 
L 172.674305 114.499229 
L 173.503374 116.026273 
L 174.332442 117.243507 
L 175.161511 118.098499 
L 175.99058 118.538818 
L 177.648717 118.517567 
L 179.306854 118.233918 
L 180.964991 117.757519 
L 183.452197 116.740365 
L 185.939403 115.44085 
L 188.426609 113.949766 
L 189.255678 113.388591 
L 190.084746 112.637037 
L 191.742883 110.599512 
L 193.401021 107.995924 
L 195.888227 103.413725 
L 200.03357 95.436843 
L 204.178913 88.040304 
L 208.324256 80.164566 
L 209.982393 77.350681 
L 211.64053 74.95268 
L 213.298668 73.119662 
L 214.956805 71.858721 
L 216.614942 70.919489 
L 219.102148 69.847619 
L 222.418422 68.423925 
L 224.07656 67.447181 
L 225.734697 66.135475 
L 226.563765 65.128669 
L 227.392834 63.412372 
L 228.221903 61.080955 
L 229.88004 55.039375 
L 234.854452 34.28375 
L 235.68352 31.665675 
L 236.512589 29.599018 
L 237.341658 28.200434 
L 238.170726 27.586577 
L 238.999795 28.146828 
L 239.828863 30.361897 
L 240.657932 34.000447 
L 241.487001 38.811644 
L 243.145138 50.948644 
L 247.290481 84.254115 
L 248.11955 89.416479 
L 248.948618 93.493987 
L 249.777687 96.235807 
L 250.606755 97.391105 
L 251.435824 96.806937 
L 252.264893 94.678448 
L 253.093961 91.239791 
L 253.92303 86.723885 
L 255.581167 75.392002 
L 258.897442 50.049669 
L 259.72651 44.514744 
L 260.555579 39.765919 
L 261.384648 36.036114 
L 262.213716 33.558247 
L 263.042785 32.565237 
L 263.871853 32.759396 
L 264.700922 33.424746 
L 265.529991 34.495768 
L 266.359059 35.913003 
L 268.017197 39.548289 
L 270.504402 46.111395 
L 272.991608 52.579745 
L 274.649745 56.046573 
L 276.307883 58.448801 
L 279.624157 62.592246 
L 282.111363 65.325203 
L 283.7695 66.913227 
L 285.427638 68.279525 
L 287.085775 69.394468 
L 287.914843 69.848423 
L 287.914843 69.848423 
" clip-path="url(#pb0b870d8e5)" style="fill: none; stroke: #800080; stroke-width: 2; stroke-linecap: square"/>
   </g>
   <g id="line2d_20">
    <path d="M 40.023326 95.015013 
L 52.417902 93.457895 
L 64.812478 91.900777 
L 77.207054 90.343659 
L 89.601629 88.786542 
L 101.996205 87.229424 
L 114.390781 85.672306 
L 126.785357 84.115188 
L 139.179933 82.55807 
L 151.574509 81.000952 
L 163.969085 79.443835 
L 176.363661 77.886717 
L 188.758236 76.329599 
L 201.152812 74.772481 
L 213.547388 73.215363 
L 225.941964 71.658245 
L 238.33654 70.101128 
L 250.731116 68.54401 
L 263.125692 66.986892 
L 275.520268 65.429774 
L 287.914843 63.872656 
" clip-path="url(#pb0b870d8e5)" style="fill: none; stroke-dasharray: 3.7,1.6; stroke-dashoffset: 0; stroke: #800080; stroke-opacity: 0.7"/>
   </g>
   <g id="text_17">
    <!-- Berger-Parker (10) -->
    <g transform="translate(133.56971 13.5125) scale(0.08 -0.08)">
     <defs>
      <path id="RobotoCondensed-Bold-42" d="M 3294 1341 
Q 3294 675 2942 339 
Q 2591 3 1884 0 
L 366 0 
L 366 4550 
L 1772 4550 
Q 2453 4550 2839 4245 
Q 3225 3941 3225 3303 
Q 3225 2994 3089 2734 
Q 2953 2475 2653 2344 
Q 3003 2244 3148 1956 
Q 3294 1669 3294 1341 
z
M 1288 3784 
L 1288 2647 
L 1763 2647 
Q 2303 2647 2303 3206 
Q 2303 3772 1794 3784 
L 1288 3784 
z
M 2375 1350 
Q 2375 1963 1941 1981 
L 1288 1981 
L 1288 763 
L 1872 763 
Q 2141 763 2258 930 
Q 2375 1097 2375 1350 
z
" transform="scale(0.015625)"/>
      <path id="RobotoCondensed-Bold-65" d="M 2834 444 
Q 2700 263 2411 100 
Q 2122 -63 1688 -63 
Q 997 -63 620 350 
Q 244 763 244 1497 
L 244 1775 
Q 244 2597 601 3020 
Q 959 3444 1596 3444 
Q 2234 3444 2556 3041 
Q 2878 2638 2884 1831 
L 2884 1397 
L 1131 1397 
Q 1147 994 1305 833 
Q 1463 672 1747 672 
Q 2194 672 2484 978 
L 2834 444 
z
M 1594 2709 
Q 1363 2709 1258 2545 
Q 1153 2381 1134 2016 
L 2019 2016 
L 2019 2094 
Q 2013 2400 1919 2554 
Q 1825 2709 1594 2709 
z
" transform="scale(0.015625)"/>
      <path id="RobotoCondensed-Bold-72" d="M 1700 2553 
Q 1331 2553 1206 2238 
L 1206 0 
L 322 0 
L 322 3381 
L 1156 3381 
L 1181 3016 
Q 1394 3444 1759 3444 
Q 1903 3444 2000 3406 
L 1991 2528 
Q 1834 2553 1700 2553 
z
" transform="scale(0.015625)"/>
      <path id="RobotoCondensed-Bold-67" d="M 1494 -1331 
Q 1259 -1331 945 -1232 
Q 631 -1134 453 -941 
L 750 -328 
Q 872 -450 1067 -536 
Q 1263 -622 1456 -622 
Q 1725 -622 1869 -489 
Q 2013 -356 2013 -3 
L 2013 269 
Q 1756 -63 1353 -63 
Q 819 -63 517 357 
Q 216 778 216 1572 
L 216 1794 
Q 216 2625 517 3034 
Q 819 3444 1359 3444 
Q 1819 3444 2066 3084 
L 2100 3381 
L 2900 3381 
L 2900 0 
Q 2900 -697 2512 -1014 
Q 2125 -1331 1494 -1331 
z
M 1100 1572 
Q 1100 678 1609 678 
Q 1881 678 2013 875 
L 2013 2494 
Q 1878 2706 1615 2706 
Q 1353 2706 1226 2490 
Q 1100 2275 1100 1794 
L 1100 1572 
z
" transform="scale(0.015625)"/>
      <path id="RobotoCondensed-Bold-2d" d="M 1913 2319 
L 1913 1584 
L 384 1584 
L 384 2319 
L 1913 2319 
z
" transform="scale(0.015625)"/>
      <path id="RobotoCondensed-Bold-50" d="M 1288 1600 
L 1288 0 
L 366 0 
L 366 4550 
L 1919 4550 
Q 2606 4550 3001 4123 
Q 3397 3697 3397 3044 
Q 3397 2384 3005 1993 
Q 2613 1603 1928 1600 
L 1288 1600 
z
M 1288 3784 
L 1288 2366 
L 1919 2366 
Q 2206 2366 2336 2555 
Q 2466 2744 2466 3037 
Q 2466 3331 2336 3557 
Q 2206 3784 1919 3784 
L 1288 3784 
z
" transform="scale(0.015625)"/>
      <path id="RobotoCondensed-Bold-61" d="M 1928 0 
Q 1881 106 1853 263 
Q 1613 -63 1209 -63 
Q 800 -63 514 212 
Q 228 488 228 947 
Q 228 1463 559 1764 
Q 891 2066 1572 2066 
L 1809 2066 
L 1809 2338 
Q 1809 2753 1503 2753 
Q 1172 2753 1172 2366 
L 288 2366 
Q 288 2809 623 3126 
Q 959 3444 1528 3444 
Q 2031 3444 2364 3181 
Q 2697 2919 2697 2325 
L 2697 738 
Q 2703 288 2819 53 
L 2819 0 
L 1928 0 
z
M 1409 634 
Q 1553 634 1656 693 
Q 1759 753 1809 834 
L 1809 1538 
L 1600 1538 
Q 1350 1538 1231 1384 
Q 1113 1231 1113 1009 
Q 1113 634 1409 634 
z
" transform="scale(0.015625)"/>
      <path id="RobotoCondensed-Bold-6b" d="M 2063 0 
L 1447 1309 
L 1206 1041 
L 1206 0 
L 322 0 
L 322 4803 
L 1206 4803 
L 1206 2209 
L 1316 2369 
L 1931 3381 
L 2984 3381 
L 2003 1991 
L 3075 0 
L 2063 0 
z
" transform="scale(0.015625)"/>
      <path id="RobotoCondensed-Bold-20" transform="scale(0.015625)"/>
      <path id="RobotoCondensed-Bold-28" d="M 378 1850 
Q 378 2731 592 3390 
Q 806 4050 1118 4472 
Q 1431 4894 1728 5050 
L 1894 4559 
Q 1619 4300 1372 3661 
Q 1125 3022 1119 1919 
L 1119 1772 
Q 1119 628 1367 -23 
Q 1616 -675 1894 -941 
L 1728 -1422 
Q 1431 -1266 1118 -845 
Q 806 -425 592 236 
Q 378 897 378 1850 
z
" transform="scale(0.015625)"/>
      <path id="RobotoCondensed-Bold-31" d="M 2244 4556 
L 2244 0 
L 1359 0 
L 1359 3475 
L 494 3144 
L 494 3881 
L 2150 4556 
L 2244 4556 
z
" transform="scale(0.015625)"/>
      <path id="RobotoCondensed-Bold-30" d="M 2941 1881 
Q 2941 859 2572 398 
Q 2203 -63 1622 -63 
Q 1044 -63 673 392 
Q 303 847 297 1847 
L 297 2675 
Q 297 3700 665 4156 
Q 1034 4613 1619 4613 
Q 2194 4613 2562 4166 
Q 2931 3719 2941 2731 
L 2941 1881 
z
M 2056 2803 
Q 2056 3403 1937 3640 
Q 1819 3878 1619 3878 
Q 1422 3878 1303 3647 
Q 1184 3416 1181 2838 
L 1181 1763 
Q 1181 1156 1300 914 
Q 1419 672 1622 672 
Q 1822 672 1937 908 
Q 2053 1144 2056 1728 
L 2056 2803 
z
" transform="scale(0.015625)"/>
      <path id="RobotoCondensed-Bold-29" d="M 1741 1778 
Q 1741 931 1520 265 
Q 1300 -400 975 -833 
Q 650 -1266 341 -1422 
L 175 -941 
Q 447 -681 695 -37 
Q 944 606 950 1709 
L 950 1856 
Q 950 3000 695 3653 
Q 441 4306 175 4569 
L 341 5050 
Q 650 4894 975 4459 
Q 1300 4025 1520 3364 
Q 1741 2703 1741 1778 
z
" transform="scale(0.015625)"/>
     </defs>
     <use xlink:href="#RobotoCondensed-Bold-42"/>
     <use xlink:href="#RobotoCondensed-Bold-65" transform="translate(56.152344 0)"/>
     <use xlink:href="#RobotoCondensed-Bold-72" transform="translate(104.052734 0)"/>
     <use xlink:href="#RobotoCondensed-Bold-67" transform="translate(137.207031 0)"/>
     <use xlink:href="#RobotoCondensed-Bold-65" transform="translate(187.548828 0)"/>
     <use xlink:href="#RobotoCondensed-Bold-72" transform="translate(235.449219 0)"/>
     <use xlink:href="#RobotoCondensed-Bold-2d" transform="translate(268.603516 0)"/>
     <use xlink:href="#RobotoCondensed-Bold-50" transform="translate(304.931641 0)"/>
     <use xlink:href="#RobotoCondensed-Bold-61" transform="translate(361.816406 0)"/>
     <use xlink:href="#RobotoCondensed-Bold-72" transform="translate(408.935547 0)"/>
     <use xlink:href="#RobotoCondensed-Bold-6b" transform="translate(442.089844 0)"/>
     <use xlink:href="#RobotoCondensed-Bold-65" transform="translate(489.941406 0)"/>
     <use xlink:href="#RobotoCondensed-Bold-72" transform="translate(537.841797 0)"/>
     <use xlink:href="#RobotoCondensed-Bold-20" transform="translate(570.996094 0)"/>
     <use xlink:href="#RobotoCondensed-Bold-28" transform="translate(594.042969 0)"/>
     <use xlink:href="#RobotoCondensed-Bold-31" transform="translate(626.367188 0)"/>
     <use xlink:href="#RobotoCondensed-Bold-30" transform="translate(676.953125 0)"/>
     <use xlink:href="#RobotoCondensed-Bold-29" transform="translate(727.539062 0)"/>
    </g>
   </g>
   <g id="PathCollection_1">
    <defs>
     <path id="mb38622a4db" d="M 0 3 
C 0.795609 3 1.55874 2.683901 2.12132 2.12132 
C 2.683901 1.55874 3 0.795609 3 0 
C 3 -0.795609 2.683901 -1.55874 2.12132 -2.12132 
C 1.55874 -2.683901 0.795609 -3 0 -3 
C -0.795609 -3 -1.55874 -2.683901 -2.12132 -2.12132 
C -2.683901 -1.55874 -3 -0.795609 -3 0 
C -3 0.795609 -2.683901 1.55874 -2.12132 2.12132 
C -1.55874 2.683901 -0.795609 3 0 3 
z
" style="stroke: #ffa500"/>
    </defs>
    <g clip-path="url(#pb0b870d8e5)">
     <use xlink:href="#mb38622a4db" x="40.023326" y="171.375021" style="fill: #ffa500; stroke: #ffa500"/>
     <use xlink:href="#mb38622a4db" x="52.417902" y="169.459434" style="fill: #ffa500; stroke: #ffa500"/>
     <use xlink:href="#mb38622a4db" x="64.812478" y="183.223861" style="fill: #ffa500; stroke: #ffa500"/>
     <use xlink:href="#mb38622a4db" x="77.207054" y="167.054438" style="fill: #ffa500; stroke: #ffa500"/>
     <use xlink:href="#mb38622a4db" x="89.601629" y="174.248062" style="fill: #ffa500; stroke: #ffa500"/>
     <use xlink:href="#mb38622a4db" x="101.996205" y="151.370996" style="fill: #ffa500; stroke: #ffa500"/>
     <use xlink:href="#mb38622a4db" x="114.390781" y="155.776971" style="fill: #ffa500; stroke: #ffa500"/>
     <use xlink:href="#mb38622a4db" x="126.785357" y="173.962121" style="fill: #ffa500; stroke: #ffa500"/>
     <use xlink:href="#mb38622a4db" x="139.179933" y="147.188666" style="fill: #ffa500; stroke: #ffa500"/>
     <use xlink:href="#mb38622a4db" x="151.574509" y="152.915321" style="fill: #ffa500; stroke: #ffa500"/>
     <use xlink:href="#mb38622a4db" x="163.969085" y="188.310676" style="fill: #ffa500; stroke: #ffa500"/>
     <use xlink:href="#mb38622a4db" x="176.363661" y="165.434721" style="fill: #ffa500; stroke: #ffa500"/>
     <use xlink:href="#mb38622a4db" x="188.758236" y="105.401793" style="fill: #ffa500; stroke: #ffa500"/>
     <use xlink:href="#mb38622a4db" x="201.152812" y="150.793763" style="fill: #ffa500; stroke: #ffa500"/>
     <use xlink:href="#mb38622a4db" x="213.547388" y="98.249972" style="fill: #ffa500; stroke: #ffa500"/>
     <use xlink:href="#mb38622a4db" x="225.941964" y="120.512286" style="fill: #ffa500; stroke: #ffa500"/>
     <use xlink:href="#mb38622a4db" x="238.33654" y="118.458026" style="fill: #ffa500; stroke: #ffa500"/>
     <use xlink:href="#mb38622a4db" x="250.731116" y="79.522018" style="fill: #ffa500; stroke: #ffa500"/>
     <use xlink:href="#mb38622a4db" x="263.125692" y="80.807599" style="fill: #ffa500; stroke: #ffa500"/>
     <use xlink:href="#mb38622a4db" x="275.520268" y="112.55836" style="fill: #ffa500; stroke: #ffa500"/>
     <use xlink:href="#mb38622a4db" x="287.914843" y="78.944411" style="fill: #ffa500; stroke: #ffa500"/>
    </g>
   </g>
   <g id="PathCollection_2">
    <defs>
     <path id="m3354094a3f" d="M -3 3 
L 3 3 
L 3 -3 
L -3 -3 
z
" style="stroke: #800080"/>
    </defs>
    <g clip-path="url(#pb0b870d8e5)">
     <use xlink:href="#m3354094a3f" x="40.023326" y="99.139374" style="fill: #800080; stroke: #800080"/>
     <use xlink:href="#m3354094a3f" x="52.417902" y="80.63513" style="fill: #800080; stroke: #800080"/>
     <use xlink:href="#m3354094a3f" x="64.812478" y="99.785183" style="fill: #800080; stroke: #800080"/>
     <use xlink:href="#m3354094a3f" x="77.207054" y="87.590686" style="fill: #800080; stroke: #800080"/>
     <use xlink:href="#m3354094a3f" x="89.601629" y="96.73943" style="fill: #800080; stroke: #800080"/>
     <use xlink:href="#m3354094a3f" x="101.996205" y="63.744228" style="fill: #800080; stroke: #800080"/>
     <use xlink:href="#m3354094a3f" x="114.390781" y="89.403316" style="fill: #800080; stroke: #800080"/>
     <use xlink:href="#m3354094a3f" x="126.785357" y="40.286634" style="fill: #800080; stroke: #800080"/>
     <use xlink:href="#m3354094a3f" x="139.179933" y="95.012718" style="fill: #800080; stroke: #800080"/>
     <use xlink:href="#m3354094a3f" x="151.574509" y="73.566781" style="fill: #800080; stroke: #800080"/>
     <use xlink:href="#m3354094a3f" x="163.969085" y="92.950279" style="fill: #800080; stroke: #800080"/>
     <use xlink:href="#m3354094a3f" x="176.363661" y="118.587705" style="fill: #800080; stroke: #800080"/>
     <use xlink:href="#m3354094a3f" x="188.758236" y="113.741358" style="fill: #800080; stroke: #800080"/>
     <use xlink:href="#m3354094a3f" x="201.152812" y="93.503794" style="fill: #800080; stroke: #800080"/>
     <use xlink:href="#m3354094a3f" x="213.547388" y="72.902656" style="fill: #800080; stroke: #800080"/>
     <use xlink:href="#m3354094a3f" x="225.941964" y="65.942044" style="fill: #800080; stroke: #800080"/>
     <use xlink:href="#m3354094a3f" x="238.33654" y="27.568239" style="fill: #800080; stroke: #800080"/>
     <use xlink:href="#m3354094a3f" x="250.731116" y="97.412057" style="fill: #800080; stroke: #800080"/>
     <use xlink:href="#m3354094a3f" x="263.125692" y="32.556571" style="fill: #800080; stroke: #800080"/>
     <use xlink:href="#m3354094a3f" x="275.520268" y="57.403919" style="fill: #800080; stroke: #800080"/>
     <use xlink:href="#m3354094a3f" x="287.914843" y="69.848423" style="fill: #800080; stroke: #800080"/>
    </g>
   </g>
   <g id="legend_1">
    <g id="patch_3">
     <path d="M 30.62875 41.811875 
L 66.7525 41.811875 
L 66.7525 22.5125 
L 30.62875 22.5125 
z
" style="fill: #ffffff; opacity: 0.8"/>
    </g>
    <g id="line2d_21">
     <path d="M 33.02875 27.3125 
L 40.52875 27.3125 
L 48.02875 27.3125 
" style="fill: none; stroke: #ffa500; stroke-width: 2; stroke-linecap: square"/>
     <g>
      <use xlink:href="#mb38622a4db" x="40.52875" y="27.3125" style="fill: #ffa500; stroke: #ffa500"/>
     </g>
    </g>
    <g id="text_18">
     <!-- Boys -->
     <g transform="translate(52.82875 29.4125) scale(0.06 -0.06)">
      <defs>
       <path id="RobotoCondensed-Regular-42" d="M 3125 1313 
Q 3125 675 2776 337 
Q 2428 0 1847 0 
L 491 0 
L 491 4550 
L 1791 4550 
Q 2375 4550 2706 4261 
Q 3038 3972 3038 3338 
Q 3038 3025 2880 2779 
Q 2722 2534 2453 2400 
Q 2781 2297 2953 1998 
Q 3125 1700 3125 1313 
z
M 1066 4056 
L 1066 2613 
L 1797 2613 
Q 2088 2613 2275 2806 
Q 2463 3000 2463 3344 
Q 2463 4041 1819 4056 
L 1066 4056 
z
M 2550 1306 
Q 2550 2106 1906 2128 
L 1066 2128 
L 1066 491 
L 1847 491 
Q 2181 491 2365 711 
Q 2550 931 2550 1306 
z
" transform="scale(0.015625)"/>
       <path id="RobotoCondensed-Regular-6f" d="M 300 1850 
Q 300 2641 678 3042 
Q 1056 3444 1603 3444 
Q 2156 3444 2536 3042 
Q 2916 2641 2916 1850 
L 2916 1528 
Q 2916 738 2536 337 
Q 2156 -63 1609 -63 
Q 1059 -63 679 337 
Q 300 738 300 1528 
L 300 1850 
z
M 853 1528 
Q 853 969 1068 689 
Q 1284 409 1609 409 
Q 2341 409 2363 1466 
L 2363 1850 
Q 2363 2403 2145 2686 
Q 1928 2969 1603 2969 
Q 1281 2969 1067 2686 
Q 853 2403 853 1850 
L 853 1528 
z
" transform="scale(0.015625)"/>
       <path id="RobotoCondensed-Regular-79" d="M 1425 -522 
Q 1153 -1366 563 -1366 
Q 409 -1366 278 -1316 
L 278 -847 
Q 328 -859 397 -859 
Q 631 -859 770 -746 
Q 909 -634 997 -338 
L 1106 31 
L 109 3381 
L 713 3381 
L 1341 922 
L 1953 3381 
L 2541 3381 
L 1425 -522 
z
" transform="scale(0.015625)"/>
       <path id="RobotoCondensed-Regular-73" d="M 2056 866 
Q 2056 1059 1907 1190 
Q 1759 1322 1340 1500 
Q 922 1678 681 1863 
Q 409 2072 409 2484 
Q 409 2888 703 3166 
Q 997 3444 1481 3444 
Q 2000 3444 2287 3150 
Q 2575 2856 2575 2419 
L 2025 2419 
Q 2025 2628 1884 2798 
Q 1744 2969 1481 2969 
Q 1203 2969 1083 2828 
Q 963 2688 963 2503 
Q 963 2319 1081 2217 
Q 1200 2116 1553 1959 
Q 2066 1756 2337 1537 
Q 2609 1319 2609 909 
Q 2609 463 2303 200 
Q 1997 -63 1494 -63 
Q 919 -63 616 265 
Q 313 594 313 1013 
L 866 1013 
Q 881 653 1081 533 
Q 1281 413 1494 413 
Q 2056 413 2056 866 
z
" transform="scale(0.015625)"/>
      </defs>
      <use xlink:href="#RobotoCondensed-Regular-42"/>
      <use xlink:href="#RobotoCondensed-Regular-6f" transform="translate(54.589844 0)"/>
      <use xlink:href="#RobotoCondensed-Regular-79" transform="translate(104.785156 0)"/>
      <use xlink:href="#RobotoCondensed-Regular-73" transform="translate(146.435547 0)"/>
     </g>
    </g>
    <g id="line2d_22">
     <path d="M 33.02875 36.093125 
L 40.52875 36.093125 
L 48.02875 36.093125 
" style="fill: none; stroke: #800080; stroke-width: 2; stroke-linecap: square"/>
     <defs>
      <path id="m378a90cb53" d="M -3 3 
L 3 3 
L 3 -3 
L -3 -3 
z
" style="stroke: #800080; stroke-linejoin: miter"/>
     </defs>
     <g>
      <use xlink:href="#m378a90cb53" x="40.52875" y="36.093125" style="fill: #800080; stroke: #800080; stroke-linejoin: miter"/>
     </g>
    </g>
    <g id="text_19">
     <!-- Girls -->
     <g transform="translate(52.82875 38.193125) scale(0.06 -0.06)">
      <defs>
       <path id="RobotoCondensed-Regular-47" d="M 3341 2266 
L 3341 569 
Q 3266 469 3114 319 
Q 2963 169 2691 53 
Q 2419 -63 1978 -63 
Q 1272 -63 830 412 
Q 388 888 388 1850 
L 388 2703 
Q 388 3656 770 4134 
Q 1153 4613 1919 4613 
Q 2581 4613 2943 4244 
Q 3306 3875 3341 3219 
L 2766 3219 
Q 2731 3641 2529 3880 
Q 2328 4119 1919 4119 
Q 1400 4119 1183 3773 
Q 966 3428 963 2731 
L 963 1850 
Q 963 1125 1239 776 
Q 1516 428 1981 428 
Q 2378 428 2537 547 
Q 2697 666 2769 728 
L 2769 1778 
L 1934 1778 
L 1934 2266 
L 3341 2266 
z
" transform="scale(0.015625)"/>
       <path id="RobotoCondensed-Regular-69" d="M 428 4278 
Q 428 4419 506 4516 
Q 584 4613 741 4613 
Q 894 4613 975 4516 
Q 1056 4419 1056 4278 
Q 1056 4144 975 4048 
Q 894 3953 741 3953 
Q 584 3953 506 4048 
Q 428 4144 428 4278 
z
M 1009 3381 
L 1009 0 
L 459 0 
L 459 3381 
L 1009 3381 
z
" transform="scale(0.015625)"/>
       <path id="RobotoCondensed-Regular-72" d="M 1563 2888 
Q 1138 2888 969 2425 
L 969 0 
L 416 0 
L 416 3381 
L 950 3381 
L 963 3041 
Q 1184 3444 1591 3444 
Q 1738 3444 1809 3400 
L 1813 2863 
Q 1691 2888 1563 2888 
z
" transform="scale(0.015625)"/>
       <path id="RobotoCondensed-Regular-6c" d="M 1009 4800 
L 1009 0 
L 459 0 
L 459 4800 
L 1009 4800 
z
" transform="scale(0.015625)"/>
      </defs>
      <use xlink:href="#RobotoCondensed-Regular-47"/>
      <use xlink:href="#RobotoCondensed-Regular-69" transform="translate(59.082031 0)"/>
      <use xlink:href="#RobotoCondensed-Regular-72" transform="translate(82.03125 0)"/>
      <use xlink:href="#RobotoCondensed-Regular-6c" transform="translate(112.5 0)"/>
      <use xlink:href="#RobotoCondensed-Regular-73" transform="translate(135.449219 0)"/>
     </g>
    </g>
   </g>
  </g>
 </g>
 <defs>
  <clipPath id="pb0b870d8e5">
   <rect x="27.62875" y="19.5125" width="272.680669" height="177.22625"/>
  </clipPath>
 </defs>
</svg>
