<?xml version="1.0" encoding="utf-8" standalone="no"?>
<!DOCTYPE svg PUBLIC "-//W3C//DTD SVG 1.1//EN"
  "http://www.w3.org/Graphics/SVG/1.1/DTD/svg11.dtd">
<svg xmlns:xlink="http://www.w3.org/1999/xlink" width="711.795313pt" height="422.87pt" viewBox="0 0 711.795313 422.87" xmlns="http://www.w3.org/2000/svg" version="1.1">
 <metadata>
  <rdf:RDF xmlns:dc="http://purl.org/dc/elements/1.1/" xmlns:cc="http://creativecommons.org/ns#" xmlns:rdf="http://www.w3.org/1999/02/22-rdf-syntax-ns#">
   <cc:Work>
    <dc:type rdf:resource="http://purl.org/dc/dcmitype/StillImage"/>
    <dc:date>2026-04-25T15:46:07.842746</dc:date>
    <dc:format>image/svg+xml</dc:format>
    <dc:creator>
     <cc:Agent>
      <dc:title>Matplotlib v3.10.7, https://matplotlib.org/</dc:title>
     </cc:Agent>
    </dc:creator>
   </cc:Work>
  </rdf:RDF>
 </metadata>
 <defs>
  <style type="text/css">*{stroke-linejoin: round; stroke-linecap: butt}</style>
 </defs>
 <g id="figure_1">
  <g id="patch_1">
   <path d="M 0 422.87 
L 711.795313 422.87 
L 711.795313 0 
L 0 0 
z
" style="fill: #ffffff"/>
  </g>
  <g id="axes_1">
   <g id="patch_2">
    <path d="M 45.710313 382.12 
L 692.385312 382.12 
L 692.385312 7.2 
L 45.710313 7.2 
z
" style="fill: #ffffff"/>
   </g>
   <g id="matplotlib.axis_1">
    <g id="xtick_1">
     <g id="text_1">
      <!-- 1989 -->
      <g transform="translate(62.894631 397.875312) scale(0.11 -0.11)">
       <defs>
        <path id="NotoSansCJKjp-Regular-31" d="M 563 0 
L 3136 0 
L 3136 486 
L 2195 486 
L 2195 4698 
L 1747 4698 
C 1491 4544 1190 4435 774 4358 
L 774 3987 
L 1606 3987 
L 1606 486 
L 563 486 
L 563 0 
z
" transform="scale(0.015625)"/>
        <path id="NotoSansCJKjp-Regular-39" d="M 832 3258 
C 832 3898 1178 4320 1626 4320 
C 2227 4320 2586 3808 2650 2842 
C 2349 2400 1990 2214 1670 2214 
C 1114 2214 832 2624 832 3258 
z
M 1498 -83 
C 2381 -83 3200 646 3200 2547 
C 3200 4038 2528 4781 1626 4781 
C 896 4781 282 4166 282 3258 
C 282 2285 794 1779 1574 1779 
C 1965 1779 2368 2003 2656 2355 
C 2611 902 2086 403 1478 403 
C 1178 403 890 538 698 762 
L 371 397 
C 634 122 992 -83 1498 -83 
z
" transform="scale(0.015625)"/>
        <path id="NotoSansCJKjp-Regular-38" d="M 1786 -83 
C 2669 -83 3258 448 3258 1133 
C 3258 1773 2874 2125 2464 2362 
L 2464 2394 
C 2746 2611 3091 3034 3091 3526 
C 3091 4250 2605 4762 1805 4762 
C 1075 4762 518 4288 518 3571 
C 518 3078 806 2726 1152 2490 
L 1152 2458 
C 723 2227 288 1792 288 1165 
C 288 442 922 -83 1786 -83 
z
M 2106 2547 
C 1555 2765 1050 3008 1050 3571 
C 1050 4026 1363 4333 1798 4333 
C 2304 4333 2592 3955 2592 3494 
C 2592 3149 2426 2829 2106 2547 
z
M 1798 352 
C 1235 352 819 717 819 1216 
C 819 1664 1082 2035 1459 2278 
C 2125 2010 2701 1773 2701 1146 
C 2701 678 2336 352 1798 352 
z
" transform="scale(0.015625)"/>
       </defs>
       <use xlink:href="#NotoSansCJKjp-Regular-31"/>
       <use xlink:href="#NotoSansCJKjp-Regular-39" transform="translate(55.499985 0)"/>
       <use xlink:href="#NotoSansCJKjp-Regular-38" transform="translate(110.999969 0)"/>
       <use xlink:href="#NotoSansCJKjp-Regular-39" transform="translate(166.499954 0)"/>
      </g>
     </g>
    </g>
    <g id="xtick_2">
     <g id="text_2">
      <!-- 1992 -->
      <g transform="translate(151.077585 397.875312) scale(0.11 -0.11)">
       <defs>
        <path id="NotoSansCJKjp-Regular-32" d="M 282 0 
L 3232 0 
L 3232 506 
L 1933 506 
C 1696 506 1408 480 1165 461 
C 2266 1504 3002 2458 3002 3392 
C 3002 4230 2477 4781 1638 4781 
C 1043 4781 640 4506 256 4090 
L 595 3757 
C 851 4064 1184 4301 1568 4301 
C 2150 4301 2432 3910 2432 3373 
C 2432 2566 1754 1632 282 346 
L 282 0 
z
" transform="scale(0.015625)"/>
       </defs>
       <use xlink:href="#NotoSansCJKjp-Regular-31"/>
       <use xlink:href="#NotoSansCJKjp-Regular-39" transform="translate(55.499985 0)"/>
       <use xlink:href="#NotoSansCJKjp-Regular-39" transform="translate(110.999969 0)"/>
       <use xlink:href="#NotoSansCJKjp-Regular-32" transform="translate(166.499954 0)"/>
      </g>
     </g>
    </g>
    <g id="xtick_3">
     <g id="text_3">
      <!-- 1995 -->
      <g transform="translate(239.26054 397.875312) scale(0.11 -0.11)">
       <defs>
        <path id="NotoSansCJKjp-Regular-35" d="M 1670 -83 
C 2464 -83 3206 499 3206 1530 
C 3206 2560 2573 3021 1792 3021 
C 1510 3021 1306 2950 1094 2835 
L 1210 4192 
L 2982 4192 
L 2982 4698 
L 698 4698 
L 550 2496 
L 864 2304 
C 1133 2483 1331 2579 1645 2579 
C 2234 2579 2618 2182 2618 1510 
C 2618 826 2170 403 1619 403 
C 1075 403 736 653 467 922 
L 179 538 
C 493 224 941 -83 1670 -83 
z
" transform="scale(0.015625)"/>
       </defs>
       <use xlink:href="#NotoSansCJKjp-Regular-31"/>
       <use xlink:href="#NotoSansCJKjp-Regular-39" transform="translate(55.499985 0)"/>
       <use xlink:href="#NotoSansCJKjp-Regular-39" transform="translate(110.999969 0)"/>
       <use xlink:href="#NotoSansCJKjp-Regular-35" transform="translate(166.499954 0)"/>
      </g>
     </g>
    </g>
    <g id="xtick_4">
     <g id="text_4">
      <!-- 1998 -->
      <g transform="translate(327.443494 397.875312) scale(0.11 -0.11)">
       <use xlink:href="#NotoSansCJKjp-Regular-31"/>
       <use xlink:href="#NotoSansCJKjp-Regular-39" transform="translate(55.499985 0)"/>
       <use xlink:href="#NotoSansCJKjp-Regular-39" transform="translate(110.999969 0)"/>
       <use xlink:href="#NotoSansCJKjp-Regular-38" transform="translate(166.499954 0)"/>
      </g>
     </g>
    </g>
    <g id="xtick_5">
     <g id="text_5">
      <!-- 2001 -->
      <g transform="translate(415.626449 397.875312) scale(0.11 -0.11)">
       <defs>
        <path id="NotoSansCJKjp-Regular-30" d="M 1779 -83 
C 2669 -83 3238 730 3238 2362 
C 3238 3987 2669 4781 1779 4781 
C 883 4781 314 3994 314 2362 
C 314 730 883 -83 1779 -83 
z
M 1779 384 
C 1242 384 883 979 883 2362 
C 883 3731 1242 4314 1779 4314 
C 2310 4314 2669 3731 2669 2362 
C 2669 979 2310 384 1779 384 
z
" transform="scale(0.015625)"/>
       </defs>
       <use xlink:href="#NotoSansCJKjp-Regular-32"/>
       <use xlink:href="#NotoSansCJKjp-Regular-30" transform="translate(55.499985 0)"/>
       <use xlink:href="#NotoSansCJKjp-Regular-30" transform="translate(110.999969 0)"/>
       <use xlink:href="#NotoSansCJKjp-Regular-31" transform="translate(166.499954 0)"/>
      </g>
     </g>
    </g>
    <g id="xtick_6">
     <g id="text_6">
      <!-- 2004 -->
      <g transform="translate(503.809403 397.875312) scale(0.11 -0.11)">
       <defs>
        <path id="NotoSansCJKjp-Regular-34" d="M 736 1760 
L 1805 3360 
C 1939 3590 2067 3821 2182 4051 
L 2208 4051 
C 2195 3808 2176 3430 2176 3200 
L 2176 1760 
L 736 1760 
z
M 2176 0 
L 2726 0 
L 2726 1293 
L 3347 1293 
L 3347 1760 
L 2726 1760 
L 2726 4698 
L 2080 4698 
L 128 1677 
L 128 1293 
L 2176 1293 
L 2176 0 
z
" transform="scale(0.015625)"/>
       </defs>
       <use xlink:href="#NotoSansCJKjp-Regular-32"/>
       <use xlink:href="#NotoSansCJKjp-Regular-30" transform="translate(55.499985 0)"/>
       <use xlink:href="#NotoSansCJKjp-Regular-30" transform="translate(110.999969 0)"/>
       <use xlink:href="#NotoSansCJKjp-Regular-34" transform="translate(166.499954 0)"/>
      </g>
     </g>
    </g>
    <g id="xtick_7">
     <g id="text_7">
      <!-- 2007 -->
      <g transform="translate(591.992358 397.875312) scale(0.11 -0.11)">
       <defs>
        <path id="NotoSansCJKjp-Regular-37" d="M 1267 0 
L 1875 0 
C 1946 1837 2150 2931 3251 4339 
L 3251 4698 
L 314 4698 
L 314 4192 
L 2586 4192 
C 1670 2912 1344 1779 1267 0 
z
" transform="scale(0.015625)"/>
       </defs>
       <use xlink:href="#NotoSansCJKjp-Regular-32"/>
       <use xlink:href="#NotoSansCJKjp-Regular-30" transform="translate(55.499985 0)"/>
       <use xlink:href="#NotoSansCJKjp-Regular-30" transform="translate(110.999969 0)"/>
       <use xlink:href="#NotoSansCJKjp-Regular-37" transform="translate(166.499954 0)"/>
      </g>
     </g>
    </g>
    <g id="xtick_8">
     <g id="text_8">
      <!-- 2010 -->
      <g transform="translate(680.175313 397.875312) scale(0.11 -0.11)">
       <use xlink:href="#NotoSansCJKjp-Regular-32"/>
       <use xlink:href="#NotoSansCJKjp-Regular-30" transform="translate(55.499985 0)"/>
       <use xlink:href="#NotoSansCJKjp-Regular-31" transform="translate(110.999969 0)"/>
       <use xlink:href="#NotoSansCJKjp-Regular-30" transform="translate(166.499954 0)"/>
      </g>
     </g>
    </g>
    <g id="text_9">
     <!-- Year -->
     <g transform="translate(357.844141 413.150312) scale(0.11 -0.11)">
      <defs>
       <path id="NotoSansCJKjp-Regular-59" d="M 1402 0 
L 1997 0 
L 1997 1824 
L 3405 4698 
L 2790 4698 
L 2182 3366 
C 2042 3021 1882 2694 1715 2342 
L 1690 2342 
C 1523 2694 1382 3021 1229 3366 
L 627 4698 
L -6 4698 
L 1402 1824 
L 1402 0 
z
" transform="scale(0.015625)"/>
       <path id="NotoSansCJKjp-Regular-65" d="M 1990 -83 
C 2464 -83 2835 77 3142 275 
L 2931 659 
C 2675 486 2400 384 2061 384 
C 1402 384 947 858 909 1600 
L 3251 1600 
C 3264 1683 3277 1805 3277 1933 
C 3277 2925 2778 3565 1894 3565 
C 1088 3565 326 2861 326 1734 
C 326 589 1069 -83 1990 -83 
z
M 902 2022 
C 973 2701 1408 3098 1901 3098 
C 2445 3098 2765 2720 2765 2022 
L 902 2022 
z
" transform="scale(0.015625)"/>
       <path id="NotoSansCJKjp-Regular-61" d="M 1389 -83 
C 1818 -83 2208 141 2541 416 
L 2560 416 
L 2611 0 
L 3091 0 
L 3091 2138 
C 3091 2995 2733 3565 1888 3565 
C 1331 3565 838 3315 518 3110 
L 749 2707 
C 1024 2893 1389 3078 1792 3078 
C 2362 3078 2509 2650 2509 2202 
C 1030 2035 371 1658 371 902 
C 371 275 806 -83 1389 -83 
z
M 1555 384 
C 1210 384 941 544 941 941 
C 941 1389 1338 1677 2509 1818 
L 2509 845 
C 2170 544 1894 384 1555 384 
z
" transform="scale(0.015625)"/>
       <path id="NotoSansCJKjp-Regular-72" d="M 589 0 
L 1171 0 
L 1171 2234 
C 1402 2829 1760 3034 2048 3034 
C 2189 3034 2272 3021 2387 2976 
L 2496 3488 
C 2387 3546 2278 3565 2125 3565 
C 1734 3565 1382 3283 1139 2842 
L 1120 2842 
L 1069 3475 
L 589 3475 
L 589 0 
z
" transform="scale(0.015625)"/>
      </defs>
      <use xlink:href="#NotoSansCJKjp-Regular-59"/>
      <use xlink:href="#NotoSansCJKjp-Regular-65" transform="translate(53.099991 0)"/>
      <use xlink:href="#NotoSansCJKjp-Regular-61" transform="translate(108.499985 0)"/>
      <use xlink:href="#NotoSansCJKjp-Regular-72" transform="translate(164.899979 0)"/>
     </g>
    </g>
   </g>
   <g id="matplotlib.axis_2">
    <g id="ytick_1">
     <g id="line2d_1">
      <path d="M 45.710313 382.12 
L 692.385312 382.12 
" clip-path="url(#p28a3999528)" style="fill: none; stroke: #808080; stroke-opacity: 0.3; stroke-width: 0.5; stroke-linecap: round"/>
     </g>
     <g id="text_10">
      <!-- 0% -->
      <g transform="translate(22.475 386.497656) scale(0.11 -0.11)">
       <defs>
        <path id="NotoSansCJKjp-Regular-25" d="M 1312 1818 
C 1958 1818 2381 2362 2381 3309 
C 2381 4250 1958 4781 1312 4781 
C 672 4781 250 4250 250 3309 
C 250 2362 672 1818 1312 1818 
z
M 1312 2182 
C 947 2182 691 2560 691 3309 
C 691 4058 947 4422 1312 4422 
C 1683 4422 1939 4058 1939 3309 
C 1939 2560 1683 2182 1312 2182 
z
M 1453 -83 
L 1843 -83 
L 4435 4781 
L 4038 4781 
L 1453 -83 
z
M 4582 -83 
C 5222 -83 5645 454 5645 1402 
C 5645 2342 5222 2874 4582 2874 
C 3942 2874 3514 2342 3514 1402 
C 3514 454 3942 -83 4582 -83 
z
M 4582 275 
C 4211 275 3962 653 3962 1402 
C 3962 2150 4211 2515 4582 2515 
C 4947 2515 5203 2150 5203 1402 
C 5203 653 4947 275 4582 275 
z
" transform="scale(0.015625)"/>
       </defs>
       <use xlink:href="#NotoSansCJKjp-Regular-30"/>
       <use xlink:href="#NotoSansCJKjp-Regular-25" transform="translate(55.499985 0)"/>
      </g>
     </g>
    </g>
    <g id="ytick_2">
     <g id="line2d_2">
      <path d="M 45.710313 232.152 
L 692.385312 232.152 
" clip-path="url(#p28a3999528)" style="fill: none; stroke: #808080; stroke-opacity: 0.3; stroke-width: 0.5; stroke-linecap: round"/>
     </g>
     <g id="text_11">
      <!-- 2% -->
      <g transform="translate(22.475 236.529656) scale(0.11 -0.11)">
       <use xlink:href="#NotoSansCJKjp-Regular-32"/>
       <use xlink:href="#NotoSansCJKjp-Regular-25" transform="translate(55.499985 0)"/>
      </g>
     </g>
    </g>
    <g id="ytick_3">
     <g id="line2d_3">
      <path d="M 45.710313 82.184 
L 692.385312 82.184 
" clip-path="url(#p28a3999528)" style="fill: none; stroke: #808080; stroke-opacity: 0.3; stroke-width: 0.5; stroke-linecap: round"/>
     </g>
     <g id="text_12">
      <!-- 4% -->
      <g transform="translate(22.475 86.561656) scale(0.11 -0.11)">
       <use xlink:href="#NotoSansCJKjp-Regular-34"/>
       <use xlink:href="#NotoSansCJKjp-Regular-25" transform="translate(55.499985 0)"/>
      </g>
     </g>
    </g>
    <g id="text_13">
     <!-- Proportion -->
     <g transform="translate(15.955312 222.758125) rotate(-90) scale(0.11 -0.11)">
      <defs>
       <path id="NotoSansCJKjp-Regular-50" d="M 640 0 
L 1235 0 
L 1235 1862 
L 2010 1862 
C 3040 1862 3738 2323 3738 3315 
C 3738 4339 3034 4698 1984 4698 
L 640 4698 
L 640 0 
z
M 1235 2342 
L 1235 4211 
L 1907 4211 
C 2733 4211 3149 3994 3149 3315 
C 3149 2643 2758 2342 1933 2342 
L 1235 2342 
z
" transform="scale(0.015625)"/>
       <path id="NotoSansCJKjp-Regular-6f" d="M 1939 -83 
C 2790 -83 3552 582 3552 1734 
C 3552 2893 2790 3565 1939 3565 
C 1088 3565 326 2893 326 1734 
C 326 582 1088 -83 1939 -83 
z
M 1939 403 
C 1338 403 934 934 934 1734 
C 934 2534 1338 3078 1939 3078 
C 2541 3078 2950 2534 2950 1734 
C 2950 934 2541 403 1939 403 
z
" transform="scale(0.015625)"/>
       <path id="NotoSansCJKjp-Regular-70" d="M 589 -1466 
L 1171 -1466 
L 1171 -288 
L 1158 320 
C 1472 64 1805 -83 2118 -83 
C 2918 -83 3629 602 3629 1792 
C 3629 2861 3142 3565 2246 3565 
C 1843 3565 1453 3334 1139 3078 
L 1120 3078 
L 1069 3475 
L 589 3475 
L 589 -1466 
z
M 2022 403 
C 1792 403 1485 499 1171 768 
L 1171 2592 
C 1510 2906 1811 3072 2106 3072 
C 2765 3072 3021 2554 3021 1786 
C 3021 922 2598 403 2022 403 
z
" transform="scale(0.015625)"/>
       <path id="NotoSansCJKjp-Regular-74" d="M 1683 -83 
C 1894 -83 2125 -19 2323 45 
L 2208 480 
C 2093 435 1933 390 1811 390 
C 1408 390 1274 634 1274 1062 
L 1274 3002 
L 2214 3002 
L 2214 3475 
L 1274 3475 
L 1274 4454 
L 787 4454 
L 717 3475 
L 173 3443 
L 173 3002 
L 691 3002 
L 691 1075 
C 691 384 941 -83 1683 -83 
z
" transform="scale(0.015625)"/>
       <path id="NotoSansCJKjp-Regular-69" d="M 589 0 
L 1171 0 
L 1171 3475 
L 589 3475 
L 589 0 
z
M 883 4192 
C 1114 4192 1274 4346 1274 4582 
C 1274 4806 1114 4960 883 4960 
C 653 4960 493 4806 493 4582 
C 493 4346 653 4192 883 4192 
z
" transform="scale(0.015625)"/>
       <path id="NotoSansCJKjp-Regular-6e" d="M 589 0 
L 1171 0 
L 1171 2522 
C 1523 2874 1766 3053 2125 3053 
C 2586 3053 2784 2778 2784 2125 
L 2784 0 
L 3366 0 
L 3366 2202 
C 3366 3091 3034 3565 2304 3565 
C 1830 3565 1472 3302 1139 2976 
L 1120 2976 
L 1069 3475 
L 589 3475 
L 589 0 
z
" transform="scale(0.015625)"/>
      </defs>
      <use xlink:href="#NotoSansCJKjp-Regular-50"/>
      <use xlink:href="#NotoSansCJKjp-Regular-72" transform="translate(63.199997 0)"/>
      <use xlink:href="#NotoSansCJKjp-Regular-6f" transform="translate(101.999985 0)"/>
      <use xlink:href="#NotoSansCJKjp-Regular-70" transform="translate(162.599976 0)"/>
      <use xlink:href="#NotoSansCJKjp-Regular-6f" transform="translate(224.59996 0)"/>
      <use xlink:href="#NotoSansCJKjp-Regular-72" transform="translate(285.199951 0)"/>
      <use xlink:href="#NotoSansCJKjp-Regular-74" transform="translate(323.999939 0)"/>
      <use xlink:href="#NotoSansCJKjp-Regular-69" transform="translate(361.699936 0)"/>
      <use xlink:href="#NotoSansCJKjp-Regular-6f" transform="translate(389.199921 0)"/>
      <use xlink:href="#NotoSansCJKjp-Regular-6e" transform="translate(449.799911 0)"/>
     </g>
    </g>
   </g>
   <g id="FillBetweenPolyCollection_1">
    <path d="M 75.104631 382.12 
L 75.104631 382.12 
L 77.070806 382.12 
L 79.036981 382.12 
L 81.003156 382.12 
L 82.969331 382.12 
L 84.935506 382.12 
L 86.901681 382.12 
L 88.867857 382.12 
L 90.834032 382.12 
L 92.800207 382.12 
L 94.766382 382.12 
L 96.732557 382.12 
L 98.698732 382.12 
L 100.664907 382.12 
L 102.631082 382.12 
L 104.597258 382.12 
L 106.563433 382.12 
L 108.529608 382.12 
L 110.495783 382.12 
L 112.461958 382.12 
L 114.428133 382.12 
L 116.394308 382.12 
L 118.360484 382.12 
L 120.326659 382.12 
L 122.292834 382.12 
L 124.259009 382.12 
L 126.225184 382.12 
L 128.191359 382.12 
L 130.157534 382.12 
L 132.123709 382.12 
L 134.089885 382.12 
L 136.05606 382.12 
L 138.022235 382.12 
L 139.98841 382.12 
L 141.954585 382.12 
L 143.92076 382.12 
L 145.886935 382.12 
L 147.85311 382.12 
L 149.819286 382.12 
L 151.785461 382.12 
L 153.751636 382.12 
L 155.717811 382.12 
L 157.683986 382.12 
L 159.650161 382.12 
L 161.616336 382.12 
L 163.582511 382.12 
L 165.548687 382.12 
L 167.514862 382.12 
L 169.481037 382.12 
L 171.447212 382.12 
L 173.413387 382.12 
L 175.379562 382.12 
L 177.345737 382.12 
L 179.311913 382.12 
L 181.278088 382.12 
L 183.244263 382.12 
L 185.210438 382.12 
L 187.176613 382.12 
L 189.142788 382.12 
L 191.108963 382.12 
L 193.075138 382.12 
L 195.041314 382.12 
L 197.007489 382.12 
L 198.973664 382.12 
L 200.939839 382.12 
L 202.906014 382.12 
L 204.872189 382.12 
L 206.838364 382.12 
L 208.804539 382.12 
L 210.770715 382.12 
L 212.73689 382.12 
L 214.703065 382.12 
L 216.66924 382.12 
L 218.635415 382.12 
L 220.60159 382.12 
L 222.567765 382.12 
L 224.533941 382.12 
L 226.500116 382.12 
L 228.466291 382.12 
L 230.432466 382.12 
L 232.398641 382.12 
L 234.364816 382.12 
L 236.330991 382.12 
L 238.297166 382.12 
L 240.263342 382.12 
L 242.229517 382.12 
L 244.195692 382.12 
L 246.161867 382.12 
L 248.128042 382.12 
L 250.094217 382.12 
L 252.060392 382.12 
L 254.026567 382.12 
L 255.992743 382.12 
L 257.958918 382.12 
L 259.925093 382.12 
L 261.891268 382.12 
L 263.857443 382.12 
L 265.823618 382.12 
L 267.789793 382.12 
L 269.755968 382.12 
L 271.722144 382.12 
L 273.688319 382.12 
L 275.654494 382.12 
L 277.620669 382.12 
L 279.586844 382.12 
L 281.553019 382.12 
L 283.519194 382.12 
L 285.48537 382.12 
L 287.451545 382.12 
L 289.41772 382.12 
L 291.383895 382.12 
L 293.35007 382.12 
L 295.316245 382.12 
L 297.28242 382.12 
L 299.248595 382.12 
L 301.214771 382.12 
L 303.180946 382.12 
L 305.147121 382.12 
L 307.113296 382.12 
L 309.079471 382.12 
L 311.045646 382.12 
L 313.011821 382.12 
L 314.977996 382.12 
L 316.944172 382.12 
L 318.910347 382.12 
L 320.876522 382.12 
L 322.842697 382.12 
L 324.808872 382.12 
L 326.775047 382.12 
L 328.741222 382.12 
L 330.707397 382.12 
L 332.673573 382.12 
L 334.639748 382.12 
L 336.605923 382.12 
L 338.572098 382.12 
L 340.538273 382.12 
L 342.504448 382.12 
L 344.470623 382.12 
L 346.436799 382.12 
L 348.402974 382.12 
L 350.369149 382.12 
L 352.335324 382.12 
L 354.301499 382.12 
L 356.267674 382.12 
L 358.233849 382.12 
L 360.200024 382.12 
L 362.1662 382.12 
L 364.132375 382.12 
L 366.09855 382.12 
L 368.064725 382.12 
L 370.0309 382.12 
L 371.997075 382.12 
L 373.96325 382.12 
L 375.929425 382.12 
L 377.895601 382.12 
L 379.861776 382.12 
L 381.827951 382.12 
L 383.794126 382.12 
L 385.760301 382.12 
L 387.726476 382.12 
L 389.692651 382.12 
L 391.658826 382.12 
L 393.625002 382.12 
L 395.591177 382.12 
L 397.557352 382.12 
L 399.523527 382.12 
L 401.489702 382.12 
L 403.455877 382.12 
L 405.422052 382.12 
L 407.388228 382.12 
L 409.354403 382.12 
L 411.320578 382.12 
L 413.286753 382.12 
L 415.252928 382.12 
L 417.219103 382.12 
L 419.185278 382.12 
L 421.151453 382.12 
L 423.117629 382.12 
L 425.083804 382.12 
L 427.049979 382.12 
L 429.016154 382.12 
L 430.982329 382.12 
L 432.948504 382.12 
L 434.914679 382.12 
L 436.880854 382.12 
L 438.84703 382.12 
L 440.813205 382.12 
L 442.77938 382.12 
L 444.745555 382.12 
L 446.71173 382.12 
L 448.677905 382.12 
L 450.64408 382.12 
L 452.610255 382.12 
L 454.576431 382.12 
L 456.542606 382.12 
L 458.508781 382.12 
L 460.474956 382.12 
L 462.441131 382.12 
L 464.407306 382.12 
L 466.373481 382.12 
L 468.339657 382.12 
L 470.305832 382.12 
L 472.272007 382.12 
L 474.238182 382.12 
L 476.204357 382.12 
L 478.170532 382.12 
L 480.136707 382.12 
L 482.102882 382.12 
L 484.069058 382.12 
L 486.035233 382.12 
L 488.001408 382.12 
L 489.967583 382.12 
L 491.933758 382.12 
L 493.899933 382.12 
L 495.866108 382.12 
L 497.832283 382.12 
L 499.798459 382.12 
L 501.764634 382.12 
L 503.730809 382.12 
L 505.696984 382.12 
L 507.663159 382.12 
L 509.629334 382.12 
L 511.595509 382.12 
L 513.561684 382.12 
L 515.52786 382.12 
L 517.494035 382.12 
L 519.46021 382.12 
L 521.426385 382.12 
L 523.39256 382.12 
L 525.358735 382.12 
L 527.32491 382.12 
L 529.291086 382.12 
L 531.257261 382.12 
L 533.223436 382.12 
L 535.189611 382.12 
L 537.155786 382.12 
L 539.121961 382.12 
L 541.088136 382.12 
L 543.054311 382.12 
L 545.020487 382.12 
L 546.986662 382.12 
L 548.952837 382.12 
L 550.919012 382.12 
L 552.885187 382.12 
L 554.851362 382.12 
L 556.817537 382.12 
L 558.783712 382.12 
L 560.749888 382.12 
L 562.716063 382.12 
L 564.682238 382.12 
L 566.648413 382.12 
L 568.614588 382.12 
L 570.580763 382.12 
L 572.546938 382.12 
L 574.513114 382.12 
L 576.479289 382.12 
L 578.445464 382.12 
L 580.411639 382.12 
L 582.377814 382.12 
L 584.343989 382.12 
L 586.310164 382.12 
L 588.276339 382.12 
L 590.242515 382.12 
L 592.20869 382.12 
L 594.174865 382.12 
L 596.14104 382.12 
L 598.107215 382.12 
L 600.07339 382.12 
L 602.039565 382.12 
L 604.00574 382.12 
L 605.971916 382.12 
L 607.938091 382.12 
L 609.904266 382.12 
L 611.870441 382.12 
L 613.836616 382.12 
L 615.802791 382.12 
L 617.768966 382.12 
L 619.735141 382.12 
L 621.701317 382.12 
L 623.667492 382.12 
L 625.633667 382.12 
L 627.599842 382.12 
L 629.566017 382.12 
L 631.532192 382.12 
L 633.498367 382.12 
L 635.464543 382.12 
L 637.430718 382.12 
L 639.396893 382.12 
L 641.363068 382.12 
L 643.329243 382.12 
L 645.295418 382.12 
L 647.261593 382.12 
L 649.227768 382.12 
L 651.193944 382.12 
L 653.160119 382.12 
L 655.126294 382.12 
L 657.092469 382.12 
L 659.058644 382.12 
L 661.024819 382.12 
L 662.990994 382.12 
L 662.990994 378.833592 
L 662.990994 378.833592 
L 661.024819 378.831584 
L 659.058644 378.825735 
L 657.092469 378.816311 
L 655.126294 378.803576 
L 653.160119 378.787794 
L 651.193944 378.76923 
L 649.227768 378.748148 
L 647.261593 378.724813 
L 645.295418 378.699489 
L 643.329243 378.672442 
L 641.363068 378.643934 
L 639.396893 378.614232 
L 637.430718 378.583599 
L 635.464543 378.552299 
L 633.498367 378.520576 
L 631.532192 378.47914 
L 629.566017 378.422122 
L 627.599842 378.352279 
L 625.633667 378.272367 
L 623.667492 378.185142 
L 621.701317 378.093361 
L 619.735141 377.99978 
L 617.768966 377.907154 
L 615.802791 377.818241 
L 613.836616 377.735797 
L 611.870441 377.662578 
L 609.904266 377.601339 
L 607.938091 377.554839 
L 605.971916 377.525832 
L 604.00574 377.517069 
L 602.039565 377.529464 
L 600.07339 377.560435 
L 598.107215 377.607128 
L 596.14104 377.66669 
L 594.174865 377.736269 
L 592.20869 377.81301 
L 590.242515 377.894062 
L 588.276339 377.976571 
L 586.310164 378.057684 
L 584.343989 378.134549 
L 582.377814 378.204312 
L 580.411639 378.264121 
L 578.445464 378.311122 
L 576.479289 378.342462 
L 574.513114 378.355513 
L 572.546938 378.360621 
L 570.580763 378.364791 
L 568.614588 378.368171 
L 566.648413 378.370911 
L 564.682238 378.373161 
L 562.716063 378.375069 
L 560.749888 378.376785 
L 558.783712 378.378458 
L 556.817537 378.380237 
L 554.851362 378.382273 
L 552.885187 378.384713 
L 550.919012 378.387707 
L 548.952837 378.391405 
L 546.986662 378.395956 
L 545.020487 378.402072 
L 543.054311 378.427505 
L 541.088136 378.477705 
L 539.121961 378.548664 
L 537.155786 378.636371 
L 535.189611 378.736816 
L 533.223436 378.845991 
L 531.257261 378.959885 
L 529.291086 379.074489 
L 527.32491 379.185792 
L 525.358735 379.289786 
L 523.39256 379.38246 
L 521.426385 379.459805 
L 519.46021 379.517811 
L 517.494035 379.552469 
L 515.52786 379.558718 
L 513.561684 379.512412 
L 511.595509 379.410412 
L 509.629334 379.260097 
L 507.663159 379.068845 
L 505.696984 378.844036 
L 503.730809 378.593047 
L 501.764634 378.323259 
L 499.798459 378.04205 
L 497.832283 377.756798 
L 495.866108 377.474882 
L 493.899933 377.203682 
L 491.933758 376.950576 
L 489.967583 376.722943 
L 488.001408 376.528162 
L 486.035233 376.371285 
L 484.069058 376.221482 
L 482.102882 376.068598 
L 480.136707 375.914712 
L 478.170532 375.761904 
L 476.204357 375.612254 
L 474.238182 375.467841 
L 472.272007 375.330746 
L 470.305832 375.203047 
L 468.339657 375.086825 
L 466.373481 374.98416 
L 464.407306 374.897131 
L 462.441131 374.827818 
L 460.474956 374.7783 
L 458.508781 374.750659 
L 456.542606 374.748581 
L 454.576431 374.79048 
L 452.610255 374.875505 
L 450.64408 374.996614 
L 448.677905 375.146766 
L 446.71173 375.318922 
L 444.745555 375.506039 
L 442.77938 375.701077 
L 440.813205 375.896995 
L 438.84703 376.086753 
L 436.880854 376.263309 
L 434.914679 376.419622 
L 432.948504 376.548652 
L 430.982329 376.643358 
L 429.016154 376.696698 
L 427.049979 376.701061 
L 425.083804 376.649115 
L 423.117629 376.546926 
L 421.151453 376.402763 
L 419.185278 376.224899 
L 417.219103 376.021602 
L 415.252928 375.801144 
L 413.286753 375.571795 
L 411.320578 375.341826 
L 409.354403 375.119507 
L 407.388228 374.913109 
L 405.422052 374.730902 
L 403.455877 374.581157 
L 401.489702 374.472145 
L 399.523527 374.412135 
L 397.557352 374.41503 
L 395.591177 374.522315 
L 393.625002 374.728014 
L 391.658826 375.016537 
L 389.692651 375.372295 
L 387.726476 375.779697 
L 385.760301 376.223153 
L 383.794126 376.687073 
L 381.827951 377.155868 
L 379.861776 377.613946 
L 377.895601 378.045718 
L 375.929425 378.435594 
L 373.96325 378.767984 
L 371.997075 379.027297 
L 370.0309 379.197944 
L 368.064725 379.277997 
L 366.09855 379.339794 
L 364.132375 379.396624 
L 362.1662 379.448774 
L 360.200024 379.49653 
L 358.233849 379.540181 
L 356.267674 379.580014 
L 354.301499 379.616316 
L 352.335324 379.649375 
L 350.369149 379.679478 
L 348.402974 379.706911 
L 346.436799 379.731964 
L 344.470623 379.754922 
L 342.504448 379.776073 
L 340.538273 379.795705 
L 338.572098 379.814015 
L 336.605923 379.830794 
L 334.639748 379.846157 
L 332.673573 379.860274 
L 330.707397 379.873317 
L 328.741222 379.885456 
L 326.775047 379.896862 
L 324.808872 379.907706 
L 322.842697 379.918158 
L 320.876522 379.92839 
L 318.910347 379.938572 
L 316.944172 379.948876 
L 314.977996 379.959471 
L 313.011821 379.970528 
L 311.045646 379.982219 
L 309.079471 379.99432 
L 307.113296 380.005422 
L 305.147121 380.015621 
L 303.180946 380.02519 
L 301.214771 380.034402 
L 299.248595 380.043532 
L 297.28242 380.052852 
L 295.316245 380.062637 
L 293.35007 380.073159 
L 291.383895 380.084692 
L 289.41772 380.097509 
L 287.451545 380.111885 
L 285.48537 380.128092 
L 283.519194 380.146403 
L 281.553019 380.167094 
L 279.586844 380.199287 
L 277.620669 380.270722 
L 275.654494 380.37773 
L 273.688319 380.513942 
L 271.722144 380.672987 
L 269.755968 380.848494 
L 267.789793 381.034095 
L 265.823618 381.223418 
L 263.857443 381.410094 
L 261.891268 381.587751 
L 259.925093 381.750021 
L 257.958918 381.890533 
L 255.992743 382.002916 
L 254.026567 382.080801 
L 252.060392 382.117817 
L 250.094217 382.119058 
L 248.128042 382.114584 
L 246.161867 382.106687 
L 244.195692 382.095654 
L 242.229517 382.081774 
L 240.263342 382.065333 
L 238.297166 382.046619 
L 236.330991 382.02592 
L 234.364816 382.003522 
L 232.398641 381.979713 
L 230.432466 381.954781 
L 228.466291 381.929013 
L 226.500116 381.902696 
L 224.533941 381.876117 
L 222.567765 381.849565 
L 220.60159 381.820401 
L 218.635415 381.782415 
L 216.66924 381.736821 
L 214.703065 381.685177 
L 212.73689 381.629037 
L 210.770715 381.569956 
L 208.804539 381.509491 
L 206.838364 381.449195 
L 204.872189 381.390626 
L 202.906014 381.335337 
L 200.939839 381.284885 
L 198.973664 381.240824 
L 197.007489 381.204711 
L 195.041314 381.1781 
L 193.075138 381.162546 
L 191.108963 381.155451 
L 189.142788 381.148967 
L 187.176613 381.142861 
L 185.210438 381.137148 
L 183.244263 381.131844 
L 181.278088 381.126963 
L 179.311913 381.122522 
L 177.345737 381.118535 
L 175.379562 381.115018 
L 173.413387 381.111987 
L 171.447212 381.109457 
L 169.481037 381.107442 
L 167.514862 381.10596 
L 165.548687 381.105024 
L 163.582511 381.104651 
L 161.616336 381.106999 
L 159.650161 381.115319 
L 157.683986 381.128842 
L 155.717811 381.14673 
L 153.751636 381.168143 
L 151.785461 381.192245 
L 149.819286 381.218195 
L 147.85311 381.245156 
L 145.886935 381.272288 
L 143.92076 381.298754 
L 141.954585 381.323714 
L 139.98841 381.34633 
L 138.022235 381.365763 
L 136.05606 381.381175 
L 134.089885 381.391727 
L 132.123709 381.398546 
L 130.157534 381.404262 
L 128.191359 381.409072 
L 126.225184 381.413148 
L 124.259009 381.416664 
L 122.292834 381.419792 
L 120.326659 381.422706 
L 118.360484 381.425578 
L 116.394308 381.428582 
L 114.428133 381.43189 
L 112.461958 381.435676 
L 110.495783 381.440112 
L 108.529608 381.445372 
L 106.563433 381.451628 
L 104.597258 381.459053 
L 102.631082 381.470278 
L 100.664907 381.488073 
L 98.698732 381.512008 
L 96.732557 381.541651 
L 94.766382 381.576565 
L 92.800207 381.616316 
L 90.834032 381.660469 
L 88.867857 381.70859 
L 86.901681 381.760244 
L 84.935506 381.814995 
L 82.969331 381.872409 
L 81.003156 381.932052 
L 79.036981 381.993487 
L 77.070806 382.056282 
L 75.104631 382.12 
z
" clip-path="url(#p28a3999528)" style="fill: url(#h645efe8431)"/>
   </g>
   <g id="FillBetweenPolyCollection_2">
    <path d="M 75.104631 382.072146 
L 75.104631 382.12 
L 77.070806 382.056282 
L 79.036981 381.993487 
L 81.003156 381.932052 
L 82.969331 381.872409 
L 84.935506 381.814995 
L 86.901681 381.760244 
L 88.867857 381.70859 
L 90.834032 381.660469 
L 92.800207 381.616316 
L 94.766382 381.576565 
L 96.732557 381.541651 
L 98.698732 381.512008 
L 100.664907 381.488073 
L 102.631082 381.470278 
L 104.597258 381.459053 
L 106.563433 381.451628 
L 108.529608 381.445372 
L 110.495783 381.440112 
L 112.461958 381.435676 
L 114.428133 381.43189 
L 116.394308 381.428582 
L 118.360484 381.425578 
L 120.326659 381.422706 
L 122.292834 381.419792 
L 124.259009 381.416664 
L 126.225184 381.413148 
L 128.191359 381.409072 
L 130.157534 381.404262 
L 132.123709 381.398546 
L 134.089885 381.391727 
L 136.05606 381.381175 
L 138.022235 381.365763 
L 139.98841 381.34633 
L 141.954585 381.323714 
L 143.92076 381.298754 
L 145.886935 381.272288 
L 147.85311 381.245156 
L 149.819286 381.218195 
L 151.785461 381.192245 
L 153.751636 381.168143 
L 155.717811 381.14673 
L 157.683986 381.128842 
L 159.650161 381.115319 
L 161.616336 381.106999 
L 163.582511 381.104651 
L 165.548687 381.105024 
L 167.514862 381.10596 
L 169.481037 381.107442 
L 171.447212 381.109457 
L 173.413387 381.111987 
L 175.379562 381.115018 
L 177.345737 381.118535 
L 179.311913 381.122522 
L 181.278088 381.126963 
L 183.244263 381.131844 
L 185.210438 381.137148 
L 187.176613 381.142861 
L 189.142788 381.148967 
L 191.108963 381.155451 
L 193.075138 381.162546 
L 195.041314 381.1781 
L 197.007489 381.204711 
L 198.973664 381.240824 
L 200.939839 381.284885 
L 202.906014 381.335337 
L 204.872189 381.390626 
L 206.838364 381.449195 
L 208.804539 381.509491 
L 210.770715 381.569956 
L 212.73689 381.629037 
L 214.703065 381.685177 
L 216.66924 381.736821 
L 218.635415 381.782415 
L 220.60159 381.820401 
L 222.567765 381.849565 
L 224.533941 381.876117 
L 226.500116 381.902696 
L 228.466291 381.929013 
L 230.432466 381.954781 
L 232.398641 381.979713 
L 234.364816 382.003522 
L 236.330991 382.02592 
L 238.297166 382.046619 
L 240.263342 382.065333 
L 242.229517 382.081774 
L 244.195692 382.095654 
L 246.161867 382.106687 
L 248.128042 382.114584 
L 250.094217 382.119058 
L 252.060392 382.117817 
L 254.026567 382.080801 
L 255.992743 382.002916 
L 257.958918 381.890533 
L 259.925093 381.750021 
L 261.891268 381.587751 
L 263.857443 381.410094 
L 265.823618 381.223418 
L 267.789793 381.034095 
L 269.755968 380.848494 
L 271.722144 380.672987 
L 273.688319 380.513942 
L 275.654494 380.37773 
L 277.620669 380.270722 
L 279.586844 380.199287 
L 281.553019 380.167094 
L 283.519194 380.146403 
L 285.48537 380.128092 
L 287.451545 380.111885 
L 289.41772 380.097509 
L 291.383895 380.084692 
L 293.35007 380.073159 
L 295.316245 380.062637 
L 297.28242 380.052852 
L 299.248595 380.043532 
L 301.214771 380.034402 
L 303.180946 380.02519 
L 305.147121 380.015621 
L 307.113296 380.005422 
L 309.079471 379.99432 
L 311.045646 379.982219 
L 313.011821 379.970528 
L 314.977996 379.959471 
L 316.944172 379.948876 
L 318.910347 379.938572 
L 320.876522 379.92839 
L 322.842697 379.918158 
L 324.808872 379.907706 
L 326.775047 379.896862 
L 328.741222 379.885456 
L 330.707397 379.873317 
L 332.673573 379.860274 
L 334.639748 379.846157 
L 336.605923 379.830794 
L 338.572098 379.814015 
L 340.538273 379.795705 
L 342.504448 379.776073 
L 344.470623 379.754922 
L 346.436799 379.731964 
L 348.402974 379.706911 
L 350.369149 379.679478 
L 352.335324 379.649375 
L 354.301499 379.616316 
L 356.267674 379.580014 
L 358.233849 379.540181 
L 360.200024 379.49653 
L 362.1662 379.448774 
L 364.132375 379.396624 
L 366.09855 379.339794 
L 368.064725 379.277997 
L 370.0309 379.197944 
L 371.997075 379.027297 
L 373.96325 378.767984 
L 375.929425 378.435594 
L 377.895601 378.045718 
L 379.861776 377.613946 
L 381.827951 377.155868 
L 383.794126 376.687073 
L 385.760301 376.223153 
L 387.726476 375.779697 
L 389.692651 375.372295 
L 391.658826 375.016537 
L 393.625002 374.728014 
L 395.591177 374.522315 
L 397.557352 374.41503 
L 399.523527 374.412135 
L 401.489702 374.472145 
L 403.455877 374.581157 
L 405.422052 374.730902 
L 407.388228 374.913109 
L 409.354403 375.119507 
L 411.320578 375.341826 
L 413.286753 375.571795 
L 415.252928 375.801144 
L 417.219103 376.021602 
L 419.185278 376.224899 
L 421.151453 376.402763 
L 423.117629 376.546926 
L 425.083804 376.649115 
L 427.049979 376.701061 
L 429.016154 376.696698 
L 430.982329 376.643358 
L 432.948504 376.548652 
L 434.914679 376.419622 
L 436.880854 376.263309 
L 438.84703 376.086753 
L 440.813205 375.896995 
L 442.77938 375.701077 
L 444.745555 375.506039 
L 446.71173 375.318922 
L 448.677905 375.146766 
L 450.64408 374.996614 
L 452.610255 374.875505 
L 454.576431 374.79048 
L 456.542606 374.748581 
L 458.508781 374.750659 
L 460.474956 374.7783 
L 462.441131 374.827818 
L 464.407306 374.897131 
L 466.373481 374.98416 
L 468.339657 375.086825 
L 470.305832 375.203047 
L 472.272007 375.330746 
L 474.238182 375.467841 
L 476.204357 375.612254 
L 478.170532 375.761904 
L 480.136707 375.914712 
L 482.102882 376.068598 
L 484.069058 376.221482 
L 486.035233 376.371285 
L 488.001408 376.528162 
L 489.967583 376.722943 
L 491.933758 376.950576 
L 493.899933 377.203682 
L 495.866108 377.474882 
L 497.832283 377.756798 
L 499.798459 378.04205 
L 501.764634 378.323259 
L 503.730809 378.593047 
L 505.696984 378.844036 
L 507.663159 379.068845 
L 509.629334 379.260097 
L 511.595509 379.410412 
L 513.561684 379.512412 
L 515.52786 379.558718 
L 517.494035 379.552469 
L 519.46021 379.517811 
L 521.426385 379.459805 
L 523.39256 379.38246 
L 525.358735 379.289786 
L 527.32491 379.185792 
L 529.291086 379.074489 
L 531.257261 378.959885 
L 533.223436 378.845991 
L 535.189611 378.736816 
L 537.155786 378.636371 
L 539.121961 378.548664 
L 541.088136 378.477705 
L 543.054311 378.427505 
L 545.020487 378.402072 
L 546.986662 378.395956 
L 548.952837 378.391405 
L 550.919012 378.387707 
L 552.885187 378.384713 
L 554.851362 378.382273 
L 556.817537 378.380237 
L 558.783712 378.378458 
L 560.749888 378.376785 
L 562.716063 378.375069 
L 564.682238 378.373161 
L 566.648413 378.370911 
L 568.614588 378.368171 
L 570.580763 378.364791 
L 572.546938 378.360621 
L 574.513114 378.355513 
L 576.479289 378.342462 
L 578.445464 378.311122 
L 580.411639 378.264121 
L 582.377814 378.204312 
L 584.343989 378.134549 
L 586.310164 378.057684 
L 588.276339 377.976571 
L 590.242515 377.894062 
L 592.20869 377.81301 
L 594.174865 377.736269 
L 596.14104 377.66669 
L 598.107215 377.607128 
L 600.07339 377.560435 
L 602.039565 377.529464 
L 604.00574 377.517069 
L 605.971916 377.525832 
L 607.938091 377.554839 
L 609.904266 377.601339 
L 611.870441 377.662578 
L 613.836616 377.735797 
L 615.802791 377.818241 
L 617.768966 377.907154 
L 619.735141 377.99978 
L 621.701317 378.093361 
L 623.667492 378.185142 
L 625.633667 378.272367 
L 627.599842 378.352279 
L 629.566017 378.422122 
L 631.532192 378.47914 
L 633.498367 378.520576 
L 635.464543 378.552299 
L 637.430718 378.583599 
L 639.396893 378.614232 
L 641.363068 378.643934 
L 643.329243 378.672442 
L 645.295418 378.699489 
L 647.261593 378.724813 
L 649.227768 378.748148 
L 651.193944 378.76923 
L 653.160119 378.787794 
L 655.126294 378.803576 
L 657.092469 378.816311 
L 659.058644 378.825735 
L 661.024819 378.831584 
L 662.990994 378.833592 
L 662.990994 354.842813 
L 662.990994 354.842813 
L 661.024819 354.890299 
L 659.058644 354.932987 
L 657.092469 354.971063 
L 655.126294 355.004714 
L 653.160119 355.034127 
L 651.193944 355.059489 
L 649.227768 355.080985 
L 647.261593 355.098804 
L 645.295418 355.113131 
L 643.329243 355.124154 
L 641.363068 355.132059 
L 639.396893 355.137032 
L 637.430718 355.13926 
L 635.464543 355.138931 
L 633.498367 355.136204 
L 631.532192 355.120582 
L 629.566017 355.085729 
L 627.599842 355.035106 
L 625.633667 354.972172 
L 623.667492 354.900389 
L 621.701317 354.823215 
L 619.735141 354.744113 
L 617.768966 354.666541 
L 615.802791 354.59396 
L 613.836616 354.52983 
L 611.870441 354.477611 
L 609.904266 354.440764 
L 607.938091 354.422749 
L 605.971916 354.427027 
L 604.00574 354.457911 
L 602.039565 354.613525 
L 600.07339 354.940048 
L 598.107215 355.410299 
L 596.14104 355.997099 
L 594.174865 356.673266 
L 592.20869 357.411621 
L 590.242515 358.184983 
L 588.276339 358.966173 
L 586.310164 359.728009 
L 584.343989 360.443312 
L 582.377814 361.084902 
L 580.411639 361.625598 
L 578.445464 362.038219 
L 576.479289 362.295587 
L 574.513114 362.372471 
L 572.546938 362.357541 
L 570.580763 362.314156 
L 568.614588 362.246814 
L 566.648413 362.160017 
L 564.682238 362.058263 
L 562.716063 361.946053 
L 560.749888 361.827886 
L 558.783712 361.708262 
L 556.817537 361.591682 
L 554.851362 361.482644 
L 552.885187 361.385649 
L 550.919012 361.305196 
L 548.952837 361.245786 
L 546.986662 361.211918 
L 545.020487 361.211611 
L 543.054311 361.357624 
L 541.088136 361.681392 
L 539.121961 362.154523 
L 537.155786 362.748628 
L 535.189611 363.435318 
L 533.223436 364.186202 
L 531.257261 364.97289 
L 529.291086 365.766992 
L 527.32491 366.540118 
L 525.358735 367.263878 
L 523.39256 367.909883 
L 521.426385 368.449742 
L 519.46021 368.855065 
L 517.494035 369.097463 
L 515.52786 369.152761 
L 513.561684 369.095191 
L 511.595509 368.968656 
L 509.629334 368.782666 
L 507.663159 368.546732 
L 505.696984 368.270364 
L 503.730809 367.963074 
L 501.764634 367.634372 
L 499.798459 367.29377 
L 497.832283 366.950777 
L 495.866108 366.614905 
L 493.899933 366.295664 
L 491.933758 366.002566 
L 489.967583 365.745121 
L 488.001408 365.53284 
L 486.035233 365.372795 
L 484.069058 365.233621 
L 482.102882 365.103753 
L 480.136707 364.984208 
L 478.170532 364.876007 
L 476.204357 364.780168 
L 474.238182 364.697711 
L 472.272007 364.629655 
L 470.305832 364.577019 
L 468.339657 364.540824 
L 466.373481 364.522086 
L 464.407306 364.521827 
L 462.441131 364.541066 
L 460.474956 364.58082 
L 458.508781 364.642111 
L 456.542606 364.729676 
L 454.576431 364.884688 
L 452.610255 365.10869 
L 450.64408 365.389465 
L 448.677905 365.714797 
L 446.71173 366.072468 
L 444.745555 366.450263 
L 442.77938 366.835963 
L 440.813205 367.217353 
L 438.84703 367.582215 
L 436.880854 367.918333 
L 434.914679 368.213491 
L 432.948504 368.45547 
L 430.982329 368.632055 
L 429.016154 368.731029 
L 427.049979 368.742815 
L 425.083804 368.686539 
L 423.117629 368.57583 
L 421.151453 368.419649 
L 419.185278 368.226956 
L 417.219103 368.006711 
L 415.252928 367.767874 
L 413.286753 367.519404 
L 411.320578 367.270263 
L 409.354403 367.02941 
L 407.388228 366.805805 
L 405.422052 366.608408 
L 403.455877 366.446179 
L 401.489702 366.328078 
L 399.523527 366.263066 
L 397.557352 366.271 
L 395.591177 366.430192 
L 393.625002 366.735788 
L 391.658826 367.165053 
L 389.692651 367.695254 
L 387.726476 368.303657 
L 385.760301 368.967528 
L 383.794126 369.664134 
L 381.827951 370.37074 
L 379.861776 371.064614 
L 377.895601 371.723021 
L 375.929425 372.323227 
L 373.96325 372.8425 
L 371.997075 373.258105 
L 370.0309 373.547309 
L 368.064725 373.707131 
L 366.09855 373.841784 
L 364.132375 373.969819 
L 362.1662 374.090973 
L 360.200024 374.20498 
L 358.233849 374.311575 
L 356.267674 374.410495 
L 354.301499 374.501474 
L 352.335324 374.584247 
L 350.369149 374.658551 
L 348.402974 374.724119 
L 346.436799 374.780688 
L 344.470623 374.827992 
L 342.504448 374.865767 
L 340.538273 374.893748 
L 338.572098 374.912831 
L 336.605923 374.928679 
L 334.639748 374.942272 
L 332.673573 374.953827 
L 330.707397 374.963563 
L 328.741222 374.971696 
L 326.775047 374.978447 
L 324.808872 374.984031 
L 322.842697 374.988669 
L 320.876522 374.992577 
L 318.910347 374.995973 
L 316.944172 374.999077 
L 314.977996 375.002105 
L 313.011821 375.005276 
L 311.045646 375.008808 
L 309.079471 375.011264 
L 307.113296 375.006531 
L 305.147121 374.995185 
L 303.180946 374.978566 
L 301.214771 374.958015 
L 299.248595 374.934872 
L 297.28242 374.910479 
L 295.316245 374.886176 
L 293.35007 374.863303 
L 291.383895 374.843202 
L 289.41772 374.827212 
L 287.451545 374.816675 
L 285.48537 374.81293 
L 283.519194 374.81732 
L 281.553019 374.831184 
L 279.586844 374.875964 
L 277.620669 375.01497 
L 275.654494 375.239705 
L 273.688319 375.535523 
L 271.722144 375.887774 
L 269.755968 376.28181 
L 267.789793 376.702982 
L 265.823618 377.136641 
L 263.857443 377.568138 
L 261.891268 377.982826 
L 259.925093 378.366054 
L 257.958918 378.703175 
L 255.992743 378.97954 
L 254.026567 379.1805 
L 252.060392 379.291406 
L 250.094217 379.323149 
L 248.128042 379.34256 
L 246.161867 379.354946 
L 244.195692 379.361158 
L 242.229517 379.362046 
L 240.263342 379.358461 
L 238.297166 379.351253 
L 236.330991 379.341272 
L 234.364816 379.329369 
L 232.398641 379.316394 
L 230.432466 379.303197 
L 228.466291 379.290629 
L 226.500116 379.27954 
L 224.533941 379.270779 
L 222.567765 379.265199 
L 220.60159 379.262118 
L 218.635415 379.258376 
L 216.66924 379.254135 
L 214.703065 379.249721 
L 212.73689 379.245459 
L 210.770715 379.241674 
L 208.804539 379.238692 
L 206.838364 379.236839 
L 204.872189 379.236441 
L 202.906014 379.237822 
L 200.939839 379.241309 
L 198.973664 379.247227 
L 197.007489 379.255902 
L 195.041314 379.267659 
L 193.075138 379.282824 
L 191.108963 379.300059 
L 189.142788 379.316161 
L 187.176613 379.33117 
L 185.210438 379.34523 
L 183.244263 379.358482 
L 181.278088 379.371071 
L 179.311913 379.383138 
L 177.345737 379.394827 
L 175.379562 379.40628 
L 173.413387 379.417641 
L 171.447212 379.429052 
L 169.481037 379.440657 
L 167.514862 379.452597 
L 165.548687 379.465016 
L 163.582511 379.478057 
L 161.616336 379.494231 
L 159.650161 379.517095 
L 157.683986 379.545641 
L 155.717811 379.578786 
L 153.751636 379.615445 
L 151.785461 379.654533 
L 149.819286 379.694966 
L 147.85311 379.735659 
L 145.886935 379.775527 
L 143.92076 379.813486 
L 141.954585 379.848451 
L 139.98841 379.879337 
L 138.022235 379.905061 
L 136.05606 379.924536 
L 134.089885 379.93668 
L 132.123709 379.943419 
L 130.157534 379.948834 
L 128.191359 379.953166 
L 126.225184 379.956618 
L 124.259009 379.959396 
L 122.292834 379.961704 
L 120.326659 379.963748 
L 118.360484 379.965732 
L 116.394308 379.96786 
L 114.428133 379.970339 
L 112.461958 379.973373 
L 110.495783 379.977165 
L 108.529608 379.981923 
L 106.563433 379.987849 
L 104.597258 379.99515 
L 102.631082 380.014753 
L 100.664907 380.058669 
L 98.698732 380.125231 
L 96.732557 380.21274 
L 94.766382 380.319497 
L 92.800207 380.443805 
L 90.834032 380.583965 
L 88.867857 380.73828 
L 86.901681 380.90505 
L 84.935506 381.082578 
L 82.969331 381.269166 
L 81.003156 381.463114 
L 79.036981 381.662726 
L 77.070806 381.866303 
L 75.104631 382.072146 
z
" clip-path="url(#p28a3999528)" style="fill: url(#h7a7e14074d)"/>
   </g>
   <g id="FillBetweenPolyCollection_3">
    <path d="M 75.104631 382.072146 
L 75.104631 382.072146 
L 77.070806 381.866303 
L 79.036981 381.662726 
L 81.003156 381.463114 
L 82.969331 381.269166 
L 84.935506 381.082578 
L 86.901681 380.90505 
L 88.867857 380.73828 
L 90.834032 380.583965 
L 92.800207 380.443805 
L 94.766382 380.319497 
L 96.732557 380.21274 
L 98.698732 380.125231 
L 100.664907 380.058669 
L 102.631082 380.014753 
L 104.597258 379.99515 
L 106.563433 379.987849 
L 108.529608 379.981923 
L 110.495783 379.977165 
L 112.461958 379.973373 
L 114.428133 379.970339 
L 116.394308 379.96786 
L 118.360484 379.965732 
L 120.326659 379.963748 
L 122.292834 379.961704 
L 124.259009 379.959396 
L 126.225184 379.956618 
L 128.191359 379.953166 
L 130.157534 379.948834 
L 132.123709 379.943419 
L 134.089885 379.93668 
L 136.05606 379.924536 
L 138.022235 379.905061 
L 139.98841 379.879337 
L 141.954585 379.848451 
L 143.92076 379.813486 
L 145.886935 379.775527 
L 147.85311 379.735659 
L 149.819286 379.694966 
L 151.785461 379.654533 
L 153.751636 379.615445 
L 155.717811 379.578786 
L 157.683986 379.545641 
L 159.650161 379.517095 
L 161.616336 379.494231 
L 163.582511 379.478057 
L 165.548687 379.465016 
L 167.514862 379.452597 
L 169.481037 379.440657 
L 171.447212 379.429052 
L 173.413387 379.417641 
L 175.379562 379.40628 
L 177.345737 379.394827 
L 179.311913 379.383138 
L 181.278088 379.371071 
L 183.244263 379.358482 
L 185.210438 379.34523 
L 187.176613 379.33117 
L 189.142788 379.316161 
L 191.108963 379.300059 
L 193.075138 379.282824 
L 195.041314 379.267659 
L 197.007489 379.255902 
L 198.973664 379.247227 
L 200.939839 379.241309 
L 202.906014 379.237822 
L 204.872189 379.236441 
L 206.838364 379.236839 
L 208.804539 379.238692 
L 210.770715 379.241674 
L 212.73689 379.245459 
L 214.703065 379.249721 
L 216.66924 379.254135 
L 218.635415 379.258376 
L 220.60159 379.262118 
L 222.567765 379.265199 
L 224.533941 379.270779 
L 226.500116 379.27954 
L 228.466291 379.290629 
L 230.432466 379.303197 
L 232.398641 379.316394 
L 234.364816 379.329369 
L 236.330991 379.341272 
L 238.297166 379.351253 
L 240.263342 379.358461 
L 242.229517 379.362046 
L 244.195692 379.361158 
L 246.161867 379.354946 
L 248.128042 379.34256 
L 250.094217 379.323149 
L 252.060392 379.291406 
L 254.026567 379.1805 
L 255.992743 378.97954 
L 257.958918 378.703175 
L 259.925093 378.366054 
L 261.891268 377.982826 
L 263.857443 377.568138 
L 265.823618 377.136641 
L 267.789793 376.702982 
L 269.755968 376.28181 
L 271.722144 375.887774 
L 273.688319 375.535523 
L 275.654494 375.239705 
L 277.620669 375.01497 
L 279.586844 374.875964 
L 281.553019 374.831184 
L 283.519194 374.81732 
L 285.48537 374.81293 
L 287.451545 374.816675 
L 289.41772 374.827212 
L 291.383895 374.843202 
L 293.35007 374.863303 
L 295.316245 374.886176 
L 297.28242 374.910479 
L 299.248595 374.934872 
L 301.214771 374.958015 
L 303.180946 374.978566 
L 305.147121 374.995185 
L 307.113296 375.006531 
L 309.079471 375.011264 
L 311.045646 375.008808 
L 313.011821 375.005276 
L 314.977996 375.002105 
L 316.944172 374.999077 
L 318.910347 374.995973 
L 320.876522 374.992577 
L 322.842697 374.988669 
L 324.808872 374.984031 
L 326.775047 374.978447 
L 328.741222 374.971696 
L 330.707397 374.963563 
L 332.673573 374.953827 
L 334.639748 374.942272 
L 336.605923 374.928679 
L 338.572098 374.912831 
L 340.538273 374.893748 
L 342.504448 374.865767 
L 344.470623 374.827992 
L 346.436799 374.780688 
L 348.402974 374.724119 
L 350.369149 374.658551 
L 352.335324 374.584247 
L 354.301499 374.501474 
L 356.267674 374.410495 
L 358.233849 374.311575 
L 360.200024 374.20498 
L 362.1662 374.090973 
L 364.132375 373.969819 
L 366.09855 373.841784 
L 368.064725 373.707131 
L 370.0309 373.547309 
L 371.997075 373.258105 
L 373.96325 372.8425 
L 375.929425 372.323227 
L 377.895601 371.723021 
L 379.861776 371.064614 
L 381.827951 370.37074 
L 383.794126 369.664134 
L 385.760301 368.967528 
L 387.726476 368.303657 
L 389.692651 367.695254 
L 391.658826 367.165053 
L 393.625002 366.735788 
L 395.591177 366.430192 
L 397.557352 366.271 
L 399.523527 366.263066 
L 401.489702 366.328078 
L 403.455877 366.446179 
L 405.422052 366.608408 
L 407.388228 366.805805 
L 409.354403 367.02941 
L 411.320578 367.270263 
L 413.286753 367.519404 
L 415.252928 367.767874 
L 417.219103 368.006711 
L 419.185278 368.226956 
L 421.151453 368.419649 
L 423.117629 368.57583 
L 425.083804 368.686539 
L 427.049979 368.742815 
L 429.016154 368.731029 
L 430.982329 368.632055 
L 432.948504 368.45547 
L 434.914679 368.213491 
L 436.880854 367.918333 
L 438.84703 367.582215 
L 440.813205 367.217353 
L 442.77938 366.835963 
L 444.745555 366.450263 
L 446.71173 366.072468 
L 448.677905 365.714797 
L 450.64408 365.389465 
L 452.610255 365.10869 
L 454.576431 364.884688 
L 456.542606 364.729676 
L 458.508781 364.642111 
L 460.474956 364.58082 
L 462.441131 364.541066 
L 464.407306 364.521827 
L 466.373481 364.522086 
L 468.339657 364.540824 
L 470.305832 364.577019 
L 472.272007 364.629655 
L 474.238182 364.697711 
L 476.204357 364.780168 
L 478.170532 364.876007 
L 480.136707 364.984208 
L 482.102882 365.103753 
L 484.069058 365.233621 
L 486.035233 365.372795 
L 488.001408 365.53284 
L 489.967583 365.745121 
L 491.933758 366.002566 
L 493.899933 366.295664 
L 495.866108 366.614905 
L 497.832283 366.950777 
L 499.798459 367.29377 
L 501.764634 367.634372 
L 503.730809 367.963074 
L 505.696984 368.270364 
L 507.663159 368.546732 
L 509.629334 368.782666 
L 511.595509 368.968656 
L 513.561684 369.095191 
L 515.52786 369.152761 
L 517.494035 369.097463 
L 519.46021 368.855065 
L 521.426385 368.449742 
L 523.39256 367.909883 
L 525.358735 367.263878 
L 527.32491 366.540118 
L 529.291086 365.766992 
L 531.257261 364.97289 
L 533.223436 364.186202 
L 535.189611 363.435318 
L 537.155786 362.748628 
L 539.121961 362.154523 
L 541.088136 361.681392 
L 543.054311 361.357624 
L 545.020487 361.211611 
L 546.986662 361.211918 
L 548.952837 361.245786 
L 550.919012 361.305196 
L 552.885187 361.385649 
L 554.851362 361.482644 
L 556.817537 361.591682 
L 558.783712 361.708262 
L 560.749888 361.827886 
L 562.716063 361.946053 
L 564.682238 362.058263 
L 566.648413 362.160017 
L 568.614588 362.246814 
L 570.580763 362.314156 
L 572.546938 362.357541 
L 574.513114 362.372471 
L 576.479289 362.295587 
L 578.445464 362.038219 
L 580.411639 361.625598 
L 582.377814 361.084902 
L 584.343989 360.443312 
L 586.310164 359.728009 
L 588.276339 358.966173 
L 590.242515 358.184983 
L 592.20869 357.411621 
L 594.174865 356.673266 
L 596.14104 355.997099 
L 598.107215 355.410299 
L 600.07339 354.940048 
L 602.039565 354.613525 
L 604.00574 354.457911 
L 605.971916 354.427027 
L 607.938091 354.422749 
L 609.904266 354.440764 
L 611.870441 354.477611 
L 613.836616 354.52983 
L 615.802791 354.59396 
L 617.768966 354.666541 
L 619.735141 354.744113 
L 621.701317 354.823215 
L 623.667492 354.900389 
L 625.633667 354.972172 
L 627.599842 355.035106 
L 629.566017 355.085729 
L 631.532192 355.120582 
L 633.498367 355.136204 
L 635.464543 355.138931 
L 637.430718 355.13926 
L 639.396893 355.137032 
L 641.363068 355.132059 
L 643.329243 355.124154 
L 645.295418 355.113131 
L 647.261593 355.098804 
L 649.227768 355.080985 
L 651.193944 355.059489 
L 653.160119 355.034127 
L 655.126294 355.004714 
L 657.092469 354.971063 
L 659.058644 354.932987 
L 661.024819 354.890299 
L 662.990994 354.842813 
L 662.990994 354.777085 
L 662.990994 354.777085 
L 661.024819 354.824625 
L 659.058644 354.867472 
L 657.092469 354.905806 
L 655.126294 354.939811 
L 653.160119 354.969668 
L 651.193944 354.995558 
L 649.227768 355.017664 
L 647.261593 355.036166 
L 645.295418 355.051248 
L 643.329243 355.06309 
L 641.363068 355.071874 
L 639.396893 355.077782 
L 637.430718 355.080996 
L 635.464543 355.081698 
L 633.498367 355.080044 
L 631.532192 355.066147 
L 629.566017 355.034056 
L 627.599842 354.987058 
L 625.633667 354.928441 
L 623.667492 354.861493 
L 621.701317 354.789501 
L 619.735141 354.715753 
L 617.768966 354.643536 
L 615.802791 354.576138 
L 613.836616 354.516846 
L 611.870441 354.468949 
L 609.904266 354.435733 
L 607.938091 354.420486 
L 605.971916 354.426495 
L 604.00574 354.457911 
L 602.039565 354.613525 
L 600.07339 354.940048 
L 598.107215 355.410299 
L 596.14104 355.997099 
L 594.174865 356.673266 
L 592.20869 357.411621 
L 590.242515 358.184983 
L 588.276339 358.966173 
L 586.310164 359.728009 
L 584.343989 360.443312 
L 582.377814 361.084902 
L 580.411639 361.625598 
L 578.445464 362.038219 
L 576.479289 362.295587 
L 574.513114 362.37246 
L 572.546938 362.356902 
L 570.580763 362.312026 
L 568.614588 362.242469 
L 566.648413 362.152866 
L 564.682238 362.047854 
L 562.716063 361.932068 
L 560.749888 361.810145 
L 558.783712 361.68672 
L 556.817537 361.566431 
L 554.851362 361.453913 
L 552.885187 361.353803 
L 550.919012 361.270736 
L 548.952837 361.209348 
L 546.986662 361.174276 
L 545.020487 361.173675 
L 543.054311 361.320363 
L 541.088136 361.64566 
L 539.121961 362.12104 
L 537.155786 362.717976 
L 535.189611 363.407944 
L 533.223436 364.162415 
L 531.257261 364.952865 
L 529.291086 365.750766 
L 527.32491 366.527592 
L 525.358735 367.254818 
L 523.39256 367.903917 
L 521.426385 368.446362 
L 519.46021 368.853627 
L 517.494035 369.097186 
L 515.52786 369.152761 
L 513.561684 369.095191 
L 511.595509 368.968656 
L 509.629334 368.782666 
L 507.663159 368.546732 
L 505.696984 368.270364 
L 503.730809 367.963074 
L 501.764634 367.634372 
L 499.798459 367.29377 
L 497.832283 366.950777 
L 495.866108 366.614905 
L 493.899933 366.295664 
L 491.933758 366.002566 
L 489.967583 365.745121 
L 488.001408 365.53284 
L 486.035233 365.372711 
L 484.069058 365.232106 
L 482.102882 365.099234 
L 480.136707 364.975368 
L 478.170532 364.861782 
L 476.204357 364.759751 
L 474.238182 364.670547 
L 472.272007 364.595445 
L 470.305832 364.535719 
L 468.339657 364.492642 
L 466.373481 364.46749 
L 464.407306 364.461534 
L 462.441131 364.47605 
L 460.474956 364.512311 
L 458.508781 364.571592 
L 456.542606 364.658881 
L 454.576431 364.815408 
L 452.610255 365.042486 
L 450.64408 365.327641 
L 448.677905 365.658404 
L 446.71173 366.022302 
L 444.745555 366.406864 
L 442.77938 366.799619 
L 440.813205 367.188095 
L 438.84703 367.559821 
L 436.880854 367.902325 
L 434.914679 368.203136 
L 432.948504 368.449782 
L 430.982329 368.629792 
L 429.016154 368.730695 
L 427.049979 368.742815 
L 425.083804 368.686539 
L 423.117629 368.57583 
L 421.151453 368.419649 
L 419.185278 368.226956 
L 417.219103 368.006711 
L 415.252928 367.767874 
L 413.286753 367.519404 
L 411.320578 367.270263 
L 409.354403 367.02941 
L 407.388228 366.805805 
L 405.422052 366.608408 
L 403.455877 366.446179 
L 401.489702 366.328078 
L 399.523527 366.263066 
L 397.557352 366.271 
L 395.591177 366.430192 
L 393.625002 366.735788 
L 391.658826 367.165053 
L 389.692651 367.695254 
L 387.726476 368.303657 
L 385.760301 368.967528 
L 383.794126 369.664134 
L 381.827951 370.37074 
L 379.861776 371.064614 
L 377.895601 371.723021 
L 375.929425 372.323227 
L 373.96325 372.8425 
L 371.997075 373.258105 
L 370.0309 373.547309 
L 368.064725 373.707131 
L 366.09855 373.841784 
L 364.132375 373.969819 
L 362.1662 374.090973 
L 360.200024 374.20498 
L 358.233849 374.311575 
L 356.267674 374.410495 
L 354.301499 374.501474 
L 352.335324 374.584247 
L 350.369149 374.658551 
L 348.402974 374.724119 
L 346.436799 374.780688 
L 344.470623 374.827992 
L 342.504448 374.865767 
L 340.538273 374.893748 
L 338.572098 374.912831 
L 336.605923 374.928679 
L 334.639748 374.942272 
L 332.673573 374.953827 
L 330.707397 374.963563 
L 328.741222 374.971696 
L 326.775047 374.978447 
L 324.808872 374.984031 
L 322.842697 374.988669 
L 320.876522 374.992577 
L 318.910347 374.995973 
L 316.944172 374.999077 
L 314.977996 375.002105 
L 313.011821 375.005276 
L 311.045646 375.008808 
L 309.079471 375.011264 
L 307.113296 375.006531 
L 305.147121 374.995185 
L 303.180946 374.978566 
L 301.214771 374.958015 
L 299.248595 374.934872 
L 297.28242 374.910479 
L 295.316245 374.886176 
L 293.35007 374.863303 
L 291.383895 374.843202 
L 289.41772 374.827212 
L 287.451545 374.816675 
L 285.48537 374.81293 
L 283.519194 374.81732 
L 281.553019 374.831184 
L 279.586844 374.875714 
L 277.620669 375.013432 
L 275.654494 375.235931 
L 273.688319 375.528725 
L 271.722144 375.877329 
L 269.755968 376.267257 
L 267.789793 376.684023 
L 265.823618 377.113142 
L 263.857443 377.540127 
L 261.891268 377.950495 
L 259.925093 378.329758 
L 257.958918 378.663431 
L 255.992743 378.937029 
L 254.026567 379.136066 
L 252.060392 379.246056 
L 250.094217 379.277851 
L 248.128042 379.29776 
L 246.161867 379.311011 
L 244.195692 379.318408 
L 242.229517 379.320756 
L 240.263342 379.318859 
L 238.297166 379.313522 
L 236.330991 379.305549 
L 234.364816 379.295745 
L 232.398641 379.284913 
L 230.432466 379.273859 
L 228.466291 379.263386 
L 226.500116 379.2543 
L 224.533941 379.247404 
L 222.567765 379.243503 
L 220.60159 379.241986 
L 218.635415 379.239937 
L 216.66924 379.237493 
L 214.703065 379.234944 
L 212.73689 379.23258 
L 210.770715 379.23069 
L 208.804539 379.229564 
L 206.838364 379.229491 
L 204.872189 379.230762 
L 202.906014 379.233666 
L 200.939839 379.238492 
L 198.973664 379.245531 
L 197.007489 379.255071 
L 195.041314 379.267403 
L 193.075138 379.282816 
L 191.108963 379.300059 
L 189.142788 379.316161 
L 187.176613 379.33117 
L 185.210438 379.34523 
L 183.244263 379.358482 
L 181.278088 379.371071 
L 179.311913 379.383138 
L 177.345737 379.394827 
L 175.379562 379.40628 
L 173.413387 379.417641 
L 171.447212 379.429052 
L 169.481037 379.440657 
L 167.514862 379.452597 
L 165.548687 379.465016 
L 163.582511 379.478057 
L 161.616336 379.494231 
L 159.650161 379.517095 
L 157.683986 379.545641 
L 155.717811 379.578786 
L 153.751636 379.615445 
L 151.785461 379.654533 
L 149.819286 379.694966 
L 147.85311 379.735659 
L 145.886935 379.775527 
L 143.92076 379.813486 
L 141.954585 379.848451 
L 139.98841 379.879337 
L 138.022235 379.905061 
L 136.05606 379.924536 
L 134.089885 379.93668 
L 132.123709 379.943419 
L 130.157534 379.948834 
L 128.191359 379.953166 
L 126.225184 379.956618 
L 124.259009 379.959396 
L 122.292834 379.961704 
L 120.326659 379.963748 
L 118.360484 379.965732 
L 116.394308 379.96786 
L 114.428133 379.970339 
L 112.461958 379.973373 
L 110.495783 379.977165 
L 108.529608 379.981923 
L 106.563433 379.987849 
L 104.597258 379.99515 
L 102.631082 380.014753 
L 100.664907 380.058669 
L 98.698732 380.125231 
L 96.732557 380.21274 
L 94.766382 380.319497 
L 92.800207 380.443805 
L 90.834032 380.583965 
L 88.867857 380.73828 
L 86.901681 380.90505 
L 84.935506 381.082578 
L 82.969331 381.269166 
L 81.003156 381.463114 
L 79.036981 381.662726 
L 77.070806 381.866303 
L 75.104631 382.072146 
z
" clip-path="url(#p28a3999528)" style="fill: url(#hb9eff177b7)"/>
   </g>
   <g id="FillBetweenPolyCollection_4">
    <path d="M 75.104631 382.072146 
L 75.104631 382.072146 
L 77.070806 381.866303 
L 79.036981 381.662726 
L 81.003156 381.463114 
L 82.969331 381.269166 
L 84.935506 381.082578 
L 86.901681 380.90505 
L 88.867857 380.73828 
L 90.834032 380.583965 
L 92.800207 380.443805 
L 94.766382 380.319497 
L 96.732557 380.21274 
L 98.698732 380.125231 
L 100.664907 380.058669 
L 102.631082 380.014753 
L 104.597258 379.99515 
L 106.563433 379.987849 
L 108.529608 379.981923 
L 110.495783 379.977165 
L 112.461958 379.973373 
L 114.428133 379.970339 
L 116.394308 379.96786 
L 118.360484 379.965732 
L 120.326659 379.963748 
L 122.292834 379.961704 
L 124.259009 379.959396 
L 126.225184 379.956618 
L 128.191359 379.953166 
L 130.157534 379.948834 
L 132.123709 379.943419 
L 134.089885 379.93668 
L 136.05606 379.924536 
L 138.022235 379.905061 
L 139.98841 379.879337 
L 141.954585 379.848451 
L 143.92076 379.813486 
L 145.886935 379.775527 
L 147.85311 379.735659 
L 149.819286 379.694966 
L 151.785461 379.654533 
L 153.751636 379.615445 
L 155.717811 379.578786 
L 157.683986 379.545641 
L 159.650161 379.517095 
L 161.616336 379.494231 
L 163.582511 379.478057 
L 165.548687 379.465016 
L 167.514862 379.452597 
L 169.481037 379.440657 
L 171.447212 379.429052 
L 173.413387 379.417641 
L 175.379562 379.40628 
L 177.345737 379.394827 
L 179.311913 379.383138 
L 181.278088 379.371071 
L 183.244263 379.358482 
L 185.210438 379.34523 
L 187.176613 379.33117 
L 189.142788 379.316161 
L 191.108963 379.300059 
L 193.075138 379.282816 
L 195.041314 379.267403 
L 197.007489 379.255071 
L 198.973664 379.245531 
L 200.939839 379.238492 
L 202.906014 379.233666 
L 204.872189 379.230762 
L 206.838364 379.229491 
L 208.804539 379.229564 
L 210.770715 379.23069 
L 212.73689 379.23258 
L 214.703065 379.234944 
L 216.66924 379.237493 
L 218.635415 379.239937 
L 220.60159 379.241986 
L 222.567765 379.243503 
L 224.533941 379.247404 
L 226.500116 379.2543 
L 228.466291 379.263386 
L 230.432466 379.273859 
L 232.398641 379.284913 
L 234.364816 379.295745 
L 236.330991 379.305549 
L 238.297166 379.313522 
L 240.263342 379.318859 
L 242.229517 379.320756 
L 244.195692 379.318408 
L 246.161867 379.311011 
L 248.128042 379.29776 
L 250.094217 379.277851 
L 252.060392 379.246056 
L 254.026567 379.136066 
L 255.992743 378.937029 
L 257.958918 378.663431 
L 259.925093 378.329758 
L 261.891268 377.950495 
L 263.857443 377.540127 
L 265.823618 377.113142 
L 267.789793 376.684023 
L 269.755968 376.267257 
L 271.722144 375.877329 
L 273.688319 375.528725 
L 275.654494 375.235931 
L 277.620669 375.013432 
L 279.586844 374.875714 
L 281.553019 374.831184 
L 283.519194 374.81732 
L 285.48537 374.81293 
L 287.451545 374.816675 
L 289.41772 374.827212 
L 291.383895 374.843202 
L 293.35007 374.863303 
L 295.316245 374.886176 
L 297.28242 374.910479 
L 299.248595 374.934872 
L 301.214771 374.958015 
L 303.180946 374.978566 
L 305.147121 374.995185 
L 307.113296 375.006531 
L 309.079471 375.011264 
L 311.045646 375.008808 
L 313.011821 375.005276 
L 314.977996 375.002105 
L 316.944172 374.999077 
L 318.910347 374.995973 
L 320.876522 374.992577 
L 322.842697 374.988669 
L 324.808872 374.984031 
L 326.775047 374.978447 
L 328.741222 374.971696 
L 330.707397 374.963563 
L 332.673573 374.953827 
L 334.639748 374.942272 
L 336.605923 374.928679 
L 338.572098 374.912831 
L 340.538273 374.893748 
L 342.504448 374.865767 
L 344.470623 374.827992 
L 346.436799 374.780688 
L 348.402974 374.724119 
L 350.369149 374.658551 
L 352.335324 374.584247 
L 354.301499 374.501474 
L 356.267674 374.410495 
L 358.233849 374.311575 
L 360.200024 374.20498 
L 362.1662 374.090973 
L 364.132375 373.969819 
L 366.09855 373.841784 
L 368.064725 373.707131 
L 370.0309 373.547309 
L 371.997075 373.258105 
L 373.96325 372.8425 
L 375.929425 372.323227 
L 377.895601 371.723021 
L 379.861776 371.064614 
L 381.827951 370.37074 
L 383.794126 369.664134 
L 385.760301 368.967528 
L 387.726476 368.303657 
L 389.692651 367.695254 
L 391.658826 367.165053 
L 393.625002 366.735788 
L 395.591177 366.430192 
L 397.557352 366.271 
L 399.523527 366.263066 
L 401.489702 366.328078 
L 403.455877 366.446179 
L 405.422052 366.608408 
L 407.388228 366.805805 
L 409.354403 367.02941 
L 411.320578 367.270263 
L 413.286753 367.519404 
L 415.252928 367.767874 
L 417.219103 368.006711 
L 419.185278 368.226956 
L 421.151453 368.419649 
L 423.117629 368.57583 
L 425.083804 368.686539 
L 427.049979 368.742815 
L 429.016154 368.730695 
L 430.982329 368.629792 
L 432.948504 368.449782 
L 434.914679 368.203136 
L 436.880854 367.902325 
L 438.84703 367.559821 
L 440.813205 367.188095 
L 442.77938 366.799619 
L 444.745555 366.406864 
L 446.71173 366.022302 
L 448.677905 365.658404 
L 450.64408 365.327641 
L 452.610255 365.042486 
L 454.576431 364.815408 
L 456.542606 364.658881 
L 458.508781 364.571592 
L 460.474956 364.512311 
L 462.441131 364.47605 
L 464.407306 364.461534 
L 466.373481 364.46749 
L 468.339657 364.492642 
L 470.305832 364.535719 
L 472.272007 364.595445 
L 474.238182 364.670547 
L 476.204357 364.759751 
L 478.170532 364.861782 
L 480.136707 364.975368 
L 482.102882 365.099234 
L 484.069058 365.232106 
L 486.035233 365.372711 
L 488.001408 365.53284 
L 489.967583 365.745121 
L 491.933758 366.002566 
L 493.899933 366.295664 
L 495.866108 366.614905 
L 497.832283 366.950777 
L 499.798459 367.29377 
L 501.764634 367.634372 
L 503.730809 367.963074 
L 505.696984 368.270364 
L 507.663159 368.546732 
L 509.629334 368.782666 
L 511.595509 368.968656 
L 513.561684 369.095191 
L 515.52786 369.152761 
L 517.494035 369.097186 
L 519.46021 368.853627 
L 521.426385 368.446362 
L 523.39256 367.903917 
L 525.358735 367.254818 
L 527.32491 366.527592 
L 529.291086 365.750766 
L 531.257261 364.952865 
L 533.223436 364.162415 
L 535.189611 363.407944 
L 537.155786 362.717976 
L 539.121961 362.12104 
L 541.088136 361.64566 
L 543.054311 361.320363 
L 545.020487 361.173675 
L 546.986662 361.174276 
L 548.952837 361.209348 
L 550.919012 361.270736 
L 552.885187 361.353803 
L 554.851362 361.453913 
L 556.817537 361.566431 
L 558.783712 361.68672 
L 560.749888 361.810145 
L 562.716063 361.932068 
L 564.682238 362.047854 
L 566.648413 362.152866 
L 568.614588 362.242469 
L 570.580763 362.312026 
L 572.546938 362.356902 
L 574.513114 362.37246 
L 576.479289 362.295587 
L 578.445464 362.038219 
L 580.411639 361.625598 
L 582.377814 361.084902 
L 584.343989 360.443312 
L 586.310164 359.728009 
L 588.276339 358.966173 
L 590.242515 358.184983 
L 592.20869 357.411621 
L 594.174865 356.673266 
L 596.14104 355.997099 
L 598.107215 355.410299 
L 600.07339 354.940048 
L 602.039565 354.613525 
L 604.00574 354.457911 
L 605.971916 354.426495 
L 607.938091 354.420486 
L 609.904266 354.435733 
L 611.870441 354.468949 
L 613.836616 354.516846 
L 615.802791 354.576138 
L 617.768966 354.643536 
L 619.735141 354.715753 
L 621.701317 354.789501 
L 623.667492 354.861493 
L 625.633667 354.928441 
L 627.599842 354.987058 
L 629.566017 355.034056 
L 631.532192 355.066147 
L 633.498367 355.080044 
L 635.464543 355.081698 
L 637.430718 355.080996 
L 639.396893 355.077782 
L 641.363068 355.071874 
L 643.329243 355.06309 
L 645.295418 355.051248 
L 647.261593 355.036166 
L 649.227768 355.017664 
L 651.193944 354.995558 
L 653.160119 354.969668 
L 655.126294 354.939811 
L 657.092469 354.905806 
L 659.058644 354.867472 
L 661.024819 354.824625 
L 662.990994 354.777085 
L 662.990994 354.382716 
L 662.990994 354.382716 
L 661.024819 354.430417 
L 659.058644 354.473403 
L 657.092469 354.511857 
L 655.126294 354.545963 
L 653.160119 354.575904 
L 651.193944 354.601863 
L 649.227768 354.624024 
L 647.261593 354.64257 
L 645.295418 354.657683 
L 643.329243 354.669548 
L 641.363068 354.678348 
L 639.396893 354.684265 
L 637.430718 354.687484 
L 635.464543 354.688187 
L 633.498367 354.686518 
L 631.532192 354.665754 
L 629.566017 354.615538 
L 627.599842 354.540909 
L 625.633667 354.446908 
L 623.667492 354.338573 
L 621.701317 354.220945 
L 619.735141 354.099065 
L 617.768966 353.97797 
L 615.802791 353.862702 
L 613.836616 353.758301 
L 611.870441 353.669805 
L 609.904266 353.602256 
L 607.938091 353.560692 
L 605.971916 353.550154 
L 604.00574 353.576502 
L 602.039565 353.73489 
L 600.07339 354.068418 
L 598.107215 354.549371 
L 596.14104 355.150033 
L 594.174865 355.842688 
L 592.20869 356.599621 
L 590.242515 357.393115 
L 588.276339 358.195456 
L 586.310164 358.978926 
L 584.343989 359.715812 
L 582.377814 360.378396 
L 580.411639 360.938964 
L 578.445464 361.369799 
L 576.479289 361.643186 
L 574.513114 361.733389 
L 572.546938 361.730252 
L 570.580763 361.697989 
L 568.614588 361.641104 
L 566.648413 361.564099 
L 564.682238 361.47148 
L 562.716063 361.367748 
L 560.749888 361.257408 
L 558.783712 361.144963 
L 556.817537 361.034917 
L 554.851362 360.931772 
L 552.885187 360.840034 
L 550.919012 360.764205 
L 548.952837 360.708788 
L 546.986662 360.678287 
L 545.020487 360.680757 
L 543.054311 360.829935 
L 541.088136 361.157615 
L 539.121961 361.635261 
L 537.155786 362.234336 
L 535.189611 362.926305 
L 533.223436 363.682629 
L 531.257261 364.474774 
L 529.291086 365.274202 
L 527.32491 366.052376 
L 525.358735 366.780761 
L 523.39256 367.43082 
L 521.426385 367.974015 
L 519.46021 368.381811 
L 517.494035 368.625672 
L 515.52786 368.681302 
L 513.561684 368.62341 
L 511.595509 368.496174 
L 509.629334 368.309164 
L 507.663159 368.071952 
L 505.696984 367.794111 
L 503.730809 367.485211 
L 501.764634 367.154825 
L 499.798459 366.812525 
L 497.832283 366.467881 
L 495.866108 366.130467 
L 493.899933 365.809853 
L 491.933758 365.515612 
L 489.967583 365.257315 
L 488.001408 365.044534 
L 486.035233 364.884458 
L 484.069058 364.74661 
L 482.102882 364.619548 
L 480.136707 364.504087 
L 478.170532 364.401038 
L 476.204357 364.311214 
L 474.238182 364.235429 
L 472.272007 364.174496 
L 470.305832 364.129227 
L 468.339657 364.100435 
L 466.373481 364.088933 
L 464.407306 364.095535 
L 462.441131 364.121053 
L 460.474956 364.166299 
L 458.508781 364.232088 
L 456.542606 364.323143 
L 454.576431 364.482692 
L 452.610255 364.712676 
L 450.64408 365.000607 
L 448.677905 365.334 
L 446.71173 365.700368 
L 444.745555 366.087224 
L 442.77938 366.482082 
L 440.813205 366.872454 
L 438.84703 367.245856 
L 436.880854 367.589799 
L 434.914679 367.891798 
L 432.948504 368.139366 
L 430.982329 368.320016 
L 429.016154 368.421262 
L 427.049979 368.433283 
L 425.083804 368.375337 
L 423.117629 368.261345 
L 421.151453 368.100532 
L 419.185278 367.902123 
L 417.219103 367.675345 
L 415.252928 367.429424 
L 413.286753 367.173585 
L 411.320578 366.917054 
L 409.354403 366.669057 
L 407.388228 366.43882 
L 405.422052 366.235568 
L 403.455877 366.068527 
L 401.489702 365.946924 
L 399.523527 365.879983 
L 397.557352 365.888393 
L 395.591177 366.054438 
L 393.625002 366.373134 
L 391.658826 366.820709 
L 389.692651 367.373394 
L 387.726476 368.007418 
L 385.760301 368.69901 
L 383.794126 369.424399 
L 381.827951 370.159815 
L 379.861776 370.881487 
L 377.895601 371.565644 
L 375.929425 372.188516 
L 373.96325 372.726333 
L 371.997075 373.155323 
L 370.0309 373.451716 
L 368.064725 373.611824 
L 366.09855 373.741458 
L 364.132375 373.860149 
L 362.1662 373.968356 
L 360.200024 374.06654 
L 358.233849 374.155158 
L 356.267674 374.234671 
L 354.301499 374.305537 
L 352.335324 374.368216 
L 350.369149 374.423166 
L 348.402974 374.470848 
L 346.436799 374.51172 
L 344.470623 374.546241 
L 342.504448 374.57487 
L 340.538273 374.598068 
L 338.572098 374.617345 
L 336.605923 374.638007 
L 334.639748 374.660342 
L 332.673573 374.683907 
L 330.707397 374.708255 
L 328.741222 374.732942 
L 326.775047 374.757522 
L 324.808872 374.781551 
L 322.842697 374.804582 
L 320.876522 374.826171 
L 318.910347 374.845872 
L 316.944172 374.86324 
L 314.977996 374.87783 
L 313.011821 374.889197 
L 311.045646 374.896895 
L 309.079471 374.899561 
L 307.113296 374.893792 
L 305.147121 374.880605 
L 303.180946 374.861479 
L 301.214771 374.837891 
L 299.248595 374.811317 
L 297.28242 374.783237 
L 295.316245 374.755127 
L 293.35007 374.728464 
L 291.383895 374.704726 
L 289.41772 374.685391 
L 287.451545 374.671936 
L 285.48537 374.665839 
L 283.519194 374.668577 
L 281.553019 374.681627 
L 279.586844 374.726135 
L 277.620669 374.864067 
L 275.654494 375.086949 
L 273.688319 375.380281 
L 271.722144 375.729563 
L 269.755968 376.120294 
L 267.789793 376.537973 
L 265.823618 376.9681 
L 263.857443 377.396173 
L 261.891268 377.807694 
L 259.925093 378.18816 
L 257.958918 378.523071 
L 255.992743 378.797927 
L 254.026567 378.998227 
L 252.060392 379.109471 
L 250.094217 379.142613 
L 248.128042 379.16426 
L 246.161867 379.17959 
L 244.195692 379.189334 
L 242.229517 379.194223 
L 240.263342 379.194989 
L 238.297166 379.192362 
L 236.330991 379.187073 
L 234.364816 379.179853 
L 232.398641 379.171434 
L 230.432466 379.162546 
L 228.466291 379.153921 
L 226.500116 379.14629 
L 224.533941 379.140383 
L 222.567765 379.136931 
L 220.60159 379.134621 
L 218.635415 379.129162 
L 216.66924 379.121017 
L 214.703065 379.110877 
L 212.73689 379.099431 
L 210.770715 379.087368 
L 208.804539 379.075379 
L 206.838364 379.064154 
L 204.872189 379.054381 
L 202.906014 379.046752 
L 200.939839 379.041956 
L 198.973664 379.040683 
L 197.007489 379.043622 
L 195.041314 379.051464 
L 193.075138 379.064898 
L 191.108963 379.083166 
L 189.142788 379.103421 
L 187.176613 379.125252 
L 185.210438 379.148332 
L 183.244263 379.172333 
L 181.278088 379.196928 
L 179.311913 379.22179 
L 177.345737 379.24659 
L 175.379562 379.271003 
L 173.413387 379.294699 
L 171.447212 379.317353 
L 169.481037 379.338636 
L 167.514862 379.358221 
L 165.548687 379.37578 
L 163.582511 379.390987 
L 161.616336 379.406918 
L 159.650161 379.428787 
L 157.683986 379.455726 
L 155.717811 379.48676 
L 153.751636 379.520914 
L 151.785461 379.557211 
L 149.819286 379.594676 
L 147.85311 379.632333 
L 145.886935 379.669206 
L 143.92076 379.70432 
L 141.954585 379.736698 
L 139.98841 379.765365 
L 138.022235 379.789345 
L 136.05606 379.807663 
L 134.089885 379.819342 
L 132.123709 379.826545 
L 130.157534 379.833501 
L 128.191359 379.840328 
L 126.225184 379.847105 
L 124.259009 379.853914 
L 122.292834 379.860835 
L 120.326659 379.867947 
L 118.360484 379.875332 
L 116.394308 379.883069 
L 114.428133 379.89124 
L 112.461958 379.899923 
L 110.495783 379.909201 
L 108.529608 379.919152 
L 106.563433 379.929857 
L 104.597258 379.941397 
L 102.631082 379.964878 
L 100.664907 380.012634 
L 98.698732 380.082995 
L 96.732557 380.174263 
L 94.766382 380.284739 
L 92.800207 380.412724 
L 90.834032 380.556518 
L 88.867857 380.714424 
L 86.901681 380.884741 
L 84.935506 381.065771 
L 82.969331 381.255815 
L 81.003156 381.453173 
L 79.036981 381.656147 
L 77.070806 381.863037 
L 75.104631 382.072146 
z
" clip-path="url(#p28a3999528)" style="fill: url(#hacafdf8f59)"/>
   </g>
   <g id="legend_1">
    <g id="patch_3">
     <path d="M 54.710313 24.159375 
L 74.710313 24.159375 
L 74.710313 17.159375 
L 54.710313 17.159375 
z
" style="fill: url(#h645efe8431)"/>
    </g>
    <g id="text_14">
     <!-- Solo -->
     <g transform="translate(82.710313 24.159375) scale(0.1 -0.1)">
      <defs>
       <path id="NotoSansCJKjp-Regular-53" d="M 1946 -83 
C 2925 -83 3539 506 3539 1248 
C 3539 1946 3117 2266 2573 2502 
L 1901 2790 
C 1536 2944 1126 3117 1126 3571 
C 1126 3994 1472 4262 2003 4262 
C 2438 4262 2784 4090 3072 3821 
L 3386 4198 
C 3053 4544 2560 4781 2003 4781 
C 1152 4781 525 4256 525 3533 
C 525 2848 1043 2515 1478 2330 
L 2157 2035 
C 2598 1837 2938 1683 2938 1203 
C 2938 742 2566 435 1952 435 
C 1466 435 992 666 659 1018 
L 301 614 
C 710 186 1280 -83 1946 -83 
z
" transform="scale(0.015625)"/>
       <path id="NotoSansCJKjp-Regular-6c" d="M 1203 -83 
C 1363 -83 1459 -64 1542 -32 
L 1459 416 
C 1395 403 1370 403 1338 403 
C 1248 403 1171 474 1171 653 
L 1171 5094 
L 589 5094 
L 589 691 
C 589 198 768 -83 1203 -83 
z
" transform="scale(0.015625)"/>
      </defs>
      <use xlink:href="#NotoSansCJKjp-Regular-53"/>
      <use xlink:href="#NotoSansCJKjp-Regular-6f" transform="translate(59.699997 0)"/>
      <use xlink:href="#NotoSansCJKjp-Regular-6c" transform="translate(120.299988 0)"/>
      <use xlink:href="#NotoSansCJKjp-Regular-6f" transform="translate(148.799973 0)"/>
     </g>
    </g>
    <g id="patch_4">
     <path d="M 54.710313 39.409375 
L 74.710313 39.409375 
L 74.710313 32.409375 
L 54.710313 32.409375 
z
" style="fill: url(#h7a7e14074d)"/>
    </g>
    <g id="text_15">
     <!-- Initial -->
     <g transform="translate(82.710313 39.409375) scale(0.1 -0.1)">
      <defs>
       <path id="NotoSansCJKjp-Regular-49" d="M 640 0 
L 1235 0 
L 1235 4698 
L 640 4698 
L 640 0 
z
" transform="scale(0.015625)"/>
      </defs>
      <use xlink:href="#NotoSansCJKjp-Regular-49"/>
      <use xlink:href="#NotoSansCJKjp-Regular-6e" transform="translate(29.299988 0)"/>
      <use xlink:href="#NotoSansCJKjp-Regular-69" transform="translate(90.399979 0)"/>
      <use xlink:href="#NotoSansCJKjp-Regular-74" transform="translate(117.899963 0)"/>
      <use xlink:href="#NotoSansCJKjp-Regular-69" transform="translate(155.59996 0)"/>
      <use xlink:href="#NotoSansCJKjp-Regular-61" transform="translate(183.099945 0)"/>
      <use xlink:href="#NotoSansCJKjp-Regular-6c" transform="translate(239.499939 0)"/>
     </g>
    </g>
    <g id="patch_5">
     <path d="M 54.710313 54.659375 
L 74.710313 54.659375 
L 74.710313 47.659375 
L 54.710313 47.659375 
z
" style="fill: url(#hb9eff177b7)"/>
    </g>
    <g id="text_16">
     <!-- Middle -->
     <g transform="translate(82.710313 54.659375) scale(0.1 -0.1)">
      <defs>
       <path id="NotoSansCJKjp-Regular-4d" d="M 640 0 
L 1178 0 
L 1178 2598 
C 1178 3002 1133 3571 1107 3981 
L 1133 3981 
L 1504 2912 
L 2394 474 
L 2790 474 
L 3680 2912 
L 4051 3981 
L 4077 3981 
C 4045 3571 4000 3002 4000 2598 
L 4000 0 
L 4557 0 
L 4557 4698 
L 3840 4698 
L 2944 2182 
C 2835 1856 2733 1530 2624 1203 
L 2592 1203 
C 2477 1530 2368 1856 2259 2182 
L 1357 4698 
L 640 4698 
L 640 0 
z
" transform="scale(0.015625)"/>
       <path id="NotoSansCJKjp-Regular-64" d="M 1773 -83 
C 2189 -83 2554 141 2829 410 
L 2848 410 
L 2899 0 
L 3373 0 
L 3373 5094 
L 2797 5094 
L 2797 3757 
L 2822 3155 
C 2515 3411 2253 3565 1843 3565 
C 1050 3565 339 2861 339 1734 
C 339 576 902 -83 1773 -83 
z
M 1901 403 
C 1286 403 941 902 941 1741 
C 941 2534 1382 3072 1946 3072 
C 2234 3072 2496 2970 2797 2707 
L 2797 883 
C 2502 563 2221 403 1901 403 
z
" transform="scale(0.015625)"/>
      </defs>
      <use xlink:href="#NotoSansCJKjp-Regular-4d"/>
      <use xlink:href="#NotoSansCJKjp-Regular-69" transform="translate(81.199982 0)"/>
      <use xlink:href="#NotoSansCJKjp-Regular-64" transform="translate(108.699966 0)"/>
      <use xlink:href="#NotoSansCJKjp-Regular-64" transform="translate(170.699951 0)"/>
      <use xlink:href="#NotoSansCJKjp-Regular-6c" transform="translate(232.699936 0)"/>
      <use xlink:href="#NotoSansCJKjp-Regular-65" transform="translate(261.199921 0)"/>
     </g>
    </g>
    <g id="patch_6">
     <path d="M 54.710313 69.909375 
L 74.710313 69.909375 
L 74.710313 62.909375 
L 54.710313 62.909375 
z
" style="fill: url(#hacafdf8f59)"/>
    </g>
    <g id="text_17">
     <!-- End -->
     <g transform="translate(82.710313 69.909375) scale(0.1 -0.1)">
      <defs>
       <path id="NotoSansCJKjp-Regular-45" d="M 640 0 
L 3418 0 
L 3418 506 
L 1235 506 
L 1235 2214 
L 3014 2214 
L 3014 2720 
L 1235 2720 
L 1235 4192 
L 3347 4192 
L 3347 4698 
L 640 4698 
L 640 0 
z
" transform="scale(0.015625)"/>
      </defs>
      <use xlink:href="#NotoSansCJKjp-Regular-45"/>
      <use xlink:href="#NotoSansCJKjp-Regular-6e" transform="translate(58.799988 0)"/>
      <use xlink:href="#NotoSansCJKjp-Regular-64" transform="translate(119.899979 0)"/>
     </g>
    </g>
   </g>
  </g>
 </g>
 <defs>
  <clipPath id="p28a3999528">
   <rect x="45.710313" y="7.2" width="646.675" height="374.92"/>
  </clipPath>
 </defs>
 <defs>
  <pattern id="h645efe8431" patternUnits="userSpaceOnUse" x="0" y="0" width="72" height="72">
   <rect x="0" y="0" width="73" height="73" fill="#e6e6e6"/>
   <path d="M -36 36 
L 36 -36 
M -33 39 
L 39 -33 
M -30 42 
L 42 -30 
M -27 45 
L 45 -27 
M -24 48 
L 48 -24 
M -21 51 
L 51 -21 
M -18 54 
L 54 -18 
M -15 57 
L 57 -15 
M -12 60 
L 60 -12 
M -9 63 
L 63 -9 
M -6 66 
L 66 -6 
M -3 69 
L 69 -3 
M 0 72 
L 72 0 
M 3 75 
L 75 3 
M 6 78 
L 78 6 
M 9 81 
L 81 9 
M 12 84 
L 84 12 
M 15 87 
L 87 15 
M 18 90 
L 90 18 
M 21 93 
L 93 21 
M 24 96 
L 96 24 
M 27 99 
L 99 27 
M 30 102 
L 102 30 
M 33 105 
L 105 33 
M 36 108 
L 108 36 
" style="fill: #000000; stroke: #000000; stroke-width: 1.5; stroke-linecap: butt; stroke-linejoin: miter"/>
  </pattern>
  <pattern id="h7a7e14074d" patternUnits="userSpaceOnUse" x="0" y="0" width="72" height="72">
   <rect x="0" y="0" width="73" height="73" fill="#adadad"/>
   <path d="M -36 36 
L 36 108 
M -30 30 
L 42 102 
M -24 24 
L 48 96 
M -18 18 
L 54 90 
M -12 12 
L 60 84 
M -6 6 
L 66 78 
M 0 0 
L 72 72 
M 6 -6 
L 78 66 
M 12 -12 
L 84 60 
M 18 -18 
L 90 54 
M 24 -24 
L 96 48 
M 30 -30 
L 102 42 
M 36 -36 
L 108 36 
" style="fill: #000000; stroke: #000000; stroke-width: 1.5; stroke-linecap: butt; stroke-linejoin: miter"/>
  </pattern>
  <pattern id="hb9eff177b7" patternUnits="userSpaceOnUse" x="0" y="0" width="72" height="72">
   <rect x="0" y="0" width="73" height="73" fill="#737373"/>
   <path d="M -36 36 
L 36 -36 
M -33 39 
L 39 -33 
M -30 42 
L 42 -30 
M -27 45 
L 45 -27 
M -24 48 
L 48 -24 
M -21 51 
L 51 -21 
M -18 54 
L 54 -18 
M -15 57 
L 57 -15 
M -12 60 
L 60 -12 
M -9 63 
L 63 -9 
M -6 66 
L 66 -6 
M -3 69 
L 69 -3 
M 0 72 
L 72 0 
M 3 75 
L 75 3 
M 6 78 
L 78 6 
M 9 81 
L 81 9 
M 12 84 
L 84 12 
M 15 87 
L 87 15 
M 18 90 
L 90 18 
M 21 93 
L 93 21 
M 24 96 
L 96 24 
M 27 99 
L 99 27 
M 30 102 
L 102 30 
M 33 105 
L 105 33 
M 36 108 
L 108 36 
M -36 36 
L 36 108 
M -33 33 
L 39 105 
M -30 30 
L 42 102 
M -27 27 
L 45 99 
M -24 24 
L 48 96 
M -21 21 
L 51 93 
M -18 18 
L 54 90 
M -15 15 
L 57 87 
M -12 12 
L 60 84 
M -9 9 
L 63 81 
M -6 6 
L 66 78 
M -3 3 
L 69 75 
M 0 0 
L 72 72 
M 3 -3 
L 75 69 
M 6 -6 
L 78 66 
M 9 -9 
L 81 63 
M 12 -12 
L 84 60 
M 15 -15 
L 87 57 
M 18 -18 
L 90 54 
M 21 -21 
L 93 51 
M 24 -24 
L 96 48 
M 27 -27 
L 99 45 
M 30 -30 
L 102 42 
M 33 -33 
L 105 39 
M 36 -36 
L 108 36 
" style="fill: #000000; stroke: #000000; stroke-width: 1.5; stroke-linecap: butt; stroke-linejoin: miter"/>
  </pattern>
  <pattern id="hacafdf8f59" patternUnits="userSpaceOnUse" x="0" y="0" width="72" height="72">
   <rect x="0" y="0" width="73" height="73" fill="#383838"/>
   <path d="M 0 70.5 
L 72 70.5 
M 0 67.5 
L 72 67.5 
M 0 64.5 
L 72 64.5 
M 0 61.5 
L 72 61.5 
M 0 58.5 
L 72 58.5 
M 0 55.5 
L 72 55.5 
M 0 52.5 
L 72 52.5 
M 0 49.5 
L 72 49.5 
M 0 46.5 
L 72 46.5 
M 0 43.5 
L 72 43.5 
M 0 40.5 
L 72 40.5 
M 0 37.5 
L 72 37.5 
M 0 34.5 
L 72 34.5 
M 0 31.5 
L 72 31.5 
M 0 28.5 
L 72 28.5 
M 0 25.5 
L 72 25.5 
M 0 22.5 
L 72 22.5 
M 0 19.5 
L 72 19.5 
M 0 16.5 
L 72 16.5 
M 0 13.5 
L 72 13.5 
M 0 10.5 
L 72 10.5 
M 0 7.5 
L 72 7.5 
M 0 4.5 
L 72 4.5 
M 0 1.5 
L 72 1.5 
" style="fill: #000000; stroke: #000000; stroke-width: 1.5; stroke-linecap: butt; stroke-linejoin: miter"/>
  </pattern>
 </defs>
</svg>
