<?xml version="1.0" encoding="utf-8" standalone="no"?>
<!DOCTYPE svg PUBLIC "-//W3C//DTD SVG 1.1//EN"
  "http://www.w3.org/Graphics/SVG/1.1/DTD/svg11.dtd">
<svg xmlns:xlink="http://www.w3.org/1999/xlink" width="711.802656pt" height="350.328819pt" viewBox="0 0 711.802656 350.328819" xmlns="http://www.w3.org/2000/svg" version="1.1">
 <metadata>
  <rdf:RDF xmlns:dc="http://purl.org/dc/elements/1.1/" xmlns:cc="http://creativecommons.org/ns#" xmlns:rdf="http://www.w3.org/1999/02/22-rdf-syntax-ns#">
   <cc:Work>
    <dc:type rdf:resource="http://purl.org/dc/dcmitype/StillImage"/>
    <dc:date>2026-04-25T12:36:59.569175</dc:date>
    <dc:format>image/svg+xml</dc:format>
    <dc:creator>
     <cc:Agent>
      <dc:title>Matplotlib v3.10.7, https://matplotlib.org/</dc:title>
     </cc:Agent>
    </dc:creator>
   </cc:Work>
  </rdf:RDF>
 </metadata>
 <defs>
  <style type="text/css">*{stroke-linejoin: round; stroke-linecap: butt}</style>
 </defs>
 <g id="figure_1">
  <g id="patch_1">
   <path d="M 0 350.328819 
L 711.802656 350.328819 
L 711.802656 0 
L 0 0 
z
" style="fill: #ffffff"/>
  </g>
  <g id="axes_1">
   <g id="patch_2">
    <path d="M 50.847656 309.578819 
L 692.392656 309.578819 
L 692.392656 8.559338 
L 50.847656 8.559338 
z
" style="fill: #ffffff"/>
   </g>
   <g id="matplotlib.axis_1">
    <g id="xtick_1">
     <g id="text_1">
      <!-- 1990 -->
      <g transform="translate(96.959929 325.334131) scale(0.11 -0.11)">
       <defs>
        <path id="NotoSansCJKjp-Regular-31" d="M 563 0 
L 3136 0 
L 3136 486 
L 2195 486 
L 2195 4698 
L 1747 4698 
C 1491 4544 1190 4435 774 4358 
L 774 3987 
L 1606 3987 
L 1606 486 
L 563 486 
L 563 0 
z
" transform="scale(0.015625)"/>
        <path id="NotoSansCJKjp-Regular-39" d="M 832 3258 
C 832 3898 1178 4320 1626 4320 
C 2227 4320 2586 3808 2650 2842 
C 2349 2400 1990 2214 1670 2214 
C 1114 2214 832 2624 832 3258 
z
M 1498 -83 
C 2381 -83 3200 646 3200 2547 
C 3200 4038 2528 4781 1626 4781 
C 896 4781 282 4166 282 3258 
C 282 2285 794 1779 1574 1779 
C 1965 1779 2368 2003 2656 2355 
C 2611 902 2086 403 1478 403 
C 1178 403 890 538 698 762 
L 371 397 
C 634 122 992 -83 1498 -83 
z
" transform="scale(0.015625)"/>
        <path id="NotoSansCJKjp-Regular-30" d="M 1779 -83 
C 2669 -83 3238 730 3238 2362 
C 3238 3987 2669 4781 1779 4781 
C 883 4781 314 3994 314 2362 
C 314 730 883 -83 1779 -83 
z
M 1779 384 
C 1242 384 883 979 883 2362 
C 883 3731 1242 4314 1779 4314 
C 2310 4314 2669 3731 2669 2362 
C 2669 979 2310 384 1779 384 
z
" transform="scale(0.015625)"/>
       </defs>
       <use xlink:href="#NotoSansCJKjp-Regular-31"/>
       <use xlink:href="#NotoSansCJKjp-Regular-39" transform="translate(55.499985 0)"/>
       <use xlink:href="#NotoSansCJKjp-Regular-39" transform="translate(110.999969 0)"/>
       <use xlink:href="#NotoSansCJKjp-Regular-30" transform="translate(166.499954 0)"/>
      </g>
     </g>
    </g>
    <g id="xtick_2">
     <g id="text_2">
      <!-- 1992 -->
      <g transform="translate(169.86277 325.334131) scale(0.11 -0.11)">
       <defs>
        <path id="NotoSansCJKjp-Regular-32" d="M 282 0 
L 3232 0 
L 3232 506 
L 1933 506 
C 1696 506 1408 480 1165 461 
C 2266 1504 3002 2458 3002 3392 
C 3002 4230 2477 4781 1638 4781 
C 1043 4781 640 4506 256 4090 
L 595 3757 
C 851 4064 1184 4301 1568 4301 
C 2150 4301 2432 3910 2432 3373 
C 2432 2566 1754 1632 282 346 
L 282 0 
z
" transform="scale(0.015625)"/>
       </defs>
       <use xlink:href="#NotoSansCJKjp-Regular-31"/>
       <use xlink:href="#NotoSansCJKjp-Regular-39" transform="translate(55.499985 0)"/>
       <use xlink:href="#NotoSansCJKjp-Regular-39" transform="translate(110.999969 0)"/>
       <use xlink:href="#NotoSansCJKjp-Regular-32" transform="translate(166.499954 0)"/>
      </g>
     </g>
    </g>
    <g id="xtick_3">
     <g id="text_3">
      <!-- 1995 -->
      <g transform="translate(242.765611 325.334131) scale(0.11 -0.11)">
       <defs>
        <path id="NotoSansCJKjp-Regular-35" d="M 1670 -83 
C 2464 -83 3206 499 3206 1530 
C 3206 2560 2573 3021 1792 3021 
C 1510 3021 1306 2950 1094 2835 
L 1210 4192 
L 2982 4192 
L 2982 4698 
L 698 4698 
L 550 2496 
L 864 2304 
C 1133 2483 1331 2579 1645 2579 
C 2234 2579 2618 2182 2618 1510 
C 2618 826 2170 403 1619 403 
C 1075 403 736 653 467 922 
L 179 538 
C 493 224 941 -83 1670 -83 
z
" transform="scale(0.015625)"/>
       </defs>
       <use xlink:href="#NotoSansCJKjp-Regular-31"/>
       <use xlink:href="#NotoSansCJKjp-Regular-39" transform="translate(55.499985 0)"/>
       <use xlink:href="#NotoSansCJKjp-Regular-39" transform="translate(110.999969 0)"/>
       <use xlink:href="#NotoSansCJKjp-Regular-35" transform="translate(166.499954 0)"/>
      </g>
     </g>
    </g>
    <g id="xtick_4">
     <g id="text_4">
      <!-- 1997 -->
      <g transform="translate(315.668452 325.334131) scale(0.11 -0.11)">
       <defs>
        <path id="NotoSansCJKjp-Regular-37" d="M 1267 0 
L 1875 0 
C 1946 1837 2150 2931 3251 4339 
L 3251 4698 
L 314 4698 
L 314 4192 
L 2586 4192 
C 1670 2912 1344 1779 1267 0 
z
" transform="scale(0.015625)"/>
       </defs>
       <use xlink:href="#NotoSansCJKjp-Regular-31"/>
       <use xlink:href="#NotoSansCJKjp-Regular-39" transform="translate(55.499985 0)"/>
       <use xlink:href="#NotoSansCJKjp-Regular-39" transform="translate(110.999969 0)"/>
       <use xlink:href="#NotoSansCJKjp-Regular-37" transform="translate(166.499954 0)"/>
      </g>
     </g>
    </g>
    <g id="xtick_5">
     <g id="text_5">
      <!-- 2000 -->
      <g transform="translate(388.571293 325.334131) scale(0.11 -0.11)">
       <use xlink:href="#NotoSansCJKjp-Regular-32"/>
       <use xlink:href="#NotoSansCJKjp-Regular-30" transform="translate(55.499985 0)"/>
       <use xlink:href="#NotoSansCJKjp-Regular-30" transform="translate(110.999969 0)"/>
       <use xlink:href="#NotoSansCJKjp-Regular-30" transform="translate(166.499954 0)"/>
      </g>
     </g>
    </g>
    <g id="xtick_6">
     <g id="text_6">
      <!-- 2002 -->
      <g transform="translate(461.474134 325.334131) scale(0.11 -0.11)">
       <use xlink:href="#NotoSansCJKjp-Regular-32"/>
       <use xlink:href="#NotoSansCJKjp-Regular-30" transform="translate(55.499985 0)"/>
       <use xlink:href="#NotoSansCJKjp-Regular-30" transform="translate(110.999969 0)"/>
       <use xlink:href="#NotoSansCJKjp-Regular-32" transform="translate(166.499954 0)"/>
      </g>
     </g>
    </g>
    <g id="xtick_7">
     <g id="text_7">
      <!-- 2005 -->
      <g transform="translate(534.376974 325.334131) scale(0.11 -0.11)">
       <use xlink:href="#NotoSansCJKjp-Regular-32"/>
       <use xlink:href="#NotoSansCJKjp-Regular-30" transform="translate(55.499985 0)"/>
       <use xlink:href="#NotoSansCJKjp-Regular-30" transform="translate(110.999969 0)"/>
       <use xlink:href="#NotoSansCJKjp-Regular-35" transform="translate(166.499954 0)"/>
      </g>
     </g>
    </g>
    <g id="xtick_8">
     <g id="text_8">
      <!-- 2007 -->
      <g transform="translate(607.279815 325.334131) scale(0.11 -0.11)">
       <use xlink:href="#NotoSansCJKjp-Regular-32"/>
       <use xlink:href="#NotoSansCJKjp-Regular-30" transform="translate(55.499985 0)"/>
       <use xlink:href="#NotoSansCJKjp-Regular-30" transform="translate(110.999969 0)"/>
       <use xlink:href="#NotoSansCJKjp-Regular-37" transform="translate(166.499954 0)"/>
      </g>
     </g>
    </g>
    <g id="xtick_9">
     <g id="text_9">
      <!-- 2010 -->
      <g transform="translate(680.182656 325.334131) scale(0.11 -0.11)">
       <use xlink:href="#NotoSansCJKjp-Regular-32"/>
       <use xlink:href="#NotoSansCJKjp-Regular-30" transform="translate(55.499985 0)"/>
       <use xlink:href="#NotoSansCJKjp-Regular-31" transform="translate(110.999969 0)"/>
       <use xlink:href="#NotoSansCJKjp-Regular-30" transform="translate(166.499954 0)"/>
      </g>
     </g>
    </g>
    <g id="text_10">
     <!-- Year -->
     <g transform="translate(360.416484 340.609131) scale(0.11 -0.11)">
      <defs>
       <path id="NotoSansCJKjp-Regular-59" d="M 1402 0 
L 1997 0 
L 1997 1824 
L 3405 4698 
L 2790 4698 
L 2182 3366 
C 2042 3021 1882 2694 1715 2342 
L 1690 2342 
C 1523 2694 1382 3021 1229 3366 
L 627 4698 
L -6 4698 
L 1402 1824 
L 1402 0 
z
" transform="scale(0.015625)"/>
       <path id="NotoSansCJKjp-Regular-65" d="M 1990 -83 
C 2464 -83 2835 77 3142 275 
L 2931 659 
C 2675 486 2400 384 2061 384 
C 1402 384 947 858 909 1600 
L 3251 1600 
C 3264 1683 3277 1805 3277 1933 
C 3277 2925 2778 3565 1894 3565 
C 1088 3565 326 2861 326 1734 
C 326 589 1069 -83 1990 -83 
z
M 902 2022 
C 973 2701 1408 3098 1901 3098 
C 2445 3098 2765 2720 2765 2022 
L 902 2022 
z
" transform="scale(0.015625)"/>
       <path id="NotoSansCJKjp-Regular-61" d="M 1389 -83 
C 1818 -83 2208 141 2541 416 
L 2560 416 
L 2611 0 
L 3091 0 
L 3091 2138 
C 3091 2995 2733 3565 1888 3565 
C 1331 3565 838 3315 518 3110 
L 749 2707 
C 1024 2893 1389 3078 1792 3078 
C 2362 3078 2509 2650 2509 2202 
C 1030 2035 371 1658 371 902 
C 371 275 806 -83 1389 -83 
z
M 1555 384 
C 1210 384 941 544 941 941 
C 941 1389 1338 1677 2509 1818 
L 2509 845 
C 2170 544 1894 384 1555 384 
z
" transform="scale(0.015625)"/>
       <path id="NotoSansCJKjp-Regular-72" d="M 589 0 
L 1171 0 
L 1171 2234 
C 1402 2829 1760 3034 2048 3034 
C 2189 3034 2272 3021 2387 2976 
L 2496 3488 
C 2387 3546 2278 3565 2125 3565 
C 1734 3565 1382 3283 1139 2842 
L 1120 2842 
L 1069 3475 
L 589 3475 
L 589 0 
z
" transform="scale(0.015625)"/>
      </defs>
      <use xlink:href="#NotoSansCJKjp-Regular-59"/>
      <use xlink:href="#NotoSansCJKjp-Regular-65" transform="translate(53.099991 0)"/>
      <use xlink:href="#NotoSansCJKjp-Regular-61" transform="translate(108.499985 0)"/>
      <use xlink:href="#NotoSansCJKjp-Regular-72" transform="translate(164.899979 0)"/>
     </g>
    </g>
   </g>
   <g id="matplotlib.axis_2">
    <g id="ytick_1">
     <g id="line2d_1">
      <path d="M 50.847656 284.145421 
L 692.392656 284.145421 
" clip-path="url(#pb546feaaeb)" style="fill: none; stroke: #808080; stroke-opacity: 0.3; stroke-width: 0.4; stroke-linecap: round"/>
     </g>
     <g id="text_11">
      <!-- 0.03 -->
      <g transform="translate(22.475 288.523077) scale(0.11 -0.11)">
       <defs>
        <path id="NotoSansCJKjp-Regular-2e" d="M 890 -83 
C 1120 -83 1312 96 1312 358 
C 1312 627 1120 813 890 813 
C 659 813 467 627 467 358 
C 467 96 659 -83 890 -83 
z
" transform="scale(0.015625)"/>
        <path id="NotoSansCJKjp-Regular-33" d="M 1690 -83 
C 2522 -83 3194 416 3194 1254 
C 3194 1894 2752 2317 2202 2445 
L 2202 2470 
C 2694 2656 3034 3034 3034 3603 
C 3034 4346 2458 4781 1670 4781 
C 1126 4781 710 4544 358 4218 
L 672 3846 
C 934 4115 1267 4301 1645 4301 
C 2131 4301 2438 4006 2438 3558 
C 2438 3053 2106 2662 1139 2662 
L 1139 2214 
C 2221 2214 2598 1837 2598 1280 
C 2598 736 2202 403 1645 403 
C 1114 403 755 653 480 941 
L 186 557 
C 493 224 954 -83 1690 -83 
z
" transform="scale(0.015625)"/>
       </defs>
       <use xlink:href="#NotoSansCJKjp-Regular-30"/>
       <use xlink:href="#NotoSansCJKjp-Regular-2e" transform="translate(55.499985 0)"/>
       <use xlink:href="#NotoSansCJKjp-Regular-30" transform="translate(83.299973 0)"/>
       <use xlink:href="#NotoSansCJKjp-Regular-33" transform="translate(138.799957 0)"/>
      </g>
     </g>
    </g>
    <g id="ytick_2">
     <g id="line2d_2">
      <path d="M 50.847656 250.07445 
L 692.392656 250.07445 
" clip-path="url(#pb546feaaeb)" style="fill: none; stroke: #808080; stroke-opacity: 0.3; stroke-width: 0.4; stroke-linecap: round"/>
     </g>
     <g id="text_12">
      <!-- 0.04 -->
      <g transform="translate(22.475 254.452106) scale(0.11 -0.11)">
       <defs>
        <path id="NotoSansCJKjp-Regular-34" d="M 736 1760 
L 1805 3360 
C 1939 3590 2067 3821 2182 4051 
L 2208 4051 
C 2195 3808 2176 3430 2176 3200 
L 2176 1760 
L 736 1760 
z
M 2176 0 
L 2726 0 
L 2726 1293 
L 3347 1293 
L 3347 1760 
L 2726 1760 
L 2726 4698 
L 2080 4698 
L 128 1677 
L 128 1293 
L 2176 1293 
L 2176 0 
z
" transform="scale(0.015625)"/>
       </defs>
       <use xlink:href="#NotoSansCJKjp-Regular-30"/>
       <use xlink:href="#NotoSansCJKjp-Regular-2e" transform="translate(55.499985 0)"/>
       <use xlink:href="#NotoSansCJKjp-Regular-30" transform="translate(83.299973 0)"/>
       <use xlink:href="#NotoSansCJKjp-Regular-34" transform="translate(138.799957 0)"/>
      </g>
     </g>
    </g>
    <g id="ytick_3">
     <g id="line2d_3">
      <path d="M 50.847656 216.003479 
L 692.392656 216.003479 
" clip-path="url(#pb546feaaeb)" style="fill: none; stroke: #808080; stroke-opacity: 0.3; stroke-width: 0.4; stroke-linecap: round"/>
     </g>
     <g id="text_13">
      <!-- 0.05 -->
      <g transform="translate(22.475 220.381136) scale(0.11 -0.11)">
       <use xlink:href="#NotoSansCJKjp-Regular-30"/>
       <use xlink:href="#NotoSansCJKjp-Regular-2e" transform="translate(55.499985 0)"/>
       <use xlink:href="#NotoSansCJKjp-Regular-30" transform="translate(83.299973 0)"/>
       <use xlink:href="#NotoSansCJKjp-Regular-35" transform="translate(138.799957 0)"/>
      </g>
     </g>
    </g>
    <g id="ytick_4">
     <g id="line2d_4">
      <path d="M 50.847656 181.932509 
L 692.392656 181.932509 
" clip-path="url(#pb546feaaeb)" style="fill: none; stroke: #808080; stroke-opacity: 0.3; stroke-width: 0.4; stroke-linecap: round"/>
     </g>
     <g id="text_14">
      <!-- 0.06 -->
      <g transform="translate(22.475 186.310165) scale(0.11 -0.11)">
       <defs>
        <path id="NotoSansCJKjp-Regular-36" d="M 1875 2477 
C 2445 2477 2726 2074 2726 1440 
C 2726 800 2374 371 1926 371 
C 1338 371 986 902 915 1875 
C 1203 2304 1581 2477 1875 2477 
z
M 1926 -83 
C 2656 -83 3270 531 3270 1440 
C 3270 2419 2765 2912 1971 2912 
C 1600 2912 1190 2694 902 2342 
C 928 3802 1472 4294 2112 4294 
C 2400 4294 2682 4160 2867 3936 
L 3187 4301 
C 2931 4576 2579 4781 2093 4781 
C 1184 4781 358 4077 358 2240 
C 358 691 1024 -83 1926 -83 
z
" transform="scale(0.015625)"/>
       </defs>
       <use xlink:href="#NotoSansCJKjp-Regular-30"/>
       <use xlink:href="#NotoSansCJKjp-Regular-2e" transform="translate(55.499985 0)"/>
       <use xlink:href="#NotoSansCJKjp-Regular-30" transform="translate(83.299973 0)"/>
       <use xlink:href="#NotoSansCJKjp-Regular-36" transform="translate(138.799957 0)"/>
      </g>
     </g>
    </g>
    <g id="ytick_5">
     <g id="line2d_5">
      <path d="M 50.847656 147.861538 
L 692.392656 147.861538 
" clip-path="url(#pb546feaaeb)" style="fill: none; stroke: #808080; stroke-opacity: 0.3; stroke-width: 0.4; stroke-linecap: round"/>
     </g>
     <g id="text_15">
      <!-- 0.07 -->
      <g transform="translate(22.475 152.239195) scale(0.11 -0.11)">
       <use xlink:href="#NotoSansCJKjp-Regular-30"/>
       <use xlink:href="#NotoSansCJKjp-Regular-2e" transform="translate(55.499985 0)"/>
       <use xlink:href="#NotoSansCJKjp-Regular-30" transform="translate(83.299973 0)"/>
       <use xlink:href="#NotoSansCJKjp-Regular-37" transform="translate(138.799957 0)"/>
      </g>
     </g>
    </g>
    <g id="ytick_6">
     <g id="line2d_6">
      <path d="M 50.847656 113.790568 
L 692.392656 113.790568 
" clip-path="url(#pb546feaaeb)" style="fill: none; stroke: #808080; stroke-opacity: 0.3; stroke-width: 0.4; stroke-linecap: round"/>
     </g>
     <g id="text_16">
      <!-- 0.08 -->
      <g transform="translate(22.475 118.168224) scale(0.11 -0.11)">
       <defs>
        <path id="NotoSansCJKjp-Regular-38" d="M 1786 -83 
C 2669 -83 3258 448 3258 1133 
C 3258 1773 2874 2125 2464 2362 
L 2464 2394 
C 2746 2611 3091 3034 3091 3526 
C 3091 4250 2605 4762 1805 4762 
C 1075 4762 518 4288 518 3571 
C 518 3078 806 2726 1152 2490 
L 1152 2458 
C 723 2227 288 1792 288 1165 
C 288 442 922 -83 1786 -83 
z
M 2106 2547 
C 1555 2765 1050 3008 1050 3571 
C 1050 4026 1363 4333 1798 4333 
C 2304 4333 2592 3955 2592 3494 
C 2592 3149 2426 2829 2106 2547 
z
M 1798 352 
C 1235 352 819 717 819 1216 
C 819 1664 1082 2035 1459 2278 
C 2125 2010 2701 1773 2701 1146 
C 2701 678 2336 352 1798 352 
z
" transform="scale(0.015625)"/>
       </defs>
       <use xlink:href="#NotoSansCJKjp-Regular-30"/>
       <use xlink:href="#NotoSansCJKjp-Regular-2e" transform="translate(55.499985 0)"/>
       <use xlink:href="#NotoSansCJKjp-Regular-30" transform="translate(83.299973 0)"/>
       <use xlink:href="#NotoSansCJKjp-Regular-38" transform="translate(138.799957 0)"/>
      </g>
     </g>
    </g>
    <g id="ytick_7">
     <g id="line2d_7">
      <path d="M 50.847656 79.719597 
L 692.392656 79.719597 
" clip-path="url(#pb546feaaeb)" style="fill: none; stroke: #808080; stroke-opacity: 0.3; stroke-width: 0.4; stroke-linecap: round"/>
     </g>
     <g id="text_17">
      <!-- 0.09 -->
      <g transform="translate(22.475 84.097254) scale(0.11 -0.11)">
       <use xlink:href="#NotoSansCJKjp-Regular-30"/>
       <use xlink:href="#NotoSansCJKjp-Regular-2e" transform="translate(55.499985 0)"/>
       <use xlink:href="#NotoSansCJKjp-Regular-30" transform="translate(83.299973 0)"/>
       <use xlink:href="#NotoSansCJKjp-Regular-39" transform="translate(138.799957 0)"/>
      </g>
     </g>
    </g>
    <g id="ytick_8">
     <g id="line2d_8">
      <path d="M 50.847656 45.648627 
L 692.392656 45.648627 
" clip-path="url(#pb546feaaeb)" style="fill: none; stroke: #808080; stroke-opacity: 0.3; stroke-width: 0.4; stroke-linecap: round"/>
     </g>
     <g id="text_18">
      <!-- 0.10 -->
      <g transform="translate(22.475 50.026283) scale(0.11 -0.11)">
       <use xlink:href="#NotoSansCJKjp-Regular-30"/>
       <use xlink:href="#NotoSansCJKjp-Regular-2e" transform="translate(55.499985 0)"/>
       <use xlink:href="#NotoSansCJKjp-Regular-31" transform="translate(83.299973 0)"/>
       <use xlink:href="#NotoSansCJKjp-Regular-30" transform="translate(138.799957 0)"/>
      </g>
     </g>
    </g>
    <g id="ytick_9">
     <g id="line2d_9">
      <path d="M 50.847656 11.577656 
L 692.392656 11.577656 
" clip-path="url(#pb546feaaeb)" style="fill: none; stroke: #808080; stroke-opacity: 0.3; stroke-width: 0.4; stroke-linecap: round"/>
     </g>
     <g id="text_19">
      <!-- 0.11 -->
      <g transform="translate(22.475 15.955312) scale(0.11 -0.11)">
       <use xlink:href="#NotoSansCJKjp-Regular-30"/>
       <use xlink:href="#NotoSansCJKjp-Regular-2e" transform="translate(55.499985 0)"/>
       <use xlink:href="#NotoSansCJKjp-Regular-31" transform="translate(83.299973 0)"/>
       <use xlink:href="#NotoSansCJKjp-Regular-31" transform="translate(138.799957 0)"/>
      </g>
     </g>
    </g>
    <g id="text_20">
     <!-- Genderedness -->
     <g transform="translate(15.955312 195.870094) rotate(-90) scale(0.11 -0.11)">
      <defs>
       <path id="NotoSansCJKjp-Regular-47" d="M 2483 -83 
C 3117 -83 3635 147 3936 461 
L 3936 2432 
L 2400 2432 
L 2400 1939 
L 3392 1939 
L 3392 710 
C 3206 538 2880 435 2547 435 
C 1536 435 979 1178 979 2362 
C 979 3533 1594 4262 2534 4262 
C 3014 4262 3315 4064 3552 3814 
L 3872 4198 
C 3603 4486 3174 4781 2522 4781 
C 1280 4781 371 3859 371 2342 
C 371 819 1254 -83 2483 -83 
z
" transform="scale(0.015625)"/>
       <path id="NotoSansCJKjp-Regular-6e" d="M 589 0 
L 1171 0 
L 1171 2522 
C 1523 2874 1766 3053 2125 3053 
C 2586 3053 2784 2778 2784 2125 
L 2784 0 
L 3366 0 
L 3366 2202 
C 3366 3091 3034 3565 2304 3565 
C 1830 3565 1472 3302 1139 2976 
L 1120 2976 
L 1069 3475 
L 589 3475 
L 589 0 
z
" transform="scale(0.015625)"/>
       <path id="NotoSansCJKjp-Regular-64" d="M 1773 -83 
C 2189 -83 2554 141 2829 410 
L 2848 410 
L 2899 0 
L 3373 0 
L 3373 5094 
L 2797 5094 
L 2797 3757 
L 2822 3155 
C 2515 3411 2253 3565 1843 3565 
C 1050 3565 339 2861 339 1734 
C 339 576 902 -83 1773 -83 
z
M 1901 403 
C 1286 403 941 902 941 1741 
C 941 2534 1382 3072 1946 3072 
C 2234 3072 2496 2970 2797 2707 
L 2797 883 
C 2502 563 2221 403 1901 403 
z
" transform="scale(0.015625)"/>
       <path id="NotoSansCJKjp-Regular-73" d="M 1498 -83 
C 2317 -83 2765 384 2765 947 
C 2765 1606 2208 1811 1702 2003 
C 1312 2150 954 2272 954 2605 
C 954 2874 1158 3104 1600 3104 
C 1907 3104 2150 2976 2387 2797 
L 2669 3174 
C 2400 3386 2022 3565 1594 3565 
C 838 3565 390 3130 390 2579 
C 390 1990 922 1754 1408 1574 
C 1792 1427 2202 1274 2202 915 
C 2202 614 1978 371 1517 371 
C 1101 371 787 538 486 781 
L 198 397 
C 531 122 1005 -83 1498 -83 
z
" transform="scale(0.015625)"/>
      </defs>
      <use xlink:href="#NotoSansCJKjp-Regular-47"/>
      <use xlink:href="#NotoSansCJKjp-Regular-65" transform="translate(68.899994 0)"/>
      <use xlink:href="#NotoSansCJKjp-Regular-6e" transform="translate(124.299988 0)"/>
      <use xlink:href="#NotoSansCJKjp-Regular-64" transform="translate(185.399979 0)"/>
      <use xlink:href="#NotoSansCJKjp-Regular-65" transform="translate(247.399963 0)"/>
      <use xlink:href="#NotoSansCJKjp-Regular-72" transform="translate(302.799957 0)"/>
      <use xlink:href="#NotoSansCJKjp-Regular-65" transform="translate(341.599945 0)"/>
      <use xlink:href="#NotoSansCJKjp-Regular-64" transform="translate(396.999939 0)"/>
      <use xlink:href="#NotoSansCJKjp-Regular-6e" transform="translate(458.999924 0)"/>
      <use xlink:href="#NotoSansCJKjp-Regular-65" transform="translate(520.099915 0)"/>
      <use xlink:href="#NotoSansCJKjp-Regular-73" transform="translate(575.499908 0)"/>
      <use xlink:href="#NotoSansCJKjp-Regular-73" transform="translate(622.299896 0)"/>
     </g>
    </g>
   </g>
   <g id="line2d_10">
    <path d="M 80.008793 242.178199 
L 83.909948 249.723589 
L 87.811103 256.789121 
L 91.712259 263.172911 
L 93.662836 266.046065 
L 95.613414 268.673078 
L 97.563992 271.028714 
L 99.514569 273.087739 
L 101.465147 274.824916 
L 103.415725 276.215011 
L 105.366302 277.232789 
L 107.31688 277.853013 
L 109.267458 278.05089 
L 113.168613 277.858655 
L 117.069769 277.32828 
L 120.970924 276.500785 
L 124.872079 275.417192 
L 128.773235 274.118519 
L 134.624968 271.85697 
L 138.526123 270.196679 
L 140.476701 268.951947 
L 142.427278 267.119714 
L 144.377856 264.801034 
L 146.328434 262.096959 
L 150.229589 255.936846 
L 156.081322 246.332577 
L 158.0319 243.438276 
L 159.982478 240.865961 
L 161.933055 238.716686 
L 163.883633 237.091503 
L 165.834211 236.091468 
L 167.784788 235.809237 
L 171.685944 235.963911 
L 175.587099 236.357412 
L 179.488254 236.947541 
L 185.339988 238.109108 
L 193.142298 239.952226 
L 197.043454 240.90905 
L 198.994031 241.510618 
L 200.944609 242.272142 
L 204.845764 244.152937 
L 216.54923 250.45916 
L 218.499808 251.286443 
L 220.450386 251.968382 
L 222.400963 252.474449 
L 224.351541 252.774113 
L 226.302119 252.839756 
L 228.252697 252.717952 
L 230.203274 252.449762 
L 234.10443 251.552433 
L 238.005585 250.304183 
L 251.659629 245.429985 
L 255.560784 244.534873 
L 259.461939 243.913315 
L 265.313673 243.20873 
L 275.066561 242.125731 
L 278.967716 241.543878 
L 282.868872 240.784195 
L 284.819449 240.301981 
L 286.770027 239.555121 
L 288.720605 238.52052 
L 290.671182 237.234534 
L 292.62176 235.733516 
L 296.522915 232.231798 
L 300.424071 228.306192 
L 306.275804 222.259183 
L 310.176959 218.546233 
L 312.127537 216.894336 
L 316.028692 214.053191 
L 319.929848 211.540316 
L 327.732158 206.933541 
L 333.583891 203.339074 
L 337.485047 200.635442 
L 341.386202 197.536029 
L 343.33678 195.783464 
L 345.287358 193.7813 
L 347.237935 191.53892 
L 351.139091 186.466323 
L 355.040246 180.831303 
L 366.743712 163.207959 
L 370.644867 157.979506 
L 374.546023 153.051965 
L 378.447178 147.621408 
L 384.298911 139.29959 
L 388.200067 134.21209 
L 390.150644 131.955005 
L 392.101222 129.955054 
L 394.0518 128.261754 
L 396.002377 126.924622 
L 397.952955 125.993175 
L 399.903533 125.51693 
L 401.85411 125.486085 
L 403.804688 125.629256 
L 407.705843 126.246599 
L 411.606999 127.173732 
L 421.359887 129.810975 
L 425.261043 130.579267 
L 427.21162 130.82307 
L 429.162198 130.947003 
L 431.112776 130.908668 
L 433.063353 130.614834 
L 435.013931 130.080574 
L 436.964509 129.332263 
L 438.915086 128.396278 
L 440.865664 127.298994 
L 444.766819 124.726035 
L 448.667975 121.824395 
L 456.470285 115.879097 
L 466.223174 108.966665 
L 474.025485 102.794358 
L 481.827795 96.656177 
L 485.728951 93.808487 
L 489.630106 91.210176 
L 495.481839 87.636506 
L 503.28415 83.214314 
L 516.938194 75.588298 
L 520.839349 73.182506 
L 526.691082 69.191108 
L 534.493393 63.850124 
L 538.394548 61.471737 
L 542.295704 59.466043 
L 544.246281 58.644664 
L 546.196859 57.966508 
L 550.098014 56.911216 
L 555.949747 55.655832 
L 563.752058 54.330195 
L 573.504946 52.681361 
L 581.307257 51.035118 
L 593.010723 48.368166 
L 604.714189 45.490661 
L 608.615345 44.396103 
L 614.467078 42.476579 
L 622.269389 39.855277 
L 626.170544 38.714021 
L 630.071699 37.801806 
L 633.972855 37.205717 
L 645.676321 36.130187 
L 653.478631 35.628263 
L 661.280942 35.38659 
L 663.23152 35.375699 
L 663.23152 35.375699 
" clip-path="url(#pb546feaaeb)" style="fill: none; stroke-dasharray: 2.5,4.125; stroke-dashoffset: 0; stroke: #000000; stroke-width: 2.5"/>
   </g>
   <g id="line2d_11">
    <path d="M 80.008793 234.183166 
L 83.909948 231.596625 
L 87.811103 229.220995 
L 91.712259 227.109911 
L 95.613414 225.31701 
L 99.514569 223.895931 
L 103.415725 222.90031 
L 105.366302 222.578807 
L 107.31688 222.383784 
L 109.267458 222.321916 
L 113.168613 222.546962 
L 117.069769 223.114431 
L 122.921502 224.331528 
L 128.773235 225.608983 
L 132.67439 226.283754 
L 136.575545 226.669755 
L 140.476701 226.682577 
L 144.377856 226.467012 
L 150.229589 225.832859 
L 156.081322 224.928705 
L 167.784788 222.772088 
L 171.685944 221.768068 
L 175.587099 220.395936 
L 187.290565 215.815535 
L 191.191721 214.71562 
L 193.142298 214.34384 
L 195.092876 214.119923 
L 197.043454 214.065464 
L 198.994031 214.184205 
L 200.944609 214.453598 
L 204.845764 215.348308 
L 208.74692 216.557526 
L 216.54923 219.151224 
L 220.450386 220.15157 
L 222.400963 220.493588 
L 224.351541 220.698159 
L 228.252697 220.686303 
L 232.153852 220.364554 
L 236.055007 219.821 
L 241.90674 218.726718 
L 255.560784 215.964834 
L 265.313673 214.149063 
L 280.918294 211.216403 
L 288.720605 210.015719 
L 302.374648 208.269972 
L 312.127537 206.910622 
L 316.028692 206.214325 
L 319.929848 205.306505 
L 333.583891 201.839764 
L 337.485047 201.182911 
L 341.386202 200.859377 
L 345.287358 200.881876 
L 351.139091 201.162038 
L 368.69429 202.300879 
L 372.595445 202.331057 
L 376.4966 202.063178 
L 380.397756 201.510446 
L 386.249489 200.340299 
L 396.002377 198.216023 
L 399.903533 197.562804 
L 405.755266 196.900754 
L 417.458732 195.922591 
L 425.261043 195.16392 
L 431.112776 194.344662 
L 435.013931 193.527562 
L 438.915086 192.473624 
L 442.816242 191.227574 
L 448.667975 189.096128 
L 458.420863 185.216776 
L 460.371441 184.403336 
L 462.322019 183.442036 
L 466.223174 181.162412 
L 477.92664 173.660998 
L 479.877218 172.634048 
L 481.827795 171.752141 
L 483.778373 171.045742 
L 485.728951 170.54532 
L 487.679528 170.281342 
L 497.432417 170.0356 
L 513.037038 169.846395 
L 518.888771 169.866352 
L 522.789927 170.20054 
L 526.691082 170.812156 
L 542.295704 173.684307 
L 546.196859 173.921614 
L 550.098014 173.848999 
L 555.949747 173.468141 
L 571.554369 172.128463 
L 575.455524 172.006499 
L 612.5165 171.724312 
L 632.022277 170.884531 
L 637.87401 170.922782 
L 643.725743 171.192567 
L 649.577476 171.661358 
L 657.379787 172.536763 
L 663.23152 173.336665 
L 663.23152 173.336665 
" clip-path="url(#pb546feaaeb)" style="fill: none; stroke-dasharray: 16,4,2.5,4; stroke-dashoffset: 0; stroke: #000000; stroke-width: 2.5"/>
   </g>
   <g id="line2d_12">
    <path d="M 80.008793 295.896115 
L 663.23152 22.242042 
" clip-path="url(#pb546feaaeb)" style="fill: none; stroke: #000000; stroke-opacity: 0.85; stroke-width: 1.5; stroke-linecap: round"/>
   </g>
   <g id="line2d_13">
    <path d="M 80.008793 232.339307 
L 663.23152 163.527157 
" clip-path="url(#pb546feaaeb)" style="fill: none; stroke: #000000; stroke-opacity: 0.85; stroke-width: 1.5; stroke-linecap: round"/>
   </g>
   <g id="PathCollection_1">
    <defs>
     <path id="C0_0_36c87b156c" d="M -2.12132 2.12132 
L 2.12132 2.12132 
L 2.12132 -2.12132 
L -2.12132 -2.12132 
z
"/>
    </defs>
    <g clip-path="url(#pb546feaaeb)">
     <use xlink:href="#C0_0_36c87b156c" x="80.008793" y="242.178199" style="fill: none; stroke: #000000; stroke-width: 1.2"/>
    </g>
    <g clip-path="url(#pb546feaaeb)">
     <use xlink:href="#C0_0_36c87b156c" x="109.169929" y="278.051008" style="fill: none; stroke: #000000; stroke-width: 1.2"/>
    </g>
    <g clip-path="url(#pb546feaaeb)">
     <use xlink:href="#C0_0_36c87b156c" x="138.331065" y="270.284949" style="fill: none; stroke: #000000; stroke-width: 1.2"/>
    </g>
    <g clip-path="url(#pb546feaaeb)">
     <use xlink:href="#C0_0_36c87b156c" x="167.492202" y="235.808441" style="fill: none; stroke: #000000; stroke-width: 1.2"/>
    </g>
    <g clip-path="url(#pb546feaaeb)">
     <use xlink:href="#C0_0_36c87b156c" x="196.653338" y="240.810618" style="fill: none; stroke: #000000; stroke-width: 1.2"/>
    </g>
    <g clip-path="url(#pb546feaaeb)">
     <use xlink:href="#C0_0_36c87b156c" x="225.814474" y="252.845044" style="fill: none; stroke: #000000; stroke-width: 1.2"/>
    </g>
    <g clip-path="url(#pb546feaaeb)">
     <use xlink:href="#C0_0_36c87b156c" x="254.975611" y="244.643301" style="fill: none; stroke: #000000; stroke-width: 1.2"/>
    </g>
    <g clip-path="url(#pb546feaaeb)">
     <use xlink:href="#C0_0_36c87b156c" x="284.136747" y="240.488677" style="fill: none; stroke: #000000; stroke-width: 1.2"/>
    </g>
    <g clip-path="url(#pb546feaaeb)">
     <use xlink:href="#C0_0_36c87b156c" x="313.297884" y="215.989603" style="fill: none; stroke: #000000; stroke-width: 1.2"/>
    </g>
    <g clip-path="url(#pb546feaaeb)">
     <use xlink:href="#C0_0_36c87b156c" x="342.45902" y="196.597221" style="fill: none; stroke: #000000; stroke-width: 1.2"/>
    </g>
    <g clip-path="url(#pb546feaaeb)">
     <use xlink:href="#C0_0_36c87b156c" x="371.620156" y="156.781658" style="fill: none; stroke: #000000; stroke-width: 1.2"/>
    </g>
    <g clip-path="url(#pb546feaaeb)">
     <use xlink:href="#C0_0_36c87b156c" x="400.781293" y="125.464323" style="fill: none; stroke: #000000; stroke-width: 1.2"/>
    </g>
    <g clip-path="url(#pb546feaaeb)">
     <use xlink:href="#C0_0_36c87b156c" x="429.942429" y="130.958592" style="fill: none; stroke: #000000; stroke-width: 1.2"/>
    </g>
    <g clip-path="url(#pb546feaaeb)">
     <use xlink:href="#C0_0_36c87b156c" x="459.103565" y="114.063184" style="fill: none; stroke: #000000; stroke-width: 1.2"/>
    </g>
    <g clip-path="url(#pb546feaaeb)">
     <use xlink:href="#C0_0_36c87b156c" x="488.264702" y="92.091079" style="fill: none; stroke: #000000; stroke-width: 1.2"/>
    </g>
    <g clip-path="url(#pb546feaaeb)">
     <use xlink:href="#C0_0_36c87b156c" x="517.425838" y="75.302904" style="fill: none; stroke: #000000; stroke-width: 1.2"/>
    </g>
    <g clip-path="url(#pb546feaaeb)">
     <use xlink:href="#C0_0_36c87b156c" x="546.586974" y="57.849531" style="fill: none; stroke: #000000; stroke-width: 1.2"/>
    </g>
    <g clip-path="url(#pb546feaaeb)">
     <use xlink:href="#C0_0_36c87b156c" x="575.748111" y="52.230118" style="fill: none; stroke: #000000; stroke-width: 1.2"/>
    </g>
    <g clip-path="url(#pb546feaaeb)">
     <use xlink:href="#C0_0_36c87b156c" x="604.909247" y="45.44088" style="fill: none; stroke: #000000; stroke-width: 1.2"/>
    </g>
    <g clip-path="url(#pb546feaaeb)">
     <use xlink:href="#C0_0_36c87b156c" x="634.070384" y="37.195618" style="fill: none; stroke: #000000; stroke-width: 1.2"/>
    </g>
    <g clip-path="url(#pb546feaaeb)">
     <use xlink:href="#C0_0_36c87b156c" x="663.23152" y="35.375699" style="fill: none; stroke: #000000; stroke-width: 1.2"/>
    </g>
   </g>
   <g id="PathCollection_2">
    <defs>
     <path id="m9bfaa4413a" d="M 0 2.12132 
C 0.562581 2.12132 1.102195 1.897805 1.5 1.5 
C 1.897805 1.102195 2.12132 0.562581 2.12132 0 
C 2.12132 -0.562581 1.897805 -1.102195 1.5 -1.5 
C 1.102195 -1.897805 0.562581 -2.12132 0 -2.12132 
C -0.562581 -2.12132 -1.102195 -1.897805 -1.5 -1.5 
C -1.897805 -1.102195 -2.12132 -0.562581 -2.12132 0 
C -2.12132 0.562581 -1.897805 1.102195 -1.5 1.5 
C -1.102195 1.897805 -0.562581 2.12132 0 2.12132 
z
" style="stroke: #000000; stroke-width: 1.2"/>
    </defs>
    <g clip-path="url(#pb546feaaeb)">
     <use xlink:href="#m9bfaa4413a" x="80.008793" y="234.183166" style="stroke: #000000; stroke-width: 1.2"/>
     <use xlink:href="#m9bfaa4413a" x="109.169929" y="222.321769" style="stroke: #000000; stroke-width: 1.2"/>
     <use xlink:href="#m9bfaa4413a" x="138.331065" y="226.715609" style="stroke: #000000; stroke-width: 1.2"/>
     <use xlink:href="#m9bfaa4413a" x="167.492202" y="222.827685" style="stroke: #000000; stroke-width: 1.2"/>
     <use xlink:href="#m9bfaa4413a" x="196.653338" y="214.061907" style="stroke: #000000; stroke-width: 1.2"/>
     <use xlink:href="#m9bfaa4413a" x="225.814474" y="220.746945" style="stroke: #000000; stroke-width: 1.2"/>
     <use xlink:href="#m9bfaa4413a" x="254.975611" y="216.065875" style="stroke: #000000; stroke-width: 1.2"/>
     <use xlink:href="#m9bfaa4413a" x="284.136747" y="210.689914" style="stroke: #000000; stroke-width: 1.2"/>
     <use xlink:href="#m9bfaa4413a" x="313.297884" y="206.723848" style="stroke: #000000; stroke-width: 1.2"/>
     <use xlink:href="#m9bfaa4413a" x="342.45902" y="200.842257" style="stroke: #000000; stroke-width: 1.2"/>
     <use xlink:href="#m9bfaa4413a" x="371.620156" y="202.343176" style="stroke: #000000; stroke-width: 1.2"/>
     <use xlink:href="#m9bfaa4413a" x="400.781293" y="197.446405" style="stroke: #000000; stroke-width: 1.2"/>
     <use xlink:href="#m9bfaa4413a" x="429.942429" y="194.536923" style="stroke: #000000; stroke-width: 1.2"/>
     <use xlink:href="#m9bfaa4413a" x="459.103565" y="184.944485" style="stroke: #000000; stroke-width: 1.2"/>
     <use xlink:href="#m9bfaa4413a" x="488.264702" y="170.25281" style="stroke: #000000; stroke-width: 1.2"/>
     <use xlink:href="#m9bfaa4413a" x="517.425838" y="169.836525" style="stroke: #000000; stroke-width: 1.2"/>
     <use xlink:href="#m9bfaa4413a" x="546.586974" y="173.923789" style="stroke: #000000; stroke-width: 1.2"/>
     <use xlink:href="#m9bfaa4413a" x="575.748111" y="172.004394" style="stroke: #000000; stroke-width: 1.2"/>
     <use xlink:href="#m9bfaa4413a" x="604.909247" y="171.92335" style="stroke: #000000; stroke-width: 1.2"/>
     <use xlink:href="#m9bfaa4413a" x="634.070384" y="170.870368" style="stroke: #000000; stroke-width: 1.2"/>
     <use xlink:href="#m9bfaa4413a" x="663.23152" y="173.336665" style="stroke: #000000; stroke-width: 1.2"/>
    </g>
   </g>
   <g id="legend_1">
    <g id="line2d_14">
     <path d="M 59.847656 22.018713 
L 69.847656 22.018713 
L 79.847656 22.018713 
" style="fill: none; stroke-dasharray: 2.5,4.125; stroke-dashoffset: 0; stroke: #000000; stroke-width: 2.5"/>
    </g>
    <g id="text_21">
     <!-- Boys -->
     <g transform="translate(87.847656 25.518713) scale(0.1 -0.1)">
      <defs>
       <path id="NotoSansCJKjp-Regular-42" d="M 640 0 
L 2138 0 
C 3187 0 3917 454 3917 1376 
C 3917 2016 3520 2387 2963 2496 
L 2963 2528 
C 3398 2669 3648 3078 3648 3546 
C 3648 4371 2989 4698 2035 4698 
L 640 4698 
L 640 0 
z
M 1235 2694 
L 1235 4224 
L 1958 4224 
C 2688 4224 3066 4019 3066 3469 
C 3066 2995 2739 2694 1933 2694 
L 1235 2694 
z
M 1235 474 
L 1235 2246 
L 2054 2246 
C 2874 2246 3334 1978 3334 1395 
C 3334 762 2861 474 2054 474 
L 1235 474 
z
" transform="scale(0.015625)"/>
       <path id="NotoSansCJKjp-Regular-6f" d="M 1939 -83 
C 2790 -83 3552 582 3552 1734 
C 3552 2893 2790 3565 1939 3565 
C 1088 3565 326 2893 326 1734 
C 326 582 1088 -83 1939 -83 
z
M 1939 403 
C 1338 403 934 934 934 1734 
C 934 2534 1338 3078 1939 3078 
C 2541 3078 2950 2534 2950 1734 
C 2950 934 2541 403 1939 403 
z
" transform="scale(0.015625)"/>
       <path id="NotoSansCJKjp-Regular-79" d="M 646 -1498 
C 1338 -1498 1702 -973 1939 -288 
L 3251 3475 
L 2682 3475 
L 2061 1542 
C 1965 1235 1862 883 1766 570 
L 1734 570 
C 1626 883 1504 1242 1402 1542 
L 691 3475 
L 83 3475 
L 1478 -6 
L 1402 -269 
C 1261 -698 1011 -1018 614 -1018 
C 525 -1018 422 -986 352 -960 
L 237 -1427 
C 346 -1472 480 -1498 646 -1498 
z
" transform="scale(0.015625)"/>
      </defs>
      <use xlink:href="#NotoSansCJKjp-Regular-42"/>
      <use xlink:href="#NotoSansCJKjp-Regular-6f" transform="translate(65.699997 0)"/>
      <use xlink:href="#NotoSansCJKjp-Regular-79" transform="translate(126.299988 0)"/>
      <use xlink:href="#NotoSansCJKjp-Regular-73" transform="translate(178.399979 0)"/>
     </g>
    </g>
    <g id="line2d_15">
     <path d="M 59.847656 37.318713 
L 69.847656 37.318713 
L 79.847656 37.318713 
" style="fill: none; stroke-dasharray: 16,4,2.5,4; stroke-dashoffset: 0; stroke: #000000; stroke-width: 2.5"/>
    </g>
    <g id="text_22">
     <!-- Girls -->
     <g transform="translate(87.847656 40.818713) scale(0.1 -0.1)">
      <defs>
       <path id="NotoSansCJKjp-Regular-69" d="M 589 0 
L 1171 0 
L 1171 3475 
L 589 3475 
L 589 0 
z
M 883 4192 
C 1114 4192 1274 4346 1274 4582 
C 1274 4806 1114 4960 883 4960 
C 653 4960 493 4806 493 4582 
C 493 4346 653 4192 883 4192 
z
" transform="scale(0.015625)"/>
       <path id="NotoSansCJKjp-Regular-6c" d="M 1203 -83 
C 1363 -83 1459 -64 1542 -32 
L 1459 416 
C 1395 403 1370 403 1338 403 
C 1248 403 1171 474 1171 653 
L 1171 5094 
L 589 5094 
L 589 691 
C 589 198 768 -83 1203 -83 
z
" transform="scale(0.015625)"/>
      </defs>
      <use xlink:href="#NotoSansCJKjp-Regular-47"/>
      <use xlink:href="#NotoSansCJKjp-Regular-69" transform="translate(68.899994 0)"/>
      <use xlink:href="#NotoSansCJKjp-Regular-72" transform="translate(96.399979 0)"/>
      <use xlink:href="#NotoSansCJKjp-Regular-6c" transform="translate(135.199966 0)"/>
      <use xlink:href="#NotoSansCJKjp-Regular-73" transform="translate(163.699951 0)"/>
     </g>
    </g>
   </g>
  </g>
 </g>
 <defs>
  <clipPath id="pb546feaaeb">
   <rect x="50.847656" y="8.559338" width="641.545" height="301.01948"/>
  </clipPath>
 </defs>
</svg>
