<?xml version="1.0" encoding="utf-8" standalone="no"?>
<!DOCTYPE svg PUBLIC "-//W3C//DTD SVG 1.1//EN"
  "http://www.w3.org/Graphics/SVG/1.1/DTD/svg11.dtd">
<svg xmlns:xlink="http://www.w3.org/1999/xlink" width="314.141607pt" height="217.083125pt" viewBox="0 0 314.141607 217.083125" xmlns="http://www.w3.org/2000/svg" version="1.1">
 <metadata>
  <rdf:RDF xmlns:dc="http://purl.org/dc/elements/1.1/" xmlns:cc="http://creativecommons.org/ns#" xmlns:rdf="http://www.w3.org/1999/02/22-rdf-syntax-ns#">
   <cc:Work>
    <dc:type rdf:resource="http://purl.org/dc/dcmitype/StillImage"/>
    <dc:date>2026-04-28T10:06:40.444930</dc:date>
    <dc:format>image/svg+xml</dc:format>
    <dc:creator>
     <cc:Agent>
      <dc:title>Matplotlib v3.10.7, https://matplotlib.org/</dc:title>
     </cc:Agent>
    </dc:creator>
   </cc:Work>
  </rdf:RDF>
 </metadata>
 <defs>
  <style type="text/css">*{stroke-linejoin: round; stroke-linecap: butt}</style>
 </defs>
 <g id="figure_1">
  <g id="patch_1">
   <path d="M 0 217.083125 
L 314.141607 217.083125 
L 314.141607 0 
L 0 0 
z
" style="fill: #ffffff"/>
  </g>
  <g id="axes_1">
   <g id="patch_2">
    <path d="M 35.442813 182.68 
L 301.018482 182.68 
L 301.018482 7.2 
L 35.442813 7.2 
z
" style="fill: #ffffff"/>
   </g>
   <g id="matplotlib.axis_1">
    <g id="xtick_1">
     <g id="line2d_1">
      <defs>
       <path id="mc78efbabff" d="M 0 0 
L 0 3.5 
" style="stroke: #000000; stroke-width: 0.8"/>
      </defs>
      <g>
       <use xlink:href="#mc78efbabff" x="47.514434" y="182.68" style="stroke: #000000; stroke-width: 0.8"/>
      </g>
     </g>
     <g id="text_1">
      <!-- 1989 -->
      <g transform="translate(41.591309 194.18) scale(0.06 -0.06)">
       <defs>
        <path id="RobotoCondensed-Regular-31" d="M 2013 4575 
L 2013 0 
L 1459 0 
L 1459 3853 
L 503 3428 
L 503 3950 
L 1928 4575 
L 2013 4575 
z
" transform="scale(0.015625)"/>
        <path id="RobotoCondensed-Regular-39" d="M 2744 2563 
Q 2744 2119 2687 1667 
Q 2631 1216 2450 836 
Q 2269 456 1903 225 
Q 1538 -6 869 -6 
L 866 484 
Q 1428 484 1698 690 
Q 1969 897 2072 1233 
Q 2175 1569 2191 1950 
Q 1859 1522 1413 1522 
Q 1025 1522 786 1747 
Q 547 1972 436 2320 
Q 325 2669 325 3041 
Q 325 3691 623 4152 
Q 922 4613 1522 4613 
Q 1969 4613 2237 4344 
Q 2506 4075 2625 3653 
Q 2744 3231 2744 2772 
L 2744 2563 
z
M 866 3072 
Q 866 2666 1020 2334 
Q 1175 2003 1506 2003 
Q 1716 2003 1906 2179 
Q 2097 2356 2194 2616 
L 2194 2850 
Q 2194 3472 1983 3803 
Q 1772 4134 1522 4134 
Q 1206 4134 1036 3829 
Q 866 3525 866 3072 
z
" transform="scale(0.015625)"/>
        <path id="RobotoCondensed-Regular-38" d="M 2794 1231 
Q 2794 606 2445 271 
Q 2097 -63 1578 -63 
Q 1063 -63 714 273 
Q 366 609 366 1231 
Q 366 1613 536 1905 
Q 706 2197 1000 2347 
Q 450 2666 450 3366 
Q 450 3963 769 4288 
Q 1088 4613 1581 4613 
Q 2075 4613 2392 4288 
Q 2709 3963 2709 3366 
Q 2709 3028 2557 2761 
Q 2406 2494 2150 2344 
Q 2444 2194 2619 1901 
Q 2794 1609 2794 1231 
z
M 2156 3356 
Q 2156 3697 2000 3917 
Q 1844 4138 1581 4138 
Q 1319 4138 1161 3927 
Q 1003 3716 1003 3356 
Q 1003 3003 1159 2790 
Q 1316 2578 1581 2578 
Q 1844 2578 2000 2790 
Q 2156 3003 2156 3356 
z
M 2244 1244 
Q 2244 1625 2061 1865 
Q 1878 2106 1575 2106 
Q 1266 2106 1091 1865 
Q 916 1625 916 1244 
Q 916 850 1089 631 
Q 1263 413 1578 413 
Q 1897 413 2070 631 
Q 2244 850 2244 1244 
z
" transform="scale(0.015625)"/>
       </defs>
       <use xlink:href="#RobotoCondensed-Regular-31"/>
       <use xlink:href="#RobotoCondensed-Regular-39" transform="translate(49.365234 0)"/>
       <use xlink:href="#RobotoCondensed-Regular-38" transform="translate(98.730469 0)"/>
       <use xlink:href="#RobotoCondensed-Regular-39" transform="translate(148.095703 0)"/>
      </g>
     </g>
    </g>
    <g id="xtick_2">
     <g id="line2d_2">
      <g>
       <use xlink:href="#mc78efbabff" x="83.729298" y="182.68" style="stroke: #000000; stroke-width: 0.8"/>
      </g>
     </g>
     <g id="text_2">
      <!-- 1992 -->
      <g transform="translate(77.806173 194.18) scale(0.06 -0.06)">
       <defs>
        <path id="RobotoCondensed-Regular-32" d="M 2909 475 
L 2909 0 
L 366 0 
L 366 416 
L 1628 2088 
Q 1966 2541 2077 2802 
Q 2188 3063 2188 3328 
Q 2188 3663 2027 3900 
Q 1866 4138 1575 4138 
Q 1194 4138 1022 3878 
Q 850 3619 850 3213 
L 297 3213 
Q 297 3788 617 4200 
Q 938 4613 1575 4613 
Q 2125 4613 2433 4278 
Q 2741 3944 2741 3397 
Q 2741 2997 2541 2594 
Q 2341 2191 2047 1809 
L 1028 475 
L 2909 475 
z
" transform="scale(0.015625)"/>
       </defs>
       <use xlink:href="#RobotoCondensed-Regular-31"/>
       <use xlink:href="#RobotoCondensed-Regular-39" transform="translate(49.365234 0)"/>
       <use xlink:href="#RobotoCondensed-Regular-39" transform="translate(98.730469 0)"/>
       <use xlink:href="#RobotoCondensed-Regular-32" transform="translate(148.095703 0)"/>
      </g>
     </g>
    </g>
    <g id="xtick_3">
     <g id="line2d_3">
      <g>
       <use xlink:href="#mc78efbabff" x="119.944162" y="182.68" style="stroke: #000000; stroke-width: 0.8"/>
      </g>
     </g>
     <g id="text_3">
      <!-- 1995 -->
      <g transform="translate(114.021037 194.18) scale(0.06 -0.06)">
       <defs>
        <path id="RobotoCondensed-Regular-35" d="M 1034 2166 
L 594 2284 
L 788 4550 
L 2769 4550 
L 2769 4016 
L 1253 4016 
L 1147 2778 
Q 1438 2975 1753 2975 
Q 2288 2975 2591 2561 
Q 2894 2147 2894 1450 
Q 2894 797 2584 367 
Q 2275 -63 1656 -63 
Q 1194 -63 850 248 
Q 506 559 453 1197 
L 975 1197 
Q 1066 413 1656 413 
Q 1978 413 2159 691 
Q 2341 969 2341 1444 
Q 2341 1872 2153 2164 
Q 1966 2456 1619 2456 
Q 1384 2456 1273 2378 
Q 1163 2300 1034 2166 
z
" transform="scale(0.015625)"/>
       </defs>
       <use xlink:href="#RobotoCondensed-Regular-31"/>
       <use xlink:href="#RobotoCondensed-Regular-39" transform="translate(49.365234 0)"/>
       <use xlink:href="#RobotoCondensed-Regular-39" transform="translate(98.730469 0)"/>
       <use xlink:href="#RobotoCondensed-Regular-35" transform="translate(148.095703 0)"/>
      </g>
     </g>
    </g>
    <g id="xtick_4">
     <g id="line2d_4">
      <g>
       <use xlink:href="#mc78efbabff" x="156.159026" y="182.68" style="stroke: #000000; stroke-width: 0.8"/>
      </g>
     </g>
     <g id="text_4">
      <!-- 1998 -->
      <g transform="translate(150.235901 194.18) scale(0.06 -0.06)">
       <use xlink:href="#RobotoCondensed-Regular-31"/>
       <use xlink:href="#RobotoCondensed-Regular-39" transform="translate(49.365234 0)"/>
       <use xlink:href="#RobotoCondensed-Regular-39" transform="translate(98.730469 0)"/>
       <use xlink:href="#RobotoCondensed-Regular-38" transform="translate(148.095703 0)"/>
      </g>
     </g>
    </g>
    <g id="xtick_5">
     <g id="line2d_5">
      <g>
       <use xlink:href="#mc78efbabff" x="192.37389" y="182.68" style="stroke: #000000; stroke-width: 0.8"/>
      </g>
     </g>
     <g id="text_5">
      <!-- 2001 -->
      <g transform="translate(186.450765 194.18) scale(0.06 -0.06)">
       <defs>
        <path id="RobotoCondensed-Regular-30" d="M 2797 1944 
Q 2797 825 2467 381 
Q 2138 -63 1581 -63 
Q 1038 -63 703 370 
Q 369 803 359 1878 
L 359 2638 
Q 359 3753 695 4183 
Q 1031 4613 1578 4613 
Q 2131 4613 2461 4189 
Q 2791 3766 2797 2681 
L 2797 1944 
z
M 2247 2734 
Q 2247 3503 2073 3822 
Q 1900 4141 1578 4141 
Q 1266 4141 1092 3833 
Q 919 3525 913 2791 
L 913 1850 
Q 913 1088 1089 750 
Q 1266 413 1581 413 
Q 1903 413 2072 738 
Q 2241 1063 2247 1794 
L 2247 2734 
z
" transform="scale(0.015625)"/>
       </defs>
       <use xlink:href="#RobotoCondensed-Regular-32"/>
       <use xlink:href="#RobotoCondensed-Regular-30" transform="translate(49.365234 0)"/>
       <use xlink:href="#RobotoCondensed-Regular-30" transform="translate(98.730469 0)"/>
       <use xlink:href="#RobotoCondensed-Regular-31" transform="translate(148.095703 0)"/>
      </g>
     </g>
    </g>
    <g id="xtick_6">
     <g id="line2d_6">
      <g>
       <use xlink:href="#mc78efbabff" x="228.588754" y="182.68" style="stroke: #000000; stroke-width: 0.8"/>
      </g>
     </g>
     <g id="text_6">
      <!-- 2004 -->
      <g transform="translate(222.665629 194.18) scale(0.06 -0.06)">
       <defs>
        <path id="RobotoCondensed-Regular-34" d="M 188 1397 
L 1878 4550 
L 2463 4550 
L 2463 1531 
L 2969 1531 
L 2969 1056 
L 2463 1056 
L 2463 0 
L 1909 0 
L 1909 1056 
L 188 1056 
L 188 1397 
z
M 803 1531 
L 1909 1531 
L 1909 3703 
L 1878 3638 
L 803 1531 
z
" transform="scale(0.015625)"/>
       </defs>
       <use xlink:href="#RobotoCondensed-Regular-32"/>
       <use xlink:href="#RobotoCondensed-Regular-30" transform="translate(49.365234 0)"/>
       <use xlink:href="#RobotoCondensed-Regular-30" transform="translate(98.730469 0)"/>
       <use xlink:href="#RobotoCondensed-Regular-34" transform="translate(148.095703 0)"/>
      </g>
     </g>
    </g>
    <g id="xtick_7">
     <g id="line2d_7">
      <g>
       <use xlink:href="#mc78efbabff" x="264.803618" y="182.68" style="stroke: #000000; stroke-width: 0.8"/>
      </g>
     </g>
     <g id="text_7">
      <!-- 2007 -->
      <g transform="translate(258.880493 194.18) scale(0.06 -0.06)">
       <defs>
        <path id="RobotoCondensed-Regular-37" d="M 2878 4550 
L 2878 4225 
L 1313 0 
L 731 0 
L 2297 4075 
L 269 4075 
L 269 4550 
L 2878 4550 
z
" transform="scale(0.015625)"/>
       </defs>
       <use xlink:href="#RobotoCondensed-Regular-32"/>
       <use xlink:href="#RobotoCondensed-Regular-30" transform="translate(49.365234 0)"/>
       <use xlink:href="#RobotoCondensed-Regular-30" transform="translate(98.730469 0)"/>
       <use xlink:href="#RobotoCondensed-Regular-37" transform="translate(148.095703 0)"/>
      </g>
     </g>
    </g>
    <g id="xtick_8">
     <g id="line2d_8">
      <g>
       <use xlink:href="#mc78efbabff" x="301.018482" y="182.68" style="stroke: #000000; stroke-width: 0.8"/>
      </g>
     </g>
     <g id="text_8">
      <!-- 2010 -->
      <g transform="translate(295.095357 194.18) scale(0.06 -0.06)">
       <use xlink:href="#RobotoCondensed-Regular-32"/>
       <use xlink:href="#RobotoCondensed-Regular-30" transform="translate(49.365234 0)"/>
       <use xlink:href="#RobotoCondensed-Regular-31" transform="translate(98.730469 0)"/>
       <use xlink:href="#RobotoCondensed-Regular-30" transform="translate(148.095703 0)"/>
      </g>
     </g>
    </g>
    <g id="text_9">
     <!-- Year -->
     <g transform="translate(158.455257 207.64875) scale(0.11 -0.11)">
      <defs>
       <path id="RobotoCondensed-Regular-59" d="M 747 4550 
L 1675 2266 
L 2606 4550 
L 3256 4550 
L 1963 1700 
L 1963 0 
L 1388 0 
L 1388 1700 
L 94 4550 
L 747 4550 
z
" transform="scale(0.015625)"/>
       <path id="RobotoCondensed-Regular-65" d="M 2722 447 
Q 2584 253 2323 95 
Q 2063 -63 1625 -63 
Q 1019 -63 666 301 
Q 313 666 309 1431 
L 309 1828 
Q 309 2722 696 3083 
Q 1084 3444 1563 3444 
Q 2197 3444 2472 3034 
Q 2747 2625 2747 1850 
L 2747 1528 
L 863 1528 
L 863 1447 
Q 863 906 1067 657 
Q 1272 409 1656 409 
Q 1934 409 2114 517 
Q 2294 625 2431 794 
L 2722 447 
z
M 1563 2969 
Q 1275 2969 1084 2770 
Q 894 2572 866 2000 
L 2194 2000 
L 2194 2078 
Q 2172 2469 2048 2719 
Q 1925 2969 1563 2969 
z
" transform="scale(0.015625)"/>
       <path id="RobotoCondensed-Regular-61" d="M 2156 0 
Q 2103 122 2081 366 
Q 1966 194 1775 65 
Q 1584 -63 1334 -63 
Q 891 -63 623 187 
Q 356 438 356 922 
Q 356 1409 690 1729 
Q 1025 2050 1691 2050 
L 2072 2050 
L 2072 2413 
Q 2072 2713 1936 2841 
Q 1800 2969 1528 2969 
Q 1263 2969 1114 2812 
Q 966 2656 966 2444 
L 413 2444 
Q 413 2806 722 3125 
Q 1031 3444 1556 3444 
Q 2025 3444 2325 3209 
Q 2625 2975 2625 2406 
L 2625 794 
Q 2625 316 2728 50 
L 2728 0 
L 2156 0 
z
M 1419 441 
Q 1653 441 1825 562 
Q 1997 684 2072 834 
L 2072 1644 
L 1781 1644 
Q 1384 1644 1146 1475 
Q 909 1306 909 991 
Q 909 688 1036 564 
Q 1163 441 1419 441 
z
" transform="scale(0.015625)"/>
       <path id="RobotoCondensed-Regular-72" d="M 1563 2888 
Q 1138 2888 969 2425 
L 969 0 
L 416 0 
L 416 3381 
L 950 3381 
L 963 3041 
Q 1184 3444 1591 3444 
Q 1738 3444 1809 3400 
L 1813 2863 
Q 1691 2888 1563 2888 
z
" transform="scale(0.015625)"/>
      </defs>
      <use xlink:href="#RobotoCondensed-Regular-59"/>
      <use xlink:href="#RobotoCondensed-Regular-65" transform="translate(52.490234 0)"/>
      <use xlink:href="#RobotoCondensed-Regular-61" transform="translate(99.365234 0)"/>
      <use xlink:href="#RobotoCondensed-Regular-72" transform="translate(147.265625 0)"/>
     </g>
    </g>
   </g>
   <g id="matplotlib.axis_2">
    <g id="ytick_1">
     <g id="line2d_9">
      <path d="M 35.442813 182.68 
L 301.018482 182.68 
" clip-path="url(#pddb11d2e17)" style="fill: none; stroke: #808080; stroke-opacity: 0.3; stroke-width: 0.5; stroke-linecap: square"/>
     </g>
     <g id="line2d_10">
      <defs>
       <path id="m9807e9b72e" d="M 0 0 
L -3.5 0 
" style="stroke: #000000; stroke-width: 0.8"/>
      </defs>
      <g>
       <use xlink:href="#m9807e9b72e" x="35.442813" y="182.68" style="stroke: #000000; stroke-width: 0.8"/>
      </g>
     </g>
     <g id="text_10">
      <!-- 0% -->
      <g transform="translate(21.684375 184.93) scale(0.06 -0.06)">
       <defs>
        <path id="RobotoCondensed-Regular-25" d="M 334 3675 
Q 334 4063 545 4339 
Q 756 4616 1128 4616 
Q 1506 4616 1717 4339 
Q 1928 4063 1928 3675 
L 1928 3434 
Q 1928 3053 1718 2776 
Q 1509 2500 1134 2500 
Q 759 2500 546 2776 
Q 334 3053 334 3434 
L 334 3675 
z
M 741 3434 
Q 741 3219 836 3047 
Q 931 2875 1134 2875 
Q 1331 2875 1426 3045 
Q 1522 3216 1522 3434 
L 1522 3675 
Q 1522 3894 1425 4067 
Q 1328 4241 1128 4241 
Q 931 4241 836 4067 
Q 741 3894 741 3675 
L 741 3434 
z
M 3116 3903 
L 1250 347 
L 944 553 
L 2813 4109 
L 3116 3903 
z
M 2172 1116 
Q 2172 1500 2384 1776 
Q 2597 2053 2969 2053 
Q 3344 2053 3555 1776 
Q 3766 1500 3766 1116 
L 3766 872 
Q 3766 488 3555 211 
Q 3344 -66 2972 -66 
Q 2597 -66 2384 211 
Q 2172 488 2172 872 
L 2172 1116 
z
M 2578 872 
Q 2578 653 2675 481 
Q 2772 309 2972 309 
Q 3169 309 3264 479 
Q 3359 650 3359 872 
L 3359 1116 
Q 3359 1338 3262 1508 
Q 3166 1678 2969 1678 
Q 2772 1678 2675 1508 
Q 2578 1338 2578 1116 
L 2578 872 
z
" transform="scale(0.015625)"/>
       </defs>
       <use xlink:href="#RobotoCondensed-Regular-30"/>
       <use xlink:href="#RobotoCondensed-Regular-25" transform="translate(49.365234 0)"/>
      </g>
     </g>
    </g>
    <g id="ytick_2">
     <g id="line2d_11">
      <path d="M 35.442813 112.488 
L 301.018482 112.488 
" clip-path="url(#pddb11d2e17)" style="fill: none; stroke: #808080; stroke-opacity: 0.3; stroke-width: 0.5; stroke-linecap: square"/>
     </g>
     <g id="line2d_12">
      <g>
       <use xlink:href="#m9807e9b72e" x="35.442813" y="112.488" style="stroke: #000000; stroke-width: 0.8"/>
      </g>
     </g>
     <g id="text_11">
      <!-- 2% -->
      <g transform="translate(21.684375 114.738) scale(0.06 -0.06)">
       <use xlink:href="#RobotoCondensed-Regular-32"/>
       <use xlink:href="#RobotoCondensed-Regular-25" transform="translate(49.365234 0)"/>
      </g>
     </g>
    </g>
    <g id="ytick_3">
     <g id="line2d_13">
      <path d="M 35.442813 42.296 
L 301.018482 42.296 
" clip-path="url(#pddb11d2e17)" style="fill: none; stroke: #808080; stroke-opacity: 0.3; stroke-width: 0.5; stroke-linecap: square"/>
     </g>
     <g id="line2d_14">
      <g>
       <use xlink:href="#m9807e9b72e" x="35.442813" y="42.296" style="stroke: #000000; stroke-width: 0.8"/>
      </g>
     </g>
     <g id="text_12">
      <!-- 4% -->
      <g transform="translate(21.684375 44.546) scale(0.06 -0.06)">
       <use xlink:href="#RobotoCondensed-Regular-34"/>
       <use xlink:href="#RobotoCondensed-Regular-25" transform="translate(49.365234 0)"/>
      </g>
     </g>
    </g>
    <g id="text_13">
     <!-- Proportion -->
     <g transform="translate(15.45 117.889609) rotate(-90) scale(0.11 -0.11)">
      <defs>
       <path id="RobotoCondensed-Regular-50" d="M 1066 1784 
L 1066 0 
L 491 0 
L 491 4550 
L 1941 4550 
Q 2600 4550 2951 4159 
Q 3303 3769 3303 3163 
Q 3303 2506 2954 2147 
Q 2606 1788 1950 1784 
L 1066 1784 
z
M 1066 4056 
L 1066 2275 
L 1941 2275 
Q 2359 2275 2543 2522 
Q 2728 2769 2728 3156 
Q 2728 3506 2543 3781 
Q 2359 4056 1941 4056 
L 1066 4056 
z
" transform="scale(0.015625)"/>
       <path id="RobotoCondensed-Regular-6f" d="M 300 1850 
Q 300 2641 678 3042 
Q 1056 3444 1603 3444 
Q 2156 3444 2536 3042 
Q 2916 2641 2916 1850 
L 2916 1528 
Q 2916 738 2536 337 
Q 2156 -63 1609 -63 
Q 1059 -63 679 337 
Q 300 738 300 1528 
L 300 1850 
z
M 853 1528 
Q 853 969 1068 689 
Q 1284 409 1609 409 
Q 2341 409 2363 1466 
L 2363 1850 
Q 2363 2403 2145 2686 
Q 1928 2969 1603 2969 
Q 1281 2969 1067 2686 
Q 853 2403 853 1850 
L 853 1528 
z
" transform="scale(0.015625)"/>
       <path id="RobotoCondensed-Regular-70" d="M 1750 -63 
Q 1244 -63 969 325 
L 969 -1300 
L 416 -1300 
L 416 3381 
L 919 3381 
L 947 3013 
Q 1222 3444 1744 3444 
Q 2275 3444 2562 3073 
Q 2850 2703 2859 1897 
L 2859 1528 
Q 2859 725 2570 331 
Q 2281 -63 1750 -63 
z
M 1572 2956 
Q 1181 2956 969 2559 
L 969 797 
Q 1178 409 1578 409 
Q 2288 409 2306 1472 
L 2306 1844 
Q 2306 2956 1572 2956 
z
" transform="scale(0.015625)"/>
       <path id="RobotoCondensed-Regular-74" d="M 1647 0 
Q 1488 -63 1259 -63 
Q 991 -63 789 134 
Q 588 331 588 841 
L 588 2938 
L 72 2938 
L 72 3381 
L 588 3381 
L 588 4203 
L 1141 4203 
L 1141 3381 
L 1650 3381 
L 1650 2938 
L 1141 2938 
L 1141 838 
Q 1141 578 1230 506 
Q 1319 434 1431 434 
Q 1550 434 1650 472 
L 1647 0 
z
" transform="scale(0.015625)"/>
       <path id="RobotoCondensed-Regular-69" d="M 428 4278 
Q 428 4419 506 4516 
Q 584 4613 741 4613 
Q 894 4613 975 4516 
Q 1056 4419 1056 4278 
Q 1056 4144 975 4048 
Q 894 3953 741 3953 
Q 584 3953 506 4048 
Q 428 4144 428 4278 
z
M 1009 3381 
L 1009 0 
L 459 0 
L 459 3381 
L 1009 3381 
z
" transform="scale(0.015625)"/>
       <path id="RobotoCondensed-Regular-6e" d="M 1603 2956 
Q 1400 2956 1236 2818 
Q 1072 2681 969 2459 
L 969 0 
L 416 0 
L 416 3381 
L 938 3381 
L 953 3022 
Q 1275 3444 1775 3444 
Q 2191 3444 2437 3162 
Q 2684 2881 2684 2216 
L 2684 0 
L 2131 0 
L 2131 2222 
Q 2131 2619 2000 2787 
Q 1869 2956 1603 2956 
z
" transform="scale(0.015625)"/>
      </defs>
      <use xlink:href="#RobotoCondensed-Regular-50"/>
      <use xlink:href="#RobotoCondensed-Regular-72" transform="translate(55.419922 0)"/>
      <use xlink:href="#RobotoCondensed-Regular-6f" transform="translate(85.888672 0)"/>
      <use xlink:href="#RobotoCondensed-Regular-70" transform="translate(136.083984 0)"/>
      <use xlink:href="#RobotoCondensed-Regular-6f" transform="translate(185.400391 0)"/>
      <use xlink:href="#RobotoCondensed-Regular-72" transform="translate(235.595703 0)"/>
      <use xlink:href="#RobotoCondensed-Regular-74" transform="translate(266.064453 0)"/>
      <use xlink:href="#RobotoCondensed-Regular-69" transform="translate(295.654297 0)"/>
      <use xlink:href="#RobotoCondensed-Regular-6f" transform="translate(318.603516 0)"/>
      <use xlink:href="#RobotoCondensed-Regular-6e" transform="translate(368.798828 0)"/>
     </g>
    </g>
   </g>
   <g id="FillBetweenPolyCollection_1">
    <defs>
     <path id="m928c5d9391" d="M 47.514434 -34.427445 
L 47.514434 -34.403125 
L 48.3219 -34.403125 
L 49.129366 -34.403125 
L 49.936833 -34.403125 
L 50.744299 -34.403125 
L 51.551765 -34.403125 
L 52.359232 -34.403125 
L 53.166698 -34.403125 
L 53.974164 -34.403125 
L 54.781631 -34.403125 
L 55.589097 -34.403125 
L 56.396563 -34.403125 
L 57.20403 -34.403125 
L 58.011496 -34.403125 
L 58.818962 -34.403125 
L 59.626428 -34.403125 
L 60.433895 -34.403125 
L 61.241361 -34.403125 
L 62.048827 -34.403125 
L 62.856294 -34.403125 
L 63.66376 -34.403125 
L 64.471226 -34.403125 
L 65.278693 -34.403125 
L 66.086159 -34.403125 
L 66.893625 -34.403125 
L 67.701092 -34.403125 
L 68.508558 -34.403125 
L 69.316024 -34.403125 
L 70.123491 -34.403125 
L 70.930957 -34.403125 
L 71.738423 -34.403125 
L 72.545889 -34.403125 
L 73.353356 -34.403125 
L 74.160822 -34.403125 
L 74.968288 -34.403125 
L 75.775755 -34.403125 
L 76.583221 -34.403125 
L 77.390687 -34.403125 
L 78.198154 -34.403125 
L 79.00562 -34.403125 
L 79.813086 -34.403125 
L 80.620553 -34.403125 
L 81.428019 -34.403125 
L 82.235485 -34.403125 
L 83.042951 -34.403125 
L 83.850418 -34.403125 
L 84.657884 -34.403125 
L 85.46535 -34.403125 
L 86.272817 -34.403125 
L 87.080283 -34.403125 
L 87.887749 -34.403125 
L 88.695216 -34.403125 
L 89.502682 -34.403125 
L 90.310148 -34.403125 
L 91.117615 -34.403125 
L 91.925081 -34.403125 
L 92.732547 -34.403125 
L 93.540013 -34.403125 
L 94.34748 -34.403125 
L 95.154946 -34.403125 
L 95.962412 -34.403125 
L 96.769879 -34.403125 
L 97.577345 -34.403125 
L 98.384811 -34.403125 
L 99.192278 -34.403125 
L 99.999744 -34.403125 
L 100.80721 -34.403125 
L 101.614677 -34.403125 
L 102.422143 -34.403125 
L 103.229609 -34.403125 
L 104.037076 -34.403125 
L 104.844542 -34.403125 
L 105.652008 -34.403125 
L 106.459474 -34.403125 
L 107.266941 -34.403125 
L 108.074407 -34.403125 
L 108.881873 -34.403125 
L 109.68934 -34.403125 
L 110.496806 -34.403125 
L 111.304272 -34.403125 
L 112.111739 -34.403125 
L 112.919205 -34.403125 
L 113.726671 -34.403125 
L 114.534138 -34.403125 
L 115.341604 -34.403125 
L 116.14907 -34.403125 
L 116.956536 -34.403125 
L 117.764003 -34.403125 
L 118.571469 -34.403125 
L 119.378935 -34.403125 
L 120.186402 -34.403125 
L 120.993868 -34.403125 
L 121.801334 -34.403125 
L 122.608801 -34.403125 
L 123.416267 -34.403125 
L 124.223733 -34.403125 
L 125.0312 -34.403125 
L 125.838666 -34.403125 
L 126.646132 -34.403125 
L 127.453599 -34.403125 
L 128.261065 -34.403125 
L 129.068531 -34.403125 
L 129.875997 -34.403125 
L 130.683464 -34.403125 
L 131.49093 -34.403125 
L 132.298396 -34.403125 
L 133.105863 -34.403125 
L 133.913329 -34.403125 
L 134.720795 -34.403125 
L 135.528262 -34.403125 
L 136.335728 -34.403125 
L 137.143194 -34.403125 
L 137.950661 -34.403125 
L 138.758127 -34.403125 
L 139.565593 -34.403125 
L 140.373059 -34.403125 
L 141.180526 -34.403125 
L 141.987992 -34.403125 
L 142.795458 -34.403125 
L 143.602925 -34.403125 
L 144.410391 -34.403125 
L 145.217857 -34.403125 
L 146.025324 -34.403125 
L 146.83279 -34.403125 
L 147.640256 -34.403125 
L 148.447723 -34.403125 
L 149.255189 -34.403125 
L 150.062655 -34.403125 
L 150.870121 -34.403125 
L 151.677588 -34.403125 
L 152.485054 -34.403125 
L 153.29252 -34.403125 
L 154.099987 -34.403125 
L 154.907453 -34.403125 
L 155.714919 -34.403125 
L 156.522386 -34.403125 
L 157.329852 -34.403125 
L 158.137318 -34.403125 
L 158.944785 -34.403125 
L 159.752251 -34.403125 
L 160.559717 -34.403125 
L 161.367184 -34.403125 
L 162.17465 -34.403125 
L 162.982116 -34.403125 
L 163.789582 -34.403125 
L 164.597049 -34.403125 
L 165.404515 -34.403125 
L 166.211981 -34.403125 
L 167.019448 -34.403125 
L 167.826914 -34.403125 
L 168.63438 -34.403125 
L 169.441847 -34.403125 
L 170.249313 -34.403125 
L 171.056779 -34.403125 
L 171.864246 -34.403125 
L 172.671712 -34.403125 
L 173.479178 -34.403125 
L 174.286644 -34.403125 
L 175.094111 -34.403125 
L 175.901577 -34.403125 
L 176.709043 -34.403125 
L 177.51651 -34.403125 
L 178.323976 -34.403125 
L 179.131442 -34.403125 
L 179.938909 -34.403125 
L 180.746375 -34.403125 
L 181.553841 -34.403125 
L 182.361308 -34.403125 
L 183.168774 -34.403125 
L 183.97624 -34.403125 
L 184.783706 -34.403125 
L 185.591173 -34.403125 
L 186.398639 -34.403125 
L 187.206105 -34.403125 
L 188.013572 -34.403125 
L 188.821038 -34.403125 
L 189.628504 -34.403125 
L 190.435971 -34.403125 
L 191.243437 -34.403125 
L 192.050903 -34.403125 
L 192.85837 -34.403125 
L 193.665836 -34.403125 
L 194.473302 -34.403125 
L 195.280769 -34.403125 
L 196.088235 -34.403125 
L 196.895701 -34.403125 
L 197.703167 -34.403125 
L 198.510634 -34.403125 
L 199.3181 -34.403125 
L 200.125566 -34.403125 
L 200.933033 -34.403125 
L 201.740499 -34.403125 
L 202.547965 -34.403125 
L 203.355432 -34.403125 
L 204.162898 -34.403125 
L 204.970364 -34.403125 
L 205.777831 -34.403125 
L 206.585297 -34.403125 
L 207.392763 -34.403125 
L 208.200229 -34.403125 
L 209.007696 -34.403125 
L 209.815162 -34.403125 
L 210.622628 -34.403125 
L 211.430095 -34.403125 
L 212.237561 -34.403125 
L 213.045027 -34.403125 
L 213.852494 -34.403125 
L 214.65996 -34.403125 
L 215.467426 -34.403125 
L 216.274893 -34.403125 
L 217.082359 -34.403125 
L 217.889825 -34.403125 
L 218.697292 -34.403125 
L 219.504758 -34.403125 
L 220.312224 -34.403125 
L 221.11969 -34.403125 
L 221.927157 -34.403125 
L 222.734623 -34.403125 
L 223.542089 -34.403125 
L 224.349556 -34.403125 
L 225.157022 -34.403125 
L 225.964488 -34.403125 
L 226.771955 -34.403125 
L 227.579421 -34.403125 
L 228.386887 -34.403125 
L 229.194354 -34.403125 
L 230.00182 -34.403125 
L 230.809286 -34.403125 
L 231.616752 -34.403125 
L 232.424219 -34.403125 
L 233.231685 -34.403125 
L 234.039151 -34.403125 
L 234.846618 -34.403125 
L 235.654084 -34.403125 
L 236.46155 -34.403125 
L 237.269017 -34.403125 
L 238.076483 -34.403125 
L 238.883949 -34.403125 
L 239.691416 -34.403125 
L 240.498882 -34.403125 
L 241.306348 -34.403125 
L 242.113814 -34.403125 
L 242.921281 -34.403125 
L 243.728747 -34.403125 
L 244.536213 -34.403125 
L 245.34368 -34.403125 
L 246.151146 -34.403125 
L 246.958612 -34.403125 
L 247.766079 -34.403125 
L 248.573545 -34.403125 
L 249.381011 -34.403125 
L 250.188478 -34.403125 
L 250.995944 -34.403125 
L 251.80341 -34.403125 
L 252.610877 -34.403125 
L 253.418343 -34.403125 
L 254.225809 -34.403125 
L 255.033275 -34.403125 
L 255.840742 -34.403125 
L 256.648208 -34.403125 
L 257.455674 -34.403125 
L 258.263141 -34.403125 
L 259.070607 -34.403125 
L 259.878073 -34.403125 
L 260.68554 -34.403125 
L 261.493006 -34.403125 
L 262.300472 -34.403125 
L 263.107939 -34.403125 
L 263.915405 -34.403125 
L 264.722871 -34.403125 
L 265.530337 -34.403125 
L 266.337804 -34.403125 
L 267.14527 -34.403125 
L 267.952736 -34.403125 
L 268.760203 -34.403125 
L 269.567669 -34.403125 
L 270.375135 -34.403125 
L 271.182602 -34.403125 
L 271.990068 -34.403125 
L 272.797534 -34.403125 
L 273.605001 -34.403125 
L 274.412467 -34.403125 
L 275.219933 -34.403125 
L 276.0274 -34.403125 
L 276.834866 -34.403125 
L 277.642332 -34.403125 
L 278.449798 -34.403125 
L 279.257265 -34.403125 
L 280.064731 -34.403125 
L 280.872197 -34.403125 
L 281.679664 -34.403125 
L 282.48713 -34.403125 
L 283.294596 -34.403125 
L 284.102063 -34.403125 
L 284.909529 -34.403125 
L 285.716995 -34.403125 
L 286.524462 -34.403125 
L 287.331928 -34.403125 
L 288.139394 -34.403125 
L 288.94686 -34.403125 
L 288.94686 -49.452441 
L 288.94686 -49.452441 
L 288.139394 -49.23314 
L 287.331928 -49.020802 
L 286.524462 -48.81665 
L 285.716995 -48.621904 
L 284.909529 -48.437786 
L 284.102063 -48.265519 
L 283.294596 -48.106325 
L 282.48713 -47.961424 
L 281.679664 -47.83204 
L 280.872197 -47.719393 
L 280.064731 -47.624707 
L 279.257265 -47.549202 
L 278.449798 -47.4941 
L 277.642332 -47.460624 
L 276.834866 -47.449987 
L 276.0274 -47.459015 
L 275.219933 -47.482848 
L 274.412467 -47.519181 
L 273.605001 -47.565709 
L 272.797534 -47.62013 
L 271.990068 -47.680138 
L 271.182602 -47.743429 
L 270.375135 -47.8077 
L 269.567669 -47.870646 
L 268.760203 -47.929963 
L 267.952736 -47.983346 
L 267.14527 -48.028493 
L 266.337804 -48.063097 
L 265.530337 -48.084856 
L 264.722871 -48.091156 
L 263.915405 -48.045758 
L 263.107939 -47.932173 
L 262.300472 -47.760635 
L 261.493006 -47.541379 
L 260.68554 -47.284638 
L 259.878073 -47.000646 
L 259.070607 -46.699638 
L 258.263141 -46.391847 
L 257.455674 -46.087509 
L 256.648208 -45.796856 
L 255.840742 -45.530123 
L 255.033275 -45.297544 
L 254.225809 -45.109354 
L 253.418343 -44.975785 
L 252.610877 -44.906319 
L 251.80341 -44.866671 
L 250.995944 -44.833069 
L 250.188478 -44.804613 
L 249.381011 -44.780408 
L 248.573545 -44.759556 
L 247.766079 -44.741158 
L 246.958612 -44.724317 
L 246.151146 -44.708137 
L 245.34368 -44.691719 
L 244.536213 -44.674166 
L 243.728747 -44.65458 
L 242.921281 -44.632063 
L 242.113814 -44.60572 
L 241.306348 -44.57465 
L 240.498882 -44.537581 
L 239.691416 -44.482264 
L 238.883949 -44.405921 
L 238.076483 -44.312312 
L 237.269017 -44.2052 
L 236.46155 -44.088345 
L 235.654084 -43.965509 
L 234.846618 -43.840453 
L 234.039151 -43.71694 
L 233.231685 -43.598729 
L 232.424219 -43.489584 
L 231.616752 -43.393265 
L 230.809286 -43.313534 
L 230.00182 -43.254152 
L 229.194354 -43.218881 
L 228.386887 -43.210941 
L 227.579421 -43.220933 
L 226.771955 -43.243354 
L 225.964488 -43.277114 
L 225.157022 -43.32112 
L 224.349556 -43.374283 
L 223.542089 -43.435511 
L 222.734623 -43.503714 
L 221.927157 -43.577801 
L 221.11969 -43.656681 
L 220.312224 -43.739263 
L 219.504758 -43.824456 
L 218.697292 -43.911169 
L 217.889825 -43.998312 
L 217.082359 -44.084793 
L 216.274893 -44.170945 
L 215.467426 -44.277101 
L 214.65996 -44.406604 
L 213.852494 -44.554762 
L 213.045027 -44.716879 
L 212.237561 -44.888262 
L 211.430095 -45.064216 
L 210.622628 -45.240047 
L 209.815162 -45.411061 
L 209.007696 -45.572564 
L 208.200229 -45.719863 
L 207.392763 -45.848262 
L 206.585297 -45.953067 
L 205.777831 -46.029585 
L 204.970364 -46.073122 
L 204.162898 -46.072852 
L 203.355432 -45.958293 
L 202.547965 -45.725098 
L 201.740499 -45.39169 
L 200.933033 -44.976492 
L 200.125566 -44.497928 
L 199.3181 -43.97442 
L 198.510634 -43.424393 
L 197.703167 -42.86627 
L 196.895701 -42.318474 
L 196.088235 -41.799428 
L 195.280769 -41.327557 
L 194.473302 -40.921282 
L 193.665836 -40.599028 
L 192.85837 -40.379219 
L 192.050903 -40.270488 
L 191.243437 -40.194232 
L 190.435971 -40.128182 
L 189.628504 -40.070903 
L 188.821038 -40.02096 
L 188.013572 -39.976916 
L 187.206105 -39.937337 
L 186.398639 -39.900785 
L 185.591173 -39.865826 
L 184.783706 -39.831025 
L 183.97624 -39.794944 
L 183.168774 -39.756149 
L 182.361308 -39.713204 
L 181.553841 -39.664674 
L 180.746375 -39.609122 
L 179.938909 -39.545277 
L 179.131442 -39.473691 
L 178.323976 -39.395278 
L 177.51651 -39.31082 
L 176.709043 -39.221096 
L 175.901577 -39.126889 
L 175.094111 -39.028979 
L 174.286644 -38.928146 
L 173.479178 -38.825172 
L 172.671712 -38.720837 
L 171.864246 -38.615923 
L 171.056779 -38.51121 
L 170.249313 -38.407479 
L 169.441847 -38.305511 
L 168.63438 -38.206087 
L 167.826914 -38.109102 
L 167.019448 -38.009974 
L 166.211981 -37.908456 
L 165.404515 -37.805183 
L 164.597049 -37.700788 
L 163.789582 -37.595906 
L 162.982116 -37.49117 
L 162.17465 -37.387214 
L 161.367184 -37.284673 
L 160.559717 -37.18418 
L 159.752251 -37.086369 
L 158.944785 -36.991874 
L 158.137318 -36.901329 
L 157.329852 -36.815367 
L 156.522386 -36.734624 
L 155.714919 -36.658148 
L 154.907453 -36.579001 
L 154.099987 -36.497369 
L 153.29252 -36.41452 
L 152.485054 -36.331724 
L 151.677588 -36.250249 
L 150.870121 -36.171363 
L 150.062655 -36.096336 
L 149.255189 -36.026435 
L 148.447723 -35.962931 
L 147.640256 -35.90709 
L 146.83279 -35.860183 
L 146.025324 -35.823477 
L 145.217857 -35.798241 
L 144.410391 -35.785744 
L 143.602925 -35.786108 
L 142.795458 -35.79485 
L 141.987992 -35.810372 
L 141.180526 -35.831519 
L 140.373059 -35.857137 
L 139.565593 -35.886074 
L 138.758127 -35.917174 
L 137.950661 -35.949283 
L 137.143194 -35.981249 
L 136.335728 -36.011916 
L 135.528262 -36.040131 
L 134.720795 -36.06474 
L 133.913329 -36.084589 
L 133.105863 -36.098524 
L 132.298396 -36.105391 
L 131.49093 -36.1058 
L 130.683464 -36.1052 
L 129.875997 -36.104092 
L 129.068531 -36.102489 
L 128.261065 -36.100403 
L 127.453599 -36.097848 
L 126.646132 -36.094838 
L 125.838666 -36.091383 
L 125.0312 -36.087499 
L 124.223733 -36.083197 
L 123.416267 -36.07849 
L 122.608801 -36.073393 
L 121.801334 -36.067917 
L 120.993868 -36.062075 
L 120.186402 -36.055881 
L 119.378935 -36.046472 
L 118.571469 -36.026205 
L 117.764003 -35.995942 
L 116.956536 -35.957096 
L 116.14907 -35.91108 
L 115.341604 -35.859306 
L 114.534138 -35.803187 
L 113.726671 -35.744135 
L 112.919205 -35.683563 
L 112.111739 -35.622884 
L 111.304272 -35.563509 
L 110.496806 -35.506852 
L 109.68934 -35.454325 
L 108.881873 -35.40734 
L 108.074407 -35.36731 
L 107.266941 -35.333033 
L 106.459474 -35.298934 
L 105.652008 -35.264986 
L 104.844542 -35.231442 
L 104.037076 -35.198554 
L 103.229609 -35.166572 
L 102.422143 -35.13575 
L 101.614677 -35.10634 
L 100.80721 -35.078592 
L 99.999744 -35.052759 
L 99.192278 -35.029092 
L 98.384811 -35.007844 
L 97.577345 -34.989267 
L 96.769879 -34.973612 
L 95.962412 -34.961131 
L 95.154946 -34.951195 
L 94.34748 -34.94207 
L 93.540013 -34.933645 
L 92.732547 -34.925864 
L 91.925081 -34.918669 
L 91.117615 -34.912004 
L 90.310148 -34.905811 
L 89.502682 -34.900033 
L 88.695216 -34.894612 
L 87.887749 -34.889492 
L 87.080283 -34.884616 
L 86.272817 -34.879926 
L 85.46535 -34.875365 
L 84.657884 -34.870876 
L 83.850418 -34.866402 
L 83.042951 -34.862059 
L 82.235485 -34.858092 
L 81.428019 -34.854444 
L 80.620553 -34.851056 
L 79.813086 -34.847868 
L 79.00562 -34.84482 
L 78.198154 -34.841851 
L 77.390687 -34.838901 
L 76.583221 -34.83591 
L 75.775755 -34.832818 
L 74.968288 -34.829565 
L 74.160822 -34.82609 
L 73.353356 -34.822333 
L 72.545889 -34.818235 
L 71.738423 -34.813735 
L 70.930957 -34.80885 
L 70.123491 -34.803661 
L 69.316024 -34.798155 
L 68.508558 -34.792321 
L 67.701092 -34.786144 
L 66.893625 -34.779611 
L 66.086159 -34.77271 
L 65.278693 -34.765428 
L 64.471226 -34.757751 
L 63.66376 -34.749667 
L 62.856294 -34.741161 
L 62.048827 -34.732222 
L 61.241361 -34.722836 
L 60.433895 -34.71299 
L 59.626428 -34.702672 
L 58.818962 -34.691487 
L 58.011496 -34.67901 
L 57.20403 -34.665302 
L 56.396563 -34.650425 
L 55.589097 -34.634441 
L 54.781631 -34.617413 
L 53.974164 -34.599404 
L 53.166698 -34.580474 
L 52.359232 -34.560687 
L 51.551765 -34.540105 
L 50.744299 -34.51879 
L 49.936833 -34.496804 
L 49.129366 -34.47421 
L 48.3219 -34.451069 
L 47.514434 -34.427445 
z
" style="stroke: #d62728; stroke-opacity: 0.7"/>
    </defs>
    <g clip-path="url(#pddb11d2e17)">
     <use xlink:href="#m928c5d9391" x="0" y="217.083125" style="fill: #d62728; fill-opacity: 0.7; stroke: #d62728; stroke-opacity: 0.7"/>
    </g>
   </g>
   <g id="FillBetweenPolyCollection_2">
    <defs>
     <path id="mf66857c26c" d="M 47.514434 -34.451765 
L 47.514434 -34.427445 
L 48.3219 -34.451069 
L 49.129366 -34.47421 
L 49.936833 -34.496804 
L 50.744299 -34.51879 
L 51.551765 -34.540105 
L 52.359232 -34.560687 
L 53.166698 -34.580474 
L 53.974164 -34.599404 
L 54.781631 -34.617413 
L 55.589097 -34.634441 
L 56.396563 -34.650425 
L 57.20403 -34.665302 
L 58.011496 -34.67901 
L 58.818962 -34.691487 
L 59.626428 -34.702672 
L 60.433895 -34.71299 
L 61.241361 -34.722836 
L 62.048827 -34.732222 
L 62.856294 -34.741161 
L 63.66376 -34.749667 
L 64.471226 -34.757751 
L 65.278693 -34.765428 
L 66.086159 -34.77271 
L 66.893625 -34.779611 
L 67.701092 -34.786144 
L 68.508558 -34.792321 
L 69.316024 -34.798155 
L 70.123491 -34.803661 
L 70.930957 -34.80885 
L 71.738423 -34.813735 
L 72.545889 -34.818235 
L 73.353356 -34.822333 
L 74.160822 -34.82609 
L 74.968288 -34.829565 
L 75.775755 -34.832818 
L 76.583221 -34.83591 
L 77.390687 -34.838901 
L 78.198154 -34.841851 
L 79.00562 -34.84482 
L 79.813086 -34.847868 
L 80.620553 -34.851056 
L 81.428019 -34.854444 
L 82.235485 -34.858092 
L 83.042951 -34.862059 
L 83.850418 -34.866402 
L 84.657884 -34.870876 
L 85.46535 -34.875365 
L 86.272817 -34.879926 
L 87.080283 -34.884616 
L 87.887749 -34.889492 
L 88.695216 -34.894612 
L 89.502682 -34.900033 
L 90.310148 -34.905811 
L 91.117615 -34.912004 
L 91.925081 -34.918669 
L 92.732547 -34.925864 
L 93.540013 -34.933645 
L 94.34748 -34.94207 
L 95.154946 -34.951195 
L 95.962412 -34.961131 
L 96.769879 -34.973612 
L 97.577345 -34.989267 
L 98.384811 -35.007844 
L 99.192278 -35.029092 
L 99.999744 -35.052759 
L 100.80721 -35.078592 
L 101.614677 -35.10634 
L 102.422143 -35.13575 
L 103.229609 -35.166572 
L 104.037076 -35.198554 
L 104.844542 -35.231442 
L 105.652008 -35.264986 
L 106.459474 -35.298934 
L 107.266941 -35.333033 
L 108.074407 -35.36731 
L 108.881873 -35.40734 
L 109.68934 -35.454325 
L 110.496806 -35.506852 
L 111.304272 -35.563509 
L 112.111739 -35.622884 
L 112.919205 -35.683563 
L 113.726671 -35.744135 
L 114.534138 -35.803187 
L 115.341604 -35.859306 
L 116.14907 -35.91108 
L 116.956536 -35.957096 
L 117.764003 -35.995942 
L 118.571469 -36.026205 
L 119.378935 -36.046472 
L 120.186402 -36.055881 
L 120.993868 -36.062075 
L 121.801334 -36.067917 
L 122.608801 -36.073393 
L 123.416267 -36.07849 
L 124.223733 -36.083197 
L 125.0312 -36.087499 
L 125.838666 -36.091383 
L 126.646132 -36.094838 
L 127.453599 -36.097848 
L 128.261065 -36.100403 
L 129.068531 -36.102489 
L 129.875997 -36.104092 
L 130.683464 -36.1052 
L 131.49093 -36.1058 
L 132.298396 -36.105391 
L 133.105863 -36.098524 
L 133.913329 -36.084589 
L 134.720795 -36.06474 
L 135.528262 -36.040131 
L 136.335728 -36.011916 
L 137.143194 -35.981249 
L 137.950661 -35.949283 
L 138.758127 -35.917174 
L 139.565593 -35.886074 
L 140.373059 -35.857137 
L 141.180526 -35.831519 
L 141.987992 -35.810372 
L 142.795458 -35.79485 
L 143.602925 -35.786108 
L 144.410391 -35.785744 
L 145.217857 -35.798241 
L 146.025324 -35.823477 
L 146.83279 -35.860183 
L 147.640256 -35.90709 
L 148.447723 -35.962931 
L 149.255189 -36.026435 
L 150.062655 -36.096336 
L 150.870121 -36.171363 
L 151.677588 -36.250249 
L 152.485054 -36.331724 
L 153.29252 -36.41452 
L 154.099987 -36.497369 
L 154.907453 -36.579001 
L 155.714919 -36.658148 
L 156.522386 -36.734624 
L 157.329852 -36.815367 
L 158.137318 -36.901329 
L 158.944785 -36.991874 
L 159.752251 -37.086369 
L 160.559717 -37.18418 
L 161.367184 -37.284673 
L 162.17465 -37.387214 
L 162.982116 -37.49117 
L 163.789582 -37.595906 
L 164.597049 -37.700788 
L 165.404515 -37.805183 
L 166.211981 -37.908456 
L 167.019448 -38.009974 
L 167.826914 -38.109102 
L 168.63438 -38.206087 
L 169.441847 -38.305511 
L 170.249313 -38.407479 
L 171.056779 -38.51121 
L 171.864246 -38.615923 
L 172.671712 -38.720837 
L 173.479178 -38.825172 
L 174.286644 -38.928146 
L 175.094111 -39.028979 
L 175.901577 -39.126889 
L 176.709043 -39.221096 
L 177.51651 -39.31082 
L 178.323976 -39.395278 
L 179.131442 -39.473691 
L 179.938909 -39.545277 
L 180.746375 -39.609122 
L 181.553841 -39.664674 
L 182.361308 -39.713204 
L 183.168774 -39.756149 
L 183.97624 -39.794944 
L 184.783706 -39.831025 
L 185.591173 -39.865826 
L 186.398639 -39.900785 
L 187.206105 -39.937337 
L 188.013572 -39.976916 
L 188.821038 -40.02096 
L 189.628504 -40.070903 
L 190.435971 -40.128182 
L 191.243437 -40.194232 
L 192.050903 -40.270488 
L 192.85837 -40.379219 
L 193.665836 -40.599028 
L 194.473302 -40.921282 
L 195.280769 -41.327557 
L 196.088235 -41.799428 
L 196.895701 -42.318474 
L 197.703167 -42.86627 
L 198.510634 -43.424393 
L 199.3181 -43.97442 
L 200.125566 -44.497928 
L 200.933033 -44.976492 
L 201.740499 -45.39169 
L 202.547965 -45.725098 
L 203.355432 -45.958293 
L 204.162898 -46.072852 
L 204.970364 -46.073122 
L 205.777831 -46.029585 
L 206.585297 -45.953067 
L 207.392763 -45.848262 
L 208.200229 -45.719863 
L 209.007696 -45.572564 
L 209.815162 -45.411061 
L 210.622628 -45.240047 
L 211.430095 -45.064216 
L 212.237561 -44.888262 
L 213.045027 -44.716879 
L 213.852494 -44.554762 
L 214.65996 -44.406604 
L 215.467426 -44.277101 
L 216.274893 -44.170945 
L 217.082359 -44.084793 
L 217.889825 -43.998312 
L 218.697292 -43.911169 
L 219.504758 -43.824456 
L 220.312224 -43.739263 
L 221.11969 -43.656681 
L 221.927157 -43.577801 
L 222.734623 -43.503714 
L 223.542089 -43.435511 
L 224.349556 -43.374283 
L 225.157022 -43.32112 
L 225.964488 -43.277114 
L 226.771955 -43.243354 
L 227.579421 -43.220933 
L 228.386887 -43.210941 
L 229.194354 -43.218881 
L 230.00182 -43.254152 
L 230.809286 -43.313534 
L 231.616752 -43.393265 
L 232.424219 -43.489584 
L 233.231685 -43.598729 
L 234.039151 -43.71694 
L 234.846618 -43.840453 
L 235.654084 -43.965509 
L 236.46155 -44.088345 
L 237.269017 -44.2052 
L 238.076483 -44.312312 
L 238.883949 -44.405921 
L 239.691416 -44.482264 
L 240.498882 -44.537581 
L 241.306348 -44.57465 
L 242.113814 -44.60572 
L 242.921281 -44.632063 
L 243.728747 -44.65458 
L 244.536213 -44.674166 
L 245.34368 -44.691719 
L 246.151146 -44.708137 
L 246.958612 -44.724317 
L 247.766079 -44.741158 
L 248.573545 -44.759556 
L 249.381011 -44.780408 
L 250.188478 -44.804613 
L 250.995944 -44.833069 
L 251.80341 -44.866671 
L 252.610877 -44.906319 
L 253.418343 -44.975785 
L 254.225809 -45.109354 
L 255.033275 -45.297544 
L 255.840742 -45.530123 
L 256.648208 -45.796856 
L 257.455674 -46.087509 
L 258.263141 -46.391847 
L 259.070607 -46.699638 
L 259.878073 -47.000646 
L 260.68554 -47.284638 
L 261.493006 -47.541379 
L 262.300472 -47.760635 
L 263.107939 -47.932173 
L 263.915405 -48.045758 
L 264.722871 -48.091156 
L 265.530337 -48.084856 
L 266.337804 -48.063097 
L 267.14527 -48.028493 
L 267.952736 -47.983346 
L 268.760203 -47.929963 
L 269.567669 -47.870646 
L 270.375135 -47.8077 
L 271.182602 -47.743429 
L 271.990068 -47.680138 
L 272.797534 -47.62013 
L 273.605001 -47.565709 
L 274.412467 -47.519181 
L 275.219933 -47.482848 
L 276.0274 -47.459015 
L 276.834866 -47.449987 
L 277.642332 -47.460624 
L 278.449798 -47.4941 
L 279.257265 -47.549202 
L 280.064731 -47.624707 
L 280.872197 -47.719393 
L 281.679664 -47.83204 
L 282.48713 -47.961424 
L 283.294596 -48.106325 
L 284.102063 -48.265519 
L 284.909529 -48.437786 
L 285.716995 -48.621904 
L 286.524462 -48.81665 
L 287.331928 -49.020802 
L 288.139394 -49.23314 
L 288.94686 -49.452441 
L 288.94686 -70.875951 
L 288.94686 -70.875951 
L 288.139394 -70.425549 
L 287.331928 -69.985047 
L 286.524462 -69.555756 
L 285.716995 -69.138986 
L 284.909529 -68.736048 
L 284.102063 -68.348252 
L 283.294596 -67.976909 
L 282.48713 -67.623329 
L 281.679664 -67.288822 
L 280.872197 -66.974699 
L 280.064731 -66.68227 
L 279.257265 -66.412845 
L 278.449798 -66.167736 
L 277.642332 -65.948252 
L 276.834866 -65.755703 
L 276.0274 -65.590086 
L 275.219933 -65.448052 
L 274.412467 -65.32579 
L 273.605001 -65.219486 
L 272.797534 -65.125331 
L 271.990068 -65.039512 
L 271.182602 -64.958216 
L 270.375135 -64.877633 
L 269.567669 -64.79395 
L 268.760203 -64.703357 
L 267.952736 -64.60204 
L 267.14527 -64.486188 
L 266.337804 -64.351989 
L 265.530337 -64.195632 
L 264.722871 -64.012877 
L 263.915405 -63.753464 
L 263.107939 -63.396107 
L 262.300472 -62.956825 
L 261.493006 -62.451639 
L 260.68554 -61.896568 
L 259.878073 -61.307631 
L 259.070607 -60.70085 
L 258.263141 -60.092244 
L 257.455674 -59.497832 
L 256.648208 -58.933635 
L 255.840742 -58.415672 
L 255.033275 -57.959964 
L 254.225809 -57.582529 
L 253.418343 -57.299389 
L 252.610877 -57.125394 
L 251.80341 -57.007227 
L 250.995944 -56.906853 
L 250.188478 -56.821505 
L 249.381011 -56.748418 
L 248.573545 -56.684824 
L 247.766079 -56.62796 
L 246.958612 -56.575058 
L 246.151146 -56.523353 
L 245.34368 -56.470078 
L 244.536213 -56.412469 
L 243.728747 -56.347758 
L 242.921281 -56.27318 
L 242.113814 -56.18597 
L 241.306348 -56.08336 
L 240.498882 -55.960918 
L 239.691416 -55.765082 
L 238.883949 -55.482196 
L 238.076483 -55.127175 
L 237.269017 -54.714932 
L 236.46155 -54.260384 
L 235.654084 -53.778444 
L 234.846618 -53.284026 
L 234.039151 -52.792047 
L 233.231685 -52.31742 
L 232.424219 -51.87506 
L 231.616752 -51.479881 
L 230.809286 -51.146799 
L 230.00182 -50.890729 
L 229.194354 -50.726583 
L 228.386887 -50.666029 
L 227.579421 -50.64835 
L 226.771955 -50.644755 
L 225.964488 -50.654197 
L 225.157022 -50.675631 
L 224.349556 -50.70801 
L 223.542089 -50.750288 
L 222.734623 -50.801418 
L 221.927157 -50.860354 
L 221.11969 -50.92605 
L 220.312224 -50.997459 
L 219.504758 -51.073534 
L 218.697292 -51.153231 
L 217.889825 -51.235501 
L 217.082359 -51.319298 
L 216.274893 -51.406757 
L 215.467426 -51.544393 
L 214.65996 -51.739976 
L 213.852494 -51.983208 
L 213.045027 -52.263793 
L 212.237561 -52.571434 
L 211.430095 -52.895832 
L 210.622628 -53.226692 
L 209.815162 -53.553715 
L 209.007696 -53.866604 
L 208.200229 -54.155063 
L 207.392763 -54.408793 
L 206.585297 -54.617499 
L 205.777831 -54.770882 
L 204.970364 -54.858645 
L 204.162898 -54.859865 
L 203.355432 -54.651466 
L 202.547965 -54.227646 
L 201.740499 -53.622375 
L 200.933033 -52.869621 
L 200.125566 -52.003353 
L 199.3181 -51.057538 
L 198.510634 -50.066145 
L 197.703167 -49.063144 
L 196.895701 -48.082501 
L 196.088235 -47.158186 
L 195.280769 -46.324167 
L 194.473302 -45.614413 
L 193.665836 -45.062892 
L 192.85837 -44.703572 
L 192.050903 -44.551635 
L 191.243437 -44.455525 
L 190.435971 -44.373132 
L 189.628504 -44.302464 
L 188.821038 -44.241522 
L 188.013572 -44.188314 
L 187.206105 -44.140842 
L 186.398639 -44.097112 
L 185.591173 -44.055128 
L 184.783706 -44.012896 
L 183.97624 -43.968419 
L 183.168774 -43.919702 
L 182.361308 -43.86475 
L 181.553841 -43.801568 
L 180.746375 -43.72816 
L 179.938909 -43.640567 
L 179.131442 -43.524321 
L 178.323976 -43.379978 
L 177.51651 -43.211321 
L 176.709043 -43.022131 
L 175.901577 -42.816189 
L 175.094111 -42.597276 
L 174.286644 -42.369176 
L 173.479178 -42.135668 
L 172.671712 -41.900535 
L 171.864246 -41.667558 
L 171.056779 -41.440519 
L 170.249313 -41.223199 
L 169.441847 -41.019379 
L 168.63438 -40.832843 
L 167.826914 -40.664321 
L 167.019448 -40.498105 
L 166.211981 -40.331873 
L 165.404515 -40.166217 
L 164.597049 -40.001731 
L 163.789582 -39.839007 
L 162.982116 -39.678638 
L 162.17465 -39.521217 
L 161.367184 -39.367338 
L 160.559717 -39.217593 
L 159.752251 -39.072575 
L 158.944785 -38.932877 
L 158.137318 -38.799093 
L 157.329852 -38.671815 
L 156.522386 -38.551636 
L 155.714919 -38.437373 
L 154.907453 -38.32116 
L 154.099987 -38.20317 
L 153.29252 -38.084792 
L 152.485054 -37.967417 
L 151.677588 -37.852433 
L 150.870121 -37.741231 
L 150.062655 -37.6352 
L 149.255189 -37.53573 
L 148.447723 -37.44421 
L 147.640256 -37.36203 
L 146.83279 -37.290579 
L 146.025324 -37.231247 
L 145.217857 -37.185424 
L 144.410391 -37.154499 
L 143.602925 -37.138644 
L 142.795458 -37.133046 
L 141.987992 -37.135813 
L 141.180526 -37.145521 
L 140.373059 -37.160745 
L 139.565593 -37.180061 
L 138.758127 -37.202044 
L 137.950661 -37.22527 
L 137.143194 -37.248313 
L 136.335728 -37.26975 
L 135.528262 -37.288156 
L 134.720795 -37.302106 
L 133.913329 -37.310175 
L 133.105863 -37.31094 
L 132.298396 -37.302975 
L 131.49093 -37.286064 
L 130.683464 -37.263877 
L 129.875997 -37.237353 
L 129.068531 -37.207122 
L 128.261065 -37.173816 
L 127.453599 -37.138066 
L 126.646132 -37.100502 
L 125.838666 -37.061756 
L 125.0312 -37.022458 
L 124.223733 -36.983239 
L 123.416267 -36.944731 
L 122.608801 -36.907563 
L 121.801334 -36.872367 
L 120.993868 -36.839774 
L 120.186402 -36.810415 
L 119.378935 -36.781093 
L 118.571469 -36.741726 
L 117.764003 -36.693014 
L 116.956536 -36.636372 
L 116.14907 -36.573217 
L 115.341604 -36.504962 
L 114.534138 -36.433025 
L 113.726671 -36.358819 
L 112.919205 -36.283761 
L 112.111739 -36.209266 
L 111.304272 -36.136749 
L 110.496806 -36.067625 
L 109.68934 -36.003311 
L 108.881873 -35.945221 
L 108.074407 -35.89477 
L 107.266941 -35.850578 
L 106.459474 -35.806659 
L 105.652008 -35.763028 
L 104.844542 -35.719999 
L 104.037076 -35.677883 
L 103.229609 -35.636994 
L 102.422143 -35.597646 
L 101.614677 -35.560151 
L 100.80721 -35.524823 
L 99.999744 -35.491974 
L 99.192278 -35.461918 
L 98.384811 -35.434968 
L 97.577345 -35.411437 
L 96.769879 -35.391639 
L 95.962412 -35.375886 
L 95.154946 -35.363439 
L 94.34748 -35.352211 
L 93.540013 -35.342019 
L 92.732547 -35.332743 
L 91.925081 -35.324266 
L 91.117615 -35.316466 
L 90.310148 -35.309226 
L 89.502682 -35.302427 
L 88.695216 -35.295948 
L 87.887749 -35.289672 
L 87.080283 -35.283478 
L 86.272817 -35.277248 
L 85.46535 -35.270863 
L 84.657884 -35.264203 
L 83.850418 -35.25715 
L 83.042951 -35.248348 
L 82.235485 -35.235914 
L 81.428019 -35.220355 
L 80.620553 -35.202222 
L 79.813086 -35.182062 
L 79.00562 -35.160426 
L 78.198154 -35.137861 
L 77.390687 -35.114919 
L 76.583221 -35.092146 
L 75.775755 -35.070093 
L 74.968288 -35.049309 
L 74.160822 -35.030343 
L 73.353356 -35.013744 
L 72.545889 -35.000061 
L 71.738423 -34.989843 
L 70.930957 -34.982008 
L 70.123491 -34.974349 
L 69.316024 -34.966766 
L 68.508558 -34.959178 
L 67.701092 -34.951505 
L 66.893625 -34.943667 
L 66.086159 -34.935581 
L 65.278693 -34.927168 
L 64.471226 -34.918347 
L 63.66376 -34.909037 
L 62.856294 -34.899157 
L 62.048827 -34.888626 
L 61.241361 -34.877365 
L 60.433895 -34.865291 
L 59.626428 -34.852325 
L 58.818962 -34.837784 
L 58.011496 -34.820986 
L 57.20403 -34.802049 
L 56.396563 -34.781094 
L 55.589097 -34.758241 
L 54.781631 -34.733609 
L 53.974164 -34.70732 
L 53.166698 -34.679493 
L 52.359232 -34.65025 
L 51.551765 -34.619709 
L 50.744299 -34.587992 
L 49.936833 -34.555219 
L 49.129366 -34.52151 
L 48.3219 -34.486985 
L 47.514434 -34.451765 
z
" style="stroke: #1f77b4; stroke-opacity: 0.7"/>
    </defs>
    <g clip-path="url(#pddb11d2e17)">
     <use xlink:href="#mf66857c26c" x="0" y="217.083125" style="fill: #1f77b4; fill-opacity: 0.7; stroke: #1f77b4; stroke-opacity: 0.7"/>
    </g>
   </g>
   <g id="FillBetweenPolyCollection_3">
    <defs>
     <path id="mfc009bed2b" d="M 47.514434 -34.451765 
L 47.514434 -34.451765 
L 48.3219 -34.486985 
L 49.129366 -34.52151 
L 49.936833 -34.555219 
L 50.744299 -34.587992 
L 51.551765 -34.619709 
L 52.359232 -34.65025 
L 53.166698 -34.679493 
L 53.974164 -34.70732 
L 54.781631 -34.733609 
L 55.589097 -34.758241 
L 56.396563 -34.781094 
L 57.20403 -34.802049 
L 58.011496 -34.820986 
L 58.818962 -34.837784 
L 59.626428 -34.852325 
L 60.433895 -34.865291 
L 61.241361 -34.877365 
L 62.048827 -34.888626 
L 62.856294 -34.899157 
L 63.66376 -34.909037 
L 64.471226 -34.918347 
L 65.278693 -34.927168 
L 66.086159 -34.935581 
L 66.893625 -34.943667 
L 67.701092 -34.951505 
L 68.508558 -34.959178 
L 69.316024 -34.966766 
L 70.123491 -34.974349 
L 70.930957 -34.982008 
L 71.738423 -34.989843 
L 72.545889 -35.000061 
L 73.353356 -35.013744 
L 74.160822 -35.030343 
L 74.968288 -35.049309 
L 75.775755 -35.070093 
L 76.583221 -35.092146 
L 77.390687 -35.114919 
L 78.198154 -35.137861 
L 79.00562 -35.160426 
L 79.813086 -35.182062 
L 80.620553 -35.202222 
L 81.428019 -35.220355 
L 82.235485 -35.235914 
L 83.042951 -35.248348 
L 83.850418 -35.25715 
L 84.657884 -35.264203 
L 85.46535 -35.270863 
L 86.272817 -35.277248 
L 87.080283 -35.283478 
L 87.887749 -35.289672 
L 88.695216 -35.295948 
L 89.502682 -35.302427 
L 90.310148 -35.309226 
L 91.117615 -35.316466 
L 91.925081 -35.324266 
L 92.732547 -35.332743 
L 93.540013 -35.342019 
L 94.34748 -35.352211 
L 95.154946 -35.363439 
L 95.962412 -35.375886 
L 96.769879 -35.391639 
L 97.577345 -35.411437 
L 98.384811 -35.434968 
L 99.192278 -35.461918 
L 99.999744 -35.491974 
L 100.80721 -35.524823 
L 101.614677 -35.560151 
L 102.422143 -35.597646 
L 103.229609 -35.636994 
L 104.037076 -35.677883 
L 104.844542 -35.719999 
L 105.652008 -35.763028 
L 106.459474 -35.806659 
L 107.266941 -35.850578 
L 108.074407 -35.89477 
L 108.881873 -35.945221 
L 109.68934 -36.003311 
L 110.496806 -36.067625 
L 111.304272 -36.136749 
L 112.111739 -36.209266 
L 112.919205 -36.283761 
L 113.726671 -36.358819 
L 114.534138 -36.433025 
L 115.341604 -36.504962 
L 116.14907 -36.573217 
L 116.956536 -36.636372 
L 117.764003 -36.693014 
L 118.571469 -36.741726 
L 119.378935 -36.781093 
L 120.186402 -36.810415 
L 120.993868 -36.839774 
L 121.801334 -36.872367 
L 122.608801 -36.907563 
L 123.416267 -36.944731 
L 124.223733 -36.983239 
L 125.0312 -37.022458 
L 125.838666 -37.061756 
L 126.646132 -37.100502 
L 127.453599 -37.138066 
L 128.261065 -37.173816 
L 129.068531 -37.207122 
L 129.875997 -37.237353 
L 130.683464 -37.263877 
L 131.49093 -37.286064 
L 132.298396 -37.302975 
L 133.105863 -37.31094 
L 133.913329 -37.310175 
L 134.720795 -37.302106 
L 135.528262 -37.288156 
L 136.335728 -37.26975 
L 137.143194 -37.248313 
L 137.950661 -37.22527 
L 138.758127 -37.202044 
L 139.565593 -37.180061 
L 140.373059 -37.160745 
L 141.180526 -37.145521 
L 141.987992 -37.135813 
L 142.795458 -37.133046 
L 143.602925 -37.138644 
L 144.410391 -37.154499 
L 145.217857 -37.185424 
L 146.025324 -37.231247 
L 146.83279 -37.290579 
L 147.640256 -37.36203 
L 148.447723 -37.44421 
L 149.255189 -37.53573 
L 150.062655 -37.6352 
L 150.870121 -37.741231 
L 151.677588 -37.852433 
L 152.485054 -37.967417 
L 153.29252 -38.084792 
L 154.099987 -38.20317 
L 154.907453 -38.32116 
L 155.714919 -38.437373 
L 156.522386 -38.551636 
L 157.329852 -38.671815 
L 158.137318 -38.799093 
L 158.944785 -38.932877 
L 159.752251 -39.072575 
L 160.559717 -39.217593 
L 161.367184 -39.367338 
L 162.17465 -39.521217 
L 162.982116 -39.678638 
L 163.789582 -39.839007 
L 164.597049 -40.001731 
L 165.404515 -40.166217 
L 166.211981 -40.331873 
L 167.019448 -40.498105 
L 167.826914 -40.664321 
L 168.63438 -40.832843 
L 169.441847 -41.019379 
L 170.249313 -41.223199 
L 171.056779 -41.440519 
L 171.864246 -41.667558 
L 172.671712 -41.900535 
L 173.479178 -42.135668 
L 174.286644 -42.369176 
L 175.094111 -42.597276 
L 175.901577 -42.816189 
L 176.709043 -43.022131 
L 177.51651 -43.211321 
L 178.323976 -43.379978 
L 179.131442 -43.524321 
L 179.938909 -43.640567 
L 180.746375 -43.72816 
L 181.553841 -43.801568 
L 182.361308 -43.86475 
L 183.168774 -43.919702 
L 183.97624 -43.968419 
L 184.783706 -44.012896 
L 185.591173 -44.055128 
L 186.398639 -44.097112 
L 187.206105 -44.140842 
L 188.013572 -44.188314 
L 188.821038 -44.241522 
L 189.628504 -44.302464 
L 190.435971 -44.373132 
L 191.243437 -44.455525 
L 192.050903 -44.551635 
L 192.85837 -44.703572 
L 193.665836 -45.062892 
L 194.473302 -45.614413 
L 195.280769 -46.324167 
L 196.088235 -47.158186 
L 196.895701 -48.082501 
L 197.703167 -49.063144 
L 198.510634 -50.066145 
L 199.3181 -51.057538 
L 200.125566 -52.003353 
L 200.933033 -52.869621 
L 201.740499 -53.622375 
L 202.547965 -54.227646 
L 203.355432 -54.651466 
L 204.162898 -54.859865 
L 204.970364 -54.858645 
L 205.777831 -54.770882 
L 206.585297 -54.617499 
L 207.392763 -54.408793 
L 208.200229 -54.155063 
L 209.007696 -53.866604 
L 209.815162 -53.553715 
L 210.622628 -53.226692 
L 211.430095 -52.895832 
L 212.237561 -52.571434 
L 213.045027 -52.263793 
L 213.852494 -51.983208 
L 214.65996 -51.739976 
L 215.467426 -51.544393 
L 216.274893 -51.406757 
L 217.082359 -51.319298 
L 217.889825 -51.235501 
L 218.697292 -51.153231 
L 219.504758 -51.073534 
L 220.312224 -50.997459 
L 221.11969 -50.92605 
L 221.927157 -50.860354 
L 222.734623 -50.801418 
L 223.542089 -50.750288 
L 224.349556 -50.70801 
L 225.157022 -50.675631 
L 225.964488 -50.654197 
L 226.771955 -50.644755 
L 227.579421 -50.64835 
L 228.386887 -50.666029 
L 229.194354 -50.726583 
L 230.00182 -50.890729 
L 230.809286 -51.146799 
L 231.616752 -51.479881 
L 232.424219 -51.87506 
L 233.231685 -52.31742 
L 234.039151 -52.792047 
L 234.846618 -53.284026 
L 235.654084 -53.778444 
L 236.46155 -54.260384 
L 237.269017 -54.714932 
L 238.076483 -55.127175 
L 238.883949 -55.482196 
L 239.691416 -55.765082 
L 240.498882 -55.960918 
L 241.306348 -56.08336 
L 242.113814 -56.18597 
L 242.921281 -56.27318 
L 243.728747 -56.347758 
L 244.536213 -56.412469 
L 245.34368 -56.470078 
L 246.151146 -56.523353 
L 246.958612 -56.575058 
L 247.766079 -56.62796 
L 248.573545 -56.684824 
L 249.381011 -56.748418 
L 250.188478 -56.821505 
L 250.995944 -56.906853 
L 251.80341 -57.007227 
L 252.610877 -57.125394 
L 253.418343 -57.299389 
L 254.225809 -57.582529 
L 255.033275 -57.959964 
L 255.840742 -58.415672 
L 256.648208 -58.933635 
L 257.455674 -59.497832 
L 258.263141 -60.092244 
L 259.070607 -60.70085 
L 259.878073 -61.307631 
L 260.68554 -61.896568 
L 261.493006 -62.451639 
L 262.300472 -62.956825 
L 263.107939 -63.396107 
L 263.915405 -63.753464 
L 264.722871 -64.012877 
L 265.530337 -64.195632 
L 266.337804 -64.351989 
L 267.14527 -64.486188 
L 267.952736 -64.60204 
L 268.760203 -64.703357 
L 269.567669 -64.79395 
L 270.375135 -64.877633 
L 271.182602 -64.958216 
L 271.990068 -65.039512 
L 272.797534 -65.125331 
L 273.605001 -65.219486 
L 274.412467 -65.32579 
L 275.219933 -65.448052 
L 276.0274 -65.590086 
L 276.834866 -65.755703 
L 277.642332 -65.948252 
L 278.449798 -66.167736 
L 279.257265 -66.412845 
L 280.064731 -66.68227 
L 280.872197 -66.974699 
L 281.679664 -67.288822 
L 282.48713 -67.623329 
L 283.294596 -67.976909 
L 284.102063 -68.348252 
L 284.909529 -68.736048 
L 285.716995 -69.138986 
L 286.524462 -69.555756 
L 287.331928 -69.985047 
L 288.139394 -70.425549 
L 288.94686 -70.875951 
L 288.94686 -71.031419 
L 288.94686 -71.031419 
L 288.139394 -70.592891 
L 287.331928 -70.164128 
L 286.524462 -69.74634 
L 285.716995 -69.340735 
L 284.909529 -68.94852 
L 284.102063 -68.570904 
L 283.294596 -68.209095 
L 282.48713 -67.8643 
L 281.679664 -67.537729 
L 280.872197 -67.23059 
L 280.064731 -66.94409 
L 279.257265 -66.679438 
L 278.449798 -66.437841 
L 277.642332 -66.220509 
L 276.834866 -66.02865 
L 276.0274 -65.863014 
L 275.219933 -65.720928 
L 274.412467 -65.598581 
L 273.605001 -65.49216 
L 272.797534 -65.397854 
L 271.990068 -65.311852 
L 271.182602 -65.230343 
L 270.375135 -65.149515 
L 269.567669 -65.065556 
L 268.760203 -64.974655 
L 267.952736 -64.873 
L 267.14527 -64.756781 
L 266.337804 -64.622185 
L 265.530337 -64.465401 
L 264.722871 -64.282179 
L 263.915405 -64.020848 
L 263.107939 -63.65936 
L 262.300472 -63.214016 
L 261.493006 -62.701116 
L 260.68554 -62.136962 
L 259.878073 -61.537853 
L 259.070607 -60.920091 
L 258.263141 -60.299976 
L 257.455674 -59.69381 
L 256.648208 -59.117892 
L 255.840742 -58.588524 
L 255.033275 -58.122006 
L 254.225809 -57.73464 
L 253.418343 -57.442725 
L 252.610877 -57.261374 
L 251.80341 -57.136398 
L 250.995944 -57.029199 
L 250.188478 -56.937062 
L 249.381011 -56.857269 
L 248.573545 -56.787101 
L 247.766079 -56.723843 
L 246.958612 -56.664776 
L 246.151146 -56.607183 
L 245.34368 -56.548347 
L 244.536213 -56.48555 
L 243.728747 -56.416074 
L 242.921281 -56.337204 
L 242.113814 -56.24622 
L 241.306348 -56.140406 
L 240.498882 -56.015364 
L 239.691416 -55.817156 
L 238.883949 -55.531947 
L 238.076483 -55.174667 
L 237.269017 -54.760249 
L 236.46155 -54.303627 
L 235.654084 -53.819733 
L 234.846618 -53.323499 
L 234.039151 -52.829858 
L 233.231685 -52.353743 
L 232.424219 -51.910086 
L 231.616752 -51.51382 
L 230.809286 -51.179877 
L 230.00182 -50.92319 
L 229.194354 -50.758692 
L 228.386887 -50.698077 
L 227.579421 -50.68088 
L 226.771955 -50.678347 
L 225.964488 -50.689357 
L 225.157022 -50.712785 
L 224.349556 -50.74751 
L 223.542089 -50.792408 
L 222.734623 -50.846356 
L 221.927157 -50.908233 
L 221.11969 -50.976914 
L 220.312224 -51.051278 
L 219.504758 -51.130201 
L 218.697292 -51.21256 
L 217.889825 -51.297233 
L 217.082359 -51.383097 
L 216.274893 -51.472233 
L 215.467426 -51.611479 
L 214.65996 -51.80871 
L 213.852494 -52.053605 
L 213.045027 -52.335844 
L 212.237561 -52.645108 
L 211.430095 -52.971075 
L 210.622628 -53.303425 
L 209.815162 -53.631839 
L 209.007696 -53.945995 
L 208.200229 -54.235574 
L 207.392763 -54.490255 
L 206.585297 -54.699718 
L 205.777831 -54.853642 
L 204.970364 -54.941708 
L 204.162898 -54.942903 
L 203.355432 -54.733419 
L 202.547965 -54.307399 
L 201.740499 -53.698994 
L 200.933033 -52.942354 
L 200.125566 -52.071629 
L 199.3181 -51.120972 
L 198.510634 -50.124531 
L 197.703167 -49.116459 
L 196.895701 -48.130905 
L 196.088235 -47.20202 
L 195.280769 -46.363956 
L 194.473302 -45.650862 
L 193.665836 -45.09689 
L 192.85837 -44.736189 
L 192.050903 -44.584043 
L 191.243437 -44.488244 
L 190.435971 -44.406468 
L 189.628504 -44.336673 
L 188.821038 -44.276817 
L 188.013572 -44.224859 
L 187.206105 -44.178758 
L 186.398639 -44.13647 
L 185.591173 -44.095955 
L 184.783706 -44.055171 
L 183.97624 -44.012077 
L 183.168774 -43.96463 
L 182.361308 -43.910789 
L 181.553841 -43.848512 
L 180.746375 -43.775757 
L 179.938909 -43.688552 
L 179.131442 -43.572638 
L 178.323976 -43.428615 
L 177.51651 -43.260264 
L 176.709043 -43.071364 
L 175.901577 -42.865695 
L 175.094111 -42.647036 
L 174.286644 -42.419169 
L 173.479178 -42.185871 
L 172.671712 -41.950923 
L 171.864246 -41.718106 
L 171.056779 -41.491197 
L 170.249313 -41.273978 
L 169.441847 -41.070228 
L 168.63438 -40.883727 
L 167.826914 -40.715209 
L 167.019448 -40.548988 
L 166.211981 -40.382746 
L 165.404515 -40.217074 
L 164.597049 -40.052567 
L 163.789582 -39.889818 
L 162.982116 -39.729419 
L 162.17465 -39.571963 
L 161.367184 -39.418044 
L 160.559717 -39.268255 
L 159.752251 -39.123188 
L 158.944785 -38.983438 
L 158.137318 -38.849597 
L 157.329852 -38.722257 
L 156.522386 -38.602013 
L 155.714919 -38.487639 
L 154.907453 -38.371077 
L 154.099987 -38.25251 
L 153.29252 -38.133368 
L 152.485054 -38.015078 
L 151.677588 -37.899071 
L 150.870121 -37.786774 
L 150.062655 -37.679617 
L 149.255189 -37.579027 
L 148.447723 -37.486435 
L 147.640256 -37.403269 
L 146.83279 -37.330957 
L 146.025324 -37.270928 
L 145.217857 -37.224612 
L 144.410391 -37.193437 
L 143.602925 -37.177662 
L 142.795458 -37.172659 
L 141.987992 -37.176484 
L 141.180526 -37.187633 
L 140.373059 -37.204604 
L 139.565593 -37.225892 
L 138.758127 -37.249994 
L 137.950661 -37.275408 
L 137.143194 -37.300631 
L 136.335728 -37.324158 
L 135.528262 -37.344486 
L 134.720795 -37.360114 
L 133.913329 -37.369536 
L 133.105863 -37.37125 
L 132.298396 -37.363753 
L 131.49093 -37.346604 
L 130.683464 -37.323005 
L 129.875997 -37.294026 
L 129.068531 -37.260479 
L 128.261065 -37.223172 
L 127.453599 -37.182915 
L 126.646132 -37.140518 
L 125.838666 -37.096791 
L 125.0312 -37.052544 
L 124.223733 -37.008586 
L 123.416267 -36.965727 
L 122.608801 -36.924778 
L 121.801334 -36.886547 
L 120.993868 -36.851844 
L 120.186402 -36.82148 
L 119.378935 -36.79229 
L 118.571469 -36.753808 
L 117.764003 -36.706605 
L 116.956536 -36.651992 
L 116.14907 -36.591279 
L 115.341604 -36.525774 
L 114.534138 -36.456787 
L 113.726671 -36.385628 
L 112.919205 -36.313606 
L 112.111739 -36.242031 
L 111.304272 -36.172212 
L 110.496806 -36.105459 
L 109.68934 -36.043082 
L 108.881873 -35.98639 
L 108.074407 -35.936692 
L 107.266941 -35.892724 
L 106.459474 -35.848995 
L 105.652008 -35.805542 
L 104.844542 -35.762677 
L 104.037076 -35.720714 
L 103.229609 -35.679965 
L 102.422143 -35.640743 
L 101.614677 -35.603361 
L 100.80721 -35.568132 
L 99.999744 -35.535368 
L 99.192278 -35.505384 
L 98.384811 -35.47849 
L 97.577345 -35.455001 
L 96.769879 -35.435229 
L 95.962412 -35.419486 
L 95.154946 -35.406851 
L 94.34748 -35.394893 
L 93.540013 -35.383487 
L 92.732547 -35.372584 
L 91.925081 -35.362135 
L 91.117615 -35.352091 
L 90.310148 -35.342403 
L 89.502682 -35.333022 
L 88.695216 -35.323898 
L 87.887749 -35.314982 
L 87.080283 -35.306225 
L 86.272817 -35.297578 
L 85.46535 -35.288992 
L 84.657884 -35.280417 
L 83.850418 -35.271805 
L 83.042951 -35.261692 
L 82.235485 -35.247924 
L 81.428019 -35.231022 
L 80.620553 -35.211552 
L 79.813086 -35.19008 
L 79.00562 -35.167172 
L 78.198154 -35.143395 
L 77.390687 -35.119314 
L 76.583221 -35.095498 
L 75.775755 -35.072511 
L 74.968288 -35.05092 
L 74.160822 -35.031292 
L 73.353356 -35.014192 
L 72.545889 -35.000187 
L 71.738423 -34.989844 
L 70.930957 -34.982283 
L 70.123491 -34.975519 
L 69.316024 -34.969359 
L 68.508558 -34.963628 
L 67.701092 -34.95815 
L 66.893625 -34.952751 
L 66.086159 -34.947254 
L 65.278693 -34.941484 
L 64.471226 -34.935265 
L 63.66376 -34.928423 
L 62.856294 -34.920781 
L 62.048827 -34.912164 
L 61.241361 -34.902396 
L 60.433895 -34.891303 
L 59.626428 -34.878708 
L 58.818962 -34.864062 
L 58.011496 -34.846921 
L 57.20403 -34.827406 
L 56.396563 -34.805636 
L 55.589097 -34.781732 
L 54.781631 -34.755814 
L 53.974164 -34.728002 
L 53.166698 -34.698416 
L 52.359232 -34.667178 
L 51.551765 -34.634406 
L 50.744299 -34.600222 
L 49.936833 -34.564745 
L 49.129366 -34.528097 
L 48.3219 -34.490397 
L 47.514434 -34.451765 
z
" style="stroke: #2ca02c; stroke-opacity: 0.7"/>
    </defs>
    <g clip-path="url(#pddb11d2e17)">
     <use xlink:href="#mfc009bed2b" x="0" y="217.083125" style="fill: #2ca02c; fill-opacity: 0.7; stroke: #2ca02c; stroke-opacity: 0.7"/>
    </g>
   </g>
   <g id="FillBetweenPolyCollection_4">
    <defs>
     <path id="m174d503514" d="M 47.514434 -34.467978 
L 47.514434 -34.451765 
L 48.3219 -34.490397 
L 49.129366 -34.528097 
L 49.936833 -34.564745 
L 50.744299 -34.600222 
L 51.551765 -34.634406 
L 52.359232 -34.667178 
L 53.166698 -34.698416 
L 53.974164 -34.728002 
L 54.781631 -34.755814 
L 55.589097 -34.781732 
L 56.396563 -34.805636 
L 57.20403 -34.827406 
L 58.011496 -34.846921 
L 58.818962 -34.864062 
L 59.626428 -34.878708 
L 60.433895 -34.891303 
L 61.241361 -34.902396 
L 62.048827 -34.912164 
L 62.856294 -34.920781 
L 63.66376 -34.928423 
L 64.471226 -34.935265 
L 65.278693 -34.941484 
L 66.086159 -34.947254 
L 66.893625 -34.952751 
L 67.701092 -34.95815 
L 68.508558 -34.963628 
L 69.316024 -34.969359 
L 70.123491 -34.975519 
L 70.930957 -34.982283 
L 71.738423 -34.989844 
L 72.545889 -35.000187 
L 73.353356 -35.014192 
L 74.160822 -35.031292 
L 74.968288 -35.05092 
L 75.775755 -35.072511 
L 76.583221 -35.095498 
L 77.390687 -35.119314 
L 78.198154 -35.143395 
L 79.00562 -35.167172 
L 79.813086 -35.19008 
L 80.620553 -35.211552 
L 81.428019 -35.231022 
L 82.235485 -35.247924 
L 83.042951 -35.261692 
L 83.850418 -35.271805 
L 84.657884 -35.280417 
L 85.46535 -35.288992 
L 86.272817 -35.297578 
L 87.080283 -35.306225 
L 87.887749 -35.314982 
L 88.695216 -35.323898 
L 89.502682 -35.333022 
L 90.310148 -35.342403 
L 91.117615 -35.352091 
L 91.925081 -35.362135 
L 92.732547 -35.372584 
L 93.540013 -35.383487 
L 94.34748 -35.394893 
L 95.154946 -35.406851 
L 95.962412 -35.419486 
L 96.769879 -35.435229 
L 97.577345 -35.455001 
L 98.384811 -35.47849 
L 99.192278 -35.505384 
L 99.999744 -35.535368 
L 100.80721 -35.568132 
L 101.614677 -35.603361 
L 102.422143 -35.640743 
L 103.229609 -35.679965 
L 104.037076 -35.720714 
L 104.844542 -35.762677 
L 105.652008 -35.805542 
L 106.459474 -35.848995 
L 107.266941 -35.892724 
L 108.074407 -35.936692 
L 108.881873 -35.98639 
L 109.68934 -36.043082 
L 110.496806 -36.105459 
L 111.304272 -36.172212 
L 112.111739 -36.242031 
L 112.919205 -36.313606 
L 113.726671 -36.385628 
L 114.534138 -36.456787 
L 115.341604 -36.525774 
L 116.14907 -36.591279 
L 116.956536 -36.651992 
L 117.764003 -36.706605 
L 118.571469 -36.753808 
L 119.378935 -36.79229 
L 120.186402 -36.82148 
L 120.993868 -36.851844 
L 121.801334 -36.886547 
L 122.608801 -36.924778 
L 123.416267 -36.965727 
L 124.223733 -37.008586 
L 125.0312 -37.052544 
L 125.838666 -37.096791 
L 126.646132 -37.140518 
L 127.453599 -37.182915 
L 128.261065 -37.223172 
L 129.068531 -37.260479 
L 129.875997 -37.294026 
L 130.683464 -37.323005 
L 131.49093 -37.346604 
L 132.298396 -37.363753 
L 133.105863 -37.37125 
L 133.913329 -37.369536 
L 134.720795 -37.360114 
L 135.528262 -37.344486 
L 136.335728 -37.324158 
L 137.143194 -37.300631 
L 137.950661 -37.275408 
L 138.758127 -37.249994 
L 139.565593 -37.225892 
L 140.373059 -37.204604 
L 141.180526 -37.187633 
L 141.987992 -37.176484 
L 142.795458 -37.172659 
L 143.602925 -37.177662 
L 144.410391 -37.193437 
L 145.217857 -37.224612 
L 146.025324 -37.270928 
L 146.83279 -37.330957 
L 147.640256 -37.403269 
L 148.447723 -37.486435 
L 149.255189 -37.579027 
L 150.062655 -37.679617 
L 150.870121 -37.786774 
L 151.677588 -37.899071 
L 152.485054 -38.015078 
L 153.29252 -38.133368 
L 154.099987 -38.25251 
L 154.907453 -38.371077 
L 155.714919 -38.487639 
L 156.522386 -38.602013 
L 157.329852 -38.722257 
L 158.137318 -38.849597 
L 158.944785 -38.983438 
L 159.752251 -39.123188 
L 160.559717 -39.268255 
L 161.367184 -39.418044 
L 162.17465 -39.571963 
L 162.982116 -39.729419 
L 163.789582 -39.889818 
L 164.597049 -40.052567 
L 165.404515 -40.217074 
L 166.211981 -40.382746 
L 167.019448 -40.548988 
L 167.826914 -40.715209 
L 168.63438 -40.883727 
L 169.441847 -41.070228 
L 170.249313 -41.273978 
L 171.056779 -41.491197 
L 171.864246 -41.718106 
L 172.671712 -41.950923 
L 173.479178 -42.185871 
L 174.286644 -42.419169 
L 175.094111 -42.647036 
L 175.901577 -42.865695 
L 176.709043 -43.071364 
L 177.51651 -43.260264 
L 178.323976 -43.428615 
L 179.131442 -43.572638 
L 179.938909 -43.688552 
L 180.746375 -43.775757 
L 181.553841 -43.848512 
L 182.361308 -43.910789 
L 183.168774 -43.96463 
L 183.97624 -44.012077 
L 184.783706 -44.055171 
L 185.591173 -44.095955 
L 186.398639 -44.13647 
L 187.206105 -44.178758 
L 188.013572 -44.224859 
L 188.821038 -44.276817 
L 189.628504 -44.336673 
L 190.435971 -44.406468 
L 191.243437 -44.488244 
L 192.050903 -44.584043 
L 192.85837 -44.736189 
L 193.665836 -45.09689 
L 194.473302 -45.650862 
L 195.280769 -46.363956 
L 196.088235 -47.20202 
L 196.895701 -48.130905 
L 197.703167 -49.116459 
L 198.510634 -50.124531 
L 199.3181 -51.120972 
L 200.125566 -52.071629 
L 200.933033 -52.942354 
L 201.740499 -53.698994 
L 202.547965 -54.307399 
L 203.355432 -54.733419 
L 204.162898 -54.942903 
L 204.970364 -54.941708 
L 205.777831 -54.853642 
L 206.585297 -54.699718 
L 207.392763 -54.490255 
L 208.200229 -54.235574 
L 209.007696 -53.945995 
L 209.815162 -53.631839 
L 210.622628 -53.303425 
L 211.430095 -52.971075 
L 212.237561 -52.645108 
L 213.045027 -52.335844 
L 213.852494 -52.053605 
L 214.65996 -51.80871 
L 215.467426 -51.611479 
L 216.274893 -51.472233 
L 217.082359 -51.383097 
L 217.889825 -51.297233 
L 218.697292 -51.21256 
L 219.504758 -51.130201 
L 220.312224 -51.051278 
L 221.11969 -50.976914 
L 221.927157 -50.908233 
L 222.734623 -50.846356 
L 223.542089 -50.792408 
L 224.349556 -50.74751 
L 225.157022 -50.712785 
L 225.964488 -50.689357 
L 226.771955 -50.678347 
L 227.579421 -50.68088 
L 228.386887 -50.698077 
L 229.194354 -50.758692 
L 230.00182 -50.92319 
L 230.809286 -51.179877 
L 231.616752 -51.51382 
L 232.424219 -51.910086 
L 233.231685 -52.353743 
L 234.039151 -52.829858 
L 234.846618 -53.323499 
L 235.654084 -53.819733 
L 236.46155 -54.303627 
L 237.269017 -54.760249 
L 238.076483 -55.174667 
L 238.883949 -55.531947 
L 239.691416 -55.817156 
L 240.498882 -56.015364 
L 241.306348 -56.140406 
L 242.113814 -56.24622 
L 242.921281 -56.337204 
L 243.728747 -56.416074 
L 244.536213 -56.48555 
L 245.34368 -56.548347 
L 246.151146 -56.607183 
L 246.958612 -56.664776 
L 247.766079 -56.723843 
L 248.573545 -56.787101 
L 249.381011 -56.857269 
L 250.188478 -56.937062 
L 250.995944 -57.029199 
L 251.80341 -57.136398 
L 252.610877 -57.261374 
L 253.418343 -57.442725 
L 254.225809 -57.73464 
L 255.033275 -58.122006 
L 255.840742 -58.588524 
L 256.648208 -59.117892 
L 257.455674 -59.69381 
L 258.263141 -60.299976 
L 259.070607 -60.920091 
L 259.878073 -61.537853 
L 260.68554 -62.136962 
L 261.493006 -62.701116 
L 262.300472 -63.214016 
L 263.107939 -63.65936 
L 263.915405 -64.020848 
L 264.722871 -64.282179 
L 265.530337 -64.465401 
L 266.337804 -64.622185 
L 267.14527 -64.756781 
L 267.952736 -64.873 
L 268.760203 -64.974655 
L 269.567669 -65.065556 
L 270.375135 -65.149515 
L 271.182602 -65.230343 
L 271.990068 -65.311852 
L 272.797534 -65.397854 
L 273.605001 -65.49216 
L 274.412467 -65.598581 
L 275.219933 -65.720928 
L 276.0274 -65.863014 
L 276.834866 -66.02865 
L 277.642332 -66.220509 
L 278.449798 -66.437841 
L 279.257265 -66.679438 
L 280.064731 -66.94409 
L 280.872197 -67.23059 
L 281.679664 -67.537729 
L 282.48713 -67.8643 
L 283.294596 -68.209095 
L 284.102063 -68.570904 
L 284.909529 -68.94852 
L 285.716995 -69.340735 
L 286.524462 -69.74634 
L 287.331928 -70.164128 
L 288.139394 -70.592891 
L 288.94686 -71.031419 
L 288.94686 -78.773732 
L 288.94686 -78.773732 
L 288.139394 -78.377569 
L 287.331928 -77.990486 
L 286.524462 -77.613435 
L 285.716995 -77.247366 
L 284.909529 -76.893231 
L 284.102063 -76.55198 
L 283.294596 -76.224564 
L 282.48713 -75.911934 
L 281.679664 -75.615041 
L 280.872197 -75.334836 
L 280.064731 -75.07227 
L 279.257265 -74.828293 
L 278.449798 -74.603857 
L 277.642332 -74.399912 
L 276.834866 -74.217416 
L 276.0274 -74.05909 
L 275.219933 -73.923998 
L 274.412467 -73.8083 
L 273.605001 -73.708156 
L 272.797534 -73.619726 
L 271.990068 -73.539169 
L 271.182602 -73.462647 
L 270.375135 -73.386317 
L 269.567669 -73.306341 
L 268.760203 -73.218878 
L 267.952736 -73.120087 
L 267.14527 -73.00613 
L 266.337804 -72.873164 
L 265.530337 -72.717352 
L 264.722871 -72.534294 
L 263.915405 -72.259008 
L 263.107939 -71.862279 
L 262.300472 -71.36311 
L 261.493006 -70.7805 
L 260.68554 -70.133453 
L 259.878073 -69.44097 
L 259.070607 -68.722051 
L 258.263141 -67.9957 
L 257.455674 -67.280917 
L 256.648208 -66.596704 
L 255.840742 -65.962062 
L 255.033275 -65.395994 
L 254.225809 -64.917501 
L 253.418343 -64.545584 
L 252.610877 -64.297934 
L 251.80341 -64.115465 
L 250.995944 -63.955303 
L 250.188478 -63.813969 
L 249.381011 -63.687984 
L 248.573545 -63.573869 
L 247.766079 -63.468145 
L 246.958612 -63.367333 
L 246.151146 -63.267953 
L 245.34368 -63.166527 
L 244.536213 -63.059577 
L 243.728747 -62.943621 
L 242.921281 -62.815183 
L 242.113814 -62.670782 
L 241.306348 -62.50694 
L 240.498882 -62.318215 
L 239.691416 -62.041525 
L 238.883949 -61.661294 
L 238.076483 -61.195665 
L 237.269017 -60.662784 
L 236.46155 -60.080792 
L 235.654084 -59.467835 
L 234.846618 -58.842055 
L 234.039151 -58.221597 
L 233.231685 -57.624605 
L 232.424219 -57.069221 
L 231.616752 -56.573591 
L 230.809286 -56.155857 
L 230.00182 -55.834163 
L 229.194354 -55.626654 
L 228.386887 -55.54742 
L 227.579421 -55.520383 
L 226.771955 -55.509551 
L 225.964488 -55.513577 
L 225.157022 -55.531113 
L 224.349556 -55.56081 
L 223.542089 -55.601321 
L 222.734623 -55.651296 
L 221.927157 -55.709388 
L 221.11969 -55.774249 
L 220.312224 -55.844531 
L 219.504758 -55.918885 
L 218.697292 -55.995963 
L 217.889825 -56.074417 
L 217.082359 -56.152899 
L 216.274893 -56.233291 
L 215.467426 -56.362654 
L 214.65996 -56.54891 
L 213.852494 -56.781654 
L 213.045027 -57.050484 
L 212.237561 -57.344994 
L 211.430095 -57.654782 
L 210.622628 -57.969444 
L 209.815162 -58.278575 
L 209.007696 -58.571773 
L 208.200229 -58.838633 
L 207.392763 -59.068752 
L 206.585297 -59.251725 
L 205.777831 -59.37715 
L 204.970364 -59.434622 
L 204.162898 -59.401093 
L 203.355432 -59.131002 
L 202.547965 -58.616341 
L 201.740499 -57.896199 
L 200.933033 -57.009665 
L 200.125566 -55.995829 
L 199.3181 -54.89378 
L 198.510634 -53.742606 
L 197.703167 -52.581397 
L 196.895701 -51.449241 
L 196.088235 -50.385229 
L 195.280769 -49.428449 
L 194.473302 -48.61799 
L 193.665836 -47.992942 
L 192.85837 -47.592393 
L 192.050903 -47.43427 
L 191.243437 -47.347973 
L 190.435971 -47.284889 
L 189.628504 -47.241463 
L 188.821038 -47.214141 
L 188.013572 -47.199369 
L 187.206105 -47.193593 
L 186.398639 -47.193256 
L 185.591173 -47.194806 
L 184.783706 -47.194688 
L 183.97624 -47.189346 
L 183.168774 -47.175227 
L 182.361308 -47.148777 
L 181.553841 -47.10644 
L 180.746375 -47.044662 
L 179.938909 -46.95564 
L 179.131442 -46.80867 
L 178.323976 -46.605278 
L 177.51651 -46.353943 
L 176.709043 -46.063145 
L 175.901577 -45.741361 
L 175.094111 -45.397072 
L 174.286644 -45.038757 
L 173.479178 -44.674894 
L 172.671712 -44.313963 
L 171.864246 -43.964443 
L 171.056779 -43.634814 
L 170.249313 -43.333554 
L 169.441847 -43.069142 
L 168.63438 -42.850058 
L 167.826914 -42.677954 
L 167.019448 -42.517097 
L 166.211981 -42.360841 
L 165.404515 -42.209006 
L 164.597049 -42.06141 
L 163.789582 -41.917873 
L 162.982116 -41.778215 
L 162.17465 -41.642254 
L 161.367184 -41.509811 
L 160.559717 -41.380705 
L 159.752251 -41.254755 
L 158.944785 -41.13178 
L 158.137318 -41.0116 
L 157.329852 -40.894035 
L 156.522386 -40.778903 
L 155.714919 -40.664347 
L 154.907453 -40.542731 
L 154.099987 -40.414765 
L 153.29252 -40.282354 
L 152.485054 -40.147403 
L 151.677588 -40.011815 
L 150.870121 -39.877496 
L 150.062655 -39.746349 
L 149.255189 -39.620278 
L 148.447723 -39.501189 
L 147.640256 -39.390986 
L 146.83279 -39.291573 
L 146.025324 -39.204854 
L 145.217857 -39.132734 
L 144.410391 -39.077117 
L 143.602925 -39.038057 
L 142.795458 -39.008505 
L 141.987992 -38.986476 
L 141.180526 -38.970721 
L 140.373059 -38.959993 
L 139.565593 -38.953045 
L 138.758127 -38.948628 
L 137.950661 -38.945494 
L 137.143194 -38.942397 
L 136.335728 -38.938088 
L 135.528262 -38.93132 
L 134.720795 -38.920845 
L 133.913329 -38.905415 
L 133.105863 -38.883783 
L 132.298396 -38.854701 
L 131.49093 -38.817304 
L 130.683464 -38.772744 
L 129.875997 -38.722221 
L 129.068531 -38.666875 
L 128.261065 -38.607844 
L 127.453599 -38.546266 
L 126.646132 -38.483278 
L 125.838666 -38.420021 
L 125.0312 -38.357632 
L 124.223733 -38.297249 
L 123.416267 -38.240011 
L 122.608801 -38.187056 
L 121.801334 -38.139523 
L 120.993868 -38.09855 
L 120.186402 -38.065275 
L 119.378935 -38.036889 
L 118.571469 -38.00291 
L 117.764003 -37.96338 
L 116.956536 -37.919059 
L 116.14907 -37.870709 
L 115.341604 -37.819089 
L 114.534138 -37.764962 
L 113.726671 -37.709087 
L 112.919205 -37.652227 
L 112.111739 -37.595141 
L 111.304272 -37.538591 
L 110.496806 -37.483337 
L 109.68934 -37.43014 
L 108.881873 -37.379762 
L 108.074407 -37.332963 
L 107.266941 -37.28624 
L 106.459474 -37.23033 
L 105.652008 -37.166299 
L 104.844542 -37.095698 
L 104.037076 -37.020074 
L 103.229609 -36.940976 
L 102.422143 -36.859953 
L 101.614677 -36.778553 
L 100.80721 -36.698326 
L 99.999744 -36.620821 
L 99.192278 -36.547584 
L 98.384811 -36.480167 
L 97.577345 -36.420116 
L 96.769879 -36.368982 
L 95.962412 -36.328312 
L 95.154946 -36.296358 
L 94.34748 -36.266881 
L 93.540013 -36.239416 
L 92.732547 -36.213693 
L 91.925081 -36.189442 
L 91.117615 -36.166389 
L 90.310148 -36.144266 
L 89.502682 -36.122801 
L 88.695216 -36.101722 
L 87.887749 -36.08076 
L 87.080283 -36.059642 
L 86.272817 -36.038099 
L 85.46535 -36.015858 
L 84.657884 -35.99265 
L 83.850418 -35.968203 
L 83.042951 -35.940085 
L 82.235485 -35.905123 
L 81.428019 -35.864466 
L 80.620553 -35.819332 
L 79.813086 -35.770944 
L 79.00562 -35.720521 
L 78.198154 -35.669285 
L 77.390687 -35.618455 
L 76.583221 -35.569253 
L 75.775755 -35.522899 
L 74.968288 -35.480614 
L 74.160822 -35.443618 
L 73.353356 -35.413132 
L 72.545889 -35.390377 
L 71.738423 -35.376573 
L 70.930957 -35.36926 
L 70.123491 -35.3634 
L 69.316024 -35.358677 
L 68.508558 -35.354821 
L 67.701092 -35.351561 
L 66.893625 -35.348626 
L 66.086159 -35.345743 
L 65.278693 -35.342643 
L 64.471226 -35.339053 
L 63.66376 -35.334703 
L 62.856294 -35.329322 
L 62.048827 -35.322637 
L 61.241361 -35.314379 
L 60.433895 -35.304275 
L 59.626428 -35.292056 
L 58.818962 -35.275106 
L 58.011496 -35.250773 
L 57.20403 -35.219502 
L 56.396563 -35.181746 
L 55.589097 -35.137959 
L 54.781631 -35.088592 
L 53.974164 -35.0341 
L 53.166698 -34.974935 
L 52.359232 -34.911549 
L 51.551765 -34.844397 
L 50.744299 -34.77393 
L 49.936833 -34.700602 
L 49.129366 -34.624865 
L 48.3219 -34.547173 
L 47.514434 -34.467978 
z
" style="stroke: #ff7f0e; stroke-opacity: 0.7"/>
    </defs>
    <g clip-path="url(#pddb11d2e17)">
     <use xlink:href="#m174d503514" x="0" y="217.083125" style="fill: #ff7f0e; fill-opacity: 0.7; stroke: #ff7f0e; stroke-opacity: 0.7"/>
    </g>
   </g>
   <g id="patch_3">
    <path d="M 35.442813 182.68 
L 35.442813 7.2 
" style="fill: none; stroke: #000000; stroke-width: 0.5; stroke-linejoin: miter; stroke-linecap: square"/>
   </g>
   <g id="patch_4">
    <path d="M 35.442813 182.68 
L 301.018482 182.68 
" style="fill: none; stroke: #000000; stroke-width: 0.5; stroke-linejoin: miter; stroke-linecap: square"/>
   </g>
   <g id="legend_1">
    <g id="patch_5">
     <path d="M 44.442813 23.7 
L 64.442813 23.7 
L 64.442813 16.7 
L 44.442813 16.7 
z
" style="fill: #d62728; fill-opacity: 0.7; stroke: #d62728; stroke-opacity: 0.7; stroke-linejoin: miter"/>
    </g>
    <g id="text_14">
     <!-- Solo -->
     <g transform="translate(72.442813 23.7) scale(0.1 -0.1)">
      <defs>
       <path id="RobotoCondensed-Regular-53" d="M 2481 1150 
Q 2481 1469 2312 1656 
Q 2144 1844 1591 2042 
Q 1038 2241 713 2547 
Q 388 2853 388 3375 
Q 388 3906 741 4259 
Q 1094 4613 1691 4613 
Q 2356 4613 2706 4191 
Q 3056 3769 3056 3238 
L 2481 3238 
Q 2481 3619 2293 3869 
Q 2106 4119 1691 4119 
Q 1313 4119 1139 3908 
Q 966 3697 966 3381 
Q 966 3094 1170 2903 
Q 1375 2713 1806 2556 
Q 2475 2338 2765 2013 
Q 3056 1688 3056 1156 
Q 3056 600 2695 268 
Q 2334 -63 1719 -63 
Q 1363 -63 1028 93 
Q 694 250 480 558 
Q 266 866 266 1319 
L 841 1319 
Q 841 853 1098 640 
Q 1356 428 1719 428 
Q 2094 428 2287 623 
Q 2481 819 2481 1150 
z
" transform="scale(0.015625)"/>
       <path id="RobotoCondensed-Regular-6c" d="M 1009 4800 
L 1009 0 
L 459 0 
L 459 4800 
L 1009 4800 
z
" transform="scale(0.015625)"/>
      </defs>
      <use xlink:href="#RobotoCondensed-Regular-53"/>
      <use xlink:href="#RobotoCondensed-Regular-6f" transform="translate(51.855469 0)"/>
      <use xlink:href="#RobotoCondensed-Regular-6c" transform="translate(102.050781 0)"/>
      <use xlink:href="#RobotoCondensed-Regular-6f" transform="translate(125 0)"/>
     </g>
    </g>
    <g id="patch_6">
     <path d="M 44.442813 38.23125 
L 64.442813 38.23125 
L 64.442813 31.23125 
L 44.442813 31.23125 
z
" style="fill: #1f77b4; fill-opacity: 0.7; stroke: #1f77b4; stroke-opacity: 0.7; stroke-linejoin: miter"/>
    </g>
    <g id="text_15">
     <!-- Initial -->
     <g transform="translate(72.442813 38.23125) scale(0.1 -0.1)">
      <defs>
       <path id="RobotoCondensed-Regular-49" d="M 1091 4550 
L 1091 0 
L 516 0 
L 516 4550 
L 1091 4550 
z
" transform="scale(0.015625)"/>
      </defs>
      <use xlink:href="#RobotoCondensed-Regular-49"/>
      <use xlink:href="#RobotoCondensed-Regular-6e" transform="translate(25 0)"/>
      <use xlink:href="#RobotoCondensed-Regular-69" transform="translate(73.4375 0)"/>
      <use xlink:href="#RobotoCondensed-Regular-74" transform="translate(96.386719 0)"/>
      <use xlink:href="#RobotoCondensed-Regular-69" transform="translate(125.976562 0)"/>
      <use xlink:href="#RobotoCondensed-Regular-61" transform="translate(148.925781 0)"/>
      <use xlink:href="#RobotoCondensed-Regular-6c" transform="translate(196.826172 0)"/>
     </g>
    </g>
    <g id="patch_7">
     <path d="M 44.442813 52.7625 
L 64.442813 52.7625 
L 64.442813 45.7625 
L 44.442813 45.7625 
z
" style="fill: #2ca02c; fill-opacity: 0.7; stroke: #2ca02c; stroke-opacity: 0.7; stroke-linejoin: miter"/>
    </g>
    <g id="text_16">
     <!-- Middle -->
     <g transform="translate(72.442813 52.7625) scale(0.1 -0.1)">
      <defs>
       <path id="RobotoCondensed-Regular-4d" d="M 2419 841 
L 3606 4550 
L 4341 4550 
L 4341 0 
L 3769 0 
L 3769 1775 
L 3822 3538 
L 2634 0 
L 2197 0 
L 1009 3544 
L 1063 1775 
L 1063 0 
L 491 0 
L 491 4550 
L 1228 4550 
L 2419 841 
z
" transform="scale(0.015625)"/>
       <path id="RobotoCondensed-Regular-64" d="M 2234 0 
L 2209 366 
Q 1941 -63 1425 -63 
Q 925 -63 611 331 
Q 297 725 297 1528 
L 297 1844 
Q 297 2678 609 3061 
Q 922 3444 1431 3444 
Q 1922 3444 2188 3050 
L 2188 4800 
L 2738 4800 
L 2738 0 
L 2234 0 
z
M 850 1528 
Q 850 963 1019 695 
Q 1188 428 1569 428 
Q 1981 428 2188 847 
L 2188 2544 
Q 1972 2956 1575 2956 
Q 1194 2956 1023 2687 
Q 853 2419 850 1866 
L 850 1528 
z
" transform="scale(0.015625)"/>
      </defs>
      <use xlink:href="#RobotoCondensed-Regular-4d"/>
      <use xlink:href="#RobotoCondensed-Regular-69" transform="translate(75.537109 0)"/>
      <use xlink:href="#RobotoCondensed-Regular-64" transform="translate(98.486328 0)"/>
      <use xlink:href="#RobotoCondensed-Regular-64" transform="translate(148.095703 0)"/>
      <use xlink:href="#RobotoCondensed-Regular-6c" transform="translate(197.705078 0)"/>
      <use xlink:href="#RobotoCondensed-Regular-65" transform="translate(220.654297 0)"/>
     </g>
    </g>
    <g id="patch_8">
     <path d="M 44.442813 67.29375 
L 64.442813 67.29375 
L 64.442813 60.29375 
L 44.442813 60.29375 
z
" style="fill: #ff7f0e; fill-opacity: 0.7; stroke: #ff7f0e; stroke-opacity: 0.7; stroke-linejoin: miter"/>
    </g>
    <g id="text_17">
     <!-- End -->
     <g transform="translate(72.442813 67.29375) scale(0.1 -0.1)">
      <defs>
       <path id="RobotoCondensed-Regular-45" d="M 491 0 
L 491 4550 
L 2906 4550 
L 2906 4056 
L 1066 4056 
L 1066 2594 
L 2672 2594 
L 2672 2103 
L 1066 2103 
L 1066 491 
L 2938 491 
L 2938 0 
L 491 0 
z
" transform="scale(0.015625)"/>
      </defs>
      <use xlink:href="#RobotoCondensed-Regular-45"/>
      <use xlink:href="#RobotoCondensed-Regular-6e" transform="translate(49.707031 0)"/>
      <use xlink:href="#RobotoCondensed-Regular-64" transform="translate(98.144531 0)"/>
     </g>
    </g>
   </g>
  </g>
 </g>
 <defs>
  <clipPath id="pddb11d2e17">
   <rect x="35.442813" y="7.2" width="265.575669" height="175.48"/>
  </clipPath>
 </defs>
</svg>
