<?xml version="1.0" encoding="utf-8" standalone="no"?>
<!DOCTYPE svg PUBLIC "-//W3C//DTD SVG 1.1//EN"
  "http://www.w3.org/Graphics/SVG/1.1/DTD/svg11.dtd">
<svg xmlns:xlink="http://www.w3.org/1999/xlink" width="314.178169pt" height="217.533125pt" viewBox="0 0 314.178169 217.533125" xmlns="http://www.w3.org/2000/svg" version="1.1">
 <metadata>
  <rdf:RDF xmlns:dc="http://purl.org/dc/elements/1.1/" xmlns:cc="http://creativecommons.org/ns#" xmlns:rdf="http://www.w3.org/1999/02/22-rdf-syntax-ns#">
   <cc:Work>
    <dc:type rdf:resource="http://purl.org/dc/dcmitype/StillImage"/>
    <dc:date>2026-04-28T10:06:39.215984</dc:date>
    <dc:format>image/svg+xml</dc:format>
    <dc:creator>
     <cc:Agent>
      <dc:title>Matplotlib v3.10.7, https://matplotlib.org/</dc:title>
     </cc:Agent>
    </dc:creator>
   </cc:Work>
  </rdf:RDF>
 </metadata>
 <defs>
  <style type="text/css">*{stroke-linejoin: round; stroke-linecap: butt}</style>
 </defs>
 <g id="figure_1">
  <g id="patch_1">
   <path d="M -0 217.533125 
L 314.178169 217.533125 
L 314.178169 -0 
L -0 -0 
z
" style="fill: #ffffff"/>
  </g>
  <g id="axes_1">
   <g id="patch_2">
    <path d="M 38.404375 183.13 
L 301.055044 183.13 
L 301.055044 9.45 
L 38.404375 9.45 
z
" style="fill: #ffffff"/>
   </g>
   <g id="matplotlib.axis_1">
    <g id="xtick_1">
     <g id="line2d_1">
      <defs>
       <path id="mf4fcdaacf3" d="M 0 0 
L 0 3.5 
" style="stroke: #000000; stroke-width: 0.8"/>
      </defs>
      <g>
       <use xlink:href="#mf4fcdaacf3" x="50.343042" y="183.13" style="stroke: #000000; stroke-width: 0.8"/>
      </g>
     </g>
     <g id="text_1">
      <!-- 2004 -->
      <g transform="translate(44.419917 194.63) scale(0.06 -0.06)">
       <defs>
        <path id="RobotoCondensed-Regular-32" d="M 2909 475 
L 2909 0 
L 366 0 
L 366 416 
L 1628 2088 
Q 1966 2541 2077 2802 
Q 2188 3063 2188 3328 
Q 2188 3663 2027 3900 
Q 1866 4138 1575 4138 
Q 1194 4138 1022 3878 
Q 850 3619 850 3213 
L 297 3213 
Q 297 3788 617 4200 
Q 938 4613 1575 4613 
Q 2125 4613 2433 4278 
Q 2741 3944 2741 3397 
Q 2741 2997 2541 2594 
Q 2341 2191 2047 1809 
L 1028 475 
L 2909 475 
z
" transform="scale(0.015625)"/>
        <path id="RobotoCondensed-Regular-30" d="M 2797 1944 
Q 2797 825 2467 381 
Q 2138 -63 1581 -63 
Q 1038 -63 703 370 
Q 369 803 359 1878 
L 359 2638 
Q 359 3753 695 4183 
Q 1031 4613 1578 4613 
Q 2131 4613 2461 4189 
Q 2791 3766 2797 2681 
L 2797 1944 
z
M 2247 2734 
Q 2247 3503 2073 3822 
Q 1900 4141 1578 4141 
Q 1266 4141 1092 3833 
Q 919 3525 913 2791 
L 913 1850 
Q 913 1088 1089 750 
Q 1266 413 1581 413 
Q 1903 413 2072 738 
Q 2241 1063 2247 1794 
L 2247 2734 
z
" transform="scale(0.015625)"/>
        <path id="RobotoCondensed-Regular-34" d="M 188 1397 
L 1878 4550 
L 2463 4550 
L 2463 1531 
L 2969 1531 
L 2969 1056 
L 2463 1056 
L 2463 0 
L 1909 0 
L 1909 1056 
L 188 1056 
L 188 1397 
z
M 803 1531 
L 1909 1531 
L 1909 3703 
L 1878 3638 
L 803 1531 
z
" transform="scale(0.015625)"/>
       </defs>
       <use xlink:href="#RobotoCondensed-Regular-32"/>
       <use xlink:href="#RobotoCondensed-Regular-30" transform="translate(49.365234 0)"/>
       <use xlink:href="#RobotoCondensed-Regular-30" transform="translate(98.730469 0)"/>
       <use xlink:href="#RobotoCondensed-Regular-34" transform="translate(148.095703 0)"/>
      </g>
     </g>
    </g>
    <g id="xtick_2">
     <g id="line2d_2">
      <g>
       <use xlink:href="#mf4fcdaacf3" x="86.159042" y="183.13" style="stroke: #000000; stroke-width: 0.8"/>
      </g>
     </g>
     <g id="text_2">
      <!-- 2007 -->
      <g transform="translate(80.235917 194.63) scale(0.06 -0.06)">
       <defs>
        <path id="RobotoCondensed-Regular-37" d="M 2878 4550 
L 2878 4225 
L 1313 0 
L 731 0 
L 2297 4075 
L 269 4075 
L 269 4550 
L 2878 4550 
z
" transform="scale(0.015625)"/>
       </defs>
       <use xlink:href="#RobotoCondensed-Regular-32"/>
       <use xlink:href="#RobotoCondensed-Regular-30" transform="translate(49.365234 0)"/>
       <use xlink:href="#RobotoCondensed-Regular-30" transform="translate(98.730469 0)"/>
       <use xlink:href="#RobotoCondensed-Regular-37" transform="translate(148.095703 0)"/>
      </g>
     </g>
    </g>
    <g id="xtick_3">
     <g id="line2d_3">
      <g>
       <use xlink:href="#mf4fcdaacf3" x="121.975043" y="183.13" style="stroke: #000000; stroke-width: 0.8"/>
      </g>
     </g>
     <g id="text_3">
      <!-- 2010 -->
      <g transform="translate(116.051918 194.63) scale(0.06 -0.06)">
       <defs>
        <path id="RobotoCondensed-Regular-31" d="M 2013 4575 
L 2013 0 
L 1459 0 
L 1459 3853 
L 503 3428 
L 503 3950 
L 1928 4575 
L 2013 4575 
z
" transform="scale(0.015625)"/>
       </defs>
       <use xlink:href="#RobotoCondensed-Regular-32"/>
       <use xlink:href="#RobotoCondensed-Regular-30" transform="translate(49.365234 0)"/>
       <use xlink:href="#RobotoCondensed-Regular-31" transform="translate(98.730469 0)"/>
       <use xlink:href="#RobotoCondensed-Regular-30" transform="translate(148.095703 0)"/>
      </g>
     </g>
    </g>
    <g id="xtick_4">
     <g id="line2d_4">
      <g>
       <use xlink:href="#mf4fcdaacf3" x="157.791043" y="183.13" style="stroke: #000000; stroke-width: 0.8"/>
      </g>
     </g>
     <g id="text_4">
      <!-- 2013 -->
      <g transform="translate(151.867918 194.63) scale(0.06 -0.06)">
       <defs>
        <path id="RobotoCondensed-Regular-33" d="M 1075 2084 
L 1075 2559 
L 1431 2559 
Q 1788 2559 1961 2781 
Q 2134 3003 2134 3338 
Q 2134 4138 1519 4138 
Q 1228 4138 1054 3927 
Q 881 3716 881 3359 
L 331 3359 
Q 331 3881 653 4247 
Q 975 4613 1519 4613 
Q 2038 4613 2363 4286 
Q 2688 3959 2688 3325 
Q 2688 3072 2550 2786 
Q 2413 2500 2100 2338 
Q 2484 2194 2612 1886 
Q 2741 1578 2741 1269 
Q 2741 631 2389 284 
Q 2038 -63 1516 -63 
Q 1006 -63 656 267 
Q 306 597 306 1203 
L 859 1203 
Q 859 844 1032 628 
Q 1206 413 1516 413 
Q 1822 413 2005 622 
Q 2188 831 2188 1256 
Q 2188 2084 1403 2084 
L 1075 2084 
z
" transform="scale(0.015625)"/>
       </defs>
       <use xlink:href="#RobotoCondensed-Regular-32"/>
       <use xlink:href="#RobotoCondensed-Regular-30" transform="translate(49.365234 0)"/>
       <use xlink:href="#RobotoCondensed-Regular-31" transform="translate(98.730469 0)"/>
       <use xlink:href="#RobotoCondensed-Regular-33" transform="translate(148.095703 0)"/>
      </g>
     </g>
    </g>
    <g id="xtick_5">
     <g id="line2d_5">
      <g>
       <use xlink:href="#mf4fcdaacf3" x="193.607043" y="183.13" style="stroke: #000000; stroke-width: 0.8"/>
      </g>
     </g>
     <g id="text_5">
      <!-- 2016 -->
      <g transform="translate(187.683918 194.63) scale(0.06 -0.06)">
       <defs>
        <path id="RobotoCondensed-Regular-36" d="M 2847 1484 
Q 2847 838 2544 387 
Q 2241 -63 1641 -63 
Q 1216 -63 944 198 
Q 672 459 542 861 
Q 413 1263 413 1684 
L 413 1956 
Q 413 2438 481 2900 
Q 550 3363 742 3738 
Q 934 4113 1296 4334 
Q 1659 4556 2291 4556 
L 2291 4066 
Q 1775 4066 1508 3859 
Q 1241 3653 1122 3318 
Q 1003 2984 978 2606 
Q 1272 2984 1750 2984 
Q 2138 2984 2380 2765 
Q 2622 2547 2734 2201 
Q 2847 1856 2847 1484 
z
M 969 1666 
Q 969 1059 1180 737 
Q 1391 416 1641 416 
Q 1959 416 2129 708 
Q 2300 1000 2300 1456 
Q 2300 1863 2144 2184 
Q 1988 2506 1659 2506 
Q 1425 2506 1236 2329 
Q 1047 2153 969 1900 
L 969 1666 
z
" transform="scale(0.015625)"/>
       </defs>
       <use xlink:href="#RobotoCondensed-Regular-32"/>
       <use xlink:href="#RobotoCondensed-Regular-30" transform="translate(49.365234 0)"/>
       <use xlink:href="#RobotoCondensed-Regular-31" transform="translate(98.730469 0)"/>
       <use xlink:href="#RobotoCondensed-Regular-36" transform="translate(148.095703 0)"/>
      </g>
     </g>
    </g>
    <g id="xtick_6">
     <g id="line2d_6">
      <g>
       <use xlink:href="#mf4fcdaacf3" x="229.423044" y="183.13" style="stroke: #000000; stroke-width: 0.8"/>
      </g>
     </g>
     <g id="text_6">
      <!-- 2019 -->
      <g transform="translate(223.499919 194.63) scale(0.06 -0.06)">
       <defs>
        <path id="RobotoCondensed-Regular-39" d="M 2744 2563 
Q 2744 2119 2687 1667 
Q 2631 1216 2450 836 
Q 2269 456 1903 225 
Q 1538 -6 869 -6 
L 866 484 
Q 1428 484 1698 690 
Q 1969 897 2072 1233 
Q 2175 1569 2191 1950 
Q 1859 1522 1413 1522 
Q 1025 1522 786 1747 
Q 547 1972 436 2320 
Q 325 2669 325 3041 
Q 325 3691 623 4152 
Q 922 4613 1522 4613 
Q 1969 4613 2237 4344 
Q 2506 4075 2625 3653 
Q 2744 3231 2744 2772 
L 2744 2563 
z
M 866 3072 
Q 866 2666 1020 2334 
Q 1175 2003 1506 2003 
Q 1716 2003 1906 2179 
Q 2097 2356 2194 2616 
L 2194 2850 
Q 2194 3472 1983 3803 
Q 1772 4134 1522 4134 
Q 1206 4134 1036 3829 
Q 866 3525 866 3072 
z
" transform="scale(0.015625)"/>
       </defs>
       <use xlink:href="#RobotoCondensed-Regular-32"/>
       <use xlink:href="#RobotoCondensed-Regular-30" transform="translate(49.365234 0)"/>
       <use xlink:href="#RobotoCondensed-Regular-31" transform="translate(98.730469 0)"/>
       <use xlink:href="#RobotoCondensed-Regular-39" transform="translate(148.095703 0)"/>
      </g>
     </g>
    </g>
    <g id="xtick_7">
     <g id="line2d_7">
      <g>
       <use xlink:href="#mf4fcdaacf3" x="265.239044" y="183.13" style="stroke: #000000; stroke-width: 0.8"/>
      </g>
     </g>
     <g id="text_7">
      <!-- 2022 -->
      <g transform="translate(259.315919 194.63) scale(0.06 -0.06)">
       <use xlink:href="#RobotoCondensed-Regular-32"/>
       <use xlink:href="#RobotoCondensed-Regular-30" transform="translate(49.365234 0)"/>
       <use xlink:href="#RobotoCondensed-Regular-32" transform="translate(98.730469 0)"/>
       <use xlink:href="#RobotoCondensed-Regular-32" transform="translate(148.095703 0)"/>
      </g>
     </g>
    </g>
    <g id="xtick_8">
     <g id="line2d_8">
      <g>
       <use xlink:href="#mf4fcdaacf3" x="301.055044" y="183.13" style="stroke: #000000; stroke-width: 0.8"/>
      </g>
     </g>
     <g id="text_8">
      <!-- 2025 -->
      <g transform="translate(295.131919 194.63) scale(0.06 -0.06)">
       <defs>
        <path id="RobotoCondensed-Regular-35" d="M 1034 2166 
L 594 2284 
L 788 4550 
L 2769 4550 
L 2769 4016 
L 1253 4016 
L 1147 2778 
Q 1438 2975 1753 2975 
Q 2288 2975 2591 2561 
Q 2894 2147 2894 1450 
Q 2894 797 2584 367 
Q 2275 -63 1656 -63 
Q 1194 -63 850 248 
Q 506 559 453 1197 
L 975 1197 
Q 1066 413 1656 413 
Q 1978 413 2159 691 
Q 2341 969 2341 1444 
Q 2341 1872 2153 2164 
Q 1966 2456 1619 2456 
Q 1384 2456 1273 2378 
Q 1163 2300 1034 2166 
z
" transform="scale(0.015625)"/>
       </defs>
       <use xlink:href="#RobotoCondensed-Regular-32"/>
       <use xlink:href="#RobotoCondensed-Regular-30" transform="translate(49.365234 0)"/>
       <use xlink:href="#RobotoCondensed-Regular-32" transform="translate(98.730469 0)"/>
       <use xlink:href="#RobotoCondensed-Regular-35" transform="translate(148.095703 0)"/>
      </g>
     </g>
    </g>
    <g id="text_9">
     <!-- Year -->
     <g transform="translate(159.954319 208.09875) scale(0.11 -0.11)">
      <defs>
       <path id="RobotoCondensed-Regular-59" d="M 747 4550 
L 1675 2266 
L 2606 4550 
L 3256 4550 
L 1963 1700 
L 1963 0 
L 1388 0 
L 1388 1700 
L 94 4550 
L 747 4550 
z
" transform="scale(0.015625)"/>
       <path id="RobotoCondensed-Regular-65" d="M 2722 447 
Q 2584 253 2323 95 
Q 2063 -63 1625 -63 
Q 1019 -63 666 301 
Q 313 666 309 1431 
L 309 1828 
Q 309 2722 696 3083 
Q 1084 3444 1563 3444 
Q 2197 3444 2472 3034 
Q 2747 2625 2747 1850 
L 2747 1528 
L 863 1528 
L 863 1447 
Q 863 906 1067 657 
Q 1272 409 1656 409 
Q 1934 409 2114 517 
Q 2294 625 2431 794 
L 2722 447 
z
M 1563 2969 
Q 1275 2969 1084 2770 
Q 894 2572 866 2000 
L 2194 2000 
L 2194 2078 
Q 2172 2469 2048 2719 
Q 1925 2969 1563 2969 
z
" transform="scale(0.015625)"/>
       <path id="RobotoCondensed-Regular-61" d="M 2156 0 
Q 2103 122 2081 366 
Q 1966 194 1775 65 
Q 1584 -63 1334 -63 
Q 891 -63 623 187 
Q 356 438 356 922 
Q 356 1409 690 1729 
Q 1025 2050 1691 2050 
L 2072 2050 
L 2072 2413 
Q 2072 2713 1936 2841 
Q 1800 2969 1528 2969 
Q 1263 2969 1114 2812 
Q 966 2656 966 2444 
L 413 2444 
Q 413 2806 722 3125 
Q 1031 3444 1556 3444 
Q 2025 3444 2325 3209 
Q 2625 2975 2625 2406 
L 2625 794 
Q 2625 316 2728 50 
L 2728 0 
L 2156 0 
z
M 1419 441 
Q 1653 441 1825 562 
Q 1997 684 2072 834 
L 2072 1644 
L 1781 1644 
Q 1384 1644 1146 1475 
Q 909 1306 909 991 
Q 909 688 1036 564 
Q 1163 441 1419 441 
z
" transform="scale(0.015625)"/>
       <path id="RobotoCondensed-Regular-72" d="M 1563 2888 
Q 1138 2888 969 2425 
L 969 0 
L 416 0 
L 416 3381 
L 950 3381 
L 963 3041 
Q 1184 3444 1591 3444 
Q 1738 3444 1809 3400 
L 1813 2863 
Q 1691 2888 1563 2888 
z
" transform="scale(0.015625)"/>
      </defs>
      <use xlink:href="#RobotoCondensed-Regular-59"/>
      <use xlink:href="#RobotoCondensed-Regular-65" transform="translate(52.490234 0)"/>
      <use xlink:href="#RobotoCondensed-Regular-61" transform="translate(99.365234 0)"/>
      <use xlink:href="#RobotoCondensed-Regular-72" transform="translate(147.265625 0)"/>
     </g>
    </g>
   </g>
   <g id="matplotlib.axis_2">
    <g id="ytick_1">
     <g id="line2d_9">
      <path d="M 38.404375 183.13 
L 301.055044 183.13 
" clip-path="url(#p6907163835)" style="fill: none; stroke: #808080; stroke-opacity: 0.3; stroke-width: 0.5; stroke-linecap: square"/>
     </g>
     <g id="line2d_10">
      <defs>
       <path id="m10279b3467" d="M 0 0 
L -3.5 0 
" style="stroke: #000000; stroke-width: 0.8"/>
      </defs>
      <g>
       <use xlink:href="#m10279b3467" x="38.404375" y="183.13" style="stroke: #000000; stroke-width: 0.8"/>
      </g>
     </g>
     <g id="text_10">
      <!-- 0% -->
      <g transform="translate(24.645937 185.38) scale(0.06 -0.06)">
       <defs>
        <path id="RobotoCondensed-Regular-25" d="M 334 3675 
Q 334 4063 545 4339 
Q 756 4616 1128 4616 
Q 1506 4616 1717 4339 
Q 1928 4063 1928 3675 
L 1928 3434 
Q 1928 3053 1718 2776 
Q 1509 2500 1134 2500 
Q 759 2500 546 2776 
Q 334 3053 334 3434 
L 334 3675 
z
M 741 3434 
Q 741 3219 836 3047 
Q 931 2875 1134 2875 
Q 1331 2875 1426 3045 
Q 1522 3216 1522 3434 
L 1522 3675 
Q 1522 3894 1425 4067 
Q 1328 4241 1128 4241 
Q 931 4241 836 4067 
Q 741 3894 741 3675 
L 741 3434 
z
M 3116 3903 
L 1250 347 
L 944 553 
L 2813 4109 
L 3116 3903 
z
M 2172 1116 
Q 2172 1500 2384 1776 
Q 2597 2053 2969 2053 
Q 3344 2053 3555 1776 
Q 3766 1500 3766 1116 
L 3766 872 
Q 3766 488 3555 211 
Q 3344 -66 2972 -66 
Q 2597 -66 2384 211 
Q 2172 488 2172 872 
L 2172 1116 
z
M 2578 872 
Q 2578 653 2675 481 
Q 2772 309 2972 309 
Q 3169 309 3264 479 
Q 3359 650 3359 872 
L 3359 1116 
Q 3359 1338 3262 1508 
Q 3166 1678 2969 1678 
Q 2772 1678 2675 1508 
Q 2578 1338 2578 1116 
L 2578 872 
z
" transform="scale(0.015625)"/>
       </defs>
       <use xlink:href="#RobotoCondensed-Regular-30"/>
       <use xlink:href="#RobotoCondensed-Regular-25" transform="translate(49.365234 0)"/>
      </g>
     </g>
    </g>
    <g id="ytick_2">
     <g id="line2d_11">
      <path d="M 38.404375 148.394 
L 301.055044 148.394 
" clip-path="url(#p6907163835)" style="fill: none; stroke: #808080; stroke-opacity: 0.3; stroke-width: 0.5; stroke-linecap: square"/>
     </g>
     <g id="line2d_12">
      <g>
       <use xlink:href="#m10279b3467" x="38.404375" y="148.394" style="stroke: #000000; stroke-width: 0.8"/>
      </g>
     </g>
     <g id="text_11">
      <!-- 2% -->
      <g transform="translate(24.645937 150.644) scale(0.06 -0.06)">
       <use xlink:href="#RobotoCondensed-Regular-32"/>
       <use xlink:href="#RobotoCondensed-Regular-25" transform="translate(49.365234 0)"/>
      </g>
     </g>
    </g>
    <g id="ytick_3">
     <g id="line2d_13">
      <path d="M 38.404375 113.658 
L 301.055044 113.658 
" clip-path="url(#p6907163835)" style="fill: none; stroke: #808080; stroke-opacity: 0.3; stroke-width: 0.5; stroke-linecap: square"/>
     </g>
     <g id="line2d_14">
      <g>
       <use xlink:href="#m10279b3467" x="38.404375" y="113.658" style="stroke: #000000; stroke-width: 0.8"/>
      </g>
     </g>
     <g id="text_12">
      <!-- 4% -->
      <g transform="translate(24.645937 115.908) scale(0.06 -0.06)">
       <use xlink:href="#RobotoCondensed-Regular-34"/>
       <use xlink:href="#RobotoCondensed-Regular-25" transform="translate(49.365234 0)"/>
      </g>
     </g>
    </g>
    <g id="ytick_4">
     <g id="line2d_15">
      <path d="M 38.404375 78.922 
L 301.055044 78.922 
" clip-path="url(#p6907163835)" style="fill: none; stroke: #808080; stroke-opacity: 0.3; stroke-width: 0.5; stroke-linecap: square"/>
     </g>
     <g id="line2d_16">
      <g>
       <use xlink:href="#m10279b3467" x="38.404375" y="78.922" style="stroke: #000000; stroke-width: 0.8"/>
      </g>
     </g>
     <g id="text_13">
      <!-- 6% -->
      <g transform="translate(24.645937 81.172) scale(0.06 -0.06)">
       <use xlink:href="#RobotoCondensed-Regular-36"/>
       <use xlink:href="#RobotoCondensed-Regular-25" transform="translate(49.365234 0)"/>
      </g>
     </g>
    </g>
    <g id="ytick_5">
     <g id="line2d_17">
      <path d="M 38.404375 44.186 
L 301.055044 44.186 
" clip-path="url(#p6907163835)" style="fill: none; stroke: #808080; stroke-opacity: 0.3; stroke-width: 0.5; stroke-linecap: square"/>
     </g>
     <g id="line2d_18">
      <g>
       <use xlink:href="#m10279b3467" x="38.404375" y="44.186" style="stroke: #000000; stroke-width: 0.8"/>
      </g>
     </g>
     <g id="text_14">
      <!-- 8% -->
      <g transform="translate(24.645937 46.436) scale(0.06 -0.06)">
       <defs>
        <path id="RobotoCondensed-Regular-38" d="M 2794 1231 
Q 2794 606 2445 271 
Q 2097 -63 1578 -63 
Q 1063 -63 714 273 
Q 366 609 366 1231 
Q 366 1613 536 1905 
Q 706 2197 1000 2347 
Q 450 2666 450 3366 
Q 450 3963 769 4288 
Q 1088 4613 1581 4613 
Q 2075 4613 2392 4288 
Q 2709 3963 2709 3366 
Q 2709 3028 2557 2761 
Q 2406 2494 2150 2344 
Q 2444 2194 2619 1901 
Q 2794 1609 2794 1231 
z
M 2156 3356 
Q 2156 3697 2000 3917 
Q 1844 4138 1581 4138 
Q 1319 4138 1161 3927 
Q 1003 3716 1003 3356 
Q 1003 3003 1159 2790 
Q 1316 2578 1581 2578 
Q 1844 2578 2000 2790 
Q 2156 3003 2156 3356 
z
M 2244 1244 
Q 2244 1625 2061 1865 
Q 1878 2106 1575 2106 
Q 1266 2106 1091 1865 
Q 916 1625 916 1244 
Q 916 850 1089 631 
Q 1263 413 1578 413 
Q 1897 413 2070 631 
Q 2244 850 2244 1244 
z
" transform="scale(0.015625)"/>
       </defs>
       <use xlink:href="#RobotoCondensed-Regular-38"/>
       <use xlink:href="#RobotoCondensed-Regular-25" transform="translate(49.365234 0)"/>
      </g>
     </g>
    </g>
    <g id="ytick_6">
     <g id="line2d_19">
      <path d="M 38.404375 9.45 
L 301.055044 9.45 
" clip-path="url(#p6907163835)" style="fill: none; stroke: #808080; stroke-opacity: 0.3; stroke-width: 0.5; stroke-linecap: square"/>
     </g>
     <g id="line2d_20">
      <g>
       <use xlink:href="#m10279b3467" x="38.404375" y="9.45" style="stroke: #000000; stroke-width: 0.8"/>
      </g>
     </g>
     <g id="text_15">
      <!-- 10% -->
      <g transform="translate(21.684375 11.7) scale(0.06 -0.06)">
       <use xlink:href="#RobotoCondensed-Regular-31"/>
       <use xlink:href="#RobotoCondensed-Regular-30" transform="translate(49.365234 0)"/>
       <use xlink:href="#RobotoCondensed-Regular-25" transform="translate(98.730469 0)"/>
      </g>
     </g>
    </g>
    <g id="text_16">
     <!-- Proportion -->
     <g transform="translate(15.45 119.239609) rotate(-90) scale(0.11 -0.11)">
      <defs>
       <path id="RobotoCondensed-Regular-50" d="M 1066 1784 
L 1066 0 
L 491 0 
L 491 4550 
L 1941 4550 
Q 2600 4550 2951 4159 
Q 3303 3769 3303 3163 
Q 3303 2506 2954 2147 
Q 2606 1788 1950 1784 
L 1066 1784 
z
M 1066 4056 
L 1066 2275 
L 1941 2275 
Q 2359 2275 2543 2522 
Q 2728 2769 2728 3156 
Q 2728 3506 2543 3781 
Q 2359 4056 1941 4056 
L 1066 4056 
z
" transform="scale(0.015625)"/>
       <path id="RobotoCondensed-Regular-6f" d="M 300 1850 
Q 300 2641 678 3042 
Q 1056 3444 1603 3444 
Q 2156 3444 2536 3042 
Q 2916 2641 2916 1850 
L 2916 1528 
Q 2916 738 2536 337 
Q 2156 -63 1609 -63 
Q 1059 -63 679 337 
Q 300 738 300 1528 
L 300 1850 
z
M 853 1528 
Q 853 969 1068 689 
Q 1284 409 1609 409 
Q 2341 409 2363 1466 
L 2363 1850 
Q 2363 2403 2145 2686 
Q 1928 2969 1603 2969 
Q 1281 2969 1067 2686 
Q 853 2403 853 1850 
L 853 1528 
z
" transform="scale(0.015625)"/>
       <path id="RobotoCondensed-Regular-70" d="M 1750 -63 
Q 1244 -63 969 325 
L 969 -1300 
L 416 -1300 
L 416 3381 
L 919 3381 
L 947 3013 
Q 1222 3444 1744 3444 
Q 2275 3444 2562 3073 
Q 2850 2703 2859 1897 
L 2859 1528 
Q 2859 725 2570 331 
Q 2281 -63 1750 -63 
z
M 1572 2956 
Q 1181 2956 969 2559 
L 969 797 
Q 1178 409 1578 409 
Q 2288 409 2306 1472 
L 2306 1844 
Q 2306 2956 1572 2956 
z
" transform="scale(0.015625)"/>
       <path id="RobotoCondensed-Regular-74" d="M 1647 0 
Q 1488 -63 1259 -63 
Q 991 -63 789 134 
Q 588 331 588 841 
L 588 2938 
L 72 2938 
L 72 3381 
L 588 3381 
L 588 4203 
L 1141 4203 
L 1141 3381 
L 1650 3381 
L 1650 2938 
L 1141 2938 
L 1141 838 
Q 1141 578 1230 506 
Q 1319 434 1431 434 
Q 1550 434 1650 472 
L 1647 0 
z
" transform="scale(0.015625)"/>
       <path id="RobotoCondensed-Regular-69" d="M 428 4278 
Q 428 4419 506 4516 
Q 584 4613 741 4613 
Q 894 4613 975 4516 
Q 1056 4419 1056 4278 
Q 1056 4144 975 4048 
Q 894 3953 741 3953 
Q 584 3953 506 4048 
Q 428 4144 428 4278 
z
M 1009 3381 
L 1009 0 
L 459 0 
L 459 3381 
L 1009 3381 
z
" transform="scale(0.015625)"/>
       <path id="RobotoCondensed-Regular-6e" d="M 1603 2956 
Q 1400 2956 1236 2818 
Q 1072 2681 969 2459 
L 969 0 
L 416 0 
L 416 3381 
L 938 3381 
L 953 3022 
Q 1275 3444 1775 3444 
Q 2191 3444 2437 3162 
Q 2684 2881 2684 2216 
L 2684 0 
L 2131 0 
L 2131 2222 
Q 2131 2619 2000 2787 
Q 1869 2956 1603 2956 
z
" transform="scale(0.015625)"/>
      </defs>
      <use xlink:href="#RobotoCondensed-Regular-50"/>
      <use xlink:href="#RobotoCondensed-Regular-72" transform="translate(55.419922 0)"/>
      <use xlink:href="#RobotoCondensed-Regular-6f" transform="translate(85.888672 0)"/>
      <use xlink:href="#RobotoCondensed-Regular-70" transform="translate(136.083984 0)"/>
      <use xlink:href="#RobotoCondensed-Regular-6f" transform="translate(185.400391 0)"/>
      <use xlink:href="#RobotoCondensed-Regular-72" transform="translate(235.595703 0)"/>
      <use xlink:href="#RobotoCondensed-Regular-74" transform="translate(266.064453 0)"/>
      <use xlink:href="#RobotoCondensed-Regular-69" transform="translate(295.654297 0)"/>
      <use xlink:href="#RobotoCondensed-Regular-6f" transform="translate(318.603516 0)"/>
      <use xlink:href="#RobotoCondensed-Regular-6e" transform="translate(368.798828 0)"/>
     </g>
    </g>
   </g>
   <g id="FillBetweenPolyCollection_1">
    <defs>
     <path id="m3d1155af4c" d="M 50.343042 -34.403125 
L 50.343042 -34.403125 
L 51.141615 -34.403125 
L 51.940188 -34.403125 
L 52.738761 -34.403125 
L 53.537334 -34.403125 
L 54.335907 -34.403125 
L 55.13448 -34.403125 
L 55.933053 -34.403125 
L 56.731626 -34.403125 
L 57.530199 -34.403125 
L 58.328772 -34.403125 
L 59.127345 -34.403125 
L 59.925918 -34.403125 
L 60.724491 -34.403125 
L 61.523064 -34.403125 
L 62.321637 -34.403125 
L 63.12021 -34.403125 
L 63.918783 -34.403125 
L 64.717356 -34.403125 
L 65.515929 -34.403125 
L 66.314502 -34.403125 
L 67.113075 -34.403125 
L 67.911648 -34.403125 
L 68.710221 -34.403125 
L 69.508794 -34.403125 
L 70.307368 -34.403125 
L 71.105941 -34.403125 
L 71.904514 -34.403125 
L 72.703087 -34.403125 
L 73.50166 -34.403125 
L 74.300233 -34.403125 
L 75.098806 -34.403125 
L 75.897379 -34.403125 
L 76.695952 -34.403125 
L 77.494525 -34.403125 
L 78.293098 -34.403125 
L 79.091671 -34.403125 
L 79.890244 -34.403125 
L 80.688817 -34.403125 
L 81.48739 -34.403125 
L 82.285963 -34.403125 
L 83.084536 -34.403125 
L 83.883109 -34.403125 
L 84.681682 -34.403125 
L 85.480255 -34.403125 
L 86.278828 -34.403125 
L 87.077401 -34.403125 
L 87.875974 -34.403125 
L 88.674547 -34.403125 
L 89.47312 -34.403125 
L 90.271693 -34.403125 
L 91.070266 -34.403125 
L 91.868839 -34.403125 
L 92.667412 -34.403125 
L 93.465985 -34.403125 
L 94.264558 -34.403125 
L 95.063131 -34.403125 
L 95.861704 -34.403125 
L 96.660277 -34.403125 
L 97.458851 -34.403125 
L 98.257424 -34.403125 
L 99.055997 -34.403125 
L 99.85457 -34.403125 
L 100.653143 -34.403125 
L 101.451716 -34.403125 
L 102.250289 -34.403125 
L 103.048862 -34.403125 
L 103.847435 -34.403125 
L 104.646008 -34.403125 
L 105.444581 -34.403125 
L 106.243154 -34.403125 
L 107.041727 -34.403125 
L 107.8403 -34.403125 
L 108.638873 -34.403125 
L 109.437446 -34.403125 
L 110.236019 -34.403125 
L 111.034592 -34.403125 
L 111.833165 -34.403125 
L 112.631738 -34.403125 
L 113.430311 -34.403125 
L 114.228884 -34.403125 
L 115.027457 -34.403125 
L 115.82603 -34.403125 
L 116.624603 -34.403125 
L 117.423176 -34.403125 
L 118.221749 -34.403125 
L 119.020322 -34.403125 
L 119.818895 -34.403125 
L 120.617468 -34.403125 
L 121.416041 -34.403125 
L 122.214614 -34.403125 
L 123.013187 -34.403125 
L 123.81176 -34.403125 
L 124.610333 -34.403125 
L 125.408907 -34.403125 
L 126.20748 -34.403125 
L 127.006053 -34.403125 
L 127.804626 -34.403125 
L 128.603199 -34.403125 
L 129.401772 -34.403125 
L 130.200345 -34.403125 
L 130.998918 -34.403125 
L 131.797491 -34.403125 
L 132.596064 -34.403125 
L 133.394637 -34.403125 
L 134.19321 -34.403125 
L 134.991783 -34.403125 
L 135.790356 -34.403125 
L 136.588929 -34.403125 
L 137.387502 -34.403125 
L 138.186075 -34.403125 
L 138.984648 -34.403125 
L 139.783221 -34.403125 
L 140.581794 -34.403125 
L 141.380367 -34.403125 
L 142.17894 -34.403125 
L 142.977513 -34.403125 
L 143.776086 -34.403125 
L 144.574659 -34.403125 
L 145.373232 -34.403125 
L 146.171805 -34.403125 
L 146.970378 -34.403125 
L 147.768951 -34.403125 
L 148.567524 -34.403125 
L 149.366097 -34.403125 
L 150.16467 -34.403125 
L 150.963243 -34.403125 
L 151.761816 -34.403125 
L 152.56039 -34.403125 
L 153.358963 -34.403125 
L 154.157536 -34.403125 
L 154.956109 -34.403125 
L 155.754682 -34.403125 
L 156.553255 -34.403125 
L 157.351828 -34.403125 
L 158.150401 -34.403125 
L 158.948974 -34.403125 
L 159.747547 -34.403125 
L 160.54612 -34.403125 
L 161.344693 -34.403125 
L 162.143266 -34.403125 
L 162.941839 -34.403125 
L 163.740412 -34.403125 
L 164.538985 -34.403125 
L 165.337558 -34.403125 
L 166.136131 -34.403125 
L 166.934704 -34.403125 
L 167.733277 -34.403125 
L 168.53185 -34.403125 
L 169.330423 -34.403125 
L 170.128996 -34.403125 
L 170.927569 -34.403125 
L 171.726142 -34.403125 
L 172.524715 -34.403125 
L 173.323288 -34.403125 
L 174.121861 -34.403125 
L 174.920434 -34.403125 
L 175.719007 -34.403125 
L 176.51758 -34.403125 
L 177.316153 -34.403125 
L 178.114726 -34.403125 
L 178.913299 -34.403125 
L 179.711873 -34.403125 
L 180.510446 -34.403125 
L 181.309019 -34.403125 
L 182.107592 -34.403125 
L 182.906165 -34.403125 
L 183.704738 -34.403125 
L 184.503311 -34.403125 
L 185.301884 -34.403125 
L 186.100457 -34.403125 
L 186.89903 -34.403125 
L 187.697603 -34.403125 
L 188.496176 -34.403125 
L 189.294749 -34.403125 
L 190.093322 -34.403125 
L 190.891895 -34.403125 
L 191.690468 -34.403125 
L 192.489041 -34.403125 
L 193.287614 -34.403125 
L 194.086187 -34.403125 
L 194.88476 -34.403125 
L 195.683333 -34.403125 
L 196.481906 -34.403125 
L 197.280479 -34.403125 
L 198.079052 -34.403125 
L 198.877625 -34.403125 
L 199.676198 -34.403125 
L 200.474771 -34.403125 
L 201.273344 -34.403125 
L 202.071917 -34.403125 
L 202.87049 -34.403125 
L 203.669063 -34.403125 
L 204.467636 -34.403125 
L 205.266209 -34.403125 
L 206.064782 -34.403125 
L 206.863356 -34.403125 
L 207.661929 -34.403125 
L 208.460502 -34.403125 
L 209.259075 -34.403125 
L 210.057648 -34.403125 
L 210.856221 -34.403125 
L 211.654794 -34.403125 
L 212.453367 -34.403125 
L 213.25194 -34.403125 
L 214.050513 -34.403125 
L 214.849086 -34.403125 
L 215.647659 -34.403125 
L 216.446232 -34.403125 
L 217.244805 -34.403125 
L 218.043378 -34.403125 
L 218.841951 -34.403125 
L 219.640524 -34.403125 
L 220.439097 -34.403125 
L 221.23767 -34.403125 
L 222.036243 -34.403125 
L 222.834816 -34.403125 
L 223.633389 -34.403125 
L 224.431962 -34.403125 
L 225.230535 -34.403125 
L 226.029108 -34.403125 
L 226.827681 -34.403125 
L 227.626254 -34.403125 
L 228.424827 -34.403125 
L 229.2234 -34.403125 
L 230.021973 -34.403125 
L 230.820546 -34.403125 
L 231.619119 -34.403125 
L 232.417692 -34.403125 
L 233.216265 -34.403125 
L 234.014838 -34.403125 
L 234.813412 -34.403125 
L 235.611985 -34.403125 
L 236.410558 -34.403125 
L 237.209131 -34.403125 
L 238.007704 -34.403125 
L 238.806277 -34.403125 
L 239.60485 -34.403125 
L 240.403423 -34.403125 
L 241.201996 -34.403125 
L 242.000569 -34.403125 
L 242.799142 -34.403125 
L 243.597715 -34.403125 
L 244.396288 -34.403125 
L 245.194861 -34.403125 
L 245.993434 -34.403125 
L 246.792007 -34.403125 
L 247.59058 -34.403125 
L 248.389153 -34.403125 
L 249.187726 -34.403125 
L 249.986299 -34.403125 
L 250.784872 -34.403125 
L 251.583445 -34.403125 
L 252.382018 -34.403125 
L 253.180591 -34.403125 
L 253.979164 -34.403125 
L 254.777737 -34.403125 
L 255.57631 -34.403125 
L 256.374883 -34.403125 
L 257.173456 -34.403125 
L 257.972029 -34.403125 
L 258.770602 -34.403125 
L 259.569175 -34.403125 
L 260.367748 -34.403125 
L 261.166321 -34.403125 
L 261.964895 -34.403125 
L 262.763468 -34.403125 
L 263.562041 -34.403125 
L 264.360614 -34.403125 
L 265.159187 -34.403125 
L 265.95776 -34.403125 
L 266.756333 -34.403125 
L 267.554906 -34.403125 
L 268.353479 -34.403125 
L 269.152052 -34.403125 
L 269.950625 -34.403125 
L 270.749198 -34.403125 
L 271.547771 -34.403125 
L 272.346344 -34.403125 
L 273.144917 -34.403125 
L 273.94349 -34.403125 
L 274.742063 -34.403125 
L 275.540636 -34.403125 
L 276.339209 -34.403125 
L 277.137782 -34.403125 
L 277.936355 -34.403125 
L 278.734928 -34.403125 
L 279.533501 -34.403125 
L 280.332074 -34.403125 
L 281.130647 -34.403125 
L 281.92922 -34.403125 
L 282.727793 -34.403125 
L 283.526366 -34.403125 
L 284.324939 -34.403125 
L 285.123512 -34.403125 
L 285.922085 -34.403125 
L 286.720658 -34.403125 
L 287.519231 -34.403125 
L 288.317804 -34.403125 
L 289.116378 -34.403125 
L 289.116378 -43.753327 
L 289.116378 -43.753327 
L 288.317804 -42.52034 
L 287.519231 -41.377647 
L 286.720658 -40.324508 
L 285.922085 -39.360185 
L 285.123512 -38.48394 
L 284.324939 -37.695033 
L 283.526366 -36.992726 
L 282.727793 -36.37628 
L 281.92922 -35.844957 
L 281.130647 -35.398018 
L 280.332074 -35.034724 
L 279.533501 -34.754336 
L 278.734928 -34.556116 
L 277.936355 -34.439325 
L 277.137782 -34.403466 
L 276.339209 -34.54662 
L 275.540636 -34.92451 
L 274.742063 -35.5006 
L 273.94349 -36.238356 
L 273.144917 -37.101243 
L 272.346344 -38.052726 
L 271.547771 -39.056271 
L 270.749198 -40.075343 
L 269.950625 -41.073408 
L 269.152052 -42.013931 
L 268.353479 -42.860377 
L 267.554906 -43.576212 
L 266.756333 -44.124901 
L 265.95776 -44.46991 
L 265.159187 -44.576059 
L 264.360614 -44.574097 
L 263.562041 -44.568896 
L 262.763468 -44.560498 
L 261.964895 -44.548944 
L 261.166321 -44.534276 
L 260.367748 -44.516536 
L 259.569175 -44.495766 
L 258.770602 -44.472007 
L 257.972029 -44.445301 
L 257.173456 -44.415689 
L 256.374883 -44.383215 
L 255.57631 -44.347919 
L 254.777737 -44.309842 
L 253.979164 -44.269028 
L 253.180591 -44.222731 
L 252.382018 -44.023128 
L 251.583445 -43.610775 
L 250.784872 -43.019777 
L 249.986299 -42.284241 
L 249.187726 -41.438275 
L 248.389153 -40.515984 
L 247.59058 -39.551474 
L 246.792007 -38.578853 
L 245.993434 -37.632227 
L 245.194861 -36.745703 
L 244.396288 -35.953386 
L 243.597715 -35.289384 
L 242.799142 -34.787803 
L 242.000569 -34.482749 
L 241.201996 -34.407954 
L 240.403423 -34.569131 
L 239.60485 -34.934802 
L 238.806277 -35.472378 
L 238.007704 -36.14927 
L 237.209131 -36.93289 
L 236.410558 -37.790649 
L 235.611985 -38.689958 
L 234.813412 -39.598229 
L 234.014838 -40.482874 
L 233.216265 -41.311303 
L 232.417692 -42.050928 
L 231.619119 -42.669161 
L 230.820546 -43.133412 
L 230.021973 -43.411094 
L 229.2234 -43.469788 
L 228.424827 -43.297611 
L 227.626254 -42.922571 
L 226.827681 -42.377255 
L 226.029108 -41.694253 
L 225.230535 -40.906152 
L 224.431962 -40.045542 
L 223.633389 -39.14501 
L 222.834816 -38.237147 
L 222.036243 -37.354539 
L 221.23767 -36.529776 
L 220.439097 -35.795447 
L 219.640524 -35.184139 
L 218.841951 -34.728442 
L 218.043378 -34.460944 
L 217.244805 -34.403125 
L 216.446232 -34.403125 
L 215.647659 -34.403125 
L 214.849086 -34.403125 
L 214.050513 -34.403125 
L 213.25194 -34.403125 
L 212.453367 -34.403125 
L 211.654794 -34.403125 
L 210.856221 -34.403125 
L 210.057648 -34.403125 
L 209.259075 -34.403125 
L 208.460502 -34.403125 
L 207.661929 -34.403125 
L 206.863356 -34.403125 
L 206.064782 -34.403125 
L 205.266209 -34.403125 
L 204.467636 -34.403125 
L 203.669063 -34.403125 
L 202.87049 -34.403125 
L 202.071917 -34.403125 
L 201.273344 -34.403125 
L 200.474771 -34.403125 
L 199.676198 -34.403125 
L 198.877625 -34.403125 
L 198.079052 -34.403125 
L 197.280479 -34.403125 
L 196.481906 -34.403125 
L 195.683333 -34.403125 
L 194.88476 -34.403125 
L 194.086187 -34.403125 
L 193.287614 -34.403125 
L 192.489041 -34.403125 
L 191.690468 -34.403125 
L 190.891895 -34.403125 
L 190.093322 -34.403125 
L 189.294749 -34.403125 
L 188.496176 -34.403125 
L 187.697603 -34.403125 
L 186.89903 -34.403125 
L 186.100457 -34.403125 
L 185.301884 -34.403125 
L 184.503311 -34.403125 
L 183.704738 -34.403125 
L 182.906165 -34.403125 
L 182.107592 -34.403125 
L 181.309019 -34.403125 
L 180.510446 -34.403125 
L 179.711873 -34.403125 
L 178.913299 -34.403125 
L 178.114726 -34.403125 
L 177.316153 -34.403125 
L 176.51758 -34.403125 
L 175.719007 -34.403125 
L 174.920434 -34.403125 
L 174.121861 -34.403125 
L 173.323288 -34.403125 
L 172.524715 -34.403125 
L 171.726142 -34.403125 
L 170.927569 -34.403125 
L 170.128996 -34.403125 
L 169.330423 -34.403125 
L 168.53185 -34.403125 
L 167.733277 -34.403125 
L 166.934704 -34.403125 
L 166.136131 -34.403125 
L 165.337558 -34.403125 
L 164.538985 -34.403125 
L 163.740412 -34.403125 
L 162.941839 -34.403125 
L 162.143266 -34.403125 
L 161.344693 -34.403125 
L 160.54612 -34.403125 
L 159.747547 -34.403125 
L 158.948974 -34.403125 
L 158.150401 -34.403125 
L 157.351828 -34.403125 
L 156.553255 -34.403125 
L 155.754682 -34.403125 
L 154.956109 -34.403125 
L 154.157536 -34.403125 
L 153.358963 -34.403125 
L 152.56039 -34.403125 
L 151.761816 -34.403125 
L 150.963243 -34.403125 
L 150.16467 -34.403125 
L 149.366097 -34.403125 
L 148.567524 -34.403125 
L 147.768951 -34.403125 
L 146.970378 -34.403125 
L 146.171805 -34.403125 
L 145.373232 -34.403125 
L 144.574659 -34.403125 
L 143.776086 -34.403125 
L 142.977513 -34.403125 
L 142.17894 -34.403125 
L 141.380367 -34.403125 
L 140.581794 -34.403125 
L 139.783221 -34.403125 
L 138.984648 -34.403125 
L 138.186075 -34.403125 
L 137.387502 -34.403125 
L 136.588929 -34.403125 
L 135.790356 -34.403125 
L 134.991783 -34.403125 
L 134.19321 -34.403125 
L 133.394637 -34.403125 
L 132.596064 -34.403125 
L 131.797491 -34.403125 
L 130.998918 -34.403125 
L 130.200345 -34.403125 
L 129.401772 -34.403125 
L 128.603199 -34.403125 
L 127.804626 -34.403125 
L 127.006053 -34.403125 
L 126.20748 -34.403125 
L 125.408907 -34.403125 
L 124.610333 -34.403125 
L 123.81176 -34.403125 
L 123.013187 -34.403125 
L 122.214614 -34.403125 
L 121.416041 -34.403125 
L 120.617468 -34.403125 
L 119.818895 -34.403125 
L 119.020322 -34.403125 
L 118.221749 -34.403125 
L 117.423176 -34.403125 
L 116.624603 -34.403125 
L 115.82603 -34.403125 
L 115.027457 -34.403125 
L 114.228884 -34.403125 
L 113.430311 -34.403125 
L 112.631738 -34.403125 
L 111.833165 -34.403125 
L 111.034592 -34.403125 
L 110.236019 -34.403125 
L 109.437446 -34.403125 
L 108.638873 -34.403125 
L 107.8403 -34.403125 
L 107.041727 -34.403125 
L 106.243154 -34.403125 
L 105.444581 -34.403125 
L 104.646008 -34.403125 
L 103.847435 -34.403125 
L 103.048862 -34.403125 
L 102.250289 -34.403125 
L 101.451716 -34.403125 
L 100.653143 -34.403125 
L 99.85457 -34.403125 
L 99.055997 -34.403125 
L 98.257424 -34.403125 
L 97.458851 -34.403125 
L 96.660277 -34.403125 
L 95.861704 -34.403125 
L 95.063131 -34.403125 
L 94.264558 -34.403125 
L 93.465985 -34.403125 
L 92.667412 -34.403125 
L 91.868839 -34.403125 
L 91.070266 -34.403125 
L 90.271693 -34.403125 
L 89.47312 -34.403125 
L 88.674547 -34.403125 
L 87.875974 -34.403125 
L 87.077401 -34.403125 
L 86.278828 -34.403125 
L 85.480255 -34.403125 
L 84.681682 -34.403125 
L 83.883109 -34.403125 
L 83.084536 -34.403125 
L 82.285963 -34.403125 
L 81.48739 -34.403125 
L 80.688817 -34.403125 
L 79.890244 -34.403125 
L 79.091671 -34.403125 
L 78.293098 -34.403125 
L 77.494525 -34.403125 
L 76.695952 -34.403125 
L 75.897379 -34.403125 
L 75.098806 -34.403125 
L 74.300233 -34.403125 
L 73.50166 -34.403125 
L 72.703087 -34.403125 
L 71.904514 -34.403125 
L 71.105941 -34.403125 
L 70.307368 -34.403125 
L 69.508794 -34.403125 
L 68.710221 -34.403125 
L 67.911648 -34.403125 
L 67.113075 -34.403125 
L 66.314502 -34.403125 
L 65.515929 -34.403125 
L 64.717356 -34.403125 
L 63.918783 -34.403125 
L 63.12021 -34.403125 
L 62.321637 -34.403125 
L 61.523064 -34.403125 
L 60.724491 -34.403125 
L 59.925918 -34.403125 
L 59.127345 -34.403125 
L 58.328772 -34.403125 
L 57.530199 -34.403125 
L 56.731626 -34.403125 
L 55.933053 -34.403125 
L 55.13448 -34.403125 
L 54.335907 -34.403125 
L 53.537334 -34.403125 
L 52.738761 -34.403125 
L 51.940188 -34.403125 
L 51.141615 -34.403125 
L 50.343042 -34.403125 
z
" style="stroke: #d62728; stroke-opacity: 0.7"/>
    </defs>
    <g clip-path="url(#p6907163835)">
     <use xlink:href="#m3d1155af4c" x="0" y="217.533125" style="fill: #d62728; fill-opacity: 0.7; stroke: #d62728; stroke-opacity: 0.7"/>
    </g>
   </g>
   <g id="FillBetweenPolyCollection_2">
    <defs>
     <path id="m03911186bb" d="M 50.343042 -94.989172 
L 50.343042 -34.403125 
L 51.141615 -34.403125 
L 51.940188 -34.403125 
L 52.738761 -34.403125 
L 53.537334 -34.403125 
L 54.335907 -34.403125 
L 55.13448 -34.403125 
L 55.933053 -34.403125 
L 56.731626 -34.403125 
L 57.530199 -34.403125 
L 58.328772 -34.403125 
L 59.127345 -34.403125 
L 59.925918 -34.403125 
L 60.724491 -34.403125 
L 61.523064 -34.403125 
L 62.321637 -34.403125 
L 63.12021 -34.403125 
L 63.918783 -34.403125 
L 64.717356 -34.403125 
L 65.515929 -34.403125 
L 66.314502 -34.403125 
L 67.113075 -34.403125 
L 67.911648 -34.403125 
L 68.710221 -34.403125 
L 69.508794 -34.403125 
L 70.307368 -34.403125 
L 71.105941 -34.403125 
L 71.904514 -34.403125 
L 72.703087 -34.403125 
L 73.50166 -34.403125 
L 74.300233 -34.403125 
L 75.098806 -34.403125 
L 75.897379 -34.403125 
L 76.695952 -34.403125 
L 77.494525 -34.403125 
L 78.293098 -34.403125 
L 79.091671 -34.403125 
L 79.890244 -34.403125 
L 80.688817 -34.403125 
L 81.48739 -34.403125 
L 82.285963 -34.403125 
L 83.084536 -34.403125 
L 83.883109 -34.403125 
L 84.681682 -34.403125 
L 85.480255 -34.403125 
L 86.278828 -34.403125 
L 87.077401 -34.403125 
L 87.875974 -34.403125 
L 88.674547 -34.403125 
L 89.47312 -34.403125 
L 90.271693 -34.403125 
L 91.070266 -34.403125 
L 91.868839 -34.403125 
L 92.667412 -34.403125 
L 93.465985 -34.403125 
L 94.264558 -34.403125 
L 95.063131 -34.403125 
L 95.861704 -34.403125 
L 96.660277 -34.403125 
L 97.458851 -34.403125 
L 98.257424 -34.403125 
L 99.055997 -34.403125 
L 99.85457 -34.403125 
L 100.653143 -34.403125 
L 101.451716 -34.403125 
L 102.250289 -34.403125 
L 103.048862 -34.403125 
L 103.847435 -34.403125 
L 104.646008 -34.403125 
L 105.444581 -34.403125 
L 106.243154 -34.403125 
L 107.041727 -34.403125 
L 107.8403 -34.403125 
L 108.638873 -34.403125 
L 109.437446 -34.403125 
L 110.236019 -34.403125 
L 111.034592 -34.403125 
L 111.833165 -34.403125 
L 112.631738 -34.403125 
L 113.430311 -34.403125 
L 114.228884 -34.403125 
L 115.027457 -34.403125 
L 115.82603 -34.403125 
L 116.624603 -34.403125 
L 117.423176 -34.403125 
L 118.221749 -34.403125 
L 119.020322 -34.403125 
L 119.818895 -34.403125 
L 120.617468 -34.403125 
L 121.416041 -34.403125 
L 122.214614 -34.403125 
L 123.013187 -34.403125 
L 123.81176 -34.403125 
L 124.610333 -34.403125 
L 125.408907 -34.403125 
L 126.20748 -34.403125 
L 127.006053 -34.403125 
L 127.804626 -34.403125 
L 128.603199 -34.403125 
L 129.401772 -34.403125 
L 130.200345 -34.403125 
L 130.998918 -34.403125 
L 131.797491 -34.403125 
L 132.596064 -34.403125 
L 133.394637 -34.403125 
L 134.19321 -34.403125 
L 134.991783 -34.403125 
L 135.790356 -34.403125 
L 136.588929 -34.403125 
L 137.387502 -34.403125 
L 138.186075 -34.403125 
L 138.984648 -34.403125 
L 139.783221 -34.403125 
L 140.581794 -34.403125 
L 141.380367 -34.403125 
L 142.17894 -34.403125 
L 142.977513 -34.403125 
L 143.776086 -34.403125 
L 144.574659 -34.403125 
L 145.373232 -34.403125 
L 146.171805 -34.403125 
L 146.970378 -34.403125 
L 147.768951 -34.403125 
L 148.567524 -34.403125 
L 149.366097 -34.403125 
L 150.16467 -34.403125 
L 150.963243 -34.403125 
L 151.761816 -34.403125 
L 152.56039 -34.403125 
L 153.358963 -34.403125 
L 154.157536 -34.403125 
L 154.956109 -34.403125 
L 155.754682 -34.403125 
L 156.553255 -34.403125 
L 157.351828 -34.403125 
L 158.150401 -34.403125 
L 158.948974 -34.403125 
L 159.747547 -34.403125 
L 160.54612 -34.403125 
L 161.344693 -34.403125 
L 162.143266 -34.403125 
L 162.941839 -34.403125 
L 163.740412 -34.403125 
L 164.538985 -34.403125 
L 165.337558 -34.403125 
L 166.136131 -34.403125 
L 166.934704 -34.403125 
L 167.733277 -34.403125 
L 168.53185 -34.403125 
L 169.330423 -34.403125 
L 170.128996 -34.403125 
L 170.927569 -34.403125 
L 171.726142 -34.403125 
L 172.524715 -34.403125 
L 173.323288 -34.403125 
L 174.121861 -34.403125 
L 174.920434 -34.403125 
L 175.719007 -34.403125 
L 176.51758 -34.403125 
L 177.316153 -34.403125 
L 178.114726 -34.403125 
L 178.913299 -34.403125 
L 179.711873 -34.403125 
L 180.510446 -34.403125 
L 181.309019 -34.403125 
L 182.107592 -34.403125 
L 182.906165 -34.403125 
L 183.704738 -34.403125 
L 184.503311 -34.403125 
L 185.301884 -34.403125 
L 186.100457 -34.403125 
L 186.89903 -34.403125 
L 187.697603 -34.403125 
L 188.496176 -34.403125 
L 189.294749 -34.403125 
L 190.093322 -34.403125 
L 190.891895 -34.403125 
L 191.690468 -34.403125 
L 192.489041 -34.403125 
L 193.287614 -34.403125 
L 194.086187 -34.403125 
L 194.88476 -34.403125 
L 195.683333 -34.403125 
L 196.481906 -34.403125 
L 197.280479 -34.403125 
L 198.079052 -34.403125 
L 198.877625 -34.403125 
L 199.676198 -34.403125 
L 200.474771 -34.403125 
L 201.273344 -34.403125 
L 202.071917 -34.403125 
L 202.87049 -34.403125 
L 203.669063 -34.403125 
L 204.467636 -34.403125 
L 205.266209 -34.403125 
L 206.064782 -34.403125 
L 206.863356 -34.403125 
L 207.661929 -34.403125 
L 208.460502 -34.403125 
L 209.259075 -34.403125 
L 210.057648 -34.403125 
L 210.856221 -34.403125 
L 211.654794 -34.403125 
L 212.453367 -34.403125 
L 213.25194 -34.403125 
L 214.050513 -34.403125 
L 214.849086 -34.403125 
L 215.647659 -34.403125 
L 216.446232 -34.403125 
L 217.244805 -34.403125 
L 218.043378 -34.460944 
L 218.841951 -34.728442 
L 219.640524 -35.184139 
L 220.439097 -35.795447 
L 221.23767 -36.529776 
L 222.036243 -37.354539 
L 222.834816 -38.237147 
L 223.633389 -39.14501 
L 224.431962 -40.045542 
L 225.230535 -40.906152 
L 226.029108 -41.694253 
L 226.827681 -42.377255 
L 227.626254 -42.922571 
L 228.424827 -43.297611 
L 229.2234 -43.469788 
L 230.021973 -43.411094 
L 230.820546 -43.133412 
L 231.619119 -42.669161 
L 232.417692 -42.050928 
L 233.216265 -41.311303 
L 234.014838 -40.482874 
L 234.813412 -39.598229 
L 235.611985 -38.689958 
L 236.410558 -37.790649 
L 237.209131 -36.93289 
L 238.007704 -36.14927 
L 238.806277 -35.472378 
L 239.60485 -34.934802 
L 240.403423 -34.569131 
L 241.201996 -34.407954 
L 242.000569 -34.482749 
L 242.799142 -34.787803 
L 243.597715 -35.289384 
L 244.396288 -35.953386 
L 245.194861 -36.745703 
L 245.993434 -37.632227 
L 246.792007 -38.578853 
L 247.59058 -39.551474 
L 248.389153 -40.515984 
L 249.187726 -41.438275 
L 249.986299 -42.284241 
L 250.784872 -43.019777 
L 251.583445 -43.610775 
L 252.382018 -44.023128 
L 253.180591 -44.222731 
L 253.979164 -44.269028 
L 254.777737 -44.309842 
L 255.57631 -44.347919 
L 256.374883 -44.383215 
L 257.173456 -44.415689 
L 257.972029 -44.445301 
L 258.770602 -44.472007 
L 259.569175 -44.495766 
L 260.367748 -44.516536 
L 261.166321 -44.534276 
L 261.964895 -44.548944 
L 262.763468 -44.560498 
L 263.562041 -44.568896 
L 264.360614 -44.574097 
L 265.159187 -44.576059 
L 265.95776 -44.46991 
L 266.756333 -44.124901 
L 267.554906 -43.576212 
L 268.353479 -42.860377 
L 269.152052 -42.013931 
L 269.950625 -41.073408 
L 270.749198 -40.075343 
L 271.547771 -39.056271 
L 272.346344 -38.052726 
L 273.144917 -37.101243 
L 273.94349 -36.238356 
L 274.742063 -35.5006 
L 275.540636 -34.92451 
L 276.339209 -34.54662 
L 277.137782 -34.403466 
L 277.936355 -34.439325 
L 278.734928 -34.556116 
L 279.533501 -34.754336 
L 280.332074 -35.034724 
L 281.130647 -35.398018 
L 281.92922 -35.844957 
L 282.727793 -36.37628 
L 283.526366 -36.992726 
L 284.324939 -37.695033 
L 285.123512 -38.48394 
L 285.922085 -39.360185 
L 286.720658 -40.324508 
L 287.519231 -41.377647 
L 288.317804 -42.52034 
L 289.116378 -43.753327 
L 289.116378 -138.424121 
L 289.116378 -138.424121 
L 288.317804 -137.224717 
L 287.519231 -136.180207 
L 286.720658 -135.286009 
L 285.922085 -134.537537 
L 285.123512 -133.930208 
L 284.324939 -133.459437 
L 283.526366 -133.120641 
L 282.727793 -132.909236 
L 281.92922 -132.820637 
L 281.130647 -132.85026 
L 280.332074 -132.993522 
L 279.533501 -133.245838 
L 278.734928 -133.602624 
L 277.936355 -134.059296 
L 277.137782 -134.612063 
L 276.339209 -135.585653 
L 275.540636 -137.178499 
L 274.742063 -139.28804 
L 273.94349 -141.811713 
L 273.144917 -144.646958 
L 272.346344 -147.691211 
L 271.547771 -150.841913 
L 270.749198 -153.9965 
L 269.950625 -157.052412 
L 269.152052 -159.907087 
L 268.353479 -162.457962 
L 267.554906 -164.602477 
L 266.756333 -166.238069 
L 265.95776 -167.262177 
L 265.159187 -167.574636 
L 264.360614 -167.38463 
L 263.562041 -166.907913 
L 262.763468 -166.1855 
L 261.964895 -165.258405 
L 261.166321 -164.167644 
L 260.367748 -162.954231 
L 259.569175 -161.659181 
L 258.770602 -160.323511 
L 257.972029 -158.988234 
L 257.173456 -157.694366 
L 256.374883 -156.482922 
L 255.57631 -155.394917 
L 254.777737 -154.471366 
L 253.979164 -153.753284 
L 253.180591 -153.27631 
L 252.382018 -152.778334 
L 251.583445 -152.114812 
L 250.784872 -151.31208 
L 249.986299 -150.396471 
L 249.187726 -149.394318 
L 248.389153 -148.331957 
L 247.59058 -147.235719 
L 246.792007 -146.131941 
L 245.993434 -145.046954 
L 245.194861 -144.007095 
L 244.396288 -143.038695 
L 243.597715 -142.16809 
L 242.799142 -141.421613 
L 242.000569 -140.825598 
L 241.201996 -140.396436 
L 240.403423 -139.835833 
L 239.60485 -139.023976 
L 238.806277 -138.001676 
L 238.007704 -136.809746 
L 237.209131 -135.488995 
L 236.410558 -134.080236 
L 235.611985 -132.624281 
L 234.813412 -131.161941 
L 234.014838 -129.734027 
L 233.216265 -128.381351 
L 232.417692 -127.144725 
L 231.619119 -126.06496 
L 230.820546 -125.182867 
L 230.021973 -124.539258 
L 229.2234 -124.158065 
L 228.424827 -123.706767 
L 227.626254 -123.067458 
L 226.827681 -122.273454 
L 226.029108 -121.358072 
L 225.230535 -120.354629 
L 224.431962 -119.296442 
L 223.633389 -118.216826 
L 222.834816 -117.149101 
L 222.036243 -116.126581 
L 221.23767 -115.182583 
L 220.439097 -114.350426 
L 219.640524 -113.663425 
L 218.841951 -113.154897 
L 218.043378 -112.858159 
L 217.244805 -112.820555 
L 216.446232 -113.265054 
L 215.647659 -114.198092 
L 214.849086 -115.540554 
L 214.050513 -117.213325 
L 213.25194 -119.137288 
L 212.453367 -121.233328 
L 211.654794 -123.422329 
L 210.856221 -125.625175 
L 210.057648 -127.76275 
L 209.259075 -129.75594 
L 208.460502 -131.525627 
L 207.661929 -132.992697 
L 206.863356 -134.078033 
L 206.064782 -134.70252 
L 205.266209 -134.770797 
L 204.467636 -134.070574 
L 203.669063 -132.649635 
L 202.87049 -130.625647 
L 202.071917 -128.116278 
L 201.273344 -125.239196 
L 200.474771 -122.11207 
L 199.676198 -118.852568 
L 198.877625 -115.578357 
L 198.079052 -112.407105 
L 197.280479 -109.456481 
L 196.481906 -106.844153 
L 195.683333 -104.687788 
L 194.88476 -103.105055 
L 194.086187 -102.213622 
L 193.287614 -102.107269 
L 192.489041 -102.617964 
L 191.690468 -103.623327 
L 190.891895 -105.04283 
L 190.093322 -106.795949 
L 189.294749 -108.802157 
L 188.496176 -110.980927 
L 187.697603 -113.251734 
L 186.89903 -115.534052 
L 186.100457 -117.747353 
L 185.301884 -119.811113 
L 184.503311 -121.644804 
L 183.704738 -123.167901 
L 182.906165 -124.299878 
L 182.107592 -124.960208 
L 181.309019 -125.12947 
L 180.510446 -125.206458 
L 179.711873 -125.278336 
L 178.913299 -125.345044 
L 178.114726 -125.406522 
L 177.316153 -125.462711 
L 176.51758 -125.513549 
L 175.719007 -125.558978 
L 174.920434 -125.598938 
L 174.121861 -125.633368 
L 173.323288 -125.662209 
L 172.524715 -125.685402 
L 171.726142 -125.702885 
L 170.927569 -125.7146 
L 170.128996 -125.720486 
L 169.330423 -125.668993 
L 168.53185 -125.272582 
L 167.733277 -124.534554 
L 166.934704 -123.512082 
L 166.136131 -122.262341 
L 165.337558 -120.842506 
L 164.538985 -119.309751 
L 163.740412 -117.721251 
L 162.941839 -116.134181 
L 162.143266 -114.605714 
L 161.344693 -113.193025 
L 160.54612 -111.95329 
L 159.747547 -110.943683 
L 158.948974 -110.221377 
L 158.150401 -109.843549 
L 157.351828 -109.848772 
L 156.553255 -110.162117 
L 155.754682 -110.731335 
L 154.956109 -111.51324 
L 154.157536 -112.464647 
L 153.358963 -113.542371 
L 152.56039 -114.703227 
L 151.761816 -115.904029 
L 150.963243 -117.101592 
L 150.16467 -118.252731 
L 149.366097 -119.314261 
L 148.567524 -120.242995 
L 147.768951 -120.99575 
L 146.970378 -121.52934 
L 146.171805 -121.80058 
L 145.373232 -121.81775 
L 144.574659 -121.768664 
L 143.776086 -121.67729 
L 142.977513 -121.545937 
L 142.17894 -121.376913 
L 141.380367 -121.172527 
L 140.581794 -120.935085 
L 139.783221 -120.666898 
L 138.984648 -120.370273 
L 138.186075 -120.047518 
L 137.387502 -119.700942 
L 136.588929 -119.332853 
L 135.790356 -118.945559 
L 134.991783 -118.541369 
L 134.19321 -118.122591 
L 133.394637 -117.647644 
L 132.596064 -116.976542 
L 131.797491 -116.117975 
L 130.998918 -115.093758 
L 130.200345 -113.925704 
L 129.401772 -112.635629 
L 128.603199 -111.245346 
L 127.804626 -109.776669 
L 127.006053 -108.251412 
L 126.20748 -106.69139 
L 125.408907 -105.118417 
L 124.610333 -103.554306 
L 123.81176 -102.020872 
L 123.013187 -100.539929 
L 122.214614 -99.133292 
L 121.416041 -97.750131 
L 120.617468 -96.209725 
L 119.818895 -94.536851 
L 119.020322 -92.769882 
L 118.221749 -90.947187 
L 117.423176 -89.107137 
L 116.624603 -87.288103 
L 115.82603 -85.528455 
L 115.027457 -83.866564 
L 114.228884 -82.3408 
L 113.430311 -80.989535 
L 112.631738 -79.851138 
L 111.833165 -78.963981 
L 111.034592 -78.366433 
L 110.236019 -78.096866 
L 109.437446 -78.250541 
L 108.638873 -78.943783 
L 107.8403 -80.102802 
L 107.041727 -81.646241 
L 106.243154 -83.49274 
L 105.444581 -85.560941 
L 104.646008 -87.769485 
L 103.847435 -90.037014 
L 103.048862 -92.282169 
L 102.250289 -94.423593 
L 101.451716 -96.379926 
L 100.653143 -98.06981 
L 99.85457 -99.411886 
L 99.055997 -100.324796 
L 98.257424 -100.727181 
L 97.458851 -100.620163 
L 96.660277 -100.164302 
L 95.861704 -99.41549 
L 95.063131 -98.425348 
L 94.264558 -97.245497 
L 93.465985 -95.927559 
L 92.667412 -94.523155 
L 91.868839 -93.083907 
L 91.070266 -91.661435 
L 90.271693 -90.307362 
L 89.47312 -89.073308 
L 88.674547 -88.010896 
L 87.875974 -87.171747 
L 87.077401 -86.607481 
L 86.278828 -86.369722 
L 85.480255 -86.57296 
L 84.681682 -87.303013 
L 83.883109 -88.48244 
L 83.084536 -90.031354 
L 82.285963 -91.869866 
L 81.48739 -93.918087 
L 80.688817 -96.096126 
L 79.890244 -98.324097 
L 79.091671 -100.522109 
L 78.293098 -102.610274 
L 77.494525 -104.508702 
L 76.695952 -106.137506 
L 75.897379 -107.416795 
L 75.098806 -108.26668 
L 74.300233 -108.607274 
L 73.50166 -108.335827 
L 72.703087 -107.444037 
L 71.904514 -106.025766 
L 71.105941 -104.175451 
L 70.307368 -101.987527 
L 69.508794 -99.556431 
L 68.710221 -96.976598 
L 67.911648 -94.342464 
L 67.113075 -91.748465 
L 66.314502 -89.289038 
L 65.515929 -87.058618 
L 64.717356 -85.151641 
L 63.918783 -83.662544 
L 63.12021 -82.685761 
L 62.321637 -82.31573 
L 61.523064 -82.340275 
L 60.724491 -82.429724 
L 59.925918 -82.595494 
L 59.127345 -82.849812 
L 58.328772 -83.204908 
L 57.530199 -83.673012 
L 56.731626 -84.266354 
L 55.933053 -84.997162 
L 55.13448 -85.877667 
L 54.335907 -86.920097 
L 53.537334 -88.136683 
L 52.738761 -89.539654 
L 51.940188 -91.14124 
L 51.141615 -92.953669 
L 50.343042 -94.989172 
z
" style="stroke: #1f77b4; stroke-opacity: 0.7"/>
    </defs>
    <g clip-path="url(#p6907163835)">
     <use xlink:href="#m03911186bb" x="0" y="217.533125" style="fill: #1f77b4; fill-opacity: 0.7; stroke: #1f77b4; stroke-opacity: 0.7"/>
    </g>
   </g>
   <g id="FillBetweenPolyCollection_3">
    <defs>
     <path id="m4f2127fc7e" d="M 50.343042 -94.989172 
L 50.343042 -94.989172 
L 51.141615 -92.953669 
L 51.940188 -91.14124 
L 52.738761 -89.539654 
L 53.537334 -88.136683 
L 54.335907 -86.920097 
L 55.13448 -85.877667 
L 55.933053 -84.997162 
L 56.731626 -84.266354 
L 57.530199 -83.673012 
L 58.328772 -83.204908 
L 59.127345 -82.849812 
L 59.925918 -82.595494 
L 60.724491 -82.429724 
L 61.523064 -82.340275 
L 62.321637 -82.31573 
L 63.12021 -82.685761 
L 63.918783 -83.662544 
L 64.717356 -85.151641 
L 65.515929 -87.058618 
L 66.314502 -89.289038 
L 67.113075 -91.748465 
L 67.911648 -94.342464 
L 68.710221 -96.976598 
L 69.508794 -99.556431 
L 70.307368 -101.987527 
L 71.105941 -104.175451 
L 71.904514 -106.025766 
L 72.703087 -107.444037 
L 73.50166 -108.335827 
L 74.300233 -108.607274 
L 75.098806 -108.26668 
L 75.897379 -107.416795 
L 76.695952 -106.137506 
L 77.494525 -104.508702 
L 78.293098 -102.610274 
L 79.091671 -100.522109 
L 79.890244 -98.324097 
L 80.688817 -96.096126 
L 81.48739 -93.918087 
L 82.285963 -91.869866 
L 83.084536 -90.031354 
L 83.883109 -88.48244 
L 84.681682 -87.303013 
L 85.480255 -86.57296 
L 86.278828 -86.369722 
L 87.077401 -86.607481 
L 87.875974 -87.171747 
L 88.674547 -88.010896 
L 89.47312 -89.073308 
L 90.271693 -90.307362 
L 91.070266 -91.661435 
L 91.868839 -93.083907 
L 92.667412 -94.523155 
L 93.465985 -95.927559 
L 94.264558 -97.245497 
L 95.063131 -98.425348 
L 95.861704 -99.41549 
L 96.660277 -100.164302 
L 97.458851 -100.620163 
L 98.257424 -100.727181 
L 99.055997 -100.324796 
L 99.85457 -99.411886 
L 100.653143 -98.06981 
L 101.451716 -96.379926 
L 102.250289 -94.423593 
L 103.048862 -92.282169 
L 103.847435 -90.037014 
L 104.646008 -87.769485 
L 105.444581 -85.560941 
L 106.243154 -83.49274 
L 107.041727 -81.646241 
L 107.8403 -80.102802 
L 108.638873 -78.943783 
L 109.437446 -78.250541 
L 110.236019 -78.096866 
L 111.034592 -78.366433 
L 111.833165 -78.963981 
L 112.631738 -79.851138 
L 113.430311 -80.989535 
L 114.228884 -82.3408 
L 115.027457 -83.866564 
L 115.82603 -85.528455 
L 116.624603 -87.288103 
L 117.423176 -89.107137 
L 118.221749 -90.947187 
L 119.020322 -92.769882 
L 119.818895 -94.536851 
L 120.617468 -96.209725 
L 121.416041 -97.750131 
L 122.214614 -99.133292 
L 123.013187 -100.539929 
L 123.81176 -102.020872 
L 124.610333 -103.554306 
L 125.408907 -105.118417 
L 126.20748 -106.69139 
L 127.006053 -108.251412 
L 127.804626 -109.776669 
L 128.603199 -111.245346 
L 129.401772 -112.635629 
L 130.200345 -113.925704 
L 130.998918 -115.093758 
L 131.797491 -116.117975 
L 132.596064 -116.976542 
L 133.394637 -117.647644 
L 134.19321 -118.122591 
L 134.991783 -118.541369 
L 135.790356 -118.945559 
L 136.588929 -119.332853 
L 137.387502 -119.700942 
L 138.186075 -120.047518 
L 138.984648 -120.370273 
L 139.783221 -120.666898 
L 140.581794 -120.935085 
L 141.380367 -121.172527 
L 142.17894 -121.376913 
L 142.977513 -121.545937 
L 143.776086 -121.67729 
L 144.574659 -121.768664 
L 145.373232 -121.81775 
L 146.171805 -121.80058 
L 146.970378 -121.52934 
L 147.768951 -120.99575 
L 148.567524 -120.242995 
L 149.366097 -119.314261 
L 150.16467 -118.252731 
L 150.963243 -117.101592 
L 151.761816 -115.904029 
L 152.56039 -114.703227 
L 153.358963 -113.542371 
L 154.157536 -112.464647 
L 154.956109 -111.51324 
L 155.754682 -110.731335 
L 156.553255 -110.162117 
L 157.351828 -109.848772 
L 158.150401 -109.843549 
L 158.948974 -110.221377 
L 159.747547 -110.943683 
L 160.54612 -111.95329 
L 161.344693 -113.193025 
L 162.143266 -114.605714 
L 162.941839 -116.134181 
L 163.740412 -117.721251 
L 164.538985 -119.309751 
L 165.337558 -120.842506 
L 166.136131 -122.262341 
L 166.934704 -123.512082 
L 167.733277 -124.534554 
L 168.53185 -125.272582 
L 169.330423 -125.668993 
L 170.128996 -125.720486 
L 170.927569 -125.7146 
L 171.726142 -125.702885 
L 172.524715 -125.685402 
L 173.323288 -125.662209 
L 174.121861 -125.633368 
L 174.920434 -125.598938 
L 175.719007 -125.558978 
L 176.51758 -125.513549 
L 177.316153 -125.462711 
L 178.114726 -125.406522 
L 178.913299 -125.345044 
L 179.711873 -125.278336 
L 180.510446 -125.206458 
L 181.309019 -125.12947 
L 182.107592 -124.960208 
L 182.906165 -124.299878 
L 183.704738 -123.167901 
L 184.503311 -121.644804 
L 185.301884 -119.811113 
L 186.100457 -117.747353 
L 186.89903 -115.534052 
L 187.697603 -113.251734 
L 188.496176 -110.980927 
L 189.294749 -108.802157 
L 190.093322 -106.795949 
L 190.891895 -105.04283 
L 191.690468 -103.623327 
L 192.489041 -102.617964 
L 193.287614 -102.107269 
L 194.086187 -102.213622 
L 194.88476 -103.105055 
L 195.683333 -104.687788 
L 196.481906 -106.844153 
L 197.280479 -109.456481 
L 198.079052 -112.407105 
L 198.877625 -115.578357 
L 199.676198 -118.852568 
L 200.474771 -122.11207 
L 201.273344 -125.239196 
L 202.071917 -128.116278 
L 202.87049 -130.625647 
L 203.669063 -132.649635 
L 204.467636 -134.070574 
L 205.266209 -134.770797 
L 206.064782 -134.70252 
L 206.863356 -134.078033 
L 207.661929 -132.992697 
L 208.460502 -131.525627 
L 209.259075 -129.75594 
L 210.057648 -127.76275 
L 210.856221 -125.625175 
L 211.654794 -123.422329 
L 212.453367 -121.233328 
L 213.25194 -119.137288 
L 214.050513 -117.213325 
L 214.849086 -115.540554 
L 215.647659 -114.198092 
L 216.446232 -113.265054 
L 217.244805 -112.820555 
L 218.043378 -112.858159 
L 218.841951 -113.154897 
L 219.640524 -113.663425 
L 220.439097 -114.350426 
L 221.23767 -115.182583 
L 222.036243 -116.126581 
L 222.834816 -117.149101 
L 223.633389 -118.216826 
L 224.431962 -119.296442 
L 225.230535 -120.354629 
L 226.029108 -121.358072 
L 226.827681 -122.273454 
L 227.626254 -123.067458 
L 228.424827 -123.706767 
L 229.2234 -124.158065 
L 230.021973 -124.539258 
L 230.820546 -125.182867 
L 231.619119 -126.06496 
L 232.417692 -127.144725 
L 233.216265 -128.381351 
L 234.014838 -129.734027 
L 234.813412 -131.161941 
L 235.611985 -132.624281 
L 236.410558 -134.080236 
L 237.209131 -135.488995 
L 238.007704 -136.809746 
L 238.806277 -138.001676 
L 239.60485 -139.023976 
L 240.403423 -139.835833 
L 241.201996 -140.396436 
L 242.000569 -140.825598 
L 242.799142 -141.421613 
L 243.597715 -142.16809 
L 244.396288 -143.038695 
L 245.194861 -144.007095 
L 245.993434 -145.046954 
L 246.792007 -146.131941 
L 247.59058 -147.235719 
L 248.389153 -148.331957 
L 249.187726 -149.394318 
L 249.986299 -150.396471 
L 250.784872 -151.31208 
L 251.583445 -152.114812 
L 252.382018 -152.778334 
L 253.180591 -153.27631 
L 253.979164 -153.753284 
L 254.777737 -154.471366 
L 255.57631 -155.394917 
L 256.374883 -156.482922 
L 257.173456 -157.694366 
L 257.972029 -158.988234 
L 258.770602 -160.323511 
L 259.569175 -161.659181 
L 260.367748 -162.954231 
L 261.166321 -164.167644 
L 261.964895 -165.258405 
L 262.763468 -166.1855 
L 263.562041 -166.907913 
L 264.360614 -167.38463 
L 265.159187 -167.574636 
L 265.95776 -167.262177 
L 266.756333 -166.238069 
L 267.554906 -164.602477 
L 268.353479 -162.457962 
L 269.152052 -159.907087 
L 269.950625 -157.052412 
L 270.749198 -153.9965 
L 271.547771 -150.841913 
L 272.346344 -147.691211 
L 273.144917 -144.646958 
L 273.94349 -141.811713 
L 274.742063 -139.28804 
L 275.540636 -137.178499 
L 276.339209 -135.585653 
L 277.137782 -134.612063 
L 277.936355 -134.059296 
L 278.734928 -133.602624 
L 279.533501 -133.245838 
L 280.332074 -132.993522 
L 281.130647 -132.85026 
L 281.92922 -132.820637 
L 282.727793 -132.909236 
L 283.526366 -133.120641 
L 284.324939 -133.459437 
L 285.123512 -133.930208 
L 285.922085 -134.537537 
L 286.720658 -135.286009 
L 287.519231 -136.180207 
L 288.317804 -137.224717 
L 289.116378 -138.424121 
L 289.116378 -138.424121 
L 289.116378 -138.424121 
L 288.317804 -137.224717 
L 287.519231 -136.180207 
L 286.720658 -135.286009 
L 285.922085 -134.537537 
L 285.123512 -133.930208 
L 284.324939 -133.459437 
L 283.526366 -133.120641 
L 282.727793 -132.909236 
L 281.92922 -132.820637 
L 281.130647 -132.85026 
L 280.332074 -132.993522 
L 279.533501 -133.245838 
L 278.734928 -133.602624 
L 277.936355 -134.059296 
L 277.137782 -134.612063 
L 276.339209 -135.585653 
L 275.540636 -137.178499 
L 274.742063 -139.28804 
L 273.94349 -141.811713 
L 273.144917 -144.646958 
L 272.346344 -147.691211 
L 271.547771 -150.841913 
L 270.749198 -153.9965 
L 269.950625 -157.052412 
L 269.152052 -159.907087 
L 268.353479 -162.457962 
L 267.554906 -164.602477 
L 266.756333 -166.238069 
L 265.95776 -167.262177 
L 265.159187 -167.574636 
L 264.360614 -167.38463 
L 263.562041 -166.907913 
L 262.763468 -166.1855 
L 261.964895 -165.258405 
L 261.166321 -164.167644 
L 260.367748 -162.954231 
L 259.569175 -161.659181 
L 258.770602 -160.323511 
L 257.972029 -158.988234 
L 257.173456 -157.694366 
L 256.374883 -156.482922 
L 255.57631 -155.394917 
L 254.777737 -154.471366 
L 253.979164 -153.753284 
L 253.180591 -153.27631 
L 252.382018 -152.778334 
L 251.583445 -152.114812 
L 250.784872 -151.31208 
L 249.986299 -150.396471 
L 249.187726 -149.394318 
L 248.389153 -148.331957 
L 247.59058 -147.235719 
L 246.792007 -146.131941 
L 245.993434 -145.046954 
L 245.194861 -144.007095 
L 244.396288 -143.038695 
L 243.597715 -142.16809 
L 242.799142 -141.421613 
L 242.000569 -140.825598 
L 241.201996 -140.396436 
L 240.403423 -139.835833 
L 239.60485 -139.023976 
L 238.806277 -138.001676 
L 238.007704 -136.809746 
L 237.209131 -135.488995 
L 236.410558 -134.080236 
L 235.611985 -132.624281 
L 234.813412 -131.161941 
L 234.014838 -129.734027 
L 233.216265 -128.381351 
L 232.417692 -127.144725 
L 231.619119 -126.06496 
L 230.820546 -125.182867 
L 230.021973 -124.539258 
L 229.2234 -124.158065 
L 228.424827 -123.706767 
L 227.626254 -123.067458 
L 226.827681 -122.273454 
L 226.029108 -121.358072 
L 225.230535 -120.354629 
L 224.431962 -119.296442 
L 223.633389 -118.216826 
L 222.834816 -117.149101 
L 222.036243 -116.126581 
L 221.23767 -115.182583 
L 220.439097 -114.350426 
L 219.640524 -113.663425 
L 218.841951 -113.154897 
L 218.043378 -112.858159 
L 217.244805 -112.820555 
L 216.446232 -113.265054 
L 215.647659 -114.198092 
L 214.849086 -115.540554 
L 214.050513 -117.213325 
L 213.25194 -119.137288 
L 212.453367 -121.233328 
L 211.654794 -123.422329 
L 210.856221 -125.625175 
L 210.057648 -127.76275 
L 209.259075 -129.75594 
L 208.460502 -131.525627 
L 207.661929 -132.992697 
L 206.863356 -134.078033 
L 206.064782 -134.70252 
L 205.266209 -134.770797 
L 204.467636 -134.070574 
L 203.669063 -132.649635 
L 202.87049 -130.625647 
L 202.071917 -128.116278 
L 201.273344 -125.239196 
L 200.474771 -122.11207 
L 199.676198 -118.852568 
L 198.877625 -115.578357 
L 198.079052 -112.407105 
L 197.280479 -109.456481 
L 196.481906 -106.844153 
L 195.683333 -104.687788 
L 194.88476 -103.105055 
L 194.086187 -102.213622 
L 193.287614 -102.107269 
L 192.489041 -102.617964 
L 191.690468 -103.623327 
L 190.891895 -105.04283 
L 190.093322 -106.795949 
L 189.294749 -108.802157 
L 188.496176 -110.980927 
L 187.697603 -113.251734 
L 186.89903 -115.534052 
L 186.100457 -117.747353 
L 185.301884 -119.811113 
L 184.503311 -121.644804 
L 183.704738 -123.167901 
L 182.906165 -124.299878 
L 182.107592 -124.960208 
L 181.309019 -125.12947 
L 180.510446 -125.206458 
L 179.711873 -125.278336 
L 178.913299 -125.345044 
L 178.114726 -125.406522 
L 177.316153 -125.462711 
L 176.51758 -125.513549 
L 175.719007 -125.558978 
L 174.920434 -125.598938 
L 174.121861 -125.633368 
L 173.323288 -125.662209 
L 172.524715 -125.685402 
L 171.726142 -125.702885 
L 170.927569 -125.7146 
L 170.128996 -125.720486 
L 169.330423 -125.668993 
L 168.53185 -125.272582 
L 167.733277 -124.534554 
L 166.934704 -123.512082 
L 166.136131 -122.262341 
L 165.337558 -120.842506 
L 164.538985 -119.309751 
L 163.740412 -117.721251 
L 162.941839 -116.134181 
L 162.143266 -114.605714 
L 161.344693 -113.193025 
L 160.54612 -111.95329 
L 159.747547 -110.943683 
L 158.948974 -110.221377 
L 158.150401 -109.843549 
L 157.351828 -109.848772 
L 156.553255 -110.162117 
L 155.754682 -110.731335 
L 154.956109 -111.51324 
L 154.157536 -112.464647 
L 153.358963 -113.542371 
L 152.56039 -114.703227 
L 151.761816 -115.904029 
L 150.963243 -117.101592 
L 150.16467 -118.252731 
L 149.366097 -119.314261 
L 148.567524 -120.242995 
L 147.768951 -120.99575 
L 146.970378 -121.52934 
L 146.171805 -121.80058 
L 145.373232 -121.81775 
L 144.574659 -121.768664 
L 143.776086 -121.67729 
L 142.977513 -121.545937 
L 142.17894 -121.376913 
L 141.380367 -121.172527 
L 140.581794 -120.935085 
L 139.783221 -120.666898 
L 138.984648 -120.370273 
L 138.186075 -120.047518 
L 137.387502 -119.700942 
L 136.588929 -119.332853 
L 135.790356 -118.945559 
L 134.991783 -118.541369 
L 134.19321 -118.122591 
L 133.394637 -117.647644 
L 132.596064 -116.976542 
L 131.797491 -116.117975 
L 130.998918 -115.093758 
L 130.200345 -113.925704 
L 129.401772 -112.635629 
L 128.603199 -111.245346 
L 127.804626 -109.776669 
L 127.006053 -108.251412 
L 126.20748 -106.69139 
L 125.408907 -105.118417 
L 124.610333 -103.554306 
L 123.81176 -102.020872 
L 123.013187 -100.539929 
L 122.214614 -99.133292 
L 121.416041 -97.750131 
L 120.617468 -96.209725 
L 119.818895 -94.536851 
L 119.020322 -92.769882 
L 118.221749 -90.947187 
L 117.423176 -89.107137 
L 116.624603 -87.288103 
L 115.82603 -85.528455 
L 115.027457 -83.866564 
L 114.228884 -82.3408 
L 113.430311 -80.989535 
L 112.631738 -79.851138 
L 111.833165 -78.963981 
L 111.034592 -78.366433 
L 110.236019 -78.096866 
L 109.437446 -78.250541 
L 108.638873 -78.943783 
L 107.8403 -80.102802 
L 107.041727 -81.646241 
L 106.243154 -83.49274 
L 105.444581 -85.560941 
L 104.646008 -87.769485 
L 103.847435 -90.037014 
L 103.048862 -92.282169 
L 102.250289 -94.423593 
L 101.451716 -96.379926 
L 100.653143 -98.06981 
L 99.85457 -99.411886 
L 99.055997 -100.324796 
L 98.257424 -100.727181 
L 97.458851 -100.620163 
L 96.660277 -100.164302 
L 95.861704 -99.41549 
L 95.063131 -98.425348 
L 94.264558 -97.245497 
L 93.465985 -95.927559 
L 92.667412 -94.523155 
L 91.868839 -93.083907 
L 91.070266 -91.661435 
L 90.271693 -90.307362 
L 89.47312 -89.073308 
L 88.674547 -88.010896 
L 87.875974 -87.171747 
L 87.077401 -86.607481 
L 86.278828 -86.369722 
L 85.480255 -86.57296 
L 84.681682 -87.303013 
L 83.883109 -88.48244 
L 83.084536 -90.031354 
L 82.285963 -91.869866 
L 81.48739 -93.918087 
L 80.688817 -96.096126 
L 79.890244 -98.324097 
L 79.091671 -100.522109 
L 78.293098 -102.610274 
L 77.494525 -104.508702 
L 76.695952 -106.137506 
L 75.897379 -107.416795 
L 75.098806 -108.26668 
L 74.300233 -108.607274 
L 73.50166 -108.335827 
L 72.703087 -107.444037 
L 71.904514 -106.025766 
L 71.105941 -104.175451 
L 70.307368 -101.987527 
L 69.508794 -99.556431 
L 68.710221 -96.976598 
L 67.911648 -94.342464 
L 67.113075 -91.748465 
L 66.314502 -89.289038 
L 65.515929 -87.058618 
L 64.717356 -85.151641 
L 63.918783 -83.662544 
L 63.12021 -82.685761 
L 62.321637 -82.31573 
L 61.523064 -82.340275 
L 60.724491 -82.429724 
L 59.925918 -82.595494 
L 59.127345 -82.849812 
L 58.328772 -83.204908 
L 57.530199 -83.673012 
L 56.731626 -84.266354 
L 55.933053 -84.997162 
L 55.13448 -85.877667 
L 54.335907 -86.920097 
L 53.537334 -88.136683 
L 52.738761 -89.539654 
L 51.940188 -91.14124 
L 51.141615 -92.953669 
L 50.343042 -94.989172 
z
" style="stroke: #2ca02c; stroke-opacity: 0.7"/>
    </defs>
    <g clip-path="url(#p6907163835)">
     <use xlink:href="#m4f2127fc7e" x="0" y="217.533125" style="fill: #2ca02c; fill-opacity: 0.7; stroke: #2ca02c; stroke-opacity: 0.7"/>
    </g>
   </g>
   <g id="FillBetweenPolyCollection_4">
    <defs>
     <path id="m203f2f6907" d="M 50.343042 -94.989172 
L 50.343042 -94.989172 
L 51.141615 -92.953669 
L 51.940188 -91.14124 
L 52.738761 -89.539654 
L 53.537334 -88.136683 
L 54.335907 -86.920097 
L 55.13448 -85.877667 
L 55.933053 -84.997162 
L 56.731626 -84.266354 
L 57.530199 -83.673012 
L 58.328772 -83.204908 
L 59.127345 -82.849812 
L 59.925918 -82.595494 
L 60.724491 -82.429724 
L 61.523064 -82.340275 
L 62.321637 -82.31573 
L 63.12021 -82.685761 
L 63.918783 -83.662544 
L 64.717356 -85.151641 
L 65.515929 -87.058618 
L 66.314502 -89.289038 
L 67.113075 -91.748465 
L 67.911648 -94.342464 
L 68.710221 -96.976598 
L 69.508794 -99.556431 
L 70.307368 -101.987527 
L 71.105941 -104.175451 
L 71.904514 -106.025766 
L 72.703087 -107.444037 
L 73.50166 -108.335827 
L 74.300233 -108.607274 
L 75.098806 -108.26668 
L 75.897379 -107.416795 
L 76.695952 -106.137506 
L 77.494525 -104.508702 
L 78.293098 -102.610274 
L 79.091671 -100.522109 
L 79.890244 -98.324097 
L 80.688817 -96.096126 
L 81.48739 -93.918087 
L 82.285963 -91.869866 
L 83.084536 -90.031354 
L 83.883109 -88.48244 
L 84.681682 -87.303013 
L 85.480255 -86.57296 
L 86.278828 -86.369722 
L 87.077401 -86.607481 
L 87.875974 -87.171747 
L 88.674547 -88.010896 
L 89.47312 -89.073308 
L 90.271693 -90.307362 
L 91.070266 -91.661435 
L 91.868839 -93.083907 
L 92.667412 -94.523155 
L 93.465985 -95.927559 
L 94.264558 -97.245497 
L 95.063131 -98.425348 
L 95.861704 -99.41549 
L 96.660277 -100.164302 
L 97.458851 -100.620163 
L 98.257424 -100.727181 
L 99.055997 -100.324796 
L 99.85457 -99.411886 
L 100.653143 -98.06981 
L 101.451716 -96.379926 
L 102.250289 -94.423593 
L 103.048862 -92.282169 
L 103.847435 -90.037014 
L 104.646008 -87.769485 
L 105.444581 -85.560941 
L 106.243154 -83.49274 
L 107.041727 -81.646241 
L 107.8403 -80.102802 
L 108.638873 -78.943783 
L 109.437446 -78.250541 
L 110.236019 -78.096866 
L 111.034592 -78.366433 
L 111.833165 -78.963981 
L 112.631738 -79.851138 
L 113.430311 -80.989535 
L 114.228884 -82.3408 
L 115.027457 -83.866564 
L 115.82603 -85.528455 
L 116.624603 -87.288103 
L 117.423176 -89.107137 
L 118.221749 -90.947187 
L 119.020322 -92.769882 
L 119.818895 -94.536851 
L 120.617468 -96.209725 
L 121.416041 -97.750131 
L 122.214614 -99.133292 
L 123.013187 -100.539929 
L 123.81176 -102.020872 
L 124.610333 -103.554306 
L 125.408907 -105.118417 
L 126.20748 -106.69139 
L 127.006053 -108.251412 
L 127.804626 -109.776669 
L 128.603199 -111.245346 
L 129.401772 -112.635629 
L 130.200345 -113.925704 
L 130.998918 -115.093758 
L 131.797491 -116.117975 
L 132.596064 -116.976542 
L 133.394637 -117.647644 
L 134.19321 -118.122591 
L 134.991783 -118.541369 
L 135.790356 -118.945559 
L 136.588929 -119.332853 
L 137.387502 -119.700942 
L 138.186075 -120.047518 
L 138.984648 -120.370273 
L 139.783221 -120.666898 
L 140.581794 -120.935085 
L 141.380367 -121.172527 
L 142.17894 -121.376913 
L 142.977513 -121.545937 
L 143.776086 -121.67729 
L 144.574659 -121.768664 
L 145.373232 -121.81775 
L 146.171805 -121.80058 
L 146.970378 -121.52934 
L 147.768951 -120.99575 
L 148.567524 -120.242995 
L 149.366097 -119.314261 
L 150.16467 -118.252731 
L 150.963243 -117.101592 
L 151.761816 -115.904029 
L 152.56039 -114.703227 
L 153.358963 -113.542371 
L 154.157536 -112.464647 
L 154.956109 -111.51324 
L 155.754682 -110.731335 
L 156.553255 -110.162117 
L 157.351828 -109.848772 
L 158.150401 -109.843549 
L 158.948974 -110.221377 
L 159.747547 -110.943683 
L 160.54612 -111.95329 
L 161.344693 -113.193025 
L 162.143266 -114.605714 
L 162.941839 -116.134181 
L 163.740412 -117.721251 
L 164.538985 -119.309751 
L 165.337558 -120.842506 
L 166.136131 -122.262341 
L 166.934704 -123.512082 
L 167.733277 -124.534554 
L 168.53185 -125.272582 
L 169.330423 -125.668993 
L 170.128996 -125.720486 
L 170.927569 -125.7146 
L 171.726142 -125.702885 
L 172.524715 -125.685402 
L 173.323288 -125.662209 
L 174.121861 -125.633368 
L 174.920434 -125.598938 
L 175.719007 -125.558978 
L 176.51758 -125.513549 
L 177.316153 -125.462711 
L 178.114726 -125.406522 
L 178.913299 -125.345044 
L 179.711873 -125.278336 
L 180.510446 -125.206458 
L 181.309019 -125.12947 
L 182.107592 -124.960208 
L 182.906165 -124.299878 
L 183.704738 -123.167901 
L 184.503311 -121.644804 
L 185.301884 -119.811113 
L 186.100457 -117.747353 
L 186.89903 -115.534052 
L 187.697603 -113.251734 
L 188.496176 -110.980927 
L 189.294749 -108.802157 
L 190.093322 -106.795949 
L 190.891895 -105.04283 
L 191.690468 -103.623327 
L 192.489041 -102.617964 
L 193.287614 -102.107269 
L 194.086187 -102.213622 
L 194.88476 -103.105055 
L 195.683333 -104.687788 
L 196.481906 -106.844153 
L 197.280479 -109.456481 
L 198.079052 -112.407105 
L 198.877625 -115.578357 
L 199.676198 -118.852568 
L 200.474771 -122.11207 
L 201.273344 -125.239196 
L 202.071917 -128.116278 
L 202.87049 -130.625647 
L 203.669063 -132.649635 
L 204.467636 -134.070574 
L 205.266209 -134.770797 
L 206.064782 -134.70252 
L 206.863356 -134.078033 
L 207.661929 -132.992697 
L 208.460502 -131.525627 
L 209.259075 -129.75594 
L 210.057648 -127.76275 
L 210.856221 -125.625175 
L 211.654794 -123.422329 
L 212.453367 -121.233328 
L 213.25194 -119.137288 
L 214.050513 -117.213325 
L 214.849086 -115.540554 
L 215.647659 -114.198092 
L 216.446232 -113.265054 
L 217.244805 -112.820555 
L 218.043378 -112.858159 
L 218.841951 -113.154897 
L 219.640524 -113.663425 
L 220.439097 -114.350426 
L 221.23767 -115.182583 
L 222.036243 -116.126581 
L 222.834816 -117.149101 
L 223.633389 -118.216826 
L 224.431962 -119.296442 
L 225.230535 -120.354629 
L 226.029108 -121.358072 
L 226.827681 -122.273454 
L 227.626254 -123.067458 
L 228.424827 -123.706767 
L 229.2234 -124.158065 
L 230.021973 -124.539258 
L 230.820546 -125.182867 
L 231.619119 -126.06496 
L 232.417692 -127.144725 
L 233.216265 -128.381351 
L 234.014838 -129.734027 
L 234.813412 -131.161941 
L 235.611985 -132.624281 
L 236.410558 -134.080236 
L 237.209131 -135.488995 
L 238.007704 -136.809746 
L 238.806277 -138.001676 
L 239.60485 -139.023976 
L 240.403423 -139.835833 
L 241.201996 -140.396436 
L 242.000569 -140.825598 
L 242.799142 -141.421613 
L 243.597715 -142.16809 
L 244.396288 -143.038695 
L 245.194861 -144.007095 
L 245.993434 -145.046954 
L 246.792007 -146.131941 
L 247.59058 -147.235719 
L 248.389153 -148.331957 
L 249.187726 -149.394318 
L 249.986299 -150.396471 
L 250.784872 -151.31208 
L 251.583445 -152.114812 
L 252.382018 -152.778334 
L 253.180591 -153.27631 
L 253.979164 -153.753284 
L 254.777737 -154.471366 
L 255.57631 -155.394917 
L 256.374883 -156.482922 
L 257.173456 -157.694366 
L 257.972029 -158.988234 
L 258.770602 -160.323511 
L 259.569175 -161.659181 
L 260.367748 -162.954231 
L 261.166321 -164.167644 
L 261.964895 -165.258405 
L 262.763468 -166.1855 
L 263.562041 -166.907913 
L 264.360614 -167.38463 
L 265.159187 -167.574636 
L 265.95776 -167.262177 
L 266.756333 -166.238069 
L 267.554906 -164.602477 
L 268.353479 -162.457962 
L 269.152052 -159.907087 
L 269.950625 -157.052412 
L 270.749198 -153.9965 
L 271.547771 -150.841913 
L 272.346344 -147.691211 
L 273.144917 -144.646958 
L 273.94349 -141.811713 
L 274.742063 -139.28804 
L 275.540636 -137.178499 
L 276.339209 -135.585653 
L 277.137782 -134.612063 
L 277.936355 -134.059296 
L 278.734928 -133.602624 
L 279.533501 -133.245838 
L 280.332074 -132.993522 
L 281.130647 -132.85026 
L 281.92922 -132.820637 
L 282.727793 -132.909236 
L 283.526366 -133.120641 
L 284.324939 -133.459437 
L 285.123512 -133.930208 
L 285.922085 -134.537537 
L 286.720658 -135.286009 
L 287.519231 -136.180207 
L 288.317804 -137.224717 
L 289.116378 -138.424121 
L 289.116378 -165.305951 
L 289.116378 -165.305951 
L 288.317804 -163.031035 
L 287.519231 -160.940415 
L 286.720658 -159.036206 
L 285.922085 -157.320522 
L 285.123512 -155.795478 
L 284.324939 -154.463188 
L 283.526366 -153.325768 
L 282.727793 -152.38533 
L 281.92922 -151.643991 
L 281.130647 -151.103863 
L 280.332074 -150.767063 
L 279.533501 -150.635703 
L 278.734928 -150.711899 
L 277.936355 -150.997765 
L 277.137782 -151.49614 
L 276.339209 -152.505433 
L 275.540636 -154.192523 
L 274.742063 -156.445738 
L 273.94349 -159.153405 
L 273.144917 -162.20385 
L 272.346344 -165.4854 
L 271.547771 -168.886382 
L 270.749198 -172.295122 
L 269.950625 -175.599947 
L 269.152052 -178.689184 
L 268.353479 -181.45116 
L 267.554906 -183.774201 
L 266.756333 -185.546634 
L 265.95776 -186.656786 
L 265.159187 -186.995501 
L 264.360614 -186.779748 
L 263.562041 -186.237324 
L 262.763468 -185.413285 
L 261.964895 -184.352689 
L 261.166321 -183.100591 
L 260.367748 -181.702048 
L 259.569175 -180.202117 
L 258.770602 -178.645854 
L 257.972029 -177.078316 
L 257.173456 -175.54456 
L 256.374883 -174.089643 
L 255.57631 -172.75862 
L 254.777737 -171.596549 
L 253.979164 -170.648486 
L 253.180591 -169.953418 
L 252.382018 -169.215473 
L 251.583445 -168.275386 
L 250.784872 -167.167523 
L 249.986299 -165.926247 
L 249.187726 -164.585923 
L 248.389153 -163.180913 
L 247.59058 -161.745583 
L 246.792007 -160.314297 
L 245.993434 -158.921418 
L 245.194861 -157.601311 
L 244.396288 -156.388339 
L 243.597715 -155.316867 
L 242.799142 -154.421258 
L 242.000569 -153.735877 
L 241.201996 -153.28645 
L 240.403423 -152.819297 
L 239.60485 -152.219454 
L 238.806277 -151.508838 
L 238.007704 -150.709366 
L 237.209131 -149.842954 
L 236.410558 -148.931519 
L 235.611985 -147.996978 
L 234.813412 -147.061249 
L 234.014838 -146.146247 
L 233.216265 -145.27389 
L 232.417692 -144.466094 
L 231.619119 -143.744777 
L 230.820546 -143.131854 
L 230.021973 -142.649244 
L 229.2234 -142.305702 
L 228.424827 -141.837083 
L 227.626254 -141.158938 
L 226.827681 -140.306513 
L 226.029108 -139.315055 
L 225.230535 -138.219812 
L 224.431962 -137.056029 
L 223.633389 -135.858953 
L 222.834816 -134.66383 
L 222.036243 -133.505908 
L 221.23767 -132.420433 
L 220.439097 -131.442651 
L 219.640524 -130.60781 
L 218.841951 -129.951155 
L 218.043378 -129.507934 
L 217.244805 -129.325882 
L 216.446232 -129.606232 
L 215.647659 -130.350928 
L 214.849086 -131.484904 
L 214.050513 -132.933096 
L 213.25194 -134.620439 
L 212.453367 -136.471869 
L 211.654794 -138.412321 
L 210.856221 -140.366731 
L 210.057648 -142.260034 
L 209.259075 -144.017165 
L 208.460502 -145.56306 
L 207.661929 -146.822654 
L 206.863356 -147.720882 
L 206.064782 -148.182681 
L 205.266209 -148.115984 
L 204.467636 -147.301443 
L 203.669063 -145.781768 
L 202.87049 -143.671669 
L 202.071917 -141.085856 
L 201.273344 -138.139039 
L 200.474771 -134.945929 
L 199.676198 -131.621234 
L 198.877625 -128.279664 
L 198.079052 -125.03593 
L 197.280479 -122.004742 
L 196.481906 -119.300809 
L 195.683333 -117.038841 
L 194.88476 -115.333548 
L 194.086187 -114.29964 
L 193.287614 -114.008193 
L 192.489041 -114.119131 
L 191.690468 -114.501712 
L 190.891895 -115.113968 
L 190.093322 -115.91393 
L 189.294749 -116.85963 
L 188.496176 -117.909101 
L 187.697603 -119.020374 
L 186.89903 -120.151481 
L 186.100457 -121.260454 
L 185.301884 -122.305325 
L 184.503311 -123.244126 
L 183.704738 -124.034889 
L 182.906165 -124.635646 
L 182.107592 -125.004429 
L 181.309019 -125.157456 
L 180.510446 -125.48382 
L 179.711873 -126.032492 
L 178.913299 -126.765732 
L 178.114726 -127.645803 
L 177.316153 -128.634967 
L 176.51758 -129.695485 
L 175.719007 -130.789618 
L 174.920434 -131.87963 
L 174.121861 -132.927781 
L 173.323288 -133.896333 
L 172.524715 -134.747549 
L 171.726142 -135.443689 
L 170.927569 -135.947016 
L 170.128996 -136.21979 
L 169.330423 -136.208675 
L 168.53185 -135.817922 
L 167.733277 -135.08515 
L 166.934704 -134.067532 
L 166.136131 -132.822243 
L 165.337558 -131.406457 
L 164.538985 -129.877348 
L 163.740412 -128.292088 
L 162.941839 -126.707853 
L 162.143266 -125.181816 
L 161.344693 -123.77115 
L 160.54612 -122.533031 
L 159.747547 -121.524631 
L 158.948974 -120.803124 
L 158.150401 -120.425685 
L 157.351828 -120.389037 
L 156.553255 -120.426629 
L 155.754682 -120.494918 
L 154.956109 -120.588724 
L 154.157536 -120.702865 
L 153.358963 -120.83216 
L 152.56039 -120.971428 
L 151.761816 -121.115489 
L 150.963243 -121.259161 
L 150.16467 -121.397264 
L 149.366097 -121.524616 
L 148.567524 -121.636037 
L 147.768951 -121.726345 
L 146.970378 -121.79036 
L 146.171805 -121.822901 
L 145.373232 -121.894645 
L 144.574659 -122.290418 
L 143.776086 -122.988888 
L 142.977513 -123.933643 
L 142.17894 -125.06827 
L 141.380367 -126.336357 
L 140.581794 -127.681491 
L 139.783221 -129.047259 
L 138.984648 -130.37725 
L 138.186075 -131.61505 
L 137.387502 -132.704246 
L 136.588929 -133.588428 
L 135.790356 -134.211181 
L 134.991783 -134.516094 
L 134.19321 -134.446753 
L 133.394637 -133.969606 
L 132.596064 -133.148653 
L 131.797491 -132.024122 
L 130.998918 -130.631489 
L 130.200345 -129.00623 
L 129.401772 -127.183822 
L 128.603199 -125.19974 
L 127.804626 -123.089461 
L 127.006053 -120.88846 
L 126.20748 -118.632214 
L 125.408907 -116.356199 
L 124.610333 -114.095891 
L 123.81176 -111.886765 
L 123.013187 -109.764299 
L 122.214614 -107.763968 
L 121.416041 -105.812789 
L 120.617468 -103.6409 
L 119.818895 -101.282208 
L 119.020322 -98.790817 
L 118.221749 -96.220834 
L 117.423176 -93.626363 
L 116.624603 -91.061512 
L 115.82603 -88.580384 
L 115.027457 -86.237086 
L 114.228884 -84.085724 
L 113.430311 -82.180403 
L 112.631738 -80.575228 
L 111.833165 -79.324306 
L 111.034592 -78.481742 
L 110.236019 -78.101642 
L 109.437446 -78.250541 
L 108.638873 -78.943783 
L 107.8403 -80.102802 
L 107.041727 -81.646241 
L 106.243154 -83.49274 
L 105.444581 -85.560941 
L 104.646008 -87.769485 
L 103.847435 -90.037014 
L 103.048862 -92.282169 
L 102.250289 -94.423593 
L 101.451716 -96.379926 
L 100.653143 -98.06981 
L 99.85457 -99.411886 
L 99.055997 -100.324796 
L 98.257424 -100.727181 
L 97.458851 -100.620163 
L 96.660277 -100.164302 
L 95.861704 -99.41549 
L 95.063131 -98.425348 
L 94.264558 -97.245497 
L 93.465985 -95.927559 
L 92.667412 -94.523155 
L 91.868839 -93.083907 
L 91.070266 -91.661435 
L 90.271693 -90.307362 
L 89.47312 -89.073308 
L 88.674547 -88.010896 
L 87.875974 -87.171747 
L 87.077401 -86.607481 
L 86.278828 -86.369722 
L 85.480255 -86.57296 
L 84.681682 -87.303013 
L 83.883109 -88.48244 
L 83.084536 -90.031354 
L 82.285963 -91.869866 
L 81.48739 -93.918087 
L 80.688817 -96.096126 
L 79.890244 -98.324097 
L 79.091671 -100.522109 
L 78.293098 -102.610274 
L 77.494525 -104.508702 
L 76.695952 -106.137506 
L 75.897379 -107.416795 
L 75.098806 -108.26668 
L 74.300233 -108.607274 
L 73.50166 -108.335827 
L 72.703087 -107.444037 
L 71.904514 -106.025766 
L 71.105941 -104.175451 
L 70.307368 -101.987527 
L 69.508794 -99.556431 
L 68.710221 -96.976598 
L 67.911648 -94.342464 
L 67.113075 -91.748465 
L 66.314502 -89.289038 
L 65.515929 -87.058618 
L 64.717356 -85.151641 
L 63.918783 -83.662544 
L 63.12021 -82.685761 
L 62.321637 -82.31573 
L 61.523064 -82.340275 
L 60.724491 -82.429724 
L 59.925918 -82.595494 
L 59.127345 -82.849812 
L 58.328772 -83.204908 
L 57.530199 -83.673012 
L 56.731626 -84.266354 
L 55.933053 -84.997162 
L 55.13448 -85.877667 
L 54.335907 -86.920097 
L 53.537334 -88.136683 
L 52.738761 -89.539654 
L 51.940188 -91.14124 
L 51.141615 -92.953669 
L 50.343042 -94.989172 
z
" style="stroke: #ff7f0e; stroke-opacity: 0.7"/>
    </defs>
    <g clip-path="url(#p6907163835)">
     <use xlink:href="#m203f2f6907" x="0" y="217.533125" style="fill: #ff7f0e; fill-opacity: 0.7; stroke: #ff7f0e; stroke-opacity: 0.7"/>
    </g>
   </g>
   <g id="patch_3">
    <path d="M 38.404375 183.13 
L 38.404375 9.45 
" style="fill: none; stroke: #000000; stroke-width: 0.5; stroke-linejoin: miter; stroke-linecap: square"/>
   </g>
   <g id="patch_4">
    <path d="M 38.404375 183.13 
L 301.055044 183.13 
" style="fill: none; stroke: #000000; stroke-width: 0.5; stroke-linejoin: miter; stroke-linecap: square"/>
   </g>
   <g id="legend_1">
    <g id="patch_5">
     <path d="M 47.404375 25.95 
L 67.404375 25.95 
L 67.404375 18.95 
L 47.404375 18.95 
z
" style="fill: #d62728; fill-opacity: 0.7; stroke: #d62728; stroke-opacity: 0.7; stroke-linejoin: miter"/>
    </g>
    <g id="text_17">
     <!-- Solo -->
     <g transform="translate(75.404375 25.95) scale(0.1 -0.1)">
      <defs>
       <path id="RobotoCondensed-Regular-53" d="M 2481 1150 
Q 2481 1469 2312 1656 
Q 2144 1844 1591 2042 
Q 1038 2241 713 2547 
Q 388 2853 388 3375 
Q 388 3906 741 4259 
Q 1094 4613 1691 4613 
Q 2356 4613 2706 4191 
Q 3056 3769 3056 3238 
L 2481 3238 
Q 2481 3619 2293 3869 
Q 2106 4119 1691 4119 
Q 1313 4119 1139 3908 
Q 966 3697 966 3381 
Q 966 3094 1170 2903 
Q 1375 2713 1806 2556 
Q 2475 2338 2765 2013 
Q 3056 1688 3056 1156 
Q 3056 600 2695 268 
Q 2334 -63 1719 -63 
Q 1363 -63 1028 93 
Q 694 250 480 558 
Q 266 866 266 1319 
L 841 1319 
Q 841 853 1098 640 
Q 1356 428 1719 428 
Q 2094 428 2287 623 
Q 2481 819 2481 1150 
z
" transform="scale(0.015625)"/>
       <path id="RobotoCondensed-Regular-6c" d="M 1009 4800 
L 1009 0 
L 459 0 
L 459 4800 
L 1009 4800 
z
" transform="scale(0.015625)"/>
      </defs>
      <use xlink:href="#RobotoCondensed-Regular-53"/>
      <use xlink:href="#RobotoCondensed-Regular-6f" transform="translate(51.855469 0)"/>
      <use xlink:href="#RobotoCondensed-Regular-6c" transform="translate(102.050781 0)"/>
      <use xlink:href="#RobotoCondensed-Regular-6f" transform="translate(125 0)"/>
     </g>
    </g>
    <g id="patch_6">
     <path d="M 47.404375 40.48125 
L 67.404375 40.48125 
L 67.404375 33.48125 
L 47.404375 33.48125 
z
" style="fill: #1f77b4; fill-opacity: 0.7; stroke: #1f77b4; stroke-opacity: 0.7; stroke-linejoin: miter"/>
    </g>
    <g id="text_18">
     <!-- Initial -->
     <g transform="translate(75.404375 40.48125) scale(0.1 -0.1)">
      <defs>
       <path id="RobotoCondensed-Regular-49" d="M 1091 4550 
L 1091 0 
L 516 0 
L 516 4550 
L 1091 4550 
z
" transform="scale(0.015625)"/>
      </defs>
      <use xlink:href="#RobotoCondensed-Regular-49"/>
      <use xlink:href="#RobotoCondensed-Regular-6e" transform="translate(25 0)"/>
      <use xlink:href="#RobotoCondensed-Regular-69" transform="translate(73.4375 0)"/>
      <use xlink:href="#RobotoCondensed-Regular-74" transform="translate(96.386719 0)"/>
      <use xlink:href="#RobotoCondensed-Regular-69" transform="translate(125.976562 0)"/>
      <use xlink:href="#RobotoCondensed-Regular-61" transform="translate(148.925781 0)"/>
      <use xlink:href="#RobotoCondensed-Regular-6c" transform="translate(196.826172 0)"/>
     </g>
    </g>
    <g id="patch_7">
     <path d="M 47.404375 55.0125 
L 67.404375 55.0125 
L 67.404375 48.0125 
L 47.404375 48.0125 
z
" style="fill: #2ca02c; fill-opacity: 0.7; stroke: #2ca02c; stroke-opacity: 0.7; stroke-linejoin: miter"/>
    </g>
    <g id="text_19">
     <!-- Middle -->
     <g transform="translate(75.404375 55.0125) scale(0.1 -0.1)">
      <defs>
       <path id="RobotoCondensed-Regular-4d" d="M 2419 841 
L 3606 4550 
L 4341 4550 
L 4341 0 
L 3769 0 
L 3769 1775 
L 3822 3538 
L 2634 0 
L 2197 0 
L 1009 3544 
L 1063 1775 
L 1063 0 
L 491 0 
L 491 4550 
L 1228 4550 
L 2419 841 
z
" transform="scale(0.015625)"/>
       <path id="RobotoCondensed-Regular-64" d="M 2234 0 
L 2209 366 
Q 1941 -63 1425 -63 
Q 925 -63 611 331 
Q 297 725 297 1528 
L 297 1844 
Q 297 2678 609 3061 
Q 922 3444 1431 3444 
Q 1922 3444 2188 3050 
L 2188 4800 
L 2738 4800 
L 2738 0 
L 2234 0 
z
M 850 1528 
Q 850 963 1019 695 
Q 1188 428 1569 428 
Q 1981 428 2188 847 
L 2188 2544 
Q 1972 2956 1575 2956 
Q 1194 2956 1023 2687 
Q 853 2419 850 1866 
L 850 1528 
z
" transform="scale(0.015625)"/>
      </defs>
      <use xlink:href="#RobotoCondensed-Regular-4d"/>
      <use xlink:href="#RobotoCondensed-Regular-69" transform="translate(75.537109 0)"/>
      <use xlink:href="#RobotoCondensed-Regular-64" transform="translate(98.486328 0)"/>
      <use xlink:href="#RobotoCondensed-Regular-64" transform="translate(148.095703 0)"/>
      <use xlink:href="#RobotoCondensed-Regular-6c" transform="translate(197.705078 0)"/>
      <use xlink:href="#RobotoCondensed-Regular-65" transform="translate(220.654297 0)"/>
     </g>
    </g>
    <g id="patch_8">
     <path d="M 47.404375 69.54375 
L 67.404375 69.54375 
L 67.404375 62.54375 
L 47.404375 62.54375 
z
" style="fill: #ff7f0e; fill-opacity: 0.7; stroke: #ff7f0e; stroke-opacity: 0.7; stroke-linejoin: miter"/>
    </g>
    <g id="text_20">
     <!-- End -->
     <g transform="translate(75.404375 69.54375) scale(0.1 -0.1)">
      <defs>
       <path id="RobotoCondensed-Regular-45" d="M 491 0 
L 491 4550 
L 2906 4550 
L 2906 4056 
L 1066 4056 
L 1066 2594 
L 2672 2594 
L 2672 2103 
L 1066 2103 
L 1066 491 
L 2938 491 
L 2938 0 
L 491 0 
z
" transform="scale(0.015625)"/>
      </defs>
      <use xlink:href="#RobotoCondensed-Regular-45"/>
      <use xlink:href="#RobotoCondensed-Regular-6e" transform="translate(49.707031 0)"/>
      <use xlink:href="#RobotoCondensed-Regular-64" transform="translate(98.144531 0)"/>
     </g>
    </g>
   </g>
  </g>
 </g>
 <defs>
  <clipPath id="p6907163835">
   <rect x="38.404375" y="9.45" width="262.650669" height="173.68"/>
  </clipPath>
 </defs>
</svg>
