<?xml version="1.0" encoding="utf-8" standalone="no"?>
<!DOCTYPE svg PUBLIC "-//W3C//DTD SVG 1.1//EN"
  "http://www.w3.org/Graphics/SVG/1.1/DTD/svg11.dtd">
<svg xmlns:xlink="http://www.w3.org/1999/xlink" width="312.957857pt" height="216.481227pt" viewBox="0 0 312.957857 216.481227" xmlns="http://www.w3.org/2000/svg" version="1.1">
 <metadata>
  <rdf:RDF xmlns:dc="http://purl.org/dc/elements/1.1/" xmlns:cc="http://creativecommons.org/ns#" xmlns:rdf="http://www.w3.org/1999/02/22-rdf-syntax-ns#">
   <cc:Work>
    <dc:type rdf:resource="http://purl.org/dc/dcmitype/StillImage"/>
    <dc:date>2026-04-28T10:28:07.720339</dc:date>
    <dc:format>image/svg+xml</dc:format>
    <dc:creator>
     <cc:Agent>
      <dc:title>Matplotlib v3.10.7, https://matplotlib.org/</dc:title>
     </cc:Agent>
    </dc:creator>
   </cc:Work>
  </rdf:RDF>
 </metadata>
 <defs>
  <style type="text/css">*{stroke-linejoin: round; stroke-linecap: butt}</style>
 </defs>
 <g id="figure_1">
  <g id="patch_1">
   <path d="M 0 216.481227 
L 312.957857 216.481227 
L 312.957857 0 
L 0 0 
z
" style="fill: #ffffff"/>
  </g>
  <g id="axes_1">
   <g id="patch_2">
    <path d="M 35.339063 185.890602 
L 299.834732 185.890602 
L 299.834732 7.662914 
L 35.339063 7.662914 
z
" style="fill: #ffffff"/>
   </g>
   <g id="matplotlib.axis_1">
    <g id="xtick_1">
     <g id="line2d_1">
      <defs>
       <path id="m40fb49cf7d" d="M 0 0 
L 0 3.5 
" style="stroke: #000000; stroke-width: 0.8"/>
      </defs>
      <g>
       <use xlink:href="#m40fb49cf7d" x="59.384123" y="185.890602" style="stroke: #000000; stroke-width: 0.8"/>
      </g>
     </g>
     <g id="text_1">
      <!-- 1990 -->
      <g transform="translate(53.460998 197.390602) scale(0.06 -0.06)">
       <defs>
        <path id="RobotoCondensed-Regular-31" d="M 2013 4575 
L 2013 0 
L 1459 0 
L 1459 3853 
L 503 3428 
L 503 3950 
L 1928 4575 
L 2013 4575 
z
" transform="scale(0.015625)"/>
        <path id="RobotoCondensed-Regular-39" d="M 2744 2563 
Q 2744 2119 2687 1667 
Q 2631 1216 2450 836 
Q 2269 456 1903 225 
Q 1538 -6 869 -6 
L 866 484 
Q 1428 484 1698 690 
Q 1969 897 2072 1233 
Q 2175 1569 2191 1950 
Q 1859 1522 1413 1522 
Q 1025 1522 786 1747 
Q 547 1972 436 2320 
Q 325 2669 325 3041 
Q 325 3691 623 4152 
Q 922 4613 1522 4613 
Q 1969 4613 2237 4344 
Q 2506 4075 2625 3653 
Q 2744 3231 2744 2772 
L 2744 2563 
z
M 866 3072 
Q 866 2666 1020 2334 
Q 1175 2003 1506 2003 
Q 1716 2003 1906 2179 
Q 2097 2356 2194 2616 
L 2194 2850 
Q 2194 3472 1983 3803 
Q 1772 4134 1522 4134 
Q 1206 4134 1036 3829 
Q 866 3525 866 3072 
z
" transform="scale(0.015625)"/>
        <path id="RobotoCondensed-Regular-30" d="M 2797 1944 
Q 2797 825 2467 381 
Q 2138 -63 1581 -63 
Q 1038 -63 703 370 
Q 369 803 359 1878 
L 359 2638 
Q 359 3753 695 4183 
Q 1031 4613 1578 4613 
Q 2131 4613 2461 4189 
Q 2791 3766 2797 2681 
L 2797 1944 
z
M 2247 2734 
Q 2247 3503 2073 3822 
Q 1900 4141 1578 4141 
Q 1266 4141 1092 3833 
Q 919 3525 913 2791 
L 913 1850 
Q 913 1088 1089 750 
Q 1266 413 1581 413 
Q 1903 413 2072 738 
Q 2241 1063 2247 1794 
L 2247 2734 
z
" transform="scale(0.015625)"/>
       </defs>
       <use xlink:href="#RobotoCondensed-Regular-31"/>
       <use xlink:href="#RobotoCondensed-Regular-39" transform="translate(49.365234 0)"/>
       <use xlink:href="#RobotoCondensed-Regular-39" transform="translate(98.730469 0)"/>
       <use xlink:href="#RobotoCondensed-Regular-30" transform="translate(148.095703 0)"/>
      </g>
     </g>
    </g>
    <g id="xtick_2">
     <g id="line2d_2">
      <g>
       <use xlink:href="#m40fb49cf7d" x="89.440449" y="185.890602" style="stroke: #000000; stroke-width: 0.8"/>
      </g>
     </g>
     <g id="text_2">
      <!-- 1992 -->
      <g transform="translate(83.517324 197.390602) scale(0.06 -0.06)">
       <defs>
        <path id="RobotoCondensed-Regular-32" d="M 2909 475 
L 2909 0 
L 366 0 
L 366 416 
L 1628 2088 
Q 1966 2541 2077 2802 
Q 2188 3063 2188 3328 
Q 2188 3663 2027 3900 
Q 1866 4138 1575 4138 
Q 1194 4138 1022 3878 
Q 850 3619 850 3213 
L 297 3213 
Q 297 3788 617 4200 
Q 938 4613 1575 4613 
Q 2125 4613 2433 4278 
Q 2741 3944 2741 3397 
Q 2741 2997 2541 2594 
Q 2341 2191 2047 1809 
L 1028 475 
L 2909 475 
z
" transform="scale(0.015625)"/>
       </defs>
       <use xlink:href="#RobotoCondensed-Regular-31"/>
       <use xlink:href="#RobotoCondensed-Regular-39" transform="translate(49.365234 0)"/>
       <use xlink:href="#RobotoCondensed-Regular-39" transform="translate(98.730469 0)"/>
       <use xlink:href="#RobotoCondensed-Regular-32" transform="translate(148.095703 0)"/>
      </g>
     </g>
    </g>
    <g id="xtick_3">
     <g id="line2d_3">
      <g>
       <use xlink:href="#m40fb49cf7d" x="119.496775" y="185.890602" style="stroke: #000000; stroke-width: 0.8"/>
      </g>
     </g>
     <g id="text_3">
      <!-- 1995 -->
      <g transform="translate(113.57365 197.390602) scale(0.06 -0.06)">
       <defs>
        <path id="RobotoCondensed-Regular-35" d="M 1034 2166 
L 594 2284 
L 788 4550 
L 2769 4550 
L 2769 4016 
L 1253 4016 
L 1147 2778 
Q 1438 2975 1753 2975 
Q 2288 2975 2591 2561 
Q 2894 2147 2894 1450 
Q 2894 797 2584 367 
Q 2275 -63 1656 -63 
Q 1194 -63 850 248 
Q 506 559 453 1197 
L 975 1197 
Q 1066 413 1656 413 
Q 1978 413 2159 691 
Q 2341 969 2341 1444 
Q 2341 1872 2153 2164 
Q 1966 2456 1619 2456 
Q 1384 2456 1273 2378 
Q 1163 2300 1034 2166 
z
" transform="scale(0.015625)"/>
       </defs>
       <use xlink:href="#RobotoCondensed-Regular-31"/>
       <use xlink:href="#RobotoCondensed-Regular-39" transform="translate(49.365234 0)"/>
       <use xlink:href="#RobotoCondensed-Regular-39" transform="translate(98.730469 0)"/>
       <use xlink:href="#RobotoCondensed-Regular-35" transform="translate(148.095703 0)"/>
      </g>
     </g>
    </g>
    <g id="xtick_4">
     <g id="line2d_4">
      <g>
       <use xlink:href="#m40fb49cf7d" x="149.553102" y="185.890602" style="stroke: #000000; stroke-width: 0.8"/>
      </g>
     </g>
     <g id="text_4">
      <!-- 1997 -->
      <g transform="translate(143.629977 197.390602) scale(0.06 -0.06)">
       <defs>
        <path id="RobotoCondensed-Regular-37" d="M 2878 4550 
L 2878 4225 
L 1313 0 
L 731 0 
L 2297 4075 
L 269 4075 
L 269 4550 
L 2878 4550 
z
" transform="scale(0.015625)"/>
       </defs>
       <use xlink:href="#RobotoCondensed-Regular-31"/>
       <use xlink:href="#RobotoCondensed-Regular-39" transform="translate(49.365234 0)"/>
       <use xlink:href="#RobotoCondensed-Regular-39" transform="translate(98.730469 0)"/>
       <use xlink:href="#RobotoCondensed-Regular-37" transform="translate(148.095703 0)"/>
      </g>
     </g>
    </g>
    <g id="xtick_5">
     <g id="line2d_5">
      <g>
       <use xlink:href="#m40fb49cf7d" x="179.609428" y="185.890602" style="stroke: #000000; stroke-width: 0.8"/>
      </g>
     </g>
     <g id="text_5">
      <!-- 2000 -->
      <g transform="translate(173.686303 197.390602) scale(0.06 -0.06)">
       <use xlink:href="#RobotoCondensed-Regular-32"/>
       <use xlink:href="#RobotoCondensed-Regular-30" transform="translate(49.365234 0)"/>
       <use xlink:href="#RobotoCondensed-Regular-30" transform="translate(98.730469 0)"/>
       <use xlink:href="#RobotoCondensed-Regular-30" transform="translate(148.095703 0)"/>
      </g>
     </g>
    </g>
    <g id="xtick_6">
     <g id="line2d_6">
      <g>
       <use xlink:href="#m40fb49cf7d" x="209.665754" y="185.890602" style="stroke: #000000; stroke-width: 0.8"/>
      </g>
     </g>
     <g id="text_6">
      <!-- 2002 -->
      <g transform="translate(203.742629 197.390602) scale(0.06 -0.06)">
       <use xlink:href="#RobotoCondensed-Regular-32"/>
       <use xlink:href="#RobotoCondensed-Regular-30" transform="translate(49.365234 0)"/>
       <use xlink:href="#RobotoCondensed-Regular-30" transform="translate(98.730469 0)"/>
       <use xlink:href="#RobotoCondensed-Regular-32" transform="translate(148.095703 0)"/>
      </g>
     </g>
    </g>
    <g id="xtick_7">
     <g id="line2d_7">
      <g>
       <use xlink:href="#m40fb49cf7d" x="239.72208" y="185.890602" style="stroke: #000000; stroke-width: 0.8"/>
      </g>
     </g>
     <g id="text_7">
      <!-- 2005 -->
      <g transform="translate(233.798955 197.390602) scale(0.06 -0.06)">
       <use xlink:href="#RobotoCondensed-Regular-32"/>
       <use xlink:href="#RobotoCondensed-Regular-30" transform="translate(49.365234 0)"/>
       <use xlink:href="#RobotoCondensed-Regular-30" transform="translate(98.730469 0)"/>
       <use xlink:href="#RobotoCondensed-Regular-35" transform="translate(148.095703 0)"/>
      </g>
     </g>
    </g>
    <g id="xtick_8">
     <g id="line2d_8">
      <g>
       <use xlink:href="#m40fb49cf7d" x="269.778406" y="185.890602" style="stroke: #000000; stroke-width: 0.8"/>
      </g>
     </g>
     <g id="text_8">
      <!-- 2007 -->
      <g transform="translate(263.855281 197.390602) scale(0.06 -0.06)">
       <use xlink:href="#RobotoCondensed-Regular-32"/>
       <use xlink:href="#RobotoCondensed-Regular-30" transform="translate(49.365234 0)"/>
       <use xlink:href="#RobotoCondensed-Regular-30" transform="translate(98.730469 0)"/>
       <use xlink:href="#RobotoCondensed-Regular-37" transform="translate(148.095703 0)"/>
      </g>
     </g>
    </g>
    <g id="xtick_9">
     <g id="line2d_9">
      <g>
       <use xlink:href="#m40fb49cf7d" x="299.834732" y="185.890602" style="stroke: #000000; stroke-width: 0.8"/>
      </g>
     </g>
     <g id="text_9">
      <!-- 2010 -->
      <g transform="translate(293.911607 197.390602) scale(0.06 -0.06)">
       <use xlink:href="#RobotoCondensed-Regular-32"/>
       <use xlink:href="#RobotoCondensed-Regular-30" transform="translate(49.365234 0)"/>
       <use xlink:href="#RobotoCondensed-Regular-31" transform="translate(98.730469 0)"/>
       <use xlink:href="#RobotoCondensed-Regular-30" transform="translate(148.095703 0)"/>
      </g>
     </g>
    </g>
    <g id="text_10">
     <!-- Year -->
     <g transform="translate(161.366194 207.859352) scale(0.07 -0.07)">
      <defs>
       <path id="RobotoCondensed-Regular-59" d="M 747 4550 
L 1675 2266 
L 2606 4550 
L 3256 4550 
L 1963 1700 
L 1963 0 
L 1388 0 
L 1388 1700 
L 94 4550 
L 747 4550 
z
" transform="scale(0.015625)"/>
       <path id="RobotoCondensed-Regular-65" d="M 2722 447 
Q 2584 253 2323 95 
Q 2063 -63 1625 -63 
Q 1019 -63 666 301 
Q 313 666 309 1431 
L 309 1828 
Q 309 2722 696 3083 
Q 1084 3444 1563 3444 
Q 2197 3444 2472 3034 
Q 2747 2625 2747 1850 
L 2747 1528 
L 863 1528 
L 863 1447 
Q 863 906 1067 657 
Q 1272 409 1656 409 
Q 1934 409 2114 517 
Q 2294 625 2431 794 
L 2722 447 
z
M 1563 2969 
Q 1275 2969 1084 2770 
Q 894 2572 866 2000 
L 2194 2000 
L 2194 2078 
Q 2172 2469 2048 2719 
Q 1925 2969 1563 2969 
z
" transform="scale(0.015625)"/>
       <path id="RobotoCondensed-Regular-61" d="M 2156 0 
Q 2103 122 2081 366 
Q 1966 194 1775 65 
Q 1584 -63 1334 -63 
Q 891 -63 623 187 
Q 356 438 356 922 
Q 356 1409 690 1729 
Q 1025 2050 1691 2050 
L 2072 2050 
L 2072 2413 
Q 2072 2713 1936 2841 
Q 1800 2969 1528 2969 
Q 1263 2969 1114 2812 
Q 966 2656 966 2444 
L 413 2444 
Q 413 2806 722 3125 
Q 1031 3444 1556 3444 
Q 2025 3444 2325 3209 
Q 2625 2975 2625 2406 
L 2625 794 
Q 2625 316 2728 50 
L 2728 0 
L 2156 0 
z
M 1419 441 
Q 1653 441 1825 562 
Q 1997 684 2072 834 
L 2072 1644 
L 1781 1644 
Q 1384 1644 1146 1475 
Q 909 1306 909 991 
Q 909 688 1036 564 
Q 1163 441 1419 441 
z
" transform="scale(0.015625)"/>
       <path id="RobotoCondensed-Regular-72" d="M 1563 2888 
Q 1138 2888 969 2425 
L 969 0 
L 416 0 
L 416 3381 
L 950 3381 
L 963 3041 
Q 1184 3444 1591 3444 
Q 1738 3444 1809 3400 
L 1813 2863 
Q 1691 2888 1563 2888 
z
" transform="scale(0.015625)"/>
      </defs>
      <use xlink:href="#RobotoCondensed-Regular-59"/>
      <use xlink:href="#RobotoCondensed-Regular-65" transform="translate(52.490234 0)"/>
      <use xlink:href="#RobotoCondensed-Regular-61" transform="translate(99.365234 0)"/>
      <use xlink:href="#RobotoCondensed-Regular-72" transform="translate(147.265625 0)"/>
     </g>
    </g>
   </g>
   <g id="matplotlib.axis_2">
    <g id="ytick_1">
     <g id="line2d_10">
      <path d="M 35.339063 170.831989 
L 299.834732 170.831989 
" clip-path="url(#p61d86290ac)" style="fill: none; stroke: #808080; stroke-opacity: 0.3; stroke-width: 0.4; stroke-linecap: square"/>
     </g>
     <g id="line2d_11">
      <defs>
       <path id="mba69c243d4" d="M 0 0 
L -3.5 0 
" style="stroke: #000000; stroke-width: 0.8"/>
      </defs>
      <g>
       <use xlink:href="#mba69c243d4" x="35.339063" y="170.831989" style="stroke: #000000; stroke-width: 0.8"/>
      </g>
     </g>
     <g id="text_11">
      <!-- 0.03 -->
      <g transform="translate(17.871875 173.081989) scale(0.06 -0.06)">
       <defs>
        <path id="RobotoCondensed-Regular-2e" d="M 450 306 
Q 450 453 542 554 
Q 634 656 809 656 
Q 984 656 1076 554 
Q 1169 453 1169 306 
Q 1169 163 1076 62 
Q 984 -38 809 -38 
Q 634 -38 542 62 
Q 450 163 450 306 
z
" transform="scale(0.015625)"/>
        <path id="RobotoCondensed-Regular-33" d="M 1075 2084 
L 1075 2559 
L 1431 2559 
Q 1788 2559 1961 2781 
Q 2134 3003 2134 3338 
Q 2134 4138 1519 4138 
Q 1228 4138 1054 3927 
Q 881 3716 881 3359 
L 331 3359 
Q 331 3881 653 4247 
Q 975 4613 1519 4613 
Q 2038 4613 2363 4286 
Q 2688 3959 2688 3325 
Q 2688 3072 2550 2786 
Q 2413 2500 2100 2338 
Q 2484 2194 2612 1886 
Q 2741 1578 2741 1269 
Q 2741 631 2389 284 
Q 2038 -63 1516 -63 
Q 1006 -63 656 267 
Q 306 597 306 1203 
L 859 1203 
Q 859 844 1032 628 
Q 1206 413 1516 413 
Q 1822 413 2005 622 
Q 2188 831 2188 1256 
Q 2188 2084 1403 2084 
L 1075 2084 
z
" transform="scale(0.015625)"/>
       </defs>
       <use xlink:href="#RobotoCondensed-Regular-30"/>
       <use xlink:href="#RobotoCondensed-Regular-2e" transform="translate(49.365234 0)"/>
       <use xlink:href="#RobotoCondensed-Regular-30" transform="translate(75.732422 0)"/>
       <use xlink:href="#RobotoCondensed-Regular-33" transform="translate(125.097656 0)"/>
      </g>
     </g>
    </g>
    <g id="ytick_2">
     <g id="line2d_12">
      <path d="M 35.339063 150.659241 
L 299.834732 150.659241 
" clip-path="url(#p61d86290ac)" style="fill: none; stroke: #808080; stroke-opacity: 0.3; stroke-width: 0.4; stroke-linecap: square"/>
     </g>
     <g id="line2d_13">
      <g>
       <use xlink:href="#mba69c243d4" x="35.339063" y="150.659241" style="stroke: #000000; stroke-width: 0.8"/>
      </g>
     </g>
     <g id="text_12">
      <!-- 0.04 -->
      <g transform="translate(17.871875 152.909241) scale(0.06 -0.06)">
       <defs>
        <path id="RobotoCondensed-Regular-34" d="M 188 1397 
L 1878 4550 
L 2463 4550 
L 2463 1531 
L 2969 1531 
L 2969 1056 
L 2463 1056 
L 2463 0 
L 1909 0 
L 1909 1056 
L 188 1056 
L 188 1397 
z
M 803 1531 
L 1909 1531 
L 1909 3703 
L 1878 3638 
L 803 1531 
z
" transform="scale(0.015625)"/>
       </defs>
       <use xlink:href="#RobotoCondensed-Regular-30"/>
       <use xlink:href="#RobotoCondensed-Regular-2e" transform="translate(49.365234 0)"/>
       <use xlink:href="#RobotoCondensed-Regular-30" transform="translate(75.732422 0)"/>
       <use xlink:href="#RobotoCondensed-Regular-34" transform="translate(125.097656 0)"/>
      </g>
     </g>
    </g>
    <g id="ytick_3">
     <g id="line2d_14">
      <path d="M 35.339063 130.486492 
L 299.834732 130.486492 
" clip-path="url(#p61d86290ac)" style="fill: none; stroke: #808080; stroke-opacity: 0.3; stroke-width: 0.4; stroke-linecap: square"/>
     </g>
     <g id="line2d_15">
      <g>
       <use xlink:href="#mba69c243d4" x="35.339063" y="130.486492" style="stroke: #000000; stroke-width: 0.8"/>
      </g>
     </g>
     <g id="text_13">
      <!-- 0.05 -->
      <g transform="translate(17.871875 132.736492) scale(0.06 -0.06)">
       <use xlink:href="#RobotoCondensed-Regular-30"/>
       <use xlink:href="#RobotoCondensed-Regular-2e" transform="translate(49.365234 0)"/>
       <use xlink:href="#RobotoCondensed-Regular-30" transform="translate(75.732422 0)"/>
       <use xlink:href="#RobotoCondensed-Regular-35" transform="translate(125.097656 0)"/>
      </g>
     </g>
    </g>
    <g id="ytick_4">
     <g id="line2d_16">
      <path d="M 35.339063 110.313743 
L 299.834732 110.313743 
" clip-path="url(#p61d86290ac)" style="fill: none; stroke: #808080; stroke-opacity: 0.3; stroke-width: 0.4; stroke-linecap: square"/>
     </g>
     <g id="line2d_17">
      <g>
       <use xlink:href="#mba69c243d4" x="35.339063" y="110.313743" style="stroke: #000000; stroke-width: 0.8"/>
      </g>
     </g>
     <g id="text_14">
      <!-- 0.06 -->
      <g transform="translate(17.871875 112.563743) scale(0.06 -0.06)">
       <defs>
        <path id="RobotoCondensed-Regular-36" d="M 2847 1484 
Q 2847 838 2544 387 
Q 2241 -63 1641 -63 
Q 1216 -63 944 198 
Q 672 459 542 861 
Q 413 1263 413 1684 
L 413 1956 
Q 413 2438 481 2900 
Q 550 3363 742 3738 
Q 934 4113 1296 4334 
Q 1659 4556 2291 4556 
L 2291 4066 
Q 1775 4066 1508 3859 
Q 1241 3653 1122 3318 
Q 1003 2984 978 2606 
Q 1272 2984 1750 2984 
Q 2138 2984 2380 2765 
Q 2622 2547 2734 2201 
Q 2847 1856 2847 1484 
z
M 969 1666 
Q 969 1059 1180 737 
Q 1391 416 1641 416 
Q 1959 416 2129 708 
Q 2300 1000 2300 1456 
Q 2300 1863 2144 2184 
Q 1988 2506 1659 2506 
Q 1425 2506 1236 2329 
Q 1047 2153 969 1900 
L 969 1666 
z
" transform="scale(0.015625)"/>
       </defs>
       <use xlink:href="#RobotoCondensed-Regular-30"/>
       <use xlink:href="#RobotoCondensed-Regular-2e" transform="translate(49.365234 0)"/>
       <use xlink:href="#RobotoCondensed-Regular-30" transform="translate(75.732422 0)"/>
       <use xlink:href="#RobotoCondensed-Regular-36" transform="translate(125.097656 0)"/>
      </g>
     </g>
    </g>
    <g id="ytick_5">
     <g id="line2d_18">
      <path d="M 35.339063 90.140995 
L 299.834732 90.140995 
" clip-path="url(#p61d86290ac)" style="fill: none; stroke: #808080; stroke-opacity: 0.3; stroke-width: 0.4; stroke-linecap: square"/>
     </g>
     <g id="line2d_19">
      <g>
       <use xlink:href="#mba69c243d4" x="35.339063" y="90.140995" style="stroke: #000000; stroke-width: 0.8"/>
      </g>
     </g>
     <g id="text_15">
      <!-- 0.07 -->
      <g transform="translate(17.871875 92.390995) scale(0.06 -0.06)">
       <use xlink:href="#RobotoCondensed-Regular-30"/>
       <use xlink:href="#RobotoCondensed-Regular-2e" transform="translate(49.365234 0)"/>
       <use xlink:href="#RobotoCondensed-Regular-30" transform="translate(75.732422 0)"/>
       <use xlink:href="#RobotoCondensed-Regular-37" transform="translate(125.097656 0)"/>
      </g>
     </g>
    </g>
    <g id="ytick_6">
     <g id="line2d_20">
      <path d="M 35.339063 69.968246 
L 299.834732 69.968246 
" clip-path="url(#p61d86290ac)" style="fill: none; stroke: #808080; stroke-opacity: 0.3; stroke-width: 0.4; stroke-linecap: square"/>
     </g>
     <g id="line2d_21">
      <g>
       <use xlink:href="#mba69c243d4" x="35.339063" y="69.968246" style="stroke: #000000; stroke-width: 0.8"/>
      </g>
     </g>
     <g id="text_16">
      <!-- 0.08 -->
      <g transform="translate(17.871875 72.218246) scale(0.06 -0.06)">
       <defs>
        <path id="RobotoCondensed-Regular-38" d="M 2794 1231 
Q 2794 606 2445 271 
Q 2097 -63 1578 -63 
Q 1063 -63 714 273 
Q 366 609 366 1231 
Q 366 1613 536 1905 
Q 706 2197 1000 2347 
Q 450 2666 450 3366 
Q 450 3963 769 4288 
Q 1088 4613 1581 4613 
Q 2075 4613 2392 4288 
Q 2709 3963 2709 3366 
Q 2709 3028 2557 2761 
Q 2406 2494 2150 2344 
Q 2444 2194 2619 1901 
Q 2794 1609 2794 1231 
z
M 2156 3356 
Q 2156 3697 2000 3917 
Q 1844 4138 1581 4138 
Q 1319 4138 1161 3927 
Q 1003 3716 1003 3356 
Q 1003 3003 1159 2790 
Q 1316 2578 1581 2578 
Q 1844 2578 2000 2790 
Q 2156 3003 2156 3356 
z
M 2244 1244 
Q 2244 1625 2061 1865 
Q 1878 2106 1575 2106 
Q 1266 2106 1091 1865 
Q 916 1625 916 1244 
Q 916 850 1089 631 
Q 1263 413 1578 413 
Q 1897 413 2070 631 
Q 2244 850 2244 1244 
z
" transform="scale(0.015625)"/>
       </defs>
       <use xlink:href="#RobotoCondensed-Regular-30"/>
       <use xlink:href="#RobotoCondensed-Regular-2e" transform="translate(49.365234 0)"/>
       <use xlink:href="#RobotoCondensed-Regular-30" transform="translate(75.732422 0)"/>
       <use xlink:href="#RobotoCondensed-Regular-38" transform="translate(125.097656 0)"/>
      </g>
     </g>
    </g>
    <g id="ytick_7">
     <g id="line2d_22">
      <path d="M 35.339063 49.795497 
L 299.834732 49.795497 
" clip-path="url(#p61d86290ac)" style="fill: none; stroke: #808080; stroke-opacity: 0.3; stroke-width: 0.4; stroke-linecap: square"/>
     </g>
     <g id="line2d_23">
      <g>
       <use xlink:href="#mba69c243d4" x="35.339063" y="49.795497" style="stroke: #000000; stroke-width: 0.8"/>
      </g>
     </g>
     <g id="text_17">
      <!-- 0.09 -->
      <g transform="translate(17.871875 52.045497) scale(0.06 -0.06)">
       <use xlink:href="#RobotoCondensed-Regular-30"/>
       <use xlink:href="#RobotoCondensed-Regular-2e" transform="translate(49.365234 0)"/>
       <use xlink:href="#RobotoCondensed-Regular-30" transform="translate(75.732422 0)"/>
       <use xlink:href="#RobotoCondensed-Regular-39" transform="translate(125.097656 0)"/>
      </g>
     </g>
    </g>
    <g id="ytick_8">
     <g id="line2d_24">
      <path d="M 35.339063 29.622749 
L 299.834732 29.622749 
" clip-path="url(#p61d86290ac)" style="fill: none; stroke: #808080; stroke-opacity: 0.3; stroke-width: 0.4; stroke-linecap: square"/>
     </g>
     <g id="line2d_25">
      <g>
       <use xlink:href="#mba69c243d4" x="35.339063" y="29.622749" style="stroke: #000000; stroke-width: 0.8"/>
      </g>
     </g>
     <g id="text_18">
      <!-- 0.10 -->
      <g transform="translate(17.871875 31.872749) scale(0.06 -0.06)">
       <use xlink:href="#RobotoCondensed-Regular-30"/>
       <use xlink:href="#RobotoCondensed-Regular-2e" transform="translate(49.365234 0)"/>
       <use xlink:href="#RobotoCondensed-Regular-31" transform="translate(75.732422 0)"/>
       <use xlink:href="#RobotoCondensed-Regular-30" transform="translate(125.097656 0)"/>
      </g>
     </g>
    </g>
    <g id="ytick_9">
     <g id="line2d_26">
      <path d="M 35.339063 9.45 
L 299.834732 9.45 
" clip-path="url(#p61d86290ac)" style="fill: none; stroke: #808080; stroke-opacity: 0.3; stroke-width: 0.4; stroke-linecap: square"/>
     </g>
     <g id="line2d_27">
      <g>
       <use xlink:href="#mba69c243d4" x="35.339063" y="9.45" style="stroke: #000000; stroke-width: 0.8"/>
      </g>
     </g>
     <g id="text_19">
      <!-- 0.11 -->
      <g transform="translate(17.871875 11.7) scale(0.06 -0.06)">
       <use xlink:href="#RobotoCondensed-Regular-30"/>
       <use xlink:href="#RobotoCondensed-Regular-2e" transform="translate(49.365234 0)"/>
       <use xlink:href="#RobotoCondensed-Regular-31" transform="translate(75.732422 0)"/>
       <use xlink:href="#RobotoCondensed-Regular-31" transform="translate(125.097656 0)"/>
      </g>
     </g>
    </g>
    <g id="text_20">
     <!-- Genderedness -->
     <g transform="translate(12.45 116.529336) rotate(-90) scale(0.07 -0.07)">
      <defs>
       <path id="RobotoCondensed-Regular-47" d="M 3341 2266 
L 3341 569 
Q 3266 469 3114 319 
Q 2963 169 2691 53 
Q 2419 -63 1978 -63 
Q 1272 -63 830 412 
Q 388 888 388 1850 
L 388 2703 
Q 388 3656 770 4134 
Q 1153 4613 1919 4613 
Q 2581 4613 2943 4244 
Q 3306 3875 3341 3219 
L 2766 3219 
Q 2731 3641 2529 3880 
Q 2328 4119 1919 4119 
Q 1400 4119 1183 3773 
Q 966 3428 963 2731 
L 963 1850 
Q 963 1125 1239 776 
Q 1516 428 1981 428 
Q 2378 428 2537 547 
Q 2697 666 2769 728 
L 2769 1778 
L 1934 1778 
L 1934 2266 
L 3341 2266 
z
" transform="scale(0.015625)"/>
       <path id="RobotoCondensed-Regular-6e" d="M 1603 2956 
Q 1400 2956 1236 2818 
Q 1072 2681 969 2459 
L 969 0 
L 416 0 
L 416 3381 
L 938 3381 
L 953 3022 
Q 1275 3444 1775 3444 
Q 2191 3444 2437 3162 
Q 2684 2881 2684 2216 
L 2684 0 
L 2131 0 
L 2131 2222 
Q 2131 2619 2000 2787 
Q 1869 2956 1603 2956 
z
" transform="scale(0.015625)"/>
       <path id="RobotoCondensed-Regular-64" d="M 2234 0 
L 2209 366 
Q 1941 -63 1425 -63 
Q 925 -63 611 331 
Q 297 725 297 1528 
L 297 1844 
Q 297 2678 609 3061 
Q 922 3444 1431 3444 
Q 1922 3444 2188 3050 
L 2188 4800 
L 2738 4800 
L 2738 0 
L 2234 0 
z
M 850 1528 
Q 850 963 1019 695 
Q 1188 428 1569 428 
Q 1981 428 2188 847 
L 2188 2544 
Q 1972 2956 1575 2956 
Q 1194 2956 1023 2687 
Q 853 2419 850 1866 
L 850 1528 
z
" transform="scale(0.015625)"/>
       <path id="RobotoCondensed-Regular-73" d="M 2056 866 
Q 2056 1059 1907 1190 
Q 1759 1322 1340 1500 
Q 922 1678 681 1863 
Q 409 2072 409 2484 
Q 409 2888 703 3166 
Q 997 3444 1481 3444 
Q 2000 3444 2287 3150 
Q 2575 2856 2575 2419 
L 2025 2419 
Q 2025 2628 1884 2798 
Q 1744 2969 1481 2969 
Q 1203 2969 1083 2828 
Q 963 2688 963 2503 
Q 963 2319 1081 2217 
Q 1200 2116 1553 1959 
Q 2066 1756 2337 1537 
Q 2609 1319 2609 909 
Q 2609 463 2303 200 
Q 1997 -63 1494 -63 
Q 919 -63 616 265 
Q 313 594 313 1013 
L 866 1013 
Q 881 653 1081 533 
Q 1281 413 1494 413 
Q 2056 413 2056 866 
z
" transform="scale(0.015625)"/>
      </defs>
      <use xlink:href="#RobotoCondensed-Regular-47"/>
      <use xlink:href="#RobotoCondensed-Regular-65" transform="translate(59.082031 0)"/>
      <use xlink:href="#RobotoCondensed-Regular-6e" transform="translate(105.957031 0)"/>
      <use xlink:href="#RobotoCondensed-Regular-64" transform="translate(154.394531 0)"/>
      <use xlink:href="#RobotoCondensed-Regular-65" transform="translate(204.003906 0)"/>
      <use xlink:href="#RobotoCondensed-Regular-72" transform="translate(250.878906 0)"/>
      <use xlink:href="#RobotoCondensed-Regular-65" transform="translate(281.347656 0)"/>
      <use xlink:href="#RobotoCondensed-Regular-64" transform="translate(328.222656 0)"/>
      <use xlink:href="#RobotoCondensed-Regular-6e" transform="translate(377.832031 0)"/>
      <use xlink:href="#RobotoCondensed-Regular-65" transform="translate(426.269531 0)"/>
      <use xlink:href="#RobotoCondensed-Regular-73" transform="translate(473.144531 0)"/>
      <use xlink:href="#RobotoCondensed-Regular-73" transform="translate(518.75 0)"/>
     </g>
    </g>
   </g>
   <g id="line2d_28">
    <path d="M 47.361593 145.984026 
L 49.774141 152.586169 
L 51.382506 156.582649 
L 52.990871 160.115718 
L 54.599237 163.065846 
L 56.207602 165.313503 
L 57.011785 166.13655 
L 57.815967 166.739156 
L 58.62015 167.106379 
L 59.424332 167.223538 
L 61.032698 167.109719 
L 62.641063 166.795695 
L 64.249428 166.305752 
L 66.661976 165.294118 
L 69.074524 164.023284 
L 71.487072 162.573215 
L 72.291255 161.836234 
L 73.095437 160.751405 
L 73.89962 159.37856 
L 75.507985 156.00815 
L 79.528898 146.730093 
L 80.333081 145.207076 
L 81.137264 143.934533 
L 81.941446 142.972294 
L 82.745629 142.380193 
L 83.549812 142.21309 
L 85.158177 142.304669 
L 87.570725 142.699364 
L 89.983273 143.327897 
L 94.004186 144.666071 
L 96.416734 145.588765 
L 98.025099 146.567162 
L 100.437647 148.428725 
L 102.850195 150.329224 
L 104.45856 151.376837 
L 106.066925 152.080233 
L 106.871108 152.257658 
L 108.479473 152.224406 
L 110.087839 151.83173 
L 111.696204 151.184977 
L 114.108752 149.94103 
L 117.325482 148.257504 
L 118.933848 147.613425 
L 121.346396 147.011354 
L 125.367309 146.3525 
L 128.584039 145.791579 
L 130.996587 145.158664 
L 131.80077 144.873155 
L 132.604952 144.430953 
L 133.409135 143.818387 
L 135.0175 142.168257 
L 136.625866 140.094958 
L 139.842596 135.36763 
L 142.255144 131.992006 
L 143.863509 130.139973 
L 146.276057 127.843941 
L 152.709518 122.2123 
L 154.317884 120.503877 
L 155.926249 118.51462 
L 157.534614 116.001509 
L 159.142979 112.998125 
L 161.555527 107.917821 
L 165.576441 99.227307 
L 167.184806 96.131643 
L 168.793171 93.214144 
L 175.226632 80.723051 
L 176.834997 78.536349 
L 177.63918 77.74466 
L 178.443363 77.193168 
L 179.247545 76.911193 
L 180.855911 76.977699 
L 182.464276 77.343216 
L 184.876824 78.206198 
L 188.093554 79.453612 
L 189.70192 79.908503 
L 191.310285 80.126232 
L 192.114468 80.103535 
L 192.91865 79.929562 
L 193.722833 79.613237 
L 195.331198 78.615998 
L 196.939563 77.236753 
L 199.352111 74.724916 
L 203.373024 70.398379 
L 205.785572 67.982574 
L 209.002303 64.384777 
L 213.827399 58.964211 
L 216.239947 56.598842 
L 219.456677 53.812097 
L 229.911052 45.157836 
L 235.54033 39.672753 
L 237.148695 38.365012 
L 238.757061 37.317445 
L 240.365426 36.587667 
L 242.777974 35.774808 
L 245.994704 34.947948 
L 251.623983 33.555817 
L 258.057444 31.504658 
L 264.490905 29.220379 
L 267.707635 27.744642 
L 271.728549 25.841034 
L 274.141097 24.976801 
L 275.749462 24.623869 
L 281.37874 23.900777 
L 285.399653 23.596284 
L 287.812201 23.540351 
L 287.812201 23.540351 
" clip-path="url(#p61d86290ac)" style="fill: none; stroke-dasharray: 0.9,1.485; stroke-dashoffset: 0; stroke: #000000; stroke-width: 0.9"/>
   </g>
   <g id="line2d_29">
    <path d="M 47.361593 141.250325 
L 49.774141 138.998009 
L 52.186689 137.06239 
L 53.795054 136.000849 
L 55.403419 135.159456 
L 57.011785 134.569969 
L 58.62015 134.264144 
L 60.228515 134.264122 
L 61.83688 134.508081 
L 64.249428 135.16073 
L 68.270341 136.39018 
L 69.878707 136.713554 
L 71.487072 136.828766 
L 73.89962 136.681743 
L 76.312168 136.306273 
L 79.528898 135.568826 
L 84.353994 134.230521 
L 85.962359 133.514173 
L 89.17909 131.685866 
L 91.591638 130.375214 
L 93.200003 129.723976 
L 94.808369 129.371276 
L 96.416734 129.409335 
L 98.025099 129.803323 
L 99.633464 130.440385 
L 105.262743 132.942494 
L 106.871108 133.266119 
L 108.479473 133.259099 
L 110.892021 132.921783 
L 113.304569 132.330679 
L 126.975674 128.492661 
L 131.80077 127.277791 
L 136.625866 126.340619 
L 143.059327 125.102791 
L 145.471875 124.434455 
L 149.492788 122.923116 
L 151.905336 122.100436 
L 153.513701 121.711526 
L 155.122066 121.519968 
L 157.534614 121.573609 
L 161.555527 121.951935 
L 166.380623 122.373453 
L 168.793171 122.336365 
L 170.401536 122.0869 
L 172.814084 121.461788 
L 179.247545 119.568132 
L 182.464276 119.069199 
L 190.506102 118.005239 
L 192.91865 117.440023 
L 195.331198 116.554929 
L 197.743746 115.413908 
L 201.764659 113.186224 
L 204.98139 111.207504 
L 206.589755 109.857784 
L 211.414851 105.416345 
L 213.023216 104.286148 
L 214.631581 103.571614 
L 215.435764 103.415318 
L 221.869225 103.21156 
L 228.302686 103.16961 
L 229.911052 103.367476 
L 232.323599 103.950535 
L 237.148695 105.28678 
L 238.757061 105.527666 
L 240.365426 105.562774 
L 242.777974 105.393433 
L 251.623983 104.436749 
L 267.707635 104.217298 
L 274.945279 103.772453 
L 278.16201 103.834002 
L 281.37874 104.128037 
L 285.399653 104.750707 
L 287.812201 105.224314 
L 287.812201 105.224314 
" clip-path="url(#p61d86290ac)" style="fill: none; stroke-dasharray: 5.76,1.44,0.9,1.44; stroke-dashoffset: 0; stroke: #000000; stroke-width: 0.9"/>
   </g>
   <g id="line2d_30">
    <path d="M 47.361593 177.789343 
L 287.812201 15.764172 
" clip-path="url(#p61d86290ac)" style="fill: none; stroke: #000000; stroke-opacity: 0.85; stroke-width: 1.5; stroke-linecap: square"/>
   </g>
   <g id="line2d_31">
    <path d="M 47.361593 140.158612 
L 287.812201 99.416298 
" clip-path="url(#p61d86290ac)" style="fill: none; stroke: #000000; stroke-opacity: 0.85; stroke-width: 1.5; stroke-linecap: square"/>
   </g>
   <g id="patch_3">
    <path d="M 35.339063 185.890602 
L 35.339063 7.662914 
" style="fill: none; stroke: #000000; stroke-width: 0.8; stroke-linejoin: miter; stroke-linecap: square"/>
   </g>
   <g id="patch_4">
    <path d="M 35.339062 185.890602 
L 299.834732 185.890602 
" style="fill: none; stroke: #000000; stroke-width: 0.8; stroke-linejoin: miter; stroke-linecap: square"/>
   </g>
   <g id="PathCollection_1">
    <defs>
     <path id="C0_0_5602175bc0" d="M -0 3 
L 3 -0 
L 0 -3 
L -3 -0 
z
"/>
    </defs>
    <g clip-path="url(#p61d86290ac)">
     <use xlink:href="#C0_0_5602175bc0" x="47.361593" y="145.984026" style="fill: none; stroke: #000000; stroke-width: 1.2"/>
    </g>
    <g clip-path="url(#p61d86290ac)">
     <use xlink:href="#C0_0_5602175bc0" x="59.384123" y="167.223608" style="fill: none; stroke: #000000; stroke-width: 1.2"/>
    </g>
    <g clip-path="url(#p61d86290ac)">
     <use xlink:href="#C0_0_5602175bc0" x="71.406654" y="162.625478" style="fill: none; stroke: #000000; stroke-width: 1.2"/>
    </g>
    <g clip-path="url(#p61d86290ac)">
     <use xlink:href="#C0_0_5602175bc0" x="83.429184" y="142.212618" style="fill: none; stroke: #000000; stroke-width: 1.2"/>
    </g>
    <g clip-path="url(#p61d86290ac)">
     <use xlink:href="#C0_0_5602175bc0" x="95.451715" y="145.174309" style="fill: none; stroke: #000000; stroke-width: 1.2"/>
    </g>
    <g clip-path="url(#p61d86290ac)">
     <use xlink:href="#C0_0_5602175bc0" x="107.474245" y="152.299654" style="fill: none; stroke: #000000; stroke-width: 1.2"/>
    </g>
    <g clip-path="url(#p61d86290ac)">
     <use xlink:href="#C0_0_5602175bc0" x="119.496775" y="147.443564" style="fill: none; stroke: #000000; stroke-width: 1.2"/>
    </g>
    <g clip-path="url(#p61d86290ac)">
     <use xlink:href="#C0_0_5602175bc0" x="131.519306" y="144.983693" style="fill: none; stroke: #000000; stroke-width: 1.2"/>
    </g>
    <g clip-path="url(#p61d86290ac)">
     <use xlink:href="#C0_0_5602175bc0" x="143.541836" y="130.478276" style="fill: none; stroke: #000000; stroke-width: 1.2"/>
    </g>
    <g clip-path="url(#p61d86290ac)">
     <use xlink:href="#C0_0_5602175bc0" x="155.564367" y="118.99643" style="fill: none; stroke: #000000; stroke-width: 1.2"/>
    </g>
    <g clip-path="url(#p61d86290ac)">
     <use xlink:href="#C0_0_5602175bc0" x="167.586897" y="95.422421" style="fill: none; stroke: #000000; stroke-width: 1.2"/>
    </g>
    <g clip-path="url(#p61d86290ac)">
     <use xlink:href="#C0_0_5602175bc0" x="179.609428" y="76.880046" style="fill: none; stroke: #000000; stroke-width: 1.2"/>
    </g>
    <g clip-path="url(#p61d86290ac)">
     <use xlink:href="#C0_0_5602175bc0" x="191.631958" y="80.133094" style="fill: none; stroke: #000000; stroke-width: 1.2"/>
    </g>
    <g clip-path="url(#p61d86290ac)">
     <use xlink:href="#C0_0_5602175bc0" x="203.654488" y="70.129657" style="fill: none; stroke: #000000; stroke-width: 1.2"/>
    </g>
    <g clip-path="url(#p61d86290ac)">
     <use xlink:href="#C0_0_5602175bc0" x="215.677019" y="57.120407" style="fill: none; stroke: #000000; stroke-width: 1.2"/>
    </g>
    <g clip-path="url(#p61d86290ac)">
     <use xlink:href="#C0_0_5602175bc0" x="227.699549" y="47.18046" style="fill: none; stroke: #000000; stroke-width: 1.2"/>
    </g>
    <g clip-path="url(#p61d86290ac)">
     <use xlink:href="#C0_0_5602175bc0" x="239.72208" y="36.846663" style="fill: none; stroke: #000000; stroke-width: 1.2"/>
    </g>
    <g clip-path="url(#p61d86290ac)">
     <use xlink:href="#C0_0_5602175bc0" x="251.74461" y="33.51952" style="fill: none; stroke: #000000; stroke-width: 1.2"/>
    </g>
    <g clip-path="url(#p61d86290ac)">
     <use xlink:href="#C0_0_5602175bc0" x="263.767141" y="29.499746" style="fill: none; stroke: #000000; stroke-width: 1.2"/>
    </g>
    <g clip-path="url(#p61d86290ac)">
     <use xlink:href="#C0_0_5602175bc0" x="275.789671" y="24.617889" style="fill: none; stroke: #000000; stroke-width: 1.2"/>
    </g>
    <g clip-path="url(#p61d86290ac)">
     <use xlink:href="#C0_0_5602175bc0" x="287.812201" y="23.540351" style="fill: none; stroke: #000000; stroke-width: 1.2"/>
    </g>
   </g>
   <g id="PathCollection_2">
    <defs>
     <path id="m8fcd032465" d="M 0 2.12132 
C 0.562581 2.12132 1.102195 1.897805 1.5 1.5 
C 1.897805 1.102195 2.12132 0.562581 2.12132 0 
C 2.12132 -0.562581 1.897805 -1.102195 1.5 -1.5 
C 1.102195 -1.897805 0.562581 -2.12132 0 -2.12132 
C -0.562581 -2.12132 -1.102195 -1.897805 -1.5 -1.5 
C -1.897805 -1.102195 -2.12132 -0.562581 -2.12132 0 
C -2.12132 0.562581 -1.897805 1.102195 -1.5 1.5 
C -1.102195 1.897805 -0.562581 2.12132 0 2.12132 
z
" style="stroke: #000000; stroke-width: 1.2"/>
    </defs>
    <g clip-path="url(#p61d86290ac)">
     <use xlink:href="#m8fcd032465" x="47.361593" y="141.250325" style="stroke: #000000; stroke-width: 1.2"/>
     <use xlink:href="#m8fcd032465" x="59.384123" y="134.227426" style="stroke: #000000; stroke-width: 1.2"/>
     <use xlink:href="#m8fcd032465" x="71.406654" y="136.828932" style="stroke: #000000; stroke-width: 1.2"/>
     <use xlink:href="#m8fcd032465" x="83.429184" y="134.526969" style="stroke: #000000; stroke-width: 1.2"/>
     <use xlink:href="#m8fcd032465" x="95.451715" y="129.336925" style="stroke: #000000; stroke-width: 1.2"/>
     <use xlink:href="#m8fcd032465" x="107.474245" y="133.295004" style="stroke: #000000; stroke-width: 1.2"/>
     <use xlink:href="#m8fcd032465" x="119.496775" y="130.523435" style="stroke: #000000; stroke-width: 1.2"/>
     <use xlink:href="#m8fcd032465" x="131.519306" y="127.340435" style="stroke: #000000; stroke-width: 1.2"/>
     <use xlink:href="#m8fcd032465" x="143.541836" y="124.992205" style="stroke: #000000; stroke-width: 1.2"/>
     <use xlink:href="#m8fcd032465" x="155.564367" y="121.509832" style="stroke: #000000; stroke-width: 1.2"/>
     <use xlink:href="#m8fcd032465" x="167.586897" y="122.398496" style="stroke: #000000; stroke-width: 1.2"/>
     <use xlink:href="#m8fcd032465" x="179.609428" y="119.499214" style="stroke: #000000; stroke-width: 1.2"/>
     <use xlink:href="#m8fcd032465" x="191.631958" y="117.776568" style="stroke: #000000; stroke-width: 1.2"/>
     <use xlink:href="#m8fcd032465" x="203.654488" y="112.097075" style="stroke: #000000; stroke-width: 1.2"/>
     <use xlink:href="#m8fcd032465" x="215.677019" y="103.398424" style="stroke: #000000; stroke-width: 1.2"/>
     <use xlink:href="#m8fcd032465" x="227.699549" y="103.15195" style="stroke: #000000; stroke-width: 1.2"/>
     <use xlink:href="#m8fcd032465" x="239.72208" y="105.571939" style="stroke: #000000; stroke-width: 1.2"/>
     <use xlink:href="#m8fcd032465" x="251.74461" y="104.435503" style="stroke: #000000; stroke-width: 1.2"/>
     <use xlink:href="#m8fcd032465" x="263.767141" y="104.387518" style="stroke: #000000; stroke-width: 1.2"/>
     <use xlink:href="#m8fcd032465" x="275.789671" y="103.764068" style="stroke: #000000; stroke-width: 1.2"/>
     <use xlink:href="#m8fcd032465" x="287.812201" y="105.224314" style="stroke: #000000; stroke-width: 1.2"/>
    </g>
   </g>
   <g id="legend_1">
    <g id="line2d_32">
     <path d="M 40.739063 15.462914 
L 46.739063 15.462914 
L 52.739063 15.462914 
" style="fill: none; stroke-dasharray: 0.9,1.485; stroke-dashoffset: 0; stroke: #000000; stroke-width: 0.9"/>
    </g>
    <g id="text_21">
     <!-- Boys -->
     <g transform="translate(57.539062 17.562914) scale(0.06 -0.06)">
      <defs>
       <path id="RobotoCondensed-Regular-42" d="M 3125 1313 
Q 3125 675 2776 337 
Q 2428 0 1847 0 
L 491 0 
L 491 4550 
L 1791 4550 
Q 2375 4550 2706 4261 
Q 3038 3972 3038 3338 
Q 3038 3025 2880 2779 
Q 2722 2534 2453 2400 
Q 2781 2297 2953 1998 
Q 3125 1700 3125 1313 
z
M 1066 4056 
L 1066 2613 
L 1797 2613 
Q 2088 2613 2275 2806 
Q 2463 3000 2463 3344 
Q 2463 4041 1819 4056 
L 1066 4056 
z
M 2550 1306 
Q 2550 2106 1906 2128 
L 1066 2128 
L 1066 491 
L 1847 491 
Q 2181 491 2365 711 
Q 2550 931 2550 1306 
z
" transform="scale(0.015625)"/>
       <path id="RobotoCondensed-Regular-6f" d="M 300 1850 
Q 300 2641 678 3042 
Q 1056 3444 1603 3444 
Q 2156 3444 2536 3042 
Q 2916 2641 2916 1850 
L 2916 1528 
Q 2916 738 2536 337 
Q 2156 -63 1609 -63 
Q 1059 -63 679 337 
Q 300 738 300 1528 
L 300 1850 
z
M 853 1528 
Q 853 969 1068 689 
Q 1284 409 1609 409 
Q 2341 409 2363 1466 
L 2363 1850 
Q 2363 2403 2145 2686 
Q 1928 2969 1603 2969 
Q 1281 2969 1067 2686 
Q 853 2403 853 1850 
L 853 1528 
z
" transform="scale(0.015625)"/>
       <path id="RobotoCondensed-Regular-79" d="M 1425 -522 
Q 1153 -1366 563 -1366 
Q 409 -1366 278 -1316 
L 278 -847 
Q 328 -859 397 -859 
Q 631 -859 770 -746 
Q 909 -634 997 -338 
L 1106 31 
L 109 3381 
L 713 3381 
L 1341 922 
L 1953 3381 
L 2541 3381 
L 1425 -522 
z
" transform="scale(0.015625)"/>
      </defs>
      <use xlink:href="#RobotoCondensed-Regular-42"/>
      <use xlink:href="#RobotoCondensed-Regular-6f" transform="translate(54.589844 0)"/>
      <use xlink:href="#RobotoCondensed-Regular-79" transform="translate(104.785156 0)"/>
      <use xlink:href="#RobotoCondensed-Regular-73" transform="translate(146.435547 0)"/>
     </g>
    </g>
    <g id="line2d_33">
     <path d="M 40.739063 24.243539 
L 46.739063 24.243539 
L 52.739063 24.243539 
" style="fill: none; stroke-dasharray: 5.76,1.44,0.9,1.44; stroke-dashoffset: 0; stroke: #000000; stroke-width: 0.9"/>
    </g>
    <g id="text_22">
     <!-- Girls -->
     <g transform="translate(57.539062 26.343539) scale(0.06 -0.06)">
      <defs>
       <path id="RobotoCondensed-Regular-69" d="M 428 4278 
Q 428 4419 506 4516 
Q 584 4613 741 4613 
Q 894 4613 975 4516 
Q 1056 4419 1056 4278 
Q 1056 4144 975 4048 
Q 894 3953 741 3953 
Q 584 3953 506 4048 
Q 428 4144 428 4278 
z
M 1009 3381 
L 1009 0 
L 459 0 
L 459 3381 
L 1009 3381 
z
" transform="scale(0.015625)"/>
       <path id="RobotoCondensed-Regular-6c" d="M 1009 4800 
L 1009 0 
L 459 0 
L 459 4800 
L 1009 4800 
z
" transform="scale(0.015625)"/>
      </defs>
      <use xlink:href="#RobotoCondensed-Regular-47"/>
      <use xlink:href="#RobotoCondensed-Regular-69" transform="translate(59.082031 0)"/>
      <use xlink:href="#RobotoCondensed-Regular-72" transform="translate(82.03125 0)"/>
      <use xlink:href="#RobotoCondensed-Regular-6c" transform="translate(112.5 0)"/>
      <use xlink:href="#RobotoCondensed-Regular-73" transform="translate(135.449219 0)"/>
     </g>
    </g>
   </g>
  </g>
 </g>
 <defs>
  <clipPath id="p61d86290ac">
   <rect x="35.339063" y="7.662914" width="264.495669" height="178.227688"/>
  </clipPath>
 </defs>
</svg>
