<?xml version="1.0" encoding="utf-8" standalone="no"?>
<!DOCTYPE svg PUBLIC "-//W3C//DTD SVG 1.1//EN"
  "http://www.w3.org/Graphics/SVG/1.1/DTD/svg11.dtd">
<svg xmlns:xlink="http://www.w3.org/1999/xlink" width="314.133169pt" height="217.533125pt" viewBox="0 0 314.133169 217.533125" xmlns="http://www.w3.org/2000/svg" version="1.1">
 <metadata>
  <rdf:RDF xmlns:dc="http://purl.org/dc/elements/1.1/" xmlns:cc="http://creativecommons.org/ns#" xmlns:rdf="http://www.w3.org/1999/02/22-rdf-syntax-ns#">
   <cc:Work>
    <dc:type rdf:resource="http://purl.org/dc/dcmitype/StillImage"/>
    <dc:date>2026-04-28T10:06:37.919078</dc:date>
    <dc:format>image/svg+xml</dc:format>
    <dc:creator>
     <cc:Agent>
      <dc:title>Matplotlib v3.10.7, https://matplotlib.org/</dc:title>
     </cc:Agent>
    </dc:creator>
   </cc:Work>
  </rdf:RDF>
 </metadata>
 <defs>
  <style type="text/css">*{stroke-linejoin: round; stroke-linecap: butt}</style>
 </defs>
 <g id="figure_1">
  <g id="patch_1">
   <path d="M -0 217.533125 
L 314.133169 217.533125 
L 314.133169 -0 
L -0 -0 
z
" style="fill: #ffffff"/>
  </g>
  <g id="axes_1">
   <g id="patch_2">
    <path d="M 38.404375 183.13 
L 301.010044 183.13 
L 301.010044 9.45 
L 38.404375 9.45 
z
" style="fill: #ffffff"/>
   </g>
   <g id="matplotlib.axis_1">
    <g id="xtick_1">
     <g id="line2d_1">
      <defs>
       <path id="m92c167c03a" d="M 0 0 
L 0 3.5 
" style="stroke: #000000; stroke-width: 0.8"/>
      </defs>
      <g>
       <use xlink:href="#m92c167c03a" x="50.340996" y="183.13" style="stroke: #000000; stroke-width: 0.8"/>
      </g>
     </g>
     <g id="text_1">
      <!-- 1989 -->
      <g transform="translate(44.417871 194.63) scale(0.06 -0.06)">
       <defs>
        <path id="RobotoCondensed-Regular-31" d="M 2013 4575 
L 2013 0 
L 1459 0 
L 1459 3853 
L 503 3428 
L 503 3950 
L 1928 4575 
L 2013 4575 
z
" transform="scale(0.015625)"/>
        <path id="RobotoCondensed-Regular-39" d="M 2744 2563 
Q 2744 2119 2687 1667 
Q 2631 1216 2450 836 
Q 2269 456 1903 225 
Q 1538 -6 869 -6 
L 866 484 
Q 1428 484 1698 690 
Q 1969 897 2072 1233 
Q 2175 1569 2191 1950 
Q 1859 1522 1413 1522 
Q 1025 1522 786 1747 
Q 547 1972 436 2320 
Q 325 2669 325 3041 
Q 325 3691 623 4152 
Q 922 4613 1522 4613 
Q 1969 4613 2237 4344 
Q 2506 4075 2625 3653 
Q 2744 3231 2744 2772 
L 2744 2563 
z
M 866 3072 
Q 866 2666 1020 2334 
Q 1175 2003 1506 2003 
Q 1716 2003 1906 2179 
Q 2097 2356 2194 2616 
L 2194 2850 
Q 2194 3472 1983 3803 
Q 1772 4134 1522 4134 
Q 1206 4134 1036 3829 
Q 866 3525 866 3072 
z
" transform="scale(0.015625)"/>
        <path id="RobotoCondensed-Regular-38" d="M 2794 1231 
Q 2794 606 2445 271 
Q 2097 -63 1578 -63 
Q 1063 -63 714 273 
Q 366 609 366 1231 
Q 366 1613 536 1905 
Q 706 2197 1000 2347 
Q 450 2666 450 3366 
Q 450 3963 769 4288 
Q 1088 4613 1581 4613 
Q 2075 4613 2392 4288 
Q 2709 3963 2709 3366 
Q 2709 3028 2557 2761 
Q 2406 2494 2150 2344 
Q 2444 2194 2619 1901 
Q 2794 1609 2794 1231 
z
M 2156 3356 
Q 2156 3697 2000 3917 
Q 1844 4138 1581 4138 
Q 1319 4138 1161 3927 
Q 1003 3716 1003 3356 
Q 1003 3003 1159 2790 
Q 1316 2578 1581 2578 
Q 1844 2578 2000 2790 
Q 2156 3003 2156 3356 
z
M 2244 1244 
Q 2244 1625 2061 1865 
Q 1878 2106 1575 2106 
Q 1266 2106 1091 1865 
Q 916 1625 916 1244 
Q 916 850 1089 631 
Q 1263 413 1578 413 
Q 1897 413 2070 631 
Q 2244 850 2244 1244 
z
" transform="scale(0.015625)"/>
       </defs>
       <use xlink:href="#RobotoCondensed-Regular-31"/>
       <use xlink:href="#RobotoCondensed-Regular-39" transform="translate(49.365234 0)"/>
       <use xlink:href="#RobotoCondensed-Regular-38" transform="translate(98.730469 0)"/>
       <use xlink:href="#RobotoCondensed-Regular-39" transform="translate(148.095703 0)"/>
      </g>
     </g>
    </g>
    <g id="xtick_2">
     <g id="line2d_2">
      <g>
       <use xlink:href="#m92c167c03a" x="86.15086" y="183.13" style="stroke: #000000; stroke-width: 0.8"/>
      </g>
     </g>
     <g id="text_2">
      <!-- 1992 -->
      <g transform="translate(80.227735 194.63) scale(0.06 -0.06)">
       <defs>
        <path id="RobotoCondensed-Regular-32" d="M 2909 475 
L 2909 0 
L 366 0 
L 366 416 
L 1628 2088 
Q 1966 2541 2077 2802 
Q 2188 3063 2188 3328 
Q 2188 3663 2027 3900 
Q 1866 4138 1575 4138 
Q 1194 4138 1022 3878 
Q 850 3619 850 3213 
L 297 3213 
Q 297 3788 617 4200 
Q 938 4613 1575 4613 
Q 2125 4613 2433 4278 
Q 2741 3944 2741 3397 
Q 2741 2997 2541 2594 
Q 2341 2191 2047 1809 
L 1028 475 
L 2909 475 
z
" transform="scale(0.015625)"/>
       </defs>
       <use xlink:href="#RobotoCondensed-Regular-31"/>
       <use xlink:href="#RobotoCondensed-Regular-39" transform="translate(49.365234 0)"/>
       <use xlink:href="#RobotoCondensed-Regular-39" transform="translate(98.730469 0)"/>
       <use xlink:href="#RobotoCondensed-Regular-32" transform="translate(148.095703 0)"/>
      </g>
     </g>
    </g>
    <g id="xtick_3">
     <g id="line2d_3">
      <g>
       <use xlink:href="#m92c167c03a" x="121.960724" y="183.13" style="stroke: #000000; stroke-width: 0.8"/>
      </g>
     </g>
     <g id="text_3">
      <!-- 1995 -->
      <g transform="translate(116.037599 194.63) scale(0.06 -0.06)">
       <defs>
        <path id="RobotoCondensed-Regular-35" d="M 1034 2166 
L 594 2284 
L 788 4550 
L 2769 4550 
L 2769 4016 
L 1253 4016 
L 1147 2778 
Q 1438 2975 1753 2975 
Q 2288 2975 2591 2561 
Q 2894 2147 2894 1450 
Q 2894 797 2584 367 
Q 2275 -63 1656 -63 
Q 1194 -63 850 248 
Q 506 559 453 1197 
L 975 1197 
Q 1066 413 1656 413 
Q 1978 413 2159 691 
Q 2341 969 2341 1444 
Q 2341 1872 2153 2164 
Q 1966 2456 1619 2456 
Q 1384 2456 1273 2378 
Q 1163 2300 1034 2166 
z
" transform="scale(0.015625)"/>
       </defs>
       <use xlink:href="#RobotoCondensed-Regular-31"/>
       <use xlink:href="#RobotoCondensed-Regular-39" transform="translate(49.365234 0)"/>
       <use xlink:href="#RobotoCondensed-Regular-39" transform="translate(98.730469 0)"/>
       <use xlink:href="#RobotoCondensed-Regular-35" transform="translate(148.095703 0)"/>
      </g>
     </g>
    </g>
    <g id="xtick_4">
     <g id="line2d_4">
      <g>
       <use xlink:href="#m92c167c03a" x="157.770588" y="183.13" style="stroke: #000000; stroke-width: 0.8"/>
      </g>
     </g>
     <g id="text_4">
      <!-- 1998 -->
      <g transform="translate(151.847463 194.63) scale(0.06 -0.06)">
       <use xlink:href="#RobotoCondensed-Regular-31"/>
       <use xlink:href="#RobotoCondensed-Regular-39" transform="translate(49.365234 0)"/>
       <use xlink:href="#RobotoCondensed-Regular-39" transform="translate(98.730469 0)"/>
       <use xlink:href="#RobotoCondensed-Regular-38" transform="translate(148.095703 0)"/>
      </g>
     </g>
    </g>
    <g id="xtick_5">
     <g id="line2d_5">
      <g>
       <use xlink:href="#m92c167c03a" x="193.580452" y="183.13" style="stroke: #000000; stroke-width: 0.8"/>
      </g>
     </g>
     <g id="text_5">
      <!-- 2001 -->
      <g transform="translate(187.657327 194.63) scale(0.06 -0.06)">
       <defs>
        <path id="RobotoCondensed-Regular-30" d="M 2797 1944 
Q 2797 825 2467 381 
Q 2138 -63 1581 -63 
Q 1038 -63 703 370 
Q 369 803 359 1878 
L 359 2638 
Q 359 3753 695 4183 
Q 1031 4613 1578 4613 
Q 2131 4613 2461 4189 
Q 2791 3766 2797 2681 
L 2797 1944 
z
M 2247 2734 
Q 2247 3503 2073 3822 
Q 1900 4141 1578 4141 
Q 1266 4141 1092 3833 
Q 919 3525 913 2791 
L 913 1850 
Q 913 1088 1089 750 
Q 1266 413 1581 413 
Q 1903 413 2072 738 
Q 2241 1063 2247 1794 
L 2247 2734 
z
" transform="scale(0.015625)"/>
       </defs>
       <use xlink:href="#RobotoCondensed-Regular-32"/>
       <use xlink:href="#RobotoCondensed-Regular-30" transform="translate(49.365234 0)"/>
       <use xlink:href="#RobotoCondensed-Regular-30" transform="translate(98.730469 0)"/>
       <use xlink:href="#RobotoCondensed-Regular-31" transform="translate(148.095703 0)"/>
      </g>
     </g>
    </g>
    <g id="xtick_6">
     <g id="line2d_6">
      <g>
       <use xlink:href="#m92c167c03a" x="229.390316" y="183.13" style="stroke: #000000; stroke-width: 0.8"/>
      </g>
     </g>
     <g id="text_6">
      <!-- 2004 -->
      <g transform="translate(223.467191 194.63) scale(0.06 -0.06)">
       <defs>
        <path id="RobotoCondensed-Regular-34" d="M 188 1397 
L 1878 4550 
L 2463 4550 
L 2463 1531 
L 2969 1531 
L 2969 1056 
L 2463 1056 
L 2463 0 
L 1909 0 
L 1909 1056 
L 188 1056 
L 188 1397 
z
M 803 1531 
L 1909 1531 
L 1909 3703 
L 1878 3638 
L 803 1531 
z
" transform="scale(0.015625)"/>
       </defs>
       <use xlink:href="#RobotoCondensed-Regular-32"/>
       <use xlink:href="#RobotoCondensed-Regular-30" transform="translate(49.365234 0)"/>
       <use xlink:href="#RobotoCondensed-Regular-30" transform="translate(98.730469 0)"/>
       <use xlink:href="#RobotoCondensed-Regular-34" transform="translate(148.095703 0)"/>
      </g>
     </g>
    </g>
    <g id="xtick_7">
     <g id="line2d_7">
      <g>
       <use xlink:href="#m92c167c03a" x="265.20018" y="183.13" style="stroke: #000000; stroke-width: 0.8"/>
      </g>
     </g>
     <g id="text_7">
      <!-- 2007 -->
      <g transform="translate(259.277055 194.63) scale(0.06 -0.06)">
       <defs>
        <path id="RobotoCondensed-Regular-37" d="M 2878 4550 
L 2878 4225 
L 1313 0 
L 731 0 
L 2297 4075 
L 269 4075 
L 269 4550 
L 2878 4550 
z
" transform="scale(0.015625)"/>
       </defs>
       <use xlink:href="#RobotoCondensed-Regular-32"/>
       <use xlink:href="#RobotoCondensed-Regular-30" transform="translate(49.365234 0)"/>
       <use xlink:href="#RobotoCondensed-Regular-30" transform="translate(98.730469 0)"/>
       <use xlink:href="#RobotoCondensed-Regular-37" transform="translate(148.095703 0)"/>
      </g>
     </g>
    </g>
    <g id="xtick_8">
     <g id="line2d_8">
      <g>
       <use xlink:href="#m92c167c03a" x="301.010044" y="183.13" style="stroke: #000000; stroke-width: 0.8"/>
      </g>
     </g>
     <g id="text_8">
      <!-- 2010 -->
      <g transform="translate(295.086919 194.63) scale(0.06 -0.06)">
       <use xlink:href="#RobotoCondensed-Regular-32"/>
       <use xlink:href="#RobotoCondensed-Regular-30" transform="translate(49.365234 0)"/>
       <use xlink:href="#RobotoCondensed-Regular-31" transform="translate(98.730469 0)"/>
       <use xlink:href="#RobotoCondensed-Regular-30" transform="translate(148.095703 0)"/>
      </g>
     </g>
    </g>
    <g id="text_9">
     <!-- Year -->
     <g transform="translate(159.931819 208.09875) scale(0.11 -0.11)">
      <defs>
       <path id="RobotoCondensed-Regular-59" d="M 747 4550 
L 1675 2266 
L 2606 4550 
L 3256 4550 
L 1963 1700 
L 1963 0 
L 1388 0 
L 1388 1700 
L 94 4550 
L 747 4550 
z
" transform="scale(0.015625)"/>
       <path id="RobotoCondensed-Regular-65" d="M 2722 447 
Q 2584 253 2323 95 
Q 2063 -63 1625 -63 
Q 1019 -63 666 301 
Q 313 666 309 1431 
L 309 1828 
Q 309 2722 696 3083 
Q 1084 3444 1563 3444 
Q 2197 3444 2472 3034 
Q 2747 2625 2747 1850 
L 2747 1528 
L 863 1528 
L 863 1447 
Q 863 906 1067 657 
Q 1272 409 1656 409 
Q 1934 409 2114 517 
Q 2294 625 2431 794 
L 2722 447 
z
M 1563 2969 
Q 1275 2969 1084 2770 
Q 894 2572 866 2000 
L 2194 2000 
L 2194 2078 
Q 2172 2469 2048 2719 
Q 1925 2969 1563 2969 
z
" transform="scale(0.015625)"/>
       <path id="RobotoCondensed-Regular-61" d="M 2156 0 
Q 2103 122 2081 366 
Q 1966 194 1775 65 
Q 1584 -63 1334 -63 
Q 891 -63 623 187 
Q 356 438 356 922 
Q 356 1409 690 1729 
Q 1025 2050 1691 2050 
L 2072 2050 
L 2072 2413 
Q 2072 2713 1936 2841 
Q 1800 2969 1528 2969 
Q 1263 2969 1114 2812 
Q 966 2656 966 2444 
L 413 2444 
Q 413 2806 722 3125 
Q 1031 3444 1556 3444 
Q 2025 3444 2325 3209 
Q 2625 2975 2625 2406 
L 2625 794 
Q 2625 316 2728 50 
L 2728 0 
L 2156 0 
z
M 1419 441 
Q 1653 441 1825 562 
Q 1997 684 2072 834 
L 2072 1644 
L 1781 1644 
Q 1384 1644 1146 1475 
Q 909 1306 909 991 
Q 909 688 1036 564 
Q 1163 441 1419 441 
z
" transform="scale(0.015625)"/>
       <path id="RobotoCondensed-Regular-72" d="M 1563 2888 
Q 1138 2888 969 2425 
L 969 0 
L 416 0 
L 416 3381 
L 950 3381 
L 963 3041 
Q 1184 3444 1591 3444 
Q 1738 3444 1809 3400 
L 1813 2863 
Q 1691 2888 1563 2888 
z
" transform="scale(0.015625)"/>
      </defs>
      <use xlink:href="#RobotoCondensed-Regular-59"/>
      <use xlink:href="#RobotoCondensed-Regular-65" transform="translate(52.490234 0)"/>
      <use xlink:href="#RobotoCondensed-Regular-61" transform="translate(99.365234 0)"/>
      <use xlink:href="#RobotoCondensed-Regular-72" transform="translate(147.265625 0)"/>
     </g>
    </g>
   </g>
   <g id="matplotlib.axis_2">
    <g id="ytick_1">
     <g id="line2d_9">
      <path d="M 38.404375 183.13 
L 301.010044 183.13 
" clip-path="url(#p5e32d61e80)" style="fill: none; stroke: #808080; stroke-opacity: 0.3; stroke-width: 0.5; stroke-linecap: square"/>
     </g>
     <g id="line2d_10">
      <defs>
       <path id="m58454d039a" d="M 0 0 
L -3.5 0 
" style="stroke: #000000; stroke-width: 0.8"/>
      </defs>
      <g>
       <use xlink:href="#m58454d039a" x="38.404375" y="183.13" style="stroke: #000000; stroke-width: 0.8"/>
      </g>
     </g>
     <g id="text_10">
      <!-- 0% -->
      <g transform="translate(24.645937 185.38) scale(0.06 -0.06)">
       <defs>
        <path id="RobotoCondensed-Regular-25" d="M 334 3675 
Q 334 4063 545 4339 
Q 756 4616 1128 4616 
Q 1506 4616 1717 4339 
Q 1928 4063 1928 3675 
L 1928 3434 
Q 1928 3053 1718 2776 
Q 1509 2500 1134 2500 
Q 759 2500 546 2776 
Q 334 3053 334 3434 
L 334 3675 
z
M 741 3434 
Q 741 3219 836 3047 
Q 931 2875 1134 2875 
Q 1331 2875 1426 3045 
Q 1522 3216 1522 3434 
L 1522 3675 
Q 1522 3894 1425 4067 
Q 1328 4241 1128 4241 
Q 931 4241 836 4067 
Q 741 3894 741 3675 
L 741 3434 
z
M 3116 3903 
L 1250 347 
L 944 553 
L 2813 4109 
L 3116 3903 
z
M 2172 1116 
Q 2172 1500 2384 1776 
Q 2597 2053 2969 2053 
Q 3344 2053 3555 1776 
Q 3766 1500 3766 1116 
L 3766 872 
Q 3766 488 3555 211 
Q 3344 -66 2972 -66 
Q 2597 -66 2384 211 
Q 2172 488 2172 872 
L 2172 1116 
z
M 2578 872 
Q 2578 653 2675 481 
Q 2772 309 2972 309 
Q 3169 309 3264 479 
Q 3359 650 3359 872 
L 3359 1116 
Q 3359 1338 3262 1508 
Q 3166 1678 2969 1678 
Q 2772 1678 2675 1508 
Q 2578 1338 2578 1116 
L 2578 872 
z
" transform="scale(0.015625)"/>
       </defs>
       <use xlink:href="#RobotoCondensed-Regular-30"/>
       <use xlink:href="#RobotoCondensed-Regular-25" transform="translate(49.365234 0)"/>
      </g>
     </g>
    </g>
    <g id="ytick_2">
     <g id="line2d_11">
      <path d="M 38.404375 148.394 
L 301.010044 148.394 
" clip-path="url(#p5e32d61e80)" style="fill: none; stroke: #808080; stroke-opacity: 0.3; stroke-width: 0.5; stroke-linecap: square"/>
     </g>
     <g id="line2d_12">
      <g>
       <use xlink:href="#m58454d039a" x="38.404375" y="148.394" style="stroke: #000000; stroke-width: 0.8"/>
      </g>
     </g>
     <g id="text_11">
      <!-- 2% -->
      <g transform="translate(24.645937 150.644) scale(0.06 -0.06)">
       <use xlink:href="#RobotoCondensed-Regular-32"/>
       <use xlink:href="#RobotoCondensed-Regular-25" transform="translate(49.365234 0)"/>
      </g>
     </g>
    </g>
    <g id="ytick_3">
     <g id="line2d_13">
      <path d="M 38.404375 113.658 
L 301.010044 113.658 
" clip-path="url(#p5e32d61e80)" style="fill: none; stroke: #808080; stroke-opacity: 0.3; stroke-width: 0.5; stroke-linecap: square"/>
     </g>
     <g id="line2d_14">
      <g>
       <use xlink:href="#m58454d039a" x="38.404375" y="113.658" style="stroke: #000000; stroke-width: 0.8"/>
      </g>
     </g>
     <g id="text_12">
      <!-- 4% -->
      <g transform="translate(24.645937 115.908) scale(0.06 -0.06)">
       <use xlink:href="#RobotoCondensed-Regular-34"/>
       <use xlink:href="#RobotoCondensed-Regular-25" transform="translate(49.365234 0)"/>
      </g>
     </g>
    </g>
    <g id="ytick_4">
     <g id="line2d_15">
      <path d="M 38.404375 78.922 
L 301.010044 78.922 
" clip-path="url(#p5e32d61e80)" style="fill: none; stroke: #808080; stroke-opacity: 0.3; stroke-width: 0.5; stroke-linecap: square"/>
     </g>
     <g id="line2d_16">
      <g>
       <use xlink:href="#m58454d039a" x="38.404375" y="78.922" style="stroke: #000000; stroke-width: 0.8"/>
      </g>
     </g>
     <g id="text_13">
      <!-- 6% -->
      <g transform="translate(24.645937 81.172) scale(0.06 -0.06)">
       <defs>
        <path id="RobotoCondensed-Regular-36" d="M 2847 1484 
Q 2847 838 2544 387 
Q 2241 -63 1641 -63 
Q 1216 -63 944 198 
Q 672 459 542 861 
Q 413 1263 413 1684 
L 413 1956 
Q 413 2438 481 2900 
Q 550 3363 742 3738 
Q 934 4113 1296 4334 
Q 1659 4556 2291 4556 
L 2291 4066 
Q 1775 4066 1508 3859 
Q 1241 3653 1122 3318 
Q 1003 2984 978 2606 
Q 1272 2984 1750 2984 
Q 2138 2984 2380 2765 
Q 2622 2547 2734 2201 
Q 2847 1856 2847 1484 
z
M 969 1666 
Q 969 1059 1180 737 
Q 1391 416 1641 416 
Q 1959 416 2129 708 
Q 2300 1000 2300 1456 
Q 2300 1863 2144 2184 
Q 1988 2506 1659 2506 
Q 1425 2506 1236 2329 
Q 1047 2153 969 1900 
L 969 1666 
z
" transform="scale(0.015625)"/>
       </defs>
       <use xlink:href="#RobotoCondensed-Regular-36"/>
       <use xlink:href="#RobotoCondensed-Regular-25" transform="translate(49.365234 0)"/>
      </g>
     </g>
    </g>
    <g id="ytick_5">
     <g id="line2d_17">
      <path d="M 38.404375 44.186 
L 301.010044 44.186 
" clip-path="url(#p5e32d61e80)" style="fill: none; stroke: #808080; stroke-opacity: 0.3; stroke-width: 0.5; stroke-linecap: square"/>
     </g>
     <g id="line2d_18">
      <g>
       <use xlink:href="#m58454d039a" x="38.404375" y="44.186" style="stroke: #000000; stroke-width: 0.8"/>
      </g>
     </g>
     <g id="text_14">
      <!-- 8% -->
      <g transform="translate(24.645937 46.436) scale(0.06 -0.06)">
       <use xlink:href="#RobotoCondensed-Regular-38"/>
       <use xlink:href="#RobotoCondensed-Regular-25" transform="translate(49.365234 0)"/>
      </g>
     </g>
    </g>
    <g id="ytick_6">
     <g id="line2d_19">
      <path d="M 38.404375 9.45 
L 301.010044 9.45 
" clip-path="url(#p5e32d61e80)" style="fill: none; stroke: #808080; stroke-opacity: 0.3; stroke-width: 0.5; stroke-linecap: square"/>
     </g>
     <g id="line2d_20">
      <g>
       <use xlink:href="#m58454d039a" x="38.404375" y="9.45" style="stroke: #000000; stroke-width: 0.8"/>
      </g>
     </g>
     <g id="text_15">
      <!-- 10% -->
      <g transform="translate(21.684375 11.7) scale(0.06 -0.06)">
       <use xlink:href="#RobotoCondensed-Regular-31"/>
       <use xlink:href="#RobotoCondensed-Regular-30" transform="translate(49.365234 0)"/>
       <use xlink:href="#RobotoCondensed-Regular-25" transform="translate(98.730469 0)"/>
      </g>
     </g>
    </g>
    <g id="text_16">
     <!-- Proportion -->
     <g transform="translate(15.45 119.239609) rotate(-90) scale(0.11 -0.11)">
      <defs>
       <path id="RobotoCondensed-Regular-50" d="M 1066 1784 
L 1066 0 
L 491 0 
L 491 4550 
L 1941 4550 
Q 2600 4550 2951 4159 
Q 3303 3769 3303 3163 
Q 3303 2506 2954 2147 
Q 2606 1788 1950 1784 
L 1066 1784 
z
M 1066 4056 
L 1066 2275 
L 1941 2275 
Q 2359 2275 2543 2522 
Q 2728 2769 2728 3156 
Q 2728 3506 2543 3781 
Q 2359 4056 1941 4056 
L 1066 4056 
z
" transform="scale(0.015625)"/>
       <path id="RobotoCondensed-Regular-6f" d="M 300 1850 
Q 300 2641 678 3042 
Q 1056 3444 1603 3444 
Q 2156 3444 2536 3042 
Q 2916 2641 2916 1850 
L 2916 1528 
Q 2916 738 2536 337 
Q 2156 -63 1609 -63 
Q 1059 -63 679 337 
Q 300 738 300 1528 
L 300 1850 
z
M 853 1528 
Q 853 969 1068 689 
Q 1284 409 1609 409 
Q 2341 409 2363 1466 
L 2363 1850 
Q 2363 2403 2145 2686 
Q 1928 2969 1603 2969 
Q 1281 2969 1067 2686 
Q 853 2403 853 1850 
L 853 1528 
z
" transform="scale(0.015625)"/>
       <path id="RobotoCondensed-Regular-70" d="M 1750 -63 
Q 1244 -63 969 325 
L 969 -1300 
L 416 -1300 
L 416 3381 
L 919 3381 
L 947 3013 
Q 1222 3444 1744 3444 
Q 2275 3444 2562 3073 
Q 2850 2703 2859 1897 
L 2859 1528 
Q 2859 725 2570 331 
Q 2281 -63 1750 -63 
z
M 1572 2956 
Q 1181 2956 969 2559 
L 969 797 
Q 1178 409 1578 409 
Q 2288 409 2306 1472 
L 2306 1844 
Q 2306 2956 1572 2956 
z
" transform="scale(0.015625)"/>
       <path id="RobotoCondensed-Regular-74" d="M 1647 0 
Q 1488 -63 1259 -63 
Q 991 -63 789 134 
Q 588 331 588 841 
L 588 2938 
L 72 2938 
L 72 3381 
L 588 3381 
L 588 4203 
L 1141 4203 
L 1141 3381 
L 1650 3381 
L 1650 2938 
L 1141 2938 
L 1141 838 
Q 1141 578 1230 506 
Q 1319 434 1431 434 
Q 1550 434 1650 472 
L 1647 0 
z
" transform="scale(0.015625)"/>
       <path id="RobotoCondensed-Regular-69" d="M 428 4278 
Q 428 4419 506 4516 
Q 584 4613 741 4613 
Q 894 4613 975 4516 
Q 1056 4419 1056 4278 
Q 1056 4144 975 4048 
Q 894 3953 741 3953 
Q 584 3953 506 4048 
Q 428 4144 428 4278 
z
M 1009 3381 
L 1009 0 
L 459 0 
L 459 3381 
L 1009 3381 
z
" transform="scale(0.015625)"/>
       <path id="RobotoCondensed-Regular-6e" d="M 1603 2956 
Q 1400 2956 1236 2818 
Q 1072 2681 969 2459 
L 969 0 
L 416 0 
L 416 3381 
L 938 3381 
L 953 3022 
Q 1275 3444 1775 3444 
Q 2191 3444 2437 3162 
Q 2684 2881 2684 2216 
L 2684 0 
L 2131 0 
L 2131 2222 
Q 2131 2619 2000 2787 
Q 1869 2956 1603 2956 
z
" transform="scale(0.015625)"/>
      </defs>
      <use xlink:href="#RobotoCondensed-Regular-50"/>
      <use xlink:href="#RobotoCondensed-Regular-72" transform="translate(55.419922 0)"/>
      <use xlink:href="#RobotoCondensed-Regular-6f" transform="translate(85.888672 0)"/>
      <use xlink:href="#RobotoCondensed-Regular-70" transform="translate(136.083984 0)"/>
      <use xlink:href="#RobotoCondensed-Regular-6f" transform="translate(185.400391 0)"/>
      <use xlink:href="#RobotoCondensed-Regular-72" transform="translate(235.595703 0)"/>
      <use xlink:href="#RobotoCondensed-Regular-74" transform="translate(266.064453 0)"/>
      <use xlink:href="#RobotoCondensed-Regular-69" transform="translate(295.654297 0)"/>
      <use xlink:href="#RobotoCondensed-Regular-6f" transform="translate(318.603516 0)"/>
      <use xlink:href="#RobotoCondensed-Regular-6e" transform="translate(368.798828 0)"/>
     </g>
    </g>
   </g>
   <g id="FillBetweenPolyCollection_1">
    <defs>
     <path id="mc2d2cc260a" d="M 50.340996 -34.410514 
L 50.340996 -34.403125 
L 51.139433 -34.403125 
L 51.937869 -34.403125 
L 52.736305 -34.403125 
L 53.534741 -34.403125 
L 54.333177 -34.403125 
L 55.131614 -34.403125 
L 55.93005 -34.403125 
L 56.728486 -34.403125 
L 57.526922 -34.403125 
L 58.325358 -34.403125 
L 59.123795 -34.403125 
L 59.922231 -34.403125 
L 60.720667 -34.403125 
L 61.519103 -34.403125 
L 62.317539 -34.403125 
L 63.115976 -34.403125 
L 63.914412 -34.403125 
L 64.712848 -34.403125 
L 65.511284 -34.403125 
L 66.309721 -34.403125 
L 67.108157 -34.403125 
L 67.906593 -34.403125 
L 68.705029 -34.403125 
L 69.503465 -34.403125 
L 70.301902 -34.403125 
L 71.100338 -34.403125 
L 71.898774 -34.403125 
L 72.69721 -34.403125 
L 73.495646 -34.403125 
L 74.294083 -34.403125 
L 75.092519 -34.403125 
L 75.890955 -34.403125 
L 76.689391 -34.403125 
L 77.487827 -34.403125 
L 78.286264 -34.403125 
L 79.0847 -34.403125 
L 79.883136 -34.403125 
L 80.681572 -34.403125 
L 81.480009 -34.403125 
L 82.278445 -34.403125 
L 83.076881 -34.403125 
L 83.875317 -34.403125 
L 84.673753 -34.403125 
L 85.47219 -34.403125 
L 86.270626 -34.403125 
L 87.069062 -34.403125 
L 87.867498 -34.403125 
L 88.665934 -34.403125 
L 89.464371 -34.403125 
L 90.262807 -34.403125 
L 91.061243 -34.403125 
L 91.859679 -34.403125 
L 92.658115 -34.403125 
L 93.456552 -34.403125 
L 94.254988 -34.403125 
L 95.053424 -34.403125 
L 95.85186 -34.403125 
L 96.650296 -34.403125 
L 97.448733 -34.403125 
L 98.247169 -34.403125 
L 99.045605 -34.403125 
L 99.844041 -34.403125 
L 100.642478 -34.403125 
L 101.440914 -34.403125 
L 102.23935 -34.403125 
L 103.037786 -34.403125 
L 103.836222 -34.403125 
L 104.634659 -34.403125 
L 105.433095 -34.403125 
L 106.231531 -34.403125 
L 107.029967 -34.403125 
L 107.828403 -34.403125 
L 108.62684 -34.403125 
L 109.425276 -34.403125 
L 110.223712 -34.403125 
L 111.022148 -34.403125 
L 111.820584 -34.403125 
L 112.619021 -34.403125 
L 113.417457 -34.403125 
L 114.215893 -34.403125 
L 115.014329 -34.403125 
L 115.812766 -34.403125 
L 116.611202 -34.403125 
L 117.409638 -34.403125 
L 118.208074 -34.403125 
L 119.00651 -34.403125 
L 119.804947 -34.403125 
L 120.603383 -34.403125 
L 121.401819 -34.403125 
L 122.200255 -34.403125 
L 122.998691 -34.403125 
L 123.797128 -34.403125 
L 124.595564 -34.403125 
L 125.394 -34.403125 
L 126.192436 -34.403125 
L 126.990872 -34.403125 
L 127.789309 -34.403125 
L 128.587745 -34.403125 
L 129.386181 -34.403125 
L 130.184617 -34.403125 
L 130.983053 -34.403125 
L 131.78149 -34.403125 
L 132.579926 -34.403125 
L 133.378362 -34.403125 
L 134.176798 -34.403125 
L 134.975235 -34.403125 
L 135.773671 -34.403125 
L 136.572107 -34.403125 
L 137.370543 -34.403125 
L 138.168979 -34.403125 
L 138.967416 -34.403125 
L 139.765852 -34.403125 
L 140.564288 -34.403125 
L 141.362724 -34.403125 
L 142.16116 -34.403125 
L 142.959597 -34.403125 
L 143.758033 -34.403125 
L 144.556469 -34.403125 
L 145.354905 -34.403125 
L 146.153341 -34.403125 
L 146.951778 -34.403125 
L 147.750214 -34.403125 
L 148.54865 -34.403125 
L 149.347086 -34.403125 
L 150.145523 -34.403125 
L 150.943959 -34.403125 
L 151.742395 -34.403125 
L 152.540831 -34.403125 
L 153.339267 -34.403125 
L 154.137704 -34.403125 
L 154.93614 -34.403125 
L 155.734576 -34.403125 
L 156.533012 -34.403125 
L 157.331448 -34.403125 
L 158.129885 -34.403125 
L 158.928321 -34.403125 
L 159.726757 -34.403125 
L 160.525193 -34.403125 
L 161.323629 -34.403125 
L 162.122066 -34.403125 
L 162.920502 -34.403125 
L 163.718938 -34.403125 
L 164.517374 -34.403125 
L 165.31581 -34.403125 
L 166.114247 -34.403125 
L 166.912683 -34.403125 
L 167.711119 -34.403125 
L 168.509555 -34.403125 
L 169.307992 -34.403125 
L 170.106428 -34.403125 
L 170.904864 -34.403125 
L 171.7033 -34.403125 
L 172.501736 -34.403125 
L 173.300173 -34.403125 
L 174.098609 -34.403125 
L 174.897045 -34.403125 
L 175.695481 -34.403125 
L 176.493917 -34.403125 
L 177.292354 -34.403125 
L 178.09079 -34.403125 
L 178.889226 -34.403125 
L 179.687662 -34.403125 
L 180.486098 -34.403125 
L 181.284535 -34.403125 
L 182.082971 -34.403125 
L 182.881407 -34.403125 
L 183.679843 -34.403125 
L 184.47828 -34.403125 
L 185.276716 -34.403125 
L 186.075152 -34.403125 
L 186.873588 -34.403125 
L 187.672024 -34.403125 
L 188.470461 -34.403125 
L 189.268897 -34.403125 
L 190.067333 -34.403125 
L 190.865769 -34.403125 
L 191.664205 -34.403125 
L 192.462642 -34.403125 
L 193.261078 -34.403125 
L 194.059514 -34.403125 
L 194.85795 -34.403125 
L 195.656386 -34.403125 
L 196.454823 -34.403125 
L 197.253259 -34.403125 
L 198.051695 -34.403125 
L 198.850131 -34.403125 
L 199.648568 -34.403125 
L 200.447004 -34.403125 
L 201.24544 -34.403125 
L 202.043876 -34.403125 
L 202.842312 -34.403125 
L 203.640749 -34.403125 
L 204.439185 -34.403125 
L 205.237621 -34.403125 
L 206.036057 -34.403125 
L 206.834493 -34.403125 
L 207.63293 -34.403125 
L 208.431366 -34.403125 
L 209.229802 -34.403125 
L 210.028238 -34.403125 
L 210.826674 -34.403125 
L 211.625111 -34.403125 
L 212.423547 -34.403125 
L 213.221983 -34.403125 
L 214.020419 -34.403125 
L 214.818855 -34.403125 
L 215.617292 -34.403125 
L 216.415728 -34.403125 
L 217.214164 -34.403125 
L 218.0126 -34.403125 
L 218.811037 -34.403125 
L 219.609473 -34.403125 
L 220.407909 -34.403125 
L 221.206345 -34.403125 
L 222.004781 -34.403125 
L 222.803218 -34.403125 
L 223.601654 -34.403125 
L 224.40009 -34.403125 
L 225.198526 -34.403125 
L 225.996962 -34.403125 
L 226.795399 -34.403125 
L 227.593835 -34.403125 
L 228.392271 -34.403125 
L 229.190707 -34.403125 
L 229.989143 -34.403125 
L 230.78758 -34.403125 
L 231.586016 -34.403125 
L 232.384452 -34.403125 
L 233.182888 -34.403125 
L 233.981325 -34.403125 
L 234.779761 -34.403125 
L 235.578197 -34.403125 
L 236.376633 -34.403125 
L 237.175069 -34.403125 
L 237.973506 -34.403125 
L 238.771942 -34.403125 
L 239.570378 -34.403125 
L 240.368814 -34.403125 
L 241.16725 -34.403125 
L 241.965687 -34.403125 
L 242.764123 -34.403125 
L 243.562559 -34.403125 
L 244.360995 -34.403125 
L 245.159431 -34.403125 
L 245.957868 -34.403125 
L 246.756304 -34.403125 
L 247.55474 -34.403125 
L 248.353176 -34.403125 
L 249.151612 -34.403125 
L 249.950049 -34.403125 
L 250.748485 -34.403125 
L 251.546921 -34.403125 
L 252.345357 -34.403125 
L 253.143794 -34.403125 
L 253.94223 -34.403125 
L 254.740666 -34.403125 
L 255.539102 -34.403125 
L 256.337538 -34.403125 
L 257.135975 -34.403125 
L 257.934411 -34.403125 
L 258.732847 -34.403125 
L 259.531283 -34.403125 
L 260.329719 -34.403125 
L 261.128156 -34.403125 
L 261.926592 -34.403125 
L 262.725028 -34.403125 
L 263.523464 -34.403125 
L 264.3219 -34.403125 
L 265.120337 -34.403125 
L 265.918773 -34.403125 
L 266.717209 -34.403125 
L 267.515645 -34.403125 
L 268.314082 -34.403125 
L 269.112518 -34.403125 
L 269.910954 -34.403125 
L 270.70939 -34.403125 
L 271.507826 -34.403125 
L 272.306263 -34.403125 
L 273.104699 -34.403125 
L 273.903135 -34.403125 
L 274.701571 -34.403125 
L 275.500007 -34.403125 
L 276.298444 -34.403125 
L 277.09688 -34.403125 
L 277.895316 -34.403125 
L 278.693752 -34.403125 
L 279.492188 -34.403125 
L 280.290625 -34.403125 
L 281.089061 -34.403125 
L 281.887497 -34.403125 
L 282.685933 -34.403125 
L 283.484369 -34.403125 
L 284.282806 -34.403125 
L 285.081242 -34.403125 
L 285.879678 -34.403125 
L 286.678114 -34.403125 
L 287.476551 -34.403125 
L 288.274987 -34.403125 
L 289.073423 -34.403125 
L 289.073423 -34.418349 
L 289.073423 -34.418349 
L 288.274987 -34.418185 
L 287.476551 -34.418023 
L 286.678114 -34.417864 
L 285.879678 -34.417706 
L 285.081242 -34.417551 
L 284.282806 -34.417398 
L 283.484369 -34.417248 
L 282.685933 -34.4171 
L 281.887497 -34.416955 
L 281.089061 -34.416812 
L 280.290625 -34.416672 
L 279.492188 -34.416535 
L 278.693752 -34.4164 
L 277.895316 -34.416268 
L 277.09688 -34.416139 
L 276.298444 -34.416015 
L 275.500007 -34.415895 
L 274.701571 -34.41578 
L 273.903135 -34.415668 
L 273.104699 -34.415558 
L 272.306263 -34.415451 
L 271.507826 -34.415345 
L 270.70939 -34.415239 
L 269.910954 -34.415133 
L 269.112518 -34.415027 
L 268.314082 -34.414918 
L 267.515645 -34.414808 
L 266.717209 -34.414694 
L 265.918773 -34.414577 
L 265.120337 -34.414455 
L 264.3219 -34.414335 
L 263.523464 -34.414222 
L 262.725028 -34.414112 
L 261.926592 -34.414004 
L 261.128156 -34.413895 
L 260.329719 -34.413785 
L 259.531283 -34.41367 
L 258.732847 -34.41355 
L 257.934411 -34.413421 
L 257.135975 -34.413282 
L 256.337538 -34.413131 
L 255.539102 -34.412967 
L 254.740666 -34.412786 
L 253.94223 -34.412587 
L 253.143794 -34.412367 
L 252.345357 -34.412025 
L 251.546921 -34.411527 
L 250.748485 -34.410898 
L 249.950049 -34.410166 
L 249.151612 -34.409359 
L 248.353176 -34.408503 
L 247.55474 -34.407627 
L 246.756304 -34.406757 
L 245.957868 -34.40592 
L 245.159431 -34.405144 
L 244.360995 -34.404456 
L 243.562559 -34.403883 
L 242.764123 -34.403453 
L 241.965687 -34.403193 
L 241.16725 -34.403128 
L 240.368814 -34.403215 
L 239.570378 -34.403418 
L 238.771942 -34.403724 
L 237.973506 -34.404122 
L 237.175069 -34.404599 
L 236.376633 -34.405143 
L 235.578197 -34.405742 
L 234.779761 -34.406385 
L 233.981325 -34.407058 
L 233.182888 -34.40775 
L 232.384452 -34.408449 
L 231.586016 -34.409143 
L 230.78758 -34.409819 
L 229.989143 -34.410466 
L 229.190707 -34.411077 
L 228.392271 -34.411752 
L 227.593835 -34.412519 
L 226.795399 -34.413356 
L 225.996962 -34.414242 
L 225.198526 -34.415156 
L 224.40009 -34.416077 
L 223.601654 -34.416985 
L 222.803218 -34.417857 
L 222.004781 -34.418674 
L 221.206345 -34.419413 
L 220.407909 -34.420054 
L 219.609473 -34.420576 
L 218.811037 -34.420958 
L 218.0126 -34.421178 
L 217.214164 -34.421214 
L 216.415728 -34.421014 
L 215.617292 -34.420595 
L 214.818855 -34.419993 
L 214.020419 -34.419242 
L 213.221983 -34.418378 
L 212.423547 -34.417437 
L 211.625111 -34.416455 
L 210.826674 -34.415466 
L 210.028238 -34.414507 
L 209.229802 -34.413612 
L 208.431366 -34.412818 
L 207.63293 -34.412159 
L 206.834493 -34.411672 
L 206.036057 -34.411392 
L 205.237621 -34.411343 
L 204.439185 -34.411423 
L 203.640749 -34.411585 
L 202.842312 -34.411815 
L 202.043876 -34.412101 
L 201.24544 -34.412429 
L 200.447004 -34.412785 
L 199.648568 -34.413156 
L 198.850131 -34.413529 
L 198.051695 -34.41389 
L 197.253259 -34.414226 
L 196.454823 -34.414523 
L 195.656386 -34.414769 
L 194.85795 -34.414949 
L 194.059514 -34.415051 
L 193.261078 -34.415043 
L 192.462642 -34.414774 
L 191.664205 -34.414244 
L 190.865769 -34.413496 
L 190.067333 -34.412573 
L 189.268897 -34.411519 
L 188.470461 -34.410376 
L 187.672024 -34.409186 
L 186.873588 -34.407994 
L 186.075152 -34.406841 
L 185.276716 -34.40577 
L 184.47828 -34.404825 
L 183.679843 -34.404049 
L 182.881407 -34.403484 
L 182.082971 -34.403172 
L 181.284535 -34.403132 
L 180.486098 -34.403191 
L 179.687662 -34.403312 
L 178.889226 -34.403489 
L 178.09079 -34.40372 
L 177.292354 -34.404001 
L 176.493917 -34.40433 
L 175.695481 -34.404704 
L 174.897045 -34.405119 
L 174.098609 -34.405572 
L 173.300173 -34.40606 
L 172.501736 -34.40658 
L 171.7033 -34.407129 
L 170.904864 -34.407703 
L 170.106428 -34.4083 
L 169.307992 -34.408988 
L 168.509555 -34.410166 
L 167.711119 -34.411822 
L 166.912683 -34.41387 
L 166.114247 -34.416223 
L 165.31581 -34.418793 
L 164.517374 -34.421493 
L 163.718938 -34.424238 
L 162.920502 -34.426938 
L 162.122066 -34.429509 
L 161.323629 -34.431862 
L 160.525193 -34.433911 
L 159.726757 -34.435568 
L 158.928321 -34.436748 
L 158.129885 -34.437362 
L 157.331448 -34.437368 
L 156.533012 -34.436956 
L 155.734576 -34.436202 
L 154.93614 -34.43516 
L 154.137704 -34.43388 
L 153.339267 -34.432415 
L 152.540831 -34.430818 
L 151.742395 -34.429139 
L 150.943959 -34.427431 
L 150.145523 -34.425747 
L 149.347086 -34.424138 
L 148.54865 -34.422656 
L 147.750214 -34.421353 
L 146.951778 -34.420282 
L 146.153341 -34.419494 
L 145.354905 -34.418977 
L 144.556469 -34.418497 
L 143.758033 -34.418031 
L 142.959597 -34.417581 
L 142.16116 -34.417152 
L 141.362724 -34.416745 
L 140.564288 -34.416365 
L 139.765852 -34.416015 
L 138.967416 -34.415698 
L 138.168979 -34.415417 
L 137.370543 -34.415177 
L 136.572107 -34.41498 
L 135.773671 -34.414829 
L 134.975235 -34.414728 
L 134.176798 -34.41468 
L 133.378362 -34.414729 
L 132.579926 -34.414998 
L 131.78149 -34.415465 
L 130.983053 -34.416096 
L 130.184617 -34.416858 
L 129.386181 -34.417716 
L 128.587745 -34.418636 
L 127.789309 -34.419584 
L 126.990872 -34.420526 
L 126.192436 -34.421428 
L 125.394 -34.422256 
L 124.595564 -34.422976 
L 123.797128 -34.423554 
L 122.998691 -34.423956 
L 122.200255 -34.424147 
L 121.401819 -34.42413 
L 120.603383 -34.423997 
L 119.804947 -34.423766 
L 119.00651 -34.42345 
L 118.208074 -34.423063 
L 117.409638 -34.422616 
L 116.611202 -34.422122 
L 115.812766 -34.421595 
L 115.014329 -34.421047 
L 114.215893 -34.42049 
L 113.417457 -34.419937 
L 112.619021 -34.419402 
L 111.820584 -34.418896 
L 111.022148 -34.418433 
L 110.223712 -34.418025 
L 109.425276 -34.417671 
L 108.62684 -34.417343 
L 107.828403 -34.417034 
L 107.029967 -34.41674 
L 106.231531 -34.416458 
L 105.433095 -34.416182 
L 104.634659 -34.415909 
L 103.836222 -34.415635 
L 103.037786 -34.415354 
L 102.23935 -34.415063 
L 101.440914 -34.414758 
L 100.642478 -34.414434 
L 99.844041 -34.414087 
L 99.045605 -34.413713 
L 98.247169 -34.413308 
L 97.448733 -34.412831 
L 96.650296 -34.41222 
L 95.85186 -34.411498 
L 95.053424 -34.410689 
L 94.254988 -34.409818 
L 93.456552 -34.408909 
L 92.658115 -34.407988 
L 91.859679 -34.407078 
L 91.061243 -34.406206 
L 90.262807 -34.405395 
L 89.464371 -34.40467 
L 88.665934 -34.404056 
L 87.867498 -34.403578 
L 87.069062 -34.40326 
L 86.270626 -34.403127 
L 85.47219 -34.403125 
L 84.673753 -34.403125 
L 83.875317 -34.403125 
L 83.076881 -34.403125 
L 82.278445 -34.403125 
L 81.480009 -34.403125 
L 80.681572 -34.403125 
L 79.883136 -34.403125 
L 79.0847 -34.403125 
L 78.286264 -34.403125 
L 77.487827 -34.403125 
L 76.689391 -34.403125 
L 75.890955 -34.403125 
L 75.092519 -34.403125 
L 74.294083 -34.403125 
L 73.495646 -34.403125 
L 72.69721 -34.403125 
L 71.898774 -34.403125 
L 71.100338 -34.403125 
L 70.301902 -34.403125 
L 69.503465 -34.403125 
L 68.705029 -34.403125 
L 67.906593 -34.403125 
L 67.108157 -34.403125 
L 66.309721 -34.403125 
L 65.511284 -34.403125 
L 64.712848 -34.403125 
L 63.914412 -34.403125 
L 63.115976 -34.403125 
L 62.317539 -34.403125 
L 61.519103 -34.403169 
L 60.720667 -34.403305 
L 59.922231 -34.403528 
L 59.123795 -34.403831 
L 58.325358 -34.404206 
L 57.526922 -34.404648 
L 56.728486 -34.405149 
L 55.93005 -34.405704 
L 55.131614 -34.406305 
L 54.333177 -34.406946 
L 53.534741 -34.40762 
L 52.736305 -34.40832 
L 51.937869 -34.40904 
L 51.139433 -34.409774 
L 50.340996 -34.410514 
z
" style="stroke: #d62728; stroke-opacity: 0.7"/>
    </defs>
    <g clip-path="url(#p5e32d61e80)">
     <use xlink:href="#mc2d2cc260a" x="0" y="217.533125" style="fill: #d62728; fill-opacity: 0.7; stroke: #d62728; stroke-opacity: 0.7"/>
    </g>
   </g>
   <g id="FillBetweenPolyCollection_2">
    <defs>
     <path id="ma6868022e8" d="M 50.340996 -34.536135 
L 50.340996 -34.410514 
L 51.139433 -34.409774 
L 51.937869 -34.40904 
L 52.736305 -34.40832 
L 53.534741 -34.40762 
L 54.333177 -34.406946 
L 55.131614 -34.406305 
L 55.93005 -34.405704 
L 56.728486 -34.405149 
L 57.526922 -34.404648 
L 58.325358 -34.404206 
L 59.123795 -34.403831 
L 59.922231 -34.403528 
L 60.720667 -34.403305 
L 61.519103 -34.403169 
L 62.317539 -34.403125 
L 63.115976 -34.403125 
L 63.914412 -34.403125 
L 64.712848 -34.403125 
L 65.511284 -34.403125 
L 66.309721 -34.403125 
L 67.108157 -34.403125 
L 67.906593 -34.403125 
L 68.705029 -34.403125 
L 69.503465 -34.403125 
L 70.301902 -34.403125 
L 71.100338 -34.403125 
L 71.898774 -34.403125 
L 72.69721 -34.403125 
L 73.495646 -34.403125 
L 74.294083 -34.403125 
L 75.092519 -34.403125 
L 75.890955 -34.403125 
L 76.689391 -34.403125 
L 77.487827 -34.403125 
L 78.286264 -34.403125 
L 79.0847 -34.403125 
L 79.883136 -34.403125 
L 80.681572 -34.403125 
L 81.480009 -34.403125 
L 82.278445 -34.403125 
L 83.076881 -34.403125 
L 83.875317 -34.403125 
L 84.673753 -34.403125 
L 85.47219 -34.403125 
L 86.270626 -34.403127 
L 87.069062 -34.40326 
L 87.867498 -34.403578 
L 88.665934 -34.404056 
L 89.464371 -34.40467 
L 90.262807 -34.405395 
L 91.061243 -34.406206 
L 91.859679 -34.407078 
L 92.658115 -34.407988 
L 93.456552 -34.408909 
L 94.254988 -34.409818 
L 95.053424 -34.410689 
L 95.85186 -34.411498 
L 96.650296 -34.41222 
L 97.448733 -34.412831 
L 98.247169 -34.413308 
L 99.045605 -34.413713 
L 99.844041 -34.414087 
L 100.642478 -34.414434 
L 101.440914 -34.414758 
L 102.23935 -34.415063 
L 103.037786 -34.415354 
L 103.836222 -34.415635 
L 104.634659 -34.415909 
L 105.433095 -34.416182 
L 106.231531 -34.416458 
L 107.029967 -34.41674 
L 107.828403 -34.417034 
L 108.62684 -34.417343 
L 109.425276 -34.417671 
L 110.223712 -34.418025 
L 111.022148 -34.418433 
L 111.820584 -34.418896 
L 112.619021 -34.419402 
L 113.417457 -34.419937 
L 114.215893 -34.42049 
L 115.014329 -34.421047 
L 115.812766 -34.421595 
L 116.611202 -34.422122 
L 117.409638 -34.422616 
L 118.208074 -34.423063 
L 119.00651 -34.42345 
L 119.804947 -34.423766 
L 120.603383 -34.423997 
L 121.401819 -34.42413 
L 122.200255 -34.424147 
L 122.998691 -34.423956 
L 123.797128 -34.423554 
L 124.595564 -34.422976 
L 125.394 -34.422256 
L 126.192436 -34.421428 
L 126.990872 -34.420526 
L 127.789309 -34.419584 
L 128.587745 -34.418636 
L 129.386181 -34.417716 
L 130.184617 -34.416858 
L 130.983053 -34.416096 
L 131.78149 -34.415465 
L 132.579926 -34.414998 
L 133.378362 -34.414729 
L 134.176798 -34.41468 
L 134.975235 -34.414728 
L 135.773671 -34.414829 
L 136.572107 -34.41498 
L 137.370543 -34.415177 
L 138.168979 -34.415417 
L 138.967416 -34.415698 
L 139.765852 -34.416015 
L 140.564288 -34.416365 
L 141.362724 -34.416745 
L 142.16116 -34.417152 
L 142.959597 -34.417581 
L 143.758033 -34.418031 
L 144.556469 -34.418497 
L 145.354905 -34.418977 
L 146.153341 -34.419494 
L 146.951778 -34.420282 
L 147.750214 -34.421353 
L 148.54865 -34.422656 
L 149.347086 -34.424138 
L 150.145523 -34.425747 
L 150.943959 -34.427431 
L 151.742395 -34.429139 
L 152.540831 -34.430818 
L 153.339267 -34.432415 
L 154.137704 -34.43388 
L 154.93614 -34.43516 
L 155.734576 -34.436202 
L 156.533012 -34.436956 
L 157.331448 -34.437368 
L 158.129885 -34.437362 
L 158.928321 -34.436748 
L 159.726757 -34.435568 
L 160.525193 -34.433911 
L 161.323629 -34.431862 
L 162.122066 -34.429509 
L 162.920502 -34.426938 
L 163.718938 -34.424238 
L 164.517374 -34.421493 
L 165.31581 -34.418793 
L 166.114247 -34.416223 
L 166.912683 -34.41387 
L 167.711119 -34.411822 
L 168.509555 -34.410166 
L 169.307992 -34.408988 
L 170.106428 -34.4083 
L 170.904864 -34.407703 
L 171.7033 -34.407129 
L 172.501736 -34.40658 
L 173.300173 -34.40606 
L 174.098609 -34.405572 
L 174.897045 -34.405119 
L 175.695481 -34.404704 
L 176.493917 -34.40433 
L 177.292354 -34.404001 
L 178.09079 -34.40372 
L 178.889226 -34.403489 
L 179.687662 -34.403312 
L 180.486098 -34.403191 
L 181.284535 -34.403132 
L 182.082971 -34.403172 
L 182.881407 -34.403484 
L 183.679843 -34.404049 
L 184.47828 -34.404825 
L 185.276716 -34.40577 
L 186.075152 -34.406841 
L 186.873588 -34.407994 
L 187.672024 -34.409186 
L 188.470461 -34.410376 
L 189.268897 -34.411519 
L 190.067333 -34.412573 
L 190.865769 -34.413496 
L 191.664205 -34.414244 
L 192.462642 -34.414774 
L 193.261078 -34.415043 
L 194.059514 -34.415051 
L 194.85795 -34.414949 
L 195.656386 -34.414769 
L 196.454823 -34.414523 
L 197.253259 -34.414226 
L 198.051695 -34.41389 
L 198.850131 -34.413529 
L 199.648568 -34.413156 
L 200.447004 -34.412785 
L 201.24544 -34.412429 
L 202.043876 -34.412101 
L 202.842312 -34.411815 
L 203.640749 -34.411585 
L 204.439185 -34.411423 
L 205.237621 -34.411343 
L 206.036057 -34.411392 
L 206.834493 -34.411672 
L 207.63293 -34.412159 
L 208.431366 -34.412818 
L 209.229802 -34.413612 
L 210.028238 -34.414507 
L 210.826674 -34.415466 
L 211.625111 -34.416455 
L 212.423547 -34.417437 
L 213.221983 -34.418378 
L 214.020419 -34.419242 
L 214.818855 -34.419993 
L 215.617292 -34.420595 
L 216.415728 -34.421014 
L 217.214164 -34.421214 
L 218.0126 -34.421178 
L 218.811037 -34.420958 
L 219.609473 -34.420576 
L 220.407909 -34.420054 
L 221.206345 -34.419413 
L 222.004781 -34.418674 
L 222.803218 -34.417857 
L 223.601654 -34.416985 
L 224.40009 -34.416077 
L 225.198526 -34.415156 
L 225.996962 -34.414242 
L 226.795399 -34.413356 
L 227.593835 -34.412519 
L 228.392271 -34.411752 
L 229.190707 -34.411077 
L 229.989143 -34.410466 
L 230.78758 -34.409819 
L 231.586016 -34.409143 
L 232.384452 -34.408449 
L 233.182888 -34.40775 
L 233.981325 -34.407058 
L 234.779761 -34.406385 
L 235.578197 -34.405742 
L 236.376633 -34.405143 
L 237.175069 -34.404599 
L 237.973506 -34.404122 
L 238.771942 -34.403724 
L 239.570378 -34.403418 
L 240.368814 -34.403215 
L 241.16725 -34.403128 
L 241.965687 -34.403193 
L 242.764123 -34.403453 
L 243.562559 -34.403883 
L 244.360995 -34.404456 
L 245.159431 -34.405144 
L 245.957868 -34.40592 
L 246.756304 -34.406757 
L 247.55474 -34.407627 
L 248.353176 -34.408503 
L 249.151612 -34.409359 
L 249.950049 -34.410166 
L 250.748485 -34.410898 
L 251.546921 -34.411527 
L 252.345357 -34.412025 
L 253.143794 -34.412367 
L 253.94223 -34.412587 
L 254.740666 -34.412786 
L 255.539102 -34.412967 
L 256.337538 -34.413131 
L 257.135975 -34.413282 
L 257.934411 -34.413421 
L 258.732847 -34.41355 
L 259.531283 -34.41367 
L 260.329719 -34.413785 
L 261.128156 -34.413895 
L 261.926592 -34.414004 
L 262.725028 -34.414112 
L 263.523464 -34.414222 
L 264.3219 -34.414335 
L 265.120337 -34.414455 
L 265.918773 -34.414577 
L 266.717209 -34.414694 
L 267.515645 -34.414808 
L 268.314082 -34.414918 
L 269.112518 -34.415027 
L 269.910954 -34.415133 
L 270.70939 -34.415239 
L 271.507826 -34.415345 
L 272.306263 -34.415451 
L 273.104699 -34.415558 
L 273.903135 -34.415668 
L 274.701571 -34.41578 
L 275.500007 -34.415895 
L 276.298444 -34.416015 
L 277.09688 -34.416139 
L 277.895316 -34.416268 
L 278.693752 -34.4164 
L 279.492188 -34.416535 
L 280.290625 -34.416672 
L 281.089061 -34.416812 
L 281.887497 -34.416955 
L 282.685933 -34.4171 
L 283.484369 -34.417248 
L 284.282806 -34.417398 
L 285.081242 -34.417551 
L 285.879678 -34.417706 
L 286.678114 -34.417864 
L 287.476551 -34.418023 
L 288.274987 -34.418185 
L 289.073423 -34.418349 
L 289.073423 -37.828556 
L 289.073423 -37.828556 
L 288.274987 -37.838396 
L 287.476551 -37.846902 
L 286.678114 -37.854169 
L 285.879678 -37.860295 
L 285.081242 -37.865373 
L 284.282806 -37.869502 
L 283.484369 -37.872775 
L 282.685933 -37.875289 
L 281.887497 -37.87714 
L 281.089061 -37.878424 
L 280.290625 -37.879236 
L 279.492188 -37.879673 
L 278.693752 -37.87983 
L 277.895316 -37.879802 
L 277.09688 -37.879667 
L 276.298444 -37.870867 
L 275.500007 -37.847492 
L 274.701571 -37.811254 
L 273.903135 -37.76386 
L 273.104699 -37.70702 
L 272.306263 -37.642444 
L 271.507826 -37.571841 
L 270.70939 -37.49692 
L 269.910954 -37.419391 
L 269.112518 -37.340962 
L 268.314082 -37.263344 
L 267.515645 -37.188245 
L 266.717209 -37.117374 
L 265.918773 -37.052442 
L 265.120337 -36.995084 
L 264.3219 -36.938245 
L 263.523464 -36.877257 
L 262.725028 -36.813334 
L 261.926592 -36.747689 
L 261.128156 -36.681534 
L 260.329719 -36.616083 
L 259.531283 -36.552549 
L 258.732847 -36.492145 
L 257.934411 -36.436084 
L 257.135975 -36.385579 
L 256.337538 -36.341842 
L 255.539102 -36.306088 
L 254.740666 -36.279529 
L 253.94223 -36.263379 
L 253.143794 -36.258752 
L 252.345357 -36.261062 
L 251.546921 -36.266944 
L 250.748485 -36.275965 
L 249.950049 -36.287693 
L 249.151612 -36.301694 
L 248.353176 -36.317536 
L 247.55474 -36.334786 
L 246.756304 -36.353011 
L 245.957868 -36.371778 
L 245.159431 -36.390654 
L 244.360995 -36.409206 
L 243.562559 -36.427002 
L 242.764123 -36.443609 
L 241.965687 -36.458593 
L 241.16725 -36.471592 
L 240.368814 -36.484514 
L 239.570378 -36.498207 
L 238.771942 -36.512423 
L 237.973506 -36.526915 
L 237.175069 -36.541437 
L 236.376633 -36.555741 
L 235.578197 -36.569581 
L 234.779761 -36.582709 
L 233.981325 -36.594879 
L 233.182888 -36.605843 
L 232.384452 -36.615354 
L 231.586016 -36.623167 
L 230.78758 -36.629033 
L 229.989143 -36.632705 
L 229.190707 -36.633872 
L 228.392271 -36.63104 
L 227.593835 -36.624042 
L 226.795399 -36.613363 
L 225.996962 -36.599493 
L 225.198526 -36.58292 
L 224.40009 -36.564131 
L 223.601654 -36.543614 
L 222.803218 -36.521857 
L 222.004781 -36.499348 
L 221.206345 -36.476576 
L 220.407909 -36.454027 
L 219.609473 -36.432189 
L 218.811037 -36.411552 
L 218.0126 -36.392602 
L 217.214164 -36.375723 
L 216.415728 -36.359611 
L 215.617292 -36.343702 
L 214.818855 -36.327959 
L 214.020419 -36.312344 
L 213.221983 -36.29682 
L 212.423547 -36.281347 
L 211.625111 -36.26589 
L 210.826674 -36.250409 
L 210.028238 -36.234867 
L 209.229802 -36.219226 
L 208.431366 -36.203449 
L 207.63293 -36.187497 
L 206.834493 -36.171332 
L 206.036057 -36.154918 
L 205.237621 -36.13806 
L 204.439185 -36.119043 
L 203.640749 -36.097829 
L 202.842312 -36.074961 
L 202.043876 -36.05098 
L 201.24544 -36.026427 
L 200.447004 -36.001843 
L 199.648568 -35.97777 
L 198.850131 -35.95475 
L 198.051695 -35.933324 
L 197.253259 -35.914034 
L 196.454823 -35.89742 
L 195.656386 -35.884025 
L 194.85795 -35.874389 
L 194.059514 -35.869055 
L 193.261078 -35.868172 
L 192.462642 -35.868466 
L 191.664205 -35.869045 
L 190.865769 -35.869862 
L 190.067333 -35.870869 
L 189.268897 -35.872021 
L 188.470461 -35.87327 
L 187.672024 -35.87457 
L 186.873588 -35.875873 
L 186.075152 -35.877132 
L 185.276716 -35.878302 
L 184.47828 -35.879334 
L 183.679843 -35.880182 
L 182.881407 -35.8808 
L 182.082971 -35.88114 
L 181.284535 -35.880611 
L 180.486098 -35.875443 
L 179.687662 -35.865569 
L 178.889226 -35.851775 
L 178.09079 -35.834852 
L 177.292354 -35.815586 
L 176.493917 -35.794765 
L 175.695481 -35.773178 
L 174.897045 -35.751613 
L 174.098609 -35.730857 
L 173.300173 -35.711698 
L 172.501736 -35.694925 
L 171.7033 -35.681325 
L 170.904864 -35.671687 
L 170.106428 -35.666799 
L 169.307992 -35.667815 
L 168.509555 -35.676967 
L 167.711119 -35.693471 
L 166.912683 -35.716088 
L 166.114247 -35.743582 
L 165.31581 -35.774715 
L 164.517374 -35.808251 
L 163.718938 -35.842951 
L 162.920502 -35.87758 
L 162.122066 -35.910899 
L 161.323629 -35.941671 
L 160.525193 -35.96866 
L 159.726757 -35.990628 
L 158.928321 -36.006338 
L 158.129885 -36.014553 
L 157.331448 -36.012035 
L 156.533012 -35.989381 
L 155.734576 -35.948155 
L 154.93614 -35.891408 
L 154.137704 -35.822189 
L 153.339267 -35.743548 
L 152.540831 -35.658536 
L 151.742395 -35.570201 
L 150.943959 -35.481593 
L 150.145523 -35.395763 
L 149.347086 -35.315759 
L 148.54865 -35.244632 
L 147.750214 -35.185432 
L 146.951778 -35.141207 
L 146.153341 -35.115009 
L 145.354905 -35.10597 
L 144.556469 -35.099679 
L 143.758033 -35.094338 
L 142.959597 -35.089802 
L 142.16116 -35.085929 
L 141.362724 -35.082574 
L 140.564288 -35.079595 
L 139.765852 -35.076847 
L 138.967416 -35.074187 
L 138.168979 -35.071471 
L 137.370543 -35.068556 
L 136.572107 -35.065299 
L 135.773671 -35.061555 
L 134.975235 -35.057181 
L 134.176798 -35.052034 
L 133.378362 -35.045377 
L 132.579926 -35.035356 
L 131.78149 -35.022362 
L 130.983053 -35.006974 
L 130.184617 -34.989769 
L 129.386181 -34.971326 
L 128.587745 -34.952224 
L 127.789309 -34.933039 
L 126.990872 -34.914352 
L 126.192436 -34.896739 
L 125.394 -34.880779 
L 124.595564 -34.867051 
L 123.797128 -34.856132 
L 122.998691 -34.848601 
L 122.200255 -34.845036 
L 121.401819 -34.844979 
L 120.603383 -34.845686 
L 119.804947 -34.846887 
L 119.00651 -34.848492 
L 118.208074 -34.850411 
L 117.409638 -34.852556 
L 116.611202 -34.854835 
L 115.812766 -34.85716 
L 115.014329 -34.85944 
L 114.215893 -34.861587 
L 113.417457 -34.86351 
L 112.619021 -34.86512 
L 111.820584 -34.866328 
L 111.022148 -34.867043 
L 110.223712 -34.867176 
L 109.425276 -34.866031 
L 108.62684 -34.862255 
L 107.828403 -34.856119 
L 107.029967 -34.847964 
L 106.231531 -34.83813 
L 105.433095 -34.826959 
L 104.634659 -34.814792 
L 103.836222 -34.801969 
L 103.037786 -34.788834 
L 102.23935 -34.775725 
L 101.440914 -34.762985 
L 100.642478 -34.750955 
L 99.844041 -34.739976 
L 99.045605 -34.730389 
L 98.247169 -34.722535 
L 97.448733 -34.715987 
L 96.650296 -34.709356 
L 95.85186 -34.70267 
L 95.053424 -34.696002 
L 94.254988 -34.689429 
L 93.456552 -34.683023 
L 92.658115 -34.676859 
L 91.859679 -34.671011 
L 91.061243 -34.665555 
L 90.262807 -34.660563 
L 89.464371 -34.65611 
L 88.665934 -34.652272 
L 87.867498 -34.649121 
L 87.069062 -34.646732 
L 86.270626 -34.64518 
L 85.47219 -34.644258 
L 84.673753 -34.643499 
L 83.875317 -34.642869 
L 83.076881 -34.642347 
L 82.278445 -34.641908 
L 81.480009 -34.641529 
L 80.681572 -34.641187 
L 79.883136 -34.640858 
L 79.0847 -34.640519 
L 78.286264 -34.640146 
L 77.487827 -34.639717 
L 76.689391 -34.639207 
L 75.890955 -34.638594 
L 75.092519 -34.637853 
L 74.294083 -34.636962 
L 73.495646 -34.635373 
L 72.69721 -34.632424 
L 71.898774 -34.6283 
L 71.100338 -34.623191 
L 70.301902 -34.617286 
L 69.503465 -34.610775 
L 68.705029 -34.603848 
L 67.906593 -34.596696 
L 67.108157 -34.589508 
L 66.309721 -34.582473 
L 65.511284 -34.575783 
L 64.712848 -34.569626 
L 63.914412 -34.564194 
L 63.115976 -34.559675 
L 62.317539 -34.55626 
L 61.519103 -34.553572 
L 60.720667 -34.551004 
L 59.922231 -34.548571 
L 59.123795 -34.546291 
L 58.325358 -34.54418 
L 57.526922 -34.542255 
L 56.728486 -34.540534 
L 55.93005 -34.539034 
L 55.131614 -34.537771 
L 54.333177 -34.536763 
L 53.534741 -34.536026 
L 52.736305 -34.535578 
L 51.937869 -34.535435 
L 51.139433 -34.535615 
L 50.340996 -34.536135 
z
" style="stroke: #1f77b4; stroke-opacity: 0.7"/>
    </defs>
    <g clip-path="url(#p5e32d61e80)">
     <use xlink:href="#ma6868022e8" x="0" y="217.533125" style="fill: #1f77b4; fill-opacity: 0.7; stroke: #1f77b4; stroke-opacity: 0.7"/>
    </g>
   </g>
   <g id="FillBetweenPolyCollection_3">
    <defs>
     <path id="m55318d1b9c" d="M 50.340996 -34.624808 
L 50.340996 -34.536135 
L 51.139433 -34.535615 
L 51.937869 -34.535435 
L 52.736305 -34.535578 
L 53.534741 -34.536026 
L 54.333177 -34.536763 
L 55.131614 -34.537771 
L 55.93005 -34.539034 
L 56.728486 -34.540534 
L 57.526922 -34.542255 
L 58.325358 -34.54418 
L 59.123795 -34.546291 
L 59.922231 -34.548571 
L 60.720667 -34.551004 
L 61.519103 -34.553572 
L 62.317539 -34.55626 
L 63.115976 -34.559675 
L 63.914412 -34.564194 
L 64.712848 -34.569626 
L 65.511284 -34.575783 
L 66.309721 -34.582473 
L 67.108157 -34.589508 
L 67.906593 -34.596696 
L 68.705029 -34.603848 
L 69.503465 -34.610775 
L 70.301902 -34.617286 
L 71.100338 -34.623191 
L 71.898774 -34.6283 
L 72.69721 -34.632424 
L 73.495646 -34.635373 
L 74.294083 -34.636962 
L 75.092519 -34.637853 
L 75.890955 -34.638594 
L 76.689391 -34.639207 
L 77.487827 -34.639717 
L 78.286264 -34.640146 
L 79.0847 -34.640519 
L 79.883136 -34.640858 
L 80.681572 -34.641187 
L 81.480009 -34.641529 
L 82.278445 -34.641908 
L 83.076881 -34.642347 
L 83.875317 -34.642869 
L 84.673753 -34.643499 
L 85.47219 -34.644258 
L 86.270626 -34.64518 
L 87.069062 -34.646732 
L 87.867498 -34.649121 
L 88.665934 -34.652272 
L 89.464371 -34.65611 
L 90.262807 -34.660563 
L 91.061243 -34.665555 
L 91.859679 -34.671011 
L 92.658115 -34.676859 
L 93.456552 -34.683023 
L 94.254988 -34.689429 
L 95.053424 -34.696002 
L 95.85186 -34.70267 
L 96.650296 -34.709356 
L 97.448733 -34.715987 
L 98.247169 -34.722535 
L 99.045605 -34.730389 
L 99.844041 -34.739976 
L 100.642478 -34.750955 
L 101.440914 -34.762985 
L 102.23935 -34.775725 
L 103.037786 -34.788834 
L 103.836222 -34.801969 
L 104.634659 -34.814792 
L 105.433095 -34.826959 
L 106.231531 -34.83813 
L 107.029967 -34.847964 
L 107.828403 -34.856119 
L 108.62684 -34.862255 
L 109.425276 -34.866031 
L 110.223712 -34.867176 
L 111.022148 -34.867043 
L 111.820584 -34.866328 
L 112.619021 -34.86512 
L 113.417457 -34.86351 
L 114.215893 -34.861587 
L 115.014329 -34.85944 
L 115.812766 -34.85716 
L 116.611202 -34.854835 
L 117.409638 -34.852556 
L 118.208074 -34.850411 
L 119.00651 -34.848492 
L 119.804947 -34.846887 
L 120.603383 -34.845686 
L 121.401819 -34.844979 
L 122.200255 -34.845036 
L 122.998691 -34.848601 
L 123.797128 -34.856132 
L 124.595564 -34.867051 
L 125.394 -34.880779 
L 126.192436 -34.896739 
L 126.990872 -34.914352 
L 127.789309 -34.933039 
L 128.587745 -34.952224 
L 129.386181 -34.971326 
L 130.184617 -34.989769 
L 130.983053 -35.006974 
L 131.78149 -35.022362 
L 132.579926 -35.035356 
L 133.378362 -35.045377 
L 134.176798 -35.052034 
L 134.975235 -35.057181 
L 135.773671 -35.061555 
L 136.572107 -35.065299 
L 137.370543 -35.068556 
L 138.168979 -35.071471 
L 138.967416 -35.074187 
L 139.765852 -35.076847 
L 140.564288 -35.079595 
L 141.362724 -35.082574 
L 142.16116 -35.085929 
L 142.959597 -35.089802 
L 143.758033 -35.094338 
L 144.556469 -35.099679 
L 145.354905 -35.10597 
L 146.153341 -35.115009 
L 146.951778 -35.141207 
L 147.750214 -35.185432 
L 148.54865 -35.244632 
L 149.347086 -35.315759 
L 150.145523 -35.395763 
L 150.943959 -35.481593 
L 151.742395 -35.570201 
L 152.540831 -35.658536 
L 153.339267 -35.743548 
L 154.137704 -35.822189 
L 154.93614 -35.891408 
L 155.734576 -35.948155 
L 156.533012 -35.989381 
L 157.331448 -36.012035 
L 158.129885 -36.014553 
L 158.928321 -36.006338 
L 159.726757 -35.990628 
L 160.525193 -35.96866 
L 161.323629 -35.941671 
L 162.122066 -35.910899 
L 162.920502 -35.87758 
L 163.718938 -35.842951 
L 164.517374 -35.808251 
L 165.31581 -35.774715 
L 166.114247 -35.743582 
L 166.912683 -35.716088 
L 167.711119 -35.693471 
L 168.509555 -35.676967 
L 169.307992 -35.667815 
L 170.106428 -35.666799 
L 170.904864 -35.671687 
L 171.7033 -35.681325 
L 172.501736 -35.694925 
L 173.300173 -35.711698 
L 174.098609 -35.730857 
L 174.897045 -35.751613 
L 175.695481 -35.773178 
L 176.493917 -35.794765 
L 177.292354 -35.815586 
L 178.09079 -35.834852 
L 178.889226 -35.851775 
L 179.687662 -35.865569 
L 180.486098 -35.875443 
L 181.284535 -35.880611 
L 182.082971 -35.88114 
L 182.881407 -35.8808 
L 183.679843 -35.880182 
L 184.47828 -35.879334 
L 185.276716 -35.878302 
L 186.075152 -35.877132 
L 186.873588 -35.875873 
L 187.672024 -35.87457 
L 188.470461 -35.87327 
L 189.268897 -35.872021 
L 190.067333 -35.870869 
L 190.865769 -35.869862 
L 191.664205 -35.869045 
L 192.462642 -35.868466 
L 193.261078 -35.868172 
L 194.059514 -35.869055 
L 194.85795 -35.874389 
L 195.656386 -35.884025 
L 196.454823 -35.89742 
L 197.253259 -35.914034 
L 198.051695 -35.933324 
L 198.850131 -35.95475 
L 199.648568 -35.97777 
L 200.447004 -36.001843 
L 201.24544 -36.026427 
L 202.043876 -36.05098 
L 202.842312 -36.074961 
L 203.640749 -36.097829 
L 204.439185 -36.119043 
L 205.237621 -36.13806 
L 206.036057 -36.154918 
L 206.834493 -36.171332 
L 207.63293 -36.187497 
L 208.431366 -36.203449 
L 209.229802 -36.219226 
L 210.028238 -36.234867 
L 210.826674 -36.250409 
L 211.625111 -36.26589 
L 212.423547 -36.281347 
L 213.221983 -36.29682 
L 214.020419 -36.312344 
L 214.818855 -36.327959 
L 215.617292 -36.343702 
L 216.415728 -36.359611 
L 217.214164 -36.375723 
L 218.0126 -36.392602 
L 218.811037 -36.411552 
L 219.609473 -36.432189 
L 220.407909 -36.454027 
L 221.206345 -36.476576 
L 222.004781 -36.499348 
L 222.803218 -36.521857 
L 223.601654 -36.543614 
L 224.40009 -36.564131 
L 225.198526 -36.58292 
L 225.996962 -36.599493 
L 226.795399 -36.613363 
L 227.593835 -36.624042 
L 228.392271 -36.63104 
L 229.190707 -36.633872 
L 229.989143 -36.632705 
L 230.78758 -36.629033 
L 231.586016 -36.623167 
L 232.384452 -36.615354 
L 233.182888 -36.605843 
L 233.981325 -36.594879 
L 234.779761 -36.582709 
L 235.578197 -36.569581 
L 236.376633 -36.555741 
L 237.175069 -36.541437 
L 237.973506 -36.526915 
L 238.771942 -36.512423 
L 239.570378 -36.498207 
L 240.368814 -36.484514 
L 241.16725 -36.471592 
L 241.965687 -36.458593 
L 242.764123 -36.443609 
L 243.562559 -36.427002 
L 244.360995 -36.409206 
L 245.159431 -36.390654 
L 245.957868 -36.371778 
L 246.756304 -36.353011 
L 247.55474 -36.334786 
L 248.353176 -36.317536 
L 249.151612 -36.301694 
L 249.950049 -36.287693 
L 250.748485 -36.275965 
L 251.546921 -36.266944 
L 252.345357 -36.261062 
L 253.143794 -36.258752 
L 253.94223 -36.263379 
L 254.740666 -36.279529 
L 255.539102 -36.306088 
L 256.337538 -36.341842 
L 257.135975 -36.385579 
L 257.934411 -36.436084 
L 258.732847 -36.492145 
L 259.531283 -36.552549 
L 260.329719 -36.616083 
L 261.128156 -36.681534 
L 261.926592 -36.747689 
L 262.725028 -36.813334 
L 263.523464 -36.877257 
L 264.3219 -36.938245 
L 265.120337 -36.995084 
L 265.918773 -37.052442 
L 266.717209 -37.117374 
L 267.515645 -37.188245 
L 268.314082 -37.263344 
L 269.112518 -37.340962 
L 269.910954 -37.419391 
L 270.70939 -37.49692 
L 271.507826 -37.571841 
L 272.306263 -37.642444 
L 273.104699 -37.70702 
L 273.903135 -37.76386 
L 274.701571 -37.811254 
L 275.500007 -37.847492 
L 276.298444 -37.870867 
L 277.09688 -37.879667 
L 277.895316 -37.879802 
L 278.693752 -37.87983 
L 279.492188 -37.879673 
L 280.290625 -37.879236 
L 281.089061 -37.878424 
L 281.887497 -37.87714 
L 282.685933 -37.875289 
L 283.484369 -37.872775 
L 284.282806 -37.869502 
L 285.081242 -37.865373 
L 285.879678 -37.860295 
L 286.678114 -37.854169 
L 287.476551 -37.846902 
L 288.274987 -37.838396 
L 289.073423 -37.828556 
L 289.073423 -37.919901 
L 289.073423 -37.919901 
L 288.274987 -37.93683 
L 287.476551 -37.952204 
L 286.678114 -37.96608 
L 285.879678 -37.978513 
L 285.081242 -37.989558 
L 284.282806 -37.999271 
L 283.484369 -38.007708 
L 282.685933 -38.014924 
L 281.887497 -38.020975 
L 281.089061 -38.025917 
L 280.290625 -38.029806 
L 279.492188 -38.032696 
L 278.693752 -38.034644 
L 277.895316 -38.035706 
L 277.09688 -38.035917 
L 276.298444 -38.026913 
L 275.500007 -38.002994 
L 274.701571 -37.965911 
L 273.903135 -37.917413 
L 273.104699 -37.859251 
L 272.306263 -37.793176 
L 271.507826 -37.720936 
L 270.70939 -37.644283 
L 269.910954 -37.564966 
L 269.112518 -37.484736 
L 268.314082 -37.405344 
L 267.515645 -37.328538 
L 266.717209 -37.25607 
L 265.918773 -37.18969 
L 265.120337 -37.131073 
L 264.3219 -37.073006 
L 263.523464 -37.010715 
L 262.725028 -36.945437 
L 261.926592 -36.878409 
L 261.128156 -36.810869 
L 260.329719 -36.744053 
L 259.531283 -36.679199 
L 258.732847 -36.617545 
L 257.934411 -36.560326 
L 257.135975 -36.508782 
L 256.337538 -36.464148 
L 255.539102 -36.427662 
L 254.740666 -36.400562 
L 253.94223 -36.384085 
L 253.143794 -36.379385 
L 252.345357 -36.3827 
L 251.546921 -36.390984 
L 250.748485 -36.403611 
L 249.950049 -36.419952 
L 249.151612 -36.43938 
L 248.353176 -36.461268 
L 247.55474 -36.484988 
L 246.756304 -36.509913 
L 245.957868 -36.535415 
L 245.159431 -36.560867 
L 244.360995 -36.58564 
L 243.562559 -36.609109 
L 242.764123 -36.630644 
L 241.965687 -36.649619 
L 241.16725 -36.665497 
L 240.368814 -36.680737 
L 239.570378 -36.696526 
L 238.771942 -36.712648 
L 237.973506 -36.728884 
L 237.175069 -36.745017 
L 236.376633 -36.760829 
L 235.578197 -36.776104 
L 234.779761 -36.790623 
L 233.981325 -36.804169 
L 233.182888 -36.816524 
L 232.384452 -36.827471 
L 231.586016 -36.836792 
L 230.78758 -36.84427 
L 229.989143 -36.849687 
L 229.190707 -36.852765 
L 228.392271 -36.852117 
L 227.593835 -36.847567 
L 226.795399 -36.839546 
L 225.996962 -36.828484 
L 225.198526 -36.814812 
L 224.40009 -36.798962 
L 223.601654 -36.781365 
L 222.803218 -36.762451 
L 222.004781 -36.742652 
L 221.206345 -36.722398 
L 220.407909 -36.70212 
L 219.609473 -36.68225 
L 218.811037 -36.663219 
L 218.0126 -36.645457 
L 217.214164 -36.629313 
L 216.415728 -36.613795 
L 215.617292 -36.598455 
L 214.818855 -36.583253 
L 214.020419 -36.568148 
L 213.221983 -36.5531 
L 212.423547 -36.538069 
L 211.625111 -36.523014 
L 210.826674 -36.507895 
L 210.028238 -36.492673 
L 209.229802 -36.477306 
L 208.431366 -36.461754 
L 207.63293 -36.445977 
L 206.834493 -36.429935 
L 206.036057 -36.413588 
L 205.237621 -36.396708 
L 204.439185 -36.377241 
L 203.640749 -36.355087 
L 202.842312 -36.330836 
L 202.043876 -36.305075 
L 201.24544 -36.278393 
L 200.447004 -36.251378 
L 199.648568 -36.224618 
L 198.850131 -36.198701 
L 198.051695 -36.174215 
L 197.253259 -36.151749 
L 196.454823 -36.131891 
L 195.656386 -36.115228 
L 194.85795 -36.102349 
L 194.059514 -36.093842 
L 193.261078 -36.089825 
L 192.462642 -36.086362 
L 191.664205 -36.08252 
L 190.865769 -36.078394 
L 190.067333 -36.07408 
L 189.268897 -36.069674 
L 188.470461 -36.065273 
L 187.672024 -36.060972 
L 186.873588 -36.056867 
L 186.075152 -36.053055 
L 185.276716 -36.049631 
L 184.47828 -36.046691 
L 183.679843 -36.044332 
L 182.881407 -36.042649 
L 182.082971 -36.041739 
L 181.284535 -36.041186 
L 180.486098 -36.037478 
L 179.687662 -36.030396 
L 178.889226 -36.020506 
L 178.09079 -36.008376 
L 177.292354 -35.994572 
L 176.493917 -35.97966 
L 175.695481 -35.964209 
L 174.897045 -35.948785 
L 174.098609 -35.933955 
L 173.300173 -35.920286 
L 172.501736 -35.908345 
L 171.7033 -35.898698 
L 170.904864 -35.891913 
L 170.106428 -35.888557 
L 169.307992 -35.889662 
L 168.509555 -35.897941 
L 167.711119 -35.912788 
L 166.912683 -35.933061 
L 166.114247 -35.957618 
L 165.31581 -35.985318 
L 164.517374 -36.015017 
L 163.718938 -36.045575 
L 162.920502 -36.075849 
L 162.122066 -36.104696 
L 161.323629 -36.130975 
L 160.525193 -36.153545 
L 159.726757 -36.171261 
L 158.928321 -36.182984 
L 158.129885 -36.18757 
L 157.331448 -36.181747 
L 156.533012 -36.155549 
L 155.734576 -36.110534 
L 154.93614 -36.049829 
L 154.137704 -35.976561 
L 153.339267 -35.893859 
L 152.540831 -35.804849 
L 151.742395 -35.712659 
L 150.943959 -35.620417 
L 150.145523 -35.531249 
L 149.347086 -35.448284 
L 148.54865 -35.374649 
L 147.750214 -35.313472 
L 146.951778 -35.267879 
L 146.153341 -35.241 
L 145.354905 -35.232202 
L 144.556469 -35.227671 
L 143.758033 -35.225454 
L 142.959597 -35.225175 
L 142.16116 -35.226458 
L 141.362724 -35.228928 
L 140.564288 -35.232209 
L 139.765852 -35.235924 
L 138.967416 -35.239698 
L 138.168979 -35.243155 
L 137.370543 -35.24592 
L 136.572107 -35.247616 
L 135.773671 -35.247867 
L 134.975235 -35.246298 
L 134.176798 -35.242533 
L 133.378362 -35.235945 
L 132.579926 -35.225738 
L 131.78149 -35.212421 
L 130.983053 -35.196595 
L 130.184617 -35.178863 
L 129.386181 -35.159827 
L 128.587745 -35.140088 
L 127.789309 -35.120247 
L 126.990872 -35.100907 
L 126.192436 -35.08267 
L 125.394 -35.066137 
L 124.595564 -35.051911 
L 123.797128 -35.040592 
L 122.998691 -35.032783 
L 122.200255 -35.029086 
L 121.401819 -35.029083 
L 120.603383 -35.030081 
L 119.804947 -35.031784 
L 119.00651 -35.034075 
L 118.208074 -35.036837 
L 117.409638 -35.039951 
L 116.611202 -35.043301 
L 115.812766 -35.046767 
L 115.014329 -35.050233 
L 114.215893 -35.05358 
L 113.417457 -35.056692 
L 112.619021 -35.05945 
L 111.820584 -35.061736 
L 111.022148 -35.063433 
L 110.223712 -35.064424 
L 109.425276 -35.064045 
L 108.62684 -35.061076 
L 107.828403 -35.055778 
L 107.029967 -35.048478 
L 106.231531 -35.039503 
L 105.433095 -35.02918 
L 104.634659 -35.017835 
L 103.836222 -35.005796 
L 103.037786 -34.99339 
L 102.23935 -34.980942 
L 101.440914 -34.968781 
L 100.642478 -34.957233 
L 99.844041 -34.946625 
L 99.045605 -34.937283 
L 98.247169 -34.929535 
L 97.448733 -34.922222 
L 96.650296 -34.91265 
L 95.85186 -34.901133 
L 95.053424 -34.888078 
L 94.254988 -34.873893 
L 93.456552 -34.858984 
L 92.658115 -34.843759 
L 91.859679 -34.828625 
L 91.061243 -34.813989 
L 90.262807 -34.800259 
L 89.464371 -34.787841 
L 88.665934 -34.777143 
L 87.867498 -34.768572 
L 87.069062 -34.762535 
L 86.270626 -34.759439 
L 85.47219 -34.75848 
L 84.673753 -34.757712 
L 83.875317 -34.757077 
L 83.076881 -34.756549 
L 82.278445 -34.756106 
L 81.480009 -34.755724 
L 80.681572 -34.755379 
L 79.883136 -34.755047 
L 79.0847 -34.754706 
L 78.286264 -34.75433 
L 77.487827 -34.753897 
L 76.689391 -34.753382 
L 75.890955 -34.752763 
L 75.092519 -34.752015 
L 74.294083 -34.751115 
L 73.495646 -34.749288 
L 72.69721 -34.745591 
L 71.898774 -34.740281 
L 71.100338 -34.733621 
L 70.301902 -34.725878 
L 69.503465 -34.717317 
L 68.705029 -34.708203 
L 67.906593 -34.698802 
L 67.108157 -34.689379 
L 66.309721 -34.6802 
L 65.511284 -34.671529 
L 64.712848 -34.663633 
L 63.914412 -34.656777 
L 63.115976 -34.651226 
L 62.317539 -34.647245 
L 61.519103 -34.644283 
L 60.720667 -34.641455 
L 59.922231 -34.638777 
L 59.123795 -34.636267 
L 58.325358 -34.633942 
L 57.526922 -34.631821 
L 56.728486 -34.629921 
L 55.93005 -34.628259 
L 55.131614 -34.626854 
L 54.333177 -34.625724 
L 53.534741 -34.624885 
L 52.736305 -34.624357 
L 51.937869 -34.624156 
L 51.139433 -34.6243 
L 50.340996 -34.624808 
z
" style="stroke: #2ca02c; stroke-opacity: 0.7"/>
    </defs>
    <g clip-path="url(#p5e32d61e80)">
     <use xlink:href="#m55318d1b9c" x="0" y="217.533125" style="fill: #2ca02c; fill-opacity: 0.7; stroke: #2ca02c; stroke-opacity: 0.7"/>
    </g>
   </g>
   <g id="FillBetweenPolyCollection_4">
    <defs>
     <path id="m965878e7b9" d="M 50.340996 -42.779041 
L 50.340996 -34.624808 
L 51.139433 -34.6243 
L 51.937869 -34.624156 
L 52.736305 -34.624357 
L 53.534741 -34.624885 
L 54.333177 -34.625724 
L 55.131614 -34.626854 
L 55.93005 -34.628259 
L 56.728486 -34.629921 
L 57.526922 -34.631821 
L 58.325358 -34.633942 
L 59.123795 -34.636267 
L 59.922231 -34.638777 
L 60.720667 -34.641455 
L 61.519103 -34.644283 
L 62.317539 -34.647245 
L 63.115976 -34.651226 
L 63.914412 -34.656777 
L 64.712848 -34.663633 
L 65.511284 -34.671529 
L 66.309721 -34.6802 
L 67.108157 -34.689379 
L 67.906593 -34.698802 
L 68.705029 -34.708203 
L 69.503465 -34.717317 
L 70.301902 -34.725878 
L 71.100338 -34.733621 
L 71.898774 -34.740281 
L 72.69721 -34.745591 
L 73.495646 -34.749288 
L 74.294083 -34.751115 
L 75.092519 -34.752015 
L 75.890955 -34.752763 
L 76.689391 -34.753382 
L 77.487827 -34.753897 
L 78.286264 -34.75433 
L 79.0847 -34.754706 
L 79.883136 -34.755047 
L 80.681572 -34.755379 
L 81.480009 -34.755724 
L 82.278445 -34.756106 
L 83.076881 -34.756549 
L 83.875317 -34.757077 
L 84.673753 -34.757712 
L 85.47219 -34.75848 
L 86.270626 -34.759439 
L 87.069062 -34.762535 
L 87.867498 -34.768572 
L 88.665934 -34.777143 
L 89.464371 -34.787841 
L 90.262807 -34.800259 
L 91.061243 -34.813989 
L 91.859679 -34.828625 
L 92.658115 -34.843759 
L 93.456552 -34.858984 
L 94.254988 -34.873893 
L 95.053424 -34.888078 
L 95.85186 -34.901133 
L 96.650296 -34.91265 
L 97.448733 -34.922222 
L 98.247169 -34.929535 
L 99.045605 -34.937283 
L 99.844041 -34.946625 
L 100.642478 -34.957233 
L 101.440914 -34.968781 
L 102.23935 -34.980942 
L 103.037786 -34.99339 
L 103.836222 -35.005796 
L 104.634659 -35.017835 
L 105.433095 -35.02918 
L 106.231531 -35.039503 
L 107.029967 -35.048478 
L 107.828403 -35.055778 
L 108.62684 -35.061076 
L 109.425276 -35.064045 
L 110.223712 -35.064424 
L 111.022148 -35.063433 
L 111.820584 -35.061736 
L 112.619021 -35.05945 
L 113.417457 -35.056692 
L 114.215893 -35.05358 
L 115.014329 -35.050233 
L 115.812766 -35.046767 
L 116.611202 -35.043301 
L 117.409638 -35.039951 
L 118.208074 -35.036837 
L 119.00651 -35.034075 
L 119.804947 -35.031784 
L 120.603383 -35.030081 
L 121.401819 -35.029083 
L 122.200255 -35.029086 
L 122.998691 -35.032783 
L 123.797128 -35.040592 
L 124.595564 -35.051911 
L 125.394 -35.066137 
L 126.192436 -35.08267 
L 126.990872 -35.100907 
L 127.789309 -35.120247 
L 128.587745 -35.140088 
L 129.386181 -35.159827 
L 130.184617 -35.178863 
L 130.983053 -35.196595 
L 131.78149 -35.212421 
L 132.579926 -35.225738 
L 133.378362 -35.235945 
L 134.176798 -35.242533 
L 134.975235 -35.246298 
L 135.773671 -35.247867 
L 136.572107 -35.247616 
L 137.370543 -35.24592 
L 138.168979 -35.243155 
L 138.967416 -35.239698 
L 139.765852 -35.235924 
L 140.564288 -35.232209 
L 141.362724 -35.228928 
L 142.16116 -35.226458 
L 142.959597 -35.225175 
L 143.758033 -35.225454 
L 144.556469 -35.227671 
L 145.354905 -35.232202 
L 146.153341 -35.241 
L 146.951778 -35.267879 
L 147.750214 -35.313472 
L 148.54865 -35.374649 
L 149.347086 -35.448284 
L 150.145523 -35.531249 
L 150.943959 -35.620417 
L 151.742395 -35.712659 
L 152.540831 -35.804849 
L 153.339267 -35.893859 
L 154.137704 -35.976561 
L 154.93614 -36.049829 
L 155.734576 -36.110534 
L 156.533012 -36.155549 
L 157.331448 -36.181747 
L 158.129885 -36.18757 
L 158.928321 -36.182984 
L 159.726757 -36.171261 
L 160.525193 -36.153545 
L 161.323629 -36.130975 
L 162.122066 -36.104696 
L 162.920502 -36.075849 
L 163.718938 -36.045575 
L 164.517374 -36.015017 
L 165.31581 -35.985318 
L 166.114247 -35.957618 
L 166.912683 -35.933061 
L 167.711119 -35.912788 
L 168.509555 -35.897941 
L 169.307992 -35.889662 
L 170.106428 -35.888557 
L 170.904864 -35.891913 
L 171.7033 -35.898698 
L 172.501736 -35.908345 
L 173.300173 -35.920286 
L 174.098609 -35.933955 
L 174.897045 -35.948785 
L 175.695481 -35.964209 
L 176.493917 -35.97966 
L 177.292354 -35.994572 
L 178.09079 -36.008376 
L 178.889226 -36.020506 
L 179.687662 -36.030396 
L 180.486098 -36.037478 
L 181.284535 -36.041186 
L 182.082971 -36.041739 
L 182.881407 -36.042649 
L 183.679843 -36.044332 
L 184.47828 -36.046691 
L 185.276716 -36.049631 
L 186.075152 -36.053055 
L 186.873588 -36.056867 
L 187.672024 -36.060972 
L 188.470461 -36.065273 
L 189.268897 -36.069674 
L 190.067333 -36.07408 
L 190.865769 -36.078394 
L 191.664205 -36.08252 
L 192.462642 -36.086362 
L 193.261078 -36.089825 
L 194.059514 -36.093842 
L 194.85795 -36.102349 
L 195.656386 -36.115228 
L 196.454823 -36.131891 
L 197.253259 -36.151749 
L 198.051695 -36.174215 
L 198.850131 -36.198701 
L 199.648568 -36.224618 
L 200.447004 -36.251378 
L 201.24544 -36.278393 
L 202.043876 -36.305075 
L 202.842312 -36.330836 
L 203.640749 -36.355087 
L 204.439185 -36.377241 
L 205.237621 -36.396708 
L 206.036057 -36.413588 
L 206.834493 -36.429935 
L 207.63293 -36.445977 
L 208.431366 -36.461754 
L 209.229802 -36.477306 
L 210.028238 -36.492673 
L 210.826674 -36.507895 
L 211.625111 -36.523014 
L 212.423547 -36.538069 
L 213.221983 -36.5531 
L 214.020419 -36.568148 
L 214.818855 -36.583253 
L 215.617292 -36.598455 
L 216.415728 -36.613795 
L 217.214164 -36.629313 
L 218.0126 -36.645457 
L 218.811037 -36.663219 
L 219.609473 -36.68225 
L 220.407909 -36.70212 
L 221.206345 -36.722398 
L 222.004781 -36.742652 
L 222.803218 -36.762451 
L 223.601654 -36.781365 
L 224.40009 -36.798962 
L 225.198526 -36.814812 
L 225.996962 -36.828484 
L 226.795399 -36.839546 
L 227.593835 -36.847567 
L 228.392271 -36.852117 
L 229.190707 -36.852765 
L 229.989143 -36.849687 
L 230.78758 -36.84427 
L 231.586016 -36.836792 
L 232.384452 -36.827471 
L 233.182888 -36.816524 
L 233.981325 -36.804169 
L 234.779761 -36.790623 
L 235.578197 -36.776104 
L 236.376633 -36.760829 
L 237.175069 -36.745017 
L 237.973506 -36.728884 
L 238.771942 -36.712648 
L 239.570378 -36.696526 
L 240.368814 -36.680737 
L 241.16725 -36.665497 
L 241.965687 -36.649619 
L 242.764123 -36.630644 
L 243.562559 -36.609109 
L 244.360995 -36.58564 
L 245.159431 -36.560867 
L 245.957868 -36.535415 
L 246.756304 -36.509913 
L 247.55474 -36.484988 
L 248.353176 -36.461268 
L 249.151612 -36.43938 
L 249.950049 -36.419952 
L 250.748485 -36.403611 
L 251.546921 -36.390984 
L 252.345357 -36.3827 
L 253.143794 -36.379385 
L 253.94223 -36.384085 
L 254.740666 -36.400562 
L 255.539102 -36.427662 
L 256.337538 -36.464148 
L 257.135975 -36.508782 
L 257.934411 -36.560326 
L 258.732847 -36.617545 
L 259.531283 -36.679199 
L 260.329719 -36.744053 
L 261.128156 -36.810869 
L 261.926592 -36.878409 
L 262.725028 -36.945437 
L 263.523464 -37.010715 
L 264.3219 -37.073006 
L 265.120337 -37.131073 
L 265.918773 -37.18969 
L 266.717209 -37.25607 
L 267.515645 -37.328538 
L 268.314082 -37.405344 
L 269.112518 -37.484736 
L 269.910954 -37.564966 
L 270.70939 -37.644283 
L 271.507826 -37.720936 
L 272.306263 -37.793176 
L 273.104699 -37.859251 
L 273.903135 -37.917413 
L 274.701571 -37.965911 
L 275.500007 -38.002994 
L 276.298444 -38.026913 
L 277.09688 -38.035917 
L 277.895316 -38.035706 
L 278.693752 -38.034644 
L 279.492188 -38.032696 
L 280.290625 -38.029806 
L 281.089061 -38.025917 
L 281.887497 -38.020975 
L 282.685933 -38.014924 
L 283.484369 -38.007708 
L 284.282806 -37.999271 
L 285.081242 -37.989558 
L 285.879678 -37.978513 
L 286.678114 -37.96608 
L 287.476551 -37.952204 
L 288.274987 -37.93683 
L 289.073423 -37.919901 
L 289.073423 -114.923586 
L 289.073423 -114.923586 
L 288.274987 -115.160274 
L 287.476551 -115.379712 
L 286.678114 -115.582028 
L 285.879678 -115.76735 
L 285.081242 -115.935806 
L 284.282806 -116.087525 
L 283.484369 -116.222635 
L 282.685933 -116.341263 
L 281.887497 -116.443539 
L 281.089061 -116.529589 
L 280.290625 -116.599543 
L 279.492188 -116.653529 
L 278.693752 -116.691674 
L 277.895316 -116.714107 
L 277.09688 -116.720898 
L 276.298444 -116.688192 
L 275.500007 -116.601601 
L 274.701571 -116.468774 
L 273.903135 -116.29736 
L 273.104699 -116.095008 
L 272.306263 -115.869367 
L 271.507826 -115.628087 
L 270.70939 -115.378815 
L 269.910954 -115.129202 
L 269.112518 -114.886896 
L 268.314082 -114.659547 
L 267.515645 -114.454803 
L 266.717209 -114.280314 
L 265.918773 -114.143728 
L 265.120337 -114.052408 
L 264.3219 -113.978851 
L 263.523464 -113.90194 
L 262.725028 -113.822944 
L 261.926592 -113.743132 
L 261.128156 -113.663772 
L 260.329719 -113.586133 
L 259.531283 -113.511482 
L 258.732847 -113.44109 
L 257.934411 -113.376223 
L 257.135975 -113.318151 
L 256.337538 -113.268142 
L 255.539102 -113.227465 
L 254.740666 -113.197389 
L 253.94223 -113.179181 
L 253.143794 -113.174982 
L 252.345357 -113.231928 
L 251.546921 -113.368091 
L 250.748485 -113.57199 
L 249.950049 -113.832143 
L 249.151612 -114.137068 
L 248.353176 -114.475281 
L 247.55474 -114.8353 
L 246.756304 -115.205644 
L 245.957868 -115.574829 
L 245.159431 -115.931374 
L 244.360995 -116.263796 
L 243.562559 -116.560612 
L 242.764123 -116.81034 
L 241.965687 -117.001498 
L 241.16725 -117.124176 
L 240.368814 -117.221391 
L 239.570378 -117.316475 
L 238.771942 -117.408747 
L 237.973506 -117.497525 
L 237.175069 -117.582127 
L 236.376633 -117.661874 
L 235.578197 -117.736082 
L 234.779761 -117.80407 
L 233.981325 -117.865158 
L 233.182888 -117.918662 
L 232.384452 -117.963903 
L 231.586016 -118.000199 
L 230.78758 -118.026867 
L 229.989143 -118.043227 
L 229.190707 -118.045102 
L 228.392271 -117.959418 
L 227.593835 -117.769637 
L 226.795399 -117.492288 
L 225.996962 -117.143895 
L 225.198526 -116.740985 
L 224.40009 -116.300084 
L 223.601654 -115.83772 
L 222.803218 -115.370417 
L 222.004781 -114.914703 
L 221.206345 -114.487103 
L 220.407909 -114.104144 
L 219.609473 -113.782353 
L 218.811037 -113.538255 
L 218.0126 -113.388378 
L 217.214164 -113.344504 
L 216.415728 -113.342972 
L 215.617292 -113.356991 
L 214.818855 -113.384031 
L 214.020419 -113.421561 
L 213.221983 -113.467053 
L 212.423547 -113.517976 
L 211.625111 -113.5718 
L 210.826674 -113.625997 
L 210.028238 -113.678035 
L 209.229802 -113.725386 
L 208.431366 -113.765519 
L 207.63293 -113.795905 
L 206.834493 -113.814014 
L 206.036057 -113.817317 
L 205.237621 -113.802124 
L 204.439185 -113.753839 
L 203.640749 -113.671121 
L 202.842312 -113.55702 
L 202.043876 -113.414585 
L 201.24544 -113.246868 
L 200.447004 -113.056917 
L 199.648568 -112.847783 
L 198.850131 -112.622515 
L 198.051695 -112.384162 
L 197.253259 -112.135775 
L 196.454823 -111.880404 
L 195.656386 -111.621097 
L 194.85795 -111.360906 
L 194.059514 -111.102879 
L 193.261078 -110.842611 
L 192.462642 -110.517037 
L 191.664205 -110.120625 
L 190.865769 -109.665143 
L 190.067333 -109.16236 
L 189.268897 -108.624043 
L 188.470461 -108.061959 
L 187.672024 -107.487877 
L 186.873588 -106.913564 
L 186.075152 -106.350789 
L 185.276716 -105.811318 
L 184.47828 -105.306919 
L 183.679843 -104.849361 
L 182.881407 -104.450411 
L 182.082971 -104.121836 
L 181.284535 -103.8691 
L 180.486098 -103.651917 
L 179.687662 -103.457727 
L 178.889226 -103.282598 
L 178.09079 -103.122597 
L 177.292354 -102.973792 
L 176.493917 -102.832251 
L 175.695481 -102.69404 
L 174.897045 -102.555228 
L 174.098609 -102.411882 
L 173.300173 -102.260069 
L 172.501736 -102.095857 
L 171.7033 -101.915313 
L 170.904864 -101.714506 
L 170.106428 -101.489502 
L 169.307992 -101.233755 
L 168.509555 -100.930198 
L 167.711119 -100.578796 
L 166.912683 -100.182411 
L 166.114247 -99.743905 
L 165.31581 -99.26614 
L 164.517374 -98.751978 
L 163.718938 -98.20428 
L 162.920502 -97.625908 
L 162.122066 -97.019726 
L 161.323629 -96.388594 
L 160.525193 -95.735374 
L 159.726757 -95.062928 
L 158.928321 -94.374119 
L 158.129885 -93.671809 
L 157.331448 -92.939536 
L 156.533012 -92.091234 
L 155.734576 -91.132655 
L 154.93614 -90.083042 
L 154.137704 -88.961636 
L 153.339267 -87.787681 
L 152.540831 -86.580417 
L 151.742395 -85.359086 
L 150.943959 -84.142931 
L 150.145523 -82.951193 
L 149.347086 -81.803114 
L 148.54865 -80.717935 
L 147.750214 -79.7149 
L 146.951778 -78.813249 
L 146.153341 -78.032225 
L 145.354905 -77.371933 
L 144.556469 -76.762759 
L 143.758033 -76.192201 
L 142.959597 -75.655627 
L 142.16116 -75.148403 
L 141.362724 -74.665897 
L 140.564288 -74.203476 
L 139.765852 -73.756506 
L 138.967416 -73.320355 
L 138.168979 -72.89039 
L 137.370543 -72.461978 
L 136.572107 -72.030486 
L 135.773671 -71.591281 
L 134.975235 -71.139731 
L 134.176798 -70.671201 
L 133.378362 -70.177032 
L 132.579926 -69.644902 
L 131.78149 -69.082359 
L 130.983053 -68.498396 
L 130.184617 -67.902009 
L 129.386181 -67.30219 
L 128.587745 -66.707933 
L 127.789309 -66.128232 
L 126.990872 -65.572082 
L 126.192436 -65.048475 
L 125.394 -64.566406 
L 124.595564 -64.134869 
L 123.797128 -63.762857 
L 122.998691 -63.459364 
L 122.200255 -63.233385 
L 121.401819 -63.077527 
L 120.603383 -62.947384 
L 119.804947 -62.836836 
L 119.00651 -62.742587 
L 118.208074 -62.661344 
L 117.409638 -62.589811 
L 116.611202 -62.524695 
L 115.812766 -62.462699 
L 115.014329 -62.40053 
L 114.215893 -62.334893 
L 113.417457 -62.262493 
L 112.619021 -62.180036 
L 111.820584 -62.084227 
L 111.022148 -61.971771 
L 110.223712 -61.839373 
L 109.425276 -61.673678 
L 108.62684 -61.45187 
L 107.828403 -61.179369 
L 107.029967 -60.86282 
L 106.231531 -60.508864 
L 105.433095 -60.124147 
L 104.634659 -59.71531 
L 103.836222 -59.288997 
L 103.037786 -58.851851 
L 102.23935 -58.410515 
L 101.440914 -57.971633 
L 100.642478 -57.541848 
L 99.844041 -57.127802 
L 99.045605 -56.73614 
L 98.247169 -56.373504 
L 97.448733 -56.026883 
L 96.650296 -55.661663 
L 95.85186 -55.281937 
L 95.053424 -54.893015 
L 94.254988 -54.50021 
L 93.456552 -54.108833 
L 92.658115 -53.724195 
L 91.859679 -53.351609 
L 91.061243 -52.996385 
L 90.262807 -52.663835 
L 89.464371 -52.35927 
L 88.665934 -52.088003 
L 87.867498 -51.855344 
L 87.069062 -51.666606 
L 86.270626 -51.527099 
L 85.47219 -51.426982 
L 84.673753 -51.341085 
L 83.875317 -51.266988 
L 83.076881 -51.202713 
L 82.278445 -51.146283 
L 81.480009 -51.095722 
L 80.681572 -51.049052 
L 79.883136 -51.004298 
L 79.0847 -50.959481 
L 78.286264 -50.912624 
L 77.487827 -50.861752 
L 76.689391 -50.804887 
L 75.890955 -50.740052 
L 75.092519 -50.665271 
L 74.294083 -50.578566 
L 73.495646 -50.475738 
L 72.69721 -50.353636 
L 71.898774 -50.213674 
L 71.100338 -50.057299 
L 70.301902 -49.88596 
L 69.503465 -49.701103 
L 68.705029 -49.504177 
L 67.906593 -49.296629 
L 67.108157 -49.079907 
L 66.309721 -48.855458 
L 65.511284 -48.624731 
L 64.712848 -48.389173 
L 63.914412 -48.150231 
L 63.115976 -47.909353 
L 62.317539 -47.667987 
L 61.519103 -47.420699 
L 60.720667 -47.159993 
L 59.922231 -46.886356 
L 59.123795 -46.600298 
L 58.325358 -46.302325 
L 57.526922 -45.992946 
L 56.728486 -45.672668 
L 55.93005 -45.342 
L 55.131614 -45.001449 
L 54.333177 -44.651523 
L 53.534741 -44.29273 
L 52.736305 -43.925577 
L 51.937869 -43.550573 
L 51.139433 -43.168225 
L 50.340996 -42.779041 
z
" style="stroke: #ff7f0e; stroke-opacity: 0.7"/>
    </defs>
    <g clip-path="url(#p5e32d61e80)">
     <use xlink:href="#m965878e7b9" x="0" y="217.533125" style="fill: #ff7f0e; fill-opacity: 0.7; stroke: #ff7f0e; stroke-opacity: 0.7"/>
    </g>
   </g>
   <g id="patch_3">
    <path d="M 38.404375 183.13 
L 38.404375 9.45 
" style="fill: none; stroke: #000000; stroke-width: 0.5; stroke-linejoin: miter; stroke-linecap: square"/>
   </g>
   <g id="patch_4">
    <path d="M 38.404375 183.13 
L 301.010044 183.13 
" style="fill: none; stroke: #000000; stroke-width: 0.5; stroke-linejoin: miter; stroke-linecap: square"/>
   </g>
   <g id="legend_1">
    <g id="patch_5">
     <path d="M 47.404375 25.95 
L 67.404375 25.95 
L 67.404375 18.95 
L 47.404375 18.95 
z
" style="fill: #d62728; fill-opacity: 0.7; stroke: #d62728; stroke-opacity: 0.7; stroke-linejoin: miter"/>
    </g>
    <g id="text_17">
     <!-- Solo -->
     <g transform="translate(75.404375 25.95) scale(0.1 -0.1)">
      <defs>
       <path id="RobotoCondensed-Regular-53" d="M 2481 1150 
Q 2481 1469 2312 1656 
Q 2144 1844 1591 2042 
Q 1038 2241 713 2547 
Q 388 2853 388 3375 
Q 388 3906 741 4259 
Q 1094 4613 1691 4613 
Q 2356 4613 2706 4191 
Q 3056 3769 3056 3238 
L 2481 3238 
Q 2481 3619 2293 3869 
Q 2106 4119 1691 4119 
Q 1313 4119 1139 3908 
Q 966 3697 966 3381 
Q 966 3094 1170 2903 
Q 1375 2713 1806 2556 
Q 2475 2338 2765 2013 
Q 3056 1688 3056 1156 
Q 3056 600 2695 268 
Q 2334 -63 1719 -63 
Q 1363 -63 1028 93 
Q 694 250 480 558 
Q 266 866 266 1319 
L 841 1319 
Q 841 853 1098 640 
Q 1356 428 1719 428 
Q 2094 428 2287 623 
Q 2481 819 2481 1150 
z
" transform="scale(0.015625)"/>
       <path id="RobotoCondensed-Regular-6c" d="M 1009 4800 
L 1009 0 
L 459 0 
L 459 4800 
L 1009 4800 
z
" transform="scale(0.015625)"/>
      </defs>
      <use xlink:href="#RobotoCondensed-Regular-53"/>
      <use xlink:href="#RobotoCondensed-Regular-6f" transform="translate(51.855469 0)"/>
      <use xlink:href="#RobotoCondensed-Regular-6c" transform="translate(102.050781 0)"/>
      <use xlink:href="#RobotoCondensed-Regular-6f" transform="translate(125 0)"/>
     </g>
    </g>
    <g id="patch_6">
     <path d="M 47.404375 40.48125 
L 67.404375 40.48125 
L 67.404375 33.48125 
L 47.404375 33.48125 
z
" style="fill: #1f77b4; fill-opacity: 0.7; stroke: #1f77b4; stroke-opacity: 0.7; stroke-linejoin: miter"/>
    </g>
    <g id="text_18">
     <!-- Initial -->
     <g transform="translate(75.404375 40.48125) scale(0.1 -0.1)">
      <defs>
       <path id="RobotoCondensed-Regular-49" d="M 1091 4550 
L 1091 0 
L 516 0 
L 516 4550 
L 1091 4550 
z
" transform="scale(0.015625)"/>
      </defs>
      <use xlink:href="#RobotoCondensed-Regular-49"/>
      <use xlink:href="#RobotoCondensed-Regular-6e" transform="translate(25 0)"/>
      <use xlink:href="#RobotoCondensed-Regular-69" transform="translate(73.4375 0)"/>
      <use xlink:href="#RobotoCondensed-Regular-74" transform="translate(96.386719 0)"/>
      <use xlink:href="#RobotoCondensed-Regular-69" transform="translate(125.976562 0)"/>
      <use xlink:href="#RobotoCondensed-Regular-61" transform="translate(148.925781 0)"/>
      <use xlink:href="#RobotoCondensed-Regular-6c" transform="translate(196.826172 0)"/>
     </g>
    </g>
    <g id="patch_7">
     <path d="M 47.404375 55.0125 
L 67.404375 55.0125 
L 67.404375 48.0125 
L 47.404375 48.0125 
z
" style="fill: #2ca02c; fill-opacity: 0.7; stroke: #2ca02c; stroke-opacity: 0.7; stroke-linejoin: miter"/>
    </g>
    <g id="text_19">
     <!-- Middle -->
     <g transform="translate(75.404375 55.0125) scale(0.1 -0.1)">
      <defs>
       <path id="RobotoCondensed-Regular-4d" d="M 2419 841 
L 3606 4550 
L 4341 4550 
L 4341 0 
L 3769 0 
L 3769 1775 
L 3822 3538 
L 2634 0 
L 2197 0 
L 1009 3544 
L 1063 1775 
L 1063 0 
L 491 0 
L 491 4550 
L 1228 4550 
L 2419 841 
z
" transform="scale(0.015625)"/>
       <path id="RobotoCondensed-Regular-64" d="M 2234 0 
L 2209 366 
Q 1941 -63 1425 -63 
Q 925 -63 611 331 
Q 297 725 297 1528 
L 297 1844 
Q 297 2678 609 3061 
Q 922 3444 1431 3444 
Q 1922 3444 2188 3050 
L 2188 4800 
L 2738 4800 
L 2738 0 
L 2234 0 
z
M 850 1528 
Q 850 963 1019 695 
Q 1188 428 1569 428 
Q 1981 428 2188 847 
L 2188 2544 
Q 1972 2956 1575 2956 
Q 1194 2956 1023 2687 
Q 853 2419 850 1866 
L 850 1528 
z
" transform="scale(0.015625)"/>
      </defs>
      <use xlink:href="#RobotoCondensed-Regular-4d"/>
      <use xlink:href="#RobotoCondensed-Regular-69" transform="translate(75.537109 0)"/>
      <use xlink:href="#RobotoCondensed-Regular-64" transform="translate(98.486328 0)"/>
      <use xlink:href="#RobotoCondensed-Regular-64" transform="translate(148.095703 0)"/>
      <use xlink:href="#RobotoCondensed-Regular-6c" transform="translate(197.705078 0)"/>
      <use xlink:href="#RobotoCondensed-Regular-65" transform="translate(220.654297 0)"/>
     </g>
    </g>
    <g id="patch_8">
     <path d="M 47.404375 69.54375 
L 67.404375 69.54375 
L 67.404375 62.54375 
L 47.404375 62.54375 
z
" style="fill: #ff7f0e; fill-opacity: 0.7; stroke: #ff7f0e; stroke-opacity: 0.7; stroke-linejoin: miter"/>
    </g>
    <g id="text_20">
     <!-- End -->
     <g transform="translate(75.404375 69.54375) scale(0.1 -0.1)">
      <defs>
       <path id="RobotoCondensed-Regular-45" d="M 491 0 
L 491 4550 
L 2906 4550 
L 2906 4056 
L 1066 4056 
L 1066 2594 
L 2672 2594 
L 2672 2103 
L 1066 2103 
L 1066 491 
L 2938 491 
L 2938 0 
L 491 0 
z
" transform="scale(0.015625)"/>
      </defs>
      <use xlink:href="#RobotoCondensed-Regular-45"/>
      <use xlink:href="#RobotoCondensed-Regular-6e" transform="translate(49.707031 0)"/>
      <use xlink:href="#RobotoCondensed-Regular-64" transform="translate(98.144531 0)"/>
     </g>
    </g>
   </g>
  </g>
 </g>
 <defs>
  <clipPath id="p5e32d61e80">
   <rect x="38.404375" y="9.45" width="262.605669" height="173.68"/>
  </clipPath>
 </defs>
</svg>
