<?xml version="1.0" encoding="utf-8" standalone="no"?>
<!DOCTYPE svg PUBLIC "-//W3C//DTD SVG 1.1//EN"
  "http://www.w3.org/Graphics/SVG/1.1/DTD/svg11.dtd">
<svg xmlns:xlink="http://www.w3.org/1999/xlink" width="313.747544pt" height="216.6575pt" viewBox="0 0 313.747544 216.6575" xmlns="http://www.w3.org/2000/svg" version="1.1">
 <metadata>
  <rdf:RDF xmlns:dc="http://purl.org/dc/elements/1.1/" xmlns:cc="http://creativecommons.org/ns#" xmlns:rdf="http://www.w3.org/1999/02/22-rdf-syntax-ns#">
   <cc:Work>
    <dc:type rdf:resource="http://purl.org/dc/dcmitype/StillImage"/>
    <dc:date>2026-04-28T10:24:40.899257</dc:date>
    <dc:format>image/svg+xml</dc:format>
    <dc:creator>
     <cc:Agent>
      <dc:title>Matplotlib v3.10.7, https://matplotlib.org/</dc:title>
     </cc:Agent>
    </dc:creator>
   </cc:Work>
  </rdf:RDF>
 </metadata>
 <defs>
  <style type="text/css">*{stroke-linejoin: round; stroke-linecap: butt}</style>
 </defs>
 <g id="figure_1">
  <g id="patch_1">
   <path d="M 0 216.6575 
L 313.747544 216.6575 
L 313.747544 -0 
L 0 -0 
z
" style="fill: #ffffff"/>
  </g>
  <g id="axes_1">
   <g id="patch_2">
    <path d="M 27.62875 196.73875 
L 300.624419 196.73875 
L 300.624419 19.5125 
L 27.62875 19.5125 
z
" style="fill: #ffffff"/>
   </g>
   <g id="matplotlib.axis_1">
    <g id="xtick_1">
     <g id="line2d_1">
      <defs>
       <path id="m3dfa7f94f5" d="M 0 0 
L 0 3.5 
" style="stroke: #000000; stroke-width: 0.8"/>
      </defs>
      <g>
       <use xlink:href="#m3dfa7f94f5" x="40.037644" y="196.73875" style="stroke: #000000; stroke-width: 0.8"/>
      </g>
     </g>
     <g id="text_1">
      <!-- 1989 -->
      <g transform="translate(34.114519 208.23875) scale(0.06 -0.06)">
       <defs>
        <path id="RobotoCondensed-Regular-31" d="M 2013 4575 
L 2013 0 
L 1459 0 
L 1459 3853 
L 503 3428 
L 503 3950 
L 1928 4575 
L 2013 4575 
z
" transform="scale(0.015625)"/>
        <path id="RobotoCondensed-Regular-39" d="M 2744 2563 
Q 2744 2119 2687 1667 
Q 2631 1216 2450 836 
Q 2269 456 1903 225 
Q 1538 -6 869 -6 
L 866 484 
Q 1428 484 1698 690 
Q 1969 897 2072 1233 
Q 2175 1569 2191 1950 
Q 1859 1522 1413 1522 
Q 1025 1522 786 1747 
Q 547 1972 436 2320 
Q 325 2669 325 3041 
Q 325 3691 623 4152 
Q 922 4613 1522 4613 
Q 1969 4613 2237 4344 
Q 2506 4075 2625 3653 
Q 2744 3231 2744 2772 
L 2744 2563 
z
M 866 3072 
Q 866 2666 1020 2334 
Q 1175 2003 1506 2003 
Q 1716 2003 1906 2179 
Q 2097 2356 2194 2616 
L 2194 2850 
Q 2194 3472 1983 3803 
Q 1772 4134 1522 4134 
Q 1206 4134 1036 3829 
Q 866 3525 866 3072 
z
" transform="scale(0.015625)"/>
        <path id="RobotoCondensed-Regular-38" d="M 2794 1231 
Q 2794 606 2445 271 
Q 2097 -63 1578 -63 
Q 1063 -63 714 273 
Q 366 609 366 1231 
Q 366 1613 536 1905 
Q 706 2197 1000 2347 
Q 450 2666 450 3366 
Q 450 3963 769 4288 
Q 1088 4613 1581 4613 
Q 2075 4613 2392 4288 
Q 2709 3963 2709 3366 
Q 2709 3028 2557 2761 
Q 2406 2494 2150 2344 
Q 2444 2194 2619 1901 
Q 2794 1609 2794 1231 
z
M 2156 3356 
Q 2156 3697 2000 3917 
Q 1844 4138 1581 4138 
Q 1319 4138 1161 3927 
Q 1003 3716 1003 3356 
Q 1003 3003 1159 2790 
Q 1316 2578 1581 2578 
Q 1844 2578 2000 2790 
Q 2156 3003 2156 3356 
z
M 2244 1244 
Q 2244 1625 2061 1865 
Q 1878 2106 1575 2106 
Q 1266 2106 1091 1865 
Q 916 1625 916 1244 
Q 916 850 1089 631 
Q 1263 413 1578 413 
Q 1897 413 2070 631 
Q 2244 850 2244 1244 
z
" transform="scale(0.015625)"/>
       </defs>
       <use xlink:href="#RobotoCondensed-Regular-31"/>
       <use xlink:href="#RobotoCondensed-Regular-39" transform="translate(49.365234 0)"/>
       <use xlink:href="#RobotoCondensed-Regular-38" transform="translate(98.730469 0)"/>
       <use xlink:href="#RobotoCondensed-Regular-39" transform="translate(148.095703 0)"/>
      </g>
     </g>
    </g>
    <g id="xtick_2">
     <g id="line2d_2">
      <g>
       <use xlink:href="#m3dfa7f94f5" x="77.264326" y="196.73875" style="stroke: #000000; stroke-width: 0.8"/>
      </g>
     </g>
     <g id="text_2">
      <!-- 1992 -->
      <g transform="translate(71.341201 208.23875) scale(0.06 -0.06)">
       <defs>
        <path id="RobotoCondensed-Regular-32" d="M 2909 475 
L 2909 0 
L 366 0 
L 366 416 
L 1628 2088 
Q 1966 2541 2077 2802 
Q 2188 3063 2188 3328 
Q 2188 3663 2027 3900 
Q 1866 4138 1575 4138 
Q 1194 4138 1022 3878 
Q 850 3619 850 3213 
L 297 3213 
Q 297 3788 617 4200 
Q 938 4613 1575 4613 
Q 2125 4613 2433 4278 
Q 2741 3944 2741 3397 
Q 2741 2997 2541 2594 
Q 2341 2191 2047 1809 
L 1028 475 
L 2909 475 
z
" transform="scale(0.015625)"/>
       </defs>
       <use xlink:href="#RobotoCondensed-Regular-31"/>
       <use xlink:href="#RobotoCondensed-Regular-39" transform="translate(49.365234 0)"/>
       <use xlink:href="#RobotoCondensed-Regular-39" transform="translate(98.730469 0)"/>
       <use xlink:href="#RobotoCondensed-Regular-32" transform="translate(148.095703 0)"/>
      </g>
     </g>
    </g>
    <g id="xtick_3">
     <g id="line2d_3">
      <g>
       <use xlink:href="#m3dfa7f94f5" x="114.491008" y="196.73875" style="stroke: #000000; stroke-width: 0.8"/>
      </g>
     </g>
     <g id="text_3">
      <!-- 1995 -->
      <g transform="translate(108.567883 208.23875) scale(0.06 -0.06)">
       <defs>
        <path id="RobotoCondensed-Regular-35" d="M 1034 2166 
L 594 2284 
L 788 4550 
L 2769 4550 
L 2769 4016 
L 1253 4016 
L 1147 2778 
Q 1438 2975 1753 2975 
Q 2288 2975 2591 2561 
Q 2894 2147 2894 1450 
Q 2894 797 2584 367 
Q 2275 -63 1656 -63 
Q 1194 -63 850 248 
Q 506 559 453 1197 
L 975 1197 
Q 1066 413 1656 413 
Q 1978 413 2159 691 
Q 2341 969 2341 1444 
Q 2341 1872 2153 2164 
Q 1966 2456 1619 2456 
Q 1384 2456 1273 2378 
Q 1163 2300 1034 2166 
z
" transform="scale(0.015625)"/>
       </defs>
       <use xlink:href="#RobotoCondensed-Regular-31"/>
       <use xlink:href="#RobotoCondensed-Regular-39" transform="translate(49.365234 0)"/>
       <use xlink:href="#RobotoCondensed-Regular-39" transform="translate(98.730469 0)"/>
       <use xlink:href="#RobotoCondensed-Regular-35" transform="translate(148.095703 0)"/>
      </g>
     </g>
    </g>
    <g id="xtick_4">
     <g id="line2d_4">
      <g>
       <use xlink:href="#m3dfa7f94f5" x="151.717691" y="196.73875" style="stroke: #000000; stroke-width: 0.8"/>
      </g>
     </g>
     <g id="text_4">
      <!-- 1998 -->
      <g transform="translate(145.794566 208.23875) scale(0.06 -0.06)">
       <use xlink:href="#RobotoCondensed-Regular-31"/>
       <use xlink:href="#RobotoCondensed-Regular-39" transform="translate(49.365234 0)"/>
       <use xlink:href="#RobotoCondensed-Regular-39" transform="translate(98.730469 0)"/>
       <use xlink:href="#RobotoCondensed-Regular-38" transform="translate(148.095703 0)"/>
      </g>
     </g>
    </g>
    <g id="xtick_5">
     <g id="line2d_5">
      <g>
       <use xlink:href="#m3dfa7f94f5" x="188.944373" y="196.73875" style="stroke: #000000; stroke-width: 0.8"/>
      </g>
     </g>
     <g id="text_5">
      <!-- 2001 -->
      <g transform="translate(183.021248 208.23875) scale(0.06 -0.06)">
       <defs>
        <path id="RobotoCondensed-Regular-30" d="M 2797 1944 
Q 2797 825 2467 381 
Q 2138 -63 1581 -63 
Q 1038 -63 703 370 
Q 369 803 359 1878 
L 359 2638 
Q 359 3753 695 4183 
Q 1031 4613 1578 4613 
Q 2131 4613 2461 4189 
Q 2791 3766 2797 2681 
L 2797 1944 
z
M 2247 2734 
Q 2247 3503 2073 3822 
Q 1900 4141 1578 4141 
Q 1266 4141 1092 3833 
Q 919 3525 913 2791 
L 913 1850 
Q 913 1088 1089 750 
Q 1266 413 1581 413 
Q 1903 413 2072 738 
Q 2241 1063 2247 1794 
L 2247 2734 
z
" transform="scale(0.015625)"/>
       </defs>
       <use xlink:href="#RobotoCondensed-Regular-32"/>
       <use xlink:href="#RobotoCondensed-Regular-30" transform="translate(49.365234 0)"/>
       <use xlink:href="#RobotoCondensed-Regular-30" transform="translate(98.730469 0)"/>
       <use xlink:href="#RobotoCondensed-Regular-31" transform="translate(148.095703 0)"/>
      </g>
     </g>
    </g>
    <g id="xtick_6">
     <g id="line2d_6">
      <g>
       <use xlink:href="#m3dfa7f94f5" x="226.171055" y="196.73875" style="stroke: #000000; stroke-width: 0.8"/>
      </g>
     </g>
     <g id="text_6">
      <!-- 2004 -->
      <g transform="translate(220.24793 208.23875) scale(0.06 -0.06)">
       <defs>
        <path id="RobotoCondensed-Regular-34" d="M 188 1397 
L 1878 4550 
L 2463 4550 
L 2463 1531 
L 2969 1531 
L 2969 1056 
L 2463 1056 
L 2463 0 
L 1909 0 
L 1909 1056 
L 188 1056 
L 188 1397 
z
M 803 1531 
L 1909 1531 
L 1909 3703 
L 1878 3638 
L 803 1531 
z
" transform="scale(0.015625)"/>
       </defs>
       <use xlink:href="#RobotoCondensed-Regular-32"/>
       <use xlink:href="#RobotoCondensed-Regular-30" transform="translate(49.365234 0)"/>
       <use xlink:href="#RobotoCondensed-Regular-30" transform="translate(98.730469 0)"/>
       <use xlink:href="#RobotoCondensed-Regular-34" transform="translate(148.095703 0)"/>
      </g>
     </g>
    </g>
    <g id="xtick_7">
     <g id="line2d_7">
      <g>
       <use xlink:href="#m3dfa7f94f5" x="263.397737" y="196.73875" style="stroke: #000000; stroke-width: 0.8"/>
      </g>
     </g>
     <g id="text_7">
      <!-- 2007 -->
      <g transform="translate(257.474612 208.23875) scale(0.06 -0.06)">
       <defs>
        <path id="RobotoCondensed-Regular-37" d="M 2878 4550 
L 2878 4225 
L 1313 0 
L 731 0 
L 2297 4075 
L 269 4075 
L 269 4550 
L 2878 4550 
z
" transform="scale(0.015625)"/>
       </defs>
       <use xlink:href="#RobotoCondensed-Regular-32"/>
       <use xlink:href="#RobotoCondensed-Regular-30" transform="translate(49.365234 0)"/>
       <use xlink:href="#RobotoCondensed-Regular-30" transform="translate(98.730469 0)"/>
       <use xlink:href="#RobotoCondensed-Regular-37" transform="translate(148.095703 0)"/>
      </g>
     </g>
    </g>
    <g id="xtick_8">
     <g id="line2d_8">
      <g>
       <use xlink:href="#m3dfa7f94f5" x="300.624419" y="196.73875" style="stroke: #000000; stroke-width: 0.8"/>
      </g>
     </g>
     <g id="text_8">
      <!-- 2010 -->
      <g transform="translate(294.701294 208.23875) scale(0.06 -0.06)">
       <use xlink:href="#RobotoCondensed-Regular-32"/>
       <use xlink:href="#RobotoCondensed-Regular-30" transform="translate(49.365234 0)"/>
       <use xlink:href="#RobotoCondensed-Regular-31" transform="translate(98.730469 0)"/>
       <use xlink:href="#RobotoCondensed-Regular-30" transform="translate(148.095703 0)"/>
      </g>
     </g>
    </g>
   </g>
   <g id="matplotlib.axis_2">
    <g id="ytick_1">
     <g id="line2d_9">
      <defs>
       <path id="m16bb9141a5" d="M 0 0 
L -3.5 0 
" style="stroke: #000000; stroke-width: 0.8"/>
      </defs>
      <g>
       <use xlink:href="#m16bb9141a5" x="27.62875" y="181.081373" style="stroke: #000000; stroke-width: 0.8"/>
      </g>
     </g>
     <g id="text_9">
      <!-- 0.989 -->
      <g transform="translate(7.2 183.331373) scale(0.06 -0.06)">
       <defs>
        <path id="RobotoCondensed-Regular-2e" d="M 450 306 
Q 450 453 542 554 
Q 634 656 809 656 
Q 984 656 1076 554 
Q 1169 453 1169 306 
Q 1169 163 1076 62 
Q 984 -38 809 -38 
Q 634 -38 542 62 
Q 450 163 450 306 
z
" transform="scale(0.015625)"/>
       </defs>
       <use xlink:href="#RobotoCondensed-Regular-30"/>
       <use xlink:href="#RobotoCondensed-Regular-2e" transform="translate(49.365234 0)"/>
       <use xlink:href="#RobotoCondensed-Regular-39" transform="translate(75.732422 0)"/>
       <use xlink:href="#RobotoCondensed-Regular-38" transform="translate(125.097656 0)"/>
       <use xlink:href="#RobotoCondensed-Regular-39" transform="translate(174.462891 0)"/>
      </g>
     </g>
    </g>
    <g id="ytick_2">
     <g id="line2d_10">
      <g>
       <use xlink:href="#m16bb9141a5" x="27.62875" y="158.459971" style="stroke: #000000; stroke-width: 0.8"/>
      </g>
     </g>
     <g id="text_10">
      <!-- 0.990 -->
      <g transform="translate(7.2 160.709971) scale(0.06 -0.06)">
       <use xlink:href="#RobotoCondensed-Regular-30"/>
       <use xlink:href="#RobotoCondensed-Regular-2e" transform="translate(49.365234 0)"/>
       <use xlink:href="#RobotoCondensed-Regular-39" transform="translate(75.732422 0)"/>
       <use xlink:href="#RobotoCondensed-Regular-39" transform="translate(125.097656 0)"/>
       <use xlink:href="#RobotoCondensed-Regular-30" transform="translate(174.462891 0)"/>
      </g>
     </g>
    </g>
    <g id="ytick_3">
     <g id="line2d_11">
      <g>
       <use xlink:href="#m16bb9141a5" x="27.62875" y="135.838568" style="stroke: #000000; stroke-width: 0.8"/>
      </g>
     </g>
     <g id="text_11">
      <!-- 0.991 -->
      <g transform="translate(7.2 138.088568) scale(0.06 -0.06)">
       <use xlink:href="#RobotoCondensed-Regular-30"/>
       <use xlink:href="#RobotoCondensed-Regular-2e" transform="translate(49.365234 0)"/>
       <use xlink:href="#RobotoCondensed-Regular-39" transform="translate(75.732422 0)"/>
       <use xlink:href="#RobotoCondensed-Regular-39" transform="translate(125.097656 0)"/>
       <use xlink:href="#RobotoCondensed-Regular-31" transform="translate(174.462891 0)"/>
      </g>
     </g>
    </g>
    <g id="ytick_4">
     <g id="line2d_12">
      <g>
       <use xlink:href="#m16bb9141a5" x="27.62875" y="113.217166" style="stroke: #000000; stroke-width: 0.8"/>
      </g>
     </g>
     <g id="text_12">
      <!-- 0.992 -->
      <g transform="translate(7.2 115.467166) scale(0.06 -0.06)">
       <use xlink:href="#RobotoCondensed-Regular-30"/>
       <use xlink:href="#RobotoCondensed-Regular-2e" transform="translate(49.365234 0)"/>
       <use xlink:href="#RobotoCondensed-Regular-39" transform="translate(75.732422 0)"/>
       <use xlink:href="#RobotoCondensed-Regular-39" transform="translate(125.097656 0)"/>
       <use xlink:href="#RobotoCondensed-Regular-32" transform="translate(174.462891 0)"/>
      </g>
     </g>
    </g>
    <g id="ytick_5">
     <g id="line2d_13">
      <g>
       <use xlink:href="#m16bb9141a5" x="27.62875" y="90.595764" style="stroke: #000000; stroke-width: 0.8"/>
      </g>
     </g>
     <g id="text_13">
      <!-- 0.993 -->
      <g transform="translate(7.2 92.845764) scale(0.06 -0.06)">
       <defs>
        <path id="RobotoCondensed-Regular-33" d="M 1075 2084 
L 1075 2559 
L 1431 2559 
Q 1788 2559 1961 2781 
Q 2134 3003 2134 3338 
Q 2134 4138 1519 4138 
Q 1228 4138 1054 3927 
Q 881 3716 881 3359 
L 331 3359 
Q 331 3881 653 4247 
Q 975 4613 1519 4613 
Q 2038 4613 2363 4286 
Q 2688 3959 2688 3325 
Q 2688 3072 2550 2786 
Q 2413 2500 2100 2338 
Q 2484 2194 2612 1886 
Q 2741 1578 2741 1269 
Q 2741 631 2389 284 
Q 2038 -63 1516 -63 
Q 1006 -63 656 267 
Q 306 597 306 1203 
L 859 1203 
Q 859 844 1032 628 
Q 1206 413 1516 413 
Q 1822 413 2005 622 
Q 2188 831 2188 1256 
Q 2188 2084 1403 2084 
L 1075 2084 
z
" transform="scale(0.015625)"/>
       </defs>
       <use xlink:href="#RobotoCondensed-Regular-30"/>
       <use xlink:href="#RobotoCondensed-Regular-2e" transform="translate(49.365234 0)"/>
       <use xlink:href="#RobotoCondensed-Regular-39" transform="translate(75.732422 0)"/>
       <use xlink:href="#RobotoCondensed-Regular-39" transform="translate(125.097656 0)"/>
       <use xlink:href="#RobotoCondensed-Regular-33" transform="translate(174.462891 0)"/>
      </g>
     </g>
    </g>
    <g id="ytick_6">
     <g id="line2d_14">
      <g>
       <use xlink:href="#m16bb9141a5" x="27.62875" y="67.974362" style="stroke: #000000; stroke-width: 0.8"/>
      </g>
     </g>
     <g id="text_14">
      <!-- 0.994 -->
      <g transform="translate(7.2 70.224362) scale(0.06 -0.06)">
       <use xlink:href="#RobotoCondensed-Regular-30"/>
       <use xlink:href="#RobotoCondensed-Regular-2e" transform="translate(49.365234 0)"/>
       <use xlink:href="#RobotoCondensed-Regular-39" transform="translate(75.732422 0)"/>
       <use xlink:href="#RobotoCondensed-Regular-39" transform="translate(125.097656 0)"/>
       <use xlink:href="#RobotoCondensed-Regular-34" transform="translate(174.462891 0)"/>
      </g>
     </g>
    </g>
    <g id="ytick_7">
     <g id="line2d_15">
      <g>
       <use xlink:href="#m16bb9141a5" x="27.62875" y="45.35296" style="stroke: #000000; stroke-width: 0.8"/>
      </g>
     </g>
     <g id="text_15">
      <!-- 0.995 -->
      <g transform="translate(7.2 47.60296) scale(0.06 -0.06)">
       <use xlink:href="#RobotoCondensed-Regular-30"/>
       <use xlink:href="#RobotoCondensed-Regular-2e" transform="translate(49.365234 0)"/>
       <use xlink:href="#RobotoCondensed-Regular-39" transform="translate(75.732422 0)"/>
       <use xlink:href="#RobotoCondensed-Regular-39" transform="translate(125.097656 0)"/>
       <use xlink:href="#RobotoCondensed-Regular-35" transform="translate(174.462891 0)"/>
      </g>
     </g>
    </g>
    <g id="ytick_8">
     <g id="line2d_16">
      <g>
       <use xlink:href="#m16bb9141a5" x="27.62875" y="22.731557" style="stroke: #000000; stroke-width: 0.8"/>
      </g>
     </g>
     <g id="text_16">
      <!-- 0.996 -->
      <g transform="translate(7.2 24.981557) scale(0.06 -0.06)">
       <defs>
        <path id="RobotoCondensed-Regular-36" d="M 2847 1484 
Q 2847 838 2544 387 
Q 2241 -63 1641 -63 
Q 1216 -63 944 198 
Q 672 459 542 861 
Q 413 1263 413 1684 
L 413 1956 
Q 413 2438 481 2900 
Q 550 3363 742 3738 
Q 934 4113 1296 4334 
Q 1659 4556 2291 4556 
L 2291 4066 
Q 1775 4066 1508 3859 
Q 1241 3653 1122 3318 
Q 1003 2984 978 2606 
Q 1272 2984 1750 2984 
Q 2138 2984 2380 2765 
Q 2622 2547 2734 2201 
Q 2847 1856 2847 1484 
z
M 969 1666 
Q 969 1059 1180 737 
Q 1391 416 1641 416 
Q 1959 416 2129 708 
Q 2300 1000 2300 1456 
Q 2300 1863 2144 2184 
Q 1988 2506 1659 2506 
Q 1425 2506 1236 2329 
Q 1047 2153 969 1900 
L 969 1666 
z
" transform="scale(0.015625)"/>
       </defs>
       <use xlink:href="#RobotoCondensed-Regular-30"/>
       <use xlink:href="#RobotoCondensed-Regular-2e" transform="translate(49.365234 0)"/>
       <use xlink:href="#RobotoCondensed-Regular-39" transform="translate(75.732422 0)"/>
       <use xlink:href="#RobotoCondensed-Regular-39" transform="translate(125.097656 0)"/>
       <use xlink:href="#RobotoCondensed-Regular-36" transform="translate(174.462891 0)"/>
      </g>
     </g>
    </g>
   </g>
   <g id="line2d_17">
    <path d="M 40.037644 155.487428 
L 41.697697 156.143761 
L 43.357749 157.083053 
L 45.017802 158.269641 
L 47.507881 160.435193 
L 49.99796 162.956561 
L 52.488039 165.713824 
L 53.318066 166.847834 
L 54.148092 168.286938 
L 55.808145 171.851172 
L 60.788303 183.905373 
L 61.618329 185.51115 
L 62.448356 186.848871 
L 63.278382 187.86122 
L 64.108408 188.490883 
L 64.938435 188.677626 
L 65.768461 188.059331 
L 66.598488 186.511822 
L 67.428514 184.173732 
L 68.25854 181.183693 
L 69.918593 173.802292 
L 74.068725 153.643905 
L 74.898751 150.429017 
L 75.728777 147.809866 
L 76.558804 145.925084 
L 77.38883 144.902389 
L 79.878909 143.013275 
L 82.368988 141.439715 
L 84.029041 140.597963 
L 85.689094 139.944427 
L 87.349146 139.498296 
L 89.009199 139.278756 
L 89.839226 139.270214 
L 90.669252 139.655064 
L 91.499278 140.528192 
L 92.329305 141.811784 
L 93.159331 143.428026 
L 94.819384 147.347211 
L 98.139489 155.753618 
L 98.969516 157.51965 
L 99.799542 158.995829 
L 100.629568 160.104341 
L 101.459595 160.767374 
L 102.289621 160.883391 
L 103.119647 159.917922 
L 103.949674 157.806632 
L 104.7797 154.722164 
L 105.609726 150.837161 
L 107.269779 141.356119 
L 111.419911 115.729134 
L 112.249937 111.654985 
L 113.079964 108.334085 
L 113.90999 105.939077 
L 114.740016 104.588589 
L 117.230095 101.620667 
L 118.890148 99.891277 
L 120.550201 98.40531 
L 122.210254 97.200521 
L 123.870306 96.314659 
L 125.530359 95.78548 
L 127.190412 95.647977 
L 128.850464 95.799751 
L 131.340543 96.329982 
L 137.150728 97.800474 
L 138.810781 97.977506 
L 139.640807 97.94522 
L 140.470833 97.480815 
L 141.30086 96.563602 
L 142.130886 95.263514 
L 142.960913 93.650481 
L 144.620965 89.76531 
L 147.941071 81.316638 
L 149.601123 77.872046 
L 150.43115 76.589448 
L 151.261176 75.693224 
L 152.921229 74.800126 
L 156.241334 73.375219 
L 158.731413 72.555619 
L 161.221492 72.003581 
L 162.881545 71.808229 
L 165.371624 71.789444 
L 168.69173 72.054316 
L 175.33194 72.68935 
L 176.991993 72.668876 
L 177.82202 72.368875 
L 178.652046 71.823898 
L 179.482072 71.075292 
L 181.142125 69.132574 
L 185.292257 63.60649 
L 186.122283 62.717306 
L 186.95231 61.996608 
L 187.782336 61.485742 
L 188.612362 61.226054 
L 189.442389 61.220315 
L 191.102441 61.518086 
L 192.762494 62.09201 
L 196.082599 63.615139 
L 198.572679 64.639768 
L 200.232731 65.054373 
L 201.062758 65.138646 
L 201.892784 65.073064 
L 202.72281 64.701486 
L 203.552837 64.053006 
L 204.382863 63.172109 
L 206.042916 60.890999 
L 211.023074 53.096014 
L 211.8531 52.125152 
L 212.683127 51.366716 
L 213.513153 50.86519 
L 216.833258 49.860736 
L 220.153364 49.085184 
L 222.643443 48.688916 
L 225.133522 48.485902 
L 227.623601 48.53842 
L 230.11368 48.934979 
L 234.263812 49.976031 
L 237.583917 50.726642 
L 240.073996 51.038613 
L 245.884181 51.464425 
L 250.034313 51.865487 
L 251.694365 52.157639 
L 253.354418 52.826628 
L 255.014471 53.815103 
L 261.654682 58.269 
L 263.314734 58.833759 
L 268.294893 59.68956 
L 272.445024 60.156736 
L 275.76513 60.28904 
L 277.425183 60.165461 
L 279.085235 59.800863 
L 280.745288 59.22435 
L 282.405341 58.465088 
L 284.89542 57.047342 
L 288.215525 54.789615 
L 288.215525 54.789615 
" clip-path="url(#p8ec2dc789d)" style="fill: none; stroke-dasharray: 2,3.3; stroke-dashoffset: 0; stroke: #000000; stroke-width: 2"/>
   </g>
   <g id="line2d_18">
    <path d="M 40.037644 160.60527 
L 52.446538 153.953418 
L 64.855432 147.301567 
L 77.264326 140.649715 
L 89.67322 133.997864 
L 102.082114 127.346012 
L 114.491008 120.69416 
L 126.899902 114.042309 
L 139.308797 107.390457 
L 151.717691 100.738606 
L 164.126585 94.086754 
L 176.535479 87.434903 
L 188.944373 80.783051 
L 201.353267 74.1312 
L 213.762161 67.479348 
L 226.171055 60.827496 
L 238.579949 54.175645 
L 250.988843 47.523793 
L 263.397737 40.871942 
L 275.806631 34.22009 
L 288.215525 27.568239 
" clip-path="url(#p8ec2dc789d)" style="fill: none; stroke: #000000; stroke-opacity: 0.7; stroke-linecap: square"/>
   </g>
   <g id="line2d_19">
    <path d="M 40.037644 134.879638 
L 42.527723 133.724757 
L 45.847829 131.904482 
L 49.167934 129.812293 
L 52.488039 127.501012 
L 54.148092 126.024664 
L 55.808145 124.160771 
L 59.958277 119.131663 
L 61.618329 117.502723 
L 62.448356 116.8713 
L 63.278382 116.395587 
L 64.108408 116.100845 
L 64.938435 116.012 
L 65.768461 116.106583 
L 66.598488 116.346366 
L 68.25854 117.193422 
L 69.918593 118.416951 
L 72.408672 120.660158 
L 75.728777 123.697403 
L 77.38883 124.93106 
L 79.878909 126.79749 
L 84.029041 130.104963 
L 85.689094 131.200299 
L 87.349146 132.013053 
L 89.009199 132.441561 
L 89.839226 132.46291 
L 90.669252 131.805568 
L 91.499278 130.314229 
L 92.329305 128.121799 
L 93.159331 125.361188 
L 94.819384 118.66705 
L 98.139489 104.308547 
L 98.969516 101.292087 
L 99.799542 98.77071 
L 100.629568 96.877324 
L 101.459595 95.744836 
L 102.289621 95.486412 
L 103.119647 95.752866 
L 103.949674 96.333265 
L 104.7797 97.177176 
L 106.439753 99.453803 
L 111.419911 107.362949 
L 112.249937 108.308987 
L 113.079964 109.014208 
L 113.90999 109.428178 
L 114.740016 109.500522 
L 115.570043 109.206604 
L 116.400069 108.577515 
L 117.230095 107.651259 
L 118.060122 106.46584 
L 119.720174 103.469536 
L 121.380227 99.892642 
L 125.530359 90.405575 
L 129.680491 81.880354 
L 134.660649 70.540756 
L 136.320702 67.558859 
L 137.150728 66.37463 
L 137.980754 65.44143 
L 138.810781 64.794169 
L 140.470833 64.185778 
L 142.960913 63.606825 
L 147.111044 62.985394 
L 150.43115 62.433812 
L 152.921229 61.762864 
L 155.411308 60.752862 
L 162.051519 57.727783 
L 163.711571 57.206894 
L 167.031677 56.548328 
L 172.011835 55.845182 
L 176.991993 55.102172 
L 180.312099 54.334763 
L 185.292257 53.143896 
L 187.782336 52.812973 
L 189.442389 52.83677 
L 190.272415 53.226539 
L 191.102441 53.933585 
L 191.932468 54.921291 
L 192.762494 56.153044 
L 194.422547 59.202222 
L 196.912626 64.690943 
L 200.232731 72.179299 
L 202.72281 77.196217 
L 204.382863 81.190539 
L 208.532995 91.658277 
L 210.193048 95.074009 
L 211.023074 96.432937 
L 211.8531 97.498025 
L 212.683127 98.223362 
L 213.513153 98.563035 
L 214.343179 98.485833 
L 215.173206 98.0369 
L 216.003232 97.272117 
L 216.833258 96.246179 
L 218.493311 93.629602 
L 222.643443 86.346394 
L 223.473469 85.200131 
L 224.303496 84.284945 
L 225.133522 83.655526 
L 225.963548 83.366568 
L 226.793575 83.464586 
L 227.623601 83.928579 
L 228.453627 84.70432 
L 229.283654 85.737355 
L 230.943707 88.357495 
L 235.093838 95.598726 
L 235.923865 96.729779 
L 236.753891 97.628041 
L 237.583917 98.239059 
L 238.413944 98.508379 
L 239.24397 98.467689 
L 240.073996 98.277611 
L 241.734049 97.523332 
L 243.394102 96.369007 
L 245.054155 94.933182 
L 261.654682 79.268396 
L 263.314734 77.986267 
L 266.63484 75.798085 
L 269.954945 73.86437 
L 274.105077 71.7067 
L 279.085235 69.353435 
L 284.065393 67.247637 
L 288.215525 65.723285 
L 288.215525 65.723285 
" clip-path="url(#p8ec2dc789d)" style="fill: none; stroke-dasharray: 12.8,3.2,2,3.2; stroke-dashoffset: 0; stroke: #000000; stroke-width: 2"/>
   </g>
   <g id="line2d_20">
    <path d="M 40.037644 117.178555 
L 52.446538 114.407681 
L 64.855432 111.636806 
L 77.264326 108.865932 
L 89.67322 106.095057 
L 102.082114 103.324183 
L 114.491008 100.553308 
L 126.899902 97.782434 
L 139.308797 95.011559 
L 151.717691 92.240685 
L 164.126585 89.46981 
L 176.535479 86.698936 
L 188.944373 83.928061 
L 201.353267 81.157187 
L 213.762161 78.386312 
L 226.171055 75.615438 
L 238.579949 72.844563 
L 250.988843 70.073689 
L 263.397737 67.302814 
L 275.806631 64.53194 
L 288.215525 61.761065 
" clip-path="url(#p8ec2dc789d)" style="fill: none; stroke: #000000; stroke-opacity: 0.7; stroke-linecap: square"/>
   </g>
   <g id="text_17">
    <!-- Berger-Parker (1) -->
    <g transform="translate(135.75096 13.5125) scale(0.08 -0.08)">
     <defs>
      <path id="RobotoCondensed-Bold-42" d="M 3294 1341 
Q 3294 675 2942 339 
Q 2591 3 1884 0 
L 366 0 
L 366 4550 
L 1772 4550 
Q 2453 4550 2839 4245 
Q 3225 3941 3225 3303 
Q 3225 2994 3089 2734 
Q 2953 2475 2653 2344 
Q 3003 2244 3148 1956 
Q 3294 1669 3294 1341 
z
M 1288 3784 
L 1288 2647 
L 1763 2647 
Q 2303 2647 2303 3206 
Q 2303 3772 1794 3784 
L 1288 3784 
z
M 2375 1350 
Q 2375 1963 1941 1981 
L 1288 1981 
L 1288 763 
L 1872 763 
Q 2141 763 2258 930 
Q 2375 1097 2375 1350 
z
" transform="scale(0.015625)"/>
      <path id="RobotoCondensed-Bold-65" d="M 2834 444 
Q 2700 263 2411 100 
Q 2122 -63 1688 -63 
Q 997 -63 620 350 
Q 244 763 244 1497 
L 244 1775 
Q 244 2597 601 3020 
Q 959 3444 1596 3444 
Q 2234 3444 2556 3041 
Q 2878 2638 2884 1831 
L 2884 1397 
L 1131 1397 
Q 1147 994 1305 833 
Q 1463 672 1747 672 
Q 2194 672 2484 978 
L 2834 444 
z
M 1594 2709 
Q 1363 2709 1258 2545 
Q 1153 2381 1134 2016 
L 2019 2016 
L 2019 2094 
Q 2013 2400 1919 2554 
Q 1825 2709 1594 2709 
z
" transform="scale(0.015625)"/>
      <path id="RobotoCondensed-Bold-72" d="M 1700 2553 
Q 1331 2553 1206 2238 
L 1206 0 
L 322 0 
L 322 3381 
L 1156 3381 
L 1181 3016 
Q 1394 3444 1759 3444 
Q 1903 3444 2000 3406 
L 1991 2528 
Q 1834 2553 1700 2553 
z
" transform="scale(0.015625)"/>
      <path id="RobotoCondensed-Bold-67" d="M 1494 -1331 
Q 1259 -1331 945 -1232 
Q 631 -1134 453 -941 
L 750 -328 
Q 872 -450 1067 -536 
Q 1263 -622 1456 -622 
Q 1725 -622 1869 -489 
Q 2013 -356 2013 -3 
L 2013 269 
Q 1756 -63 1353 -63 
Q 819 -63 517 357 
Q 216 778 216 1572 
L 216 1794 
Q 216 2625 517 3034 
Q 819 3444 1359 3444 
Q 1819 3444 2066 3084 
L 2100 3381 
L 2900 3381 
L 2900 0 
Q 2900 -697 2512 -1014 
Q 2125 -1331 1494 -1331 
z
M 1100 1572 
Q 1100 678 1609 678 
Q 1881 678 2013 875 
L 2013 2494 
Q 1878 2706 1615 2706 
Q 1353 2706 1226 2490 
Q 1100 2275 1100 1794 
L 1100 1572 
z
" transform="scale(0.015625)"/>
      <path id="RobotoCondensed-Bold-2d" d="M 1913 2319 
L 1913 1584 
L 384 1584 
L 384 2319 
L 1913 2319 
z
" transform="scale(0.015625)"/>
      <path id="RobotoCondensed-Bold-50" d="M 1288 1600 
L 1288 0 
L 366 0 
L 366 4550 
L 1919 4550 
Q 2606 4550 3001 4123 
Q 3397 3697 3397 3044 
Q 3397 2384 3005 1993 
Q 2613 1603 1928 1600 
L 1288 1600 
z
M 1288 3784 
L 1288 2366 
L 1919 2366 
Q 2206 2366 2336 2555 
Q 2466 2744 2466 3037 
Q 2466 3331 2336 3557 
Q 2206 3784 1919 3784 
L 1288 3784 
z
" transform="scale(0.015625)"/>
      <path id="RobotoCondensed-Bold-61" d="M 1928 0 
Q 1881 106 1853 263 
Q 1613 -63 1209 -63 
Q 800 -63 514 212 
Q 228 488 228 947 
Q 228 1463 559 1764 
Q 891 2066 1572 2066 
L 1809 2066 
L 1809 2338 
Q 1809 2753 1503 2753 
Q 1172 2753 1172 2366 
L 288 2366 
Q 288 2809 623 3126 
Q 959 3444 1528 3444 
Q 2031 3444 2364 3181 
Q 2697 2919 2697 2325 
L 2697 738 
Q 2703 288 2819 53 
L 2819 0 
L 1928 0 
z
M 1409 634 
Q 1553 634 1656 693 
Q 1759 753 1809 834 
L 1809 1538 
L 1600 1538 
Q 1350 1538 1231 1384 
Q 1113 1231 1113 1009 
Q 1113 634 1409 634 
z
" transform="scale(0.015625)"/>
      <path id="RobotoCondensed-Bold-6b" d="M 2063 0 
L 1447 1309 
L 1206 1041 
L 1206 0 
L 322 0 
L 322 4803 
L 1206 4803 
L 1206 2209 
L 1316 2369 
L 1931 3381 
L 2984 3381 
L 2003 1991 
L 3075 0 
L 2063 0 
z
" transform="scale(0.015625)"/>
      <path id="RobotoCondensed-Bold-20" transform="scale(0.015625)"/>
      <path id="RobotoCondensed-Bold-28" d="M 378 1850 
Q 378 2731 592 3390 
Q 806 4050 1118 4472 
Q 1431 4894 1728 5050 
L 1894 4559 
Q 1619 4300 1372 3661 
Q 1125 3022 1119 1919 
L 1119 1772 
Q 1119 628 1367 -23 
Q 1616 -675 1894 -941 
L 1728 -1422 
Q 1431 -1266 1118 -845 
Q 806 -425 592 236 
Q 378 897 378 1850 
z
" transform="scale(0.015625)"/>
      <path id="RobotoCondensed-Bold-31" d="M 2244 4556 
L 2244 0 
L 1359 0 
L 1359 3475 
L 494 3144 
L 494 3881 
L 2150 4556 
L 2244 4556 
z
" transform="scale(0.015625)"/>
      <path id="RobotoCondensed-Bold-29" d="M 1741 1778 
Q 1741 931 1520 265 
Q 1300 -400 975 -833 
Q 650 -1266 341 -1422 
L 175 -941 
Q 447 -681 695 -37 
Q 944 606 950 1709 
L 950 1856 
Q 950 3000 695 3653 
Q 441 4306 175 4569 
L 341 5050 
Q 650 4894 975 4459 
Q 1300 4025 1520 3364 
Q 1741 2703 1741 1778 
z
" transform="scale(0.015625)"/>
     </defs>
     <use xlink:href="#RobotoCondensed-Bold-42"/>
     <use xlink:href="#RobotoCondensed-Bold-65" transform="translate(56.152344 0)"/>
     <use xlink:href="#RobotoCondensed-Bold-72" transform="translate(104.052734 0)"/>
     <use xlink:href="#RobotoCondensed-Bold-67" transform="translate(137.207031 0)"/>
     <use xlink:href="#RobotoCondensed-Bold-65" transform="translate(187.548828 0)"/>
     <use xlink:href="#RobotoCondensed-Bold-72" transform="translate(235.449219 0)"/>
     <use xlink:href="#RobotoCondensed-Bold-2d" transform="translate(268.603516 0)"/>
     <use xlink:href="#RobotoCondensed-Bold-50" transform="translate(304.931641 0)"/>
     <use xlink:href="#RobotoCondensed-Bold-61" transform="translate(361.816406 0)"/>
     <use xlink:href="#RobotoCondensed-Bold-72" transform="translate(408.935547 0)"/>
     <use xlink:href="#RobotoCondensed-Bold-6b" transform="translate(442.089844 0)"/>
     <use xlink:href="#RobotoCondensed-Bold-65" transform="translate(489.941406 0)"/>
     <use xlink:href="#RobotoCondensed-Bold-72" transform="translate(537.841797 0)"/>
     <use xlink:href="#RobotoCondensed-Bold-20" transform="translate(570.996094 0)"/>
     <use xlink:href="#RobotoCondensed-Bold-28" transform="translate(594.042969 0)"/>
     <use xlink:href="#RobotoCondensed-Bold-31" transform="translate(626.367188 0)"/>
     <use xlink:href="#RobotoCondensed-Bold-29" transform="translate(676.953125 0)"/>
    </g>
   </g>
   <g id="PathCollection_1">
    <defs>
     <path id="C0_0_ed613a4beb" d="M -0 4.242641 
L 4.242641 -0 
L 0 -4.242641 
L -4.242641 -0 
z
"/>
    </defs>
    <g clip-path="url(#p8ec2dc789d)">
     <use xlink:href="#C0_0_ed613a4beb" x="40.037644" y="155.487428" style="fill: none; stroke: #000000"/>
    </g>
    <g clip-path="url(#p8ec2dc789d)">
     <use xlink:href="#C0_0_ed613a4beb" x="52.446538" y="165.66616" style="fill: none; stroke: #000000"/>
    </g>
    <g clip-path="url(#p8ec2dc789d)">
     <use xlink:href="#C0_0_ed613a4beb" x="64.855432" y="188.683011" style="fill: none; stroke: #000000"/>
    </g>
    <g clip-path="url(#p8ec2dc789d)">
     <use xlink:href="#C0_0_ed613a4beb" x="77.264326" y="145.003967" style="fill: none; stroke: #000000"/>
    </g>
    <g clip-path="url(#p8ec2dc789d)">
     <use xlink:href="#C0_0_ed613a4beb" x="89.67322" y="139.258685" style="fill: none; stroke: #000000"/>
    </g>
    <g clip-path="url(#p8ec2dc789d)">
     <use xlink:href="#C0_0_ed613a4beb" x="102.082114" y="160.925492" style="fill: none; stroke: #000000"/>
    </g>
    <g clip-path="url(#p8ec2dc789d)">
     <use xlink:href="#C0_0_ed613a4beb" x="114.491008" y="104.905927" style="fill: none; stroke: #000000"/>
    </g>
    <g clip-path="url(#p8ec2dc789d)">
     <use xlink:href="#C0_0_ed613a4beb" x="126.899902" y="95.644183" style="fill: none; stroke: #000000"/>
    </g>
    <g clip-path="url(#p8ec2dc789d)">
     <use xlink:href="#C0_0_ed613a4beb" x="139.308797" y="97.988531" style="fill: none; stroke: #000000"/>
    </g>
    <g clip-path="url(#p8ec2dc789d)">
     <use xlink:href="#C0_0_ed613a4beb" x="151.717691" y="75.390329" style="fill: none; stroke: #000000"/>
    </g>
    <g clip-path="url(#p8ec2dc789d)">
     <use xlink:href="#C0_0_ed613a4beb" x="164.126585" y="71.76262" style="fill: none; stroke: #000000"/>
    </g>
    <g clip-path="url(#p8ec2dc789d)">
     <use xlink:href="#C0_0_ed613a4beb" x="176.535479" y="72.714475" style="fill: none; stroke: #000000"/>
    </g>
    <g clip-path="url(#p8ec2dc789d)">
     <use xlink:href="#C0_0_ed613a4beb" x="188.944373" y="61.20177" style="fill: none; stroke: #000000"/>
    </g>
    <g clip-path="url(#p8ec2dc789d)">
     <use xlink:href="#C0_0_ed613a4beb" x="201.353267" y="65.145029" style="fill: none; stroke: #000000"/>
    </g>
    <g clip-path="url(#p8ec2dc789d)">
     <use xlink:href="#C0_0_ed613a4beb" x="213.762161" y="50.77148" style="fill: none; stroke: #000000"/>
    </g>
    <g clip-path="url(#p8ec2dc789d)">
     <use xlink:href="#C0_0_ed613a4beb" x="226.171055" y="48.465698" style="fill: none; stroke: #000000"/>
    </g>
    <g clip-path="url(#p8ec2dc789d)">
     <use xlink:href="#C0_0_ed613a4beb" x="238.579949" y="50.875053" style="fill: none; stroke: #000000"/>
    </g>
    <g clip-path="url(#p8ec2dc789d)">
     <use xlink:href="#C0_0_ed613a4beb" x="250.988843" y="52.003043" style="fill: none; stroke: #000000"/>
    </g>
    <g clip-path="url(#p8ec2dc789d)">
     <use xlink:href="#C0_0_ed613a4beb" x="263.397737" y="58.850282" style="fill: none; stroke: #000000"/>
    </g>
    <g clip-path="url(#p8ec2dc789d)">
     <use xlink:href="#C0_0_ed613a4beb" x="275.806631" y="60.289062" style="fill: none; stroke: #000000"/>
    </g>
    <g clip-path="url(#p8ec2dc789d)">
     <use xlink:href="#C0_0_ed613a4beb" x="288.215525" y="54.789615" style="fill: none; stroke: #000000"/>
    </g>
   </g>
   <g id="PathCollection_2">
    <defs>
     <path id="m5f0b7ef523" d="M 0 3 
C 0.795609 3 1.55874 2.683901 2.12132 2.12132 
C 2.683901 1.55874 3 0.795609 3 0 
C 3 -0.795609 2.683901 -1.55874 2.12132 -2.12132 
C 1.55874 -2.683901 0.795609 -3 0 -3 
C -0.795609 -3 -1.55874 -2.683901 -2.12132 -2.12132 
C -2.683901 -1.55874 -3 -0.795609 -3 0 
C -3 0.795609 -2.683901 1.55874 -2.12132 2.12132 
C -1.55874 2.683901 -0.795609 3 0 3 
z
" style="stroke: #000000"/>
    </defs>
    <g clip-path="url(#p8ec2dc789d)">
     <use xlink:href="#m5f0b7ef523" x="40.037644" y="134.879638" style="stroke: #000000"/>
     <use xlink:href="#m5f0b7ef523" x="52.446538" y="127.531207" style="stroke: #000000"/>
     <use xlink:href="#m5f0b7ef523" x="64.855432" y="116.011183" style="stroke: #000000"/>
     <use xlink:href="#m5f0b7ef523" x="77.264326" y="124.848219" style="stroke: #000000"/>
     <use xlink:href="#m5f0b7ef523" x="89.67322" y="132.482602" style="stroke: #000000"/>
     <use xlink:href="#m5f0b7ef523" x="102.082114" y="95.474763" style="stroke: #000000"/>
     <use xlink:href="#m5f0b7ef523" x="114.491008" y="109.517657" style="stroke: #000000"/>
     <use xlink:href="#m5f0b7ef523" x="126.899902" y="87.705225" style="stroke: #000000"/>
     <use xlink:href="#m5f0b7ef523" x="139.308797" y="64.557586" style="stroke: #000000"/>
     <use xlink:href="#m5f0b7ef523" x="151.717691" y="62.130685" style="stroke: #000000"/>
     <use xlink:href="#m5f0b7ef523" x="164.126585" y="57.107071" style="stroke: #000000"/>
     <use xlink:href="#m5f0b7ef523" x="176.535479" y="55.184791" style="stroke: #000000"/>
     <use xlink:href="#m5f0b7ef523" x="188.944373" y="52.770433" style="stroke: #000000"/>
     <use xlink:href="#m5f0b7ef523" x="201.353267" y="74.382452" style="stroke: #000000"/>
     <use xlink:href="#m5f0b7ef523" x="213.762161" y="98.582869" style="stroke: #000000"/>
     <use xlink:href="#m5f0b7ef523" x="226.171055" y="83.353934" style="stroke: #000000"/>
     <use xlink:href="#m5f0b7ef523" x="238.579949" y="98.516447" style="stroke: #000000"/>
     <use xlink:href="#m5f0b7ef523" x="250.988843" y="89.299598" style="stroke: #000000"/>
     <use xlink:href="#m5f0b7ef523" x="263.397737" y="77.92776" style="stroke: #000000"/>
     <use xlink:href="#m5f0b7ef523" x="275.806631" y="70.878611" style="stroke: #000000"/>
     <use xlink:href="#m5f0b7ef523" x="288.215525" y="65.723285" style="stroke: #000000"/>
    </g>
   </g>
   <g id="legend_1">
    <g id="patch_3">
     <path d="M 30.62875 41.811875 
L 66.7525 41.811875 
L 66.7525 22.5125 
L 30.62875 22.5125 
z
" style="fill: #ffffff; opacity: 0.8"/>
    </g>
    <g id="line2d_21">
     <path d="M 33.02875 27.3125 
L 40.52875 27.3125 
L 48.02875 27.3125 
" style="fill: none; stroke-dasharray: 2,3.3; stroke-dashoffset: 0; stroke: #000000; stroke-width: 2"/>
     <defs>
      <path id="m4c92a7b8a7" d="M -0 4.242641 
L 4.242641 0 
L 0 -4.242641 
L -4.242641 -0 
z
" style="stroke: #000000; stroke-linejoin: miter"/>
     </defs>
     <g>
      <use xlink:href="#m4c92a7b8a7" x="40.52875" y="27.3125" style="fill-opacity: 0; stroke: #000000; stroke-linejoin: miter"/>
     </g>
    </g>
    <g id="text_18">
     <!-- Boys -->
     <g transform="translate(52.82875 29.4125) scale(0.06 -0.06)">
      <defs>
       <path id="RobotoCondensed-Regular-42" d="M 3125 1313 
Q 3125 675 2776 337 
Q 2428 0 1847 0 
L 491 0 
L 491 4550 
L 1791 4550 
Q 2375 4550 2706 4261 
Q 3038 3972 3038 3338 
Q 3038 3025 2880 2779 
Q 2722 2534 2453 2400 
Q 2781 2297 2953 1998 
Q 3125 1700 3125 1313 
z
M 1066 4056 
L 1066 2613 
L 1797 2613 
Q 2088 2613 2275 2806 
Q 2463 3000 2463 3344 
Q 2463 4041 1819 4056 
L 1066 4056 
z
M 2550 1306 
Q 2550 2106 1906 2128 
L 1066 2128 
L 1066 491 
L 1847 491 
Q 2181 491 2365 711 
Q 2550 931 2550 1306 
z
" transform="scale(0.015625)"/>
       <path id="RobotoCondensed-Regular-6f" d="M 300 1850 
Q 300 2641 678 3042 
Q 1056 3444 1603 3444 
Q 2156 3444 2536 3042 
Q 2916 2641 2916 1850 
L 2916 1528 
Q 2916 738 2536 337 
Q 2156 -63 1609 -63 
Q 1059 -63 679 337 
Q 300 738 300 1528 
L 300 1850 
z
M 853 1528 
Q 853 969 1068 689 
Q 1284 409 1609 409 
Q 2341 409 2363 1466 
L 2363 1850 
Q 2363 2403 2145 2686 
Q 1928 2969 1603 2969 
Q 1281 2969 1067 2686 
Q 853 2403 853 1850 
L 853 1528 
z
" transform="scale(0.015625)"/>
       <path id="RobotoCondensed-Regular-79" d="M 1425 -522 
Q 1153 -1366 563 -1366 
Q 409 -1366 278 -1316 
L 278 -847 
Q 328 -859 397 -859 
Q 631 -859 770 -746 
Q 909 -634 997 -338 
L 1106 31 
L 109 3381 
L 713 3381 
L 1341 922 
L 1953 3381 
L 2541 3381 
L 1425 -522 
z
" transform="scale(0.015625)"/>
       <path id="RobotoCondensed-Regular-73" d="M 2056 866 
Q 2056 1059 1907 1190 
Q 1759 1322 1340 1500 
Q 922 1678 681 1863 
Q 409 2072 409 2484 
Q 409 2888 703 3166 
Q 997 3444 1481 3444 
Q 2000 3444 2287 3150 
Q 2575 2856 2575 2419 
L 2025 2419 
Q 2025 2628 1884 2798 
Q 1744 2969 1481 2969 
Q 1203 2969 1083 2828 
Q 963 2688 963 2503 
Q 963 2319 1081 2217 
Q 1200 2116 1553 1959 
Q 2066 1756 2337 1537 
Q 2609 1319 2609 909 
Q 2609 463 2303 200 
Q 1997 -63 1494 -63 
Q 919 -63 616 265 
Q 313 594 313 1013 
L 866 1013 
Q 881 653 1081 533 
Q 1281 413 1494 413 
Q 2056 413 2056 866 
z
" transform="scale(0.015625)"/>
      </defs>
      <use xlink:href="#RobotoCondensed-Regular-42"/>
      <use xlink:href="#RobotoCondensed-Regular-6f" transform="translate(54.589844 0)"/>
      <use xlink:href="#RobotoCondensed-Regular-79" transform="translate(104.785156 0)"/>
      <use xlink:href="#RobotoCondensed-Regular-73" transform="translate(146.435547 0)"/>
     </g>
    </g>
    <g id="line2d_22">
     <path d="M 33.02875 36.093125 
L 40.52875 36.093125 
L 48.02875 36.093125 
" style="fill: none; stroke-dasharray: 12.8,3.2,2,3.2; stroke-dashoffset: 0; stroke: #000000; stroke-width: 2"/>
     <g>
      <use xlink:href="#m5f0b7ef523" x="40.52875" y="36.093125" style="stroke: #000000"/>
     </g>
    </g>
    <g id="text_19">
     <!-- Girls -->
     <g transform="translate(52.82875 38.193125) scale(0.06 -0.06)">
      <defs>
       <path id="RobotoCondensed-Regular-47" d="M 3341 2266 
L 3341 569 
Q 3266 469 3114 319 
Q 2963 169 2691 53 
Q 2419 -63 1978 -63 
Q 1272 -63 830 412 
Q 388 888 388 1850 
L 388 2703 
Q 388 3656 770 4134 
Q 1153 4613 1919 4613 
Q 2581 4613 2943 4244 
Q 3306 3875 3341 3219 
L 2766 3219 
Q 2731 3641 2529 3880 
Q 2328 4119 1919 4119 
Q 1400 4119 1183 3773 
Q 966 3428 963 2731 
L 963 1850 
Q 963 1125 1239 776 
Q 1516 428 1981 428 
Q 2378 428 2537 547 
Q 2697 666 2769 728 
L 2769 1778 
L 1934 1778 
L 1934 2266 
L 3341 2266 
z
" transform="scale(0.015625)"/>
       <path id="RobotoCondensed-Regular-69" d="M 428 4278 
Q 428 4419 506 4516 
Q 584 4613 741 4613 
Q 894 4613 975 4516 
Q 1056 4419 1056 4278 
Q 1056 4144 975 4048 
Q 894 3953 741 3953 
Q 584 3953 506 4048 
Q 428 4144 428 4278 
z
M 1009 3381 
L 1009 0 
L 459 0 
L 459 3381 
L 1009 3381 
z
" transform="scale(0.015625)"/>
       <path id="RobotoCondensed-Regular-72" d="M 1563 2888 
Q 1138 2888 969 2425 
L 969 0 
L 416 0 
L 416 3381 
L 950 3381 
L 963 3041 
Q 1184 3444 1591 3444 
Q 1738 3444 1809 3400 
L 1813 2863 
Q 1691 2888 1563 2888 
z
" transform="scale(0.015625)"/>
       <path id="RobotoCondensed-Regular-6c" d="M 1009 4800 
L 1009 0 
L 459 0 
L 459 4800 
L 1009 4800 
z
" transform="scale(0.015625)"/>
      </defs>
      <use xlink:href="#RobotoCondensed-Regular-47"/>
      <use xlink:href="#RobotoCondensed-Regular-69" transform="translate(59.082031 0)"/>
      <use xlink:href="#RobotoCondensed-Regular-72" transform="translate(82.03125 0)"/>
      <use xlink:href="#RobotoCondensed-Regular-6c" transform="translate(112.5 0)"/>
      <use xlink:href="#RobotoCondensed-Regular-73" transform="translate(135.449219 0)"/>
     </g>
    </g>
   </g>
  </g>
 </g>
 <defs>
  <clipPath id="p8ec2dc789d">
   <rect x="27.62875" y="19.5125" width="272.995669" height="177.22625"/>
  </clipPath>
 </defs>
</svg>
