<?xml version="1.0" encoding="utf-8" standalone="no"?>
<!DOCTYPE svg PUBLIC "-//W3C//DTD SVG 1.1//EN"
  "http://www.w3.org/Graphics/SVG/1.1/DTD/svg11.dtd">
<svg xmlns:xlink="http://www.w3.org/1999/xlink" width="314.141607pt" height="217.083125pt" viewBox="0 0 314.141607 217.083125" xmlns="http://www.w3.org/2000/svg" version="1.1">
 <metadata>
  <rdf:RDF xmlns:dc="http://purl.org/dc/elements/1.1/" xmlns:cc="http://creativecommons.org/ns#" xmlns:rdf="http://www.w3.org/1999/02/22-rdf-syntax-ns#">
   <cc:Work>
    <dc:type rdf:resource="http://purl.org/dc/dcmitype/StillImage"/>
    <dc:date>2026-04-28T10:28:07.023184</dc:date>
    <dc:format>image/svg+xml</dc:format>
    <dc:creator>
     <cc:Agent>
      <dc:title>Matplotlib v3.10.7, https://matplotlib.org/</dc:title>
     </cc:Agent>
    </dc:creator>
   </cc:Work>
  </rdf:RDF>
 </metadata>
 <defs>
  <style type="text/css">*{stroke-linejoin: round; stroke-linecap: butt}</style>
 </defs>
 <g id="figure_1">
  <g id="patch_1">
   <path d="M 0 217.083125 
L 314.141607 217.083125 
L 314.141607 0 
L 0 0 
z
" style="fill: #ffffff"/>
  </g>
  <g id="axes_1">
   <g id="patch_2">
    <path d="M 35.442813 182.68 
L 301.018482 182.68 
L 301.018482 7.2 
L 35.442813 7.2 
z
" style="fill: #ffffff"/>
   </g>
   <g id="matplotlib.axis_1">
    <g id="xtick_1">
     <g id="line2d_1">
      <defs>
       <path id="mb46464dd6e" d="M 0 0 
L 0 3.5 
" style="stroke: #000000; stroke-width: 0.8"/>
      </defs>
      <g>
       <use xlink:href="#mb46464dd6e" x="47.514434" y="182.68" style="stroke: #000000; stroke-width: 0.8"/>
      </g>
     </g>
     <g id="text_1">
      <!-- 1989 -->
      <g transform="translate(41.591309 194.18) scale(0.06 -0.06)">
       <defs>
        <path id="RobotoCondensed-Regular-31" d="M 2013 4575 
L 2013 0 
L 1459 0 
L 1459 3853 
L 503 3428 
L 503 3950 
L 1928 4575 
L 2013 4575 
z
" transform="scale(0.015625)"/>
        <path id="RobotoCondensed-Regular-39" d="M 2744 2563 
Q 2744 2119 2687 1667 
Q 2631 1216 2450 836 
Q 2269 456 1903 225 
Q 1538 -6 869 -6 
L 866 484 
Q 1428 484 1698 690 
Q 1969 897 2072 1233 
Q 2175 1569 2191 1950 
Q 1859 1522 1413 1522 
Q 1025 1522 786 1747 
Q 547 1972 436 2320 
Q 325 2669 325 3041 
Q 325 3691 623 4152 
Q 922 4613 1522 4613 
Q 1969 4613 2237 4344 
Q 2506 4075 2625 3653 
Q 2744 3231 2744 2772 
L 2744 2563 
z
M 866 3072 
Q 866 2666 1020 2334 
Q 1175 2003 1506 2003 
Q 1716 2003 1906 2179 
Q 2097 2356 2194 2616 
L 2194 2850 
Q 2194 3472 1983 3803 
Q 1772 4134 1522 4134 
Q 1206 4134 1036 3829 
Q 866 3525 866 3072 
z
" transform="scale(0.015625)"/>
        <path id="RobotoCondensed-Regular-38" d="M 2794 1231 
Q 2794 606 2445 271 
Q 2097 -63 1578 -63 
Q 1063 -63 714 273 
Q 366 609 366 1231 
Q 366 1613 536 1905 
Q 706 2197 1000 2347 
Q 450 2666 450 3366 
Q 450 3963 769 4288 
Q 1088 4613 1581 4613 
Q 2075 4613 2392 4288 
Q 2709 3963 2709 3366 
Q 2709 3028 2557 2761 
Q 2406 2494 2150 2344 
Q 2444 2194 2619 1901 
Q 2794 1609 2794 1231 
z
M 2156 3356 
Q 2156 3697 2000 3917 
Q 1844 4138 1581 4138 
Q 1319 4138 1161 3927 
Q 1003 3716 1003 3356 
Q 1003 3003 1159 2790 
Q 1316 2578 1581 2578 
Q 1844 2578 2000 2790 
Q 2156 3003 2156 3356 
z
M 2244 1244 
Q 2244 1625 2061 1865 
Q 1878 2106 1575 2106 
Q 1266 2106 1091 1865 
Q 916 1625 916 1244 
Q 916 850 1089 631 
Q 1263 413 1578 413 
Q 1897 413 2070 631 
Q 2244 850 2244 1244 
z
" transform="scale(0.015625)"/>
       </defs>
       <use xlink:href="#RobotoCondensed-Regular-31"/>
       <use xlink:href="#RobotoCondensed-Regular-39" transform="translate(49.365234 0)"/>
       <use xlink:href="#RobotoCondensed-Regular-38" transform="translate(98.730469 0)"/>
       <use xlink:href="#RobotoCondensed-Regular-39" transform="translate(148.095703 0)"/>
      </g>
     </g>
    </g>
    <g id="xtick_2">
     <g id="line2d_2">
      <g>
       <use xlink:href="#mb46464dd6e" x="83.729298" y="182.68" style="stroke: #000000; stroke-width: 0.8"/>
      </g>
     </g>
     <g id="text_2">
      <!-- 1992 -->
      <g transform="translate(77.806173 194.18) scale(0.06 -0.06)">
       <defs>
        <path id="RobotoCondensed-Regular-32" d="M 2909 475 
L 2909 0 
L 366 0 
L 366 416 
L 1628 2088 
Q 1966 2541 2077 2802 
Q 2188 3063 2188 3328 
Q 2188 3663 2027 3900 
Q 1866 4138 1575 4138 
Q 1194 4138 1022 3878 
Q 850 3619 850 3213 
L 297 3213 
Q 297 3788 617 4200 
Q 938 4613 1575 4613 
Q 2125 4613 2433 4278 
Q 2741 3944 2741 3397 
Q 2741 2997 2541 2594 
Q 2341 2191 2047 1809 
L 1028 475 
L 2909 475 
z
" transform="scale(0.015625)"/>
       </defs>
       <use xlink:href="#RobotoCondensed-Regular-31"/>
       <use xlink:href="#RobotoCondensed-Regular-39" transform="translate(49.365234 0)"/>
       <use xlink:href="#RobotoCondensed-Regular-39" transform="translate(98.730469 0)"/>
       <use xlink:href="#RobotoCondensed-Regular-32" transform="translate(148.095703 0)"/>
      </g>
     </g>
    </g>
    <g id="xtick_3">
     <g id="line2d_3">
      <g>
       <use xlink:href="#mb46464dd6e" x="119.944162" y="182.68" style="stroke: #000000; stroke-width: 0.8"/>
      </g>
     </g>
     <g id="text_3">
      <!-- 1995 -->
      <g transform="translate(114.021037 194.18) scale(0.06 -0.06)">
       <defs>
        <path id="RobotoCondensed-Regular-35" d="M 1034 2166 
L 594 2284 
L 788 4550 
L 2769 4550 
L 2769 4016 
L 1253 4016 
L 1147 2778 
Q 1438 2975 1753 2975 
Q 2288 2975 2591 2561 
Q 2894 2147 2894 1450 
Q 2894 797 2584 367 
Q 2275 -63 1656 -63 
Q 1194 -63 850 248 
Q 506 559 453 1197 
L 975 1197 
Q 1066 413 1656 413 
Q 1978 413 2159 691 
Q 2341 969 2341 1444 
Q 2341 1872 2153 2164 
Q 1966 2456 1619 2456 
Q 1384 2456 1273 2378 
Q 1163 2300 1034 2166 
z
" transform="scale(0.015625)"/>
       </defs>
       <use xlink:href="#RobotoCondensed-Regular-31"/>
       <use xlink:href="#RobotoCondensed-Regular-39" transform="translate(49.365234 0)"/>
       <use xlink:href="#RobotoCondensed-Regular-39" transform="translate(98.730469 0)"/>
       <use xlink:href="#RobotoCondensed-Regular-35" transform="translate(148.095703 0)"/>
      </g>
     </g>
    </g>
    <g id="xtick_4">
     <g id="line2d_4">
      <g>
       <use xlink:href="#mb46464dd6e" x="156.159026" y="182.68" style="stroke: #000000; stroke-width: 0.8"/>
      </g>
     </g>
     <g id="text_4">
      <!-- 1998 -->
      <g transform="translate(150.235901 194.18) scale(0.06 -0.06)">
       <use xlink:href="#RobotoCondensed-Regular-31"/>
       <use xlink:href="#RobotoCondensed-Regular-39" transform="translate(49.365234 0)"/>
       <use xlink:href="#RobotoCondensed-Regular-39" transform="translate(98.730469 0)"/>
       <use xlink:href="#RobotoCondensed-Regular-38" transform="translate(148.095703 0)"/>
      </g>
     </g>
    </g>
    <g id="xtick_5">
     <g id="line2d_5">
      <g>
       <use xlink:href="#mb46464dd6e" x="192.37389" y="182.68" style="stroke: #000000; stroke-width: 0.8"/>
      </g>
     </g>
     <g id="text_5">
      <!-- 2001 -->
      <g transform="translate(186.450765 194.18) scale(0.06 -0.06)">
       <defs>
        <path id="RobotoCondensed-Regular-30" d="M 2797 1944 
Q 2797 825 2467 381 
Q 2138 -63 1581 -63 
Q 1038 -63 703 370 
Q 369 803 359 1878 
L 359 2638 
Q 359 3753 695 4183 
Q 1031 4613 1578 4613 
Q 2131 4613 2461 4189 
Q 2791 3766 2797 2681 
L 2797 1944 
z
M 2247 2734 
Q 2247 3503 2073 3822 
Q 1900 4141 1578 4141 
Q 1266 4141 1092 3833 
Q 919 3525 913 2791 
L 913 1850 
Q 913 1088 1089 750 
Q 1266 413 1581 413 
Q 1903 413 2072 738 
Q 2241 1063 2247 1794 
L 2247 2734 
z
" transform="scale(0.015625)"/>
       </defs>
       <use xlink:href="#RobotoCondensed-Regular-32"/>
       <use xlink:href="#RobotoCondensed-Regular-30" transform="translate(49.365234 0)"/>
       <use xlink:href="#RobotoCondensed-Regular-30" transform="translate(98.730469 0)"/>
       <use xlink:href="#RobotoCondensed-Regular-31" transform="translate(148.095703 0)"/>
      </g>
     </g>
    </g>
    <g id="xtick_6">
     <g id="line2d_6">
      <g>
       <use xlink:href="#mb46464dd6e" x="228.588754" y="182.68" style="stroke: #000000; stroke-width: 0.8"/>
      </g>
     </g>
     <g id="text_6">
      <!-- 2004 -->
      <g transform="translate(222.665629 194.18) scale(0.06 -0.06)">
       <defs>
        <path id="RobotoCondensed-Regular-34" d="M 188 1397 
L 1878 4550 
L 2463 4550 
L 2463 1531 
L 2969 1531 
L 2969 1056 
L 2463 1056 
L 2463 0 
L 1909 0 
L 1909 1056 
L 188 1056 
L 188 1397 
z
M 803 1531 
L 1909 1531 
L 1909 3703 
L 1878 3638 
L 803 1531 
z
" transform="scale(0.015625)"/>
       </defs>
       <use xlink:href="#RobotoCondensed-Regular-32"/>
       <use xlink:href="#RobotoCondensed-Regular-30" transform="translate(49.365234 0)"/>
       <use xlink:href="#RobotoCondensed-Regular-30" transform="translate(98.730469 0)"/>
       <use xlink:href="#RobotoCondensed-Regular-34" transform="translate(148.095703 0)"/>
      </g>
     </g>
    </g>
    <g id="xtick_7">
     <g id="line2d_7">
      <g>
       <use xlink:href="#mb46464dd6e" x="264.803618" y="182.68" style="stroke: #000000; stroke-width: 0.8"/>
      </g>
     </g>
     <g id="text_7">
      <!-- 2007 -->
      <g transform="translate(258.880493 194.18) scale(0.06 -0.06)">
       <defs>
        <path id="RobotoCondensed-Regular-37" d="M 2878 4550 
L 2878 4225 
L 1313 0 
L 731 0 
L 2297 4075 
L 269 4075 
L 269 4550 
L 2878 4550 
z
" transform="scale(0.015625)"/>
       </defs>
       <use xlink:href="#RobotoCondensed-Regular-32"/>
       <use xlink:href="#RobotoCondensed-Regular-30" transform="translate(49.365234 0)"/>
       <use xlink:href="#RobotoCondensed-Regular-30" transform="translate(98.730469 0)"/>
       <use xlink:href="#RobotoCondensed-Regular-37" transform="translate(148.095703 0)"/>
      </g>
     </g>
    </g>
    <g id="xtick_8">
     <g id="line2d_8">
      <g>
       <use xlink:href="#mb46464dd6e" x="301.018482" y="182.68" style="stroke: #000000; stroke-width: 0.8"/>
      </g>
     </g>
     <g id="text_8">
      <!-- 2010 -->
      <g transform="translate(295.095357 194.18) scale(0.06 -0.06)">
       <use xlink:href="#RobotoCondensed-Regular-32"/>
       <use xlink:href="#RobotoCondensed-Regular-30" transform="translate(49.365234 0)"/>
       <use xlink:href="#RobotoCondensed-Regular-31" transform="translate(98.730469 0)"/>
       <use xlink:href="#RobotoCondensed-Regular-30" transform="translate(148.095703 0)"/>
      </g>
     </g>
    </g>
    <g id="text_9">
     <!-- Year -->
     <g transform="translate(158.455257 207.64875) scale(0.11 -0.11)">
      <defs>
       <path id="RobotoCondensed-Regular-59" d="M 747 4550 
L 1675 2266 
L 2606 4550 
L 3256 4550 
L 1963 1700 
L 1963 0 
L 1388 0 
L 1388 1700 
L 94 4550 
L 747 4550 
z
" transform="scale(0.015625)"/>
       <path id="RobotoCondensed-Regular-65" d="M 2722 447 
Q 2584 253 2323 95 
Q 2063 -63 1625 -63 
Q 1019 -63 666 301 
Q 313 666 309 1431 
L 309 1828 
Q 309 2722 696 3083 
Q 1084 3444 1563 3444 
Q 2197 3444 2472 3034 
Q 2747 2625 2747 1850 
L 2747 1528 
L 863 1528 
L 863 1447 
Q 863 906 1067 657 
Q 1272 409 1656 409 
Q 1934 409 2114 517 
Q 2294 625 2431 794 
L 2722 447 
z
M 1563 2969 
Q 1275 2969 1084 2770 
Q 894 2572 866 2000 
L 2194 2000 
L 2194 2078 
Q 2172 2469 2048 2719 
Q 1925 2969 1563 2969 
z
" transform="scale(0.015625)"/>
       <path id="RobotoCondensed-Regular-61" d="M 2156 0 
Q 2103 122 2081 366 
Q 1966 194 1775 65 
Q 1584 -63 1334 -63 
Q 891 -63 623 187 
Q 356 438 356 922 
Q 356 1409 690 1729 
Q 1025 2050 1691 2050 
L 2072 2050 
L 2072 2413 
Q 2072 2713 1936 2841 
Q 1800 2969 1528 2969 
Q 1263 2969 1114 2812 
Q 966 2656 966 2444 
L 413 2444 
Q 413 2806 722 3125 
Q 1031 3444 1556 3444 
Q 2025 3444 2325 3209 
Q 2625 2975 2625 2406 
L 2625 794 
Q 2625 316 2728 50 
L 2728 0 
L 2156 0 
z
M 1419 441 
Q 1653 441 1825 562 
Q 1997 684 2072 834 
L 2072 1644 
L 1781 1644 
Q 1384 1644 1146 1475 
Q 909 1306 909 991 
Q 909 688 1036 564 
Q 1163 441 1419 441 
z
" transform="scale(0.015625)"/>
       <path id="RobotoCondensed-Regular-72" d="M 1563 2888 
Q 1138 2888 969 2425 
L 969 0 
L 416 0 
L 416 3381 
L 950 3381 
L 963 3041 
Q 1184 3444 1591 3444 
Q 1738 3444 1809 3400 
L 1813 2863 
Q 1691 2888 1563 2888 
z
" transform="scale(0.015625)"/>
      </defs>
      <use xlink:href="#RobotoCondensed-Regular-59"/>
      <use xlink:href="#RobotoCondensed-Regular-65" transform="translate(52.490234 0)"/>
      <use xlink:href="#RobotoCondensed-Regular-61" transform="translate(99.365234 0)"/>
      <use xlink:href="#RobotoCondensed-Regular-72" transform="translate(147.265625 0)"/>
     </g>
    </g>
   </g>
   <g id="matplotlib.axis_2">
    <g id="ytick_1">
     <g id="line2d_9">
      <path d="M 35.442813 182.68 
L 301.018482 182.68 
" clip-path="url(#p07f6ba693e)" style="fill: none; stroke: #808080; stroke-opacity: 0.3; stroke-width: 0.5; stroke-linecap: square"/>
     </g>
     <g id="line2d_10">
      <defs>
       <path id="mc1ca55c8ef" d="M 0 0 
L -3.5 0 
" style="stroke: #000000; stroke-width: 0.8"/>
      </defs>
      <g>
       <use xlink:href="#mc1ca55c8ef" x="35.442813" y="182.68" style="stroke: #000000; stroke-width: 0.8"/>
      </g>
     </g>
     <g id="text_10">
      <!-- 0% -->
      <g transform="translate(21.684375 184.93) scale(0.06 -0.06)">
       <defs>
        <path id="RobotoCondensed-Regular-25" d="M 334 3675 
Q 334 4063 545 4339 
Q 756 4616 1128 4616 
Q 1506 4616 1717 4339 
Q 1928 4063 1928 3675 
L 1928 3434 
Q 1928 3053 1718 2776 
Q 1509 2500 1134 2500 
Q 759 2500 546 2776 
Q 334 3053 334 3434 
L 334 3675 
z
M 741 3434 
Q 741 3219 836 3047 
Q 931 2875 1134 2875 
Q 1331 2875 1426 3045 
Q 1522 3216 1522 3434 
L 1522 3675 
Q 1522 3894 1425 4067 
Q 1328 4241 1128 4241 
Q 931 4241 836 4067 
Q 741 3894 741 3675 
L 741 3434 
z
M 3116 3903 
L 1250 347 
L 944 553 
L 2813 4109 
L 3116 3903 
z
M 2172 1116 
Q 2172 1500 2384 1776 
Q 2597 2053 2969 2053 
Q 3344 2053 3555 1776 
Q 3766 1500 3766 1116 
L 3766 872 
Q 3766 488 3555 211 
Q 3344 -66 2972 -66 
Q 2597 -66 2384 211 
Q 2172 488 2172 872 
L 2172 1116 
z
M 2578 872 
Q 2578 653 2675 481 
Q 2772 309 2972 309 
Q 3169 309 3264 479 
Q 3359 650 3359 872 
L 3359 1116 
Q 3359 1338 3262 1508 
Q 3166 1678 2969 1678 
Q 2772 1678 2675 1508 
Q 2578 1338 2578 1116 
L 2578 872 
z
" transform="scale(0.015625)"/>
       </defs>
       <use xlink:href="#RobotoCondensed-Regular-30"/>
       <use xlink:href="#RobotoCondensed-Regular-25" transform="translate(49.365234 0)"/>
      </g>
     </g>
    </g>
    <g id="ytick_2">
     <g id="line2d_11">
      <path d="M 35.442813 112.488 
L 301.018482 112.488 
" clip-path="url(#p07f6ba693e)" style="fill: none; stroke: #808080; stroke-opacity: 0.3; stroke-width: 0.5; stroke-linecap: square"/>
     </g>
     <g id="line2d_12">
      <g>
       <use xlink:href="#mc1ca55c8ef" x="35.442813" y="112.488" style="stroke: #000000; stroke-width: 0.8"/>
      </g>
     </g>
     <g id="text_11">
      <!-- 2% -->
      <g transform="translate(21.684375 114.738) scale(0.06 -0.06)">
       <use xlink:href="#RobotoCondensed-Regular-32"/>
       <use xlink:href="#RobotoCondensed-Regular-25" transform="translate(49.365234 0)"/>
      </g>
     </g>
    </g>
    <g id="ytick_3">
     <g id="line2d_13">
      <path d="M 35.442813 42.296 
L 301.018482 42.296 
" clip-path="url(#p07f6ba693e)" style="fill: none; stroke: #808080; stroke-opacity: 0.3; stroke-width: 0.5; stroke-linecap: square"/>
     </g>
     <g id="line2d_14">
      <g>
       <use xlink:href="#mc1ca55c8ef" x="35.442813" y="42.296" style="stroke: #000000; stroke-width: 0.8"/>
      </g>
     </g>
     <g id="text_12">
      <!-- 4% -->
      <g transform="translate(21.684375 44.546) scale(0.06 -0.06)">
       <use xlink:href="#RobotoCondensed-Regular-34"/>
       <use xlink:href="#RobotoCondensed-Regular-25" transform="translate(49.365234 0)"/>
      </g>
     </g>
    </g>
    <g id="text_13">
     <!-- Proportion -->
     <g transform="translate(15.45 117.889609) rotate(-90) scale(0.11 -0.11)">
      <defs>
       <path id="RobotoCondensed-Regular-50" d="M 1066 1784 
L 1066 0 
L 491 0 
L 491 4550 
L 1941 4550 
Q 2600 4550 2951 4159 
Q 3303 3769 3303 3163 
Q 3303 2506 2954 2147 
Q 2606 1788 1950 1784 
L 1066 1784 
z
M 1066 4056 
L 1066 2275 
L 1941 2275 
Q 2359 2275 2543 2522 
Q 2728 2769 2728 3156 
Q 2728 3506 2543 3781 
Q 2359 4056 1941 4056 
L 1066 4056 
z
" transform="scale(0.015625)"/>
       <path id="RobotoCondensed-Regular-6f" d="M 300 1850 
Q 300 2641 678 3042 
Q 1056 3444 1603 3444 
Q 2156 3444 2536 3042 
Q 2916 2641 2916 1850 
L 2916 1528 
Q 2916 738 2536 337 
Q 2156 -63 1609 -63 
Q 1059 -63 679 337 
Q 300 738 300 1528 
L 300 1850 
z
M 853 1528 
Q 853 969 1068 689 
Q 1284 409 1609 409 
Q 2341 409 2363 1466 
L 2363 1850 
Q 2363 2403 2145 2686 
Q 1928 2969 1603 2969 
Q 1281 2969 1067 2686 
Q 853 2403 853 1850 
L 853 1528 
z
" transform="scale(0.015625)"/>
       <path id="RobotoCondensed-Regular-70" d="M 1750 -63 
Q 1244 -63 969 325 
L 969 -1300 
L 416 -1300 
L 416 3381 
L 919 3381 
L 947 3013 
Q 1222 3444 1744 3444 
Q 2275 3444 2562 3073 
Q 2850 2703 2859 1897 
L 2859 1528 
Q 2859 725 2570 331 
Q 2281 -63 1750 -63 
z
M 1572 2956 
Q 1181 2956 969 2559 
L 969 797 
Q 1178 409 1578 409 
Q 2288 409 2306 1472 
L 2306 1844 
Q 2306 2956 1572 2956 
z
" transform="scale(0.015625)"/>
       <path id="RobotoCondensed-Regular-74" d="M 1647 0 
Q 1488 -63 1259 -63 
Q 991 -63 789 134 
Q 588 331 588 841 
L 588 2938 
L 72 2938 
L 72 3381 
L 588 3381 
L 588 4203 
L 1141 4203 
L 1141 3381 
L 1650 3381 
L 1650 2938 
L 1141 2938 
L 1141 838 
Q 1141 578 1230 506 
Q 1319 434 1431 434 
Q 1550 434 1650 472 
L 1647 0 
z
" transform="scale(0.015625)"/>
       <path id="RobotoCondensed-Regular-69" d="M 428 4278 
Q 428 4419 506 4516 
Q 584 4613 741 4613 
Q 894 4613 975 4516 
Q 1056 4419 1056 4278 
Q 1056 4144 975 4048 
Q 894 3953 741 3953 
Q 584 3953 506 4048 
Q 428 4144 428 4278 
z
M 1009 3381 
L 1009 0 
L 459 0 
L 459 3381 
L 1009 3381 
z
" transform="scale(0.015625)"/>
       <path id="RobotoCondensed-Regular-6e" d="M 1603 2956 
Q 1400 2956 1236 2818 
Q 1072 2681 969 2459 
L 969 0 
L 416 0 
L 416 3381 
L 938 3381 
L 953 3022 
Q 1275 3444 1775 3444 
Q 2191 3444 2437 3162 
Q 2684 2881 2684 2216 
L 2684 0 
L 2131 0 
L 2131 2222 
Q 2131 2619 2000 2787 
Q 1869 2956 1603 2956 
z
" transform="scale(0.015625)"/>
      </defs>
      <use xlink:href="#RobotoCondensed-Regular-50"/>
      <use xlink:href="#RobotoCondensed-Regular-72" transform="translate(55.419922 0)"/>
      <use xlink:href="#RobotoCondensed-Regular-6f" transform="translate(85.888672 0)"/>
      <use xlink:href="#RobotoCondensed-Regular-70" transform="translate(136.083984 0)"/>
      <use xlink:href="#RobotoCondensed-Regular-6f" transform="translate(185.400391 0)"/>
      <use xlink:href="#RobotoCondensed-Regular-72" transform="translate(235.595703 0)"/>
      <use xlink:href="#RobotoCondensed-Regular-74" transform="translate(266.064453 0)"/>
      <use xlink:href="#RobotoCondensed-Regular-69" transform="translate(295.654297 0)"/>
      <use xlink:href="#RobotoCondensed-Regular-6f" transform="translate(318.603516 0)"/>
      <use xlink:href="#RobotoCondensed-Regular-6e" transform="translate(368.798828 0)"/>
     </g>
    </g>
   </g>
   <g id="FillBetweenPolyCollection_1">
    <path d="M 47.514434 182.68 
L 47.514434 182.68 
L 48.3219 182.68 
L 49.129366 182.68 
L 49.936833 182.68 
L 50.744299 182.68 
L 51.551765 182.68 
L 52.359232 182.68 
L 53.166698 182.68 
L 53.974164 182.68 
L 54.781631 182.68 
L 55.589097 182.68 
L 56.396563 182.68 
L 57.20403 182.68 
L 58.011496 182.68 
L 58.818962 182.68 
L 59.626428 182.68 
L 60.433895 182.68 
L 61.241361 182.68 
L 62.048827 182.68 
L 62.856294 182.68 
L 63.66376 182.68 
L 64.471226 182.68 
L 65.278693 182.68 
L 66.086159 182.68 
L 66.893625 182.68 
L 67.701092 182.68 
L 68.508558 182.68 
L 69.316024 182.68 
L 70.123491 182.68 
L 70.930957 182.68 
L 71.738423 182.68 
L 72.545889 182.68 
L 73.353356 182.68 
L 74.160822 182.68 
L 74.968288 182.68 
L 75.775755 182.68 
L 76.583221 182.68 
L 77.390687 182.68 
L 78.198154 182.68 
L 79.00562 182.68 
L 79.813086 182.68 
L 80.620553 182.68 
L 81.428019 182.68 
L 82.235485 182.68 
L 83.042951 182.68 
L 83.850418 182.68 
L 84.657884 182.68 
L 85.46535 182.68 
L 86.272817 182.68 
L 87.080283 182.68 
L 87.887749 182.68 
L 88.695216 182.68 
L 89.502682 182.68 
L 90.310148 182.68 
L 91.117615 182.68 
L 91.925081 182.68 
L 92.732547 182.68 
L 93.540013 182.68 
L 94.34748 182.68 
L 95.154946 182.68 
L 95.962412 182.68 
L 96.769879 182.68 
L 97.577345 182.68 
L 98.384811 182.68 
L 99.192278 182.68 
L 99.999744 182.68 
L 100.80721 182.68 
L 101.614677 182.68 
L 102.422143 182.68 
L 103.229609 182.68 
L 104.037076 182.68 
L 104.844542 182.68 
L 105.652008 182.68 
L 106.459474 182.68 
L 107.266941 182.68 
L 108.074407 182.68 
L 108.881873 182.68 
L 109.68934 182.68 
L 110.496806 182.68 
L 111.304272 182.68 
L 112.111739 182.68 
L 112.919205 182.68 
L 113.726671 182.68 
L 114.534138 182.68 
L 115.341604 182.68 
L 116.14907 182.68 
L 116.956536 182.68 
L 117.764003 182.68 
L 118.571469 182.68 
L 119.378935 182.68 
L 120.186402 182.68 
L 120.993868 182.68 
L 121.801334 182.68 
L 122.608801 182.68 
L 123.416267 182.68 
L 124.223733 182.68 
L 125.0312 182.68 
L 125.838666 182.68 
L 126.646132 182.68 
L 127.453599 182.68 
L 128.261065 182.68 
L 129.068531 182.68 
L 129.875997 182.68 
L 130.683464 182.68 
L 131.49093 182.68 
L 132.298396 182.68 
L 133.105863 182.68 
L 133.913329 182.68 
L 134.720795 182.68 
L 135.528262 182.68 
L 136.335728 182.68 
L 137.143194 182.68 
L 137.950661 182.68 
L 138.758127 182.68 
L 139.565593 182.68 
L 140.373059 182.68 
L 141.180526 182.68 
L 141.987992 182.68 
L 142.795458 182.68 
L 143.602925 182.68 
L 144.410391 182.68 
L 145.217857 182.68 
L 146.025324 182.68 
L 146.83279 182.68 
L 147.640256 182.68 
L 148.447723 182.68 
L 149.255189 182.68 
L 150.062655 182.68 
L 150.870121 182.68 
L 151.677588 182.68 
L 152.485054 182.68 
L 153.29252 182.68 
L 154.099987 182.68 
L 154.907453 182.68 
L 155.714919 182.68 
L 156.522386 182.68 
L 157.329852 182.68 
L 158.137318 182.68 
L 158.944785 182.68 
L 159.752251 182.68 
L 160.559717 182.68 
L 161.367184 182.68 
L 162.17465 182.68 
L 162.982116 182.68 
L 163.789582 182.68 
L 164.597049 182.68 
L 165.404515 182.68 
L 166.211981 182.68 
L 167.019448 182.68 
L 167.826914 182.68 
L 168.63438 182.68 
L 169.441847 182.68 
L 170.249313 182.68 
L 171.056779 182.68 
L 171.864246 182.68 
L 172.671712 182.68 
L 173.479178 182.68 
L 174.286644 182.68 
L 175.094111 182.68 
L 175.901577 182.68 
L 176.709043 182.68 
L 177.51651 182.68 
L 178.323976 182.68 
L 179.131442 182.68 
L 179.938909 182.68 
L 180.746375 182.68 
L 181.553841 182.68 
L 182.361308 182.68 
L 183.168774 182.68 
L 183.97624 182.68 
L 184.783706 182.68 
L 185.591173 182.68 
L 186.398639 182.68 
L 187.206105 182.68 
L 188.013572 182.68 
L 188.821038 182.68 
L 189.628504 182.68 
L 190.435971 182.68 
L 191.243437 182.68 
L 192.050903 182.68 
L 192.85837 182.68 
L 193.665836 182.68 
L 194.473302 182.68 
L 195.280769 182.68 
L 196.088235 182.68 
L 196.895701 182.68 
L 197.703167 182.68 
L 198.510634 182.68 
L 199.3181 182.68 
L 200.125566 182.68 
L 200.933033 182.68 
L 201.740499 182.68 
L 202.547965 182.68 
L 203.355432 182.68 
L 204.162898 182.68 
L 204.970364 182.68 
L 205.777831 182.68 
L 206.585297 182.68 
L 207.392763 182.68 
L 208.200229 182.68 
L 209.007696 182.68 
L 209.815162 182.68 
L 210.622628 182.68 
L 211.430095 182.68 
L 212.237561 182.68 
L 213.045027 182.68 
L 213.852494 182.68 
L 214.65996 182.68 
L 215.467426 182.68 
L 216.274893 182.68 
L 217.082359 182.68 
L 217.889825 182.68 
L 218.697292 182.68 
L 219.504758 182.68 
L 220.312224 182.68 
L 221.11969 182.68 
L 221.927157 182.68 
L 222.734623 182.68 
L 223.542089 182.68 
L 224.349556 182.68 
L 225.157022 182.68 
L 225.964488 182.68 
L 226.771955 182.68 
L 227.579421 182.68 
L 228.386887 182.68 
L 229.194354 182.68 
L 230.00182 182.68 
L 230.809286 182.68 
L 231.616752 182.68 
L 232.424219 182.68 
L 233.231685 182.68 
L 234.039151 182.68 
L 234.846618 182.68 
L 235.654084 182.68 
L 236.46155 182.68 
L 237.269017 182.68 
L 238.076483 182.68 
L 238.883949 182.68 
L 239.691416 182.68 
L 240.498882 182.68 
L 241.306348 182.68 
L 242.113814 182.68 
L 242.921281 182.68 
L 243.728747 182.68 
L 244.536213 182.68 
L 245.34368 182.68 
L 246.151146 182.68 
L 246.958612 182.68 
L 247.766079 182.68 
L 248.573545 182.68 
L 249.381011 182.68 
L 250.188478 182.68 
L 250.995944 182.68 
L 251.80341 182.68 
L 252.610877 182.68 
L 253.418343 182.68 
L 254.225809 182.68 
L 255.033275 182.68 
L 255.840742 182.68 
L 256.648208 182.68 
L 257.455674 182.68 
L 258.263141 182.68 
L 259.070607 182.68 
L 259.878073 182.68 
L 260.68554 182.68 
L 261.493006 182.68 
L 262.300472 182.68 
L 263.107939 182.68 
L 263.915405 182.68 
L 264.722871 182.68 
L 265.530337 182.68 
L 266.337804 182.68 
L 267.14527 182.68 
L 267.952736 182.68 
L 268.760203 182.68 
L 269.567669 182.68 
L 270.375135 182.68 
L 271.182602 182.68 
L 271.990068 182.68 
L 272.797534 182.68 
L 273.605001 182.68 
L 274.412467 182.68 
L 275.219933 182.68 
L 276.0274 182.68 
L 276.834866 182.68 
L 277.642332 182.68 
L 278.449798 182.68 
L 279.257265 182.68 
L 280.064731 182.68 
L 280.872197 182.68 
L 281.679664 182.68 
L 282.48713 182.68 
L 283.294596 182.68 
L 284.102063 182.68 
L 284.909529 182.68 
L 285.716995 182.68 
L 286.524462 182.68 
L 287.331928 182.68 
L 288.139394 182.68 
L 288.94686 182.68 
L 288.94686 181.141808 
L 288.94686 181.141808 
L 288.139394 181.140868 
L 287.331928 181.138131 
L 286.524462 181.13372 
L 285.716995 181.127759 
L 284.909529 181.120372 
L 284.102063 181.111684 
L 283.294596 181.101816 
L 282.48713 181.090894 
L 281.679664 181.079042 
L 280.872197 181.066382 
L 280.064731 181.053039 
L 279.257265 181.039137 
L 278.449798 181.0248 
L 277.642332 181.01015 
L 276.834866 180.995302 
L 276.0274 180.975908 
L 275.219933 180.949221 
L 274.412467 180.916531 
L 273.605001 180.879129 
L 272.797534 180.838304 
L 271.990068 180.795346 
L 271.182602 180.751545 
L 270.375135 180.708192 
L 269.567669 180.666577 
L 268.760203 180.627989 
L 267.952736 180.593719 
L 267.14527 180.565057 
L 266.337804 180.543292 
L 265.530337 180.529716 
L 264.722871 180.525614 
L 263.915405 180.531416 
L 263.107939 180.545912 
L 262.300472 180.567766 
L 261.493006 180.595644 
L 260.68554 180.62821 
L 259.878073 180.664128 
L 259.070607 180.702064 
L 258.263141 180.740683 
L 257.455674 180.778647 
L 256.648208 180.814624 
L 255.840742 180.847276 
L 255.033275 180.875269 
L 254.225809 180.897268 
L 253.418343 180.911936 
L 252.610877 180.918045 
L 251.80341 180.920436 
L 250.995944 180.922387 
L 250.188478 180.92397 
L 249.381011 180.925252 
L 248.573545 180.926305 
L 247.766079 180.927198 
L 246.958612 180.928001 
L 246.151146 180.928784 
L 245.34368 180.929617 
L 244.536213 180.93057 
L 243.728747 180.931712 
L 242.921281 180.933113 
L 242.113814 180.934844 
L 241.306348 180.936974 
L 240.498882 180.939837 
L 239.691416 180.951741 
L 238.883949 180.975237 
L 238.076483 181.008449 
L 237.269017 181.049499 
L 236.46155 181.096513 
L 235.654084 181.147612 
L 234.846618 181.200919 
L 234.039151 181.254559 
L 233.231685 181.306654 
L 232.424219 181.355328 
L 231.616752 181.398704 
L 230.809286 181.434905 
L 230.00182 181.462055 
L 229.194354 181.478276 
L 228.386887 181.481201 
L 227.579421 181.459528 
L 226.771955 181.411787 
L 225.964488 181.341432 
L 225.157022 181.251918 
L 224.349556 181.146696 
L 223.542089 181.029222 
L 222.734623 180.902949 
L 221.927157 180.771329 
L 221.11969 180.637818 
L 220.312224 180.505869 
L 219.504758 180.378935 
L 218.697292 180.260469 
L 217.889825 180.153926 
L 217.082359 180.06276 
L 216.274893 179.989334 
L 215.467426 179.919219 
L 214.65996 179.847663 
L 213.852494 179.775637 
L 213.045027 179.704116 
L 212.237561 179.634072 
L 211.430095 179.56648 
L 210.622628 179.502313 
L 209.815162 179.442544 
L 209.007696 179.388147 
L 208.200229 179.340095 
L 207.392763 179.299361 
L 206.585297 179.266919 
L 205.777831 179.243743 
L 204.970364 179.230806 
L 204.162898 179.229833 
L 203.355432 179.249444 
L 202.547965 179.289239 
L 201.740499 179.345924 
L 200.933033 179.416202 
L 200.125566 179.496779 
L 199.3181 179.584359 
L 198.510634 179.675646 
L 197.703167 179.767344 
L 196.895701 179.85616 
L 196.088235 179.938796 
L 195.280769 180.011958 
L 194.473302 180.07235 
L 193.665836 180.116677 
L 192.85837 180.141643 
L 192.050903 180.143684 
L 191.243437 180.119371 
L 190.435971 180.071542 
L 189.628504 180.004067 
L 188.821038 179.920818 
L 188.013572 179.825666 
L 187.206105 179.722481 
L 186.398639 179.615135 
L 185.591173 179.507499 
L 184.783706 179.403444 
L 183.97624 179.30684 
L 183.168774 179.221559 
L 182.361308 179.151471 
L 181.553841 179.100448 
L 180.746375 179.072361 
L 179.938909 179.073716 
L 179.131442 179.12393 
L 178.323976 179.220207 
L 177.51651 179.355249 
L 176.709043 179.52176 
L 175.901577 179.712443 
L 175.094111 179.920001 
L 174.286644 180.137138 
L 173.479178 180.356555 
L 172.671712 180.570957 
L 171.864246 180.773047 
L 171.056779 180.955527 
L 170.249313 181.111101 
L 169.441847 181.232471 
L 168.63438 181.312342 
L 167.826914 181.349811 
L 167.019448 181.378734 
L 166.211981 181.405333 
L 165.404515 181.429742 
L 164.597049 181.452094 
L 163.789582 181.472525 
L 162.982116 181.491169 
L 162.17465 181.50816 
L 161.367184 181.523633 
L 160.559717 181.537722 
L 159.752251 181.550562 
L 158.944785 181.562288 
L 158.137318 181.573033 
L 157.329852 181.582933 
L 156.522386 181.592122 
L 155.714919 181.600692 
L 154.907453 181.608545 
L 154.099987 181.615735 
L 153.29252 181.622343 
L 152.485054 181.628448 
L 151.677588 181.634129 
L 150.870121 181.639468 
L 150.062655 181.644543 
L 149.255189 181.649436 
L 148.447723 181.654225 
L 147.640256 181.65899 
L 146.83279 181.663813 
L 146.025324 181.668772 
L 145.217857 181.673947 
L 144.410391 181.679419 
L 143.602925 181.685083 
L 142.795458 181.690279 
L 141.987992 181.695053 
L 141.180526 181.699531 
L 140.373059 181.703843 
L 139.565593 181.708116 
L 138.758127 181.712479 
L 137.950661 181.717058 
L 137.143194 181.721983 
L 136.335728 181.727381 
L 135.528262 181.73338 
L 134.720795 181.740109 
L 133.913329 181.747694 
L 133.105863 181.756265 
L 132.298396 181.765949 
L 131.49093 181.781017 
L 130.683464 181.814452 
L 129.875997 181.864537 
L 129.068531 181.92829 
L 128.261065 182.00273 
L 127.453599 182.084876 
L 126.646132 182.171746 
L 125.838666 182.260358 
L 125.0312 182.347731 
L 124.223733 182.430883 
L 123.416267 182.506833 
L 122.608801 182.572599 
L 121.801334 182.625199 
L 120.993868 182.661653 
L 120.186402 182.678978 
L 119.378935 182.679559 
L 118.571469 182.677465 
L 117.764003 182.673769 
L 116.956536 182.668605 
L 116.14907 182.662108 
L 115.341604 182.654413 
L 114.534138 182.645654 
L 113.726671 182.635966 
L 112.919205 182.625483 
L 112.111739 182.614339 
L 111.304272 182.60267 
L 110.496806 182.590609 
L 109.68934 182.578291 
L 108.881873 182.565851 
L 108.074407 182.553424 
L 107.266941 182.539774 
L 106.459474 182.521994 
L 105.652008 182.500655 
L 104.844542 182.476483 
L 104.037076 182.450206 
L 103.229609 182.422554 
L 102.422143 182.394253 
L 101.614677 182.366032 
L 100.80721 182.338619 
L 99.999744 182.312741 
L 99.192278 182.289127 
L 98.384811 182.268505 
L 97.577345 182.251602 
L 96.769879 182.239147 
L 95.962412 182.231867 
L 95.154946 182.228546 
L 94.34748 182.225512 
L 93.540013 182.222654 
L 92.732547 182.21998 
L 91.925081 182.217497 
L 91.117615 182.215213 
L 90.310148 182.213134 
L 89.502682 182.211268 
L 88.695216 182.209622 
L 87.887749 182.208203 
L 87.080283 182.207019 
L 86.272817 182.206076 
L 85.46535 182.205382 
L 84.657884 182.204944 
L 83.850418 182.204769 
L 83.042951 182.205868 
L 82.235485 182.209762 
L 81.428019 182.216092 
L 80.620553 182.224464 
L 79.813086 182.234487 
L 79.00562 182.245767 
L 78.198154 182.257913 
L 77.390687 182.270532 
L 76.583221 182.283232 
L 75.775755 182.295619 
L 74.968288 182.307301 
L 74.160822 182.317886 
L 73.353356 182.326982 
L 72.545889 182.334196 
L 71.738423 182.339135 
L 70.930957 182.342326 
L 70.123491 182.345001 
L 69.316024 182.347252 
L 68.508558 182.34916 
L 67.701092 182.350806 
L 66.893625 182.35227 
L 66.086159 182.353634 
L 65.278693 182.354978 
L 64.471226 182.356384 
L 63.66376 182.357933 
L 62.856294 182.359705 
L 62.048827 182.361781 
L 61.241361 182.364243 
L 60.433895 182.367171 
L 59.626428 182.370646 
L 58.818962 182.3759 
L 58.011496 182.384229 
L 57.20403 182.395432 
L 56.396563 182.409306 
L 55.589097 182.425647 
L 54.781631 182.444252 
L 53.974164 182.464918 
L 53.166698 182.487441 
L 52.359232 182.511617 
L 51.551765 182.537243 
L 50.744299 182.564116 
L 49.936833 182.592031 
L 49.129366 182.620786 
L 48.3219 182.650177 
L 47.514434 182.68 
z
" clip-path="url(#p07f6ba693e)" style="fill: url(#hced889a258)"/>
   </g>
   <g id="FillBetweenPolyCollection_2">
    <path d="M 47.514434 182.657602 
L 47.514434 182.68 
L 48.3219 182.650177 
L 49.129366 182.620786 
L 49.936833 182.592031 
L 50.744299 182.564116 
L 51.551765 182.537243 
L 52.359232 182.511617 
L 53.166698 182.487441 
L 53.974164 182.464918 
L 54.781631 182.444252 
L 55.589097 182.425647 
L 56.396563 182.409306 
L 57.20403 182.395432 
L 58.011496 182.384229 
L 58.818962 182.3759 
L 59.626428 182.370646 
L 60.433895 182.367171 
L 61.241361 182.364243 
L 62.048827 182.361781 
L 62.856294 182.359705 
L 63.66376 182.357933 
L 64.471226 182.356384 
L 65.278693 182.354978 
L 66.086159 182.353634 
L 66.893625 182.35227 
L 67.701092 182.350806 
L 68.508558 182.34916 
L 69.316024 182.347252 
L 70.123491 182.345001 
L 70.930957 182.342326 
L 71.738423 182.339135 
L 72.545889 182.334196 
L 73.353356 182.326982 
L 74.160822 182.317886 
L 74.968288 182.307301 
L 75.775755 182.295619 
L 76.583221 182.283232 
L 77.390687 182.270532 
L 78.198154 182.257913 
L 79.00562 182.245767 
L 79.813086 182.234487 
L 80.620553 182.224464 
L 81.428019 182.216092 
L 82.235485 182.209762 
L 83.042951 182.205868 
L 83.850418 182.204769 
L 84.657884 182.204944 
L 85.46535 182.205382 
L 86.272817 182.206076 
L 87.080283 182.207019 
L 87.887749 182.208203 
L 88.695216 182.209622 
L 89.502682 182.211268 
L 90.310148 182.213134 
L 91.117615 182.215213 
L 91.925081 182.217497 
L 92.732547 182.21998 
L 93.540013 182.222654 
L 94.34748 182.225512 
L 95.154946 182.228546 
L 95.962412 182.231867 
L 96.769879 182.239147 
L 97.577345 182.251602 
L 98.384811 182.268505 
L 99.192278 182.289127 
L 99.999744 182.312741 
L 100.80721 182.338619 
L 101.614677 182.366032 
L 102.422143 182.394253 
L 103.229609 182.422554 
L 104.037076 182.450206 
L 104.844542 182.476483 
L 105.652008 182.500655 
L 106.459474 182.521994 
L 107.266941 182.539774 
L 108.074407 182.553424 
L 108.881873 182.565851 
L 109.68934 182.578291 
L 110.496806 182.590609 
L 111.304272 182.60267 
L 112.111739 182.614339 
L 112.919205 182.625483 
L 113.726671 182.635966 
L 114.534138 182.645654 
L 115.341604 182.654413 
L 116.14907 182.662108 
L 116.956536 182.668605 
L 117.764003 182.673769 
L 118.571469 182.677465 
L 119.378935 182.679559 
L 120.186402 182.678978 
L 120.993868 182.661653 
L 121.801334 182.625199 
L 122.608801 182.572599 
L 123.416267 182.506833 
L 124.223733 182.430883 
L 125.0312 182.347731 
L 125.838666 182.260358 
L 126.646132 182.171746 
L 127.453599 182.084876 
L 128.261065 182.00273 
L 129.068531 181.92829 
L 129.875997 181.864537 
L 130.683464 181.814452 
L 131.49093 181.781017 
L 132.298396 181.765949 
L 133.105863 181.756265 
L 133.913329 181.747694 
L 134.720795 181.740109 
L 135.528262 181.73338 
L 136.335728 181.727381 
L 137.143194 181.721983 
L 137.950661 181.717058 
L 138.758127 181.712479 
L 139.565593 181.708116 
L 140.373059 181.703843 
L 141.180526 181.699531 
L 141.987992 181.695053 
L 142.795458 181.690279 
L 143.602925 181.685083 
L 144.410391 181.679419 
L 145.217857 181.673947 
L 146.025324 181.668772 
L 146.83279 181.663813 
L 147.640256 181.65899 
L 148.447723 181.654225 
L 149.255189 181.649436 
L 150.062655 181.644543 
L 150.870121 181.639468 
L 151.677588 181.634129 
L 152.485054 181.628448 
L 153.29252 181.622343 
L 154.099987 181.615735 
L 154.907453 181.608545 
L 155.714919 181.600692 
L 156.522386 181.592122 
L 157.329852 181.582933 
L 158.137318 181.573033 
L 158.944785 181.562288 
L 159.752251 181.550562 
L 160.559717 181.537722 
L 161.367184 181.523633 
L 162.17465 181.50816 
L 162.982116 181.491169 
L 163.789582 181.472525 
L 164.597049 181.452094 
L 165.404515 181.429742 
L 166.211981 181.405333 
L 167.019448 181.378734 
L 167.826914 181.349811 
L 168.63438 181.312342 
L 169.441847 181.232471 
L 170.249313 181.111101 
L 171.056779 180.955527 
L 171.864246 180.773047 
L 172.671712 180.570957 
L 173.479178 180.356555 
L 174.286644 180.137138 
L 175.094111 179.920001 
L 175.901577 179.712443 
L 176.709043 179.52176 
L 177.51651 179.355249 
L 178.323976 179.220207 
L 179.131442 179.12393 
L 179.938909 179.073716 
L 180.746375 179.072361 
L 181.553841 179.100448 
L 182.361308 179.151471 
L 183.168774 179.221559 
L 183.97624 179.30684 
L 184.783706 179.403444 
L 185.591173 179.507499 
L 186.398639 179.615135 
L 187.206105 179.722481 
L 188.013572 179.825666 
L 188.821038 179.920818 
L 189.628504 180.004067 
L 190.435971 180.071542 
L 191.243437 180.119371 
L 192.050903 180.143684 
L 192.85837 180.141643 
L 193.665836 180.116677 
L 194.473302 180.07235 
L 195.280769 180.011958 
L 196.088235 179.938796 
L 196.895701 179.85616 
L 197.703167 179.767344 
L 198.510634 179.675646 
L 199.3181 179.584359 
L 200.125566 179.496779 
L 200.933033 179.416202 
L 201.740499 179.345924 
L 202.547965 179.289239 
L 203.355432 179.249444 
L 204.162898 179.229833 
L 204.970364 179.230806 
L 205.777831 179.243743 
L 206.585297 179.266919 
L 207.392763 179.299361 
L 208.200229 179.340095 
L 209.007696 179.388147 
L 209.815162 179.442544 
L 210.622628 179.502313 
L 211.430095 179.56648 
L 212.237561 179.634072 
L 213.045027 179.704116 
L 213.852494 179.775637 
L 214.65996 179.847663 
L 215.467426 179.919219 
L 216.274893 179.989334 
L 217.082359 180.06276 
L 217.889825 180.153926 
L 218.697292 180.260469 
L 219.504758 180.378935 
L 220.312224 180.505869 
L 221.11969 180.637818 
L 221.927157 180.771329 
L 222.734623 180.902949 
L 223.542089 181.029222 
L 224.349556 181.146696 
L 225.157022 181.251918 
L 225.964488 181.341432 
L 226.771955 181.411787 
L 227.579421 181.459528 
L 228.386887 181.481201 
L 229.194354 181.478276 
L 230.00182 181.462055 
L 230.809286 181.434905 
L 231.616752 181.398704 
L 232.424219 181.355328 
L 233.231685 181.306654 
L 234.039151 181.254559 
L 234.846618 181.200919 
L 235.654084 181.147612 
L 236.46155 181.096513 
L 237.269017 181.049499 
L 238.076483 181.008449 
L 238.883949 180.975237 
L 239.691416 180.951741 
L 240.498882 180.939837 
L 241.306348 180.936974 
L 242.113814 180.934844 
L 242.921281 180.933113 
L 243.728747 180.931712 
L 244.536213 180.93057 
L 245.34368 180.929617 
L 246.151146 180.928784 
L 246.958612 180.928001 
L 247.766079 180.927198 
L 248.573545 180.926305 
L 249.381011 180.925252 
L 250.188478 180.92397 
L 250.995944 180.922387 
L 251.80341 180.920436 
L 252.610877 180.918045 
L 253.418343 180.911936 
L 254.225809 180.897268 
L 255.033275 180.875269 
L 255.840742 180.847276 
L 256.648208 180.814624 
L 257.455674 180.778647 
L 258.263141 180.740683 
L 259.070607 180.702064 
L 259.878073 180.664128 
L 260.68554 180.62821 
L 261.493006 180.595644 
L 262.300472 180.567766 
L 263.107939 180.545912 
L 263.915405 180.531416 
L 264.722871 180.525614 
L 265.530337 180.529716 
L 266.337804 180.543292 
L 267.14527 180.565057 
L 267.952736 180.593719 
L 268.760203 180.627989 
L 269.567669 180.666577 
L 270.375135 180.708192 
L 271.182602 180.751545 
L 271.990068 180.795346 
L 272.797534 180.838304 
L 273.605001 180.879129 
L 274.412467 180.916531 
L 275.219933 180.949221 
L 276.0274 180.975908 
L 276.834866 180.995302 
L 277.642332 181.01015 
L 278.449798 181.0248 
L 279.257265 181.039137 
L 280.064731 181.053039 
L 280.872197 181.066382 
L 281.679664 181.079042 
L 282.48713 181.090894 
L 283.294596 181.101816 
L 284.102063 181.111684 
L 284.909529 181.120372 
L 285.716995 181.127759 
L 286.524462 181.13372 
L 287.331928 181.138131 
L 288.139394 181.140868 
L 288.94686 181.141808 
L 288.94686 169.913008 
L 288.94686 169.913008 
L 288.139394 169.935233 
L 287.331928 169.955213 
L 286.524462 169.973035 
L 285.716995 169.988785 
L 284.909529 170.002552 
L 284.102063 170.014422 
L 283.294596 170.024483 
L 282.48713 170.032823 
L 281.679664 170.039529 
L 280.872197 170.044688 
L 280.064731 170.048388 
L 279.257265 170.050716 
L 278.449798 170.051759 
L 277.642332 170.051605 
L 276.834866 170.050328 
L 276.0274 170.043016 
L 275.219933 170.026704 
L 274.412467 170.00301 
L 273.605001 169.973554 
L 272.797534 169.939956 
L 271.990068 169.903835 
L 271.182602 169.866811 
L 270.375135 169.830504 
L 269.567669 169.796533 
L 268.760203 169.766517 
L 267.952736 169.742076 
L 267.14527 169.72483 
L 266.337804 169.716398 
L 265.530337 169.7184 
L 264.722871 169.732855 
L 263.915405 169.80569 
L 263.107939 169.958518 
L 262.300472 170.178618 
L 261.493006 170.453267 
L 260.68554 170.769745 
L 259.878073 171.115329 
L 259.070607 171.477299 
L 258.263141 171.842932 
L 257.455674 172.199507 
L 256.648208 172.534302 
L 255.840742 172.834596 
L 255.033275 173.087666 
L 254.225809 173.280792 
L 253.418343 173.401252 
L 252.610877 173.437238 
L 251.80341 173.43025 
L 250.995944 173.409944 
L 250.188478 173.378425 
L 249.381011 173.337799 
L 248.573545 173.290174 
L 247.766079 173.237654 
L 246.958612 173.182347 
L 246.151146 173.126357 
L 245.34368 173.071792 
L 244.536213 173.020757 
L 243.728747 172.975359 
L 242.921281 172.937704 
L 242.113814 172.909897 
L 241.306348 172.894045 
L 240.498882 172.893901 
L 239.691416 172.962242 
L 238.883949 173.113781 
L 238.076483 173.335228 
L 237.269017 173.613297 
L 236.46155 173.9347 
L 235.654084 174.286148 
L 234.846618 174.654355 
L 234.039151 175.026031 
L 233.231685 175.38789 
L 232.424219 175.726644 
L 231.616752 176.029004 
L 230.809286 176.281683 
L 230.00182 176.471393 
L 229.194354 176.584847 
L 228.386887 176.610729 
L 227.579421 176.583784 
L 226.771955 176.524559 
L 225.964488 176.437507 
L 225.157022 176.327079 
L 224.349556 176.197726 
L 223.542089 176.0539 
L 222.734623 175.900052 
L 221.927157 175.740635 
L 221.11969 175.580098 
L 220.312224 175.422894 
L 219.504758 175.273475 
L 218.697292 175.136291 
L 217.889825 175.015795 
L 217.082359 174.916438 
L 216.274893 174.841529 
L 215.467426 174.776389 
L 214.65996 174.715605 
L 213.852494 174.659652 
L 213.045027 174.609009 
L 212.237561 174.564152 
L 211.430095 174.525558 
L 210.622628 174.493705 
L 209.815162 174.469069 
L 209.007696 174.452128 
L 208.200229 174.443358 
L 207.392763 174.443237 
L 206.585297 174.452241 
L 205.777831 174.470848 
L 204.970364 174.499535 
L 204.162898 174.540519 
L 203.355432 174.613072 
L 202.547965 174.717916 
L 201.740499 174.849331 
L 200.933033 175.001602 
L 200.125566 175.169009 
L 199.3181 175.345834 
L 198.510634 175.52636 
L 197.703167 175.704868 
L 196.895701 175.87564 
L 196.088235 176.032959 
L 195.280769 176.171107 
L 194.473302 176.284364 
L 193.665836 176.367014 
L 192.85837 176.413339 
L 192.050903 176.418855 
L 191.243437 176.392515 
L 190.435971 176.340698 
L 189.628504 176.267598 
L 188.821038 176.177409 
L 188.013572 176.074324 
L 187.206105 175.962537 
L 186.398639 175.846242 
L 185.591173 175.729632 
L 184.783706 175.616902 
L 183.97624 175.512244 
L 183.168774 175.419853 
L 182.361308 175.343923 
L 181.553841 175.288646 
L 180.746375 175.258217 
L 179.938909 175.261931 
L 179.131442 175.33644 
L 178.323976 175.479473 
L 177.51651 175.680389 
L 176.709043 175.928548 
L 175.901577 176.213309 
L 175.094111 176.524031 
L 174.286644 176.850075 
L 173.479178 177.1808 
L 172.671712 177.505565 
L 171.864246 177.81373 
L 171.056779 178.094655 
L 170.249313 178.337699 
L 169.441847 178.532221 
L 168.63438 178.667582 
L 167.826914 178.742386 
L 167.019448 178.80541 
L 166.211981 178.865336 
L 165.404515 178.922042 
L 164.597049 178.975402 
L 163.789582 179.025294 
L 162.982116 179.071593 
L 162.17465 179.114175 
L 161.367184 179.152917 
L 160.559717 179.187695 
L 159.752251 179.218384 
L 158.944785 179.24486 
L 158.137318 179.267001 
L 157.329852 179.284681 
L 156.522386 179.297778 
L 155.714919 179.30671 
L 154.907453 179.314127 
L 154.099987 179.32049 
L 153.29252 179.325898 
L 152.485054 179.330454 
L 151.677588 179.334261 
L 150.870121 179.337421 
L 150.062655 179.340035 
L 149.255189 179.342205 
L 148.447723 179.344034 
L 147.640256 179.345624 
L 146.83279 179.347077 
L 146.025324 179.348494 
L 145.217857 179.349978 
L 144.410391 179.351632 
L 143.602925 179.352781 
L 142.795458 179.350566 
L 141.987992 179.345255 
L 141.180526 179.337477 
L 140.373059 179.327858 
L 139.565593 179.317026 
L 138.758127 179.305609 
L 137.950661 179.294234 
L 137.143194 179.283528 
L 136.335728 179.27412 
L 135.528262 179.266636 
L 134.720795 179.261704 
L 133.913329 179.259952 
L 133.105863 179.262006 
L 132.298396 179.268495 
L 131.49093 179.289454 
L 130.683464 179.354515 
L 129.875997 179.459702 
L 129.068531 179.598159 
L 128.261065 179.763028 
L 127.453599 179.947456 
L 126.646132 180.144584 
L 125.838666 180.347556 
L 125.0312 180.549517 
L 124.223733 180.74361 
L 123.416267 180.922979 
L 122.608801 181.080767 
L 121.801334 181.210119 
L 120.993868 181.304177 
L 120.186402 181.356086 
L 119.378935 181.370944 
L 118.571469 181.380029 
L 117.764003 181.385826 
L 116.956536 181.388734 
L 116.14907 181.389149 
L 115.341604 181.387471 
L 114.534138 181.384098 
L 113.726671 181.379426 
L 112.919205 181.373855 
L 112.111739 181.367782 
L 111.304272 181.361605 
L 110.496806 181.355723 
L 109.68934 181.350532 
L 108.881873 181.346432 
L 108.074407 181.34382 
L 107.266941 181.342378 
L 106.459474 181.340627 
L 105.652008 181.338642 
L 104.844542 181.336576 
L 104.037076 181.334581 
L 103.229609 181.33281 
L 102.422143 181.331414 
L 101.614677 181.330547 
L 100.80721 181.33036 
L 99.999744 181.331007 
L 99.192278 181.332639 
L 98.384811 181.335409 
L 97.577345 181.339469 
L 96.769879 181.344972 
L 95.962412 181.352069 
L 95.154946 181.360136 
L 94.34748 181.367673 
L 93.540013 181.374698 
L 92.732547 181.381278 
L 91.925081 181.387481 
L 91.117615 181.393373 
L 90.310148 181.399021 
L 89.502682 181.404492 
L 88.695216 181.409853 
L 87.887749 181.41517 
L 87.080283 181.420511 
L 86.272817 181.425943 
L 85.46535 181.431531 
L 84.657884 181.437344 
L 83.850418 181.443448 
L 83.042951 181.451018 
L 82.235485 181.461719 
L 81.428019 181.47508 
L 80.620553 181.490594 
L 79.813086 181.507752 
L 79.00562 181.526047 
L 78.198154 181.544971 
L 77.390687 181.564017 
L 76.583221 181.582677 
L 75.775755 181.600444 
L 74.968288 181.616809 
L 74.160822 181.631266 
L 73.353356 181.643305 
L 72.545889 181.652421 
L 71.738423 181.658105 
L 70.930957 181.661259 
L 70.123491 181.663794 
L 69.316024 181.665821 
L 68.508558 181.667437 
L 67.701092 181.668737 
L 66.893625 181.669817 
L 66.086159 181.670774 
L 65.278693 181.671702 
L 64.471226 181.672699 
L 63.66376 181.673859 
L 62.856294 181.675278 
L 62.048827 181.677054 
L 61.241361 181.67928 
L 60.433895 181.682054 
L 59.626428 181.685471 
L 58.818962 181.694647 
L 58.011496 181.715201 
L 57.20403 181.746355 
L 56.396563 181.787313 
L 55.589097 181.837281 
L 54.781631 181.895463 
L 53.974164 181.961064 
L 53.166698 182.033291 
L 52.359232 182.111347 
L 51.551765 182.194438 
L 50.744299 182.28177 
L 49.936833 182.372547 
L 49.129366 182.465975 
L 48.3219 182.561258 
L 47.514434 182.657602 
z
" clip-path="url(#p07f6ba693e)" style="fill: url(#h503a988759)"/>
   </g>
   <g id="FillBetweenPolyCollection_3">
    <path d="M 47.514434 182.657602 
L 47.514434 182.657602 
L 48.3219 182.561258 
L 49.129366 182.465975 
L 49.936833 182.372547 
L 50.744299 182.28177 
L 51.551765 182.194438 
L 52.359232 182.111347 
L 53.166698 182.033291 
L 53.974164 181.961064 
L 54.781631 181.895463 
L 55.589097 181.837281 
L 56.396563 181.787313 
L 57.20403 181.746355 
L 58.011496 181.715201 
L 58.818962 181.694647 
L 59.626428 181.685471 
L 60.433895 181.682054 
L 61.241361 181.67928 
L 62.048827 181.677054 
L 62.856294 181.675278 
L 63.66376 181.673859 
L 64.471226 181.672699 
L 65.278693 181.671702 
L 66.086159 181.670774 
L 66.893625 181.669817 
L 67.701092 181.668737 
L 68.508558 181.667437 
L 69.316024 181.665821 
L 70.123491 181.663794 
L 70.930957 181.661259 
L 71.738423 181.658105 
L 72.545889 181.652421 
L 73.353356 181.643305 
L 74.160822 181.631266 
L 74.968288 181.616809 
L 75.775755 181.600444 
L 76.583221 181.582677 
L 77.390687 181.564017 
L 78.198154 181.544971 
L 79.00562 181.526047 
L 79.813086 181.507752 
L 80.620553 181.490594 
L 81.428019 181.47508 
L 82.235485 181.461719 
L 83.042951 181.451018 
L 83.850418 181.443448 
L 84.657884 181.437344 
L 85.46535 181.431531 
L 86.272817 181.425943 
L 87.080283 181.420511 
L 87.887749 181.41517 
L 88.695216 181.409853 
L 89.502682 181.404492 
L 90.310148 181.399021 
L 91.117615 181.393373 
L 91.925081 181.387481 
L 92.732547 181.381278 
L 93.540013 181.374698 
L 94.34748 181.367673 
L 95.154946 181.360136 
L 95.962412 181.352069 
L 96.769879 181.344972 
L 97.577345 181.339469 
L 98.384811 181.335409 
L 99.192278 181.332639 
L 99.999744 181.331007 
L 100.80721 181.33036 
L 101.614677 181.330547 
L 102.422143 181.331414 
L 103.229609 181.33281 
L 104.037076 181.334581 
L 104.844542 181.336576 
L 105.652008 181.338642 
L 106.459474 181.340627 
L 107.266941 181.342378 
L 108.074407 181.34382 
L 108.881873 181.346432 
L 109.68934 181.350532 
L 110.496806 181.355723 
L 111.304272 181.361605 
L 112.111739 181.367782 
L 112.919205 181.373855 
L 113.726671 181.379426 
L 114.534138 181.384098 
L 115.341604 181.387471 
L 116.14907 181.389149 
L 116.956536 181.388734 
L 117.764003 181.385826 
L 118.571469 181.380029 
L 119.378935 181.370944 
L 120.186402 181.356086 
L 120.993868 181.304177 
L 121.801334 181.210119 
L 122.608801 181.080767 
L 123.416267 180.922979 
L 124.223733 180.74361 
L 125.0312 180.549517 
L 125.838666 180.347556 
L 126.646132 180.144584 
L 127.453599 179.947456 
L 128.261065 179.763028 
L 129.068531 179.598159 
L 129.875997 179.459702 
L 130.683464 179.354515 
L 131.49093 179.289454 
L 132.298396 179.268495 
L 133.105863 179.262006 
L 133.913329 179.259952 
L 134.720795 179.261704 
L 135.528262 179.266636 
L 136.335728 179.27412 
L 137.143194 179.283528 
L 137.950661 179.294234 
L 138.758127 179.305609 
L 139.565593 179.317026 
L 140.373059 179.327858 
L 141.180526 179.337477 
L 141.987992 179.345255 
L 142.795458 179.350566 
L 143.602925 179.352781 
L 144.410391 179.351632 
L 145.217857 179.349978 
L 146.025324 179.348494 
L 146.83279 179.347077 
L 147.640256 179.345624 
L 148.447723 179.344034 
L 149.255189 179.342205 
L 150.062655 179.340035 
L 150.870121 179.337421 
L 151.677588 179.334261 
L 152.485054 179.330454 
L 153.29252 179.325898 
L 154.099987 179.32049 
L 154.907453 179.314127 
L 155.714919 179.30671 
L 156.522386 179.297778 
L 157.329852 179.284681 
L 158.137318 179.267001 
L 158.944785 179.24486 
L 159.752251 179.218384 
L 160.559717 179.187695 
L 161.367184 179.152917 
L 162.17465 179.114175 
L 162.982116 179.071593 
L 163.789582 179.025294 
L 164.597049 178.975402 
L 165.404515 178.922042 
L 166.211981 178.865336 
L 167.019448 178.80541 
L 167.826914 178.742386 
L 168.63438 178.667582 
L 169.441847 178.532221 
L 170.249313 178.337699 
L 171.056779 178.094655 
L 171.864246 177.81373 
L 172.671712 177.505565 
L 173.479178 177.1808 
L 174.286644 176.850075 
L 175.094111 176.524031 
L 175.901577 176.213309 
L 176.709043 175.928548 
L 177.51651 175.680389 
L 178.323976 175.479473 
L 179.131442 175.33644 
L 179.938909 175.261931 
L 180.746375 175.258217 
L 181.553841 175.288646 
L 182.361308 175.343923 
L 183.168774 175.419853 
L 183.97624 175.512244 
L 184.783706 175.616902 
L 185.591173 175.729632 
L 186.398639 175.846242 
L 187.206105 175.962537 
L 188.013572 176.074324 
L 188.821038 176.177409 
L 189.628504 176.267598 
L 190.435971 176.340698 
L 191.243437 176.392515 
L 192.050903 176.418855 
L 192.85837 176.413339 
L 193.665836 176.367014 
L 194.473302 176.284364 
L 195.280769 176.171107 
L 196.088235 176.032959 
L 196.895701 175.87564 
L 197.703167 175.704868 
L 198.510634 175.52636 
L 199.3181 175.345834 
L 200.125566 175.169009 
L 200.933033 175.001602 
L 201.740499 174.849331 
L 202.547965 174.717916 
L 203.355432 174.613072 
L 204.162898 174.540519 
L 204.970364 174.499535 
L 205.777831 174.470848 
L 206.585297 174.452241 
L 207.392763 174.443237 
L 208.200229 174.443358 
L 209.007696 174.452128 
L 209.815162 174.469069 
L 210.622628 174.493705 
L 211.430095 174.525558 
L 212.237561 174.564152 
L 213.045027 174.609009 
L 213.852494 174.659652 
L 214.65996 174.715605 
L 215.467426 174.776389 
L 216.274893 174.841529 
L 217.082359 174.916438 
L 217.889825 175.015795 
L 218.697292 175.136291 
L 219.504758 175.273475 
L 220.312224 175.422894 
L 221.11969 175.580098 
L 221.927157 175.740635 
L 222.734623 175.900052 
L 223.542089 176.0539 
L 224.349556 176.197726 
L 225.157022 176.327079 
L 225.964488 176.437507 
L 226.771955 176.524559 
L 227.579421 176.583784 
L 228.386887 176.610729 
L 229.194354 176.584847 
L 230.00182 176.471393 
L 230.809286 176.281683 
L 231.616752 176.029004 
L 232.424219 175.726644 
L 233.231685 175.38789 
L 234.039151 175.026031 
L 234.846618 174.654355 
L 235.654084 174.286148 
L 236.46155 173.9347 
L 237.269017 173.613297 
L 238.076483 173.335228 
L 238.883949 173.113781 
L 239.691416 172.962242 
L 240.498882 172.893901 
L 241.306348 172.894045 
L 242.113814 172.909897 
L 242.921281 172.937704 
L 243.728747 172.975359 
L 244.536213 173.020757 
L 245.34368 173.071792 
L 246.151146 173.126357 
L 246.958612 173.182347 
L 247.766079 173.237654 
L 248.573545 173.290174 
L 249.381011 173.337799 
L 250.188478 173.378425 
L 250.995944 173.409944 
L 251.80341 173.43025 
L 252.610877 173.437238 
L 253.418343 173.401252 
L 254.225809 173.280792 
L 255.033275 173.087666 
L 255.840742 172.834596 
L 256.648208 172.534302 
L 257.455674 172.199507 
L 258.263141 171.842932 
L 259.070607 171.477299 
L 259.878073 171.115329 
L 260.68554 170.769745 
L 261.493006 170.453267 
L 262.300472 170.178618 
L 263.107939 169.958518 
L 263.915405 169.80569 
L 264.722871 169.732855 
L 265.530337 169.7184 
L 266.337804 169.716398 
L 267.14527 169.72483 
L 267.952736 169.742076 
L 268.760203 169.766517 
L 269.567669 169.796533 
L 270.375135 169.830504 
L 271.182602 169.866811 
L 271.990068 169.903835 
L 272.797534 169.939956 
L 273.605001 169.973554 
L 274.412467 170.00301 
L 275.219933 170.026704 
L 276.0274 170.043016 
L 276.834866 170.050328 
L 277.642332 170.051605 
L 278.449798 170.051759 
L 279.257265 170.050716 
L 280.064731 170.048388 
L 280.872197 170.044688 
L 281.679664 170.039529 
L 282.48713 170.032823 
L 283.294596 170.024483 
L 284.102063 170.014422 
L 284.909529 170.002552 
L 285.716995 169.988785 
L 286.524462 169.973035 
L 287.331928 169.955213 
L 288.139394 169.935233 
L 288.94686 169.913008 
L 288.94686 169.882244 
L 288.94686 169.882244 
L 288.139394 169.904495 
L 287.331928 169.924549 
L 286.524462 169.942491 
L 285.716995 169.958407 
L 284.909529 169.972382 
L 284.102063 169.984499 
L 283.294596 169.994846 
L 282.48713 170.003506 
L 281.679664 170.010565 
L 280.872197 170.016107 
L 280.064731 170.020219 
L 279.257265 170.022984 
L 278.449798 170.024489 
L 277.642332 170.024817 
L 276.834866 170.024043 
L 276.0274 170.017538 
L 275.219933 170.002518 
L 274.412467 169.980521 
L 273.605001 169.953086 
L 272.797534 169.921751 
L 271.990068 169.888055 
L 271.182602 169.853538 
L 270.375135 169.819737 
L 269.567669 169.788191 
L 268.760203 169.76044 
L 267.952736 169.738022 
L 267.14527 169.722475 
L 266.337804 169.715339 
L 265.530337 169.718152 
L 264.722871 169.732855 
L 263.915405 169.80569 
L 263.107939 169.958518 
L 262.300472 170.178618 
L 261.493006 170.453267 
L 260.68554 170.769745 
L 259.878073 171.115329 
L 259.070607 171.477299 
L 258.263141 171.842932 
L 257.455674 172.199507 
L 256.648208 172.534302 
L 255.840742 172.834596 
L 255.033275 173.087666 
L 254.225809 173.280792 
L 253.418343 173.401252 
L 252.610877 173.437233 
L 251.80341 173.429951 
L 250.995944 173.408947 
L 250.188478 173.376391 
L 249.381011 173.334453 
L 248.573545 173.285302 
L 247.766079 173.231109 
L 246.958612 173.174043 
L 246.151146 173.116275 
L 245.34368 173.059974 
L 244.536213 173.00731 
L 243.728747 172.960454 
L 242.921281 172.921574 
L 242.113814 172.892842 
L 241.306348 172.876427 
L 240.498882 172.876146 
L 239.691416 172.944802 
L 238.883949 173.097056 
L 238.076483 173.319556 
L 237.269017 173.59895 
L 236.46155 173.921887 
L 235.654084 174.275015 
L 234.846618 174.644982 
L 234.039151 175.018437 
L 233.231685 175.382028 
L 232.424219 175.722403 
L 231.616752 176.026212 
L 230.809286 176.280101 
L 230.00182 176.47072 
L 229.194354 176.584717 
L 228.386887 176.610729 
L 227.579421 176.583784 
L 226.771955 176.524559 
L 225.964488 176.437507 
L 225.157022 176.327079 
L 224.349556 176.197726 
L 223.542089 176.0539 
L 222.734623 175.900052 
L 221.927157 175.740635 
L 221.11969 175.580098 
L 220.312224 175.422894 
L 219.504758 175.273475 
L 218.697292 175.136291 
L 217.889825 175.015795 
L 217.082359 174.916438 
L 216.274893 174.84149 
L 215.467426 174.77568 
L 214.65996 174.71349 
L 213.852494 174.655515 
L 213.045027 174.602351 
L 212.237561 174.554596 
L 211.430095 174.512844 
L 210.622628 174.477693 
L 209.815162 174.449739 
L 209.007696 174.429577 
L 208.200229 174.417804 
L 207.392763 174.415017 
L 206.585297 174.421811 
L 205.777831 174.438783 
L 204.970364 174.466529 
L 204.162898 174.507384 
L 203.355432 174.580646 
L 202.547965 174.686929 
L 201.740499 174.820395 
L 200.933033 174.975207 
L 200.125566 175.145529 
L 199.3181 175.325522 
L 198.510634 175.509349 
L 197.703167 175.691174 
L 196.895701 175.865159 
L 196.088235 176.025467 
L 195.280769 176.16626 
L 194.473302 176.281702 
L 193.665836 176.365955 
L 192.85837 176.413183 
L 192.050903 176.418855 
L 191.243437 176.392515 
L 190.435971 176.340698 
L 189.628504 176.267598 
L 188.821038 176.177409 
L 188.013572 176.074324 
L 187.206105 175.962537 
L 186.398639 175.846242 
L 185.591173 175.729632 
L 184.783706 175.616902 
L 183.97624 175.512244 
L 183.168774 175.419853 
L 182.361308 175.343923 
L 181.553841 175.288646 
L 180.746375 175.258217 
L 179.938909 175.261931 
L 179.131442 175.33644 
L 178.323976 175.479473 
L 177.51651 175.680389 
L 176.709043 175.928548 
L 175.901577 176.213309 
L 175.094111 176.524031 
L 174.286644 176.850075 
L 173.479178 177.1808 
L 172.671712 177.505565 
L 171.864246 177.81373 
L 171.056779 178.094655 
L 170.249313 178.337699 
L 169.441847 178.532221 
L 168.63438 178.667582 
L 167.826914 178.742386 
L 167.019448 178.80541 
L 166.211981 178.865336 
L 165.404515 178.922042 
L 164.597049 178.975402 
L 163.789582 179.025294 
L 162.982116 179.071593 
L 162.17465 179.114175 
L 161.367184 179.152917 
L 160.559717 179.187695 
L 159.752251 179.218384 
L 158.944785 179.24486 
L 158.137318 179.267001 
L 157.329852 179.284681 
L 156.522386 179.297778 
L 155.714919 179.30671 
L 154.907453 179.314127 
L 154.099987 179.32049 
L 153.29252 179.325898 
L 152.485054 179.330454 
L 151.677588 179.334261 
L 150.870121 179.337421 
L 150.062655 179.340035 
L 149.255189 179.342205 
L 148.447723 179.344034 
L 147.640256 179.345624 
L 146.83279 179.347077 
L 146.025324 179.348494 
L 145.217857 179.349978 
L 144.410391 179.351632 
L 143.602925 179.352781 
L 142.795458 179.350566 
L 141.987992 179.345255 
L 141.180526 179.337477 
L 140.373059 179.327858 
L 139.565593 179.317026 
L 138.758127 179.305609 
L 137.950661 179.294234 
L 137.143194 179.283528 
L 136.335728 179.27412 
L 135.528262 179.266636 
L 134.720795 179.261704 
L 133.913329 179.259952 
L 133.105863 179.262006 
L 132.298396 179.268495 
L 131.49093 179.289337 
L 130.683464 179.353796 
L 129.875997 179.457936 
L 129.068531 179.594977 
L 128.261065 179.75814 
L 127.453599 179.940644 
L 126.646132 180.13571 
L 125.838666 180.336557 
L 125.0312 180.536407 
L 124.223733 180.728478 
L 123.416267 180.90599 
L 122.608801 181.062165 
L 121.801334 181.190221 
L 120.993868 181.28338 
L 120.186402 181.33486 
L 119.378935 181.349742 
L 118.571469 181.35906 
L 117.764003 181.365262 
L 116.956536 181.368725 
L 116.14907 181.369824 
L 115.341604 181.368936 
L 114.534138 181.366438 
L 113.726671 181.362706 
L 112.919205 181.358117 
L 112.111739 181.353047 
L 111.304272 181.347874 
L 110.496806 181.342972 
L 109.68934 181.338719 
L 108.881873 181.335491 
L 108.074407 181.333666 
L 107.266941 181.332956 
L 106.459474 181.331997 
L 105.652008 181.330853 
L 104.844542 181.32966 
L 104.037076 181.328553 
L 103.229609 181.327669 
L 102.422143 181.327141 
L 101.614677 181.327108 
L 100.80721 181.327702 
L 99.999744 181.329061 
L 99.192278 181.33132 
L 98.384811 181.334615 
L 97.577345 181.33908 
L 96.769879 181.344852 
L 95.962412 181.352066 
L 95.154946 181.360136 
L 94.34748 181.367673 
L 93.540013 181.374698 
L 92.732547 181.381278 
L 91.925081 181.387481 
L 91.117615 181.393373 
L 90.310148 181.399021 
L 89.502682 181.404492 
L 88.695216 181.409853 
L 87.887749 181.41517 
L 87.080283 181.420511 
L 86.272817 181.425943 
L 85.46535 181.431531 
L 84.657884 181.437344 
L 83.850418 181.443448 
L 83.042951 181.451018 
L 82.235485 181.461719 
L 81.428019 181.47508 
L 80.620553 181.490594 
L 79.813086 181.507752 
L 79.00562 181.526047 
L 78.198154 181.544971 
L 77.390687 181.564017 
L 76.583221 181.582677 
L 75.775755 181.600444 
L 74.968288 181.616809 
L 74.160822 181.631266 
L 73.353356 181.643305 
L 72.545889 181.652421 
L 71.738423 181.658105 
L 70.930957 181.661259 
L 70.123491 181.663794 
L 69.316024 181.665821 
L 68.508558 181.667437 
L 67.701092 181.668737 
L 66.893625 181.669817 
L 66.086159 181.670774 
L 65.278693 181.671702 
L 64.471226 181.672699 
L 63.66376 181.673859 
L 62.856294 181.675278 
L 62.048827 181.677054 
L 61.241361 181.67928 
L 60.433895 181.682054 
L 59.626428 181.685471 
L 58.818962 181.694647 
L 58.011496 181.715201 
L 57.20403 181.746355 
L 56.396563 181.787313 
L 55.589097 181.837281 
L 54.781631 181.895463 
L 53.974164 181.961064 
L 53.166698 182.033291 
L 52.359232 182.111347 
L 51.551765 182.194438 
L 50.744299 182.28177 
L 49.936833 182.372547 
L 49.129366 182.465975 
L 48.3219 182.561258 
L 47.514434 182.657602 
z
" clip-path="url(#p07f6ba693e)" style="fill: url(#habc97059e8)"/>
   </g>
   <g id="FillBetweenPolyCollection_4">
    <path d="M 47.514434 182.657602 
L 47.514434 182.657602 
L 48.3219 182.561258 
L 49.129366 182.465975 
L 49.936833 182.372547 
L 50.744299 182.28177 
L 51.551765 182.194438 
L 52.359232 182.111347 
L 53.166698 182.033291 
L 53.974164 181.961064 
L 54.781631 181.895463 
L 55.589097 181.837281 
L 56.396563 181.787313 
L 57.20403 181.746355 
L 58.011496 181.715201 
L 58.818962 181.694647 
L 59.626428 181.685471 
L 60.433895 181.682054 
L 61.241361 181.67928 
L 62.048827 181.677054 
L 62.856294 181.675278 
L 63.66376 181.673859 
L 64.471226 181.672699 
L 65.278693 181.671702 
L 66.086159 181.670774 
L 66.893625 181.669817 
L 67.701092 181.668737 
L 68.508558 181.667437 
L 69.316024 181.665821 
L 70.123491 181.663794 
L 70.930957 181.661259 
L 71.738423 181.658105 
L 72.545889 181.652421 
L 73.353356 181.643305 
L 74.160822 181.631266 
L 74.968288 181.616809 
L 75.775755 181.600444 
L 76.583221 181.582677 
L 77.390687 181.564017 
L 78.198154 181.544971 
L 79.00562 181.526047 
L 79.813086 181.507752 
L 80.620553 181.490594 
L 81.428019 181.47508 
L 82.235485 181.461719 
L 83.042951 181.451018 
L 83.850418 181.443448 
L 84.657884 181.437344 
L 85.46535 181.431531 
L 86.272817 181.425943 
L 87.080283 181.420511 
L 87.887749 181.41517 
L 88.695216 181.409853 
L 89.502682 181.404492 
L 90.310148 181.399021 
L 91.117615 181.393373 
L 91.925081 181.387481 
L 92.732547 181.381278 
L 93.540013 181.374698 
L 94.34748 181.367673 
L 95.154946 181.360136 
L 95.962412 181.352066 
L 96.769879 181.344852 
L 97.577345 181.33908 
L 98.384811 181.334615 
L 99.192278 181.33132 
L 99.999744 181.329061 
L 100.80721 181.327702 
L 101.614677 181.327108 
L 102.422143 181.327141 
L 103.229609 181.327669 
L 104.037076 181.328553 
L 104.844542 181.32966 
L 105.652008 181.330853 
L 106.459474 181.331997 
L 107.266941 181.332956 
L 108.074407 181.333666 
L 108.881873 181.335491 
L 109.68934 181.338719 
L 110.496806 181.342972 
L 111.304272 181.347874 
L 112.111739 181.353047 
L 112.919205 181.358117 
L 113.726671 181.362706 
L 114.534138 181.366438 
L 115.341604 181.368936 
L 116.14907 181.369824 
L 116.956536 181.368725 
L 117.764003 181.365262 
L 118.571469 181.35906 
L 119.378935 181.349742 
L 120.186402 181.33486 
L 120.993868 181.28338 
L 121.801334 181.190221 
L 122.608801 181.062165 
L 123.416267 180.90599 
L 124.223733 180.728478 
L 125.0312 180.536407 
L 125.838666 180.336557 
L 126.646132 180.13571 
L 127.453599 179.940644 
L 128.261065 179.75814 
L 129.068531 179.594977 
L 129.875997 179.457936 
L 130.683464 179.353796 
L 131.49093 179.289337 
L 132.298396 179.268495 
L 133.105863 179.262006 
L 133.913329 179.259952 
L 134.720795 179.261704 
L 135.528262 179.266636 
L 136.335728 179.27412 
L 137.143194 179.283528 
L 137.950661 179.294234 
L 138.758127 179.305609 
L 139.565593 179.317026 
L 140.373059 179.327858 
L 141.180526 179.337477 
L 141.987992 179.345255 
L 142.795458 179.350566 
L 143.602925 179.352781 
L 144.410391 179.351632 
L 145.217857 179.349978 
L 146.025324 179.348494 
L 146.83279 179.347077 
L 147.640256 179.345624 
L 148.447723 179.344034 
L 149.255189 179.342205 
L 150.062655 179.340035 
L 150.870121 179.337421 
L 151.677588 179.334261 
L 152.485054 179.330454 
L 153.29252 179.325898 
L 154.099987 179.32049 
L 154.907453 179.314127 
L 155.714919 179.30671 
L 156.522386 179.297778 
L 157.329852 179.284681 
L 158.137318 179.267001 
L 158.944785 179.24486 
L 159.752251 179.218384 
L 160.559717 179.187695 
L 161.367184 179.152917 
L 162.17465 179.114175 
L 162.982116 179.071593 
L 163.789582 179.025294 
L 164.597049 178.975402 
L 165.404515 178.922042 
L 166.211981 178.865336 
L 167.019448 178.80541 
L 167.826914 178.742386 
L 168.63438 178.667582 
L 169.441847 178.532221 
L 170.249313 178.337699 
L 171.056779 178.094655 
L 171.864246 177.81373 
L 172.671712 177.505565 
L 173.479178 177.1808 
L 174.286644 176.850075 
L 175.094111 176.524031 
L 175.901577 176.213309 
L 176.709043 175.928548 
L 177.51651 175.680389 
L 178.323976 175.479473 
L 179.131442 175.33644 
L 179.938909 175.261931 
L 180.746375 175.258217 
L 181.553841 175.288646 
L 182.361308 175.343923 
L 183.168774 175.419853 
L 183.97624 175.512244 
L 184.783706 175.616902 
L 185.591173 175.729632 
L 186.398639 175.846242 
L 187.206105 175.962537 
L 188.013572 176.074324 
L 188.821038 176.177409 
L 189.628504 176.267598 
L 190.435971 176.340698 
L 191.243437 176.392515 
L 192.050903 176.418855 
L 192.85837 176.413183 
L 193.665836 176.365955 
L 194.473302 176.281702 
L 195.280769 176.16626 
L 196.088235 176.025467 
L 196.895701 175.865159 
L 197.703167 175.691174 
L 198.510634 175.509349 
L 199.3181 175.325522 
L 200.125566 175.145529 
L 200.933033 174.975207 
L 201.740499 174.820395 
L 202.547965 174.686929 
L 203.355432 174.580646 
L 204.162898 174.507384 
L 204.970364 174.466529 
L 205.777831 174.438783 
L 206.585297 174.421811 
L 207.392763 174.415017 
L 208.200229 174.417804 
L 209.007696 174.429577 
L 209.815162 174.449739 
L 210.622628 174.477693 
L 211.430095 174.512844 
L 212.237561 174.554596 
L 213.045027 174.602351 
L 213.852494 174.655515 
L 214.65996 174.71349 
L 215.467426 174.77568 
L 216.274893 174.84149 
L 217.082359 174.916438 
L 217.889825 175.015795 
L 218.697292 175.136291 
L 219.504758 175.273475 
L 220.312224 175.422894 
L 221.11969 175.580098 
L 221.927157 175.740635 
L 222.734623 175.900052 
L 223.542089 176.0539 
L 224.349556 176.197726 
L 225.157022 176.327079 
L 225.964488 176.437507 
L 226.771955 176.524559 
L 227.579421 176.583784 
L 228.386887 176.610729 
L 229.194354 176.584717 
L 230.00182 176.47072 
L 230.809286 176.280101 
L 231.616752 176.026212 
L 232.424219 175.722403 
L 233.231685 175.382028 
L 234.039151 175.018437 
L 234.846618 174.644982 
L 235.654084 174.275015 
L 236.46155 173.921887 
L 237.269017 173.59895 
L 238.076483 173.319556 
L 238.883949 173.097056 
L 239.691416 172.944802 
L 240.498882 172.876146 
L 241.306348 172.876427 
L 242.113814 172.892842 
L 242.921281 172.921574 
L 243.728747 172.960454 
L 244.536213 173.00731 
L 245.34368 173.059974 
L 246.151146 173.116275 
L 246.958612 173.174043 
L 247.766079 173.231109 
L 248.573545 173.285302 
L 249.381011 173.334453 
L 250.188478 173.376391 
L 250.995944 173.408947 
L 251.80341 173.429951 
L 252.610877 173.437233 
L 253.418343 173.401252 
L 254.225809 173.280792 
L 255.033275 173.087666 
L 255.840742 172.834596 
L 256.648208 172.534302 
L 257.455674 172.199507 
L 258.263141 171.842932 
L 259.070607 171.477299 
L 259.878073 171.115329 
L 260.68554 170.769745 
L 261.493006 170.453267 
L 262.300472 170.178618 
L 263.107939 169.958518 
L 263.915405 169.80569 
L 264.722871 169.732855 
L 265.530337 169.718152 
L 266.337804 169.715339 
L 267.14527 169.722475 
L 267.952736 169.738022 
L 268.760203 169.76044 
L 269.567669 169.788191 
L 270.375135 169.819737 
L 271.182602 169.853538 
L 271.990068 169.888055 
L 272.797534 169.921751 
L 273.605001 169.953086 
L 274.412467 169.980521 
L 275.219933 170.002518 
L 276.0274 170.017538 
L 276.834866 170.024043 
L 277.642332 170.024817 
L 278.449798 170.024489 
L 279.257265 170.022984 
L 280.064731 170.020219 
L 280.872197 170.016107 
L 281.679664 170.010565 
L 282.48713 170.003506 
L 283.294596 169.994846 
L 284.102063 169.984499 
L 284.909529 169.972382 
L 285.716995 169.958407 
L 286.524462 169.942491 
L 287.331928 169.924549 
L 288.139394 169.904495 
L 288.94686 169.882244 
L 288.94686 169.697661 
L 288.94686 169.697661 
L 288.139394 169.719987 
L 287.331928 169.740107 
L 286.524462 169.758105 
L 285.716995 169.774068 
L 284.909529 169.788082 
L 284.102063 169.800232 
L 283.294596 169.810604 
L 282.48713 169.819284 
L 281.679664 169.826358 
L 280.872197 169.831912 
L 280.064731 169.83603 
L 279.257265 169.8388 
L 278.449798 169.840306 
L 277.642332 169.840636 
L 276.834866 169.839854 
L 276.0274 169.830136 
L 275.219933 169.806632 
L 274.412467 169.771703 
L 273.605001 169.727706 
L 272.797534 169.677 
L 271.990068 169.621945 
L 271.182602 169.564899 
L 270.375135 169.508221 
L 269.567669 169.45427 
L 268.760203 169.405405 
L 267.952736 169.363985 
L 267.14527 169.332369 
L 266.337804 169.312915 
L 265.530337 169.307983 
L 264.722871 169.320315 
L 263.915405 169.394448 
L 263.107939 169.550555 
L 262.300472 169.775663 
L 261.493006 170.056801 
L 260.68554 170.380996 
L 259.878073 170.735275 
L 259.070607 171.106668 
L 258.263141 171.4822 
L 257.455674 171.848901 
L 256.648208 172.193798 
L 255.840742 172.503918 
L 255.033275 172.76629 
L 254.225809 172.967941 
L 253.418343 173.095898 
L 252.610877 173.138118 
L 251.80341 173.136649 
L 250.995944 173.121549 
L 250.188478 173.094924 
L 249.381011 173.058882 
L 248.573545 173.015532 
L 247.766079 172.966981 
L 246.958612 172.915336 
L 246.151146 172.862707 
L 245.34368 172.8112 
L 244.536213 172.762924 
L 243.728747 172.719986 
L 242.921281 172.684494 
L 242.113814 172.658557 
L 241.306348 172.644281 
L 240.498882 172.645437 
L 239.691416 172.715259 
L 238.883949 172.868629 
L 238.076483 173.092189 
L 237.269017 173.372584 
L 236.46155 173.696458 
L 235.654084 174.050453 
L 234.846618 174.421213 
L 234.039151 174.795383 
L 233.231685 175.159605 
L 232.424219 175.500523 
L 231.616752 175.80478 
L 230.809286 176.059021 
L 230.00182 176.249889 
L 229.194354 176.364027 
L 228.386887 176.390064 
L 227.579421 176.362968 
L 226.771955 176.303415 
L 225.964488 176.215886 
L 225.157022 176.10486 
L 224.349556 175.974817 
L 223.542089 175.830238 
L 222.734623 175.675602 
L 221.927157 175.51539 
L 221.11969 175.35408 
L 220.312224 175.196155 
L 219.504758 175.046093 
L 218.697292 174.908374 
L 217.889825 174.787479 
L 217.082359 174.687887 
L 216.274893 174.612965 
L 215.467426 174.548445 
L 214.65996 174.488975 
L 213.852494 174.434933 
L 213.045027 174.386701 
L 212.237561 174.34466 
L 211.430095 174.309189 
L 210.622628 174.280669 
L 209.815162 174.259481 
L 209.007696 174.246005 
L 208.200229 174.240622 
L 207.392763 174.243712 
L 206.585297 174.255655 
L 205.777831 174.276833 
L 204.970364 174.307625 
L 204.162898 174.350243 
L 203.355432 174.424919 
L 202.547965 174.532563 
L 201.740499 174.667328 
L 200.933033 174.823371 
L 200.125566 174.994848 
L 199.3181 175.175915 
L 198.510634 175.360727 
L 197.703167 175.543439 
L 196.895701 175.718209 
L 196.088235 175.87919 
L 195.280769 176.02054 
L 194.473302 176.136413 
L 193.665836 176.220966 
L 192.85837 176.268353 
L 192.050903 176.27398 
L 191.243437 176.246858 
L 190.435971 176.193505 
L 189.628504 176.118237 
L 188.821038 176.025372 
L 188.013572 175.91923 
L 187.206105 175.804127 
L 186.398639 175.684383 
L 185.591173 175.564314 
L 184.783706 175.44824 
L 183.97624 175.340478 
L 183.168774 175.245347 
L 182.361308 175.167164 
L 181.553841 175.110248 
L 180.746375 175.078917 
L 179.938909 175.082853 
L 179.131442 175.16057 
L 178.323976 175.309734 
L 177.51651 175.51922 
L 176.709043 175.777903 
L 175.901577 176.074655 
L 175.094111 176.398352 
L 174.286644 176.737868 
L 173.479178 177.082077 
L 172.671712 177.419853 
L 171.864246 177.74007 
L 171.056779 178.031604 
L 170.249313 178.283327 
L 169.441847 178.484114 
L 168.63438 178.62284 
L 167.826914 178.697778 
L 167.019448 178.758452 
L 166.211981 178.814005 
L 165.404515 178.864652 
L 164.597049 178.910606 
L 163.789582 178.952084 
L 162.982116 178.989299 
L 162.17465 179.022468 
L 161.367184 179.051804 
L 160.559717 179.077524 
L 159.752251 179.099841 
L 158.944785 179.118971 
L 158.137318 179.135128 
L 157.329852 179.148528 
L 156.522386 179.159386 
L 155.714919 179.168409 
L 154.907453 179.178079 
L 154.099987 179.188533 
L 153.29252 179.199562 
L 152.485054 179.210959 
L 151.677588 179.222513 
L 150.870121 179.234018 
L 150.062655 179.245264 
L 149.255189 179.256044 
L 148.447723 179.266149 
L 147.640256 179.27537 
L 146.83279 179.283499 
L 146.025324 179.290328 
L 145.217857 179.295648 
L 144.410391 179.299251 
L 143.602925 179.300499 
L 142.795458 179.297798 
L 141.987992 179.291626 
L 141.180526 179.282674 
L 140.373059 179.271634 
L 139.565593 179.259197 
L 138.758127 179.246054 
L 137.950661 179.232897 
L 137.143194 179.220417 
L 136.335728 179.209307 
L 135.528262 179.200257 
L 134.720795 179.19396 
L 133.913329 179.191106 
L 133.105863 179.192387 
L 132.298396 179.198495 
L 131.49093 179.219327 
L 130.683464 179.283886 
L 129.875997 179.388205 
L 129.068531 179.525498 
L 128.261065 179.688978 
L 127.453599 179.871858 
L 126.646132 180.067352 
L 125.838666 180.268671 
L 125.0312 180.469029 
L 124.223733 180.66164 
L 123.416267 180.839716 
L 122.608801 180.99647 
L 121.801334 181.125115 
L 120.993868 181.218865 
L 120.186402 181.270932 
L 119.378935 181.286444 
L 118.571469 181.296576 
L 117.764003 181.303751 
L 116.956536 181.308312 
L 116.14907 181.3106 
L 115.341604 181.310959 
L 114.534138 181.309729 
L 113.726671 181.307254 
L 112.919205 181.303875 
L 112.111739 181.299934 
L 111.304272 181.295774 
L 110.496806 181.291737 
L 109.68934 181.288165 
L 108.881873 181.2854 
L 108.074407 181.283785 
L 107.266941 181.282704 
L 106.459474 181.280149 
L 105.652008 181.276337 
L 104.844542 181.27159 
L 104.037076 181.266233 
L 103.229609 181.260587 
L 102.422143 181.254976 
L 101.614677 181.249722 
L 100.80721 181.245148 
L 99.999744 181.241577 
L 99.192278 181.239332 
L 98.384811 181.238736 
L 97.577345 181.240112 
L 96.769879 181.243782 
L 95.962412 181.25007 
L 95.154946 181.25862 
L 94.34748 181.268101 
L 93.540013 181.278319 
L 92.732547 181.289121 
L 91.925081 181.300355 
L 91.117615 181.311866 
L 90.310148 181.323503 
L 89.502682 181.335111 
L 88.695216 181.346537 
L 87.887749 181.357628 
L 87.080283 181.368231 
L 86.272817 181.378192 
L 85.46535 181.387359 
L 84.657884 181.395578 
L 83.850418 181.402695 
L 83.042951 181.410151 
L 82.235485 181.420387 
L 81.428019 181.432996 
L 80.620553 181.447521 
L 79.813086 181.463507 
L 79.00562 181.480496 
L 78.198154 181.498031 
L 77.390687 181.515656 
L 76.583221 181.532914 
L 75.775755 181.549349 
L 74.968288 181.564504 
L 74.160822 181.577921 
L 73.353356 181.589145 
L 72.545889 181.597719 
L 71.738423 181.603185 
L 70.930957 181.606556 
L 70.123491 181.609812 
L 69.316024 181.613007 
L 68.508558 181.616179 
L 67.701092 181.619366 
L 66.893625 181.622606 
L 66.086159 181.625935 
L 65.278693 181.629391 
L 64.471226 181.633012 
L 63.66376 181.636837 
L 62.856294 181.640901 
L 62.048827 181.645243 
L 61.241361 181.649901 
L 60.433895 181.654911 
L 59.626428 181.660312 
L 58.818962 181.671303 
L 58.011496 181.693655 
L 57.20403 181.726587 
L 56.396563 181.769305 
L 55.589097 181.821013 
L 54.781631 181.880915 
L 53.974164 181.948218 
L 53.166698 182.022125 
L 52.359232 182.101841 
L 51.551765 182.186572 
L 50.744299 182.275521 
L 49.936833 182.367894 
L 49.129366 182.462895 
L 48.3219 182.55973 
L 47.514434 182.657602 
z
" clip-path="url(#p07f6ba693e)" style="fill: url(#h45dcf87486)"/>
   </g>
   <g id="patch_3">
    <path d="M 35.442813 182.68 
L 35.442813 7.2 
" style="fill: none; stroke: #000000; stroke-width: 0.5; stroke-linejoin: miter; stroke-linecap: square"/>
   </g>
   <g id="patch_4">
    <path d="M 35.442813 182.68 
L 301.018482 182.68 
" style="fill: none; stroke: #000000; stroke-width: 0.5; stroke-linejoin: miter; stroke-linecap: square"/>
   </g>
   <g id="legend_1">
    <g id="patch_5">
     <path d="M 44.442813 23.7 
L 64.442813 23.7 
L 64.442813 16.7 
L 44.442813 16.7 
z
" style="fill: url(#hced889a258)"/>
    </g>
    <g id="text_14">
     <!-- Solo -->
     <g transform="translate(72.442813 23.7) scale(0.1 -0.1)">
      <defs>
       <path id="RobotoCondensed-Regular-53" d="M 2481 1150 
Q 2481 1469 2312 1656 
Q 2144 1844 1591 2042 
Q 1038 2241 713 2547 
Q 388 2853 388 3375 
Q 388 3906 741 4259 
Q 1094 4613 1691 4613 
Q 2356 4613 2706 4191 
Q 3056 3769 3056 3238 
L 2481 3238 
Q 2481 3619 2293 3869 
Q 2106 4119 1691 4119 
Q 1313 4119 1139 3908 
Q 966 3697 966 3381 
Q 966 3094 1170 2903 
Q 1375 2713 1806 2556 
Q 2475 2338 2765 2013 
Q 3056 1688 3056 1156 
Q 3056 600 2695 268 
Q 2334 -63 1719 -63 
Q 1363 -63 1028 93 
Q 694 250 480 558 
Q 266 866 266 1319 
L 841 1319 
Q 841 853 1098 640 
Q 1356 428 1719 428 
Q 2094 428 2287 623 
Q 2481 819 2481 1150 
z
" transform="scale(0.015625)"/>
       <path id="RobotoCondensed-Regular-6c" d="M 1009 4800 
L 1009 0 
L 459 0 
L 459 4800 
L 1009 4800 
z
" transform="scale(0.015625)"/>
      </defs>
      <use xlink:href="#RobotoCondensed-Regular-53"/>
      <use xlink:href="#RobotoCondensed-Regular-6f" transform="translate(51.855469 0)"/>
      <use xlink:href="#RobotoCondensed-Regular-6c" transform="translate(102.050781 0)"/>
      <use xlink:href="#RobotoCondensed-Regular-6f" transform="translate(125 0)"/>
     </g>
    </g>
    <g id="patch_6">
     <path d="M 44.442813 38.23125 
L 64.442813 38.23125 
L 64.442813 31.23125 
L 44.442813 31.23125 
z
" style="fill: url(#h503a988759)"/>
    </g>
    <g id="text_15">
     <!-- Initial -->
     <g transform="translate(72.442813 38.23125) scale(0.1 -0.1)">
      <defs>
       <path id="RobotoCondensed-Regular-49" d="M 1091 4550 
L 1091 0 
L 516 0 
L 516 4550 
L 1091 4550 
z
" transform="scale(0.015625)"/>
      </defs>
      <use xlink:href="#RobotoCondensed-Regular-49"/>
      <use xlink:href="#RobotoCondensed-Regular-6e" transform="translate(25 0)"/>
      <use xlink:href="#RobotoCondensed-Regular-69" transform="translate(73.4375 0)"/>
      <use xlink:href="#RobotoCondensed-Regular-74" transform="translate(96.386719 0)"/>
      <use xlink:href="#RobotoCondensed-Regular-69" transform="translate(125.976562 0)"/>
      <use xlink:href="#RobotoCondensed-Regular-61" transform="translate(148.925781 0)"/>
      <use xlink:href="#RobotoCondensed-Regular-6c" transform="translate(196.826172 0)"/>
     </g>
    </g>
    <g id="patch_7">
     <path d="M 44.442813 52.7625 
L 64.442813 52.7625 
L 64.442813 45.7625 
L 44.442813 45.7625 
z
" style="fill: url(#habc97059e8)"/>
    </g>
    <g id="text_16">
     <!-- Middle -->
     <g transform="translate(72.442813 52.7625) scale(0.1 -0.1)">
      <defs>
       <path id="RobotoCondensed-Regular-4d" d="M 2419 841 
L 3606 4550 
L 4341 4550 
L 4341 0 
L 3769 0 
L 3769 1775 
L 3822 3538 
L 2634 0 
L 2197 0 
L 1009 3544 
L 1063 1775 
L 1063 0 
L 491 0 
L 491 4550 
L 1228 4550 
L 2419 841 
z
" transform="scale(0.015625)"/>
       <path id="RobotoCondensed-Regular-64" d="M 2234 0 
L 2209 366 
Q 1941 -63 1425 -63 
Q 925 -63 611 331 
Q 297 725 297 1528 
L 297 1844 
Q 297 2678 609 3061 
Q 922 3444 1431 3444 
Q 1922 3444 2188 3050 
L 2188 4800 
L 2738 4800 
L 2738 0 
L 2234 0 
z
M 850 1528 
Q 850 963 1019 695 
Q 1188 428 1569 428 
Q 1981 428 2188 847 
L 2188 2544 
Q 1972 2956 1575 2956 
Q 1194 2956 1023 2687 
Q 853 2419 850 1866 
L 850 1528 
z
" transform="scale(0.015625)"/>
      </defs>
      <use xlink:href="#RobotoCondensed-Regular-4d"/>
      <use xlink:href="#RobotoCondensed-Regular-69" transform="translate(75.537109 0)"/>
      <use xlink:href="#RobotoCondensed-Regular-64" transform="translate(98.486328 0)"/>
      <use xlink:href="#RobotoCondensed-Regular-64" transform="translate(148.095703 0)"/>
      <use xlink:href="#RobotoCondensed-Regular-6c" transform="translate(197.705078 0)"/>
      <use xlink:href="#RobotoCondensed-Regular-65" transform="translate(220.654297 0)"/>
     </g>
    </g>
    <g id="patch_8">
     <path d="M 44.442813 67.29375 
L 64.442813 67.29375 
L 64.442813 60.29375 
L 44.442813 60.29375 
z
" style="fill: url(#h45dcf87486)"/>
    </g>
    <g id="text_17">
     <!-- End -->
     <g transform="translate(72.442813 67.29375) scale(0.1 -0.1)">
      <defs>
       <path id="RobotoCondensed-Regular-45" d="M 491 0 
L 491 4550 
L 2906 4550 
L 2906 4056 
L 1066 4056 
L 1066 2594 
L 2672 2594 
L 2672 2103 
L 1066 2103 
L 1066 491 
L 2938 491 
L 2938 0 
L 491 0 
z
" transform="scale(0.015625)"/>
      </defs>
      <use xlink:href="#RobotoCondensed-Regular-45"/>
      <use xlink:href="#RobotoCondensed-Regular-6e" transform="translate(49.707031 0)"/>
      <use xlink:href="#RobotoCondensed-Regular-64" transform="translate(98.144531 0)"/>
     </g>
    </g>
   </g>
  </g>
 </g>
 <defs>
  <clipPath id="p07f6ba693e">
   <rect x="35.442813" y="7.2" width="265.575669" height="175.48"/>
  </clipPath>
 </defs>
 <defs>
  <pattern id="hced889a258" patternUnits="userSpaceOnUse" x="0" y="0" width="72" height="72">
   <rect x="0" y="0" width="73" height="73" fill="#e6e6e6"/>
   <path d="M -36 36 
L 36 -36 
M -33 39 
L 39 -33 
M -30 42 
L 42 -30 
M -27 45 
L 45 -27 
M -24 48 
L 48 -24 
M -21 51 
L 51 -21 
M -18 54 
L 54 -18 
M -15 57 
L 57 -15 
M -12 60 
L 60 -12 
M -9 63 
L 63 -9 
M -6 66 
L 66 -6 
M -3 69 
L 69 -3 
M 0 72 
L 72 0 
M 3 75 
L 75 3 
M 6 78 
L 78 6 
M 9 81 
L 81 9 
M 12 84 
L 84 12 
M 15 87 
L 87 15 
M 18 90 
L 90 18 
M 21 93 
L 93 21 
M 24 96 
L 96 24 
M 27 99 
L 99 27 
M 30 102 
L 102 30 
M 33 105 
L 105 33 
M 36 108 
L 108 36 
" style="fill: #000000; stroke: #000000; stroke-width: 1.5; stroke-linecap: butt; stroke-linejoin: miter"/>
  </pattern>
  <pattern id="h503a988759" patternUnits="userSpaceOnUse" x="0" y="0" width="72" height="72">
   <rect x="0" y="0" width="73" height="73" fill="#adadad"/>
   <path d="M -36 36 
L 36 108 
M -30 30 
L 42 102 
M -24 24 
L 48 96 
M -18 18 
L 54 90 
M -12 12 
L 60 84 
M -6 6 
L 66 78 
M 0 0 
L 72 72 
M 6 -6 
L 78 66 
M 12 -12 
L 84 60 
M 18 -18 
L 90 54 
M 24 -24 
L 96 48 
M 30 -30 
L 102 42 
M 36 -36 
L 108 36 
" style="fill: #000000; stroke: #000000; stroke-width: 1.5; stroke-linecap: butt; stroke-linejoin: miter"/>
  </pattern>
  <pattern id="habc97059e8" patternUnits="userSpaceOnUse" x="0" y="0" width="72" height="72">
   <rect x="0" y="0" width="73" height="73" fill="#737373"/>
   <path d="M -36 36 
L 36 -36 
M -33 39 
L 39 -33 
M -30 42 
L 42 -30 
M -27 45 
L 45 -27 
M -24 48 
L 48 -24 
M -21 51 
L 51 -21 
M -18 54 
L 54 -18 
M -15 57 
L 57 -15 
M -12 60 
L 60 -12 
M -9 63 
L 63 -9 
M -6 66 
L 66 -6 
M -3 69 
L 69 -3 
M 0 72 
L 72 0 
M 3 75 
L 75 3 
M 6 78 
L 78 6 
M 9 81 
L 81 9 
M 12 84 
L 84 12 
M 15 87 
L 87 15 
M 18 90 
L 90 18 
M 21 93 
L 93 21 
M 24 96 
L 96 24 
M 27 99 
L 99 27 
M 30 102 
L 102 30 
M 33 105 
L 105 33 
M 36 108 
L 108 36 
M -36 36 
L 36 108 
M -33 33 
L 39 105 
M -30 30 
L 42 102 
M -27 27 
L 45 99 
M -24 24 
L 48 96 
M -21 21 
L 51 93 
M -18 18 
L 54 90 
M -15 15 
L 57 87 
M -12 12 
L 60 84 
M -9 9 
L 63 81 
M -6 6 
L 66 78 
M -3 3 
L 69 75 
M 0 0 
L 72 72 
M 3 -3 
L 75 69 
M 6 -6 
L 78 66 
M 9 -9 
L 81 63 
M 12 -12 
L 84 60 
M 15 -15 
L 87 57 
M 18 -18 
L 90 54 
M 21 -21 
L 93 51 
M 24 -24 
L 96 48 
M 27 -27 
L 99 45 
M 30 -30 
L 102 42 
M 33 -33 
L 105 39 
M 36 -36 
L 108 36 
" style="fill: #000000; stroke: #000000; stroke-width: 1.5; stroke-linecap: butt; stroke-linejoin: miter"/>
  </pattern>
  <pattern id="h45dcf87486" patternUnits="userSpaceOnUse" x="0" y="0" width="72" height="72">
   <rect x="0" y="0" width="73" height="73" fill="#383838"/>
   <path d="M 0 70.5 
L 72 70.5 
M 0 67.5 
L 72 67.5 
M 0 64.5 
L 72 64.5 
M 0 61.5 
L 72 61.5 
M 0 58.5 
L 72 58.5 
M 0 55.5 
L 72 55.5 
M 0 52.5 
L 72 52.5 
M 0 49.5 
L 72 49.5 
M 0 46.5 
L 72 46.5 
M 0 43.5 
L 72 43.5 
M 0 40.5 
L 72 40.5 
M 0 37.5 
L 72 37.5 
M 0 34.5 
L 72 34.5 
M 0 31.5 
L 72 31.5 
M 0 28.5 
L 72 28.5 
M 0 25.5 
L 72 25.5 
M 0 22.5 
L 72 22.5 
M 0 19.5 
L 72 19.5 
M 0 16.5 
L 72 16.5 
M 0 13.5 
L 72 13.5 
M 0 10.5 
L 72 10.5 
M 0 7.5 
L 72 7.5 
M 0 4.5 
L 72 4.5 
M 0 1.5 
L 72 1.5 
" style="fill: #000000; stroke: #000000; stroke-width: 1.5; stroke-linecap: butt; stroke-linejoin: miter"/>
  </pattern>
 </defs>
</svg>
