<?xml version="1.0" encoding="utf-8" standalone="no"?>
<!DOCTYPE svg PUBLIC "-//W3C//DTD SVG 1.1//EN"
  "http://www.w3.org/Graphics/SVG/1.1/DTD/svg11.dtd">
<svg xmlns:xlink="http://www.w3.org/1999/xlink" width="313.649107pt" height="216.91875pt" viewBox="0 0 313.649107 216.91875" xmlns="http://www.w3.org/2000/svg" version="1.1">
 <metadata>
  <rdf:RDF xmlns:dc="http://purl.org/dc/elements/1.1/" xmlns:cc="http://creativecommons.org/ns#" xmlns:rdf="http://www.w3.org/1999/02/22-rdf-syntax-ns#">
   <cc:Work>
    <dc:type rdf:resource="http://purl.org/dc/dcmitype/StillImage"/>
    <dc:date>2026-04-28T10:26:48.213219</dc:date>
    <dc:format>image/svg+xml</dc:format>
    <dc:creator>
     <cc:Agent>
      <dc:title>Matplotlib v3.10.7, https://matplotlib.org/</dc:title>
     </cc:Agent>
    </dc:creator>
   </cc:Work>
  </rdf:RDF>
 </metadata>
 <defs>
  <style type="text/css">*{stroke-linejoin: round; stroke-linecap: butt}</style>
 </defs>
 <g id="figure_1">
  <g id="patch_1">
   <path d="M 0 216.91875 
L 313.649107 216.91875 
L 313.649107 0 
L 0 0 
z
" style="fill: #ffffff"/>
  </g>
  <g id="axes_1">
   <g id="patch_2">
    <path d="M 30.590313 197 
L 300.525982 197 
L 300.525982 19.2 
L 30.590313 19.2 
z
" style="fill: #ffffff"/>
   </g>
   <g id="matplotlib.axis_1">
    <g id="xtick_1">
     <g id="line2d_1">
      <defs>
       <path id="me389442b6f" d="M 0 0 
L 0 3.5 
" style="stroke: #000000; stroke-width: 0.8"/>
      </defs>
      <g>
       <use xlink:href="#me389442b6f" x="42.860116" y="197" style="stroke: #000000; stroke-width: 0.8"/>
      </g>
     </g>
     <g id="text_1">
      <!-- 1989 -->
      <g transform="translate(36.936991 208.5) scale(0.06 -0.06)">
       <defs>
        <path id="RobotoCondensed-Regular-31" d="M 2013 4575 
L 2013 0 
L 1459 0 
L 1459 3853 
L 503 3428 
L 503 3950 
L 1928 4575 
L 2013 4575 
z
" transform="scale(0.015625)"/>
        <path id="RobotoCondensed-Regular-39" d="M 2744 2563 
Q 2744 2119 2687 1667 
Q 2631 1216 2450 836 
Q 2269 456 1903 225 
Q 1538 -6 869 -6 
L 866 484 
Q 1428 484 1698 690 
Q 1969 897 2072 1233 
Q 2175 1569 2191 1950 
Q 1859 1522 1413 1522 
Q 1025 1522 786 1747 
Q 547 1972 436 2320 
Q 325 2669 325 3041 
Q 325 3691 623 4152 
Q 922 4613 1522 4613 
Q 1969 4613 2237 4344 
Q 2506 4075 2625 3653 
Q 2744 3231 2744 2772 
L 2744 2563 
z
M 866 3072 
Q 866 2666 1020 2334 
Q 1175 2003 1506 2003 
Q 1716 2003 1906 2179 
Q 2097 2356 2194 2616 
L 2194 2850 
Q 2194 3472 1983 3803 
Q 1772 4134 1522 4134 
Q 1206 4134 1036 3829 
Q 866 3525 866 3072 
z
" transform="scale(0.015625)"/>
        <path id="RobotoCondensed-Regular-38" d="M 2794 1231 
Q 2794 606 2445 271 
Q 2097 -63 1578 -63 
Q 1063 -63 714 273 
Q 366 609 366 1231 
Q 366 1613 536 1905 
Q 706 2197 1000 2347 
Q 450 2666 450 3366 
Q 450 3963 769 4288 
Q 1088 4613 1581 4613 
Q 2075 4613 2392 4288 
Q 2709 3963 2709 3366 
Q 2709 3028 2557 2761 
Q 2406 2494 2150 2344 
Q 2444 2194 2619 1901 
Q 2794 1609 2794 1231 
z
M 2156 3356 
Q 2156 3697 2000 3917 
Q 1844 4138 1581 4138 
Q 1319 4138 1161 3927 
Q 1003 3716 1003 3356 
Q 1003 3003 1159 2790 
Q 1316 2578 1581 2578 
Q 1844 2578 2000 2790 
Q 2156 3003 2156 3356 
z
M 2244 1244 
Q 2244 1625 2061 1865 
Q 1878 2106 1575 2106 
Q 1266 2106 1091 1865 
Q 916 1625 916 1244 
Q 916 850 1089 631 
Q 1263 413 1578 413 
Q 1897 413 2070 631 
Q 2244 850 2244 1244 
z
" transform="scale(0.015625)"/>
       </defs>
       <use xlink:href="#RobotoCondensed-Regular-31"/>
       <use xlink:href="#RobotoCondensed-Regular-39" transform="translate(49.365234 0)"/>
       <use xlink:href="#RobotoCondensed-Regular-38" transform="translate(98.730469 0)"/>
       <use xlink:href="#RobotoCondensed-Regular-39" transform="translate(148.095703 0)"/>
      </g>
     </g>
    </g>
    <g id="xtick_2">
     <g id="line2d_2">
      <g>
       <use xlink:href="#me389442b6f" x="79.669525" y="197" style="stroke: #000000; stroke-width: 0.8"/>
      </g>
     </g>
     <g id="text_2">
      <!-- 1992 -->
      <g transform="translate(73.7464 208.5) scale(0.06 -0.06)">
       <defs>
        <path id="RobotoCondensed-Regular-32" d="M 2909 475 
L 2909 0 
L 366 0 
L 366 416 
L 1628 2088 
Q 1966 2541 2077 2802 
Q 2188 3063 2188 3328 
Q 2188 3663 2027 3900 
Q 1866 4138 1575 4138 
Q 1194 4138 1022 3878 
Q 850 3619 850 3213 
L 297 3213 
Q 297 3788 617 4200 
Q 938 4613 1575 4613 
Q 2125 4613 2433 4278 
Q 2741 3944 2741 3397 
Q 2741 2997 2541 2594 
Q 2341 2191 2047 1809 
L 1028 475 
L 2909 475 
z
" transform="scale(0.015625)"/>
       </defs>
       <use xlink:href="#RobotoCondensed-Regular-31"/>
       <use xlink:href="#RobotoCondensed-Regular-39" transform="translate(49.365234 0)"/>
       <use xlink:href="#RobotoCondensed-Regular-39" transform="translate(98.730469 0)"/>
       <use xlink:href="#RobotoCondensed-Regular-32" transform="translate(148.095703 0)"/>
      </g>
     </g>
    </g>
    <g id="xtick_3">
     <g id="line2d_3">
      <g>
       <use xlink:href="#me389442b6f" x="116.478935" y="197" style="stroke: #000000; stroke-width: 0.8"/>
      </g>
     </g>
     <g id="text_3">
      <!-- 1995 -->
      <g transform="translate(110.55581 208.5) scale(0.06 -0.06)">
       <defs>
        <path id="RobotoCondensed-Regular-35" d="M 1034 2166 
L 594 2284 
L 788 4550 
L 2769 4550 
L 2769 4016 
L 1253 4016 
L 1147 2778 
Q 1438 2975 1753 2975 
Q 2288 2975 2591 2561 
Q 2894 2147 2894 1450 
Q 2894 797 2584 367 
Q 2275 -63 1656 -63 
Q 1194 -63 850 248 
Q 506 559 453 1197 
L 975 1197 
Q 1066 413 1656 413 
Q 1978 413 2159 691 
Q 2341 969 2341 1444 
Q 2341 1872 2153 2164 
Q 1966 2456 1619 2456 
Q 1384 2456 1273 2378 
Q 1163 2300 1034 2166 
z
" transform="scale(0.015625)"/>
       </defs>
       <use xlink:href="#RobotoCondensed-Regular-31"/>
       <use xlink:href="#RobotoCondensed-Regular-39" transform="translate(49.365234 0)"/>
       <use xlink:href="#RobotoCondensed-Regular-39" transform="translate(98.730469 0)"/>
       <use xlink:href="#RobotoCondensed-Regular-35" transform="translate(148.095703 0)"/>
      </g>
     </g>
    </g>
    <g id="xtick_4">
     <g id="line2d_4">
      <g>
       <use xlink:href="#me389442b6f" x="153.288344" y="197" style="stroke: #000000; stroke-width: 0.8"/>
      </g>
     </g>
     <g id="text_4">
      <!-- 1998 -->
      <g transform="translate(147.365219 208.5) scale(0.06 -0.06)">
       <use xlink:href="#RobotoCondensed-Regular-31"/>
       <use xlink:href="#RobotoCondensed-Regular-39" transform="translate(49.365234 0)"/>
       <use xlink:href="#RobotoCondensed-Regular-39" transform="translate(98.730469 0)"/>
       <use xlink:href="#RobotoCondensed-Regular-38" transform="translate(148.095703 0)"/>
      </g>
     </g>
    </g>
    <g id="xtick_5">
     <g id="line2d_5">
      <g>
       <use xlink:href="#me389442b6f" x="190.097753" y="197" style="stroke: #000000; stroke-width: 0.8"/>
      </g>
     </g>
     <g id="text_5">
      <!-- 2001 -->
      <g transform="translate(184.174628 208.5) scale(0.06 -0.06)">
       <defs>
        <path id="RobotoCondensed-Regular-30" d="M 2797 1944 
Q 2797 825 2467 381 
Q 2138 -63 1581 -63 
Q 1038 -63 703 370 
Q 369 803 359 1878 
L 359 2638 
Q 359 3753 695 4183 
Q 1031 4613 1578 4613 
Q 2131 4613 2461 4189 
Q 2791 3766 2797 2681 
L 2797 1944 
z
M 2247 2734 
Q 2247 3503 2073 3822 
Q 1900 4141 1578 4141 
Q 1266 4141 1092 3833 
Q 919 3525 913 2791 
L 913 1850 
Q 913 1088 1089 750 
Q 1266 413 1581 413 
Q 1903 413 2072 738 
Q 2241 1063 2247 1794 
L 2247 2734 
z
" transform="scale(0.015625)"/>
       </defs>
       <use xlink:href="#RobotoCondensed-Regular-32"/>
       <use xlink:href="#RobotoCondensed-Regular-30" transform="translate(49.365234 0)"/>
       <use xlink:href="#RobotoCondensed-Regular-30" transform="translate(98.730469 0)"/>
       <use xlink:href="#RobotoCondensed-Regular-31" transform="translate(148.095703 0)"/>
      </g>
     </g>
    </g>
    <g id="xtick_6">
     <g id="line2d_6">
      <g>
       <use xlink:href="#me389442b6f" x="226.907163" y="197" style="stroke: #000000; stroke-width: 0.8"/>
      </g>
     </g>
     <g id="text_6">
      <!-- 2004 -->
      <g transform="translate(220.984038 208.5) scale(0.06 -0.06)">
       <defs>
        <path id="RobotoCondensed-Regular-34" d="M 188 1397 
L 1878 4550 
L 2463 4550 
L 2463 1531 
L 2969 1531 
L 2969 1056 
L 2463 1056 
L 2463 0 
L 1909 0 
L 1909 1056 
L 188 1056 
L 188 1397 
z
M 803 1531 
L 1909 1531 
L 1909 3703 
L 1878 3638 
L 803 1531 
z
" transform="scale(0.015625)"/>
       </defs>
       <use xlink:href="#RobotoCondensed-Regular-32"/>
       <use xlink:href="#RobotoCondensed-Regular-30" transform="translate(49.365234 0)"/>
       <use xlink:href="#RobotoCondensed-Regular-30" transform="translate(98.730469 0)"/>
       <use xlink:href="#RobotoCondensed-Regular-34" transform="translate(148.095703 0)"/>
      </g>
     </g>
    </g>
    <g id="xtick_7">
     <g id="line2d_7">
      <g>
       <use xlink:href="#me389442b6f" x="263.716572" y="197" style="stroke: #000000; stroke-width: 0.8"/>
      </g>
     </g>
     <g id="text_7">
      <!-- 2007 -->
      <g transform="translate(257.793447 208.5) scale(0.06 -0.06)">
       <defs>
        <path id="RobotoCondensed-Regular-37" d="M 2878 4550 
L 2878 4225 
L 1313 0 
L 731 0 
L 2297 4075 
L 269 4075 
L 269 4550 
L 2878 4550 
z
" transform="scale(0.015625)"/>
       </defs>
       <use xlink:href="#RobotoCondensed-Regular-32"/>
       <use xlink:href="#RobotoCondensed-Regular-30" transform="translate(49.365234 0)"/>
       <use xlink:href="#RobotoCondensed-Regular-30" transform="translate(98.730469 0)"/>
       <use xlink:href="#RobotoCondensed-Regular-37" transform="translate(148.095703 0)"/>
      </g>
     </g>
    </g>
    <g id="xtick_8">
     <g id="line2d_8">
      <g>
       <use xlink:href="#me389442b6f" x="300.525982" y="197" style="stroke: #000000; stroke-width: 0.8"/>
      </g>
     </g>
     <g id="text_8">
      <!-- 2010 -->
      <g transform="translate(294.602857 208.5) scale(0.06 -0.06)">
       <use xlink:href="#RobotoCondensed-Regular-32"/>
       <use xlink:href="#RobotoCondensed-Regular-30" transform="translate(49.365234 0)"/>
       <use xlink:href="#RobotoCondensed-Regular-31" transform="translate(98.730469 0)"/>
       <use xlink:href="#RobotoCondensed-Regular-30" transform="translate(148.095703 0)"/>
      </g>
     </g>
    </g>
   </g>
   <g id="matplotlib.axis_2">
    <g id="ytick_1">
     <g id="line2d_9">
      <defs>
       <path id="m98c691e864" d="M 0 0 
L -3.5 0 
" style="stroke: #000000; stroke-width: 0.8"/>
      </defs>
      <g>
       <use xlink:href="#m98c691e864" x="30.590313" y="185.549649" style="stroke: #000000; stroke-width: 0.8"/>
      </g>
     </g>
     <g id="text_9">
      <!-- 0.9986 -->
      <g transform="translate(7.2 187.799649) scale(0.06 -0.06)">
       <defs>
        <path id="RobotoCondensed-Regular-2e" d="M 450 306 
Q 450 453 542 554 
Q 634 656 809 656 
Q 984 656 1076 554 
Q 1169 453 1169 306 
Q 1169 163 1076 62 
Q 984 -38 809 -38 
Q 634 -38 542 62 
Q 450 163 450 306 
z
" transform="scale(0.015625)"/>
        <path id="RobotoCondensed-Regular-36" d="M 2847 1484 
Q 2847 838 2544 387 
Q 2241 -63 1641 -63 
Q 1216 -63 944 198 
Q 672 459 542 861 
Q 413 1263 413 1684 
L 413 1956 
Q 413 2438 481 2900 
Q 550 3363 742 3738 
Q 934 4113 1296 4334 
Q 1659 4556 2291 4556 
L 2291 4066 
Q 1775 4066 1508 3859 
Q 1241 3653 1122 3318 
Q 1003 2984 978 2606 
Q 1272 2984 1750 2984 
Q 2138 2984 2380 2765 
Q 2622 2547 2734 2201 
Q 2847 1856 2847 1484 
z
M 969 1666 
Q 969 1059 1180 737 
Q 1391 416 1641 416 
Q 1959 416 2129 708 
Q 2300 1000 2300 1456 
Q 2300 1863 2144 2184 
Q 1988 2506 1659 2506 
Q 1425 2506 1236 2329 
Q 1047 2153 969 1900 
L 969 1666 
z
" transform="scale(0.015625)"/>
       </defs>
       <use xlink:href="#RobotoCondensed-Regular-30"/>
       <use xlink:href="#RobotoCondensed-Regular-2e" transform="translate(49.365234 0)"/>
       <use xlink:href="#RobotoCondensed-Regular-39" transform="translate(75.732422 0)"/>
       <use xlink:href="#RobotoCondensed-Regular-39" transform="translate(125.097656 0)"/>
       <use xlink:href="#RobotoCondensed-Regular-38" transform="translate(174.462891 0)"/>
       <use xlink:href="#RobotoCondensed-Regular-36" transform="translate(223.828125 0)"/>
      </g>
     </g>
    </g>
    <g id="ytick_2">
     <g id="line2d_10">
      <g>
       <use xlink:href="#m98c691e864" x="30.590313" y="150.215272" style="stroke: #000000; stroke-width: 0.8"/>
      </g>
     </g>
     <g id="text_10">
      <!-- 0.9988 -->
      <g transform="translate(7.2 152.465272) scale(0.06 -0.06)">
       <use xlink:href="#RobotoCondensed-Regular-30"/>
       <use xlink:href="#RobotoCondensed-Regular-2e" transform="translate(49.365234 0)"/>
       <use xlink:href="#RobotoCondensed-Regular-39" transform="translate(75.732422 0)"/>
       <use xlink:href="#RobotoCondensed-Regular-39" transform="translate(125.097656 0)"/>
       <use xlink:href="#RobotoCondensed-Regular-38" transform="translate(174.462891 0)"/>
       <use xlink:href="#RobotoCondensed-Regular-38" transform="translate(223.828125 0)"/>
      </g>
     </g>
    </g>
    <g id="ytick_3">
     <g id="line2d_11">
      <g>
       <use xlink:href="#m98c691e864" x="30.590313" y="114.880895" style="stroke: #000000; stroke-width: 0.8"/>
      </g>
     </g>
     <g id="text_11">
      <!-- 0.9990 -->
      <g transform="translate(7.2 117.130895) scale(0.06 -0.06)">
       <use xlink:href="#RobotoCondensed-Regular-30"/>
       <use xlink:href="#RobotoCondensed-Regular-2e" transform="translate(49.365234 0)"/>
       <use xlink:href="#RobotoCondensed-Regular-39" transform="translate(75.732422 0)"/>
       <use xlink:href="#RobotoCondensed-Regular-39" transform="translate(125.097656 0)"/>
       <use xlink:href="#RobotoCondensed-Regular-39" transform="translate(174.462891 0)"/>
       <use xlink:href="#RobotoCondensed-Regular-30" transform="translate(223.828125 0)"/>
      </g>
     </g>
    </g>
    <g id="ytick_4">
     <g id="line2d_12">
      <g>
       <use xlink:href="#m98c691e864" x="30.590313" y="79.546517" style="stroke: #000000; stroke-width: 0.8"/>
      </g>
     </g>
     <g id="text_12">
      <!-- 0.9992 -->
      <g transform="translate(7.2 81.796517) scale(0.06 -0.06)">
       <use xlink:href="#RobotoCondensed-Regular-30"/>
       <use xlink:href="#RobotoCondensed-Regular-2e" transform="translate(49.365234 0)"/>
       <use xlink:href="#RobotoCondensed-Regular-39" transform="translate(75.732422 0)"/>
       <use xlink:href="#RobotoCondensed-Regular-39" transform="translate(125.097656 0)"/>
       <use xlink:href="#RobotoCondensed-Regular-39" transform="translate(174.462891 0)"/>
       <use xlink:href="#RobotoCondensed-Regular-32" transform="translate(223.828125 0)"/>
      </g>
     </g>
    </g>
    <g id="ytick_5">
     <g id="line2d_13">
      <g>
       <use xlink:href="#m98c691e864" x="30.590313" y="44.21214" style="stroke: #000000; stroke-width: 0.8"/>
      </g>
     </g>
     <g id="text_13">
      <!-- 0.9994 -->
      <g transform="translate(7.2 46.46214) scale(0.06 -0.06)">
       <use xlink:href="#RobotoCondensed-Regular-30"/>
       <use xlink:href="#RobotoCondensed-Regular-2e" transform="translate(49.365234 0)"/>
       <use xlink:href="#RobotoCondensed-Regular-39" transform="translate(75.732422 0)"/>
       <use xlink:href="#RobotoCondensed-Regular-39" transform="translate(125.097656 0)"/>
       <use xlink:href="#RobotoCondensed-Regular-39" transform="translate(174.462891 0)"/>
       <use xlink:href="#RobotoCondensed-Regular-34" transform="translate(223.828125 0)"/>
      </g>
     </g>
    </g>
   </g>
   <g id="line2d_14">
    <path d="M 42.860116 144.768948 
L 48.605174 144.668061 
L 55.991678 144.320679 
L 59.274568 143.992043 
L 62.557458 143.451646 
L 65.840349 142.681618 
L 67.481794 142.203821 
L 68.302517 141.816435 
L 69.123239 141.22289 
L 69.943962 140.448494 
L 71.585407 138.458397 
L 73.226853 136.048624 
L 78.151188 128.326089 
L 79.792633 126.259905 
L 82.254801 123.19045 
L 86.358414 117.910599 
L 87.99986 116.187104 
L 89.641305 114.914885 
L 90.462028 114.495777 
L 91.28275 114.246815 
L 92.103473 114.186544 
L 92.924195 114.3051 
L 93.744918 114.574073 
L 95.386363 115.467387 
L 97.027808 116.67472 
L 100.310699 119.264373 
L 101.952144 120.26316 
L 102.772867 120.604645 
L 103.593589 120.808897 
L 104.414312 120.846373 
L 105.235035 120.588919 
L 106.055757 120.026397 
L 106.87648 119.205428 
L 108.517925 116.974638 
L 110.980093 112.855647 
L 112.621538 110.138368 
L 114.262983 107.879197 
L 115.083706 107.037956 
L 115.904429 106.451107 
L 117.545874 105.936082 
L 120.828764 105.187621 
L 124.111655 104.650224 
L 127.394545 104.37264 
L 129.856713 104.382715 
L 132.318881 104.678884 
L 139.705385 105.922954 
L 141.34683 105.946143 
L 142.167553 105.636149 
L 142.988275 105.020945 
L 143.808998 104.143936 
L 145.450443 101.778127 
L 147.091888 98.885973 
L 150.374779 92.911627 
L 152.016224 90.523933 
L 152.836947 89.631878 
L 154.478392 88.406362 
L 156.94056 86.964128 
L 160.22345 85.417378 
L 164.327063 83.506649 
L 166.789231 82.094634 
L 170.892844 79.474641 
L 178.279348 74.404891 
L 179.920793 73.052087 
L 185.665851 67.807136 
L 187.307297 66.710015 
L 188.948742 66.034507 
L 189.769464 65.896311 
L 192.231632 65.934134 
L 197.976691 66.329702 
L 202.080304 66.513164 
L 202.901026 66.46612 
L 203.721749 66.215971 
L 204.542472 65.774641 
L 205.363194 65.16749 
L 207.004639 63.557157 
L 209.466807 60.531956 
L 212.749698 56.425296 
L 214.391143 54.797106 
L 218.494756 51.66918 
L 221.777647 49.409285 
L 225.060537 47.401241 
L 228.343427 45.663291 
L 232.447041 43.71776 
L 235.729931 42.36827 
L 239.012822 41.254036 
L 247.220048 38.913671 
L 249.682216 38.526369 
L 251.323661 38.4354 
L 252.144383 38.496765 
L 252.965106 38.71427 
L 254.606551 39.527127 
L 256.247997 40.685104 
L 260.35161 43.840376 
L 261.993055 44.706786 
L 262.813777 44.959994 
L 264.455223 45.060475 
L 273.483172 44.885422 
L 284.152566 44.792718 
L 288.256179 44.782938 
L 288.256179 44.782938 
" clip-path="url(#pc221cfde47)" style="fill: none; stroke-dasharray: 2,3.3; stroke-dashoffset: 0; stroke: #000000; stroke-width: 2"/>
   </g>
   <g id="line2d_15">
    <path d="M 42.860116 144.516294 
L 55.129919 138.65457 
L 67.399722 132.792847 
L 79.669525 126.931123 
L 91.939328 121.069399 
L 104.209131 115.207675 
L 116.478935 109.345951 
L 128.748738 103.484228 
L 141.018541 97.622504 
L 153.288344 91.76078 
L 165.558147 85.899056 
L 177.82795 80.037332 
L 190.097753 74.175609 
L 202.367557 68.313885 
L 214.63736 62.452161 
L 226.907163 56.590437 
L 239.176966 50.728713 
L 251.446769 44.86699 
L 263.716572 39.005266 
L 275.986375 33.143542 
L 288.256179 27.281818 
" clip-path="url(#pc221cfde47)" style="fill: none; stroke: #000000; stroke-opacity: 0.7; stroke-linecap: square"/>
   </g>
   <g id="line2d_16">
    <path d="M 42.860116 188.918182 
L 51.888064 176.475507 
L 59.274568 166.656016 
L 67.481794 155.898572 
L 73.226853 147.901468 
L 81.434079 136.199003 
L 87.99986 126.003722 
L 89.641305 123.939778 
L 91.28275 122.310101 
L 92.924195 121.160573 
L 95.386363 119.827952 
L 98.669254 118.445061 
L 102.772867 116.798038 
L 105.235035 115.571051 
L 109.338648 113.160974 
L 114.262983 110.254035 
L 116.725151 109.024887 
L 120.828764 107.316433 
L 139.705385 100.199305 
L 142.167553 99.686419 
L 145.450443 99.247906 
L 152.016224 98.462054 
L 154.478392 97.957087 
L 156.94056 97.21398 
L 160.22345 95.921714 
L 164.327063 93.998016 
L 166.789231 92.717172 
L 169.251399 91.105561 
L 177.458625 85.296795 
L 180.741516 83.392855 
L 184.024406 81.474605 
L 186.486574 80.32567 
L 188.128019 79.816285 
L 189.769464 79.585951 
L 191.41091 79.645513 
L 193.873077 80.056604 
L 197.976691 81.132151 
L 200.438858 81.709667 
L 202.901026 82.019783 
L 210.28753 82.4921 
L 215.211866 82.574185 
L 216.853311 82.383244 
L 219.315479 81.778795 
L 223.419092 80.362998 
L 226.701982 79.337716 
L 234.088486 77.674089 
L 248.04077 74.822179 
L 250.502938 74.579633 
L 252.144383 74.575633 
L 253.785829 74.750529 
L 256.247997 75.275751 
L 265.275945 77.633792 
L 278.407507 80.05082 
L 283.331843 81.377871 
L 288.256179 82.919253 
L 288.256179 82.919253 
" clip-path="url(#pc221cfde47)" style="fill: none; stroke-dasharray: 12.8,3.2,2,3.2; stroke-dashoffset: 0; stroke: #000000; stroke-width: 2"/>
   </g>
   <g id="line2d_17">
    <path d="M 42.860116 152.146621 
L 55.129919 147.400059 
L 67.399722 142.653497 
L 79.669525 137.906935 
L 91.939328 133.160373 
L 104.209131 128.413811 
L 116.478935 123.667249 
L 128.748738 118.920687 
L 141.018541 114.174125 
L 153.288344 109.427563 
L 165.558147 104.681001 
L 177.82795 99.934439 
L 190.097753 95.187877 
L 202.367557 90.441315 
L 214.63736 85.694753 
L 226.907163 80.948191 
L 239.176966 76.201629 
L 251.446769 71.455067 
L 263.716572 66.708505 
L 275.986375 61.961943 
L 288.256179 57.21538 
" clip-path="url(#pc221cfde47)" style="fill: none; stroke: #000000; stroke-opacity: 0.7; stroke-linecap: square"/>
   </g>
   <g id="text_14">
    <!-- Gini-Simpson -->
    <g transform="translate(143.881897 13.2) scale(0.08 -0.08)">
     <defs>
      <path id="RobotoCondensed-Bold-47" d="M 3463 2394 
L 3463 516 
Q 3319 363 2962 150 
Q 2606 -63 1966 -63 
Q 1206 -63 751 417 
Q 297 897 297 1888 
L 297 2659 
Q 297 3653 731 4134 
Q 1166 4616 1909 4616 
Q 2681 4616 3043 4230 
Q 3406 3844 3459 3103 
L 2569 3103 
Q 2531 3531 2386 3692 
Q 2241 3853 1934 3853 
Q 1578 3853 1400 3587 
Q 1222 3322 1219 2691 
L 1219 1888 
Q 1219 1241 1416 970 
Q 1613 700 2019 700 
Q 2263 700 2372 766 
L 2541 866 
L 2541 1700 
L 1894 1700 
L 1894 2394 
L 3463 2394 
z
" transform="scale(0.015625)"/>
      <path id="RobotoCondensed-Bold-69" d="M 322 4256 
Q 322 4463 453 4595 
Q 584 4728 806 4728 
Q 1025 4728 1156 4595 
Q 1288 4463 1288 4256 
Q 1288 4053 1156 3920 
Q 1025 3788 806 3788 
Q 584 3788 453 3920 
Q 322 4053 322 4256 
z
M 1250 3381 
L 1250 0 
L 363 0 
L 363 3381 
L 1250 3381 
z
" transform="scale(0.015625)"/>
      <path id="RobotoCondensed-Bold-6e" d="M 1563 2706 
Q 1322 2706 1188 2456 
L 1188 0 
L 303 0 
L 303 3381 
L 1131 3381 
L 1156 3050 
Q 1459 3444 1944 3444 
Q 2341 3444 2589 3156 
Q 2838 2869 2838 2150 
L 2838 0 
L 1953 0 
L 1953 2156 
Q 1953 2478 1854 2592 
Q 1756 2706 1563 2706 
z
" transform="scale(0.015625)"/>
      <path id="RobotoCondensed-Bold-2d" d="M 1913 2319 
L 1913 1584 
L 384 1584 
L 384 2319 
L 1913 2319 
z
" transform="scale(0.015625)"/>
      <path id="RobotoCondensed-Bold-53" d="M 2291 1197 
Q 2291 1431 2177 1582 
Q 2063 1734 1578 1931 
Q 1094 2128 731 2431 
Q 347 2753 347 3341 
Q 347 3916 750 4264 
Q 1153 4613 1788 4613 
Q 2441 4613 2830 4219 
Q 3219 3825 3219 3209 
L 2300 3209 
Q 2300 3494 2176 3678 
Q 2053 3863 1772 3863 
Q 1513 3863 1389 3709 
Q 1266 3556 1266 3338 
Q 1266 3116 1452 2966 
Q 1638 2816 1944 2681 
Q 2581 2453 2897 2109 
Q 3213 1766 3213 1203 
Q 3213 603 2834 270 
Q 2456 -63 1806 -63 
Q 1416 -63 1055 96 
Q 694 256 462 587 
Q 231 919 231 1438 
L 1153 1438 
Q 1153 1025 1317 856 
Q 1481 688 1806 688 
Q 2072 688 2181 833 
Q 2291 978 2291 1197 
z
" transform="scale(0.015625)"/>
      <path id="RobotoCondensed-Bold-6d" d="M 1572 2706 
Q 1341 2706 1213 2466 
L 1213 0 
L 328 0 
L 328 3381 
L 1156 3381 
L 1181 3069 
Q 1475 3444 1963 3444 
Q 2466 3444 2681 2991 
Q 2972 3444 3506 3444 
Q 3916 3444 4166 3153 
Q 4416 2863 4416 2153 
L 4416 0 
L 3531 0 
L 3531 2153 
Q 3531 2491 3437 2598 
Q 3344 2706 3175 2706 
Q 2925 2706 2809 2400 
L 2813 0 
L 1931 0 
L 1931 2147 
Q 1931 2481 1837 2593 
Q 1744 2706 1572 2706 
z
" transform="scale(0.015625)"/>
      <path id="RobotoCondensed-Bold-70" d="M 1872 -63 
Q 1463 -63 1206 275 
L 1206 -1300 
L 325 -1300 
L 325 3381 
L 1141 3381 
L 1172 3072 
Q 1431 3444 1866 3444 
Q 2406 3444 2679 3044 
Q 2953 2644 2959 1841 
L 2959 1584 
Q 2959 791 2686 364 
Q 2413 -63 1872 -63 
z
M 1603 2706 
Q 1328 2706 1206 2472 
L 1206 897 
Q 1328 672 1609 672 
Q 1872 672 1973 894 
Q 2075 1116 2075 1584 
L 2075 1806 
Q 2075 2288 1969 2497 
Q 1863 2706 1603 2706 
z
" transform="scale(0.015625)"/>
      <path id="RobotoCondensed-Bold-73" d="M 1819 906 
Q 1819 1038 1684 1138 
Q 1550 1238 1234 1375 
Q 772 1556 523 1787 
Q 275 2019 275 2425 
Q 275 2847 584 3145 
Q 894 3444 1444 3444 
Q 2013 3444 2341 3151 
Q 2669 2859 2669 2384 
L 1784 2384 
Q 1784 2800 1441 2800 
Q 1122 2800 1122 2469 
Q 1122 2338 1245 2247 
Q 1369 2156 1694 2022 
Q 2200 1831 2439 1597 
Q 2678 1363 2678 944 
Q 2678 494 2343 215 
Q 2009 -63 1444 -63 
Q 831 -63 507 285 
Q 184 634 184 1047 
L 1022 1047 
Q 1028 772 1150 678 
Q 1272 584 1463 584 
Q 1819 584 1819 906 
z
" transform="scale(0.015625)"/>
      <path id="RobotoCondensed-Bold-6f" d="M 222 1800 
Q 222 2597 592 3020 
Q 963 3444 1588 3444 
Q 2219 3444 2589 3020 
Q 2959 2597 2959 1800 
L 2959 1578 
Q 2959 781 2589 359 
Q 2219 -63 1594 -63 
Q 966 -63 594 359 
Q 222 781 222 1578 
L 222 1800 
z
M 1106 1578 
Q 1106 672 1594 672 
Q 2059 672 2075 1522 
L 2075 1800 
Q 2075 2709 1588 2709 
Q 1122 2709 1106 1856 
L 1106 1578 
z
" transform="scale(0.015625)"/>
     </defs>
     <use xlink:href="#RobotoCondensed-Bold-47"/>
     <use xlink:href="#RobotoCondensed-Bold-69" transform="translate(58.544922 0)"/>
     <use xlink:href="#RobotoCondensed-Bold-6e" transform="translate(83.789062 0)"/>
     <use xlink:href="#RobotoCondensed-Bold-69" transform="translate(133.007812 0)"/>
     <use xlink:href="#RobotoCondensed-Bold-2d" transform="translate(158.251953 0)"/>
     <use xlink:href="#RobotoCondensed-Bold-53" transform="translate(194.580078 0)"/>
     <use xlink:href="#RobotoCondensed-Bold-69" transform="translate(248.583984 0)"/>
     <use xlink:href="#RobotoCondensed-Bold-6d" transform="translate(273.828125 0)"/>
     <use xlink:href="#RobotoCondensed-Bold-70" transform="translate(347.998047 0)"/>
     <use xlink:href="#RobotoCondensed-Bold-73" transform="translate(397.509766 0)"/>
     <use xlink:href="#RobotoCondensed-Bold-6f" transform="translate(442.919922 0)"/>
     <use xlink:href="#RobotoCondensed-Bold-6e" transform="translate(492.675781 0)"/>
    </g>
   </g>
   <g id="PathCollection_1">
    <defs>
     <path id="C0_0_e9478bc604" d="M -0 4.242641 
L 4.242641 -0 
L 0 -4.242641 
L -4.242641 -0 
z
"/>
    </defs>
    <g clip-path="url(#pc221cfde47)">
     <use xlink:href="#C0_0_e9478bc604" x="42.860116" y="144.768948" style="fill: none; stroke: #000000"/>
    </g>
    <g clip-path="url(#pc221cfde47)">
     <use xlink:href="#C0_0_e9478bc604" x="55.129919" y="144.37409" style="fill: none; stroke: #000000"/>
    </g>
    <g clip-path="url(#pc221cfde47)">
     <use xlink:href="#C0_0_e9478bc604" x="67.399722" y="142.230246" style="fill: none; stroke: #000000"/>
    </g>
    <g clip-path="url(#pc221cfde47)">
     <use xlink:href="#C0_0_e9478bc604" x="79.669525" y="126.399175" style="fill: none; stroke: #000000"/>
    </g>
    <g clip-path="url(#pc221cfde47)">
     <use xlink:href="#C0_0_e9478bc604" x="91.939328" y="114.182992" style="fill: none; stroke: #000000"/>
    </g>
    <g clip-path="url(#pc221cfde47)">
     <use xlink:href="#C0_0_e9478bc604" x="104.209131" y="120.857606" style="fill: none; stroke: #000000"/>
    </g>
    <g clip-path="url(#pc221cfde47)">
     <use xlink:href="#C0_0_e9478bc604" x="116.478935" y="106.216642" style="fill: none; stroke: #000000"/>
    </g>
    <g clip-path="url(#pc221cfde47)">
     <use xlink:href="#C0_0_e9478bc604" x="128.748738" y="104.345247" style="fill: none; stroke: #000000"/>
    </g>
    <g clip-path="url(#pc221cfde47)">
     <use xlink:href="#C0_0_e9478bc604" x="141.018541" y="105.974958" style="fill: none; stroke: #000000"/>
    </g>
    <g clip-path="url(#pc221cfde47)">
     <use xlink:href="#C0_0_e9478bc604" x="153.288344" y="89.2489" style="fill: none; stroke: #000000"/>
    </g>
    <g clip-path="url(#pc221cfde47)">
     <use xlink:href="#C0_0_e9478bc604" x="165.558147" y="82.828024" style="fill: none; stroke: #000000"/>
    </g>
    <g clip-path="url(#pc221cfde47)">
     <use xlink:href="#C0_0_e9478bc604" x="177.82795" y="74.72854" style="fill: none; stroke: #000000"/>
    </g>
    <g clip-path="url(#pc221cfde47)">
     <use xlink:href="#C0_0_e9478bc604" x="190.097753" y="65.883546" style="fill: none; stroke: #000000"/>
    </g>
    <g clip-path="url(#pc221cfde47)">
     <use xlink:href="#C0_0_e9478bc604" x="202.367557" y="66.514185" style="fill: none; stroke: #000000"/>
    </g>
    <g clip-path="url(#pc221cfde47)">
     <use xlink:href="#C0_0_e9478bc604" x="214.63736" y="54.595695" style="fill: none; stroke: #000000"/>
    </g>
    <g clip-path="url(#pc221cfde47)">
     <use xlink:href="#C0_0_e9478bc604" x="226.907163" y="46.396462" style="fill: none; stroke: #000000"/>
    </g>
    <g clip-path="url(#pc221cfde47)">
     <use xlink:href="#C0_0_e9478bc604" x="239.176966" y="41.205349" style="fill: none; stroke: #000000"/>
    </g>
    <g clip-path="url(#pc221cfde47)">
     <use xlink:href="#C0_0_e9478bc604" x="251.446769" y="38.434929" style="fill: none; stroke: #000000"/>
    </g>
    <g clip-path="url(#pc221cfde47)">
     <use xlink:href="#C0_0_e9478bc604" x="263.716572" y="45.062353" style="fill: none; stroke: #000000"/>
    </g>
    <g clip-path="url(#pc221cfde47)">
     <use xlink:href="#C0_0_e9478bc604" x="275.986375" y="44.849355" style="fill: none; stroke: #000000"/>
    </g>
    <g clip-path="url(#pc221cfde47)">
     <use xlink:href="#C0_0_e9478bc604" x="288.256179" y="44.782938" style="fill: none; stroke: #000000"/>
    </g>
   </g>
   <g id="PathCollection_2">
    <defs>
     <path id="m751b939701" d="M 0 3 
C 0.795609 3 1.55874 2.683901 2.12132 2.12132 
C 2.683901 1.55874 3 0.795609 3 0 
C 3 -0.795609 2.683901 -1.55874 2.12132 -2.12132 
C 1.55874 -2.683901 0.795609 -3 0 -3 
C -0.795609 -3 -1.55874 -2.683901 -2.12132 -2.12132 
C -2.683901 -1.55874 -3 -0.795609 -3 0 
C -3 0.795609 -2.683901 1.55874 -2.12132 2.12132 
C -1.55874 2.683901 -0.795609 3 0 3 
z
" style="stroke: #000000"/>
    </defs>
    <g clip-path="url(#pc221cfde47)">
     <use xlink:href="#m751b939701" x="42.860116" y="188.918182" style="stroke: #000000"/>
     <use xlink:href="#m751b939701" x="55.129919" y="172.104088" style="stroke: #000000"/>
     <use xlink:href="#m751b939701" x="67.399722" y="156.009874" style="stroke: #000000"/>
     <use xlink:href="#m751b939701" x="79.669525" y="138.804312" style="stroke: #000000"/>
     <use xlink:href="#m751b939701" x="91.939328" y="121.806741" style="stroke: #000000"/>
     <use xlink:href="#m751b939701" x="104.209131" y="116.113303" style="stroke: #000000"/>
     <use xlink:href="#m751b939701" x="116.478935" y="109.137373" style="stroke: #000000"/>
     <use xlink:href="#m751b939701" x="128.748738" y="104.404849" style="stroke: #000000"/>
     <use xlink:href="#m751b939701" x="141.018541" y="99.894985" style="stroke: #000000"/>
     <use xlink:href="#m751b939701" x="153.288344" y="98.229002" style="stroke: #000000"/>
     <use xlink:href="#m751b939701" x="165.558147" y="93.387483" style="stroke: #000000"/>
     <use xlink:href="#m751b939701" x="177.82795" y="85.092508" style="stroke: #000000"/>
     <use xlink:href="#m751b939701" x="190.097753" y="79.578936" style="stroke: #000000"/>
     <use xlink:href="#m751b939701" x="202.367557" y="81.977651" style="stroke: #000000"/>
     <use xlink:href="#m751b939701" x="214.63736" y="82.589099" style="stroke: #000000"/>
     <use xlink:href="#m751b939701" x="226.907163" y="79.287608" style="stroke: #000000"/>
     <use xlink:href="#m751b939701" x="239.176966" y="76.654233" style="stroke: #000000"/>
     <use xlink:href="#m751b939701" x="251.446769" y="74.557067" style="stroke: #000000"/>
     <use xlink:href="#m751b939701" x="263.716572" y="77.340404" style="stroke: #000000"/>
     <use xlink:href="#m751b939701" x="275.986375" y="79.494065" style="stroke: #000000"/>
     <use xlink:href="#m751b939701" x="288.256179" y="82.919253" style="stroke: #000000"/>
    </g>
   </g>
   <g id="legend_1">
    <g id="patch_3">
     <path d="M 33.590313 41.499375 
L 69.714063 41.499375 
L 69.714063 22.2 
L 33.590313 22.2 
z
" style="fill: #ffffff; opacity: 0.8"/>
    </g>
    <g id="line2d_18">
     <path d="M 35.990313 27 
L 43.490313 27 
L 50.990313 27 
" style="fill: none; stroke-dasharray: 2,3.3; stroke-dashoffset: 0; stroke: #000000; stroke-width: 2"/>
     <defs>
      <path id="ma69b409722" d="M -0 4.242641 
L 4.242641 0 
L 0 -4.242641 
L -4.242641 -0 
z
" style="stroke: #000000; stroke-linejoin: miter"/>
     </defs>
     <g>
      <use xlink:href="#ma69b409722" x="43.490313" y="27" style="fill-opacity: 0; stroke: #000000; stroke-linejoin: miter"/>
     </g>
    </g>
    <g id="text_15">
     <!-- Boys -->
     <g transform="translate(55.790312 29.1) scale(0.06 -0.06)">
      <defs>
       <path id="RobotoCondensed-Regular-42" d="M 3125 1313 
Q 3125 675 2776 337 
Q 2428 0 1847 0 
L 491 0 
L 491 4550 
L 1791 4550 
Q 2375 4550 2706 4261 
Q 3038 3972 3038 3338 
Q 3038 3025 2880 2779 
Q 2722 2534 2453 2400 
Q 2781 2297 2953 1998 
Q 3125 1700 3125 1313 
z
M 1066 4056 
L 1066 2613 
L 1797 2613 
Q 2088 2613 2275 2806 
Q 2463 3000 2463 3344 
Q 2463 4041 1819 4056 
L 1066 4056 
z
M 2550 1306 
Q 2550 2106 1906 2128 
L 1066 2128 
L 1066 491 
L 1847 491 
Q 2181 491 2365 711 
Q 2550 931 2550 1306 
z
" transform="scale(0.015625)"/>
       <path id="RobotoCondensed-Regular-6f" d="M 300 1850 
Q 300 2641 678 3042 
Q 1056 3444 1603 3444 
Q 2156 3444 2536 3042 
Q 2916 2641 2916 1850 
L 2916 1528 
Q 2916 738 2536 337 
Q 2156 -63 1609 -63 
Q 1059 -63 679 337 
Q 300 738 300 1528 
L 300 1850 
z
M 853 1528 
Q 853 969 1068 689 
Q 1284 409 1609 409 
Q 2341 409 2363 1466 
L 2363 1850 
Q 2363 2403 2145 2686 
Q 1928 2969 1603 2969 
Q 1281 2969 1067 2686 
Q 853 2403 853 1850 
L 853 1528 
z
" transform="scale(0.015625)"/>
       <path id="RobotoCondensed-Regular-79" d="M 1425 -522 
Q 1153 -1366 563 -1366 
Q 409 -1366 278 -1316 
L 278 -847 
Q 328 -859 397 -859 
Q 631 -859 770 -746 
Q 909 -634 997 -338 
L 1106 31 
L 109 3381 
L 713 3381 
L 1341 922 
L 1953 3381 
L 2541 3381 
L 1425 -522 
z
" transform="scale(0.015625)"/>
       <path id="RobotoCondensed-Regular-73" d="M 2056 866 
Q 2056 1059 1907 1190 
Q 1759 1322 1340 1500 
Q 922 1678 681 1863 
Q 409 2072 409 2484 
Q 409 2888 703 3166 
Q 997 3444 1481 3444 
Q 2000 3444 2287 3150 
Q 2575 2856 2575 2419 
L 2025 2419 
Q 2025 2628 1884 2798 
Q 1744 2969 1481 2969 
Q 1203 2969 1083 2828 
Q 963 2688 963 2503 
Q 963 2319 1081 2217 
Q 1200 2116 1553 1959 
Q 2066 1756 2337 1537 
Q 2609 1319 2609 909 
Q 2609 463 2303 200 
Q 1997 -63 1494 -63 
Q 919 -63 616 265 
Q 313 594 313 1013 
L 866 1013 
Q 881 653 1081 533 
Q 1281 413 1494 413 
Q 2056 413 2056 866 
z
" transform="scale(0.015625)"/>
      </defs>
      <use xlink:href="#RobotoCondensed-Regular-42"/>
      <use xlink:href="#RobotoCondensed-Regular-6f" transform="translate(54.589844 0)"/>
      <use xlink:href="#RobotoCondensed-Regular-79" transform="translate(104.785156 0)"/>
      <use xlink:href="#RobotoCondensed-Regular-73" transform="translate(146.435547 0)"/>
     </g>
    </g>
    <g id="line2d_19">
     <path d="M 35.990313 35.780625 
L 43.490313 35.780625 
L 50.990313 35.780625 
" style="fill: none; stroke-dasharray: 12.8,3.2,2,3.2; stroke-dashoffset: 0; stroke: #000000; stroke-width: 2"/>
     <g>
      <use xlink:href="#m751b939701" x="43.490313" y="35.780625" style="stroke: #000000"/>
     </g>
    </g>
    <g id="text_16">
     <!-- Girls -->
     <g transform="translate(55.790312 37.880625) scale(0.06 -0.06)">
      <defs>
       <path id="RobotoCondensed-Regular-47" d="M 3341 2266 
L 3341 569 
Q 3266 469 3114 319 
Q 2963 169 2691 53 
Q 2419 -63 1978 -63 
Q 1272 -63 830 412 
Q 388 888 388 1850 
L 388 2703 
Q 388 3656 770 4134 
Q 1153 4613 1919 4613 
Q 2581 4613 2943 4244 
Q 3306 3875 3341 3219 
L 2766 3219 
Q 2731 3641 2529 3880 
Q 2328 4119 1919 4119 
Q 1400 4119 1183 3773 
Q 966 3428 963 2731 
L 963 1850 
Q 963 1125 1239 776 
Q 1516 428 1981 428 
Q 2378 428 2537 547 
Q 2697 666 2769 728 
L 2769 1778 
L 1934 1778 
L 1934 2266 
L 3341 2266 
z
" transform="scale(0.015625)"/>
       <path id="RobotoCondensed-Regular-69" d="M 428 4278 
Q 428 4419 506 4516 
Q 584 4613 741 4613 
Q 894 4613 975 4516 
Q 1056 4419 1056 4278 
Q 1056 4144 975 4048 
Q 894 3953 741 3953 
Q 584 3953 506 4048 
Q 428 4144 428 4278 
z
M 1009 3381 
L 1009 0 
L 459 0 
L 459 3381 
L 1009 3381 
z
" transform="scale(0.015625)"/>
       <path id="RobotoCondensed-Regular-72" d="M 1563 2888 
Q 1138 2888 969 2425 
L 969 0 
L 416 0 
L 416 3381 
L 950 3381 
L 963 3041 
Q 1184 3444 1591 3444 
Q 1738 3444 1809 3400 
L 1813 2863 
Q 1691 2888 1563 2888 
z
" transform="scale(0.015625)"/>
       <path id="RobotoCondensed-Regular-6c" d="M 1009 4800 
L 1009 0 
L 459 0 
L 459 4800 
L 1009 4800 
z
" transform="scale(0.015625)"/>
      </defs>
      <use xlink:href="#RobotoCondensed-Regular-47"/>
      <use xlink:href="#RobotoCondensed-Regular-69" transform="translate(59.082031 0)"/>
      <use xlink:href="#RobotoCondensed-Regular-72" transform="translate(82.03125 0)"/>
      <use xlink:href="#RobotoCondensed-Regular-6c" transform="translate(112.5 0)"/>
      <use xlink:href="#RobotoCondensed-Regular-73" transform="translate(135.449219 0)"/>
     </g>
    </g>
   </g>
  </g>
 </g>
 <defs>
  <clipPath id="pc221cfde47">
   <rect x="30.590313" y="19.2" width="269.935669" height="177.8"/>
  </clipPath>
 </defs>
</svg>
