<?xml version="1.0" encoding="utf-8" standalone="no"?>
<!DOCTYPE svg PUBLIC "-//W3C//DTD SVG 1.1//EN"
  "http://www.w3.org/Graphics/SVG/1.1/DTD/svg11.dtd">
<svg xmlns:xlink="http://www.w3.org/1999/xlink" width="313.702544pt" height="216.6575pt" viewBox="0 0 313.702544 216.6575" xmlns="http://www.w3.org/2000/svg" version="1.1">
 <metadata>
  <rdf:RDF xmlns:dc="http://purl.org/dc/elements/1.1/" xmlns:cc="http://creativecommons.org/ns#" xmlns:rdf="http://www.w3.org/1999/02/22-rdf-syntax-ns#">
   <cc:Work>
    <dc:type rdf:resource="http://purl.org/dc/dcmitype/StillImage"/>
    <dc:date>2026-04-28T10:03:52.823570</dc:date>
    <dc:format>image/svg+xml</dc:format>
    <dc:creator>
     <cc:Agent>
      <dc:title>Matplotlib v3.10.7, https://matplotlib.org/</dc:title>
     </cc:Agent>
    </dc:creator>
   </cc:Work>
  </rdf:RDF>
 </metadata>
 <defs>
  <style type="text/css">*{stroke-linejoin: round; stroke-linecap: butt}</style>
 </defs>
 <g id="figure_1">
  <g id="patch_1">
   <path d="M 0 216.6575 
L 313.702544 216.6575 
L 313.702544 -0 
L 0 -0 
z
" style="fill: #ffffff"/>
  </g>
  <g id="axes_1">
   <g id="patch_2">
    <path d="M 27.62875 196.73875 
L 300.579419 196.73875 
L 300.579419 19.5125 
L 27.62875 19.5125 
z
" style="fill: #ffffff"/>
   </g>
   <g id="matplotlib.axis_1">
    <g id="xtick_1">
     <g id="line2d_1">
      <defs>
       <path id="m882c28f338" d="M 0 0 
L 0 3.5 
" style="stroke: #000000; stroke-width: 0.8"/>
      </defs>
      <g>
       <use xlink:href="#m882c28f338" x="40.035599" y="196.73875" style="stroke: #000000; stroke-width: 0.8"/>
      </g>
     </g>
     <g id="text_1">
      <!-- 2004 -->
      <g transform="translate(34.112474 208.23875) scale(0.06 -0.06)">
       <defs>
        <path id="RobotoCondensed-Regular-32" d="M 2909 475 
L 2909 0 
L 366 0 
L 366 416 
L 1628 2088 
Q 1966 2541 2077 2802 
Q 2188 3063 2188 3328 
Q 2188 3663 2027 3900 
Q 1866 4138 1575 4138 
Q 1194 4138 1022 3878 
Q 850 3619 850 3213 
L 297 3213 
Q 297 3788 617 4200 
Q 938 4613 1575 4613 
Q 2125 4613 2433 4278 
Q 2741 3944 2741 3397 
Q 2741 2997 2541 2594 
Q 2341 2191 2047 1809 
L 1028 475 
L 2909 475 
z
" transform="scale(0.015625)"/>
        <path id="RobotoCondensed-Regular-30" d="M 2797 1944 
Q 2797 825 2467 381 
Q 2138 -63 1581 -63 
Q 1038 -63 703 370 
Q 369 803 359 1878 
L 359 2638 
Q 359 3753 695 4183 
Q 1031 4613 1578 4613 
Q 2131 4613 2461 4189 
Q 2791 3766 2797 2681 
L 2797 1944 
z
M 2247 2734 
Q 2247 3503 2073 3822 
Q 1900 4141 1578 4141 
Q 1266 4141 1092 3833 
Q 919 3525 913 2791 
L 913 1850 
Q 913 1088 1089 750 
Q 1266 413 1581 413 
Q 1903 413 2072 738 
Q 2241 1063 2247 1794 
L 2247 2734 
z
" transform="scale(0.015625)"/>
        <path id="RobotoCondensed-Regular-34" d="M 188 1397 
L 1878 4550 
L 2463 4550 
L 2463 1531 
L 2969 1531 
L 2969 1056 
L 2463 1056 
L 2463 0 
L 1909 0 
L 1909 1056 
L 188 1056 
L 188 1397 
z
M 803 1531 
L 1909 1531 
L 1909 3703 
L 1878 3638 
L 803 1531 
z
" transform="scale(0.015625)"/>
       </defs>
       <use xlink:href="#RobotoCondensed-Regular-32"/>
       <use xlink:href="#RobotoCondensed-Regular-30" transform="translate(49.365234 0)"/>
       <use xlink:href="#RobotoCondensed-Regular-30" transform="translate(98.730469 0)"/>
       <use xlink:href="#RobotoCondensed-Regular-34" transform="translate(148.095703 0)"/>
      </g>
     </g>
    </g>
    <g id="xtick_2">
     <g id="line2d_2">
      <g>
       <use xlink:href="#m882c28f338" x="77.256144" y="196.73875" style="stroke: #000000; stroke-width: 0.8"/>
      </g>
     </g>
     <g id="text_2">
      <!-- 2007 -->
      <g transform="translate(71.333019 208.23875) scale(0.06 -0.06)">
       <defs>
        <path id="RobotoCondensed-Regular-37" d="M 2878 4550 
L 2878 4225 
L 1313 0 
L 731 0 
L 2297 4075 
L 269 4075 
L 269 4550 
L 2878 4550 
z
" transform="scale(0.015625)"/>
       </defs>
       <use xlink:href="#RobotoCondensed-Regular-32"/>
       <use xlink:href="#RobotoCondensed-Regular-30" transform="translate(49.365234 0)"/>
       <use xlink:href="#RobotoCondensed-Regular-30" transform="translate(98.730469 0)"/>
       <use xlink:href="#RobotoCondensed-Regular-37" transform="translate(148.095703 0)"/>
      </g>
     </g>
    </g>
    <g id="xtick_3">
     <g id="line2d_3">
      <g>
       <use xlink:href="#m882c28f338" x="114.47669" y="196.73875" style="stroke: #000000; stroke-width: 0.8"/>
      </g>
     </g>
     <g id="text_3">
      <!-- 2010 -->
      <g transform="translate(108.553565 208.23875) scale(0.06 -0.06)">
       <defs>
        <path id="RobotoCondensed-Regular-31" d="M 2013 4575 
L 2013 0 
L 1459 0 
L 1459 3853 
L 503 3428 
L 503 3950 
L 1928 4575 
L 2013 4575 
z
" transform="scale(0.015625)"/>
       </defs>
       <use xlink:href="#RobotoCondensed-Regular-32"/>
       <use xlink:href="#RobotoCondensed-Regular-30" transform="translate(49.365234 0)"/>
       <use xlink:href="#RobotoCondensed-Regular-31" transform="translate(98.730469 0)"/>
       <use xlink:href="#RobotoCondensed-Regular-30" transform="translate(148.095703 0)"/>
      </g>
     </g>
    </g>
    <g id="xtick_4">
     <g id="line2d_4">
      <g>
       <use xlink:href="#m882c28f338" x="151.697236" y="196.73875" style="stroke: #000000; stroke-width: 0.8"/>
      </g>
     </g>
     <g id="text_4">
      <!-- 2013 -->
      <g transform="translate(145.774111 208.23875) scale(0.06 -0.06)">
       <defs>
        <path id="RobotoCondensed-Regular-33" d="M 1075 2084 
L 1075 2559 
L 1431 2559 
Q 1788 2559 1961 2781 
Q 2134 3003 2134 3338 
Q 2134 4138 1519 4138 
Q 1228 4138 1054 3927 
Q 881 3716 881 3359 
L 331 3359 
Q 331 3881 653 4247 
Q 975 4613 1519 4613 
Q 2038 4613 2363 4286 
Q 2688 3959 2688 3325 
Q 2688 3072 2550 2786 
Q 2413 2500 2100 2338 
Q 2484 2194 2612 1886 
Q 2741 1578 2741 1269 
Q 2741 631 2389 284 
Q 2038 -63 1516 -63 
Q 1006 -63 656 267 
Q 306 597 306 1203 
L 859 1203 
Q 859 844 1032 628 
Q 1206 413 1516 413 
Q 1822 413 2005 622 
Q 2188 831 2188 1256 
Q 2188 2084 1403 2084 
L 1075 2084 
z
" transform="scale(0.015625)"/>
       </defs>
       <use xlink:href="#RobotoCondensed-Regular-32"/>
       <use xlink:href="#RobotoCondensed-Regular-30" transform="translate(49.365234 0)"/>
       <use xlink:href="#RobotoCondensed-Regular-31" transform="translate(98.730469 0)"/>
       <use xlink:href="#RobotoCondensed-Regular-33" transform="translate(148.095703 0)"/>
      </g>
     </g>
    </g>
    <g id="xtick_5">
     <g id="line2d_5">
      <g>
       <use xlink:href="#m882c28f338" x="188.917782" y="196.73875" style="stroke: #000000; stroke-width: 0.8"/>
      </g>
     </g>
     <g id="text_5">
      <!-- 2016 -->
      <g transform="translate(182.994657 208.23875) scale(0.06 -0.06)">
       <defs>
        <path id="RobotoCondensed-Regular-36" d="M 2847 1484 
Q 2847 838 2544 387 
Q 2241 -63 1641 -63 
Q 1216 -63 944 198 
Q 672 459 542 861 
Q 413 1263 413 1684 
L 413 1956 
Q 413 2438 481 2900 
Q 550 3363 742 3738 
Q 934 4113 1296 4334 
Q 1659 4556 2291 4556 
L 2291 4066 
Q 1775 4066 1508 3859 
Q 1241 3653 1122 3318 
Q 1003 2984 978 2606 
Q 1272 2984 1750 2984 
Q 2138 2984 2380 2765 
Q 2622 2547 2734 2201 
Q 2847 1856 2847 1484 
z
M 969 1666 
Q 969 1059 1180 737 
Q 1391 416 1641 416 
Q 1959 416 2129 708 
Q 2300 1000 2300 1456 
Q 2300 1863 2144 2184 
Q 1988 2506 1659 2506 
Q 1425 2506 1236 2329 
Q 1047 2153 969 1900 
L 969 1666 
z
" transform="scale(0.015625)"/>
       </defs>
       <use xlink:href="#RobotoCondensed-Regular-32"/>
       <use xlink:href="#RobotoCondensed-Regular-30" transform="translate(49.365234 0)"/>
       <use xlink:href="#RobotoCondensed-Regular-31" transform="translate(98.730469 0)"/>
       <use xlink:href="#RobotoCondensed-Regular-36" transform="translate(148.095703 0)"/>
      </g>
     </g>
    </g>
    <g id="xtick_6">
     <g id="line2d_6">
      <g>
       <use xlink:href="#m882c28f338" x="226.138328" y="196.73875" style="stroke: #000000; stroke-width: 0.8"/>
      </g>
     </g>
     <g id="text_6">
      <!-- 2019 -->
      <g transform="translate(220.215203 208.23875) scale(0.06 -0.06)">
       <defs>
        <path id="RobotoCondensed-Regular-39" d="M 2744 2563 
Q 2744 2119 2687 1667 
Q 2631 1216 2450 836 
Q 2269 456 1903 225 
Q 1538 -6 869 -6 
L 866 484 
Q 1428 484 1698 690 
Q 1969 897 2072 1233 
Q 2175 1569 2191 1950 
Q 1859 1522 1413 1522 
Q 1025 1522 786 1747 
Q 547 1972 436 2320 
Q 325 2669 325 3041 
Q 325 3691 623 4152 
Q 922 4613 1522 4613 
Q 1969 4613 2237 4344 
Q 2506 4075 2625 3653 
Q 2744 3231 2744 2772 
L 2744 2563 
z
M 866 3072 
Q 866 2666 1020 2334 
Q 1175 2003 1506 2003 
Q 1716 2003 1906 2179 
Q 2097 2356 2194 2616 
L 2194 2850 
Q 2194 3472 1983 3803 
Q 1772 4134 1522 4134 
Q 1206 4134 1036 3829 
Q 866 3525 866 3072 
z
" transform="scale(0.015625)"/>
       </defs>
       <use xlink:href="#RobotoCondensed-Regular-32"/>
       <use xlink:href="#RobotoCondensed-Regular-30" transform="translate(49.365234 0)"/>
       <use xlink:href="#RobotoCondensed-Regular-31" transform="translate(98.730469 0)"/>
       <use xlink:href="#RobotoCondensed-Regular-39" transform="translate(148.095703 0)"/>
      </g>
     </g>
    </g>
    <g id="xtick_7">
     <g id="line2d_7">
      <g>
       <use xlink:href="#m882c28f338" x="263.358873" y="196.73875" style="stroke: #000000; stroke-width: 0.8"/>
      </g>
     </g>
     <g id="text_7">
      <!-- 2022 -->
      <g transform="translate(257.435748 208.23875) scale(0.06 -0.06)">
       <use xlink:href="#RobotoCondensed-Regular-32"/>
       <use xlink:href="#RobotoCondensed-Regular-30" transform="translate(49.365234 0)"/>
       <use xlink:href="#RobotoCondensed-Regular-32" transform="translate(98.730469 0)"/>
       <use xlink:href="#RobotoCondensed-Regular-32" transform="translate(148.095703 0)"/>
      </g>
     </g>
    </g>
    <g id="xtick_8">
     <g id="line2d_8">
      <g>
       <use xlink:href="#m882c28f338" x="300.579419" y="196.73875" style="stroke: #000000; stroke-width: 0.8"/>
      </g>
     </g>
     <g id="text_8">
      <!-- 2025 -->
      <g transform="translate(294.656294 208.23875) scale(0.06 -0.06)">
       <defs>
        <path id="RobotoCondensed-Regular-35" d="M 1034 2166 
L 594 2284 
L 788 4550 
L 2769 4550 
L 2769 4016 
L 1253 4016 
L 1147 2778 
Q 1438 2975 1753 2975 
Q 2288 2975 2591 2561 
Q 2894 2147 2894 1450 
Q 2894 797 2584 367 
Q 2275 -63 1656 -63 
Q 1194 -63 850 248 
Q 506 559 453 1197 
L 975 1197 
Q 1066 413 1656 413 
Q 1978 413 2159 691 
Q 2341 969 2341 1444 
Q 2341 1872 2153 2164 
Q 1966 2456 1619 2456 
Q 1384 2456 1273 2378 
Q 1163 2300 1034 2166 
z
" transform="scale(0.015625)"/>
       </defs>
       <use xlink:href="#RobotoCondensed-Regular-32"/>
       <use xlink:href="#RobotoCondensed-Regular-30" transform="translate(49.365234 0)"/>
       <use xlink:href="#RobotoCondensed-Regular-32" transform="translate(98.730469 0)"/>
       <use xlink:href="#RobotoCondensed-Regular-35" transform="translate(148.095703 0)"/>
      </g>
     </g>
    </g>
   </g>
   <g id="matplotlib.axis_2">
    <g id="ytick_1">
     <g id="line2d_9">
      <defs>
       <path id="m84ad93a894" d="M 0 0 
L -3.5 0 
" style="stroke: #000000; stroke-width: 0.8"/>
      </defs>
      <g>
       <use xlink:href="#m84ad93a894" x="27.62875" y="178.626947" style="stroke: #000000; stroke-width: 0.8"/>
      </g>
     </g>
     <g id="text_9">
      <!-- 0.910 -->
      <g transform="translate(7.2 180.876947) scale(0.06 -0.06)">
       <defs>
        <path id="RobotoCondensed-Regular-2e" d="M 450 306 
Q 450 453 542 554 
Q 634 656 809 656 
Q 984 656 1076 554 
Q 1169 453 1169 306 
Q 1169 163 1076 62 
Q 984 -38 809 -38 
Q 634 -38 542 62 
Q 450 163 450 306 
z
" transform="scale(0.015625)"/>
       </defs>
       <use xlink:href="#RobotoCondensed-Regular-30"/>
       <use xlink:href="#RobotoCondensed-Regular-2e" transform="translate(49.365234 0)"/>
       <use xlink:href="#RobotoCondensed-Regular-39" transform="translate(75.732422 0)"/>
       <use xlink:href="#RobotoCondensed-Regular-31" transform="translate(125.097656 0)"/>
       <use xlink:href="#RobotoCondensed-Regular-30" transform="translate(174.462891 0)"/>
      </g>
     </g>
    </g>
    <g id="ytick_2">
     <g id="line2d_10">
      <g>
       <use xlink:href="#m84ad93a894" x="27.62875" y="151.559067" style="stroke: #000000; stroke-width: 0.8"/>
      </g>
     </g>
     <g id="text_10">
      <!-- 0.915 -->
      <g transform="translate(7.2 153.809067) scale(0.06 -0.06)">
       <use xlink:href="#RobotoCondensed-Regular-30"/>
       <use xlink:href="#RobotoCondensed-Regular-2e" transform="translate(49.365234 0)"/>
       <use xlink:href="#RobotoCondensed-Regular-39" transform="translate(75.732422 0)"/>
       <use xlink:href="#RobotoCondensed-Regular-31" transform="translate(125.097656 0)"/>
       <use xlink:href="#RobotoCondensed-Regular-35" transform="translate(174.462891 0)"/>
      </g>
     </g>
    </g>
    <g id="ytick_3">
     <g id="line2d_11">
      <g>
       <use xlink:href="#m84ad93a894" x="27.62875" y="124.491187" style="stroke: #000000; stroke-width: 0.8"/>
      </g>
     </g>
     <g id="text_11">
      <!-- 0.920 -->
      <g transform="translate(7.2 126.741187) scale(0.06 -0.06)">
       <use xlink:href="#RobotoCondensed-Regular-30"/>
       <use xlink:href="#RobotoCondensed-Regular-2e" transform="translate(49.365234 0)"/>
       <use xlink:href="#RobotoCondensed-Regular-39" transform="translate(75.732422 0)"/>
       <use xlink:href="#RobotoCondensed-Regular-32" transform="translate(125.097656 0)"/>
       <use xlink:href="#RobotoCondensed-Regular-30" transform="translate(174.462891 0)"/>
      </g>
     </g>
    </g>
    <g id="ytick_4">
     <g id="line2d_12">
      <g>
       <use xlink:href="#m84ad93a894" x="27.62875" y="97.423306" style="stroke: #000000; stroke-width: 0.8"/>
      </g>
     </g>
     <g id="text_12">
      <!-- 0.925 -->
      <g transform="translate(7.2 99.673306) scale(0.06 -0.06)">
       <use xlink:href="#RobotoCondensed-Regular-30"/>
       <use xlink:href="#RobotoCondensed-Regular-2e" transform="translate(49.365234 0)"/>
       <use xlink:href="#RobotoCondensed-Regular-39" transform="translate(75.732422 0)"/>
       <use xlink:href="#RobotoCondensed-Regular-32" transform="translate(125.097656 0)"/>
       <use xlink:href="#RobotoCondensed-Regular-35" transform="translate(174.462891 0)"/>
      </g>
     </g>
    </g>
    <g id="ytick_5">
     <g id="line2d_13">
      <g>
       <use xlink:href="#m84ad93a894" x="27.62875" y="70.355426" style="stroke: #000000; stroke-width: 0.8"/>
      </g>
     </g>
     <g id="text_13">
      <!-- 0.930 -->
      <g transform="translate(7.2 72.605426) scale(0.06 -0.06)">
       <use xlink:href="#RobotoCondensed-Regular-30"/>
       <use xlink:href="#RobotoCondensed-Regular-2e" transform="translate(49.365234 0)"/>
       <use xlink:href="#RobotoCondensed-Regular-39" transform="translate(75.732422 0)"/>
       <use xlink:href="#RobotoCondensed-Regular-33" transform="translate(125.097656 0)"/>
       <use xlink:href="#RobotoCondensed-Regular-30" transform="translate(174.462891 0)"/>
      </g>
     </g>
    </g>
    <g id="ytick_6">
     <g id="line2d_14">
      <g>
       <use xlink:href="#m84ad93a894" x="27.62875" y="43.287546" style="stroke: #000000; stroke-width: 0.8"/>
      </g>
     </g>
     <g id="text_14">
      <!-- 0.935 -->
      <g transform="translate(7.2 45.537546) scale(0.06 -0.06)">
       <use xlink:href="#RobotoCondensed-Regular-30"/>
       <use xlink:href="#RobotoCondensed-Regular-2e" transform="translate(49.365234 0)"/>
       <use xlink:href="#RobotoCondensed-Regular-39" transform="translate(75.732422 0)"/>
       <use xlink:href="#RobotoCondensed-Regular-33" transform="translate(125.097656 0)"/>
       <use xlink:href="#RobotoCondensed-Regular-35" transform="translate(174.462891 0)"/>
      </g>
     </g>
    </g>
   </g>
   <g id="line2d_15">
    <path d="M 40.035599 161.376115 
L 41.695378 155.092107 
L 43.355157 150.29382 
L 44.185046 148.390529 
L 45.014936 146.785117 
L 45.844825 145.453066 
L 46.674715 144.369861 
L 47.504604 143.510982 
L 48.334494 142.851914 
L 49.164384 142.36814 
L 49.994273 142.035141 
L 51.654052 141.723402 
L 52.483942 141.697135 
L 53.313831 142.358347 
L 54.143721 144.103767 
L 54.97361 146.764648 
L 55.8035 150.17224 
L 57.463279 158.552564 
L 60.782837 176.848823 
L 61.612727 180.758441 
L 62.442616 184.064784 
L 63.272506 186.599103 
L 64.102395 188.19265 
L 64.932285 188.678959 
L 65.762174 188.214634 
L 66.592064 187.055998 
L 67.421953 185.311965 
L 68.251843 183.091444 
L 69.911622 177.656587 
L 73.23118 165.861126 
L 74.06107 163.354713 
L 74.890959 161.243103 
L 75.720849 159.635209 
L 76.550738 158.639941 
L 77.380628 158.364515 
L 78.210517 158.779448 
L 79.040407 159.764192 
L 79.870296 161.228657 
L 80.700186 163.082756 
L 82.359965 167.599498 
L 85.679523 177.344682 
L 86.509413 179.403732 
L 87.339302 181.131706 
L 88.169192 182.438517 
L 88.999081 183.234074 
L 89.828971 183.422949 
L 90.65886 182.789842 
L 91.48875 181.349141 
L 92.31864 179.223361 
L 93.148529 176.535019 
L 94.808308 169.96071 
L 98.127866 155.452027 
L 99.787645 149.477902 
L 100.617535 147.239699 
L 101.447424 145.664089 
L 102.277314 144.846618 
L 104.766983 143.243423 
L 107.256651 141.914211 
L 109.74632 140.912445 
L 111.406099 140.452917 
L 113.065878 140.17852 
L 114.725657 140.14272 
L 115.555547 140.820629 
L 116.385436 142.243615 
L 117.215326 144.291016 
L 118.045215 146.842174 
L 119.704994 152.973118 
L 123.024552 165.971032 
L 123.854442 168.669998 
L 124.684332 170.90744 
L 125.514221 172.562696 
L 126.344111 173.515107 
L 127.174 173.669504 
L 128.00389 173.265297 
L 128.833779 172.445053 
L 129.663669 171.276695 
L 131.323448 168.167339 
L 136.302785 157.548705 
L 137.132675 156.303932 
L 137.962564 155.390291 
L 138.792454 154.875707 
L 139.622343 154.846844 
L 140.452233 155.489371 
L 141.282122 156.753369 
L 142.112012 158.536538 
L 143.771791 163.251191 
L 147.921239 176.962334 
L 148.751128 179.216082 
L 149.581018 181.068304 
L 150.410907 182.416699 
L 151.240797 183.158968 
L 152.070686 183.220938 
L 152.900576 182.76782 
L 153.730465 181.901581 
L 154.560355 180.690791 
L 156.220134 177.509822 
L 160.369582 168.327469 
L 161.199471 166.828694 
L 162.029361 165.602476 
L 162.85925 164.717381 
L 163.68914 164.241979 
L 164.519029 164.23496 
L 165.348919 164.657095 
L 166.178808 165.443017 
L 167.008698 166.531841 
L 168.668477 169.374655 
L 172.817925 177.520537 
L 173.647814 178.840723 
L 174.477704 179.915848 
L 175.307593 180.685026 
L 176.137483 181.087374 
L 176.967372 180.990244 
L 177.797262 180.054136 
L 178.627152 178.353617 
L 179.457041 176.017701 
L 181.11682 169.955739 
L 185.266268 152.71241 
L 186.096157 149.937846 
L 186.926047 147.689015 
L 187.755936 146.094933 
L 188.585826 145.284614 
L 189.415716 145.366001 
L 190.245605 146.275223 
L 191.075495 147.889539 
L 191.905384 150.088935 
L 193.565163 155.762896 
L 197.714611 171.785545 
L 198.544501 174.344989 
L 199.37439 176.409366 
L 200.20428 177.85866 
L 201.034169 178.572856 
L 201.864059 178.29025 
L 202.693948 176.556982 
L 203.523838 173.544624 
L 204.353727 169.472761 
L 206.013506 159.028869 
L 210.162954 129.748862 
L 210.992844 125.106075 
L 211.822733 121.380061 
L 212.652623 118.790406 
L 213.482512 117.556697 
L 214.312402 117.567637 
L 215.142291 117.955405 
L 215.972181 118.61599 
L 216.80207 119.502149 
L 218.461849 121.762229 
L 222.611297 128.053134 
L 223.441187 129.043223 
L 224.271076 129.83372 
L 225.100966 130.377383 
L 225.930855 130.626972 
L 226.760745 130.561112 
L 227.590634 130.23158 
L 228.420524 129.663406 
L 229.250413 128.879474 
L 230.910193 126.755871 
L 232.569972 124.043846 
L 235.05964 119.272997 
L 239.209088 110.797158 
L 240.038977 108.60799 
L 241.698757 103.245942 
L 246.678094 85.160635 
L 247.507983 82.710991 
L 248.337873 80.640082 
L 249.167762 79.029442 
L 249.997652 77.960606 
L 250.827541 77.515109 
L 253.31721 77.621002 
L 255.806879 77.972131 
L 258.296547 78.537276 
L 260.786216 79.292913 
L 263.275885 80.215515 
L 264.105774 80.809385 
L 264.935664 81.985517 
L 265.765553 83.654735 
L 266.595443 85.724581 
L 268.255222 90.696327 
L 271.57478 101.37924 
L 272.404669 103.664681 
L 273.234559 105.611091 
L 274.064449 107.126015 
L 274.894338 108.116994 
L 275.724228 108.491573 
L 276.554117 108.361219 
L 277.384007 107.941145 
L 278.213896 107.23448 
L 279.043786 106.243828 
L 279.873675 104.971793 
L 280.703565 103.42098 
L 281.533454 101.593993 
L 283.193233 97.121913 
L 284.853013 91.576387 
L 286.512792 84.978249 
L 288.172571 77.348332 
L 288.172571 77.348332 
" clip-path="url(#p944ec19218)" style="fill: none; stroke: #ffa500; stroke-width: 2; stroke-linecap: square"/>
   </g>
   <g id="line2d_16">
    <path d="M 40.035599 184.173717 
L 52.442447 180.058774 
L 64.849296 175.943831 
L 77.256144 171.828887 
L 89.662993 167.713944 
L 102.069842 163.599001 
L 114.47669 159.484057 
L 126.883539 155.369114 
L 139.290387 151.254171 
L 151.697236 147.139227 
L 164.104085 143.024284 
L 176.510933 138.909341 
L 188.917782 134.794397 
L 201.32463 130.679454 
L 213.731479 126.564511 
L 226.138328 122.449568 
L 238.545176 118.334624 
L 250.952025 114.219681 
L 263.358873 110.104738 
L 275.765722 105.989794 
L 288.172571 101.874851 
" clip-path="url(#p944ec19218)" style="fill: none; stroke: #ffa500; stroke-opacity: 0.7; stroke-linecap: square"/>
   </g>
   <g id="line2d_17">
    <path d="M 40.035599 78.52663 
L 42.525267 72.93008 
L 44.185046 69.667423 
L 45.844825 66.855453 
L 47.504604 64.559299 
L 49.164384 62.844091 
L 49.994273 62.224695 
L 50.824163 61.77496 
L 51.654052 61.503026 
L 52.483942 61.416998 
L 53.313831 61.504149 
L 54.143721 61.736701 
L 55.8035 62.563326 
L 57.463279 63.747515 
L 60.782837 66.59114 
L 63.272506 68.551592 
L 64.932285 69.496823 
L 67.421953 70.452368 
L 71.571401 71.647041 
L 74.06107 72.427724 
L 75.720849 73.089424 
L 77.380628 73.931209 
L 78.210517 74.58987 
L 79.040407 75.512131 
L 80.700186 77.961106 
L 83.189855 82.44692 
L 84.849634 85.435529 
L 86.509413 87.987791 
L 87.339302 88.983828 
L 88.169192 89.731021 
L 88.999081 90.182784 
L 89.828971 90.292425 
L 90.65886 90.03355 
L 91.48875 89.44623 
L 92.31864 88.582806 
L 93.978419 86.237016 
L 98.957756 78.016716 
L 99.787645 77.023746 
L 100.617535 76.278092 
L 101.447424 75.832095 
L 102.277314 75.731489 
L 103.107204 75.863104 
L 103.937093 76.149793 
L 105.596872 77.088746 
L 107.256651 78.349056 
L 110.576209 81.036583 
L 112.235988 82.065218 
L 113.065878 82.413562 
L 113.895768 82.618043 
L 114.725657 82.614032 
L 115.555547 81.797881 
L 116.385436 80.084715 
L 117.215326 77.619799 
L 118.045215 74.5484 
L 119.704994 67.167212 
L 123.024552 51.518715 
L 123.854442 48.269365 
L 124.684332 45.575656 
L 125.514221 43.582854 
L 126.344111 42.436224 
L 127.174 42.279324 
L 128.00389 43.148636 
L 128.833779 44.912701 
L 129.663669 47.425439 
L 130.493558 50.540767 
L 132.153337 57.994861 
L 135.472896 73.706503 
L 136.302785 76.949653 
L 137.132675 79.626733 
L 137.962564 81.591662 
L 138.792454 82.698358 
L 139.622343 82.852263 
L 140.452233 82.452425 
L 141.282122 81.665853 
L 142.112012 80.556207 
L 143.771791 77.622332 
L 148.751128 67.687558 
L 149.581018 66.534941 
L 150.410907 65.69585 
L 151.240797 65.233944 
L 152.070686 65.175226 
L 153.730465 65.48817 
L 155.390244 66.180721 
L 157.050024 67.188234 
L 158.709803 68.446067 
L 161.199471 70.660755 
L 164.519029 73.929116 
L 165.348919 75.055939 
L 167.008698 78.060323 
L 168.668477 81.731057 
L 171.988035 89.465348 
L 173.647814 92.725791 
L 174.477704 94.028656 
L 175.307593 95.046357 
L 176.137483 95.728699 
L 177.797262 96.390835 
L 181.11682 97.444823 
L 183.606489 98.035232 
L 186.096157 98.423511 
L 188.585826 98.582095 
L 189.415716 98.465737 
L 190.245605 97.775699 
L 191.075495 96.541716 
L 191.905384 94.846154 
L 193.565163 90.399756 
L 196.054832 82.327457 
L 197.714611 76.97172 
L 199.37439 72.405363 
L 200.20428 70.624116 
L 201.034169 69.287311 
L 202.693948 67.605814 
L 204.353727 66.318236 
L 206.843396 64.816717 
L 210.992844 62.471445 
L 212.652623 61.242229 
L 214.312402 59.648907 
L 215.972181 57.4333 
L 217.63196 54.699181 
L 220.121629 50.049853 
L 223.441187 43.845283 
L 225.100966 41.176831 
L 227.590634 37.916089 
L 231.740082 32.478539 
L 233.399861 30.585074 
L 235.05964 29.048885 
L 235.88953 28.455683 
L 236.719419 28.000896 
L 237.549309 27.700891 
L 238.379198 27.572033 
L 239.209088 28.10696 
L 240.038977 30.169398 
L 240.868867 33.557232 
L 241.698757 38.03691 
L 243.358536 49.337601 
L 247.507983 80.348137 
L 248.337873 85.154784 
L 249.167762 88.95133 
L 249.997652 91.504223 
L 250.827541 92.579914 
L 251.657431 91.994984 
L 252.487321 89.868894 
L 253.31721 86.434112 
L 254.1471 81.923295 
L 255.806879 70.604182 
L 259.126437 45.290409 
L 259.956326 39.761721 
L 260.786216 35.018248 
L 261.616105 31.292646 
L 262.445995 28.817572 
L 263.275885 27.825681 
L 264.105774 28.272192 
L 264.935664 29.753203 
L 265.765553 32.112342 
L 266.595443 35.196017 
L 268.255222 42.922618 
L 272.404669 64.167189 
L 273.234559 67.517906 
L 274.064449 70.210846 
L 274.894338 72.092418 
L 275.724228 73.009032 
L 279.043786 74.17125 
L 281.533454 74.832642 
L 284.023123 75.299655 
L 286.512792 75.558757 
L 288.172571 75.609303 
L 288.172571 75.609303 
" clip-path="url(#p944ec19218)" style="fill: none; stroke: #800080; stroke-width: 2; stroke-linecap: square"/>
   </g>
   <g id="line2d_18">
    <path d="M 40.035599 77.505982 
L 52.442447 76.687744 
L 64.849296 75.869506 
L 77.256144 75.051268 
L 89.662993 74.233031 
L 102.069842 73.414793 
L 114.47669 72.596555 
L 126.883539 71.778317 
L 139.290387 70.960079 
L 151.697236 70.141841 
L 164.104085 69.323603 
L 176.510933 68.505365 
L 188.917782 67.687127 
L 201.32463 66.86889 
L 213.731479 66.050652 
L 226.138328 65.232414 
L 238.545176 64.414176 
L 250.952025 63.595938 
L 263.358873 62.7777 
L 275.765722 61.959462 
L 288.172571 61.141224 
" clip-path="url(#p944ec19218)" style="fill: none; stroke-dasharray: 3.7,1.6; stroke-dashoffset: 0; stroke: #800080; stroke-opacity: 0.7"/>
   </g>
   <g id="text_15">
    <!-- Berger-Parker (5) -->
    <g transform="translate(135.72846 13.5125) scale(0.08 -0.08)">
     <defs>
      <path id="RobotoCondensed-Bold-42" d="M 3294 1341 
Q 3294 675 2942 339 
Q 2591 3 1884 0 
L 366 0 
L 366 4550 
L 1772 4550 
Q 2453 4550 2839 4245 
Q 3225 3941 3225 3303 
Q 3225 2994 3089 2734 
Q 2953 2475 2653 2344 
Q 3003 2244 3148 1956 
Q 3294 1669 3294 1341 
z
M 1288 3784 
L 1288 2647 
L 1763 2647 
Q 2303 2647 2303 3206 
Q 2303 3772 1794 3784 
L 1288 3784 
z
M 2375 1350 
Q 2375 1963 1941 1981 
L 1288 1981 
L 1288 763 
L 1872 763 
Q 2141 763 2258 930 
Q 2375 1097 2375 1350 
z
" transform="scale(0.015625)"/>
      <path id="RobotoCondensed-Bold-65" d="M 2834 444 
Q 2700 263 2411 100 
Q 2122 -63 1688 -63 
Q 997 -63 620 350 
Q 244 763 244 1497 
L 244 1775 
Q 244 2597 601 3020 
Q 959 3444 1596 3444 
Q 2234 3444 2556 3041 
Q 2878 2638 2884 1831 
L 2884 1397 
L 1131 1397 
Q 1147 994 1305 833 
Q 1463 672 1747 672 
Q 2194 672 2484 978 
L 2834 444 
z
M 1594 2709 
Q 1363 2709 1258 2545 
Q 1153 2381 1134 2016 
L 2019 2016 
L 2019 2094 
Q 2013 2400 1919 2554 
Q 1825 2709 1594 2709 
z
" transform="scale(0.015625)"/>
      <path id="RobotoCondensed-Bold-72" d="M 1700 2553 
Q 1331 2553 1206 2238 
L 1206 0 
L 322 0 
L 322 3381 
L 1156 3381 
L 1181 3016 
Q 1394 3444 1759 3444 
Q 1903 3444 2000 3406 
L 1991 2528 
Q 1834 2553 1700 2553 
z
" transform="scale(0.015625)"/>
      <path id="RobotoCondensed-Bold-67" d="M 1494 -1331 
Q 1259 -1331 945 -1232 
Q 631 -1134 453 -941 
L 750 -328 
Q 872 -450 1067 -536 
Q 1263 -622 1456 -622 
Q 1725 -622 1869 -489 
Q 2013 -356 2013 -3 
L 2013 269 
Q 1756 -63 1353 -63 
Q 819 -63 517 357 
Q 216 778 216 1572 
L 216 1794 
Q 216 2625 517 3034 
Q 819 3444 1359 3444 
Q 1819 3444 2066 3084 
L 2100 3381 
L 2900 3381 
L 2900 0 
Q 2900 -697 2512 -1014 
Q 2125 -1331 1494 -1331 
z
M 1100 1572 
Q 1100 678 1609 678 
Q 1881 678 2013 875 
L 2013 2494 
Q 1878 2706 1615 2706 
Q 1353 2706 1226 2490 
Q 1100 2275 1100 1794 
L 1100 1572 
z
" transform="scale(0.015625)"/>
      <path id="RobotoCondensed-Bold-2d" d="M 1913 2319 
L 1913 1584 
L 384 1584 
L 384 2319 
L 1913 2319 
z
" transform="scale(0.015625)"/>
      <path id="RobotoCondensed-Bold-50" d="M 1288 1600 
L 1288 0 
L 366 0 
L 366 4550 
L 1919 4550 
Q 2606 4550 3001 4123 
Q 3397 3697 3397 3044 
Q 3397 2384 3005 1993 
Q 2613 1603 1928 1600 
L 1288 1600 
z
M 1288 3784 
L 1288 2366 
L 1919 2366 
Q 2206 2366 2336 2555 
Q 2466 2744 2466 3037 
Q 2466 3331 2336 3557 
Q 2206 3784 1919 3784 
L 1288 3784 
z
" transform="scale(0.015625)"/>
      <path id="RobotoCondensed-Bold-61" d="M 1928 0 
Q 1881 106 1853 263 
Q 1613 -63 1209 -63 
Q 800 -63 514 212 
Q 228 488 228 947 
Q 228 1463 559 1764 
Q 891 2066 1572 2066 
L 1809 2066 
L 1809 2338 
Q 1809 2753 1503 2753 
Q 1172 2753 1172 2366 
L 288 2366 
Q 288 2809 623 3126 
Q 959 3444 1528 3444 
Q 2031 3444 2364 3181 
Q 2697 2919 2697 2325 
L 2697 738 
Q 2703 288 2819 53 
L 2819 0 
L 1928 0 
z
M 1409 634 
Q 1553 634 1656 693 
Q 1759 753 1809 834 
L 1809 1538 
L 1600 1538 
Q 1350 1538 1231 1384 
Q 1113 1231 1113 1009 
Q 1113 634 1409 634 
z
" transform="scale(0.015625)"/>
      <path id="RobotoCondensed-Bold-6b" d="M 2063 0 
L 1447 1309 
L 1206 1041 
L 1206 0 
L 322 0 
L 322 4803 
L 1206 4803 
L 1206 2209 
L 1316 2369 
L 1931 3381 
L 2984 3381 
L 2003 1991 
L 3075 0 
L 2063 0 
z
" transform="scale(0.015625)"/>
      <path id="RobotoCondensed-Bold-20" transform="scale(0.015625)"/>
      <path id="RobotoCondensed-Bold-28" d="M 378 1850 
Q 378 2731 592 3390 
Q 806 4050 1118 4472 
Q 1431 4894 1728 5050 
L 1894 4559 
Q 1619 4300 1372 3661 
Q 1125 3022 1119 1919 
L 1119 1772 
Q 1119 628 1367 -23 
Q 1616 -675 1894 -941 
L 1728 -1422 
Q 1431 -1266 1118 -845 
Q 806 -425 592 236 
Q 378 897 378 1850 
z
" transform="scale(0.015625)"/>
      <path id="RobotoCondensed-Bold-35" d="M 1091 2059 
L 388 2238 
L 616 4550 
L 2816 4550 
L 2816 3794 
L 1341 3794 
L 1256 2822 
Q 1500 2991 1784 2991 
Q 2350 2991 2654 2587 
Q 2959 2184 2959 1463 
Q 2959 856 2629 396 
Q 2300 -63 1625 -63 
Q 1122 -63 712 287 
Q 303 638 297 1269 
L 1172 1269 
Q 1216 672 1622 672 
Q 1872 672 1973 917 
Q 2075 1163 2075 1516 
Q 2075 1872 1945 2090 
Q 1816 2309 1538 2309 
Q 1347 2309 1250 2229 
Q 1153 2150 1091 2059 
z
" transform="scale(0.015625)"/>
      <path id="RobotoCondensed-Bold-29" d="M 1741 1778 
Q 1741 931 1520 265 
Q 1300 -400 975 -833 
Q 650 -1266 341 -1422 
L 175 -941 
Q 447 -681 695 -37 
Q 944 606 950 1709 
L 950 1856 
Q 950 3000 695 3653 
Q 441 4306 175 4569 
L 341 5050 
Q 650 4894 975 4459 
Q 1300 4025 1520 3364 
Q 1741 2703 1741 1778 
z
" transform="scale(0.015625)"/>
     </defs>
     <use xlink:href="#RobotoCondensed-Bold-42"/>
     <use xlink:href="#RobotoCondensed-Bold-65" transform="translate(56.152344 0)"/>
     <use xlink:href="#RobotoCondensed-Bold-72" transform="translate(104.052734 0)"/>
     <use xlink:href="#RobotoCondensed-Bold-67" transform="translate(137.207031 0)"/>
     <use xlink:href="#RobotoCondensed-Bold-65" transform="translate(187.548828 0)"/>
     <use xlink:href="#RobotoCondensed-Bold-72" transform="translate(235.449219 0)"/>
     <use xlink:href="#RobotoCondensed-Bold-2d" transform="translate(268.603516 0)"/>
     <use xlink:href="#RobotoCondensed-Bold-50" transform="translate(304.931641 0)"/>
     <use xlink:href="#RobotoCondensed-Bold-61" transform="translate(361.816406 0)"/>
     <use xlink:href="#RobotoCondensed-Bold-72" transform="translate(408.935547 0)"/>
     <use xlink:href="#RobotoCondensed-Bold-6b" transform="translate(442.089844 0)"/>
     <use xlink:href="#RobotoCondensed-Bold-65" transform="translate(489.941406 0)"/>
     <use xlink:href="#RobotoCondensed-Bold-72" transform="translate(537.841797 0)"/>
     <use xlink:href="#RobotoCondensed-Bold-20" transform="translate(570.996094 0)"/>
     <use xlink:href="#RobotoCondensed-Bold-28" transform="translate(594.042969 0)"/>
     <use xlink:href="#RobotoCondensed-Bold-35" transform="translate(626.367188 0)"/>
     <use xlink:href="#RobotoCondensed-Bold-29" transform="translate(676.953125 0)"/>
    </g>
   </g>
   <g id="PathCollection_1">
    <defs>
     <path id="m99e98b121e" d="M 0 3 
C 0.795609 3 1.55874 2.683901 2.12132 2.12132 
C 2.683901 1.55874 3 0.795609 3 0 
C 3 -0.795609 2.683901 -1.55874 2.12132 -2.12132 
C 1.55874 -2.683901 0.795609 -3 0 -3 
C -0.795609 -3 -1.55874 -2.683901 -2.12132 -2.12132 
C -2.683901 -1.55874 -3 -0.795609 -3 0 
C -3 0.795609 -2.683901 1.55874 -2.12132 2.12132 
C -1.55874 2.683901 -0.795609 3 0 3 
z
" style="stroke: #ffa500"/>
    </defs>
    <g clip-path="url(#p944ec19218)">
     <use xlink:href="#m99e98b121e" x="40.035599" y="161.376115" style="fill: #ffa500; stroke: #ffa500"/>
     <use xlink:href="#m99e98b121e" x="52.442447" y="141.695561" style="fill: #ffa500; stroke: #ffa500"/>
     <use xlink:href="#m99e98b121e" x="64.849296" y="188.683011" style="fill: #ffa500; stroke: #ffa500"/>
     <use xlink:href="#m99e98b121e" x="77.256144" y="158.35699" style="fill: #ffa500; stroke: #ffa500"/>
     <use xlink:href="#m99e98b121e" x="89.662993" y="183.441878" style="fill: #ffa500; stroke: #ffa500"/>
     <use xlink:href="#m99e98b121e" x="102.069842" y="144.990909" style="fill: #ffa500; stroke: #ffa500"/>
     <use xlink:href="#m99e98b121e" x="114.47669" y="140.102676" style="fill: #ffa500; stroke: #ffa500"/>
     <use xlink:href="#m99e98b121e" x="126.883539" y="173.700118" style="fill: #ffa500; stroke: #ffa500"/>
     <use xlink:href="#m99e98b121e" x="139.290387" y="154.78676" style="fill: #ffa500; stroke: #ffa500"/>
     <use xlink:href="#m99e98b121e" x="151.697236" y="183.271791" style="fill: #ffa500; stroke: #ffa500"/>
     <use xlink:href="#m99e98b121e" x="164.104085" y="164.17934" style="fill: #ffa500; stroke: #ffa500"/>
     <use xlink:href="#m99e98b121e" x="176.510933" y="181.132529" style="fill: #ffa500; stroke: #ffa500"/>
     <use xlink:href="#m99e98b121e" x="188.917782" y="145.20884" style="fill: #ffa500; stroke: #ffa500"/>
     <use xlink:href="#m99e98b121e" x="201.32463" y="178.626947" style="fill: #ffa500; stroke: #ffa500"/>
     <use xlink:href="#m99e98b121e" x="213.731479" y="117.483822" style="fill: #ffa500; stroke: #ffa500"/>
     <use xlink:href="#m99e98b121e" x="226.138328" y="130.637884" style="fill: #ffa500; stroke: #ffa500"/>
     <use xlink:href="#m99e98b121e" x="238.545176" y="112.238042" style="fill: #ffa500; stroke: #ffa500"/>
     <use xlink:href="#m99e98b121e" x="250.952025" y="77.507088" style="fill: #ffa500; stroke: #ffa500"/>
     <use xlink:href="#m99e98b121e" x="263.358873" y="80.248869" style="fill: #ffa500; stroke: #ffa500"/>
     <use xlink:href="#m99e98b121e" x="275.765722" y="108.492462" style="fill: #ffa500; stroke: #ffa500"/>
     <use xlink:href="#m99e98b121e" x="288.172571" y="77.348332" style="fill: #ffa500; stroke: #ffa500"/>
    </g>
   </g>
   <g id="PathCollection_2">
    <defs>
     <path id="m2aa215d594" d="M -3 3 
L 3 3 
L 3 -3 
L -3 -3 
z
" style="stroke: #800080"/>
    </defs>
    <g clip-path="url(#p944ec19218)">
     <use xlink:href="#m2aa215d594" x="40.035599" y="78.52663" style="fill: #800080; stroke: #800080"/>
     <use xlink:href="#m2aa215d594" x="52.442447" y="61.416792" style="fill: #800080; stroke: #800080"/>
     <use xlink:href="#m2aa215d594" x="64.849296" y="69.45901" style="fill: #800080; stroke: #800080"/>
     <use xlink:href="#m2aa215d594" x="77.256144" y="73.858025" style="fill: #800080; stroke: #800080"/>
     <use xlink:href="#m2aa215d594" x="89.662993" y="90.30018" style="fill: #800080; stroke: #800080"/>
     <use xlink:href="#m2aa215d594" x="102.069842" y="75.725734" style="fill: #800080; stroke: #800080"/>
     <use xlink:href="#m2aa215d594" x="114.47669" y="82.662242" style="fill: #800080; stroke: #800080"/>
     <use xlink:href="#m2aa215d594" x="126.883539" y="42.213485" style="fill: #800080; stroke: #800080"/>
     <use xlink:href="#m2aa215d594" x="139.290387" y="82.889652" style="fill: #800080; stroke: #800080"/>
     <use xlink:href="#m2aa215d594" x="151.697236" y="65.163736" style="fill: #800080; stroke: #800080"/>
     <use xlink:href="#m2aa215d594" x="164.104085" y="73.481506" style="fill: #800080; stroke: #800080"/>
     <use xlink:href="#m2aa215d594" x="176.510933" y="95.912968" style="fill: #800080; stroke: #800080"/>
     <use xlink:href="#m2aa215d594" x="188.917782" y="98.584404" style="fill: #800080; stroke: #800080"/>
     <use xlink:href="#m2aa215d594" x="201.32463" y="68.939671" style="fill: #800080; stroke: #800080"/>
     <use xlink:href="#m2aa215d594" x="213.731479" y="60.265996" style="fill: #800080; stroke: #800080"/>
     <use xlink:href="#m2aa215d594" x="226.138328" y="39.774871" style="fill: #800080; stroke: #800080"/>
     <use xlink:href="#m2aa215d594" x="238.545176" y="27.568239" style="fill: #800080; stroke: #800080"/>
     <use xlink:href="#m2aa215d594" x="250.952025" y="92.599422" style="fill: #800080; stroke: #800080"/>
     <use xlink:href="#m2aa215d594" x="263.358873" y="27.817024" style="fill: #800080; stroke: #800080"/>
     <use xlink:href="#m2aa215d594" x="275.765722" y="73.026778" style="fill: #800080; stroke: #800080"/>
     <use xlink:href="#m2aa215d594" x="288.172571" y="75.609303" style="fill: #800080; stroke: #800080"/>
    </g>
   </g>
   <g id="legend_1">
    <g id="patch_3">
     <path d="M 30.62875 41.811875 
L 66.7525 41.811875 
L 66.7525 22.5125 
L 30.62875 22.5125 
z
" style="fill: #ffffff; opacity: 0.8"/>
    </g>
    <g id="line2d_19">
     <path d="M 33.02875 27.3125 
L 40.52875 27.3125 
L 48.02875 27.3125 
" style="fill: none; stroke: #ffa500; stroke-width: 2; stroke-linecap: square"/>
     <g>
      <use xlink:href="#m99e98b121e" x="40.52875" y="27.3125" style="fill: #ffa500; stroke: #ffa500"/>
     </g>
    </g>
    <g id="text_16">
     <!-- Boys -->
     <g transform="translate(52.82875 29.4125) scale(0.06 -0.06)">
      <defs>
       <path id="RobotoCondensed-Regular-42" d="M 3125 1313 
Q 3125 675 2776 337 
Q 2428 0 1847 0 
L 491 0 
L 491 4550 
L 1791 4550 
Q 2375 4550 2706 4261 
Q 3038 3972 3038 3338 
Q 3038 3025 2880 2779 
Q 2722 2534 2453 2400 
Q 2781 2297 2953 1998 
Q 3125 1700 3125 1313 
z
M 1066 4056 
L 1066 2613 
L 1797 2613 
Q 2088 2613 2275 2806 
Q 2463 3000 2463 3344 
Q 2463 4041 1819 4056 
L 1066 4056 
z
M 2550 1306 
Q 2550 2106 1906 2128 
L 1066 2128 
L 1066 491 
L 1847 491 
Q 2181 491 2365 711 
Q 2550 931 2550 1306 
z
" transform="scale(0.015625)"/>
       <path id="RobotoCondensed-Regular-6f" d="M 300 1850 
Q 300 2641 678 3042 
Q 1056 3444 1603 3444 
Q 2156 3444 2536 3042 
Q 2916 2641 2916 1850 
L 2916 1528 
Q 2916 738 2536 337 
Q 2156 -63 1609 -63 
Q 1059 -63 679 337 
Q 300 738 300 1528 
L 300 1850 
z
M 853 1528 
Q 853 969 1068 689 
Q 1284 409 1609 409 
Q 2341 409 2363 1466 
L 2363 1850 
Q 2363 2403 2145 2686 
Q 1928 2969 1603 2969 
Q 1281 2969 1067 2686 
Q 853 2403 853 1850 
L 853 1528 
z
" transform="scale(0.015625)"/>
       <path id="RobotoCondensed-Regular-79" d="M 1425 -522 
Q 1153 -1366 563 -1366 
Q 409 -1366 278 -1316 
L 278 -847 
Q 328 -859 397 -859 
Q 631 -859 770 -746 
Q 909 -634 997 -338 
L 1106 31 
L 109 3381 
L 713 3381 
L 1341 922 
L 1953 3381 
L 2541 3381 
L 1425 -522 
z
" transform="scale(0.015625)"/>
       <path id="RobotoCondensed-Regular-73" d="M 2056 866 
Q 2056 1059 1907 1190 
Q 1759 1322 1340 1500 
Q 922 1678 681 1863 
Q 409 2072 409 2484 
Q 409 2888 703 3166 
Q 997 3444 1481 3444 
Q 2000 3444 2287 3150 
Q 2575 2856 2575 2419 
L 2025 2419 
Q 2025 2628 1884 2798 
Q 1744 2969 1481 2969 
Q 1203 2969 1083 2828 
Q 963 2688 963 2503 
Q 963 2319 1081 2217 
Q 1200 2116 1553 1959 
Q 2066 1756 2337 1537 
Q 2609 1319 2609 909 
Q 2609 463 2303 200 
Q 1997 -63 1494 -63 
Q 919 -63 616 265 
Q 313 594 313 1013 
L 866 1013 
Q 881 653 1081 533 
Q 1281 413 1494 413 
Q 2056 413 2056 866 
z
" transform="scale(0.015625)"/>
      </defs>
      <use xlink:href="#RobotoCondensed-Regular-42"/>
      <use xlink:href="#RobotoCondensed-Regular-6f" transform="translate(54.589844 0)"/>
      <use xlink:href="#RobotoCondensed-Regular-79" transform="translate(104.785156 0)"/>
      <use xlink:href="#RobotoCondensed-Regular-73" transform="translate(146.435547 0)"/>
     </g>
    </g>
    <g id="line2d_20">
     <path d="M 33.02875 36.093125 
L 40.52875 36.093125 
L 48.02875 36.093125 
" style="fill: none; stroke: #800080; stroke-width: 2; stroke-linecap: square"/>
     <defs>
      <path id="m4f3c4a2419" d="M -3 3 
L 3 3 
L 3 -3 
L -3 -3 
z
" style="stroke: #800080; stroke-linejoin: miter"/>
     </defs>
     <g>
      <use xlink:href="#m4f3c4a2419" x="40.52875" y="36.093125" style="fill: #800080; stroke: #800080; stroke-linejoin: miter"/>
     </g>
    </g>
    <g id="text_17">
     <!-- Girls -->
     <g transform="translate(52.82875 38.193125) scale(0.06 -0.06)">
      <defs>
       <path id="RobotoCondensed-Regular-47" d="M 3341 2266 
L 3341 569 
Q 3266 469 3114 319 
Q 2963 169 2691 53 
Q 2419 -63 1978 -63 
Q 1272 -63 830 412 
Q 388 888 388 1850 
L 388 2703 
Q 388 3656 770 4134 
Q 1153 4613 1919 4613 
Q 2581 4613 2943 4244 
Q 3306 3875 3341 3219 
L 2766 3219 
Q 2731 3641 2529 3880 
Q 2328 4119 1919 4119 
Q 1400 4119 1183 3773 
Q 966 3428 963 2731 
L 963 1850 
Q 963 1125 1239 776 
Q 1516 428 1981 428 
Q 2378 428 2537 547 
Q 2697 666 2769 728 
L 2769 1778 
L 1934 1778 
L 1934 2266 
L 3341 2266 
z
" transform="scale(0.015625)"/>
       <path id="RobotoCondensed-Regular-69" d="M 428 4278 
Q 428 4419 506 4516 
Q 584 4613 741 4613 
Q 894 4613 975 4516 
Q 1056 4419 1056 4278 
Q 1056 4144 975 4048 
Q 894 3953 741 3953 
Q 584 3953 506 4048 
Q 428 4144 428 4278 
z
M 1009 3381 
L 1009 0 
L 459 0 
L 459 3381 
L 1009 3381 
z
" transform="scale(0.015625)"/>
       <path id="RobotoCondensed-Regular-72" d="M 1563 2888 
Q 1138 2888 969 2425 
L 969 0 
L 416 0 
L 416 3381 
L 950 3381 
L 963 3041 
Q 1184 3444 1591 3444 
Q 1738 3444 1809 3400 
L 1813 2863 
Q 1691 2888 1563 2888 
z
" transform="scale(0.015625)"/>
       <path id="RobotoCondensed-Regular-6c" d="M 1009 4800 
L 1009 0 
L 459 0 
L 459 4800 
L 1009 4800 
z
" transform="scale(0.015625)"/>
      </defs>
      <use xlink:href="#RobotoCondensed-Regular-47"/>
      <use xlink:href="#RobotoCondensed-Regular-69" transform="translate(59.082031 0)"/>
      <use xlink:href="#RobotoCondensed-Regular-72" transform="translate(82.03125 0)"/>
      <use xlink:href="#RobotoCondensed-Regular-6c" transform="translate(112.5 0)"/>
      <use xlink:href="#RobotoCondensed-Regular-73" transform="translate(135.449219 0)"/>
     </g>
    </g>
   </g>
  </g>
 </g>
 <defs>
  <clipPath id="p944ec19218">
   <rect x="27.62875" y="19.5125" width="272.950669" height="177.22625"/>
  </clipPath>
 </defs>
</svg>
