<?xml version="1.0" encoding="utf-8" standalone="no"?>
<!DOCTYPE svg PUBLIC "-//W3C//DTD SVG 1.1//EN"
  "http://www.w3.org/Graphics/SVG/1.1/DTD/svg11.dtd">
<svg xmlns:xlink="http://www.w3.org/1999/xlink" width="313.702544pt" height="216.6575pt" viewBox="0 0 313.702544 216.6575" xmlns="http://www.w3.org/2000/svg" version="1.1">
 <metadata>
  <rdf:RDF xmlns:dc="http://purl.org/dc/elements/1.1/" xmlns:cc="http://creativecommons.org/ns#" xmlns:rdf="http://www.w3.org/1999/02/22-rdf-syntax-ns#">
   <cc:Work>
    <dc:type rdf:resource="http://purl.org/dc/dcmitype/StillImage"/>
    <dc:date>2026-04-28T10:25:37.135720</dc:date>
    <dc:format>image/svg+xml</dc:format>
    <dc:creator>
     <cc:Agent>
      <dc:title>Matplotlib v3.10.7, https://matplotlib.org/</dc:title>
     </cc:Agent>
    </dc:creator>
   </cc:Work>
  </rdf:RDF>
 </metadata>
 <defs>
  <style type="text/css">*{stroke-linejoin: round; stroke-linecap: butt}</style>
 </defs>
 <g id="figure_1">
  <g id="patch_1">
   <path d="M 0 216.6575 
L 313.702544 216.6575 
L 313.702544 -0 
L 0 -0 
z
" style="fill: #ffffff"/>
  </g>
  <g id="axes_1">
   <g id="patch_2">
    <path d="M 27.62875 196.73875 
L 300.579419 196.73875 
L 300.579419 19.5125 
L 27.62875 19.5125 
z
" style="fill: #ffffff"/>
   </g>
   <g id="matplotlib.axis_1">
    <g id="xtick_1">
     <g id="line2d_1">
      <defs>
       <path id="mda9dfe4859" d="M 0 0 
L 0 3.5 
" style="stroke: #000000; stroke-width: 0.8"/>
      </defs>
      <g>
       <use xlink:href="#mda9dfe4859" x="40.035599" y="196.73875" style="stroke: #000000; stroke-width: 0.8"/>
      </g>
     </g>
     <g id="text_1">
      <!-- 2004 -->
      <g transform="translate(34.112474 208.23875) scale(0.06 -0.06)">
       <defs>
        <path id="RobotoCondensed-Regular-32" d="M 2909 475 
L 2909 0 
L 366 0 
L 366 416 
L 1628 2088 
Q 1966 2541 2077 2802 
Q 2188 3063 2188 3328 
Q 2188 3663 2027 3900 
Q 1866 4138 1575 4138 
Q 1194 4138 1022 3878 
Q 850 3619 850 3213 
L 297 3213 
Q 297 3788 617 4200 
Q 938 4613 1575 4613 
Q 2125 4613 2433 4278 
Q 2741 3944 2741 3397 
Q 2741 2997 2541 2594 
Q 2341 2191 2047 1809 
L 1028 475 
L 2909 475 
z
" transform="scale(0.015625)"/>
        <path id="RobotoCondensed-Regular-30" d="M 2797 1944 
Q 2797 825 2467 381 
Q 2138 -63 1581 -63 
Q 1038 -63 703 370 
Q 369 803 359 1878 
L 359 2638 
Q 359 3753 695 4183 
Q 1031 4613 1578 4613 
Q 2131 4613 2461 4189 
Q 2791 3766 2797 2681 
L 2797 1944 
z
M 2247 2734 
Q 2247 3503 2073 3822 
Q 1900 4141 1578 4141 
Q 1266 4141 1092 3833 
Q 919 3525 913 2791 
L 913 1850 
Q 913 1088 1089 750 
Q 1266 413 1581 413 
Q 1903 413 2072 738 
Q 2241 1063 2247 1794 
L 2247 2734 
z
" transform="scale(0.015625)"/>
        <path id="RobotoCondensed-Regular-34" d="M 188 1397 
L 1878 4550 
L 2463 4550 
L 2463 1531 
L 2969 1531 
L 2969 1056 
L 2463 1056 
L 2463 0 
L 1909 0 
L 1909 1056 
L 188 1056 
L 188 1397 
z
M 803 1531 
L 1909 1531 
L 1909 3703 
L 1878 3638 
L 803 1531 
z
" transform="scale(0.015625)"/>
       </defs>
       <use xlink:href="#RobotoCondensed-Regular-32"/>
       <use xlink:href="#RobotoCondensed-Regular-30" transform="translate(49.365234 0)"/>
       <use xlink:href="#RobotoCondensed-Regular-30" transform="translate(98.730469 0)"/>
       <use xlink:href="#RobotoCondensed-Regular-34" transform="translate(148.095703 0)"/>
      </g>
     </g>
    </g>
    <g id="xtick_2">
     <g id="line2d_2">
      <g>
       <use xlink:href="#mda9dfe4859" x="77.256144" y="196.73875" style="stroke: #000000; stroke-width: 0.8"/>
      </g>
     </g>
     <g id="text_2">
      <!-- 2007 -->
      <g transform="translate(71.333019 208.23875) scale(0.06 -0.06)">
       <defs>
        <path id="RobotoCondensed-Regular-37" d="M 2878 4550 
L 2878 4225 
L 1313 0 
L 731 0 
L 2297 4075 
L 269 4075 
L 269 4550 
L 2878 4550 
z
" transform="scale(0.015625)"/>
       </defs>
       <use xlink:href="#RobotoCondensed-Regular-32"/>
       <use xlink:href="#RobotoCondensed-Regular-30" transform="translate(49.365234 0)"/>
       <use xlink:href="#RobotoCondensed-Regular-30" transform="translate(98.730469 0)"/>
       <use xlink:href="#RobotoCondensed-Regular-37" transform="translate(148.095703 0)"/>
      </g>
     </g>
    </g>
    <g id="xtick_3">
     <g id="line2d_3">
      <g>
       <use xlink:href="#mda9dfe4859" x="114.47669" y="196.73875" style="stroke: #000000; stroke-width: 0.8"/>
      </g>
     </g>
     <g id="text_3">
      <!-- 2010 -->
      <g transform="translate(108.553565 208.23875) scale(0.06 -0.06)">
       <defs>
        <path id="RobotoCondensed-Regular-31" d="M 2013 4575 
L 2013 0 
L 1459 0 
L 1459 3853 
L 503 3428 
L 503 3950 
L 1928 4575 
L 2013 4575 
z
" transform="scale(0.015625)"/>
       </defs>
       <use xlink:href="#RobotoCondensed-Regular-32"/>
       <use xlink:href="#RobotoCondensed-Regular-30" transform="translate(49.365234 0)"/>
       <use xlink:href="#RobotoCondensed-Regular-31" transform="translate(98.730469 0)"/>
       <use xlink:href="#RobotoCondensed-Regular-30" transform="translate(148.095703 0)"/>
      </g>
     </g>
    </g>
    <g id="xtick_4">
     <g id="line2d_4">
      <g>
       <use xlink:href="#mda9dfe4859" x="151.697236" y="196.73875" style="stroke: #000000; stroke-width: 0.8"/>
      </g>
     </g>
     <g id="text_4">
      <!-- 2013 -->
      <g transform="translate(145.774111 208.23875) scale(0.06 -0.06)">
       <defs>
        <path id="RobotoCondensed-Regular-33" d="M 1075 2084 
L 1075 2559 
L 1431 2559 
Q 1788 2559 1961 2781 
Q 2134 3003 2134 3338 
Q 2134 4138 1519 4138 
Q 1228 4138 1054 3927 
Q 881 3716 881 3359 
L 331 3359 
Q 331 3881 653 4247 
Q 975 4613 1519 4613 
Q 2038 4613 2363 4286 
Q 2688 3959 2688 3325 
Q 2688 3072 2550 2786 
Q 2413 2500 2100 2338 
Q 2484 2194 2612 1886 
Q 2741 1578 2741 1269 
Q 2741 631 2389 284 
Q 2038 -63 1516 -63 
Q 1006 -63 656 267 
Q 306 597 306 1203 
L 859 1203 
Q 859 844 1032 628 
Q 1206 413 1516 413 
Q 1822 413 2005 622 
Q 2188 831 2188 1256 
Q 2188 2084 1403 2084 
L 1075 2084 
z
" transform="scale(0.015625)"/>
       </defs>
       <use xlink:href="#RobotoCondensed-Regular-32"/>
       <use xlink:href="#RobotoCondensed-Regular-30" transform="translate(49.365234 0)"/>
       <use xlink:href="#RobotoCondensed-Regular-31" transform="translate(98.730469 0)"/>
       <use xlink:href="#RobotoCondensed-Regular-33" transform="translate(148.095703 0)"/>
      </g>
     </g>
    </g>
    <g id="xtick_5">
     <g id="line2d_5">
      <g>
       <use xlink:href="#mda9dfe4859" x="188.917782" y="196.73875" style="stroke: #000000; stroke-width: 0.8"/>
      </g>
     </g>
     <g id="text_5">
      <!-- 2016 -->
      <g transform="translate(182.994657 208.23875) scale(0.06 -0.06)">
       <defs>
        <path id="RobotoCondensed-Regular-36" d="M 2847 1484 
Q 2847 838 2544 387 
Q 2241 -63 1641 -63 
Q 1216 -63 944 198 
Q 672 459 542 861 
Q 413 1263 413 1684 
L 413 1956 
Q 413 2438 481 2900 
Q 550 3363 742 3738 
Q 934 4113 1296 4334 
Q 1659 4556 2291 4556 
L 2291 4066 
Q 1775 4066 1508 3859 
Q 1241 3653 1122 3318 
Q 1003 2984 978 2606 
Q 1272 2984 1750 2984 
Q 2138 2984 2380 2765 
Q 2622 2547 2734 2201 
Q 2847 1856 2847 1484 
z
M 969 1666 
Q 969 1059 1180 737 
Q 1391 416 1641 416 
Q 1959 416 2129 708 
Q 2300 1000 2300 1456 
Q 2300 1863 2144 2184 
Q 1988 2506 1659 2506 
Q 1425 2506 1236 2329 
Q 1047 2153 969 1900 
L 969 1666 
z
" transform="scale(0.015625)"/>
       </defs>
       <use xlink:href="#RobotoCondensed-Regular-32"/>
       <use xlink:href="#RobotoCondensed-Regular-30" transform="translate(49.365234 0)"/>
       <use xlink:href="#RobotoCondensed-Regular-31" transform="translate(98.730469 0)"/>
       <use xlink:href="#RobotoCondensed-Regular-36" transform="translate(148.095703 0)"/>
      </g>
     </g>
    </g>
    <g id="xtick_6">
     <g id="line2d_6">
      <g>
       <use xlink:href="#mda9dfe4859" x="226.138328" y="196.73875" style="stroke: #000000; stroke-width: 0.8"/>
      </g>
     </g>
     <g id="text_6">
      <!-- 2019 -->
      <g transform="translate(220.215203 208.23875) scale(0.06 -0.06)">
       <defs>
        <path id="RobotoCondensed-Regular-39" d="M 2744 2563 
Q 2744 2119 2687 1667 
Q 2631 1216 2450 836 
Q 2269 456 1903 225 
Q 1538 -6 869 -6 
L 866 484 
Q 1428 484 1698 690 
Q 1969 897 2072 1233 
Q 2175 1569 2191 1950 
Q 1859 1522 1413 1522 
Q 1025 1522 786 1747 
Q 547 1972 436 2320 
Q 325 2669 325 3041 
Q 325 3691 623 4152 
Q 922 4613 1522 4613 
Q 1969 4613 2237 4344 
Q 2506 4075 2625 3653 
Q 2744 3231 2744 2772 
L 2744 2563 
z
M 866 3072 
Q 866 2666 1020 2334 
Q 1175 2003 1506 2003 
Q 1716 2003 1906 2179 
Q 2097 2356 2194 2616 
L 2194 2850 
Q 2194 3472 1983 3803 
Q 1772 4134 1522 4134 
Q 1206 4134 1036 3829 
Q 866 3525 866 3072 
z
" transform="scale(0.015625)"/>
       </defs>
       <use xlink:href="#RobotoCondensed-Regular-32"/>
       <use xlink:href="#RobotoCondensed-Regular-30" transform="translate(49.365234 0)"/>
       <use xlink:href="#RobotoCondensed-Regular-31" transform="translate(98.730469 0)"/>
       <use xlink:href="#RobotoCondensed-Regular-39" transform="translate(148.095703 0)"/>
      </g>
     </g>
    </g>
    <g id="xtick_7">
     <g id="line2d_7">
      <g>
       <use xlink:href="#mda9dfe4859" x="263.358873" y="196.73875" style="stroke: #000000; stroke-width: 0.8"/>
      </g>
     </g>
     <g id="text_7">
      <!-- 2022 -->
      <g transform="translate(257.435748 208.23875) scale(0.06 -0.06)">
       <use xlink:href="#RobotoCondensed-Regular-32"/>
       <use xlink:href="#RobotoCondensed-Regular-30" transform="translate(49.365234 0)"/>
       <use xlink:href="#RobotoCondensed-Regular-32" transform="translate(98.730469 0)"/>
       <use xlink:href="#RobotoCondensed-Regular-32" transform="translate(148.095703 0)"/>
      </g>
     </g>
    </g>
    <g id="xtick_8">
     <g id="line2d_8">
      <g>
       <use xlink:href="#mda9dfe4859" x="300.579419" y="196.73875" style="stroke: #000000; stroke-width: 0.8"/>
      </g>
     </g>
     <g id="text_8">
      <!-- 2025 -->
      <g transform="translate(294.656294 208.23875) scale(0.06 -0.06)">
       <defs>
        <path id="RobotoCondensed-Regular-35" d="M 1034 2166 
L 594 2284 
L 788 4550 
L 2769 4550 
L 2769 4016 
L 1253 4016 
L 1147 2778 
Q 1438 2975 1753 2975 
Q 2288 2975 2591 2561 
Q 2894 2147 2894 1450 
Q 2894 797 2584 367 
Q 2275 -63 1656 -63 
Q 1194 -63 850 248 
Q 506 559 453 1197 
L 975 1197 
Q 1066 413 1656 413 
Q 1978 413 2159 691 
Q 2341 969 2341 1444 
Q 2341 1872 2153 2164 
Q 1966 2456 1619 2456 
Q 1384 2456 1273 2378 
Q 1163 2300 1034 2166 
z
" transform="scale(0.015625)"/>
       </defs>
       <use xlink:href="#RobotoCondensed-Regular-32"/>
       <use xlink:href="#RobotoCondensed-Regular-30" transform="translate(49.365234 0)"/>
       <use xlink:href="#RobotoCondensed-Regular-32" transform="translate(98.730469 0)"/>
       <use xlink:href="#RobotoCondensed-Regular-35" transform="translate(148.095703 0)"/>
      </g>
     </g>
    </g>
   </g>
   <g id="matplotlib.axis_2">
    <g id="ytick_1">
     <g id="line2d_9">
      <defs>
       <path id="mb900368042" d="M 0 0 
L -3.5 0 
" style="stroke: #000000; stroke-width: 0.8"/>
      </defs>
      <g>
       <use xlink:href="#mb900368042" x="27.62875" y="191.859526" style="stroke: #000000; stroke-width: 0.8"/>
      </g>
     </g>
     <g id="text_9">
      <!-- 0.940 -->
      <g transform="translate(7.2 194.109526) scale(0.06 -0.06)">
       <defs>
        <path id="RobotoCondensed-Regular-2e" d="M 450 306 
Q 450 453 542 554 
Q 634 656 809 656 
Q 984 656 1076 554 
Q 1169 453 1169 306 
Q 1169 163 1076 62 
Q 984 -38 809 -38 
Q 634 -38 542 62 
Q 450 163 450 306 
z
" transform="scale(0.015625)"/>
       </defs>
       <use xlink:href="#RobotoCondensed-Regular-30"/>
       <use xlink:href="#RobotoCondensed-Regular-2e" transform="translate(49.365234 0)"/>
       <use xlink:href="#RobotoCondensed-Regular-39" transform="translate(75.732422 0)"/>
       <use xlink:href="#RobotoCondensed-Regular-34" transform="translate(125.097656 0)"/>
       <use xlink:href="#RobotoCondensed-Regular-30" transform="translate(174.462891 0)"/>
      </g>
     </g>
    </g>
    <g id="ytick_2">
     <g id="line2d_10">
      <g>
       <use xlink:href="#mb900368042" x="27.62875" y="154.190203" style="stroke: #000000; stroke-width: 0.8"/>
      </g>
     </g>
     <g id="text_10">
      <!-- 0.945 -->
      <g transform="translate(7.2 156.440203) scale(0.06 -0.06)">
       <use xlink:href="#RobotoCondensed-Regular-30"/>
       <use xlink:href="#RobotoCondensed-Regular-2e" transform="translate(49.365234 0)"/>
       <use xlink:href="#RobotoCondensed-Regular-39" transform="translate(75.732422 0)"/>
       <use xlink:href="#RobotoCondensed-Regular-34" transform="translate(125.097656 0)"/>
       <use xlink:href="#RobotoCondensed-Regular-35" transform="translate(174.462891 0)"/>
      </g>
     </g>
    </g>
    <g id="ytick_3">
     <g id="line2d_11">
      <g>
       <use xlink:href="#mb900368042" x="27.62875" y="116.52088" style="stroke: #000000; stroke-width: 0.8"/>
      </g>
     </g>
     <g id="text_11">
      <!-- 0.950 -->
      <g transform="translate(7.2 118.77088) scale(0.06 -0.06)">
       <use xlink:href="#RobotoCondensed-Regular-30"/>
       <use xlink:href="#RobotoCondensed-Regular-2e" transform="translate(49.365234 0)"/>
       <use xlink:href="#RobotoCondensed-Regular-39" transform="translate(75.732422 0)"/>
       <use xlink:href="#RobotoCondensed-Regular-35" transform="translate(125.097656 0)"/>
       <use xlink:href="#RobotoCondensed-Regular-30" transform="translate(174.462891 0)"/>
      </g>
     </g>
    </g>
    <g id="ytick_4">
     <g id="line2d_12">
      <g>
       <use xlink:href="#mb900368042" x="27.62875" y="78.851557" style="stroke: #000000; stroke-width: 0.8"/>
      </g>
     </g>
     <g id="text_12">
      <!-- 0.955 -->
      <g transform="translate(7.2 81.101557) scale(0.06 -0.06)">
       <use xlink:href="#RobotoCondensed-Regular-30"/>
       <use xlink:href="#RobotoCondensed-Regular-2e" transform="translate(49.365234 0)"/>
       <use xlink:href="#RobotoCondensed-Regular-39" transform="translate(75.732422 0)"/>
       <use xlink:href="#RobotoCondensed-Regular-35" transform="translate(125.097656 0)"/>
       <use xlink:href="#RobotoCondensed-Regular-35" transform="translate(174.462891 0)"/>
      </g>
     </g>
    </g>
    <g id="ytick_5">
     <g id="line2d_13">
      <g>
       <use xlink:href="#mb900368042" x="27.62875" y="41.182234" style="stroke: #000000; stroke-width: 0.8"/>
      </g>
     </g>
     <g id="text_13">
      <!-- 0.960 -->
      <g transform="translate(7.2 43.432234) scale(0.06 -0.06)">
       <use xlink:href="#RobotoCondensed-Regular-30"/>
       <use xlink:href="#RobotoCondensed-Regular-2e" transform="translate(49.365234 0)"/>
       <use xlink:href="#RobotoCondensed-Regular-39" transform="translate(75.732422 0)"/>
       <use xlink:href="#RobotoCondensed-Regular-36" transform="translate(125.097656 0)"/>
       <use xlink:href="#RobotoCondensed-Regular-30" transform="translate(174.462891 0)"/>
      </g>
     </g>
    </g>
   </g>
   <g id="line2d_14">
    <path d="M 40.035599 104.044515 
L 42.525267 103.93168 
L 45.014936 103.600562 
L 47.504604 103.062238 
L 49.994273 102.327786 
L 52.483942 101.406497 
L 53.313831 100.310627 
L 54.143721 97.969575 
L 54.97361 94.580633 
L 55.8035 90.341092 
L 57.463279 80.099383 
L 60.782837 58.08962 
L 61.612727 53.42006 
L 62.442616 49.478236 
L 63.272506 46.46144 
L 64.102395 44.566963 
L 64.932285 43.988174 
L 65.762174 44.405645 
L 66.592064 45.468378 
L 67.421953 47.107211 
L 68.251843 49.252986 
L 69.081732 51.836543 
L 70.741512 58.040361 
L 73.23118 68.900454 
L 75.720849 79.965951 
L 79.040407 93.696132 
L 81.530076 106.532733 
L 84.019744 119.565449 
L 85.679523 127.065918 
L 86.509413 130.167933 
L 87.339302 132.708105 
L 88.169192 134.589164 
L 88.999081 135.713835 
L 89.828971 135.97782 
L 90.65886 135.113388 
L 91.48875 133.139663 
L 92.31864 130.215543 
L 93.148529 126.49993 
L 94.808308 117.329826 
L 98.957756 91.676465 
L 99.787645 87.349322 
L 100.617535 83.660791 
L 101.447424 80.769771 
L 102.277314 78.801697 
L 105.596872 72.407074 
L 107.256651 69.584992 
L 108.91643 67.149164 
L 110.576209 65.201665 
L 111.406099 64.442938 
L 112.235988 63.844572 
L 113.065878 63.419325 
L 113.895768 63.179959 
L 114.725657 63.148178 
L 115.555547 63.458734 
L 116.385436 64.110617 
L 117.215326 65.04855 
L 118.875105 67.561466 
L 123.854442 76.216781 
L 124.684332 77.241773 
L 125.514221 78.000061 
L 126.344111 78.436369 
L 127.174 78.505606 
L 128.00389 78.300712 
L 128.833779 77.884928 
L 129.663669 77.292685 
L 131.323448 75.716545 
L 136.302785 70.333933 
L 137.132675 69.702954 
L 137.962564 69.239827 
L 138.792454 68.978983 
L 139.622343 68.977447 
L 140.452233 69.452699 
L 141.282122 70.415323 
L 142.112012 71.820302 
L 142.941901 73.622617 
L 144.60168 78.23918 
L 146.26146 83.904863 
L 148.751128 93.582658 
L 152.070686 106.909745 
L 152.900576 110.985762 
L 154.560355 121.290924 
L 157.050024 139.676331 
L 159.539692 157.646692 
L 160.369582 162.780756 
L 161.199471 167.213996 
L 162.029361 170.782737 
L 162.85925 173.323301 
L 163.68914 174.672011 
L 164.519029 174.497515 
L 165.348919 171.835054 
L 166.178808 166.877107 
L 167.008698 160.006604 
L 167.838588 151.606477 
L 169.498367 131.749068 
L 171.988035 100.06403 
L 173.647814 82.142241 
L 174.477704 75.29061 
L 175.307593 70.355727 
L 176.137483 67.720524 
L 176.967372 67.32875 
L 180.286931 67.060139 
L 188.585826 66.587144 
L 189.415716 66.330791 
L 190.245605 65.363767 
L 191.075495 63.733063 
L 191.905384 61.552896 
L 193.565163 56.001043 
L 197.714611 40.501007 
L 198.544501 38.036953 
L 199.37439 36.05139 
L 200.20428 34.658535 
L 201.034169 33.972605 
L 201.864059 34.13498 
L 202.693948 35.23818 
L 203.523838 37.155502 
L 204.353727 39.747183 
L 206.013506 46.394568 
L 210.162954 65.030866 
L 210.992844 67.985932 
L 211.822733 70.357486 
L 212.652623 72.005764 
L 213.482512 72.791002 
L 214.312402 72.802682 
L 215.142291 72.640012 
L 216.80207 71.971667 
L 218.461849 70.947137 
L 220.951518 69.008036 
L 224.271076 66.308891 
L 225.930855 65.183726 
L 228.420524 63.894264 
L 235.05964 60.874292 
L 236.719419 59.879714 
L 238.379198 58.665968 
L 239.209088 57.864266 
L 240.038977 56.730773 
L 240.868867 55.310936 
L 242.528646 51.81895 
L 248.337873 38.174028 
L 249.167762 36.733116 
L 249.997652 35.574332 
L 250.827541 34.749356 
L 254.1471 32.543892 
L 256.636768 31.1571 
L 258.296547 30.410657 
L 259.956326 29.839234 
L 261.616105 29.47073 
L 263.275885 29.333048 
L 264.105774 29.814864 
L 264.935664 31.381695 
L 265.765553 33.873525 
L 266.595443 37.124436 
L 268.255222 45.239821 
L 271.57478 63.279112 
L 272.404669 67.197848 
L 273.234559 70.54831 
L 274.064449 73.16458 
L 274.894338 74.880738 
L 275.724228 75.530865 
L 276.554117 75.414154 
L 277.384007 75.027603 
L 278.213896 74.362092 
L 279.043786 73.407278 
L 279.873675 72.15282 
L 280.703565 70.588373 
L 281.533454 68.703596 
L 282.363344 66.488145 
L 284.023123 61.023853 
L 285.682902 54.112753 
L 287.342681 45.672105 
L 288.172571 40.852344 
L 288.172571 40.852344 
" clip-path="url(#p1e96c85b8c)" style="fill: none; stroke-dasharray: 2,3.3; stroke-dashoffset: 0; stroke: #000000; stroke-width: 2"/>
   </g>
   <g id="line2d_15">
    <path d="M 40.035599 101.709527 
L 52.442447 99.092005 
L 64.849296 96.474482 
L 77.256144 93.85696 
L 89.662993 91.239437 
L 102.069842 88.621915 
L 114.47669 86.004392 
L 126.883539 83.38687 
L 139.290387 80.769347 
L 151.697236 78.151825 
L 164.104085 75.534302 
L 176.510933 72.91678 
L 188.917782 70.299257 
L 201.32463 67.681735 
L 213.731479 65.064212 
L 226.138328 62.446689 
L 238.545176 59.829167 
L 250.952025 57.211644 
L 263.358873 54.594122 
L 275.765722 51.976599 
L 288.172571 49.359077 
" clip-path="url(#p1e96c85b8c)" style="fill: none; stroke: #000000; stroke-opacity: 0.7; stroke-linecap: square"/>
   </g>
   <g id="line2d_16">
    <path d="M 40.035599 162.637883 
L 43.355157 136.754407 
L 45.014936 125.231371 
L 46.674715 115.205745 
L 48.334494 107.091237 
L 49.164384 103.879935 
L 49.994273 101.301553 
L 50.824163 99.407804 
L 51.654052 98.250401 
L 52.483942 97.88011 
L 54.143721 98.044394 
L 55.8035 98.503603 
L 57.463279 99.231396 
L 59.123058 100.201429 
L 60.782837 101.38736 
L 63.272506 103.513441 
L 64.932285 105.129113 
L 65.762174 106.581729 
L 66.592064 108.951795 
L 67.421953 112.086632 
L 69.081732 120.039912 
L 73.23118 142.619218 
L 74.06107 146.375852 
L 74.890959 149.523164 
L 75.720849 151.908476 
L 76.550738 153.379112 
L 77.380628 153.793019 
L 78.210517 153.627739 
L 79.040407 153.221823 
L 79.870296 152.5932 
L 80.700186 151.759797 
L 82.359965 149.550362 
L 84.019744 146.736942 
L 85.679523 143.462957 
L 88.169192 138.002159 
L 89.828971 134.18507 
L 90.65886 131.652427 
L 91.48875 128.334239 
L 93.148529 119.923084 
L 98.127866 90.964807 
L 98.957756 87.122598 
L 99.787645 83.949486 
L 100.617535 81.590934 
L 101.447424 80.192405 
L 102.277314 79.881177 
L 103.107204 80.341966 
L 103.937093 81.345672 
L 104.766983 82.805079 
L 105.596872 84.632973 
L 107.256651 89.045355 
L 110.576209 98.454463 
L 111.406099 100.419721 
L 112.235988 102.05574 
L 113.065878 103.275305 
L 113.895768 103.991199 
L 114.725657 104.124416 
L 115.555547 103.760066 
L 116.385436 102.995267 
L 117.215326 101.894869 
L 118.875105 98.946675 
L 123.854442 88.792119 
L 124.684332 87.589582 
L 125.514221 86.699946 
L 126.344111 86.188063 
L 127.174 86.115209 
L 128.00389 86.472579 
L 128.833779 87.21714 
L 129.663669 88.310943 
L 130.493558 89.716037 
L 132.153337 93.308296 
L 133.813116 97.690313 
L 136.302785 105.080005 
L 141.282122 120.23998 
L 142.941901 126.367679 
L 147.091349 143.135031 
L 149.581018 152.676964 
L 151.240797 158.192444 
L 153.730465 165.70657 
L 157.879913 178.49855 
L 159.539692 182.794539 
L 160.369582 184.60341 
L 161.199471 186.131785 
L 162.029361 187.338855 
L 162.85925 188.183812 
L 163.68914 188.625844 
L 164.519029 188.463648 
L 165.348919 186.798789 
L 166.178808 183.69919 
L 167.008698 179.404975 
L 167.838588 174.156267 
L 169.498367 161.75587 
L 171.988035 141.999677 
L 173.647814 130.85993 
L 174.477704 126.619743 
L 175.307593 123.586178 
L 176.137483 121.999359 
L 176.967372 121.847794 
L 177.797262 122.0223 
L 179.457041 122.774759 
L 181.11682 123.90481 
L 185.266268 127.119253 
L 186.926047 128.055698 
L 187.755936 128.352861 
L 188.585826 128.503918 
L 189.415716 128.435097 
L 190.245605 127.948872 
L 191.075495 127.069654 
L 191.905384 125.845887 
L 192.735274 124.326015 
L 194.395053 120.59173 
L 196.884721 113.980602 
L 199.37439 107.320479 
L 201.034169 103.499092 
L 202.693948 100.022478 
L 205.183617 94.051744 
L 207.673285 88.063384 
L 209.333065 84.582154 
L 210.162954 83.112021 
L 210.992844 81.874292 
L 211.822733 80.908024 
L 212.652623 80.25228 
L 213.482512 79.946118 
L 214.312402 80.039529 
L 215.142291 80.554231 
L 215.972181 81.431054 
L 216.80207 82.607293 
L 218.461849 85.607199 
L 222.611297 93.957397 
L 223.441187 95.271586 
L 224.271076 96.320848 
L 225.100966 97.042476 
L 225.930855 97.373767 
L 226.760745 97.133826 
L 227.590634 96.066954 
L 228.420524 94.283269 
L 229.250413 91.907979 
L 230.910193 85.883414 
L 235.05964 69.23343 
L 235.88953 66.632767 
L 236.719419 64.567365 
L 237.549309 63.162433 
L 238.379198 62.543178 
L 239.209088 62.611829 
L 240.038977 62.945674 
L 240.868867 63.494059 
L 242.528646 65.083233 
L 245.018315 68.130935 
L 246.678094 70.164312 
L 248.337873 71.846107 
L 249.167762 72.46065 
L 249.997652 72.873885 
L 250.827541 73.048006 
L 251.657431 72.783048 
L 252.487321 71.839961 
L 253.31721 70.316367 
L 254.1471 68.315467 
L 255.806879 63.294557 
L 259.956326 49.613516 
L 260.786216 47.509416 
L 261.616105 45.85682 
L 262.445995 44.758932 
L 263.275885 44.31895 
L 264.105774 44.372452 
L 265.765553 44.855155 
L 267.425332 45.698971 
L 273.234559 49.21694 
L 274.894338 49.732202 
L 275.724228 49.809522 
L 276.554117 49.688232 
L 277.384007 49.30743 
L 278.213896 48.681991 
L 279.043786 47.826953 
L 279.873675 46.757351 
L 281.533454 44.0346 
L 283.193233 40.634025 
L 284.853013 36.675915 
L 287.342681 29.9565 
L 288.172571 27.568239 
L 288.172571 27.568239 
" clip-path="url(#p1e96c85b8c)" style="fill: none; stroke-dasharray: 12.8,3.2,2,3.2; stroke-dashoffset: 0; stroke: #000000; stroke-width: 2"/>
   </g>
   <g id="line2d_17">
    <path d="M 40.035599 145.526591 
L 52.442447 141.326547 
L 64.849296 137.126502 
L 77.256144 132.926457 
L 89.662993 128.726412 
L 102.069842 124.526367 
L 114.47669 120.326322 
L 126.883539 116.126277 
L 139.290387 111.926232 
L 151.697236 107.726187 
L 164.104085 103.526142 
L 176.510933 99.326097 
L 188.917782 95.126052 
L 201.32463 90.926007 
L 213.731479 86.725962 
L 226.138328 82.525917 
L 238.545176 78.325872 
L 250.952025 74.125827 
L 263.358873 69.925782 
L 275.765722 65.725737 
L 288.172571 61.525692 
" clip-path="url(#p1e96c85b8c)" style="fill: none; stroke: #000000; stroke-opacity: 0.7; stroke-linecap: square"/>
   </g>
   <g id="text_14">
    <!-- Berger-Parker (10) -->
    <g transform="translate(133.70471 13.5125) scale(0.08 -0.08)">
     <defs>
      <path id="RobotoCondensed-Bold-42" d="M 3294 1341 
Q 3294 675 2942 339 
Q 2591 3 1884 0 
L 366 0 
L 366 4550 
L 1772 4550 
Q 2453 4550 2839 4245 
Q 3225 3941 3225 3303 
Q 3225 2994 3089 2734 
Q 2953 2475 2653 2344 
Q 3003 2244 3148 1956 
Q 3294 1669 3294 1341 
z
M 1288 3784 
L 1288 2647 
L 1763 2647 
Q 2303 2647 2303 3206 
Q 2303 3772 1794 3784 
L 1288 3784 
z
M 2375 1350 
Q 2375 1963 1941 1981 
L 1288 1981 
L 1288 763 
L 1872 763 
Q 2141 763 2258 930 
Q 2375 1097 2375 1350 
z
" transform="scale(0.015625)"/>
      <path id="RobotoCondensed-Bold-65" d="M 2834 444 
Q 2700 263 2411 100 
Q 2122 -63 1688 -63 
Q 997 -63 620 350 
Q 244 763 244 1497 
L 244 1775 
Q 244 2597 601 3020 
Q 959 3444 1596 3444 
Q 2234 3444 2556 3041 
Q 2878 2638 2884 1831 
L 2884 1397 
L 1131 1397 
Q 1147 994 1305 833 
Q 1463 672 1747 672 
Q 2194 672 2484 978 
L 2834 444 
z
M 1594 2709 
Q 1363 2709 1258 2545 
Q 1153 2381 1134 2016 
L 2019 2016 
L 2019 2094 
Q 2013 2400 1919 2554 
Q 1825 2709 1594 2709 
z
" transform="scale(0.015625)"/>
      <path id="RobotoCondensed-Bold-72" d="M 1700 2553 
Q 1331 2553 1206 2238 
L 1206 0 
L 322 0 
L 322 3381 
L 1156 3381 
L 1181 3016 
Q 1394 3444 1759 3444 
Q 1903 3444 2000 3406 
L 1991 2528 
Q 1834 2553 1700 2553 
z
" transform="scale(0.015625)"/>
      <path id="RobotoCondensed-Bold-67" d="M 1494 -1331 
Q 1259 -1331 945 -1232 
Q 631 -1134 453 -941 
L 750 -328 
Q 872 -450 1067 -536 
Q 1263 -622 1456 -622 
Q 1725 -622 1869 -489 
Q 2013 -356 2013 -3 
L 2013 269 
Q 1756 -63 1353 -63 
Q 819 -63 517 357 
Q 216 778 216 1572 
L 216 1794 
Q 216 2625 517 3034 
Q 819 3444 1359 3444 
Q 1819 3444 2066 3084 
L 2100 3381 
L 2900 3381 
L 2900 0 
Q 2900 -697 2512 -1014 
Q 2125 -1331 1494 -1331 
z
M 1100 1572 
Q 1100 678 1609 678 
Q 1881 678 2013 875 
L 2013 2494 
Q 1878 2706 1615 2706 
Q 1353 2706 1226 2490 
Q 1100 2275 1100 1794 
L 1100 1572 
z
" transform="scale(0.015625)"/>
      <path id="RobotoCondensed-Bold-2d" d="M 1913 2319 
L 1913 1584 
L 384 1584 
L 384 2319 
L 1913 2319 
z
" transform="scale(0.015625)"/>
      <path id="RobotoCondensed-Bold-50" d="M 1288 1600 
L 1288 0 
L 366 0 
L 366 4550 
L 1919 4550 
Q 2606 4550 3001 4123 
Q 3397 3697 3397 3044 
Q 3397 2384 3005 1993 
Q 2613 1603 1928 1600 
L 1288 1600 
z
M 1288 3784 
L 1288 2366 
L 1919 2366 
Q 2206 2366 2336 2555 
Q 2466 2744 2466 3037 
Q 2466 3331 2336 3557 
Q 2206 3784 1919 3784 
L 1288 3784 
z
" transform="scale(0.015625)"/>
      <path id="RobotoCondensed-Bold-61" d="M 1928 0 
Q 1881 106 1853 263 
Q 1613 -63 1209 -63 
Q 800 -63 514 212 
Q 228 488 228 947 
Q 228 1463 559 1764 
Q 891 2066 1572 2066 
L 1809 2066 
L 1809 2338 
Q 1809 2753 1503 2753 
Q 1172 2753 1172 2366 
L 288 2366 
Q 288 2809 623 3126 
Q 959 3444 1528 3444 
Q 2031 3444 2364 3181 
Q 2697 2919 2697 2325 
L 2697 738 
Q 2703 288 2819 53 
L 2819 0 
L 1928 0 
z
M 1409 634 
Q 1553 634 1656 693 
Q 1759 753 1809 834 
L 1809 1538 
L 1600 1538 
Q 1350 1538 1231 1384 
Q 1113 1231 1113 1009 
Q 1113 634 1409 634 
z
" transform="scale(0.015625)"/>
      <path id="RobotoCondensed-Bold-6b" d="M 2063 0 
L 1447 1309 
L 1206 1041 
L 1206 0 
L 322 0 
L 322 4803 
L 1206 4803 
L 1206 2209 
L 1316 2369 
L 1931 3381 
L 2984 3381 
L 2003 1991 
L 3075 0 
L 2063 0 
z
" transform="scale(0.015625)"/>
      <path id="RobotoCondensed-Bold-20" transform="scale(0.015625)"/>
      <path id="RobotoCondensed-Bold-28" d="M 378 1850 
Q 378 2731 592 3390 
Q 806 4050 1118 4472 
Q 1431 4894 1728 5050 
L 1894 4559 
Q 1619 4300 1372 3661 
Q 1125 3022 1119 1919 
L 1119 1772 
Q 1119 628 1367 -23 
Q 1616 -675 1894 -941 
L 1728 -1422 
Q 1431 -1266 1118 -845 
Q 806 -425 592 236 
Q 378 897 378 1850 
z
" transform="scale(0.015625)"/>
      <path id="RobotoCondensed-Bold-31" d="M 2244 4556 
L 2244 0 
L 1359 0 
L 1359 3475 
L 494 3144 
L 494 3881 
L 2150 4556 
L 2244 4556 
z
" transform="scale(0.015625)"/>
      <path id="RobotoCondensed-Bold-30" d="M 2941 1881 
Q 2941 859 2572 398 
Q 2203 -63 1622 -63 
Q 1044 -63 673 392 
Q 303 847 297 1847 
L 297 2675 
Q 297 3700 665 4156 
Q 1034 4613 1619 4613 
Q 2194 4613 2562 4166 
Q 2931 3719 2941 2731 
L 2941 1881 
z
M 2056 2803 
Q 2056 3403 1937 3640 
Q 1819 3878 1619 3878 
Q 1422 3878 1303 3647 
Q 1184 3416 1181 2838 
L 1181 1763 
Q 1181 1156 1300 914 
Q 1419 672 1622 672 
Q 1822 672 1937 908 
Q 2053 1144 2056 1728 
L 2056 2803 
z
" transform="scale(0.015625)"/>
      <path id="RobotoCondensed-Bold-29" d="M 1741 1778 
Q 1741 931 1520 265 
Q 1300 -400 975 -833 
Q 650 -1266 341 -1422 
L 175 -941 
Q 447 -681 695 -37 
Q 944 606 950 1709 
L 950 1856 
Q 950 3000 695 3653 
Q 441 4306 175 4569 
L 341 5050 
Q 650 4894 975 4459 
Q 1300 4025 1520 3364 
Q 1741 2703 1741 1778 
z
" transform="scale(0.015625)"/>
     </defs>
     <use xlink:href="#RobotoCondensed-Bold-42"/>
     <use xlink:href="#RobotoCondensed-Bold-65" transform="translate(56.152344 0)"/>
     <use xlink:href="#RobotoCondensed-Bold-72" transform="translate(104.052734 0)"/>
     <use xlink:href="#RobotoCondensed-Bold-67" transform="translate(137.207031 0)"/>
     <use xlink:href="#RobotoCondensed-Bold-65" transform="translate(187.548828 0)"/>
     <use xlink:href="#RobotoCondensed-Bold-72" transform="translate(235.449219 0)"/>
     <use xlink:href="#RobotoCondensed-Bold-2d" transform="translate(268.603516 0)"/>
     <use xlink:href="#RobotoCondensed-Bold-50" transform="translate(304.931641 0)"/>
     <use xlink:href="#RobotoCondensed-Bold-61" transform="translate(361.816406 0)"/>
     <use xlink:href="#RobotoCondensed-Bold-72" transform="translate(408.935547 0)"/>
     <use xlink:href="#RobotoCondensed-Bold-6b" transform="translate(442.089844 0)"/>
     <use xlink:href="#RobotoCondensed-Bold-65" transform="translate(489.941406 0)"/>
     <use xlink:href="#RobotoCondensed-Bold-72" transform="translate(537.841797 0)"/>
     <use xlink:href="#RobotoCondensed-Bold-20" transform="translate(570.996094 0)"/>
     <use xlink:href="#RobotoCondensed-Bold-28" transform="translate(594.042969 0)"/>
     <use xlink:href="#RobotoCondensed-Bold-31" transform="translate(626.367188 0)"/>
     <use xlink:href="#RobotoCondensed-Bold-30" transform="translate(676.953125 0)"/>
     <use xlink:href="#RobotoCondensed-Bold-29" transform="translate(727.539062 0)"/>
    </g>
   </g>
   <g id="PathCollection_1">
    <defs>
     <path id="C0_0_30844bdc7f" d="M -0 4.242641 
L 4.242641 -0 
L 0 -4.242641 
L -4.242641 -0 
z
"/>
    </defs>
    <g clip-path="url(#p1e96c85b8c)">
     <use xlink:href="#C0_0_30844bdc7f" x="40.035599" y="104.044515" style="fill: none; stroke: #000000"/>
    </g>
    <g clip-path="url(#p1e96c85b8c)">
     <use xlink:href="#C0_0_30844bdc7f" x="52.442447" y="101.425065" style="fill: none; stroke: #000000"/>
    </g>
    <g clip-path="url(#p1e96c85b8c)">
     <use xlink:href="#C0_0_30844bdc7f" x="64.849296" y="43.984578" style="fill: none; stroke: #000000"/>
    </g>
    <g clip-path="url(#p1e96c85b8c)">
     <use xlink:href="#C0_0_30844bdc7f" x="77.256144" y="86.080194" style="fill: none; stroke: #000000"/>
    </g>
    <g clip-path="url(#p1e96c85b8c)">
     <use xlink:href="#C0_0_30844bdc7f" x="89.662993" y="136.003607" style="fill: none; stroke: #000000"/>
    </g>
    <g clip-path="url(#p1e96c85b8c)">
     <use xlink:href="#C0_0_30844bdc7f" x="102.069842" y="79.220462" style="fill: none; stroke: #000000"/>
    </g>
    <g clip-path="url(#p1e96c85b8c)">
     <use xlink:href="#C0_0_30844bdc7f" x="114.47669" y="63.129833" style="fill: none; stroke: #000000"/>
    </g>
    <g clip-path="url(#p1e96c85b8c)">
     <use xlink:href="#C0_0_30844bdc7f" x="126.883539" y="78.521124" style="fill: none; stroke: #000000"/>
    </g>
    <g clip-path="url(#p1e96c85b8c)">
     <use xlink:href="#C0_0_30844bdc7f" x="139.290387" y="68.933896" style="fill: none; stroke: #000000"/>
    </g>
    <g clip-path="url(#p1e96c85b8c)">
     <use xlink:href="#C0_0_30844bdc7f" x="151.697236" y="105.371099" style="fill: none; stroke: #000000"/>
    </g>
    <g clip-path="url(#p1e96c85b8c)">
     <use xlink:href="#C0_0_30844bdc7f" x="164.104085" y="174.848272" style="fill: none; stroke: #000000"/>
    </g>
    <g clip-path="url(#p1e96c85b8c)">
     <use xlink:href="#C0_0_30844bdc7f" x="176.510933" y="67.38698" style="fill: none; stroke: #000000"/>
    </g>
    <g clip-path="url(#p1e96c85b8c)">
     <use xlink:href="#C0_0_30844bdc7f" x="188.917782" y="66.544925" style="fill: none; stroke: #000000"/>
    </g>
    <g clip-path="url(#p1e96c85b8c)">
     <use xlink:href="#C0_0_30844bdc7f" x="201.32463" y="33.920677" style="fill: none; stroke: #000000"/>
    </g>
    <g clip-path="url(#p1e96c85b8c)">
     <use xlink:href="#C0_0_30844bdc7f" x="213.731479" y="72.837386" style="fill: none; stroke: #000000"/>
    </g>
    <g clip-path="url(#p1e96c85b8c)">
     <use xlink:href="#C0_0_30844bdc7f" x="226.138328" y="65.062491" style="fill: none; stroke: #000000"/>
    </g>
    <g clip-path="url(#p1e96c85b8c)">
     <use xlink:href="#C0_0_30844bdc7f" x="238.545176" y="58.530164" style="fill: none; stroke: #000000"/>
    </g>
    <g clip-path="url(#p1e96c85b8c)">
     <use xlink:href="#C0_0_30844bdc7f" x="250.952025" y="34.657595" style="fill: none; stroke: #000000"/>
    </g>
    <g clip-path="url(#p1e96c85b8c)">
     <use xlink:href="#C0_0_30844bdc7f" x="263.358873" y="29.332724" style="fill: none; stroke: #000000"/>
    </g>
    <g clip-path="url(#p1e96c85b8c)">
     <use xlink:href="#C0_0_30844bdc7f" x="275.765722" y="75.532411" style="fill: none; stroke: #000000"/>
    </g>
    <g clip-path="url(#p1e96c85b8c)">
     <use xlink:href="#C0_0_30844bdc7f" x="288.172571" y="40.852344" style="fill: none; stroke: #000000"/>
    </g>
   </g>
   <g id="PathCollection_2">
    <defs>
     <path id="me5fe86b942" d="M 0 3 
C 0.795609 3 1.55874 2.683901 2.12132 2.12132 
C 2.683901 1.55874 3 0.795609 3 0 
C 3 -0.795609 2.683901 -1.55874 2.12132 -2.12132 
C 1.55874 -2.683901 0.795609 -3 0 -3 
C -0.795609 -3 -1.55874 -2.683901 -2.12132 -2.12132 
C -2.683901 -1.55874 -3 -0.795609 -3 0 
C -3 0.795609 -2.683901 1.55874 -2.12132 2.12132 
C -1.55874 2.683901 -0.795609 3 0 3 
z
" style="stroke: #000000"/>
    </defs>
    <g clip-path="url(#p1e96c85b8c)">
     <use xlink:href="#me5fe86b942" x="40.035599" y="162.637883" style="stroke: #000000"/>
     <use xlink:href="#me5fe86b942" x="52.442447" y="97.88001" style="stroke: #000000"/>
     <use xlink:href="#me5fe86b942" x="64.849296" y="105.040189" style="stroke: #000000"/>
     <use xlink:href="#me5fe86b942" x="77.256144" y="153.795948" style="stroke: #000000"/>
     <use xlink:href="#me5fe86b942" x="89.662993" y="134.584532" style="stroke: #000000"/>
     <use xlink:href="#me5fe86b942" x="102.069842" y="79.861031" style="stroke: #000000"/>
     <use xlink:href="#me5fe86b942" x="114.47669" y="104.145938" style="stroke: #000000"/>
     <use xlink:href="#me5fe86b942" x="126.883539" y="86.088626" style="stroke: #000000"/>
     <use xlink:href="#me5fe86b942" x="139.290387" y="113.948797" style="stroke: #000000"/>
     <use xlink:href="#me5fe86b942" x="151.697236" y="159.541555" style="stroke: #000000"/>
     <use xlink:href="#me5fe86b942" x="164.104085" y="188.683011" style="stroke: #000000"/>
     <use xlink:href="#me5fe86b942" x="176.510933" y="121.82127" style="stroke: #000000"/>
     <use xlink:href="#me5fe86b942" x="188.917782" y="128.518044" style="stroke: #000000"/>
     <use xlink:href="#me5fe86b942" x="201.32463" y="102.916766" style="stroke: #000000"/>
     <use xlink:href="#me5fe86b942" x="213.731479" y="79.928277" style="stroke: #000000"/>
     <use xlink:href="#me5fe86b942" x="226.138328" y="97.388251" style="stroke: #000000"/>
     <use xlink:href="#me5fe86b942" x="238.545176" y="62.524626" style="stroke: #000000"/>
     <use xlink:href="#me5fe86b942" x="250.952025" y="73.051163" style="stroke: #000000"/>
     <use xlink:href="#me5fe86b942" x="263.358873" y="44.31511" style="stroke: #000000"/>
     <use xlink:href="#me5fe86b942" x="275.765722" y="49.809706" style="stroke: #000000"/>
     <use xlink:href="#me5fe86b942" x="288.172571" y="27.568239" style="stroke: #000000"/>
    </g>
   </g>
   <g id="legend_1">
    <g id="patch_3">
     <path d="M 30.62875 41.811875 
L 66.7525 41.811875 
L 66.7525 22.5125 
L 30.62875 22.5125 
z
" style="fill: #ffffff; opacity: 0.8"/>
    </g>
    <g id="line2d_18">
     <path d="M 33.02875 27.3125 
L 40.52875 27.3125 
L 48.02875 27.3125 
" style="fill: none; stroke-dasharray: 2,3.3; stroke-dashoffset: 0; stroke: #000000; stroke-width: 2"/>
     <defs>
      <path id="m75381558ac" d="M -0 4.242641 
L 4.242641 0 
L 0 -4.242641 
L -4.242641 -0 
z
" style="stroke: #000000; stroke-linejoin: miter"/>
     </defs>
     <g>
      <use xlink:href="#m75381558ac" x="40.52875" y="27.3125" style="fill-opacity: 0; stroke: #000000; stroke-linejoin: miter"/>
     </g>
    </g>
    <g id="text_15">
     <!-- Boys -->
     <g transform="translate(52.82875 29.4125) scale(0.06 -0.06)">
      <defs>
       <path id="RobotoCondensed-Regular-42" d="M 3125 1313 
Q 3125 675 2776 337 
Q 2428 0 1847 0 
L 491 0 
L 491 4550 
L 1791 4550 
Q 2375 4550 2706 4261 
Q 3038 3972 3038 3338 
Q 3038 3025 2880 2779 
Q 2722 2534 2453 2400 
Q 2781 2297 2953 1998 
Q 3125 1700 3125 1313 
z
M 1066 4056 
L 1066 2613 
L 1797 2613 
Q 2088 2613 2275 2806 
Q 2463 3000 2463 3344 
Q 2463 4041 1819 4056 
L 1066 4056 
z
M 2550 1306 
Q 2550 2106 1906 2128 
L 1066 2128 
L 1066 491 
L 1847 491 
Q 2181 491 2365 711 
Q 2550 931 2550 1306 
z
" transform="scale(0.015625)"/>
       <path id="RobotoCondensed-Regular-6f" d="M 300 1850 
Q 300 2641 678 3042 
Q 1056 3444 1603 3444 
Q 2156 3444 2536 3042 
Q 2916 2641 2916 1850 
L 2916 1528 
Q 2916 738 2536 337 
Q 2156 -63 1609 -63 
Q 1059 -63 679 337 
Q 300 738 300 1528 
L 300 1850 
z
M 853 1528 
Q 853 969 1068 689 
Q 1284 409 1609 409 
Q 2341 409 2363 1466 
L 2363 1850 
Q 2363 2403 2145 2686 
Q 1928 2969 1603 2969 
Q 1281 2969 1067 2686 
Q 853 2403 853 1850 
L 853 1528 
z
" transform="scale(0.015625)"/>
       <path id="RobotoCondensed-Regular-79" d="M 1425 -522 
Q 1153 -1366 563 -1366 
Q 409 -1366 278 -1316 
L 278 -847 
Q 328 -859 397 -859 
Q 631 -859 770 -746 
Q 909 -634 997 -338 
L 1106 31 
L 109 3381 
L 713 3381 
L 1341 922 
L 1953 3381 
L 2541 3381 
L 1425 -522 
z
" transform="scale(0.015625)"/>
       <path id="RobotoCondensed-Regular-73" d="M 2056 866 
Q 2056 1059 1907 1190 
Q 1759 1322 1340 1500 
Q 922 1678 681 1863 
Q 409 2072 409 2484 
Q 409 2888 703 3166 
Q 997 3444 1481 3444 
Q 2000 3444 2287 3150 
Q 2575 2856 2575 2419 
L 2025 2419 
Q 2025 2628 1884 2798 
Q 1744 2969 1481 2969 
Q 1203 2969 1083 2828 
Q 963 2688 963 2503 
Q 963 2319 1081 2217 
Q 1200 2116 1553 1959 
Q 2066 1756 2337 1537 
Q 2609 1319 2609 909 
Q 2609 463 2303 200 
Q 1997 -63 1494 -63 
Q 919 -63 616 265 
Q 313 594 313 1013 
L 866 1013 
Q 881 653 1081 533 
Q 1281 413 1494 413 
Q 2056 413 2056 866 
z
" transform="scale(0.015625)"/>
      </defs>
      <use xlink:href="#RobotoCondensed-Regular-42"/>
      <use xlink:href="#RobotoCondensed-Regular-6f" transform="translate(54.589844 0)"/>
      <use xlink:href="#RobotoCondensed-Regular-79" transform="translate(104.785156 0)"/>
      <use xlink:href="#RobotoCondensed-Regular-73" transform="translate(146.435547 0)"/>
     </g>
    </g>
    <g id="line2d_19">
     <path d="M 33.02875 36.093125 
L 40.52875 36.093125 
L 48.02875 36.093125 
" style="fill: none; stroke-dasharray: 12.8,3.2,2,3.2; stroke-dashoffset: 0; stroke: #000000; stroke-width: 2"/>
     <g>
      <use xlink:href="#me5fe86b942" x="40.52875" y="36.093125" style="stroke: #000000"/>
     </g>
    </g>
    <g id="text_16">
     <!-- Girls -->
     <g transform="translate(52.82875 38.193125) scale(0.06 -0.06)">
      <defs>
       <path id="RobotoCondensed-Regular-47" d="M 3341 2266 
L 3341 569 
Q 3266 469 3114 319 
Q 2963 169 2691 53 
Q 2419 -63 1978 -63 
Q 1272 -63 830 412 
Q 388 888 388 1850 
L 388 2703 
Q 388 3656 770 4134 
Q 1153 4613 1919 4613 
Q 2581 4613 2943 4244 
Q 3306 3875 3341 3219 
L 2766 3219 
Q 2731 3641 2529 3880 
Q 2328 4119 1919 4119 
Q 1400 4119 1183 3773 
Q 966 3428 963 2731 
L 963 1850 
Q 963 1125 1239 776 
Q 1516 428 1981 428 
Q 2378 428 2537 547 
Q 2697 666 2769 728 
L 2769 1778 
L 1934 1778 
L 1934 2266 
L 3341 2266 
z
" transform="scale(0.015625)"/>
       <path id="RobotoCondensed-Regular-69" d="M 428 4278 
Q 428 4419 506 4516 
Q 584 4613 741 4613 
Q 894 4613 975 4516 
Q 1056 4419 1056 4278 
Q 1056 4144 975 4048 
Q 894 3953 741 3953 
Q 584 3953 506 4048 
Q 428 4144 428 4278 
z
M 1009 3381 
L 1009 0 
L 459 0 
L 459 3381 
L 1009 3381 
z
" transform="scale(0.015625)"/>
       <path id="RobotoCondensed-Regular-72" d="M 1563 2888 
Q 1138 2888 969 2425 
L 969 0 
L 416 0 
L 416 3381 
L 950 3381 
L 963 3041 
Q 1184 3444 1591 3444 
Q 1738 3444 1809 3400 
L 1813 2863 
Q 1691 2888 1563 2888 
z
" transform="scale(0.015625)"/>
       <path id="RobotoCondensed-Regular-6c" d="M 1009 4800 
L 1009 0 
L 459 0 
L 459 4800 
L 1009 4800 
z
" transform="scale(0.015625)"/>
      </defs>
      <use xlink:href="#RobotoCondensed-Regular-47"/>
      <use xlink:href="#RobotoCondensed-Regular-69" transform="translate(59.082031 0)"/>
      <use xlink:href="#RobotoCondensed-Regular-72" transform="translate(82.03125 0)"/>
      <use xlink:href="#RobotoCondensed-Regular-6c" transform="translate(112.5 0)"/>
      <use xlink:href="#RobotoCondensed-Regular-73" transform="translate(135.449219 0)"/>
     </g>
    </g>
   </g>
  </g>
 </g>
 <defs>
  <clipPath id="p1e96c85b8c">
   <rect x="27.62875" y="19.5125" width="272.950669" height="177.22625"/>
  </clipPath>
 </defs>
</svg>
