<?xml version="1.0" encoding="utf-8" standalone="no"?>
<!DOCTYPE svg PUBLIC "-//W3C//DTD SVG 1.1//EN"
  "http://www.w3.org/Graphics/SVG/1.1/DTD/svg11.dtd">
<svg xmlns:xlink="http://www.w3.org/1999/xlink" width="711.854688pt" height="351.756972pt" viewBox="0 0 711.854688 351.756972" xmlns="http://www.w3.org/2000/svg" version="1.1">
 <metadata>
  <rdf:RDF xmlns:dc="http://purl.org/dc/elements/1.1/" xmlns:cc="http://creativecommons.org/ns#" xmlns:rdf="http://www.w3.org/1999/02/22-rdf-syntax-ns#">
   <cc:Work>
    <dc:type rdf:resource="http://purl.org/dc/dcmitype/StillImage"/>
    <dc:date>2026-04-11T21:39:36.708773</dc:date>
    <dc:format>image/svg+xml</dc:format>
    <dc:creator>
     <cc:Agent>
      <dc:title>Matplotlib v3.10.7, https://matplotlib.org/</dc:title>
     </cc:Agent>
    </dc:creator>
   </cc:Work>
  </rdf:RDF>
 </metadata>
 <defs>
  <style type="text/css">*{stroke-linejoin: round; stroke-linecap: butt}</style>
 </defs>
 <g id="figure_1">
  <g id="patch_1">
   <path d="M 0 351.756972 
L 711.854688 351.756972 
L 711.854688 0 
L 0 0 
z
" style="fill: #ffffff"/>
  </g>
  <g id="axes_1">
   <g id="patch_2">
    <path d="M 48.904688 312.031972 
L 693.554688 312.031972 
L 693.554688 8.132492 
L 48.904688 8.132492 
z
" style="fill: #ffffff"/>
   </g>
   <g id="matplotlib.axis_1">
    <g id="xtick_1">
     <g id="text_1">
      <!-- 1990 -->
      <g transform="translate(96.409233 326.991347) scale(0.1 -0.1)">
       <defs>
        <path id="NotoSansCJKjp-Regular-31" d="M 563 0 
L 3136 0 
L 3136 486 
L 2195 486 
L 2195 4698 
L 1747 4698 
C 1491 4544 1190 4435 774 4358 
L 774 3987 
L 1606 3987 
L 1606 486 
L 563 486 
L 563 0 
z
" transform="scale(0.015625)"/>
        <path id="NotoSansCJKjp-Regular-39" d="M 832 3258 
C 832 3898 1178 4320 1626 4320 
C 2227 4320 2586 3808 2650 2842 
C 2349 2400 1990 2214 1670 2214 
C 1114 2214 832 2624 832 3258 
z
M 1498 -83 
C 2381 -83 3200 646 3200 2547 
C 3200 4038 2528 4781 1626 4781 
C 896 4781 282 4166 282 3258 
C 282 2285 794 1779 1574 1779 
C 1965 1779 2368 2003 2656 2355 
C 2611 902 2086 403 1478 403 
C 1178 403 890 538 698 762 
L 371 397 
C 634 122 992 -83 1498 -83 
z
" transform="scale(0.015625)"/>
        <path id="NotoSansCJKjp-Regular-30" d="M 1779 -83 
C 2669 -83 3238 730 3238 2362 
C 3238 3987 2669 4781 1779 4781 
C 883 4781 314 3994 314 2362 
C 314 730 883 -83 1779 -83 
z
M 1779 384 
C 1242 384 883 979 883 2362 
C 883 3731 1242 4314 1779 4314 
C 2310 4314 2669 3731 2669 2362 
C 2669 979 2310 384 1779 384 
z
" transform="scale(0.015625)"/>
       </defs>
       <use xlink:href="#NotoSansCJKjp-Regular-31"/>
       <use xlink:href="#NotoSansCJKjp-Regular-39" transform="translate(55.499985 0)"/>
       <use xlink:href="#NotoSansCJKjp-Regular-39" transform="translate(110.999969 0)"/>
       <use xlink:href="#NotoSansCJKjp-Regular-30" transform="translate(166.499954 0)"/>
      </g>
     </g>
    </g>
    <g id="xtick_2">
     <g id="text_2">
      <!-- 1992 -->
      <g transform="translate(169.664915 326.991347) scale(0.1 -0.1)">
       <defs>
        <path id="NotoSansCJKjp-Regular-32" d="M 282 0 
L 3232 0 
L 3232 506 
L 1933 506 
C 1696 506 1408 480 1165 461 
C 2266 1504 3002 2458 3002 3392 
C 3002 4230 2477 4781 1638 4781 
C 1043 4781 640 4506 256 4090 
L 595 3757 
C 851 4064 1184 4301 1568 4301 
C 2150 4301 2432 3910 2432 3373 
C 2432 2566 1754 1632 282 346 
L 282 0 
z
" transform="scale(0.015625)"/>
       </defs>
       <use xlink:href="#NotoSansCJKjp-Regular-31"/>
       <use xlink:href="#NotoSansCJKjp-Regular-39" transform="translate(55.499985 0)"/>
       <use xlink:href="#NotoSansCJKjp-Regular-39" transform="translate(110.999969 0)"/>
       <use xlink:href="#NotoSansCJKjp-Regular-32" transform="translate(166.499954 0)"/>
      </g>
     </g>
    </g>
    <g id="xtick_3">
     <g id="text_3">
      <!-- 1995 -->
      <g transform="translate(242.920597 326.991347) scale(0.1 -0.1)">
       <defs>
        <path id="NotoSansCJKjp-Regular-35" d="M 1670 -83 
C 2464 -83 3206 499 3206 1530 
C 3206 2560 2573 3021 1792 3021 
C 1510 3021 1306 2950 1094 2835 
L 1210 4192 
L 2982 4192 
L 2982 4698 
L 698 4698 
L 550 2496 
L 864 2304 
C 1133 2483 1331 2579 1645 2579 
C 2234 2579 2618 2182 2618 1510 
C 2618 826 2170 403 1619 403 
C 1075 403 736 653 467 922 
L 179 538 
C 493 224 941 -83 1670 -83 
z
" transform="scale(0.015625)"/>
       </defs>
       <use xlink:href="#NotoSansCJKjp-Regular-31"/>
       <use xlink:href="#NotoSansCJKjp-Regular-39" transform="translate(55.499985 0)"/>
       <use xlink:href="#NotoSansCJKjp-Regular-39" transform="translate(110.999969 0)"/>
       <use xlink:href="#NotoSansCJKjp-Regular-35" transform="translate(166.499954 0)"/>
      </g>
     </g>
    </g>
    <g id="xtick_4">
     <g id="text_4">
      <!-- 1997 -->
      <g transform="translate(316.176278 326.991347) scale(0.1 -0.1)">
       <defs>
        <path id="NotoSansCJKjp-Regular-37" d="M 1267 0 
L 1875 0 
C 1946 1837 2150 2931 3251 4339 
L 3251 4698 
L 314 4698 
L 314 4192 
L 2586 4192 
C 1670 2912 1344 1779 1267 0 
z
" transform="scale(0.015625)"/>
       </defs>
       <use xlink:href="#NotoSansCJKjp-Regular-31"/>
       <use xlink:href="#NotoSansCJKjp-Regular-39" transform="translate(55.499985 0)"/>
       <use xlink:href="#NotoSansCJKjp-Regular-39" transform="translate(110.999969 0)"/>
       <use xlink:href="#NotoSansCJKjp-Regular-37" transform="translate(166.499954 0)"/>
      </g>
     </g>
    </g>
    <g id="xtick_5">
     <g id="text_5">
      <!-- 2000 -->
      <g transform="translate(389.43196 326.991347) scale(0.1 -0.1)">
       <use xlink:href="#NotoSansCJKjp-Regular-32"/>
       <use xlink:href="#NotoSansCJKjp-Regular-30" transform="translate(55.499985 0)"/>
       <use xlink:href="#NotoSansCJKjp-Regular-30" transform="translate(110.999969 0)"/>
       <use xlink:href="#NotoSansCJKjp-Regular-30" transform="translate(166.499954 0)"/>
      </g>
     </g>
    </g>
    <g id="xtick_6">
     <g id="text_6">
      <!-- 2002 -->
      <g transform="translate(462.687642 326.991347) scale(0.1 -0.1)">
       <use xlink:href="#NotoSansCJKjp-Regular-32"/>
       <use xlink:href="#NotoSansCJKjp-Regular-30" transform="translate(55.499985 0)"/>
       <use xlink:href="#NotoSansCJKjp-Regular-30" transform="translate(110.999969 0)"/>
       <use xlink:href="#NotoSansCJKjp-Regular-32" transform="translate(166.499954 0)"/>
      </g>
     </g>
    </g>
    <g id="xtick_7">
     <g id="text_7">
      <!-- 2005 -->
      <g transform="translate(535.943324 326.991347) scale(0.1 -0.1)">
       <use xlink:href="#NotoSansCJKjp-Regular-32"/>
       <use xlink:href="#NotoSansCJKjp-Regular-30" transform="translate(55.499985 0)"/>
       <use xlink:href="#NotoSansCJKjp-Regular-30" transform="translate(110.999969 0)"/>
       <use xlink:href="#NotoSansCJKjp-Regular-35" transform="translate(166.499954 0)"/>
      </g>
     </g>
    </g>
    <g id="xtick_8">
     <g id="text_8">
      <!-- 2007 -->
      <g transform="translate(609.199006 326.991347) scale(0.1 -0.1)">
       <use xlink:href="#NotoSansCJKjp-Regular-32"/>
       <use xlink:href="#NotoSansCJKjp-Regular-30" transform="translate(55.499985 0)"/>
       <use xlink:href="#NotoSansCJKjp-Regular-30" transform="translate(110.999969 0)"/>
       <use xlink:href="#NotoSansCJKjp-Regular-37" transform="translate(166.499954 0)"/>
      </g>
     </g>
    </g>
    <g id="xtick_9">
     <g id="text_9">
      <!-- 2010 -->
      <g transform="translate(682.454687 326.991347) scale(0.1 -0.1)">
       <use xlink:href="#NotoSansCJKjp-Regular-32"/>
       <use xlink:href="#NotoSansCJKjp-Regular-30" transform="translate(55.499985 0)"/>
       <use xlink:href="#NotoSansCJKjp-Regular-31" transform="translate(110.999969 0)"/>
       <use xlink:href="#NotoSansCJKjp-Regular-30" transform="translate(166.499954 0)"/>
      </g>
     </g>
    </g>
    <g id="text_10">
     <!-- Year -->
     <g transform="translate(360.026016 342.037285) scale(0.11 -0.11)">
      <defs>
       <path id="NotoSansCJKjp-Regular-59" d="M 1402 0 
L 1997 0 
L 1997 1824 
L 3405 4698 
L 2790 4698 
L 2182 3366 
C 2042 3021 1882 2694 1715 2342 
L 1690 2342 
C 1523 2694 1382 3021 1229 3366 
L 627 4698 
L -6 4698 
L 1402 1824 
L 1402 0 
z
" transform="scale(0.015625)"/>
       <path id="NotoSansCJKjp-Regular-65" d="M 1990 -83 
C 2464 -83 2835 77 3142 275 
L 2931 659 
C 2675 486 2400 384 2061 384 
C 1402 384 947 858 909 1600 
L 3251 1600 
C 3264 1683 3277 1805 3277 1933 
C 3277 2925 2778 3565 1894 3565 
C 1088 3565 326 2861 326 1734 
C 326 589 1069 -83 1990 -83 
z
M 902 2022 
C 973 2701 1408 3098 1901 3098 
C 2445 3098 2765 2720 2765 2022 
L 902 2022 
z
" transform="scale(0.015625)"/>
       <path id="NotoSansCJKjp-Regular-61" d="M 1389 -83 
C 1818 -83 2208 141 2541 416 
L 2560 416 
L 2611 0 
L 3091 0 
L 3091 2138 
C 3091 2995 2733 3565 1888 3565 
C 1331 3565 838 3315 518 3110 
L 749 2707 
C 1024 2893 1389 3078 1792 3078 
C 2362 3078 2509 2650 2509 2202 
C 1030 2035 371 1658 371 902 
C 371 275 806 -83 1389 -83 
z
M 1555 384 
C 1210 384 941 544 941 941 
C 941 1389 1338 1677 2509 1818 
L 2509 845 
C 2170 544 1894 384 1555 384 
z
" transform="scale(0.015625)"/>
       <path id="NotoSansCJKjp-Regular-72" d="M 589 0 
L 1171 0 
L 1171 2234 
C 1402 2829 1760 3034 2048 3034 
C 2189 3034 2272 3021 2387 2976 
L 2496 3488 
C 2387 3546 2278 3565 2125 3565 
C 1734 3565 1382 3283 1139 2842 
L 1120 2842 
L 1069 3475 
L 589 3475 
L 589 0 
z
" transform="scale(0.015625)"/>
      </defs>
      <use xlink:href="#NotoSansCJKjp-Regular-59"/>
      <use xlink:href="#NotoSansCJKjp-Regular-65" transform="translate(53.099991 0)"/>
      <use xlink:href="#NotoSansCJKjp-Regular-61" transform="translate(108.499985 0)"/>
      <use xlink:href="#NotoSansCJKjp-Regular-72" transform="translate(164.899979 0)"/>
     </g>
    </g>
   </g>
   <g id="matplotlib.axis_2">
    <g id="ytick_1">
     <g id="line2d_1">
      <path d="M 48.904688 286.35524 
L 693.554688 286.35524 
" clip-path="url(#pdeb1f10b99)" style="fill: none; stroke: #808080; stroke-opacity: 0.3; stroke-width: 0.4; stroke-linecap: round"/>
     </g>
     <g id="text_11">
      <!-- 0.03 -->
      <g transform="translate(22.475 290.334928) scale(0.1 -0.1)">
       <defs>
        <path id="NotoSansCJKjp-Regular-2e" d="M 890 -83 
C 1120 -83 1312 96 1312 358 
C 1312 627 1120 813 890 813 
C 659 813 467 627 467 358 
C 467 96 659 -83 890 -83 
z
" transform="scale(0.015625)"/>
        <path id="NotoSansCJKjp-Regular-33" d="M 1690 -83 
C 2522 -83 3194 416 3194 1254 
C 3194 1894 2752 2317 2202 2445 
L 2202 2470 
C 2694 2656 3034 3034 3034 3603 
C 3034 4346 2458 4781 1670 4781 
C 1126 4781 710 4544 358 4218 
L 672 3846 
C 934 4115 1267 4301 1645 4301 
C 2131 4301 2438 4006 2438 3558 
C 2438 3053 2106 2662 1139 2662 
L 1139 2214 
C 2221 2214 2598 1837 2598 1280 
C 2598 736 2202 403 1645 403 
C 1114 403 755 653 480 941 
L 186 557 
C 493 224 954 -83 1690 -83 
z
" transform="scale(0.015625)"/>
       </defs>
       <use xlink:href="#NotoSansCJKjp-Regular-30"/>
       <use xlink:href="#NotoSansCJKjp-Regular-2e" transform="translate(55.499985 0)"/>
       <use xlink:href="#NotoSansCJKjp-Regular-30" transform="translate(83.299973 0)"/>
       <use xlink:href="#NotoSansCJKjp-Regular-33" transform="translate(138.799957 0)"/>
      </g>
     </g>
    </g>
    <g id="ytick_2">
     <g id="line2d_2">
      <path d="M 48.904688 251.958296 
L 693.554688 251.958296 
" clip-path="url(#pdeb1f10b99)" style="fill: none; stroke: #808080; stroke-opacity: 0.3; stroke-width: 0.4; stroke-linecap: round"/>
     </g>
     <g id="text_12">
      <!-- 0.04 -->
      <g transform="translate(22.475 255.937984) scale(0.1 -0.1)">
       <defs>
        <path id="NotoSansCJKjp-Regular-34" d="M 736 1760 
L 1805 3360 
C 1939 3590 2067 3821 2182 4051 
L 2208 4051 
C 2195 3808 2176 3430 2176 3200 
L 2176 1760 
L 736 1760 
z
M 2176 0 
L 2726 0 
L 2726 1293 
L 3347 1293 
L 3347 1760 
L 2726 1760 
L 2726 4698 
L 2080 4698 
L 128 1677 
L 128 1293 
L 2176 1293 
L 2176 0 
z
" transform="scale(0.015625)"/>
       </defs>
       <use xlink:href="#NotoSansCJKjp-Regular-30"/>
       <use xlink:href="#NotoSansCJKjp-Regular-2e" transform="translate(55.499985 0)"/>
       <use xlink:href="#NotoSansCJKjp-Regular-30" transform="translate(83.299973 0)"/>
       <use xlink:href="#NotoSansCJKjp-Regular-34" transform="translate(138.799957 0)"/>
      </g>
     </g>
    </g>
    <g id="ytick_3">
     <g id="line2d_3">
      <path d="M 48.904688 217.561352 
L 693.554688 217.561352 
" clip-path="url(#pdeb1f10b99)" style="fill: none; stroke: #808080; stroke-opacity: 0.3; stroke-width: 0.4; stroke-linecap: round"/>
     </g>
     <g id="text_13">
      <!-- 0.05 -->
      <g transform="translate(22.475 221.54104) scale(0.1 -0.1)">
       <use xlink:href="#NotoSansCJKjp-Regular-30"/>
       <use xlink:href="#NotoSansCJKjp-Regular-2e" transform="translate(55.499985 0)"/>
       <use xlink:href="#NotoSansCJKjp-Regular-30" transform="translate(83.299973 0)"/>
       <use xlink:href="#NotoSansCJKjp-Regular-35" transform="translate(138.799957 0)"/>
      </g>
     </g>
    </g>
    <g id="ytick_4">
     <g id="line2d_4">
      <path d="M 48.904688 183.164408 
L 693.554688 183.164408 
" clip-path="url(#pdeb1f10b99)" style="fill: none; stroke: #808080; stroke-opacity: 0.3; stroke-width: 0.4; stroke-linecap: round"/>
     </g>
     <g id="text_14">
      <!-- 0.06 -->
      <g transform="translate(22.475 187.144096) scale(0.1 -0.1)">
       <defs>
        <path id="NotoSansCJKjp-Regular-36" d="M 1875 2477 
C 2445 2477 2726 2074 2726 1440 
C 2726 800 2374 371 1926 371 
C 1338 371 986 902 915 1875 
C 1203 2304 1581 2477 1875 2477 
z
M 1926 -83 
C 2656 -83 3270 531 3270 1440 
C 3270 2419 2765 2912 1971 2912 
C 1600 2912 1190 2694 902 2342 
C 928 3802 1472 4294 2112 4294 
C 2400 4294 2682 4160 2867 3936 
L 3187 4301 
C 2931 4576 2579 4781 2093 4781 
C 1184 4781 358 4077 358 2240 
C 358 691 1024 -83 1926 -83 
z
" transform="scale(0.015625)"/>
       </defs>
       <use xlink:href="#NotoSansCJKjp-Regular-30"/>
       <use xlink:href="#NotoSansCJKjp-Regular-2e" transform="translate(55.499985 0)"/>
       <use xlink:href="#NotoSansCJKjp-Regular-30" transform="translate(83.299973 0)"/>
       <use xlink:href="#NotoSansCJKjp-Regular-36" transform="translate(138.799957 0)"/>
      </g>
     </g>
    </g>
    <g id="ytick_5">
     <g id="line2d_5">
      <path d="M 48.904688 148.767464 
L 693.554688 148.767464 
" clip-path="url(#pdeb1f10b99)" style="fill: none; stroke: #808080; stroke-opacity: 0.3; stroke-width: 0.4; stroke-linecap: round"/>
     </g>
     <g id="text_15">
      <!-- 0.07 -->
      <g transform="translate(22.475 152.747151) scale(0.1 -0.1)">
       <use xlink:href="#NotoSansCJKjp-Regular-30"/>
       <use xlink:href="#NotoSansCJKjp-Regular-2e" transform="translate(55.499985 0)"/>
       <use xlink:href="#NotoSansCJKjp-Regular-30" transform="translate(83.299973 0)"/>
       <use xlink:href="#NotoSansCJKjp-Regular-37" transform="translate(138.799957 0)"/>
      </g>
     </g>
    </g>
    <g id="ytick_6">
     <g id="line2d_6">
      <path d="M 48.904688 114.37052 
L 693.554688 114.37052 
" clip-path="url(#pdeb1f10b99)" style="fill: none; stroke: #808080; stroke-opacity: 0.3; stroke-width: 0.4; stroke-linecap: round"/>
     </g>
     <g id="text_16">
      <!-- 0.08 -->
      <g transform="translate(22.475 118.350207) scale(0.1 -0.1)">
       <defs>
        <path id="NotoSansCJKjp-Regular-38" d="M 1786 -83 
C 2669 -83 3258 448 3258 1133 
C 3258 1773 2874 2125 2464 2362 
L 2464 2394 
C 2746 2611 3091 3034 3091 3526 
C 3091 4250 2605 4762 1805 4762 
C 1075 4762 518 4288 518 3571 
C 518 3078 806 2726 1152 2490 
L 1152 2458 
C 723 2227 288 1792 288 1165 
C 288 442 922 -83 1786 -83 
z
M 2106 2547 
C 1555 2765 1050 3008 1050 3571 
C 1050 4026 1363 4333 1798 4333 
C 2304 4333 2592 3955 2592 3494 
C 2592 3149 2426 2829 2106 2547 
z
M 1798 352 
C 1235 352 819 717 819 1216 
C 819 1664 1082 2035 1459 2278 
C 2125 2010 2701 1773 2701 1146 
C 2701 678 2336 352 1798 352 
z
" transform="scale(0.015625)"/>
       </defs>
       <use xlink:href="#NotoSansCJKjp-Regular-30"/>
       <use xlink:href="#NotoSansCJKjp-Regular-2e" transform="translate(55.499985 0)"/>
       <use xlink:href="#NotoSansCJKjp-Regular-30" transform="translate(83.299973 0)"/>
       <use xlink:href="#NotoSansCJKjp-Regular-38" transform="translate(138.799957 0)"/>
      </g>
     </g>
    </g>
    <g id="ytick_7">
     <g id="line2d_7">
      <path d="M 48.904688 79.973576 
L 693.554688 79.973576 
" clip-path="url(#pdeb1f10b99)" style="fill: none; stroke: #808080; stroke-opacity: 0.3; stroke-width: 0.4; stroke-linecap: round"/>
     </g>
     <g id="text_17">
      <!-- 0.09 -->
      <g transform="translate(22.475 83.953263) scale(0.1 -0.1)">
       <use xlink:href="#NotoSansCJKjp-Regular-30"/>
       <use xlink:href="#NotoSansCJKjp-Regular-2e" transform="translate(55.499985 0)"/>
       <use xlink:href="#NotoSansCJKjp-Regular-30" transform="translate(83.299973 0)"/>
       <use xlink:href="#NotoSansCJKjp-Regular-39" transform="translate(138.799957 0)"/>
      </g>
     </g>
    </g>
    <g id="ytick_8">
     <g id="line2d_8">
      <path d="M 48.904688 45.576632 
L 693.554688 45.576632 
" clip-path="url(#pdeb1f10b99)" style="fill: none; stroke: #808080; stroke-opacity: 0.3; stroke-width: 0.4; stroke-linecap: round"/>
     </g>
     <g id="text_18">
      <!-- 0.10 -->
      <g transform="translate(22.475 49.556319) scale(0.1 -0.1)">
       <use xlink:href="#NotoSansCJKjp-Regular-30"/>
       <use xlink:href="#NotoSansCJKjp-Regular-2e" transform="translate(55.499985 0)"/>
       <use xlink:href="#NotoSansCJKjp-Regular-31" transform="translate(83.299973 0)"/>
       <use xlink:href="#NotoSansCJKjp-Regular-30" transform="translate(138.799957 0)"/>
      </g>
     </g>
    </g>
    <g id="ytick_9">
     <g id="line2d_9">
      <path d="M 48.904688 11.179687 
L 693.554688 11.179687 
" clip-path="url(#pdeb1f10b99)" style="fill: none; stroke: #808080; stroke-opacity: 0.3; stroke-width: 0.4; stroke-linecap: round"/>
     </g>
     <g id="text_19">
      <!-- 0.11 -->
      <g transform="translate(22.475 15.159375) scale(0.1 -0.1)">
       <use xlink:href="#NotoSansCJKjp-Regular-30"/>
       <use xlink:href="#NotoSansCJKjp-Regular-2e" transform="translate(55.499985 0)"/>
       <use xlink:href="#NotoSansCJKjp-Regular-31" transform="translate(83.299973 0)"/>
       <use xlink:href="#NotoSansCJKjp-Regular-31" transform="translate(138.799957 0)"/>
      </g>
     </g>
    </g>
    <g id="text_20">
     <!-- Genderedness -->
     <g transform="translate(15.955312 196.883248) rotate(-90) scale(0.11 -0.11)">
      <defs>
       <path id="NotoSansCJKjp-Regular-47" d="M 2483 -83 
C 3117 -83 3635 147 3936 461 
L 3936 2432 
L 2400 2432 
L 2400 1939 
L 3392 1939 
L 3392 710 
C 3206 538 2880 435 2547 435 
C 1536 435 979 1178 979 2362 
C 979 3533 1594 4262 2534 4262 
C 3014 4262 3315 4064 3552 3814 
L 3872 4198 
C 3603 4486 3174 4781 2522 4781 
C 1280 4781 371 3859 371 2342 
C 371 819 1254 -83 2483 -83 
z
" transform="scale(0.015625)"/>
       <path id="NotoSansCJKjp-Regular-6e" d="M 589 0 
L 1171 0 
L 1171 2522 
C 1523 2874 1766 3053 2125 3053 
C 2586 3053 2784 2778 2784 2125 
L 2784 0 
L 3366 0 
L 3366 2202 
C 3366 3091 3034 3565 2304 3565 
C 1830 3565 1472 3302 1139 2976 
L 1120 2976 
L 1069 3475 
L 589 3475 
L 589 0 
z
" transform="scale(0.015625)"/>
       <path id="NotoSansCJKjp-Regular-64" d="M 1773 -83 
C 2189 -83 2554 141 2829 410 
L 2848 410 
L 2899 0 
L 3373 0 
L 3373 5094 
L 2797 5094 
L 2797 3757 
L 2822 3155 
C 2515 3411 2253 3565 1843 3565 
C 1050 3565 339 2861 339 1734 
C 339 576 902 -83 1773 -83 
z
M 1901 403 
C 1286 403 941 902 941 1741 
C 941 2534 1382 3072 1946 3072 
C 2234 3072 2496 2970 2797 2707 
L 2797 883 
C 2502 563 2221 403 1901 403 
z
" transform="scale(0.015625)"/>
       <path id="NotoSansCJKjp-Regular-73" d="M 1498 -83 
C 2317 -83 2765 384 2765 947 
C 2765 1606 2208 1811 1702 2003 
C 1312 2150 954 2272 954 2605 
C 954 2874 1158 3104 1600 3104 
C 1907 3104 2150 2976 2387 2797 
L 2669 3174 
C 2400 3386 2022 3565 1594 3565 
C 838 3565 390 3130 390 2579 
C 390 1990 922 1754 1408 1574 
C 1792 1427 2202 1274 2202 915 
C 2202 614 1978 371 1517 371 
C 1101 371 787 538 486 781 
L 198 397 
C 531 122 1005 -83 1498 -83 
z
" transform="scale(0.015625)"/>
      </defs>
      <use xlink:href="#NotoSansCJKjp-Regular-47"/>
      <use xlink:href="#NotoSansCJKjp-Regular-65" transform="translate(68.899994 0)"/>
      <use xlink:href="#NotoSansCJKjp-Regular-6e" transform="translate(124.299988 0)"/>
      <use xlink:href="#NotoSansCJKjp-Regular-64" transform="translate(185.399979 0)"/>
      <use xlink:href="#NotoSansCJKjp-Regular-65" transform="translate(247.399963 0)"/>
      <use xlink:href="#NotoSansCJKjp-Regular-72" transform="translate(302.799957 0)"/>
      <use xlink:href="#NotoSansCJKjp-Regular-65" transform="translate(341.599945 0)"/>
      <use xlink:href="#NotoSansCJKjp-Regular-64" transform="translate(396.999939 0)"/>
      <use xlink:href="#NotoSansCJKjp-Regular-6e" transform="translate(458.999924 0)"/>
      <use xlink:href="#NotoSansCJKjp-Regular-65" transform="translate(520.099915 0)"/>
      <use xlink:href="#NotoSansCJKjp-Regular-73" transform="translate(575.499908 0)"/>
      <use xlink:href="#NotoSansCJKjp-Regular-73" transform="translate(622.299896 0)"/>
     </g>
    </g>
   </g>
   <g id="line2d_10">
    <path d="M 78.20696 243.986498 
L 82.126997 251.604079 
L 86.047033 258.73721 
L 89.96707 265.182077 
L 91.927088 268.08272 
L 93.887106 270.734866 
L 95.847124 273.11304 
L 97.807143 275.191764 
L 99.767161 276.945562 
L 101.727179 278.348957 
L 103.687197 279.376472 
L 105.647216 280.002631 
L 107.607234 280.2024 
L 111.52727 280.008326 
L 115.447307 279.472877 
L 119.367343 278.637465 
L 123.28738 277.543504 
L 127.207416 276.232407 
L 133.087471 273.94922 
L 137.007508 272.273044 
L 138.967526 271.016404 
L 140.927544 269.166641 
L 142.887562 266.825776 
L 144.84758 264.095831 
L 148.767617 257.876781 
L 154.647672 248.180622 
L 156.60769 245.258631 
L 158.567708 242.661706 
L 160.527726 240.491867 
L 162.487745 238.851135 
L 164.447763 237.841532 
L 166.407781 237.556601 
L 170.327818 237.712755 
L 174.247854 238.11002 
L 178.167891 238.705796 
L 184.047945 239.878476 
L 191.888018 241.739228 
L 195.808055 242.705207 
L 197.768073 243.31253 
L 199.728091 244.081339 
L 203.648128 245.98013 
L 215.408237 252.346687 
L 217.368255 253.181885 
L 219.328274 253.870349 
L 221.288292 254.381257 
L 223.24831 254.683788 
L 225.208328 254.75006 
L 227.168347 254.627089 
L 229.128365 254.356334 
L 233.048401 253.45042 
L 236.968438 252.190227 
L 250.688566 247.269395 
L 254.608602 246.365719 
L 258.528639 245.738215 
L 264.408693 245.026889 
L 274.208784 243.933527 
L 278.128821 243.346108 
L 282.048857 242.579157 
L 284.008876 242.09233 
L 285.968894 241.338323 
L 287.928912 240.293825 
L 289.88893 238.995535 
L 291.848949 237.480156 
L 295.768985 233.944934 
L 299.689022 229.981771 
L 305.569076 223.876907 
L 309.489113 220.128434 
L 311.449131 218.460732 
L 315.369168 215.592405 
L 319.289204 213.055487 
L 327.129277 208.404637 
L 333.009332 204.775781 
L 336.929368 202.046281 
L 340.849405 198.917215 
L 342.809423 197.147882 
L 344.769441 195.126562 
L 346.729459 192.862728 
L 350.649496 187.7416 
L 354.569532 182.052666 
L 366.329642 164.260711 
L 370.249678 158.982235 
L 374.169715 154.00755 
L 378.089751 148.525036 
L 383.969806 140.123599 
L 387.889843 134.987424 
L 389.849861 132.708745 
L 391.809879 130.68966 
L 393.769897 128.980159 
L 395.729916 127.630234 
L 397.689934 126.689875 
L 399.649952 126.209074 
L 401.60997 126.177933 
L 403.569989 126.322474 
L 407.490025 126.945724 
L 411.410061 127.881728 
L 421.210153 130.544202 
L 425.130189 131.319845 
L 427.090207 131.56598 
L 429.050226 131.691099 
L 431.010244 131.652398 
L 432.970262 131.355752 
L 434.93028 130.81638 
L 436.890299 130.06091 
L 438.850317 129.11597 
L 440.810335 128.008188 
L 444.730372 125.410612 
L 448.650408 122.48121 
L 456.490481 116.479031 
L 466.290572 109.500464 
L 474.130645 103.269104 
L 481.970718 97.072195 
L 485.890755 94.19726 
L 489.810791 91.57409 
L 495.690846 87.96623 
L 503.530919 83.501728 
L 517.251047 75.80275 
L 521.171083 73.373941 
L 527.051138 69.344355 
L 534.891211 63.952271 
L 538.811247 61.551129 
L 542.731284 59.526245 
L 544.691302 58.697008 
L 546.65132 58.012364 
L 550.571357 56.946975 
L 556.451411 55.67958 
L 564.291484 54.341261 
L 574.091576 52.676652 
L 581.931649 51.014658 
L 593.691758 48.32219 
L 605.451867 45.417154 
L 609.371904 44.312124 
L 615.251959 42.374236 
L 623.092032 39.727854 
L 627.012068 38.575679 
L 630.932105 37.654736 
L 634.852141 37.052944 
L 646.612251 35.967125 
L 654.452324 35.460398 
L 662.292397 35.216413 
L 664.252415 35.205418 
L 664.252415 35.205418 
" clip-path="url(#pdeb1f10b99)" style="fill: none; stroke: #ff7f0e; stroke-width: 2.5; stroke-linecap: round"/>
   </g>
   <g id="line2d_11">
    <path d="M 78.20696 235.914972 
L 82.126997 233.303685 
L 86.047033 230.905326 
L 89.96707 228.774044 
L 93.887106 226.96399 
L 97.807143 225.529314 
L 101.727179 224.524168 
L 103.687197 224.19959 
L 105.647216 224.0027 
L 107.607234 223.94024 
L 111.52727 224.16744 
L 115.447307 224.740337 
L 121.327362 225.969079 
L 127.207416 227.258756 
L 131.127453 227.939983 
L 135.047489 228.329677 
L 138.967526 228.342622 
L 142.887562 228.124994 
L 146.807599 227.734243 
L 152.687653 226.899306 
L 160.527726 225.503523 
L 168.367799 223.945369 
L 172.287836 222.723909 
L 176.207872 221.218884 
L 184.047945 218.062678 
L 187.967982 216.763768 
L 189.928 216.261171 
L 191.888018 215.885834 
L 193.848037 215.659775 
L 195.808055 215.604795 
L 197.768073 215.724672 
L 199.728091 215.996642 
L 203.648128 216.899912 
L 207.568164 218.1207 
L 215.408237 220.739213 
L 219.328274 221.74913 
L 221.288292 222.09442 
L 223.24831 222.300948 
L 227.168347 222.288978 
L 231.088383 221.964151 
L 235.00842 221.415396 
L 240.888474 220.310645 
L 254.608602 217.522337 
L 264.408693 215.689194 
L 280.088839 212.728475 
L 287.928912 211.516303 
L 301.64904 209.753854 
L 311.449131 208.381499 
L 315.369168 207.678541 
L 319.289204 206.762034 
L 333.009332 203.262126 
L 336.929368 202.598989 
L 340.849405 202.272358 
L 344.769441 202.295073 
L 350.649496 202.577916 
L 368.28966 203.727652 
L 372.209697 203.758119 
L 376.129733 203.487677 
L 380.04977 202.929657 
L 385.929824 201.748315 
L 395.729916 199.603715 
L 399.649952 198.944246 
L 405.530007 198.275862 
L 417.290116 197.28834 
L 425.130189 196.52241 
L 431.010244 195.695315 
L 434.93028 194.870396 
L 438.850317 193.806375 
L 442.770353 192.548404 
L 448.650408 190.396565 
L 458.450499 186.480098 
L 460.410518 185.658875 
L 462.370536 184.688377 
L 466.290572 182.386943 
L 478.050682 174.81376 
L 480.0107 173.776985 
L 481.970718 172.886639 
L 483.930736 172.173482 
L 485.890755 171.668273 
L 487.850773 171.401769 
L 497.650864 171.153675 
L 513.33101 170.962661 
L 519.211065 170.982809 
L 523.131101 171.320193 
L 527.051138 171.937661 
L 540.771265 174.592836 
L 544.691302 175.003576 
L 548.611338 175.063438 
L 554.491393 174.774692 
L 562.331466 174.067478 
L 570.171539 173.383747 
L 576.051594 173.143431 
L 613.29194 172.858544 
L 632.892123 172.010728 
L 638.772178 172.049346 
L 644.652232 172.321712 
L 650.532287 172.794988 
L 658.37236 173.678768 
L 664.252415 174.486323 
L 664.252415 174.486323 
" clip-path="url(#pdeb1f10b99)" style="fill: none; stroke: #9467bd; stroke-width: 2.5; stroke-linecap: round"/>
   </g>
   <g id="line2d_12">
    <path d="M 78.20696 298.218359 
L 664.252415 21.946104 
" clip-path="url(#pdeb1f10b99)" style="fill: none; stroke: #ff7f0e; stroke-opacity: 0.85; stroke-width: 1.5; stroke-linecap: round"/>
   </g>
   <g id="line2d_13">
    <path d="M 78.20696 234.053472 
L 664.252415 164.582963 
" clip-path="url(#pdeb1f10b99)" style="fill: none; stroke: #9467bd; stroke-opacity: 0.85; stroke-width: 1.5; stroke-linecap: round"/>
   </g>
   <g id="PathCollection_1">
    <defs>
     <path id="ma1638bebaa" d="M 0 2.12132 
C 0.562581 2.12132 1.102195 1.897805 1.5 1.5 
C 1.897805 1.102195 2.12132 0.562581 2.12132 0 
C 2.12132 -0.562581 1.897805 -1.102195 1.5 -1.5 
C 1.102195 -1.897805 0.562581 -2.12132 0 -2.12132 
C -0.562581 -2.12132 -1.102195 -1.897805 -1.5 -1.5 
C -1.897805 -1.102195 -2.12132 -0.562581 -2.12132 0 
C -2.12132 0.562581 -1.897805 1.102195 -1.5 1.5 
C -1.102195 1.897805 -0.562581 2.12132 0 2.12132 
z
" style="stroke: #ffffff; stroke-width: 1.2"/>
    </defs>
    <g clip-path="url(#pdeb1f10b99)">
     <use xlink:href="#ma1638bebaa" x="78.20696" y="243.986498" style="fill: #ff7f0e; stroke: #ffffff; stroke-width: 1.2"/>
     <use xlink:href="#ma1638bebaa" x="107.509233" y="280.20252" style="fill: #ff7f0e; stroke: #ffffff; stroke-width: 1.2"/>
     <use xlink:href="#ma1638bebaa" x="136.811506" y="272.362159" style="fill: #ff7f0e; stroke: #ffffff; stroke-width: 1.2"/>
     <use xlink:href="#ma1638bebaa" x="166.113778" y="237.555797" style="fill: #ff7f0e; stroke: #ffffff; stroke-width: 1.2"/>
     <use xlink:href="#ma1638bebaa" x="195.416051" y="242.605833" style="fill: #ff7f0e; stroke: #ffffff; stroke-width: 1.2"/>
     <use xlink:href="#ma1638bebaa" x="224.718324" y="254.755397" style="fill: #ff7f0e; stroke: #ffffff; stroke-width: 1.2"/>
     <use xlink:href="#ma1638bebaa" x="254.020597" y="246.475185" style="fill: #ff7f0e; stroke: #ffffff; stroke-width: 1.2"/>
     <use xlink:href="#ma1638bebaa" x="283.322869" y="242.280811" style="fill: #ff7f0e; stroke: #ffffff; stroke-width: 1.2"/>
     <use xlink:href="#ma1638bebaa" x="312.625142" y="217.547342" style="fill: #ff7f0e; stroke: #ffffff; stroke-width: 1.2"/>
     <use xlink:href="#ma1638bebaa" x="341.927415" y="197.969425" style="fill: #ff7f0e; stroke: #ffffff; stroke-width: 1.2"/>
     <use xlink:href="#ma1638bebaa" x="371.229688" y="157.772927" style="fill: #ff7f0e; stroke: #ffffff; stroke-width: 1.2"/>
     <use xlink:href="#ma1638bebaa" x="400.53196" y="126.155964" style="fill: #ff7f0e; stroke: #ffffff; stroke-width: 1.2"/>
     <use xlink:href="#ma1638bebaa" x="429.834233" y="131.702799" style="fill: #ff7f0e; stroke: #ffffff; stroke-width: 1.2"/>
     <use xlink:href="#ma1638bebaa" x="459.136506" y="114.645744" style="fill: #ff7f0e; stroke: #ffffff; stroke-width: 1.2"/>
     <use xlink:href="#ma1638bebaa" x="488.438778" y="92.463422" style="fill: #ff7f0e; stroke: #ffffff; stroke-width: 1.2"/>
     <use xlink:href="#ma1638bebaa" x="517.741051" y="75.514625" style="fill: #ff7f0e; stroke: #ffffff; stroke-width: 1.2"/>
     <use xlink:href="#ma1638bebaa" x="547.043324" y="57.894268" style="fill: #ff7f0e; stroke: #ffffff; stroke-width: 1.2"/>
     <use xlink:href="#ma1638bebaa" x="576.345597" y="52.221091" style="fill: #ff7f0e; stroke: #ffffff; stroke-width: 1.2"/>
     <use xlink:href="#ma1638bebaa" x="605.647869" y="45.366897" style="fill: #ff7f0e; stroke: #ffffff; stroke-width: 1.2"/>
     <use xlink:href="#ma1638bebaa" x="634.950142" y="37.042749" style="fill: #ff7f0e; stroke: #ffffff; stroke-width: 1.2"/>
     <use xlink:href="#ma1638bebaa" x="664.252415" y="35.205418" style="fill: #ff7f0e; stroke: #ffffff; stroke-width: 1.2"/>
    </g>
   </g>
   <g id="PathCollection_2">
    <defs>
     <path id="meccfcd7d89" d="M 0 2.12132 
C 0.562581 2.12132 1.102195 1.897805 1.5 1.5 
C 1.897805 1.102195 2.12132 0.562581 2.12132 0 
C 2.12132 -0.562581 1.897805 -1.102195 1.5 -1.5 
C 1.102195 -1.897805 0.562581 -2.12132 0 -2.12132 
C -0.562581 -2.12132 -1.102195 -1.897805 -1.5 -1.5 
C -1.897805 -1.102195 -2.12132 -0.562581 -2.12132 0 
C -2.12132 0.562581 -1.897805 1.102195 -1.5 1.5 
C -1.102195 1.897805 -0.562581 2.12132 0 2.12132 
z
" style="stroke: #ffffff; stroke-width: 1.2"/>
    </defs>
    <g clip-path="url(#pdeb1f10b99)">
     <use xlink:href="#meccfcd7d89" x="78.20696" y="235.914972" style="fill: #9467bd; stroke: #ffffff; stroke-width: 1.2"/>
     <use xlink:href="#meccfcd7d89" x="107.509233" y="223.940092" style="fill: #9467bd; stroke: #ffffff; stroke-width: 1.2"/>
     <use xlink:href="#meccfcd7d89" x="136.811506" y="228.37597" style="fill: #9467bd; stroke: #ffffff; stroke-width: 1.2"/>
     <use xlink:href="#meccfcd7d89" x="166.113778" y="224.450849" style="fill: #9467bd; stroke: #ffffff; stroke-width: 1.2"/>
     <use xlink:href="#meccfcd7d89" x="195.416051" y="215.601203" style="fill: #9467bd; stroke: #ffffff; stroke-width: 1.2"/>
     <use xlink:href="#meccfcd7d89" x="224.718324" y="222.350201" style="fill: #9467bd; stroke: #ffffff; stroke-width: 1.2"/>
     <use xlink:href="#meccfcd7d89" x="254.020597" y="217.624345" style="fill: #9467bd; stroke: #ffffff; stroke-width: 1.2"/>
     <use xlink:href="#meccfcd7d89" x="283.322869" y="212.19695" style="fill: #9467bd; stroke: #ffffff; stroke-width: 1.2"/>
     <use xlink:href="#meccfcd7d89" x="312.625142" y="208.192938" style="fill: #9467bd; stroke: #ffffff; stroke-width: 1.2"/>
     <use xlink:href="#meccfcd7d89" x="341.927415" y="202.255075" style="fill: #9467bd; stroke: #ffffff; stroke-width: 1.2"/>
     <use xlink:href="#meccfcd7d89" x="371.229688" y="203.770354" style="fill: #9467bd; stroke: #ffffff; stroke-width: 1.2"/>
     <use xlink:href="#meccfcd7d89" x="400.53196" y="198.826733" style="fill: #9467bd; stroke: #ffffff; stroke-width: 1.2"/>
     <use xlink:href="#meccfcd7d89" x="429.834233" y="195.889415" style="fill: #9467bd; stroke: #ffffff; stroke-width: 1.2"/>
     <use xlink:href="#meccfcd7d89" x="459.136506" y="186.205202" style="fill: #9467bd; stroke: #ffffff; stroke-width: 1.2"/>
     <use xlink:href="#meccfcd7d89" x="488.438778" y="171.372964" style="fill: #9467bd; stroke: #ffffff; stroke-width: 1.2"/>
     <use xlink:href="#meccfcd7d89" x="517.741051" y="170.952695" style="fill: #9467bd; stroke: #ffffff; stroke-width: 1.2"/>
     <use xlink:href="#meccfcd7d89" x="547.043324" y="175.079065" style="fill: #9467bd; stroke: #ffffff; stroke-width: 1.2"/>
     <use xlink:href="#meccfcd7d89" x="576.345597" y="173.141306" style="fill: #9467bd; stroke: #ffffff; stroke-width: 1.2"/>
     <use xlink:href="#meccfcd7d89" x="605.647869" y="173.059486" style="fill: #9467bd; stroke: #ffffff; stroke-width: 1.2"/>
     <use xlink:href="#meccfcd7d89" x="634.950142" y="171.99643" style="fill: #9467bd; stroke: #ffffff; stroke-width: 1.2"/>
     <use xlink:href="#meccfcd7d89" x="664.252415" y="174.486323" style="fill: #9467bd; stroke: #ffffff; stroke-width: 1.2"/>
    </g>
   </g>
   <g id="legend_1">
    <g id="line2d_14">
     <path d="M 57.904688 21.591867 
L 67.904687 21.591867 
L 77.904687 21.591867 
" style="fill: none; stroke: #ff7f0e; stroke-width: 2.5; stroke-linecap: round"/>
    </g>
    <g id="text_21">
     <!-- Male -->
     <g transform="translate(85.904687 25.091867) scale(0.1 -0.1)">
      <defs>
       <path id="NotoSansCJKjp-Regular-4d" d="M 640 0 
L 1178 0 
L 1178 2598 
C 1178 3002 1133 3571 1107 3981 
L 1133 3981 
L 1504 2912 
L 2394 474 
L 2790 474 
L 3680 2912 
L 4051 3981 
L 4077 3981 
C 4045 3571 4000 3002 4000 2598 
L 4000 0 
L 4557 0 
L 4557 4698 
L 3840 4698 
L 2944 2182 
C 2835 1856 2733 1530 2624 1203 
L 2592 1203 
C 2477 1530 2368 1856 2259 2182 
L 1357 4698 
L 640 4698 
L 640 0 
z
" transform="scale(0.015625)"/>
       <path id="NotoSansCJKjp-Regular-6c" d="M 1203 -83 
C 1363 -83 1459 -64 1542 -32 
L 1459 416 
C 1395 403 1370 403 1338 403 
C 1248 403 1171 474 1171 653 
L 1171 5094 
L 589 5094 
L 589 691 
C 589 198 768 -83 1203 -83 
z
" transform="scale(0.015625)"/>
      </defs>
      <use xlink:href="#NotoSansCJKjp-Regular-4d"/>
      <use xlink:href="#NotoSansCJKjp-Regular-61" transform="translate(81.199982 0)"/>
      <use xlink:href="#NotoSansCJKjp-Regular-6c" transform="translate(137.599976 0)"/>
      <use xlink:href="#NotoSansCJKjp-Regular-65" transform="translate(166.09996 0)"/>
     </g>
    </g>
    <g id="line2d_15">
     <path d="M 57.904688 36.841867 
L 67.904687 36.841867 
L 77.904687 36.841867 
" style="fill: none; stroke: #9467bd; stroke-width: 2.5; stroke-linecap: round"/>
    </g>
    <g id="text_22">
     <!-- Female -->
     <g transform="translate(85.904687 40.341867) scale(0.1 -0.1)">
      <defs>
       <path id="NotoSansCJKjp-Regular-46" d="M 640 0 
L 1235 0 
L 1235 2106 
L 3027 2106 
L 3027 2605 
L 1235 2605 
L 1235 4192 
L 3347 4192 
L 3347 4698 
L 640 4698 
L 640 0 
z
" transform="scale(0.015625)"/>
       <path id="NotoSansCJKjp-Regular-6d" d="M 589 0 
L 1171 0 
L 1171 2522 
C 1491 2880 1786 3053 2048 3053 
C 2490 3053 2694 2778 2694 2125 
L 2694 0 
L 3277 0 
L 3277 2522 
C 3603 2880 3885 3053 4154 3053 
C 4595 3053 4800 2778 4800 2125 
L 4800 0 
L 5382 0 
L 5382 2202 
C 5382 3091 5043 3565 4326 3565 
C 3904 3565 3539 3290 3181 2899 
C 3040 3309 2752 3565 2221 3565 
C 1805 3565 1440 3302 1139 2970 
L 1120 2970 
L 1069 3475 
L 589 3475 
L 589 0 
z
" transform="scale(0.015625)"/>
      </defs>
      <use xlink:href="#NotoSansCJKjp-Regular-46"/>
      <use xlink:href="#NotoSansCJKjp-Regular-65" transform="translate(55.199997 0)"/>
      <use xlink:href="#NotoSansCJKjp-Regular-6d" transform="translate(110.599991 0)"/>
      <use xlink:href="#NotoSansCJKjp-Regular-61" transform="translate(203.199982 0)"/>
      <use xlink:href="#NotoSansCJKjp-Regular-6c" transform="translate(259.599976 0)"/>
      <use xlink:href="#NotoSansCJKjp-Regular-65" transform="translate(288.09996 0)"/>
     </g>
    </g>
   </g>
  </g>
 </g>
 <defs>
  <clipPath id="pdeb1f10b99">
   <rect x="48.904688" y="8.132492" width="644.65" height="303.89948"/>
  </clipPath>
 </defs>
</svg>
