<?xml version="1.0" encoding="utf-8" standalone="no"?>
<!DOCTYPE svg PUBLIC "-//W3C//DTD SVG 1.1//EN"
  "http://www.w3.org/Graphics/SVG/1.1/DTD/svg11.dtd">
<svg xmlns:xlink="http://www.w3.org/1999/xlink" width="313.657544pt" height="216.6575pt" viewBox="0 0 313.657544 216.6575" xmlns="http://www.w3.org/2000/svg" version="1.1">
 <metadata>
  <rdf:RDF xmlns:dc="http://purl.org/dc/elements/1.1/" xmlns:cc="http://creativecommons.org/ns#" xmlns:rdf="http://www.w3.org/1999/02/22-rdf-syntax-ns#">
   <cc:Work>
    <dc:type rdf:resource="http://purl.org/dc/dcmitype/StillImage"/>
    <dc:date>2026-04-28T10:03:10.179355</dc:date>
    <dc:format>image/svg+xml</dc:format>
    <dc:creator>
     <cc:Agent>
      <dc:title>Matplotlib v3.10.7, https://matplotlib.org/</dc:title>
     </cc:Agent>
    </dc:creator>
   </cc:Work>
  </rdf:RDF>
 </metadata>
 <defs>
  <style type="text/css">*{stroke-linejoin: round; stroke-linecap: butt}</style>
 </defs>
 <g id="figure_1">
  <g id="patch_1">
   <path d="M 0 216.6575 
L 313.657544 216.6575 
L 313.657544 -0 
L 0 -0 
z
" style="fill: #ffffff"/>
  </g>
  <g id="axes_1">
   <g id="patch_2">
    <path d="M 27.62875 196.73875 
L 300.534419 196.73875 
L 300.534419 19.5125 
L 27.62875 19.5125 
z
" style="fill: #ffffff"/>
   </g>
   <g id="matplotlib.axis_1">
    <g id="xtick_1">
     <g id="line2d_1">
      <defs>
       <path id="mb6369f8f85" d="M 0 0 
L 0 3.5 
" style="stroke: #000000; stroke-width: 0.8"/>
      </defs>
      <g>
       <use xlink:href="#mb6369f8f85" x="40.033553" y="196.73875" style="stroke: #000000; stroke-width: 0.8"/>
      </g>
     </g>
     <g id="text_1">
      <!-- 1989 -->
      <g transform="translate(34.110428 208.23875) scale(0.06 -0.06)">
       <defs>
        <path id="RobotoCondensed-Regular-31" d="M 2013 4575 
L 2013 0 
L 1459 0 
L 1459 3853 
L 503 3428 
L 503 3950 
L 1928 4575 
L 2013 4575 
z
" transform="scale(0.015625)"/>
        <path id="RobotoCondensed-Regular-39" d="M 2744 2563 
Q 2744 2119 2687 1667 
Q 2631 1216 2450 836 
Q 2269 456 1903 225 
Q 1538 -6 869 -6 
L 866 484 
Q 1428 484 1698 690 
Q 1969 897 2072 1233 
Q 2175 1569 2191 1950 
Q 1859 1522 1413 1522 
Q 1025 1522 786 1747 
Q 547 1972 436 2320 
Q 325 2669 325 3041 
Q 325 3691 623 4152 
Q 922 4613 1522 4613 
Q 1969 4613 2237 4344 
Q 2506 4075 2625 3653 
Q 2744 3231 2744 2772 
L 2744 2563 
z
M 866 3072 
Q 866 2666 1020 2334 
Q 1175 2003 1506 2003 
Q 1716 2003 1906 2179 
Q 2097 2356 2194 2616 
L 2194 2850 
Q 2194 3472 1983 3803 
Q 1772 4134 1522 4134 
Q 1206 4134 1036 3829 
Q 866 3525 866 3072 
z
" transform="scale(0.015625)"/>
        <path id="RobotoCondensed-Regular-38" d="M 2794 1231 
Q 2794 606 2445 271 
Q 2097 -63 1578 -63 
Q 1063 -63 714 273 
Q 366 609 366 1231 
Q 366 1613 536 1905 
Q 706 2197 1000 2347 
Q 450 2666 450 3366 
Q 450 3963 769 4288 
Q 1088 4613 1581 4613 
Q 2075 4613 2392 4288 
Q 2709 3963 2709 3366 
Q 2709 3028 2557 2761 
Q 2406 2494 2150 2344 
Q 2444 2194 2619 1901 
Q 2794 1609 2794 1231 
z
M 2156 3356 
Q 2156 3697 2000 3917 
Q 1844 4138 1581 4138 
Q 1319 4138 1161 3927 
Q 1003 3716 1003 3356 
Q 1003 3003 1159 2790 
Q 1316 2578 1581 2578 
Q 1844 2578 2000 2790 
Q 2156 3003 2156 3356 
z
M 2244 1244 
Q 2244 1625 2061 1865 
Q 1878 2106 1575 2106 
Q 1266 2106 1091 1865 
Q 916 1625 916 1244 
Q 916 850 1089 631 
Q 1263 413 1578 413 
Q 1897 413 2070 631 
Q 2244 850 2244 1244 
z
" transform="scale(0.015625)"/>
       </defs>
       <use xlink:href="#RobotoCondensed-Regular-31"/>
       <use xlink:href="#RobotoCondensed-Regular-39" transform="translate(49.365234 0)"/>
       <use xlink:href="#RobotoCondensed-Regular-38" transform="translate(98.730469 0)"/>
       <use xlink:href="#RobotoCondensed-Regular-39" transform="translate(148.095703 0)"/>
      </g>
     </g>
    </g>
    <g id="xtick_2">
     <g id="line2d_2">
      <g>
       <use xlink:href="#mb6369f8f85" x="77.247963" y="196.73875" style="stroke: #000000; stroke-width: 0.8"/>
      </g>
     </g>
     <g id="text_2">
      <!-- 1992 -->
      <g transform="translate(71.324838 208.23875) scale(0.06 -0.06)">
       <defs>
        <path id="RobotoCondensed-Regular-32" d="M 2909 475 
L 2909 0 
L 366 0 
L 366 416 
L 1628 2088 
Q 1966 2541 2077 2802 
Q 2188 3063 2188 3328 
Q 2188 3663 2027 3900 
Q 1866 4138 1575 4138 
Q 1194 4138 1022 3878 
Q 850 3619 850 3213 
L 297 3213 
Q 297 3788 617 4200 
Q 938 4613 1575 4613 
Q 2125 4613 2433 4278 
Q 2741 3944 2741 3397 
Q 2741 2997 2541 2594 
Q 2341 2191 2047 1809 
L 1028 475 
L 2909 475 
z
" transform="scale(0.015625)"/>
       </defs>
       <use xlink:href="#RobotoCondensed-Regular-31"/>
       <use xlink:href="#RobotoCondensed-Regular-39" transform="translate(49.365234 0)"/>
       <use xlink:href="#RobotoCondensed-Regular-39" transform="translate(98.730469 0)"/>
       <use xlink:href="#RobotoCondensed-Regular-32" transform="translate(148.095703 0)"/>
      </g>
     </g>
    </g>
    <g id="xtick_3">
     <g id="line2d_3">
      <g>
       <use xlink:href="#mb6369f8f85" x="114.462372" y="196.73875" style="stroke: #000000; stroke-width: 0.8"/>
      </g>
     </g>
     <g id="text_3">
      <!-- 1995 -->
      <g transform="translate(108.539247 208.23875) scale(0.06 -0.06)">
       <defs>
        <path id="RobotoCondensed-Regular-35" d="M 1034 2166 
L 594 2284 
L 788 4550 
L 2769 4550 
L 2769 4016 
L 1253 4016 
L 1147 2778 
Q 1438 2975 1753 2975 
Q 2288 2975 2591 2561 
Q 2894 2147 2894 1450 
Q 2894 797 2584 367 
Q 2275 -63 1656 -63 
Q 1194 -63 850 248 
Q 506 559 453 1197 
L 975 1197 
Q 1066 413 1656 413 
Q 1978 413 2159 691 
Q 2341 969 2341 1444 
Q 2341 1872 2153 2164 
Q 1966 2456 1619 2456 
Q 1384 2456 1273 2378 
Q 1163 2300 1034 2166 
z
" transform="scale(0.015625)"/>
       </defs>
       <use xlink:href="#RobotoCondensed-Regular-31"/>
       <use xlink:href="#RobotoCondensed-Regular-39" transform="translate(49.365234 0)"/>
       <use xlink:href="#RobotoCondensed-Regular-39" transform="translate(98.730469 0)"/>
       <use xlink:href="#RobotoCondensed-Regular-35" transform="translate(148.095703 0)"/>
      </g>
     </g>
    </g>
    <g id="xtick_4">
     <g id="line2d_4">
      <g>
       <use xlink:href="#mb6369f8f85" x="151.676781" y="196.73875" style="stroke: #000000; stroke-width: 0.8"/>
      </g>
     </g>
     <g id="text_4">
      <!-- 1998 -->
      <g transform="translate(145.753656 208.23875) scale(0.06 -0.06)">
       <use xlink:href="#RobotoCondensed-Regular-31"/>
       <use xlink:href="#RobotoCondensed-Regular-39" transform="translate(49.365234 0)"/>
       <use xlink:href="#RobotoCondensed-Regular-39" transform="translate(98.730469 0)"/>
       <use xlink:href="#RobotoCondensed-Regular-38" transform="translate(148.095703 0)"/>
      </g>
     </g>
    </g>
    <g id="xtick_5">
     <g id="line2d_5">
      <g>
       <use xlink:href="#mb6369f8f85" x="188.891191" y="196.73875" style="stroke: #000000; stroke-width: 0.8"/>
      </g>
     </g>
     <g id="text_5">
      <!-- 2001 -->
      <g transform="translate(182.968066 208.23875) scale(0.06 -0.06)">
       <defs>
        <path id="RobotoCondensed-Regular-30" d="M 2797 1944 
Q 2797 825 2467 381 
Q 2138 -63 1581 -63 
Q 1038 -63 703 370 
Q 369 803 359 1878 
L 359 2638 
Q 359 3753 695 4183 
Q 1031 4613 1578 4613 
Q 2131 4613 2461 4189 
Q 2791 3766 2797 2681 
L 2797 1944 
z
M 2247 2734 
Q 2247 3503 2073 3822 
Q 1900 4141 1578 4141 
Q 1266 4141 1092 3833 
Q 919 3525 913 2791 
L 913 1850 
Q 913 1088 1089 750 
Q 1266 413 1581 413 
Q 1903 413 2072 738 
Q 2241 1063 2247 1794 
L 2247 2734 
z
" transform="scale(0.015625)"/>
       </defs>
       <use xlink:href="#RobotoCondensed-Regular-32"/>
       <use xlink:href="#RobotoCondensed-Regular-30" transform="translate(49.365234 0)"/>
       <use xlink:href="#RobotoCondensed-Regular-30" transform="translate(98.730469 0)"/>
       <use xlink:href="#RobotoCondensed-Regular-31" transform="translate(148.095703 0)"/>
      </g>
     </g>
    </g>
    <g id="xtick_6">
     <g id="line2d_6">
      <g>
       <use xlink:href="#mb6369f8f85" x="226.1056" y="196.73875" style="stroke: #000000; stroke-width: 0.8"/>
      </g>
     </g>
     <g id="text_6">
      <!-- 2004 -->
      <g transform="translate(220.182475 208.23875) scale(0.06 -0.06)">
       <defs>
        <path id="RobotoCondensed-Regular-34" d="M 188 1397 
L 1878 4550 
L 2463 4550 
L 2463 1531 
L 2969 1531 
L 2969 1056 
L 2463 1056 
L 2463 0 
L 1909 0 
L 1909 1056 
L 188 1056 
L 188 1397 
z
M 803 1531 
L 1909 1531 
L 1909 3703 
L 1878 3638 
L 803 1531 
z
" transform="scale(0.015625)"/>
       </defs>
       <use xlink:href="#RobotoCondensed-Regular-32"/>
       <use xlink:href="#RobotoCondensed-Regular-30" transform="translate(49.365234 0)"/>
       <use xlink:href="#RobotoCondensed-Regular-30" transform="translate(98.730469 0)"/>
       <use xlink:href="#RobotoCondensed-Regular-34" transform="translate(148.095703 0)"/>
      </g>
     </g>
    </g>
    <g id="xtick_7">
     <g id="line2d_7">
      <g>
       <use xlink:href="#mb6369f8f85" x="263.32001" y="196.73875" style="stroke: #000000; stroke-width: 0.8"/>
      </g>
     </g>
     <g id="text_7">
      <!-- 2007 -->
      <g transform="translate(257.396885 208.23875) scale(0.06 -0.06)">
       <defs>
        <path id="RobotoCondensed-Regular-37" d="M 2878 4550 
L 2878 4225 
L 1313 0 
L 731 0 
L 2297 4075 
L 269 4075 
L 269 4550 
L 2878 4550 
z
" transform="scale(0.015625)"/>
       </defs>
       <use xlink:href="#RobotoCondensed-Regular-32"/>
       <use xlink:href="#RobotoCondensed-Regular-30" transform="translate(49.365234 0)"/>
       <use xlink:href="#RobotoCondensed-Regular-30" transform="translate(98.730469 0)"/>
       <use xlink:href="#RobotoCondensed-Regular-37" transform="translate(148.095703 0)"/>
      </g>
     </g>
    </g>
    <g id="xtick_8">
     <g id="line2d_8">
      <g>
       <use xlink:href="#mb6369f8f85" x="300.534419" y="196.73875" style="stroke: #000000; stroke-width: 0.8"/>
      </g>
     </g>
     <g id="text_8">
      <!-- 2010 -->
      <g transform="translate(294.611294 208.23875) scale(0.06 -0.06)">
       <use xlink:href="#RobotoCondensed-Regular-32"/>
       <use xlink:href="#RobotoCondensed-Regular-30" transform="translate(49.365234 0)"/>
       <use xlink:href="#RobotoCondensed-Regular-31" transform="translate(98.730469 0)"/>
       <use xlink:href="#RobotoCondensed-Regular-30" transform="translate(148.095703 0)"/>
      </g>
     </g>
    </g>
   </g>
   <g id="matplotlib.axis_2">
    <g id="ytick_1">
     <g id="line2d_9">
      <defs>
       <path id="mb262a78ed4" d="M 0 0 
L -3.5 0 
" style="stroke: #000000; stroke-width: 0.8"/>
      </defs>
      <g>
       <use xlink:href="#mb262a78ed4" x="27.62875" y="178.425761" style="stroke: #000000; stroke-width: 0.8"/>
      </g>
     </g>
     <g id="text_9">
      <!-- 0.935 -->
      <g transform="translate(7.2 180.675761) scale(0.06 -0.06)">
       <defs>
        <path id="RobotoCondensed-Regular-2e" d="M 450 306 
Q 450 453 542 554 
Q 634 656 809 656 
Q 984 656 1076 554 
Q 1169 453 1169 306 
Q 1169 163 1076 62 
Q 984 -38 809 -38 
Q 634 -38 542 62 
Q 450 163 450 306 
z
" transform="scale(0.015625)"/>
        <path id="RobotoCondensed-Regular-33" d="M 1075 2084 
L 1075 2559 
L 1431 2559 
Q 1788 2559 1961 2781 
Q 2134 3003 2134 3338 
Q 2134 4138 1519 4138 
Q 1228 4138 1054 3927 
Q 881 3716 881 3359 
L 331 3359 
Q 331 3881 653 4247 
Q 975 4613 1519 4613 
Q 2038 4613 2363 4286 
Q 2688 3959 2688 3325 
Q 2688 3072 2550 2786 
Q 2413 2500 2100 2338 
Q 2484 2194 2612 1886 
Q 2741 1578 2741 1269 
Q 2741 631 2389 284 
Q 2038 -63 1516 -63 
Q 1006 -63 656 267 
Q 306 597 306 1203 
L 859 1203 
Q 859 844 1032 628 
Q 1206 413 1516 413 
Q 1822 413 2005 622 
Q 2188 831 2188 1256 
Q 2188 2084 1403 2084 
L 1075 2084 
z
" transform="scale(0.015625)"/>
       </defs>
       <use xlink:href="#RobotoCondensed-Regular-30"/>
       <use xlink:href="#RobotoCondensed-Regular-2e" transform="translate(49.365234 0)"/>
       <use xlink:href="#RobotoCondensed-Regular-39" transform="translate(75.732422 0)"/>
       <use xlink:href="#RobotoCondensed-Regular-33" transform="translate(125.097656 0)"/>
       <use xlink:href="#RobotoCondensed-Regular-35" transform="translate(174.462891 0)"/>
      </g>
     </g>
    </g>
    <g id="ytick_2">
     <g id="line2d_10">
      <g>
       <use xlink:href="#mb262a78ed4" x="27.62875" y="151.184378" style="stroke: #000000; stroke-width: 0.8"/>
      </g>
     </g>
     <g id="text_10">
      <!-- 0.940 -->
      <g transform="translate(7.2 153.434378) scale(0.06 -0.06)">
       <use xlink:href="#RobotoCondensed-Regular-30"/>
       <use xlink:href="#RobotoCondensed-Regular-2e" transform="translate(49.365234 0)"/>
       <use xlink:href="#RobotoCondensed-Regular-39" transform="translate(75.732422 0)"/>
       <use xlink:href="#RobotoCondensed-Regular-34" transform="translate(125.097656 0)"/>
       <use xlink:href="#RobotoCondensed-Regular-30" transform="translate(174.462891 0)"/>
      </g>
     </g>
    </g>
    <g id="ytick_3">
     <g id="line2d_11">
      <g>
       <use xlink:href="#mb262a78ed4" x="27.62875" y="123.942995" style="stroke: #000000; stroke-width: 0.8"/>
      </g>
     </g>
     <g id="text_11">
      <!-- 0.945 -->
      <g transform="translate(7.2 126.192995) scale(0.06 -0.06)">
       <use xlink:href="#RobotoCondensed-Regular-30"/>
       <use xlink:href="#RobotoCondensed-Regular-2e" transform="translate(49.365234 0)"/>
       <use xlink:href="#RobotoCondensed-Regular-39" transform="translate(75.732422 0)"/>
       <use xlink:href="#RobotoCondensed-Regular-34" transform="translate(125.097656 0)"/>
       <use xlink:href="#RobotoCondensed-Regular-35" transform="translate(174.462891 0)"/>
      </g>
     </g>
    </g>
    <g id="ytick_4">
     <g id="line2d_12">
      <g>
       <use xlink:href="#mb262a78ed4" x="27.62875" y="96.701611" style="stroke: #000000; stroke-width: 0.8"/>
      </g>
     </g>
     <g id="text_12">
      <!-- 0.950 -->
      <g transform="translate(7.2 98.951611) scale(0.06 -0.06)">
       <use xlink:href="#RobotoCondensed-Regular-30"/>
       <use xlink:href="#RobotoCondensed-Regular-2e" transform="translate(49.365234 0)"/>
       <use xlink:href="#RobotoCondensed-Regular-39" transform="translate(75.732422 0)"/>
       <use xlink:href="#RobotoCondensed-Regular-35" transform="translate(125.097656 0)"/>
       <use xlink:href="#RobotoCondensed-Regular-30" transform="translate(174.462891 0)"/>
      </g>
     </g>
    </g>
    <g id="ytick_5">
     <g id="line2d_13">
      <g>
       <use xlink:href="#mb262a78ed4" x="27.62875" y="69.460228" style="stroke: #000000; stroke-width: 0.8"/>
      </g>
     </g>
     <g id="text_13">
      <!-- 0.955 -->
      <g transform="translate(7.2 71.710228) scale(0.06 -0.06)">
       <use xlink:href="#RobotoCondensed-Regular-30"/>
       <use xlink:href="#RobotoCondensed-Regular-2e" transform="translate(49.365234 0)"/>
       <use xlink:href="#RobotoCondensed-Regular-39" transform="translate(75.732422 0)"/>
       <use xlink:href="#RobotoCondensed-Regular-35" transform="translate(125.097656 0)"/>
       <use xlink:href="#RobotoCondensed-Regular-35" transform="translate(174.462891 0)"/>
      </g>
     </g>
    </g>
    <g id="ytick_6">
     <g id="line2d_14">
      <g>
       <use xlink:href="#mb262a78ed4" x="27.62875" y="42.218845" style="stroke: #000000; stroke-width: 0.8"/>
      </g>
     </g>
     <g id="text_14">
      <!-- 0.960 -->
      <g transform="translate(7.2 44.468845) scale(0.06 -0.06)">
       <defs>
        <path id="RobotoCondensed-Regular-36" d="M 2847 1484 
Q 2847 838 2544 387 
Q 2241 -63 1641 -63 
Q 1216 -63 944 198 
Q 672 459 542 861 
Q 413 1263 413 1684 
L 413 1956 
Q 413 2438 481 2900 
Q 550 3363 742 3738 
Q 934 4113 1296 4334 
Q 1659 4556 2291 4556 
L 2291 4066 
Q 1775 4066 1508 3859 
Q 1241 3653 1122 3318 
Q 1003 2984 978 2606 
Q 1272 2984 1750 2984 
Q 2138 2984 2380 2765 
Q 2622 2547 2734 2201 
Q 2847 1856 2847 1484 
z
M 969 1666 
Q 969 1059 1180 737 
Q 1391 416 1641 416 
Q 1959 416 2129 708 
Q 2300 1000 2300 1456 
Q 2300 1863 2144 2184 
Q 1988 2506 1659 2506 
Q 1425 2506 1236 2329 
Q 1047 2153 969 1900 
L 969 1666 
z
" transform="scale(0.015625)"/>
       </defs>
       <use xlink:href="#RobotoCondensed-Regular-30"/>
       <use xlink:href="#RobotoCondensed-Regular-2e" transform="translate(49.365234 0)"/>
       <use xlink:href="#RobotoCondensed-Regular-39" transform="translate(75.732422 0)"/>
       <use xlink:href="#RobotoCondensed-Regular-36" transform="translate(125.097656 0)"/>
       <use xlink:href="#RobotoCondensed-Regular-30" transform="translate(174.462891 0)"/>
      </g>
     </g>
    </g>
   </g>
   <g id="line2d_15">
    <path d="M 40.033553 188.683011 
L 51.650091 186.527345 
L 55.798855 185.813742 
L 60.777371 184.979656 
L 63.266629 184.346496 
L 64.926135 183.774873 
L 65.755887 183.126036 
L 66.58564 181.974463 
L 67.415393 180.391032 
L 68.245146 178.446622 
L 69.904651 173.758384 
L 74.883167 158.401634 
L 75.71292 156.397986 
L 76.542673 154.742153 
L 78.202178 152.421036 
L 81.521189 148.266727 
L 83.180695 146.432744 
L 84.8402 144.873181 
L 86.499705 143.672269 
L 88.159211 142.914238 
L 88.988964 142.727625 
L 89.818716 142.690106 
L 90.648469 143.017754 
L 91.478222 143.761104 
L 92.307974 144.853909 
L 93.137727 146.229921 
L 94.797233 149.566579 
L 98.116243 156.723499 
L 98.945996 158.227037 
L 99.775749 159.483805 
L 100.605502 160.427553 
L 101.435254 160.992036 
L 102.265007 161.110146 
L 103.09476 160.729146 
L 103.924513 159.887839 
L 104.754265 158.64443 
L 105.584018 157.057119 
L 107.243523 153.083606 
L 109.732782 145.999148 
L 112.22204 138.962527 
L 113.881545 135.074059 
L 117.200556 128.745833 
L 120.519567 122.315714 
L 122.179072 119.554416 
L 123.838578 117.379096 
L 124.66833 116.577617 
L 125.498083 116.002358 
L 126.327836 115.679896 
L 127.157589 115.629906 
L 127.987341 115.781223 
L 128.817094 116.088285 
L 130.4766 117.067935 
L 132.965858 119.069805 
L 135.455116 121.100281 
L 137.114621 122.130786 
L 137.944374 122.472811 
L 138.774127 122.665448 
L 139.603879 122.665091 
L 140.433632 122.303718 
L 141.263385 121.588549 
L 142.093138 120.572397 
L 143.752643 117.8484 
L 146.241901 112.825382 
L 147.901407 109.468186 
L 149.560912 106.597106 
L 150.390665 105.475895 
L 151.220418 104.634654 
L 152.879923 103.656956 
L 154.539428 102.925976 
L 157.028687 102.08108 
L 162.007203 100.567436 
L 164.496461 99.503023 
L 166.985719 98.130656 
L 170.30473 95.960474 
L 174.453494 92.887508 
L 176.942752 90.931712 
L 178.602257 89.284172 
L 181.091515 86.320298 
L 183.580774 83.335293 
L 185.240279 81.650185 
L 186.899784 80.430638 
L 187.729537 80.05482 
L 188.55929 79.866635 
L 189.389043 79.890419 
L 190.218795 80.128778 
L 191.048548 80.551984 
L 192.708053 81.827081 
L 195.197312 84.339493 
L 197.68657 86.816508 
L 199.346075 88.028679 
L 200.175828 88.408623 
L 201.005581 88.595855 
L 201.835333 88.528222 
L 202.665086 88.10243 
L 203.494839 87.351208 
L 204.324592 86.317704 
L 205.984097 83.576455 
L 207.643602 80.223883 
L 211.792366 71.4333 
L 213.451871 68.659556 
L 216.770882 64.378057 
L 220.089893 60.476588 
L 223.408904 56.940528 
L 226.727915 53.760148 
L 230.876679 50.067924 
L 234.195689 47.415745 
L 236.684948 45.703271 
L 239.174206 44.282334 
L 244.982475 41.18699 
L 247.471733 40.210872 
L 249.131238 39.79935 
L 250.790744 39.636331 
L 251.620497 39.770443 
L 252.450249 40.245146 
L 253.280002 41.012045 
L 254.109755 42.019197 
L 255.76926 44.546468 
L 259.918024 51.432809 
L 260.747776 52.491907 
L 261.577529 53.323739 
L 262.407282 53.876361 
L 263.237035 54.097825 
L 265.726293 53.977143 
L 269.045304 53.49939 
L 280.661842 51.21771 
L 288.129616 49.560135 
L 288.129616 49.560135 
" clip-path="url(#pb8ed1cb744)" style="fill: none; stroke: #ffa500; stroke-width: 2; stroke-linecap: square"/>
   </g>
   <g id="line2d_16">
    <path d="M 40.033553 183.399036 
L 52.438356 175.607496 
L 64.843159 167.815956 
L 77.247963 160.024416 
L 89.652766 152.232876 
L 102.057569 144.441336 
L 114.462372 136.649797 
L 126.867175 128.858257 
L 139.271978 121.066717 
L 151.676781 113.275177 
L 164.081585 105.483637 
L 176.486388 97.692097 
L 188.891191 89.900557 
L 201.295994 82.109018 
L 213.700797 74.317478 
L 226.1056 66.525938 
L 238.510404 58.734398 
L 250.915207 50.942858 
L 263.32001 43.151318 
L 275.724813 35.359778 
L 288.129616 27.568239 
" clip-path="url(#pb8ed1cb744)" style="fill: none; stroke: #ffa500; stroke-opacity: 0.7; stroke-linecap: square"/>
   </g>
   <g id="line2d_17">
    <path d="M 40.033553 181.857362 
L 43.352564 175.524853 
L 45.841822 171.212008 
L 48.33108 167.371507 
L 49.990586 165.117216 
L 51.650091 163.138302 
L 53.309597 161.460355 
L 54.969102 160.063418 
L 57.45836 158.316742 
L 62.436877 155.031838 
L 64.096382 153.688416 
L 65.755887 152.087657 
L 67.415393 150.235716 
L 69.904651 147.086099 
L 73.223662 142.426823 
L 79.861684 132.557522 
L 84.8402 124.366153 
L 88.159211 119.064927 
L 91.478222 114.287776 
L 95.626985 108.680677 
L 99.775749 103.482426 
L 103.09476 99.693532 
L 106.413771 96.354422 
L 113.051792 89.960367 
L 114.711298 88.172994 
L 116.370803 85.979446 
L 118.860061 82.055711 
L 121.34932 78.087194 
L 123.008825 75.814034 
L 123.838578 74.878623 
L 124.66833 74.117064 
L 125.498083 73.559162 
L 126.327836 73.234723 
L 127.987341 73.136875 
L 138.774127 73.009721 
L 139.603879 73.026616 
L 140.433632 73.210205 
L 141.263385 73.571983 
L 142.92289 74.715932 
L 144.582396 76.230101 
L 147.901407 79.455658 
L 149.560912 80.710325 
L 150.390665 81.148222 
L 151.220418 81.421769 
L 153.709676 81.655098 
L 159.517945 81.978487 
L 164.496461 82.046549 
L 166.155966 81.704165 
L 167.815472 80.977053 
L 169.474977 79.952813 
L 171.964235 78.050966 
L 177.772505 73.221955 
L 179.43201 71.387201 
L 184.410526 65.292486 
L 186.070032 63.74636 
L 186.899784 63.17945 
L 187.729537 62.784088 
L 188.55929 62.585859 
L 190.218795 62.688172 
L 191.878301 63.149862 
L 193.537806 63.907577 
L 195.197312 64.908432 
L 197.68657 66.749917 
L 201.005581 69.562632 
L 201.835333 70.363343 
L 202.665086 71.481486 
L 203.494839 72.883586 
L 205.154344 76.311439 
L 209.303108 85.856451 
L 210.962613 88.866444 
L 211.792366 89.970073 
L 212.622119 90.730049 
L 213.451871 91.089318 
L 215.111377 91.060187 
L 217.600635 90.755826 
L 220.089893 90.237685 
L 224.238657 89.094522 
L 227.557668 88.027716 
L 230.046926 86.835219 
L 234.195689 84.431077 
L 236.684948 83.0526 
L 239.174206 81.935387 
L 246.64198 78.792249 
L 248.301486 78.340728 
L 249.960991 78.082172 
L 251.620497 78.066971 
L 253.280002 78.320777 
L 255.76926 79.043276 
L 260.747776 80.667465 
L 262.407282 80.950472 
L 264.066787 80.945975 
L 265.726293 80.523694 
L 267.385798 79.785502 
L 273.194067 76.707893 
L 274.853573 76.257129 
L 276.513078 76.193503 
L 279.832089 76.340409 
L 282.321347 76.651936 
L 284.810605 77.205251 
L 287.299863 78.06264 
L 288.129616 78.426773 
L 288.129616 78.426773 
" clip-path="url(#pb8ed1cb744)" style="fill: none; stroke: #800080; stroke-width: 2; stroke-linecap: square"/>
   </g>
   <g id="line2d_18">
    <path d="M 40.033553 136.905804 
L 52.438356 132.890599 
L 64.843159 128.875395 
L 77.247963 124.86019 
L 89.652766 120.844986 
L 102.057569 116.829781 
L 114.462372 112.814576 
L 126.867175 108.799372 
L 139.271978 104.784167 
L 151.676781 100.768963 
L 164.081585 96.753758 
L 176.486388 92.738554 
L 188.891191 88.723349 
L 201.295994 84.708144 
L 213.700797 80.69294 
L 226.1056 76.677735 
L 238.510404 72.662531 
L 250.915207 68.647326 
L 263.32001 64.632122 
L 275.724813 60.616917 
L 288.129616 56.601712 
" clip-path="url(#pb8ed1cb744)" style="fill: none; stroke: #800080; stroke-opacity: 0.7; stroke-linecap: square"/>
   </g>
   <g id="text_15">
    <!-- Berger-Parker (10) -->
    <g transform="translate(133.68221 13.5125) scale(0.08 -0.08)">
     <defs>
      <path id="RobotoCondensed-Bold-42" d="M 3294 1341 
Q 3294 675 2942 339 
Q 2591 3 1884 0 
L 366 0 
L 366 4550 
L 1772 4550 
Q 2453 4550 2839 4245 
Q 3225 3941 3225 3303 
Q 3225 2994 3089 2734 
Q 2953 2475 2653 2344 
Q 3003 2244 3148 1956 
Q 3294 1669 3294 1341 
z
M 1288 3784 
L 1288 2647 
L 1763 2647 
Q 2303 2647 2303 3206 
Q 2303 3772 1794 3784 
L 1288 3784 
z
M 2375 1350 
Q 2375 1963 1941 1981 
L 1288 1981 
L 1288 763 
L 1872 763 
Q 2141 763 2258 930 
Q 2375 1097 2375 1350 
z
" transform="scale(0.015625)"/>
      <path id="RobotoCondensed-Bold-65" d="M 2834 444 
Q 2700 263 2411 100 
Q 2122 -63 1688 -63 
Q 997 -63 620 350 
Q 244 763 244 1497 
L 244 1775 
Q 244 2597 601 3020 
Q 959 3444 1596 3444 
Q 2234 3444 2556 3041 
Q 2878 2638 2884 1831 
L 2884 1397 
L 1131 1397 
Q 1147 994 1305 833 
Q 1463 672 1747 672 
Q 2194 672 2484 978 
L 2834 444 
z
M 1594 2709 
Q 1363 2709 1258 2545 
Q 1153 2381 1134 2016 
L 2019 2016 
L 2019 2094 
Q 2013 2400 1919 2554 
Q 1825 2709 1594 2709 
z
" transform="scale(0.015625)"/>
      <path id="RobotoCondensed-Bold-72" d="M 1700 2553 
Q 1331 2553 1206 2238 
L 1206 0 
L 322 0 
L 322 3381 
L 1156 3381 
L 1181 3016 
Q 1394 3444 1759 3444 
Q 1903 3444 2000 3406 
L 1991 2528 
Q 1834 2553 1700 2553 
z
" transform="scale(0.015625)"/>
      <path id="RobotoCondensed-Bold-67" d="M 1494 -1331 
Q 1259 -1331 945 -1232 
Q 631 -1134 453 -941 
L 750 -328 
Q 872 -450 1067 -536 
Q 1263 -622 1456 -622 
Q 1725 -622 1869 -489 
Q 2013 -356 2013 -3 
L 2013 269 
Q 1756 -63 1353 -63 
Q 819 -63 517 357 
Q 216 778 216 1572 
L 216 1794 
Q 216 2625 517 3034 
Q 819 3444 1359 3444 
Q 1819 3444 2066 3084 
L 2100 3381 
L 2900 3381 
L 2900 0 
Q 2900 -697 2512 -1014 
Q 2125 -1331 1494 -1331 
z
M 1100 1572 
Q 1100 678 1609 678 
Q 1881 678 2013 875 
L 2013 2494 
Q 1878 2706 1615 2706 
Q 1353 2706 1226 2490 
Q 1100 2275 1100 1794 
L 1100 1572 
z
" transform="scale(0.015625)"/>
      <path id="RobotoCondensed-Bold-2d" d="M 1913 2319 
L 1913 1584 
L 384 1584 
L 384 2319 
L 1913 2319 
z
" transform="scale(0.015625)"/>
      <path id="RobotoCondensed-Bold-50" d="M 1288 1600 
L 1288 0 
L 366 0 
L 366 4550 
L 1919 4550 
Q 2606 4550 3001 4123 
Q 3397 3697 3397 3044 
Q 3397 2384 3005 1993 
Q 2613 1603 1928 1600 
L 1288 1600 
z
M 1288 3784 
L 1288 2366 
L 1919 2366 
Q 2206 2366 2336 2555 
Q 2466 2744 2466 3037 
Q 2466 3331 2336 3557 
Q 2206 3784 1919 3784 
L 1288 3784 
z
" transform="scale(0.015625)"/>
      <path id="RobotoCondensed-Bold-61" d="M 1928 0 
Q 1881 106 1853 263 
Q 1613 -63 1209 -63 
Q 800 -63 514 212 
Q 228 488 228 947 
Q 228 1463 559 1764 
Q 891 2066 1572 2066 
L 1809 2066 
L 1809 2338 
Q 1809 2753 1503 2753 
Q 1172 2753 1172 2366 
L 288 2366 
Q 288 2809 623 3126 
Q 959 3444 1528 3444 
Q 2031 3444 2364 3181 
Q 2697 2919 2697 2325 
L 2697 738 
Q 2703 288 2819 53 
L 2819 0 
L 1928 0 
z
M 1409 634 
Q 1553 634 1656 693 
Q 1759 753 1809 834 
L 1809 1538 
L 1600 1538 
Q 1350 1538 1231 1384 
Q 1113 1231 1113 1009 
Q 1113 634 1409 634 
z
" transform="scale(0.015625)"/>
      <path id="RobotoCondensed-Bold-6b" d="M 2063 0 
L 1447 1309 
L 1206 1041 
L 1206 0 
L 322 0 
L 322 4803 
L 1206 4803 
L 1206 2209 
L 1316 2369 
L 1931 3381 
L 2984 3381 
L 2003 1991 
L 3075 0 
L 2063 0 
z
" transform="scale(0.015625)"/>
      <path id="RobotoCondensed-Bold-20" transform="scale(0.015625)"/>
      <path id="RobotoCondensed-Bold-28" d="M 378 1850 
Q 378 2731 592 3390 
Q 806 4050 1118 4472 
Q 1431 4894 1728 5050 
L 1894 4559 
Q 1619 4300 1372 3661 
Q 1125 3022 1119 1919 
L 1119 1772 
Q 1119 628 1367 -23 
Q 1616 -675 1894 -941 
L 1728 -1422 
Q 1431 -1266 1118 -845 
Q 806 -425 592 236 
Q 378 897 378 1850 
z
" transform="scale(0.015625)"/>
      <path id="RobotoCondensed-Bold-31" d="M 2244 4556 
L 2244 0 
L 1359 0 
L 1359 3475 
L 494 3144 
L 494 3881 
L 2150 4556 
L 2244 4556 
z
" transform="scale(0.015625)"/>
      <path id="RobotoCondensed-Bold-30" d="M 2941 1881 
Q 2941 859 2572 398 
Q 2203 -63 1622 -63 
Q 1044 -63 673 392 
Q 303 847 297 1847 
L 297 2675 
Q 297 3700 665 4156 
Q 1034 4613 1619 4613 
Q 2194 4613 2562 4166 
Q 2931 3719 2941 2731 
L 2941 1881 
z
M 2056 2803 
Q 2056 3403 1937 3640 
Q 1819 3878 1619 3878 
Q 1422 3878 1303 3647 
Q 1184 3416 1181 2838 
L 1181 1763 
Q 1181 1156 1300 914 
Q 1419 672 1622 672 
Q 1822 672 1937 908 
Q 2053 1144 2056 1728 
L 2056 2803 
z
" transform="scale(0.015625)"/>
      <path id="RobotoCondensed-Bold-29" d="M 1741 1778 
Q 1741 931 1520 265 
Q 1300 -400 975 -833 
Q 650 -1266 341 -1422 
L 175 -941 
Q 447 -681 695 -37 
Q 944 606 950 1709 
L 950 1856 
Q 950 3000 695 3653 
Q 441 4306 175 4569 
L 341 5050 
Q 650 4894 975 4459 
Q 1300 4025 1520 3364 
Q 1741 2703 1741 1778 
z
" transform="scale(0.015625)"/>
     </defs>
     <use xlink:href="#RobotoCondensed-Bold-42"/>
     <use xlink:href="#RobotoCondensed-Bold-65" transform="translate(56.152344 0)"/>
     <use xlink:href="#RobotoCondensed-Bold-72" transform="translate(104.052734 0)"/>
     <use xlink:href="#RobotoCondensed-Bold-67" transform="translate(137.207031 0)"/>
     <use xlink:href="#RobotoCondensed-Bold-65" transform="translate(187.548828 0)"/>
     <use xlink:href="#RobotoCondensed-Bold-72" transform="translate(235.449219 0)"/>
     <use xlink:href="#RobotoCondensed-Bold-2d" transform="translate(268.603516 0)"/>
     <use xlink:href="#RobotoCondensed-Bold-50" transform="translate(304.931641 0)"/>
     <use xlink:href="#RobotoCondensed-Bold-61" transform="translate(361.816406 0)"/>
     <use xlink:href="#RobotoCondensed-Bold-72" transform="translate(408.935547 0)"/>
     <use xlink:href="#RobotoCondensed-Bold-6b" transform="translate(442.089844 0)"/>
     <use xlink:href="#RobotoCondensed-Bold-65" transform="translate(489.941406 0)"/>
     <use xlink:href="#RobotoCondensed-Bold-72" transform="translate(537.841797 0)"/>
     <use xlink:href="#RobotoCondensed-Bold-20" transform="translate(570.996094 0)"/>
     <use xlink:href="#RobotoCondensed-Bold-28" transform="translate(594.042969 0)"/>
     <use xlink:href="#RobotoCondensed-Bold-31" transform="translate(626.367188 0)"/>
     <use xlink:href="#RobotoCondensed-Bold-30" transform="translate(676.953125 0)"/>
     <use xlink:href="#RobotoCondensed-Bold-29" transform="translate(727.539062 0)"/>
    </g>
   </g>
   <g id="PathCollection_1">
    <defs>
     <path id="m3957d52c50" d="M 0 3 
C 0.795609 3 1.55874 2.683901 2.12132 2.12132 
C 2.683901 1.55874 3 0.795609 3 0 
C 3 -0.795609 2.683901 -1.55874 2.12132 -2.12132 
C 1.55874 -2.683901 0.795609 -3 0 -3 
C -0.795609 -3 -1.55874 -2.683901 -2.12132 -2.12132 
C -2.683901 -1.55874 -3 -0.795609 -3 0 
C -3 0.795609 -2.683901 1.55874 -2.12132 2.12132 
C -1.55874 2.683901 -0.795609 3 0 3 
z
" style="stroke: #ffa500"/>
    </defs>
    <g clip-path="url(#pb8ed1cb744)">
     <use xlink:href="#m3957d52c50" x="40.033553" y="188.683011" style="fill: #ffa500; stroke: #ffa500"/>
     <use xlink:href="#m3957d52c50" x="52.438356" y="186.37338" style="fill: #ffa500; stroke: #ffa500"/>
     <use xlink:href="#m3957d52c50" x="64.843159" y="183.809377" style="fill: #ffa500; stroke: #ffa500"/>
     <use xlink:href="#m3957d52c50" x="77.247963" y="153.661107" style="fill: #ffa500; stroke: #ffa500"/>
     <use xlink:href="#m3957d52c50" x="89.652766" y="142.68029" style="fill: #ffa500; stroke: #ffa500"/>
     <use xlink:href="#m3957d52c50" x="102.057569" y="161.126652" style="fill: #ffa500; stroke: #ffa500"/>
     <use xlink:href="#m3957d52c50" x="114.462372" y="133.969292" style="fill: #ffa500; stroke: #ffa500"/>
     <use xlink:href="#m3957d52c50" x="126.867175" y="115.618446" style="fill: #ffa500; stroke: #ffa500"/>
     <use xlink:href="#m3957d52c50" x="139.271978" y="122.698746" style="fill: #ffa500; stroke: #ffa500"/>
     <use xlink:href="#m3957d52c50" x="151.676781" y="104.310444" style="fill: #ffa500; stroke: #ffa500"/>
     <use xlink:href="#m3957d52c50" x="164.081585" y="99.705939" style="fill: #ffa500; stroke: #ffa500"/>
     <use xlink:href="#m3957d52c50" x="176.486388" y="91.307923" style="fill: #ffa500; stroke: #ffa500"/>
     <use xlink:href="#m3957d52c50" x="188.891191" y="79.849218" style="fill: #ffa500; stroke: #ffa500"/>
     <use xlink:href="#m3957d52c50" x="201.295994" y="88.610035" style="fill: #ffa500; stroke: #ffa500"/>
     <use xlink:href="#m3957d52c50" x="213.700797" y="68.316313" style="fill: #ffa500; stroke: #ffa500"/>
     <use xlink:href="#m3957d52c50" x="226.1056" y="54.333304" style="fill: #ffa500; stroke: #ffa500"/>
     <use xlink:href="#m3957d52c50" x="238.510404" y="44.64024" style="fill: #ffa500; stroke: #ffa500"/>
     <use xlink:href="#m3957d52c50" x="250.915207" y="39.635488" style="fill: #ffa500; stroke: #ffa500"/>
     <use xlink:href="#m3957d52c50" x="263.32001" y="54.099758" style="fill: #ffa500; stroke: #ffa500"/>
     <use xlink:href="#m3957d52c50" x="275.724813" y="52.167282" style="fill: #ffa500; stroke: #ffa500"/>
     <use xlink:href="#m3957d52c50" x="288.129616" y="49.560135" style="fill: #ffa500; stroke: #ffa500"/>
    </g>
   </g>
   <g id="PathCollection_2">
    <defs>
     <path id="mb15eb66a79" d="M -3 3 
L 3 3 
L 3 -3 
L -3 -3 
z
" style="stroke: #800080"/>
    </defs>
    <g clip-path="url(#pb8ed1cb744)">
     <use xlink:href="#mb15eb66a79" x="40.033553" y="181.857362" style="fill: #800080; stroke: #800080"/>
     <use xlink:href="#mb15eb66a79" x="52.438356" y="162.302351" style="fill: #800080; stroke: #800080"/>
     <use xlink:href="#mb15eb66a79" x="64.843159" y="153.002404" style="fill: #800080; stroke: #800080"/>
     <use xlink:href="#mb15eb66a79" x="77.247963" y="136.545046" style="fill: #800080; stroke: #800080"/>
     <use xlink:href="#mb15eb66a79" x="89.652766" y="116.860171" style="fill: #800080; stroke: #800080"/>
     <use xlink:href="#mb15eb66a79" x="102.057569" y="100.831761" style="fill: #800080; stroke: #800080"/>
     <use xlink:href="#mb15eb66a79" x="114.462372" y="88.454723" style="fill: #800080; stroke: #800080"/>
     <use xlink:href="#mb15eb66a79" x="126.867175" y="73.163149" style="fill: #800080; stroke: #800080"/>
     <use xlink:href="#mb15eb66a79" x="139.271978" y="73.009469" style="fill: #800080; stroke: #800080"/>
     <use xlink:href="#mb15eb66a79" x="151.676781" y="81.491822" style="fill: #800080; stroke: #800080"/>
     <use xlink:href="#mb15eb66a79" x="164.081585" y="82.061766" style="fill: #800080; stroke: #800080"/>
     <use xlink:href="#mb15eb66a79" x="176.486388" y="74.352128" style="fill: #800080; stroke: #800080"/>
     <use xlink:href="#mb15eb66a79" x="188.891191" y="62.567496" style="fill: #800080; stroke: #800080"/>
     <use xlink:href="#mb15eb66a79" x="201.295994" y="69.815849" style="fill: #800080; stroke: #800080"/>
     <use xlink:href="#mb15eb66a79" x="213.700797" y="91.110431" style="fill: #800080; stroke: #800080"/>
     <use xlink:href="#mb15eb66a79" x="226.1056" y="88.540358" style="fill: #800080; stroke: #800080"/>
     <use xlink:href="#mb15eb66a79" x="238.510404" y="82.211015" style="fill: #800080; stroke: #800080"/>
     <use xlink:href="#mb15eb66a79" x="250.915207" y="78.039384" style="fill: #800080; stroke: #800080"/>
     <use xlink:href="#mb15eb66a79" x="263.32001" y="80.996139" style="fill: #800080; stroke: #800080"/>
     <use xlink:href="#mb15eb66a79" x="275.724813" y="76.189326" style="fill: #800080; stroke: #800080"/>
     <use xlink:href="#mb15eb66a79" x="288.129616" y="78.426773" style="fill: #800080; stroke: #800080"/>
    </g>
   </g>
   <g id="legend_1">
    <g id="patch_3">
     <path d="M 30.62875 41.811875 
L 66.7525 41.811875 
L 66.7525 22.5125 
L 30.62875 22.5125 
z
" style="fill: #ffffff; opacity: 0.8"/>
    </g>
    <g id="line2d_19">
     <path d="M 33.02875 27.3125 
L 40.52875 27.3125 
L 48.02875 27.3125 
" style="fill: none; stroke: #ffa500; stroke-width: 2; stroke-linecap: square"/>
     <g>
      <use xlink:href="#m3957d52c50" x="40.52875" y="27.3125" style="fill: #ffa500; stroke: #ffa500"/>
     </g>
    </g>
    <g id="text_16">
     <!-- Boys -->
     <g transform="translate(52.82875 29.4125) scale(0.06 -0.06)">
      <defs>
       <path id="RobotoCondensed-Regular-42" d="M 3125 1313 
Q 3125 675 2776 337 
Q 2428 0 1847 0 
L 491 0 
L 491 4550 
L 1791 4550 
Q 2375 4550 2706 4261 
Q 3038 3972 3038 3338 
Q 3038 3025 2880 2779 
Q 2722 2534 2453 2400 
Q 2781 2297 2953 1998 
Q 3125 1700 3125 1313 
z
M 1066 4056 
L 1066 2613 
L 1797 2613 
Q 2088 2613 2275 2806 
Q 2463 3000 2463 3344 
Q 2463 4041 1819 4056 
L 1066 4056 
z
M 2550 1306 
Q 2550 2106 1906 2128 
L 1066 2128 
L 1066 491 
L 1847 491 
Q 2181 491 2365 711 
Q 2550 931 2550 1306 
z
" transform="scale(0.015625)"/>
       <path id="RobotoCondensed-Regular-6f" d="M 300 1850 
Q 300 2641 678 3042 
Q 1056 3444 1603 3444 
Q 2156 3444 2536 3042 
Q 2916 2641 2916 1850 
L 2916 1528 
Q 2916 738 2536 337 
Q 2156 -63 1609 -63 
Q 1059 -63 679 337 
Q 300 738 300 1528 
L 300 1850 
z
M 853 1528 
Q 853 969 1068 689 
Q 1284 409 1609 409 
Q 2341 409 2363 1466 
L 2363 1850 
Q 2363 2403 2145 2686 
Q 1928 2969 1603 2969 
Q 1281 2969 1067 2686 
Q 853 2403 853 1850 
L 853 1528 
z
" transform="scale(0.015625)"/>
       <path id="RobotoCondensed-Regular-79" d="M 1425 -522 
Q 1153 -1366 563 -1366 
Q 409 -1366 278 -1316 
L 278 -847 
Q 328 -859 397 -859 
Q 631 -859 770 -746 
Q 909 -634 997 -338 
L 1106 31 
L 109 3381 
L 713 3381 
L 1341 922 
L 1953 3381 
L 2541 3381 
L 1425 -522 
z
" transform="scale(0.015625)"/>
       <path id="RobotoCondensed-Regular-73" d="M 2056 866 
Q 2056 1059 1907 1190 
Q 1759 1322 1340 1500 
Q 922 1678 681 1863 
Q 409 2072 409 2484 
Q 409 2888 703 3166 
Q 997 3444 1481 3444 
Q 2000 3444 2287 3150 
Q 2575 2856 2575 2419 
L 2025 2419 
Q 2025 2628 1884 2798 
Q 1744 2969 1481 2969 
Q 1203 2969 1083 2828 
Q 963 2688 963 2503 
Q 963 2319 1081 2217 
Q 1200 2116 1553 1959 
Q 2066 1756 2337 1537 
Q 2609 1319 2609 909 
Q 2609 463 2303 200 
Q 1997 -63 1494 -63 
Q 919 -63 616 265 
Q 313 594 313 1013 
L 866 1013 
Q 881 653 1081 533 
Q 1281 413 1494 413 
Q 2056 413 2056 866 
z
" transform="scale(0.015625)"/>
      </defs>
      <use xlink:href="#RobotoCondensed-Regular-42"/>
      <use xlink:href="#RobotoCondensed-Regular-6f" transform="translate(54.589844 0)"/>
      <use xlink:href="#RobotoCondensed-Regular-79" transform="translate(104.785156 0)"/>
      <use xlink:href="#RobotoCondensed-Regular-73" transform="translate(146.435547 0)"/>
     </g>
    </g>
    <g id="line2d_20">
     <path d="M 33.02875 36.093125 
L 40.52875 36.093125 
L 48.02875 36.093125 
" style="fill: none; stroke: #800080; stroke-width: 2; stroke-linecap: square"/>
     <defs>
      <path id="m86732ee3a7" d="M -3 3 
L 3 3 
L 3 -3 
L -3 -3 
z
" style="stroke: #800080; stroke-linejoin: miter"/>
     </defs>
     <g>
      <use xlink:href="#m86732ee3a7" x="40.52875" y="36.093125" style="fill: #800080; stroke: #800080; stroke-linejoin: miter"/>
     </g>
    </g>
    <g id="text_17">
     <!-- Girls -->
     <g transform="translate(52.82875 38.193125) scale(0.06 -0.06)">
      <defs>
       <path id="RobotoCondensed-Regular-47" d="M 3341 2266 
L 3341 569 
Q 3266 469 3114 319 
Q 2963 169 2691 53 
Q 2419 -63 1978 -63 
Q 1272 -63 830 412 
Q 388 888 388 1850 
L 388 2703 
Q 388 3656 770 4134 
Q 1153 4613 1919 4613 
Q 2581 4613 2943 4244 
Q 3306 3875 3341 3219 
L 2766 3219 
Q 2731 3641 2529 3880 
Q 2328 4119 1919 4119 
Q 1400 4119 1183 3773 
Q 966 3428 963 2731 
L 963 1850 
Q 963 1125 1239 776 
Q 1516 428 1981 428 
Q 2378 428 2537 547 
Q 2697 666 2769 728 
L 2769 1778 
L 1934 1778 
L 1934 2266 
L 3341 2266 
z
" transform="scale(0.015625)"/>
       <path id="RobotoCondensed-Regular-69" d="M 428 4278 
Q 428 4419 506 4516 
Q 584 4613 741 4613 
Q 894 4613 975 4516 
Q 1056 4419 1056 4278 
Q 1056 4144 975 4048 
Q 894 3953 741 3953 
Q 584 3953 506 4048 
Q 428 4144 428 4278 
z
M 1009 3381 
L 1009 0 
L 459 0 
L 459 3381 
L 1009 3381 
z
" transform="scale(0.015625)"/>
       <path id="RobotoCondensed-Regular-72" d="M 1563 2888 
Q 1138 2888 969 2425 
L 969 0 
L 416 0 
L 416 3381 
L 950 3381 
L 963 3041 
Q 1184 3444 1591 3444 
Q 1738 3444 1809 3400 
L 1813 2863 
Q 1691 2888 1563 2888 
z
" transform="scale(0.015625)"/>
       <path id="RobotoCondensed-Regular-6c" d="M 1009 4800 
L 1009 0 
L 459 0 
L 459 4800 
L 1009 4800 
z
" transform="scale(0.015625)"/>
      </defs>
      <use xlink:href="#RobotoCondensed-Regular-47"/>
      <use xlink:href="#RobotoCondensed-Regular-69" transform="translate(59.082031 0)"/>
      <use xlink:href="#RobotoCondensed-Regular-72" transform="translate(82.03125 0)"/>
      <use xlink:href="#RobotoCondensed-Regular-6c" transform="translate(112.5 0)"/>
      <use xlink:href="#RobotoCondensed-Regular-73" transform="translate(135.449219 0)"/>
     </g>
    </g>
   </g>
  </g>
 </g>
 <defs>
  <clipPath id="pb8ed1cb744">
   <rect x="27.62875" y="19.5125" width="272.905669" height="177.22625"/>
  </clipPath>
 </defs>
</svg>
