<?xml version="1.0" encoding="utf-8" standalone="no"?>
<!DOCTYPE svg PUBLIC "-//W3C//DTD SVG 1.1//EN"
  "http://www.w3.org/Graphics/SVG/1.1/DTD/svg11.dtd">
<svg xmlns:xlink="http://www.w3.org/1999/xlink" width="312.401436pt" height="216.694375pt" viewBox="0 0 312.401436 216.694375" xmlns="http://www.w3.org/2000/svg" version="1.1">
 <metadata>
  <rdf:RDF xmlns:dc="http://purl.org/dc/elements/1.1/" xmlns:cc="http://creativecommons.org/ns#" xmlns:rdf="http://www.w3.org/1999/02/22-rdf-syntax-ns#">
   <cc:Work>
    <dc:type rdf:resource="http://purl.org/dc/dcmitype/StillImage"/>
    <dc:date>2026-04-28T10:24:22.026273</dc:date>
    <dc:format>image/svg+xml</dc:format>
    <dc:creator>
     <cc:Agent>
      <dc:title>Matplotlib v3.10.7, https://matplotlib.org/</dc:title>
     </cc:Agent>
    </dc:creator>
   </cc:Work>
  </rdf:RDF>
 </metadata>
 <defs>
  <style type="text/css">*{stroke-linejoin: round; stroke-linecap: butt}</style>
 </defs>
 <g id="figure_1">
  <g id="patch_1">
   <path d="M 0 216.694375 
L 312.401436 216.694375 
L 312.401436 0 
L 0 0 
z
" style="fill: #ffffff"/>
  </g>
  <g id="axes_1">
   <g id="patch_2">
    <path d="M 39.78375 183.244375 
L 298.123528 183.244375 
L 298.123528 23.844375 
L 39.78375 23.844375 
z
" style="fill: #ffffff"/>
   </g>
   <g id="matplotlib.axis_1">
    <g id="xtick_1">
     <g id="line2d_1">
      <path d="M 61.591653 183.244375 
L 61.591653 23.844375 
" clip-path="url(#pc02070b443)" style="fill: none; stroke-dasharray: 0.5,0.825; stroke-dashoffset: 0; stroke: #d3d3d3; stroke-width: 0.5"/>
     </g>
     <g id="line2d_2">
      <defs>
       <path id="m108b1935b6" d="M 0 0 
L 0 3.5 
" style="stroke: #000000; stroke-width: 0.8"/>
      </defs>
      <g>
       <use xlink:href="#m108b1935b6" x="61.591653" y="183.244375" style="stroke: #000000; stroke-width: 0.8"/>
      </g>
     </g>
     <g id="text_1">
      <!-- 1950 -->
      <g transform="translate(55.668528 194.744375) scale(0.06 -0.06)">
       <defs>
        <path id="RobotoCondensed-Regular-31" d="M 2013 4575 
L 2013 0 
L 1459 0 
L 1459 3853 
L 503 3428 
L 503 3950 
L 1928 4575 
L 2013 4575 
z
" transform="scale(0.015625)"/>
        <path id="RobotoCondensed-Regular-39" d="M 2744 2563 
Q 2744 2119 2687 1667 
Q 2631 1216 2450 836 
Q 2269 456 1903 225 
Q 1538 -6 869 -6 
L 866 484 
Q 1428 484 1698 690 
Q 1969 897 2072 1233 
Q 2175 1569 2191 1950 
Q 1859 1522 1413 1522 
Q 1025 1522 786 1747 
Q 547 1972 436 2320 
Q 325 2669 325 3041 
Q 325 3691 623 4152 
Q 922 4613 1522 4613 
Q 1969 4613 2237 4344 
Q 2506 4075 2625 3653 
Q 2744 3231 2744 2772 
L 2744 2563 
z
M 866 3072 
Q 866 2666 1020 2334 
Q 1175 2003 1506 2003 
Q 1716 2003 1906 2179 
Q 2097 2356 2194 2616 
L 2194 2850 
Q 2194 3472 1983 3803 
Q 1772 4134 1522 4134 
Q 1206 4134 1036 3829 
Q 866 3525 866 3072 
z
" transform="scale(0.015625)"/>
        <path id="RobotoCondensed-Regular-35" d="M 1034 2166 
L 594 2284 
L 788 4550 
L 2769 4550 
L 2769 4016 
L 1253 4016 
L 1147 2778 
Q 1438 2975 1753 2975 
Q 2288 2975 2591 2561 
Q 2894 2147 2894 1450 
Q 2894 797 2584 367 
Q 2275 -63 1656 -63 
Q 1194 -63 850 248 
Q 506 559 453 1197 
L 975 1197 
Q 1066 413 1656 413 
Q 1978 413 2159 691 
Q 2341 969 2341 1444 
Q 2341 1872 2153 2164 
Q 1966 2456 1619 2456 
Q 1384 2456 1273 2378 
Q 1163 2300 1034 2166 
z
" transform="scale(0.015625)"/>
        <path id="RobotoCondensed-Regular-30" d="M 2797 1944 
Q 2797 825 2467 381 
Q 2138 -63 1581 -63 
Q 1038 -63 703 370 
Q 369 803 359 1878 
L 359 2638 
Q 359 3753 695 4183 
Q 1031 4613 1578 4613 
Q 2131 4613 2461 4189 
Q 2791 3766 2797 2681 
L 2797 1944 
z
M 2247 2734 
Q 2247 3503 2073 3822 
Q 1900 4141 1578 4141 
Q 1266 4141 1092 3833 
Q 919 3525 913 2791 
L 913 1850 
Q 913 1088 1089 750 
Q 1266 413 1581 413 
Q 1903 413 2072 738 
Q 2241 1063 2247 1794 
L 2247 2734 
z
" transform="scale(0.015625)"/>
       </defs>
       <use xlink:href="#RobotoCondensed-Regular-31"/>
       <use xlink:href="#RobotoCondensed-Regular-39" transform="translate(49.365234 0)"/>
       <use xlink:href="#RobotoCondensed-Regular-35" transform="translate(98.730469 0)"/>
       <use xlink:href="#RobotoCondensed-Regular-30" transform="translate(148.095703 0)"/>
      </g>
     </g>
    </g>
    <g id="xtick_2">
     <g id="line2d_3">
      <path d="M 95.142274 183.244375 
L 95.142274 23.844375 
" clip-path="url(#pc02070b443)" style="fill: none; stroke-dasharray: 0.5,0.825; stroke-dashoffset: 0; stroke: #d3d3d3; stroke-width: 0.5"/>
     </g>
     <g id="line2d_4">
      <g>
       <use xlink:href="#m108b1935b6" x="95.142274" y="183.244375" style="stroke: #000000; stroke-width: 0.8"/>
      </g>
     </g>
     <g id="text_2">
      <!-- 1960 -->
      <g transform="translate(89.219149 194.744375) scale(0.06 -0.06)">
       <defs>
        <path id="RobotoCondensed-Regular-36" d="M 2847 1484 
Q 2847 838 2544 387 
Q 2241 -63 1641 -63 
Q 1216 -63 944 198 
Q 672 459 542 861 
Q 413 1263 413 1684 
L 413 1956 
Q 413 2438 481 2900 
Q 550 3363 742 3738 
Q 934 4113 1296 4334 
Q 1659 4556 2291 4556 
L 2291 4066 
Q 1775 4066 1508 3859 
Q 1241 3653 1122 3318 
Q 1003 2984 978 2606 
Q 1272 2984 1750 2984 
Q 2138 2984 2380 2765 
Q 2622 2547 2734 2201 
Q 2847 1856 2847 1484 
z
M 969 1666 
Q 969 1059 1180 737 
Q 1391 416 1641 416 
Q 1959 416 2129 708 
Q 2300 1000 2300 1456 
Q 2300 1863 2144 2184 
Q 1988 2506 1659 2506 
Q 1425 2506 1236 2329 
Q 1047 2153 969 1900 
L 969 1666 
z
" transform="scale(0.015625)"/>
       </defs>
       <use xlink:href="#RobotoCondensed-Regular-31"/>
       <use xlink:href="#RobotoCondensed-Regular-39" transform="translate(49.365234 0)"/>
       <use xlink:href="#RobotoCondensed-Regular-36" transform="translate(98.730469 0)"/>
       <use xlink:href="#RobotoCondensed-Regular-30" transform="translate(148.095703 0)"/>
      </g>
     </g>
    </g>
    <g id="xtick_3">
     <g id="line2d_5">
      <path d="M 128.692894 183.244375 
L 128.692894 23.844375 
" clip-path="url(#pc02070b443)" style="fill: none; stroke-dasharray: 0.5,0.825; stroke-dashoffset: 0; stroke: #d3d3d3; stroke-width: 0.5"/>
     </g>
     <g id="line2d_6">
      <g>
       <use xlink:href="#m108b1935b6" x="128.692894" y="183.244375" style="stroke: #000000; stroke-width: 0.8"/>
      </g>
     </g>
     <g id="text_3">
      <!-- 1970 -->
      <g transform="translate(122.769769 194.744375) scale(0.06 -0.06)">
       <defs>
        <path id="RobotoCondensed-Regular-37" d="M 2878 4550 
L 2878 4225 
L 1313 0 
L 731 0 
L 2297 4075 
L 269 4075 
L 269 4550 
L 2878 4550 
z
" transform="scale(0.015625)"/>
       </defs>
       <use xlink:href="#RobotoCondensed-Regular-31"/>
       <use xlink:href="#RobotoCondensed-Regular-39" transform="translate(49.365234 0)"/>
       <use xlink:href="#RobotoCondensed-Regular-37" transform="translate(98.730469 0)"/>
       <use xlink:href="#RobotoCondensed-Regular-30" transform="translate(148.095703 0)"/>
      </g>
     </g>
    </g>
    <g id="xtick_4">
     <g id="line2d_7">
      <path d="M 162.243515 183.244375 
L 162.243515 23.844375 
" clip-path="url(#pc02070b443)" style="fill: none; stroke-dasharray: 0.5,0.825; stroke-dashoffset: 0; stroke: #d3d3d3; stroke-width: 0.5"/>
     </g>
     <g id="line2d_8">
      <g>
       <use xlink:href="#m108b1935b6" x="162.243515" y="183.244375" style="stroke: #000000; stroke-width: 0.8"/>
      </g>
     </g>
     <g id="text_4">
      <!-- 1980 -->
      <g transform="translate(156.32039 194.744375) scale(0.06 -0.06)">
       <defs>
        <path id="RobotoCondensed-Regular-38" d="M 2794 1231 
Q 2794 606 2445 271 
Q 2097 -63 1578 -63 
Q 1063 -63 714 273 
Q 366 609 366 1231 
Q 366 1613 536 1905 
Q 706 2197 1000 2347 
Q 450 2666 450 3366 
Q 450 3963 769 4288 
Q 1088 4613 1581 4613 
Q 2075 4613 2392 4288 
Q 2709 3963 2709 3366 
Q 2709 3028 2557 2761 
Q 2406 2494 2150 2344 
Q 2444 2194 2619 1901 
Q 2794 1609 2794 1231 
z
M 2156 3356 
Q 2156 3697 2000 3917 
Q 1844 4138 1581 4138 
Q 1319 4138 1161 3927 
Q 1003 3716 1003 3356 
Q 1003 3003 1159 2790 
Q 1316 2578 1581 2578 
Q 1844 2578 2000 2790 
Q 2156 3003 2156 3356 
z
M 2244 1244 
Q 2244 1625 2061 1865 
Q 1878 2106 1575 2106 
Q 1266 2106 1091 1865 
Q 916 1625 916 1244 
Q 916 850 1089 631 
Q 1263 413 1578 413 
Q 1897 413 2070 631 
Q 2244 850 2244 1244 
z
" transform="scale(0.015625)"/>
       </defs>
       <use xlink:href="#RobotoCondensed-Regular-31"/>
       <use xlink:href="#RobotoCondensed-Regular-39" transform="translate(49.365234 0)"/>
       <use xlink:href="#RobotoCondensed-Regular-38" transform="translate(98.730469 0)"/>
       <use xlink:href="#RobotoCondensed-Regular-30" transform="translate(148.095703 0)"/>
      </g>
     </g>
    </g>
    <g id="xtick_5">
     <g id="line2d_9">
      <path d="M 195.794135 183.244375 
L 195.794135 23.844375 
" clip-path="url(#pc02070b443)" style="fill: none; stroke-dasharray: 0.5,0.825; stroke-dashoffset: 0; stroke: #d3d3d3; stroke-width: 0.5"/>
     </g>
     <g id="line2d_10">
      <g>
       <use xlink:href="#m108b1935b6" x="195.794135" y="183.244375" style="stroke: #000000; stroke-width: 0.8"/>
      </g>
     </g>
     <g id="text_5">
      <!-- 1990 -->
      <g transform="translate(189.87101 194.744375) scale(0.06 -0.06)">
       <use xlink:href="#RobotoCondensed-Regular-31"/>
       <use xlink:href="#RobotoCondensed-Regular-39" transform="translate(49.365234 0)"/>
       <use xlink:href="#RobotoCondensed-Regular-39" transform="translate(98.730469 0)"/>
       <use xlink:href="#RobotoCondensed-Regular-30" transform="translate(148.095703 0)"/>
      </g>
     </g>
    </g>
    <g id="xtick_6">
     <g id="line2d_11">
      <path d="M 229.344756 183.244375 
L 229.344756 23.844375 
" clip-path="url(#pc02070b443)" style="fill: none; stroke-dasharray: 0.5,0.825; stroke-dashoffset: 0; stroke: #d3d3d3; stroke-width: 0.5"/>
     </g>
     <g id="line2d_12">
      <g>
       <use xlink:href="#m108b1935b6" x="229.344756" y="183.244375" style="stroke: #000000; stroke-width: 0.8"/>
      </g>
     </g>
     <g id="text_6">
      <!-- 2000 -->
      <g transform="translate(223.421631 194.744375) scale(0.06 -0.06)">
       <defs>
        <path id="RobotoCondensed-Regular-32" d="M 2909 475 
L 2909 0 
L 366 0 
L 366 416 
L 1628 2088 
Q 1966 2541 2077 2802 
Q 2188 3063 2188 3328 
Q 2188 3663 2027 3900 
Q 1866 4138 1575 4138 
Q 1194 4138 1022 3878 
Q 850 3619 850 3213 
L 297 3213 
Q 297 3788 617 4200 
Q 938 4613 1575 4613 
Q 2125 4613 2433 4278 
Q 2741 3944 2741 3397 
Q 2741 2997 2541 2594 
Q 2341 2191 2047 1809 
L 1028 475 
L 2909 475 
z
" transform="scale(0.015625)"/>
       </defs>
       <use xlink:href="#RobotoCondensed-Regular-32"/>
       <use xlink:href="#RobotoCondensed-Regular-30" transform="translate(49.365234 0)"/>
       <use xlink:href="#RobotoCondensed-Regular-30" transform="translate(98.730469 0)"/>
       <use xlink:href="#RobotoCondensed-Regular-30" transform="translate(148.095703 0)"/>
      </g>
     </g>
    </g>
    <g id="xtick_7">
     <g id="line2d_13">
      <path d="M 262.895377 183.244375 
L 262.895377 23.844375 
" clip-path="url(#pc02070b443)" style="fill: none; stroke-dasharray: 0.5,0.825; stroke-dashoffset: 0; stroke: #d3d3d3; stroke-width: 0.5"/>
     </g>
     <g id="line2d_14">
      <g>
       <use xlink:href="#m108b1935b6" x="262.895377" y="183.244375" style="stroke: #000000; stroke-width: 0.8"/>
      </g>
     </g>
     <g id="text_7">
      <!-- 2010 -->
      <g transform="translate(256.972252 194.744375) scale(0.06 -0.06)">
       <use xlink:href="#RobotoCondensed-Regular-32"/>
       <use xlink:href="#RobotoCondensed-Regular-30" transform="translate(49.365234 0)"/>
       <use xlink:href="#RobotoCondensed-Regular-31" transform="translate(98.730469 0)"/>
       <use xlink:href="#RobotoCondensed-Regular-30" transform="translate(148.095703 0)"/>
      </g>
     </g>
    </g>
    <g id="xtick_8">
     <g id="line2d_15">
      <path d="M 296.445997 183.244375 
L 296.445997 23.844375 
" clip-path="url(#pc02070b443)" style="fill: none; stroke-dasharray: 0.5,0.825; stroke-dashoffset: 0; stroke: #d3d3d3; stroke-width: 0.5"/>
     </g>
     <g id="line2d_16">
      <g>
       <use xlink:href="#m108b1935b6" x="296.445997" y="183.244375" style="stroke: #000000; stroke-width: 0.8"/>
      </g>
     </g>
     <g id="text_8">
      <!-- 2020 -->
      <g transform="translate(290.522872 194.744375) scale(0.06 -0.06)">
       <use xlink:href="#RobotoCondensed-Regular-32"/>
       <use xlink:href="#RobotoCondensed-Regular-30" transform="translate(49.365234 0)"/>
       <use xlink:href="#RobotoCondensed-Regular-32" transform="translate(98.730469 0)"/>
       <use xlink:href="#RobotoCondensed-Regular-30" transform="translate(148.095703 0)"/>
      </g>
     </g>
    </g>
    <g id="text_9">
     <!-- Year -->
     <g transform="translate(160.06692 207.463125) scale(0.1 -0.1)">
      <defs>
       <path id="RobotoCondensed-Regular-59" d="M 747 4550 
L 1675 2266 
L 2606 4550 
L 3256 4550 
L 1963 1700 
L 1963 0 
L 1388 0 
L 1388 1700 
L 94 4550 
L 747 4550 
z
" transform="scale(0.015625)"/>
       <path id="RobotoCondensed-Regular-65" d="M 2722 447 
Q 2584 253 2323 95 
Q 2063 -63 1625 -63 
Q 1019 -63 666 301 
Q 313 666 309 1431 
L 309 1828 
Q 309 2722 696 3083 
Q 1084 3444 1563 3444 
Q 2197 3444 2472 3034 
Q 2747 2625 2747 1850 
L 2747 1528 
L 863 1528 
L 863 1447 
Q 863 906 1067 657 
Q 1272 409 1656 409 
Q 1934 409 2114 517 
Q 2294 625 2431 794 
L 2722 447 
z
M 1563 2969 
Q 1275 2969 1084 2770 
Q 894 2572 866 2000 
L 2194 2000 
L 2194 2078 
Q 2172 2469 2048 2719 
Q 1925 2969 1563 2969 
z
" transform="scale(0.015625)"/>
       <path id="RobotoCondensed-Regular-61" d="M 2156 0 
Q 2103 122 2081 366 
Q 1966 194 1775 65 
Q 1584 -63 1334 -63 
Q 891 -63 623 187 
Q 356 438 356 922 
Q 356 1409 690 1729 
Q 1025 2050 1691 2050 
L 2072 2050 
L 2072 2413 
Q 2072 2713 1936 2841 
Q 1800 2969 1528 2969 
Q 1263 2969 1114 2812 
Q 966 2656 966 2444 
L 413 2444 
Q 413 2806 722 3125 
Q 1031 3444 1556 3444 
Q 2025 3444 2325 3209 
Q 2625 2975 2625 2406 
L 2625 794 
Q 2625 316 2728 50 
L 2728 0 
L 2156 0 
z
M 1419 441 
Q 1653 441 1825 562 
Q 1997 684 2072 834 
L 2072 1644 
L 1781 1644 
Q 1384 1644 1146 1475 
Q 909 1306 909 991 
Q 909 688 1036 564 
Q 1163 441 1419 441 
z
" transform="scale(0.015625)"/>
       <path id="RobotoCondensed-Regular-72" d="M 1563 2888 
Q 1138 2888 969 2425 
L 969 0 
L 416 0 
L 416 3381 
L 950 3381 
L 963 3041 
Q 1184 3444 1591 3444 
Q 1738 3444 1809 3400 
L 1813 2863 
Q 1691 2888 1563 2888 
z
" transform="scale(0.015625)"/>
      </defs>
      <use xlink:href="#RobotoCondensed-Regular-59"/>
      <use xlink:href="#RobotoCondensed-Regular-65" transform="translate(52.490234 0)"/>
      <use xlink:href="#RobotoCondensed-Regular-61" transform="translate(99.365234 0)"/>
      <use xlink:href="#RobotoCondensed-Regular-72" transform="translate(147.265625 0)"/>
     </g>
    </g>
   </g>
   <g id="matplotlib.axis_2">
    <g id="ytick_1">
     <g id="line2d_17">
      <path d="M 39.78375 175.99892 
L 298.123528 175.99892 
" clip-path="url(#pc02070b443)" style="fill: none; stroke-dasharray: 0.5,0.825; stroke-dashoffset: 0; stroke: #d3d3d3; stroke-width: 0.5"/>
     </g>
     <g id="line2d_18">
      <defs>
       <path id="m37a7b220bb" d="M 0 0 
L -3.5 0 
" style="stroke: #000000; stroke-width: 0.8"/>
      </defs>
      <g>
       <use xlink:href="#m37a7b220bb" x="39.78375" y="175.99892" style="stroke: #000000; stroke-width: 0.8"/>
      </g>
     </g>
     <g id="text_10">
      <!-- 0 -->
      <g transform="translate(29.822187 178.24892) scale(0.06 -0.06)">
       <use xlink:href="#RobotoCondensed-Regular-30"/>
      </g>
     </g>
    </g>
    <g id="ytick_2">
     <g id="line2d_19">
      <path d="M 39.78375 151.839352 
L 298.123528 151.839352 
" clip-path="url(#pc02070b443)" style="fill: none; stroke-dasharray: 0.5,0.825; stroke-dashoffset: 0; stroke: #d3d3d3; stroke-width: 0.5"/>
     </g>
     <g id="line2d_20">
      <g>
       <use xlink:href="#m37a7b220bb" x="39.78375" y="151.839352" style="stroke: #000000; stroke-width: 0.8"/>
      </g>
     </g>
     <g id="text_11">
      <!-- 500 -->
      <g transform="translate(23.899062 154.089352) scale(0.06 -0.06)">
       <use xlink:href="#RobotoCondensed-Regular-35"/>
       <use xlink:href="#RobotoCondensed-Regular-30" transform="translate(49.365234 0)"/>
       <use xlink:href="#RobotoCondensed-Regular-30" transform="translate(98.730469 0)"/>
      </g>
     </g>
    </g>
    <g id="ytick_3">
     <g id="line2d_21">
      <path d="M 39.78375 127.679784 
L 298.123528 127.679784 
" clip-path="url(#pc02070b443)" style="fill: none; stroke-dasharray: 0.5,0.825; stroke-dashoffset: 0; stroke: #d3d3d3; stroke-width: 0.5"/>
     </g>
     <g id="line2d_22">
      <g>
       <use xlink:href="#m37a7b220bb" x="39.78375" y="127.679784" style="stroke: #000000; stroke-width: 0.8"/>
      </g>
     </g>
     <g id="text_12">
      <!-- 1000 -->
      <g transform="translate(20.9375 129.929784) scale(0.06 -0.06)">
       <use xlink:href="#RobotoCondensed-Regular-31"/>
       <use xlink:href="#RobotoCondensed-Regular-30" transform="translate(49.365234 0)"/>
       <use xlink:href="#RobotoCondensed-Regular-30" transform="translate(98.730469 0)"/>
       <use xlink:href="#RobotoCondensed-Regular-30" transform="translate(148.095703 0)"/>
      </g>
     </g>
    </g>
    <g id="ytick_4">
     <g id="line2d_23">
      <path d="M 39.78375 103.520215 
L 298.123528 103.520215 
" clip-path="url(#pc02070b443)" style="fill: none; stroke-dasharray: 0.5,0.825; stroke-dashoffset: 0; stroke: #d3d3d3; stroke-width: 0.5"/>
     </g>
     <g id="line2d_24">
      <g>
       <use xlink:href="#m37a7b220bb" x="39.78375" y="103.520215" style="stroke: #000000; stroke-width: 0.8"/>
      </g>
     </g>
     <g id="text_13">
      <!-- 1500 -->
      <g transform="translate(20.9375 105.770215) scale(0.06 -0.06)">
       <use xlink:href="#RobotoCondensed-Regular-31"/>
       <use xlink:href="#RobotoCondensed-Regular-35" transform="translate(49.365234 0)"/>
       <use xlink:href="#RobotoCondensed-Regular-30" transform="translate(98.730469 0)"/>
       <use xlink:href="#RobotoCondensed-Regular-30" transform="translate(148.095703 0)"/>
      </g>
     </g>
    </g>
    <g id="ytick_5">
     <g id="line2d_25">
      <path d="M 39.78375 79.360647 
L 298.123528 79.360647 
" clip-path="url(#pc02070b443)" style="fill: none; stroke-dasharray: 0.5,0.825; stroke-dashoffset: 0; stroke: #d3d3d3; stroke-width: 0.5"/>
     </g>
     <g id="line2d_26">
      <g>
       <use xlink:href="#m37a7b220bb" x="39.78375" y="79.360647" style="stroke: #000000; stroke-width: 0.8"/>
      </g>
     </g>
     <g id="text_14">
      <!-- 2000 -->
      <g transform="translate(20.9375 81.610647) scale(0.06 -0.06)">
       <use xlink:href="#RobotoCondensed-Regular-32"/>
       <use xlink:href="#RobotoCondensed-Regular-30" transform="translate(49.365234 0)"/>
       <use xlink:href="#RobotoCondensed-Regular-30" transform="translate(98.730469 0)"/>
       <use xlink:href="#RobotoCondensed-Regular-30" transform="translate(148.095703 0)"/>
      </g>
     </g>
    </g>
    <g id="ytick_6">
     <g id="line2d_27">
      <path d="M 39.78375 55.201079 
L 298.123528 55.201079 
" clip-path="url(#pc02070b443)" style="fill: none; stroke-dasharray: 0.5,0.825; stroke-dashoffset: 0; stroke: #d3d3d3; stroke-width: 0.5"/>
     </g>
     <g id="line2d_28">
      <g>
       <use xlink:href="#m37a7b220bb" x="39.78375" y="55.201079" style="stroke: #000000; stroke-width: 0.8"/>
      </g>
     </g>
     <g id="text_15">
      <!-- 2500 -->
      <g transform="translate(20.9375 57.451079) scale(0.06 -0.06)">
       <use xlink:href="#RobotoCondensed-Regular-32"/>
       <use xlink:href="#RobotoCondensed-Regular-35" transform="translate(49.365234 0)"/>
       <use xlink:href="#RobotoCondensed-Regular-30" transform="translate(98.730469 0)"/>
       <use xlink:href="#RobotoCondensed-Regular-30" transform="translate(148.095703 0)"/>
      </g>
     </g>
    </g>
    <g id="ytick_7">
     <g id="line2d_29">
      <path d="M 39.78375 31.04151 
L 298.123528 31.04151 
" clip-path="url(#pc02070b443)" style="fill: none; stroke-dasharray: 0.5,0.825; stroke-dashoffset: 0; stroke: #d3d3d3; stroke-width: 0.5"/>
     </g>
     <g id="line2d_30">
      <g>
       <use xlink:href="#m37a7b220bb" x="39.78375" y="31.04151" style="stroke: #000000; stroke-width: 0.8"/>
      </g>
     </g>
     <g id="text_16">
      <!-- 3000 -->
      <g transform="translate(20.9375 33.29151) scale(0.06 -0.06)">
       <defs>
        <path id="RobotoCondensed-Regular-33" d="M 1075 2084 
L 1075 2559 
L 1431 2559 
Q 1788 2559 1961 2781 
Q 2134 3003 2134 3338 
Q 2134 4138 1519 4138 
Q 1228 4138 1054 3927 
Q 881 3716 881 3359 
L 331 3359 
Q 331 3881 653 4247 
Q 975 4613 1519 4613 
Q 2038 4613 2363 4286 
Q 2688 3959 2688 3325 
Q 2688 3072 2550 2786 
Q 2413 2500 2100 2338 
Q 2484 2194 2612 1886 
Q 2741 1578 2741 1269 
Q 2741 631 2389 284 
Q 2038 -63 1516 -63 
Q 1006 -63 656 267 
Q 306 597 306 1203 
L 859 1203 
Q 859 844 1032 628 
Q 1206 413 1516 413 
Q 1822 413 2005 622 
Q 2188 831 2188 1256 
Q 2188 2084 1403 2084 
L 1075 2084 
z
" transform="scale(0.015625)"/>
       </defs>
       <use xlink:href="#RobotoCondensed-Regular-33"/>
       <use xlink:href="#RobotoCondensed-Regular-30" transform="translate(49.365234 0)"/>
       <use xlink:href="#RobotoCondensed-Regular-30" transform="translate(98.730469 0)"/>
       <use xlink:href="#RobotoCondensed-Regular-30" transform="translate(148.095703 0)"/>
      </g>
     </g>
    </g>
    <g id="text_17">
     <!-- Number of Kanji -->
     <g transform="translate(14.803125 135.357656) rotate(-90) scale(0.1 -0.1)">
      <defs>
       <path id="RobotoCondensed-Regular-4e" d="M 3466 4550 
L 3466 0 
L 2888 0 
L 1066 3509 
L 1066 0 
L 491 0 
L 491 4550 
L 1066 4550 
L 2897 1031 
L 2897 4550 
L 3466 4550 
z
" transform="scale(0.015625)"/>
       <path id="RobotoCondensed-Regular-75" d="M 2153 0 
L 2144 297 
Q 1863 -63 1338 -63 
Q 919 -63 662 231 
Q 406 525 406 1200 
L 406 3381 
L 956 3381 
L 956 1178 
Q 959 731 1107 579 
Q 1256 428 1431 428 
Q 1931 428 2125 881 
L 2125 3381 
L 2678 3381 
L 2678 0 
L 2153 0 
z
" transform="scale(0.015625)"/>
       <path id="RobotoCondensed-Regular-6d" d="M 1556 2956 
Q 1141 2956 969 2544 
L 969 0 
L 419 0 
L 419 3381 
L 938 3381 
L 953 3075 
Q 1256 3444 1766 3444 
Q 2325 3444 2553 2953 
Q 2872 3444 3441 3444 
Q 3903 3444 4151 3153 
Q 4400 2863 4400 2222 
L 4400 0 
L 3847 0 
L 3847 2228 
Q 3847 2653 3692 2804 
Q 3538 2956 3272 2956 
Q 3016 2956 2864 2757 
Q 2713 2559 2684 2272 
L 2684 0 
L 2131 0 
L 2131 2272 
Q 2116 2956 1556 2956 
z
" transform="scale(0.015625)"/>
       <path id="RobotoCondensed-Regular-62" d="M 2866 1528 
Q 2866 725 2575 331 
Q 2284 -63 1753 -63 
Q 1219 -63 950 400 
L 922 0 
L 416 0 
L 416 4800 
L 969 4800 
L 969 3016 
Q 1234 3444 1750 3444 
Q 2278 3444 2567 3073 
Q 2856 2703 2866 1897 
L 2866 1528 
z
M 1606 2956 
Q 1181 2956 969 2497 
L 969 884 
Q 1181 428 1609 428 
Q 1984 428 2146 690 
Q 2309 953 2313 1506 
L 2313 1844 
Q 2313 2406 2159 2681 
Q 2006 2956 1606 2956 
z
" transform="scale(0.015625)"/>
       <path id="RobotoCondensed-Regular-20" transform="scale(0.015625)"/>
       <path id="RobotoCondensed-Regular-6f" d="M 300 1850 
Q 300 2641 678 3042 
Q 1056 3444 1603 3444 
Q 2156 3444 2536 3042 
Q 2916 2641 2916 1850 
L 2916 1528 
Q 2916 738 2536 337 
Q 2156 -63 1609 -63 
Q 1059 -63 679 337 
Q 300 738 300 1528 
L 300 1850 
z
M 853 1528 
Q 853 969 1068 689 
Q 1284 409 1609 409 
Q 2341 409 2363 1466 
L 2363 1850 
Q 2363 2403 2145 2686 
Q 1928 2969 1603 2969 
Q 1281 2969 1067 2686 
Q 853 2403 853 1850 
L 853 1528 
z
" transform="scale(0.015625)"/>
       <path id="RobotoCondensed-Regular-66" d="M 1788 2938 
L 1213 2938 
L 1213 0 
L 659 0 
L 659 2938 
L 219 2938 
L 219 3381 
L 659 3381 
L 659 3763 
Q 666 4297 923 4581 
Q 1181 4866 1628 4866 
Q 1794 4866 1963 4816 
L 1938 4344 
Q 1834 4372 1684 4372 
Q 1222 4372 1213 3763 
L 1213 3381 
L 1788 3381 
L 1788 2938 
z
" transform="scale(0.015625)"/>
       <path id="RobotoCondensed-Regular-4b" d="M 2781 0 
L 1513 2097 
L 1066 1559 
L 1066 0 
L 491 0 
L 491 4550 
L 1066 4550 
L 1066 2359 
L 1441 2850 
L 2666 4550 
L 3353 4550 
L 1875 2547 
L 3466 0 
L 2781 0 
z
" transform="scale(0.015625)"/>
       <path id="RobotoCondensed-Regular-6e" d="M 1603 2956 
Q 1400 2956 1236 2818 
Q 1072 2681 969 2459 
L 969 0 
L 416 0 
L 416 3381 
L 938 3381 
L 953 3022 
Q 1275 3444 1775 3444 
Q 2191 3444 2437 3162 
Q 2684 2881 2684 2216 
L 2684 0 
L 2131 0 
L 2131 2222 
Q 2131 2619 2000 2787 
Q 1869 2956 1603 2956 
z
" transform="scale(0.015625)"/>
       <path id="RobotoCondensed-Regular-6a" d="M 378 4278 
Q 378 4419 458 4516 
Q 538 4613 691 4613 
Q 847 4613 926 4516 
Q 1006 4419 1006 4278 
Q 1006 4144 926 4048 
Q 847 3953 691 3953 
Q 538 3953 458 4048 
Q 378 4144 378 4278 
z
M 428 3381 
L 978 3381 
L 978 -403 
Q 978 -1366 238 -1366 
Q 66 -1366 -72 -1313 
L -72 -847 
Q 31 -875 147 -875 
Q 419 -875 428 -444 
L 428 3381 
z
" transform="scale(0.015625)"/>
       <path id="RobotoCondensed-Regular-69" d="M 428 4278 
Q 428 4419 506 4516 
Q 584 4613 741 4613 
Q 894 4613 975 4516 
Q 1056 4419 1056 4278 
Q 1056 4144 975 4048 
Q 894 3953 741 3953 
Q 584 3953 506 4048 
Q 428 4144 428 4278 
z
M 1009 3381 
L 1009 0 
L 459 0 
L 459 3381 
L 1009 3381 
z
" transform="scale(0.015625)"/>
      </defs>
      <use xlink:href="#RobotoCondensed-Regular-4e"/>
      <use xlink:href="#RobotoCondensed-Regular-75" transform="translate(61.962891 0)"/>
      <use xlink:href="#RobotoCondensed-Regular-6d" transform="translate(110.302734 0)"/>
      <use xlink:href="#RobotoCondensed-Regular-62" transform="translate(185.595703 0)"/>
      <use xlink:href="#RobotoCondensed-Regular-65" transform="translate(234.912109 0)"/>
      <use xlink:href="#RobotoCondensed-Regular-72" transform="translate(281.787109 0)"/>
      <use xlink:href="#RobotoCondensed-Regular-20" transform="translate(312.255859 0)"/>
      <use xlink:href="#RobotoCondensed-Regular-6f" transform="translate(335.205078 0)"/>
      <use xlink:href="#RobotoCondensed-Regular-66" transform="translate(385.400391 0)"/>
      <use xlink:href="#RobotoCondensed-Regular-20" transform="translate(417.041016 0)"/>
      <use xlink:href="#RobotoCondensed-Regular-4b" transform="translate(439.990234 0)"/>
      <use xlink:href="#RobotoCondensed-Regular-61" transform="translate(494.53125 0)"/>
      <use xlink:href="#RobotoCondensed-Regular-6e" transform="translate(542.431641 0)"/>
      <use xlink:href="#RobotoCondensed-Regular-6a" transform="translate(590.869141 0)"/>
      <use xlink:href="#RobotoCondensed-Regular-69" transform="translate(613.28125 0)"/>
     </g>
    </g>
   </g>
   <g id="line2d_31">
    <path d="M 51.526467 175.99892 
L 64.946715 171.55356 
L 148.823267 170.200624 
L 165.598577 167.977944 
L 195.794135 162.276286 
L 219.27957 162.227967 
L 242.765004 128.501209 
L 259.540314 128.404571 
L 262.895377 134.396144 
L 279.670687 134.347825 
L 286.380811 134.299505 
" clip-path="url(#pc02070b443)" style="fill: none; stroke: #000000; stroke-width: 2; stroke-linecap: square"/>
   </g>
   <g id="line2d_32">
    <path d="M 51.526467 86.608518 
L 64.946715 82.163157 
L 148.823267 80.810221 
L 165.598577 73.997223 
L 195.794135 68.295565 
L 219.27957 68.247246 
L 242.765004 34.520488 
L 259.540314 34.42385 
L 262.895377 31.186468 
L 279.670687 31.138149 
L 286.380811 31.08983 
" clip-path="url(#pc02070b443)" style="fill: none; stroke-dasharray: 7.4,3.2; stroke-dashoffset: 0; stroke: #000000; stroke-width: 2"/>
   </g>
   <g id="patch_3">
    <path d="M 39.78375 183.244375 
L 39.78375 23.844375 
" style="fill: none; stroke: #000000; stroke-width: 0.8; stroke-linejoin: miter; stroke-linecap: square"/>
   </g>
   <g id="patch_4">
    <path d="M 39.78375 183.244375 
L 298.123528 183.244375 
" style="fill: none; stroke: #000000; stroke-width: 0.8; stroke-linejoin: miter; stroke-linecap: square"/>
   </g>
   <g id="text_18">
    <!-- 0 -->
    <g transform="translate(56.526467 170.99892) scale(0.07 -0.07)">
     <use xlink:href="#RobotoCondensed-Regular-30"/>
    </g>
   </g>
   <g id="text_19">
    <!-- 1850 -->
    <g transform="translate(56.526467 96.608518) scale(0.07 -0.07)">
     <use xlink:href="#RobotoCondensed-Regular-31"/>
     <use xlink:href="#RobotoCondensed-Regular-38" transform="translate(49.365234 0)"/>
     <use xlink:href="#RobotoCondensed-Regular-35" transform="translate(98.730469 0)"/>
     <use xlink:href="#RobotoCondensed-Regular-30" transform="translate(148.095703 0)"/>
    </g>
   </g>
   <g id="text_20">
    <!-- 120 -->
    <g transform="translate(153.823267 165.200624) scale(0.07 -0.07)">
     <use xlink:href="#RobotoCondensed-Regular-31"/>
     <use xlink:href="#RobotoCondensed-Regular-32" transform="translate(49.365234 0)"/>
     <use xlink:href="#RobotoCondensed-Regular-30" transform="translate(98.730469 0)"/>
    </g>
   </g>
   <g id="text_21">
    <!-- 1970 -->
    <g transform="translate(153.823267 90.810221) scale(0.07 -0.07)">
     <use xlink:href="#RobotoCondensed-Regular-31"/>
     <use xlink:href="#RobotoCondensed-Regular-39" transform="translate(49.365234 0)"/>
     <use xlink:href="#RobotoCondensed-Regular-37" transform="translate(98.730469 0)"/>
     <use xlink:href="#RobotoCondensed-Regular-30" transform="translate(148.095703 0)"/>
    </g>
   </g>
   <g id="text_22">
    <!-- 284 -->
    <g transform="translate(200.794135 157.276286) scale(0.07 -0.07)">
     <defs>
      <path id="RobotoCondensed-Regular-34" d="M 188 1397 
L 1878 4550 
L 2463 4550 
L 2463 1531 
L 2969 1531 
L 2969 1056 
L 2463 1056 
L 2463 0 
L 1909 0 
L 1909 1056 
L 188 1056 
L 188 1397 
z
M 803 1531 
L 1909 1531 
L 1909 3703 
L 1878 3638 
L 803 1531 
z
" transform="scale(0.015625)"/>
     </defs>
     <use xlink:href="#RobotoCondensed-Regular-32"/>
     <use xlink:href="#RobotoCondensed-Regular-38" transform="translate(49.365234 0)"/>
     <use xlink:href="#RobotoCondensed-Regular-34" transform="translate(98.730469 0)"/>
    </g>
   </g>
   <g id="text_23">
    <!-- 2229 -->
    <g transform="translate(200.794135 78.295565) scale(0.07 -0.07)">
     <use xlink:href="#RobotoCondensed-Regular-32"/>
     <use xlink:href="#RobotoCondensed-Regular-32" transform="translate(49.365234 0)"/>
     <use xlink:href="#RobotoCondensed-Regular-32" transform="translate(98.730469 0)"/>
     <use xlink:href="#RobotoCondensed-Regular-39" transform="translate(148.095703 0)"/>
    </g>
   </g>
   <g id="text_24">
    <!-- 983 -->
    <g transform="translate(247.765004 123.501209) scale(0.07 -0.07)">
     <use xlink:href="#RobotoCondensed-Regular-39"/>
     <use xlink:href="#RobotoCondensed-Regular-38" transform="translate(49.365234 0)"/>
     <use xlink:href="#RobotoCondensed-Regular-33" transform="translate(98.730469 0)"/>
    </g>
   </g>
   <g id="text_25">
    <!-- 2928 -->
    <g transform="translate(247.765004 44.520488) scale(0.07 -0.07)">
     <use xlink:href="#RobotoCondensed-Regular-32"/>
     <use xlink:href="#RobotoCondensed-Regular-39" transform="translate(49.365234 0)"/>
     <use xlink:href="#RobotoCondensed-Regular-32" transform="translate(98.730469 0)"/>
     <use xlink:href="#RobotoCondensed-Regular-38" transform="translate(148.095703 0)"/>
    </g>
   </g>
   <g id="text_26">
    <!-- 861 -->
    <g transform="translate(267.895377 129.396144) scale(0.07 -0.07)">
     <use xlink:href="#RobotoCondensed-Regular-38"/>
     <use xlink:href="#RobotoCondensed-Regular-36" transform="translate(49.365234 0)"/>
     <use xlink:href="#RobotoCondensed-Regular-31" transform="translate(98.730469 0)"/>
    </g>
   </g>
   <g id="text_27">
    <!-- 2997 -->
    <g transform="translate(267.895377 41.186468) scale(0.07 -0.07)">
     <use xlink:href="#RobotoCondensed-Regular-32"/>
     <use xlink:href="#RobotoCondensed-Regular-39" transform="translate(49.365234 0)"/>
     <use xlink:href="#RobotoCondensed-Regular-39" transform="translate(98.730469 0)"/>
     <use xlink:href="#RobotoCondensed-Regular-37" transform="translate(148.095703 0)"/>
    </g>
   </g>
   <g id="text_28">
    <!-- 863 -->
    <g transform="translate(291.380811 129.299505) scale(0.07 -0.07)">
     <use xlink:href="#RobotoCondensed-Regular-38"/>
     <use xlink:href="#RobotoCondensed-Regular-36" transform="translate(49.365234 0)"/>
     <use xlink:href="#RobotoCondensed-Regular-33" transform="translate(98.730469 0)"/>
    </g>
   </g>
   <g id="text_29">
    <!-- 2999 -->
    <g transform="translate(291.380811 41.08983) scale(0.07 -0.07)">
     <use xlink:href="#RobotoCondensed-Regular-32"/>
     <use xlink:href="#RobotoCondensed-Regular-39" transform="translate(49.365234 0)"/>
     <use xlink:href="#RobotoCondensed-Regular-39" transform="translate(98.730469 0)"/>
     <use xlink:href="#RobotoCondensed-Regular-39" transform="translate(148.095703 0)"/>
    </g>
   </g>
   <g id="text_30">
    <!-- Number of Kanji allowed in Names -->
    <g transform="translate(72.849108 17.844375) scale(0.14 -0.14)">
     <defs>
      <path id="RobotoCondensed-Bold-4e" d="M 3550 4550 
L 3550 0 
L 2631 0 
L 1288 2984 
L 1288 0 
L 366 0 
L 366 4550 
L 1288 4550 
L 2631 1563 
L 2631 4550 
L 3550 4550 
z
" transform="scale(0.015625)"/>
      <path id="RobotoCondensed-Bold-75" d="M 2009 0 
L 1988 313 
Q 1713 -63 1247 -63 
Q 828 -63 565 231 
Q 303 525 303 1194 
L 303 3381 
L 1188 3381 
L 1188 1194 
Q 1188 678 1513 678 
Q 1819 678 1953 941 
L 1953 3381 
L 2841 3381 
L 2841 0 
L 2009 0 
z
" transform="scale(0.015625)"/>
      <path id="RobotoCondensed-Bold-6d" d="M 1572 2706 
Q 1341 2706 1213 2466 
L 1213 0 
L 328 0 
L 328 3381 
L 1156 3381 
L 1181 3069 
Q 1475 3444 1963 3444 
Q 2466 3444 2681 2991 
Q 2972 3444 3506 3444 
Q 3916 3444 4166 3153 
Q 4416 2863 4416 2153 
L 4416 0 
L 3531 0 
L 3531 2153 
Q 3531 2491 3437 2598 
Q 3344 2706 3175 2706 
Q 2925 2706 2809 2400 
L 2813 0 
L 1931 0 
L 1931 2147 
Q 1931 2481 1837 2593 
Q 1744 2706 1572 2706 
z
" transform="scale(0.015625)"/>
      <path id="RobotoCondensed-Bold-62" d="M 2959 1581 
Q 2959 759 2687 348 
Q 2416 -63 1872 -63 
Q 1428 -63 1169 334 
L 1141 0 
L 325 0 
L 325 4800 
L 1206 4800 
L 1206 3106 
Q 1459 3444 1866 3444 
Q 2434 3444 2695 3033 
Q 2956 2622 2959 1825 
L 2959 1581 
z
M 1613 2706 
Q 1331 2706 1206 2453 
L 1206 913 
Q 1328 675 1618 675 
Q 1909 675 1993 881 
Q 2078 1088 2078 1581 
L 2078 1803 
Q 2078 2263 1992 2484 
Q 1906 2706 1613 2706 
z
" transform="scale(0.015625)"/>
      <path id="RobotoCondensed-Bold-65" d="M 2834 444 
Q 2700 263 2411 100 
Q 2122 -63 1688 -63 
Q 997 -63 620 350 
Q 244 763 244 1497 
L 244 1775 
Q 244 2597 601 3020 
Q 959 3444 1596 3444 
Q 2234 3444 2556 3041 
Q 2878 2638 2884 1831 
L 2884 1397 
L 1131 1397 
Q 1147 994 1305 833 
Q 1463 672 1747 672 
Q 2194 672 2484 978 
L 2834 444 
z
M 1594 2709 
Q 1363 2709 1258 2545 
Q 1153 2381 1134 2016 
L 2019 2016 
L 2019 2094 
Q 2013 2400 1919 2554 
Q 1825 2709 1594 2709 
z
" transform="scale(0.015625)"/>
      <path id="RobotoCondensed-Bold-72" d="M 1700 2553 
Q 1331 2553 1206 2238 
L 1206 0 
L 322 0 
L 322 3381 
L 1156 3381 
L 1181 3016 
Q 1394 3444 1759 3444 
Q 1903 3444 2000 3406 
L 1991 2528 
Q 1834 2553 1700 2553 
z
" transform="scale(0.015625)"/>
      <path id="RobotoCondensed-Bold-20" transform="scale(0.015625)"/>
      <path id="RobotoCondensed-Bold-6f" d="M 222 1800 
Q 222 2597 592 3020 
Q 963 3444 1588 3444 
Q 2219 3444 2589 3020 
Q 2959 2597 2959 1800 
L 2959 1578 
Q 2959 781 2589 359 
Q 2219 -63 1594 -63 
Q 966 -63 594 359 
Q 222 781 222 1578 
L 222 1800 
z
M 1106 1578 
Q 1106 672 1594 672 
Q 2059 672 2075 1522 
L 2075 1800 
Q 2075 2709 1588 2709 
Q 1122 2709 1106 1856 
L 1106 1578 
z
" transform="scale(0.015625)"/>
      <path id="RobotoCondensed-Bold-66" d="M 1941 2716 
L 1413 2716 
L 1413 0 
L 528 0 
L 528 2716 
L 119 2716 
L 119 3381 
L 528 3381 
L 528 3688 
Q 531 4259 826 4562 
Q 1122 4866 1628 4866 
Q 1819 4866 2028 4803 
L 2022 4100 
Q 1931 4125 1806 4125 
Q 1416 4125 1413 3681 
L 1413 3381 
L 1941 3381 
L 1941 2716 
z
" transform="scale(0.015625)"/>
      <path id="RobotoCondensed-Bold-4b" d="M 2481 0 
L 1650 1759 
L 1288 1306 
L 1288 0 
L 366 0 
L 366 4550 
L 1288 4550 
L 1288 2572 
L 1578 3059 
L 2425 4550 
L 3547 4550 
L 2244 2550 
L 3569 0 
L 2481 0 
z
" transform="scale(0.015625)"/>
      <path id="RobotoCondensed-Bold-61" d="M 1928 0 
Q 1881 106 1853 263 
Q 1613 -63 1209 -63 
Q 800 -63 514 212 
Q 228 488 228 947 
Q 228 1463 559 1764 
Q 891 2066 1572 2066 
L 1809 2066 
L 1809 2338 
Q 1809 2753 1503 2753 
Q 1172 2753 1172 2366 
L 288 2366 
Q 288 2809 623 3126 
Q 959 3444 1528 3444 
Q 2031 3444 2364 3181 
Q 2697 2919 2697 2325 
L 2697 738 
Q 2703 288 2819 53 
L 2819 0 
L 1928 0 
z
M 1409 634 
Q 1553 634 1656 693 
Q 1759 753 1809 834 
L 1809 1538 
L 1600 1538 
Q 1350 1538 1231 1384 
Q 1113 1231 1113 1009 
Q 1113 634 1409 634 
z
" transform="scale(0.015625)"/>
      <path id="RobotoCondensed-Bold-6e" d="M 1563 2706 
Q 1322 2706 1188 2456 
L 1188 0 
L 303 0 
L 303 3381 
L 1131 3381 
L 1156 3050 
Q 1459 3444 1944 3444 
Q 2341 3444 2589 3156 
Q 2838 2869 2838 2150 
L 2838 0 
L 1953 0 
L 1953 2156 
Q 1953 2478 1854 2592 
Q 1756 2706 1563 2706 
z
" transform="scale(0.015625)"/>
      <path id="RobotoCondensed-Bold-6a" d="M 306 4256 
Q 306 4463 437 4595 
Q 569 4728 788 4728 
Q 1009 4728 1140 4595 
Q 1272 4463 1272 4256 
Q 1272 4053 1140 3920 
Q 1009 3788 788 3788 
Q 569 3788 437 3920 
Q 306 4053 306 4256 
z
M 366 3381 
L 1253 3381 
L 1253 -184 
Q 1253 -756 986 -1061 
Q 719 -1366 238 -1366 
Q 25 -1366 -169 -1313 
L -169 -594 
Q -28 -619 69 -619 
Q 366 -619 366 -184 
L 366 3381 
z
" transform="scale(0.015625)"/>
      <path id="RobotoCondensed-Bold-69" d="M 322 4256 
Q 322 4463 453 4595 
Q 584 4728 806 4728 
Q 1025 4728 1156 4595 
Q 1288 4463 1288 4256 
Q 1288 4053 1156 3920 
Q 1025 3788 806 3788 
Q 584 3788 453 3920 
Q 322 4053 322 4256 
z
M 1250 3381 
L 1250 0 
L 363 0 
L 363 3381 
L 1250 3381 
z
" transform="scale(0.015625)"/>
      <path id="RobotoCondensed-Bold-6c" d="M 1250 4800 
L 1250 0 
L 363 0 
L 363 4800 
L 1250 4800 
z
" transform="scale(0.015625)"/>
      <path id="RobotoCondensed-Bold-77" d="M 3938 3381 
L 3238 0 
L 2500 0 
L 2022 1953 
L 1544 0 
L 809 0 
L 106 3381 
L 956 3381 
L 1259 1491 
L 1706 3381 
L 2338 3381 
L 2788 1488 
L 3088 3381 
L 3938 3381 
z
" transform="scale(0.015625)"/>
      <path id="RobotoCondensed-Bold-64" d="M 2044 -3 
L 2003 347 
Q 1734 -63 1300 -63 
Q 772 -63 490 353 
Q 209 769 206 1553 
L 206 1794 
Q 206 2616 479 3030 
Q 753 3444 1303 3444 
Q 1700 3444 1956 3106 
L 1956 4800 
L 2844 4800 
L 2844 0 
L 2044 -3 
z
M 1091 1572 
Q 1091 1106 1189 892 
Q 1288 678 1556 678 
Q 1828 678 1956 916 
L 1956 2453 
Q 1825 2706 1559 2706 
Q 1297 2706 1194 2490 
Q 1091 2275 1091 1794 
L 1091 1572 
z
" transform="scale(0.015625)"/>
      <path id="RobotoCondensed-Bold-73" d="M 1819 906 
Q 1819 1038 1684 1138 
Q 1550 1238 1234 1375 
Q 772 1556 523 1787 
Q 275 2019 275 2425 
Q 275 2847 584 3145 
Q 894 3444 1444 3444 
Q 2013 3444 2341 3151 
Q 2669 2859 2669 2384 
L 1784 2384 
Q 1784 2800 1441 2800 
Q 1122 2800 1122 2469 
Q 1122 2338 1245 2247 
Q 1369 2156 1694 2022 
Q 2200 1831 2439 1597 
Q 2678 1363 2678 944 
Q 2678 494 2343 215 
Q 2009 -63 1444 -63 
Q 831 -63 507 285 
Q 184 634 184 1047 
L 1022 1047 
Q 1028 772 1150 678 
Q 1272 584 1463 584 
Q 1819 584 1819 906 
z
" transform="scale(0.015625)"/>
     </defs>
     <use xlink:href="#RobotoCondensed-Bold-4e"/>
     <use xlink:href="#RobotoCondensed-Bold-75" transform="translate(61.230469 0)"/>
     <use xlink:href="#RobotoCondensed-Bold-6d" transform="translate(110.449219 0)"/>
     <use xlink:href="#RobotoCondensed-Bold-62" transform="translate(184.619141 0)"/>
     <use xlink:href="#RobotoCondensed-Bold-65" transform="translate(234.130859 0)"/>
     <use xlink:href="#RobotoCondensed-Bold-72" transform="translate(282.03125 0)"/>
     <use xlink:href="#RobotoCondensed-Bold-20" transform="translate(315.185547 0)"/>
     <use xlink:href="#RobotoCondensed-Bold-6f" transform="translate(338.232422 0)"/>
     <use xlink:href="#RobotoCondensed-Bold-66" transform="translate(387.988281 0)"/>
     <use xlink:href="#RobotoCondensed-Bold-20" transform="translate(420.800781 0)"/>
     <use xlink:href="#RobotoCondensed-Bold-4b" transform="translate(443.847656 0)"/>
     <use xlink:href="#RobotoCondensed-Bold-61" transform="translate(499.169922 0)"/>
     <use xlink:href="#RobotoCondensed-Bold-6e" transform="translate(546.289062 0)"/>
     <use xlink:href="#RobotoCondensed-Bold-6a" transform="translate(595.507812 0)"/>
     <use xlink:href="#RobotoCondensed-Bold-69" transform="translate(620.068359 0)"/>
     <use xlink:href="#RobotoCondensed-Bold-20" transform="translate(645.3125 0)"/>
     <use xlink:href="#RobotoCondensed-Bold-61" transform="translate(668.359375 0)"/>
     <use xlink:href="#RobotoCondensed-Bold-6c" transform="translate(715.478516 0)"/>
     <use xlink:href="#RobotoCondensed-Bold-6c" transform="translate(740.722656 0)"/>
     <use xlink:href="#RobotoCondensed-Bold-6f" transform="translate(765.966797 0)"/>
     <use xlink:href="#RobotoCondensed-Bold-77" transform="translate(815.722656 0)"/>
     <use xlink:href="#RobotoCondensed-Bold-65" transform="translate(879.003906 0)"/>
     <use xlink:href="#RobotoCondensed-Bold-64" transform="translate(926.904297 0)"/>
     <use xlink:href="#RobotoCondensed-Bold-20" transform="translate(976.464844 0)"/>
     <use xlink:href="#RobotoCondensed-Bold-69" transform="translate(999.511719 0)"/>
     <use xlink:href="#RobotoCondensed-Bold-6e" transform="translate(1024.755859 0)"/>
     <use xlink:href="#RobotoCondensed-Bold-20" transform="translate(1073.974609 0)"/>
     <use xlink:href="#RobotoCondensed-Bold-4e" transform="translate(1097.021484 0)"/>
     <use xlink:href="#RobotoCondensed-Bold-61" transform="translate(1158.251953 0)"/>
     <use xlink:href="#RobotoCondensed-Bold-6d" transform="translate(1205.371094 0)"/>
     <use xlink:href="#RobotoCondensed-Bold-65" transform="translate(1279.541016 0)"/>
     <use xlink:href="#RobotoCondensed-Bold-73" transform="translate(1327.441406 0)"/>
    </g>
   </g>
   <g id="legend_1">
    <g id="line2d_33">
     <path d="M 45.18375 31.644375 
L 51.18375 31.644375 
L 57.18375 31.644375 
" style="fill: none; stroke: #000000; stroke-width: 2; stroke-linecap: square"/>
    </g>
    <g id="text_31">
     <!-- Name-only Kanji -->
     <g transform="translate(61.98375 33.744375) scale(0.06 -0.06)">
      <defs>
       <path id="RobotoCondensed-Regular-2d" d="M 1441 2172 
L 1441 1697 
L 150 1697 
L 150 2172 
L 1441 2172 
z
" transform="scale(0.015625)"/>
       <path id="RobotoCondensed-Regular-6c" d="M 1009 4800 
L 1009 0 
L 459 0 
L 459 4800 
L 1009 4800 
z
" transform="scale(0.015625)"/>
       <path id="RobotoCondensed-Regular-79" d="M 1425 -522 
Q 1153 -1366 563 -1366 
Q 409 -1366 278 -1316 
L 278 -847 
Q 328 -859 397 -859 
Q 631 -859 770 -746 
Q 909 -634 997 -338 
L 1106 31 
L 109 3381 
L 713 3381 
L 1341 922 
L 1953 3381 
L 2541 3381 
L 1425 -522 
z
" transform="scale(0.015625)"/>
      </defs>
      <use xlink:href="#RobotoCondensed-Regular-4e"/>
      <use xlink:href="#RobotoCondensed-Regular-61" transform="translate(61.962891 0)"/>
      <use xlink:href="#RobotoCondensed-Regular-6d" transform="translate(109.863281 0)"/>
      <use xlink:href="#RobotoCondensed-Regular-65" transform="translate(185.15625 0)"/>
      <use xlink:href="#RobotoCondensed-Regular-2d" transform="translate(232.03125 0)"/>
      <use xlink:href="#RobotoCondensed-Regular-6f" transform="translate(256.835938 0)"/>
      <use xlink:href="#RobotoCondensed-Regular-6e" transform="translate(307.03125 0)"/>
      <use xlink:href="#RobotoCondensed-Regular-6c" transform="translate(355.46875 0)"/>
      <use xlink:href="#RobotoCondensed-Regular-79" transform="translate(378.417969 0)"/>
      <use xlink:href="#RobotoCondensed-Regular-20" transform="translate(420.068359 0)"/>
      <use xlink:href="#RobotoCondensed-Regular-4b" transform="translate(443.017578 0)"/>
      <use xlink:href="#RobotoCondensed-Regular-61" transform="translate(497.558594 0)"/>
      <use xlink:href="#RobotoCondensed-Regular-6e" transform="translate(545.458984 0)"/>
      <use xlink:href="#RobotoCondensed-Regular-6a" transform="translate(593.896484 0)"/>
      <use xlink:href="#RobotoCondensed-Regular-69" transform="translate(616.308594 0)"/>
     </g>
    </g>
    <g id="line2d_34">
     <path d="M 45.18375 40.425 
L 51.18375 40.425 
L 57.18375 40.425 
" style="fill: none; stroke-dasharray: 7.4,3.2; stroke-dashoffset: 0; stroke: #000000; stroke-width: 2"/>
    </g>
    <g id="text_32">
     <!-- Total Kanji -->
     <g transform="translate(61.98375 42.525) scale(0.06 -0.06)">
      <defs>
       <path id="RobotoCondensed-Regular-54" d="M 191 4056 
L 191 4550 
L 3150 4550 
L 3150 4056 
L 1953 4056 
L 1953 0 
L 1384 0 
L 1384 4056 
L 191 4056 
z
" transform="scale(0.015625)"/>
       <path id="RobotoCondensed-Regular-74" d="M 1647 0 
Q 1488 -63 1259 -63 
Q 991 -63 789 134 
Q 588 331 588 841 
L 588 2938 
L 72 2938 
L 72 3381 
L 588 3381 
L 588 4203 
L 1141 4203 
L 1141 3381 
L 1650 3381 
L 1650 2938 
L 1141 2938 
L 1141 838 
Q 1141 578 1230 506 
Q 1319 434 1431 434 
Q 1550 434 1650 472 
L 1647 0 
z
" transform="scale(0.015625)"/>
      </defs>
      <use xlink:href="#RobotoCondensed-Regular-54"/>
      <use xlink:href="#RobotoCondensed-Regular-6f" transform="translate(52.050781 0)"/>
      <use xlink:href="#RobotoCondensed-Regular-74" transform="translate(102.246094 0)"/>
      <use xlink:href="#RobotoCondensed-Regular-61" transform="translate(131.835938 0)"/>
      <use xlink:href="#RobotoCondensed-Regular-6c" transform="translate(179.736328 0)"/>
      <use xlink:href="#RobotoCondensed-Regular-20" transform="translate(202.685547 0)"/>
      <use xlink:href="#RobotoCondensed-Regular-4b" transform="translate(225.634766 0)"/>
      <use xlink:href="#RobotoCondensed-Regular-61" transform="translate(280.175781 0)"/>
      <use xlink:href="#RobotoCondensed-Regular-6e" transform="translate(328.076172 0)"/>
      <use xlink:href="#RobotoCondensed-Regular-6a" transform="translate(376.513672 0)"/>
      <use xlink:href="#RobotoCondensed-Regular-69" transform="translate(398.925781 0)"/>
     </g>
    </g>
   </g>
  </g>
 </g>
 <defs>
  <clipPath id="pc02070b443">
   <rect x="39.78375" y="23.844375" width="258.339778" height="159.4"/>
  </clipPath>
 </defs>
</svg>
