<?xml version="1.0" encoding="utf-8" standalone="no"?>
<!DOCTYPE svg PUBLIC "-//W3C//DTD SVG 1.1//EN"
  "http://www.w3.org/Graphics/SVG/1.1/DTD/svg11.dtd">
<svg xmlns:xlink="http://www.w3.org/1999/xlink" width="713.004375pt" height="352.244062pt" viewBox="0 0 713.004375 352.244062" xmlns="http://www.w3.org/2000/svg" version="1.1">
 <metadata>
  <rdf:RDF xmlns:dc="http://purl.org/dc/elements/1.1/" xmlns:cc="http://creativecommons.org/ns#" xmlns:rdf="http://www.w3.org/1999/02/22-rdf-syntax-ns#">
   <cc:Work>
    <dc:type rdf:resource="http://purl.org/dc/dcmitype/StillImage"/>
    <dc:date>2026-04-10T22:43:51.112812</dc:date>
    <dc:format>image/svg+xml</dc:format>
    <dc:creator>
     <cc:Agent>
      <dc:title>Matplotlib v3.10.7, https://matplotlib.org/</dc:title>
     </cc:Agent>
    </dc:creator>
   </cc:Work>
  </rdf:RDF>
 </metadata>
 <defs>
  <style type="text/css">*{stroke-linejoin: round; stroke-linecap: butt}</style>
 </defs>
 <g id="figure_1">
  <g id="patch_1">
   <path d="M 0 352.244062 
L 713.004375 352.244062 
L 713.004375 0 
L 0 0 
z
" style="fill: #ffffff"/>
  </g>
  <g id="axes_1">
   <g id="patch_2">
    <path d="M 57.474063 313.72 
L 688.309063 313.72 
L 688.309063 7.2 
L 57.474063 7.2 
z
" style="fill: #ffffff"/>
   </g>
   <g id="matplotlib.axis_1">
    <g id="xtick_1">
     <g id="line2d_1">
      <defs>
       <path id="m63180648e0" d="M 0 0 
L 0 3.5 
" style="stroke: #000000; stroke-width: 0.8"/>
      </defs>
      <g>
       <use xlink:href="#m63180648e0" x="114.822699" y="313.72" style="stroke: #000000; stroke-width: 0.8"/>
      </g>
     </g>
     <g id="text_1">
      <!-- 2005.0 -->
      <g transform="translate(97.327386 328.318437) scale(0.1 -0.1)">
       <defs>
        <path id="DejaVuSans-32" d="M 1228 531 
L 3431 531 
L 3431 0 
L 469 0 
L 469 531 
Q 828 903 1448 1529 
Q 2069 2156 2228 2338 
Q 2531 2678 2651 2914 
Q 2772 3150 2772 3378 
Q 2772 3750 2511 3984 
Q 2250 4219 1831 4219 
Q 1534 4219 1204 4116 
Q 875 4013 500 3803 
L 500 4441 
Q 881 4594 1212 4672 
Q 1544 4750 1819 4750 
Q 2544 4750 2975 4387 
Q 3406 4025 3406 3419 
Q 3406 3131 3298 2873 
Q 3191 2616 2906 2266 
Q 2828 2175 2409 1742 
Q 1991 1309 1228 531 
z
" transform="scale(0.015625)"/>
        <path id="DejaVuSans-30" d="M 2034 4250 
Q 1547 4250 1301 3770 
Q 1056 3291 1056 2328 
Q 1056 1369 1301 889 
Q 1547 409 2034 409 
Q 2525 409 2770 889 
Q 3016 1369 3016 2328 
Q 3016 3291 2770 3770 
Q 2525 4250 2034 4250 
z
M 2034 4750 
Q 2819 4750 3233 4129 
Q 3647 3509 3647 2328 
Q 3647 1150 3233 529 
Q 2819 -91 2034 -91 
Q 1250 -91 836 529 
Q 422 1150 422 2328 
Q 422 3509 836 4129 
Q 1250 4750 2034 4750 
z
" transform="scale(0.015625)"/>
        <path id="DejaVuSans-35" d="M 691 4666 
L 3169 4666 
L 3169 4134 
L 1269 4134 
L 1269 2991 
Q 1406 3038 1543 3061 
Q 1681 3084 1819 3084 
Q 2600 3084 3056 2656 
Q 3513 2228 3513 1497 
Q 3513 744 3044 326 
Q 2575 -91 1722 -91 
Q 1428 -91 1123 -41 
Q 819 9 494 109 
L 494 744 
Q 775 591 1075 516 
Q 1375 441 1709 441 
Q 2250 441 2565 725 
Q 2881 1009 2881 1497 
Q 2881 1984 2565 2268 
Q 2250 2553 1709 2553 
Q 1456 2553 1204 2497 
Q 953 2441 691 2322 
L 691 4666 
z
" transform="scale(0.015625)"/>
        <path id="DejaVuSans-2e" d="M 684 794 
L 1344 794 
L 1344 0 
L 684 0 
L 684 794 
z
" transform="scale(0.015625)"/>
       </defs>
       <use xlink:href="#DejaVuSans-32"/>
       <use xlink:href="#DejaVuSans-30" transform="translate(63.623047 0)"/>
       <use xlink:href="#DejaVuSans-30" transform="translate(127.246094 0)"/>
       <use xlink:href="#DejaVuSans-35" transform="translate(190.869141 0)"/>
       <use xlink:href="#DejaVuSans-2e" transform="translate(254.492188 0)"/>
       <use xlink:href="#DejaVuSans-30" transform="translate(286.279297 0)"/>
      </g>
     </g>
    </g>
    <g id="xtick_2">
     <g id="line2d_2">
      <g>
       <use xlink:href="#m63180648e0" x="186.508494" y="313.72" style="stroke: #000000; stroke-width: 0.8"/>
      </g>
     </g>
     <g id="text_2">
      <!-- 2007.5 -->
      <g transform="translate(169.013182 328.318437) scale(0.1 -0.1)">
       <defs>
        <path id="DejaVuSans-37" d="M 525 4666 
L 3525 4666 
L 3525 4397 
L 1831 0 
L 1172 0 
L 2766 4134 
L 525 4134 
L 525 4666 
z
" transform="scale(0.015625)"/>
       </defs>
       <use xlink:href="#DejaVuSans-32"/>
       <use xlink:href="#DejaVuSans-30" transform="translate(63.623047 0)"/>
       <use xlink:href="#DejaVuSans-30" transform="translate(127.246094 0)"/>
       <use xlink:href="#DejaVuSans-37" transform="translate(190.869141 0)"/>
       <use xlink:href="#DejaVuSans-2e" transform="translate(254.492188 0)"/>
       <use xlink:href="#DejaVuSans-35" transform="translate(286.279297 0)"/>
      </g>
     </g>
    </g>
    <g id="xtick_3">
     <g id="line2d_3">
      <g>
       <use xlink:href="#m63180648e0" x="258.19429" y="313.72" style="stroke: #000000; stroke-width: 0.8"/>
      </g>
     </g>
     <g id="text_3">
      <!-- 2010.0 -->
      <g transform="translate(240.698977 328.318437) scale(0.1 -0.1)">
       <defs>
        <path id="DejaVuSans-31" d="M 794 531 
L 1825 531 
L 1825 4091 
L 703 3866 
L 703 4441 
L 1819 4666 
L 2450 4666 
L 2450 531 
L 3481 531 
L 3481 0 
L 794 0 
L 794 531 
z
" transform="scale(0.015625)"/>
       </defs>
       <use xlink:href="#DejaVuSans-32"/>
       <use xlink:href="#DejaVuSans-30" transform="translate(63.623047 0)"/>
       <use xlink:href="#DejaVuSans-31" transform="translate(127.246094 0)"/>
       <use xlink:href="#DejaVuSans-30" transform="translate(190.869141 0)"/>
       <use xlink:href="#DejaVuSans-2e" transform="translate(254.492188 0)"/>
       <use xlink:href="#DejaVuSans-30" transform="translate(286.279297 0)"/>
      </g>
     </g>
    </g>
    <g id="xtick_4">
     <g id="line2d_4">
      <g>
       <use xlink:href="#m63180648e0" x="329.880085" y="313.72" style="stroke: #000000; stroke-width: 0.8"/>
      </g>
     </g>
     <g id="text_4">
      <!-- 2012.5 -->
      <g transform="translate(312.384773 328.318437) scale(0.1 -0.1)">
       <use xlink:href="#DejaVuSans-32"/>
       <use xlink:href="#DejaVuSans-30" transform="translate(63.623047 0)"/>
       <use xlink:href="#DejaVuSans-31" transform="translate(127.246094 0)"/>
       <use xlink:href="#DejaVuSans-32" transform="translate(190.869141 0)"/>
       <use xlink:href="#DejaVuSans-2e" transform="translate(254.492188 0)"/>
       <use xlink:href="#DejaVuSans-35" transform="translate(286.279297 0)"/>
      </g>
     </g>
    </g>
    <g id="xtick_5">
     <g id="line2d_5">
      <g>
       <use xlink:href="#m63180648e0" x="401.565881" y="313.72" style="stroke: #000000; stroke-width: 0.8"/>
      </g>
     </g>
     <g id="text_5">
      <!-- 2015.0 -->
      <g transform="translate(384.070568 328.318437) scale(0.1 -0.1)">
       <use xlink:href="#DejaVuSans-32"/>
       <use xlink:href="#DejaVuSans-30" transform="translate(63.623047 0)"/>
       <use xlink:href="#DejaVuSans-31" transform="translate(127.246094 0)"/>
       <use xlink:href="#DejaVuSans-35" transform="translate(190.869141 0)"/>
       <use xlink:href="#DejaVuSans-2e" transform="translate(254.492188 0)"/>
       <use xlink:href="#DejaVuSans-30" transform="translate(286.279297 0)"/>
      </g>
     </g>
    </g>
    <g id="xtick_6">
     <g id="line2d_6">
      <g>
       <use xlink:href="#m63180648e0" x="473.251676" y="313.72" style="stroke: #000000; stroke-width: 0.8"/>
      </g>
     </g>
     <g id="text_6">
      <!-- 2017.5 -->
      <g transform="translate(455.756364 328.318437) scale(0.1 -0.1)">
       <use xlink:href="#DejaVuSans-32"/>
       <use xlink:href="#DejaVuSans-30" transform="translate(63.623047 0)"/>
       <use xlink:href="#DejaVuSans-31" transform="translate(127.246094 0)"/>
       <use xlink:href="#DejaVuSans-37" transform="translate(190.869141 0)"/>
       <use xlink:href="#DejaVuSans-2e" transform="translate(254.492188 0)"/>
       <use xlink:href="#DejaVuSans-35" transform="translate(286.279297 0)"/>
      </g>
     </g>
    </g>
    <g id="xtick_7">
     <g id="line2d_7">
      <g>
       <use xlink:href="#m63180648e0" x="544.937472" y="313.72" style="stroke: #000000; stroke-width: 0.8"/>
      </g>
     </g>
     <g id="text_7">
      <!-- 2020.0 -->
      <g transform="translate(527.442159 328.318437) scale(0.1 -0.1)">
       <use xlink:href="#DejaVuSans-32"/>
       <use xlink:href="#DejaVuSans-30" transform="translate(63.623047 0)"/>
       <use xlink:href="#DejaVuSans-32" transform="translate(127.246094 0)"/>
       <use xlink:href="#DejaVuSans-30" transform="translate(190.869141 0)"/>
       <use xlink:href="#DejaVuSans-2e" transform="translate(254.492188 0)"/>
       <use xlink:href="#DejaVuSans-30" transform="translate(286.279297 0)"/>
      </g>
     </g>
    </g>
    <g id="xtick_8">
     <g id="line2d_8">
      <g>
       <use xlink:href="#m63180648e0" x="616.623267" y="313.72" style="stroke: #000000; stroke-width: 0.8"/>
      </g>
     </g>
     <g id="text_8">
      <!-- 2022.5 -->
      <g transform="translate(599.127955 328.318437) scale(0.1 -0.1)">
       <use xlink:href="#DejaVuSans-32"/>
       <use xlink:href="#DejaVuSans-30" transform="translate(63.623047 0)"/>
       <use xlink:href="#DejaVuSans-32" transform="translate(127.246094 0)"/>
       <use xlink:href="#DejaVuSans-32" transform="translate(190.869141 0)"/>
       <use xlink:href="#DejaVuSans-2e" transform="translate(254.492188 0)"/>
       <use xlink:href="#DejaVuSans-35" transform="translate(286.279297 0)"/>
      </g>
     </g>
    </g>
    <g id="xtick_9">
     <g id="line2d_9">
      <g>
       <use xlink:href="#m63180648e0" x="688.309063" y="313.72" style="stroke: #000000; stroke-width: 0.8"/>
      </g>
     </g>
     <g id="text_9">
      <!-- 2025.0 -->
      <g transform="translate(670.81375 328.318437) scale(0.1 -0.1)">
       <use xlink:href="#DejaVuSans-32"/>
       <use xlink:href="#DejaVuSans-30" transform="translate(63.623047 0)"/>
       <use xlink:href="#DejaVuSans-32" transform="translate(127.246094 0)"/>
       <use xlink:href="#DejaVuSans-35" transform="translate(190.869141 0)"/>
       <use xlink:href="#DejaVuSans-2e" transform="translate(254.492188 0)"/>
       <use xlink:href="#DejaVuSans-30" transform="translate(286.279297 0)"/>
      </g>
     </g>
    </g>
    <g id="text_10">
     <!-- Year -->
     <g transform="translate(361.245313 342.756406) scale(0.11 -0.11)">
      <defs>
       <path id="DejaVuSans-59" d="M -13 4666 
L 666 4666 
L 1959 2747 
L 3244 4666 
L 3922 4666 
L 2272 2222 
L 2272 0 
L 1638 0 
L 1638 2222 
L -13 4666 
z
" transform="scale(0.015625)"/>
       <path id="DejaVuSans-65" d="M 3597 1894 
L 3597 1613 
L 953 1613 
Q 991 1019 1311 708 
Q 1631 397 2203 397 
Q 2534 397 2845 478 
Q 3156 559 3463 722 
L 3463 178 
Q 3153 47 2828 -22 
Q 2503 -91 2169 -91 
Q 1331 -91 842 396 
Q 353 884 353 1716 
Q 353 2575 817 3079 
Q 1281 3584 2069 3584 
Q 2775 3584 3186 3129 
Q 3597 2675 3597 1894 
z
M 3022 2063 
Q 3016 2534 2758 2815 
Q 2500 3097 2075 3097 
Q 1594 3097 1305 2825 
Q 1016 2553 972 2059 
L 3022 2063 
z
" transform="scale(0.015625)"/>
       <path id="DejaVuSans-61" d="M 2194 1759 
Q 1497 1759 1228 1600 
Q 959 1441 959 1056 
Q 959 750 1161 570 
Q 1363 391 1709 391 
Q 2188 391 2477 730 
Q 2766 1069 2766 1631 
L 2766 1759 
L 2194 1759 
z
M 3341 1997 
L 3341 0 
L 2766 0 
L 2766 531 
Q 2569 213 2275 61 
Q 1981 -91 1556 -91 
Q 1019 -91 701 211 
Q 384 513 384 1019 
Q 384 1609 779 1909 
Q 1175 2209 1959 2209 
L 2766 2209 
L 2766 2266 
Q 2766 2663 2505 2880 
Q 2244 3097 1772 3097 
Q 1472 3097 1187 3025 
Q 903 2953 641 2809 
L 641 3341 
Q 956 3463 1253 3523 
Q 1550 3584 1831 3584 
Q 2591 3584 2966 3190 
Q 3341 2797 3341 1997 
z
" transform="scale(0.015625)"/>
       <path id="DejaVuSans-72" d="M 2631 2963 
Q 2534 3019 2420 3045 
Q 2306 3072 2169 3072 
Q 1681 3072 1420 2755 
Q 1159 2438 1159 1844 
L 1159 0 
L 581 0 
L 581 3500 
L 1159 3500 
L 1159 2956 
Q 1341 3275 1631 3429 
Q 1922 3584 2338 3584 
Q 2397 3584 2469 3576 
Q 2541 3569 2628 3553 
L 2631 2963 
z
" transform="scale(0.015625)"/>
      </defs>
      <use xlink:href="#DejaVuSans-59"/>
      <use xlink:href="#DejaVuSans-65" transform="translate(47.833984 0)"/>
      <use xlink:href="#DejaVuSans-61" transform="translate(109.357422 0)"/>
      <use xlink:href="#DejaVuSans-72" transform="translate(170.636719 0)"/>
     </g>
    </g>
   </g>
   <g id="matplotlib.axis_2">
    <g id="ytick_1">
     <g id="line2d_10">
      <path d="M 57.474063 285.111177 
L 688.309063 285.111177 
" clip-path="url(#p7adc8c6bfe)" style="fill: none; stroke: #808080; stroke-opacity: 0.3; stroke-width: 0.4; stroke-linecap: square"/>
     </g>
     <g id="line2d_11">
      <defs>
       <path id="m68255cbff8" d="M 0 0 
L -3.5 0 
" style="stroke: #000000; stroke-width: 0.8"/>
      </defs>
      <g>
       <use xlink:href="#m68255cbff8" x="57.474063" y="285.111177" style="stroke: #000000; stroke-width: 0.8"/>
      </g>
     </g>
     <g id="text_11">
      <!-- 0.075 -->
      <g transform="translate(21.845938 288.910396) scale(0.1 -0.1)">
       <use xlink:href="#DejaVuSans-30"/>
       <use xlink:href="#DejaVuSans-2e" transform="translate(63.623047 0)"/>
       <use xlink:href="#DejaVuSans-30" transform="translate(95.410156 0)"/>
       <use xlink:href="#DejaVuSans-37" transform="translate(159.033203 0)"/>
       <use xlink:href="#DejaVuSans-35" transform="translate(222.65625 0)"/>
      </g>
     </g>
    </g>
    <g id="ytick_2">
     <g id="line2d_12">
      <path d="M 57.474063 242.564917 
L 688.309063 242.564917 
" clip-path="url(#p7adc8c6bfe)" style="fill: none; stroke: #808080; stroke-opacity: 0.3; stroke-width: 0.4; stroke-linecap: square"/>
     </g>
     <g id="line2d_13">
      <g>
       <use xlink:href="#m68255cbff8" x="57.474063" y="242.564917" style="stroke: #000000; stroke-width: 0.8"/>
      </g>
     </g>
     <g id="text_12">
      <!-- 0.100 -->
      <g transform="translate(21.845938 246.364136) scale(0.1 -0.1)">
       <use xlink:href="#DejaVuSans-30"/>
       <use xlink:href="#DejaVuSans-2e" transform="translate(63.623047 0)"/>
       <use xlink:href="#DejaVuSans-31" transform="translate(95.410156 0)"/>
       <use xlink:href="#DejaVuSans-30" transform="translate(159.033203 0)"/>
       <use xlink:href="#DejaVuSans-30" transform="translate(222.65625 0)"/>
      </g>
     </g>
    </g>
    <g id="ytick_3">
     <g id="line2d_14">
      <path d="M 57.474063 200.018657 
L 688.309063 200.018657 
" clip-path="url(#p7adc8c6bfe)" style="fill: none; stroke: #808080; stroke-opacity: 0.3; stroke-width: 0.4; stroke-linecap: square"/>
     </g>
     <g id="line2d_15">
      <g>
       <use xlink:href="#m68255cbff8" x="57.474063" y="200.018657" style="stroke: #000000; stroke-width: 0.8"/>
      </g>
     </g>
     <g id="text_13">
      <!-- 0.125 -->
      <g transform="translate(21.845938 203.817876) scale(0.1 -0.1)">
       <use xlink:href="#DejaVuSans-30"/>
       <use xlink:href="#DejaVuSans-2e" transform="translate(63.623047 0)"/>
       <use xlink:href="#DejaVuSans-31" transform="translate(95.410156 0)"/>
       <use xlink:href="#DejaVuSans-32" transform="translate(159.033203 0)"/>
       <use xlink:href="#DejaVuSans-35" transform="translate(222.65625 0)"/>
      </g>
     </g>
    </g>
    <g id="ytick_4">
     <g id="line2d_16">
      <path d="M 57.474063 157.472397 
L 688.309063 157.472397 
" clip-path="url(#p7adc8c6bfe)" style="fill: none; stroke: #808080; stroke-opacity: 0.3; stroke-width: 0.4; stroke-linecap: square"/>
     </g>
     <g id="line2d_17">
      <g>
       <use xlink:href="#m68255cbff8" x="57.474063" y="157.472397" style="stroke: #000000; stroke-width: 0.8"/>
      </g>
     </g>
     <g id="text_14">
      <!-- 0.150 -->
      <g transform="translate(21.845938 161.271616) scale(0.1 -0.1)">
       <use xlink:href="#DejaVuSans-30"/>
       <use xlink:href="#DejaVuSans-2e" transform="translate(63.623047 0)"/>
       <use xlink:href="#DejaVuSans-31" transform="translate(95.410156 0)"/>
       <use xlink:href="#DejaVuSans-35" transform="translate(159.033203 0)"/>
       <use xlink:href="#DejaVuSans-30" transform="translate(222.65625 0)"/>
      </g>
     </g>
    </g>
    <g id="ytick_5">
     <g id="line2d_18">
      <path d="M 57.474063 114.926137 
L 688.309063 114.926137 
" clip-path="url(#p7adc8c6bfe)" style="fill: none; stroke: #808080; stroke-opacity: 0.3; stroke-width: 0.4; stroke-linecap: square"/>
     </g>
     <g id="line2d_19">
      <g>
       <use xlink:href="#m68255cbff8" x="57.474063" y="114.926137" style="stroke: #000000; stroke-width: 0.8"/>
      </g>
     </g>
     <g id="text_15">
      <!-- 0.175 -->
      <g transform="translate(21.845938 118.725356) scale(0.1 -0.1)">
       <use xlink:href="#DejaVuSans-30"/>
       <use xlink:href="#DejaVuSans-2e" transform="translate(63.623047 0)"/>
       <use xlink:href="#DejaVuSans-31" transform="translate(95.410156 0)"/>
       <use xlink:href="#DejaVuSans-37" transform="translate(159.033203 0)"/>
       <use xlink:href="#DejaVuSans-35" transform="translate(222.65625 0)"/>
      </g>
     </g>
    </g>
    <g id="ytick_6">
     <g id="line2d_20">
      <path d="M 57.474063 72.379877 
L 688.309063 72.379877 
" clip-path="url(#p7adc8c6bfe)" style="fill: none; stroke: #808080; stroke-opacity: 0.3; stroke-width: 0.4; stroke-linecap: square"/>
     </g>
     <g id="line2d_21">
      <g>
       <use xlink:href="#m68255cbff8" x="57.474063" y="72.379877" style="stroke: #000000; stroke-width: 0.8"/>
      </g>
     </g>
     <g id="text_16">
      <!-- 0.200 -->
      <g transform="translate(21.845938 76.179096) scale(0.1 -0.1)">
       <use xlink:href="#DejaVuSans-30"/>
       <use xlink:href="#DejaVuSans-2e" transform="translate(63.623047 0)"/>
       <use xlink:href="#DejaVuSans-32" transform="translate(95.410156 0)"/>
       <use xlink:href="#DejaVuSans-30" transform="translate(159.033203 0)"/>
       <use xlink:href="#DejaVuSans-30" transform="translate(222.65625 0)"/>
      </g>
     </g>
    </g>
    <g id="ytick_7">
     <g id="line2d_22">
      <path d="M 57.474063 29.833617 
L 688.309063 29.833617 
" clip-path="url(#p7adc8c6bfe)" style="fill: none; stroke: #808080; stroke-opacity: 0.3; stroke-width: 0.4; stroke-linecap: square"/>
     </g>
     <g id="line2d_23">
      <g>
       <use xlink:href="#m68255cbff8" x="57.474063" y="29.833617" style="stroke: #000000; stroke-width: 0.8"/>
      </g>
     </g>
     <g id="text_17">
      <!-- 0.225 -->
      <g transform="translate(21.845938 33.632836) scale(0.1 -0.1)">
       <use xlink:href="#DejaVuSans-30"/>
       <use xlink:href="#DejaVuSans-2e" transform="translate(63.623047 0)"/>
       <use xlink:href="#DejaVuSans-32" transform="translate(95.410156 0)"/>
       <use xlink:href="#DejaVuSans-32" transform="translate(159.033203 0)"/>
       <use xlink:href="#DejaVuSans-35" transform="translate(222.65625 0)"/>
      </g>
     </g>
    </g>
    <g id="text_18">
     <!-- Genderedness -->
     <g transform="translate(15.558281 200.080625) rotate(-90) scale(0.11 -0.11)">
      <defs>
       <path id="DejaVuSans-47" d="M 3809 666 
L 3809 1919 
L 2778 1919 
L 2778 2438 
L 4434 2438 
L 4434 434 
Q 4069 175 3628 42 
Q 3188 -91 2688 -91 
Q 1594 -91 976 548 
Q 359 1188 359 2328 
Q 359 3472 976 4111 
Q 1594 4750 2688 4750 
Q 3144 4750 3555 4637 
Q 3966 4525 4313 4306 
L 4313 3634 
Q 3963 3931 3569 4081 
Q 3175 4231 2741 4231 
Q 1884 4231 1454 3753 
Q 1025 3275 1025 2328 
Q 1025 1384 1454 906 
Q 1884 428 2741 428 
Q 3075 428 3337 486 
Q 3600 544 3809 666 
z
" transform="scale(0.015625)"/>
       <path id="DejaVuSans-6e" d="M 3513 2113 
L 3513 0 
L 2938 0 
L 2938 2094 
Q 2938 2591 2744 2837 
Q 2550 3084 2163 3084 
Q 1697 3084 1428 2787 
Q 1159 2491 1159 1978 
L 1159 0 
L 581 0 
L 581 3500 
L 1159 3500 
L 1159 2956 
Q 1366 3272 1645 3428 
Q 1925 3584 2291 3584 
Q 2894 3584 3203 3211 
Q 3513 2838 3513 2113 
z
" transform="scale(0.015625)"/>
       <path id="DejaVuSans-64" d="M 2906 2969 
L 2906 4863 
L 3481 4863 
L 3481 0 
L 2906 0 
L 2906 525 
Q 2725 213 2448 61 
Q 2172 -91 1784 -91 
Q 1150 -91 751 415 
Q 353 922 353 1747 
Q 353 2572 751 3078 
Q 1150 3584 1784 3584 
Q 2172 3584 2448 3432 
Q 2725 3281 2906 2969 
z
M 947 1747 
Q 947 1113 1208 752 
Q 1469 391 1925 391 
Q 2381 391 2643 752 
Q 2906 1113 2906 1747 
Q 2906 2381 2643 2742 
Q 2381 3103 1925 3103 
Q 1469 3103 1208 2742 
Q 947 2381 947 1747 
z
" transform="scale(0.015625)"/>
       <path id="DejaVuSans-73" d="M 2834 3397 
L 2834 2853 
Q 2591 2978 2328 3040 
Q 2066 3103 1784 3103 
Q 1356 3103 1142 2972 
Q 928 2841 928 2578 
Q 928 2378 1081 2264 
Q 1234 2150 1697 2047 
L 1894 2003 
Q 2506 1872 2764 1633 
Q 3022 1394 3022 966 
Q 3022 478 2636 193 
Q 2250 -91 1575 -91 
Q 1294 -91 989 -36 
Q 684 19 347 128 
L 347 722 
Q 666 556 975 473 
Q 1284 391 1588 391 
Q 1994 391 2212 530 
Q 2431 669 2431 922 
Q 2431 1156 2273 1281 
Q 2116 1406 1581 1522 
L 1381 1569 
Q 847 1681 609 1914 
Q 372 2147 372 2553 
Q 372 3047 722 3315 
Q 1072 3584 1716 3584 
Q 2034 3584 2315 3537 
Q 2597 3491 2834 3397 
z
" transform="scale(0.015625)"/>
      </defs>
      <use xlink:href="#DejaVuSans-47"/>
      <use xlink:href="#DejaVuSans-65" transform="translate(77.490234 0)"/>
      <use xlink:href="#DejaVuSans-6e" transform="translate(139.013672 0)"/>
      <use xlink:href="#DejaVuSans-64" transform="translate(202.392578 0)"/>
      <use xlink:href="#DejaVuSans-65" transform="translate(265.869141 0)"/>
      <use xlink:href="#DejaVuSans-72" transform="translate(327.392578 0)"/>
      <use xlink:href="#DejaVuSans-65" transform="translate(366.255859 0)"/>
      <use xlink:href="#DejaVuSans-64" transform="translate(427.779297 0)"/>
      <use xlink:href="#DejaVuSans-6e" transform="translate(491.255859 0)"/>
      <use xlink:href="#DejaVuSans-65" transform="translate(554.634766 0)"/>
      <use xlink:href="#DejaVuSans-73" transform="translate(616.158203 0)"/>
      <use xlink:href="#DejaVuSans-73" transform="translate(668.257812 0)"/>
     </g>
    </g>
   </g>
   <g id="line2d_24">
    <path d="M 86.148381 237.620818 
L 114.822699 216.494715 
L 143.497017 211.431359 
L 172.171335 244.726672 
L 200.845653 252.031156 
L 229.519972 249.193737 
L 258.19429 281.631644 
L 286.868608 230.902665 
L 315.542926 299.787273 
L 344.217244 263.244078 
L 372.891563 227.452261 
L 401.565881 229.379386 
L 430.240199 235.129984 
L 458.914517 253.580799 
L 487.588835 226.249914 
L 516.263153 193.648749 
L 544.937472 170.731155 
L 573.61179 104.910545 
L 602.286108 63.590856 
L 630.960426 23.928807 
L 659.634744 21.132727 
" clip-path="url(#p7adc8c6bfe)" style="fill: none; stroke: #ff7f0e; stroke-width: 2.5; stroke-linecap: square"/>
   </g>
   <g id="line2d_25">
    <path d="M 86.148381 218.725724 
L 114.822699 224.533594 
L 143.497017 234.744182 
L 172.171335 165.053412 
L 200.845653 232.20966 
L 229.519972 229.289186 
L 258.19429 227.541442 
L 286.868608 224.592719 
L 315.542926 227.578197 
L 344.217244 225.191828 
L 372.891563 210.324411 
L 401.565881 216.756663 
L 430.240199 241.718098 
L 458.914517 231.951566 
L 487.588835 226.121765 
L 516.263153 187.269647 
L 544.937472 209.014276 
L 573.61179 200.307968 
L 602.286108 193.818298 
L 630.960426 184.573328 
L 659.634744 187.076183 
" clip-path="url(#p7adc8c6bfe)" style="fill: none; stroke: #9467bd; stroke-width: 2.5; stroke-linecap: square"/>
   </g>
   <g id="line2d_26">
    <path d="M 86.148381 294.5005 
L 659.634744 109.004195 
" clip-path="url(#p7adc8c6bfe)" style="fill: none; stroke: #ff7f0e; stroke-opacity: 0.85; stroke-width: 1.5; stroke-linecap: square"/>
   </g>
   <g id="line2d_27">
    <path d="M 86.148381 228.102533 
L 659.634744 200.315767 
" clip-path="url(#p7adc8c6bfe)" style="fill: none; stroke-dasharray: 5.55,2.4; stroke-dashoffset: 0; stroke: #9467bd; stroke-opacity: 0.55; stroke-width: 1.5"/>
   </g>
   <g id="patch_3">
    <path d="M 57.474063 313.72 
L 57.474063 7.2 
" style="fill: none; stroke: #000000; stroke-width: 0.8; stroke-linejoin: miter; stroke-linecap: square"/>
   </g>
   <g id="patch_4">
    <path d="M 57.474062 313.72 
L 688.309063 313.72 
" style="fill: none; stroke: #000000; stroke-width: 0.8; stroke-linejoin: miter; stroke-linecap: square"/>
   </g>
   <g id="PathCollection_1">
    <defs>
     <path id="m56a7b06ddc" d="M 0 2.12132 
C 0.562581 2.12132 1.102195 1.897805 1.5 1.5 
C 1.897805 1.102195 2.12132 0.562581 2.12132 0 
C 2.12132 -0.562581 1.897805 -1.102195 1.5 -1.5 
C 1.102195 -1.897805 0.562581 -2.12132 0 -2.12132 
C -0.562581 -2.12132 -1.102195 -1.897805 -1.5 -1.5 
C -1.897805 -1.102195 -2.12132 -0.562581 -2.12132 0 
C -2.12132 0.562581 -1.897805 1.102195 -1.5 1.5 
C -1.102195 1.897805 -0.562581 2.12132 0 2.12132 
z
" style="stroke: #ffffff; stroke-width: 1.2"/>
    </defs>
    <g clip-path="url(#p7adc8c6bfe)">
     <use xlink:href="#m56a7b06ddc" x="86.148381" y="237.620818" style="fill: #ff7f0e; stroke: #ffffff; stroke-width: 1.2"/>
     <use xlink:href="#m56a7b06ddc" x="114.822699" y="216.494715" style="fill: #ff7f0e; stroke: #ffffff; stroke-width: 1.2"/>
     <use xlink:href="#m56a7b06ddc" x="143.497017" y="211.431359" style="fill: #ff7f0e; stroke: #ffffff; stroke-width: 1.2"/>
     <use xlink:href="#m56a7b06ddc" x="172.171335" y="244.726672" style="fill: #ff7f0e; stroke: #ffffff; stroke-width: 1.2"/>
     <use xlink:href="#m56a7b06ddc" x="200.845653" y="252.031156" style="fill: #ff7f0e; stroke: #ffffff; stroke-width: 1.2"/>
     <use xlink:href="#m56a7b06ddc" x="229.519972" y="249.193737" style="fill: #ff7f0e; stroke: #ffffff; stroke-width: 1.2"/>
     <use xlink:href="#m56a7b06ddc" x="258.19429" y="281.631644" style="fill: #ff7f0e; stroke: #ffffff; stroke-width: 1.2"/>
     <use xlink:href="#m56a7b06ddc" x="286.868608" y="230.902665" style="fill: #ff7f0e; stroke: #ffffff; stroke-width: 1.2"/>
     <use xlink:href="#m56a7b06ddc" x="315.542926" y="299.787273" style="fill: #ff7f0e; stroke: #ffffff; stroke-width: 1.2"/>
     <use xlink:href="#m56a7b06ddc" x="344.217244" y="263.244078" style="fill: #ff7f0e; stroke: #ffffff; stroke-width: 1.2"/>
     <use xlink:href="#m56a7b06ddc" x="372.891563" y="227.452261" style="fill: #ff7f0e; stroke: #ffffff; stroke-width: 1.2"/>
     <use xlink:href="#m56a7b06ddc" x="401.565881" y="229.379386" style="fill: #ff7f0e; stroke: #ffffff; stroke-width: 1.2"/>
     <use xlink:href="#m56a7b06ddc" x="430.240199" y="235.129984" style="fill: #ff7f0e; stroke: #ffffff; stroke-width: 1.2"/>
     <use xlink:href="#m56a7b06ddc" x="458.914517" y="253.580799" style="fill: #ff7f0e; stroke: #ffffff; stroke-width: 1.2"/>
     <use xlink:href="#m56a7b06ddc" x="487.588835" y="226.249914" style="fill: #ff7f0e; stroke: #ffffff; stroke-width: 1.2"/>
     <use xlink:href="#m56a7b06ddc" x="516.263153" y="193.648749" style="fill: #ff7f0e; stroke: #ffffff; stroke-width: 1.2"/>
     <use xlink:href="#m56a7b06ddc" x="544.937472" y="170.731155" style="fill: #ff7f0e; stroke: #ffffff; stroke-width: 1.2"/>
     <use xlink:href="#m56a7b06ddc" x="573.61179" y="104.910545" style="fill: #ff7f0e; stroke: #ffffff; stroke-width: 1.2"/>
     <use xlink:href="#m56a7b06ddc" x="602.286108" y="63.590856" style="fill: #ff7f0e; stroke: #ffffff; stroke-width: 1.2"/>
     <use xlink:href="#m56a7b06ddc" x="630.960426" y="23.928807" style="fill: #ff7f0e; stroke: #ffffff; stroke-width: 1.2"/>
     <use xlink:href="#m56a7b06ddc" x="659.634744" y="21.132727" style="fill: #ff7f0e; stroke: #ffffff; stroke-width: 1.2"/>
    </g>
   </g>
   <g id="PathCollection_2">
    <defs>
     <path id="m751988779c" d="M 0 2.12132 
C 0.562581 2.12132 1.102195 1.897805 1.5 1.5 
C 1.897805 1.102195 2.12132 0.562581 2.12132 0 
C 2.12132 -0.562581 1.897805 -1.102195 1.5 -1.5 
C 1.102195 -1.897805 0.562581 -2.12132 0 -2.12132 
C -0.562581 -2.12132 -1.102195 -1.897805 -1.5 -1.5 
C -1.897805 -1.102195 -2.12132 -0.562581 -2.12132 0 
C -2.12132 0.562581 -1.897805 1.102195 -1.5 1.5 
C -1.102195 1.897805 -0.562581 2.12132 0 2.12132 
z
" style="stroke: #ffffff; stroke-width: 1.2"/>
    </defs>
    <g clip-path="url(#p7adc8c6bfe)">
     <use xlink:href="#m751988779c" x="86.148381" y="218.725724" style="fill: #9467bd; stroke: #ffffff; stroke-width: 1.2"/>
     <use xlink:href="#m751988779c" x="114.822699" y="224.533594" style="fill: #9467bd; stroke: #ffffff; stroke-width: 1.2"/>
     <use xlink:href="#m751988779c" x="143.497017" y="234.744182" style="fill: #9467bd; stroke: #ffffff; stroke-width: 1.2"/>
     <use xlink:href="#m751988779c" x="172.171335" y="165.053412" style="fill: #9467bd; stroke: #ffffff; stroke-width: 1.2"/>
     <use xlink:href="#m751988779c" x="200.845653" y="232.20966" style="fill: #9467bd; stroke: #ffffff; stroke-width: 1.2"/>
     <use xlink:href="#m751988779c" x="229.519972" y="229.289186" style="fill: #9467bd; stroke: #ffffff; stroke-width: 1.2"/>
     <use xlink:href="#m751988779c" x="258.19429" y="227.541442" style="fill: #9467bd; stroke: #ffffff; stroke-width: 1.2"/>
     <use xlink:href="#m751988779c" x="286.868608" y="224.592719" style="fill: #9467bd; stroke: #ffffff; stroke-width: 1.2"/>
     <use xlink:href="#m751988779c" x="315.542926" y="227.578197" style="fill: #9467bd; stroke: #ffffff; stroke-width: 1.2"/>
     <use xlink:href="#m751988779c" x="344.217244" y="225.191828" style="fill: #9467bd; stroke: #ffffff; stroke-width: 1.2"/>
     <use xlink:href="#m751988779c" x="372.891563" y="210.324411" style="fill: #9467bd; stroke: #ffffff; stroke-width: 1.2"/>
     <use xlink:href="#m751988779c" x="401.565881" y="216.756663" style="fill: #9467bd; stroke: #ffffff; stroke-width: 1.2"/>
     <use xlink:href="#m751988779c" x="430.240199" y="241.718098" style="fill: #9467bd; stroke: #ffffff; stroke-width: 1.2"/>
     <use xlink:href="#m751988779c" x="458.914517" y="231.951566" style="fill: #9467bd; stroke: #ffffff; stroke-width: 1.2"/>
     <use xlink:href="#m751988779c" x="487.588835" y="226.121765" style="fill: #9467bd; stroke: #ffffff; stroke-width: 1.2"/>
     <use xlink:href="#m751988779c" x="516.263153" y="187.269647" style="fill: #9467bd; stroke: #ffffff; stroke-width: 1.2"/>
     <use xlink:href="#m751988779c" x="544.937472" y="209.014276" style="fill: #9467bd; stroke: #ffffff; stroke-width: 1.2"/>
     <use xlink:href="#m751988779c" x="573.61179" y="200.307968" style="fill: #9467bd; stroke: #ffffff; stroke-width: 1.2"/>
     <use xlink:href="#m751988779c" x="602.286108" y="193.818298" style="fill: #9467bd; stroke: #ffffff; stroke-width: 1.2"/>
     <use xlink:href="#m751988779c" x="630.960426" y="184.573328" style="fill: #9467bd; stroke: #ffffff; stroke-width: 1.2"/>
     <use xlink:href="#m751988779c" x="659.634744" y="187.076183" style="fill: #9467bd; stroke: #ffffff; stroke-width: 1.2"/>
    </g>
   </g>
   <g id="legend_1">
    <g id="line2d_28">
     <path d="M 66.474063 20.298437 
L 76.474063 20.298437 
L 86.474063 20.298437 
" style="fill: none; stroke: #ff7f0e; stroke-width: 2.5; stroke-linecap: square"/>
    </g>
    <g id="text_19">
     <!-- Male -->
     <g transform="translate(94.474063 23.798437) scale(0.1 -0.1)">
      <defs>
       <path id="DejaVuSans-4d" d="M 628 4666 
L 1569 4666 
L 2759 1491 
L 3956 4666 
L 4897 4666 
L 4897 0 
L 4281 0 
L 4281 4097 
L 3078 897 
L 2444 897 
L 1241 4097 
L 1241 0 
L 628 0 
L 628 4666 
z
" transform="scale(0.015625)"/>
       <path id="DejaVuSans-6c" d="M 603 4863 
L 1178 4863 
L 1178 0 
L 603 0 
L 603 4863 
z
" transform="scale(0.015625)"/>
      </defs>
      <use xlink:href="#DejaVuSans-4d"/>
      <use xlink:href="#DejaVuSans-61" transform="translate(86.279297 0)"/>
      <use xlink:href="#DejaVuSans-6c" transform="translate(147.558594 0)"/>
      <use xlink:href="#DejaVuSans-65" transform="translate(175.341797 0)"/>
     </g>
    </g>
    <g id="line2d_29">
     <path d="M 66.474063 34.976562 
L 76.474063 34.976562 
L 86.474063 34.976562 
" style="fill: none; stroke: #9467bd; stroke-width: 2.5; stroke-linecap: square"/>
    </g>
    <g id="text_20">
     <!-- Female -->
     <g transform="translate(94.474063 38.476562) scale(0.1 -0.1)">
      <defs>
       <path id="DejaVuSans-46" d="M 628 4666 
L 3309 4666 
L 3309 4134 
L 1259 4134 
L 1259 2759 
L 3109 2759 
L 3109 2228 
L 1259 2228 
L 1259 0 
L 628 0 
L 628 4666 
z
" transform="scale(0.015625)"/>
       <path id="DejaVuSans-6d" d="M 3328 2828 
Q 3544 3216 3844 3400 
Q 4144 3584 4550 3584 
Q 5097 3584 5394 3201 
Q 5691 2819 5691 2113 
L 5691 0 
L 5113 0 
L 5113 2094 
Q 5113 2597 4934 2840 
Q 4756 3084 4391 3084 
Q 3944 3084 3684 2787 
Q 3425 2491 3425 1978 
L 3425 0 
L 2847 0 
L 2847 2094 
Q 2847 2600 2669 2842 
Q 2491 3084 2119 3084 
Q 1678 3084 1418 2786 
Q 1159 2488 1159 1978 
L 1159 0 
L 581 0 
L 581 3500 
L 1159 3500 
L 1159 2956 
Q 1356 3278 1631 3431 
Q 1906 3584 2284 3584 
Q 2666 3584 2933 3390 
Q 3200 3197 3328 2828 
z
" transform="scale(0.015625)"/>
      </defs>
      <use xlink:href="#DejaVuSans-46"/>
      <use xlink:href="#DejaVuSans-65" transform="translate(52.019531 0)"/>
      <use xlink:href="#DejaVuSans-6d" transform="translate(113.542969 0)"/>
      <use xlink:href="#DejaVuSans-61" transform="translate(210.955078 0)"/>
      <use xlink:href="#DejaVuSans-6c" transform="translate(272.234375 0)"/>
      <use xlink:href="#DejaVuSans-65" transform="translate(300.017578 0)"/>
     </g>
    </g>
   </g>
  </g>
 </g>
 <defs>
  <clipPath id="p7adc8c6bfe">
   <rect x="57.474063" y="7.2" width="630.835" height="306.52"/>
  </clipPath>
 </defs>
</svg>
