<?xml version="1.0" encoding="utf-8" standalone="no"?>
<!DOCTYPE svg PUBLIC "-//W3C//DTD SVG 1.1//EN"
  "http://www.w3.org/Graphics/SVG/1.1/DTD/svg11.dtd">
<svg xmlns:xlink="http://www.w3.org/1999/xlink" width="711.864375pt" height="424.005pt" viewBox="0 0 711.864375 424.005" xmlns="http://www.w3.org/2000/svg" version="1.1">
 <metadata>
  <rdf:RDF xmlns:dc="http://purl.org/dc/elements/1.1/" xmlns:cc="http://creativecommons.org/ns#" xmlns:rdf="http://www.w3.org/1999/02/22-rdf-syntax-ns#">
   <cc:Work>
    <dc:type rdf:resource="http://purl.org/dc/dcmitype/StillImage"/>
    <dc:date>2026-04-25T15:05:30.438347</dc:date>
    <dc:format>image/svg+xml</dc:format>
    <dc:creator>
     <cc:Agent>
      <dc:title>Matplotlib v3.10.7, https://matplotlib.org/</dc:title>
     </cc:Agent>
    </dc:creator>
   </cc:Work>
  </rdf:RDF>
 </metadata>
 <defs>
  <style type="text/css">*{stroke-linejoin: round; stroke-linecap: butt}</style>
 </defs>
 <g id="figure_1">
  <g id="patch_1">
   <path d="M 0 424.005 
L 711.864375 424.005 
L 711.864375 0 
L 0 0 
z
" style="fill: #ffffff"/>
  </g>
  <g id="axes_1">
   <g id="patch_2">
    <path d="M 44.234375 384.28 
L 693.564375 384.28 
L 693.564375 7.2 
L 44.234375 7.2 
z
" style="fill: #ffffff"/>
   </g>
   <g id="matplotlib.axis_1">
    <g id="xtick_1">
     <g id="line2d_1">
      <defs>
       <path id="m05e3c7648b" d="M 0 0 
L 0 3.5 
" style="stroke: #000000; stroke-width: 0.8"/>
      </defs>
      <g>
       <use xlink:href="#m05e3c7648b" x="73.749375" y="384.28" style="stroke: #000000; stroke-width: 0.8"/>
      </g>
     </g>
     <g id="text_1">
      <!-- 1989 -->
      <g transform="translate(62.649375 399.239375) scale(0.1 -0.1)">
       <defs>
        <path id="NotoSansCJKjp-Regular-31" d="M 563 0 
L 3136 0 
L 3136 486 
L 2195 486 
L 2195 4698 
L 1747 4698 
C 1491 4544 1190 4435 774 4358 
L 774 3987 
L 1606 3987 
L 1606 486 
L 563 486 
L 563 0 
z
" transform="scale(0.015625)"/>
        <path id="NotoSansCJKjp-Regular-39" d="M 832 3258 
C 832 3898 1178 4320 1626 4320 
C 2227 4320 2586 3808 2650 2842 
C 2349 2400 1990 2214 1670 2214 
C 1114 2214 832 2624 832 3258 
z
M 1498 -83 
C 2381 -83 3200 646 3200 2547 
C 3200 4038 2528 4781 1626 4781 
C 896 4781 282 4166 282 3258 
C 282 2285 794 1779 1574 1779 
C 1965 1779 2368 2003 2656 2355 
C 2611 902 2086 403 1478 403 
C 1178 403 890 538 698 762 
L 371 397 
C 634 122 992 -83 1498 -83 
z
" transform="scale(0.015625)"/>
        <path id="NotoSansCJKjp-Regular-38" d="M 1786 -83 
C 2669 -83 3258 448 3258 1133 
C 3258 1773 2874 2125 2464 2362 
L 2464 2394 
C 2746 2611 3091 3034 3091 3526 
C 3091 4250 2605 4762 1805 4762 
C 1075 4762 518 4288 518 3571 
C 518 3078 806 2726 1152 2490 
L 1152 2458 
C 723 2227 288 1792 288 1165 
C 288 442 922 -83 1786 -83 
z
M 2106 2547 
C 1555 2765 1050 3008 1050 3571 
C 1050 4026 1363 4333 1798 4333 
C 2304 4333 2592 3955 2592 3494 
C 2592 3149 2426 2829 2106 2547 
z
M 1798 352 
C 1235 352 819 717 819 1216 
C 819 1664 1082 2035 1459 2278 
C 2125 2010 2701 1773 2701 1146 
C 2701 678 2336 352 1798 352 
z
" transform="scale(0.015625)"/>
       </defs>
       <use xlink:href="#NotoSansCJKjp-Regular-31"/>
       <use xlink:href="#NotoSansCJKjp-Regular-39" transform="translate(55.499985 0)"/>
       <use xlink:href="#NotoSansCJKjp-Regular-38" transform="translate(110.999969 0)"/>
       <use xlink:href="#NotoSansCJKjp-Regular-39" transform="translate(166.499954 0)"/>
      </g>
     </g>
    </g>
    <g id="xtick_2">
     <g id="line2d_2">
      <g>
       <use xlink:href="#m05e3c7648b" x="162.294375" y="384.28" style="stroke: #000000; stroke-width: 0.8"/>
      </g>
     </g>
     <g id="text_2">
      <!-- 1992 -->
      <g transform="translate(151.194375 399.239375) scale(0.1 -0.1)">
       <defs>
        <path id="NotoSansCJKjp-Regular-32" d="M 282 0 
L 3232 0 
L 3232 506 
L 1933 506 
C 1696 506 1408 480 1165 461 
C 2266 1504 3002 2458 3002 3392 
C 3002 4230 2477 4781 1638 4781 
C 1043 4781 640 4506 256 4090 
L 595 3757 
C 851 4064 1184 4301 1568 4301 
C 2150 4301 2432 3910 2432 3373 
C 2432 2566 1754 1632 282 346 
L 282 0 
z
" transform="scale(0.015625)"/>
       </defs>
       <use xlink:href="#NotoSansCJKjp-Regular-31"/>
       <use xlink:href="#NotoSansCJKjp-Regular-39" transform="translate(55.499985 0)"/>
       <use xlink:href="#NotoSansCJKjp-Regular-39" transform="translate(110.999969 0)"/>
       <use xlink:href="#NotoSansCJKjp-Regular-32" transform="translate(166.499954 0)"/>
      </g>
     </g>
    </g>
    <g id="xtick_3">
     <g id="line2d_3">
      <g>
       <use xlink:href="#m05e3c7648b" x="250.839375" y="384.28" style="stroke: #000000; stroke-width: 0.8"/>
      </g>
     </g>
     <g id="text_3">
      <!-- 1995 -->
      <g transform="translate(239.739375 399.239375) scale(0.1 -0.1)">
       <defs>
        <path id="NotoSansCJKjp-Regular-35" d="M 1670 -83 
C 2464 -83 3206 499 3206 1530 
C 3206 2560 2573 3021 1792 3021 
C 1510 3021 1306 2950 1094 2835 
L 1210 4192 
L 2982 4192 
L 2982 4698 
L 698 4698 
L 550 2496 
L 864 2304 
C 1133 2483 1331 2579 1645 2579 
C 2234 2579 2618 2182 2618 1510 
C 2618 826 2170 403 1619 403 
C 1075 403 736 653 467 922 
L 179 538 
C 493 224 941 -83 1670 -83 
z
" transform="scale(0.015625)"/>
       </defs>
       <use xlink:href="#NotoSansCJKjp-Regular-31"/>
       <use xlink:href="#NotoSansCJKjp-Regular-39" transform="translate(55.499985 0)"/>
       <use xlink:href="#NotoSansCJKjp-Regular-39" transform="translate(110.999969 0)"/>
       <use xlink:href="#NotoSansCJKjp-Regular-35" transform="translate(166.499954 0)"/>
      </g>
     </g>
    </g>
    <g id="xtick_4">
     <g id="line2d_4">
      <g>
       <use xlink:href="#m05e3c7648b" x="339.384375" y="384.28" style="stroke: #000000; stroke-width: 0.8"/>
      </g>
     </g>
     <g id="text_4">
      <!-- 1998 -->
      <g transform="translate(328.284375 399.239375) scale(0.1 -0.1)">
       <use xlink:href="#NotoSansCJKjp-Regular-31"/>
       <use xlink:href="#NotoSansCJKjp-Regular-39" transform="translate(55.499985 0)"/>
       <use xlink:href="#NotoSansCJKjp-Regular-39" transform="translate(110.999969 0)"/>
       <use xlink:href="#NotoSansCJKjp-Regular-38" transform="translate(166.499954 0)"/>
      </g>
     </g>
    </g>
    <g id="xtick_5">
     <g id="line2d_5">
      <g>
       <use xlink:href="#m05e3c7648b" x="427.929375" y="384.28" style="stroke: #000000; stroke-width: 0.8"/>
      </g>
     </g>
     <g id="text_5">
      <!-- 2001 -->
      <g transform="translate(416.829375 399.239375) scale(0.1 -0.1)">
       <defs>
        <path id="NotoSansCJKjp-Regular-30" d="M 1779 -83 
C 2669 -83 3238 730 3238 2362 
C 3238 3987 2669 4781 1779 4781 
C 883 4781 314 3994 314 2362 
C 314 730 883 -83 1779 -83 
z
M 1779 384 
C 1242 384 883 979 883 2362 
C 883 3731 1242 4314 1779 4314 
C 2310 4314 2669 3731 2669 2362 
C 2669 979 2310 384 1779 384 
z
" transform="scale(0.015625)"/>
       </defs>
       <use xlink:href="#NotoSansCJKjp-Regular-32"/>
       <use xlink:href="#NotoSansCJKjp-Regular-30" transform="translate(55.499985 0)"/>
       <use xlink:href="#NotoSansCJKjp-Regular-30" transform="translate(110.999969 0)"/>
       <use xlink:href="#NotoSansCJKjp-Regular-31" transform="translate(166.499954 0)"/>
      </g>
     </g>
    </g>
    <g id="xtick_6">
     <g id="line2d_6">
      <g>
       <use xlink:href="#m05e3c7648b" x="516.474375" y="384.28" style="stroke: #000000; stroke-width: 0.8"/>
      </g>
     </g>
     <g id="text_6">
      <!-- 2004 -->
      <g transform="translate(505.374375 399.239375) scale(0.1 -0.1)">
       <defs>
        <path id="NotoSansCJKjp-Regular-34" d="M 736 1760 
L 1805 3360 
C 1939 3590 2067 3821 2182 4051 
L 2208 4051 
C 2195 3808 2176 3430 2176 3200 
L 2176 1760 
L 736 1760 
z
M 2176 0 
L 2726 0 
L 2726 1293 
L 3347 1293 
L 3347 1760 
L 2726 1760 
L 2726 4698 
L 2080 4698 
L 128 1677 
L 128 1293 
L 2176 1293 
L 2176 0 
z
" transform="scale(0.015625)"/>
       </defs>
       <use xlink:href="#NotoSansCJKjp-Regular-32"/>
       <use xlink:href="#NotoSansCJKjp-Regular-30" transform="translate(55.499985 0)"/>
       <use xlink:href="#NotoSansCJKjp-Regular-30" transform="translate(110.999969 0)"/>
       <use xlink:href="#NotoSansCJKjp-Regular-34" transform="translate(166.499954 0)"/>
      </g>
     </g>
    </g>
    <g id="xtick_7">
     <g id="line2d_7">
      <g>
       <use xlink:href="#m05e3c7648b" x="605.019375" y="384.28" style="stroke: #000000; stroke-width: 0.8"/>
      </g>
     </g>
     <g id="text_7">
      <!-- 2007 -->
      <g transform="translate(593.919375 399.239375) scale(0.1 -0.1)">
       <defs>
        <path id="NotoSansCJKjp-Regular-37" d="M 1267 0 
L 1875 0 
C 1946 1837 2150 2931 3251 4339 
L 3251 4698 
L 314 4698 
L 314 4192 
L 2586 4192 
C 1670 2912 1344 1779 1267 0 
z
" transform="scale(0.015625)"/>
       </defs>
       <use xlink:href="#NotoSansCJKjp-Regular-32"/>
       <use xlink:href="#NotoSansCJKjp-Regular-30" transform="translate(55.499985 0)"/>
       <use xlink:href="#NotoSansCJKjp-Regular-30" transform="translate(110.999969 0)"/>
       <use xlink:href="#NotoSansCJKjp-Regular-37" transform="translate(166.499954 0)"/>
      </g>
     </g>
    </g>
    <g id="xtick_8">
     <g id="line2d_8">
      <g>
       <use xlink:href="#m05e3c7648b" x="693.564375" y="384.28" style="stroke: #000000; stroke-width: 0.8"/>
      </g>
     </g>
     <g id="text_8">
      <!-- 2010 -->
      <g transform="translate(682.464375 399.239375) scale(0.1 -0.1)">
       <use xlink:href="#NotoSansCJKjp-Regular-32"/>
       <use xlink:href="#NotoSansCJKjp-Regular-30" transform="translate(55.499985 0)"/>
       <use xlink:href="#NotoSansCJKjp-Regular-31" transform="translate(110.999969 0)"/>
       <use xlink:href="#NotoSansCJKjp-Regular-30" transform="translate(166.499954 0)"/>
      </g>
     </g>
    </g>
    <g id="text_9">
     <!-- Year -->
     <g transform="translate(357.695703 414.285312) scale(0.11 -0.11)">
      <defs>
       <path id="NotoSansCJKjp-Regular-59" d="M 1402 0 
L 1997 0 
L 1997 1824 
L 3405 4698 
L 2790 4698 
L 2182 3366 
C 2042 3021 1882 2694 1715 2342 
L 1690 2342 
C 1523 2694 1382 3021 1229 3366 
L 627 4698 
L -6 4698 
L 1402 1824 
L 1402 0 
z
" transform="scale(0.015625)"/>
       <path id="NotoSansCJKjp-Regular-65" d="M 1990 -83 
C 2464 -83 2835 77 3142 275 
L 2931 659 
C 2675 486 2400 384 2061 384 
C 1402 384 947 858 909 1600 
L 3251 1600 
C 3264 1683 3277 1805 3277 1933 
C 3277 2925 2778 3565 1894 3565 
C 1088 3565 326 2861 326 1734 
C 326 589 1069 -83 1990 -83 
z
M 902 2022 
C 973 2701 1408 3098 1901 3098 
C 2445 3098 2765 2720 2765 2022 
L 902 2022 
z
" transform="scale(0.015625)"/>
       <path id="NotoSansCJKjp-Regular-61" d="M 1389 -83 
C 1818 -83 2208 141 2541 416 
L 2560 416 
L 2611 0 
L 3091 0 
L 3091 2138 
C 3091 2995 2733 3565 1888 3565 
C 1331 3565 838 3315 518 3110 
L 749 2707 
C 1024 2893 1389 3078 1792 3078 
C 2362 3078 2509 2650 2509 2202 
C 1030 2035 371 1658 371 902 
C 371 275 806 -83 1389 -83 
z
M 1555 384 
C 1210 384 941 544 941 941 
C 941 1389 1338 1677 2509 1818 
L 2509 845 
C 2170 544 1894 384 1555 384 
z
" transform="scale(0.015625)"/>
       <path id="NotoSansCJKjp-Regular-72" d="M 589 0 
L 1171 0 
L 1171 2234 
C 1402 2829 1760 3034 2048 3034 
C 2189 3034 2272 3021 2387 2976 
L 2496 3488 
C 2387 3546 2278 3565 2125 3565 
C 1734 3565 1382 3283 1139 2842 
L 1120 2842 
L 1069 3475 
L 589 3475 
L 589 0 
z
" transform="scale(0.015625)"/>
      </defs>
      <use xlink:href="#NotoSansCJKjp-Regular-59"/>
      <use xlink:href="#NotoSansCJKjp-Regular-65" transform="translate(53.099991 0)"/>
      <use xlink:href="#NotoSansCJKjp-Regular-61" transform="translate(108.499985 0)"/>
      <use xlink:href="#NotoSansCJKjp-Regular-72" transform="translate(164.899979 0)"/>
     </g>
    </g>
   </g>
   <g id="matplotlib.axis_2">
    <g id="ytick_1">
     <g id="line2d_9">
      <path d="M 44.234375 384.28 
L 693.564375 384.28 
" clip-path="url(#p193872f9ed)" style="fill: none; stroke: #808080; stroke-opacity: 0.3; stroke-width: 0.5; stroke-linecap: square"/>
     </g>
     <g id="line2d_10">
      <defs>
       <path id="m411c8e2867" d="M 0 0 
L -3.5 0 
" style="stroke: #000000; stroke-width: 0.8"/>
      </defs>
      <g>
       <use xlink:href="#m411c8e2867" x="44.234375" y="384.28" style="stroke: #000000; stroke-width: 0.8"/>
      </g>
     </g>
     <g id="text_10">
      <!-- 0% -->
      <g transform="translate(22.475 388.259687) scale(0.1 -0.1)">
       <defs>
        <path id="NotoSansCJKjp-Regular-25" d="M 1312 1818 
C 1958 1818 2381 2362 2381 3309 
C 2381 4250 1958 4781 1312 4781 
C 672 4781 250 4250 250 3309 
C 250 2362 672 1818 1312 1818 
z
M 1312 2182 
C 947 2182 691 2560 691 3309 
C 691 4058 947 4422 1312 4422 
C 1683 4422 1939 4058 1939 3309 
C 1939 2560 1683 2182 1312 2182 
z
M 1453 -83 
L 1843 -83 
L 4435 4781 
L 4038 4781 
L 1453 -83 
z
M 4582 -83 
C 5222 -83 5645 454 5645 1402 
C 5645 2342 5222 2874 4582 2874 
C 3942 2874 3514 2342 3514 1402 
C 3514 454 3942 -83 4582 -83 
z
M 4582 275 
C 4211 275 3962 653 3962 1402 
C 3962 2150 4211 2515 4582 2515 
C 4947 2515 5203 2150 5203 1402 
C 5203 653 4947 275 4582 275 
z
" transform="scale(0.015625)"/>
       </defs>
       <use xlink:href="#NotoSansCJKjp-Regular-30"/>
       <use xlink:href="#NotoSansCJKjp-Regular-25" transform="translate(55.499985 0)"/>
      </g>
     </g>
    </g>
    <g id="ytick_2">
     <g id="line2d_11">
      <path d="M 44.234375 233.448 
L 693.564375 233.448 
" clip-path="url(#p193872f9ed)" style="fill: none; stroke: #808080; stroke-opacity: 0.3; stroke-width: 0.5; stroke-linecap: square"/>
     </g>
     <g id="line2d_12">
      <g>
       <use xlink:href="#m411c8e2867" x="44.234375" y="233.448" style="stroke: #000000; stroke-width: 0.8"/>
      </g>
     </g>
     <g id="text_11">
      <!-- 2% -->
      <g transform="translate(22.475 237.427687) scale(0.1 -0.1)">
       <use xlink:href="#NotoSansCJKjp-Regular-32"/>
       <use xlink:href="#NotoSansCJKjp-Regular-25" transform="translate(55.499985 0)"/>
      </g>
     </g>
    </g>
    <g id="ytick_3">
     <g id="line2d_13">
      <path d="M 44.234375 82.616 
L 693.564375 82.616 
" clip-path="url(#p193872f9ed)" style="fill: none; stroke: #808080; stroke-opacity: 0.3; stroke-width: 0.5; stroke-linecap: square"/>
     </g>
     <g id="line2d_14">
      <g>
       <use xlink:href="#m411c8e2867" x="44.234375" y="82.616" style="stroke: #000000; stroke-width: 0.8"/>
      </g>
     </g>
     <g id="text_12">
      <!-- 4% -->
      <g transform="translate(22.475 86.595687) scale(0.1 -0.1)">
       <use xlink:href="#NotoSansCJKjp-Regular-34"/>
       <use xlink:href="#NotoSansCJKjp-Regular-25" transform="translate(55.499985 0)"/>
      </g>
     </g>
    </g>
    <g id="text_13">
     <!-- Proportion -->
     <g transform="translate(15.955312 223.838125) rotate(-90) scale(0.11 -0.11)">
      <defs>
       <path id="NotoSansCJKjp-Regular-50" d="M 640 0 
L 1235 0 
L 1235 1862 
L 2010 1862 
C 3040 1862 3738 2323 3738 3315 
C 3738 4339 3034 4698 1984 4698 
L 640 4698 
L 640 0 
z
M 1235 2342 
L 1235 4211 
L 1907 4211 
C 2733 4211 3149 3994 3149 3315 
C 3149 2643 2758 2342 1933 2342 
L 1235 2342 
z
" transform="scale(0.015625)"/>
       <path id="NotoSansCJKjp-Regular-6f" d="M 1939 -83 
C 2790 -83 3552 582 3552 1734 
C 3552 2893 2790 3565 1939 3565 
C 1088 3565 326 2893 326 1734 
C 326 582 1088 -83 1939 -83 
z
M 1939 403 
C 1338 403 934 934 934 1734 
C 934 2534 1338 3078 1939 3078 
C 2541 3078 2950 2534 2950 1734 
C 2950 934 2541 403 1939 403 
z
" transform="scale(0.015625)"/>
       <path id="NotoSansCJKjp-Regular-70" d="M 589 -1466 
L 1171 -1466 
L 1171 -288 
L 1158 320 
C 1472 64 1805 -83 2118 -83 
C 2918 -83 3629 602 3629 1792 
C 3629 2861 3142 3565 2246 3565 
C 1843 3565 1453 3334 1139 3078 
L 1120 3078 
L 1069 3475 
L 589 3475 
L 589 -1466 
z
M 2022 403 
C 1792 403 1485 499 1171 768 
L 1171 2592 
C 1510 2906 1811 3072 2106 3072 
C 2765 3072 3021 2554 3021 1786 
C 3021 922 2598 403 2022 403 
z
" transform="scale(0.015625)"/>
       <path id="NotoSansCJKjp-Regular-74" d="M 1683 -83 
C 1894 -83 2125 -19 2323 45 
L 2208 480 
C 2093 435 1933 390 1811 390 
C 1408 390 1274 634 1274 1062 
L 1274 3002 
L 2214 3002 
L 2214 3475 
L 1274 3475 
L 1274 4454 
L 787 4454 
L 717 3475 
L 173 3443 
L 173 3002 
L 691 3002 
L 691 1075 
C 691 384 941 -83 1683 -83 
z
" transform="scale(0.015625)"/>
       <path id="NotoSansCJKjp-Regular-69" d="M 589 0 
L 1171 0 
L 1171 3475 
L 589 3475 
L 589 0 
z
M 883 4192 
C 1114 4192 1274 4346 1274 4582 
C 1274 4806 1114 4960 883 4960 
C 653 4960 493 4806 493 4582 
C 493 4346 653 4192 883 4192 
z
" transform="scale(0.015625)"/>
       <path id="NotoSansCJKjp-Regular-6e" d="M 589 0 
L 1171 0 
L 1171 2522 
C 1523 2874 1766 3053 2125 3053 
C 2586 3053 2784 2778 2784 2125 
L 2784 0 
L 3366 0 
L 3366 2202 
C 3366 3091 3034 3565 2304 3565 
C 1830 3565 1472 3302 1139 2976 
L 1120 2976 
L 1069 3475 
L 589 3475 
L 589 0 
z
" transform="scale(0.015625)"/>
      </defs>
      <use xlink:href="#NotoSansCJKjp-Regular-50"/>
      <use xlink:href="#NotoSansCJKjp-Regular-72" transform="translate(63.199997 0)"/>
      <use xlink:href="#NotoSansCJKjp-Regular-6f" transform="translate(101.999985 0)"/>
      <use xlink:href="#NotoSansCJKjp-Regular-70" transform="translate(162.599976 0)"/>
      <use xlink:href="#NotoSansCJKjp-Regular-6f" transform="translate(224.59996 0)"/>
      <use xlink:href="#NotoSansCJKjp-Regular-72" transform="translate(285.199951 0)"/>
      <use xlink:href="#NotoSansCJKjp-Regular-74" transform="translate(323.999939 0)"/>
      <use xlink:href="#NotoSansCJKjp-Regular-69" transform="translate(361.699936 0)"/>
      <use xlink:href="#NotoSansCJKjp-Regular-6f" transform="translate(389.199921 0)"/>
      <use xlink:href="#NotoSansCJKjp-Regular-6e" transform="translate(449.799911 0)"/>
     </g>
    </g>
   </g>
   <g id="FillBetweenPolyCollection_1">
    <defs>
     <path id="mc54ab58b50" d="M 73.749375 -39.77726 
L 73.749375 -39.725 
L 75.723622 -39.725 
L 77.69787 -39.725 
L 79.672117 -39.725 
L 81.646365 -39.725 
L 83.620612 -39.725 
L 85.59486 -39.725 
L 87.569107 -39.725 
L 89.543355 -39.725 
L 91.517602 -39.725 
L 93.49185 -39.725 
L 95.466097 -39.725 
L 97.440345 -39.725 
L 99.414592 -39.725 
L 101.38884 -39.725 
L 103.363087 -39.725 
L 105.337335 -39.725 
L 107.311582 -39.725 
L 109.28583 -39.725 
L 111.260077 -39.725 
L 113.234325 -39.725 
L 115.208572 -39.725 
L 117.18282 -39.725 
L 119.157067 -39.725 
L 121.131315 -39.725 
L 123.105562 -39.725 
L 125.07981 -39.725 
L 127.054057 -39.725 
L 129.028305 -39.725 
L 131.002552 -39.725 
L 132.9768 -39.725 
L 134.951047 -39.725 
L 136.925295 -39.725 
L 138.899542 -39.725 
L 140.87379 -39.725 
L 142.848037 -39.725 
L 144.822285 -39.725 
L 146.796532 -39.725 
L 148.77078 -39.725 
L 150.745027 -39.725 
L 152.719275 -39.725 
L 154.693522 -39.725 
L 156.66777 -39.725 
L 158.642017 -39.725 
L 160.616265 -39.725 
L 162.590512 -39.725 
L 164.56476 -39.725 
L 166.539007 -39.725 
L 168.513255 -39.725 
L 170.487502 -39.725 
L 172.46175 -39.725 
L 174.435997 -39.725 
L 176.410245 -39.725 
L 178.384492 -39.725 
L 180.35874 -39.725 
L 182.332987 -39.725 
L 184.307235 -39.725 
L 186.281482 -39.725 
L 188.25573 -39.725 
L 190.229977 -39.725 
L 192.204224 -39.725 
L 194.178472 -39.725 
L 196.152719 -39.725 
L 198.126967 -39.725 
L 200.101214 -39.725 
L 202.075462 -39.725 
L 204.049709 -39.725 
L 206.023957 -39.725 
L 207.998204 -39.725 
L 209.972452 -39.725 
L 211.946699 -39.725 
L 213.920947 -39.725 
L 215.895194 -39.725 
L 217.869442 -39.725 
L 219.843689 -39.725 
L 221.817937 -39.725 
L 223.792184 -39.725 
L 225.766432 -39.725 
L 227.740679 -39.725 
L 229.714927 -39.725 
L 231.689174 -39.725 
L 233.663422 -39.725 
L 235.637669 -39.725 
L 237.611917 -39.725 
L 239.586164 -39.725 
L 241.560412 -39.725 
L 243.534659 -39.725 
L 245.508907 -39.725 
L 247.483154 -39.725 
L 249.457402 -39.725 
L 251.431649 -39.725 
L 253.405897 -39.725 
L 255.380144 -39.725 
L 257.354392 -39.725 
L 259.328639 -39.725 
L 261.302887 -39.725 
L 263.277134 -39.725 
L 265.251382 -39.725 
L 267.225629 -39.725 
L 269.199877 -39.725 
L 271.174124 -39.725 
L 273.148372 -39.725 
L 275.122619 -39.725 
L 277.096867 -39.725 
L 279.071114 -39.725 
L 281.045362 -39.725 
L 283.019609 -39.725 
L 284.993857 -39.725 
L 286.968104 -39.725 
L 288.942352 -39.725 
L 290.916599 -39.725 
L 292.890847 -39.725 
L 294.865094 -39.725 
L 296.839342 -39.725 
L 298.813589 -39.725 
L 300.787837 -39.725 
L 302.762084 -39.725 
L 304.736332 -39.725 
L 306.710579 -39.725 
L 308.684827 -39.725 
L 310.659074 -39.725 
L 312.633321 -39.725 
L 314.607569 -39.725 
L 316.581816 -39.725 
L 318.556064 -39.725 
L 320.530311 -39.725 
L 322.504559 -39.725 
L 324.478806 -39.725 
L 326.453054 -39.725 
L 328.427301 -39.725 
L 330.401549 -39.725 
L 332.375796 -39.725 
L 334.350044 -39.725 
L 336.324291 -39.725 
L 338.298539 -39.725 
L 340.272786 -39.725 
L 342.247034 -39.725 
L 344.221281 -39.725 
L 346.195529 -39.725 
L 348.169776 -39.725 
L 350.144024 -39.725 
L 352.118271 -39.725 
L 354.092519 -39.725 
L 356.066766 -39.725 
L 358.041014 -39.725 
L 360.015261 -39.725 
L 361.989509 -39.725 
L 363.963756 -39.725 
L 365.938004 -39.725 
L 367.912251 -39.725 
L 369.886499 -39.725 
L 371.860746 -39.725 
L 373.834994 -39.725 
L 375.809241 -39.725 
L 377.783489 -39.725 
L 379.757736 -39.725 
L 381.731984 -39.725 
L 383.706231 -39.725 
L 385.680479 -39.725 
L 387.654726 -39.725 
L 389.628974 -39.725 
L 391.603221 -39.725 
L 393.577469 -39.725 
L 395.551716 -39.725 
L 397.525964 -39.725 
L 399.500211 -39.725 
L 401.474459 -39.725 
L 403.448706 -39.725 
L 405.422954 -39.725 
L 407.397201 -39.725 
L 409.371449 -39.725 
L 411.345696 -39.725 
L 413.319944 -39.725 
L 415.294191 -39.725 
L 417.268439 -39.725 
L 419.242686 -39.725 
L 421.216934 -39.725 
L 423.191181 -39.725 
L 425.165429 -39.725 
L 427.139676 -39.725 
L 429.113923 -39.725 
L 431.088171 -39.725 
L 433.062418 -39.725 
L 435.036666 -39.725 
L 437.010913 -39.725 
L 438.985161 -39.725 
L 440.959408 -39.725 
L 442.933656 -39.725 
L 444.907903 -39.725 
L 446.882151 -39.725 
L 448.856398 -39.725 
L 450.830646 -39.725 
L 452.804893 -39.725 
L 454.779141 -39.725 
L 456.753388 -39.725 
L 458.727636 -39.725 
L 460.701883 -39.725 
L 462.676131 -39.725 
L 464.650378 -39.725 
L 466.624626 -39.725 
L 468.598873 -39.725 
L 470.573121 -39.725 
L 472.547368 -39.725 
L 474.521616 -39.725 
L 476.495863 -39.725 
L 478.470111 -39.725 
L 480.444358 -39.725 
L 482.418606 -39.725 
L 484.392853 -39.725 
L 486.367101 -39.725 
L 488.341348 -39.725 
L 490.315596 -39.725 
L 492.289843 -39.725 
L 494.264091 -39.725 
L 496.238338 -39.725 
L 498.212586 -39.725 
L 500.186833 -39.725 
L 502.161081 -39.725 
L 504.135328 -39.725 
L 506.109576 -39.725 
L 508.083823 -39.725 
L 510.058071 -39.725 
L 512.032318 -39.725 
L 514.006566 -39.725 
L 515.980813 -39.725 
L 517.955061 -39.725 
L 519.929308 -39.725 
L 521.903556 -39.725 
L 523.877803 -39.725 
L 525.852051 -39.725 
L 527.826298 -39.725 
L 529.800546 -39.725 
L 531.774793 -39.725 
L 533.749041 -39.725 
L 535.723288 -39.725 
L 537.697536 -39.725 
L 539.671783 -39.725 
L 541.646031 -39.725 
L 543.620278 -39.725 
L 545.594526 -39.725 
L 547.568773 -39.725 
L 549.54302 -39.725 
L 551.517268 -39.725 
L 553.491515 -39.725 
L 555.465763 -39.725 
L 557.44001 -39.725 
L 559.414258 -39.725 
L 561.388505 -39.725 
L 563.362753 -39.725 
L 565.337 -39.725 
L 567.311248 -39.725 
L 569.285495 -39.725 
L 571.259743 -39.725 
L 573.23399 -39.725 
L 575.208238 -39.725 
L 577.182485 -39.725 
L 579.156733 -39.725 
L 581.13098 -39.725 
L 583.105228 -39.725 
L 585.079475 -39.725 
L 587.053723 -39.725 
L 589.02797 -39.725 
L 591.002218 -39.725 
L 592.976465 -39.725 
L 594.950713 -39.725 
L 596.92496 -39.725 
L 598.899208 -39.725 
L 600.873455 -39.725 
L 602.847703 -39.725 
L 604.82195 -39.725 
L 606.796198 -39.725 
L 608.770445 -39.725 
L 610.744693 -39.725 
L 612.71894 -39.725 
L 614.693188 -39.725 
L 616.667435 -39.725 
L 618.641683 -39.725 
L 620.61593 -39.725 
L 622.590178 -39.725 
L 624.564425 -39.725 
L 626.538673 -39.725 
L 628.51292 -39.725 
L 630.487168 -39.725 
L 632.461415 -39.725 
L 634.435663 -39.725 
L 636.40991 -39.725 
L 638.384158 -39.725 
L 640.358405 -39.725 
L 642.332653 -39.725 
L 644.3069 -39.725 
L 646.281148 -39.725 
L 648.255395 -39.725 
L 650.229643 -39.725 
L 652.20389 -39.725 
L 654.178138 -39.725 
L 656.152385 -39.725 
L 658.126633 -39.725 
L 660.10088 -39.725 
L 662.075128 -39.725 
L 664.049375 -39.725 
L 664.049375 -72.063706 
L 664.049375 -72.063706 
L 662.075128 -71.592461 
L 660.10088 -71.13618 
L 658.126633 -70.697486 
L 656.152385 -70.279006 
L 654.178138 -69.883366 
L 652.20389 -69.51319 
L 650.229643 -69.171105 
L 648.255395 -68.859736 
L 646.281148 -68.581709 
L 644.3069 -68.339648 
L 642.332653 -68.136181 
L 640.358405 -67.973932 
L 638.384158 -67.855528 
L 636.40991 -67.783592 
L 634.435663 -67.760734 
L 632.461415 -67.780135 
L 630.487168 -67.831348 
L 628.51292 -67.909421 
L 626.538673 -68.009404 
L 624.564425 -68.126346 
L 622.590178 -68.255294 
L 620.61593 -68.391298 
L 618.641683 -68.529406 
L 616.667435 -68.664667 
L 614.693188 -68.79213 
L 612.71894 -68.906843 
L 610.744693 -69.003856 
L 608.770445 -69.078216 
L 606.796198 -69.124973 
L 604.82195 -69.138511 
L 602.847703 -69.040957 
L 600.873455 -68.79688 
L 598.899208 -68.428271 
L 596.92496 -67.957122 
L 594.950713 -67.405424 
L 592.976465 -66.795169 
L 591.002218 -66.148348 
L 589.02797 -65.486953 
L 587.053723 -64.832975 
L 585.079475 -64.208406 
L 583.105228 -63.635237 
L 581.13098 -63.135461 
L 579.156733 -62.731067 
L 577.182485 -62.444049 
L 575.208238 -62.294777 
L 573.23399 -62.20958 
L 571.259743 -62.137373 
L 569.285495 -62.076227 
L 567.311248 -62.024213 
L 565.337 -61.979404 
L 563.362753 -61.93987 
L 561.388505 -61.903683 
L 559.414258 -61.868913 
L 557.44001 -61.833633 
L 555.465763 -61.795914 
L 553.491515 -61.753827 
L 551.517268 -61.705443 
L 549.54302 -61.648834 
L 547.568773 -61.582071 
L 545.594526 -61.502414 
L 543.620278 -61.383547 
L 541.646031 -61.219497 
L 539.671783 -61.018346 
L 537.697536 -60.788177 
L 535.723288 -60.537073 
L 533.749041 -60.273117 
L 531.774793 -60.004392 
L 529.800546 -59.73898 
L 527.826298 -59.484964 
L 525.852051 -59.250428 
L 523.877803 -59.043453 
L 521.903556 -58.872123 
L 519.929308 -58.74452 
L 517.955061 -58.668727 
L 515.980813 -58.651666 
L 514.006566 -58.673137 
L 512.032318 -58.721317 
L 510.058071 -58.793861 
L 508.083823 -58.888424 
L 506.109576 -59.002663 
L 504.135328 -59.134233 
L 502.161081 -59.280791 
L 500.186833 -59.439992 
L 498.212586 -59.609493 
L 496.238338 -59.786949 
L 494.264091 -59.970016 
L 492.289843 -60.15635 
L 490.315596 -60.343607 
L 488.341348 -60.529442 
L 486.367101 -60.714569 
L 484.392853 -60.942682 
L 482.418606 -61.220966 
L 480.444358 -61.539334 
L 478.470111 -61.887699 
L 476.495863 -62.255974 
L 474.521616 -62.634072 
L 472.547368 -63.011907 
L 470.573121 -63.379391 
L 468.598873 -63.726437 
L 466.624626 -64.042959 
L 464.650378 -64.318869 
L 462.676131 -64.54408 
L 460.701883 -64.708506 
L 458.727636 -64.802059 
L 456.753388 -64.80148 
L 454.779141 -64.555311 
L 452.804893 -64.054209 
L 450.830646 -63.337765 
L 448.856398 -62.445567 
L 446.882151 -61.417205 
L 444.907903 -60.292267 
L 442.933656 -59.110342 
L 440.959408 -57.91102 
L 438.985161 -56.733889 
L 437.010913 -55.618538 
L 435.036666 -54.604557 
L 433.062418 -53.731535 
L 431.088171 -53.03906 
L 429.113923 -52.566722 
L 427.139676 -52.333076 
L 425.165429 -52.169213 
L 423.191181 -52.027282 
L 421.216934 -51.904199 
L 419.242686 -51.796878 
L 417.268439 -51.702235 
L 415.294191 -51.617184 
L 413.319944 -51.538641 
L 411.345696 -51.46352 
L 409.371449 -51.388736 
L 407.397201 -51.311204 
L 405.422954 -51.22784 
L 403.448706 -51.135558 
L 401.474459 -51.031273 
L 399.500211 -50.9119 
L 397.525964 -50.774707 
L 395.551716 -50.62088 
L 393.577469 -50.452383 
L 391.603221 -50.270894 
L 389.628974 -50.078093 
L 387.654726 -49.875655 
L 385.680479 -49.66526 
L 383.706231 -49.448586 
L 381.731984 -49.22731 
L 379.757736 -49.00311 
L 377.783489 -48.777665 
L 375.809241 -48.552653 
L 373.834994 -48.329751 
L 371.860746 -48.110637 
L 369.886499 -47.89699 
L 367.912251 -47.688585 
L 365.938004 -47.475573 
L 363.963756 -47.257427 
L 361.989509 -47.035508 
L 360.015261 -46.811179 
L 358.041014 -46.585803 
L 356.066766 -46.360742 
L 354.092519 -46.137357 
L 352.118271 -45.917011 
L 350.144024 -45.701067 
L 348.169776 -45.490885 
L 346.195529 -45.28783 
L 344.221281 -45.093262 
L 342.247034 -44.908545 
L 340.272786 -44.735039 
L 338.298539 -44.570705 
L 336.324291 -44.400629 
L 334.350044 -44.225213 
L 332.375796 -44.047184 
L 330.401549 -43.869267 
L 328.427301 -43.694189 
L 326.453054 -43.524676 
L 324.478806 -43.363454 
L 322.504559 -43.213249 
L 320.530311 -43.076787 
L 318.556064 -42.956794 
L 316.581816 -42.855997 
L 314.607569 -42.777122 
L 312.633321 -42.722894 
L 310.659074 -42.69604 
L 308.684827 -42.696821 
L 306.710579 -42.715607 
L 304.736332 -42.74896 
L 302.762084 -42.794402 
L 300.787837 -42.849453 
L 298.813589 -42.911633 
L 296.839342 -42.978462 
L 294.865094 -43.047461 
L 292.890847 -43.11615 
L 290.916599 -43.182049 
L 288.942352 -43.242679 
L 286.968104 -43.29556 
L 284.993857 -43.338212 
L 283.019609 -43.368156 
L 281.045362 -43.382912 
L 279.071114 -43.383791 
L 277.096867 -43.382502 
L 275.122619 -43.380121 
L 273.148372 -43.376675 
L 271.174124 -43.372194 
L 269.199877 -43.366705 
L 267.225629 -43.360235 
L 265.251382 -43.352812 
L 263.277134 -43.344464 
L 261.302887 -43.33522 
L 259.328639 -43.325107 
L 257.354392 -43.314153 
L 255.380144 -43.302385 
L 253.405897 -43.289833 
L 251.431649 -43.276522 
L 249.457402 -43.256305 
L 247.483154 -43.212753 
L 245.508907 -43.147722 
L 243.534659 -43.064249 
L 241.560412 -42.965367 
L 239.586164 -42.854113 
L 237.611917 -42.733522 
L 235.637669 -42.606628 
L 233.663422 -42.476468 
L 231.689174 -42.346077 
L 229.714927 -42.21849 
L 227.740679 -42.096742 
L 225.766432 -41.983869 
L 223.792184 -41.882906 
L 221.817937 -41.796889 
L 219.843689 -41.723231 
L 217.869442 -41.649957 
L 215.895194 -41.577009 
L 213.920947 -41.504928 
L 211.946699 -41.434256 
L 209.972452 -41.365533 
L 207.998204 -41.299301 
L 206.023957 -41.236102 
L 204.049709 -41.176476 
L 202.075462 -41.120964 
L 200.101214 -41.070109 
L 198.126967 -41.024451 
L 196.152719 -40.984531 
L 194.178472 -40.95089 
L 192.204224 -40.924071 
L 190.229977 -40.90272 
L 188.25573 -40.88311 
L 186.281482 -40.865007 
L 184.307235 -40.848287 
L 182.332987 -40.832827 
L 180.35874 -40.818504 
L 178.384492 -40.805196 
L 176.410245 -40.79278 
L 174.435997 -40.781132 
L 172.46175 -40.77013 
L 170.487502 -40.759652 
L 168.513255 -40.749573 
L 166.539007 -40.739773 
L 164.56476 -40.730127 
L 162.590512 -40.720512 
L 160.616265 -40.711181 
L 158.642017 -40.702655 
L 156.66777 -40.694816 
L 154.693522 -40.687536 
L 152.719275 -40.680686 
L 150.745027 -40.674135 
L 148.77078 -40.667755 
L 146.796532 -40.661416 
L 144.822285 -40.654989 
L 142.848037 -40.648345 
L 140.87379 -40.641354 
L 138.899542 -40.633888 
L 136.925295 -40.625816 
L 134.951047 -40.617009 
L 132.9768 -40.607339 
L 131.002552 -40.596841 
L 129.028305 -40.585691 
L 127.054057 -40.573861 
L 125.07981 -40.561323 
L 123.105562 -40.548049 
L 121.131315 -40.534012 
L 119.157067 -40.519183 
L 117.18282 -40.503535 
L 115.208572 -40.487038 
L 113.234325 -40.469665 
L 111.260077 -40.451389 
L 109.28583 -40.43218 
L 107.311582 -40.412011 
L 105.337335 -40.390854 
L 103.363087 -40.36868 
L 101.38884 -40.344646 
L 99.414592 -40.317835 
L 97.440345 -40.288378 
L 95.466097 -40.25641 
L 93.49185 -40.222063 
L 91.517602 -40.185473 
L 89.543355 -40.146773 
L 87.569107 -40.106096 
L 85.59486 -40.063577 
L 83.620612 -40.019349 
L 81.646365 -39.973546 
L 79.672117 -39.926301 
L 77.69787 -39.87775 
L 75.723622 -39.828025 
L 73.749375 -39.77726 
z
" style="stroke: #d62728; stroke-opacity: 0.7"/>
    </defs>
    <g clip-path="url(#p193872f9ed)">
     <use xlink:href="#mc54ab58b50" x="0" y="424.005" style="fill: #d62728; fill-opacity: 0.7; stroke: #d62728; stroke-opacity: 0.7"/>
    </g>
   </g>
   <g id="FillBetweenPolyCollection_2">
    <defs>
     <path id="m8148d48240" d="M 73.749375 -39.82952 
L 73.749375 -39.77726 
L 75.723622 -39.828025 
L 77.69787 -39.87775 
L 79.672117 -39.926301 
L 81.646365 -39.973546 
L 83.620612 -40.019349 
L 85.59486 -40.063577 
L 87.569107 -40.106096 
L 89.543355 -40.146773 
L 91.517602 -40.185473 
L 93.49185 -40.222063 
L 95.466097 -40.25641 
L 97.440345 -40.288378 
L 99.414592 -40.317835 
L 101.38884 -40.344646 
L 103.363087 -40.36868 
L 105.337335 -40.390854 
L 107.311582 -40.412011 
L 109.28583 -40.43218 
L 111.260077 -40.451389 
L 113.234325 -40.469665 
L 115.208572 -40.487038 
L 117.18282 -40.503535 
L 119.157067 -40.519183 
L 121.131315 -40.534012 
L 123.105562 -40.548049 
L 125.07981 -40.561323 
L 127.054057 -40.573861 
L 129.028305 -40.585691 
L 131.002552 -40.596841 
L 132.9768 -40.607339 
L 134.951047 -40.617009 
L 136.925295 -40.625816 
L 138.899542 -40.633888 
L 140.87379 -40.641354 
L 142.848037 -40.648345 
L 144.822285 -40.654989 
L 146.796532 -40.661416 
L 148.77078 -40.667755 
L 150.745027 -40.674135 
L 152.719275 -40.680686 
L 154.693522 -40.687536 
L 156.66777 -40.694816 
L 158.642017 -40.702655 
L 160.616265 -40.711181 
L 162.590512 -40.720512 
L 164.56476 -40.730127 
L 166.539007 -40.739773 
L 168.513255 -40.749573 
L 170.487502 -40.759652 
L 172.46175 -40.77013 
L 174.435997 -40.781132 
L 176.410245 -40.79278 
L 178.384492 -40.805196 
L 180.35874 -40.818504 
L 182.332987 -40.832827 
L 184.307235 -40.848287 
L 186.281482 -40.865007 
L 188.25573 -40.88311 
L 190.229977 -40.90272 
L 192.204224 -40.924071 
L 194.178472 -40.95089 
L 196.152719 -40.984531 
L 198.126967 -41.024451 
L 200.101214 -41.070109 
L 202.075462 -41.120964 
L 204.049709 -41.176476 
L 206.023957 -41.236102 
L 207.998204 -41.299301 
L 209.972452 -41.365533 
L 211.946699 -41.434256 
L 213.920947 -41.504928 
L 215.895194 -41.577009 
L 217.869442 -41.649957 
L 219.843689 -41.723231 
L 221.817937 -41.796889 
L 223.792184 -41.882906 
L 225.766432 -41.983869 
L 227.740679 -42.096742 
L 229.714927 -42.21849 
L 231.689174 -42.346077 
L 233.663422 -42.476468 
L 235.637669 -42.606628 
L 237.611917 -42.733522 
L 239.586164 -42.854113 
L 241.560412 -42.965367 
L 243.534659 -43.064249 
L 245.508907 -43.147722 
L 247.483154 -43.212753 
L 249.457402 -43.256305 
L 251.431649 -43.276522 
L 253.405897 -43.289833 
L 255.380144 -43.302385 
L 257.354392 -43.314153 
L 259.328639 -43.325107 
L 261.302887 -43.33522 
L 263.277134 -43.344464 
L 265.251382 -43.352812 
L 267.225629 -43.360235 
L 269.199877 -43.366705 
L 271.174124 -43.372194 
L 273.148372 -43.376675 
L 275.122619 -43.380121 
L 277.096867 -43.382502 
L 279.071114 -43.383791 
L 281.045362 -43.382912 
L 283.019609 -43.368156 
L 284.993857 -43.338212 
L 286.968104 -43.29556 
L 288.942352 -43.242679 
L 290.916599 -43.182049 
L 292.890847 -43.11615 
L 294.865094 -43.047461 
L 296.839342 -42.978462 
L 298.813589 -42.911633 
L 300.787837 -42.849453 
L 302.762084 -42.794402 
L 304.736332 -42.74896 
L 306.710579 -42.715607 
L 308.684827 -42.696821 
L 310.659074 -42.69604 
L 312.633321 -42.722894 
L 314.607569 -42.777122 
L 316.581816 -42.855997 
L 318.556064 -42.956794 
L 320.530311 -43.076787 
L 322.504559 -43.213249 
L 324.478806 -43.363454 
L 326.453054 -43.524676 
L 328.427301 -43.694189 
L 330.401549 -43.869267 
L 332.375796 -44.047184 
L 334.350044 -44.225213 
L 336.324291 -44.400629 
L 338.298539 -44.570705 
L 340.272786 -44.735039 
L 342.247034 -44.908545 
L 344.221281 -45.093262 
L 346.195529 -45.28783 
L 348.169776 -45.490885 
L 350.144024 -45.701067 
L 352.118271 -45.917011 
L 354.092519 -46.137357 
L 356.066766 -46.360742 
L 358.041014 -46.585803 
L 360.015261 -46.811179 
L 361.989509 -47.035508 
L 363.963756 -47.257427 
L 365.938004 -47.475573 
L 367.912251 -47.688585 
L 369.886499 -47.89699 
L 371.860746 -48.110637 
L 373.834994 -48.329751 
L 375.809241 -48.552653 
L 377.783489 -48.777665 
L 379.757736 -49.00311 
L 381.731984 -49.22731 
L 383.706231 -49.448586 
L 385.680479 -49.66526 
L 387.654726 -49.875655 
L 389.628974 -50.078093 
L 391.603221 -50.270894 
L 393.577469 -50.452383 
L 395.551716 -50.62088 
L 397.525964 -50.774707 
L 399.500211 -50.9119 
L 401.474459 -51.031273 
L 403.448706 -51.135558 
L 405.422954 -51.22784 
L 407.397201 -51.311204 
L 409.371449 -51.388736 
L 411.345696 -51.46352 
L 413.319944 -51.538641 
L 415.294191 -51.617184 
L 417.268439 -51.702235 
L 419.242686 -51.796878 
L 421.216934 -51.904199 
L 423.191181 -52.027282 
L 425.165429 -52.169213 
L 427.139676 -52.333076 
L 429.113923 -52.566722 
L 431.088171 -53.03906 
L 433.062418 -53.731535 
L 435.036666 -54.604557 
L 437.010913 -55.618538 
L 438.985161 -56.733889 
L 440.959408 -57.91102 
L 442.933656 -59.110342 
L 444.907903 -60.292267 
L 446.882151 -61.417205 
L 448.856398 -62.445567 
L 450.830646 -63.337765 
L 452.804893 -64.054209 
L 454.779141 -64.555311 
L 456.753388 -64.80148 
L 458.727636 -64.802059 
L 460.701883 -64.708506 
L 462.676131 -64.54408 
L 464.650378 -64.318869 
L 466.624626 -64.042959 
L 468.598873 -63.726437 
L 470.573121 -63.379391 
L 472.547368 -63.011907 
L 474.521616 -62.634072 
L 476.495863 -62.255974 
L 478.470111 -61.887699 
L 480.444358 -61.539334 
L 482.418606 -61.220966 
L 484.392853 -60.942682 
L 486.367101 -60.714569 
L 488.341348 -60.529442 
L 490.315596 -60.343607 
L 492.289843 -60.15635 
L 494.264091 -59.970016 
L 496.238338 -59.786949 
L 498.212586 -59.609493 
L 500.186833 -59.439992 
L 502.161081 -59.280791 
L 504.135328 -59.134233 
L 506.109576 -59.002663 
L 508.083823 -58.888424 
L 510.058071 -58.793861 
L 512.032318 -58.721317 
L 514.006566 -58.673137 
L 515.980813 -58.651666 
L 517.955061 -58.668727 
L 519.929308 -58.74452 
L 521.903556 -58.872123 
L 523.877803 -59.043453 
L 525.852051 -59.250428 
L 527.826298 -59.484964 
L 529.800546 -59.73898 
L 531.774793 -60.004392 
L 533.749041 -60.273117 
L 535.723288 -60.537073 
L 537.697536 -60.788177 
L 539.671783 -61.018346 
L 541.646031 -61.219497 
L 543.620278 -61.383547 
L 545.594526 -61.502414 
L 547.568773 -61.582071 
L 549.54302 -61.648834 
L 551.517268 -61.705443 
L 553.491515 -61.753827 
L 555.465763 -61.795914 
L 557.44001 -61.833633 
L 559.414258 -61.868913 
L 561.388505 -61.903683 
L 563.362753 -61.93987 
L 565.337 -61.979404 
L 567.311248 -62.024213 
L 569.285495 -62.076227 
L 571.259743 -62.137373 
L 573.23399 -62.20958 
L 575.208238 -62.294777 
L 577.182485 -62.444049 
L 579.156733 -62.731067 
L 581.13098 -63.135461 
L 583.105228 -63.635237 
L 585.079475 -64.208406 
L 587.053723 -64.832975 
L 589.02797 -65.486953 
L 591.002218 -66.148348 
L 592.976465 -66.795169 
L 594.950713 -67.405424 
L 596.92496 -67.957122 
L 598.899208 -68.428271 
L 600.873455 -68.79688 
L 602.847703 -69.040957 
L 604.82195 -69.138511 
L 606.796198 -69.124973 
L 608.770445 -69.078216 
L 610.744693 -69.003856 
L 612.71894 -68.906843 
L 614.693188 -68.79213 
L 616.667435 -68.664667 
L 618.641683 -68.529406 
L 620.61593 -68.391298 
L 622.590178 -68.255294 
L 624.564425 -68.126346 
L 626.538673 -68.009404 
L 628.51292 -67.909421 
L 630.487168 -67.831348 
L 632.461415 -67.780135 
L 634.435663 -67.760734 
L 636.40991 -67.783592 
L 638.384158 -67.855528 
L 640.358405 -67.973932 
L 642.332653 -68.136181 
L 644.3069 -68.339648 
L 646.281148 -68.581709 
L 648.255395 -68.859736 
L 650.229643 -69.171105 
L 652.20389 -69.51319 
L 654.178138 -69.883366 
L 656.152385 -70.279006 
L 658.126633 -70.697486 
L 660.10088 -71.13618 
L 662.075128 -71.592461 
L 664.049375 -72.063706 
L 664.049375 -118.099591 
L 664.049375 -118.099591 
L 662.075128 -117.131744 
L 660.10088 -116.185172 
L 658.126633 -115.262691 
L 656.152385 -114.367116 
L 654.178138 -113.501263 
L 652.20389 -112.667948 
L 650.229643 -111.869988 
L 648.255395 -111.110197 
L 646.281148 -110.391392 
L 644.3069 -109.716389 
L 642.332653 -109.088003 
L 640.358405 -108.509051 
L 638.384158 -107.982348 
L 636.40991 -107.510711 
L 634.435663 -107.096953 
L 632.461415 -106.741067 
L 630.487168 -106.435857 
L 628.51292 -106.173133 
L 626.538673 -105.944703 
L 624.564425 -105.742378 
L 622.590178 -105.557965 
L 620.61593 -105.383273 
L 618.641683 -105.210112 
L 616.667435 -105.030291 
L 614.693188 -104.835619 
L 612.71894 -104.617904 
L 610.744693 -104.368955 
L 608.770445 -104.080583 
L 606.796198 -103.744595 
L 604.82195 -103.351882 
L 602.847703 -102.794443 
L 600.873455 -102.026537 
L 598.899208 -101.082587 
L 596.92496 -99.997017 
L 594.950713 -98.804253 
L 592.976465 -97.538718 
L 591.002218 -96.234837 
L 589.02797 -94.927034 
L 587.053723 -93.649733 
L 585.079475 -92.437358 
L 583.105228 -91.324335 
L 581.13098 -90.345086 
L 579.156733 -89.534037 
L 577.182485 -88.925611 
L 575.208238 -88.551721 
L 573.23399 -88.2978 
L 571.259743 -88.082111 
L 569.285495 -87.898711 
L 567.311248 -87.741657 
L 565.337 -87.605005 
L 563.362753 -87.482811 
L 561.388505 -87.369133 
L 559.414258 -87.258026 
L 557.44001 -87.143548 
L 555.465763 -87.019753 
L 553.491515 -86.8807 
L 551.517268 -86.720443 
L 549.54302 -86.533041 
L 547.568773 -86.312549 
L 545.594526 -86.049439 
L 543.620278 -85.628618 
L 541.646031 -85.020739 
L 539.671783 -84.257851 
L 537.697536 -83.372005 
L 535.723288 -82.395248 
L 533.749041 -81.359631 
L 531.774793 -80.297204 
L 529.800546 -79.240014 
L 527.826298 -78.220112 
L 525.852051 -77.269547 
L 523.877803 -76.420369 
L 521.903556 -75.704626 
L 519.929308 -75.154368 
L 517.955061 -74.801645 
L 515.980813 -74.671524 
L 514.006566 -74.633533 
L 512.032318 -74.625807 
L 510.058071 -74.646098 
L 508.083823 -74.692156 
L 506.109576 -74.761734 
L 504.135328 -74.852583 
L 502.161081 -74.962454 
L 500.186833 -75.089099 
L 498.212586 -75.230269 
L 496.238338 -75.383715 
L 494.264091 -75.547191 
L 492.289843 -75.718445 
L 490.315596 -75.895231 
L 488.341348 -76.0753 
L 486.367101 -76.263236 
L 484.392853 -76.558994 
L 482.418606 -76.979272 
L 480.444358 -77.501942 
L 478.470111 -78.104877 
L 476.495863 -78.76595 
L 474.521616 -79.463033 
L 472.547368 -80.174 
L 470.573121 -80.876723 
L 468.598873 -81.549075 
L 466.624626 -82.168929 
L 464.650378 -82.714158 
L 462.676131 -83.162634 
L 460.701883 -83.492231 
L 458.727636 -83.680822 
L 456.753388 -83.683442 
L 454.779141 -83.235624 
L 452.804893 -82.3249 
L 450.830646 -81.024264 
L 448.856398 -79.40671 
L 446.882151 -77.54523 
L 444.907903 -75.512817 
L 442.933656 -73.382464 
L 440.959408 -71.227165 
L 438.985161 -69.119912 
L 437.010913 -67.133699 
L 435.036666 -65.341518 
L 433.062418 -63.816363 
L 431.088171 -62.631227 
L 429.113923 -61.859103 
L 427.139676 -61.532614 
L 425.165429 -61.326087 
L 423.191181 -61.149039 
L 421.216934 -60.997182 
L 419.242686 -60.866229 
L 417.268439 -60.751892 
L 415.294191 -60.649882 
L 413.319944 -60.555913 
L 411.345696 -60.465696 
L 409.371449 -60.374945 
L 407.397201 -60.27937 
L 405.422954 -60.174685 
L 403.448706 -60.056602 
L 401.474459 -59.920833 
L 399.500211 -59.76309 
L 397.525964 -59.574866 
L 395.551716 -59.325071 
L 393.577469 -59.014901 
L 391.603221 -58.652482 
L 389.628974 -58.245941 
L 387.654726 -57.803402 
L 385.680479 -57.332993 
L 383.706231 -56.842839 
L 381.731984 -56.341066 
L 379.757736 -55.835801 
L 377.783489 -55.335168 
L 375.809241 -54.847295 
L 373.834994 -54.380307 
L 371.860746 -53.942331 
L 369.886499 -53.541491 
L 367.912251 -53.179363 
L 365.938004 -52.822192 
L 363.963756 -52.464984 
L 361.989509 -52.109015 
L 360.015261 -51.755558 
L 358.041014 -51.405888 
L 356.066766 -51.06128 
L 354.092519 -50.723006 
L 352.118271 -50.392343 
L 350.144024 -50.070563 
L 348.169776 -49.758942 
L 346.195529 -49.458753 
L 344.221281 -49.171271 
L 342.247034 -48.897769 
L 340.272786 -48.639523 
L 338.298539 -48.39399 
L 336.324291 -48.144265 
L 334.350044 -47.890722 
L 332.375796 -47.636347 
L 330.401549 -47.384125 
L 328.427301 -47.137043 
L 326.453054 -46.898086 
L 324.478806 -46.670242 
L 322.504559 -46.456495 
L 320.530311 -46.259832 
L 318.556064 -46.083239 
L 316.581816 -45.929702 
L 314.607569 -45.802207 
L 312.633321 -45.703739 
L 310.659074 -45.637286 
L 308.684827 -45.603217 
L 306.710579 -45.591187 
L 304.736332 -45.597133 
L 302.762084 -45.617994 
L 300.787837 -45.650708 
L 298.813589 -45.692215 
L 296.839342 -45.739454 
L 294.865094 -45.789362 
L 292.890847 -45.838879 
L 290.916599 -45.884944 
L 288.942352 -45.924495 
L 286.968104 -45.954471 
L 284.993857 -45.971812 
L 283.019609 -45.973455 
L 281.045362 -45.956339 
L 279.071114 -45.92 
L 277.096867 -45.872324 
L 275.122619 -45.815327 
L 273.148372 -45.750366 
L 271.174124 -45.678797 
L 269.199877 -45.601975 
L 267.225629 -45.521256 
L 265.251382 -45.437996 
L 263.277134 -45.353551 
L 261.302887 -45.269276 
L 259.328639 -45.186526 
L 257.354392 -45.106659 
L 255.380144 -45.031028 
L 253.405897 -44.960991 
L 251.431649 -44.897903 
L 249.457402 -44.834894 
L 247.483154 -44.7503 
L 245.508907 -44.645625 
L 243.534659 -44.523911 
L 241.560412 -44.388199 
L 239.586164 -44.241531 
L 237.611917 -44.086948 
L 235.637669 -43.927492 
L 233.663422 -43.766203 
L 231.689174 -43.606124 
L 229.714927 -43.450296 
L 227.740679 -43.30176 
L 225.766432 -43.163558 
L 223.792184 -43.03873 
L 221.817937 -42.93032 
L 219.843689 -42.835357 
L 217.869442 -42.740983 
L 215.895194 -42.647227 
L 213.920947 -42.554762 
L 211.946699 -42.464262 
L 209.972452 -42.376398 
L 207.998204 -42.291845 
L 206.023957 -42.211274 
L 204.049709 -42.135358 
L 202.075462 -42.064772 
L 200.101214 -42.000186 
L 198.126967 -41.942275 
L 196.152719 -41.891711 
L 194.178472 -41.849167 
L 192.204224 -41.815316 
L 190.229977 -41.788571 
L 188.25573 -41.764443 
L 186.281482 -41.742541 
L 184.307235 -41.722609 
L 182.332987 -41.704392 
L 180.35874 -41.687632 
L 178.384492 -41.672075 
L 176.410245 -41.657464 
L 174.435997 -41.643543 
L 172.46175 -41.630055 
L 170.487502 -41.616746 
L 168.513255 -41.603359 
L 166.539007 -41.589638 
L 164.56476 -41.575327 
L 162.590512 -41.56017 
L 160.616265 -41.541256 
L 158.642017 -41.514537 
L 156.66777 -41.481104 
L 154.693522 -41.442138 
L 152.719275 -41.398818 
L 150.745027 -41.352324 
L 148.77078 -41.303837 
L 146.796532 -41.254537 
L 144.822285 -41.205602 
L 142.848037 -41.158214 
L 140.87379 -41.113553 
L 138.899542 -41.072797 
L 136.925295 -41.037128 
L 134.951047 -41.007725 
L 132.9768 -40.985768 
L 131.002552 -40.968932 
L 129.028305 -40.952473 
L 127.054057 -40.936178 
L 125.07981 -40.919874 
L 123.105562 -40.903386 
L 121.131315 -40.886542 
L 119.157067 -40.869168 
L 117.18282 -40.851089 
L 115.208572 -40.832134 
L 113.234325 -40.812127 
L 111.260077 -40.790897 
L 109.28583 -40.768269 
L 107.311582 -40.744069 
L 105.337335 -40.718125 
L 103.363087 -40.690263 
L 101.38884 -40.659017 
L 99.414592 -40.622921 
L 97.440345 -40.582228 
L 95.466097 -40.537198 
L 93.49185 -40.48809 
L 91.517602 -40.43516 
L 89.543355 -40.378669 
L 87.569107 -40.318874 
L 85.59486 -40.256033 
L 83.620612 -40.190407 
L 81.646365 -40.122252 
L 79.672117 -40.051827 
L 77.69787 -39.979391 
L 75.723622 -39.905203 
L 73.749375 -39.82952 
z
" style="stroke: #1f77b4; stroke-opacity: 0.7"/>
    </defs>
    <g clip-path="url(#p193872f9ed)">
     <use xlink:href="#m8148d48240" x="0" y="424.005" style="fill: #1f77b4; fill-opacity: 0.7; stroke: #1f77b4; stroke-opacity: 0.7"/>
    </g>
   </g>
   <g id="FillBetweenPolyCollection_3">
    <defs>
     <path id="m03d07ce7d1" d="M 73.749375 -39.82952 
L 73.749375 -39.82952 
L 75.723622 -39.905203 
L 77.69787 -39.979391 
L 79.672117 -40.051827 
L 81.646365 -40.122252 
L 83.620612 -40.190407 
L 85.59486 -40.256033 
L 87.569107 -40.318874 
L 89.543355 -40.378669 
L 91.517602 -40.43516 
L 93.49185 -40.48809 
L 95.466097 -40.537198 
L 97.440345 -40.582228 
L 99.414592 -40.622921 
L 101.38884 -40.659017 
L 103.363087 -40.690263 
L 105.337335 -40.718125 
L 107.311582 -40.744069 
L 109.28583 -40.768269 
L 111.260077 -40.790897 
L 113.234325 -40.812127 
L 115.208572 -40.832134 
L 117.18282 -40.851089 
L 119.157067 -40.869168 
L 121.131315 -40.886542 
L 123.105562 -40.903386 
L 125.07981 -40.919874 
L 127.054057 -40.936178 
L 129.028305 -40.952473 
L 131.002552 -40.968932 
L 132.9768 -40.985768 
L 134.951047 -41.007725 
L 136.925295 -41.037128 
L 138.899542 -41.072797 
L 140.87379 -41.113553 
L 142.848037 -41.158214 
L 144.822285 -41.205602 
L 146.796532 -41.254537 
L 148.77078 -41.303837 
L 150.745027 -41.352324 
L 152.719275 -41.398818 
L 154.693522 -41.442138 
L 156.66777 -41.481104 
L 158.642017 -41.514537 
L 160.616265 -41.541256 
L 162.590512 -41.56017 
L 164.56476 -41.575327 
L 166.539007 -41.589638 
L 168.513255 -41.603359 
L 170.487502 -41.616746 
L 172.46175 -41.630055 
L 174.435997 -41.643543 
L 176.410245 -41.657464 
L 178.384492 -41.672075 
L 180.35874 -41.687632 
L 182.332987 -41.704392 
L 184.307235 -41.722609 
L 186.281482 -41.742541 
L 188.25573 -41.764443 
L 190.229977 -41.788571 
L 192.204224 -41.815316 
L 194.178472 -41.849167 
L 196.152719 -41.891711 
L 198.126967 -41.942275 
L 200.101214 -42.000186 
L 202.075462 -42.064772 
L 204.049709 -42.135358 
L 206.023957 -42.211274 
L 207.998204 -42.291845 
L 209.972452 -42.376398 
L 211.946699 -42.464262 
L 213.920947 -42.554762 
L 215.895194 -42.647227 
L 217.869442 -42.740983 
L 219.843689 -42.835357 
L 221.817937 -42.93032 
L 223.792184 -43.03873 
L 225.766432 -43.163558 
L 227.740679 -43.30176 
L 229.714927 -43.450296 
L 231.689174 -43.606124 
L 233.663422 -43.766203 
L 235.637669 -43.927492 
L 237.611917 -44.086948 
L 239.586164 -44.241531 
L 241.560412 -44.388199 
L 243.534659 -44.523911 
L 245.508907 -44.645625 
L 247.483154 -44.7503 
L 249.457402 -44.834894 
L 251.431649 -44.897903 
L 253.405897 -44.960991 
L 255.380144 -45.031028 
L 257.354392 -45.106659 
L 259.328639 -45.186526 
L 261.302887 -45.269276 
L 263.277134 -45.353551 
L 265.251382 -45.437996 
L 267.225629 -45.521256 
L 269.199877 -45.601975 
L 271.174124 -45.678797 
L 273.148372 -45.750366 
L 275.122619 -45.815327 
L 277.096867 -45.872324 
L 279.071114 -45.92 
L 281.045362 -45.956339 
L 283.019609 -45.973455 
L 284.993857 -45.971812 
L 286.968104 -45.954471 
L 288.942352 -45.924495 
L 290.916599 -45.884944 
L 292.890847 -45.838879 
L 294.865094 -45.789362 
L 296.839342 -45.739454 
L 298.813589 -45.692215 
L 300.787837 -45.650708 
L 302.762084 -45.617994 
L 304.736332 -45.597133 
L 306.710579 -45.591187 
L 308.684827 -45.603217 
L 310.659074 -45.637286 
L 312.633321 -45.703739 
L 314.607569 -45.802207 
L 316.581816 -45.929702 
L 318.556064 -46.083239 
L 320.530311 -46.259832 
L 322.504559 -46.456495 
L 324.478806 -46.670242 
L 326.453054 -46.898086 
L 328.427301 -47.137043 
L 330.401549 -47.384125 
L 332.375796 -47.636347 
L 334.350044 -47.890722 
L 336.324291 -48.144265 
L 338.298539 -48.39399 
L 340.272786 -48.639523 
L 342.247034 -48.897769 
L 344.221281 -49.171271 
L 346.195529 -49.458753 
L 348.169776 -49.758942 
L 350.144024 -50.070563 
L 352.118271 -50.392343 
L 354.092519 -50.723006 
L 356.066766 -51.06128 
L 358.041014 -51.405888 
L 360.015261 -51.755558 
L 361.989509 -52.109015 
L 363.963756 -52.464984 
L 365.938004 -52.822192 
L 367.912251 -53.179363 
L 369.886499 -53.541491 
L 371.860746 -53.942331 
L 373.834994 -54.380307 
L 375.809241 -54.847295 
L 377.783489 -55.335168 
L 379.757736 -55.835801 
L 381.731984 -56.341066 
L 383.706231 -56.842839 
L 385.680479 -57.332993 
L 387.654726 -57.803402 
L 389.628974 -58.245941 
L 391.603221 -58.652482 
L 393.577469 -59.014901 
L 395.551716 -59.325071 
L 397.525964 -59.574866 
L 399.500211 -59.76309 
L 401.474459 -59.920833 
L 403.448706 -60.056602 
L 405.422954 -60.174685 
L 407.397201 -60.27937 
L 409.371449 -60.374945 
L 411.345696 -60.465696 
L 413.319944 -60.555913 
L 415.294191 -60.649882 
L 417.268439 -60.751892 
L 419.242686 -60.866229 
L 421.216934 -60.997182 
L 423.191181 -61.149039 
L 425.165429 -61.326087 
L 427.139676 -61.532614 
L 429.113923 -61.859103 
L 431.088171 -62.631227 
L 433.062418 -63.816363 
L 435.036666 -65.341518 
L 437.010913 -67.133699 
L 438.985161 -69.119912 
L 440.959408 -71.227165 
L 442.933656 -73.382464 
L 444.907903 -75.512817 
L 446.882151 -77.54523 
L 448.856398 -79.40671 
L 450.830646 -81.024264 
L 452.804893 -82.3249 
L 454.779141 -83.235624 
L 456.753388 -83.683442 
L 458.727636 -83.680822 
L 460.701883 -83.492231 
L 462.676131 -83.162634 
L 464.650378 -82.714158 
L 466.624626 -82.168929 
L 468.598873 -81.549075 
L 470.573121 -80.876723 
L 472.547368 -80.174 
L 474.521616 -79.463033 
L 476.495863 -78.76595 
L 478.470111 -78.104877 
L 480.444358 -77.501942 
L 482.418606 -76.979272 
L 484.392853 -76.558994 
L 486.367101 -76.263236 
L 488.341348 -76.0753 
L 490.315596 -75.895231 
L 492.289843 -75.718445 
L 494.264091 -75.547191 
L 496.238338 -75.383715 
L 498.212586 -75.230269 
L 500.186833 -75.089099 
L 502.161081 -74.962454 
L 504.135328 -74.852583 
L 506.109576 -74.761734 
L 508.083823 -74.692156 
L 510.058071 -74.646098 
L 512.032318 -74.625807 
L 514.006566 -74.633533 
L 515.980813 -74.671524 
L 517.955061 -74.801645 
L 519.929308 -75.154368 
L 521.903556 -75.704626 
L 523.877803 -76.420369 
L 525.852051 -77.269547 
L 527.826298 -78.220112 
L 529.800546 -79.240014 
L 531.774793 -80.297204 
L 533.749041 -81.359631 
L 535.723288 -82.395248 
L 537.697536 -83.372005 
L 539.671783 -84.257851 
L 541.646031 -85.020739 
L 543.620278 -85.628618 
L 545.594526 -86.049439 
L 547.568773 -86.312549 
L 549.54302 -86.533041 
L 551.517268 -86.720443 
L 553.491515 -86.8807 
L 555.465763 -87.019753 
L 557.44001 -87.143548 
L 559.414258 -87.258026 
L 561.388505 -87.369133 
L 563.362753 -87.482811 
L 565.337 -87.605005 
L 567.311248 -87.741657 
L 569.285495 -87.898711 
L 571.259743 -88.082111 
L 573.23399 -88.2978 
L 575.208238 -88.551721 
L 577.182485 -88.925611 
L 579.156733 -89.534037 
L 581.13098 -90.345086 
L 583.105228 -91.324335 
L 585.079475 -92.437358 
L 587.053723 -93.649733 
L 589.02797 -94.927034 
L 591.002218 -96.234837 
L 592.976465 -97.538718 
L 594.950713 -98.804253 
L 596.92496 -99.997017 
L 598.899208 -101.082587 
L 600.873455 -102.026537 
L 602.847703 -102.794443 
L 604.82195 -103.351882 
L 606.796198 -103.744595 
L 608.770445 -104.080583 
L 610.744693 -104.368955 
L 612.71894 -104.617904 
L 614.693188 -104.835619 
L 616.667435 -105.030291 
L 618.641683 -105.210112 
L 620.61593 -105.383273 
L 622.590178 -105.557965 
L 624.564425 -105.742378 
L 626.538673 -105.944703 
L 628.51292 -106.173133 
L 630.487168 -106.435857 
L 632.461415 -106.741067 
L 634.435663 -107.096953 
L 636.40991 -107.510711 
L 638.384158 -107.982348 
L 640.358405 -108.509051 
L 642.332653 -109.088003 
L 644.3069 -109.716389 
L 646.281148 -110.391392 
L 648.255395 -111.110197 
L 650.229643 -111.869988 
L 652.20389 -112.667948 
L 654.178138 -113.501263 
L 656.152385 -114.367116 
L 658.126633 -115.262691 
L 660.10088 -116.185172 
L 662.075128 -117.131744 
L 664.049375 -118.099591 
L 664.049375 -118.433668 
L 664.049375 -118.433668 
L 662.075128 -117.491337 
L 660.10088 -116.569992 
L 658.126633 -115.672229 
L 656.152385 -114.800644 
L 654.178138 -113.957833 
L 652.20389 -113.146393 
L 650.229643 -112.36892 
L 648.255395 -111.628009 
L 646.281148 -110.926257 
L 644.3069 -110.266261 
L 642.332653 -109.650616 
L 640.358405 -109.081918 
L 638.384158 -108.562764 
L 636.40991 -108.09575 
L 634.435663 -107.683473 
L 632.461415 -107.327547 
L 630.487168 -107.022226 
L 628.51292 -106.759319 
L 626.538673 -106.530637 
L 624.564425 -106.327989 
L 622.590178 -106.143184 
L 620.61593 -105.968033 
L 618.641683 -105.794345 
L 616.667435 -105.613929 
L 614.693188 -105.418597 
L 612.71894 -105.200157 
L 610.744693 -104.950419 
L 608.770445 -104.661193 
L 606.796198 -104.324289 
L 604.82195 -103.930571 
L 602.847703 -103.369011 
L 600.873455 -102.592228 
L 598.899208 -101.635251 
L 596.92496 -100.533107 
L 594.950713 -99.320824 
L 592.976465 -98.03343 
L 591.002218 -96.705953 
L 589.02797 -95.37342 
L 587.053723 -94.070859 
L 585.079475 -92.833299 
L 583.105228 -91.695767 
L 581.13098 -90.693291 
L 579.156733 -89.860899 
L 577.182485 -89.233619 
L 575.208238 -88.843924 
L 573.23399 -88.575367 
L 571.259743 -88.345015 
L 569.285495 -88.147026 
L 567.311248 -87.975561 
L 565.337 -87.824782 
L 563.362753 -87.68885 
L 561.388505 -87.561923 
L 559.414258 -87.438165 
L 557.44001 -87.311735 
L 555.465763 -87.176793 
L 553.491515 -87.027502 
L 551.517268 -86.85802 
L 549.54302 -86.66251 
L 547.568773 -86.435132 
L 545.594526 -86.166435 
L 543.620278 -85.740517 
L 541.646031 -85.127644 
L 539.671783 -84.359904 
L 537.697536 -83.469384 
L 535.723288 -82.488172 
L 533.749041 -81.448357 
L 531.774793 -80.382025 
L 529.800546 -79.321265 
L 527.826298 -78.298166 
L 525.852051 -77.344814 
L 523.877803 -76.493297 
L 521.903556 -75.775704 
L 519.929308 -75.224123 
L 517.955061 -74.870641 
L 515.980813 -74.74039 
L 514.006566 -74.703435 
L 512.032318 -74.697993 
L 510.058071 -74.721651 
L 508.083823 -74.771995 
L 506.109576 -74.846613 
L 504.135328 -74.943092 
L 502.161081 -75.059019 
L 500.186833 -75.191982 
L 498.212586 -75.339568 
L 496.238338 -75.499364 
L 494.264091 -75.668958 
L 492.289843 -75.845935 
L 490.315596 -76.027885 
L 488.341348 -76.212393 
L 486.367101 -76.403933 
L 484.392853 -76.703152 
L 482.418606 -77.126971 
L 480.444358 -77.653214 
L 478.470111 -78.259704 
L 476.495863 -78.924264 
L 474.521616 -79.624718 
L 472.547368 -80.338889 
L 470.573121 -81.0446 
L 468.598873 -81.719674 
L 466.624626 -82.341935 
L 464.650378 -82.889206 
L 462.676131 -83.33931 
L 460.701883 -83.670071 
L 458.727636 -83.859311 
L 456.753388 -83.861879 
L 454.779141 -83.41173 
L 452.804893 -82.496277 
L 450.830646 -81.188906 
L 448.856398 -79.563001 
L 446.882151 -77.691946 
L 444.907903 -75.649126 
L 442.933656 -73.507926 
L 440.959408 -71.341731 
L 438.985161 -69.223925 
L 437.010913 -67.227892 
L 435.036666 -65.427018 
L 433.062418 -63.894687 
L 431.088171 -62.704284 
L 429.113923 -61.929193 
L 427.139676 -61.602254 
L 425.165429 -61.396397 
L 423.191181 -61.220672 
L 421.216934 -61.070693 
L 419.242686 -60.942073 
L 417.268439 -60.830423 
L 415.294191 -60.731357 
L 413.319944 -60.640488 
L 411.345696 -60.553427 
L 409.371449 -60.465789 
L 407.397201 -60.373185 
L 405.422954 -60.271229 
L 403.448706 -60.155532 
L 401.474459 -60.021709 
L 399.500211 -59.86537 
L 397.525964 -59.67798 
L 395.551716 -59.428897 
L 393.577469 -59.119414 
L 391.603221 -58.757653 
L 389.628974 -58.351735 
L 387.654726 -57.909783 
L 385.680479 -57.43992 
L 383.706231 -56.950266 
L 381.731984 -56.448945 
L 379.757736 -55.944078 
L 377.783489 -55.443788 
L 375.809241 -54.956196 
L 373.834994 -54.489425 
L 371.860746 -54.051597 
L 369.886499 -53.650834 
L 367.912251 -53.288714 
L 365.938004 -52.931531 
L 363.963756 -52.574301 
L 361.989509 -52.218298 
L 360.015261 -51.864798 
L 358.041014 -51.515073 
L 356.066766 -51.1704 
L 354.092519 -50.832052 
L 352.118271 -50.501303 
L 350.144024 -50.179429 
L 348.169776 -49.867703 
L 346.195529 -49.5674 
L 344.221281 -49.279795 
L 342.247034 -49.006162 
L 340.272786 -48.747776 
L 338.298539 -48.502003 
L 336.324291 -48.251528 
L 334.350044 -47.996747 
L 332.375796 -47.740728 
L 330.401549 -47.486542 
L 328.427301 -47.237259 
L 326.453054 -46.99595 
L 324.478806 -46.765685 
L 322.504559 -46.549534 
L 320.530311 -46.350568 
L 318.556064 -46.171856 
L 316.581816 -46.016468 
L 314.607569 -45.887476 
L 312.633321 -45.787949 
L 310.659074 -45.720958 
L 308.684827 -45.68706 
L 306.710579 -45.676311 
L 304.736332 -45.68453 
L 302.762084 -45.708488 
L 300.787837 -45.744954 
L 298.813589 -45.790699 
L 296.839342 -45.842492 
L 294.865094 -45.897103 
L 292.890847 -45.951302 
L 290.916599 -46.001858 
L 288.942352 -46.045541 
L 286.968104 -46.079121 
L 284.993857 -46.099369 
L 283.019609 -46.103052 
L 281.045362 -46.086943 
L 279.071114 -46.050091 
L 277.096867 -45.99938 
L 275.122619 -45.93711 
L 273.148372 -45.865021 
L 271.174124 -45.784854 
L 269.199877 -45.698349 
L 267.225629 -45.607244 
L 265.251382 -45.513282 
L 263.277134 -45.418201 
L 261.302887 -45.323742 
L 259.328639 -45.231645 
L 257.354392 -45.143651 
L 255.380144 -45.061498 
L 253.405897 -44.986927 
L 251.431649 -44.921679 
L 249.457402 -44.858954 
L 247.483154 -44.776262 
L 245.508907 -44.674831 
L 243.534659 -44.557476 
L 241.560412 -44.427012 
L 239.586164 -44.286251 
L 237.611917 -44.138009 
L 235.637669 -43.985098 
L 233.663422 -43.830334 
L 231.689174 -43.67653 
L 229.714927 -43.5265 
L 227.740679 -43.383059 
L 225.766432 -43.24902 
L 223.792184 -43.127196 
L 221.817937 -43.020404 
L 219.843689 -42.925924 
L 217.869442 -42.831957 
L 215.895194 -42.738582 
L 213.920947 -42.646472 
L 211.946699 -42.556299 
L 209.972452 -42.468736 
L 207.998204 -42.384454 
L 206.023957 -42.304125 
L 204.049709 -42.228424 
L 202.075462 -42.15802 
L 200.101214 -42.093587 
L 198.126967 -42.035797 
L 196.152719 -41.985322 
L 194.178472 -41.942835 
L 192.204224 -41.909007 
L 190.229977 -41.881856 
L 188.25573 -41.856159 
L 186.281482 -41.831649 
L 184.307235 -41.808221 
L 182.332987 -41.785768 
L 180.35874 -41.764185 
L 178.384492 -41.743367 
L 176.410245 -41.723208 
L 174.435997 -41.703602 
L 172.46175 -41.684443 
L 170.487502 -41.665626 
L 168.513255 -41.647045 
L 166.539007 -41.628594 
L 164.56476 -41.610168 
L 162.590512 -41.591662 
L 160.616265 -41.569931 
L 158.642017 -41.540346 
L 156.66777 -41.504026 
L 154.693522 -41.462187 
L 152.719275 -41.416046 
L 150.745027 -41.366821 
L 148.77078 -41.315727 
L 146.796532 -41.263983 
L 144.822285 -41.212804 
L 142.848037 -41.163409 
L 140.87379 -41.117014 
L 138.899542 -41.074835 
L 136.925295 -41.03809 
L 134.951047 -41.007997 
L 132.9768 -40.985771 
L 131.002552 -40.969523 
L 129.028305 -40.954988 
L 127.054057 -40.941751 
L 125.07981 -40.929436 
L 123.105562 -40.917666 
L 121.131315 -40.906063 
L 119.157067 -40.894251 
L 117.18282 -40.881852 
L 115.208572 -40.868489 
L 113.234325 -40.853786 
L 111.260077 -40.837364 
L 109.28583 -40.818848 
L 107.311582 -40.797859 
L 105.337335 -40.774021 
L 103.363087 -40.746956 
L 101.38884 -40.715483 
L 99.414592 -40.678651 
L 97.440345 -40.636716 
L 95.466097 -40.589936 
L 93.49185 -40.538569 
L 91.517602 -40.482875 
L 89.543355 -40.423111 
L 87.569107 -40.359536 
L 85.59486 -40.292409 
L 83.620612 -40.221988 
L 81.646365 -40.148532 
L 79.672117 -40.072298 
L 77.69787 -39.993546 
L 75.723622 -39.912534 
L 73.749375 -39.82952 
z
" style="stroke: #2ca02c; stroke-opacity: 0.7"/>
    </defs>
    <g clip-path="url(#p193872f9ed)">
     <use xlink:href="#m03d07ce7d1" x="0" y="424.005" style="fill: #2ca02c; fill-opacity: 0.7; stroke: #2ca02c; stroke-opacity: 0.7"/>
    </g>
   </g>
   <g id="FillBetweenPolyCollection_4">
    <defs>
     <path id="m059e80108e" d="M 73.749375 -39.86436 
L 73.749375 -39.82952 
L 75.723622 -39.912534 
L 77.69787 -39.993546 
L 79.672117 -40.072298 
L 81.646365 -40.148532 
L 83.620612 -40.221988 
L 85.59486 -40.292409 
L 87.569107 -40.359536 
L 89.543355 -40.423111 
L 91.517602 -40.482875 
L 93.49185 -40.538569 
L 95.466097 -40.589936 
L 97.440345 -40.636716 
L 99.414592 -40.678651 
L 101.38884 -40.715483 
L 103.363087 -40.746956 
L 105.337335 -40.774021 
L 107.311582 -40.797859 
L 109.28583 -40.818848 
L 111.260077 -40.837364 
L 113.234325 -40.853786 
L 115.208572 -40.868489 
L 117.18282 -40.881852 
L 119.157067 -40.894251 
L 121.131315 -40.906063 
L 123.105562 -40.917666 
L 125.07981 -40.929436 
L 127.054057 -40.941751 
L 129.028305 -40.954988 
L 131.002552 -40.969523 
L 132.9768 -40.985771 
L 134.951047 -41.007997 
L 136.925295 -41.03809 
L 138.899542 -41.074835 
L 140.87379 -41.117014 
L 142.848037 -41.163409 
L 144.822285 -41.212804 
L 146.796532 -41.263983 
L 148.77078 -41.315727 
L 150.745027 -41.366821 
L 152.719275 -41.416046 
L 154.693522 -41.462187 
L 156.66777 -41.504026 
L 158.642017 -41.540346 
L 160.616265 -41.569931 
L 162.590512 -41.591662 
L 164.56476 -41.610168 
L 166.539007 -41.628594 
L 168.513255 -41.647045 
L 170.487502 -41.665626 
L 172.46175 -41.684443 
L 174.435997 -41.703602 
L 176.410245 -41.723208 
L 178.384492 -41.743367 
L 180.35874 -41.764185 
L 182.332987 -41.785768 
L 184.307235 -41.808221 
L 186.281482 -41.831649 
L 188.25573 -41.856159 
L 190.229977 -41.881856 
L 192.204224 -41.909007 
L 194.178472 -41.942835 
L 196.152719 -41.985322 
L 198.126967 -42.035797 
L 200.101214 -42.093587 
L 202.075462 -42.15802 
L 204.049709 -42.228424 
L 206.023957 -42.304125 
L 207.998204 -42.384454 
L 209.972452 -42.468736 
L 211.946699 -42.556299 
L 213.920947 -42.646472 
L 215.895194 -42.738582 
L 217.869442 -42.831957 
L 219.843689 -42.925924 
L 221.817937 -43.020404 
L 223.792184 -43.127196 
L 225.766432 -43.24902 
L 227.740679 -43.383059 
L 229.714927 -43.5265 
L 231.689174 -43.67653 
L 233.663422 -43.830334 
L 235.637669 -43.985098 
L 237.611917 -44.138009 
L 239.586164 -44.286251 
L 241.560412 -44.427012 
L 243.534659 -44.557476 
L 245.508907 -44.674831 
L 247.483154 -44.776262 
L 249.457402 -44.858954 
L 251.431649 -44.921679 
L 253.405897 -44.986927 
L 255.380144 -45.061498 
L 257.354392 -45.143651 
L 259.328639 -45.231645 
L 261.302887 -45.323742 
L 263.277134 -45.418201 
L 265.251382 -45.513282 
L 267.225629 -45.607244 
L 269.199877 -45.698349 
L 271.174124 -45.784854 
L 273.148372 -45.865021 
L 275.122619 -45.93711 
L 277.096867 -45.99938 
L 279.071114 -46.050091 
L 281.045362 -46.086943 
L 283.019609 -46.103052 
L 284.993857 -46.099369 
L 286.968104 -46.079121 
L 288.942352 -46.045541 
L 290.916599 -46.001858 
L 292.890847 -45.951302 
L 294.865094 -45.897103 
L 296.839342 -45.842492 
L 298.813589 -45.790699 
L 300.787837 -45.744954 
L 302.762084 -45.708488 
L 304.736332 -45.68453 
L 306.710579 -45.676311 
L 308.684827 -45.68706 
L 310.659074 -45.720958 
L 312.633321 -45.787949 
L 314.607569 -45.887476 
L 316.581816 -46.016468 
L 318.556064 -46.171856 
L 320.530311 -46.350568 
L 322.504559 -46.549534 
L 324.478806 -46.765685 
L 326.453054 -46.99595 
L 328.427301 -47.237259 
L 330.401549 -47.486542 
L 332.375796 -47.740728 
L 334.350044 -47.996747 
L 336.324291 -48.251528 
L 338.298539 -48.502003 
L 340.272786 -48.747776 
L 342.247034 -49.006162 
L 344.221281 -49.279795 
L 346.195529 -49.5674 
L 348.169776 -49.867703 
L 350.144024 -50.179429 
L 352.118271 -50.501303 
L 354.092519 -50.832052 
L 356.066766 -51.1704 
L 358.041014 -51.515073 
L 360.015261 -51.864798 
L 361.989509 -52.218298 
L 363.963756 -52.574301 
L 365.938004 -52.931531 
L 367.912251 -53.288714 
L 369.886499 -53.650834 
L 371.860746 -54.051597 
L 373.834994 -54.489425 
L 375.809241 -54.956196 
L 377.783489 -55.443788 
L 379.757736 -55.944078 
L 381.731984 -56.448945 
L 383.706231 -56.950266 
L 385.680479 -57.43992 
L 387.654726 -57.909783 
L 389.628974 -58.351735 
L 391.603221 -58.757653 
L 393.577469 -59.119414 
L 395.551716 -59.428897 
L 397.525964 -59.67798 
L 399.500211 -59.86537 
L 401.474459 -60.021709 
L 403.448706 -60.155532 
L 405.422954 -60.271229 
L 407.397201 -60.373185 
L 409.371449 -60.465789 
L 411.345696 -60.553427 
L 413.319944 -60.640488 
L 415.294191 -60.731357 
L 417.268439 -60.830423 
L 419.242686 -60.942073 
L 421.216934 -61.070693 
L 423.191181 -61.220672 
L 425.165429 -61.396397 
L 427.139676 -61.602254 
L 429.113923 -61.929193 
L 431.088171 -62.704284 
L 433.062418 -63.894687 
L 435.036666 -65.427018 
L 437.010913 -67.227892 
L 438.985161 -69.223925 
L 440.959408 -71.341731 
L 442.933656 -73.507926 
L 444.907903 -75.649126 
L 446.882151 -77.691946 
L 448.856398 -79.563001 
L 450.830646 -81.188906 
L 452.804893 -82.496277 
L 454.779141 -83.41173 
L 456.753388 -83.861879 
L 458.727636 -83.859311 
L 460.701883 -83.670071 
L 462.676131 -83.33931 
L 464.650378 -82.889206 
L 466.624626 -82.341935 
L 468.598873 -81.719674 
L 470.573121 -81.0446 
L 472.547368 -80.338889 
L 474.521616 -79.624718 
L 476.495863 -78.924264 
L 478.470111 -78.259704 
L 480.444358 -77.653214 
L 482.418606 -77.126971 
L 484.392853 -76.703152 
L 486.367101 -76.403933 
L 488.341348 -76.212393 
L 490.315596 -76.027885 
L 492.289843 -75.845935 
L 494.264091 -75.668958 
L 496.238338 -75.499364 
L 498.212586 -75.339568 
L 500.186833 -75.191982 
L 502.161081 -75.059019 
L 504.135328 -74.943092 
L 506.109576 -74.846613 
L 508.083823 -74.771995 
L 510.058071 -74.721651 
L 512.032318 -74.697993 
L 514.006566 -74.703435 
L 515.980813 -74.74039 
L 517.955061 -74.870641 
L 519.929308 -75.224123 
L 521.903556 -75.775704 
L 523.877803 -76.493297 
L 525.852051 -77.344814 
L 527.826298 -78.298166 
L 529.800546 -79.321265 
L 531.774793 -80.382025 
L 533.749041 -81.448357 
L 535.723288 -82.488172 
L 537.697536 -83.469384 
L 539.671783 -84.359904 
L 541.646031 -85.127644 
L 543.620278 -85.740517 
L 545.594526 -86.166435 
L 547.568773 -86.435132 
L 549.54302 -86.66251 
L 551.517268 -86.85802 
L 553.491515 -87.027502 
L 555.465763 -87.176793 
L 557.44001 -87.311735 
L 559.414258 -87.438165 
L 561.388505 -87.561923 
L 563.362753 -87.68885 
L 565.337 -87.824782 
L 567.311248 -87.975561 
L 569.285495 -88.147026 
L 571.259743 -88.345015 
L 573.23399 -88.575367 
L 575.208238 -88.843924 
L 577.182485 -89.233619 
L 579.156733 -89.860899 
L 581.13098 -90.693291 
L 583.105228 -91.695767 
L 585.079475 -92.833299 
L 587.053723 -94.070859 
L 589.02797 -95.37342 
L 591.002218 -96.705953 
L 592.976465 -98.03343 
L 594.950713 -99.320824 
L 596.92496 -100.533107 
L 598.899208 -101.635251 
L 600.873455 -102.592228 
L 602.847703 -103.369011 
L 604.82195 -103.930571 
L 606.796198 -104.324289 
L 608.770445 -104.661193 
L 610.744693 -104.950419 
L 612.71894 -105.200157 
L 614.693188 -105.418597 
L 616.667435 -105.613929 
L 618.641683 -105.794345 
L 620.61593 -105.968033 
L 622.590178 -106.143184 
L 624.564425 -106.327989 
L 626.538673 -106.530637 
L 628.51292 -106.759319 
L 630.487168 -107.022226 
L 632.461415 -107.327547 
L 634.435663 -107.683473 
L 636.40991 -108.09575 
L 638.384158 -108.562764 
L 640.358405 -109.081918 
L 642.332653 -109.650616 
L 644.3069 -110.266261 
L 646.281148 -110.926257 
L 648.255395 -111.628009 
L 650.229643 -112.36892 
L 652.20389 -113.146393 
L 654.178138 -113.957833 
L 656.152385 -114.800644 
L 658.126633 -115.672229 
L 660.10088 -116.569992 
L 662.075128 -117.491337 
L 664.049375 -118.433668 
L 664.049375 -135.07073 
L 664.049375 -135.07073 
L 662.075128 -134.219434 
L 660.10088 -133.387652 
L 658.126633 -132.577426 
L 656.152385 -131.7908 
L 654.178138 -131.029816 
L 652.20389 -130.296519 
L 650.229643 -129.592952 
L 648.255395 -128.921157 
L 646.281148 -128.283179 
L 644.3069 -127.681061 
L 642.332653 -127.116845 
L 640.358405 -126.592576 
L 638.384158 -126.110297 
L 636.40991 -125.672052 
L 634.435663 -125.279895 
L 632.461415 -124.939675 
L 630.487168 -124.649383 
L 628.51292 -124.400765 
L 626.538673 -124.185571 
L 624.564425 -123.995548 
L 622.590178 -123.822445 
L 620.61593 -123.658009 
L 618.641683 -123.493989 
L 616.667435 -123.322132 
L 614.693188 -123.134186 
L 612.71894 -122.921901 
L 610.744693 -122.677023 
L 608.770445 -122.391301 
L 606.796198 -122.056482 
L 604.82195 -121.663119 
L 602.847703 -121.071571 
L 600.873455 -120.219061 
L 598.899208 -119.146421 
L 596.92496 -117.894482 
L 594.950713 -116.504075 
L 592.976465 -115.016033 
L 591.002218 -113.471186 
L 589.02797 -111.910366 
L 587.053723 -110.374406 
L 585.079475 -108.904135 
L 583.105228 -107.540387 
L 581.13098 -106.323992 
L 579.156733 -105.295782 
L 577.182485 -104.496589 
L 575.208238 -103.964427 
L 573.23399 -103.572329 
L 571.259743 -103.228165 
L 569.285495 -102.924459 
L 567.311248 -102.653737 
L 565.337 -102.408521 
L 563.362753 -102.181335 
L 561.388505 -101.964705 
L 559.414258 -101.751153 
L 557.44001 -101.533205 
L 555.465763 -101.303384 
L 553.491515 -101.054214 
L 551.517268 -100.778219 
L 549.54302 -100.467924 
L 547.568773 -100.115852 
L 545.594526 -99.710309 
L 543.620278 -99.115744 
L 541.646031 -98.298685 
L 539.671783 -97.29812 
L 537.697536 -96.153038 
L 535.723288 -94.902426 
L 533.749041 -93.585273 
L 531.774793 -92.240567 
L 529.800546 -90.907297 
L 527.826298 -89.62445 
L 525.852051 -88.431015 
L 523.877803 -87.36598 
L 521.903556 -86.468333 
L 519.929308 -85.777062 
L 517.955061 -85.331156 
L 515.980813 -85.160895 
L 514.006566 -85.102795 
L 512.032318 -85.07952 
L 510.058071 -85.088172 
L 508.083823 -85.125853 
L 506.109576 -85.189668 
L 504.135328 -85.276719 
L 502.161081 -85.384108 
L 500.186833 -85.50894 
L 498.212586 -85.648317 
L 496.238338 -85.799341 
L 494.264091 -85.959117 
L 492.289843 -86.124746 
L 490.315596 -86.293332 
L 488.341348 -86.461978 
L 486.367101 -86.634728 
L 484.392853 -86.91271 
L 482.418606 -87.312945 
L 480.444358 -87.813078 
L 478.470111 -88.390751 
L 476.495863 -89.02361 
L 474.521616 -89.689297 
L 472.547368 -90.365457 
L 470.573121 -91.029734 
L 468.598873 -91.659772 
L 466.624626 -92.233214 
L 464.650378 -92.727704 
L 462.676131 -93.120887 
L 460.701883 -93.390405 
L 458.727636 -93.513904 
L 456.753388 -93.441855 
L 454.779141 -92.86147 
L 452.804893 -91.755542 
L 450.830646 -90.208066 
L 448.856398 -88.303039 
L 446.882151 -86.124458 
L 444.907903 -83.75632 
L 442.933656 -81.282621 
L 440.959408 -78.787358 
L 438.985161 -76.354528 
L 437.010913 -74.068126 
L 435.036666 -72.012151 
L 433.062418 -70.270597 
L 431.088171 -68.927463 
L 429.113923 -68.066744 
L 427.139676 -67.726961 
L 425.165429 -67.541522 
L 423.191181 -67.405963 
L 421.216934 -67.312648 
L 419.242686 -67.253938 
L 417.268439 -67.222195 
L 415.294191 -67.209782 
L 413.319944 -67.209059 
L 411.345696 -67.21239 
L 409.371449 -67.212135 
L 407.397201 -67.200657 
L 405.422954 -67.170318 
L 403.448706 -67.113479 
L 401.474459 -67.022504 
L 399.500211 -66.889752 
L 397.525964 -66.698458 
L 395.551716 -66.382642 
L 393.577469 -65.945584 
L 391.603221 -65.405503 
L 389.628974 -64.78062 
L 387.654726 -64.089156 
L 385.680479 -63.349331 
L 383.706231 -62.579365 
L 381.731984 -61.797479 
L 379.757736 -61.021893 
L 377.783489 -60.270828 
L 375.809241 -59.562504 
L 373.834994 -58.915141 
L 371.860746 -58.346961 
L 369.886499 -57.876182 
L 367.912251 -57.506356 
L 365.938004 -57.1607 
L 363.963756 -56.82493 
L 361.989509 -56.498658 
L 360.015261 -56.181497 
L 358.041014 -55.873058 
L 356.066766 -55.572954 
L 354.092519 -55.280795 
L 352.118271 -54.996195 
L 350.144024 -54.718765 
L 348.169776 -54.448116 
L 346.195529 -54.183862 
L 344.221281 -53.925614 
L 342.247034 -53.672984 
L 340.272786 -53.425584 
L 338.298539 -53.17942 
L 336.324291 -52.918085 
L 334.350044 -52.643106 
L 332.375796 -52.358576 
L 330.401549 -52.068585 
L 328.427301 -51.777228 
L 326.453054 -51.488595 
L 324.478806 -51.20678 
L 322.504559 -50.935874 
L 320.530311 -50.67997 
L 318.556064 -50.44316 
L 316.581816 -50.229535 
L 314.607569 -50.04319 
L 312.633321 -49.888214 
L 310.659074 -49.768702 
L 308.684827 -49.684768 
L 306.710579 -49.621266 
L 304.736332 -49.573928 
L 302.762084 -49.540074 
L 300.787837 -49.517021 
L 298.813589 -49.50209 
L 296.839342 -49.492598 
L 294.865094 -49.485865 
L 292.890847 -49.47921 
L 290.916599 -49.469951 
L 288.942352 -49.455407 
L 286.968104 -49.432898 
L 284.993857 -49.399742 
L 283.019609 -49.353257 
L 281.045362 -49.290764 
L 279.071114 -49.210403 
L 277.096867 -49.11465 
L 275.122619 -49.006085 
L 273.148372 -48.887155 
L 271.174124 -48.760306 
L 269.199877 -48.627983 
L 267.225629 -48.492633 
L 265.251382 -48.356703 
L 263.277134 -48.222638 
L 261.302887 -48.092884 
L 259.328639 -47.969888 
L 257.354392 -47.856097 
L 255.380144 -47.753955 
L 253.405897 -47.665909 
L 251.431649 -47.594406 
L 249.457402 -47.53341 
L 247.483154 -47.460395 
L 245.508907 -47.37545 
L 243.534659 -47.280211 
L 241.560412 -47.176313 
L 239.586164 -47.065391 
L 237.611917 -46.949079 
L 235.637669 -46.829014 
L 233.663422 -46.706829 
L 231.689174 -46.58416 
L 229.714927 -46.462642 
L 227.740679 -46.34391 
L 225.766432 -46.229599 
L 223.792184 -46.121344 
L 221.817937 -46.02078 
L 219.843689 -45.920378 
L 217.869442 -45.800235 
L 215.895194 -45.662644 
L 213.920947 -45.510932 
L 211.946699 -45.348427 
L 209.972452 -45.178458 
L 207.998204 -45.004352 
L 206.023957 -44.829437 
L 204.049709 -44.657041 
L 202.075462 -44.490493 
L 200.101214 -44.333119 
L 198.126967 -44.188249 
L 196.152719 -44.05921 
L 194.178472 -43.94933 
L 192.204224 -43.861937 
L 190.229977 -43.793271 
L 188.25573 -43.729929 
L 186.281482 -43.670912 
L 184.307235 -43.615638 
L 182.332987 -43.563524 
L 180.35874 -43.513989 
L 178.384492 -43.466449 
L 176.410245 -43.420323 
L 174.435997 -43.375029 
L 172.46175 -43.329983 
L 170.487502 -43.284605 
L 168.513255 -43.238311 
L 166.539007 -43.19052 
L 164.56476 -43.140649 
L 162.590512 -43.088116 
L 160.616265 -43.027695 
L 158.642017 -42.952568 
L 156.66777 -42.8652 
L 154.693522 -42.768215 
L 152.719275 -42.664236 
L 150.745027 -42.555885 
L 148.77078 -42.445786 
L 146.796532 -42.33656 
L 144.822285 -42.230833 
L 142.848037 -42.131225 
L 140.87379 -42.040361 
L 138.899542 -41.960862 
L 136.925295 -41.895353 
L 134.951047 -41.846456 
L 132.9768 -41.816793 
L 131.002552 -41.801079 
L 129.028305 -41.788485 
L 127.054057 -41.778337 
L 125.07981 -41.770052 
L 123.105562 -41.763046 
L 121.131315 -41.756738 
L 119.157067 -41.750544 
L 117.18282 -41.743882 
L 115.208572 -41.736168 
L 113.234325 -41.726821 
L 111.260077 -41.715256 
L 109.28583 -41.700893 
L 107.311582 -41.683147 
L 105.337335 -41.661436 
L 103.363087 -41.635178 
L 101.38884 -41.598755 
L 99.414592 -41.546467 
L 97.440345 -41.47927 
L 95.466097 -41.398139 
L 93.49185 -41.304046 
L 91.517602 -41.197965 
L 89.543355 -41.08087 
L 87.569107 -40.953732 
L 85.59486 -40.817527 
L 83.620612 -40.673226 
L 81.646365 -40.521803 
L 79.672117 -40.364232 
L 77.69787 -40.201486 
L 75.723622 -40.034537 
L 73.749375 -39.86436 
z
" style="stroke: #ff7f0e; stroke-opacity: 0.7"/>
    </defs>
    <g clip-path="url(#p193872f9ed)">
     <use xlink:href="#m059e80108e" x="0" y="424.005" style="fill: #ff7f0e; fill-opacity: 0.7; stroke: #ff7f0e; stroke-opacity: 0.7"/>
    </g>
   </g>
   <g id="patch_3">
    <path d="M 44.234375 384.28 
L 44.234375 7.2 
" style="fill: none; stroke: #808080; stroke-width: 0.5; stroke-linejoin: miter; stroke-linecap: square"/>
   </g>
   <g id="patch_4">
    <path d="M 44.234375 384.28 
L 693.564375 384.28 
" style="fill: none; stroke: #808080; stroke-width: 0.5; stroke-linejoin: miter; stroke-linecap: square"/>
   </g>
   <g id="legend_1">
    <g id="patch_5">
     <path d="M 53.234375 24.159375 
L 73.234375 24.159375 
L 73.234375 17.159375 
L 53.234375 17.159375 
z
" style="fill: #d62728; fill-opacity: 0.7; stroke: #d62728; stroke-opacity: 0.7; stroke-linejoin: miter"/>
    </g>
    <g id="text_14">
     <!-- Solo -->
     <g transform="translate(81.234375 24.159375) scale(0.1 -0.1)">
      <defs>
       <path id="NotoSansCJKjp-Regular-53" d="M 1946 -83 
C 2925 -83 3539 506 3539 1248 
C 3539 1946 3117 2266 2573 2502 
L 1901 2790 
C 1536 2944 1126 3117 1126 3571 
C 1126 3994 1472 4262 2003 4262 
C 2438 4262 2784 4090 3072 3821 
L 3386 4198 
C 3053 4544 2560 4781 2003 4781 
C 1152 4781 525 4256 525 3533 
C 525 2848 1043 2515 1478 2330 
L 2157 2035 
C 2598 1837 2938 1683 2938 1203 
C 2938 742 2566 435 1952 435 
C 1466 435 992 666 659 1018 
L 301 614 
C 710 186 1280 -83 1946 -83 
z
" transform="scale(0.015625)"/>
       <path id="NotoSansCJKjp-Regular-6c" d="M 1203 -83 
C 1363 -83 1459 -64 1542 -32 
L 1459 416 
C 1395 403 1370 403 1338 403 
C 1248 403 1171 474 1171 653 
L 1171 5094 
L 589 5094 
L 589 691 
C 589 198 768 -83 1203 -83 
z
" transform="scale(0.015625)"/>
      </defs>
      <use xlink:href="#NotoSansCJKjp-Regular-53"/>
      <use xlink:href="#NotoSansCJKjp-Regular-6f" transform="translate(59.699997 0)"/>
      <use xlink:href="#NotoSansCJKjp-Regular-6c" transform="translate(120.299988 0)"/>
      <use xlink:href="#NotoSansCJKjp-Regular-6f" transform="translate(148.799973 0)"/>
     </g>
    </g>
    <g id="patch_6">
     <path d="M 53.234375 39.409375 
L 73.234375 39.409375 
L 73.234375 32.409375 
L 53.234375 32.409375 
z
" style="fill: #1f77b4; fill-opacity: 0.7; stroke: #1f77b4; stroke-opacity: 0.7; stroke-linejoin: miter"/>
    </g>
    <g id="text_15">
     <!-- Initial -->
     <g transform="translate(81.234375 39.409375) scale(0.1 -0.1)">
      <defs>
       <path id="NotoSansCJKjp-Regular-49" d="M 640 0 
L 1235 0 
L 1235 4698 
L 640 4698 
L 640 0 
z
" transform="scale(0.015625)"/>
      </defs>
      <use xlink:href="#NotoSansCJKjp-Regular-49"/>
      <use xlink:href="#NotoSansCJKjp-Regular-6e" transform="translate(29.299988 0)"/>
      <use xlink:href="#NotoSansCJKjp-Regular-69" transform="translate(90.399979 0)"/>
      <use xlink:href="#NotoSansCJKjp-Regular-74" transform="translate(117.899963 0)"/>
      <use xlink:href="#NotoSansCJKjp-Regular-69" transform="translate(155.59996 0)"/>
      <use xlink:href="#NotoSansCJKjp-Regular-61" transform="translate(183.099945 0)"/>
      <use xlink:href="#NotoSansCJKjp-Regular-6c" transform="translate(239.499939 0)"/>
     </g>
    </g>
    <g id="patch_7">
     <path d="M 53.234375 54.659375 
L 73.234375 54.659375 
L 73.234375 47.659375 
L 53.234375 47.659375 
z
" style="fill: #2ca02c; fill-opacity: 0.7; stroke: #2ca02c; stroke-opacity: 0.7; stroke-linejoin: miter"/>
    </g>
    <g id="text_16">
     <!-- Middle -->
     <g transform="translate(81.234375 54.659375) scale(0.1 -0.1)">
      <defs>
       <path id="NotoSansCJKjp-Regular-4d" d="M 640 0 
L 1178 0 
L 1178 2598 
C 1178 3002 1133 3571 1107 3981 
L 1133 3981 
L 1504 2912 
L 2394 474 
L 2790 474 
L 3680 2912 
L 4051 3981 
L 4077 3981 
C 4045 3571 4000 3002 4000 2598 
L 4000 0 
L 4557 0 
L 4557 4698 
L 3840 4698 
L 2944 2182 
C 2835 1856 2733 1530 2624 1203 
L 2592 1203 
C 2477 1530 2368 1856 2259 2182 
L 1357 4698 
L 640 4698 
L 640 0 
z
" transform="scale(0.015625)"/>
       <path id="NotoSansCJKjp-Regular-64" d="M 1773 -83 
C 2189 -83 2554 141 2829 410 
L 2848 410 
L 2899 0 
L 3373 0 
L 3373 5094 
L 2797 5094 
L 2797 3757 
L 2822 3155 
C 2515 3411 2253 3565 1843 3565 
C 1050 3565 339 2861 339 1734 
C 339 576 902 -83 1773 -83 
z
M 1901 403 
C 1286 403 941 902 941 1741 
C 941 2534 1382 3072 1946 3072 
C 2234 3072 2496 2970 2797 2707 
L 2797 883 
C 2502 563 2221 403 1901 403 
z
" transform="scale(0.015625)"/>
      </defs>
      <use xlink:href="#NotoSansCJKjp-Regular-4d"/>
      <use xlink:href="#NotoSansCJKjp-Regular-69" transform="translate(81.199982 0)"/>
      <use xlink:href="#NotoSansCJKjp-Regular-64" transform="translate(108.699966 0)"/>
      <use xlink:href="#NotoSansCJKjp-Regular-64" transform="translate(170.699951 0)"/>
      <use xlink:href="#NotoSansCJKjp-Regular-6c" transform="translate(232.699936 0)"/>
      <use xlink:href="#NotoSansCJKjp-Regular-65" transform="translate(261.199921 0)"/>
     </g>
    </g>
    <g id="patch_8">
     <path d="M 53.234375 69.909375 
L 73.234375 69.909375 
L 73.234375 62.909375 
L 53.234375 62.909375 
z
" style="fill: #ff7f0e; fill-opacity: 0.7; stroke: #ff7f0e; stroke-opacity: 0.7; stroke-linejoin: miter"/>
    </g>
    <g id="text_17">
     <!-- End -->
     <g transform="translate(81.234375 69.909375) scale(0.1 -0.1)">
      <defs>
       <path id="NotoSansCJKjp-Regular-45" d="M 640 0 
L 3418 0 
L 3418 506 
L 1235 506 
L 1235 2214 
L 3014 2214 
L 3014 2720 
L 1235 2720 
L 1235 4192 
L 3347 4192 
L 3347 4698 
L 640 4698 
L 640 0 
z
" transform="scale(0.015625)"/>
      </defs>
      <use xlink:href="#NotoSansCJKjp-Regular-45"/>
      <use xlink:href="#NotoSansCJKjp-Regular-6e" transform="translate(58.799988 0)"/>
      <use xlink:href="#NotoSansCJKjp-Regular-64" transform="translate(119.899979 0)"/>
     </g>
    </g>
   </g>
  </g>
 </g>
 <defs>
  <clipPath id="p193872f9ed">
   <rect x="44.234375" y="7.2" width="649.33" height="377.08"/>
  </clipPath>
 </defs>
</svg>
