<?xml version="1.0" encoding="utf-8" standalone="no"?>
<!DOCTYPE svg PUBLIC "-//W3C//DTD SVG 1.1//EN"
  "http://www.w3.org/Graphics/SVG/1.1/DTD/svg11.dtd">
<svg xmlns:xlink="http://www.w3.org/1999/xlink" width="312.638951pt" height="216.150625pt" viewBox="0 0 312.638951 216.150625" xmlns="http://www.w3.org/2000/svg" version="1.1">
 <metadata>
  <rdf:RDF xmlns:dc="http://purl.org/dc/elements/1.1/" xmlns:cc="http://creativecommons.org/ns#" xmlns:rdf="http://www.w3.org/1999/02/22-rdf-syntax-ns#">
   <cc:Work>
    <dc:type rdf:resource="http://purl.org/dc/dcmitype/StillImage"/>
    <dc:date>2026-04-28T10:06:35.567412</dc:date>
    <dc:format>image/svg+xml</dc:format>
    <dc:creator>
     <cc:Agent>
      <dc:title>Matplotlib v3.10.7, https://matplotlib.org/</dc:title>
     </cc:Agent>
    </dc:creator>
   </cc:Work>
  </rdf:RDF>
 </metadata>
 <defs>
  <style type="text/css">*{stroke-linejoin: round; stroke-linecap: butt}</style>
 </defs>
 <g id="figure_1">
  <g id="patch_1">
   <path d="M 0 216.150625 
L 312.638951 216.150625 
L 312.638951 0 
L 0 0 
z
" style="fill: #ffffff"/>
  </g>
  <g id="axes_1">
   <g id="patch_2">
    <path d="M 36.724531 185.56 
L 305.438951 185.56 
L 305.438951 7.2 
L 36.724531 7.2 
z
" style="fill: #ffffff"/>
   </g>
   <g id="matplotlib.axis_1">
    <g id="xtick_1">
     <g id="line2d_1">
      <defs>
       <path id="m7332a8ecf7" d="M 0 0 
L 0 3.5 
" style="stroke: #000000; stroke-width: 0.8"/>
      </defs>
      <g>
       <use xlink:href="#m7332a8ecf7" x="48.938823" y="185.56" style="stroke: #000000; stroke-width: 0.8"/>
      </g>
     </g>
     <g id="text_1">
      <!-- 2004 -->
      <g transform="translate(43.015698 197.06) scale(0.06 -0.06)">
       <defs>
        <path id="RobotoCondensed-Regular-32" d="M 2909 475 
L 2909 0 
L 366 0 
L 366 416 
L 1628 2088 
Q 1966 2541 2077 2802 
Q 2188 3063 2188 3328 
Q 2188 3663 2027 3900 
Q 1866 4138 1575 4138 
Q 1194 4138 1022 3878 
Q 850 3619 850 3213 
L 297 3213 
Q 297 3788 617 4200 
Q 938 4613 1575 4613 
Q 2125 4613 2433 4278 
Q 2741 3944 2741 3397 
Q 2741 2997 2541 2594 
Q 2341 2191 2047 1809 
L 1028 475 
L 2909 475 
z
" transform="scale(0.015625)"/>
        <path id="RobotoCondensed-Regular-30" d="M 2797 1944 
Q 2797 825 2467 381 
Q 2138 -63 1581 -63 
Q 1038 -63 703 370 
Q 369 803 359 1878 
L 359 2638 
Q 359 3753 695 4183 
Q 1031 4613 1578 4613 
Q 2131 4613 2461 4189 
Q 2791 3766 2797 2681 
L 2797 1944 
z
M 2247 2734 
Q 2247 3503 2073 3822 
Q 1900 4141 1578 4141 
Q 1266 4141 1092 3833 
Q 919 3525 913 2791 
L 913 1850 
Q 913 1088 1089 750 
Q 1266 413 1581 413 
Q 1903 413 2072 738 
Q 2241 1063 2247 1794 
L 2247 2734 
z
" transform="scale(0.015625)"/>
        <path id="RobotoCondensed-Regular-34" d="M 188 1397 
L 1878 4550 
L 2463 4550 
L 2463 1531 
L 2969 1531 
L 2969 1056 
L 2463 1056 
L 2463 0 
L 1909 0 
L 1909 1056 
L 188 1056 
L 188 1397 
z
M 803 1531 
L 1909 1531 
L 1909 3703 
L 1878 3638 
L 803 1531 
z
" transform="scale(0.015625)"/>
       </defs>
       <use xlink:href="#RobotoCondensed-Regular-32"/>
       <use xlink:href="#RobotoCondensed-Regular-30" transform="translate(49.365234 0)"/>
       <use xlink:href="#RobotoCondensed-Regular-30" transform="translate(98.730469 0)"/>
       <use xlink:href="#RobotoCondensed-Regular-34" transform="translate(148.095703 0)"/>
      </g>
     </g>
    </g>
    <g id="xtick_2">
     <g id="line2d_2">
      <g>
       <use xlink:href="#m7332a8ecf7" x="73.367407" y="185.56" style="stroke: #000000; stroke-width: 0.8"/>
      </g>
     </g>
     <g id="text_2">
      <!-- 2006 -->
      <g transform="translate(67.444282 197.06) scale(0.06 -0.06)">
       <defs>
        <path id="RobotoCondensed-Regular-36" d="M 2847 1484 
Q 2847 838 2544 387 
Q 2241 -63 1641 -63 
Q 1216 -63 944 198 
Q 672 459 542 861 
Q 413 1263 413 1684 
L 413 1956 
Q 413 2438 481 2900 
Q 550 3363 742 3738 
Q 934 4113 1296 4334 
Q 1659 4556 2291 4556 
L 2291 4066 
Q 1775 4066 1508 3859 
Q 1241 3653 1122 3318 
Q 1003 2984 978 2606 
Q 1272 2984 1750 2984 
Q 2138 2984 2380 2765 
Q 2622 2547 2734 2201 
Q 2847 1856 2847 1484 
z
M 969 1666 
Q 969 1059 1180 737 
Q 1391 416 1641 416 
Q 1959 416 2129 708 
Q 2300 1000 2300 1456 
Q 2300 1863 2144 2184 
Q 1988 2506 1659 2506 
Q 1425 2506 1236 2329 
Q 1047 2153 969 1900 
L 969 1666 
z
" transform="scale(0.015625)"/>
       </defs>
       <use xlink:href="#RobotoCondensed-Regular-32"/>
       <use xlink:href="#RobotoCondensed-Regular-30" transform="translate(49.365234 0)"/>
       <use xlink:href="#RobotoCondensed-Regular-30" transform="translate(98.730469 0)"/>
       <use xlink:href="#RobotoCondensed-Regular-36" transform="translate(148.095703 0)"/>
      </g>
     </g>
    </g>
    <g id="xtick_3">
     <g id="line2d_3">
      <g>
       <use xlink:href="#m7332a8ecf7" x="97.79599" y="185.56" style="stroke: #000000; stroke-width: 0.8"/>
      </g>
     </g>
     <g id="text_3">
      <!-- 2008 -->
      <g transform="translate(91.872865 197.06) scale(0.06 -0.06)">
       <defs>
        <path id="RobotoCondensed-Regular-38" d="M 2794 1231 
Q 2794 606 2445 271 
Q 2097 -63 1578 -63 
Q 1063 -63 714 273 
Q 366 609 366 1231 
Q 366 1613 536 1905 
Q 706 2197 1000 2347 
Q 450 2666 450 3366 
Q 450 3963 769 4288 
Q 1088 4613 1581 4613 
Q 2075 4613 2392 4288 
Q 2709 3963 2709 3366 
Q 2709 3028 2557 2761 
Q 2406 2494 2150 2344 
Q 2444 2194 2619 1901 
Q 2794 1609 2794 1231 
z
M 2156 3356 
Q 2156 3697 2000 3917 
Q 1844 4138 1581 4138 
Q 1319 4138 1161 3927 
Q 1003 3716 1003 3356 
Q 1003 3003 1159 2790 
Q 1316 2578 1581 2578 
Q 1844 2578 2000 2790 
Q 2156 3003 2156 3356 
z
M 2244 1244 
Q 2244 1625 2061 1865 
Q 1878 2106 1575 2106 
Q 1266 2106 1091 1865 
Q 916 1625 916 1244 
Q 916 850 1089 631 
Q 1263 413 1578 413 
Q 1897 413 2070 631 
Q 2244 850 2244 1244 
z
" transform="scale(0.015625)"/>
       </defs>
       <use xlink:href="#RobotoCondensed-Regular-32"/>
       <use xlink:href="#RobotoCondensed-Regular-30" transform="translate(49.365234 0)"/>
       <use xlink:href="#RobotoCondensed-Regular-30" transform="translate(98.730469 0)"/>
       <use xlink:href="#RobotoCondensed-Regular-38" transform="translate(148.095703 0)"/>
      </g>
     </g>
    </g>
    <g id="xtick_4">
     <g id="line2d_4">
      <g>
       <use xlink:href="#m7332a8ecf7" x="122.224574" y="185.56" style="stroke: #000000; stroke-width: 0.8"/>
      </g>
     </g>
     <g id="text_4">
      <!-- 2010 -->
      <g transform="translate(116.301449 197.06) scale(0.06 -0.06)">
       <defs>
        <path id="RobotoCondensed-Regular-31" d="M 2013 4575 
L 2013 0 
L 1459 0 
L 1459 3853 
L 503 3428 
L 503 3950 
L 1928 4575 
L 2013 4575 
z
" transform="scale(0.015625)"/>
       </defs>
       <use xlink:href="#RobotoCondensed-Regular-32"/>
       <use xlink:href="#RobotoCondensed-Regular-30" transform="translate(49.365234 0)"/>
       <use xlink:href="#RobotoCondensed-Regular-31" transform="translate(98.730469 0)"/>
       <use xlink:href="#RobotoCondensed-Regular-30" transform="translate(148.095703 0)"/>
      </g>
     </g>
    </g>
    <g id="xtick_5">
     <g id="line2d_5">
      <g>
       <use xlink:href="#m7332a8ecf7" x="146.653157" y="185.56" style="stroke: #000000; stroke-width: 0.8"/>
      </g>
     </g>
     <g id="text_5">
      <!-- 2012 -->
      <g transform="translate(140.730032 197.06) scale(0.06 -0.06)">
       <use xlink:href="#RobotoCondensed-Regular-32"/>
       <use xlink:href="#RobotoCondensed-Regular-30" transform="translate(49.365234 0)"/>
       <use xlink:href="#RobotoCondensed-Regular-31" transform="translate(98.730469 0)"/>
       <use xlink:href="#RobotoCondensed-Regular-32" transform="translate(148.095703 0)"/>
      </g>
     </g>
    </g>
    <g id="xtick_6">
     <g id="line2d_6">
      <g>
       <use xlink:href="#m7332a8ecf7" x="171.081741" y="185.56" style="stroke: #000000; stroke-width: 0.8"/>
      </g>
     </g>
     <g id="text_6">
      <!-- 2014 -->
      <g transform="translate(165.158616 197.06) scale(0.06 -0.06)">
       <use xlink:href="#RobotoCondensed-Regular-32"/>
       <use xlink:href="#RobotoCondensed-Regular-30" transform="translate(49.365234 0)"/>
       <use xlink:href="#RobotoCondensed-Regular-31" transform="translate(98.730469 0)"/>
       <use xlink:href="#RobotoCondensed-Regular-34" transform="translate(148.095703 0)"/>
      </g>
     </g>
    </g>
    <g id="xtick_7">
     <g id="line2d_7">
      <g>
       <use xlink:href="#m7332a8ecf7" x="195.510324" y="185.56" style="stroke: #000000; stroke-width: 0.8"/>
      </g>
     </g>
     <g id="text_7">
      <!-- 2016 -->
      <g transform="translate(189.587199 197.06) scale(0.06 -0.06)">
       <use xlink:href="#RobotoCondensed-Regular-32"/>
       <use xlink:href="#RobotoCondensed-Regular-30" transform="translate(49.365234 0)"/>
       <use xlink:href="#RobotoCondensed-Regular-31" transform="translate(98.730469 0)"/>
       <use xlink:href="#RobotoCondensed-Regular-36" transform="translate(148.095703 0)"/>
      </g>
     </g>
    </g>
    <g id="xtick_8">
     <g id="line2d_8">
      <g>
       <use xlink:href="#m7332a8ecf7" x="219.938908" y="185.56" style="stroke: #000000; stroke-width: 0.8"/>
      </g>
     </g>
     <g id="text_8">
      <!-- 2018 -->
      <g transform="translate(214.015783 197.06) scale(0.06 -0.06)">
       <use xlink:href="#RobotoCondensed-Regular-32"/>
       <use xlink:href="#RobotoCondensed-Regular-30" transform="translate(49.365234 0)"/>
       <use xlink:href="#RobotoCondensed-Regular-31" transform="translate(98.730469 0)"/>
       <use xlink:href="#RobotoCondensed-Regular-38" transform="translate(148.095703 0)"/>
      </g>
     </g>
    </g>
    <g id="xtick_9">
     <g id="line2d_9">
      <g>
       <use xlink:href="#m7332a8ecf7" x="244.367492" y="185.56" style="stroke: #000000; stroke-width: 0.8"/>
      </g>
     </g>
     <g id="text_9">
      <!-- 2020 -->
      <g transform="translate(238.444367 197.06) scale(0.06 -0.06)">
       <use xlink:href="#RobotoCondensed-Regular-32"/>
       <use xlink:href="#RobotoCondensed-Regular-30" transform="translate(49.365234 0)"/>
       <use xlink:href="#RobotoCondensed-Regular-32" transform="translate(98.730469 0)"/>
       <use xlink:href="#RobotoCondensed-Regular-30" transform="translate(148.095703 0)"/>
      </g>
     </g>
    </g>
    <g id="xtick_10">
     <g id="line2d_10">
      <g>
       <use xlink:href="#m7332a8ecf7" x="268.796075" y="185.56" style="stroke: #000000; stroke-width: 0.8"/>
      </g>
     </g>
     <g id="text_10">
      <!-- 2022 -->
      <g transform="translate(262.87295 197.06) scale(0.06 -0.06)">
       <use xlink:href="#RobotoCondensed-Regular-32"/>
       <use xlink:href="#RobotoCondensed-Regular-30" transform="translate(49.365234 0)"/>
       <use xlink:href="#RobotoCondensed-Regular-32" transform="translate(98.730469 0)"/>
       <use xlink:href="#RobotoCondensed-Regular-32" transform="translate(148.095703 0)"/>
      </g>
     </g>
    </g>
    <g id="xtick_11">
     <g id="line2d_11">
      <g>
       <use xlink:href="#m7332a8ecf7" x="293.224659" y="185.56" style="stroke: #000000; stroke-width: 0.8"/>
      </g>
     </g>
     <g id="text_11">
      <!-- 2024 -->
      <g transform="translate(287.301534 197.06) scale(0.06 -0.06)">
       <use xlink:href="#RobotoCondensed-Regular-32"/>
       <use xlink:href="#RobotoCondensed-Regular-30" transform="translate(49.365234 0)"/>
       <use xlink:href="#RobotoCondensed-Regular-32" transform="translate(98.730469 0)"/>
       <use xlink:href="#RobotoCondensed-Regular-34" transform="translate(148.095703 0)"/>
      </g>
     </g>
    </g>
    <g id="text_12">
     <!-- Year -->
     <g transform="translate(164.861038 207.52875) scale(0.07 -0.07)">
      <defs>
       <path id="RobotoCondensed-Regular-59" d="M 747 4550 
L 1675 2266 
L 2606 4550 
L 3256 4550 
L 1963 1700 
L 1963 0 
L 1388 0 
L 1388 1700 
L 94 4550 
L 747 4550 
z
" transform="scale(0.015625)"/>
       <path id="RobotoCondensed-Regular-65" d="M 2722 447 
Q 2584 253 2323 95 
Q 2063 -63 1625 -63 
Q 1019 -63 666 301 
Q 313 666 309 1431 
L 309 1828 
Q 309 2722 696 3083 
Q 1084 3444 1563 3444 
Q 2197 3444 2472 3034 
Q 2747 2625 2747 1850 
L 2747 1528 
L 863 1528 
L 863 1447 
Q 863 906 1067 657 
Q 1272 409 1656 409 
Q 1934 409 2114 517 
Q 2294 625 2431 794 
L 2722 447 
z
M 1563 2969 
Q 1275 2969 1084 2770 
Q 894 2572 866 2000 
L 2194 2000 
L 2194 2078 
Q 2172 2469 2048 2719 
Q 1925 2969 1563 2969 
z
" transform="scale(0.015625)"/>
       <path id="RobotoCondensed-Regular-61" d="M 2156 0 
Q 2103 122 2081 366 
Q 1966 194 1775 65 
Q 1584 -63 1334 -63 
Q 891 -63 623 187 
Q 356 438 356 922 
Q 356 1409 690 1729 
Q 1025 2050 1691 2050 
L 2072 2050 
L 2072 2413 
Q 2072 2713 1936 2841 
Q 1800 2969 1528 2969 
Q 1263 2969 1114 2812 
Q 966 2656 966 2444 
L 413 2444 
Q 413 2806 722 3125 
Q 1031 3444 1556 3444 
Q 2025 3444 2325 3209 
Q 2625 2975 2625 2406 
L 2625 794 
Q 2625 316 2728 50 
L 2728 0 
L 2156 0 
z
M 1419 441 
Q 1653 441 1825 562 
Q 1997 684 2072 834 
L 2072 1644 
L 1781 1644 
Q 1384 1644 1146 1475 
Q 909 1306 909 991 
Q 909 688 1036 564 
Q 1163 441 1419 441 
z
" transform="scale(0.015625)"/>
       <path id="RobotoCondensed-Regular-72" d="M 1563 2888 
Q 1138 2888 969 2425 
L 969 0 
L 416 0 
L 416 3381 
L 950 3381 
L 963 3041 
Q 1184 3444 1591 3444 
Q 1738 3444 1809 3400 
L 1813 2863 
Q 1691 2888 1563 2888 
z
" transform="scale(0.015625)"/>
      </defs>
      <use xlink:href="#RobotoCondensed-Regular-59"/>
      <use xlink:href="#RobotoCondensed-Regular-65" transform="translate(52.490234 0)"/>
      <use xlink:href="#RobotoCondensed-Regular-61" transform="translate(99.365234 0)"/>
      <use xlink:href="#RobotoCondensed-Regular-72" transform="translate(147.265625 0)"/>
     </g>
    </g>
   </g>
   <g id="matplotlib.axis_2">
    <g id="ytick_1">
     <g id="line2d_12">
      <path d="M 36.724531 185.56 
L 305.438951 185.56 
" clip-path="url(#p4dff0dd34f)" style="fill: none; stroke: #b0b0b0; stroke-opacity: 0.3; stroke-width: 0.8; stroke-linecap: square"/>
     </g>
     <g id="line2d_13">
      <defs>
       <path id="mad0801dec8" d="M 0 0 
L -3.5 0 
" style="stroke: #000000; stroke-width: 0.8"/>
      </defs>
      <g>
       <use xlink:href="#mad0801dec8" x="36.724531" y="185.56" style="stroke: #000000; stroke-width: 0.8"/>
      </g>
     </g>
     <g id="text_13">
      <!-- 0.0% -->
      <g transform="translate(18.422031 187.81) scale(0.06 -0.06)">
       <defs>
        <path id="RobotoCondensed-Regular-2e" d="M 450 306 
Q 450 453 542 554 
Q 634 656 809 656 
Q 984 656 1076 554 
Q 1169 453 1169 306 
Q 1169 163 1076 62 
Q 984 -38 809 -38 
Q 634 -38 542 62 
Q 450 163 450 306 
z
" transform="scale(0.015625)"/>
        <path id="RobotoCondensed-Regular-25" d="M 334 3675 
Q 334 4063 545 4339 
Q 756 4616 1128 4616 
Q 1506 4616 1717 4339 
Q 1928 4063 1928 3675 
L 1928 3434 
Q 1928 3053 1718 2776 
Q 1509 2500 1134 2500 
Q 759 2500 546 2776 
Q 334 3053 334 3434 
L 334 3675 
z
M 741 3434 
Q 741 3219 836 3047 
Q 931 2875 1134 2875 
Q 1331 2875 1426 3045 
Q 1522 3216 1522 3434 
L 1522 3675 
Q 1522 3894 1425 4067 
Q 1328 4241 1128 4241 
Q 931 4241 836 4067 
Q 741 3894 741 3675 
L 741 3434 
z
M 3116 3903 
L 1250 347 
L 944 553 
L 2813 4109 
L 3116 3903 
z
M 2172 1116 
Q 2172 1500 2384 1776 
Q 2597 2053 2969 2053 
Q 3344 2053 3555 1776 
Q 3766 1500 3766 1116 
L 3766 872 
Q 3766 488 3555 211 
Q 3344 -66 2972 -66 
Q 2597 -66 2384 211 
Q 2172 488 2172 872 
L 2172 1116 
z
M 2578 872 
Q 2578 653 2675 481 
Q 2772 309 2972 309 
Q 3169 309 3264 479 
Q 3359 650 3359 872 
L 3359 1116 
Q 3359 1338 3262 1508 
Q 3166 1678 2969 1678 
Q 2772 1678 2675 1508 
Q 2578 1338 2578 1116 
L 2578 872 
z
" transform="scale(0.015625)"/>
       </defs>
       <use xlink:href="#RobotoCondensed-Regular-30"/>
       <use xlink:href="#RobotoCondensed-Regular-2e" transform="translate(49.365234 0)"/>
       <use xlink:href="#RobotoCondensed-Regular-30" transform="translate(75.732422 0)"/>
       <use xlink:href="#RobotoCondensed-Regular-25" transform="translate(125.097656 0)"/>
      </g>
     </g>
    </g>
    <g id="ytick_2">
     <g id="line2d_14">
      <path d="M 36.724531 163.245683 
L 305.438951 163.245683 
" clip-path="url(#p4dff0dd34f)" style="fill: none; stroke: #b0b0b0; stroke-opacity: 0.3; stroke-width: 0.8; stroke-linecap: square"/>
     </g>
     <g id="line2d_15">
      <g>
       <use xlink:href="#mad0801dec8" x="36.724531" y="163.245683" style="stroke: #000000; stroke-width: 0.8"/>
      </g>
     </g>
     <g id="text_14">
      <!-- 0.5% -->
      <g transform="translate(18.422031 165.495683) scale(0.06 -0.06)">
       <defs>
        <path id="RobotoCondensed-Regular-35" d="M 1034 2166 
L 594 2284 
L 788 4550 
L 2769 4550 
L 2769 4016 
L 1253 4016 
L 1147 2778 
Q 1438 2975 1753 2975 
Q 2288 2975 2591 2561 
Q 2894 2147 2894 1450 
Q 2894 797 2584 367 
Q 2275 -63 1656 -63 
Q 1194 -63 850 248 
Q 506 559 453 1197 
L 975 1197 
Q 1066 413 1656 413 
Q 1978 413 2159 691 
Q 2341 969 2341 1444 
Q 2341 1872 2153 2164 
Q 1966 2456 1619 2456 
Q 1384 2456 1273 2378 
Q 1163 2300 1034 2166 
z
" transform="scale(0.015625)"/>
       </defs>
       <use xlink:href="#RobotoCondensed-Regular-30"/>
       <use xlink:href="#RobotoCondensed-Regular-2e" transform="translate(49.365234 0)"/>
       <use xlink:href="#RobotoCondensed-Regular-35" transform="translate(75.732422 0)"/>
       <use xlink:href="#RobotoCondensed-Regular-25" transform="translate(125.097656 0)"/>
      </g>
     </g>
    </g>
    <g id="ytick_3">
     <g id="line2d_16">
      <path d="M 36.724531 140.931366 
L 305.438951 140.931366 
" clip-path="url(#p4dff0dd34f)" style="fill: none; stroke: #b0b0b0; stroke-opacity: 0.3; stroke-width: 0.8; stroke-linecap: square"/>
     </g>
     <g id="line2d_17">
      <g>
       <use xlink:href="#mad0801dec8" x="36.724531" y="140.931366" style="stroke: #000000; stroke-width: 0.8"/>
      </g>
     </g>
     <g id="text_15">
      <!-- 1.0% -->
      <g transform="translate(18.422031 143.181366) scale(0.06 -0.06)">
       <use xlink:href="#RobotoCondensed-Regular-31"/>
       <use xlink:href="#RobotoCondensed-Regular-2e" transform="translate(49.365234 0)"/>
       <use xlink:href="#RobotoCondensed-Regular-30" transform="translate(75.732422 0)"/>
       <use xlink:href="#RobotoCondensed-Regular-25" transform="translate(125.097656 0)"/>
      </g>
     </g>
    </g>
    <g id="ytick_4">
     <g id="line2d_18">
      <path d="M 36.724531 118.61705 
L 305.438951 118.61705 
" clip-path="url(#p4dff0dd34f)" style="fill: none; stroke: #b0b0b0; stroke-opacity: 0.3; stroke-width: 0.8; stroke-linecap: square"/>
     </g>
     <g id="line2d_19">
      <g>
       <use xlink:href="#mad0801dec8" x="36.724531" y="118.61705" style="stroke: #000000; stroke-width: 0.8"/>
      </g>
     </g>
     <g id="text_16">
      <!-- 1.5% -->
      <g transform="translate(18.422031 120.86705) scale(0.06 -0.06)">
       <use xlink:href="#RobotoCondensed-Regular-31"/>
       <use xlink:href="#RobotoCondensed-Regular-2e" transform="translate(49.365234 0)"/>
       <use xlink:href="#RobotoCondensed-Regular-35" transform="translate(75.732422 0)"/>
       <use xlink:href="#RobotoCondensed-Regular-25" transform="translate(125.097656 0)"/>
      </g>
     </g>
    </g>
    <g id="ytick_5">
     <g id="line2d_20">
      <path d="M 36.724531 96.302733 
L 305.438951 96.302733 
" clip-path="url(#p4dff0dd34f)" style="fill: none; stroke: #b0b0b0; stroke-opacity: 0.3; stroke-width: 0.8; stroke-linecap: square"/>
     </g>
     <g id="line2d_21">
      <g>
       <use xlink:href="#mad0801dec8" x="36.724531" y="96.302733" style="stroke: #000000; stroke-width: 0.8"/>
      </g>
     </g>
     <g id="text_17">
      <!-- 2.0% -->
      <g transform="translate(18.422031 98.552733) scale(0.06 -0.06)">
       <use xlink:href="#RobotoCondensed-Regular-32"/>
       <use xlink:href="#RobotoCondensed-Regular-2e" transform="translate(49.365234 0)"/>
       <use xlink:href="#RobotoCondensed-Regular-30" transform="translate(75.732422 0)"/>
       <use xlink:href="#RobotoCondensed-Regular-25" transform="translate(125.097656 0)"/>
      </g>
     </g>
    </g>
    <g id="ytick_6">
     <g id="line2d_22">
      <path d="M 36.724531 73.988416 
L 305.438951 73.988416 
" clip-path="url(#p4dff0dd34f)" style="fill: none; stroke: #b0b0b0; stroke-opacity: 0.3; stroke-width: 0.8; stroke-linecap: square"/>
     </g>
     <g id="line2d_23">
      <g>
       <use xlink:href="#mad0801dec8" x="36.724531" y="73.988416" style="stroke: #000000; stroke-width: 0.8"/>
      </g>
     </g>
     <g id="text_18">
      <!-- 2.5% -->
      <g transform="translate(18.422031 76.238416) scale(0.06 -0.06)">
       <use xlink:href="#RobotoCondensed-Regular-32"/>
       <use xlink:href="#RobotoCondensed-Regular-2e" transform="translate(49.365234 0)"/>
       <use xlink:href="#RobotoCondensed-Regular-35" transform="translate(75.732422 0)"/>
       <use xlink:href="#RobotoCondensed-Regular-25" transform="translate(125.097656 0)"/>
      </g>
     </g>
    </g>
    <g id="ytick_7">
     <g id="line2d_24">
      <path d="M 36.724531 51.674099 
L 305.438951 51.674099 
" clip-path="url(#p4dff0dd34f)" style="fill: none; stroke: #b0b0b0; stroke-opacity: 0.3; stroke-width: 0.8; stroke-linecap: square"/>
     </g>
     <g id="line2d_25">
      <g>
       <use xlink:href="#mad0801dec8" x="36.724531" y="51.674099" style="stroke: #000000; stroke-width: 0.8"/>
      </g>
     </g>
     <g id="text_19">
      <!-- 3.0% -->
      <g transform="translate(18.422031 53.924099) scale(0.06 -0.06)">
       <defs>
        <path id="RobotoCondensed-Regular-33" d="M 1075 2084 
L 1075 2559 
L 1431 2559 
Q 1788 2559 1961 2781 
Q 2134 3003 2134 3338 
Q 2134 4138 1519 4138 
Q 1228 4138 1054 3927 
Q 881 3716 881 3359 
L 331 3359 
Q 331 3881 653 4247 
Q 975 4613 1519 4613 
Q 2038 4613 2363 4286 
Q 2688 3959 2688 3325 
Q 2688 3072 2550 2786 
Q 2413 2500 2100 2338 
Q 2484 2194 2612 1886 
Q 2741 1578 2741 1269 
Q 2741 631 2389 284 
Q 2038 -63 1516 -63 
Q 1006 -63 656 267 
Q 306 597 306 1203 
L 859 1203 
Q 859 844 1032 628 
Q 1206 413 1516 413 
Q 1822 413 2005 622 
Q 2188 831 2188 1256 
Q 2188 2084 1403 2084 
L 1075 2084 
z
" transform="scale(0.015625)"/>
       </defs>
       <use xlink:href="#RobotoCondensed-Regular-33"/>
       <use xlink:href="#RobotoCondensed-Regular-2e" transform="translate(49.365234 0)"/>
       <use xlink:href="#RobotoCondensed-Regular-30" transform="translate(75.732422 0)"/>
       <use xlink:href="#RobotoCondensed-Regular-25" transform="translate(125.097656 0)"/>
      </g>
     </g>
    </g>
    <g id="ytick_8">
     <g id="line2d_26">
      <path d="M 36.724531 29.359783 
L 305.438951 29.359783 
" clip-path="url(#p4dff0dd34f)" style="fill: none; stroke: #b0b0b0; stroke-opacity: 0.3; stroke-width: 0.8; stroke-linecap: square"/>
     </g>
     <g id="line2d_27">
      <g>
       <use xlink:href="#mad0801dec8" x="36.724531" y="29.359783" style="stroke: #000000; stroke-width: 0.8"/>
      </g>
     </g>
     <g id="text_20">
      <!-- 3.5% -->
      <g transform="translate(18.422031 31.609783) scale(0.06 -0.06)">
       <use xlink:href="#RobotoCondensed-Regular-33"/>
       <use xlink:href="#RobotoCondensed-Regular-2e" transform="translate(49.365234 0)"/>
       <use xlink:href="#RobotoCondensed-Regular-35" transform="translate(75.732422 0)"/>
       <use xlink:href="#RobotoCondensed-Regular-25" transform="translate(125.097656 0)"/>
      </g>
     </g>
    </g>
    <g id="text_21">
     <!-- Weighted Overlap (%) -->
     <g transform="translate(12.815313 125.869687) rotate(-90) scale(0.07 -0.07)">
      <defs>
       <path id="RobotoCondensed-Regular-57" d="M 4706 4550 
L 3803 0 
L 3284 0 
L 2528 3316 
L 2481 3584 
L 2434 3316 
L 1644 0 
L 1128 0 
L 222 4550 
L 794 4550 
L 1363 1438 
L 1422 928 
L 1513 1375 
L 2241 4550 
L 2716 4550 
L 3422 1375 
L 3513 913 
L 3578 1441 
L 4134 4550 
L 4706 4550 
z
" transform="scale(0.015625)"/>
       <path id="RobotoCondensed-Regular-69" d="M 428 4278 
Q 428 4419 506 4516 
Q 584 4613 741 4613 
Q 894 4613 975 4516 
Q 1056 4419 1056 4278 
Q 1056 4144 975 4048 
Q 894 3953 741 3953 
Q 584 3953 506 4048 
Q 428 4144 428 4278 
z
M 1009 3381 
L 1009 0 
L 459 0 
L 459 3381 
L 1009 3381 
z
" transform="scale(0.015625)"/>
       <path id="RobotoCondensed-Regular-67" d="M 1525 -1334 
Q 1331 -1334 1007 -1229 
Q 684 -1125 497 -906 
L 725 -522 
Q 1056 -859 1484 -859 
Q 1806 -859 2000 -679 
Q 2194 -500 2194 -56 
L 2194 338 
Q 1925 -63 1428 -63 
Q 919 -63 611 331 
Q 303 725 303 1528 
L 303 1844 
Q 303 2678 608 3061 
Q 913 3444 1434 3444 
Q 1953 3444 2219 3006 
L 2247 3381 
L 2744 3381 
L 2744 -41 
Q 2741 -703 2402 -1018 
Q 2063 -1334 1525 -1334 
z
M 856 1528 
Q 856 963 1025 695 
Q 1194 428 1572 428 
Q 1988 428 2194 853 
L 2194 2541 
Q 1978 2956 1578 2956 
Q 1197 2956 1028 2687 
Q 859 2419 856 1866 
L 856 1528 
z
" transform="scale(0.015625)"/>
       <path id="RobotoCondensed-Regular-68" d="M 1603 2956 
Q 1400 2956 1236 2818 
Q 1072 2681 969 2459 
L 969 0 
L 416 0 
L 416 4800 
L 969 4800 
L 969 3041 
Q 1288 3444 1775 3444 
Q 2191 3444 2437 3162 
Q 2684 2881 2684 2216 
L 2684 0 
L 2131 0 
L 2131 2222 
Q 2131 2619 2000 2787 
Q 1869 2956 1603 2956 
z
" transform="scale(0.015625)"/>
       <path id="RobotoCondensed-Regular-74" d="M 1647 0 
Q 1488 -63 1259 -63 
Q 991 -63 789 134 
Q 588 331 588 841 
L 588 2938 
L 72 2938 
L 72 3381 
L 588 3381 
L 588 4203 
L 1141 4203 
L 1141 3381 
L 1650 3381 
L 1650 2938 
L 1141 2938 
L 1141 838 
Q 1141 578 1230 506 
Q 1319 434 1431 434 
Q 1550 434 1650 472 
L 1647 0 
z
" transform="scale(0.015625)"/>
       <path id="RobotoCondensed-Regular-64" d="M 2234 0 
L 2209 366 
Q 1941 -63 1425 -63 
Q 925 -63 611 331 
Q 297 725 297 1528 
L 297 1844 
Q 297 2678 609 3061 
Q 922 3444 1431 3444 
Q 1922 3444 2188 3050 
L 2188 4800 
L 2738 4800 
L 2738 0 
L 2234 0 
z
M 850 1528 
Q 850 963 1019 695 
Q 1188 428 1569 428 
Q 1981 428 2188 847 
L 2188 2544 
Q 1972 2956 1575 2956 
Q 1194 2956 1023 2687 
Q 853 2419 850 1866 
L 850 1528 
z
" transform="scale(0.015625)"/>
       <path id="RobotoCondensed-Regular-20" transform="scale(0.015625)"/>
       <path id="RobotoCondensed-Regular-4f" d="M 3450 1878 
Q 3450 913 3040 425 
Q 2631 -63 1925 -63 
Q 1253 -63 829 412 
Q 406 888 394 1822 
L 394 2669 
Q 394 3631 816 4122 
Q 1238 4613 1922 4613 
Q 2622 4613 3031 4131 
Q 3441 3650 3450 2713 
L 3450 1878 
z
M 2881 2675 
Q 2881 3425 2634 3762 
Q 2388 4100 1922 4100 
Q 1478 4100 1220 3762 
Q 963 3425 963 2675 
L 963 1878 
Q 963 1125 1223 786 
Q 1484 447 1925 447 
Q 2394 447 2636 781 
Q 2878 1116 2881 1859 
L 2881 2675 
z
" transform="scale(0.015625)"/>
       <path id="RobotoCondensed-Regular-76" d="M 2578 3381 
L 1575 0 
L 1159 0 
L 144 3381 
L 706 3381 
L 1372 847 
L 2016 3381 
L 2578 3381 
z
" transform="scale(0.015625)"/>
       <path id="RobotoCondensed-Regular-6c" d="M 1009 4800 
L 1009 0 
L 459 0 
L 459 4800 
L 1009 4800 
z
" transform="scale(0.015625)"/>
       <path id="RobotoCondensed-Regular-70" d="M 1750 -63 
Q 1244 -63 969 325 
L 969 -1300 
L 416 -1300 
L 416 3381 
L 919 3381 
L 947 3013 
Q 1222 3444 1744 3444 
Q 2275 3444 2562 3073 
Q 2850 2703 2859 1897 
L 2859 1528 
Q 2859 725 2570 331 
Q 2281 -63 1750 -63 
z
M 1572 2956 
Q 1181 2956 969 2559 
L 969 797 
Q 1178 409 1578 409 
Q 2288 409 2306 1472 
L 2306 1844 
Q 2306 2956 1572 2956 
z
" transform="scale(0.015625)"/>
       <path id="RobotoCondensed-Regular-28" d="M 406 1850 
Q 406 2756 636 3434 
Q 866 4113 1177 4541 
Q 1488 4969 1728 5134 
L 1841 4753 
Q 1547 4475 1253 3761 
Q 959 3047 959 1813 
Q 959 625 1253 -97 
Q 1547 -819 1841 -1119 
L 1728 -1469 
Q 1488 -1306 1177 -878 
Q 866 -450 636 226 
Q 406 903 406 1850 
z
" transform="scale(0.015625)"/>
       <path id="RobotoCondensed-Regular-29" d="M 1603 1819 
Q 1603 906 1373 228 
Q 1144 -450 833 -878 
Q 522 -1306 281 -1469 
L 169 -1119 
Q 463 -841 758 -109 
Q 1053 622 1053 1856 
Q 1053 2647 904 3236 
Q 756 3825 550 4212 
Q 344 4600 169 4781 
L 281 5134 
Q 522 4969 833 4541 
Q 1144 4113 1373 3436 
Q 1603 2759 1603 1819 
z
" transform="scale(0.015625)"/>
      </defs>
      <use xlink:href="#RobotoCondensed-Regular-57"/>
      <use xlink:href="#RobotoCondensed-Regular-65" transform="translate(76.171875 0)"/>
      <use xlink:href="#RobotoCondensed-Regular-69" transform="translate(123.046875 0)"/>
      <use xlink:href="#RobotoCondensed-Regular-67" transform="translate(145.996094 0)"/>
      <use xlink:href="#RobotoCondensed-Regular-68" transform="translate(195.3125 0)"/>
      <use xlink:href="#RobotoCondensed-Regular-74" transform="translate(243.603516 0)"/>
      <use xlink:href="#RobotoCondensed-Regular-65" transform="translate(273.193359 0)"/>
      <use xlink:href="#RobotoCondensed-Regular-64" transform="translate(320.068359 0)"/>
      <use xlink:href="#RobotoCondensed-Regular-20" transform="translate(369.677734 0)"/>
      <use xlink:href="#RobotoCondensed-Regular-4f" transform="translate(392.626953 0)"/>
      <use xlink:href="#RobotoCondensed-Regular-76" transform="translate(452.734375 0)"/>
      <use xlink:href="#RobotoCondensed-Regular-65" transform="translate(495.507812 0)"/>
      <use xlink:href="#RobotoCondensed-Regular-72" transform="translate(542.382812 0)"/>
      <use xlink:href="#RobotoCondensed-Regular-6c" transform="translate(572.851562 0)"/>
      <use xlink:href="#RobotoCondensed-Regular-61" transform="translate(595.800781 0)"/>
      <use xlink:href="#RobotoCondensed-Regular-70" transform="translate(643.701172 0)"/>
      <use xlink:href="#RobotoCondensed-Regular-20" transform="translate(693.017578 0)"/>
      <use xlink:href="#RobotoCondensed-Regular-28" transform="translate(715.966797 0)"/>
      <use xlink:href="#RobotoCondensed-Regular-25" transform="translate(747.363281 0)"/>
      <use xlink:href="#RobotoCondensed-Regular-29" transform="translate(810.644531 0)"/>
     </g>
    </g>
   </g>
   <g id="line2d_28">
    <path d="M 48.938823 98.034016 
L 51.389851 109.186629 
L 53.02387 115.70733 
L 54.657889 121.3387 
L 56.291908 125.945458 
L 57.108918 127.822331 
L 57.925927 129.39232 
L 58.742937 130.638514 
L 59.559946 131.544004 
L 60.376956 132.091878 
L 61.193965 132.2652 
L 62.010975 132.04853 
L 62.827984 131.476578 
L 63.644994 130.604642 
L 64.462003 129.488019 
L 66.096022 126.741895 
L 69.36406 120.746449 
L 70.998079 118.381873 
L 71.815089 117.55141 
L 72.632098 117.029225 
L 73.449108 116.875007 
L 74.266117 117.615976 
L 75.083127 119.464923 
L 75.900136 122.248047 
L 76.717145 125.791548 
L 78.351164 134.464479 
L 81.619202 153.287645 
L 82.436212 157.287373 
L 83.253221 160.657073 
L 84.070231 163.222947 
L 84.88724 164.811193 
L 85.70425 165.253463 
L 86.521259 164.742786 
L 87.338269 163.530816 
L 88.155278 161.72843 
L 88.972288 159.446504 
L 90.606307 153.887538 
L 93.874345 141.893684 
L 94.691354 139.359515 
L 95.508364 137.232816 
L 96.325373 135.624464 
L 97.142383 134.645334 
L 97.959392 134.406073 
L 98.776402 134.956649 
L 99.593411 136.205764 
L 100.410421 138.042098 
L 101.22743 140.35433 
L 102.861449 145.961202 
L 106.129487 157.98759 
L 106.946496 160.514115 
L 107.763506 162.625969 
L 108.580515 164.21183 
L 109.397525 165.160379 
L 110.214534 165.358236 
L 111.031544 164.709774 
L 111.848553 163.297273 
L 112.665563 161.243469 
L 113.482572 158.671101 
L 115.116591 152.461618 
L 118.384629 139.220314 
L 119.201639 136.454635 
L 120.018648 134.152288 
L 120.835658 132.436012 
L 121.652667 131.428544 
L 122.469677 131.213078 
L 124.103696 131.333495 
L 126.554724 131.765254 
L 132.27379 132.976422 
L 133.907809 133.125885 
L 134.724819 133.125179 
L 135.541828 132.972058 
L 136.358838 132.6499 
L 137.175847 132.171381 
L 138.809866 130.795968 
L 140.443885 128.947234 
L 142.077904 126.726593 
L 144.528933 122.92015 
L 146.979961 118.795147 
L 147.796971 116.877812 
L 148.61398 114.436686 
L 150.247999 108.374598 
L 155.150056 87.797213 
L 155.967065 85.046717 
L 156.784075 82.751263 
L 157.601084 81.008733 
L 158.418094 79.91701 
L 159.235103 79.492942 
L 162.503141 78.436239 
L 164.95417 77.841594 
L 167.405198 77.431715 
L 169.856227 77.220241 
L 170.673236 77.196196 
L 171.490246 77.409255 
L 172.307255 79.049254 
L 173.124265 82.102571 
L 173.941274 86.332665 
L 175.575293 97.377037 
L 179.66034 129.023902 
L 180.47735 134.152843 
L 181.294359 138.329717 
L 182.111369 141.317985 
L 182.928378 142.881109 
L 183.745388 142.898821 
L 184.562397 141.861176 
L 185.379407 139.976208 
L 186.196416 137.386924 
L 187.830435 130.667441 
L 191.915483 111.553787 
L 192.732492 108.478274 
L 193.549502 105.98552 
L 194.366511 104.218534 
L 195.183521 103.320323 
L 196.00053 103.43841 
L 196.81754 104.607503 
L 197.634549 106.683219 
L 198.451559 109.511239 
L 200.085578 116.806916 
L 204.170625 137.409116 
L 204.987634 140.700092 
L 205.804644 143.354504 
L 206.621653 145.218032 
L 207.438663 146.136357 
L 209.072682 146.174512 
L 211.52371 145.962215 
L 213.974739 145.561654 
L 217.242777 144.759146 
L 219.693805 143.974264 
L 220.510815 143.482787 
L 221.327824 142.260955 
L 222.144834 140.386993 
L 222.961843 137.977191 
L 224.595862 132.015221 
L 228.68091 115.873316 
L 229.497919 113.363193 
L 230.314928 111.363832 
L 231.131938 109.99152 
L 231.948947 109.362546 
L 233.582966 109.460877 
L 235.216985 109.85685 
L 237.668014 110.754046 
L 240.936052 112.015675 
L 242.570071 112.459927 
L 244.20409 112.652648 
L 245.021099 111.843226 
L 245.838109 108.737677 
L 246.655118 103.636395 
L 247.472128 96.89105 
L 249.106147 79.874856 
L 253.191194 33.180259 
L 254.008204 25.942574 
L 254.825213 20.225867 
L 255.642222 16.381809 
L 256.459232 14.76207 
L 257.276241 15.02361 
L 258.093251 16.046894 
L 258.91026 17.700049 
L 259.72727 19.871097 
L 261.361289 25.318969 
L 265.446336 40.163396 
L 266.263346 42.446422 
L 267.080355 44.239549 
L 267.897365 45.430798 
L 268.714374 45.908194 
L 270.348393 45.771311 
L 271.982412 45.35961 
L 273.616431 44.742375 
L 276.06746 43.574503 
L 280.152507 41.528791 
L 293.224659 36.019029 
L 293.224659 36.019029 
" clip-path="url(#p4dff0dd34f)" style="fill: none; stroke: #1f77b4; stroke-width: 1.5; stroke-linecap: square"/>
   </g>
   <g id="line2d_29">
    <path d="M 48.938823 150.614494 
L 293.224659 63.573371 
" clip-path="url(#p4dff0dd34f)" style="fill: none; stroke: #1f77b4; stroke-width: 1.5; stroke-linecap: square"/>
   </g>
   <g id="patch_3">
    <path d="M 36.724531 185.56 
L 36.724531 7.2 
" style="fill: none; stroke: #000000; stroke-width: 0.8; stroke-linejoin: miter; stroke-linecap: square"/>
   </g>
   <g id="patch_4">
    <path d="M 36.724531 185.56 
L 305.438951 185.56 
" style="fill: none; stroke: #000000; stroke-width: 0.8; stroke-linejoin: miter; stroke-linecap: square"/>
   </g>
   <g id="PathCollection_1">
    <defs>
     <path id="m7e060115b8" d="M -2.5 2.5 
L 2.5 2.5 
L 2.5 -2.5 
L -2.5 -2.5 
z
" style="stroke: #1f77b4"/>
    </defs>
    <g clip-path="url(#p4dff0dd34f)">
     <use xlink:href="#m7e060115b8" x="48.938823" y="98.034016" style="fill: #1f77b4; stroke: #1f77b4"/>
     <use xlink:href="#m7e060115b8" x="61.153115" y="132.265716" style="fill: #1f77b4; stroke: #1f77b4"/>
     <use xlink:href="#m7e060115b8" x="73.367407" y="116.86854" style="fill: #1f77b4; stroke: #1f77b4"/>
     <use xlink:href="#m7e060115b8" x="85.581698" y="165.262725" style="fill: #1f77b4; stroke: #1f77b4"/>
     <use xlink:href="#m7e060115b8" x="97.79599" y="134.389579" style="fill: #1f77b4; stroke: #1f77b4"/>
     <use xlink:href="#m7e060115b8" x="110.010282" y="165.386587" style="fill: #1f77b4; stroke: #1f77b4"/>
     <use xlink:href="#m7e060115b8" x="122.224574" y="131.210782" style="fill: #1f77b4; stroke: #1f77b4"/>
     <use xlink:href="#m7e060115b8" x="134.438866" y="133.13649" style="fill: #1f77b4; stroke: #1f77b4"/>
     <use xlink:href="#m7e060115b8" x="146.653157" y="119.393493" style="fill: #1f77b4; stroke: #1f77b4"/>
     <use xlink:href="#m7e060115b8" x="158.867449" y="79.629434" style="fill: #1f77b4; stroke: #1f77b4"/>
     <use xlink:href="#m7e060115b8" x="171.081741" y="77.193167" style="fill: #1f77b4; stroke: #1f77b4"/>
     <use xlink:href="#m7e060115b8" x="183.296033" y="143.056539" style="fill: #1f77b4; stroke: #1f77b4"/>
     <use xlink:href="#m7e060115b8" x="195.510324" y="103.236329" style="fill: #1f77b4; stroke: #1f77b4"/>
     <use xlink:href="#m7e060115b8" x="207.724616" y="146.205908" style="fill: #1f77b4; stroke: #1f77b4"/>
     <use xlink:href="#m7e060115b8" x="219.938908" y="143.887779" style="fill: #1f77b4; stroke: #1f77b4"/>
     <use xlink:href="#m7e060115b8" x="232.1532" y="109.335077" style="fill: #1f77b4; stroke: #1f77b4"/>
     <use xlink:href="#m7e060115b8" x="244.367492" y="112.654414" style="fill: #1f77b4; stroke: #1f77b4"/>
     <use xlink:href="#m7e060115b8" x="256.581783" y="14.732695" style="fill: #1f77b4; stroke: #1f77b4"/>
     <use xlink:href="#m7e060115b8" x="268.796075" y="45.91236" style="fill: #1f77b4; stroke: #1f77b4"/>
     <use xlink:href="#m7e060115b8" x="281.010367" y="41.161919" style="fill: #1f77b4; stroke: #1f77b4"/>
     <use xlink:href="#m7e060115b8" x="293.224659" y="36.019029" style="fill: #1f77b4; stroke: #1f77b4"/>
    </g>
   </g>
  </g>
 </g>
 <defs>
  <clipPath id="p4dff0dd34f">
   <rect x="36.724531" y="7.2" width="268.714419" height="178.36"/>
  </clipPath>
 </defs>
</svg>
